<?xml version="1.0" encoding="UTF-8"?>
<!DOCTYPE svg PUBLIC "-//W3C//DTD SVG 1.1//EN" "http://www.w3.org/Graphics/SVG/1.1/DTD/svg11.dtd">
<!-- Creator: CorelDRAW 2021 (64 Bit) -->
<svg xmlns="http://www.w3.org/2000/svg" xml:space="preserve" width="726px" height="376px" version="1.1" style="shape-rendering:geometricPrecision; text-rendering:geometricPrecision; image-rendering:optimizeQuality; fill-rule:evenodd; clip-rule:evenodd"
viewBox="0 0 1394.39 722.16"
 xmlns:xlink="http://www.w3.org/1999/xlink"
 xmlns:xodm="http://www.corel.com/coreldraw/odm/2003">
 <defs>
  <style type="text/css">
   <![CDATA[
    .fil3 {fill:black}
    .fil5 {fill:#01FD94}
    .fil7 {fill:#52331D}
    .fil10 {fill:#7C7C7C}
    .fil4 {fill:#86B0C0}
    .fil9 {fill:#A0760D}
    .fil1 {fill:#B8B4B6}
    .fil8 {fill:#B8E3EA}
    .fil11 {fill:#BC9843}
    .fil2 {fill:#E2A610}
    .fil6 {fill:#FDD734}
    .fil0 {fill:white}
   ]]>
  </style>
 </defs>
 <g id="Camada_x0020_1">
  <metadata id="CorelCorpID_0Corel-Layer"/>
  <g id="_2360793543456">
   <path class="fil0" d="M196.09 569.24l14.7 -0.14 0.78 67.05 -15.57 -0.06 0.09 -66.85zm726.08 -222.74c3.72,-10.25 12.43,-12.8 25.64,-17.14 9.16,-3.01 21.41,-6.93 31.13,-8.1 0.98,-59.95 -8.55,-119.17 22.62,-164.78 42.97,-62.86 121.25,-83.02 193.82,-40.07 24.69,14.62 31.7,23.35 47.04,45.18 32.94,46.88 20.1,100.9 22.97,161.66 10.15,1.83 17.85,4.8 27.63,8.59 11.85,4.58 17.73,6.62 16.92,21.55 -0.14,27.32 2.54,229.09 -1.06,237.13 -7.53,16.81 -64.95,30.95 -84.74,34.48 -69.3,12.39 -152.9,13.46 -222.06,-0.08 -101.11,-19.79 -82.52,-35.25 -81.87,-98.66l1.96 -179.76zm-272.75 10.27c7.41,-6.59 15.78,-13.53 29.29,-14.49l4.51 -2.3 3.57 -0.34c10.22,-5.31 21.58,-4.15 34.26,-5.75 105.08,3.15 130.24,123.57 51.49,169.75 -29.74,17.44 -52.87,16.05 -87.49,9.09 -17.32,21.01 -18.87,24.69 -40.38,26.36l-1.13 98 -17.12 -1.69 -2.24 -96.06 -16.51 37.56c-11.91,5.51 -28.65,6.06 -40.19,13.05 -10.17,11.79 -6.26,2.39 -6.79,36.36 -0.18,11.88 -2.94,10.01 -16.29,8.56 -2.88,-8.46 -1.5,-18.9 -1.5,-28.03 -26.84,1.58 -44.28,-7.26 -58.5,-21.04 8.06,-14.47 98.45,-86.44 104.52,-97.96 -0.44,-0.33 -1.12,-1.36 -1.36,-0.95 -0.23,0.39 -1.02,-0.73 -1.35,-0.92 -7.98,-4.86 -14.88,-6.73 -24.54,-8.56l-98.41 -15.92c-3.87,39.45 -46.14,72.26 -88.86,74.2 -31.12,1.41 -63.63,-18.04 -78.89,-41.75 -23.38,-36.32 20.44,-39.75 -82.45,-21.68 -53.14,9.33 -88.79,20.66 -90.1,78.89 -0.43,18.84 3.09,72.67 -1.84,85l-16.61 1.17c-2.09,-23.02 -2.13,-74.66 -0.36,-97.41 7.15,-91.7 126.32,-85.04 196.69,-100.83 2.61,-11.85 2.23,-31.33 0.73,-43.43 -14.56,-10.93 -20.05,-17.7 -30.7,-30.81 -2.33,-2.88 -4.27,-5.1 -6.37,-8.89 -1.91,-3.43 -2.77,-6.82 -4.88,-10.56 -10.8,-19.13 -29.99,0.24 -41.07,-52.98 -6.69,-32.11 2.59,-35.74 16,-44.65 -0.18,-43.54 -11.84,-79.89 28.52,-124.96 25.32,-28.27 52.48,-49.8 107.62,-49.88 27.1,-0.04 43.95,4.17 63.65,15.15 37.48,20.89 58.05,46.45 70.35,87.14 8.14,26.95 2,47.19 3.85,74.47 22.15,16.14 23.54,17.89 14.53,48.7 -7.56,25.84 -5.57,33.99 -33.31,39.98 -11.86,19.96 -11.85,25.45 -31.35,43.19 -4.34,3.95 -10.25,6.69 -12.78,12.18 -0.03,11.16 -3.5,34.07 1.89,41.78 3.75,5.36 2.57,4.31 16.87,6.65 6.85,1.11 14.1,2.46 21.27,3.71 37.56,6.52 89.38,12.31 117.42,28.28l17.35 -14.66c-5.68,-25.87 -10.03,-33.02 -1.18,-61.12 5.67,-18.03 16.72,-35.27 30.17,-41.6zm-600.88 284.72c2.79,40.58 53.15,31.37 89.75,31.37 359.8,0 719.6,0 1079.4,0 24.8,0 99.58,5.51 114.2,-7.44 14.64,-12.97 13,-23.02 12.98,-46.97 -0.04,-52.45 2.2,-518.64 -0.35,-539.71 -4.77,-39.47 -52.51,-30.1 -90.34,-30.1l-1079.4 0c-139.57,0 -126.36,-15.45 -126.36,112.69 0,80.03 0,160.06 0,240.08 0,51.35 -2.59,200.85 0.12,240.08z"/>
   <path class="fil1" d="M48.54 641.49c-2.71,-39.23 -0.12,-188.73 -0.12,-240.08 0,-80.02 0,-160.05 0,-240.08 0,-128.14 -13.21,-112.69 126.36,-112.69l1079.4 0c37.83,0 85.57,-9.37 90.34,30.1 2.55,21.07 0.31,487.26 0.35,539.71 0.02,23.95 1.66,34 -12.98,46.97 -14.62,12.95 -89.4,7.44 -114.2,7.44 -359.8,0 -719.6,0 -1079.4,0 -36.6,0 -86.96,9.21 -89.75,-31.37zm-48.54 -560.82l0 562.75c0,43.69 38.75,78.74 92.19,78.74l1208.09 0c34.19,0 49.98,-6.93 70.6,-27.35 18.38,-18.2 23.51,-38.97 23.51,-74.44l0 -522.42c0,-32.64 -5.95,-50.93 -20.81,-69.45 -13.39,-16.67 -38.57,-28.5 -61.78,-28.5l-1229.21 0c-44.47,0 -82.59,36.38 -82.59,80.67z"/>
   <path class="fil2" d="M1093.26 512.24l-4.74 -11.01c-24.12,-13.82 -17.15,-44.61 12,-50.8 6.76,-3.32 11.63,-3.41 19.88,-1.66 11.53,2.45 8.59,5.28 15.37,8.35 -5.38,2.22 -4.42,0.5 0.79,-4.18l2.56 2.32c2.14,1.8 1.21,0.7 3.04,2.4 11.12,10.33 16.3,32.08 -5.7,44.93l-5.5 3.44c-0.25,-0.41 -0.95,0.65 -1.39,1.02 5.6,18.84 27.67,44.5 27.16,61.74 -12.64,3.09 -75.95,2.46 -88.7,-0.42 -0.04,-11.97 7.84,-19.41 12.64,-29.35 3.62,-7.47 10.02,-19.37 12.59,-26.78zm216.68 -158.85c-8.65,14.07 -16.89,19.81 -34.08,25.82 -47.18,16.48 -112.74,21.02 -163.81,20.87 -36.24,-0.11 -81.36,-3.3 -113.68,-9.57 -37.35,-7.25 -62.6,-12.84 -76.2,-44.01l-1.96 179.76c-0.65,63.41 -19.24,78.87 81.87,98.66 69.16,13.54 152.76,12.47 222.06,0.08 19.79,-3.53 77.21,-17.67 84.74,-34.48 3.6,-8.04 0.92,-209.81 1.06,-237.13z"/>
   <path class="fil3" d="M318.42 441.4c1.81,-14.75 -1,-22.99 -0.2,-37.09l4.43 2.91c37.21,12.51 72.74,11.71 105.34,-5.36 1.08,11.52 -1.09,27.36 0.64,37.67 1.88,11.24 10.3,13.15 16.97,19.5 -3.66,73.16 -135.44,81.41 -142.98,0 7.17,-7.18 14.33,-6.65 15.8,-17.63zm-62.95 -176.49c-0.23,-23.81 -6.24,-22.46 0.54,-49.24 2.63,-10.39 3.82,-11.1 13.91,-14.9 33.91,-12.78 37.97,33.97 100.79,33.68 69.93,-0.32 80.2,-65.85 114.59,-18.72 10.36,14.21 2.89,30.95 1.3,46.72 27.5,12.22 25.88,-2.85 16.77,43.08 -3.4,17.15 -10.84,12.34 -26.49,13.84 -14.1,47.07 -55.06,78.91 -106.2,77.47 -51.89,-1.47 -89.65,-28.16 -102.84,-78.01 -18.6,0.06 -22.69,0.45 -27.42,-15.76 -3.24,-11.09 -7.34,-20.92 -5.84,-35.1l20.89 -3.06zm-4.1 -74.83c1.33,-29.63 27.36,-56.96 41.76,-69.8 48.55,-43.28 112.97,-38.58 159.14,1.78 14.4,12.6 37.13,45.24 37.76,71.8 -36.84,-20.15 -29.52,-20.88 -57.44,-1.32 -43.6,30.54 -78.92,33.84 -122.13,0.19 -29.65,-23.09 -31.15,-14.2 -59.09,-2.65zm291.53 416.76c3.2,5.33 1.87,16.63 1.87,26.5l14.11 0.44c-1.29,-23.97 -3.55,-37.13 8.6,-43.83 11.54,-6.99 28.28,-7.54 40.19,-13.05l16.51 -37.56 2.24 96.06 17.12 1.69 1.13 -98c21.51,-1.67 23.06,-5.35 40.38,-26.36 34.62,6.96 57.75,8.35 87.49,-9.09 78.75,-46.18 53.59,-166.6 -51.49,-169.75 0.18,10.98 -4.91,13.61 6.84,15.63 7.8,1.34 13.56,0.62 22.31,2.75 55.77,13.58 76.14,84.17 39.94,122.87 -43.84,46.87 -62.92,31.87 -111.22,23.63 -20.67,33.96 -30.92,27.83 -70.31,30.7 -1,4.38 -10.78,32.37 -13.11,35.3 -5.01,6.33 -23.45,10.36 -32.72,13.41 -17.85,5.87 -19.27,16.06 -27.71,18.31 -12.32,3.28 -28.51,-4.21 -33.88,-10.69l105.84 -92.13c9.59,-7.2 23.14,-23.74 34.41,-30.61 -3.43,-9.76 -7.75,-11.59 -10.94,-25.68 -2.43,-10.73 -2.19,-20.67 0.68,-30.83 4.33,-15.36 20.58,-36.32 28.24,-40.68 -3.53,-5.44 -5.21,-6.68 -10,-9.1 -13.45,6.33 -24.5,23.57 -30.17,41.6 -8.85,28.1 -4.5,35.25 1.18,61.12l-17.35 14.66c-28.04,-15.97 -79.86,-21.76 -117.42,-28.28 -7.17,-1.25 -14.42,-2.6 -21.27,-3.71 -14.3,-2.34 -13.12,-1.29 -16.87,-6.65 -5.39,-7.71 -1.92,-30.62 -1.89,-41.78 2.53,-5.49 8.44,-8.23 12.78,-12.18 19.5,-17.74 19.49,-23.23 31.35,-43.19 27.74,-5.99 25.75,-14.14 33.31,-39.98 9.01,-30.81 7.62,-32.56 -14.53,-48.7 -1.85,-27.28 4.29,-47.52 -3.85,-74.47 -12.3,-40.69 -32.87,-66.25 -70.35,-87.14 -19.7,-10.98 -36.55,-15.19 -63.65,-15.15 -55.14,0.08 -82.3,21.61 -107.62,49.88 -40.36,45.07 -28.7,81.42 -28.52,124.96 -13.41,8.91 -22.69,12.54 -16,44.65 11.08,53.22 30.27,33.85 41.07,52.98 2.11,3.74 2.97,7.13 4.88,10.56 2.1,3.79 4.04,6.01 6.37,8.89 10.65,13.11 16.14,19.88 30.7,30.81 1.5,12.1 1.88,31.58 -0.73,43.43 -70.37,15.79 -189.54,9.13 -196.69,100.83 -1.77,22.75 -1.73,74.39 0.36,97.41l16.61 -1.17c4.93,-12.33 1.41,-66.16 1.84,-85 1.31,-58.23 36.96,-69.56 90.1,-78.89 102.89,-18.07 59.07,-14.64 82.45,21.68 15.26,23.71 47.77,43.16 78.89,41.75 42.72,-1.94 84.99,-34.75 88.86,-74.2l98.41 15.92c9.66,1.83 16.56,3.7 24.54,8.56 0.33,0.19 1.12,1.31 1.35,0.92 0.24,-0.41 0.92,0.62 1.36,0.95 -6.07,11.52 -96.46,83.49 -104.52,97.96 14.22,13.78 31.66,22.62 58.5,21.04z"/>
   <path class="fil4" d="M993.61 254.77c-18.77,-18.86 5.73,-136.5 55.46,-115.33 5,16.76 -2.94,22.54 -12.05,29.56 -18.1,13.93 -27.5,56.21 -33.67,75.62 -2.44,7.67 -2.24,9.22 -9.74,10.15zm-14.67 66.49l0.32 44.46c28.94,11.51 35.55,15.06 64.62,-1.75l1.12 -54.65c-0.63,-31.31 -3.6,-86.05 8.89,-110.07 30.65,-58.95 116.28,-59.29 145.62,1.48 9.06,18.78 6.65,30.17 6.65,52.8 0.01,18.85 0.74,38.8 -0.31,57.52l-0.22 31.11 0.68 14.48c12.88,11.72 45.18,8.89 58.64,0.85l0.46 -16.48 -0.02 -17.76c-2.87,-60.76 9.97,-114.78 -22.97,-161.66 -15.34,-21.83 -22.35,-30.56 -47.04,-45.18 -72.57,-42.95 -150.85,-22.79 -193.82,40.07 -31.17,45.61 -21.64,104.83 -22.62,164.78z"/>
   <path class="fil0" d="M334.19 330.14c9.69,10.75 18.31,16.59 40.41,16.04 17.77,-0.45 26.39,-10.46 36.42,-17.56l11.09 9.41c-7.08,12.9 -27.48,24.27 -49.49,25.05 -21.16,0.74 -46.06,-10.25 -50.58,-23.82l12.15 -9.12zm-16.81 -82.89c23.28,-5.64 28.38,28.12 8.66,32.98 -12.2,3.01 -20.17,-3.29 -22.21,-11.95 -3.18,-13.49 3.06,-18.49 13.55,-21.03zm92.82 0.36c24.77,-7 28.98,24.76 11.3,31.92 -21.85,8.83 -38.03,-24.36 -11.3,-31.92zm-154.73 17.3l-20.89 3.06c-1.5,14.18 2.6,24.01 5.84,35.1 4.73,16.21 8.82,15.82 27.42,15.76 13.19,49.85 50.95,76.54 102.84,78.01 51.14,1.44 92.1,-30.4 106.2,-77.47 15.65,-1.5 23.09,3.31 26.49,-13.84 9.11,-45.93 10.73,-30.86 -16.77,-43.08 1.59,-15.77 9.06,-32.51 -1.3,-46.72 -34.39,-47.13 -44.66,18.4 -114.59,18.72 -62.82,0.29 -66.88,-46.46 -100.79,-33.68 -10.09,3.8 -11.28,4.51 -13.91,14.9 -6.78,26.78 -0.77,25.43 -0.54,49.24z"/>
   <path class="fil5" d="M735.43 364.04c37.5,-7.41 53.11,44.59 12.63,53.51 -38.74,8.54 -55.23,-45.1 -12.63,-53.51zm-48.64 -24.4c24.4,2.89 22.02,23.39 7.34,28.08 -18.1,5.79 -26.66,-10.31 -15.42,-25.44l4.51 -2.3 -4.51 2.3c-13.51,0.96 -21.88,7.9 -29.29,14.49 4.79,2.42 6.47,3.66 10,9.1 -7.66,4.36 -23.91,25.32 -28.24,40.68 -2.87,10.16 -3.11,20.1 -0.68,30.83 3.19,14.09 7.51,15.92 10.94,25.68 -11.27,6.87 -24.82,23.41 -34.41,30.61l-105.84 92.13c5.37,6.48 21.56,13.97 33.88,10.69 8.44,-2.25 9.86,-12.44 27.71,-18.31 9.27,-3.05 27.71,-7.08 32.72,-13.41 2.33,-2.93 12.11,-30.92 13.11,-35.3 39.39,-2.87 49.64,3.26 70.31,-30.7 48.3,8.24 67.38,23.24 111.22,-23.63 36.2,-38.7 15.83,-109.29 -39.94,-122.87 -8.75,-2.13 -14.51,-1.41 -22.31,-2.75 -11.75,-2.02 -6.66,-4.65 -6.84,-15.63 -12.68,1.6 -24.04,0.44 -34.26,5.75z"/>
   <path class="fil6" d="M1045 309.32l-1.12 54.65c-29.07,16.81 -35.68,13.26 -64.62,1.75l-0.32 -44.46c-9.72,1.17 -21.97,5.09 -31.13,8.1 -13.21,4.34 -21.92,6.89 -25.64,17.14 13.6,31.17 38.85,36.76 76.2,44.01 32.32,6.27 77.44,9.46 113.68,9.57 51.07,0.15 116.63,-4.39 163.81,-20.87 17.19,-6.01 25.43,-11.75 34.08,-25.82 0.81,-14.93 -5.07,-16.97 -16.92,-21.55 -9.78,-3.79 -17.48,-6.76 -27.63,-8.59l0.02 17.76c4.18,1.38 7.04,-0.18 6.73,8.45 -0.25,7.2 -2.43,6.8 -7.19,8.03 -13.46,8.04 -45.76,10.87 -58.64,-0.85 -4.73,-1.59 -2.23,-0.24 -5.81,-2.89 -0.41,-7.74 -0.4,-8.42 5.13,-11.59l0.22 -31.11c-58.22,-10.86 -102.36,-8.24 -160.85,-1.73z"/>
   <path class="fil0" d="M1045 309.32c58.49,-6.51 102.63,-9.13 160.85,1.73 1.05,-18.72 0.32,-38.67 0.31,-57.52 0,-22.63 2.41,-34.02 -6.65,-52.8 -29.34,-60.77 -114.97,-60.43 -145.62,-1.48 -12.49,24.02 -9.52,78.76 -8.89,110.07z"/>
   <path class="fil0" d="M251.37 190.08c27.94,-11.55 29.44,-20.44 59.09,2.65 43.21,33.65 78.53,30.35 122.13,-0.19 27.92,-19.56 20.6,-18.83 57.44,1.32 -0.63,-26.56 -23.36,-59.2 -37.76,-71.8 -46.17,-40.36 -110.59,-45.06 -159.14,-1.78 -14.4,12.84 -40.43,40.17 -41.76,69.8z"/>
   <path class="fil0" d="M322.65 407.22c-3.39,3.07 -2.65,-4.36 -2.73,7.5 -0.01,1.98 0.96,7.31 1.18,9.74 0.51,5.72 1.34,14.04 -2.68,16.94 -1.47,10.98 -8.63,10.45 -15.8,17.63 7.54,81.41 139.32,73.16 142.98,0 -6.67,-6.35 -15.09,-8.26 -16.97,-19.5 -1.73,-10.31 0.44,-26.15 -0.64,-37.67 -32.6,17.07 -68.13,17.87 -105.34,5.36z"/>
   <path class="fil7" d="M1100.52 450.43c-0.43,0.32 -1.01,0.71 -1.32,0.92 -26.18,18.22 -13.26,39.35 1.68,46.14l-2.06 6.31 -2.97 7.98c-21.33,51.72 -28.43,42.84 23.89,43.01 43.03,0.13 21.14,1.66 3.89,-56.19 25.22,-13.53 15.99,-27.53 12.14,-41.48 -6.78,-3.07 -3.84,-5.9 -15.37,-8.35 -8.25,-1.75 -13.12,-1.66 -19.88,1.66z"/>
   <path class="fil8" d="M993.61 254.77c7.5,-0.93 7.3,-2.48 9.74,-10.15 6.17,-19.41 15.57,-61.69 33.67,-75.62 9.11,-7.02 17.05,-12.8 12.05,-29.56 -49.73,-21.17 -74.23,96.47 -55.46,115.33z"/>
   <path class="fil9" d="M1135.77 457.12c3.85,13.95 13.08,27.95 -12.14,41.48 17.25,57.85 39.14,56.32 -3.89,56.19 -52.32,-0.17 -45.22,8.71 -23.89,-43.01l-2.59 0.46c-2.57,7.41 -8.97,19.31 -12.59,26.78 -4.8,9.94 -12.68,17.38 -12.64,29.35 12.75,2.88 76.06,3.51 88.7,0.42 0.51,-17.24 -21.56,-42.9 -27.16,-61.74 0.44,-0.37 1.14,-1.43 1.39,-1.02l5.5 -3.44c22,-12.85 16.82,-34.6 5.7,-44.93 -1.83,-1.7 -0.9,-0.6 -3.04,-2.4l-2.56 -2.32c-5.21,4.68 -6.17,6.4 -0.79,4.18z"/>
   <path class="fil0" d="M730.22 370.28c-29.94,12.34 -12.73,52.81 20.29,42.23 31.33,-10.05 13.65,-56.22 -20.29,-42.23z"/>
   <path class="fil3" d="M334.19 330.14l-12.15 9.12c4.52,13.57 29.42,24.56 50.58,23.82 22.01,-0.78 42.41,-12.15 49.49,-25.05l-11.09 -9.41c-10.03,7.1 -18.65,17.11 -36.42,17.56 -22.1,0.55 -30.72,-5.29 -40.41,-16.04z"/>
   <polygon class="fil3" points="196,636.09 211.57,636.15 210.79,569.1 196.09,569.24 "/>
   <path class="fil3" d="M410.2 247.61c-26.73,7.56 -10.55,40.75 11.3,31.92 17.68,-7.16 13.47,-38.92 -11.3,-31.92z"/>
   <path class="fil3" d="M317.38 247.25c-10.49,2.54 -16.73,7.54 -13.55,21.03 2.04,8.66 10.01,14.96 22.21,11.95 19.72,-4.86 14.62,-38.62 -8.66,-32.98z"/>
   <path class="fil3" d="M730.22 370.28c33.94,-13.99 51.62,32.18 20.29,42.23 -33.02,10.58 -50.23,-29.89 -20.29,-42.23zm5.21 -6.24c-42.6,8.41 -26.11,62.05 12.63,53.51 40.48,-8.92 24.87,-60.92 -12.63,-53.51z"/>
   <path class="fil3" d="M678.71 342.28c-11.24,15.13 -2.68,31.23 15.42,25.44 14.68,-4.69 17.06,-25.19 -7.34,-28.08l-3.57 0.34 -4.51 2.3z"/>
   <path class="fil9" d="M1088.52 501.23c5.02,2.26 5.38,3.47 10.3,2.57l2.06 -6.31c-14.94,-6.79 -27.86,-27.92 -1.68,-46.14 0.31,-0.21 0.89,-0.6 1.32,-0.92 -29.15,6.19 -36.12,36.98 -12,50.8z"/>
   <path class="fil10" d="M542.9 606.84c0,9.13 -1.38,19.57 1.5,28.03 13.35,1.45 16.11,3.32 16.29,-8.56 0.53,-33.97 -3.38,-24.57 6.79,-36.36 -12.15,6.7 -9.89,19.86 -8.6,43.83l-14.11 -0.44c0,-9.87 1.33,-21.17 -1.87,-26.5z"/>
   <path class="fil9" d="M1264.95 357.49c4.76,-1.23 6.94,-0.83 7.19,-8.03 0.31,-8.63 -2.55,-7.07 -6.73,-8.45l-0.46 16.48z"/>
   <path class="fil10" d="M318.42 441.4c4.02,-2.9 3.19,-11.22 2.68,-16.94 -0.22,-2.43 -1.19,-7.76 -1.18,-9.74 0.08,-11.86 -0.66,-4.43 2.73,-7.5l-4.43 -2.91c-0.8,14.1 2.01,22.34 0.2,37.09z"/>
   <path class="fil9" d="M1206.31 356.64l-0.68 -14.48c-5.53,3.17 -5.54,3.85 -5.13,11.59 3.58,2.65 1.08,1.3 5.81,2.89z"/>
   <path class="fil11" d="M1093.26 512.24l2.59 -0.46 2.97 -7.98c-4.92,0.9 -5.28,-0.31 -10.3,-2.57l4.74 11.01z"/>
  </g>
 </g>
</svg>
