<?xml version="1.0" encoding="UTF-8"?>
<!DOCTYPE svg PUBLIC "-//W3C//DTD SVG 1.1//EN" "http://www.w3.org/Graphics/SVG/1.1/DTD/svg11.dtd">
<!-- Creator: CorelDRAW 2021 (64 Bit) -->
<svg xmlns="http://www.w3.org/2000/svg" xml:space="preserve" width="400px" height="400px" version="1.1" style="shape-rendering:geometricPrecision; text-rendering:geometricPrecision; image-rendering:optimizeQuality; fill-rule:evenodd; clip-rule:evenodd"
viewBox="0 0 4.67 4.67"
 xmlns:xlink="http://www.w3.org/1999/xlink"
 xmlns:xodm="http://www.corel.com/coreldraw/odm/2003">
 <defs>
  <style type="text/css">
   <![CDATA[
    .str0 {stroke:#C4C4C4;stroke-width:0.35;stroke-miterlimit:22.9256}
    .str3 {stroke:black;stroke-width:0.02;stroke-miterlimit:22.9256}
    .str1 {stroke:black;stroke-width:0.01;stroke-miterlimit:22.9256}
    .str2 {stroke:#FF9933;stroke-width:0.01;stroke-miterlimit:22.9256}
    .fil7 {fill:none}
    .fil2 {fill:black}
    .fil6 {fill:#CCCCCC}
    .fil4 {fill:#E6E6E6}
    .fil3 {fill:#FF9933}
    .fil5 {fill:#FFFF99}
    .fil1 {fill:white}
    .fil0 {fill:white}
   ]]>
  </style>
 </defs>
 <g id="Camada_x0020_1">
  <metadata id="CorelCorpID_0Corel-Layer"/>
  <g id="_2069394333808">
   <circle class="fil0 str0" cx="2.34" cy="2.34" r="2.16"/>
   <g>
    <g>
     <path class="fil1" d="M2.33 1.22c0.02,0 0.04,-0.01 0.05,-0.02 0.01,0 0.01,-0.01 0.02,-0.01 0,-0.01 0.01,-0.02 0.02,-0.02 0,0.02 0.02,0.02 0.02,0.03 0,0.02 -0.03,0.04 -0.04,0.05 -0.05,0.02 -0.1,0.03 -0.15,0 -0.02,-0.01 -0.04,-0.03 -0.05,-0.04 0,-0.01 0.02,-0.03 0.03,-0.03 0.02,0.04 0.06,0.04 0.1,0.04zm0.08 -0.27c0.07,-0.01 0.07,0.08 0.02,0.1 -0.02,0 -0.04,-0.02 -0.05,-0.04 -0.01,-0.03 0.01,-0.05 0.03,-0.06zm-0.22 0c0.02,0 0.05,0.01 0.05,0.04 0,0.03 -0.01,0.05 -0.03,0.06 -0.06,0.01 -0.08,-0.08 -0.02,-0.1zm0.41 0.04c0.01,-0.04 0.02,-0.09 0,-0.12 -0.01,-0.01 -0.03,-0.03 -0.04,-0.04 -0.03,-0.02 -0.04,-0.01 -0.07,0.01 -0.04,0.05 -0.11,0.08 -0.17,0.08 -0.09,0 -0.15,-0.05 -0.19,-0.09 -0.02,-0.02 -0.04,-0.01 -0.06,0 -0.02,0.01 -0.03,0.01 -0.03,0.04 0,0.01 -0.01,0.05 -0.01,0.06 0,0.03 0.01,0.04 0.01,0.07l-0.05 0.01c-0.01,0.02 0.01,0.07 0.01,0.1 0.01,0.01 0.01,0.03 0.02,0.03 0.01,0.01 0.03,0.01 0.05,0.01 0.01,0.04 0.02,0.06 0.03,0.09 0.02,0.01 0.04,0.05 0.06,0.06 0.02,0.02 0.04,0.04 0.07,0.05 0.03,0.01 0.06,0.01 0.09,0.01 0.08,0 0.12,-0.02 0.17,-0.06 0.01,-0.01 0.04,-0.05 0.05,-0.07 0.03,-0.04 0.02,-0.04 0.04,-0.08 0.02,0 0.04,0.01 0.05,-0.01 0.01,-0.02 0.01,-0.04 0.02,-0.07 0,-0.01 0.01,-0.04 0,-0.06 -0.01,-0.01 -0.04,-0.01 -0.05,-0.02z"/>
     <path class="fil1" d="M2.85 1.31c-0.08,0.02 -0.05,0.16 0.03,0.14 0.03,-0.01 0.05,-0.04 0.04,-0.08 0,-0.04 -0.03,-0.07 -0.07,-0.06z"/>
     <path class="fil2" d="M2.33 1.22c-0.04,0 -0.08,0 -0.1,-0.04 -0.01,0 -0.03,0.02 -0.03,0.03 0.01,0.01 0.03,0.03 0.05,0.04 0.05,0.03 0.1,0.02 0.15,0 0.01,-0.01 0.04,-0.03 0.04,-0.05 0,-0.01 -0.02,-0.01 -0.02,-0.03 -0.01,0 -0.02,0.01 -0.02,0.02 -0.01,0 -0.01,0.01 -0.02,0.01 -0.01,0.01 -0.03,0.02 -0.05,0.02z"/>
     <polygon class="fil2" points="1.9,2.01 1.93,2.01 1.93,1.83 1.9,1.83 "/>
     <polygon class="fil2" points="2.74,2 2.77,2 2.77,2 2.77,1.83 2.77,1.83 2.74,1.83 "/>
     <path class="fil2" d="M2.41 0.95c-0.02,0.01 -0.04,0.03 -0.03,0.06 0.01,0.02 0.03,0.04 0.05,0.04 0.05,-0.02 0.05,-0.11 -0.02,-0.1z"/>
     <path class="fil2" d="M2.19 0.95c-0.06,0.02 -0.04,0.11 0.02,0.1 0.02,-0.01 0.03,-0.03 0.03,-0.06 0,-0.03 -0.03,-0.04 -0.05,-0.04z"/>
     <path class="fil2 str1" d="M2.6 0.99c0.01,0.01 0.04,0.01 0.05,0.02 0.01,0.02 0,0.05 0,0.06 -0.01,0.03 -0.01,0.05 -0.02,0.07 -0.01,0.02 -0.03,0.01 -0.05,0.01 -0.02,0.04 -0.01,0.04 -0.04,0.08 -0.01,0.02 -0.04,0.06 -0.05,0.07 -0.05,0.04 -0.09,0.06 -0.17,0.06 -0.03,0 -0.06,0 -0.09,-0.01 -0.03,-0.01 -0.05,-0.03 -0.07,-0.05 -0.02,-0.01 -0.04,-0.05 -0.06,-0.06 -0.01,-0.03 -0.02,-0.05 -0.03,-0.09 -0.02,0 -0.04,0 -0.05,-0.01 -0.01,0 -0.01,-0.02 -0.02,-0.03 0,-0.03 -0.02,-0.08 -0.01,-0.1l0.05 -0.01c0,-0.03 -0.01,-0.04 -0.01,-0.07 0,-0.01 0.01,-0.05 0.01,-0.06 0,-0.03 0.01,-0.03 0.03,-0.04 0.02,-0.01 0.04,-0.02 0.06,0 0.04,0.04 0.1,0.09 0.19,0.09 0.06,0 0.13,-0.03 0.17,-0.08 0.03,-0.02 0.04,-0.03 0.07,-0.01 0.01,0.01 0.03,0.03 0.04,0.04 0.02,0.03 0.01,0.08 0,0.12zm-0.42 -0.48c-0.05,0.03 -0.11,0.08 -0.14,0.13 -0.02,0.04 -0.04,0.07 -0.05,0.14 0,0.03 0,0.06 0,0.09 0,0.03 0,0.06 0,0.09 -0.02,0.01 -0.03,0.02 -0.04,0.04 0,0.02 0,0.05 0,0.07 0.03,0.16 0.08,0.09 0.1,0.15 0.01,0.02 0.01,0.02 0.03,0.05l0.03 0.05c0.01,0.01 0.03,0.02 0.04,0.03 0,0.02 0.01,0.1 0,0.11 0,0.02 0,0.02 -0.01,0.02 -0.06,0.01 -0.17,0.03 -0.23,0.04 -0.04,0.01 -0.07,0.02 -0.11,0.03 -0.01,0.01 -0.02,0.02 -0.04,0.03 -0.04,0.03 -0.07,0.08 -0.08,0.13 -0.01,0.04 0,0.11 0,0.15 0,0.05 0,0.1 0,0.15 0.02,0 0.04,0 0.04,-0.02l0 -0.18c0,-0.07 0,-0.13 0.05,-0.18 0.02,-0.02 0.04,-0.03 0.07,-0.04 0.06,-0.02 0.12,-0.03 0.18,-0.04 0.03,-0.01 0.06,-0.02 0.09,-0.02 0.01,0.04 0.01,0.06 0.02,0.09 0.03,0.04 0.07,0.08 0.11,0.09 0.02,0.01 0.06,0.03 0.08,0.02 0.1,0 0.22,-0.09 0.22,-0.2l0.23 0.04c0.08,0.02 0.16,0.08 0.16,0.17 0,0.09 0.01,0.18 0.01,0.26l0.03 0.01 0 -0.27c-0.01,-0.1 -0.06,-0.18 -0.21,-0.21 -0.08,-0.02 -0.15,-0.03 -0.23,-0.05 -0.03,0 -0.04,-0.01 -0.03,-0.04 0,-0.03 0,-0.07 0,-0.1 0.01,-0.01 0.03,-0.02 0.04,-0.04 0.02,-0.01 0.06,-0.07 0.06,-0.1 0.07,0 0.07,-0.06 0.08,-0.11 0.01,-0.01 0.01,-0.02 0.01,-0.03 0.01,-0.02 0.01,-0.03 0,-0.05 0,-0.02 -0.02,-0.04 -0.04,-0.04 0,-0.1 0.01,-0.14 -0.02,-0.23 -0.02,-0.06 -0.03,-0.09 -0.07,-0.14 -0.02,-0.02 -0.02,-0.01 -0.03,-0.03 -0.01,-0.01 -0.03,-0.03 -0.05,-0.04 -0.06,-0.04 -0.11,-0.05 -0.18,-0.04 -0.03,0 -0.07,0 -0.12,0.02zm-0.1 0.16c0.03,-0.04 0.07,-0.09 0.14,-0.12 0.02,-0.02 0.03,-0.02 0.06,-0.02 0.05,-0.01 0.1,0 0.15,0.02 0.03,0.02 0.05,0.03 0.07,0.06 0.03,0.02 0.04,0.03 0.06,0.07 0.02,0.02 0.05,0.1 0.05,0.14 -0.02,-0.01 -0.05,-0.04 -0.07,-0.05 -0.01,0 -0.02,0 -0.04,0.01 -0.01,0.01 -0.02,0.02 -0.03,0.02 -0.1,0.09 -0.18,0.11 -0.3,0.01 -0.01,-0.01 -0.01,-0.02 -0.03,-0.02 -0.01,-0.01 -0.02,-0.02 -0.04,-0.02 -0.04,0.01 -0.05,0.03 -0.07,0.03 0,-0.06 0.04,-0.11 0.05,-0.13zm0.24 1.02c0.01,0 0.02,0 0.02,0 0.01,0 0.02,-0.01 0.03,-0.01 0.07,-0.01 0.13,-0.08 0.13,-0.16 -0.03,-0.01 -0.04,-0.03 -0.04,-0.06l0 -0.09 0 0c0,0 -0.01,0 -0.01,0.01 -0.04,0.01 -0.08,0.03 -0.13,0.03 -0.03,0 -0.07,0 -0.1,-0.02 -0.01,0 -0.02,-0.01 -0.03,-0.01 0,0.03 0.01,0.07 0,0.1 0,0.02 -0.02,0.03 -0.04,0.04 0,0.09 0.07,0.15 0.13,0.16 0.02,0.01 0.03,0.01 0.04,0.01z"/>
    </g>
    <path class="fil3 str2" d="M1.72 1.77l0 0.24 0.18 0 0 -0.18 0.03 0 0 0.18 0.81 -0.01 0 -0.17 0.03 0 0 0.17 0.17 0 -0.01 -0.26c-0.01,-0.09 -0.06,-0.14 -0.14,-0.16l-0.25 -0.05c-0.02,0.12 -0.09,0.19 -0.22,0.2 -0.11,0 -0.19,-0.07 -0.21,-0.2l-0.24 0.05c-0.1,0.02 -0.15,0.09 -0.15,0.19z"/>
    <polygon class="fil4 str3" points="3.66,2.14 3.35,2.14 3.43,2.07 3.6,2.07 "/>
    <rect class="fil3 str3" x="2.12" y="2.14" width="1.6" height="0.78"/>
    <g>
     <g>
      <rect class="fil5 str3" x="1.14" y="2.79" width="1.6" height="0.65"/>
      <polygon class="fil6 str3" points="2.41,2.79 2.1,2.79 2.17,2.76 2.34,2.76 "/>
     </g>
     <g>
      <polygon class="fil6 str3" points="2.12,2.86 1.81,2.86 1.88,2.83 2.05,2.83 "/>
      <rect class="fil5 str3" x="1.07" y="2.86" width="1.6" height="0.64"/>
     </g>
     <g>
      <rect class="fil5 str3" x="1.01" y="2.94" width="1.6" height="0.65"/>
      <polygon class="fil7 str3" points="1.74,2.93 1.43,2.94 1.51,2.91 1.68,2.91 "/>
      <polygon class="fil6 str3" points="1.74,2.93 1.43,2.94 1.51,2.91 1.68,2.91 "/>
     </g>
     <g>
      <rect class="fil5 str3" x="0.94" y="3.01" width="1.6" height="0.65"/>
      <polygon class="fil6 str3" points="1.36,3.01 1.04,3.01 1.12,2.98 1.29,2.98 "/>
     </g>
    </g>
   </g>
  </g>
 </g>
</svg>
