<?xml version="1.0" encoding="UTF-8"?>
<!DOCTYPE svg PUBLIC "-//W3C//DTD SVG 1.1//EN" "http://www.w3.org/Graphics/SVG/1.1/DTD/svg11.dtd">
<!-- Creator: CorelDRAW 2021 (64 Bit) -->
<svg xmlns="http://www.w3.org/2000/svg" xml:space="preserve" width="400px" height="400px" version="1.1" style="shape-rendering:geometricPrecision; text-rendering:geometricPrecision; image-rendering:optimizeQuality; fill-rule:evenodd; clip-rule:evenodd"
viewBox="0 0 2.26 2.26"
 xmlns:xlink="http://www.w3.org/1999/xlink"
 xmlns:xodm="http://www.corel.com/coreldraw/odm/2003">
 <defs>
  <style type="text/css">
   <![CDATA[
    .str0 {stroke:#C4C4C4;stroke-width:0.17;stroke-miterlimit:22.9256}
    .str2 {stroke:black;stroke-width:0.05;stroke-miterlimit:22.9256}
    .str3 {stroke:black;stroke-width:0.03;stroke-miterlimit:22.9256}
    .str1 {stroke:red;stroke-width:0.01;stroke-miterlimit:22.9256}
    .fil3 {fill:none}
    .fil2 {fill:#00FF95}
    .fil1 {fill:red}
    .fil0 {fill:white}
   ]]>
  </style>
 </defs>
 <g id="Camada_x0020_1">
  <metadata id="CorelCorpID_0Corel-Layer"/>
  <g id="_2069692723632">
   <circle class="fil0 str0" cx="1.13" cy="1.13" r="1.04"/>
   <g>
    <polygon class="fil1 str1" points="0.9,1.7 1.23,1.36 1.12,1.67 1.83,0.59 1.43,1.07 1.57,0.75 "/>
    <g>
     <path class="fil2" d="M0.72 0.4c-0.19,0.08 -0.25,0.17 -0.27,0.36 -0.01,0.18 0.06,0.28 0.19,0.36l0.01 0.72c0.08,-0.01 0.14,-0.04 0.15,-0.1l0.02 -0.09 0.05 -0.15 -0.06 -0.14 0.09 -0.14 -0.02 -0.13c0.16,-0.1 0.21,-0.24 0.18,-0.43 -0.05,-0.18 -0.16,-0.28 -0.34,-0.26z"/>
     <line class="fil3 str2" x1="0.71" y1="1.09" x2="0.7" y2= "1.8" />
     <line class="fil3 str2" x1="0.8" y1="1.08" x2="0.79" y2= "1.32" />
     <path class="fil2 str3" d="M0.43 0.76c0,0.01 0,0.02 0,0.03 -0.01,0.09 0.04,0.19 0.09,0.25 0.01,0.02 0.04,0.04 0.06,0.06 0.04,0.03 0.05,0.02 0.05,0.04 0,0.06 0,0.09 0,0.15l0 0.14c0,0.03 0,0.42 0,0.43 0.02,-0.01 0.04,-0.01 0.05,-0.01 0.06,-0.01 0.12,-0.06 0.15,-0.12 0.01,-0.04 -0.01,-0.08 0.01,-0.12l0.05 -0.12c0,0 0,0 0,-0.01 0,0 0,0 0,0 -0.02,-0.04 -0.04,-0.1 -0.06,-0.14 0.03,-0.03 0.08,-0.08 0.08,-0.13 0.01,-0.02 0,-0.04 0,-0.06 0,-0.02 0,-0.04 0,-0.06 0.05,-0.04 0.07,-0.05 0.12,-0.12 0.02,-0.04 0.05,-0.1 0.05,-0.15 0.01,-0.05 0.01,-0.09 0,-0.14 -0.01,-0.05 -0.02,-0.1 -0.05,-0.15 -0.04,-0.05 -0.08,-0.09 -0.12,-0.11 -0.05,-0.03 -0.09,-0.03 -0.13,-0.04l-0.06 0.01c-0.06,0.01 -0.11,0.04 -0.16,0.08 0,0.01 -0.02,0.02 -0.02,0.03l0 0c0.02,0.02 0.02,0.03 0.03,0.04 0.04,-0.03 0.06,-0.06 0.12,-0.09 0.03,-0.02 0.08,-0.02 0.11,-0.02 0.03,0 0.09,0.02 0.11,0.04 0.08,0.05 0.13,0.14 0.14,0.24 0,0.04 0.01,0.1 0,0.14 -0.04,0.1 -0.1,0.18 -0.19,0.22 0,0.01 0,0.02 0,0.03l0.01 0.1c0,0.02 -0.01,0.03 -0.02,0.04l-0.08 0.11c0.02,0.04 0.04,0.09 0.06,0.13 0.01,0.02 0.01,0.01 -0.01,0.06l-0.04 0.1c0,0.02 0,0.01 0,0.03 0,0.01 0,0.06 0,0.07 -0.02,0.04 -0.08,0.07 -0.11,0.07 0,-0.01 0,-0.01 0,-0.02 0,-0.06 0,-0.11 0,-0.16 0,-0.02 0.01,-0.03 0,-0.05l0.01 -0.23c0,-0.01 0,-0.03 0,-0.04 0,-0.02 0,-0.03 0,-0.05l0 -0.09c0,-0.03 0,-0.06 0,-0.09 -0.01,-0.01 -0.03,-0.01 -0.04,-0.01 -0.01,-0.01 -0.04,-0.02 -0.04,-0.03 -0.07,-0.04 -0.11,-0.12 -0.12,-0.21 0,-0.01 0,-0.03 0,-0.03 0,-0.01 0,-0.03 0,-0.04 -0.01,0 -0.02,0 -0.02,0 -0.01,0 -0.02,0 -0.03,0z"/>
     <path class="fil2 str3" d="M0.46 0.61c-0.04,0.06 0.04,0.13 0.08,0.06 0.02,-0.03 0.02,-0.06 -0.01,-0.08 -0.02,-0.02 -0.05,-0.01 -0.07,0.02z"/>
     <ellipse class="fil0 str3" transform="matrix(0.37623 0.0220838 -0.0258814 0.461919 0.691044 0.591196)" rx="0.18" ry="0.17"/>
    </g>
   </g>
  </g>
 </g>
</svg>
