<?xml version="1.0" encoding="UTF-8"?>
<!DOCTYPE svg PUBLIC "-//W3C//DTD SVG 1.1//EN" "http://www.w3.org/Graphics/SVG/1.1/DTD/svg11.dtd">
<!-- Creator: CorelDRAW 2021 (64 Bit) -->
<svg xmlns="http://www.w3.org/2000/svg" xml:space="preserve" width="330px" height="330px" version="1.1" style="shape-rendering:geometricPrecision; text-rendering:geometricPrecision; image-rendering:optimizeQuality; fill-rule:evenodd; clip-rule:evenodd"
viewBox="0 0 3.64 3.64"
 xmlns:xlink="http://www.w3.org/1999/xlink"
 xmlns:xodm="http://www.corel.com/coreldraw/odm/2003">
 <defs>
  <style type="text/css">
   <![CDATA[
    .str2 {stroke:black;stroke-width:0.11;stroke-miterlimit:22.9256}
    .str1 {stroke:#B8B6B6;stroke-width:0.11;stroke-miterlimit:22.9256}
    .str0 {stroke:#B8B4B6;stroke-width:0.33;stroke-miterlimit:22.9256}
    .str4 {stroke:#8A6B29;stroke-width:0.01;stroke-miterlimit:22.9256}
    .str5 {stroke:black;stroke-width:0.06;stroke-linecap:round;stroke-miterlimit:22.9256}
    .str3 {stroke:black;stroke-width:0.01;stroke-miterlimit:22.9256;stroke-dasharray:0.020000 0.030000}
    .fil2 {fill:none}
    .fil4 {fill:#8A6B29}
    .fil1 {fill:#98FEFE}
    .fil3 {fill:#DEB260}
    .fil0 {fill:white}
   ]]>
  </style>
 </defs>
 <g id="Camada_x0020_1">
  <metadata id="CorelCorpID_0Corel-Layer"/>
  <path class="fil0 str0" d="M0.31 0.17l3.02 0c0.08,0 0.14,0.07 0.14,0.16l0 2.98c0,0.09 -0.06,0.16 -0.14,0.16l-3.02 0c-0.08,0 -0.14,-0.07 -0.14,-0.16 0,-0.36 -0.01,-2.89 0,-3.02 0,-0.07 0.08,-0.12 0.14,-0.12z"/>
 </g>
 <g id="Camada_x0020_1_0">
  <metadata id="CorelCorpID_1Corel-Layer"/>
  <g id="_3113764657712">
   <polygon class="fil1" points="2.43,0.76 1.27,0.76 1.28,2.87 1.78,2.87 1.78,1.23 "/>
   <polyline class="fil2 str1" points="1.19,2.79 1.19,0.68 2.61,0.68 "/>
   <polyline class="fil2 str2" points="1.24,2.87 1.24,0.74 2.58,0.73 "/>
   <polygon class="fil3 str2" points="2.55,2.44 1.81,3.15 1.81,1.25 2.55,0.71 "/>
   <line class="fil2 str3" x1="1.9" y1="1.36" x2="2.49" y2= "0.93" />
   <line class="fil2 str3" x1="1.9" y1="1.51" x2="2.49" y2= "1.08" />
   <line class="fil2 str3" x1="1.9" y1="1.67" x2="2.49" y2= "1.23" />
   <line class="fil2 str3" x1="1.9" y1="1.81" x2="2.49" y2= "1.38" />
   <line class="fil2 str3" x1="1.89" y1="1.97" x2="2.48" y2= "1.54" />
   <line class="fil2 str3" x1="1.88" y1="2.55" x2="2.47" y2= "2.11" />
   <line class="fil2 str3" x1="1.89" y1="2.82" x2="2.45" y2= "2.35" />
   <line class="fil2 str3" x1="1.89" y1="2.32" x2="2.48" y2= "1.89" />
   <polygon class="fil4 str4" points="1.89,2.04 1.9,2.27 1.96,2.22 1.96,2 "/>
   <line class="fil2 str5" x1="1.93" y1="2.13" x2="2.03" y2= "2.07" />
  </g>
 </g>
</svg>
