<?xml version="1.0" encoding="UTF-8"?>
<!DOCTYPE svg PUBLIC "-//W3C//DTD SVG 1.1//EN" "http://www.w3.org/Graphics/SVG/1.1/DTD/svg11.dtd">
<!-- Creator: CorelDRAW 2021 (64 Bit) -->
<svg xmlns="http://www.w3.org/2000/svg" xml:space="preserve" width="400px" height="400px" version="1.1" style="shape-rendering:geometricPrecision; text-rendering:geometricPrecision; image-rendering:optimizeQuality; fill-rule:evenodd; clip-rule:evenodd"
viewBox="0 0 2.26 2.26"
 xmlns:xlink="http://www.w3.org/1999/xlink"
 xmlns:xodm="http://www.corel.com/coreldraw/odm/2003">
 <defs>
  <style type="text/css">
   <![CDATA[
    .str3 {stroke:black;stroke-width:0.06;stroke-miterlimit:22.9256}
    .str1 {stroke:black;stroke-width:0.11;stroke-miterlimit:22.9256}
    .str0 {stroke:#C4C4C4;stroke-width:0.17;stroke-miterlimit:22.9256}
    .str2 {stroke:blue;stroke-width:0.03;stroke-miterlimit:22.9256}
    .fil1 {fill:none}
    .fil2 {fill:black}
    .fil4 {fill:#CCCCCC}
    .fil0 {fill:white}
    .fil3 {fill:black;fill-rule:nonzero}
   ]]>
  </style>
 </defs>
 <g id="Camada_x0020_1">
  <metadata id="CorelCorpID_0Corel-Layer"/>
  <g id="_2069926029616">
   <circle class="fil0 str0" cx="1.13" cy="1.13" r="1.04"/>
   <g>
    <path class="fil1 str1" d="M0.48 1.76l0.5 0 0.15 -0.13 0.14 0.13 0.49 0c0,-0.42 0.01,-0.77 0.01,-1.2 0,-0.08 -0.05,-0.12 -0.12,-0.12 -0.17,0 -0.27,0 -0.32,0 -0.21,0.01 -0.13,0.37 -0.17,0.37 -0.05,0 0.06,-0.37 -0.32,-0.37 -0.08,0 -0.14,0 -0.23,0 -0.08,0.01 -0.13,0.05 -0.13,0.17 0.01,0.06 0,1.01 0,1.15z"/>
    <g>
     <g>
      <rect class="fil2 str2" x="0.56" y="0.97" width="0.45" height="0.06"/>
      <rect class="fil2 str2" x="0.56" y="1.17" width="0.45" height="0.06"/>
      <rect class="fil2 str2" x="0.56" y="1.38" width="0.45" height="0.06"/>
      <rect class="fil2 str2" x="0.56" y="1.59" width="0.45" height="0.06"/>
      <rect class="fil2 str2" x="0.56" y="0.77" width="0.45" height="0.06"/>
      <rect class="fil2 str2" x="0.56" y="0.6" width="0.45" height="0.06"/>
     </g>
     <path class="fil3" d="M1.4 1.3l-0.07 0 -0.03 -0.08 -0.14 0 -0.03 0.08 -0.07 0 0.13 -0.36 0.08 0 0.13 0.36zm-0.12 -0.14l-0.05 -0.14 -0.05 0.14 0.1 0z"/>
     <path class="fil4 str3" d="M1.48 0.89c0.08,0.16 0.09,0.31 0.02,0.48 -0.02,-0.01 -0.05,-0.02 -0.07,-0.03 -0.04,-0.01 -0.03,0 -0.04,0.02 -0.03,0.05 -0.05,0.09 -0.07,0.14 -0.01,0.02 -0.02,0.02 0,0.04l0.05 0.06c0.05,0.04 0.11,0.03 0.15,-0.01 0.06,-0.05 0.09,-0.1 0.12,-0.15 0.1,-0.23 0.06,-0.45 -0.01,-0.61 -0.03,-0.06 -0.06,-0.1 -0.1,-0.14 -0.02,-0.01 -0.07,-0.05 -0.09,-0.05 -0.02,0 -0.04,0 -0.07,0.02 -0.03,0.03 -0.04,0.04 -0.07,0.07 -0.01,0 -0.01,0 -0.01,0.01 0.03,0.05 0.06,0.11 0.09,0.16 0,0.01 0.01,0.01 0.02,0.01 0.03,-0.01 0.05,-0.01 0.08,-0.02z"/>
    </g>
   </g>
  </g>
 </g>
</svg>
