<?xml version="1.0" encoding="UTF-8"?>
<!DOCTYPE svg PUBLIC "-//W3C//DTD SVG 1.1//EN" "http://www.w3.org/Graphics/SVG/1.1/DTD/svg11.dtd">
<!-- Creator: CorelDRAW 2021 (64 Bit) -->
<svg xmlns="http://www.w3.org/2000/svg" xml:space="preserve" width="400px" height="400px" version="1.1" style="shape-rendering:geometricPrecision; text-rendering:geometricPrecision; image-rendering:optimizeQuality; fill-rule:evenodd; clip-rule:evenodd"
viewBox="0 0 4.67 4.67"
 xmlns:xlink="http://www.w3.org/1999/xlink"
 xmlns:xodm="http://www.corel.com/coreldraw/odm/2003">
 <defs>
  <style type="text/css">
   <![CDATA[
    .str0 {stroke:#C4C4C4;stroke-width:0.35;stroke-miterlimit:22.9256}
    .str4 {stroke:black;stroke-width:0.09;stroke-miterlimit:22.9256}
    .str3 {stroke:black;stroke-width:0.02;stroke-miterlimit:22.9256}
    .str5 {stroke:#030303;stroke-width:0.02;stroke-miterlimit:22.9256}
    .str1 {stroke:black;stroke-width:0.01;stroke-miterlimit:22.9256}
    .str2 {stroke:#FF9933;stroke-width:0.01;stroke-miterlimit:22.9256}
    .str6 {stroke:#030303;stroke-width:0.09;stroke-linecap:round;stroke-miterlimit:22.9256}
    .fil5 {fill:none}
    .fil2 {fill:black}
    .fil3 {fill:aqua}
    .fil4 {fill:#FFFF99}
    .fil1 {fill:white}
    .fil0 {fill:white}
   ]]>
  </style>
 </defs>
 <g id="Camada_x0020_1">
  <metadata id="CorelCorpID_0Corel-Layer"/>
  <g id="_2069653082672">
   <circle class="fil0 str0" cx="2.34" cy="2.34" r="2.16"/>
   <g>
    <g>
     <g>
      <path class="fil1" d="M2.3 1.23c0.03,0 0.05,-0.01 0.07,-0.02 0.01,0 0.01,-0.01 0.02,-0.01 0.01,-0.01 0.02,-0.02 0.03,-0.02 0,0.01 0.02,0.02 0.03,0.02 -0.01,0.02 -0.04,0.04 -0.06,0.05 -0.06,0.03 -0.13,0.03 -0.19,0.01 -0.02,-0.01 -0.06,-0.03 -0.06,-0.05 0,0 0.03,-0.02 0.04,-0.03 0.03,0.04 0.07,0.05 0.12,0.05zm0.11 -0.26c0.08,-0.02 0.09,0.07 0.03,0.09 -0.04,0 -0.06,-0.02 -0.07,-0.04 -0.01,-0.03 0.01,-0.05 0.04,-0.05zm-0.29 0c0.04,-0.01 0.07,0.01 0.07,0.03 0,0.03 -0.02,0.05 -0.04,0.06 -0.07,0.01 -0.1,-0.08 -0.03,-0.09zm0.53 0.04c0.01,-0.05 0.02,-0.09 -0.01,-0.13 -0.01,-0.01 -0.03,-0.03 -0.04,-0.03 -0.04,-0.03 -0.05,-0.02 -0.09,0.01 -0.06,0.04 -0.14,0.07 -0.22,0.07 -0.11,0 -0.18,-0.05 -0.25,-0.09 -0.02,-0.01 -0.04,-0.01 -0.06,0 -0.03,0.01 -0.04,0.02 -0.05,0.04 0,0.02 -0.01,0.05 -0.01,0.07 0,0.02 0.01,0.04 0.01,0.06l-0.06 0.01c-0.02,0.02 0.01,0.07 0.01,0.09 0.01,0.02 0.01,0.04 0.03,0.04 0.01,0.01 0.04,0.01 0.06,0.01 0.01,0.03 0.02,0.06 0.04,0.08 0.02,0.02 0.05,0.05 0.07,0.07 0.03,0.02 0.05,0.03 0.09,0.04 0.04,0.01 0.08,0.01 0.12,0.02 0.1,0 0.16,-0.03 0.22,-0.07 0.02,-0.01 0.05,-0.04 0.06,-0.06 0.04,-0.04 0.03,-0.04 0.05,-0.08 0.03,0 0.05,0 0.07,-0.01 0.01,-0.02 0.01,-0.04 0.02,-0.07 0,-0.01 0.02,-0.04 0,-0.06 -0.01,0 -0.05,0 -0.06,-0.01z"/>
      <path class="fil1" d="M2.97 1.32c-0.11,0.02 -0.07,0.15 0.03,0.13 0.04,-0.01 0.07,-0.04 0.06,-0.08 0,-0.03 -0.04,-0.06 -0.09,-0.05z"/>
      <path class="fil2" d="M2.3 1.23c-0.05,0 -0.09,-0.01 -0.12,-0.05 -0.01,0.01 -0.04,0.03 -0.04,0.03 0,0.02 0.04,0.04 0.06,0.05 0.06,0.02 0.13,0.02 0.19,-0.01 0.02,-0.01 0.05,-0.03 0.06,-0.05 -0.01,0 -0.03,-0.01 -0.03,-0.02 -0.01,0 -0.02,0.01 -0.03,0.02 -0.01,0 -0.01,0.01 -0.02,0.01 -0.02,0.01 -0.04,0.02 -0.07,0.02z"/>
      <polygon class="fil2" points="1.75,2 1.8,2 1.8,1.82 1.75,1.82 "/>
      <polygon class="fil2" points="2.82,1.99 2.86,1.99 2.87,1.99 2.87,1.82 2.86,1.82 2.82,1.82 "/>
      <path class="fil2" d="M2.41 0.97c-0.03,0 -0.05,0.02 -0.04,0.05 0.01,0.02 0.03,0.04 0.07,0.04 0.06,-0.02 0.05,-0.11 -0.03,-0.09z"/>
      <path class="fil2" d="M2.12 0.97c-0.07,0.01 -0.04,0.1 0.03,0.09 0.02,-0.01 0.04,-0.03 0.04,-0.06 0,-0.02 -0.03,-0.04 -0.07,-0.03z"/>
      <path class="fil2 str1" d="M2.65 1.01c0.01,0.01 0.05,0.01 0.06,0.01 0.02,0.02 0,0.05 0,0.06 -0.01,0.03 -0.01,0.05 -0.02,0.07 -0.02,0.01 -0.04,0.01 -0.07,0.01 -0.02,0.04 -0.01,0.04 -0.05,0.08 -0.01,0.02 -0.04,0.05 -0.06,0.06 -0.06,0.04 -0.12,0.07 -0.22,0.07 -0.04,-0.01 -0.08,-0.01 -0.12,-0.02 -0.04,-0.01 -0.06,-0.02 -0.09,-0.04 -0.02,-0.02 -0.05,-0.05 -0.07,-0.07 -0.02,-0.02 -0.03,-0.05 -0.04,-0.08 -0.02,0 -0.05,0 -0.06,-0.01 -0.02,0 -0.02,-0.02 -0.03,-0.04 0,-0.02 -0.03,-0.07 -0.01,-0.09l0.06 -0.01c0,-0.02 -0.01,-0.04 -0.01,-0.06 0,-0.02 0.01,-0.05 0.01,-0.07 0.01,-0.02 0.02,-0.03 0.05,-0.04 0.02,-0.01 0.04,-0.01 0.06,0 0.07,0.04 0.14,0.09 0.25,0.09 0.08,0 0.16,-0.03 0.22,-0.07 0.04,-0.03 0.05,-0.04 0.09,-0.01 0.01,0 0.03,0.02 0.04,0.03 0.03,0.04 0.02,0.08 0.01,0.13zm-0.53 -0.48c-0.08,0.03 -0.14,0.08 -0.18,0.13 -0.03,0.04 -0.06,0.07 -0.07,0.13 -0.01,0.03 -0.01,0.06 -0.01,0.09 0,0.04 0.01,0.06 0.01,0.09 -0.03,0.01 -0.04,0.02 -0.05,0.04 -0.01,0.03 0,0.05 0,0.07 0.04,0.16 0.1,0.09 0.13,0.14 0.01,0.03 0.01,0.03 0.03,0.06l0.05 0.04c0.01,0.01 0.03,0.03 0.05,0.04 0,0.02 0,0.09 0,0.1 0,0.02 -0.01,0.02 -0.02,0.02 -0.07,0.01 -0.22,0.03 -0.29,0.04 -0.05,0.01 -0.09,0.02 -0.14,0.03 -0.02,0.01 -0.03,0.02 -0.05,0.03 -0.05,0.03 -0.09,0.08 -0.11,0.13 0,0.03 0,0.1 0,0.14 0,0.05 0,0.1 0,0.15 0.03,0 0.05,0 0.05,-0.02l0 -0.17c0,-0.07 0,-0.14 0.07,-0.18 0.03,-0.02 0.05,-0.03 0.09,-0.04 0.07,-0.02 0.15,-0.03 0.23,-0.04 0.03,-0.01 0.08,-0.02 0.12,-0.02 0,0.04 0,0.05 0.02,0.08 0.04,0.05 0.09,0.08 0.14,0.1 0.03,0.01 0.07,0.02 0.11,0.02 0.12,0 0.27,-0.09 0.27,-0.2l0.3 0.04c0.1,0.02 0.2,0.08 0.2,0.17 0,0.08 0.01,0.17 0.01,0.25l0.05 0.01 0 -0.26c-0.02,-0.1 -0.08,-0.19 -0.27,-0.21 -0.1,-0.02 -0.2,-0.03 -0.3,-0.05 -0.03,0 -0.05,0 -0.04,-0.04 0,-0.02 0,-0.06 0,-0.09 0.02,-0.01 0.04,-0.03 0.05,-0.04 0.02,-0.02 0.07,-0.07 0.08,-0.11 0.09,0 0.09,-0.05 0.11,-0.1 0,-0.01 0.01,-0.02 0.01,-0.03 0,-0.02 0,-0.03 0,-0.05 -0.01,-0.02 -0.03,-0.03 -0.06,-0.04 0,-0.09 0.02,-0.14 -0.02,-0.22 -0.02,-0.07 -0.04,-0.1 -0.09,-0.14 -0.02,-0.02 -0.02,-0.01 -0.04,-0.03 -0.02,-0.01 -0.04,-0.03 -0.06,-0.04 -0.08,-0.04 -0.15,-0.05 -0.24,-0.04 -0.03,0 -0.09,0 -0.14,0.02zm-0.13 0.16c0.04,-0.04 0.08,-0.09 0.17,-0.12 0.03,-0.01 0.04,-0.02 0.08,-0.02 0.06,0 0.13,0 0.19,0.02 0.04,0.02 0.07,0.03 0.1,0.06 0.04,0.02 0.04,0.03 0.07,0.07 0.02,0.02 0.06,0.1 0.06,0.13 -0.02,-0.01 -0.06,-0.03 -0.08,-0.04 -0.02,-0.01 -0.04,-0.01 -0.05,0 -0.02,0.01 -0.03,0.02 -0.04,0.03 -0.13,0.08 -0.24,0.1 -0.38,0.01 -0.02,-0.01 -0.03,-0.02 -0.04,-0.03 -0.02,-0.01 -0.03,-0.01 -0.05,-0.01 -0.06,0 -0.08,0.02 -0.1,0.03 0,-0.06 0.05,-0.11 0.07,-0.13zm0.3 0.99c0.01,0 0.02,0 0.03,0 0.01,0 0.02,0 0.03,0 0.09,-0.01 0.17,-0.09 0.17,-0.16 -0.04,-0.01 -0.05,-0.03 -0.05,-0.06l0 -0.09 0 0c-0.01,0 -0.01,0.01 -0.02,0.01 -0.04,0.02 -0.1,0.03 -0.16,0.03 -0.04,0 -0.09,0 -0.13,-0.02 -0.01,0 -0.02,0 -0.03,-0.01 0,0.03 0,0.07 0,0.1 0,0.02 -0.03,0.03 -0.06,0.04 0.01,0.09 0.1,0.15 0.17,0.16 0.03,0 0.04,0 0.05,0z"/>
     </g>
     <path class="fil3 str2" d="M1.52 1.76l0 0.24 0.23 0 0 -0.18 0.05 0 0 0.18 1.02 -0.01 0 -0.17 0.05 0 0 0.17 0.21 0 -0.01 -0.25c-0.01,-0.09 -0.08,-0.14 -0.18,-0.16l-0.32 -0.05c-0.02,0.12 -0.12,0.18 -0.28,0.2 -0.14,-0.01 -0.24,-0.07 -0.26,-0.2l-0.32 0.05c-0.12,0.02 -0.19,0.09 -0.19,0.18z"/>
    </g>
    <rect class="fil4 str3" x="1.07" y="2.12" width="2.55" height="1.56"/>
    <rect class="fil5 str4" x="1.7" y="2.21" width="1.28" height="0.99" rx="0.02" ry="0.01"/>
    <rect class="fil2 str3" x="1.49" y="2.77" width="0.51" height="0.86" rx="0.1" ry="0.08"/>
    <rect class="fil2 str3" x="2.69" y="2.76" width="0.51" height="0.86" rx="0.1" ry="0.08"/>
    <rect class="fil2 str5" x="1.97" y="3.08" width="0.75" height="0.13" rx="0.03" ry="0.03"/>
    <rect class="fil2 str5" x="1.9" y="3.4" width="0.92" height="0.22"/>
    <line class="fil5 str6" x1="1.95" y1="2.35" x2="2.73" y2= "2.35" />
    <line class="fil5 str6" x1="1.95" y1="2.51" x2="2.73" y2= "2.51" />
    <line class="fil5 str6" x1="1.95" y1="2.68" x2="2.73" y2= "2.68" />
   </g>
  </g>
 </g>
</svg>
