<?xml version="1.0" encoding="UTF-8"?>
<!DOCTYPE svg PUBLIC "-//W3C//DTD SVG 1.1//EN" "http://www.w3.org/Graphics/SVG/1.1/DTD/svg11.dtd">
<!-- Creator: CorelDRAW 2021 (64 Bit) -->
<svg xmlns="http://www.w3.org/2000/svg" xml:space="preserve" width="400px" height="400px" version="1.1" style="shape-rendering:geometricPrecision; text-rendering:geometricPrecision; image-rendering:optimizeQuality; fill-rule:evenodd; clip-rule:evenodd"
viewBox="0 0 18.83 18.83"
 xmlns:xlink="http://www.w3.org/1999/xlink"
 xmlns:xodm="http://www.corel.com/coreldraw/odm/2003">
 <defs>
  <style type="text/css">
   <![CDATA[
    .str0 {stroke:#B8B4B6;stroke-width:1.41;stroke-miterlimit:22.9256}
    .str1 {stroke:#373435;stroke-width:0.75;stroke-miterlimit:22.9256}
    .fil4 {fill:none}
    .fil2 {fill:#FFF212}
    .fil3 {fill:#ED3237}
    .fil1 {fill:#00A859}
    .fil9 {fill:black}
    .fil8 {fill:#333333}
    .fil6 {fill:#B8B4B6}
    .fil7 {fill:#D2D3D5}
    .fil5 {fill:#FDFDFD}
    .fil0 {fill:white}
   ]]>
  </style>
 </defs>
 <g id="Camada_x0020_1">
  <metadata id="CorelCorpID_0Corel-Layer"/>
  <g id="_2069692245184">
   <path class="fil0 str0" d="M1.49 0.71l15.87 0c0.42,0 0.76,0.39 0.76,0.87l0 15.67c0,0.48 -0.34,0.87 -0.76,0.87l-15.87 0c-0.42,0 -0.77,-0.39 -0.77,-0.87 0,-1.88 -0.02,-15.18 -0.01,-15.86 0.01,-0.38 0.46,-0.68 0.78,-0.68z"/>
   <g>
    <g>
     <rect class="fil1 str1" x="6.75" y="6.51" width="1.25" height="1.96"/>
     <rect class="fil2 str1" x="8.95" y="6.54" width="1.25" height="1.96"/>
     <rect class="fil3 str1" x="11.12" y="6.51" width="1.25" height="1.96"/>
     <polygon class="fil4 str1" points="4.58,5.01 4.58,9.83 14.46,9.83 14.46,4.9 14.23,2.5 12.38,2.48 11.32,4.96 10.13,4.96 10.13,3.89 7.52,4.86 7.53,3.95 "/>
     <line class="fil4 str1" x1="11.32" y1="4.96" x2="14.46" y2= "4.96" />
    </g>
    <g>
     <path class="fil5" d="M11.74 12.51c0.11,0.3 -0.15,0.54 -0.33,0.63 -0.5,0.26 -1.11,0.05 -1.89,0.13 -0.27,0.02 -0.68,0.1 -0.93,0.1l-0.02 -0.27c0.5,-0.07 1.06,-0.15 1.56,-0.14 0.28,0.01 0.53,0.06 0.82,0.03 0.29,-0.03 0.4,-0.1 0.52,-0.3 0.03,-0.49 -0.45,-0.83 -0.94,-0.87 -0.31,-0.03 -1.19,0.17 -1.55,0.23 -0.59,0.1 -0.98,0.24 -1.55,0.02 -0.49,-0.19 -0.74,-0.41 -1.36,-0.36l0 3.73c1.01,-0.13 1.33,-0.03 2.19,0.27 0.91,0.32 1.15,0.39 2.07,0.02 0.3,-0.12 0.61,-0.28 0.88,-0.42 0.28,-0.14 0.56,-0.29 0.83,-0.45 0.55,-0.32 1.09,-0.62 1.62,-0.95l2.01 -1.21c0.13,-0.08 0.32,-0.15 0.34,-0.31 0.01,-0.21 -0.44,-0.63 -0.57,-0.72 -0.78,-0.58 -1.29,-0.28 -1.93,0l-1.33 0.6c-0.08,0.04 -0.15,0.06 -0.24,0.1 -0.25,0.12 -0.16,0.06 -0.2,0.14z"/>
     <path class="fil6" d="M3.56 11.18c0,0 0.01,-0.01 0.02,0l0.18 -0.02c0.29,0 1.49,-0.03 1.59,0.02l0.01 4.61c-0.15,0.03 -1.67,0.03 -1.79,0l-0.01 -4.61zm2.38 -0.45c-0.03,-0.04 -0.05,-0.04 -0.09,-0.08 -0.04,-0.03 -0.04,-0.04 -0.09,-0.08 -0.04,0.03 -0.01,0.02 -0.07,0 -0.05,-0.01 -0.08,-0.06 -0.23,-0.08 -0.18,-0.02 -1.9,-0.01 -2.02,0.01 -0.78,0.12 -0.59,1.13 -0.59,1.82l0 3.19c0,0.29 0,0.46 0.14,0.67 0.09,0.14 0.27,0.26 0.53,0.29 0.48,0.04 1.14,0 1.64,0 0.5,0 0.92,-0.17 0.91,-0.73l0 -0.3 0 -3.73 0 -0.3c0.02,-0.25 -0.02,-0.58 -0.24,-0.74 -0.07,-0.05 -0.11,-0.03 -0.04,-0.07 0.04,0.08 0.07,0.09 0.15,0.13z"/>
     <path class="fil7" d="M3.57 15.79c0.12,0.03 1.64,0.03 1.79,0l-0.01 -4.61c-0.1,-0.05 -1.3,-0.02 -1.59,-0.02l-0.18 0.02c-0.01,-0.01 -0.02,0 -0.02,0l0.01 4.61z"/>
     <path class="fil8" d="M6.07 11.41l0 0.3c0.62,-0.05 0.87,0.17 1.36,0.36 0.57,0.22 0.96,0.08 1.55,-0.02 0.36,-0.06 1.24,-0.26 1.55,-0.23 0.49,0.04 0.97,0.38 0.94,0.87l0.04 -0.14 0.2 -0.1c0,0 0,0.02 0.01,0.02l0.02 0.04c0.04,-0.08 -0.05,-0.02 0.2,-0.14 0.09,-0.04 0.16,-0.06 0.24,-0.1l1.33 -0.6c0.64,-0.28 1.15,-0.58 1.93,0 0.13,0.09 0.58,0.51 0.57,0.72 -0.02,0.16 -0.21,0.23 -0.34,0.31l-2.01 1.21c-0.53,0.33 -1.07,0.63 -1.62,0.95 -0.27,0.16 -0.55,0.31 -0.83,0.45 -0.27,0.14 -0.58,0.3 -0.88,0.42 -0.92,0.37 -1.16,0.3 -2.07,-0.02 -0.86,-0.3 -1.18,-0.4 -2.19,-0.27l0 0.3c1.15,-0.12 1.34,-0.01 2.3,0.33 0.98,0.34 1.33,0.25 2.21,-0.12 0.89,-0.37 2.75,-1.48 3.55,-1.96 0.57,-0.35 1.15,-0.69 1.72,-1.04 0.16,-0.11 0.29,-0.15 0.39,-0.3 0.1,-0.17 0.11,-0.36 0,-0.54 -0.34,-0.57 -0.95,-1.05 -1.67,-1.07 -0.44,-0.01 -0.73,0.16 -1.06,0.3 -0.32,0.14 -1.72,0.8 -1.91,0.85 -0.08,-0.08 -0.12,-0.17 -0.21,-0.25 -0.06,-0.06 -0.14,-0.15 -0.23,-0.22 -0.55,-0.42 -1.46,-0.1 -2.2,0.03 -0.59,0.1 -0.93,0.24 -1.48,0.01 -0.45,-0.18 -0.82,-0.42 -1.41,-0.35z"/>
     <path class="fil9" d="M11.47 12.69c-0.12,0.2 -0.23,0.27 -0.52,0.3 -0.29,0.03 -0.54,-0.02 -0.82,-0.03 -0.5,-0.01 -1.06,0.07 -1.56,0.14l0.02 0.27c0.25,0 0.66,-0.08 0.93,-0.1 0.78,-0.08 1.39,0.13 1.89,-0.13 0.18,-0.09 0.44,-0.33 0.33,-0.63l-0.02 -0.04c-0.01,0 -0.01,-0.02 -0.01,-0.02l-0.2 0.1 -0.04 0.14z"/>
    </g>
   </g>
  </g>
 </g>
</svg>
