<?xml version="1.0" encoding="UTF-8"?>
<!DOCTYPE svg PUBLIC "-//W3C//DTD SVG 1.1//EN" "http://www.w3.org/Graphics/SVG/1.1/DTD/svg11.dtd">
<!-- Creator: CorelDRAW 2021 (64 Bit) -->
<svg xmlns="http://www.w3.org/2000/svg" xml:space="preserve" width="400px" height="400px" version="1.1" style="shape-rendering:geometricPrecision; text-rendering:geometricPrecision; image-rendering:optimizeQuality; fill-rule:evenodd; clip-rule:evenodd"
viewBox="0 0 2.53 2.53"
 xmlns:xlink="http://www.w3.org/1999/xlink"
 xmlns:xodm="http://www.corel.com/coreldraw/odm/2003">
 <defs>
  <style type="text/css">
   <![CDATA[
    .str0 {stroke:#B8B4B6;stroke-width:0.19;stroke-miterlimit:22.9256}
    .str1 {stroke:black;stroke-width:0.05;stroke-miterlimit:22.9256}
    .fil2 {fill:blue}
    .fil5 {fill:lime}
    .fil4 {fill:aqua}
    .fil3 {fill:red}
    .fil1 {fill:yellow}
    .fil0 {fill:white}
   ]]>
  </style>
 </defs>
 <g id="Camada_x0020_1">
  <metadata id="CorelCorpID_0Corel-Layer"/>
  <g id="_2069732269424">
   <path class="fil0 str0" d="M0.2 0.09l2.13 0c0.06,0 0.1,0.06 0.1,0.12l0 2.11c0,0.06 -0.04,0.11 -0.1,0.11l-2.13 0c-0.06,0 -0.1,-0.05 -0.1,-0.11 0,-0.26 -0.01,-2.04 0,-2.13 0,-0.05 0.06,-0.1 0.1,-0.1z"/>
   <g>
    <rect class="fil1 str1" x="1.02" y="1.69" width="0.55" height="0.58"/>
    <rect class="fil2 str1" transform="matrix(0.056842 -0.0461344 0.047098 0.0656856 0.524369 0.647408)" width="7.82" height="6.97"/>
    <rect class="fil3 str1" transform="matrix(0.0703824 -0.0232542 0.0246215 0.0836265 0.302443 1.28695)" width="7.82" height="6.97"/>
    <rect class="fil4 str1" transform="matrix(0.0568968 0.0458572 -0.0485534 0.0676033 1.63896 0.271526)" width="7.82" height="6.97"/>
    <rect class="fil5 str1" transform="matrix(-0.0703824 -0.0232542 -0.0246215 0.0836265 2.3004 1.28695)" width="7.82" height="6.97"/>
   </g>
  </g>
 </g>
</svg>
