<?xml version="1.0" encoding="UTF-8"?>
<!DOCTYPE svg PUBLIC "-//W3C//DTD SVG 1.1//EN" "http://www.w3.org/Graphics/SVG/1.1/DTD/svg11.dtd">
<!-- Creator: CorelDRAW 2021 (64 Bit) -->
<svg xmlns="http://www.w3.org/2000/svg" xml:space="preserve" width="330px" height="331px" version="1.1" style="shape-rendering:geometricPrecision; text-rendering:geometricPrecision; image-rendering:optimizeQuality; fill-rule:evenodd; clip-rule:evenodd"
viewBox="0 0 5.3 5.31"
 xmlns:xlink="http://www.w3.org/1999/xlink"
 xmlns:xodm="http://www.corel.com/coreldraw/odm/2003">
 <defs>
  <style type="text/css">
   <![CDATA[
    .fil3 {fill:black}
    .fil5 {fill:#787878}
    .fil1 {fill:#C4C4C4}
    .fil2 {fill:#FC0303}
    .fil0 {fill:#FEFEFE}
    .fil4 {fill:#FF7E7E}
   ]]>
  </style>
 </defs>
 <g id="Camada_x0020_1">
  <metadata id="CorelCorpID_0Corel-Layer"/>
  <g id="_1853776958944">
   <path class="fil0" d="M4.22 2.89c-0.08,0.04 -0.3,0.02 -0.4,0.02 0,0.14 0.01,1.22 -0.02,1.24 -0.02,0.13 -0.18,0.09 -0.4,0.09l-1.39 0c-0.63,0 -0.46,0.21 -0.5,-1.37 -0.13,0 -0.49,0.07 -0.48,-0.11 0.01,-0.07 0.08,-0.11 0.12,-0.16l0.55 -0.61c0.06,-0.05 0.09,-0.1 0.14,-0.15l0.56 -0.62c0.3,-0.33 0.22,-0.31 0.62,0.08l0.02 -0.03c0.02,-0.03 0,-0.01 0.02,-0.03 0.02,-0.02 0.02,-0.02 0.06,-0.03 0.07,-0.01 0.4,-0.01 0.48,0.04 0.03,0.13 0.01,0.4 0.01,0.56 0,0.17 -0.01,0.13 0.07,0.22l0.39 0.48c0.15,0.18 0.23,0.22 0.2,0.36l-0.05 0.02zm-3.74 -0.1c0.09,1.44 1.63,2.53 3.17,1.79 0.12,-0.06 0.23,-0.15 0.33,-0.22 0.13,-0.09 0.42,-0.42 0.51,-0.56 0.23,-0.4 0.35,-0.8 0.32,-1.29 -0.07,-1.14 -1.06,-2.1 -2.3,-2.02 -1.16,0.08 -2.1,1.06 -2.03,2.3z"/>
   <path class="fil1" d="M0.48 2.79c-0.07,-1.24 0.87,-2.22 2.03,-2.3 1.24,-0.08 2.23,0.88 2.3,2.02 0.03,0.49 -0.09,0.89 -0.32,1.29 -0.09,0.14 -0.38,0.47 -0.51,0.56 -0.1,0.07 -0.21,0.16 -0.33,0.22 -1.54,0.74 -3.08,-0.35 -3.17,-1.79zm-0.48 -0.29c0,0.62 0.07,1.01 0.37,1.51 0.06,0.1 0.19,0.3 0.27,0.38 0.18,0.18 0.26,0.29 0.52,0.46 0.27,0.18 0.56,0.32 0.9,0.39 0.72,0.16 1.47,0.03 2.07,-0.39 0.19,-0.13 0.21,-0.15 0.36,-0.29 0.47,-0.43 0.81,-1.17 0.81,-1.8 0,-0.65 -0.13,-1.14 -0.49,-1.64 -0.5,-0.72 -1.29,-1.12 -2.21,-1.12 -0.57,0 -1.22,0.25 -1.63,0.6 -0.04,0.03 -0.05,0.05 -0.09,0.07 -0.46,0.35 -0.88,1.21 -0.88,1.83z"/>
   <path class="fil0" d="M2.51 3.58l0.28 0 0 0.32c-0.04,0.03 -0.08,0.02 -0.14,0.02 -0.06,0 -0.1,0 -0.15,-0.01l-0.01 -0.27c0,-0.06 -0.01,-0.04 0.02,-0.06zm-0.18 -1.12l-0.02 0.07 -0.06 -0.03c-0.13,0 -0.19,0 -0.19,-0.08 -0.02,-0.13 0.12,-0.45 0.37,-0.53 0.63,-0.2 1.06,0.47 0.67,0.92 -0.17,0.2 -0.32,0.24 -0.33,0.64l-0.26 0c0,-0.27 0.02,-0.39 0.16,-0.56 0.07,-0.09 0.27,-0.25 0.3,-0.39 0.08,-0.47 -0.63,-0.55 -0.64,-0.04zm-0.9 0.14l-0.02 0.02 -0.01 0.02 -0.01 0.01c0.07,0.03 0.17,-0.02 0.25,0.03 0.1,0.04 0.07,0.15 0.08,0.27 0,0.25 0,0.91 0.02,1.09l1.86 0c0.01,-0.2 -0.03,-1.21 0.02,-1.3 0.06,-0.08 0.19,-0.02 0.34,-0.05l-0.41 -0.49c-0.09,-0.11 -0.15,-0.13 -0.15,-0.32 0.01,-0.15 0.01,-0.32 0,-0.47l-0.16 0c-0.01,0.12 0.01,0.43 -0.26,0.15 -0.07,-0.07 -0.26,-0.29 -0.34,-0.31l-1.06 1.19c-0.02,0.03 -0.05,0.04 -0.08,0.07 -0.03,0.04 -0.04,0.06 -0.07,0.09z"/>
   <path class="fil2" d="M1.39 2.65l0.01 -0.01 0.01 -0.02c0,-0.03 -0.01,-0.02 0.02,-0.02 0.03,-0.03 0.04,-0.05 0.07,-0.09 0.03,-0.03 0.06,-0.04 0.08,-0.07l1.06 -1.19c0.08,0.02 0.27,0.24 0.34,0.31 0.27,0.28 0.25,-0.03 0.26,-0.15l0.16 0c0.01,0.15 0.01,0.32 0,0.47 0,0.19 0.06,0.21 0.15,0.32l0.41 0.49c-0.15,0.03 -0.28,-0.03 -0.34,0.05 -0.05,0.09 -0.01,1.1 -0.02,1.3l-1.86 0c-0.02,-0.18 -0.02,-0.84 -0.02,-1.09 -0.01,-0.12 0.02,-0.23 -0.08,-0.27l-0.28 -0.01 0.03 -0.02zm2.41 1.5c0,-0.17 -0.02,-1.17 0.01,-1.25l0.41 -0.01 0.05 -0.02c0.03,-0.14 -0.05,-0.18 -0.2,-0.36l-0.39 -0.48c-0.08,-0.09 -0.07,-0.05 -0.07,-0.22 0,-0.16 0.02,-0.43 -0.01,-0.56 -0.08,-0.05 -0.41,-0.05 -0.48,-0.04 -0.04,0.01 -0.04,0.01 -0.06,0.03 -0.02,0.02 0,0 -0.02,0.03l-0.02 0.03c-0.4,-0.39 -0.32,-0.41 -0.62,-0.08l-0.56 0.62c-0.05,0.05 -0.08,0.1 -0.14,0.15l-0.55 0.61c-0.04,0.05 -0.11,0.09 -0.12,0.16 -0.01,0.18 0.35,0.11 0.48,0.11 0.04,1.58 -0.13,1.37 0.5,1.37l1.39 0c0.22,0 0.38,0.04 0.4,-0.09z"/>
   <path class="fil3" d="M2.25 2.5l0.08 -0.04c0.01,-0.51 0.72,-0.43 0.64,0.04 -0.03,0.14 -0.23,0.3 -0.3,0.39 -0.14,0.17 -0.16,0.29 -0.16,0.56l0.26 0c0.01,-0.4 0.16,-0.44 0.33,-0.64 0.39,-0.45 -0.04,-1.12 -0.67,-0.92 -0.25,0.08 -0.39,0.4 -0.37,0.53 0,0.08 0.06,0.08 0.19,0.08z"/>
   <polygon class="fil3" points="2.79,3.9 2.79,3.58 2.51,3.58 2.5,3.9 "/>
   <path class="fil4" d="M3.8 4.15c0.03,-0.02 0.02,-1.1 0.02,-1.24 0.1,0 0.32,0.02 0.4,-0.02l-0.41 0.01c-0.03,0.08 -0.01,1.08 -0.01,1.25z"/>
   <path class="fil5" d="M2.79 3.9l-0.29 0 0.01 -0.32c-0.03,0.02 -0.02,0 -0.02,0.06l0.01 0.27c0.05,0.01 0.09,0.01 0.15,0.01 0.06,0 0.1,0.01 0.14,-0.02z"/>
   <path class="fil4" d="M1.4 2.64l-0.01 0.01 -0.03 0.02 0.28 0.01c-0.08,-0.05 -0.18,0 -0.25,-0.03l0.01 -0.01 0.01 -0.02 0.02 -0.02c-0.03,0 -0.02,-0.01 -0.02,0.02l-0.01 0.02z"/>
   <polygon class="fil5" points="2.25,2.5 2.31,2.53 2.33,2.46 "/>
  </g>
 </g>
</svg>
