<?xml version="1.0" encoding="UTF-8"?>
<!DOCTYPE svg PUBLIC "-//W3C//DTD SVG 1.1//EN" "http://www.w3.org/Graphics/SVG/1.1/DTD/svg11.dtd">
<!-- Creator: CorelDRAW 2021 (64 Bit) -->
<svg xmlns="http://www.w3.org/2000/svg" xml:space="preserve" width="400px" height="400px" version="1.1" style="shape-rendering:geometricPrecision; text-rendering:geometricPrecision; image-rendering:optimizeQuality; fill-rule:evenodd; clip-rule:evenodd"
viewBox="0 0 4 4"
 xmlns:xlink="http://www.w3.org/1999/xlink"
 xmlns:xodm="http://www.corel.com/coreldraw/odm/2003">
 <defs>
  <style type="text/css">
   <![CDATA[
    .str0 {stroke:#B8B4B6;stroke-width:0.3;stroke-miterlimit:22.9256}
    .str3 {stroke:black;stroke-width:0.02;stroke-miterlimit:22.9256}
    .str1 {stroke:black;stroke-width:0.01;stroke-miterlimit:22.9256}
    .str2 {stroke:yellow;stroke-width:0.01;stroke-miterlimit:22.9256}
    .fil1 {fill:black}
    .fil2 {fill:lime}
    .fil3 {fill:#E6E6E6}
    .fil4 {fill:#FFFF99}
    .fil0 {fill:white}
   ]]>
  </style>
 </defs>
 <g id="Camada_x0020_1">
  <metadata id="CorelCorpID_0Corel-Layer"/>
  <g id="_2069658119072">
   <path class="fil0 str0" d="M0.32 0.15l3.37 0c0.09,0 0.16,0.08 0.16,0.19l0 3.33c0,0.1 -0.07,0.18 -0.16,0.18l-3.37 0c-0.09,0 -0.17,-0.08 -0.17,-0.18 0,-0.4 0,-3.23 0,-3.37 0,-0.08 0.1,-0.15 0.17,-0.15z"/>
   <g>
    <g>
     <path class="fil0" d="M2 1.24c0.03,0 0.05,-0.01 0.06,-0.02 0.01,0 0.02,-0.01 0.02,-0.01 0.01,-0.01 0.02,-0.02 0.03,-0.02 0,0.02 0.02,0.02 0.03,0.02 -0.01,0.02 -0.04,0.04 -0.06,0.05 -0.05,0.02 -0.11,0.03 -0.17,0 -0.02,0 -0.05,-0.02 -0.06,-0.04 0.01,0 0.03,-0.02 0.04,-0.02 0.03,0.03 0.07,0.04 0.11,0.04zm0.1 -0.25c0.08,-0.01 0.08,0.07 0.02,0.08 -0.03,0.01 -0.05,-0.01 -0.05,-0.03 -0.01,-0.03 0.01,-0.04 0.03,-0.05zm-0.26 0c0.03,0 0.06,0.01 0.06,0.03 0.01,0.03 -0.01,0.05 -0.04,0.05 -0.06,0.02 -0.09,-0.07 -0.02,-0.08zm0.48 0.04c0.01,-0.04 0.02,-0.09 -0.01,-0.12 -0.01,-0.01 -0.03,-0.02 -0.04,-0.03 -0.04,-0.02 -0.04,-0.01 -0.08,0.01 -0.05,0.04 -0.13,0.07 -0.2,0.07 -0.1,0 -0.17,-0.05 -0.22,-0.09 -0.02,-0.01 -0.04,0 -0.06,0 -0.03,0.01 -0.04,0.02 -0.04,0.04 -0.01,0.02 -0.01,0.05 -0.01,0.06 0,0.02 0.01,0.04 0.01,0.06l-0.06 0.01c-0.01,0.02 0.01,0.07 0.01,0.09 0.01,0.02 0.01,0.03 0.03,0.04 0.01,0 0.03,0 0.05,0 0.01,0.04 0.02,0.06 0.04,0.08 0.02,0.02 0.05,0.05 0.06,0.06 0.03,0.02 0.05,0.03 0.08,0.04 0.04,0.01 0.08,0.01 0.12,0.02 0.08,0 0.14,-0.03 0.19,-0.06 0.02,-0.01 0.05,-0.04 0.06,-0.06 0.03,-0.04 0.02,-0.04 0.04,-0.08 0.03,0 0.05,0.01 0.07,-0.01 0.01,-0.02 0,-0.04 0.01,-0.06 0.01,-0.01 0.02,-0.04 0.01,-0.05 -0.02,-0.01 -0.05,-0.01 -0.06,-0.02z"/>
     <path class="fil1" d="M2 1.24c-0.04,0 -0.08,-0.01 -0.11,-0.04 -0.01,0 -0.03,0.02 -0.04,0.02 0.01,0.02 0.04,0.04 0.06,0.04 0.06,0.03 0.12,0.02 0.17,0 0.02,-0.01 0.05,-0.03 0.06,-0.05 -0.01,0 -0.03,0 -0.03,-0.02 -0.01,0 -0.02,0.01 -0.03,0.02 0,0 -0.01,0.01 -0.02,0.01 -0.01,0.01 -0.03,0.02 -0.06,0.02z"/>
     <polygon class="fil1" points="1.5,1.96 1.55,1.96 1.54,1.79 1.5,1.79 "/>
     <polygon class="fil1" points="2.48,1.96 2.51,1.96 2.52,1.96 2.52,1.8 2.51,1.8 2.48,1.8 "/>
     <path class="fil1" d="M2.1 0.99c-0.02,0.01 -0.04,0.02 -0.03,0.05 0,0.02 0.02,0.04 0.05,0.03 0.06,-0.01 0.06,-0.09 -0.02,-0.08z"/>
     <path class="fil1" d="M1.84 0.99c-0.07,0.01 -0.04,0.1 0.02,0.08 0.03,0 0.05,-0.02 0.04,-0.05 0,-0.02 -0.03,-0.03 -0.06,-0.03z"/>
     <path class="fil1 str1" d="M2.32 1.03c0.01,0.01 0.04,0.01 0.06,0.02 0.01,0.01 0,0.04 -0.01,0.05 -0.01,0.02 0,0.04 -0.01,0.06 -0.02,0.02 -0.04,0.01 -0.07,0.01 -0.02,0.04 -0.01,0.04 -0.04,0.08 -0.01,0.02 -0.04,0.05 -0.06,0.06 -0.05,0.03 -0.11,0.06 -0.19,0.06 -0.04,-0.01 -0.08,-0.01 -0.12,-0.02 -0.03,-0.01 -0.05,-0.02 -0.08,-0.04 -0.01,-0.01 -0.04,-0.04 -0.06,-0.06 -0.02,-0.02 -0.03,-0.04 -0.04,-0.08 -0.02,0 -0.04,0 -0.05,0 -0.02,-0.01 -0.02,-0.02 -0.03,-0.04 0,-0.02 -0.02,-0.07 -0.01,-0.09l0.06 -0.01c0,-0.02 -0.01,-0.04 -0.01,-0.06 0,-0.01 0,-0.04 0.01,-0.06 0,-0.02 0.01,-0.03 0.04,-0.04 0.02,0 0.04,-0.01 0.06,0 0.05,0.04 0.12,0.09 0.22,0.09 0.07,0 0.15,-0.03 0.2,-0.07 0.04,-0.02 0.04,-0.03 0.08,-0.01 0.01,0.01 0.03,0.02 0.04,0.03 0.03,0.03 0.02,0.08 0.01,0.12zm-0.48 -0.45c-0.07,0.03 -0.13,0.08 -0.17,0.12 -0.03,0.04 -0.05,0.07 -0.06,0.13 0,0.02 -0.01,0.05 -0.01,0.08 0,0.03 0.01,0.06 0.01,0.09 -0.02,0 -0.04,0.01 -0.04,0.03 -0.01,0.03 -0.01,0.05 0,0.07 0.03,0.14 0.08,0.08 0.11,0.13 0.01,0.03 0.01,0.03 0.03,0.05l0.04 0.04c0.01,0.02 0.03,0.03 0.05,0.04 0,0.01 0,0.08 0,0.1 0,0.01 -0.01,0.01 -0.02,0.01 -0.06,0.01 -0.19,0.03 -0.26,0.04 -0.05,0.01 -0.09,0.02 -0.13,0.03 -0.01,0.01 -0.03,0.02 -0.04,0.03 -0.05,0.02 -0.08,0.07 -0.1,0.12 -0.01,0.03 0,0.1 0,0.13 0,0.05 0,0.09 0,0.14 0.03,0 0.04,0 0.05,-0.01l-0.01 -0.17c0,-0.06 0,-0.13 0.06,-0.17 0.03,-0.02 0.05,-0.03 0.08,-0.04 0.07,-0.02 0.14,-0.02 0.21,-0.03 0.04,-0.01 0.08,-0.02 0.11,-0.02 0.01,0.04 0.01,0.05 0.03,0.08 0.03,0.04 0.07,0.07 0.12,0.09 0.03,0.01 0.07,0.02 0.1,0.02 0.11,-0.01 0.25,-0.08 0.25,-0.19l0.27 0.04c0.09,0.01 0.18,0.07 0.18,0.16 0.01,0.08 0.01,0.16 0.01,0.24l0.04 0 0 -0.24c-0.01,-0.1 -0.07,-0.18 -0.24,-0.2 -0.09,-0.02 -0.18,-0.03 -0.27,-0.04 -0.03,-0.01 -0.04,-0.01 -0.04,-0.04 0,-0.03 0,-0.06 0,-0.09 0.02,-0.01 0.03,-0.02 0.05,-0.04 0.02,-0.01 0.06,-0.06 0.07,-0.1 0.08,0 0.08,-0.05 0.1,-0.09 0,-0.01 0.01,-0.02 0.01,-0.04 0,-0.01 0,-0.02 0,-0.04 -0.01,-0.02 -0.03,-0.03 -0.06,-0.04 0,-0.08 0.02,-0.13 -0.01,-0.21 -0.03,-0.05 -0.04,-0.08 -0.09,-0.12 -0.02,-0.02 -0.02,-0.02 -0.03,-0.03 -0.02,-0.01 -0.04,-0.03 -0.06,-0.04 -0.07,-0.03 -0.13,-0.04 -0.21,-0.04 -0.03,0 -0.08,0 -0.13,0.02zm-0.12 0.15c0.03,-0.04 0.07,-0.08 0.15,-0.11 0.03,-0.01 0.04,-0.02 0.08,-0.02 0.05,0 0.12,0 0.17,0.02 0.04,0.01 0.06,0.03 0.09,0.05 0.03,0.03 0.04,0.03 0.07,0.07 0.01,0.02 0.05,0.09 0.05,0.12 -0.02,-0.01 -0.05,-0.03 -0.08,-0.03 -0.01,-0.01 -0.03,-0.01 -0.04,0 -0.02,0.01 -0.03,0.01 -0.04,0.02 -0.12,0.08 -0.22,0.1 -0.35,0.01 -0.01,-0.01 -0.02,-0.02 -0.03,-0.02 -0.02,-0.01 -0.02,-0.02 -0.05,-0.02 -0.05,0.01 -0.06,0.03 -0.09,0.03 0.01,-0.05 0.05,-0.1 0.07,-0.12zm0.27 0.94c0.01,0 0.02,0 0.03,-0.01 0.01,0 0.02,0 0.03,0 0.08,-0.01 0.15,-0.08 0.15,-0.15 -0.03,-0.01 -0.05,-0.03 -0.05,-0.05l0.01 -0.09 0 0c-0.01,0 -0.01,0.01 -0.02,0.01 -0.04,0.02 -0.09,0.03 -0.15,0.03 -0.04,0 -0.08,0 -0.11,-0.02 -0.01,0 -0.03,-0.01 -0.03,-0.01 -0.01,0.03 0,0.06 0,0.09 -0.01,0.03 -0.03,0.04 -0.05,0.04 0,0.08 0.08,0.14 0.15,0.15 0.02,0 0.03,0.01 0.04,0.01z"/>
     <path class="fil2 str2" d="M1.29 1.74l0 0.22 0.21 0 0 -0.17 0.04 0 0 0.17 0.94 -0.01 0 -0.15 0.04 0 0 0.15 0.19 0.01 -0.01 -0.24c-0.01,-0.09 -0.07,-0.13 -0.17,-0.16l-0.28 -0.04c-0.02,0.11 -0.11,0.17 -0.25,0.19 -0.14,-0.01 -0.22,-0.07 -0.25,-0.19l-0.28 0.04c-0.12,0.03 -0.17,0.09 -0.18,0.18z"/>
    </g>
    <g>
     <polygon class="fil3 str3" points="3.04,2.06 2.65,2.06 2.74,1.95 2.96,1.95 "/>
     <rect class="fil4 str3" x="1.08" y="2.06" width="2.03" height="1.3"/>
     <g id="_2171365958832">
      <path class="fil1" d="M1.31 2.7c0.06,-0.06 0.24,-0.16 0.33,-0.2l0.14 -0.05c0.04,0.02 -0.02,-0.01 -0.09,0.1 -0.1,0.16 -0.03,0.34 0.09,0.39l-0.02 0.02c0,0 0,-0.01 -0.01,-0.01l-0.04 -0.02c-0.13,-0.05 -0.32,-0.14 -0.4,-0.23l0 0 0 0zm0.82 0.28l-0.08 0c-0.16,0 -0.33,-0.12 -0.33,-0.28 0,-0.34 0.7,-0.38 0.75,-0.02 0.02,0.15 -0.16,0.3 -0.34,0.3l0 0zm0.3 -0.51c0.11,0.02 0.38,0.17 0.44,0.24 -0.06,0.07 -0.35,0.22 -0.47,0.25 0.07,-0.08 0.14,-0.09 0.14,-0.27 0,-0.1 -0.06,-0.16 -0.11,-0.22l0 0 0 0zm-0.34 0.6c0.37,0 0.57,-0.14 0.79,-0.28 0.04,-0.02 0.06,-0.04 0.09,-0.07 -0.04,-0.06 -0.04,-0.07 -0.15,-0.13 -0.07,-0.05 -0.12,-0.08 -0.2,-0.12 -0.43,-0.2 -0.89,-0.15 -1.26,0.11 -0.1,0.06 -0.15,0.07 -0.14,0.12 0,0.01 0,0.01 0.01,0.01 0,0 0,0.01 0,0.01 0,0.02 0,0 0.01,0.02 0.03,0.05 0.27,0.17 0.33,0.2 0.13,0.06 0.31,0.13 0.52,0.13l0 0z"/>
      <path class="fil1" d="M2.12 2.78c-0.07,0 -0.13,0 -0.13,-0.08 0,-0.12 0.21,-0.09 0.21,0 0,0.03 -0.04,0.08 -0.08,0.08l0 0zm-0.22 -0.07c0,0.18 0.37,0.17 0.37,0.01 0,-0.05 0.01,-0.09 -0.07,-0.13 -0.13,-0.08 -0.3,0 -0.3,0.12l0 0z"/>
      <path class="fil1" d="M2.05 2.15c0,0.1 -0.02,0.14 0.04,0.14 0.06,0 0.04,-0.03 0.04,-0.12 0,-0.04 -0.01,-0.05 -0.04,-0.07 -0.02,0.01 -0.04,0.02 -0.04,0.05z"/>
      <path class="fil1" d="M1.66 3.23c0,0.05 0.04,0.06 0.11,-0.03 0.05,-0.07 0.05,-0.05 0.05,-0.1 -0.07,-0.01 -0.06,-0.01 -0.1,0.04 -0.01,0.02 -0.06,0.07 -0.06,0.09l0 0 0 0z"/>
      <path class="fil1" d="M2.4 2.35c0.04,-0.03 0.18,-0.18 0.09,-0.18 -0.05,0 -0.05,0.03 -0.09,0.08 -0.04,0.05 -0.06,0.06 0,0.1l0 0z"/>
      <path class="fil1" d="M2.37 3.11c0,0.02 0.04,0.07 0.06,0.09 0.03,0.04 0.02,0.05 0.1,0.05 0,-0.12 -0.16,-0.21 -0.16,-0.14l0 0z"/>
      <path class="fil1" d="M1.65 2.2c0,0.07 0.16,0.2 0.16,0.12 0,-0.02 -0.09,-0.13 -0.1,-0.13 -0.03,-0.02 -0.06,-0.01 -0.06,0.01l0 0 0 0z"/>
      <path class="fil1" d="M2.1 3.13c-0.07,0.03 -0.05,0.03 -0.04,0.15 0,0 -0.01,0.07 0.05,0.05 0.04,-0.02 0.04,-0.15 -0.01,-0.2z"/>
     </g>
    </g>
   </g>
  </g>
 </g>
</svg>
