<?xml version="1.0" encoding="UTF-8"?>
<!DOCTYPE svg PUBLIC "-//W3C//DTD SVG 1.1//EN" "http://www.w3.org/Graphics/SVG/1.1/DTD/svg11.dtd">
<!-- Creator: CorelDRAW 2021 (64 Bit) -->
<svg xmlns="http://www.w3.org/2000/svg" xml:space="preserve" width="330px" height="330px" version="1.1" style="shape-rendering:geometricPrecision; text-rendering:geometricPrecision; image-rendering:optimizeQuality; fill-rule:evenodd; clip-rule:evenodd"
viewBox="0 0 26.45 26.45"
 xmlns:xlink="http://www.w3.org/1999/xlink"
 xmlns:xodm="http://www.corel.com/coreldraw/odm/2003">
 <defs>
  <style type="text/css">
   <![CDATA[
    .str0 {stroke:#B8B4B6;stroke-width:2.4;stroke-miterlimit:22.9256}
    .fil1 {fill:black}
    .fil0 {fill:white}
   ]]>
  </style>
 </defs>
 <g id="Camada_x0020_1">
  <metadata id="CorelCorpID_0Corel-Layer"/>
  <g id="_2713627267344">
   <path class="fil0 str0" d="M2.28 1.2l21.92 0c0.58,0 1.05,0.54 1.05,1.21l0 21.64c0,0.66 -0.47,1.2 -1.05,1.2l-21.92 0c-0.58,0 -1.05,-0.54 -1.05,-1.2 0,-2.6 -0.04,-20.96 -0.02,-21.9 0.01,-0.52 0.64,-0.95 1.07,-0.95z"/>
   <path class="fil1" d="M21.78 13.48l-13.52 -5.81c0.05,0.18 0.64,1.46 0.86,2.22 0.24,0.82 0.45,1.7 0.52,2.63 -0.97,0 -1.94,0 -2.9,0 -0.39,0 -1.04,-0.06 -1.37,0.09 -0.29,0.13 -0.56,0.42 -0.56,0.87 0,1.17 1.28,0.98 1.88,0.98 0.98,0 1.96,0 2.94,0 -0.03,1.15 -0.47,2.69 -0.9,3.74 -0.13,0.32 -0.39,0.82 -0.47,1.1 0.47,-0.12 1.21,-0.5 1.69,-0.7 0.56,-0.25 1.14,-0.48 1.7,-0.73l10.13 -4.39 0 0z"/>
  </g>
 </g>
</svg>
