<?xml version="1.0" encoding="UTF-8"?>
<!DOCTYPE svg PUBLIC "-//W3C//DTD SVG 1.1//EN" "http://www.w3.org/Graphics/SVG/1.1/DTD/svg11.dtd">
<!-- Creator: CorelDRAW 2021 (64 Bit) -->
<svg xmlns="http://www.w3.org/2000/svg" xml:space="preserve" width="400px" height="400px" version="1.1" style="shape-rendering:geometricPrecision; text-rendering:geometricPrecision; image-rendering:optimizeQuality; fill-rule:evenodd; clip-rule:evenodd"
viewBox="0 0 2.53 2.53"
 xmlns:xlink="http://www.w3.org/1999/xlink"
 xmlns:xodm="http://www.corel.com/coreldraw/odm/2003">
 <defs>
  <style type="text/css">
   <![CDATA[
    .str0 {stroke:#B8B4B6;stroke-width:0.19;stroke-miterlimit:22.9256}
    .str1 {stroke:black;stroke-width:0.01;stroke-miterlimit:22.9256}
    .fil1 {fill:black}
    .fil7 {fill:aqua}
    .fil6 {fill:#28FE3E}
    .fil2 {fill:#E6E6E6}
    .fil5 {fill:red}
    .fil3 {fill:#FF9933}
    .fil4 {fill:#FFFF99}
    .fil0 {fill:white}
   ]]>
  </style>
 </defs>
 <g id="Camada_x0020_1">
  <metadata id="CorelCorpID_0Corel-Layer"/>
  <g id="_2069720522352">
   <path class="fil0 str0" d="M0.2 0.09l2.13 0c0.06,0 0.1,0.06 0.1,0.12l0 2.11c0,0.06 -0.04,0.11 -0.1,0.11l-2.13 0c-0.06,0 -0.1,-0.05 -0.1,-0.11 0,-0.26 -0.01,-2.04 0,-2.13 0,-0.05 0.06,-0.1 0.1,-0.1z"/>
   <g>
    <path class="fil1" d="M1.14 1.58l0 -0.01c0.02,0 0.02,-0.01 0.02,-0.03 0,0 0.02,-0.01 0.02,-0.03 0,-0.01 -0.01,-0.03 -0.02,-0.05 0.01,0 0.02,0 0.02,0 0.02,-0.02 0.05,-0.03 0.04,-0.06 0,-0.02 -0.03,-0.07 -0.04,-0.09 -0.01,-0.03 -0.03,-0.05 -0.04,-0.08 -0.02,-0.02 -0.01,-0.02 -0.01,-0.05 0.01,-0.1 0,-0.14 -0.05,-0.21 -0.03,-0.06 -0.09,-0.11 -0.15,-0.13 -0.13,-0.07 -0.28,-0.06 -0.41,0 -0.08,0.05 -0.18,0.17 -0.19,0.31 0,0.07 0.03,0.15 0.06,0.2l0.09 0.16c0.04,0.07 0.03,0.09 -0.02,0.17 -0.02,0.02 -0.03,0.04 -0.04,0.05 -0.01,0.01 -0.01,0.02 -0.02,0.02 -0.01,0.01 -0.02,0.02 -0.02,0.04 0,0 0,0.01 0.01,0.02 0.01,0 0.24,0 0.27,0l0.19 0c0.06,0 -0.01,-0.02 0.12,-0.07 0.04,-0.01 0.06,-0.01 0.1,-0.02 0.09,-0.02 0.11,-0.08 0.07,-0.14l0 0z"/>
    <g>
     <g>
      <g>
       <polygon class="fil2 str1" points="1.83,0.37 1.63,0.48 1.66,0.41 1.76,0.36 "/>
       <rect class="fil3 str1" transform="matrix(0.104966 -0.054772 0.0326139 0.0626346 1.12143 0.740298)" width="7.17" height="7.08"/>
      </g>
      <g>
       <polygon class="fil2 str1" points="1.99,0.69 1.77,0.76 1.81,0.7 1.93,0.67 "/>
       <rect class="fil4 str1" transform="matrix(0.112402 -0.037153 0.0221226 0.0670714 1.22466 0.942506)" width="7.17" height="7.08"/>
      </g>
      <g>
       <polygon class="fil2 str1" points="2.13,1.03 1.97,1.05 2,1.01 2.09,0.99 "/>
       <rect class="fil5 str1" transform="matrix(0.117462 -0.0146523 0.00872464 0.0700909 1.32006 1.1335)" width="7.17" height="7.08"/>
      </g>
      <g>
       <polygon class="fil2 str1" points="2.15,1.41 1.93,1.38 1.99,1.34 2.11,1.36 "/>
       <rect class="fil6 str1" transform="matrix(0.117393 0.0151924 -0.00904627 0.07005 1.36649 1.30467)" width="7.17" height="7.08"/>
      </g>
     </g>
     <g>
      <polygon class="fil2 str1" points="2.1,1.74 1.89,1.68 1.95,1.65 2.07,1.69 "/>
      <rect class="fil7 str1" transform="matrix(0.113338 0.0341826 -0.020354 0.0676303 1.3413 1.5097)" width="7.17" height="7.08"/>
     </g>
    </g>
   </g>
  </g>
 </g>
</svg>
