<?xml version="1.0" encoding="UTF-8"?>
<!DOCTYPE svg PUBLIC "-//W3C//DTD SVG 1.1//EN" "http://www.w3.org/Graphics/SVG/1.1/DTD/svg11.dtd">
<!-- Creator: CorelDRAW 2021 (64 Bit) -->
<svg xmlns="http://www.w3.org/2000/svg" xml:space="preserve" width="400px" height="400px" version="1.1" style="shape-rendering:geometricPrecision; text-rendering:geometricPrecision; image-rendering:optimizeQuality; fill-rule:evenodd; clip-rule:evenodd"
viewBox="0 0 2.53 2.53"
 xmlns:xlink="http://www.w3.org/1999/xlink"
 xmlns:xodm="http://www.corel.com/coreldraw/odm/2003">
 <defs>
  <style type="text/css">
   <![CDATA[
    .str0 {stroke:#B8B4B6;stroke-width:0.19;stroke-miterlimit:22.9256}
    .fil0 {fill:white}
    .fil2 {fill:black;fill-rule:nonzero}
    .fil1 {fill:#8F8F8F;fill-rule:nonzero}
   ]]>
  </style>
 </defs>
 <g id="Camada_x0020_1">
  <metadata id="CorelCorpID_0Corel-Layer"/>
  <g id="_2069340128000">
   <path class="fil0 str0" d="M0.2 0.09l2.13 0c0.06,0 0.1,0.06 0.1,0.12l0 2.11c0,0.06 -0.04,0.11 -0.1,0.11l-2.13 0c-0.06,0 -0.1,-0.05 -0.1,-0.11 0,-0.26 -0.01,-2.04 0,-2.13 0,-0.05 0.06,-0.1 0.1,-0.1z"/>
   <g>
    <polygon class="fil1" points="0.33,1.7 0.33,0.96 0.48,0.96 0.48,1.7 "/>
    <polygon id="_1" class="fil1" points="0.62,1.7 0.62,0.96 0.84,0.96 0.97,1.46 1.1,0.96 1.32,0.96 1.32,1.7 1.19,1.7 1.19,1.12 1.04,1.7 0.9,1.7 0.76,1.12 0.76,1.7 "/>
    <path id="_2" class="fil1" d="M1.81 1.43l0 -0.13 0.32 0 0 0.3c-0.03,0.03 -0.08,0.05 -0.13,0.07 -0.06,0.03 -0.12,0.04 -0.18,0.04 -0.08,0 -0.15,-0.02 -0.2,-0.05 -0.06,-0.03 -0.1,-0.08 -0.13,-0.14 -0.03,-0.06 -0.04,-0.12 -0.04,-0.19 0,-0.08 0.01,-0.15 0.04,-0.21 0.04,-0.06 0.08,-0.1 0.14,-0.13 0.05,-0.03 0.11,-0.04 0.18,-0.04 0.09,0 0.16,0.02 0.21,0.06 0.05,0.04 0.09,0.09 0.1,0.16l-0.15 0.02c-0.01,-0.03 -0.03,-0.06 -0.05,-0.08 -0.03,-0.02 -0.07,-0.03 -0.11,-0.03 -0.07,0 -0.12,0.02 -0.15,0.06 -0.04,0.04 -0.06,0.1 -0.06,0.18 0,0.09 0.02,0.15 0.06,0.2 0.04,0.04 0.09,0.06 0.15,0.06 0.03,0 0.06,0 0.09,-0.02 0.03,-0.01 0.06,-0.02 0.08,-0.04l0 -0.09 -0.17 0z"/>
    <polygon class="fil2" points="0.4,1.63 0.4,0.9 0.55,0.9 0.55,1.63 "/>
    <polygon id="_1_0" class="fil2" points="0.69,1.63 0.69,0.9 0.91,0.9 1.04,1.4 1.17,0.9 1.39,0.9 1.39,1.63 1.25,1.63 1.25,1.05 1.11,1.63 0.97,1.63 0.82,1.05 0.82,1.63 "/>
    <path id="_2_1" class="fil2" d="M1.88 1.36l0 -0.12 0.32 0 0 0.29c-0.04,0.03 -0.08,0.06 -0.14,0.08 -0.06,0.02 -0.12,0.03 -0.18,0.03 -0.07,0 -0.14,-0.01 -0.2,-0.05 -0.05,-0.03 -0.1,-0.07 -0.12,-0.13 -0.03,-0.06 -0.05,-0.13 -0.05,-0.2 0,-0.07 0.02,-0.14 0.05,-0.2 0.03,-0.06 0.08,-0.11 0.14,-0.14 0.05,-0.02 0.11,-0.04 0.18,-0.04 0.09,0 0.16,0.02 0.21,0.06 0.05,0.04 0.08,0.09 0.1,0.16l-0.15 0.03c-0.01,-0.04 -0.03,-0.07 -0.06,-0.09 -0.03,-0.02 -0.06,-0.03 -0.1,-0.03 -0.07,0 -0.12,0.02 -0.16,0.06 -0.04,0.04 -0.06,0.1 -0.06,0.19 0,0.08 0.02,0.15 0.06,0.19 0.04,0.04 0.09,0.07 0.15,0.07 0.03,0 0.07,-0.01 0.1,-0.02 0.03,-0.01 0.05,-0.03 0.08,-0.05l0 -0.09 -0.17 0z"/>
   </g>
  </g>
 </g>
</svg>
