<?xml version="1.0" encoding="UTF-8"?>
<!DOCTYPE svg PUBLIC "-//W3C//DTD SVG 1.1//EN" "http://www.w3.org/Graphics/SVG/1.1/DTD/svg11.dtd">
<!-- Creator: CorelDRAW 2021 (64 Bit) -->
<svg xmlns="http://www.w3.org/2000/svg" xml:space="preserve" width="337px" height="330px" version="1.1" style="shape-rendering:geometricPrecision; text-rendering:geometricPrecision; image-rendering:optimizeQuality; fill-rule:evenodd; clip-rule:evenodd"
viewBox="0 0 3.86 3.78"
 xmlns:xlink="http://www.w3.org/1999/xlink"
 xmlns:xodm="http://www.corel.com/coreldraw/odm/2003">
 <defs>
  <style type="text/css">
   <![CDATA[
    .str0 {stroke:#C4C4C4;stroke-width:0.34;stroke-miterlimit:22.9256}
    .str8 {stroke:#52331E;stroke-width:0.01;stroke-miterlimit:22.9256}
    .str7 {stroke:#9F740B;stroke-width:0.01;stroke-miterlimit:22.9256}
    .str2 {stroke:black;stroke-width:0.09;stroke-miterlimit:22.9256}
    .str1 {stroke:black;stroke-width:0.06;stroke-miterlimit:22.9256}
    .str3 {stroke:#86B0C0;stroke-width:0.06;stroke-miterlimit:22.9256}
    .str5 {stroke:#E2A610;stroke-width:0.06;stroke-miterlimit:22.9256}
    .str9 {stroke:#9F740E;stroke-width:0.02;stroke-miterlimit:22.9256}
    .str6 {stroke:#FDD734;stroke-width:0.02;stroke-miterlimit:22.9256}
    .str4 {stroke:#B9E4EA;stroke-width:0.01;stroke-miterlimit:22.9256}
    .fil3 {fill:none}
    .fil9 {fill:#52331E}
    .fil4 {fill:#86B0C0}
    .fil8 {fill:#9F740B}
    .fil10 {fill:#9F7507}
    .fil5 {fill:#B9E4EA}
    .fil6 {fill:#E2A610}
    .fil2 {fill:#EAFF00}
    .fil7 {fill:#FDD734}
    .fil1 {fill:red}
    .fil0 {fill:white}
   ]]>
  </style>
 </defs>
 <g id="Camada_x0020_1">
  <metadata id="CorelCorpID_0Corel-Layer"/>
  <ellipse class="fil0 str0" cx="1.93" cy="1.89" rx="1.76" ry="1.72"/>
  <g id="_1853585102288">
   <g>
    <path class="fil1" d="M1.09 0.82c-0.29,0.14 -0.37,0.29 -0.39,0.57 0.01,0.26 0.13,0.41 0.33,0.51l0.08 1.08c0.12,-0.02 0.2,-0.07 0.22,-0.17l0.01 -0.13 0.08 -0.23 -0.11 -0.21 0.13 -0.21 -0.04 -0.2c0.22,-0.15 0.3,-0.37 0.24,-0.65 -0.1,-0.26 -0.27,-0.4 -0.55,-0.36z"/>
    <path class="fil2 str1" d="M0.68 1.38c0,0.02 0,0.04 0,0.06 0,0.12 0.07,0.26 0.16,0.35 0.02,0.04 0.06,0.07 0.09,0.09 0.07,0.03 0.08,0.02 0.08,0.06 0.01,0.08 0.01,0.13 0.01,0.21l0.02 0.21c0,0.05 0.04,0.62 0.04,0.64 0.03,-0.01 0.05,-0.02 0.08,-0.02 0.09,-0.02 0.18,-0.09 0.21,-0.19 0.01,-0.06 -0.02,-0.11 0,-0.18l0.08 -0.18c-0.01,-0.01 0,0 -0.01,-0.01 0,0 0,0 0,-0.01 -0.03,-0.04 -0.07,-0.14 -0.1,-0.19 0.04,-0.06 0.11,-0.14 0.11,-0.2 0.01,-0.03 0,-0.06 -0.01,-0.09 0,-0.03 0,-0.07 -0.01,-0.09 0.08,-0.06 0.11,-0.08 0.17,-0.19 0.04,-0.07 0.07,-0.16 0.08,-0.23 0,-0.07 0,-0.14 -0.02,-0.21 -0.02,-0.08 -0.04,-0.14 -0.09,-0.21 -0.06,-0.07 -0.12,-0.13 -0.19,-0.16 -0.08,-0.04 -0.14,-0.04 -0.2,-0.04l-0.09 0.01c-0.09,0.02 -0.17,0.07 -0.23,0.14 -0.01,0.01 -0.03,0.03 -0.04,0.04l0.01 0.01c0.02,0.02 0.03,0.03 0.05,0.05 0.06,-0.05 0.07,-0.1 0.16,-0.15 0.06,-0.02 0.12,-0.04 0.17,-0.04 0.04,0.01 0.14,0.02 0.18,0.05 0.12,0.08 0.21,0.2 0.23,0.35 0.01,0.06 0.02,0.14 0,0.2 -0.04,0.16 -0.13,0.28 -0.26,0.34 0,0.02 0,0.04 0.01,0.06l0.02 0.15c0,0.02 -0.01,0.03 -0.03,0.05l-0.11 0.17c0.04,0.06 0.07,0.13 0.1,0.19 0.02,0.03 0.01,0.01 -0.01,0.09l-0.05 0.15c-0.01,0.03 -0.01,0.02 0,0.05 0,0.01 0.01,0.09 0.01,0.1 -0.03,0.06 -0.12,0.11 -0.16,0.11 -0.01,-0.01 -0.01,-0.01 -0.01,-0.03 0,-0.08 0,-0.15 -0.01,-0.24 0,-0.02 0,-0.04 0,-0.07l-0.02 -0.34c0,-0.01 0,-0.04 0,-0.06 0,-0.03 0,-0.05 0,-0.07l-0.01 -0.14c0,-0.04 0,-0.09 0,-0.13 -0.02,-0.02 -0.05,-0.01 -0.07,-0.02 -0.01,0 -0.05,-0.02 -0.06,-0.03 -0.11,-0.06 -0.17,-0.17 -0.19,-0.3 -0.01,-0.01 -0.01,-0.04 -0.01,-0.05 0,-0.02 0,-0.04 -0.01,-0.06 -0.01,0 -0.02,0 -0.03,0 -0.01,0.01 -0.02,0 -0.04,0z"/>
    <line class="fil3 str2" x1="1.16" y1="1.82" x2="1.2" y2= "2.91" />
    <line class="fil3 str2" x1="1.29" y1="1.81" x2="1.3" y2= "2.17" />
    <path class="fil1 str1" d="M0.68 1.14c-0.06,0.1 0.08,0.2 0.13,0.09 0.02,-0.04 0.02,-0.1 -0.02,-0.12 -0.04,-0.02 -0.09,-0.01 -0.11,0.03z"/>
    <ellipse class="fil0 str1" cx="1.09" cy="1.16" rx="0.11" ry="0.12"/>
   </g>
   <g>
    <path class="fil4 str3" d="M2.07 1.15c0,0.18 0,0.2 0,0.38 0.06,0.06 0.13,0.06 0.2,0.01 0,-0.2 0,-0.25 0,-0.44 0.07,-0.36 0.44,-0.36 0.51,0 0,0.08 0,0.36 0,0.44 0.05,0.04 0.11,0.04 0.17,0 0,-0.06 0,-0.32 0,-0.38 -0.01,-0.2 -0.07,-0.37 -0.21,-0.48 -0.15,-0.12 -0.31,-0.12 -0.47,-0.02 -0.13,0.13 -0.19,0.29 -0.2,0.49z"/>
    <path class="fil5 str4" d="M2.29 0.8c0,-0.04 -0.02,-0.05 -0.05,-0.04 -0.1,0.05 -0.15,0.2 -0.14,0.44 0,0.05 0.03,0.05 0.04,0.02 0.03,-0.17 0.07,-0.29 0.11,-0.34 0.03,-0.02 0.04,-0.05 0.04,-0.08z"/>
    <path class="fil6 str5" d="M1.91 2.82c0,-0.34 0,-0.68 0.01,-1.01 0.41,-0.23 0.81,-0.23 1.19,0 0,0.33 0,0.67 0,1.01 -0.08,0.13 -0.4,0.18 -0.6,0.18 -0.21,0 -0.53,-0.06 -0.6,-0.18z"/>
    <path class="fil7 str6" d="M2.51 2.03c-0.29,-0.01 -0.58,-0.05 -0.59,-0.23 0,-0.06 0.38,-0.16 0.6,-0.17 0.21,0 0.59,0.11 0.59,0.17 0,0.19 -0.35,0.22 -0.6,0.23z"/>
    <path class="fil8 str7" d="M2.45 2.55c-0.03,0.08 -0.06,0.16 -0.08,0.24 -0.01,0.02 -0.01,0.03 0.02,0.03 0.03,0 0.15,0 0.23,0 0.02,0 0.03,-0.01 0.02,-0.03 -0.03,-0.08 -0.06,-0.16 -0.09,-0.23 0.05,-0.03 0.08,-0.06 0.07,-0.12 -0.01,-0.08 -0.05,-0.12 -0.12,-0.12 -0.07,0 -0.12,0.06 -0.12,0.12 0,0.05 0.04,0.1 0.07,0.11z"/>
    <path class="fil9 str8" d="M2.47 2.52c-0.03,0.07 -0.05,0.14 -0.07,0.21 -0.01,0.02 0,0.03 0.02,0.03 0.02,0 0.11,0 0.16,0 0.02,0 0.03,-0.01 0.02,-0.03 -0.02,-0.07 -0.04,-0.13 -0.06,-0.2 0.03,-0.02 0.05,-0.06 0.05,-0.11 -0.01,-0.07 -0.04,-0.1 -0.09,-0.11 -0.06,0.01 -0.09,0.06 -0.09,0.11 0,0.05 0.03,0.09 0.06,0.1z"/>
    <ellipse class="fil10 str9" cx="2.85" cy="1.78" rx="0.11" ry="0.06"/>
    <ellipse class="fil10 str9" cx="2.14" cy="1.78" rx="0.11" ry="0.06"/>
   </g>
  </g>
 </g>
</svg>
