<?xml version="1.0" encoding="UTF-8"?>
<!DOCTYPE svg PUBLIC "-//W3C//DTD SVG 1.1//EN" "http://www.w3.org/Graphics/SVG/1.1/DTD/svg11.dtd">
<!-- Creator: CorelDRAW 2021 (64 Bit) -->
<svg xmlns="http://www.w3.org/2000/svg" xml:space="preserve" width="400px" height="400px" version="1.1" style="shape-rendering:geometricPrecision; text-rendering:geometricPrecision; image-rendering:optimizeQuality; fill-rule:evenodd; clip-rule:evenodd"
viewBox="0 0 2.53 2.53"
 xmlns:xlink="http://www.w3.org/1999/xlink"
 xmlns:xodm="http://www.corel.com/coreldraw/odm/2003">
 <defs>
  <style type="text/css">
   <![CDATA[
    .str17 {stroke:#FF0505;stroke-width:0.06;stroke-miterlimit:22.9256}
    .str0 {stroke:#B8B4B6;stroke-width:0.19;stroke-miterlimit:22.9256}
    .str5 {stroke:#F5A980;stroke-width:0.03;stroke-miterlimit:22.9256}
    .str4 {stroke:black;stroke-width:0.01;stroke-miterlimit:22.9256}
    .str12 {stroke:#595656;stroke-width:0.01;stroke-miterlimit:22.9256}
    .str10 {stroke:#DBDBDB;stroke-width:0.01;stroke-miterlimit:22.9256}
    .str2 {stroke:#F5A980;stroke-width:0.01;stroke-miterlimit:22.9256}
    .str1 {stroke:#030303;stroke-width:0.05;stroke-miterlimit:22.9256}
    .str8 {stroke:#F5A980;stroke-width:0.01;stroke-miterlimit:22.9256}
    .str16 {stroke:#FF0505;stroke-width:0.01;stroke-miterlimit:22.9256}
    .str9 {stroke:#F5A980;stroke-width:0.02;stroke-miterlimit:22.9256}
    .str15 {stroke:#FF0505;stroke-width:0.02;stroke-miterlimit:22.9256}
    .str6 {stroke:#DBDBDB;stroke-width:0.01;stroke-miterlimit:22.9256}
    .str11 {stroke:#F5A980;stroke-width:0.01;stroke-miterlimit:22.9256}
    .str13 {stroke:#FF0505;stroke-width:0.01;stroke-miterlimit:22.9256}
    .str7 {stroke:#E1E1E1;stroke-width:0.01;stroke-miterlimit:22.9256}
    .str3 {stroke:#454545;stroke-width:0.09;stroke-linecap:round;stroke-miterlimit:22.9256}
    .str14 {stroke:#FF0505;stroke-width:0.03;stroke-miterlimit:22.9256;stroke-dasharray:0.030000 0.030000}
    .fil4 {fill:none}
    .fil3 {fill:black}
    .fil5 {fill:black}
    .fil11 {fill:#336666}
    .fil1 {fill:#33CC66}
    .fil7 {fill:#666666}
    .fil12 {fill:#66FFCC}
    .fil6 {fill:#999999}
    .fil10 {fill:#CCCCCC}
    .fil9 {fill:#F5A980}
    .fil2 {fill:#F5B796}
    .fil0 {fill:white}
    .fil8 {fill:white}
   ]]>
  </style>
 </defs>
 <g id="Camada_x0020_1">
  <metadata id="CorelCorpID_0Corel-Layer"/>
  <g id="_2069577229312">
   <path class="fil0 str0" d="M0.2 0.09l2.13 0c0.06,0 0.1,0.06 0.1,0.12l0 2.11c0,0.06 -0.04,0.11 -0.1,0.11l-2.13 0c-0.06,0 -0.1,-0.05 -0.1,-0.11 0,-0.26 -0.01,-2.04 0,-2.13 0,-0.05 0.06,-0.1 0.1,-0.1z"/>
   <g>
    <g>
     <path class="fil1 str1" d="M2.21 1.66l-0.87 0c-0.02,0 -0.03,-0.02 -0.03,-0.05 0.01,-0.1 0.01,-0.17 0.02,-0.26 0,-0.03 -0.01,-0.07 0.03,-0.09 0.12,-0.04 0.29,-0.08 0.29,-0.14l0.01 -0.06c0.08,0.24 0.18,0.21 0.23,-0.01 0,0.04 0.01,0.09 0.05,0.11l0.27 0.13c0.01,0 0.02,0.02 0.02,0.04 0.01,0.1 0.02,0.19 0.03,0.28 0,0.03 -0.02,0.05 -0.05,0.05z"/>
     <path class="fil2 str2" d="M1.65 1.13c0.03,0.06 0.07,0.09 0.13,0.11 0.05,-0.01 0.11,-0.09 0.11,-0.11l0 -0.08c-0.02,0.03 -0.06,0.06 -0.08,0.09 -0.01,0.01 -0.05,0.01 -0.08,0l-0.08 -0.08 0 0.07z"/>
     <path class="fil2 str2" d="M2 0.76c-0.01,0 -0.02,0.01 -0.02,0.01l0.01 -0.02 -0.07 -0.04 0 -0.1 -0.08 0 -0.07 0.02 -0.07 -0.03 -0.09 0.01 0 0.08 -0.05 0.06c0,-0.01 -0.01,-0.02 -0.01,-0.03 0,0 -0.01,0 -0.02,0 0,0 -0.01,0.01 -0.01,0.02 0,0.01 0,0.03 0,0.04l0.01 0.05c0,0.01 0.01,0.01 0.02,0.01 0,0 0,0 0.01,-0.01 0,0.04 0.01,0.07 0.02,0.11 0.02,0.04 0.04,0.08 0.07,0.12 0.02,0.02 0.05,0.05 0.08,0.08 0.03,0.02 0.05,0.02 0.08,0 0.04,-0.04 0.08,-0.08 0.11,-0.12 0.02,-0.02 0.03,-0.05 0.04,-0.07 0.01,-0.03 0.01,-0.06 0.02,-0.09 0,0 0,0.01 0.01,0.01 0,0 0.01,-0.01 0.01,-0.01 0.02,-0.03 0.02,-0.05 0.03,-0.08 0,-0.01 -0.01,-0.01 -0.01,-0.02 -0.01,0 -0.02,-0.01 -0.02,0z"/>
     <path class="fil3" d="M1.87 0.79c-0.02,0 -0.02,0.01 -0.02,0.03 0,0.01 0.01,0.02 0.03,0.01 0.02,0 0.02,-0.05 -0.01,-0.04z"/>
     <path class="fil3" d="M1.67 0.79c-0.03,0.01 -0.01,0.05 0.01,0.04 0.01,0 0.02,-0.01 0.02,-0.02 0,-0.02 -0.01,-0.02 -0.03,-0.02z"/>
     <line class="fil4 str3" x1="1.63" y1="0.73" x2="1.74" y2= "0.74" />
     <path class="fil5 str4" d="M1.61 0.69l-0.05 0.06c0,-0.01 0,-0.02 -0.01,-0.04 -0.01,-0.04 -0.01,-0.1 0,-0.16 0.01,-0.08 0.05,-0.11 0.1,-0.12 0.09,-0.01 0.17,-0.01 0.24,0 0.05,0.02 0.09,0.07 0.1,0.12 0.02,0.08 0,0.12 0,0.2 -0.03,-0.01 -0.05,-0.03 -0.07,-0.05 0,-0.03 0,-0.06 0,-0.09 -0.03,0 -0.05,0 -0.08,0 -0.03,0.03 -0.1,0.03 -0.14,0 -0.03,0 -0.06,0 -0.09,0 0.01,0.02 0.01,0.05 0,0.08z"/>
     <line class="fil4 str3" x1="1.91" y1="0.73" x2="1.8" y2= "0.74" />
     <path class="fil6" d="M1.86 0.79c0,-0.01 0.02,-0.02 0.04,-0.02 0.02,0 0.03,0.01 0.03,0.02 0,0 0,0.01 0,0.01l-0.01 0.01c-0.01,-0.02 -0.03,-0.02 -0.06,-0.02z"/>
     <path class="fil6" d="M1.69 0.79c0.01,-0.01 -0.01,-0.02 -0.03,-0.02 -0.02,0 -0.03,0.01 -0.04,0.02 0,0 0,0.01 0,0.01l0.02 0.01c0.01,-0.02 0.03,-0.02 0.05,-0.02z"/>
     <path class="fil4 str5" d="M1.82 0.76l-0.02 0.02 0 0.03 -0.01 0.05 0.01 0.03 0.02 0.03c0,0.01 0,0.01 -0.01,0.01l-0.03 0.03c0,0 -0.01,0 -0.02,0l-0.04 -0.03 0 -0.01 0.02 -0.03 0 -0.03 0 -0.05 -0.01 -0.03 -0.03 -0.02"/>
     <path class="fil7" d="M1.84 1l-0.13 -0.01c-0.01,0.01 -0.01,0.01 0,0.01l0.02 0.02c0.02,0.01 0.03,0.02 0.04,0.02 0.01,0 0.03,-0.01 0.04,-0.01l0.03 -0.03c0,0 0,0 0,0z"/>
     <path class="fil8 str6" d="M1.73 0.99l0 0.01c0,0 0,0.01 0,0.01 0.01,0 0.01,0 0.02,0 0,0 0,0 0,0 0.01,0 0.02,0 0.02,0 0.01,0 0.01,0 0.02,0 0,0 0.01,0 0.01,0 0,0 0.01,0 0.01,0l0.01 0c0,0 0,-0.01 0,-0.01l0 -0.01c-0.03,0 -0.06,0 -0.09,0z"/>
     <line class="fil4 str7" x1="1.79" y1="0.99" x2="1.79" y2= "1.01" />
     <line class="fil4 str7" x1="1.8" y1="0.99" x2="1.8" y2= "1.01" />
     <line class="fil4 str7" x1="1.81" y1="0.99" x2="1.81" y2= "1.01" />
     <line class="fil4 str7" x1="1.73" y1="0.99" x2="1.73" y2= "1.01" />
     <line class="fil4 str7" x1="1.75" y1="1" x2="1.75" y2= "1.01" />
     <line class="fil4 str7" x1="1.75" y1="1" x2="1.75" y2= "1.01" />
     <line class="fil4 str7" x1="1.77" y1="0.99" x2="1.77" y2= "1.01" />
     <path class="fil4 str8" d="M1.73 1.04l-0.03 -0.04c-0.01,-0.01 0,-0.02 0.01,-0.01 0.05,0 0.08,0 0.13,0 0.01,0 0.01,0 0.01,0.01l-0.04 0.04c-0.02,0.02 -0.05,0.02 -0.08,0z"/>
     <polyline class="fil4 str2" points="1.71,1.09 1.74,1.08 1.77,1.07 1.8,1.08 1.84,1.09 "/>
     <path class="fil4 str9" d="M1.55 0.81c-0.01,-0.01 -0.02,-0.03 -0.02,-0.06 0.01,-0.02 0.01,-0.01 0.02,-0.01 0,0.02 0,0.03 0,0.05"/>
     <path class="fil4 str9" d="M1.99 0.78c0,-0.01 0.01,-0.02 0.01,-0.02 0.02,0 0.02,0.01 0.02,0.02 0,0.03 -0.01,0.05 -0.02,0.05"/>
     <path class="fil4 str8" d="M1.82 0.82c0.01,0 0.02,0 0.02,0.01 0.02,0.01 0.03,0.02 0.07,-0.01 0.01,-0.01 0.01,0 0.03,-0.01"/>
     <path class="fil4 str8" d="M1.72 0.82c0,0 -0.01,0 -0.02,0.01 -0.01,0.01 -0.02,0.02 -0.06,-0.01 -0.01,-0.01 -0.01,0 -0.02,-0.01"/>
     <path class="fil4 str8" d="M1.62 0.81c0.01,0 0.01,0.01 0.02,0 0.03,-0.03 0.05,-0.03 0.07,-0.01 0,0 0.01,0.01 0.01,0.01"/>
     <path class="fil4 str8" d="M1.94 0.81c-0.01,0 -0.01,0.01 -0.02,0 -0.03,-0.03 -0.06,-0.03 -0.08,-0.01 0,0 -0.01,0.01 -0.02,0.01"/>
     <path class="fil9 str2" d="M1.84 1c-0.06,0.05 -0.1,0.04 -0.14,-0.01 0.03,0.07 0.1,0.08 0.14,0.01z"/>
     <path class="fil10 str2" d="M1.72 0.99c0.01,0 -0.02,0 -0.02,0 0,0 0,0 0,0 0.01,0.02 0.02,0.02 0.03,0.03l-0.01 -0.03z"/>
     <path class="fil10 str2" d="M1.83 0.99c0,0 0.02,0 0.02,0 0,0.01 -0.02,0.02 -0.03,0.03l0.01 -0.03z"/>
     <path class="fil8" d="M1.76 1.03c-0.01,0 -0.02,0 -0.03,-0.01 0.02,0 0.01,0 0.01,0 0.02,0 0.01,0 0.01,0 0.01,0 0.02,0 0.02,0 0.01,0.01 0,0 0.02,0 0,0 0,0 0.01,0 0.01,0 0,0 0.01,0 0,0.01 -0.01,0.01 -0.02,0.01 -0.01,0 -0.02,0 -0.03,0z"/>
     <path class="fil4 str10" d="M1.73 1.02c0.01,0 0.01,0 0.01,0 0.01,0 0.01,0 0.01,0 0.01,0 0.02,0 0.02,0 0.01,0 0.01,0 0.02,0 0,0 0.01,0 0.01,0 0.01,0 0.01,0 0.01,0"/>
     <line class="fil4 str6" x1="1.74" y1="1.02" x2="1.74" y2= "1.03" />
     <line class="fil4 str6" x1="1.75" y1="1.02" x2="1.75" y2= "1.03" />
     <line class="fil4 str6" x1="1.77" y1="1.02" x2="1.77" y2= "1.03" />
     <line class="fil4 str6" x1="1.79" y1="1.02" x2="1.79" y2= "1.03" />
     <line class="fil4 str6" x1="1.8" y1="1.02" x2="1.8" y2= "1.03" />
     <path class="fil9 str11" d="M1.76 0.97c0,0 0,0 -0.01,0 -0.01,0.01 -0.03,0.01 -0.04,0.02 -0.01,0 -0.02,0 -0.01,0 0.01,0 0.02,0 0.03,0 0.03,0.01 0.06,0.01 0.09,0 0.01,0 0.02,0 0.02,0 0.01,0 0.01,0 0,0 -0.02,-0.01 -0.04,-0.01 -0.05,-0.01 0,0 0,-0.01 -0.01,-0.01 0,0.01 -0.01,0.01 -0.02,0z"/>
     <path class="fil11 str12" d="M1.64 1.11c0.07,0.19 0.21,0.2 0.27,0 -0.01,-0.02 -0.01,-0.04 -0.01,-0.06 -0.08,0.17 -0.14,0.2 -0.26,0l0 0.06z"/>
     <circle class="fil12 str13" cx="1.95" cy="1.43" r="0.08"/>
     <line class="fil4 str14" x1="1.88" y1="1.17" x2="2.21" y2= "1.32" />
     <line class="fil4 str14" x1="1.67" y1="1.17" x2="1.34" y2= "1.32" />
     <line class="fil4 str15" x1="1.93" y1="1.35" x2="1.88" y2= "1.41" />
     <line class="fil4 str16" x1="1.96" y1="1.35" x2="1.88" y2= "1.44" />
     <line class="fil4 str15" x1="1.99" y1="1.36" x2="1.89" y2= "1.47" />
     <line class="fil4 str16" x1="2.01" y1="1.38" x2="1.91" y2= "1.5" />
     <line class="fil4 str15" x1="2.02" y1="1.42" x2="1.94" y2= "1.51" />
     <line class="fil4 str16" x1="2.02" y1="1.45" x2="1.97" y2= "1.51" />
     <line class="fil4 str17" x1="1.33" y1="1.58" x2="2.23" y2= "1.58" />
    </g>
    <g>
     <path class="fil1 str1" d="M1.16 1.66l-0.87 0c-0.02,0 -0.03,-0.02 -0.03,-0.05 0.01,-0.1 0.01,-0.17 0.02,-0.26 0,-0.03 -0.01,-0.07 0.03,-0.09 0.12,-0.04 0.29,-0.08 0.29,-0.14l0.01 -0.06c0.08,0.24 0.18,0.21 0.23,-0.01 0,0.04 0.01,0.09 0.05,0.11l0.27 0.13c0.01,0 0.02,0.02 0.02,0.04 0.01,0.1 0.02,0.19 0.03,0.28 0,0.03 -0.02,0.05 -0.05,0.05z"/>
     <path class="fil2 str2" d="M0.6 1.13c0.03,0.06 0.07,0.09 0.13,0.11 0.05,-0.01 0.11,-0.09 0.11,-0.11l0 -0.08c-0.02,0.03 -0.05,0.06 -0.08,0.09 -0.01,0.01 -0.05,0.01 -0.07,0l-0.09 -0.08 0 0.07z"/>
     <path class="fil2 str2" d="M0.95 0.76c-0.01,0 -0.01,0.01 -0.02,0.01l0.01 -0.02 -0.06 -0.04 0 -0.1 -0.09 0 -0.07 0.02 -0.07 -0.03 -0.09 0.01 0 0.08 -0.04 0.06c-0.01,-0.01 -0.01,-0.02 -0.02,-0.03 0,0 -0.01,0 -0.02,0 0,0 0,0.01 -0.01,0.02 0,0.01 0,0.03 0,0.04l0.01 0.05c0,0.01 0.01,0.01 0.02,0.01 0,0 0.01,0 0.01,-0.01 0.01,0.04 0.01,0.07 0.02,0.11 0.02,0.04 0.04,0.08 0.07,0.12 0.03,0.02 0.05,0.05 0.08,0.08 0.03,0.02 0.06,0.02 0.08,0 0.04,-0.04 0.08,-0.08 0.11,-0.12 0.02,-0.02 0.03,-0.05 0.04,-0.07 0.01,-0.03 0.01,-0.06 0.02,-0.09 0,0 0,0.01 0.01,0.01 0,0 0.01,-0.01 0.02,-0.01 0.01,-0.03 0.02,-0.05 0.02,-0.08 0,-0.01 -0.01,-0.01 -0.01,-0.02 -0.01,0 -0.02,-0.01 -0.02,0z"/>
     <path class="fil3" d="M0.82 0.79c-0.01,0 -0.02,0.01 -0.02,0.03 0,0.01 0.01,0.02 0.03,0.01 0.02,0 0.02,-0.05 -0.01,-0.04z"/>
     <path class="fil3" d="M0.63 0.79c-0.03,0.01 -0.02,0.05 0,0.04 0.01,0 0.02,-0.01 0.02,-0.02 0,-0.02 -0.01,-0.02 -0.02,-0.02z"/>
     <line class="fil4 str3" x1="0.58" y1="0.73" x2="0.69" y2= "0.74" />
     <path class="fil5 str4" d="M0.56 0.69l-0.05 0.06c0,-0.01 0,-0.02 -0.01,-0.04 0,-0.04 -0.01,-0.1 0,-0.16 0.01,-0.08 0.06,-0.11 0.1,-0.12 0.09,-0.01 0.17,-0.01 0.24,0 0.05,0.02 0.09,0.07 0.1,0.12 0.02,0.08 0.01,0.12 0,0.2 -0.02,-0.01 -0.05,-0.03 -0.07,-0.05 0,-0.03 0,-0.06 0,-0.09 -0.03,0 -0.05,0 -0.08,0 -0.03,0.03 -0.1,0.03 -0.14,0 -0.03,0 -0.05,0 -0.09,0 0.01,0.02 0.01,0.05 0,0.08z"/>
     <line class="fil4 str3" x1="0.86" y1="0.73" x2="0.75" y2= "0.74" />
     <path class="fil6" d="M0.81 0.79c0,-0.01 0.02,-0.02 0.04,-0.02 0.02,0 0.03,0.01 0.03,0.02 0,0 0.01,0.01 0,0.01l-0.01 0.01c-0.01,-0.02 -0.03,-0.02 -0.06,-0.02z"/>
     <path class="fil6" d="M0.65 0.79c0,-0.01 -0.02,-0.02 -0.04,-0.02 -0.02,0 -0.03,0.01 -0.03,0.02 0,0 -0.01,0.01 0,0.01l0.01 0.01c0.01,-0.02 0.03,-0.02 0.06,-0.02z"/>
     <path class="fil4 str5" d="M0.77 0.76l-0.02 0.02 0 0.03 -0.01 0.05 0.01 0.03 0.02 0.03c0,0.01 0,0.01 0,0.01l-0.04 0.03c0,0 -0.01,0 -0.02,0l-0.03 -0.03 0 -0.01 0.01 -0.03 0 -0.03 0 -0.05 -0.01 -0.03 -0.03 -0.02"/>
     <path class="fil7" d="M0.79 1l-0.13 -0.01c0,0.01 0,0.01 0,0.01l0.03 0.02c0.01,0.01 0.02,0.02 0.03,0.02 0.02,0 0.03,-0.01 0.04,-0.01l0.03 -0.03c0,0 0,0 0,0z"/>
     <path class="fil8 str6" d="M0.68 0.99l0 0.01c0,0 0,0.01 0.01,0.01 0,0 0,0 0.01,0 0,0 0,0 0.01,0 0,0 0.01,0 0.01,0 0.01,0 0.01,0 0.02,0 0,0 0.01,0 0.01,0 0.01,0 0.01,0 0.01,0l0.01 0c0,0 0,-0.01 0,-0.01l0.01 -0.01c-0.04,0 -0.07,0 -0.1,0z"/>
     <line class="fil4 str7" x1="0.74" y1="0.99" x2="0.74" y2= "1.01" />
     <line class="fil4 str7" x1="0.75" y1="0.99" x2="0.75" y2= "1.01" />
     <line class="fil4 str7" x1="0.76" y1="0.99" x2="0.76" y2= "1.01" />
     <line class="fil4 str7" x1="0.69" y1="0.99" x2="0.69" y2= "1.01" />
     <line class="fil4 str7" x1="0.7" y1="1" x2="0.7" y2= "1.01" />
     <line class="fil4 str7" x1="0.71" y1="1" x2="0.71" y2= "1.01" />
     <line class="fil4 str7" x1="0.72" y1="0.99" x2="0.72" y2= "1.01" />
     <path class="fil4 str8" d="M0.69 1.04l-0.04 -0.04c-0.01,-0.01 0,-0.02 0.01,-0.01 0.05,0 0.08,0 0.13,0 0.01,0 0.01,0 0.01,0.01l-0.04 0.04c-0.02,0.02 -0.05,0.02 -0.07,0z"/>
     <polyline class="fil4 str2" points="0.67,1.09 0.69,1.08 0.72,1.07 0.75,1.08 0.79,1.09 "/>
     <path class="fil4 str9" d="M0.5 0.81c-0.01,-0.01 -0.02,-0.03 -0.02,-0.06 0.01,-0.02 0.02,-0.01 0.02,-0.01 0.01,0.02 0.01,0.03 0,0.05"/>
     <path class="fil4 str9" d="M0.94 0.78c0,-0.01 0.01,-0.02 0.01,-0.02 0.02,0 0.02,0.01 0.02,0.02 0,0.03 -0.01,0.05 -0.02,0.05"/>
     <path class="fil4 str8" d="M0.78 0.82c0,0 0.01,0 0.01,0.01 0.02,0.01 0.03,0.02 0.07,-0.01 0.01,-0.01 0.01,0 0.03,-0.01"/>
     <path class="fil4 str8" d="M0.67 0.82c0,0 -0.01,0 -0.01,0.01 -0.02,0.01 -0.03,0.02 -0.06,-0.01 -0.02,-0.01 -0.02,0 -0.03,-0.01"/>
     <path class="fil4 str8" d="M0.57 0.81c0.01,0 0.01,0.01 0.02,0 0.03,-0.03 0.05,-0.03 0.07,-0.01 0,0 0.01,0.01 0.01,0.01"/>
     <path class="fil4 str8" d="M0.89 0.81c-0.01,0 -0.01,0.01 -0.02,0 -0.03,-0.03 -0.06,-0.03 -0.08,-0.01 0,0 -0.01,0.01 -0.01,0.01"/>
     <path class="fil9 str2" d="M0.79 1c-0.05,0.05 -0.1,0.04 -0.14,-0.01 0.04,0.07 0.1,0.08 0.14,0.01z"/>
     <path class="fil10 str2" d="M0.68 0.99c0,0 -0.03,0 -0.03,0 0,0 0,0 0,0 0.01,0.02 0.02,0.02 0.03,0.03l0 -0.03z"/>
     <path class="fil10 str2" d="M0.78 0.99c0,0 0.02,0 0.02,0 0,0.01 -0.01,0.02 -0.03,0.03l0.01 -0.03z"/>
     <path class="fil8" d="M0.71 1.03c-0.01,0 -0.02,0 -0.02,-0.01 0.01,0 0,0 0.01,0 0.01,0 0.01,0 0.01,0 0.01,0 0.01,0 0.01,0 0.01,0.01 0,0 0.02,0 0,0 0,0 0.01,0 0.01,0 0,0 0.01,0 0,0.01 -0.01,0.01 -0.02,0.01 -0.01,0 -0.02,0 -0.03,0z"/>
     <path class="fil4 str10" d="M0.68 1.02c0.01,0 0.01,0 0.02,0 0,0 0,0 0.01,0 0,0 0.01,0 0.01,0 0.01,0 0.02,0 0.02,0 0,0 0.01,0 0.01,0 0.01,0 0.01,0 0.01,0"/>
     <line class="fil4 str6" x1="0.7" y1="1.02" x2="0.7" y2= "1.03" />
     <line class="fil4 str6" x1="0.71" y1="1.02" x2="0.71" y2= "1.03" />
     <line class="fil4 str6" x1="0.72" y1="1.02" x2="0.72" y2= "1.03" />
     <line class="fil4 str6" x1="0.74" y1="1.02" x2="0.74" y2= "1.03" />
     <line class="fil4 str6" x1="0.75" y1="1.02" x2="0.75" y2= "1.03" />
     <path class="fil9 str11" d="M0.72 0.97c-0.01,0 -0.01,0 -0.02,0 -0.01,0.01 -0.03,0.01 -0.04,0.02 -0.01,0 -0.02,0 -0.01,0 0.01,0 0.02,0 0.03,0 0.03,0.01 0.06,0.01 0.1,0 0,0 0.01,0 0.02,0 0,0 0,0 0,0 -0.03,-0.01 -0.05,-0.01 -0.06,-0.01 0,0 0,-0.01 -0.01,-0.01 0,0.01 -0.01,0.01 -0.01,0z"/>
     <path class="fil11 str12" d="M0.59 1.11c0.07,0.19 0.21,0.2 0.27,0 -0.01,-0.02 -0.01,-0.04 -0.01,-0.06 -0.08,0.17 -0.14,0.2 -0.26,0l0 0.06z"/>
     <circle class="fil12 str13" cx="0.9" cy="1.43" r="0.08"/>
     <line class="fil4 str14" x1="0.83" y1="1.17" x2="1.16" y2= "1.32" />
     <line class="fil4 str14" x1="0.62" y1="1.17" x2="0.29" y2= "1.32" />
     <line class="fil4 str15" x1="0.88" y1="1.35" x2="0.83" y2= "1.41" />
     <line class="fil4 str16" x1="0.91" y1="1.35" x2="0.83" y2= "1.44" />
     <line class="fil4 str15" x1="0.94" y1="1.36" x2="0.84" y2= "1.47" />
     <line class="fil4 str16" x1="0.96" y1="1.38" x2="0.86" y2= "1.5" />
     <line class="fil4 str15" x1="0.97" y1="1.42" x2="0.89" y2= "1.51" />
     <line class="fil4 str16" x1="0.97" y1="1.45" x2="0.92" y2= "1.51" />
     <line class="fil4 str17" x1="0.28" y1="1.58" x2="1.18" y2= "1.58" />
    </g>
    <g>
     <path class="fil1 str1" d="M1.71 2.16l-0.88 0c-0.02,0 -0.03,-0.02 -0.03,-0.06 0.01,-0.09 0.01,-0.16 0.02,-0.25 0,-0.03 -0.01,-0.07 0.03,-0.09 0.12,-0.04 0.29,-0.08 0.29,-0.14l0.01 -0.06c0.08,0.24 0.18,0.21 0.23,-0.01 0,0.04 0.01,0.09 0.05,0.11l0.27 0.13c0.01,0 0.02,0.02 0.02,0.04 0.01,0.1 0.02,0.19 0.03,0.28 0,0.03 -0.02,0.05 -0.04,0.05z"/>
     <path class="fil2 str2" d="M1.14 1.63c0.03,0.06 0.07,0.09 0.13,0.11 0.06,-0.01 0.11,-0.09 0.11,-0.11l0 -0.08c-0.02,0.03 -0.05,0.06 -0.08,0.09 -0.01,0.01 -0.05,0.01 -0.07,0l-0.09 -0.08 0 0.07z"/>
     <path class="fil2 str2" d="M1.49 1.26c-0.01,0 -0.01,0.01 -0.02,0.01l0.01 -0.02 -0.06 -0.04 0 -0.1 -0.09 0 -0.07 0.02 -0.07 -0.03 -0.09 0.01 0 0.08 -0.04 0.06c-0.01,-0.01 -0.01,-0.02 -0.02,-0.03 0,0 -0.01,0 -0.02,0 0,0 0,0.01 -0.01,0.02 0,0.01 0,0.03 0,0.04l0.01 0.05c0,0.01 0.01,0.01 0.02,0.01 0,0 0.01,0 0.01,-0.01 0.01,0.04 0.01,0.07 0.02,0.11 0.02,0.04 0.04,0.08 0.07,0.12 0.03,0.02 0.05,0.05 0.08,0.08 0.03,0.02 0.06,0.02 0.08,0 0.04,-0.04 0.08,-0.08 0.11,-0.12 0.02,-0.02 0.03,-0.05 0.04,-0.07 0.01,-0.03 0.01,-0.06 0.02,-0.09 0,0 0,0.01 0.01,0.01 0,0 0.01,-0.01 0.02,-0.01 0.01,-0.03 0.02,-0.05 0.02,-0.08 0,-0.01 0,-0.01 -0.01,-0.02 -0.01,0 -0.02,-0.01 -0.02,0z"/>
     <path class="fil3" d="M1.36 1.29c-0.01,0 -0.02,0.01 -0.02,0.03 0,0.01 0.01,0.02 0.03,0.01 0.02,0 0.02,-0.05 -0.01,-0.04z"/>
     <path class="fil3" d="M1.17 1.29c-0.03,0.01 -0.02,0.05 0,0.04 0.01,0 0.02,-0.01 0.02,-0.02 0,-0.02 -0.01,-0.02 -0.02,-0.02z"/>
     <line class="fil4 str3" x1="1.12" y1="1.23" x2="1.23" y2= "1.24" />
     <path class="fil5 str4" d="M1.1 1.19l-0.05 0.06c0,-0.01 0,-0.02 -0.01,-0.04 0,-0.04 -0.01,-0.1 0,-0.16 0.01,-0.08 0.06,-0.11 0.1,-0.12 0.09,-0.01 0.17,-0.01 0.24,0 0.05,0.02 0.09,0.07 0.1,0.12 0.02,0.08 0.01,0.12 0,0.2 -0.02,-0.01 -0.05,-0.03 -0.07,-0.05 0,-0.03 0,-0.06 0,-0.09 -0.03,0 -0.05,0 -0.08,0 -0.03,0.03 -0.09,0.03 -0.14,0 -0.03,0 -0.05,0 -0.09,0 0.01,0.02 0.01,0.05 0,0.08z"/>
     <line class="fil4 str3" x1="1.4" y1="1.23" x2="1.29" y2= "1.24" />
     <path class="fil6" d="M1.35 1.29c0,-0.01 0.02,-0.02 0.04,-0.02 0.02,0 0.03,0.01 0.03,0.02 0,0 0.01,0 0,0.01l-0.01 0.01c-0.01,-0.02 -0.03,-0.02 -0.06,-0.02z"/>
     <path class="fil6" d="M1.19 1.29c0,-0.01 -0.02,-0.02 -0.04,-0.02 -0.02,0 -0.03,0.01 -0.03,0.02 0,0 -0.01,0 0,0.01l0.01 0.01c0.01,-0.02 0.03,-0.02 0.06,-0.02z"/>
     <path class="fil4 str5" d="M1.31 1.26l-0.02 0.02 0 0.03 -0.01 0.05 0.01 0.03 0.02 0.03c0,0.01 0,0.01 0,0.01l-0.04 0.03c0,0 -0.01,0 -0.01,0l-0.04 -0.03 0 -0.01 0.01 -0.03 0 -0.03 0 -0.05 -0.01 -0.03 -0.03 -0.02"/>
     <path class="fil7" d="M1.33 1.5l-0.13 -0.01c0,0 0,0.01 0,0.01l0.03 0.02c0.01,0.01 0.02,0.02 0.03,0.02 0.02,0 0.03,-0.01 0.04,-0.01l0.03 -0.03c0,0 0,0 0,0z"/>
     <path class="fil8 str6" d="M1.22 1.49l0 0.01c0,0 0,0.01 0.01,0.01 0,0 0,0 0.01,0 0,0 0,0 0.01,0 0,0 0.01,0 0.01,0 0.01,0 0.01,0 0.02,0 0,0 0.01,0 0.01,0 0.01,0 0.01,0 0.01,0l0.01 0c0,0 0,-0.01 0,-0.01l0.01 -0.01c-0.04,0 -0.07,0 -0.1,0z"/>
     <line class="fil4 str7" x1="1.28" y1="1.49" x2="1.28" y2= "1.51" />
     <line class="fil4 str7" x1="1.29" y1="1.49" x2="1.29" y2= "1.51" />
     <line class="fil4 str7" x1="1.3" y1="1.49" x2="1.3" y2= "1.51" />
     <line class="fil4 str7" x1="1.23" y1="1.49" x2="1.23" y2= "1.51" />
     <line class="fil4 str7" x1="1.24" y1="1.49" x2="1.24" y2= "1.51" />
     <line class="fil4 str7" x1="1.25" y1="1.49" x2="1.25" y2= "1.51" />
     <line class="fil4 str7" x1="1.26" y1="1.49" x2="1.26" y2= "1.51" />
     <path class="fil4 str8" d="M1.23 1.54l-0.04 -0.04c-0.01,-0.01 0,-0.02 0.01,-0.01 0.05,0 0.08,0 0.13,0 0.01,0 0.02,0 0.01,0.01l-0.04 0.04c-0.02,0.02 -0.05,0.02 -0.07,0z"/>
     <polyline class="fil4 str2" points="1.21,1.59 1.23,1.58 1.26,1.57 1.29,1.58 1.33,1.59 "/>
     <path class="fil4 str9" d="M1.04 1.31c-0.01,-0.01 -0.02,-0.03 -0.02,-0.06 0.01,-0.03 0.02,-0.01 0.02,-0.01 0.01,0.02 0.01,0.03 0,0.05"/>
     <path class="fil4 str9" d="M1.48 1.28c0,-0.01 0.01,-0.02 0.01,-0.02 0.02,0 0.02,0.01 0.02,0.02 0,0.03 -0.01,0.05 -0.02,0.05"/>
     <path class="fil4 str8" d="M1.32 1.32c0,0 0.01,0 0.01,0.01 0.02,0.01 0.03,0.02 0.07,-0.01 0.01,-0.01 0.02,0 0.03,-0.01"/>
     <path class="fil4 str8" d="M1.21 1.32c0,0 -0.01,0 -0.01,0.01 -0.02,0.01 -0.03,0.02 -0.06,-0.01 -0.02,-0.01 -0.02,0 -0.03,-0.01"/>
     <path class="fil4 str8" d="M1.11 1.31c0.01,0 0.01,0 0.02,0 0.03,-0.03 0.05,-0.03 0.07,-0.01 0,0 0.01,0.01 0.01,0.01"/>
     <path class="fil4 str8" d="M1.43 1.31c-0.01,0 -0.01,0 -0.02,0 -0.03,-0.03 -0.06,-0.03 -0.08,-0.01 0,0 -0.01,0.01 -0.01,0.01"/>
     <path class="fil9 str2" d="M1.33 1.5c-0.05,0.05 -0.1,0.04 -0.14,-0.01 0.04,0.07 0.1,0.08 0.14,0.01z"/>
     <path class="fil10 str2" d="M1.22 1.49c0,0 -0.03,0 -0.03,0 0,0 0,0 0,0 0.01,0.02 0.02,0.02 0.03,0.03l0 -0.03z"/>
     <path class="fil10 str2" d="M1.32 1.49c0,0 0.02,0 0.02,0 0,0.01 -0.01,0.02 -0.03,0.03l0.01 -0.03z"/>
     <path class="fil8" d="M1.25 1.53c-0.01,0 -0.02,0 -0.02,-0.01 0.01,0 0,0 0.01,0 0.01,0 0.01,0 0.01,0 0.01,0 0.01,0 0.01,0 0.01,0.01 0,0 0.02,0 0,0 0,0 0.01,0 0.01,0 0,0 0.01,0 0,0.01 -0.01,0.01 -0.02,0.01 -0.01,0 -0.02,0 -0.03,0z"/>
     <path class="fil4 str10" d="M1.22 1.52c0.01,0 0.01,0 0.02,0 0,0 0,0 0.01,0 0,0 0.01,0 0.01,0 0.01,0 0.02,0 0.02,0 0,0 0.01,0 0.01,0 0.01,0 0.01,0 0.01,0"/>
     <line class="fil4 str6" x1="1.24" y1="1.52" x2="1.24" y2= "1.53" />
     <line class="fil4 str6" x1="1.25" y1="1.52" x2="1.25" y2= "1.53" />
     <line class="fil4 str6" x1="1.26" y1="1.52" x2="1.26" y2= "1.53" />
     <line class="fil4 str6" x1="1.28" y1="1.52" x2="1.28" y2= "1.53" />
     <line class="fil4 str6" x1="1.29" y1="1.52" x2="1.29" y2= "1.53" />
     <path class="fil9 str11" d="M1.26 1.47c-0.01,0 -0.01,0 -0.02,0 -0.01,0.01 -0.03,0.01 -0.04,0.02 -0.01,0 -0.02,0 -0.01,0 0.01,0 0.02,0 0.03,0 0.03,0.01 0.06,0.01 0.1,0 0,0 0.01,0 0.02,0 0,0 0,0 0,0 -0.03,-0.01 -0.05,-0.01 -0.06,-0.01 0,0 0,-0.01 -0.01,-0.01 0,0.01 -0.01,0.01 -0.01,0z"/>
     <path class="fil11 str12" d="M1.13 1.61c0.07,0.19 0.21,0.2 0.27,0 -0.01,-0.02 -0.01,-0.04 -0.01,-0.06 -0.08,0.17 -0.14,0.2 -0.26,0l0 0.06z"/>
     <circle class="fil12 str13" cx="1.44" cy="1.93" r="0.08"/>
     <line class="fil4 str14" x1="1.37" y1="1.67" x2="1.7" y2= "1.82" />
     <line class="fil4 str14" x1="1.16" y1="1.67" x2="0.83" y2= "1.82" />
     <line class="fil4 str15" x1="1.42" y1="1.85" x2="1.37" y2= "1.91" />
     <line class="fil4 str16" x1="1.45" y1="1.85" x2="1.37" y2= "1.94" />
     <line class="fil4 str15" x1="1.48" y1="1.86" x2="1.38" y2= "1.97" />
     <line class="fil4 str16" x1="1.5" y1="1.88" x2="1.4" y2= "2" />
     <line class="fil4 str15" x1="1.51" y1="1.92" x2="1.43" y2= "2.01" />
     <line class="fil4 str16" x1="1.51" y1="1.95" x2="1.46" y2= "2.01" />
     <line class="fil4 str17" x1="0.82" y1="2.08" x2="1.72" y2= "2.08" />
    </g>
   </g>
  </g>
 </g>
</svg>
