<?xml version="1.0" encoding="UTF-8"?>
<!DOCTYPE svg PUBLIC "-//W3C//DTD SVG 1.1//EN" "http://www.w3.org/Graphics/SVG/1.1/DTD/svg11.dtd">
<!-- Creator: CorelDRAW 2021 (64 Bit) -->
<svg xmlns="http://www.w3.org/2000/svg" xml:space="preserve" width="400px" height="400px" version="1.1" style="shape-rendering:geometricPrecision; text-rendering:geometricPrecision; image-rendering:optimizeQuality; fill-rule:evenodd; clip-rule:evenodd"
viewBox="0 0 4 4"
 xmlns:xlink="http://www.w3.org/1999/xlink"
 xmlns:xodm="http://www.corel.com/coreldraw/odm/2003">
 <defs>
  <style type="text/css">
   <![CDATA[
    .str0 {stroke:#B8B4B6;stroke-width:0.3;stroke-miterlimit:22.9256}
    .str3 {stroke:black;stroke-width:0.02;stroke-miterlimit:22.9256}
    .str1 {stroke:black;stroke-width:0.01;stroke-miterlimit:22.9256}
    .str2 {stroke:#FF99CC;stroke-width:0.01;stroke-miterlimit:22.9256}
    .fil1 {fill:black}
    .fil3 {fill:#E6E6E6}
    .fil2 {fill:#FF99CC}
    .fil4 {fill:#FFFF99}
    .fil0 {fill:white}
    .fil5 {fill:black;fill-rule:nonzero}
   ]]>
  </style>
 </defs>
 <g id="Camada_x0020_1">
  <metadata id="CorelCorpID_0Corel-Layer"/>
  <g id="_2069646969360">
   <path class="fil0 str0" d="M0.32 0.15l3.37 0c0.09,0 0.16,0.08 0.16,0.19l0 3.33c0,0.1 -0.07,0.18 -0.16,0.18l-3.37 0c-0.09,0 -0.17,-0.08 -0.17,-0.18 0,-0.4 0,-3.23 0,-3.37 0,-0.08 0.1,-0.15 0.17,-0.15z"/>
   <g>
    <g>
     <path class="fil1 str1" d="M2.26 1.01c0.01,0.01 0.04,0.01 0.06,0.02 0.01,0.01 0,0.04 -0.01,0.05 0,0.03 0,0.05 -0.01,0.06 -0.02,0.02 -0.04,0.02 -0.07,0.02 -0.02,0.03 -0.01,0.04 -0.04,0.08 -0.02,0.02 -0.05,0.05 -0.07,0.06 -0.05,0.03 -0.1,0.06 -0.19,0.06 -0.04,0 -0.08,0 -0.12,-0.01 -0.04,-0.01 -0.06,-0.03 -0.08,-0.05 -0.02,-0.01 -0.05,-0.04 -0.06,-0.06 -0.02,-0.03 -0.04,-0.05 -0.05,-0.08 -0.02,0 -0.04,0 -0.05,-0.01 -0.02,-0.01 -0.02,-0.02 -0.03,-0.04 0,-0.02 -0.03,-0.06 -0.01,-0.09l0.06 -0.01c0,-0.02 -0.01,-0.04 -0.01,-0.06 0,-0.02 0,-0.05 0.01,-0.06 0,-0.03 0.02,-0.03 0.04,-0.04 0.02,-0.01 0.04,-0.02 0.06,0 0.06,0.03 0.13,0.09 0.23,0.08 0.08,0 0.15,-0.03 0.21,-0.07 0.03,-0.02 0.04,-0.03 0.08,-0.01 0.01,0.01 0.03,0.03 0.04,0.04 0.03,0.03 0.02,0.08 0.01,0.12zm-0.5 -0.47c-0.07,0.03 -0.13,0.08 -0.17,0.13 -0.03,0.04 -0.05,0.07 -0.06,0.13 -0.01,0.03 -0.01,0.06 -0.01,0.09 0,0.03 0.01,0.06 0.01,0.09 -0.03,0 -0.04,0.01 -0.05,0.03 0,0.03 0,0.05 0,0.07 0.04,0.15 0.09,0.09 0.12,0.14 0.02,0.03 0.01,0.03 0.03,0.05l0.05 0.05c0.01,0.01 0.02,0.02 0.05,0.03 0,0.02 0,0.09 0,0.11 -0.01,0.01 -0.01,0.01 -0.03,0.01 -0.06,0.01 -0.19,0.03 -0.27,0.04 -0.04,0.01 -0.08,0.02 -0.12,0.03 -0.02,0.01 -0.04,0.02 -0.05,0.03 -0.05,0.03 -0.09,0.08 -0.1,0.13 -0.01,0.03 0,0.1 0,0.14 0,0.04 -0.01,0.09 0,0.14 0.03,0 0.04,0 0.04,-0.01l0 -0.18c0,-0.06 0,-0.13 0.07,-0.17 0.02,-0.02 0.04,-0.03 0.08,-0.04 0.07,-0.02 0.14,-0.03 0.21,-0.04 0.04,-0.01 0.08,-0.02 0.12,-0.02 0,0.04 0,0.05 0.02,0.08 0.03,0.05 0.08,0.08 0.13,0.1 0.03,0.01 0.07,0.02 0.1,0.02 0.11,-0.01 0.25,-0.09 0.26,-0.2l0.27 0.04c0.1,0.02 0.19,0.08 0.19,0.17 0.01,0.08 0.01,0.16 0.01,0.25l0.05 0 0 -0.25c-0.02,-0.11 -0.08,-0.18 -0.26,-0.21 -0.09,-0.02 -0.18,-0.03 -0.28,-0.04 -0.03,-0.01 -0.04,-0.01 -0.04,-0.04 0.01,-0.03 0.01,-0.07 0.01,-0.1 0.01,-0.01 0.03,-0.02 0.05,-0.04 0.02,-0.01 0.06,-0.06 0.07,-0.1 0.08,0 0.08,-0.05 0.1,-0.1 0,-0.01 0.01,-0.02 0.01,-0.03 0,-0.02 0,-0.03 0,-0.04 -0.01,-0.03 -0.03,-0.04 -0.06,-0.05 0,-0.09 0.02,-0.13 -0.01,-0.22 -0.03,-0.06 -0.04,-0.09 -0.09,-0.13 -0.02,-0.02 -0.02,-0.02 -0.03,-0.03 -0.02,-0.01 -0.05,-0.03 -0.06,-0.04 -0.08,-0.03 -0.14,-0.04 -0.22,-0.04 -0.03,0 -0.09,0 -0.14,0.02zm-0.12 0.15c0.04,-0.04 0.08,-0.08 0.16,-0.11 0.03,-0.01 0.04,-0.02 0.08,-0.02 0.06,0 0.12,0 0.17,0.02 0.04,0.02 0.07,0.03 0.09,0.05 0.04,0.03 0.05,0.04 0.08,0.08 0.01,0.02 0.05,0.09 0.05,0.13 -0.02,-0.01 -0.05,-0.03 -0.08,-0.04 -0.02,-0.01 -0.03,-0.01 -0.05,0 -0.01,0.01 -0.02,0.02 -0.03,0.02 -0.12,0.08 -0.23,0.1 -0.36,0.01 -0.01,-0.01 -0.02,-0.01 -0.04,-0.02 -0.01,-0.01 -0.02,-0.02 -0.04,-0.02 -0.06,0.01 -0.07,0.03 -0.1,0.03 0.01,-0.05 0.05,-0.11 0.07,-0.13zm0.28 0.98c0.01,0 0.02,0 0.03,0 0.01,0 0.02,0 0.03,0 0.09,-0.01 0.16,-0.08 0.16,-0.16 -0.04,-0.01 -0.05,-0.03 -0.05,-0.06l0 -0.08 0 0c0,0 -0.01,0 -0.01,0 -0.05,0.02 -0.1,0.03 -0.15,0.04 -0.05,0 -0.09,-0.01 -0.13,-0.02 -0.01,0 -0.02,-0.01 -0.03,-0.01 0,0.03 0,0.06 0,0.09 0,0.03 -0.02,0.04 -0.05,0.04 0,0.09 0.09,0.15 0.16,0.16 0.02,0 0.03,0 0.04,0z"/>
     <path class="fil2 str2" d="M1.2 1.75l0 0.23 0.22 0 0 -0.17 0.04 -0.01 0 0.18 0.96 -0.01 0 -0.16 0.05 0 0 0.16 0.19 0.01 -0.01 -0.26c-0.01,-0.08 -0.07,-0.13 -0.17,-0.15l-0.3 -0.05c-0.02,0.12 -0.1,0.18 -0.25,0.2 -0.14,-0.01 -0.23,-0.07 -0.26,-0.2l-0.29 0.05c-0.12,0.02 -0.17,0.08 -0.18,0.18z"/>
     <path class="fil1" d="M1.93 1.23c-0.04,0 -0.09,-0.01 -0.11,-0.05 -0.01,0.01 -0.03,0.02 -0.04,0.03 0.01,0.02 0.04,0.04 0.06,0.04 0.06,0.03 0.12,0.02 0.17,0 0.02,-0.01 0.06,-0.03 0.06,-0.05 -0.01,0 -0.02,-0.01 -0.03,-0.02 0,0 -0.02,0.01 -0.02,0.01 -0.01,0.01 -0.02,0.01 -0.03,0.02 -0.01,0.01 -0.03,0.02 -0.06,0.02z"/>
     <path class="fil1" d="M2.04 0.97c-0.03,0 -0.05,0.02 -0.04,0.05 0,0.02 0.03,0.04 0.06,0.04 0.06,-0.01 0.05,-0.1 -0.02,-0.09z"/>
     <path class="fil1" d="M1.77 0.97c-0.07,0.01 -0.05,0.1 0.02,0.09 0.02,-0.01 0.04,-0.03 0.04,-0.06 -0.01,-0.02 -0.03,-0.04 -0.06,-0.03z"/>
     <polygon class="fil1" points="1.42,1.98 1.46,1.98 1.46,1.81 1.42,1.81 "/>
     <polygon class="fil1" points="2.42,1.98 2.46,1.98 2.47,1.98 2.47,1.81 2.46,1.81 2.42,1.81 "/>
    </g>
    <g>
     <polygon class="fil3 str3" points="3.09,2.08 2.66,2.08 2.77,1.98 3,1.98 "/>
     <rect class="fil4 str3" x="0.89" y="2.08" width="2.21" height="1.26"/>
     <polygon class="fil5" points="1.59,3.16 1.59,2.26 2.41,2.26 2.41,2.41 1.83,2.41 1.83,2.63 2.33,2.63 2.33,2.78 1.83,2.78 1.83,3.16 "/>
    </g>
   </g>
  </g>
 </g>
</svg>
