<?xml version="1.0" encoding="UTF-8"?>
<!DOCTYPE svg PUBLIC "-//W3C//DTD SVG 1.1//EN" "http://www.w3.org/Graphics/SVG/1.1/DTD/svg11.dtd">
<!-- Creator: CorelDRAW 2021 (64 Bit) -->
<svg xmlns="http://www.w3.org/2000/svg" xml:space="preserve" width="330px" height="330px" version="1.1" style="shape-rendering:geometricPrecision; text-rendering:geometricPrecision; image-rendering:optimizeQuality; fill-rule:evenodd; clip-rule:evenodd"
viewBox="0 0 26.69 26.69"
 xmlns:xlink="http://www.w3.org/1999/xlink"
 xmlns:xodm="http://www.corel.com/coreldraw/odm/2003">
 <defs>
  <style type="text/css">
   <![CDATA[
    .str0 {stroke:#B8B4B6;stroke-width:2.43;stroke-miterlimit:22.9256}
    .str1 {stroke:black;stroke-width:0.24;stroke-miterlimit:22.9256}
    .fil2 {fill:black}
    .fil1 {fill:#FA0505}
    .fil0 {fill:white}
   ]]>
  </style>
 </defs>
 <g id="Camada_x0020_1">
  <metadata id="CorelCorpID_0Corel-Layer"/>
  <g id="_2713634555056">
   <path class="fil0 str0" d="M2.3 1.21l22.11 0c0.59,0 1.07,0.55 1.07,1.22l0 21.83c0,0.67 -0.48,1.22 -1.07,1.22l-22.11 0c-0.58,0 -1.06,-0.55 -1.06,-1.22 0,-2.62 -0.04,-21.14 -0.02,-22.1 0.01,-0.52 0.64,-0.95 1.08,-0.95z"/>
   <g>
    <path class="fil1 str1" d="M5.98 13.2c0.02,-0.02 0.04,-0.04 0.06,-0.06l0.49 -0.56c0.22,-0.28 0.8,-0.87 0.99,-1.13l0.49 -0.56c0.06,-0.06 0.08,-0.09 0.12,-0.14l0.87 -0.98c0.04,-0.06 0.07,-0.09 0.12,-0.14 0.06,-0.06 0.08,-0.09 0.12,-0.14l3.21 -3.65c0.05,-0.06 0.07,-0.08 0.12,-0.14l1.11 -1.26 1.61 1.65c0.07,0.07 0.14,0.15 0.22,0.23l0.23 0.23c0.26,0.28 0.48,0.62 0.84,0.51 0.26,-0.08 0.33,-0.27 0.33,-0.59 0,-0.29 -0.02,-0.64 0,-0.91l1.26 0c0.03,0.44 0.01,0.98 0.01,1.44 0,0.47 0,0.95 0,1.42 0,0.24 -0.01,0.49 0,0.73 0,0.23 0.13,0.35 0.24,0.47 0.21,0.26 0.42,0.54 0.63,0.8l1.92 2.37c0.14,0.17 0.55,0.67 0.63,0.79 -0.43,0.01 -0.87,0 -1.3,0 -0.44,0 -0.84,-0.06 -0.95,0.35 -0.04,0.18 -0.01,1.04 -0.01,1.29l0 6.46 -11.2 0 -0.11 -6.53c-0.01,-0.41 0.01,-0.9 -0.02,-1.3 -0.02,-0.18 -0.14,-0.33 -0.28,-0.39 -0.23,-0.1 -1.67,0.01 -1.93,-0.05l0.18 -0.21 0 0zm1.11 1.16c0.02,0.59 0.02,1.21 0.03,1.8l0.09 5.46c0.01,0.26 -0.04,0.62 0.1,0.81 0.18,0.23 0.39,0.19 0.75,0.19l11.06 0c0.81,0 1.15,0.12 1.15,-0.7 0,-2.47 0,-4.94 0,-7.41 0.42,0 0.85,0 1.27,0 0.25,0 1.07,0.04 1.24,-0.04 0.13,-0.06 0.24,-0.18 0.26,-0.37 0.03,-0.25 -0.15,-0.41 -0.33,-0.63 -0.04,-0.05 -0.1,-0.11 -0.14,-0.18l-3.37 -4.18c-0.02,-0.02 -0.07,-0.08 -0.08,-0.1 -0.04,-0.07 -0.01,-3.33 -0.01,-3.84 0,-0.58 -0.42,-0.54 -0.75,-0.54 -0.57,0 -1.42,-0.03 -1.93,0 -0.19,0 -0.33,0.12 -0.39,0.24 -0.1,0.17 -0.05,0.39 -0.06,0.59l-1.49 -1.53c-0.07,-0.08 -0.15,-0.14 -0.22,-0.22 -0.21,-0.23 -0.46,-0.57 -0.82,-0.38 -0.12,0.07 -0.33,0.33 -0.43,0.45 -0.03,0.04 -0.06,0.06 -0.1,0.11l-1.72 1.96c-0.14,0.14 -0.56,0.66 -0.71,0.81 -0.03,0.03 -0.06,0.07 -0.1,0.11l-0.51 0.58c-0.03,0.05 -0.06,0.07 -0.1,0.12l-0.7 0.8c-0.15,0.15 -0.57,0.67 -0.71,0.81 -0.07,0.07 -0.13,0.16 -0.2,0.23l-3.34 3.8c-0.03,0.04 -0.06,0.07 -0.1,0.11 -0.06,0.08 -0.14,0.15 -0.2,0.23 -0.07,0.08 -0.14,0.14 -0.19,0.25 -0.12,0.27 0.04,0.51 0.21,0.59 0.18,0.1 0.58,0.06 0.81,0.06 0.22,0 1.63,-0.01 1.73,0.01l0 0z"/>
    <g>
     <polygon class="fil2 str1" points="12.86,20.59 14.32,20.59 14.32,18.96 14.32,18.9 12.86,18.9 "/>
     <path class="fil2 str1" d="M10.25 12.01l1.31 0.18c0.05,-0.57 0.27,-1.24 0.53,-1.63 0.72,-1.07 2.18,-1.07 2.93,-0.24 0.4,0.45 0.63,0.88 0.64,1.54 0.01,0.61 -0.23,1.11 -0.62,1.54 -0.09,0.09 -0.16,0.2 -0.25,0.29 -0.11,0.1 -0.18,0.18 -0.27,0.28 -0.1,0.1 -0.16,0.17 -0.27,0.27 -0.09,0.09 -0.17,0.2 -0.26,0.29 -0.05,0.05 -0.07,0.09 -0.11,0.14l-0.13 0.15c-0.73,0.94 -0.81,1.8 -0.79,3.01l1.23 0.01c0.02,-1.07 0.09,-1.75 0.72,-2.41 0.07,-0.08 0.1,-0.13 0.17,-0.19l1 -1.09c0.39,-0.5 0.78,-1.06 0.87,-1.92 0.1,-0.84 -0.11,-1.69 -0.5,-2.26 -0.36,-0.54 -0.8,-0.97 -1.53,-1.25 -0.72,-0.27 -1.68,-0.27 -2.42,-0.05 -0.53,0.16 -1.13,0.58 -1.43,1.01 -0.02,0.03 -0.05,0.06 -0.07,0.09 -0.03,0.04 -0.05,0.08 -0.08,0.11 -0.18,0.29 -0.32,0.6 -0.44,0.96 -0.07,0.23 -0.24,0.92 -0.23,1.17l0 0z"/>
    </g>
   </g>
  </g>
 </g>
</svg>
