<?xml version="1.0" encoding="UTF-8"?>
<!DOCTYPE svg PUBLIC "-//W3C//DTD SVG 1.1//EN" "http://www.w3.org/Graphics/SVG/1.1/DTD/svg11.dtd">
<!-- Creator: CorelDRAW 2021 (64 Bit) -->
<svg xmlns="http://www.w3.org/2000/svg" xml:space="preserve" width="400px" height="400px" version="1.1" style="shape-rendering:geometricPrecision; text-rendering:geometricPrecision; image-rendering:optimizeQuality; fill-rule:evenodd; clip-rule:evenodd"
viewBox="0 0 2.26 2.26"
 xmlns:xlink="http://www.w3.org/1999/xlink"
 xmlns:xodm="http://www.corel.com/coreldraw/odm/2003">
 <defs>
  <style type="text/css">
   <![CDATA[
    .str0 {stroke:#C4C4C4;stroke-width:0.17;stroke-miterlimit:22.9256}
    .str8 {stroke:black;stroke-width:0.01;stroke-miterlimit:22.9256}
    .str9 {stroke:#6B4646;stroke-width:0.01;stroke-miterlimit:22.9256}
    .str3 {stroke:blue;stroke-width:0.05;stroke-miterlimit:22.9256}
    .str1 {stroke:#006633;stroke-width:0.05;stroke-miterlimit:22.9256}
    .str2 {stroke:red;stroke-width:0.05;stroke-miterlimit:22.9256}
    .str11 {stroke:#6B4646;stroke-width:0.03;stroke-miterlimit:22.9256}
    .str5 {stroke:#00AFEF;stroke-width:0.01;stroke-miterlimit:22.9256}
    .str7 {stroke:black;stroke-width:0.01;stroke-miterlimit:22.9256}
    .str10 {stroke:#6B4646;stroke-width:0.01;stroke-miterlimit:22.9256}
    .str4 {stroke:#FAAC04;stroke-width:0.01;stroke-miterlimit:22.9256}
    .str6 {stroke:yellow;stroke-width:0.01;stroke-miterlimit:22.9256}
    .fil13 {fill:none}
    .fil12 {fill:#D7CC75}
    .fil9 {fill:#FAA954}
    .fil10 {fill:#00AFEF}
    .fil15 {fill:#00A859}
    .fil1 {fill:#33CC66}
    .fil7 {fill:#6699FF}
    .fil5 {fill:#999999}
    .fil8 {fill:#CC9933}
    .fil14 {fill:#CCCC33}
    .fil4 {fill:#CCCCCC}
    .fil2 {fill:#E6E6E6}
    .fil6 {fill:#FF6600}
    .fil11 {fill:yellow}
    .fil0 {fill:white}
    .fil3 {fill:black;fill-rule:nonzero}
   ]]>
  </style>
 </defs>
 <g id="Camada_x0020_1">
  <metadata id="CorelCorpID_0Corel-Layer"/>
  <g id="_2069505479856">
   <circle class="fil0 str0" cx="1.13" cy="1.13" r="1.04"/>
   <g>
    <g>
     <path class="fil1 str1" d="M1.31 1.43l0 -0.01 0.32 -0.32 0.09 0.09c0,-0.01 0,-0.03 0,-0.04 0,-0.01 0,-0.01 0.01,-0.01 0.02,0 0.04,0 0.07,0 0.01,0 0.01,0 0.01,0.01l0 0.13 0.14 0.15 -0.09 0c-0.01,0 -0.01,0 -0.01,0.01l0 0.25 -0.44 0c0,-0.08 0,-0.17 0,-0.25 0,-0.01 0,-0.01 -0.02,-0.01 -0.02,0 -0.06,0 -0.08,0z"/>
     <g>
      <g>
       <polygon class="fil2" points="1.81,1.48 1.68,1.48 1.68,1.68 1.81,1.68 "/>
       <path id="_1" class="fil3" d="M1.68 1.47l0.13 0 0 0.01 -0.13 0 0 0 0 -0.01zm0 0.01l0 -0.01 0 0 0 0.01zm0 0.2l0 -0.2 0.01 0 0 0.2 -0.01 0.01 0 -0.01zm0 0.01l0 0 0 -0.01 0 0.01zm0.13 0l-0.13 0 0 -0.01 0.13 0 0 0 0 0.01zm0 -0.01l0 0.01 0 0 0 -0.01zm0 -0.2l0 0.2 -0.01 0 0 -0.2 0.01 -0.01 0 0.01zm0 -0.01l0 0 0 0.01 0 -0.01z"/>
      </g>
      <g>
       <polygon class="fil4" points="1.58,1.47 1.46,1.47 1.46,1.57 1.58,1.57 "/>
       <path id="_1_0" class="fil3" d="M1.46 1.47l0.12 0 0 0.01 -0.12 0 -0.01 -0.01 0.01 0zm-0.01 0l0 0 0.01 0 -0.01 0zm0 0.1l0 -0.1 0.02 0 0 0.1 -0.01 0.01 -0.01 -0.01zm0.01 0.01l-0.01 0 0 -0.01 0.01 0.01zm0.12 0l-0.12 0 0 -0.01 0.12 0 0.01 0 -0.01 0.01zm0.01 -0.01l0 0.01 -0.01 0 0.01 -0.01zm0 -0.1l0 0.1 -0.01 0 0 -0.1 0 0 0.01 0zm-0.01 0l0.01 0 0 0 -0.01 0z"/>
      </g>
      <g>
       <polygon class="fil5" points="1.57,1.28 1.69,1.28 1.69,1.33 1.57,1.33 "/>
       <path id="_1_1" class="fil3" d="M1.69 1.29l-0.12 0 0 -0.01 0.12 0 0.01 0 -0.01 0.01zm0 -0.01l0.01 0 0 0 -0.01 0zm-0.01 0.05l0 -0.05 0.02 0 0 0.05 -0.01 0 -0.01 0zm0.02 0l0 0 -0.01 0 0.01 0zm-0.13 -0.01l0.12 0 0 0.01 -0.12 0 -0.01 0 0.01 -0.01zm0 0.01l-0.01 0 0 0 0.01 0zm0 -0.05l0 0.05 -0.01 0 0 -0.05 0.01 0 0 0zm-0.01 0l0 0 0.01 0 -0.01 0z"/>
      </g>
     </g>
    </g>
    <g>
     <path class="fil6 str2" d="M0.33 1.43l0 -0.01 0.32 -0.32 0.1 0.09c0,-0.01 0,-0.03 0,-0.04 0,-0.01 0,-0.01 0,-0.01 0.03,0 0.05,0 0.07,0 0.01,0 0.01,0 0.01,0.01l0 0.13 0.14 0.15 -0.08 0c-0.02,0 -0.02,0 -0.02,0.01l0 0.25 -0.43 0c-0.01,-0.08 -0.01,-0.17 -0.01,-0.25 0,-0.01 0,-0.01 -0.02,-0.01 -0.02,0 -0.05,0 -0.08,0z"/>
     <g id="_2069505497136">
      <g>
       <polygon class="fil2" points="0.49,1.48 0.61,1.48 0.61,1.68 0.49,1.68 "/>
       <path id="_1_2" class="fil3" d="M0.61 1.48l-0.12 0 0 -0.01 0.12 0 0 0.01 0 0zm0 -0.01l0 0 0 0.01 0 -0.01zm-0.01 0.21l0 -0.2 0.01 0 0 0.2 0 0.01 -0.01 -0.01zm0.01 0l0 0.01 0 0 0 -0.01zm-0.12 0l0.12 0 0 0.01 -0.12 0 -0.01 -0.01 0.01 0zm0 0.01l-0.01 0 0 -0.01 0.01 0.01zm0 -0.21l0 0.2 -0.01 0 0 -0.2 0.01 -0.01 0 0.01zm-0.01 0l0 -0.01 0.01 0 -0.01 0.01z"/>
      </g>
      <g>
       <polygon class="fil4" points="0.71,1.47 0.83,1.47 0.83,1.57 0.71,1.57 "/>
       <path id="_1_3" class="fil3" d="M0.83 1.48l-0.12 0 0 -0.01 0.12 0 0.01 0 -0.01 0.01zm0 -0.01l0.01 0 0 0 -0.01 0zm0 0.1l0 -0.1 0.01 0 0 0.1 -0.01 0.01 0 -0.01zm0.01 0l0 0.01 -0.01 0 0.01 -0.01zm-0.13 0l0.12 0 0 0.01 -0.12 0 -0.01 -0.01 0.01 0zm0 0.01l-0.01 0 0 -0.01 0.01 0.01zm0 -0.11l0 0.1 -0.01 0 0 -0.1 0.01 0 0 0zm-0.01 0l0 0 0.01 0 -0.01 0z"/>
      </g>
      <g>
       <polygon class="fil5" points="0.6,1.28 0.72,1.28 0.72,1.33 0.6,1.33 "/>
       <path id="_1_4" class="fil3" d="M0.72 1.29l-0.12 0 0 -0.01 0.12 0 0.01 0 -0.01 0.01zm0 -0.01l0.01 0 0 0 -0.01 0zm0 0.05l0 -0.05 0.01 0 0 0.05 -0.01 0 0 0zm0.01 0l0 0 -0.01 0 0.01 0zm-0.13 -0.01l0.12 0 0 0.01 -0.12 0 0 0 0 -0.01zm0 0.01l0 0 0 0 0 0zm0.01 -0.05l0 0.05 -0.01 0 0 -0.05 0 0 0.01 0zm-0.01 0l0 0 0 0 0 0z"/>
      </g>
     </g>
    </g>
    <g>
     <path class="fil7 str3" d="M0.81 1.64l0 -0.01 0.32 -0.31 0.09 0.08c0,-0.01 0,-0.03 0,-0.04 0,-0.01 0,-0.01 0.01,-0.01 0.02,0 0.04,0 0.07,0 0.01,0 0.01,0 0.01,0.01l0 0.13 0.14 0.15 -0.09 0c-0.01,0 -0.01,0 -0.01,0.01l0 0.25 -0.44 0c0,-0.08 0,-0.16 0,-0.25 0,-0.01 0,-0.01 -0.02,-0.01 -0.02,0 -0.06,0 -0.08,0z"/>
     <g>
      <g>
       <polygon class="fil2" points="0.96,1.69 1.08,1.69 1.08,1.89 0.96,1.89 "/>
       <path id="_1_5" class="fil3" d="M1.08 1.7l-0.12 0 0 -0.02 0.12 0 0.01 0.01 -0.01 0.01zm0 -0.02l0.01 0 0 0.01 -0.01 -0.01zm-0.01 0.21l0 -0.2 0.02 0 0 0.2 -0.01 0.01 -0.01 -0.01zm0.02 0l0 0.01 -0.01 0 0.01 -0.01zm-0.13 0l0.12 0 0 0.01 -0.12 0 -0.01 -0.01 0.01 0zm0 0.01l-0.01 0 0 -0.01 0.01 0.01zm0.01 -0.21l0 0.2 -0.02 0 0 -0.2 0.01 -0.01 0.01 0.01zm-0.02 0l0 -0.01 0.01 0 -0.01 0.01z"/>
      </g>
      <g>
       <polygon class="fil4" points="1.18,1.69 1.31,1.69 1.31,1.79 1.18,1.79 "/>
       <path id="_1_6" class="fil3" d="M1.31 1.69l-0.13 0 0 -0.01 0.13 0 0 0.01 0 0zm0 -0.01l0 0 0 0.01 0 -0.01zm-0.01 0.11l0 -0.1 0.01 0 0 0.1 0 0 -0.01 0zm0.01 0l0 0 0 0 0 0zm-0.13 -0.01l0.13 0 0 0.01 -0.13 0 0 0 0 -0.01zm0 0.01l0 0 0 0 0 0zm0.01 -0.1l0 0.1 -0.01 0 0 -0.1 0 -0.01 0.01 0.01zm-0.01 0l0 -0.01 0 0 0 0.01z"/>
      </g>
      <g>
       <polygon class="fil5" points="1.06,1.49 1.18,1.49 1.18,1.53 1.06,1.53 "/>
       <path id="_1_7" class="fil3" d="M1.18 1.49l-0.12 0 0 -0.01 0.12 0 0.01 0.01 -0.01 0zm0 -0.01l0.01 0 0 0.01 -0.01 -0.01zm0 0.05l0 -0.04 0.01 0 0 0.04 -0.01 0.01 0 -0.01zm0.01 0l0 0.01 -0.01 0 0.01 -0.01zm-0.13 0l0.12 0 0 0.01 -0.12 0 0 -0.01 0 0zm0 0.01l0 0 0 -0.01 0 0.01zm0.01 -0.05l0 0.04 -0.01 0 0 -0.04 0 -0.01 0.01 0.01zm-0.01 0l0 -0.01 0 0 0 0.01z"/>
      </g>
     </g>
    </g>
    <g>
     <polygon class="fil8" points="0.89,0.9 1.4,0.9 1.4,1.3 0.89,1.3 "/>
     <path id="_1_8" class="fil3" d="M1.4 0.91l-0.51 0 0 -0.01 0.51 0 0.01 0 -0.01 0.01zm0 -0.01l0.01 0 0 0 -0.01 0zm-0.01 0.4l0 -0.4 0.02 0 0 0.4 -0.01 0 -0.01 0zm0.02 0l0 0 -0.01 0 0.01 0zm-0.52 -0.01l0.51 0 0 0.01 -0.51 0 -0.01 0 0.01 -0.01zm0 0.01l-0.01 0 0 0 0.01 0zm0 -0.4l0 0.4 -0.01 0 0 -0.4 0.01 0 0 0zm-0.01 0l0 0 0.01 0 -0.01 0z"/>
    </g>
    <path class="fil9 str4" d="M1.09 1.07l0.04 0 0.01 -0.01 -0.04 -0.02c-0.01,0 -0.01,0.02 -0.01,0.03z"/>
    <path class="fil9 str4" d="M1.21 1.07l-0.05 0 0 -0.01 0.03 -0.02c0.01,0 0.02,0.02 0.02,0.03z"/>
    <path class="fil10 str5" d="M1.1 1.03l0.04 0.03 0.01 0 -0.01 -0.04c-0.01,-0.01 -0.02,0 -0.04,0.01z"/>
    <path class="fil9 str4" d="M1.09 1.07l0.04 0 0.01 -0.01 -0.04 -0.02c-0.01,0 -0.01,0.02 -0.01,0.03z"/>
    <path class="fil11 str6" d="M1.15 1.01l0 0.05 0.01 0 0.03 -0.03c-0.01,-0.01 -0.02,-0.01 -0.04,-0.02z"/>
    <path class="fil12 str7" d="M1.09 1.07l-0.01 0.16 0.13 0c0,-0.05 0,-0.1 0,-0.16l-0.12 0z"/>
    <path class="fil13 str8" d="M1.08 1.07l0 0.16 0.13 0 0 -0.16m-0.06 -0.01l0 -0.04m-0.01 0.04l-0.04 -0.03m0.06 0.03l0.04 -0.03m-0.07 0.04c0.01,-0.02 0.03,-0.02 0.03,0m-0.08 0l0.13 0m-0.13 0c0.01,-0.03 0.03,-0.05 0.07,-0.06 0.04,0.01 0.06,0.03 0.06,0.06"/>
    <line class="fil13 str7" x1="1.09" y1="1.23" x2="1.21" y2= "1.23" />
    <line class="fil13 str8" x1="1.14" y1="1.23" x2="1.15" y2= "1.07" />
    <line class="fil13 str8" x1="1.16" y1="1.23" x2="1.16" y2= "1.08" />
    <line class="fil13 str8" x1="1.13" y1="1.23" x2="1.13" y2= "1.07" />
    <path class="fil9 str4" d="M0.91 0.95l0.05 0 0 -0.01 -0.03 -0.01c-0.01,0 -0.02,0.01 -0.02,0.02z"/>
    <path class="fil9 str4" d="M1.04 0.95l-0.05 0 0 -0.01 0.03 -0.01c0.01,0 0.01,0.01 0.02,0.02z"/>
    <path class="fil10 str5" d="M0.93 0.92l0.03 0.02 0.01 0 0 -0.02c-0.02,0 -0.03,0 -0.04,0z"/>
    <path class="fil9 str4" d="M0.91 0.95l0.05 0 0 -0.01 -0.03 -0.01c-0.01,0 -0.02,0.01 -0.02,0.02z"/>
    <path class="fil11 str6" d="M0.98 0.92l-0.01 0.02 0.01 0 0.03 -0.01c0,-0.01 -0.02,-0.01 -0.03,-0.01z"/>
    <path class="fil12 str7" d="M0.91 0.95l0 0.08 0.13 0c0,-0.03 -0.01,-0.05 -0.01,-0.08l-0.12 0z"/>
    <path class="fil13 str8" d="M0.91 0.95l0 0.08 0.13 0 0 -0.08m-0.07 -0.01l0 -0.02m-0.01 0.02l-0.03 -0.01m0.05 0.01l0.04 -0.01m-0.06 0.02c0,-0.01 0.02,-0.01 0.03,0m-0.08 0l0.13 0m-0.13 0c0,-0.02 0.02,-0.03 0.06,-0.03 0.04,0 0.07,0.01 0.07,0.03"/>
    <line class="fil13 str7" x1="0.91" y1="1.03" x2="1.04" y2= "1.03" />
    <line class="fil13 str8" x1="0.97" y1="1.03" x2="0.97" y2= "0.95" />
    <line class="fil13 str8" x1="0.98" y1="1.03" x2="0.99" y2= "0.95" />
    <line class="fil13 str8" x1="0.95" y1="1.03" x2="0.95" y2= "0.95" />
    <polygon class="fil14 str9" points="1.02,1.29 1.02,1.27 1.27,1.27 1.27,1.29 "/>
    <polyline class="fil13 str10" points="1.02,1.27 1.04,1.27 1.25,1.27 1.27,1.27 "/>
    <polygon class="fil14 str9" points="1.03,1.27 1.03,1.25 1.25,1.25 1.25,1.27 "/>
    <polyline class="fil13 str10" points="1.03,1.25 1.05,1.25 1.24,1.25 1.25,1.25 "/>
    <polygon class="fil14 str9" points="1.05,1.25 1.05,1.23 1.24,1.23 1.24,1.25 "/>
    <path class="fil9 str4" d="M1.24 0.95l0.05 0 0 -0.01 -0.03 -0.01c-0.01,0 -0.02,0.01 -0.02,0.02z"/>
    <path class="fil9 str4" d="M1.37 0.95l-0.05 0 0 -0.01 0.03 -0.01c0.01,0 0.02,0.01 0.02,0.02z"/>
    <path class="fil10 str5" d="M1.26 0.92l0.03 0.02 0.01 0 0 -0.02c-0.01,0 -0.03,0 -0.04,0z"/>
    <path class="fil9 str4" d="M1.24 0.95l0.05 0 0 -0.01 -0.03 -0.01c-0.01,0 -0.02,0.01 -0.02,0.02z"/>
    <path class="fil11 str6" d="M1.31 0.92l0 0.02 0 0 0.04 -0.01c-0.01,-0.01 -0.03,-0.01 -0.04,-0.01z"/>
    <path class="fil12 str7" d="M1.24 0.95l0 0.08 0.13 0c0,-0.03 0,-0.05 0,-0.08l-0.13 0z"/>
    <path class="fil13 str8" d="M1.24 0.95l0 0.08 0.13 0 0 -0.08m-0.07 -0.01l0 -0.02m-0.01 0.02l-0.03 -0.01m0.05 0.01l0.04 -0.01m-0.06 0.02c0,-0.01 0.03,-0.01 0.03,0m-0.08 0l0.13 0m-0.13 0c0,-0.02 0.03,-0.03 0.07,-0.03 0.04,0 0.06,0.01 0.06,0.03"/>
    <line class="fil13 str7" x1="1.24" y1="1.03" x2="1.37" y2= "1.03" />
    <line class="fil13 str8" x1="1.3" y1="1.03" x2="1.3" y2= "0.95" />
    <line class="fil13 str8" x1="1.32" y1="1.03" x2="1.32" y2= "0.95" />
    <line class="fil13 str8" x1="1.28" y1="1.03" x2="1.29" y2= "0.95" />
    <rect class="fil5 str11" transform="matrix(4.70407E-15 0.0799983 -0.0520491 6.20875E-16 1.24549 0.319445)" width="0.28" height="3.82"/>
    <rect class="fil5 str11" x="1.13" y="0.24" width="0.02" height="0.27"/>
    <g>
     <polygon class="fil8" points="0.98,0.9 0.98,0.51 1.3,0.51 1.3,0.69 1.3,0.81 1.3,0.9 "/>
     <path id="_1_9" class="fil3" d="M0.98 0.51l0 0.39 -0.01 0 0 -0.39 0.01 -0.01 0 0.01zm-0.01 0l0 -0.01 0.01 0 -0.01 0.01zm0.33 0.01l-0.32 0 0 -0.02 0.32 0 0.01 0.01 -0.01 0.01zm0 -0.02l0.01 0 0 0.01 -0.01 -0.01zm0 0.19l0 -0.18 0.01 0 0 0.18 0 0 -0.01 0zm0 0.12l0 -0.12 0.01 0 0 0.12 0 0 -0.01 0zm0 0.09l0 -0.09 0.01 0 0 0.09 -0.01 0.01 0 -0.01zm0.01 0l0 0.01 -0.01 0 0.01 -0.01zm-0.33 -0.01l0.32 0 0 0.02 -0.32 0 -0.01 -0.01 0.01 -0.01zm0 0.02l-0.01 0 0 -0.01 0.01 0.01z"/>
    </g>
    <path class="fil9 str4" d="M1.09 0.73l0.04 0 0 -0.01 -0.03 -0.02c0,0 -0.01,0.02 -0.01,0.03z"/>
    <path class="fil9 str4" d="M1.18 0.73l-0.03 0 0 -0.01 0.02 -0.02c0.01,0 0.01,0.02 0.01,0.03z"/>
    <path class="fil10 str5" d="M1.11 0.69l0.02 0.03 0.01 0 -0.01 -0.04c0,0 -0.02,0 -0.02,0.01z"/>
    <path class="fil9 str4" d="M1.09 0.73l0.04 0 0 -0.01 -0.03 -0.02c0,0 -0.01,0.02 -0.01,0.03z"/>
    <path class="fil11 str6" d="M1.14 0.68l0 0.04 0.01 0 0.02 -0.03c-0.01,-0.01 -0.02,-0.01 -0.03,-0.01z"/>
    <path class="fil12 str7" d="M1.09 0.73l0 0.16 0.09 0c0,-0.05 0,-0.09 0,-0.16l-0.09 0z"/>
    <path class="fil13 str8" d="M1.09 0.73l0 0.17 0.1 0 0 -0.17m-0.05 -0.01l0 -0.04m-0.01 0.04l-0.03 -0.03m0.04 0.03l0.03 -0.03m-0.04 0.04c0,-0.02 0.02,-0.02 0.02,0m-0.06 0l0.1 0m-0.1 0c0,-0.03 0.02,-0.05 0.05,-0.06 0.03,0.01 0.04,0.03 0.05,0.06"/>
    <line class="fil13 str7" x1="1.09" y1="0.89" x2="1.19" y2= "0.89" />
    <line class="fil13 str8" x1="1.13" y1="0.89" x2="1.14" y2= "0.74" />
    <line class="fil13 str8" x1="1.15" y1="0.89" x2="1.15" y2= "0.74" />
    <line class="fil13 str8" x1="1.12" y1="0.89" x2="1.12" y2= "0.74" />
    <path class="fil15 str5" d="M1.21 0.59l-0.05 0 -0.01 -0.01 0.04 -0.03c0.01,0.01 0.02,0.02 0.02,0.04z"/>
    <path class="fil10 str5" d="M1.1 0.55l0.03 0.03 0.01 0 0 -0.05c-0.01,0 -0.03,0.01 -0.04,0.02z"/>
    <path class="fil11 str6" d="M1.14 0.53l0 0.05 0.01 0 0.04 -0.03c-0.01,-0.01 -0.03,-0.02 -0.05,-0.02z"/>
    <path class="fil15 str5" d="M1.08 0.59l0.05 0 0 0.01 -0.03 0.03c-0.01,-0.01 -0.02,-0.02 -0.02,-0.04z"/>
    <path class="fil10 str5" d="M1.19 0.63l-0.04 -0.03 -0.01 0 0 0.05c0.02,0 0.04,-0.01 0.05,-0.02z"/>
    <path class="fil9 str4" d="M1.08 0.59l0.05 0 0 -0.01 -0.03 -0.03c-0.01,0.01 -0.02,0.03 -0.02,0.04z"/>
    <path class="fil11 str6" d="M1.14 0.65l0 -0.05 -0.01 0 -0.03 0.03c0.01,0.01 0.03,0.02 0.04,0.02z"/>
    <path class="fil9 str4" d="M1.21 0.59l-0.05 0 -0.01 0.01 0.04 0.03c0.01,-0.01 0.02,-0.02 0.02,-0.04z"/>
    <path class="fil13 str9" d="M1.14 0.53c0.04,0 0.07,0.03 0.07,0.06 0,0.03 -0.03,0.06 -0.06,0.06 -0.04,0 -0.07,-0.03 -0.07,-0.06 0,-0.03 0.03,-0.06 0.06,-0.06zm0 0.05c0.01,0 0.02,0 0.02,0.01 0,0.01 -0.01,0.01 -0.02,0.01 0,0 -0.01,0 -0.01,-0.01 0,-0.01 0.01,-0.01 0.01,-0.01zm0.01 0l0.04 -0.03m-0.06 0.03l-0.03 -0.03m0.04 0.03l0 -0.05m-0.01 0.06l-0.05 0m0.06 0.06l0 -0.05m0.05 0.03l-0.04 -0.03m0.06 -0.01l-0.05 0m-0.06 0.04l0.03 -0.03"/>
   </g>
  </g>
 </g>
</svg>
