<?xml version="1.0" encoding="UTF-8"?>
<!DOCTYPE svg PUBLIC "-//W3C//DTD SVG 1.1//EN" "http://www.w3.org/Graphics/SVG/1.1/DTD/svg11.dtd">
<!-- Creator: CorelDRAW 2021 (64 Bit) -->
<svg xmlns="http://www.w3.org/2000/svg" xml:space="preserve" width="330px" height="330px" version="1.1" style="shape-rendering:geometricPrecision; text-rendering:geometricPrecision; image-rendering:optimizeQuality; fill-rule:evenodd; clip-rule:evenodd"
viewBox="0 0 26.27 26.27"
 xmlns:xlink="http://www.w3.org/1999/xlink"
 xmlns:xodm="http://www.corel.com/coreldraw/odm/2003">
 <defs>
  <style type="text/css">
   <![CDATA[
    .str0 {stroke:#B8B4B6;stroke-width:2.39;stroke-miterlimit:22.9256}
    .fil1 {fill:black}
    .fil0 {fill:white}
   ]]>
  </style>
 </defs>
 <g id="Camada_x0020_1">
  <metadata id="CorelCorpID_0Corel-Layer"/>
  <g id="_2713504604496">
   <path class="fil0 str0" d="M2.27 1.19l21.76 0c0.58,0 1.05,0.54 1.05,1.2l0 21.49c0,0.66 -0.47,1.2 -1.05,1.2l-21.76 0c-0.58,0 -1.05,-0.54 -1.05,-1.2 0,-2.58 -0.04,-20.81 -0.02,-21.75 0.01,-0.52 0.63,-0.94 1.07,-0.94z"/>
   <path class="fil1" d="M4.78 13.39l13.42 5.78c-0.04,-0.19 -0.63,-1.46 -0.85,-2.21 -0.24,-0.82 -0.44,-1.69 -0.52,-2.61 0.97,0 1.93,0 2.88,0 0.39,0 1.04,0.06 1.36,-0.1 0.29,-0.12 0.56,-0.41 0.56,-0.86 0,-1.16 -1.27,-0.97 -1.87,-0.97 -0.97,0 -1.94,0 -2.92,0 0.03,-1.15 0.47,-2.67 0.9,-3.71 0.12,-0.32 0.38,-0.82 0.46,-1.1 -0.46,0.13 -1.2,0.5 -1.68,0.7 -0.56,0.25 -1.13,0.48 -1.68,0.72l-10.06 4.36 0 0z"/>
  </g>
 </g>
</svg>
