<?xml version="1.0" encoding="UTF-8"?>
<!DOCTYPE svg PUBLIC "-//W3C//DTD SVG 1.1//EN" "http://www.w3.org/Graphics/SVG/1.1/DTD/svg11.dtd">
<!-- Creator: CorelDRAW 2021 (64 Bit) -->
<svg xmlns="http://www.w3.org/2000/svg" xml:space="preserve" width="331px" height="331px" version="1.1" style="shape-rendering:geometricPrecision; text-rendering:geometricPrecision; image-rendering:optimizeQuality; fill-rule:evenodd; clip-rule:evenodd"
viewBox="0 0 2.19 2.19"
 xmlns:xlink="http://www.w3.org/1999/xlink"
 xmlns:xodm="http://www.corel.com/coreldraw/odm/2003">
 <defs>
  <style type="text/css">
   <![CDATA[
    .fil2 {fill:black}
    .fil5 {fill:#00F946}
    .fil3 {fill:#282829}
    .fil7 {fill:#5A5959}
    .fil1 {fill:#B8B4B6}
    .fil6 {fill:#DDD9D9}
    .fil4 {fill:#FA0000}
    .fil0 {fill:#FDF9F9}
   ]]>
  </style>
 </defs>
 <g id="Camada_x0020_1">
  <metadata id="CorelCorpID_0Corel-Layer"/>
  <g id="_2400643673696">
   <path class="fil0" d="M0.48 1.66c0.02,-0.02 0.02,-0.04 0.03,-0.08 0.06,-0.14 0.14,-0.38 0.22,-0.48 0.12,-0.13 0.31,-0.21 0.55,-0.25l-0.04 -0.16 0.7 0.25c-0.04,0.03 -0.08,0.06 -0.13,0.09 -0.05,0.03 -0.09,0.07 -0.14,0.1 -0.05,0.03 -0.09,0.06 -0.14,0.09 -0.04,0.03 -0.1,0.07 -0.14,0.09 -0.01,-0.02 -0.02,-0.05 -0.02,-0.08 0,-0.01 -0.01,-0.03 -0.01,-0.04l-0.02 -0.04c-0.18,-0.01 -0.42,0.06 -0.53,0.15 -0.07,0.06 -0.26,0.27 -0.32,0.36 0.04,0.03 0.51,0.02 0.6,0.02 0.06,0 0.26,0.01 0.29,-0.02 0.03,-0.05 0.02,-0.23 0.02,-0.29 0.02,-0.01 0.14,-0.01 0.17,0 0,0.04 0.01,0.26 -0.01,0.28 0,0.07 -0.07,0.14 -0.11,0.17 -0.07,0.04 -0.17,0.02 -0.26,0.02 -0.18,0 -0.38,0 -0.56,0 -0.09,0.01 -0.18,0.01 -0.24,-0.04 -0.05,-0.04 -0.09,-0.1 -0.09,-0.18 -0.02,-0.17 0,-0.38 -0.01,-0.56 0,-0.12 -0.01,-0.45 0.03,-0.54 0.07,-0.17 0.21,-0.14 0.42,-0.14 0.19,0 0.38,0 0.56,0 0.1,0 0.17,0.03 0.21,0.08 0.06,0.08 0.04,0.12 0.06,0.22 -0.01,0.01 0,0.02 -0.04,0.01l-0.14 0 0 -0.07c0.01,-0.1 -0.12,-0.07 -0.2,-0.07 -0.2,0 -0.48,-0.01 -0.66,0 -0.05,0 -0.06,0.02 -0.07,0.07 0,0.06 0,0.78 0,0.92 0,0.06 0.01,0.07 0.02,0.12zm-0.27 -0.76l-0.01 1.09 1.81 0 -0.02 0 0 -1.78 -1.78 0 0 0.69z"/>
   <path class="fil1" d="M0.21 0.21c0.01,-0.01 0.08,-0.01 0.1,-0.01 0.26,0 1.6,-0.01 1.68,0 0.01,0.02 0.02,1.71 0,1.79 -0.05,0.01 -0.16,0 -0.22,0l-1.57 0 0.01 -1.09c-0.02,-0.04 -0.01,-0.29 -0.01,-0.35 0,-0.02 -0.01,-0.32 0.01,-0.34zm-0.21 0l0 0.68c0,0.17 0.01,0.33 0.01,0.49 0,0.17 0,0.33 0,0.49 0,0.12 -0.02,0.22 0.08,0.29 0.02,0.01 0.06,0.03 0.1,0.03l1.81 0c0.11,0 0.19,-0.09 0.19,-0.2l0 -1.79c0,-0.11 -0.08,-0.2 -0.21,-0.2l-1.77 0c-0.12,0 -0.21,0.09 -0.21,0.21z"/>
   <path class="fil2" d="M1.47 1.43l0.03 0c0.01,0.03 0,0.21 -0.01,0.24 -0.06,0.15 -0.23,0.11 -0.4,0.11l-0.53 0c-0.09,0 -0.14,-0.02 -0.17,-0.08 -0.05,-0.08 -0.03,-0.38 -0.03,-0.5 0,-0.17 0,-0.34 0,-0.51 0,-0.22 0.06,-0.25 0.27,-0.24 0.09,0 0.72,-0.01 0.77,0.01 0.05,0.02 0.1,0.08 0.1,0.13 0,0.04 0,0.01 -0.01,0.03 -0.05,-0.01 -0.01,-0.02 -0.05,-0.08 -0.05,-0.09 -0.17,-0.06 -0.3,-0.06 -0.16,0 -0.32,0 -0.48,0 -0.22,0 -0.26,0 -0.26,0.23 0,0.13 -0.02,0.89 0.01,0.95 0.03,0.07 0.07,0.08 0.16,0.08l0.73 0c0.21,0 0.15,-0.14 0.17,-0.31zm0.09 0.22l0 -0.28 -0.16 0c0,0.06 0.01,0.24 -0.02,0.29 -0.03,0.03 -0.23,0.02 -0.29,0.02 -0.09,0 -0.56,0.01 -0.6,-0.02 -0.02,0.01 -0.01,0.01 -0.01,0 -0.01,-0.05 -0.02,-0.06 -0.02,-0.12 0,-0.14 0,-0.86 0,-0.92 0.01,-0.05 0.02,-0.07 0.07,-0.07 0.18,-0.01 0.46,0 0.66,0 0.08,0 0.21,-0.03 0.2,0.07 0.02,0.01 0.01,0.05 0.01,0.06l0.17 0c-0.02,-0.1 0,-0.14 -0.06,-0.22 -0.04,-0.05 -0.11,-0.08 -0.21,-0.08 -0.18,0 -0.37,0 -0.56,0 -0.21,0 -0.35,-0.03 -0.42,0.14 -0.04,0.09 -0.03,0.42 -0.03,0.54 0.01,0.18 -0.01,0.39 0.01,0.56 0,0.08 0.04,0.14 0.09,0.18 0.06,0.05 0.15,0.05 0.24,0.04 0.18,0 0.38,0 0.56,0 0.09,0 0.19,0.02 0.26,-0.02 0.04,-0.03 0.11,-0.1 0.11,-0.17z"/>
   <path class="fil3" d="M0.74 1.25c0.02,-0.03 0.02,-0.04 0.04,-0.07 0.02,-0.02 0.03,-0.03 0.06,-0.05 0.09,-0.09 0.35,-0.21 0.46,-0.2 0.01,0.02 0.03,0.12 0.02,0.13 -0.01,0.01 -0.02,0.01 -0.04,0.01l-0.13 0.02c-0.05,0.01 -0.1,0.01 -0.16,0.03 -0.15,0.04 -0.18,0.1 -0.25,0.13zm0.62 -0.44l0.4 0.15c-0.05,0.04 -0.1,0.08 -0.15,0.11 -0.04,0.04 -0.11,0.09 -0.16,0.12 -0.02,-0.04 -0.07,-0.31 -0.09,-0.38zm-0.88 0.85c0,0.01 -0.01,0.01 0.01,0 0.06,-0.09 0.25,-0.3 0.32,-0.36 0.11,-0.09 0.35,-0.16 0.53,-0.15l0.02 0.04c0,0.01 0.01,0.03 0.01,0.04 0,0.03 0.01,0.06 0.02,0.08 0.04,-0.02 0.1,-0.06 0.14,-0.09 0.05,-0.03 0.09,-0.06 0.14,-0.09 0.05,-0.03 0.09,-0.07 0.14,-0.1 0.05,-0.03 0.09,-0.06 0.13,-0.09l-0.7 -0.25 0.04 0.16c-0.24,0.04 -0.43,0.12 -0.55,0.25 -0.08,0.1 -0.16,0.34 -0.22,0.48 -0.01,0.04 -0.01,0.06 -0.03,0.08z"/>
   <path class="fil4" d="M1.47 1.43c-0.02,0.17 0.04,0.31 -0.17,0.31l-0.73 0c-0.09,0 -0.13,-0.01 -0.16,-0.08 -0.03,-0.06 -0.01,-0.82 -0.01,-0.95 0,-0.23 0.04,-0.23 0.26,-0.23 0.16,0 0.32,0 0.48,0 0.13,0 0.25,-0.03 0.3,0.06 0.04,0.06 0,0.07 0.05,0.08 0.01,-0.02 0.01,0.01 0.01,-0.03 0,-0.05 -0.05,-0.11 -0.1,-0.13 -0.05,-0.02 -0.68,-0.01 -0.77,-0.01 -0.21,-0.01 -0.27,0.02 -0.27,0.24 0,0.17 0,0.34 0,0.51 0,0.12 -0.02,0.42 0.03,0.5 0.03,0.06 0.08,0.08 0.17,0.08l0.53 0c0.17,0 0.34,0.04 0.4,-0.11 0.01,-0.03 0.02,-0.21 0.01,-0.24l-0.03 0z"/>
   <path class="fil5" d="M1.36 0.81c0.02,0.07 0.07,0.34 0.09,0.38 0.05,-0.03 0.12,-0.08 0.16,-0.12 0.05,-0.03 0.1,-0.07 0.15,-0.11l-0.4 -0.15z"/>
   <path class="fil5" d="M0.74 1.25c0.07,-0.03 0.1,-0.09 0.25,-0.13 0.06,-0.02 0.11,-0.02 0.16,-0.03l0.13 -0.02c0.02,0 0.03,0 0.04,-0.01 0.01,-0.01 -0.01,-0.11 -0.02,-0.13 -0.11,-0.01 -0.37,0.11 -0.46,0.2 -0.03,0.02 -0.04,0.03 -0.06,0.05 -0.02,0.03 -0.02,0.04 -0.04,0.07z"/>
   <path class="fil6" d="M0.21 0.9l0 -0.69 1.78 0 0 1.78 0.02 0 -1.81 0 1.57 0c0.06,0 0.17,0.01 0.22,0 0.02,-0.08 0.01,-1.77 0,-1.79 -0.08,-0.01 -1.42,0 -1.68,0 -0.02,0 -0.09,0 -0.1,0.01 -0.02,0.02 -0.01,0.32 -0.01,0.34 0,0.06 -0.01,0.31 0.01,0.35z"/>
   <path class="fil7" d="M1.56 1.65c0.02,-0.02 0.01,-0.24 0.01,-0.28 -0.03,-0.01 -0.15,-0.01 -0.17,0l0.16 0 0 0.28z"/>
   <path class="fil1" d="M1.57 0.68l-0.17 0c0,-0.01 0.01,-0.05 -0.01,-0.06l0 0.07 0.14 0c0.04,0.01 0.03,0 0.04,-0.01z"/>
  </g>
 </g>
</svg>
