<?xml version="1.0" encoding="UTF-8"?>
<!DOCTYPE svg PUBLIC "-//W3C//DTD SVG 1.1//EN" "http://www.w3.org/Graphics/SVG/1.1/DTD/svg11.dtd">
<!-- Creator: CorelDRAW 2021 (64 Bit) -->
<svg xmlns="http://www.w3.org/2000/svg" xml:space="preserve" width="305px" height="305px" version="1.1" style="shape-rendering:geometricPrecision; text-rendering:geometricPrecision; image-rendering:optimizeQuality; fill-rule:evenodd; clip-rule:evenodd"
viewBox="0 0 4.25 4.25"
 xmlns:xlink="http://www.w3.org/1999/xlink"
 xmlns:xodm="http://www.corel.com/coreldraw/odm/2003">
 <defs>
  <style type="text/css">
   <![CDATA[
    .fil2 {fill:black}
    .fil5 {fill:#009832}
    .fil10 {fill:#00CAFD}
    .fil9 {fill:#00FDFD}
    .fil4 {fill:#875D5D}
    .fil3 {fill:#98FE98}
    .fil0 {fill:#B7B4B5}
    .fil7 {fill:#FCFC00}
    .fil6 {fill:#FEAE00}
    .fil1 {fill:#FEFEFE}
    .fil8 {fill:red}
   ]]>
  </style>
 </defs>
 <g id="Camada_x0020_1">
  <metadata id="CorelCorpID_0Corel-Layer"/>
  <g id="_3111850640192">
   <path class="fil0" d="M3.29 0.89l0.01 0 0.01 0.01 0.13 0.15 0.01 0.01c0.03,0.02 0.02,0.01 0,0.01 0,0.03 -0.01,0.02 0.02,0.02 0,0 0.01,-0.03 0,0 0,0 0,0.01 0,0.01 0,-0.01 0,0 -0.01,0 0,0.03 0,0.02 0.02,0.02 0.03,-0.03 -0.01,-0.02 0.02,0 0.06,0.04 0.23,0.43 0.26,0.52 0.14,0.45 0.07,0.95 -0.16,1.35 -0.12,0.19 -0.25,0.32 -0.39,0.44 -1.09,0.94 -2.86,0.12 -2.78,-1.4 0.06,-1.31 1.55,-2.06 2.64,-1.33 0.05,0.04 0.21,0.15 0.2,0.17 0,0.03 0,0.02 0.02,0.02zm-1.17 3.36c0.75,0 1.43,-0.4 1.82,-1.03 0.17,-0.26 0.31,-0.67 0.31,-1 0,-0.4 -0.03,-0.66 -0.21,-1.01 -0.24,-0.48 -0.52,-0.76 -1,-1.01 -0.35,-0.17 -0.61,-0.2 -1.01,-0.2 -0.31,0 -0.61,0.11 -0.83,0.21 -0.42,0.18 -0.85,0.64 -1.02,1.07 -0.29,0.72 -0.23,1.41 0.21,2.06 0.08,0.12 0.15,0.19 0.24,0.29 0.35,0.34 0.75,0.53 1.24,0.6 0.06,0.01 0.19,0.02 0.24,0.02l0.01 0z"/>
   <path class="fil1" d="M3.48 1.12c0.04,0.1 0.04,0.18 0.05,0.29 0.04,0.42 -0.08,0.38 -0.68,0.36 0,0.06 0.01,0.11 -0.01,0.15 0,0.07 -0.03,0.09 0.01,0.14 0.01,0.02 0.08,0.07 0.09,0.09 0.04,0.05 0.04,0.21 0.06,0.28 0.19,0.07 0.17,0.04 0.2,0.14 0.03,0.08 0.05,0.16 0.09,0.24 0.12,0.24 0.08,0.11 -0.02,0.49 -0.05,-0.03 -0.23,-0.26 -0.26,-0.31 0,0.01 -0.02,0.01 -0.01,0.06 0.01,0.03 0.03,0.05 0.04,0.07 0.05,0.14 -0.05,0.35 -0.13,0.42l-0.12 -0.22 0 0c0.01,0.16 -0.09,0.31 -0.21,0.37l-0.05 -0.18c-0.06,0.14 -0.12,0.17 -0.28,0.22l-0.01 -0.32c-0.04,0.22 -0.11,0.26 -0.34,0.26l0.05 -0.36 -0.01 0.01c-0.06,0.13 -0.21,0.24 -0.35,0.11l0.12 -0.37 -0.01 0c-0.06,0.1 -0.14,0.18 -0.29,0.08 -0.13,-0.08 -0.1,-0.07 0.13,-0.43l0.22 -0.37c-0.08,-0.05 -0.08,-0.04 -0.13,-0.12 -0.03,-0.05 -0.08,-0.13 -0.11,-0.17 -0.09,0.01 -0.17,0.07 -0.29,-0.13 -0.09,0.01 -0.13,0.08 -0.21,0.11 -0.25,-0.27 -0.34,0.12 -0.45,-0.5 0.15,0 0.82,0 0.9,-0.04l0.04 -0.06c0.08,-0.17 0.21,-0.33 0.43,-0.31l-0.01 0.09c-0.22,0 -0.37,0.18 -0.38,0.4l-0.91 0c-0.01,0.06 0.02,0.15 0.05,0.19 0.06,0.05 0.1,-0.01 0.19,0.04 0.23,0.14 0.11,0.07 0.32,-0.03 0.05,0.03 0.09,0.09 0.14,0.14 0.08,0.07 0.09,0.01 0.22,0.01 0.06,0.1 0.11,0.35 0.4,0.36 -0.07,-0.21 -0.17,-0.3 -0.12,-0.59 0.05,-0.25 0.05,-0.26 0.17,-0.4 0.04,-0.06 -0.01,-0.05 0.02,-0.14l0.02 -0.02c-0.01,-0.02 -0.01,-0.01 0.01,-0.01 0.08,-0.08 0.08,-0.16 0.19,-0.25 0.19,-0.14 0.46,-0.2 0.71,-0.16 0.15,0.03 0.21,0.09 0.31,0.12 0.01,-0.02 -0.15,-0.13 -0.2,-0.17 -1.09,-0.73 -2.58,0.02 -2.64,1.33 -0.08,1.52 1.69,2.34 2.78,1.4 0.14,-0.12 0.27,-0.25 0.39,-0.44 0.23,-0.4 0.3,-0.9 0.16,-1.35 -0.03,-0.09 -0.2,-0.48 -0.26,-0.52 -0.03,-0.02 0.01,-0.03 -0.02,0zm-0.18 -0.23l0.01 0.01 -0.01 -0.01 -0.01 0 0.01 0zm0.17 0.2l-0.01 0.01c0.01,0 0.01,-0.01 0.01,0 0,0 0,-0.01 0,-0.01 0.01,-0.03 0,0 0,0zm-0.02 -0.03l-0.01 -0.01 0.01 0.01 0 0.01c0.02,0 0.03,0.01 0,-0.01z"/>
   <path class="fil2" d="M1.97 3.6c0.03,-0.06 0.14,-1.04 0.18,-1.11 0.06,0.03 0.04,0.04 0.05,0.13 0,0.05 0.01,0.11 0.01,0.17 0.04,0.73 -0.03,0.4 -0.06,0.63 -0.01,0.08 -0.02,0.21 -0.18,0.18zm0.31 -1.07c0.03,0.07 0.11,0.48 0.14,0.58 0.05,0.19 0.1,0.49 -0.11,0.53l-0.03 -1.11zm0.34 1.05l-0.26 -1.05c0.06,-0.01 0.06,0.03 0.09,0.09l0.19 0.4c0.09,0.18 0.02,0.16 0.07,0.32 0.03,0.11 -0.01,0.21 -0.09,0.24zm0.36 -0.41c0.03,0.07 0.02,0.18 -0.03,0.24 -0.02,0.02 -0.01,0.01 -0.03,0.02 -0.02,-0.02 -0.4,-0.81 -0.44,-0.93l0.08 -0.03 0.34 0.41c0.04,0.08 0.03,0.19 0.08,0.29zm-0.95 -0.76c0.02,0.05 0.05,0 0.04,0.1l-0.07 0.48c-0.03,0.18 -0.04,0.14 -0.12,0.25 -0.05,0.08 -0.03,0.2 -0.17,0.18 -0.1,-0.02 -0.01,-0.17 0.02,-0.24l0.3 -0.77zm-0.63 0.66c0.01,-0.05 0.17,-0.29 0.22,-0.35 0.07,-0.11 0.15,-0.23 0.21,-0.34l0.11 0.01c-0.01,0.07 -0.11,0.33 -0.14,0.42 -0.04,0.13 -0.02,0.08 -0.12,0.15 -0.15,0.11 -0.03,0.21 -0.28,0.11zm0.3 -0.01c0.02,-0.04 0.01,-0.02 0.03,-0.04 0,0.07 0,0.02 -0.02,0.04l-0.12 0.37c0.14,0.13 0.29,0.02 0.35,-0.11l0.02 -0.07 -0.01 0.06 -0.05 0.36c0.23,0 0.3,-0.04 0.34,-0.26l0.01 0.32c0.16,-0.05 0.22,-0.08 0.28,-0.22l0.05 0.18c0.12,-0.06 0.22,-0.21 0.21,-0.37l-0.02 -0.04c0.02,0.02 0.01,-0.04 0.02,0.04l0.12 0.22c0.08,-0.07 0.18,-0.28 0.13,-0.42 -0.01,-0.02 -0.03,-0.04 -0.04,-0.07 -0.01,-0.05 0.01,-0.05 0.01,-0.06 0.03,0.05 0.21,0.28 0.26,0.31 0.1,-0.38 0.14,-0.25 0.02,-0.49 -0.04,-0.08 -0.06,-0.16 -0.09,-0.24 -0.03,-0.1 -0.01,-0.07 -0.2,-0.14 -0.02,-0.07 -0.02,-0.23 -0.06,-0.28 -0.01,-0.02 -0.08,-0.07 -0.09,-0.09 -0.04,-0.05 -0.01,-0.07 -0.01,-0.14 0,-0.1 0.03,-0.15 -0.03,-0.15 -0.06,0 0,0.07 -0.04,0.15l-0.02 0.16c0.05,0.02 0.13,0.09 0.14,0.15 0.04,0.15 -0.01,0.23 0.09,0.27 0.21,0.1 0.09,-0.05 0.22,0.27 0.09,0.23 0.13,0.12 0.04,0.39l-0.63 -0.77c-0.14,0.02 -0.4,0.18 -0.58,-0.12 -0.12,-0.2 -0.14,-0.38 -0.09,-0.65 0.13,-0.59 0.76,-0.37 0.82,0.05 0.03,0.02 -0.02,0.02 0.04,0.01 0.04,0 0.02,0.02 0.02,-0.02 -0.01,-0.14 -0.15,-0.32 -0.22,-0.37 -0.15,-0.11 -0.25,-0.11 -0.4,-0.09l-0.04 0c-0.04,0 -0.05,-0.01 -0.08,-0.03 -0.04,-0.03 0.03,0 -0.02,-0.01l-0.01 0.01c0,0.02 0.01,0.02 -0.02,0.02 -0.03,0.09 0.02,0.08 -0.02,0.14 -0.12,0.14 -0.12,0.15 -0.17,0.4 -0.05,0.29 0.05,0.38 0.12,0.59 -0.29,-0.01 -0.34,-0.26 -0.4,-0.36 -0.13,0 -0.14,0.06 -0.22,-0.01 -0.05,-0.05 -0.09,-0.11 -0.14,-0.14 -0.21,0.1 -0.09,0.17 -0.32,0.03 -0.09,-0.05 -0.13,0.01 -0.19,-0.04 -0.03,-0.04 -0.06,-0.13 -0.05,-0.19l0.91 0c0.01,-0.22 0.16,-0.4 0.38,-0.4l0.01 -0.09c-0.22,-0.02 -0.35,0.14 -0.43,0.31l-0.04 0.06c-0.08,0.04 -0.75,0.04 -0.9,0.04 0.11,0.62 0.2,0.23 0.45,0.5 0.08,-0.03 0.12,-0.1 0.21,-0.11 0.12,0.2 0.2,0.14 0.29,0.13 0.03,0.04 0.08,0.12 0.11,0.17 0.05,0.08 0.05,0.07 0.13,0.12l-0.22 0.37c-0.23,0.36 -0.26,0.35 -0.13,0.43 0.15,0.1 0.23,0.02 0.29,-0.08z"/>
   <path class="fil3" d="M2.06 1.95c0.08,0.07 0.07,0.2 -0.03,0.2 -0.08,-0.01 -0.11,-0.19 0.03,-0.2zm0.71 -0.03l0 -0.15 -0.43 -0.02 -0.03 0.03c-0.04,0.24 -0.34,0.18 -0.32,-0.11 0.01,-0.21 0.27,-0.3 0.33,0l0.41 0.01c0.03,-0.01 0,0 0.03,-0.01 -0.06,-0.42 -0.69,-0.64 -0.82,-0.05 -0.05,0.27 -0.03,0.45 0.09,0.65 0.18,0.3 0.44,0.14 0.58,0.12l0.63 0.77c0.09,-0.27 0.05,-0.16 -0.04,-0.39 -0.13,-0.32 -0.01,-0.17 -0.22,-0.27 -0.1,-0.04 -0.05,-0.12 -0.09,-0.27 -0.01,-0.06 -0.09,-0.13 -0.14,-0.15l0.02 -0.16z"/>
   <path class="fil1" d="M2.16 1.2l0.04 0c0.15,-0.02 0.25,-0.02 0.4,0.09 0.07,0.05 0.21,0.23 0.22,0.37 0.04,0.04 0.05,0.03 0.14,0.03 0.12,0 0.43,0.04 0.48,-0.04 0.04,-0.12 0,-0.43 -0.06,-0.54 -0.18,-0.34 -0.81,-0.39 -1.1,-0.11 -0.08,0.08 -0.07,0.1 -0.12,0.2z"/>
   <path class="fil4" d="M2.06 1.16c-0.02,0 -0.02,-0.01 -0.01,0.01l-0.02 0.02c0.03,0 0.02,0 0.02,-0.02l0.01 -0.01c0.05,0.01 -0.02,-0.02 0.02,0.01 0.03,0.02 0.04,0.03 0.08,0.03 0.05,-0.1 0.04,-0.12 0.12,-0.2 0.29,-0.28 0.92,-0.23 1.1,0.11 0.06,0.11 0.1,0.42 0.06,0.54 -0.05,0.08 -0.36,0.04 -0.48,0.04 -0.09,0 -0.1,0.01 -0.14,-0.03 0,0.04 0.02,0.02 -0.02,0.02 -0.06,0.01 -0.01,0.01 -0.04,-0.01 -0.03,0.01 0,0 -0.03,0.01l-0.41 -0.01c-0.04,0 -0.07,-0.01 -0.09,-0.01 -0.07,0.01 -0.11,-0.01 -0.11,0.07 0.05,0.03 0.06,0.01 0.11,0.03 0.03,-0.01 0.02,-0.02 0.05,-0.01 0.04,0.01 0.02,-0.01 0.03,0.03l0.03 -0.03 0.43 0.02 0 0.15c0.04,-0.08 -0.02,-0.15 0.04,-0.15 0.06,0 0.03,0.05 0.03,0.15 0.02,-0.04 0.01,-0.09 0.01,-0.15 0.6,0.02 0.72,0.06 0.68,-0.36 -0.01,-0.11 -0.01,-0.19 -0.05,-0.29 -0.02,0 -0.02,0.01 -0.02,-0.02l0.01 -0.01c-0.03,0 -0.02,0.01 -0.02,-0.02l0 -0.01 -0.01 -0.01 -0.13 -0.15 -0.01 -0.01 -0.01 0c-0.02,0 -0.02,0.01 -0.02,-0.02 -0.1,-0.03 -0.16,-0.09 -0.31,-0.12 -0.25,-0.04 -0.52,0.02 -0.71,0.16 -0.11,0.09 -0.11,0.17 -0.19,0.25z"/>
   <path class="fil5" d="M2.48 2.5c0.04,0.12 0.42,0.91 0.44,0.93 0.02,-0.01 0.01,0 0.03,-0.02 0.05,-0.06 0.06,-0.17 0.03,-0.24 -0.05,-0.1 -0.04,-0.21 -0.08,-0.29l-0.34 -0.41 -0.08 0.03z"/>
   <path class="fil6" d="M2.03 2.41l-0.3 0.77c-0.03,0.07 -0.12,0.22 -0.02,0.24 0.14,0.02 0.12,-0.1 0.17,-0.18 0.08,-0.11 0.09,-0.07 0.12,-0.25l0.07 -0.48c0.01,-0.1 -0.02,-0.05 -0.04,-0.1z"/>
   <path class="fil7" d="M1.97 3.6c0.16,0.03 0.17,-0.1 0.18,-0.18 0.03,-0.23 0.1,0.1 0.06,-0.63 0,-0.06 -0.01,-0.12 -0.01,-0.17 -0.01,-0.09 0.01,-0.1 -0.05,-0.13 -0.04,0.07 -0.15,1.05 -0.18,1.11z"/>
   <path class="fil8" d="M1.4 3.07c0.25,0.1 0.13,0 0.28,-0.11 0.1,-0.07 0.08,-0.02 0.12,-0.15 0.03,-0.09 0.13,-0.35 0.14,-0.42l-0.11 -0.01c-0.06,0.11 -0.14,0.23 -0.21,0.34 -0.05,0.06 -0.21,0.3 -0.22,0.35z"/>
   <path class="fil9" d="M2.62 3.58c0.08,-0.03 0.12,-0.13 0.09,-0.24 -0.05,-0.16 0.02,-0.14 -0.07,-0.32l-0.19 -0.4c-0.03,-0.06 -0.03,-0.1 -0.09,-0.09l0.26 1.05z"/>
   <path class="fil10" d="M2.31 3.64c0.21,-0.04 0.16,-0.34 0.11,-0.53 -0.03,-0.1 -0.11,-0.51 -0.14,-0.58l0.03 1.11z"/>
   <path class="fil2" d="M2.31 1.78c-0.01,-0.04 0.01,-0.02 -0.03,-0.03 -0.03,-0.01 -0.02,0 -0.05,0.01 -0.04,0.13 -0.18,0.07 -0.15,-0.09 0,-0.07 0.03,-0.09 0.11,-0.09 0.02,0.02 0.03,0.03 0.04,0.08 0.02,0 0.05,0.01 0.09,0.01 -0.06,-0.3 -0.32,-0.21 -0.33,0 -0.02,0.29 0.28,0.35 0.32,0.11z"/>
   <path class="fil3" d="M2.23 1.76c-0.05,-0.02 -0.06,0 -0.11,-0.03 0,-0.08 0.04,-0.06 0.11,-0.07 -0.01,-0.05 -0.02,-0.06 -0.04,-0.08 -0.08,0 -0.11,0.02 -0.11,0.09 -0.03,0.16 0.11,0.22 0.15,0.09z"/>
   <path class="fil2" d="M2.06 1.95c-0.14,0.01 -0.11,0.19 -0.03,0.2 0.1,0 0.11,-0.13 0.03,-0.2z"/>
   <path class="fil4" d="M1.7 3.06l0.01 0c0.02,-0.02 0.02,0.03 0.02,-0.04 -0.02,0.02 -0.01,0 -0.03,0.04z"/>
   <path class="fil4" d="M2.79 3.32l0 0c-0.01,-0.08 0,-0.02 -0.02,-0.04l0.02 0.04z"/>
   <polygon class="fil0" points="1.94,3.32 1.95,3.31 1.96,3.25 "/>
  </g>
 </g>
</svg>
