<?xml version="1.0" encoding="UTF-8"?>
<!DOCTYPE svg PUBLIC "-//W3C//DTD SVG 1.1//EN" "http://www.w3.org/Graphics/SVG/1.1/DTD/svg11.dtd">
<!-- Creator: CorelDRAW 2021 (64 Bit) -->
<svg xmlns="http://www.w3.org/2000/svg" xml:space="preserve" width="330px" height="331px" version="1.1" style="shape-rendering:geometricPrecision; text-rendering:geometricPrecision; image-rendering:optimizeQuality; fill-rule:evenodd; clip-rule:evenodd"
viewBox="0 0 1.49 1.5"
 xmlns:xlink="http://www.w3.org/1999/xlink"
 xmlns:xodm="http://www.corel.com/coreldraw/odm/2003">
 <defs>
  <style type="text/css">
   <![CDATA[
    .fil6 {fill:#003399}
    .fil3 {fill:#030303}
    .fil8 {fill:#1A3724}
    .fil5 {fill:#22A141}
    .fil2 {fill:#32CB98}
    .fil7 {fill:#424242}
    .fil11 {fill:#6B6B6B}
    .fil9 {fill:#999999}
    .fil1 {fill:#B8B4B6}
    .fil4 {fill:#F5B695}
    .fil10 {fill:#FE0000}
    .fil0 {fill:#FEFEFE}
   ]]>
  </style>
 </defs>
 <g id="Camada_x0020_1">
  <metadata id="CorelCorpID_0Corel-Layer"/>
  <g id="_1851200485936">
   <path class="fil0" d="M0.96 0.52l0.03 0c0.01,0.02 0.01,0.03 0,0.06 -0.01,0.03 -0.01,0.03 -0.04,0.04 -0.01,0.04 -0.01,0.07 -0.03,0.1 -0.01,0.02 -0.01,0.02 -0.02,0.04 -0.02,0.01 -0.03,0.01 -0.03,0.04l0.03 -0.03c0.03,0.06 0.03,0.08 0.07,0.1 0.03,0.01 0.07,0.03 0.11,0.05 0.12,0.05 0.1,0.02 0.12,0.2 0.02,0.18 0.04,0.17 -0.12,0.17l-0.65 0c-0.05,0 -0.11,0.02 -0.13,-0.03 -0.01,-0.02 0.02,-0.26 0.03,-0.28 0.01,-0.04 0.06,-0.05 0.1,-0.06 0.04,-0.02 0.08,-0.03 0.12,-0.04 0.02,-0.01 0.04,-0.01 0.05,-0.03 0.01,-0.02 0.02,-0.05 0.02,-0.07 0.01,-0.01 0,-0.01 0.01,-0.01l0 0.01 0.01 0 0 0 0.01 0.01c0,0 0,0 0,0 0.01,0 0.01,0 0.01,0.01 0,-0.03 -0.03,-0.07 -0.05,-0.09 -0.02,-0.05 -0.02,-0.07 -0.03,-0.12 -0.02,0.01 -0.02,0 -0.03,-0.01 0,-0.01 0,0 0,-0.01 0,-0.01 0,-0.02 0,-0.02 -0.01,-0.02 -0.01,-0.05 0.01,-0.06 0.02,-0.01 0.01,0 0.01,0l0.01 -0.01c-0.03,-0.04 -0.03,-0.06 -0.06,-0.11 -0.02,-0.01 -0.03,-0.01 -0.03,-0.03 0.03,0 0.07,0.02 0.1,0.02 0.01,-0.04 0.02,-0.13 0.03,-0.15 0.03,0.01 0.02,0.03 0.06,0.04 0.04,0.01 0.06,-0.01 0.09,-0.01 0.02,0 0.04,0.02 0.08,0.01 0.03,-0.01 0.03,-0.03 0.06,-0.04 0.01,0.03 0.02,0.11 0.03,0.15 0.04,0 0.07,-0.02 0.1,-0.02 -0.01,0.04 -0.02,-0.01 -0.07,0.12 -0.01,0.03 0,0.03 -0.01,0.06zm-0.82 -0.36l0 1.2 1.21 0 0.01 -1.22 -1.22 0 0 0.02z"/>
   <path class="fil1" d="M0.14 0.14l1.22 0 -0.01 1.22 -1.21 0 0 -1.2 0 -0.02zm-0.14 -0.02l0 1.24c0,0.07 0.06,0.14 0.12,0.14l1.24 0c0.02,0 0.04,-0.01 0.05,-0.02 0.05,-0.01 0.08,-0.06 0.08,-0.11l0 -1.24c0,-0.04 -0.02,-0.07 -0.04,-0.1 -0.03,-0.02 -0.07,-0.03 -0.11,-0.03l-1.19 0c-0.08,0 -0.15,0.05 -0.15,0.12z"/>
   <path class="fil2" d="M0.74 1.26c0,-0.02 0.01,-0.21 0,-0.23 0,-0.02 -0.01,0 -0.02,0.02l-0.01 0.01c-0.01,-0.02 -0.09,-0.14 -0.1,-0.16 -0.02,0 -0.22,0.07 -0.24,0.08 -0.02,0.01 -0.02,0.09 -0.02,0.13 -0.01,0.04 -0.02,0.12 -0.01,0.15l0.4 0z"/>
   <path class="fil3" d="M0.74 1.26l-0.4 0c-0.01,-0.03 0,-0.11 0.01,-0.15 0,-0.04 0,-0.12 0.02,-0.13 0.02,-0.01 0.22,-0.08 0.24,-0.08 0.01,0.02 0.09,0.14 0.1,0.16l0.01 -0.01c0.01,-0.02 0.02,-0.04 0.02,-0.02 0.01,0.02 0,0.21 0,0.23zm0.07 -0.23c0.01,0 0.02,0.02 0.03,0.03l0.1 -0.17c0.01,0.01 0.2,0.09 0.2,0.09 0.02,0.01 0.04,0.25 0.03,0.27 -0.03,0.02 -0.25,0.01 -0.3,0.01 -0.06,0 -0.05,0.02 -0.06,-0.09 0,-0.03 -0.01,-0.12 0,-0.14zm-0.07 -0.02l0.03 -0.06c0,0 0,0 0,0l0.04 0.06c-0.01,0.02 -0.01,0.01 -0.01,0.05l0.01 0.21 -0.06 0c0,-0.04 0,-0.09 0,-0.13 0,-0.03 0,-0.05 0,-0.07 0,-0.05 0.01,-0.03 -0.01,-0.06zm-0.1 -0.17l0.11 0.09c-0.01,0.02 -0.03,0.05 -0.04,0.06 -0.01,-0.01 -0.03,-0.05 -0.05,-0.07 -0.01,-0.03 -0.04,-0.04 -0.02,-0.08zm0.25 0c0.03,0.02 0.01,0.05 -0.01,0.08 -0.01,0.02 -0.03,0.05 -0.04,0.07 -0.02,-0.01 -0.04,-0.03 -0.05,-0.05l0.1 -0.1zm-0.27 -0.06c0,0.02 -0.01,0.05 -0.02,0.07 -0.01,0.02 -0.03,0.02 -0.05,0.03 -0.04,0.01 -0.08,0.02 -0.12,0.04 -0.04,0.01 -0.09,0.02 -0.1,0.06 -0.01,0.02 -0.04,0.26 -0.03,0.28 0.02,0.05 0.08,0.03 0.13,0.03l0.65 0c0.16,0 0.14,0.01 0.12,-0.17 -0.02,-0.18 0,-0.15 -0.12,-0.2 -0.04,-0.02 -0.08,-0.04 -0.11,-0.05 -0.04,-0.02 -0.04,-0.04 -0.07,-0.1l-0.03 0.03c0,0.03 0,0.02 -0.02,0.04l-0.08 0.08c-0.02,-0.01 -0.04,-0.03 -0.06,-0.05 -0.05,-0.05 -0.05,-0.03 -0.05,-0.07 -0.01,0 -0.01,0 -0.01,-0.01 0,0 0,0 0,0l-0.01 -0.01 0 0 -0.01 0 0 -0.01 -0.01 0.01z"/>
   <path class="fil2" d="M0.81 1.03c-0.01,0.02 0,0.11 0,0.14 0.01,0.11 0,0.09 0.06,0.09 0.05,0 0.27,0.01 0.3,-0.01 0.01,-0.02 -0.01,-0.26 -0.03,-0.27 0,0 -0.19,-0.08 -0.2,-0.09l-0.1 0.17c-0.01,-0.01 -0.02,-0.03 -0.03,-0.03z"/>
   <path class="fil4" d="M0.8 0.74c-0.02,0.02 -0.04,0.02 -0.06,0l-0.01 -0.01 0 -0.01c0.04,0.01 0.05,0.01 0.08,0l0 0.01 0 0.01 -0.01 0zm0.02 -0.01c0,-0.01 0,-0.01 0.01,-0.01l-0.01 0.01zm-0.11 -0.01c0.02,0 0.01,0 0.02,0.01l-0.02 -0.01zm-0.04 -0.16c0.01,-0.01 0.02,-0.01 0.03,0 0.01,0.03 -0.03,0.04 -0.03,0zm0.2 0.02c-0.01,0.01 -0.02,0.01 -0.03,0 -0.01,-0.02 0.01,-0.02 0.01,-0.02 0.02,-0.02 0.04,0.01 0.02,0.02zm-0.21 0.22c0,-0.01 0,-0.01 -0.01,-0.01 0,0 0,0 0,0l-0.01 -0.01 0 0 -0.01 0 0 -0.01c-0.01,0 0,0 -0.01,0.01l0.01 -0.01 0 0.01 0.01 0 0 0 0.01 0.01c0,0 0,0 0,0 0,0.01 0,0.01 0.01,0.01 0,0.04 0,0.02 0.05,0.07 0.02,0.02 0.04,0.04 0.06,0.05l0.08 -0.08c0.02,-0.02 0.02,-0.01 0.02,-0.04 0,-0.03 0.01,-0.03 0.03,-0.04 0.01,-0.02 0.01,-0.02 0.02,-0.04 0.02,-0.03 0.02,-0.06 0.03,-0.1 0.03,-0.01 0.03,-0.01 0.04,-0.04 0.01,-0.03 0.01,-0.04 0,-0.06l-0.03 0 0 0.01c-0.02,-0.01 -0.02,-0.01 -0.03,-0.02 -0.01,0 0,0 -0.01,0.01 -0.01,0 0,0 -0.01,0 -0.01,0.01 0,0.01 -0.02,0.01 0.01,0.01 0.02,0.02 0.02,0.03 -0.02,0 -0.02,0 -0.03,-0.01 -0.02,-0.01 -0.01,0 -0.03,-0.01l-0.04 0c0,0 0.01,0 -0.01,-0.02 -0.01,0.01 -0.01,0.01 -0.01,0.02 -0.04,-0.01 0,-0.01 -0.04,0 -0.02,-0.01 -0.02,-0.02 -0.04,-0.01 0,0.01 0,0.01 0,0.01 -0.08,0.01 -0.03,0.02 -0.07,0.02 0,-0.03 0.01,-0.01 0.01,-0.03 -0.04,0 -0.02,-0.01 -0.05,-0.02 0,0.01 0,0.01 0,0.01l-0.01 0.01 -0.01 -0.05 -0.01 0.01c0,0 0.01,-0.01 -0.01,0 -0.02,0.01 -0.02,0.04 -0.01,0.06 0,0 0,0.01 0,0.02 0,0.01 0,0 0,0.01 0.01,0.01 0.01,0.02 0.03,0.01 0.01,0.05 0.01,0.07 0.03,0.12 0.02,0.02 0.05,0.06 0.05,0.09z"/>
   <path class="fil5" d="M0.51 0.36c0.09,0.08 0.01,0.16 0.25,0.15 0.06,0 0.13,0 0.18,-0.03 0.03,-0.01 0.02,-0.03 0.04,-0.06 0.02,-0.05 0.03,-0.03 0.04,-0.06 -0.1,0.01 -0.07,0.01 -0.12,0.05 -0.04,0.02 -0.08,0.04 -0.14,0.04 -0.13,0 -0.15,-0.09 -0.25,-0.09z"/>
   <path class="fil5" d="M0.82 0.33c0,0 0,-0.02 0.01,0 0.01,0.02 0,0.01 0,0.02l-0.01 0 0 0 0 0 0.01 0 0 0c0.01,-0.01 0.01,-0.02 0.01,0.01 0,0.02 -0.01,0.02 -0.01,0.03 0,0.01 0,0.02 0,0.03 -0.03,0.01 -0.09,0 -0.12,0 0,-0.01 0,-0.02 0,-0.02 -0.01,-0.01 -0.03,-0.03 -0.01,-0.06 0,-0.01 0,-0.01 0.01,-0.01 0,-0.02 0,-0.03 -0.01,-0.05 0.01,-0.01 0.01,-0.01 0.02,-0.02 -0.05,0 -0.07,-0.01 -0.09,-0.04 -0.01,0.01 0,0 -0.01,0.01l-0.02 0.14c0.03,0.03 0.1,0.07 0.16,0.07 0.04,0 0.07,-0.01 0.1,-0.03 0.01,-0.01 0.03,-0.01 0.04,-0.02 0.01,-0.01 0.02,-0.02 0.03,-0.02l-0.03 -0.14c0,-0.01 0,-0.01 0,0 -0.02,0.01 -0.02,0.02 -0.05,0.03 -0.01,0.01 -0.02,0 -0.03,0l0 0c0,0.02 0,0.01 0.01,0.02 0.01,0.01 0.01,-0.01 0,0.01 0,0.01 0,0.01 -0.01,0l0 0 0 0 0 0 0.01 0.02 -0.01 -0.01 0 0 -0.01 -0.01 0 0c0,0.02 -0.01,0.04 0,0.04l0.01 0c-0.01,0 -0.01,-0.04 0,-0.03 0.01,0.01 0.01,0.01 0,0.03l0 0zm-0.1 -0.07l0 0.01 0 -0.01zm0.11 0.11l0 0 0 0z"/>
   <path class="fil3" d="M0.51 0.36c0.1,0 0.12,0.09 0.25,0.09 0.06,0 0.1,-0.02 0.14,-0.04 0.05,-0.04 0.02,-0.04 0.12,-0.05 -0.01,0.03 -0.02,0.01 -0.04,0.06 -0.02,0.03 -0.01,0.05 -0.04,0.06 -0.05,0.03 -0.12,0.03 -0.18,0.03 -0.24,0.01 -0.16,-0.07 -0.25,-0.15zm0.3 -0.1c0,-0.01 0,0 0.01,0l0 0 0.03 0c0.03,-0.01 0.03,-0.02 0.05,-0.03 0,-0.01 0,-0.01 0,0l0.03 0.14c-0.01,0 -0.02,0.01 -0.03,0.02 -0.01,0.01 -0.03,0.01 -0.04,0.02 -0.03,0.02 -0.06,0.03 -0.1,0.03 -0.06,0 -0.13,-0.04 -0.16,-0.07l0.02 -0.14 0.01 -0.01 0 0c0.02,0.03 0.04,0.04 0.09,0.04 -0.01,0.01 -0.01,0.01 -0.02,0.02 0.01,0.02 0.01,0.03 0.01,0.05l-0.01 0.01c-0.02,0.03 0,0.05 0.01,0.06 0,0 0,0.01 0,0.02 0.03,0 0.09,0.01 0.12,0 0,-0.01 0,-0.02 0,-0.03 0,-0.01 0.01,-0.01 0.01,-0.03l-0.01 0 0 0.01 0 0c0,0.01 0.01,0.02 0,0l0 -0.02 -0.01 0c0,0.03 0,0.02 -0.01,0.04l-0.01 0 -0.01 0 0 0 -0.01 0 -0.01 0.01 0 0 0 0 0.02 0 0.02 -0.01 0.02 -0.01c-0.01,0.01 0,0.01 -0.02,0.01l0 0.01 0.01 0.01c-0.02,0 -0.04,0 -0.05,0 -0.01,0 -0.04,0.01 -0.05,0 0,-0.01 0,-0.01 0,-0.01 0,0 0,0 -0.01,-0.01 -0.01,-0.01 -0.01,-0.01 -0.02,-0.04 0,0 0,0 0.01,0 0.01,-0.01 0,0 0,-0.01l0.01 -0.01 0 -0.01 0 -0.02 -0.01 -0.02 0.02 -0.01 0 -0.01 0.03 0.01 0 -0.01c-0.01,0 -0.01,0 -0.01,0l-0.01 0c0.03,-0.02 0.04,-0.01 0.07,-0.01l0.01 0.01c-0.01,-0.01 -0.01,-0.01 -0.01,0l0.01 0zm-0.23 0.22l0.01 0.05 0.01 -0.01c0,-0.01 0,-0.01 0,-0.01 0.04,-0.01 0.07,0.02 0.26,0.01 0.03,-0.01 0.05,-0.02 0.05,-0.02 0.03,0 0.02,0 0.02,0.01 0.01,0.01 0.01,0.01 0.03,0.02l0 -0.01c0.01,-0.03 0,-0.03 0.01,-0.06 0.05,-0.13 0.06,-0.08 0.07,-0.12 -0.03,0 -0.06,0.02 -0.1,0.02 -0.01,-0.04 -0.02,-0.12 -0.03,-0.15 -0.03,0.01 -0.03,0.03 -0.06,0.04 -0.04,0.01 -0.06,-0.01 -0.08,-0.01 -0.03,0 -0.05,0.02 -0.09,0.01 -0.04,-0.01 -0.03,-0.03 -0.06,-0.04 -0.01,0.02 -0.02,0.11 -0.03,0.15 -0.03,0 -0.07,-0.02 -0.1,-0.02 0,0.02 0.01,0.02 0.03,0.03 0.03,0.05 0.03,0.07 0.06,0.11z"/>
   <path class="fil6" d="M0.74 1.01c0.02,0.03 0.01,0.01 0.01,0.06 0,0.02 0,0.04 0,0.07 0,0.04 0,0.09 0,0.13l0.06 0 -0.01 -0.21c0,-0.04 0,-0.03 0.01,-0.05l-0.04 -0.06c0,0 0,0 0,0l-0.03 0.06z"/>
   <path class="fil0" d="M0.76 0.3c0.02,0.01 0.01,0 0.02,0.02l0.02 0c-0.01,0.02 -0.01,0 -0.01,0.02 -0.01,0.01 0,0.01 0,0.02 -0.02,0 -0.02,0 -0.03,0 -0.01,0 0,0 -0.02,0 0,-0.04 0,-0.01 -0.01,-0.04l0.02 0 0.01 -0.02zm-0.05 0.05l0 0 0 0.01 0 0.01 0 0c0.02,0.01 0.01,0.01 0.01,0.01l0.04 0.01 0.02 0 0.01 0c0,0 -0.01,0 0,0l0.01 0c0,-0.01 0,0 0.01,0 0.01,-0.02 0.01,-0.01 0.01,-0.04l0 0 -0.01 -0.02c-0.01,0 0,-0.02 0,-0.04 0,0 0,0 0,0l0 -0.01 -0.02 0 -0.01 0 -0.01 -0.01 -0.01 0c-0.02,0.01 -0.02,0.01 -0.03,0.01 -0.01,0 -0.01,0 -0.01,0.01 0,0.03 0.01,0 -0.01,0.06z"/>
   <path class="fil2" d="M0.79 0.94c0.01,0.02 0.03,0.04 0.05,0.05 0.01,-0.02 0.03,-0.05 0.04,-0.07 0.02,-0.03 0.04,-0.06 0.01,-0.08l-0.1 0.1z"/>
   <path class="fil2" d="M0.64 0.84c-0.02,0.04 0.01,0.05 0.02,0.08 0.02,0.02 0.04,0.06 0.05,0.07 0.01,-0.01 0.03,-0.04 0.04,-0.06l-0.11 -0.09z"/>
   <path class="fil7" d="M0.6 0.52c0,0 0,0 0,-0.01 0.03,0.01 0.01,0.02 0.05,0.02l0.05 0.01c0,0 0,-0.01 0,0l0.01 -0.01c0.02,-0.01 0.02,0 0.04,0.01 0.04,-0.01 0,-0.01 0.04,0 0,-0.01 0,-0.01 0.01,-0.02 0.02,0.02 0.01,0.02 0.01,0.02l0.04 0 0.04 -0.01c0.02,0 0.01,0 0.02,-0.01 0.01,0 0,0 0.01,0 0.01,-0.01 0,-0.01 0.01,-0.01 0,-0.01 0.01,-0.01 -0.02,-0.01 0,0 -0.02,0.01 -0.05,0.02 -0.19,0.01 -0.22,-0.02 -0.26,-0.01 0,0 0,0 0,0.01z"/>
   <path class="fil8" d="M0.71 0.3l0 0.02c0,0 0,0.01 0,0 0,-0.03 0.01,-0.01 0,-0.02zm0 0.05c0.02,-0.06 0.01,-0.03 0.01,-0.06 0,-0.01 0,-0.01 0.01,-0.01 0.01,0 0.01,0 0.03,-0.01 0.01,0 0,0 0.01,0l0.01 0.01 0 -0.01 -0.01 0 0 0c-0.01,0 -0.03,0 -0.05,0l-0.01 0.02c0.01,0.02 0.01,0.03 0,0.05 0,0.02 0,0 0,0.01zm0.06 -0.09l0 0.01 0.03 0 0 -0.01c0,-0.01 0,-0.01 0.01,0l-0.01 -0.01c0,0.02 0,0.01 -0.02,0.01l-0.02 -0.01 -0.01 0.01 0 0.01c0.01,-0.01 0.01,-0.01 0.02,-0.01zm0.05 0.03c0.01,0.01 0.01,0.01 0.01,0 0.01,-0.02 0.01,0 0,-0.01 -0.01,-0.01 -0.01,0 -0.01,-0.02 -0.01,0 -0.01,-0.01 -0.01,0 0,0 0,0 0,0.01 0,0 0,0 0,0 0.01,0.01 0.01,0.01 0.01,0.02zm0.03 -0.03l-0.03 0c0.01,0 0.02,0.01 0.03,0zm-0.03 0.04l0.01 0.01 -0.01 -0.02 0 0.01zm0 0.03c0.01,-0.02 0.01,-0.02 0,-0.03l0 0.03zm0.01 0.02c0,-0.01 0.01,0 0,-0.02 -0.01,-0.02 -0.01,0 -0.01,0l0.01 0.02zm0 0.01l0.01 0c0,-0.03 0,-0.02 -0.01,-0.01l0 0.01zm-0.01 -0.03l-0.01 0 0.01 0.02 0 0 0 -0.02zm-0.11 0.03l0 -0.01c-0.01,-0.01 -0.01,0.01 -0.01,0.02 0,0 0.01,-0.01 0.01,-0.01zm0 0.01l0 0c0,0.01 -0.01,-0.01 0,0.01 0,0.01 0,0 0.01,0l-0.01 -0.01zm0 0.02c0.01,0.01 0.01,0.01 0.01,0.01 0,0 0,0 0,0.01 0.01,0 0,0 0,-0.01 0.02,0 0.01,0 0.03,0l0.01 -0.01 -0.04 -0.01 -0.01 0.01zm-0.02 -0.04c0.01,0.01 0.01,0.01 0.01,0 -0.01,0 -0.01,0 -0.01,0zm0.01 -0.01c0.01,0 0.01,0 0.01,-0.01l-0.01 0.01zm0 0l0.01 -0.01c-0.01,0 -0.01,0 -0.01,0.01z"/>
   <path class="fil9" d="M0.71 0.37l0 -0.01c0,0 -0.01,0.01 -0.01,0.01 0,-0.01 0,-0.03 0.01,-0.02l0 0c0,-0.01 0,0.01 0,-0.01 0.01,-0.02 0.01,-0.03 0,-0.05l0.01 -0.02c0.02,0 0.04,0 0.05,0l0 0 0.01 0 0.01 0c0.02,0 0.02,0 0.03,0.02l0 0c0,-0.01 0,-0.01 -0.01,-0.02 0,0 0,0 0,0 0,-0.01 0,-0.01 0,-0.01l-0.01 0 0 0.01 -0.03 0 0 -0.01c-0.01,0 -0.01,0 -0.02,0.01l-0.03 -0.01 0 0.01 -0.02 0.01 0.01 0.02c0.01,0.01 0,-0.01 0,0.02 0,0.01 0,0 0,0l0 0.01c0,0.01 0,0.01 -0.01,0.01 0,0.01 0.01,0 0,0.01 0,0.01 0,0.01 -0.01,0 0.01,0.03 0.01,0.03 0.02,0.04l0.01 -0.01c0,0 0.01,0 -0.01,-0.01l0.01 0.01c-0.01,0 -0.01,0.01 -0.01,0 -0.01,-0.02 0,0 0,-0.01zm0.11 -0.07l0 0 0 -0.01 0 0 0 0.01zm0 0.03l0 0.02 0.01 0 -0.01 -0.02 0 0 0 -0.03c-0.01,-0.01 -0.01,0.03 0,0.03zm0.01 0.04l0 0 0 -0.01 0 -0.01 0 0 0 0.02c0.01,0.02 0,0.01 0,0zm-0.02 0.02l0 0c0.02,0 0.01,0 0.02,-0.01l-0.02 0.01zm0 -0.1l0 0c0,0 0,0 0,0z"/>
   <path class="fil8" d="M0.74 0.32c0.02,0 0.02,0 0.02,-0.01 0.01,0.01 0,0.01 0.03,0.01 -0.02,0.03 0,0.02 -0.01,0.03 -0.01,0 0,-0.01 -0.03,0 0,-0.02 0,-0.01 -0.01,-0.03zm0.01 0l-0.02 0c0.01,0.03 0.01,0 0.01,0.04 0.02,0 0.01,0 0.02,0 0.01,0 0.01,0 0.03,0 0,-0.01 -0.01,-0.01 0,-0.02 0,-0.02 0,0 0.01,-0.02l-0.02 0c-0.01,-0.02 0,-0.01 -0.02,-0.02l-0.01 0.02z"/>
   <path class="fil0" d="M0.72 0.4c0,0.01 0.01,0.01 0,0.01 0.01,0.01 0.04,0 0.05,0 0.01,0 0.03,0 0.05,0l-0.01 -0.01c0,0 -0.01,0 -0.01,0 -0.02,0 -0.01,0 -0.01,0l-0.02 0 0 0c-0.01,0 -0.02,0 -0.02,0 -0.02,0 -0.01,0 -0.03,0z"/>
   <path class="fil3" d="M0.85 0.56c0,0 -0.02,0 -0.01,0.02 0.01,0.01 0.02,0.01 0.03,0 0.02,-0.01 0,-0.04 -0.02,-0.02z"/>
   <path class="fil9" d="M0.65 0.53c0,0.02 -0.01,0 -0.01,0.03 0.04,0 -0.01,-0.01 0.07,-0.02 0,0 0,0 0,-0.01l-0.01 0.01c0,-0.01 0,0 0,0l-0.05 -0.01z"/>
   <path class="fil3" d="M0.67 0.56c0,0.04 0.04,0.03 0.03,0 -0.01,-0.01 -0.02,-0.01 -0.03,0z"/>
   <path class="fil10" d="M0.74 0.32c0.01,0.02 0.01,0.01 0.01,0.03 0.03,-0.01 0.02,0 0.03,0 0.01,-0.01 -0.01,0 0.01,-0.03 -0.03,0 -0.02,0 -0.03,-0.01 0,0.01 0,0.01 -0.02,0.01z"/>
   <path class="fil9" d="M0.85 0.54c0.02,0.01 0.01,0 0.03,0.01 0.01,0.01 0.01,0.01 0.03,0.01 0,-0.01 -0.01,-0.02 -0.02,-0.03l-0.04 0.01z"/>
   <polygon class="fil11" points="0.74,0.74 0.8,0.74 0.81,0.74 0.81,0.73 0.73,0.73 "/>
   <path class="fil5" d="M0.75 0.26l0.01 -0.01 0.02 0.01c0.02,0 0.02,0.01 0.02,-0.01 -0.03,0 -0.04,-0.01 -0.07,0.01l0.01 0c0,0 0,0 0.01,0zm0.05 0l0 0.01 0 -0.01zm-0.03 0.01l0 -0.01 0 0.01zm0 0l0 0 0 0zm-0.01 0l0.01 0c-0.01,0 0,0 -0.01,0z"/>
   <path class="fil0" d="M0.8 0.74l-0.06 0c0.02,0.02 0.04,0.02 0.06,0z"/>
   <path class="fil0" d="M0.73 0.73l0.08 0 0 -0.01c-0.03,0.01 -0.04,0.01 -0.08,0l0 0.01z"/>
   <path class="fil7" d="M0.81 0.39c-0.01,0 -0.01,-0.01 -0.01,0l0.01 0zm-0.02 0.01c0,0 -0.01,0 0.01,0 0,0 0.01,0 0.01,0l0 -0.01 0 0 -0.02 0.01zm0 -0.01l0 0c-0.01,0 0,0 0,0z"/>
   <path class="fil8" d="M0.81 0.29l0.01 0.01 0 -0.01 0 0c-0.01,-0.02 -0.01,-0.02 -0.03,-0.02l0 0.01 0.02 0 0 0.01z"/>
   <path class="fil11" d="M0.77 0.4l0 0 0.01 -0.01 -0.02 0 -0.01 0.01c0,0 0.01,0 0.02,0z"/>
   <polygon class="fil7" points="0.79,0.28 0.79,0.27 0.78,0.27 0.78,0.28 "/>
   <path class="fil1" d="M0.73 0.73c-0.01,-0.01 0,-0.01 -0.02,-0.01l0.02 0.01z"/>
   <path class="fil1" d="M0.83 0.72c-0.01,0 -0.01,0 -0.01,0.01l0.01 -0.01z"/>
   <path class="fil8" d="M0.62 0.23c0.01,-0.01 0,0 0.01,-0.01l0 0 -0.01 0.01z"/>
  </g>
 </g>
</svg>
