<?xml version="1.0" encoding="UTF-8"?>
<!DOCTYPE svg PUBLIC "-//W3C//DTD SVG 1.1//EN" "http://www.w3.org/Graphics/SVG/1.1/DTD/svg11.dtd">
<!-- Creator: CorelDRAW 2021 (64 Bit) -->
<svg xmlns="http://www.w3.org/2000/svg" xml:space="preserve" width="400px" height="400px" version="1.1" style="shape-rendering:geometricPrecision; text-rendering:geometricPrecision; image-rendering:optimizeQuality; fill-rule:evenodd; clip-rule:evenodd"
viewBox="0 0 2.53 2.53"
 xmlns:xlink="http://www.w3.org/1999/xlink"
 xmlns:xodm="http://www.corel.com/coreldraw/odm/2003">
 <defs>
  <style type="text/css">
   <![CDATA[
    .str1 {stroke:black;stroke-width:0.06;stroke-miterlimit:22.9256}
    .str0 {stroke:#B8B4B6;stroke-width:0.19;stroke-miterlimit:22.9256}
    .str4 {stroke:black;stroke-width:0.03;stroke-miterlimit:22.9256}
    .str2 {stroke:black;stroke-width:0.04;stroke-miterlimit:22.9256}
    .str3 {stroke:black;stroke-width:0.07;stroke-miterlimit:22.9256}
    .fil1 {fill:none}
    .fil6 {fill:#00CCFF}
    .fil4 {fill:lime}
    .fil8 {fill:aqua}
    .fil7 {fill:#99FFFF}
    .fil3 {fill:red}
    .fil5 {fill:fuchsia}
    .fil2 {fill:#FF6600}
    .fil0 {fill:white}
   ]]>
  </style>
 </defs>
 <g id="Camada_x0020_1">
  <metadata id="CorelCorpID_0Corel-Layer"/>
  <g id="_2069817910928">
   <path class="fil0 str0" d="M0.2 0.09l2.13 0c0.06,0 0.1,0.06 0.1,0.12l0 2.11c0,0.06 -0.04,0.11 -0.1,0.11l-2.13 0c-0.06,0 -0.1,-0.05 -0.1,-0.11 0,-0.26 -0.01,-2.04 0,-2.13 0,-0.05 0.06,-0.1 0.1,-0.1z"/>
   <g>
    <line class="fil1 str1" x1="0.7" y1="0.93" x2="1.83" y2= "0.95" />
    <rect class="fil1 str1" x="0.73" y="1.29" width="0.35" height="0.36"/>
    <line class="fil1 str2" x1="1.98" y1="1.05" x2="1.97" y2= "1.96" />
    <line class="fil1 str2" x1="0.55" y1="1.04" x2="0.55" y2= "1.95" />
    <line class="fil1 str2" x1="1.27" y1="0.89" x2="1.26" y2= "2.06" />
    <line class="fil1 str1" x1="0.91" y1="0.94" x2="0.9" y2= "1.29" />
    <line class="fil1 str2" x1="0.9" y1="1.66" x2="0.91" y2= "1.86" />
    <rect class="fil1 str3" x="0.41" y="0.84" width="0.29" height="0.19"/>
    <rect class="fil1 str3" x="1.83" y="0.86" width="0.29" height="0.19"/>
    <ellipse class="fil1 str4" transform="matrix(0.358086 0.151429 -0.147539 0.349627 0.8828 0.529513)" rx="0.3" ry="0.31"/>
    <path class="fil1 str1" d="M0.99 0.48l0.04 -0.17c-0.02,-0.02 -0.04,-0.03 -0.07,-0.03l-0.1 0.15"/>
    <path class="fil1 str1" d="M0.79 0.58l-0.04 0.17c0.02,0.02 0.04,0.03 0.07,0.03l0.1 -0.14"/>
    <path class="fil1 str1" d="M0.93 0.43l-0.1 -0.15c-0.02,0 -0.04,0 -0.06,0.03l0.03 0.17"/>
    <path class="fil1 str1" d="M0.86 0.64l0.09 0.14c0.02,0.01 0.05,0 0.07,-0.02l-0.03 -0.18"/>
    <path class="fil1 str1" d="M0.78 0.5l-0.15 0.09c0,0.03 0.01,0.05 0.03,0.07l0.18 -0.03"/>
    <path class="fil1 str1" d="M0.99 0.57l0.15 -0.09c0,-0.03 -0.01,-0.05 -0.03,-0.07l-0.17 0.03"/>
    <path class="fil1 str1" d="M0.83 0.44l-0.17 -0.04c-0.02,0.01 -0.03,0.03 -0.02,0.06l0.14 0.11"/>
    <path class="fil1 str1" d="M0.93 0.63l0.17 0.04c0.02,-0.01 0.03,-0.03 0.03,-0.06l-0.14 -0.11"/>
    <line class="fil1 str1" x1="1.08" y1="1.49" x2="1.43" y2= "1.49" />
    <rect class="fil1 str1" x="1.43" y="1.29" width="0.35" height="0.36"/>
    <line class="fil1 str1" x1="1.79" y1="1.49" x2="1.97" y2= "1.49" />
    <line class="fil1 str1" x1="1.61" y1="1.31" x2="1.6" y2= "0.94" />
    <line class="fil1 str2" x1="1.62" y1="1.65" x2="1.63" y2= "1.86" />
    <circle class="fil1 str2" cx="1.62" cy="2.05" r="0.08"/>
    <path class="fil1 str2" d="M1.67 1.98l-0.02 -0.12c-0.01,-0.01 -0.03,-0.01 -0.05,0l-0.03 0.13"/>
    <path class="fil1 str2" d="M1.57 2.11l0.02 0.12c0.02,0.01 0.04,0.01 0.05,0l0.03 -0.12"/>
    <path class="fil1 str2" d="M1.62 1.97l-0.11 -0.08c-0.01,0.01 -0.03,0.02 -0.03,0.04l0.06 0.11"/>
    <path class="fil1 str2" d="M1.63 2.13l0.1 0.07c0.02,-0.01 0.03,-0.02 0.04,-0.04l-0.07 -0.11"/>
    <path class="fil1 str2" d="M1.54 2.05l-0.07 0.11c0,0.01 0.02,0.03 0.04,0.03l0.1 -0.06"/>
    <path class="fil1 str2" d="M1.7 2.04l0.07 -0.1c0,-0.02 -0.02,-0.03 -0.04,-0.04l-0.1 0.07"/>
    <path class="fil1 str2" d="M1.56 2l-0.13 0.02c-0.01,0.02 -0.01,0.03 0,0.05l0.13 0.03"/>
    <path class="fil1 str2" d="M1.68 2.1l0.12 -0.02c0.01,-0.02 0.01,-0.03 0,-0.05l-0.12 -0.03"/>
    <rect class="fil1 str2" x="1.87" y="1.96" width="0.21" height="0.19"/>
    <line class="fil1 str2" x1="1.81" y1="2.05" x2="1.87" y2= "2.05" />
    <rect class="fil1 str2" x="0.45" y="1.95" width="0.21" height="0.19"/>
    <line class="fil1 str2" x1="0.66" y1="2.05" x2="0.71" y2= "2.05" />
    <circle class="fil1 str2" cx="0.9" cy="2.05" r="0.08"/>
    <path class="fil1 str2" d="M0.96 1.99l-0.02 -0.12c-0.02,-0.01 -0.04,-0.01 -0.06,0l-0.02 0.12"/>
    <path class="fil1 str2" d="M0.85 2.11l0.03 0.13c0.01,0.01 0.03,0.01 0.05,0l0.03 -0.13"/>
    <path class="fil1 str2" d="M0.9 1.97l-0.1 -0.07c-0.02,0.01 -0.03,0.02 -0.04,0.04l0.07 0.11"/>
    <path class="fil1 str2" d="M0.91 2.13l0.11 0.07c0.01,0 0.02,-0.01 0.03,-0.03l-0.07 -0.11"/>
    <path class="fil1 str2" d="M0.82 2.06l-0.07 0.1c0.01,0.02 0.02,0.03 0.04,0.04l0.11 -0.07"/>
    <path class="fil1 str2" d="M0.98 2.05l0.07 -0.1c0,-0.02 -0.01,-0.03 -0.03,-0.04l-0.11 0.07"/>
    <path class="fil1 str2" d="M0.84 2.01l-0.12 0.02c-0.01,0.01 -0.01,0.03 0,0.05l0.12 0.03"/>
    <path class="fil1 str2" d="M0.96 2.11l0.12 -0.02c0.01,-0.02 0.01,-0.04 0,-0.05l-0.12 -0.03"/>
    <line class="fil1 str1" x1="0.56" y1="1.49" x2="0.73" y2= "1.49" />
    <line class="fil1 str2" x1="1.09" y1="2.06" x2="1.44" y2= "2.06" />
    <ellipse class="fil1 str4" transform="matrix(0.358086 0.151429 -0.147539 0.349627 1.65563 0.551743)" rx="0.3" ry="0.31"/>
    <path class="fil1 str1" d="M1.76 0.5l0.04 -0.17c-0.01,-0.02 -0.04,-0.03 -0.06,-0.02l-0.11 0.14"/>
    <path class="fil1 str1" d="M1.56 0.6l-0.03 0.17c0.01,0.02 0.03,0.03 0.06,0.03l0.11 -0.14"/>
    <path class="fil1 str1" d="M1.7 0.45l-0.09 -0.15c-0.03,0 -0.05,0.01 -0.07,0.03l0.03 0.17"/>
    <path class="fil1 str1" d="M1.63 0.66l0.09 0.15c0.03,0 0.05,-0.01 0.07,-0.03l-0.03 -0.17"/>
    <path class="fil1 str1" d="M1.55 0.52l-0.14 0.09c-0.01,0.03 0,0.05 0.03,0.07l0.17 -0.03"/>
    <path class="fil1 str1" d="M1.76 0.59l0.15 -0.09c0.01,-0.03 0,-0.05 -0.02,-0.07l-0.18 0.03"/>
    <path class="fil1 str1" d="M1.61 0.46l-0.17 -0.04c-0.02,0.01 -0.03,0.04 -0.03,0.06l0.14 0.11"/>
    <path class="fil1 str1" d="M1.71 0.66l0.17 0.03c0.02,-0.01 0.02,-0.03 0.02,-0.06l-0.14 -0.1"/>
    <circle class="fil1 str2" cx="1.26" cy="0.7" r="0.08"/>
    <path class="fil1 str2" d="M1.32 0.64l-0.02 -0.12c-0.02,-0.01 -0.04,-0.01 -0.05,0l-0.03 0.12"/>
    <path class="fil1 str2" d="M1.21 0.76l0.03 0.13c0.01,0.01 0.03,0.01 0.05,0l0.03 -0.13"/>
    <path class="fil1 str2" d="M1.26 0.62l-0.1 -0.07c-0.02,0.01 -0.03,0.02 -0.04,0.04l0.07 0.11"/>
    <path class="fil1 str2" d="M1.27 0.78l0.11 0.07c0.01,0 0.03,-0.01 0.03,-0.03l-0.07 -0.11"/>
    <path class="fil1 str2" d="M1.18 0.71l-0.07 0.1c0.01,0.02 0.02,0.03 0.04,0.04l0.11 -0.07"/>
    <path class="fil1 str2" d="M1.34 0.7l0.07 -0.1c0,-0.02 -0.01,-0.03 -0.03,-0.04l-0.11 0.07"/>
    <path class="fil1 str2" d="M1.2 0.65l-0.12 0.03c-0.01,0.01 -0.01,0.03 0,0.05l0.12 0.03"/>
    <path class="fil1 str2" d="M1.32 0.76l0.13 -0.02c0,-0.02 0,-0.04 0,-0.05l-0.13 -0.03"/>
    <line class="fil1 str1" x1="0.7" y1="0.93" x2="1.83" y2= "0.95" />
    <rect class="fil2 str1" x="0.73" y="1.29" width="0.35" height="0.36"/>
    <line class="fil1 str2" x1="1.98" y1="1.05" x2="1.97" y2= "1.96" />
    <line class="fil1 str2" x1="0.55" y1="1.04" x2="0.55" y2= "1.95" />
    <line class="fil1 str2" x1="1.27" y1="0.89" x2="1.26" y2= "2.06" />
    <line class="fil1 str1" x1="0.91" y1="0.94" x2="0.9" y2= "1.29" />
    <line class="fil1 str2" x1="0.9" y1="1.66" x2="0.91" y2= "1.86" />
    <rect class="fil3 str3" x="0.41" y="0.84" width="0.29" height="0.19"/>
    <rect class="fil3 str3" x="1.83" y="0.86" width="0.29" height="0.19"/>
    <ellipse class="fil4 str4" transform="matrix(0.358086 0.151429 -0.147539 0.349627 0.8828 0.529513)" rx="0.3" ry="0.31"/>
    <path class="fil1 str1" d="M0.99 0.48l0.04 -0.17c-0.02,-0.02 -0.04,-0.03 -0.07,-0.03l-0.1 0.15"/>
    <path class="fil1 str1" d="M0.79 0.58l-0.04 0.17c0.02,0.02 0.04,0.03 0.07,0.03l0.1 -0.14"/>
    <path class="fil1 str1" d="M0.93 0.43l-0.1 -0.15c-0.02,0 -0.04,0 -0.06,0.03l0.03 0.17"/>
    <path class="fil1 str1" d="M0.86 0.64l0.09 0.14c0.02,0.01 0.05,0 0.07,-0.02l-0.03 -0.18"/>
    <path class="fil1 str1" d="M0.78 0.5l-0.15 0.09c0,0.03 0.01,0.05 0.03,0.07l0.18 -0.03"/>
    <path class="fil1 str1" d="M0.99 0.57l0.15 -0.09c0,-0.03 -0.01,-0.05 -0.03,-0.07l-0.17 0.03"/>
    <path class="fil1 str1" d="M0.83 0.44l-0.17 -0.04c-0.02,0.01 -0.03,0.03 -0.02,0.06l0.14 0.11"/>
    <path class="fil1 str1" d="M0.93 0.63l0.17 0.04c0.02,-0.01 0.03,-0.03 0.03,-0.06l-0.14 -0.11"/>
    <line class="fil1 str1" x1="1.08" y1="1.49" x2="1.43" y2= "1.49" />
    <rect class="fil5 str1" x="1.43" y="1.29" width="0.35" height="0.36"/>
    <line class="fil1 str1" x1="1.79" y1="1.49" x2="1.97" y2= "1.49" />
    <line class="fil1 str1" x1="1.61" y1="1.31" x2="1.6" y2= "0.94" />
    <line class="fil1 str2" x1="1.62" y1="1.65" x2="1.63" y2= "1.86" />
    <circle class="fil3 str2" cx="1.62" cy="2.05" r="0.08"/>
    <path class="fil1 str2" d="M1.67 1.98l-0.02 -0.12c-0.01,-0.01 -0.03,-0.01 -0.05,0l-0.03 0.13"/>
    <path class="fil1 str2" d="M1.57 2.11l0.02 0.12c0.02,0.01 0.04,0.01 0.05,0l0.03 -0.12"/>
    <path class="fil1 str2" d="M1.62 1.97l-0.11 -0.08c-0.01,0.01 -0.03,0.02 -0.03,0.04l0.06 0.11"/>
    <path class="fil1 str2" d="M1.63 2.13l0.1 0.07c0.02,-0.01 0.03,-0.02 0.04,-0.04l-0.07 -0.11"/>
    <path class="fil1 str2" d="M1.54 2.05l-0.07 0.11c0,0.01 0.02,0.03 0.04,0.03l0.1 -0.06"/>
    <path class="fil1 str2" d="M1.7 2.04l0.07 -0.1c0,-0.02 -0.02,-0.03 -0.04,-0.04l-0.1 0.07"/>
    <path class="fil1 str2" d="M1.56 2l-0.13 0.02c-0.01,0.02 -0.01,0.03 0,0.05l0.13 0.03"/>
    <path class="fil1 str2" d="M1.68 2.1l0.12 -0.02c0.01,-0.02 0.01,-0.03 0,-0.05l-0.12 -0.03"/>
    <rect class="fil6 str2" x="1.87" y="1.96" width="0.21" height="0.19"/>
    <line class="fil1 str2" x1="1.81" y1="2.05" x2="1.87" y2= "2.05" />
    <rect class="fil7 str2" x="0.45" y="1.95" width="0.21" height="0.19"/>
    <line class="fil1 str2" x1="0.66" y1="2.05" x2="0.71" y2= "2.05" />
    <circle class="fil3 str2" cx="0.9" cy="2.05" r="0.08"/>
    <path class="fil1 str2" d="M0.96 1.99l-0.02 -0.12c-0.02,-0.01 -0.04,-0.01 -0.06,0l-0.02 0.12"/>
    <path class="fil1 str2" d="M0.85 2.11l0.03 0.13c0.01,0.01 0.03,0.01 0.05,0l0.03 -0.13"/>
    <path class="fil1 str2" d="M0.9 1.97l-0.1 -0.07c-0.02,0.01 -0.03,0.02 -0.04,0.04l0.07 0.11"/>
    <path class="fil1 str2" d="M0.91 2.13l0.11 0.07c0.01,0 0.02,-0.01 0.03,-0.03l-0.07 -0.11"/>
    <path class="fil1 str2" d="M0.82 2.06l-0.07 0.1c0.01,0.02 0.02,0.03 0.04,0.04l0.11 -0.07"/>
    <path class="fil1 str2" d="M0.98 2.05l0.07 -0.1c0,-0.02 -0.01,-0.03 -0.03,-0.04l-0.11 0.07"/>
    <path class="fil1 str2" d="M0.84 2.01l-0.12 0.02c-0.01,0.01 -0.01,0.03 0,0.05l0.12 0.03"/>
    <path class="fil1 str2" d="M0.96 2.11l0.12 -0.02c0.01,-0.02 0.01,-0.04 0,-0.05l-0.12 -0.03"/>
    <line class="fil1 str1" x1="0.56" y1="1.49" x2="0.73" y2= "1.49" />
    <line class="fil1 str2" x1="1.09" y1="2.06" x2="1.44" y2= "2.06" />
    <ellipse class="fil4 str4" transform="matrix(0.358086 0.151429 -0.147539 0.349627 1.65563 0.551743)" rx="0.3" ry="0.31"/>
    <path class="fil1 str1" d="M1.76 0.5l0.04 -0.17c-0.01,-0.02 -0.04,-0.03 -0.06,-0.02l-0.11 0.14"/>
    <path class="fil1 str1" d="M1.56 0.6l-0.03 0.17c0.01,0.02 0.03,0.03 0.06,0.03l0.11 -0.14"/>
    <path class="fil1 str1" d="M1.7 0.45l-0.09 -0.15c-0.03,0 -0.05,0.01 -0.07,0.03l0.03 0.17"/>
    <path class="fil1 str1" d="M1.63 0.66l0.09 0.15c0.03,0 0.05,-0.01 0.07,-0.03l-0.03 -0.17"/>
    <path class="fil1 str1" d="M1.55 0.52l-0.14 0.09c-0.01,0.03 0,0.05 0.03,0.07l0.17 -0.03"/>
    <path class="fil1 str1" d="M1.76 0.59l0.15 -0.09c0.01,-0.03 0,-0.05 -0.02,-0.07l-0.18 0.03"/>
    <path class="fil1 str1" d="M1.61 0.46l-0.17 -0.04c-0.02,0.01 -0.03,0.04 -0.03,0.06l0.14 0.11"/>
    <path class="fil1 str1" d="M1.71 0.66l0.17 0.03c0.02,-0.01 0.02,-0.03 0.02,-0.06l-0.14 -0.1"/>
    <circle class="fil8 str2" cx="1.26" cy="0.7" r="0.08"/>
    <path class="fil1 str2" d="M1.32 0.64l-0.02 -0.12c-0.02,-0.01 -0.04,-0.01 -0.05,0l-0.03 0.12"/>
    <path class="fil1 str2" d="M1.21 0.76l0.03 0.13c0.01,0.01 0.03,0.01 0.05,0l0.03 -0.13"/>
    <path class="fil1 str2" d="M1.26 0.62l-0.1 -0.07c-0.02,0.01 -0.03,0.02 -0.04,0.04l0.07 0.11"/>
    <path class="fil1 str2" d="M1.27 0.78l0.11 0.07c0.01,0 0.03,-0.01 0.03,-0.03l-0.07 -0.11"/>
    <path class="fil1 str2" d="M1.18 0.71l-0.07 0.1c0.01,0.02 0.02,0.03 0.04,0.04l0.11 -0.07"/>
    <path class="fil1 str2" d="M1.34 0.7l0.07 -0.1c0,-0.02 -0.01,-0.03 -0.03,-0.04l-0.11 0.07"/>
    <path class="fil1 str2" d="M1.2 0.65l-0.12 0.03c-0.01,0.01 -0.01,0.03 0,0.05l0.12 0.03"/>
    <path class="fil1 str2" d="M1.32 0.76l0.13 -0.02c0,-0.02 0,-0.04 0,-0.05l-0.13 -0.03"/>
   </g>
  </g>
 </g>
</svg>
