<?xml version="1.0" encoding="UTF-8"?>
<!DOCTYPE svg PUBLIC "-//W3C//DTD SVG 1.1//EN" "http://www.w3.org/Graphics/SVG/1.1/DTD/svg11.dtd">
<!-- Creator: CorelDRAW 2021 (64 Bit) -->
<svg xmlns="http://www.w3.org/2000/svg" xml:space="preserve" width="400px" height="400px" version="1.1" style="shape-rendering:geometricPrecision; text-rendering:geometricPrecision; image-rendering:optimizeQuality; fill-rule:evenodd; clip-rule:evenodd"
viewBox="0 0 178.62 178.62"
 xmlns:xlink="http://www.w3.org/1999/xlink"
 xmlns:xodm="http://www.corel.com/coreldraw/odm/2003">
 <defs>
  <style type="text/css">
   <![CDATA[
    .str0 {stroke:#C4C4C4;stroke-width:13.4;stroke-miterlimit:22.9256}
    .str1 {stroke:#373435;stroke-width:7.14;stroke-miterlimit:22.9256}
    .fil4 {fill:none}
    .fil2 {fill:#FFF212}
    .fil3 {fill:#ED3237}
    .fil1 {fill:#00A859}
    .fil9 {fill:black}
    .fil8 {fill:#333333}
    .fil6 {fill:#B8B4B6}
    .fil7 {fill:#D2D3D5}
    .fil5 {fill:#FDFDFD}
    .fil0 {fill:white}
   ]]>
  </style>
 </defs>
 <g id="Camada_x0020_1">
  <metadata id="CorelCorpID_0Corel-Layer"/>
  <g id="_2069751262320">
   <circle class="fil0 str0" cx="89.31" cy="89.31" r="82.61"/>
   <g>
    <g>
     <rect class="fil1 str1" x="70.14" y="62.3" width="9.3" height="16.54"/>
     <rect class="fil2 str1" x="86.55" y="62.56" width="9.3" height="16.54"/>
     <rect class="fil3 str1" x="102.69" y="62.3" width="9.3" height="16.54"/>
     <polygon class="fil4 str1" points="54.04,49.66 54,90.3 127.59,90.3 127.59,48.69 125.89,28.49 112.07,28.32 104.2,49.23 95.31,49.23 95.31,40.16 75.91,48.34 76.01,40.69 "/>
     <line class="fil4 str1" x1="104.2" y1="49.23" x2="127.59" y2= "49.23" />
    </g>
    <g>
     <path class="fil5" d="M107.35 112.86c0.76,2.53 -1.18,4.57 -2.46,5.33 -3.75,2.21 -8.3,0.42 -14.1,1.07 -2.01,0.23 -5.03,0.89 -6.9,0.85l-0.17 -2.28c3.7,-0.54 7.88,-1.26 11.63,-1.15 2.1,0.05 3.9,0.49 6.07,0.22 2.14,-0.26 3.01,-0.83 3.86,-2.47 0.22,-4.15 -3.3,-7.02 -6.94,-7.4 -2.34,-0.25 -8.92,1.43 -11.57,1.94 -4.4,0.84 -7.29,2.04 -11.57,0.18 -3.6,-1.57 -5.47,-3.48 -10.12,-3l0.01 31.46c7.56,-1.11 9.89,-0.3 16.32,2.26 6.8,2.71 8.6,3.27 15.43,0.16 2.19,-0.99 4.52,-2.33 6.51,-3.5 2.13,-1.25 4.2,-2.51 6.19,-3.83 4.09,-2.7 8.12,-5.23 12.1,-7.98l14.93 -10.2c1.01,-0.71 2.41,-1.27 2.51,-2.65 0.13,-1.81 -3.27,-5.34 -4.2,-6.1 -5.83,-4.87 -9.64,-2.29 -14.37,0.03l-9.93 5.05c-0.61,0.31 -1.13,0.54 -1.74,0.86 -1.9,0.99 -1.2,0.51 -1.49,1.15z"/>
     <path class="fil6" d="M46.43 101.69c0.02,-0.02 0.09,-0.11 0.12,-0.06l1.36 -0.14c2.19,0.03 11.12,-0.21 11.86,0.17l0.08 38.87c-1.12,0.28 -12.43,0.28 -13.37,-0.02l-0.05 -38.82zm17.73 -3.82c-0.28,-0.33 -0.39,-0.36 -0.69,-0.65 -0.3,-0.29 -0.32,-0.4 -0.65,-0.68 -0.33,0.22 -0.08,0.16 -0.52,0 -0.4,-0.14 -0.66,-0.51 -1.74,-0.67 -1.34,-0.19 -14.17,-0.13 -15.02,0.03 -5.8,1.06 -4.39,9.59 -4.39,15.39l0 26.91c0,2.43 0.01,3.82 1.04,5.66 0.66,1.17 2.01,2.2 3.93,2.39 3.54,0.35 8.51,0.03 12.21,0.04 3.73,0.01 6.88,-1.46 6.76,-6.16l0 -2.52 -0.01 -31.46 0 -2.52c0.18,-2.14 -0.15,-4.94 -1.74,-6.27 -0.55,-0.46 -0.87,-0.24 -0.35,-0.61 0.31,0.66 0.57,0.81 1.17,1.12z"/>
     <path class="fil7" d="M46.48 140.51c0.94,0.3 12.25,0.3 13.37,0.02l-0.08 -38.87c-0.74,-0.38 -9.67,-0.14 -11.86,-0.17l-1.36 0.14c-0.03,-0.05 -0.1,0.04 -0.12,0.06l0.05 38.82z"/>
     <path class="fil8" d="M65.08 103.63l0 2.52c4.65,-0.48 6.52,1.43 10.12,3 4.28,1.86 7.17,0.66 11.57,-0.18 2.65,-0.51 9.23,-2.19 11.57,-1.94 3.64,0.38 7.16,3.25 6.94,7.4l0.3 -1.19 1.51 -0.86c-0.02,0.03 0.03,0.16 0.05,0.19l0.21 0.29c0.29,-0.64 -0.41,-0.16 1.49,-1.15 0.61,-0.32 1.13,-0.55 1.74,-0.86l9.93 -5.05c4.73,-2.32 8.54,-4.9 14.37,-0.03 0.93,0.76 4.33,4.29 4.2,6.1 -0.1,1.38 -1.5,1.94 -2.51,2.65l-14.93 10.2c-3.98,2.75 -8.01,5.28 -12.1,7.98 -1.99,1.32 -4.06,2.58 -6.19,3.83 -1.99,1.17 -4.32,2.51 -6.51,3.5 -6.83,3.11 -8.63,2.55 -15.43,-0.16 -6.43,-2.56 -8.76,-3.37 -16.32,-2.26l0 2.52c8.58,-1.06 9.99,-0.09 17.17,2.75 7.29,2.89 9.89,2.09 16.45,-1 6.58,-3.11 20.42,-12.47 26.37,-16.54 4.24,-2.91 8.57,-5.8 12.82,-8.77 1.24,-0.87 2.21,-1.28 2.9,-2.53 0.78,-1.44 0.84,-3.05 0.04,-4.57 -2.53,-4.77 -7.11,-8.81 -12.43,-8.96 -3.27,-0.09 -5.48,1.29 -7.94,2.5 -2.36,1.17 -12.79,6.74 -14.17,7.16 -0.59,-0.67 -0.94,-1.42 -1.55,-2.1 -0.46,-0.5 -1.11,-1.28 -1.74,-1.82 -4.12,-3.53 -10.9,-0.89 -16.42,0.2 -4.34,0.86 -6.87,2.06 -11.02,0.14 -3.32,-1.54 -6.08,-3.54 -10.49,-2.96z"/>
     <path class="fil9" d="M105.28 114.43c-0.85,1.64 -1.72,2.21 -3.86,2.47 -2.17,0.27 -3.97,-0.17 -6.07,-0.22 -3.75,-0.11 -7.93,0.61 -11.63,1.15l0.17 2.28c1.87,0.04 4.89,-0.62 6.9,-0.85 5.8,-0.65 10.35,1.14 14.1,-1.07 1.28,-0.76 3.22,-2.8 2.46,-5.33l-0.21 -0.29c-0.02,-0.03 -0.07,-0.16 -0.05,-0.19l-1.51 0.86 -0.3 1.19z"/>
    </g>
   </g>
  </g>
 </g>
</svg>
