<?xml version="1.0" encoding="UTF-8"?>
<!DOCTYPE svg PUBLIC "-//W3C//DTD SVG 1.1//EN" "http://www.w3.org/Graphics/SVG/1.1/DTD/svg11.dtd">
<!-- Creator: CorelDRAW 2021 (64 Bit) -->
<svg xmlns="http://www.w3.org/2000/svg" xml:space="preserve" width="301px" height="300px" version="1.1" style="shape-rendering:geometricPrecision; text-rendering:geometricPrecision; image-rendering:optimizeQuality; fill-rule:evenodd; clip-rule:evenodd"
viewBox="0 0 6.13 6.11"
 xmlns:xlink="http://www.w3.org/1999/xlink"
 xmlns:xodm="http://www.corel.com/coreldraw/odm/2003">
 <defs>
  <style type="text/css">
   <![CDATA[
    .fil3 {fill:black}
    .fil2 {fill:#8A8A8A}
    .fil1 {fill:#B7B3B5}
    .fil0 {fill:#FDFDFD}
    .fil4 {fill:red}
   ]]>
  </style>
 </defs>
 <g id="Camada_x0020_1">
  <metadata id="CorelCorpID_0Corel-Layer"/>
  <g id="_1882801573280">
   <path class="fil0" d="M1.32 3.93c0.26,-0.02 0.52,-0.06 0.78,-0.09 0.45,-0.04 0.32,-0.08 0.55,0.21l0.75 0.93c-0.04,0.07 -0.16,0.15 -0.22,0.2 -0.12,-0.11 -0.27,-0.32 -0.38,-0.45 -0.13,-0.16 -0.24,-0.29 -0.37,-0.46 -0.09,-0.11 -0.07,-0.17 -0.25,-0.14l-0.54 0.07c-0.14,0.02 -0.2,-0.08 -0.32,-0.27zm1.15 -0.4c-0.03,0.04 -0.04,0.05 -0.11,0.05l-1.22 0.15c-0.03,-0.05 -0.08,-0.12 -0.12,-0.15 -0.03,-0.03 -0.02,-0.01 -0.05,-0.05 0,-0.01 -0.01,-0.03 -0.01,-0.04 0,-0.02 0.04,-0.03 0.09,-0.03l0.99 -0.12c-0.05,-0.11 -0.14,-0.23 -0.21,-0.37 -0.47,-0.99 0.5,-2.18 1.66,-1.86 0.54,0.16 0.94,0.58 1,1.22 0.05,0.52 -0.17,0.85 -0.45,1.17 -0.08,0.1 -0.2,0.21 -0.09,0.34 0.07,-0.04 0.15,-0.17 0.24,-0.22l-0.02 0.65 -0.46 0.06c-0.01,0.05 0.01,0.07 0.03,0.12 0.07,0.06 0.1,0.09 0.14,0.18 -0.1,0.05 -0.15,0.12 -0.26,0.17 -0.04,-0.08 -0.16,-0.21 -0.23,-0.29l-0.71 -0.89 0.4 -1.1 0.17 0.2c0.07,0.1 -0.15,0.5 -0.22,0.76 -0.02,0.09 0.05,0.14 0.11,0.21 0.07,0.09 0.4,0.52 0.47,0.56l0.11 -0.14c-0.05,-0.08 -0.16,-0.15 -0.18,-0.31 -0.02,-0.22 0.18,-0.45 0.32,-0.62 0.51,-0.63 0.29,-1.32 -0.18,-1.61 -0.93,-0.59 -2.13,0.47 -1.37,1.54 0.13,-0.19 0.27,-0.94 0.38,-1.07 0.06,0.05 0.21,0.21 0.19,0.3 -0.06,0.24 -0.37,0.94 -0.41,1.19zm-1.89 -2.97c0,0.29 -0.04,4.83 0,4.99l4.98 0 0 -4.99 -4.98 0z"/>
   <path class="fil1" d="M0.57 0.56l4.99 0 -0.01 4.99 -4.97 0c-0.04,-0.16 -0.01,-4.7 -0.01,-4.99zm-0.57 0.07l0 4.99c0,0.24 0.26,0.49 0.51,0.49l5.13 0c0.28,0 0.49,-0.29 0.49,-0.61l0 -4.89c0,-0.32 -0.22,-0.61 -0.49,-0.61l-5.15 0c-0.29,0 -0.49,0.31 -0.49,0.63z"/>
   <path class="fil2" d="M1.01 3.58l-0.04 -0.09 0.07 -0.03c-0.04,0 -0.09,0.01 -0.09,0.03 0,0.01 0.01,0.03 0.02,0.04 0.03,0.04 0.01,0.02 0.04,0.05z"/>
   <path class="fil2" d="M2.36 3.58c0.07,0 0.07,0 0.11,-0.05l-0.11 0.05z"/>
   <path class="fil2" d="M3.74 4.45c-0.03,-0.05 -0.05,-0.06 -0.04,-0.12l0.01 0.08c0,0.01 0,0.01 0.01,0.02l0.02 0.02z"/>
   <g>
    <path class="fil3" d="M1.23 3.44l-0.08 0.03 0.05 0.09c0.05,0.04 0.1,0.1 0.12,0.15l1.22 -0.15 0.11 -0.05c0.04,-0.25 0.35,-0.95 0.41,-1.19 0.02,-0.09 -0.12,-0.25 -0.19,-0.3 -0.11,0.13 -0.25,0.88 -0.38,1.07 -0.76,-1.07 0.44,-2.13 1.38,-1.54 0.46,0.29 0.68,0.99 0.17,1.61 -0.14,0.17 -0.33,0.4 -0.32,0.63 0.02,0.15 0.13,0.22 0.18,0.3l-0.11 0.14c-0.07,-0.04 -0.39,-0.47 -0.47,-0.56 -0.06,-0.07 -0.13,-0.12 -0.1,-0.21 0.06,-0.26 0.28,-0.66 0.21,-0.76l-0.17 -0.19 -0.39 1.09 0.71 0.89c0.06,0.08 0.18,0.21 0.22,0.3 0.11,-0.06 0.16,-0.13 0.26,-0.18 -0.04,-0.09 -0.07,-0.12 -0.13,-0.18l-0.03 -0.02c0,-0.01 0,-0.01 -0.01,-0.02l0 -0.08 0.46 -0.06 0.02 -0.65c-0.09,0.05 -0.16,0.18 -0.23,0.22 -0.12,-0.13 0,-0.24 0.08,-0.34 0.28,-0.32 0.5,-0.64 0.45,-1.17 -0.05,-0.64 -0.46,-1.06 -1,-1.22 -1.15,-0.32 -2.12,0.87 -1.65,1.86 0.06,0.14 0.15,0.26 0.2,0.37l-0.99 0.12z"/>
    <path class="fil4" d="M1.5 3.91c0.12,0.19 0.18,0.29 0.32,0.27l0.54 -0.07c0.18,-0.03 0.16,0.03 0.25,0.14 0.13,0.17 0.24,0.3 0.37,0.46 0.11,0.13 0.26,0.34 0.38,0.45 0.07,-0.05 0.18,-0.13 0.23,-0.19l-0.75 -0.94c-0.24,-0.29 -0.1,-0.25 -0.56,-0.21 -0.26,0.03 -0.52,0.07 -0.78,0.09z"/>
   </g>
  </g>
 </g>
</svg>
