<?xml version="1.0" encoding="UTF-8"?>
<!DOCTYPE svg PUBLIC "-//W3C//DTD SVG 1.1//EN" "http://www.w3.org/Graphics/SVG/1.1/DTD/svg11.dtd">
<!-- Creator: CorelDRAW 2021 (64 Bit) -->
<svg xmlns="http://www.w3.org/2000/svg" xml:space="preserve" width="400px" height="400px" version="1.1" style="shape-rendering:geometricPrecision; text-rendering:geometricPrecision; image-rendering:optimizeQuality; fill-rule:evenodd; clip-rule:evenodd"
viewBox="0 0 2.53 2.53"
 xmlns:xlink="http://www.w3.org/1999/xlink"
 xmlns:xodm="http://www.corel.com/coreldraw/odm/2003">
 <defs>
  <style type="text/css">
   <![CDATA[
    .str0 {stroke:#B8B4B6;stroke-width:0.19;stroke-miterlimit:22.9256}
    .str7 {stroke:#F5A980;stroke-width:0.03;stroke-miterlimit:22.9256}
    .str6 {stroke:black;stroke-width:0.01;stroke-miterlimit:22.9256}
    .str12 {stroke:#DBDBDB;stroke-width:0.01;stroke-miterlimit:22.9256}
    .str4 {stroke:#F5A980;stroke-width:0.01;stroke-miterlimit:22.9256}
    .str1 {stroke:#FA0505;stroke-width:0.01;stroke-miterlimit:22.9256}
    .str2 {stroke:#030303;stroke-width:0.05;stroke-miterlimit:22.9256}
    .str3 {stroke:#030303;stroke-width:0.01;stroke-miterlimit:22.9256}
    .str10 {stroke:#F5A980;stroke-width:0.01;stroke-miterlimit:22.9256}
    .str11 {stroke:#F5A980;stroke-width:0.02;stroke-miterlimit:22.9256}
    .str8 {stroke:#DBDBDB;stroke-width:0.01;stroke-miterlimit:22.9256}
    .str13 {stroke:#F5A980;stroke-width:0.01;stroke-miterlimit:22.9256}
    .str9 {stroke:#E1E1E1;stroke-width:0.01;stroke-miterlimit:22.9256}
    .str5 {stroke:#454545;stroke-width:0.09;stroke-linecap:round;stroke-miterlimit:22.9256}
    .fil2 {fill:none}
    .fil5 {fill:black}
    .fil3 {fill:black}
    .fil7 {fill:#666666}
    .fil6 {fill:#999999}
    .fil9 {fill:#CCCCCC}
    .fil8 {fill:#F5A980}
    .fil4 {fill:#F5B796}
    .fil0 {fill:white}
    .fil1 {fill:white}
   ]]>
  </style>
 </defs>
 <g id="Camada_x0020_1">
  <metadata id="CorelCorpID_0Corel-Layer"/>
  <path class="fil0 str0" d="M0.2 0.09l2.13 0c0.06,0 0.1,0.06 0.1,0.12l0 2.11c0,0.06 -0.04,0.11 -0.1,0.11l-2.13 0c-0.06,0 -0.1,-0.05 -0.1,-0.11 0,-0.26 -0.01,-2.04 0,-2.13 0,-0.05 0.06,-0.1 0.1,-0.1z"/>
  <g id="_2069580935920">
   <g>
    <g>
     <polygon class="fil1 str1" points="0.94,1.28 0.83,1.47 0.76,1.36 0.91,1.21 "/>
     <polygon class="fil1 str1" points="0.58,1.29 0.69,1.47 0.76,1.36 0.6,1.2 "/>
     <path class="fil1 str1" d="M0.57 1.29l0.12 0.19 0.02 -0.04 0.02 0.02 0 0.3c-0.15,0 -0.3,0 -0.45,0 -0.02,0.01 -0.03,-0.02 -0.03,-0.04 0,-0.04 0.01,-0.16 0.02,-0.27 0,-0.05 0.01,-0.05 0.04,-0.06 0.06,-0.02 0.25,-0.1 0.26,-0.1z"/>
     <path class="fil1 str1" d="M0.94 1.28l-0.11 0.2 -0.02 -0.04 -0.02 0.02 0.01 0.3c0.15,0 0.24,0.01 0.39,0.01 0.04,0 0.05,-0.01 0.05,-0.05 0,-0.04 -0.01,-0.16 -0.02,-0.27 -0.01,-0.03 -0.01,-0.05 -0.04,-0.06 -0.05,-0.02 -0.23,-0.1 -0.24,-0.11z"/>
     <path class="fil2 str2" d="M1.2 1.77l-0.92 0c-0.02,0 -0.04,-0.02 -0.04,-0.05 0.01,-0.09 0.02,-0.19 0.03,-0.28 0,-0.02 0.01,-0.04 0.03,-0.05l0.28 -0.1 0.02 -0.09 0.16 0.16 0.14 -0.16 0.04 0.08 0.25 0.12c0.02,0 0.03,0.02 0.03,0.04 0.01,0.1 0.02,0.19 0.02,0.28 0.01,0.03 -0.01,0.05 -0.04,0.05z"/>
     <polyline class="fil2 str2" points="0.58,1.29 0.69,1.47 0.76,1.36 0.83,1.47 0.94,1.29 "/>
     <polygon class="fil3 str3" points="0.81,1.45 0.76,1.37 0.71,1.45 0.74,1.47 0.73,1.77 0.81,1.77 0.79,1.47 "/>
    </g>
    <path class="fil4 str4" d="M0.64 1.22l0.12 0.12 0.11 -0.12 0 -0.05c-0.02,0.03 -0.05,0.05 -0.07,0.08 -0.02,0.01 -0.06,0.01 -0.08,0l-0.09 -0.08 0.01 0.05z"/>
    <path class="fil4 str4" d="M0.98 0.87c0,0 -0.01,0.01 -0.01,0.02l0 -0.03 -0.06 -0.04 0 -0.1 -0.08 0 -0.07 0.02 -0.07 -0.03 -0.09 0.01 -0.01 0.08 -0.04 0.06c0,-0.01 -0.01,-0.02 -0.01,-0.03 -0.01,0 -0.02,0 -0.02,0 -0.01,0 -0.01,0.01 -0.01,0.02 -0.01,0.01 0,0.03 0,0.04l0.01 0.05c0,0.01 0,0.01 0.01,0.01 0.01,0 0.01,0 0.02,-0.01 0,0.04 0.01,0.07 0.02,0.11 0.01,0.04 0.04,0.08 0.06,0.12 0.03,0.02 0.06,0.05 0.09,0.08 0.03,0.02 0.05,0.02 0.08,0 0.04,-0.04 0.08,-0.08 0.11,-0.12 0.02,-0.02 0.03,-0.05 0.04,-0.07 0,-0.03 0.01,-0.06 0.01,-0.09 0.01,0 0.01,0.01 0.01,0.01 0.01,0 0.02,-0.01 0.02,-0.01 0.01,-0.03 0.02,-0.05 0.03,-0.08 0,-0.01 -0.01,-0.01 -0.01,-0.02 -0.01,0 -0.02,-0.01 -0.03,0z"/>
    <g>
     <path class="fil5" d="M0.85 0.9c-0.01,0 -0.02,0.01 -0.01,0.03 0,0.01 0.01,0.02 0.02,0.01 0.03,0 0.02,-0.05 -0.01,-0.04z"/>
     <path class="fil5" d="M0.66 0.9c-0.03,0.01 -0.02,0.05 0.01,0.04 0.01,0 0.02,-0.01 0.02,-0.02 0,-0.02 -0.02,-0.02 -0.03,-0.02z"/>
     <line class="fil2 str5" x1="0.61" y1="0.84" x2="0.72" y2= "0.85" />
     <path class="fil3 str6" d="M0.6 0.8l-0.05 0.06c-0.02,-0.05 -0.03,-0.11 -0.01,-0.2 0.01,-0.08 0.05,-0.11 0.1,-0.12 0.09,-0.01 0.16,-0.01 0.23,0 0.06,0.02 0.1,0.07 0.1,0.12 0.02,0.08 0.01,0.12 0,0.2 -0.02,-0.01 -0.04,-0.03 -0.06,-0.05 -0.01,-0.03 -0.01,-0.06 0,-0.09 -0.03,0.01 -0.05,0 -0.08,0 -0.04,0.03 -0.1,0.03 -0.14,0 -0.03,0 -0.06,0 -0.09,0 0,0.02 0,0.05 0,0.08z"/>
     <line class="fil2 str5" x1="0.9" y1="0.84" x2="0.79" y2= "0.85" />
     <path class="fil6" d="M0.85 0.9c0,-0.01 0.01,-0.02 0.04,-0.02 0.01,0 0.02,0.01 0.03,0.02 0,0 0,0.01 0,0.01l-0.01 0.01c-0.02,-0.02 -0.04,-0.02 -0.06,-0.02z"/>
     <path class="fil6" d="M0.68 0.9c0.01,-0.01 -0.01,-0.02 -0.04,-0.02 -0.01,0 -0.02,0.01 -0.03,0.02 0,0 0,0.01 0,0.01l0.01 0.01c0.02,-0.02 0.04,-0.02 0.06,-0.02z"/>
    </g>
    <path class="fil2 str7" d="M0.81 0.87l-0.02 0.02 -0.01 0.03 0 0.05 0 0.03 0.02 0.03c0.01,0.01 0,0.01 0,0.01l-0.03 0.03c-0.01,0 -0.01,0 -0.02,0l-0.04 -0.03 0 -0.01 0.02 -0.03 0 -0.03 -0.01 -0.05 -0.01 -0.03 -0.02 -0.02"/>
    <g>
     <path class="fil7" d="M0.82 1.11l-0.13 -0.01c0,0.01 0,0.01 0,0.01l0.03 0.03c0.01,0 0.02,0.01 0.04,0.01 0.01,0 0.02,-0.01 0.04,-0.01l0.03 -0.03c0,0 0,0 -0.01,0z"/>
     <g>
      <path class="fil1 str8" d="M0.71 1.1l0 0.01c0,0 0.01,0.01 0.01,0.01 0.01,0 0.01,0 0.01,0 0.01,0 0.01,0 0.01,0 0.01,0 0.01,0 0.02,0 0,0 0.01,0 0.02,0 0,0 0,0 0.01,0 0,0 0.01,0 0.01,0l0 0c0.01,0 0.01,-0.01 0.01,-0.01l0 -0.01c-0.03,0 -0.06,0 -0.1,0z"/>
      <line class="fil2 str9" x1="0.78" y1="1.1" x2="0.78" y2= "1.12" />
      <line class="fil2 str9" x1="0.79" y1="1.1" x2="0.79" y2= "1.12" />
      <line class="fil2 str9" x1="0.8" y1="1.1" x2="0.8" y2= "1.12" />
      <line class="fil2 str9" x1="0.72" y1="1.11" x2="0.72" y2= "1.12" />
      <line class="fil2 str9" x1="0.73" y1="1.11" x2="0.73" y2= "1.12" />
      <line class="fil2 str9" x1="0.74" y1="1.11" x2="0.74" y2= "1.12" />
      <line class="fil2 str9" x1="0.76" y1="1.11" x2="0.76" y2= "1.12" />
      <path class="fil2 str10" d="M0.72 1.15l-0.04 -0.04c0,-0.01 0.01,-0.02 0.02,-0.01 0.04,0 0.08,0 0.12,0 0.02,0 0.02,0 0.01,0.01l-0.03 0.04c-0.03,0.02 -0.05,0.02 -0.08,0z"/>
     </g>
    </g>
    <polyline class="fil2 str4" points="0.7,1.2 0.73,1.19 0.76,1.18 0.79,1.19 0.82,1.2 "/>
    <path class="fil2 str11" d="M0.53 0.92c-0.01,-0.01 -0.01,-0.03 -0.01,-0.06 0.01,-0.02 0.01,-0.01 0.01,-0.01 0.01,0.02 0.01,0.03 0.01,0.05"/>
    <path class="fil2 str11" d="M0.98 0.89c0,-0.01 0,-0.02 0.01,-0.02 0.01,0 0.02,0.01 0.02,0.02 -0.01,0.03 -0.02,0.05 -0.03,0.05"/>
    <path class="fil2 str10" d="M0.81 0.93c0.01,0 0.01,0 0.02,0.01 0.02,0.01 0.03,0.02 0.07,-0.01 0.01,-0.01 0.01,0 0.03,-0.01"/>
    <path class="fil2 str10" d="M0.71 0.93c-0.01,0 -0.01,0 -0.02,0.01 -0.01,0.01 -0.02,0.02 -0.06,-0.01 -0.01,-0.01 -0.01,0 -0.03,-0.01"/>
    <path class="fil2 str10" d="M0.61 0.92c0,0 0.01,0.01 0.01,0 0.03,-0.03 0.06,-0.03 0.07,-0.01 0.01,0 0.01,0.01 0.02,0.01"/>
    <path class="fil2 str10" d="M0.93 0.92c-0.01,0 -0.02,0.01 -0.02,0 -0.04,-0.03 -0.06,-0.03 -0.08,-0.01 -0.01,0 -0.01,0.01 -0.02,0.01"/>
    <path class="fil8 str4" d="M0.83 1.11c-0.06,0.05 -0.1,0.04 -0.15,-0.01 0.04,0.07 0.1,0.08 0.15,0.01z"/>
    <path class="fil9 str4" d="M0.71 1.1c0,0 -0.02,0 -0.03,0 0,0 0.01,0 0.01,0.01 0.01,0.01 0.02,0.01 0.03,0.02l-0.01 -0.03z"/>
    <path class="fil9 str4" d="M0.81 1.1c0,0 0.02,0 0.03,0 0,0.01 -0.02,0.02 -0.03,0.03l0 -0.03z"/>
    <path class="fil1" d="M0.75 1.14c-0.01,0 -0.02,0 -0.03,-0.01 0.01,0 0.01,0 0.01,0 0.01,0 0.01,0 0.01,0 0.01,0 0.02,0 0.02,0 0,0.01 0,0 0.02,0 0,0 -0.01,0 0.01,0 0,0 -0.01,0 0.01,0 -0.01,0.01 -0.02,0.01 -0.02,0.01 -0.01,0 -0.02,0 -0.03,0z"/>
    <path class="fil2 str12" d="M0.72 1.13c0,0 0.01,0 0.01,0 0,0 0.01,0 0.01,0 0.01,0 0.01,0 0.02,0 0.01,0 0.01,0 0.02,0 0,0 0,0 0.01,0 0,0 0.01,0 0.01,0"/>
    <line class="fil2 str8" x1="0.73" y1="1.13" x2="0.73" y2= "1.14" />
    <line class="fil2 str8" x1="0.74" y1="1.13" x2="0.74" y2= "1.14" />
    <line class="fil2 str8" x1="0.76" y1="1.13" x2="0.76" y2= "1.14" />
    <line class="fil2 str8" x1="0.78" y1="1.13" x2="0.78" y2= "1.14" />
    <line class="fil2 str8" x1="0.79" y1="1.13" x2="0.79" y2= "1.14" />
    <path class="fil8 str13" d="M0.75 1.08c0,0 -0.01,0 -0.01,0 -0.02,0.01 -0.03,0.01 -0.05,0.02 0,0 -0.01,0 0,0 0,0 0.02,0 0.03,0 0.02,0.01 0.06,0.01 0.09,0 0.01,0 0.02,0 0.02,0 0.01,0 0.01,0 0,0 -0.02,-0.01 -0.04,-0.01 -0.05,-0.01 0,0 -0.01,-0.01 -0.01,-0.01 -0.01,0.01 -0.01,0.01 -0.02,0z"/>
   </g>
   <g>
    <g>
     <polygon class="fil1 str1" points="1.94,1.27 1.84,1.46 1.77,1.35 1.91,1.2 "/>
     <polygon class="fil1 str1" points="1.58,1.28 1.7,1.46 1.76,1.35 1.6,1.19 "/>
     <path class="fil1 str1" d="M1.58 1.28l0.12 0.19 0.02 -0.03 0.02 0.02 -0.01 0.29c-0.15,0 -0.3,0.01 -0.45,0.01 -0.02,0 -0.03,-0.03 -0.03,-0.04 0,-0.05 0.01,-0.17 0.02,-0.28 0,-0.05 0.01,-0.05 0.05,-0.06 0.05,-0.02 0.24,-0.1 0.26,-0.1z"/>
     <path class="fil1 str1" d="M1.94 1.28l-0.1 0.19 -0.02 -0.03 -0.02 0.01 0 0.31c0.15,0 0.24,0 0.39,0 0.04,0 0.05,-0.01 0.05,-0.04 0,-0.05 -0.01,-0.17 -0.02,-0.28 0,-0.03 0,-0.05 -0.03,-0.06 -0.06,-0.02 -0.23,-0.1 -0.25,-0.1z"/>
     <path class="fil2 str2" d="M2.2 1.76l-0.92 0c-0.02,0 -0.04,-0.02 -0.03,-0.05 0,-0.09 0.01,-0.19 0.02,-0.28 0,-0.02 0.01,-0.04 0.03,-0.04l0.28 -0.11 0.03 -0.09 0.15 0.16 0.15 -0.16 0.03 0.08 0.26 0.12c0.01,0.01 0.02,0.02 0.02,0.04 0.01,0.1 0.02,0.19 0.03,0.28 0,0.03 -0.02,0.05 -0.05,0.05z"/>
     <polyline class="fil2 str2" points="1.58,1.28 1.7,1.46 1.76,1.35 1.84,1.46 1.94,1.28 "/>
     <polygon class="fil3 str3" points="1.81,1.44 1.76,1.36 1.72,1.44 1.74,1.46 1.73,1.76 1.82,1.76 1.8,1.46 "/>
    </g>
    <path class="fil4 str4" d="M1.64 1.21l0.12 0.13 0.12 -0.13 -0.01 -0.05c-0.02,0.03 -0.05,0.05 -0.07,0.08 -0.01,0.01 -0.06,0.02 -0.08,0l-0.08 -0.08 0 0.05z"/>
    <path class="fil4 str4" d="M1.99 0.86c-0.01,0 -0.01,0.01 -0.02,0.02l0.01 -0.03 -0.07 -0.04 0 -0.1 -0.08 0 -0.07 0.02 -0.07 -0.02 -0.09 0 -0.01 0.08 -0.04 0.06c0,-0.01 -0.01,-0.02 -0.01,-0.02 0,-0.01 -0.01,-0.01 -0.02,-0.01 0,0 -0.01,0.01 -0.01,0.02 0,0.02 0,0.03 0,0.04l0.01 0.05c0,0.01 0.01,0.02 0.02,0.01 0,0.01 0,0 0.01,-0.01 0,0.04 0.01,0.08 0.02,0.11 0.02,0.04 0.04,0.08 0.06,0.12 0.03,0.03 0.06,0.05 0.09,0.08 0.03,0.02 0.05,0.02 0.08,0 0.04,-0.04 0.08,-0.08 0.11,-0.12 0.02,-0.02 0.03,-0.04 0.04,-0.07 0.01,-0.03 0.01,-0.06 0.02,-0.09 0,0.01 0,0.01 0.01,0.01 0,0 0.01,0 0.02,-0.01 0.01,-0.03 0.01,-0.05 0.02,-0.08 0,-0.01 -0.01,-0.01 -0.01,-0.02 -0.01,0 -0.02,0 -0.02,0z"/>
    <g>
     <path class="fil5" d="M1.86 0.89c-0.02,0 -0.02,0.01 -0.02,0.03 0,0.01 0.01,0.02 0.03,0.02 0.02,-0.01 0.02,-0.06 -0.01,-0.05z"/>
     <path class="fil5" d="M1.66 0.89c-0.03,0.01 -0.01,0.05 0.01,0.05 0.01,-0.01 0.02,-0.02 0.02,-0.03 0,-0.01 -0.01,-0.02 -0.03,-0.02z"/>
     <line class="fil2 str5" x1="1.61" y1="0.83" x2="1.73" y2= "0.84" />
     <path class="fil3 str6" d="M1.6 0.79l-0.05 0.06c-0.01,-0.05 -0.03,-0.11 -0.01,-0.2 0.01,-0.08 0.05,-0.11 0.1,-0.12 0.09,-0.01 0.17,-0.01 0.24,0.01 0.05,0.02 0.09,0.07 0.1,0.11 0.02,0.08 0.01,0.13 0,0.2 -0.02,-0.01 -0.05,-0.03 -0.07,-0.04 0,-0.04 0,-0.07 0,-0.1 -0.03,0.01 -0.05,0.01 -0.08,0 -0.03,0.03 -0.1,0.03 -0.14,0 -0.03,0 -0.06,0.01 -0.09,0 0.01,0.03 0.01,0.05 0,0.08z"/>
     <line class="fil2 str5" x1="1.9" y1="0.83" x2="1.79" y2= "0.84" />
     <path class="fil6" d="M1.85 0.89c0,-0.01 0.02,-0.02 0.04,-0.02 0.02,0 0.03,0.01 0.03,0.02 0,0 0.01,0.01 0,0.01l-0.01 0.01c-0.01,-0.02 -0.03,-0.02 -0.06,-0.02z"/>
     <path class="fil6" d="M1.68 0.89c0.01,-0.01 -0.01,-0.02 -0.03,-0.02 -0.02,0 -0.03,0.01 -0.04,0.02 0,0 0,0.01 0,0.01l0.01 0.01c0.02,-0.02 0.04,-0.02 0.06,-0.02z"/>
    </g>
    <path class="fil2 str7" d="M1.81 0.87l-0.02 0.01 0 0.03 -0.01 0.06 0.01 0.02 0.02 0.04c0,0 0,0 -0.01,0l-0.03 0.03c0,0 -0.01,0 -0.02,0l-0.04 -0.03 0 -0.01 0.02 -0.03 0 -0.02 -0.01 -0.06 0 -0.03 -0.03 -0.02"/>
    <g>
     <path class="fil7" d="M1.83 1.1l-0.13 0c-0.01,0 -0.01,0 -0.01,0l0.03 0.03c0.01,0 0.03,0.01 0.04,0.01 0.01,0 0.03,0 0.04,-0.01l0.03 -0.03c0,0 0,0 0,0z"/>
     <g>
      <path class="fil1 str8" d="M1.72 1.09l0 0.01c0,0.01 0,0.01 0,0.01 0.01,0 0.01,0 0.02,0 0,0 0,0 0,0 0.01,0 0.02,0 0.02,0 0.01,0 0.01,0 0.02,0 0,0 0.01,0 0.01,0 0,0 0.01,0 0.01,0l0.01 0c0,0 0,0 0,-0.01l0 -0.01c-0.03,0 -0.06,0 -0.09,0z"/>
      <line class="fil2 str9" x1="1.78" y1="1.1" x2="1.78" y2= "1.11" />
      <line class="fil2 str9" x1="1.79" y1="1.1" x2="1.79" y2= "1.11" />
      <line class="fil2 str9" x1="1.8" y1="1.1" x2="1.8" y2= "1.11" />
      <line class="fil2 str9" x1="1.72" y1="1.1" x2="1.72" y2= "1.11" />
      <line class="fil2 str9" x1="1.74" y1="1.1" x2="1.74" y2= "1.11" />
      <line class="fil2 str9" x1="1.74" y1="1.1" x2="1.74" y2= "1.11" />
      <line class="fil2 str9" x1="1.76" y1="1.1" x2="1.76" y2= "1.11" />
      <path class="fil2 str10" d="M1.72 1.14l-0.03 -0.04c-0.01,-0.01 0,-0.01 0.01,-0.01 0.05,0 0.08,0 0.13,0 0.01,0 0.01,0 0.01,0.01l-0.04 0.04c-0.02,0.02 -0.05,0.02 -0.08,0z"/>
     </g>
    </g>
    <polyline class="fil2 str4" points="1.7,1.19 1.73,1.18 1.76,1.17 1.79,1.18 1.83,1.2 "/>
    <path class="fil2 str11" d="M1.53 0.91c0,-0.01 -0.01,-0.03 -0.01,-0.06 0.01,-0.02 0.01,-0.01 0.02,0 0,0.01 0,0.02 0,0.04"/>
    <path class="fil2 str11" d="M1.98 0.88c0,-0.01 0.01,-0.02 0.01,-0.02 0.02,0 0.02,0.01 0.02,0.02 0,0.03 -0.01,0.05 -0.02,0.05"/>
    <path class="fil2 str10" d="M1.81 0.92c0.01,0 0.02,0 0.02,0.01 0.02,0.01 0.03,0.02 0.07,-0.01 0.01,-0.01 0.01,0 0.03,0"/>
    <path class="fil2 str10" d="M1.71 0.92c0,0 -0.01,0 -0.02,0.01 -0.01,0.01 -0.02,0.02 -0.06,-0.01 -0.01,-0.01 -0.01,0 -0.02,0"/>
    <path class="fil2 str10" d="M1.61 0.91c0,0 0.01,0.01 0.02,0 0.03,-0.03 0.05,-0.03 0.07,-0.01 0,0 0.01,0.01 0.01,0.01"/>
    <path class="fil2 str10" d="M1.93 0.91c-0.01,0 -0.01,0.01 -0.02,0 -0.03,-0.03 -0.06,-0.03 -0.08,-0.01 0,0 -0.01,0.01 -0.02,0.01"/>
    <path class="fil8 str4" d="M1.83 1.11c-0.06,0.04 -0.1,0.03 -0.14,-0.02 0.03,0.07 0.1,0.08 0.14,0.02z"/>
    <path class="fil9 str4" d="M1.71 1.09c0.01,0 -0.02,0 -0.02,0 0,0 0,0 0,0.01 0.01,0.01 0.02,0.02 0.03,0.02l-0.01 -0.03z"/>
    <path class="fil9 str4" d="M1.82 1.09c0,0 0.02,0 0.02,0 0,0.01 -0.02,0.02 -0.03,0.03l0.01 -0.03z"/>
    <path class="fil1" d="M1.75 1.13c-0.01,0 -0.02,0 -0.03,-0.01 0.01,0 0.01,0 0.01,0 0.02,0 0.01,0 0.01,0 0.01,0 0.02,0 0.02,0 0.01,0.01 0,0 0.02,0 0,0.01 0,0 0.01,0 0.01,0.01 0,0 0.01,0 0,0.01 -0.01,0.01 -0.02,0.01 -0.01,0.01 -0.02,0.01 -0.03,0z"/>
    <path class="fil2 str12" d="M1.72 1.12c0.01,0 0.01,0 0.01,0 0.01,0 0.01,0 0.01,0 0.01,0 0.02,0 0.02,0 0.01,0 0.01,0 0.02,0 0,0 0.01,0 0.01,0 0.01,0 0.01,0 0.01,0"/>
    <line class="fil2 str8" x1="1.73" y1="1.12" x2="1.73" y2= "1.13" />
    <line class="fil2 str8" x1="1.74" y1="1.12" x2="1.74" y2= "1.13" />
    <line class="fil2 str8" x1="1.76" y1="1.12" x2="1.76" y2= "1.13" />
    <line class="fil2 str8" x1="1.78" y1="1.12" x2="1.78" y2= "1.13" />
    <line class="fil2 str8" x1="1.79" y1="1.12" x2="1.79" y2= "1.13" />
    <path class="fil8 str13" d="M1.75 1.07c0,0 0,0 -0.01,0 -0.01,0.01 -0.03,0.02 -0.04,0.02 -0.01,0 -0.02,0 -0.01,0 0.01,0 0.02,0 0.03,0 0.03,0.01 0.06,0.01 0.09,0 0.01,0 0.02,0 0.02,0 0.01,0 0.01,0 0,0 -0.02,-0.01 -0.04,-0.01 -0.05,-0.01 0,0 0,-0.01 -0.01,-0.01 0,0.01 -0.01,0.01 -0.02,0z"/>
   </g>
   <g>
    <g>
     <polygon class="fil1 str1" points="1.46,1.63 1.35,1.82 1.28,1.7 1.42,1.55 "/>
     <polygon class="fil1 str1" points="1.09,1.64 1.21,1.82 1.27,1.71 1.12,1.55 "/>
     <path class="fil1 str1" d="M1.09 1.64l0.12 0.19 0.02 -0.04 0.02 0.02 0 0.3c-0.15,0 -0.3,0 -0.45,0 -0.02,0 -0.04,-0.02 -0.04,-0.04 0,-0.04 0.02,-0.16 0.02,-0.27 0.01,-0.05 0.02,-0.05 0.05,-0.06 0.05,-0.02 0.25,-0.1 0.26,-0.1z"/>
     <path class="fil1 str1" d="M1.46 1.63l-0.11 0.2 -0.02 -0.04 -0.02 0.02 0.01 0.3c0.15,0 0.23,0 0.38,0 0.04,0 0.05,-0.01 0.05,-0.04 0,-0.04 -0.01,-0.16 -0.02,-0.27 0,-0.04 0,-0.05 -0.03,-0.06 -0.05,-0.02 -0.23,-0.1 -0.24,-0.11z"/>
     <path class="fil2 str2" d="M1.72 2.11l-0.92 0c-0.02,0.01 -0.04,-0.01 -0.04,-0.04 0.01,-0.09 0.01,-0.19 0.02,-0.28 0,-0.03 0.02,-0.04 0.03,-0.05l0.29 -0.11 0.02 -0.08 0.16 0.15 0.14 -0.15 0.04 0.08 0.25 0.11c0.01,0.01 0.02,0.03 0.02,0.05 0.01,0.09 0.02,0.19 0.03,0.28 0,0.03 -0.02,0.04 -0.04,0.04z"/>
     <polyline class="fil2 str2" points="1.09,1.64 1.21,1.82 1.27,1.71 1.35,1.82 1.45,1.63 "/>
     <polygon class="fil3 str3" points="1.33,1.79 1.27,1.72 1.23,1.79 1.25,1.81 1.25,2.12 1.33,2.11 1.31,1.81 "/>
    </g>
    <path class="fil4 str4" d="M1.15 1.57l0.13 0.12 0.11 -0.12 0 -0.05c-0.03,0.02 -0.05,0.05 -0.08,0.07 -0.01,0.02 -0.05,0.02 -0.07,0l-0.09 -0.07 0 0.05z"/>
    <path class="fil4 str4" d="M1.5 1.21c-0.01,0 -0.01,0.02 -0.02,0.02l0.01 -0.02 -0.06 -0.05 0 -0.1 -0.08 0 -0.07 0.03 -0.08 -0.03 -0.09 0 0 0.09 -0.04 0.05c-0.01,0 -0.01,-0.01 -0.02,-0.02 0,-0.01 -0.01,0 -0.01,0 -0.01,0 -0.01,0.01 -0.02,0.02 0,0.01 0,0.02 0,0.04l0.01 0.05c0.01,0.01 0.01,0.01 0.02,0.01 0,0 0.01,0 0.02,-0.01 0,0.04 0,0.07 0.02,0.1 0.01,0.05 0.03,0.09 0.06,0.13 0.03,0.02 0.06,0.05 0.09,0.07 0.02,0.03 0.05,0.03 0.07,0 0.04,-0.03 0.08,-0.07 0.12,-0.11 0.01,-0.02 0.03,-0.05 0.03,-0.07 0.01,-0.03 0.02,-0.06 0.02,-0.09 0,0 0.01,0 0.01,0 0,0 0.01,0 0.02,-0.01 0.01,-0.02 0.02,-0.05 0.02,-0.07 0,-0.01 0,-0.02 -0.01,-0.02 0,-0.01 -0.01,-0.01 -0.02,-0.01z"/>
    <g>
     <path class="fil5" d="M1.37 1.25c-0.01,0 -0.02,0.01 -0.02,0.02 0.01,0.02 0.02,0.02 0.03,0.02 0.02,0 0.02,-0.05 -0.01,-0.04z"/>
     <path class="fil5" d="M1.18 1.25c-0.03,0 -0.02,0.05 0.01,0.04 0.01,0 0.02,-0.01 0.01,-0.03 0,-0.01 -0.01,-0.02 -0.02,-0.01z"/>
     <line class="fil2 str5" x1="1.13" y1="1.19" x2="1.24" y2= "1.2" />
     <path class="fil3 str6" d="M1.11 1.15l-0.04 0.06c-0.02,-0.05 -0.03,-0.12 -0.02,-0.2 0.02,-0.08 0.06,-0.11 0.11,-0.12 0.08,-0.01 0.16,-0.01 0.23,0 0.06,0.02 0.09,0.07 0.1,0.12 0.02,0.07 0.01,0.12 0,0.2 -0.02,-0.02 -0.04,-0.03 -0.06,-0.05 -0.01,-0.03 -0.01,-0.06 0,-0.1 -0.03,0.01 -0.05,0.01 -0.08,0 -0.04,0.04 -0.1,0.03 -0.15,0 -0.02,0.01 -0.05,0.01 -0.08,0 0,0.03 0,0.06 -0.01,0.09z"/>
     <line class="fil2 str5" x1="1.41" y1="1.19" x2="1.3" y2= "1.2" />
     <path class="fil6" d="M1.37 1.24c-0.01,0 0.01,-0.01 0.03,-0.01 0.02,0 0.03,0.01 0.04,0.02 0,0 0,0 0,0.01l-0.01 0c-0.02,-0.01 -0.04,-0.01 -0.06,-0.02z"/>
     <path class="fil6" d="M1.2 1.24c0,0 -0.02,-0.01 -0.04,-0.01 -0.01,0 -0.03,0.01 -0.03,0.02 0,0 0,0 0,0.01l0.01 0c0.01,-0.01 0.03,-0.01 0.06,-0.02z"/>
    </g>
    <path class="fil2 str7" d="M1.32 1.22l-0.01 0.02 -0.01 0.03 -0.01 0.05 0.01 0.03 0.02 0.03c0,0 0,0.01 0,0.01l-0.03 0.03c-0.01,0 -0.02,0 -0.02,0l-0.04 -0.03 0 -0.01 0.01 -0.03 0.01 -0.03 -0.01 -0.05 -0.01 -0.03 -0.02 -0.02"/>
    <g>
     <path class="fil7" d="M1.34 1.45l-0.13 0c0,0 0,0 0,0.01l0.03 0.02c0.01,0.01 0.02,0.01 0.03,0.01 0.02,0 0.03,0 0.04,0l0.03 -0.03c0.01,-0.01 0,0 0,-0.01z"/>
     <g>
      <path class="fil1 str8" d="M1.23 1.45l0 0.01c0,0 0,0 0.01,0 0,0.01 0.01,0.01 0.01,0 0,0.01 0.01,0.01 0.01,0 0,0.01 0.01,0.01 0.02,0 0,0.01 0.01,0.01 0.01,0 0.01,0.01 0.01,0.01 0.01,0 0.01,0.01 0.01,0.01 0.02,0l0 0c0,0 0.01,0 0.01,0l0 -0.01c-0.03,0 -0.07,0 -0.1,0z"/>
      <line class="fil2 str9" x1="1.29" y1="1.45" x2="1.29" y2= "1.46" />
      <line class="fil2 str9" x1="1.3" y1="1.45" x2="1.3" y2= "1.46" />
      <line class="fil2 str9" x1="1.32" y1="1.45" x2="1.32" y2= "1.46" />
      <line class="fil2 str9" x1="1.24" y1="1.45" x2="1.24" y2= "1.46" />
      <line class="fil2 str9" x1="1.25" y1="1.45" x2="1.25" y2= "1.46" />
      <line class="fil2 str9" x1="1.26" y1="1.45" x2="1.26" y2= "1.46" />
      <line class="fil2 str9" x1="1.28" y1="1.45" x2="1.28" y2= "1.46" />
      <path class="fil2 str10" d="M1.24 1.5l-0.04 -0.05c-0.01,0 0.01,-0.01 0.01,-0.01 0.05,0.01 0.08,0.01 0.13,0 0.02,0 0.02,0.01 0.01,0.02l-0.03 0.04c-0.03,0.01 -0.06,0.01 -0.08,0z"/>
     </g>
    </g>
    <polyline class="fil2 str4" points="1.22,1.55 1.25,1.54 1.27,1.53 1.31,1.54 1.34,1.55 "/>
    <path class="fil2 str11" d="M1.05 1.27c-0.01,-0.01 -0.01,-0.04 -0.01,-0.07 0,-0.02 0.01,-0.01 0.01,0 0.01,0.02 0.01,0.03 0,0.04"/>
    <path class="fil2 str11" d="M1.49 1.24c0,-0.01 0.01,-0.02 0.02,-0.02 0.01,0 0.02,0.01 0.02,0.02 -0.01,0.03 -0.02,0.04 -0.03,0.05"/>
    <path class="fil2 str10" d="M1.33 1.27c0,0.01 0.01,0.01 0.02,0.01 0.01,0.01 0.02,0.03 0.06,0 0.02,-0.01 0.02,0 0.03,-0.01"/>
    <path class="fil2 str10" d="M1.23 1.27c-0.01,0.01 -0.02,0.01 -0.02,0.01 -0.02,0.01 -0.03,0.03 -0.06,0 -0.02,-0.01 -0.02,0 -0.03,-0.01"/>
    <path class="fil2 str10" d="M1.12 1.27c0.01,0 0.02,0 0.02,0 0.03,-0.03 0.05,-0.03 0.07,-0.01 0,0 0.01,0.01 0.02,0.01"/>
    <path class="fil2 str10" d="M1.44 1.27c0,0 -0.01,0 -0.01,0 -0.04,-0.03 -0.07,-0.03 -0.08,-0.01 -0.01,0 -0.02,0.01 -0.02,0.01"/>
    <path class="fil8 str4" d="M1.34 1.46c-0.05,0.05 -0.1,0.03 -0.14,-0.01 0.04,0.07 0.1,0.08 0.14,0.01z"/>
    <path class="fil9 str4" d="M1.23 1.45c0,0 -0.02,0 -0.03,0 0,0 0,0 0,0 0.01,0.01 0.02,0.02 0.03,0.03l0 -0.03z"/>
    <path class="fil9 str4" d="M1.33 1.45c0,-0.01 0.02,0 0.02,0 0,0.01 -0.01,0.02 -0.02,0.02l0 -0.02z"/>
    <path class="fil1" d="M1.26 1.49c-0.01,0 -0.02,-0.01 -0.02,-0.01 0.01,0 0,0 0.01,0 0.01,-0.01 0.01,0 0.01,0 0.01,-0.01 0.01,0 0.02,0 0,0.01 -0.01,-0.01 0.01,0 0.01,0 0,0 0.01,0 0.01,0 0,0 0.02,0 -0.01,0 -0.02,0.01 -0.03,0.01 -0.01,0 -0.02,0 -0.03,0z"/>
    <path class="fil2 str12" d="M1.24 1.48c0,0 0,0 0.01,0 0,0 0.01,0 0.01,0 0,0 0.01,0 0.02,0 0,0 0.01,0 0.01,0 0.01,0 0.01,0 0.02,0 0,0 0,0 0.01,0"/>
    <line class="fil2 str8" x1="1.25" y1="1.48" x2="1.25" y2= "1.48" />
    <line class="fil2 str8" x1="1.26" y1="1.48" x2="1.26" y2= "1.49" />
    <line class="fil2 str8" x1="1.28" y1="1.48" x2="1.28" y2= "1.49" />
    <line class="fil2 str8" x1="1.29" y1="1.48" x2="1.29" y2= "1.49" />
    <line class="fil2 str8" x1="1.3" y1="1.48" x2="1.31" y2= "1.49" />
    <path class="fil8 str13" d="M1.27 1.43c0,0 -0.01,0 -0.02,0 -0.01,0.01 -0.02,0.01 -0.04,0.01 -0.01,0 -0.01,0.01 0,0.01 0,0 0.01,0 0.02,0 0.03,0.01 0.06,0.01 0.1,0 0,0 0.01,0 0.02,0 0,0 0,0 0,0 -0.02,-0.01 -0.04,-0.01 -0.05,-0.02 -0.01,0 -0.01,0 -0.01,0 -0.01,0 -0.02,0 -0.02,0z"/>
   </g>
  </g>
 </g>
</svg>
