<?xml version="1.0" encoding="UTF-8"?>
<!DOCTYPE svg PUBLIC "-//W3C//DTD SVG 1.1//EN" "http://www.w3.org/Graphics/SVG/1.1/DTD/svg11.dtd">
<!-- Creator: CorelDRAW 2021 (64 Bit) -->
<svg xmlns="http://www.w3.org/2000/svg" xml:space="preserve" width="400px" height="400px" version="1.1" style="shape-rendering:geometricPrecision; text-rendering:geometricPrecision; image-rendering:optimizeQuality; fill-rule:evenodd; clip-rule:evenodd"
viewBox="0 0 2.26 2.26"
 xmlns:xlink="http://www.w3.org/1999/xlink"
 xmlns:xodm="http://www.corel.com/coreldraw/odm/2003">
 <defs>
  <style type="text/css">
   <![CDATA[
    .str0 {stroke:#C4C4C4;stroke-width:0.17;stroke-miterlimit:22.9256}
    .str1 {stroke:black;stroke-width:0.01;stroke-miterlimit:22.9256}
    .fil1 {fill:black}
    .fil7 {fill:aqua}
    .fil6 {fill:#28FE3E}
    .fil2 {fill:#E6E6E6}
    .fil5 {fill:red}
    .fil3 {fill:#FF9933}
    .fil4 {fill:#FFFF99}
    .fil0 {fill:white}
   ]]>
  </style>
 </defs>
 <g id="Camada_x0020_1">
  <metadata id="CorelCorpID_0Corel-Layer"/>
  <g id="_2069926045792">
   <circle class="fil0 str0" cx="1.13" cy="1.13" r="1.04"/>
   <g>
    <path class="fil1" d="M0.99 1.33l0.01 0c0.01,0 0.01,-0.01 0.01,-0.02 0.01,-0.01 0.02,-0.02 0.02,-0.03 0,-0.01 -0.01,-0.03 -0.01,-0.04 0,0 0.01,0 0.01,0 0.02,-0.01 0.03,-0.03 0.03,-0.05 0,-0.02 -0.02,-0.05 -0.03,-0.07 -0.01,-0.02 -0.02,-0.04 -0.03,-0.06 -0.01,-0.02 -0.01,-0.02 -0.01,-0.04 0.01,-0.08 0,-0.11 -0.04,-0.17 -0.02,-0.04 -0.07,-0.08 -0.11,-0.1 -0.1,-0.05 -0.22,-0.05 -0.32,0 -0.06,0.04 -0.14,0.13 -0.14,0.25 0,0.05 0.02,0.11 0.04,0.15l0.07 0.13c0.03,0.06 0.02,0.07 -0.02,0.13 -0.01,0.02 -0.02,0.03 -0.03,0.05 0,0 -0.01,0.01 -0.01,0.01 -0.01,0.01 -0.02,0.02 -0.02,0.03 0,0.01 0,0.01 0.01,0.01 0.01,0.01 0.19,0.01 0.21,0.01l0.14 0c0.05,0 -0.01,-0.02 0.1,-0.06 0.02,-0.01 0.05,-0.01 0.07,-0.02 0.07,-0.01 0.09,-0.05 0.05,-0.11l0 0z"/>
    <g>
     <g>
      <g>
       <polygon class="fil2 str1" points="1.53,0.38 1.37,0.46 1.4,0.41 1.48,0.37 "/>
       <rect class="fil3 str1" transform="matrix(0.090659 -0.0485195 0.0281686 0.0554846 0.984125 0.671051)" width="6.41" height="6.32"/>
      </g>
      <g>
       <polygon class="fil2 str1" points="1.65,0.63 1.49,0.69 1.52,0.64 1.61,0.61 "/>
       <rect class="fil4 str1" transform="matrix(0.0970814 -0.0329118 0.0191073 0.0594149 1.06373 0.830982)" width="6.41" height="6.32"/>
      </g>
      <g>
       <polygon class="fil2 str1" points="1.77,0.9 1.64,0.92 1.67,0.88 1.73,0.87 "/>
       <rect class="fil5 str1" transform="matrix(0.101452 -0.0129797 0.00753548 0.0620898 1.1373 0.982042)" width="6.41" height="6.32"/>
      </g>
      <g>
       <polygon class="fil2 str1" points="1.78,1.2 1.61,1.18 1.65,1.15 1.75,1.16 "/>
       <rect class="fil6 str1" transform="matrix(0.101392 0.0134581 -0.00781328 0.0620536 1.1731 1.11742)" width="6.41" height="6.32"/>
      </g>
     </g>
     <g>
      <polygon class="fil2 str1" points="1.74,1.46 1.57,1.41 1.62,1.39 1.71,1.42 "/>
      <rect class="fil7 str1" transform="matrix(0.0978899 0.0302805 -0.0175797 0.05991 1.15368 1.27959)" width="6.41" height="6.32"/>
     </g>
    </g>
   </g>
  </g>
 </g>
</svg>
