<?xml version="1.0" encoding="UTF-8"?>
<!DOCTYPE svg PUBLIC "-//W3C//DTD SVG 1.1//EN" "http://www.w3.org/Graphics/SVG/1.1/DTD/svg11.dtd">
<!-- Creator: CorelDRAW 2021 (64 Bit) -->
<svg xmlns="http://www.w3.org/2000/svg" xml:space="preserve" width="400px" height="400px" version="1.1" style="shape-rendering:geometricPrecision; text-rendering:geometricPrecision; image-rendering:optimizeQuality; fill-rule:evenodd; clip-rule:evenodd"
viewBox="0 0 4.68 4.68"
 xmlns:xlink="http://www.w3.org/1999/xlink"
 xmlns:xodm="http://www.corel.com/coreldraw/odm/2003">
 <defs>
  <style type="text/css">
   <![CDATA[
    .str0 {stroke:#C4C4C4;stroke-width:0.35;stroke-miterlimit:22.9256}
    .str3 {stroke:black;stroke-width:0.02;stroke-miterlimit:22.9256}
    .str1 {stroke:black;stroke-width:0.01;stroke-miterlimit:22.9256}
    .str2 {stroke:yellow;stroke-width:0.01;stroke-miterlimit:22.9256}
    .fil2 {fill:black}
    .fil3 {fill:lime}
    .fil4 {fill:#E6E6E6}
    .fil5 {fill:#FFFF99}
    .fil1 {fill:white}
    .fil0 {fill:white}
   ]]>
  </style>
 </defs>
 <g id="Camada_x0020_1">
  <metadata id="CorelCorpID_0Corel-Layer"/>
  <g id="_2069394786768">
   <circle class="fil0 str0" cx="2.34" cy="2.34" r="2.16"/>
   <g>
    <g>
     <path class="fil1" d="M2.24 1.3c0.03,0 0.05,-0.01 0.07,-0.02 0.01,0 0.02,-0.01 0.03,-0.02 0,0 0.02,-0.01 0.02,-0.01 0.01,0.01 0.03,0.02 0.04,0.02 -0.01,0.02 -0.05,0.05 -0.07,0.06 -0.06,0.02 -0.13,0.03 -0.2,0 -0.02,-0.01 -0.05,-0.03 -0.06,-0.05 0,-0.01 0.03,-0.02 0.04,-0.03 0.03,0.04 0.08,0.05 0.13,0.05zm0.12 -0.29c0.08,-0.01 0.09,0.09 0.02,0.1 -0.03,0.01 -0.06,-0.01 -0.07,-0.04 -0.01,-0.03 0.02,-0.05 0.05,-0.06zm-0.31 0c0.04,0 0.07,0.01 0.07,0.04 0.01,0.03 -0.01,0.06 -0.04,0.06 -0.08,0.01 -0.11,-0.08 -0.03,-0.1zm0.56 0.05c0.01,-0.05 0.02,-0.1 -0.01,-0.14 -0.01,-0.01 -0.03,-0.03 -0.05,-0.04 -0.04,-0.02 -0.05,-0.01 -0.09,0.01 -0.06,0.05 -0.15,0.08 -0.23,0.08 -0.12,0.01 -0.2,-0.05 -0.26,-0.1 -0.03,-0.01 -0.05,0 -0.07,0.01 -0.03,0.01 -0.04,0.01 -0.05,0.04 0,0.02 -0.01,0.05 -0.01,0.07 0,0.02 0.01,0.04 0.01,0.07l-0.07 0.01c-0.01,0.03 0.01,0.08 0.02,0.1 0,0.02 0.01,0.04 0.02,0.05 0.02,0 0.05,0 0.07,0 0.01,0.04 0.02,0.07 0.05,0.09 0.01,0.02 0.05,0.06 0.07,0.08 0.03,0.02 0.05,0.03 0.09,0.04 0.04,0.02 0.09,0.02 0.13,0.02 0.11,0 0.17,-0.03 0.23,-0.07 0.02,-0.01 0.05,-0.05 0.07,-0.07 0.04,-0.04 0.03,-0.04 0.05,-0.09 0.03,0 0.06,0.01 0.07,-0.01 0.02,-0.02 0.01,-0.04 0.02,-0.07 0.01,-0.01 0.03,-0.05 0.01,-0.06 -0.02,-0.01 -0.06,-0.01 -0.07,-0.02z"/>
     <path class="fil2" d="M2.24 1.3c-0.05,0 -0.1,-0.01 -0.13,-0.05 -0.01,0.01 -0.04,0.02 -0.04,0.03 0.01,0.02 0.04,0.04 0.06,0.05 0.07,0.03 0.14,0.02 0.2,0 0.02,-0.01 0.06,-0.04 0.07,-0.06 -0.01,0 -0.03,-0.01 -0.04,-0.02 0,0 -0.02,0.01 -0.02,0.01 -0.01,0.01 -0.02,0.02 -0.03,0.02 -0.02,0.01 -0.04,0.02 -0.07,0.02z"/>
     <polygon class="fil2" points="1.66,2.14 1.71,2.14 1.71,1.95 1.66,1.95 "/>
     <polygon class="fil2" points="2.79,2.14 2.84,2.14 2.85,2.14 2.85,1.95 2.84,1.95 2.79,1.95 "/>
     <path class="fil2" d="M2.36 1.01c-0.03,0.01 -0.06,0.03 -0.05,0.06 0.01,0.03 0.04,0.05 0.07,0.04 0.07,-0.01 0.06,-0.11 -0.02,-0.1z"/>
     <path class="fil2" d="M2.05 1.01c-0.08,0.02 -0.05,0.11 0.03,0.1 0.03,0 0.05,-0.03 0.04,-0.06 0,-0.03 -0.03,-0.04 -0.07,-0.04z"/>
     <path class="fil2 str1" d="M2.61 1.06c0.01,0.01 0.05,0.01 0.07,0.02 0.02,0.01 0,0.05 -0.01,0.06 -0.01,0.03 0,0.05 -0.02,0.07 -0.01,0.02 -0.04,0.01 -0.07,0.01 -0.02,0.05 -0.01,0.05 -0.05,0.09 -0.02,0.02 -0.05,0.06 -0.07,0.07 -0.06,0.04 -0.12,0.07 -0.23,0.07 -0.04,0 -0.09,0 -0.13,-0.02 -0.04,-0.01 -0.06,-0.02 -0.09,-0.04 -0.02,-0.02 -0.06,-0.06 -0.07,-0.08 -0.03,-0.02 -0.04,-0.05 -0.05,-0.09 -0.02,0 -0.05,0 -0.07,0 -0.01,-0.01 -0.02,-0.03 -0.02,-0.05 -0.01,-0.02 -0.03,-0.07 -0.02,-0.1l0.07 -0.01c0,-0.03 -0.01,-0.05 -0.01,-0.07 0,-0.02 0.01,-0.05 0.01,-0.07 0.01,-0.03 0.02,-0.03 0.05,-0.04 0.02,-0.01 0.04,-0.02 0.07,-0.01 0.06,0.05 0.14,0.11 0.26,0.1 0.08,0 0.17,-0.03 0.23,-0.08 0.04,-0.02 0.05,-0.03 0.09,-0.01 0.02,0.01 0.04,0.03 0.05,0.04 0.03,0.04 0.02,0.09 0.01,0.14zm-0.56 -0.52c-0.08,0.03 -0.15,0.09 -0.19,0.14 -0.04,0.04 -0.06,0.07 -0.08,0.14 0,0.03 0,0.07 0,0.1 0,0.04 0.01,0.07 0.01,0.1 -0.04,0 -0.05,0.01 -0.06,0.04 -0.01,0.03 0,0.05 0,0.08 0.04,0.17 0.1,0.1 0.13,0.16 0.02,0.02 0.02,0.02 0.04,0.05l0.05 0.05c0.01,0.02 0.03,0.03 0.06,0.04 0,0.02 0,0.1 0,0.12 -0.01,0.01 -0.01,0.02 -0.03,0.02 -0.07,0 -0.22,0.03 -0.31,0.04 -0.05,0.01 -0.09,0.02 -0.14,0.04 -0.02,0.01 -0.04,0.01 -0.06,0.02 -0.05,0.04 -0.09,0.09 -0.11,0.15 -0.01,0.03 0,0.11 0,0.15 0,0.06 0,0.11 0,0.16 0.03,0 0.05,0.01 0.05,-0.01l0 -0.19c0,-0.08 0,-0.15 0.07,-0.2 0.04,-0.02 0.05,-0.03 0.1,-0.05 0.07,-0.02 0.16,-0.03 0.24,-0.04 0.04,-0.01 0.09,-0.02 0.13,-0.02 0.01,0.04 0.01,0.06 0.03,0.09 0.03,0.05 0.09,0.09 0.14,0.11 0.03,0.01 0.08,0.02 0.12,0.02 0.12,0 0.29,-0.1 0.29,-0.22l0.31 0.05c0.11,0.01 0.21,0.08 0.22,0.18 0,0.09 0,0.19 0.01,0.28l0.05 0 0 -0.28c-0.02,-0.11 -0.09,-0.2 -0.29,-0.23 -0.11,-0.02 -0.21,-0.03 -0.32,-0.05 -0.03,-0.01 -0.04,-0.01 -0.04,-0.04 0,-0.04 0,-0.08 0,-0.11 0.02,-0.01 0.04,-0.03 0.06,-0.04 0.02,-0.02 0.07,-0.08 0.08,-0.12 0.1,0 0.1,-0.06 0.11,-0.11 0.01,-0.01 0.02,-0.02 0.02,-0.04 0,-0.01 0,-0.03 0,-0.04 -0.01,-0.03 -0.03,-0.05 -0.07,-0.06 0,-0.1 0.02,-0.14 -0.01,-0.24 -0.03,-0.07 -0.05,-0.1 -0.1,-0.15 -0.03,-0.02 -0.02,-0.01 -0.04,-0.03 -0.02,-0.01 -0.05,-0.03 -0.07,-0.04 -0.08,-0.04 -0.15,-0.05 -0.25,-0.05 -0.03,0 -0.09,0 -0.15,0.03zm-0.14 0.16c0.04,-0.04 0.08,-0.09 0.18,-0.13 0.03,-0.01 0.05,-0.01 0.09,-0.01 0.06,-0.01 0.14,0 0.2,0.02 0.04,0.02 0.07,0.03 0.1,0.06 0.04,0.03 0.05,0.03 0.08,0.08 0.02,0.02 0.07,0.11 0.06,0.15 -0.02,-0.02 -0.06,-0.04 -0.08,-0.05 -0.03,-0.01 -0.04,-0.01 -0.06,0 -0.02,0.01 -0.03,0.02 -0.04,0.03 -0.14,0.09 -0.26,0.11 -0.41,0.01 -0.01,-0.01 -0.02,-0.02 -0.04,-0.03 -0.02,-0.01 -0.02,-0.02 -0.05,-0.01 -0.06,0 -0.08,0.02 -0.11,0.03 0.01,-0.07 0.06,-0.12 0.08,-0.15zm0.32 1.1c0.01,0 0.02,0 0.03,0 0.01,0 0.03,0 0.04,-0.01 0.09,-0.01 0.18,-0.09 0.18,-0.17 -0.04,-0.01 -0.06,-0.03 -0.06,-0.07l0 -0.09 0 0c-0.01,0 -0.01,0 -0.02,0 -0.04,0.02 -0.11,0.04 -0.17,0.04 -0.05,0 -0.09,0 -0.14,-0.02 -0.01,0 -0.02,-0.01 -0.03,-0.01 0,0.03 0,0.07 0,0.1 -0.01,0.03 -0.03,0.04 -0.06,0.05 0,0.09 0.1,0.16 0.18,0.18 0.03,0 0.04,0 0.05,0z"/>
     <path class="fil3 str2" d="M1.41 1.89l0 0.25 0.24 0 0 -0.19 0.06 0 0 0.19 1.08 0 0 -0.19 0.05 0 0 0.19 0.23 0 -0.01 -0.28c-0.01,-0.1 -0.09,-0.15 -0.2,-0.18l-0.33 -0.05c-0.03,0.13 -0.13,0.2 -0.3,0.22 -0.15,-0.01 -0.25,-0.08 -0.28,-0.22l-0.33 0.05c-0.14,0.03 -0.2,0.1 -0.21,0.21z"/>
    </g>
    <g>
     <polygon class="fil4 str3" points="3.46,2.26 2.99,2.26 3.11,2.13 3.36,2.13 "/>
     <rect class="fil5 str3" x="1.16" y="2.26" width="2.37" height="1.52"/>
     <g id="_2171365958832">
      <path class="fil2" d="M1.43 3.01c0.07,-0.08 0.28,-0.19 0.39,-0.24l0.16 -0.06c0.05,0.03 -0.03,0 -0.11,0.13 -0.12,0.18 -0.03,0.38 0.11,0.45l-0.02 0.02c0,0 -0.01,-0.01 -0.01,-0.01l-0.05 -0.02c-0.15,-0.07 -0.38,-0.16 -0.47,-0.27l0 0 0 0zm0.96 0.32l-0.1 0c-0.18,0 -0.38,-0.13 -0.38,-0.32 0,-0.4 0.81,-0.45 0.87,-0.02 0.03,0.17 -0.18,0.34 -0.39,0.34l0 0zm0.35 -0.59c0.13,0.02 0.45,0.2 0.51,0.28 -0.06,0.08 -0.4,0.26 -0.54,0.29 0.08,-0.1 0.16,-0.11 0.16,-0.31 0,-0.12 -0.07,-0.19 -0.13,-0.26l0 0 0 0zm-0.4 0.7c0.44,0 0.66,-0.17 0.93,-0.33 0.04,-0.02 0.07,-0.04 0.1,-0.07 -0.05,-0.08 -0.05,-0.09 -0.18,-0.16 -0.08,-0.05 -0.13,-0.09 -0.22,-0.14 -0.51,-0.23 -1.05,-0.18 -1.48,0.12 -0.11,0.08 -0.18,0.09 -0.16,0.15 0,0.01 0,0.01 0,0.01 0,0 0,0.01 0.01,0.01 0,0.02 -0.01,0 0.01,0.02 0.04,0.06 0.31,0.21 0.38,0.24 0.16,0.07 0.37,0.15 0.61,0.15l0 0z"/>
      <path class="fil2" d="M2.37 3.1c-0.08,0 -0.14,0 -0.14,-0.09 0,-0.14 0.24,-0.1 0.24,0 0,0.04 -0.05,0.09 -0.09,0.09l-0.01 0zm-0.24 -0.08c0,0.21 0.43,0.2 0.43,0.02 0,-0.06 0.01,-0.11 -0.08,-0.16 -0.16,-0.09 -0.35,0 -0.35,0.14l0 0z"/>
      <path class="fil2" d="M2.29 2.36c0,0.12 -0.02,0.17 0.05,0.17 0.07,0 0.05,-0.04 0.05,-0.14 0,-0.05 -0.01,-0.06 -0.05,-0.08 -0.02,0.01 -0.05,0.02 -0.05,0.05z"/>
      <path class="fil2" d="M1.84 3.63c0,0.05 0.05,0.07 0.13,-0.04 0.05,-0.08 0.06,-0.05 0.06,-0.11 -0.08,-0.02 -0.07,-0.02 -0.11,0.04 -0.02,0.03 -0.08,0.08 -0.08,0.11l0 0 0 0z"/>
      <path class="fil2" d="M2.71 2.6c0.05,-0.03 0.21,-0.21 0.1,-0.21 -0.05,0 -0.06,0.03 -0.11,0.1 -0.04,0.06 -0.06,0.07 0.01,0.11l0 0z"/>
      <path class="fil2" d="M2.67 3.49c0,0.03 0.05,0.08 0.07,0.1 0.03,0.05 0.02,0.07 0.12,0.07 0,-0.14 -0.19,-0.25 -0.19,-0.17l0 0z"/>
      <path class="fil2" d="M1.83 2.43c0,0.08 0.18,0.23 0.18,0.14 0,-0.03 -0.1,-0.15 -0.11,-0.16 -0.04,-0.02 -0.07,0 -0.07,0.02l0 0 0 0z"/>
      <path class="fil2" d="M2.36 3.51c-0.08,0.04 -0.07,0.03 -0.05,0.17 0,0 -0.02,0.09 0.06,0.06 0.04,-0.02 0.04,-0.17 -0.01,-0.23z"/>
     </g>
    </g>
   </g>
  </g>
 </g>
</svg>
