<?xml version="1.0" encoding="UTF-8"?>
<!DOCTYPE svg PUBLIC "-//W3C//DTD SVG 1.1//EN" "http://www.w3.org/Graphics/SVG/1.1/DTD/svg11.dtd">
<!-- Creator: CorelDRAW 2021 (64 Bit) -->
<svg xmlns="http://www.w3.org/2000/svg" xml:space="preserve" width="330px" height="330px" version="1.1" style="shape-rendering:geometricPrecision; text-rendering:geometricPrecision; image-rendering:optimizeQuality; fill-rule:evenodd; clip-rule:evenodd"
viewBox="0 0 159.53 159.53"
 xmlns:xlink="http://www.w3.org/1999/xlink"
 xmlns:xodm="http://www.corel.com/coreldraw/odm/2003">
 <defs>
  <style type="text/css">
   <![CDATA[
    .str0 {stroke:#C4C4C4;stroke-width:14.5;stroke-miterlimit:22.9256}
    .fil1 {fill:black}
    .fil0 {fill:white}
   ]]>
  </style>
 </defs>
 <g id="Camada_x0020_1">
  <metadata id="CorelCorpID_0Corel-Layer"/>
  <g id="_2713693785328">
   <circle class="fil0 str0" cx="79.77" cy="79.77" r="72.52"/>
   <path class="fil1" d="M121.47 29.96c0.01,0.17 0.05,0.13 -0.12,0.12 0.02,0.16 0.05,0.13 -0.11,0.11 0.01,0.17 0.05,0.13 -0.11,0.12 0.01,0.17 0.05,0.13 -0.12,0.11 0.02,0.17 0.05,0.13 -0.11,0.12 0.01,0.17 0.05,0.13 -0.11,0.11 0.01,0.17 0.05,0.13 -0.12,0.12 0.02,0.17 0.05,0.13 -0.11,0.12 0.01,0.16 0.05,0.12 -0.11,0.11 0.01,0.17 0.05,0.13 -0.12,0.12 0.02,0.16 0.05,0.13 -0.11,0.11 0.01,0.17 0.05,0.13 -0.11,0.12 0.01,0.17 0.05,0.13 -0.12,0.11 0.02,0.17 0.06,0.13 -0.11,0.12 0.01,0.17 0.05,0.13 -0.11,0.12 0.01,0.16 0.05,0.13 -0.12,0.11 0.02,0.17 0.06,0.13 -0.11,0.12 0.01,0.17 0.05,0.13 -0.11,0.11 0.01,0.17 0.05,0.13 -0.12,0.12 0.02,0.17 0.05,0.13 -0.11,0.11 0.01,0.17 0.05,0.13 -0.11,0.12 0.01,0.17 0.05,0.13 -0.12,0.12 0.02,0.16 0.06,0.13 -0.11,0.11 0.01,0.17 0.05,0.13 -0.11,0.12 0.01,0.16 0.05,0.13 -0.12,0.11 0.02,0.17 0.06,0.13 -0.11,0.12 0.01,0.17 0.05,0.13 -0.11,0.11 0.01,0.17 0.05,0.13 -0.12,0.12 0.02,0.17 0.06,0.13 -0.11,0.12 0.02,0.16 0.05,0.13 -0.11,0.11 0.01,0.17 0.05,0.13 -0.12,0.12 0.02,0.17 0.06,0.13 -0.11,0.11 0.02,0.17 0.05,0.13 -0.11,0.12 0.01,0.17 0.05,0.13 -0.12,0.11 0.02,0.17 0.06,0.13 -0.11,0.12 0.02,0.17 0.05,0.13 -0.11,0.12 0.01,0.16 0.05,0.13 -0.11,0.11 0.01,0.17 0.05,0.13 -0.12,0.12 0.02,0.17 0.05,0.13 -0.11,0.11 0.01,0.17 0.05,0.13 -0.11,0.12 0.01,0.17 0.05,0.13 -0.12,0.11 0.02,0.17 0.05,0.13 -0.11,0.12 0.01,0.17 0.05,0.13 -0.11,0.12 0.01,0.16 0.05,0.13 -0.12,0.11 0.02,0.17 0.05,0.13 -0.11,0.12 0.01,0.16 0.05,0.13 -0.11,0.11 0.01,0.17 0.05,0.13 -0.12,0.12 0.02,0.17 0.05,0.13 -0.11,0.11 0.01,0.17 0.05,0.13 -0.11,0.12 0.01,0.17 0.05,0.13 -0.12,0.12 0.02,0.16 0.05,0.13 -0.11,0.11 0.01,0.17 0.05,0.13 -0.11,0.12 0.01,0.17 0.05,0.13 -0.12,0.11 0.02,0.17 0.05,0.13 -0.11,0.12 0.01,0.17 0.05,0.13 -0.11,0.11 0.01,0.17 0.05,0.13 -0.12,0.12 0.02,0.17 0.05,0.13 -0.11,0.12 0.01,0.16 0.05,0.13 -0.11,0.11 0.01,0.17 0.05,0.13 -0.12,0.12 0.02,0.17 0.05,0.13 -0.11,0.11 0.01,0.17 0.05,0.13 -0.11,0.12 0.01,0.17 0.05,0.13 -0.12,0.11 0.02,0.17 0.06,0.13 -0.11,0.12 0.01,0.17 0.05,0.13 -0.11,0.12 0.01,0.16 0.05,0.13 -0.12,0.11 0.02,0.17 0.06,0.13 -0.11,0.12 0.01,0.17 0.05,0.13 -0.11,0.11 0.01,0.17 0.05,0.13 -0.12,0.12 0.02,0.17 0.06,0.13 -0.11,0.11 0.01,0.17 0.05,0.13 -0.11,0.12 0.01,0.17 0.05,0.13 -0.12,0.12 0.02,0.16 0.06,0.13 -0.11,0.11 0.02,0.17 0.05,0.13 -0.11,0.12 0.01,0.17 0.05,0.13 -0.12,0.11 0.02,0.17 0.06,0.13 -0.11,0.12 0.02,0.17 0.05,0.13 -0.11,0.11 0.01,0.17 0.05,0.13 -0.12,0.12 0.02,0.17 0.06,0.13 -0.11,0.12 0.02,0.16 0.05,0.13 -0.11,0.11 0.01,0.17 0.05,0.13 -0.12,0.12 0.02,0.17 0.06,0.13 -0.11,0.11 0.02,0.17 0.05,0.13 -0.11,0.12 0.01,0.17 0.05,0.13 -0.12,0.11 0.02,0.17 0.06,0.13 -0.11,0.12 0.02,0.17 0.05,0.13 -0.11,0.12 0.01,0.16 0.05,0.13 -0.11,0.11 0.01,0.17 0.05,0.13 -0.12,0.12 0.02,0.17 0.05,0.13 -0.11,0.11 0.01,0.17 0.05,0.13 -0.11,0.12 0.01,0.17 0.05,0.13 -0.12,0.11 0.02,0.17 0.05,0.13 -0.11,0.12 0.01,0.17 0.05,0.13 -0.11,0.12 0.01,0.16 0.05,0.13 -0.12,0.11 0.02,0.17 0.05,0.13 -0.11,0.12 0.01,0.17 0.05,0.13 -0.11,0.11 0.01,0.17 0.05,0.13 -0.12,0.12 0.02,0.17 0.05,0.13 -0.11,0.11 0.01,0.17 0.05,0.13 -0.11,0.12 0.01,0.17 0.05,0.13 -0.12,0.12 0.02,0.16 0.05,0.13 -0.11,0.11 0.01,0.17 0.05,0.13 -0.11,0.12 0.01,0.17 0.05,0.13 -0.12,0.11 0.02,0.17 0.05,0.13 -0.11,0.12 0.01,0.17 0.05,0.13 -0.11,0.11 0.01,0.17 0.05,0.13 -0.12,0.12 0.02,0.17 0.05,0.13 -0.11,0.12 0.01,0.16 0.05,0.13 -0.11,0.11 0.01,0.17 0.05,0.13 -0.12,0.12 0.02,0.17 0.05,0.13 -0.11,0.11 0.01,0.17 0.05,0.13 -0.11,0.12 0.01,0.17 0.05,0.13 -0.12,0.11 0.02,0.17 0.06,0.13 -0.11,0.12 0.01,0.17 0.05,0.13 -0.11,0.12 0.01,0.16 0.05,0.13 -0.12,0.11 0.02,0.17 0.06,0.13 -0.11,0.12 0.01,0.17 0.05,0.13 -0.11,0.11 0.01,0.17 0.05,0.13 -0.12,0.12 0.02,0.17 0.06,0.13 -0.11,0.11 0.01,0.17 0.05,0.13 -0.11,0.12 0.01,0.17 0.05,0.13 -0.12,0.12 0.02,0.16 0.06,0.13 -0.11,0.11 0.01,0.17 0.05,0.13 -0.11,0.12 0.01,0.17 0.05,0.13 -0.12,0.11 0.02,0.17 0.06,0.13 -0.11,0.12 0.01,0.17 0.05,0.13 -0.11,0.11 0.01,0.17 0.05,0.13 -0.12,0.12 0.02,0.17 0.06,0.13 -0.11,0.12 0.02,0.16 0.05,0.13 -0.11,0.11 0.01,0.17 0.05,0.13 -0.12,0.12 0.02,0.17 0.06,0.13 -0.11,0.11 0.02,0.17 0.05,0.13 -0.11,0.12 0.01,0.17 0.05,0.13 -0.12,0.11 0.02,0.17 0.06,0.13 -0.11,0.12 0.02,0.17 0.05,0.13 -0.11,0.12 0.01,0.16 0.05,0.13 -0.11,0.11 0.01,0.17 0.05,0.13 -0.12,0.12 0.02,0.17 0.05,0.13 -0.11,0.11 0.01,0.17 0.05,0.13 -0.11,0.12 0.01,0.17 0.05,0.13 -0.12,0.11 0.02,0.17 0.05,0.13 -0.11,0.12 0.01,0.17 0.05,0.13 -0.11,0.12 0.01,0.16 0.05,0.13 -0.12,0.11 0.02,0.17 0.05,0.13 -0.11,0.12 0.01,0.17 0.05,0.13 -0.11,0.11 0.01,0.17 0.05,0.13 -0.12,0.12 0.02,0.17 0.05,0.13 -0.11,0.11 0.01,0.17 0.05,0.13 -0.11,0.12 0.01,0.17 0.05,0.13 -0.12,0.12 0.02,0.16 0.05,0.13 -0.11,0.11 0.01,0.17 0.05,0.13 -0.11,0.12 0.01,0.17 0.05,0.13 -0.12,0.11 0.02,0.17 0.05,0.13 -0.11,0.12 0.01,0.17 0.05,0.13 -0.11,0.11 0.01,0.17 0.05,0.13 -0.12,0.12 0.02,0.17 0.05,0.13 -0.11,0.12 0.01,0.16 0.05,0.13 -0.11,0.11 0.01,0.17 0.05,0.13 -0.12,0.12 0.02,0.17 0.05,0.13 -0.11,0.11 0.01,0.17 0.05,0.13 -0.11,0.12 0.01,0.17 0.05,0.13 -0.12,0.11 0.02,0.17 0.06,0.13 -0.11,0.12 0.01,0.17 0.05,0.13 -0.11,0.12 0.01,0.16 0.05,0.13 -0.12,0.11 0.02,0.17 0.06,0.13 -0.11,0.12 0.01,0.17 0.05,0.13 -0.11,0.11 0.01,0.17 0.05,0.13 -0.12,0.12 0.02,0.17 0.06,0.13 -0.11,0.11 0.01,0.17 0.05,0.13 -0.11,0.12 0.01,0.17 0.05,0.13 -0.12,0.12 0.02,0.16 0.06,0.13 -0.11,0.11 0.01,0.17 0.05,0.13 -0.11,0.12 0.01,0.17 0.05,0.13 -0.12,0.11 0.02,0.17 0.06,0.13 -0.11,0.12 0.01,0.17 0.05,0.13 -0.11,0.11 0.01,0.17 0.05,0.13 -0.12,0.12 0.02,0.17 0.06,0.13 -0.11,0.12 0.02,0.16 0.05,0.13 -0.11,0.11 0.01,0.17 0.05,0.13 -0.12,0.12 0.02,0.17 0.06,0.13 -0.11,0.11 0.02,0.17 0.05,0.13 -0.11,0.12 0.01,0.17 0.05,0.13 -0.12,0.11 0.02,0.17 0.06,0.13 -0.11,0.12 0.02,0.17 0.05,0.13 -0.11,0.12 0.01,0.16 0.05,0.13 -0.11,0.11 0.01,0.17 0.05,0.13 -0.12,0.12 0.02,0.17 0.05,0.13 -0.11,0.11 0.01,0.17 0.05,0.13 -0.11,0.12 0.01,0.17 0.05,0.13 -0.12,0.11 0.02,0.17 0.05,0.13 -0.11,0.12 0.01,0.17 0.05,0.13 -0.11,0.12 0.01,0.16 0.05,0.13 -0.12,0.11 0.02,0.17 0.05,0.13 -0.11,0.12 0.01,0.17 0.05,0.13 -0.11,0.11 0.01,0.17 0.05,0.13 -0.12,0.12 0.02,0.17 0.05,0.13 -0.11,0.11 0.01,0.17 0.05,0.13 -0.11,0.12 0.01,0.17 0.05,0.13 -0.12,0.12 0.02,0.16 0.05,0.13 -0.11,0.11 0.01,0.17 0.05,0.13 -0.11,0.12 0.01,0.17 0.05,0.13 -0.12,0.11 0.02,0.17 0.05,0.13 -0.11,0.12 0.01,0.17 0.05,0.13 -0.11,0.11 0.01,0.17 0.05,0.13 -0.12,0.12 0.02,0.17 0.05,0.13 -0.11,0.12 0.01,0.16 0.05,0.13 -0.11,0.11 0.01,0.17 0.05,0.13 -0.12,0.12 0.02,0.17 0.05,0.13 -0.11,0.11 0.01,0.17 0.05,0.13 -0.11,0.12 0.01,0.17 0.05,0.13 -0.12,0.11 0.02,0.17 0.06,0.13 -0.11,0.12 0.01,0.17 0.05,0.13 -0.11,0.12 0.01,0.16 0.05,0.13 -0.12,0.11 0.02,0.17 0.06,0.13 -0.11,0.12 0.02,0.17 0.05,0.13 -0.11,0.11 0.01,0.17 0.05,0.13 -0.12,0.12 0.02,0.17 0.06,0.13 -0.11,0.11 0.02,0.17 0.05,0.13 -0.11,0.12 0.01,0.17 0.05,0.13 -0.12,0.12 0.02,0.16 0.06,0.13 -0.11,0.11 0.02,0.17 0.05,0.13 -0.11,0.12 0.01,0.17 0.05,0.13 -0.12,0.11 0.02,0.17 0.06,0.13 -0.11,0.12 0.02,0.17 0.05,0.13 -0.11,0.11 0.01,0.17 0.05,0.13 -0.12,0.12 0.02,0.17 0.06,0.13 -0.11,0.12 0.02,0.16 0.05,0.13 -0.11,0.11 0.01,0.17 0.05,0.13 -0.12,0.12 0.02,0.17 0.06,0.13 -0.11,0.11 0.02,0.17 0.05,0.13 -0.11,0.12 0.01,0.17 0.05,0.13 -0.12,0.11 0.02,0.17 0.06,0.13 -0.11,0.12 0.02,0.17 0.05,0.13 -0.11,0.12 0.01,0.16 0.05,0.13 -0.11,0.11 0.01,0.17 0.05,0.13 -0.12,0.12 0.02,0.17 0.05,0.13 -0.11,0.11 0.01,0.17 0.05,0.13 -0.11,0.12 0.01,0.17 0.05,0.13 -0.12,0.11 0.02,0.17 0.05,0.13 -0.11,0.12 0.01,0.17 0.05,0.13 -0.11,0.12 0.01,0.16 0.05,0.13 -0.12,0.11 0.02,0.17 0.05,0.13 -0.11,0.12 0.01,0.17 0.05,0.13 -0.11,0.11 0.01,0.17 0.05,0.13 -0.12,0.12 0.02,0.17 0.05,0.13 -0.11,0.11 0.01,0.17 0.05,0.13 -0.11,0.12 0.01,0.17 0.05,0.13 -0.12,0.12 0.02,0.16 0.05,0.13 -0.11,0.11 0.01,0.17 0.05,0.13 -0.11,0.12 0.01,0.17 0.05,0.13 -0.12,0.11 0.02,0.17 0.05,0.13 -0.11,0.12 0.01,0.17 0.05,0.13 -0.11,0.11 0.01,0.17 0.05,0.13 -0.12,0.12 0.02,0.17 0.05,0.13 -0.11,0.12 0.01,0.16 0.05,0.13 -0.11,0.11 0.01,0.17 0.05,0.13 -0.12,0.12 0.02,0.17 0.05,0.13 -0.11,0.11 0.01,0.17 0.05,0.13 -0.11,0.12 0.01,0.17 0.05,0.13 -0.12,0.11 0.02,0.17 0.06,0.13 -0.11,0.12 0.01,0.17 0.05,0.13 -0.11,0.12 0.01,0.16 0.05,0.13 -0.12,0.11 0.02,0.17 0.06,0.13 -0.11,0.12 0.02,0.17 0.05,0.13 -0.11,0.11 0.01,0.17 0.05,0.13 -0.12,0.12 0.02,0.17 0.06,0.13 -0.11,0.11 0.02,0.17 0.05,0.13 -0.11,0.12 0.01,0.17 0.05,0.13 -0.12,0.12 0.02,0.16 0.06,0.13 -0.11,0.11 0.02,0.17 0.05,0.13 -0.11,0.12 0.01,0.17 0.05,0.13 -0.12,0.11 0.02,0.17 0.06,0.13 -0.11,0.12 0.02,0.17 0.05,0.13 -0.11,0.11 0.01,0.17 0.05,0.13 -0.12,0.12 0.02,0.17 0.06,0.13 -0.11,0.12 0.02,0.16 0.05,0.13 -0.11,0.11 0.01,0.17 0.05,0.13 -0.11,0.12 0.01,0.17 0.05,0.13 -0.12,0.11 0.02,0.17 0.05,0.13 -0.11,0.12 0.01,0.17 0.05,0.13 -0.12,0.11 0.02,0.17 0.06,0.13 -0.11,0.12 0.02,0.17 0.05,0.13 -0.11,0.12 0.01,0.16 0.05,0.13 -0.11,0.11 0.01,0.17 0.05,0.13 -0.12,0.12 0.02,0.17 0.05,0.13 -0.11,0.11 0.01,0.17 0.05,0.13 -0.11,0.12 0.01,0.17 0.05,0.13 -0.12,0.11 0.02,0.17 0.05,0.13 -0.11,0.12 0.01,0.17 0.05,0.13 -0.11,0.12 0.01,0.16 0.05,0.13 -0.12,0.11 0.02,0.17 0.05,0.13 -0.11,0.12 0.01,0.17 0.05,0.13 -0.11,0.11 0.01,0.17 0.05,0.13 -0.12,0.12 0.02,0.17 0.05,0.13 -0.11,0.11 0.01,0.17 0.05,0.13 -0.11,0.12 0.01,0.17 0.05,0.13 -0.12,0.12 0.02,0.16 0.05,0.13 -0.11,0.11 0.01,0.17 0.05,0.13 -0.11,0.12 0.01,0.17 0.05,0.13 -0.12,0.11 0.02,0.17 0.05,0.13 -0.11,0.12 0.01,0.17 0.05,0.13 -0.11,0.11 0.01,0.17 0.05,0.13 -0.12,0.12 0.02,0.17 0.05,0.13 -0.11,0.12 0.01,0.16 0.05,0.13 -0.11,0.11 0.01,0.17 0.05,0.13 -0.12,0.12 0.02,0.17 0.05,0.13 -0.11,0.11 0.01,0.17 0.05,0.13 -0.11,0.12 0.01,0.17 0.05,0.13 -0.12,0.11 0.02,0.17 0.06,0.13 -0.11,0.12 0.01,0.17 0.05,0.13 -0.11,0.12 0.01,0.16 0.05,0.13 -0.12,0.11 0.02,0.17 0.06,0.13 -0.11,0.12 0.01,0.17 0.05,0.13 -0.11,0.11 0.01,0.17 0.05,0.13 -0.12,0.12 0.02,0.17 0.06,0.13 -0.11,0.12 0.01,0.16 0.05,0.12 -0.11,0.11 0.01,0.17 0.05,0.13 -0.12,0.12 0.02,0.16 0.06,0.13 -0.11,0.11 0.01,0.17 0.05,0.13 -0.11,0.12 0.01,0.17 0.05,0.13 -0.12,0.11 0.02,0.17 0.06,0.13 -0.11,0.12 0.01,0.17 0.05,0.13 -0.11,0.11 0.01,0.17 0.05,0.13 -0.12,0.12 0.02,0.17 0.06,0.13 -0.11,0.12 0.02,0.16 0.05,0.13 -0.11,0.11 0.01,0.17 0.05,0.13 -0.11,0.12 0.01,0.17 0.05,0.13 -0.12,0.11 0.02,0.17 0.05,0.13 -0.11,0.12 0.01,0.17 0.05,0.13 -0.11,0.11 0.01,0.17 0.05,0.13 -0.12,0.12 0.02,0.17 0.05,0.13 -0.11,0.12 0.01,0.16 0.05,0.13 -0.11,0.11 0.01,0.17 0.05,0.13 -0.12,0.12 0.02,0.17 0.05,0.13 -0.11,0.11 0.01,0.17 0.05,0.13 -0.11,0.12 0.01,0.17 0.05,0.13 -0.12,0.11 0.02,0.17 0.05,0.13 -0.11,0.12 0.01,0.17 0.05,0.13 -0.11,0.12 0.01,0.16 0.05,0.13 -0.12,0.11 0.02,0.17 0.05,0.13 -0.11,0.12 0.01,0.17 0.05,0.13 -0.11,0.11 0.01,0.17 0.05,0.13 -0.12,0.12 0.02,0.17 0.05,0.13 -0.11,0.11 0.01,0.17 0.05,0.13 -0.11,0.12 0.01,0.17 0.05,0.13 -0.12,0.12 0.02,0.16 0.05,0.13 -0.11,0.11 0.01,0.17 0.05,0.13 -0.11,0.12 0.01,0.17 0.05,0.13 -0.12,0.11 0.02,0.17 0.05,0.13 -0.11,0.12 0.01,0.17 0.05,0.13 -0.11,0.12 0.01,0.16 0.05,0.12 -0.12,0.11 0.02,0.17 0.05,0.13 -0.11,0.12 0.01,0.16 0.05,0.13 -0.11,0.11 0.01,0.17 0.05,0.13 -0.12,0.12 0.02,0.17 0.05,0.13 -0.11,0.11 0.01,0.17 0.05,0.13 -0.11,0.12 0.01,0.17 0.05,0.13 -0.12,0.11 0.02,0.17 0.06,0.13 -0.11,0.12 0.01,0.17 0.05,0.13 -0.11,0.12 0.01,0.16 0.05,0.13 -0.12,0.11 0.02,0.17 0.06,0.13 -0.11,0.12 0.01,0.17 0.05,0.13 -0.11,0.11 0.01,0.17 0.05,0.13 -0.12,0.12 0.02,0.17 0.06,0.13 -0.11,0.11 0.01,0.17 0.05,0.13 -0.11,0.12 0.01,0.17 0.05,0.13 -0.12,0.12 0.02,0.16 0.06,0.13 -0.11,0.11 0.01,0.17 0.05,0.13 -0.11,0.12 0.01,0.17 0.05,0.13 -0.12,0.11 0.02,0.17 0.06,0.13 -0.11,0.12 0.02,0.18 0.05,0.13 -0.13,0.12l-0.06 0.01c-0.17,0.01 -0.13,0.06 -0.13,-0.11 -0.16,0.01 -0.12,0.04 -0.11,-0.12 -0.16,0.01 -0.12,0.05 -0.12,-0.11 -0.15,0 -0.11,0.04 -0.11,-0.12 -0.16,0.01 -0.12,0.05 -0.11,-0.11 -0.16,0 -0.12,0.04 -0.12,-0.12 -0.15,0.01 -0.11,0.05 -0.11,-0.11 -0.16,0 -0.12,0.04 -0.11,-0.12 -0.16,0.01 -0.12,0.04 -0.11,-0.12 -0.16,0.01 -0.12,0.05 -0.12,-0.11 -0.16,0 -0.12,0.04 -0.11,-0.12 -0.16,0.01 -0.12,0.05 -0.11,-0.11 -0.16,0 -0.12,0.04 -0.12,-0.12 -0.16,0.01 -0.12,0.05 -0.11,-0.11 -0.16,0 -0.12,0.04 -0.11,-0.12 -0.16,0.01 -0.12,0.05 -0.12,-0.12 -0.15,0.01 -0.12,0.05 -0.11,-0.11 -0.16,0.01 -0.12,0.04 -0.11,-0.12 -0.16,0.01 -0.12,0.05 -0.12,-0.11 -0.15,0 -0.12,0.04 -0.11,-0.12 -0.16,0.01 -0.12,0.05 -0.11,-0.11 -0.16,0 -0.12,0.04 -0.12,-0.12 -0.15,0.01 -0.12,0.04 -0.11,-0.12 -0.16,0.01 -0.12,0.05 -0.11,-0.11 -0.16,0 -0.12,0.04 -0.12,-0.12 -0.15,0.01 -0.12,0.05 -0.11,-0.11 -0.16,0 -0.12,0.04 -0.11,-0.12 -0.16,0.01 -0.12,0.05 -0.12,-0.11 -0.15,0 -0.12,0.04 -0.11,-0.12 -0.16,0.01 -0.12,0.04 -0.11,-0.12 -0.16,0.01 -0.12,0.05 -0.12,-0.11 -0.15,0 -0.12,0.04 -0.11,-0.12 -0.16,0.01 -0.12,0.05 -0.11,-0.11 -0.16,0 -0.12,0.04 -0.12,-0.12 -0.15,0.01 -0.12,0.05 -0.11,-0.11 -0.16,0 -0.12,0.04 -0.11,-0.12 -0.16,0.01 -0.12,0.04 -0.12,-0.12 -0.15,0.01 -0.12,0.05 -0.11,-0.11 -0.16,0 -0.12,0.04 -0.11,-0.12 -0.16,0.01 -0.12,0.05 -0.12,-0.11 -0.15,0 -0.12,0.04 -0.11,-0.12 -0.16,0.01 -0.12,0.05 -0.11,-0.11 -0.16,0 -0.12,0.04 -0.12,-0.12 -0.15,0.01 -0.11,0.04 -0.11,-0.12 -0.16,0.01 -0.12,0.05 -0.11,-0.11 -0.16,0 -0.12,0.04 -0.12,-0.12 -0.15,0.01 -0.12,0.05 -0.11,-0.11 -0.16,0 -0.12,0.04 -0.11,-0.12 -0.16,0.01 -0.12,0.05 -0.12,-0.11 -0.15,0 -0.11,0.04 -0.11,-0.12 -0.16,0.01 -0.12,0.05 -0.11,-0.12 -0.16,0.01 -0.12,0.05 -0.12,-0.11 -0.15,0 -0.11,0.04 -0.11,-0.12 -0.16,0.01 -0.12,0.05 -0.11,-0.11 -0.16,0 -0.12,0.04 -0.12,-0.12 -0.15,0.01 -0.11,0.05 -0.11,-0.11 -0.16,0 -0.12,0.04 -0.11,-0.12 -0.16,0.01 -0.12,0.04 -0.11,-0.12 -0.16,0.01 -0.12,0.05 -0.12,-0.11 -0.16,0 -0.12,0.04 -0.11,-0.12 -0.16,0.01 -0.12,0.05 -0.11,-0.11 -0.16,0 -0.12,0.04 -0.12,-0.12 -0.16,0.01 -0.12,0.05 -0.11,-0.11 -0.16,0 -0.12,0.04 -0.11,-0.12 -0.16,0.01 -0.12,0.04 -0.12,-0.12 -0.15,0.01 -0.12,0.05 -0.11,-0.11 -0.16,0 -0.12,0.04 -0.11,-0.12 -0.16,0.01 -0.12,0.05 -0.12,-0.11 -0.15,0 -0.12,0.04 -0.11,-0.12 -0.16,0.01 -0.12,0.05 -0.11,-0.11 -0.16,0 -0.12,0.04 -0.12,-0.12 -0.15,0.01 -0.12,0.04 -0.11,-0.12 -0.16,0.01 -0.12,0.05 -0.11,-0.11 -0.16,0 -0.12,0.04 -0.12,-0.12 -0.15,0.01 -0.12,0.05 -0.11,-0.11 -0.16,0 -0.12,0.04 -0.11,-0.12 -0.16,0.01 -0.12,0.05 -0.12,-0.11 -0.15,0 -0.12,0.04 -0.11,-0.12 -0.16,0.01 -0.12,0.04 -0.11,-0.12 -0.16,0.01 -0.12,0.05 -0.12,-0.11 -0.15,0 -0.12,0.04 -0.11,-0.12 -0.16,0.01 -0.12,0.05 -0.11,-0.11 -0.16,0 -0.12,0.04 -0.12,-0.12 -0.15,0.01 -0.12,0.05 -0.11,-0.11 -0.16,0 -0.12,0.04 -0.11,-0.12 -0.16,0.01 -0.12,0.04 -0.12,-0.12 -0.15,0.01 -0.12,0.05 -0.11,-0.11 -0.16,0 -0.12,0.04 -0.11,-0.12 -0.16,0.01 -0.12,0.05 -0.12,-0.11 -0.15,0 -0.12,0.04 -0.11,-0.12 -0.16,0.01 -0.12,0.05 -0.11,-0.11 -0.16,0 -0.12,0.04 -0.12,-0.12 -0.15,0.01 -0.11,0.04 -0.11,-0.12 -0.16,0.01 -0.12,0.05 -0.11,-0.11 -0.16,0 -0.12,0.04 -0.12,-0.12 -0.15,0.01 -0.12,0.05 -0.11,-0.11 -0.16,0 -0.12,0.04 -0.11,-0.12 -0.16,0.01 -0.12,0.05 -0.12,-0.11 -0.15,0 -0.11,0.04 -0.11,-0.12 -0.16,0.01 -0.12,0.04 -0.11,-0.12 -0.16,0.01 -0.12,0.05 -0.12,-0.11 -0.15,0 -0.11,0.04 -0.11,-0.12 -0.16,0.01 -0.12,0.05 -0.11,-0.11 -0.16,0 -0.12,0.04 -0.12,-0.12 -0.15,0.01 -0.11,0.05 -0.11,-0.11 -0.16,0 -0.12,0.04 -0.11,-0.12 -0.16,0.01 -0.12,0.04 -0.11,-0.12 -0.16,0.01 -0.12,0.05 -0.12,-0.11 -0.15,0 -0.12,0.04 -0.11,-0.12 -0.16,0.01 -0.12,0.05 -0.11,-0.11 -0.16,0 -0.12,0.04 -0.12,-0.12 -0.16,0.01 -0.12,0.05 -0.11,-0.11 -0.16,0 -0.12,0.04 -0.11,-0.12 -0.16,0.01 -0.12,0.04 -0.12,-0.12 -0.15,0.01 -0.12,0.05 -0.11,-0.11 -0.16,0 -0.12,0.04 -0.11,-0.12 -0.16,0.01 -0.12,0.05 -0.12,-0.11 -0.15,0 -0.12,0.04 -0.11,-0.12 -0.16,0.01 -0.12,0.05 -0.11,-0.11 -0.16,0 -0.12,0.04 -0.12,-0.12 -0.15,0.01 -0.12,0.04 -0.11,-0.12 -0.16,0.01 -0.12,0.05 -0.11,-0.11 -0.16,0 -0.12,0.04 -0.12,-0.12 -0.15,0.01 -0.12,0.05 -0.11,-0.11 -0.16,0 -0.12,0.04 -0.11,-0.12 -0.16,0.01 -0.12,0.05 -0.12,-0.11 -0.15,0 -0.12,0.04 -0.11,-0.12 -0.16,0.01 -0.12,0.04 -0.11,-0.12 -0.16,0.01 -0.12,0.05 -0.12,-0.11 -0.15,0 -0.12,0.04 -0.11,-0.12 -0.16,0.01 -0.12,0.05 -0.11,-0.11 -0.16,0 -0.12,0.04 -0.12,-0.12 -0.15,0.01 -0.12,0.05 -0.11,-0.11 -0.16,0 -0.12,0.04 -0.11,-0.12 -0.16,0.01 -0.12,0.04 -0.12,-0.12 -0.15,0.01 -0.12,0.05 -0.11,-0.11 -0.16,0 -0.12,0.04 -0.11,-0.12 -0.16,0.01 -0.12,0.05 -0.12,-0.11 -0.15,0 -0.12,0.04 -0.11,-0.12 -0.16,0.01 -0.12,0.05 -0.11,-0.11 -0.16,0 -0.12,0.04 -0.12,-0.12 -0.15,0.01 -0.11,0.04 -0.11,-0.12 -0.16,0.01 -0.12,0.05 -0.11,-0.11 -0.16,0 -0.12,0.04 -0.12,-0.12 -0.15,0.01 -0.11,0.05 -0.11,-0.11 -0.16,0 -0.12,0.04 -0.11,-0.12 -0.16,0.01 -0.12,0.05 -0.12,-0.11 -0.15,0 -0.11,0.04 -0.11,-0.12 -0.16,0.01 -0.12,0.04 -0.11,-0.12 -0.16,0.01 -0.12,0.05 -0.12,-0.11 -0.15,0 -0.11,0.04 -0.11,-0.12 -0.16,0.01 -0.12,0.05 -0.11,-0.11 -0.16,0 -0.12,0.04 -0.12,-0.12 -0.15,0.01 -0.11,0.05 -0.11,-0.11 -0.16,0 -0.12,0.04 -0.11,-0.12 -0.16,0.01 -0.12,0.04 -0.11,-0.12 -0.16,0.01 -0.12,0.05 -0.12,-0.11 -0.15,0 -0.12,0.04 -0.11,-0.12 -0.16,0.01 -0.12,0.05 -0.11,-0.11 -0.16,0 -0.12,0.04 -0.12,-0.12 -0.16,0.01 -0.12,0.05 -0.11,-0.11 -0.16,0 -0.12,0.04 -0.11,-0.12 -0.16,0.01 -0.12,0.04 -0.12,-0.12 -0.15,0.01 -0.12,0.05 -0.11,-0.11 -0.16,0 -0.12,0.04 -0.11,-0.12 -0.16,0.01 -0.12,0.05 -0.12,-0.11 -0.15,0 -0.12,0.04 -0.11,-0.12 -0.16,0.01 -0.12,0.05 -0.11,-0.11 -0.16,0 -0.12,0.04 -0.12,-0.12 -0.15,0.01 -0.12,0.04 -0.11,-0.12 -0.16,0.01 -0.12,0.05 -0.11,-0.11 -0.16,0 -0.12,0.04 -0.12,-0.12 -0.15,0.01 -0.12,0.05 -0.11,-0.11 -0.16,0 -0.12,0.04 -0.11,-0.12 -0.16,0.01 -0.12,0.05 -0.12,-0.11 -0.15,0 -0.12,0.04 -0.11,-0.12 -0.16,0.01 -0.12,0.04 -0.11,-0.12 -0.16,0.01 -0.12,0.05 -0.12,-0.11 -0.15,0 -0.12,0.04 -0.11,-0.12 -0.16,0.01 -0.12,0.05 -0.11,-0.11 -0.16,0 -0.12,0.04 -0.12,-0.12 -0.15,0.01 -0.12,0.05 -0.11,-0.11 -0.16,0 -0.12,0.04 -0.11,-0.12 -0.16,0.01 -0.12,0.04 -0.12,-0.12 -0.15,0.01 -0.12,0.05 -0.11,-0.11 -0.16,0 -0.12,0.04 -0.11,-0.12 -0.16,0.01 -0.12,0.05 -0.12,-0.11 -0.15,0 -0.12,0.04 -0.11,-0.12 -0.16,0.01 -0.12,0.05 -0.11,-0.11 -0.16,0 -0.12,0.04 -0.12,-0.12 -0.15,0.01 -0.11,0.04 -0.11,-0.12 -0.16,0.01 -0.12,0.05 -0.11,-0.11 -0.16,0 -0.12,0.04 -0.12,-0.12 -0.15,0.01 -0.11,0.05 -0.11,-0.11 -0.16,0 -0.12,0.04 -0.11,-0.12 -0.16,0.01 -0.12,0.05 -0.12,-0.11 -0.15,0 -0.11,0.04 -0.11,-0.12 -0.16,0.01 -0.12,0.04 -0.11,-0.12 -0.16,0.01 -0.12,0.05 -0.12,-0.11 -0.15,0 -0.11,0.04 -0.11,-0.12 -0.16,0.01 -0.12,0.05 -0.11,-0.11 -0.16,0 -0.12,0.04 -0.12,-0.12 -0.15,0.01 -0.11,0.05 -0.11,-0.11 -0.16,0 -0.12,0.04 -0.11,-0.12 -0.16,0.01 -0.12,0.04 -0.11,-0.12 -0.16,0.01 -0.12,0.05 -0.12,-0.11 -0.15,0 -0.12,0.04 -0.11,-0.12 -0.16,0.01 -0.12,0.05 -0.11,-0.11 -0.16,0 -0.12,0.04 -0.12,-0.12 -0.15,0.01 -0.12,0.05 -0.11,-0.11 -0.16,0 -0.12,0.04 -0.11,-0.12 -0.16,0.01 -0.12,0.04 -0.12,-0.12 -0.15,0.01 -0.12,0.05 -0.11,-0.11 -0.16,0 -0.12,0.04 -0.11,-0.12 -0.16,0.01 -0.12,0.05 -0.12,-0.11 -0.15,0 -0.12,0.04 -0.11,-0.12 -0.16,0.01 -0.12,0.05 -0.11,-0.11 -0.16,0 -0.12,0.04 -0.12,-0.12 -0.15,0.01 -0.12,0.04 -0.11,-0.12 -0.16,0.01 -0.12,0.05 -0.11,-0.11 -0.16,0 -0.12,0.04 -0.12,-0.12 -0.15,0.01 -0.12,0.05 -0.11,-0.11 -0.16,0 -0.12,0.04 -0.11,-0.12 -0.16,0.01 -0.12,0.05 -0.12,-0.11 -0.15,0 -0.12,0.04 -0.11,-0.12 -0.16,0.01 -0.12,0.04 -0.11,-0.12 -0.16,0.01 -0.12,0.05 -0.12,-0.11 -0.15,0 -0.12,0.04 -0.11,-0.12 -0.16,0.01 -0.12,0.05 -0.11,-0.11 -0.16,0 -0.12,0.04 -0.12,-0.12 -0.15,0.01 -0.12,0.05 -0.11,-0.11 -0.16,0 -0.12,0.04 -0.11,-0.12 -0.16,0.01 -0.12,0.04 -0.12,-0.12 -0.15,0.01 -0.12,0.05 -0.11,-0.11 -0.16,0 -0.12,0.04 -0.11,-0.12 -0.16,0.01 -0.12,0.05 -0.12,-0.11 -0.15,0 -0.12,0.04 -0.11,-0.12 -0.16,0.01 -0.12,0.05 -0.11,-0.11 -0.16,0 -0.12,0.04 -0.12,-0.12 -0.15,0.01 -0.11,0.04 -0.11,-0.12 -0.16,0.01 -0.12,0.05 -0.11,-0.11 -0.16,0 -0.12,0.04 -0.12,-0.12 -0.15,0.01 -0.11,0.05 -0.11,-0.11 -0.16,0 -0.12,0.04 -0.11,-0.12 -0.16,0.01 -0.12,0.05 -0.12,-0.11 -0.15,0 -0.11,0.04 -0.11,-0.12 -0.16,0.01 -0.12,0.04 -0.11,-0.12 -0.16,0.01 -0.12,0.05 -0.12,-0.11 -0.15,0 -0.11,0.04 -0.11,-0.12 -0.16,0.01 -0.12,0.05 -0.11,-0.11 -0.16,0 -0.12,0.04 -0.12,-0.12 -0.15,0.01 -0.11,0.05 -0.11,-0.11 -0.16,0 -0.12,0.04 -0.11,-0.12 -0.16,0.01 -0.12,0.04 -0.11,-0.12 -0.16,0.01 -0.12,0.05 -0.12,-0.11 -0.15,0 -0.12,0.04 -0.11,-0.12 -0.16,0.01 -0.12,0.05 -0.11,-0.11 -0.16,0 -0.12,0.04 -0.12,-0.12 -0.15,0.01 -0.12,0.05 -0.11,-0.11 -0.16,0 -0.12,0.04 -0.11,-0.12 -0.16,0.01 -0.12,0.04 -0.12,-0.12 -0.15,0.01 -0.12,0.05 -0.11,-0.11 -0.16,0 -0.12,0.04 -0.11,-0.12 -0.16,0.01 -0.12,0.05 -0.12,-0.11 -0.15,0 -0.12,0.04 -0.11,-0.12 -0.16,0.01 -0.12,0.05 -0.11,-0.12 -0.16,0.01 -0.12,0.05 -0.12,-0.11 -0.15,0.01 -0.12,0.04 -0.11,-0.12 -0.16,0.01 -0.12,0.05 -0.11,-0.11 -0.16,0 -0.12,0.04 -0.12,-0.12 -0.15,0.01 -0.12,0.05 -0.11,-0.11 -0.16,0 -0.12,0.04 -0.11,-0.12 -0.16,0.01 -0.12,0.05 -0.12,-0.11 -0.15,0 -0.12,0.04 -0.11,-0.12 -0.16,0.01 -0.12,0.04 -0.11,-0.12 -0.16,0.01 -0.12,0.05 -0.12,-0.11 -0.15,0 -0.12,0.04 -0.11,-0.12 -0.16,0.01 -0.12,0.05 -0.11,-0.11 -0.16,0 -0.12,0.04 -0.12,-0.12 -0.15,0.01 -0.12,0.05 -0.11,-0.11 -0.16,0 -0.12,0.04 -0.11,-0.12 -0.16,0.01 -0.12,0.04 -0.12,-0.12 -0.15,0.01 -0.12,0.05 -0.11,-0.11 -0.16,0 -0.12,0.04 -0.11,-0.12 -0.16,0.01 -0.12,0.05 -0.12,-0.11 -0.15,0 -0.12,0.04 -0.11,-0.12 -0.16,0.01 -0.12,0.05 -0.11,-0.11 -0.16,0 -0.12,0.04 -0.12,-0.12 -0.15,0.01 -0.11,0.04 -0.11,-0.12 -0.16,0.01 -0.12,0.05 -0.11,-0.11 -0.16,0 -0.12,0.04 -0.12,-0.12 -0.15,0.01 -0.11,0.05 -0.11,-0.11 -0.16,0 -0.12,0.04 -0.11,-0.12 -0.16,0.01 -0.12,0.05 -0.12,-0.11 -0.15,0 -0.11,0.04 -0.11,-0.12 -0.16,0.01 -0.12,0.04 -0.11,-0.12 -0.16,0.01 -0.12,0.05 -0.12,-0.11 -0.15,0 -0.11,0.04 -0.11,-0.12 -0.16,0.01 -0.12,0.05 -0.11,-0.11 -0.16,0 -0.12,0.04 -0.12,-0.12 -0.15,0.01 -0.11,0.05 -0.11,-0.12 -0.16,0.01 -0.12,0.05 -0.11,-0.11 -0.16,0.01 -0.12,0.04 -0.11,-0.12 -0.16,0.01 -0.12,0.05 -0.12,-0.11 -0.15,0 -0.12,0.04 -0.11,-0.12 -0.16,0.01 -0.12,0.05 -0.11,-0.11 -0.16,0 -0.12,0.04 -0.12,-0.12 -0.15,0.01 -0.12,0.05 -0.11,-0.11 -0.16,0 -0.12,0.04 -0.11,-0.12 -0.16,0.01 -0.12,0.04 -0.12,-0.12 -0.15,0.01 -0.12,0.05 -0.11,-0.11 -0.16,0 -0.12,0.04 -0.11,-0.12 -0.16,0.01 -0.12,0.05 -0.12,-0.11 -0.15,0 -0.12,0.04 -0.11,-0.12 -0.16,0.01 -0.12,0.05 -0.11,-0.11 -0.16,0 -0.12,0.04 -0.12,-0.12 -0.15,0.01 -0.12,0.04 -0.11,-0.12 -0.16,0.01 -0.12,0.05 -0.11,-0.11 -0.16,0 -0.12,0.04 -0.12,-0.12 -0.15,0.01 -0.12,0.05 -0.11,-0.11 -0.16,0 -0.12,0.04 -0.11,-0.12 -0.16,0.01 -0.12,0.05 -0.12,-0.12 -0.15,0.01 -0.12,0.05 -0.11,-0.11 -0.16,0.01 -0.12,0.04 -0.11,-0.12 -0.16,0.01 -0.12,0.05 -0.12,-0.11 -0.15,0 -0.12,0.04 -0.11,-0.12 -0.16,0.01 -0.12,0.05 -0.11,-0.11 -0.16,0 -0.12,0.04 -0.12,-0.12 -0.15,0.01 -0.12,0.05 -0.11,-0.11 -0.16,0 -0.12,0.04 -0.11,-0.12 -0.16,0.01 -0.12,0.04 -0.12,-0.12 -0.15,0.01 -0.12,0.05 -0.11,-0.11 -0.16,0 -0.12,0.04 -0.11,-0.12 -0.16,0.01 -0.12,0.05 -0.12,-0.11 -0.15,0 -0.12,0.04 -0.11,-0.12 -0.16,0.01 -0.12,0.05 -0.11,-0.12 -0.16,0.01 -0.12,0.05 -0.12,-0.11 -0.15,0.01 -0.11,0.04 -0.11,-0.12 -0.16,0.01 -0.12,0.05 -0.11,-0.11 -0.16,0 -0.12,0.04 -0.12,-0.12 -0.15,0.01 -0.11,0.05 -0.11,-0.11 -0.16,0 -0.12,0.04 -0.11,-0.12 -0.16,0.01 -0.12,0.05 -0.12,-0.12 -0.15,0.01 -0.11,0.05 -0.11,-0.11 -0.16,0.01 -0.12,0.04 -0.11,-0.12 -0.16,0.01 -0.12,0.05 -0.12,-0.11 -0.15,0 -0.11,0.04 -0.11,-0.12 -0.16,0.01 -0.12,0.05 -0.11,-0.11 -0.16,0 -0.12,0.04 -0.12,-0.12 -0.15,0.01 -0.11,0.05 -0.11,-0.11 -0.16,0 -0.12,0.04 -0.11,-0.12 -0.16,0.01 -0.12,0.04 -0.11,-0.12 -0.16,0.01 -0.12,0.05 -0.12,-0.11 -0.15,0 -0.12,0.04 -0.11,-0.12 -0.16,0.01 -0.12,0.05 -0.11,-0.11 -0.16,0 -0.12,0.04 -0.12,-0.12 -0.15,0.01 -0.12,0.05 -0.11,-0.12 -0.16,0.01 -0.12,0.05 -0.11,-0.11 -0.16,0.01 -0.12,0.04 -0.12,-0.12 -0.15,0.01 -0.12,0.05 -0.11,-0.11 -0.16,0 -0.12,0.04 -0.11,-0.12 -0.16,0.01 -0.12,0.05 -0.12,-0.11 -0.15,0 -0.12,0.04 -0.11,-0.12 -0.16,0.01 -0.12,0.05 -0.11,-0.11 -0.16,0 -0.12,0.04 -0.12,-0.12 -0.15,0.01 -0.12,0.04 -0.11,-0.12 -0.16,0.01 -0.12,0.05 -0.11,-0.11 -0.16,0 -0.12,0.04 -0.12,-0.12 -0.15,0.01 -0.12,0.05 -0.11,-0.11 -0.16,0 -0.12,0.04 -0.11,-0.12l-0.23 0c0.01,0.16 0.05,0.12 -0.11,0.12 0.01,0.16 0.04,0.12 -0.11,0.11 0,0.16 0.04,0.13 -0.12,0.12 0.01,0.16 0.05,0.12 -0.11,0.12 0.01,0.16 0.04,0.12 -0.11,0.11 0,0.16 0.04,0.12 -0.12,0.12 0.01,0.16 0.05,0.12 -0.11,0.11 0.01,0.16 0.04,0.12 -0.11,0.12 0,0.16 0.04,0.12 -0.12,0.11 0.01,0.17 0.05,0.13 -0.11,0.12 0.01,0.16 0.05,0.12 -0.11,0.12 0,0.16 0.04,0.12 -0.12,0.11 0.01,0.16 0.05,0.12 -0.11,0.12 0.01,0.16 0.05,0.12 -0.11,0.11 0,0.16 0.04,0.12 -0.12,0.12 0.01,0.16 0.05,0.12 -0.11,0.11 0.01,0.16 0.05,0.13 -0.11,0.12 0,0.16 0.04,0.12 -0.12,0.11 0.01,0.17 0.05,0.13 -0.11,0.12 0.01,0.16 0.05,0.12 -0.11,0.12 0,0.16 0.04,0.12 -0.12,0.11 0.01,0.16 0.05,0.12 -0.11,0.12 0.01,0.16 0.05,0.12 -0.11,0.11 0,0.16 0.04,0.13 -0.12,0.12 0.01,0.16 0.05,0.12 -0.11,0.12 0.01,0.16 0.05,0.12 -0.11,0.11 0.01,0.16 0.04,0.12 -0.12,0.12 0.01,0.16 0.05,0.12 -0.11,0.11 0.01,0.16 0.05,0.13 -0.11,0.12 0.01,0.16 0.04,0.12 -0.12,0.11 0.01,0.17 0.05,0.13 -0.11,0.12 0.01,0.16 0.05,0.12 -0.11,0.11 0.01,0.17 0.04,0.13 -0.11,0.12 0,0.16 0.04,0.12 -0.12,0.12 0.01,0.16 0.05,0.12 -0.11,0.11 0.01,0.16 0.04,0.12 -0.11,0.12 0,0.16 0.04,0.12 -0.12,0.11 0.01,0.16 0.05,0.13 -0.11,0.12 0.01,0.16 0.04,0.12 -0.11,0.12 0,0.16 0.04,0.12 -0.12,0.11 0.01,0.16 0.05,0.12 -0.11,0.12 0.01,0.16 0.04,0.12 -0.11,0.11 0,0.16 0.04,0.12 -0.12,0.12 0.01,0.16 0.05,0.12 -0.11,0.11 0.01,0.17 0.04,0.13 -0.11,0.12 0,0.16 0.04,0.12 -0.12,0.12 0.01,0.16 0.05,0.12 -0.11,0.11 0.01,0.16 0.04,0.12 -0.11,0.12 0,0.16 0.04,0.12 -0.12,0.11 0.01,0.16 0.05,0.13 -0.11,0.12 0.01,0.16 0.04,0.12 -0.11,0.11 0,0.16 0.04,0.13 -0.12,0.12 0.01,0.16 0.05,0.12 -0.11,0.11 0.01,0.17 0.04,0.13 -0.11,0.12 0,0.17 0.04,0.13 -0.12,0.11l-0.02 0.13c0.16,0.01 0.13,-0.04 0.11,0.13 0.17,-0.01 0.13,-0.05 0.11,0.12 0.17,-0.02 0.13,-0.06 0.11,0.11 0.17,-0.01 0.13,-0.05 0.12,0.12 0.17,-0.02 0.13,-0.06 0.11,0.12 0.17,-0.02 0.13,-0.06 0.11,0.11 0.17,-0.01 0.13,-0.05 0.12,0.12 0.17,-0.02 0.13,-0.06 0.11,0.11 0.17,-0.01 0.13,-0.05 0.11,0.12 0.17,-0.02 0.13,-0.06 0.12,0.11 0.16,-0.01 0.13,-0.05 0.11,0.12 0.17,-0.02 0.13,-0.05 0.11,0.12 0.17,-0.02 0.13,-0.06 0.12,0.11 0.16,-0.02 0.13,-0.05 0.11,0.12 0.17,-0.02 0.13,-0.06 0.11,0.11 0.17,-0.01 0.13,-0.05 0.12,0.12 0.16,-0.02 0.13,-0.06 0.11,0.11 0.17,-0.01 0.13,-0.05 0.11,0.12 0.17,-0.02 0.13,-0.06 0.12,0.12 0.16,-0.02 0.13,-0.06 0.11,0.11 0.17,-0.02 0.13,-0.05 0.11,0.12 0.17,-0.02 0.13,-0.06 0.12,0.11 0.16,-0.01 0.13,-0.05 0.11,0.12 0.17,-0.02 0.13,-0.06 0.11,0.12 0.17,-0.02 0.13,-0.06 0.12,0.11 0.16,-0.02 0.13,-0.06 0.11,0.12 0.17,-0.02 0.13,-0.06 0.11,0.11 0.17,-0.01 0.13,-0.05 0.12,0.12 0.16,-0.02 0.13,-0.06 0.11,0.11 0.17,-0.01 0.13,-0.05 0.11,0.12 0.17,-0.02 0.13,-0.06 0.12,0.11 0.16,-0.01 0.13,-0.05 0.11,0.12 0.17,-0.02 0.13,-0.05 0.11,0.12 0.17,-0.02 0.13,-0.06 0.12,0.11 0.16,-0.02 0.13,-0.05 0.11,0.12 0.17,-0.02 0.13,-0.06 0.11,0.11 0.17,-0.01 0.13,-0.05 0.12,0.12 0.16,-0.02 0.13,-0.06 0.11,0.11 0.17,-0.01 0.13,-0.05 0.11,0.12 0.17,-0.02 0.13,-0.06 0.12,0.12 0.16,-0.02 0.13,-0.06 0.11,0.11 0.17,-0.01 0.13,-0.05 0.11,0.12 0.17,-0.02 0.13,-0.06 0.12,0.11 0.16,-0.01 0.12,-0.05 0.11,0.12 0.17,-0.02 0.13,-0.06 0.11,0.11 0.17,-0.01 0.13,-0.05 0.12,0.12 0.16,-0.02 0.12,-0.06 0.11,0.12 0.17,-0.02 0.13,-0.06 0.11,0.11 0.17,-0.01 0.13,-0.05 0.11,0.12 0.17,-0.02 0.13,-0.06 0.12,0.11 0.17,-0.01 0.13,-0.05 0.11,0.12 0.17,-0.02 0.13,-0.06 0.11,0.11 0.17,-0.01 0.13,-0.05 0.12,0.12 0.17,-0.02 0.13,-0.05 0.11,0.12 0.17,-0.02 0.13,-0.06 0.11,0.11 0.17,-0.02 0.13,-0.05 0.12,0.12 0.17,-0.02 0.13,-0.06 0.11,0.11 0.17,-0.01 0.13,-0.05 0.11,0.12 0.17,-0.02 0.13,-0.06 0.12,0.12 0.16,-0.02 0.13,-0.06 0.11,0.11 0.17,-0.02 0.13,-0.06 0.11,0.12 0.17,-0.02 0.13,-0.06 0.12,0.11 0.16,-0.02 0.13,-0.05 0.11,0.12 0.17,-0.02 0.13,-0.06 0.11,0.11 0.17,-0.01 0.13,-0.05 0.12,0.12 0.16,-0.02 0.13,-0.06 0.11,0.11 0.17,-0.01 0.13,-0.05 0.11,0.12 0.17,-0.02 0.13,-0.06 0.12,0.12 0.16,-0.02 0.13,-0.06 0.11,0.11 0.17,-0.01 0.13,-0.05 0.11,0.12 0.17,-0.02 0.13,-0.06 0.12,0.11 0.16,-0.01 0.13,-0.05 0.11,0.12 0.17,-0.02 0.13,-0.06 0.11,0.12 0.17,-0.02 0.13,-0.06 0.12,0.11 0.16,-0.02 0.13,-0.06 0.11,0.12 0.17,-0.02 0.13,-0.06 0.11,0.11 0.17,-0.02 0.13,-0.05 0.12,0.12 0.16,-0.02 0.13,-0.06 0.11,0.11 0.17,-0.01 0.13,-0.05 0.11,0.12 0.17,-0.02 0.13,-0.06 0.12,0.12 0.16,-0.02 0.13,-0.06 0.11,0.11 0.17,-0.02 0.13,-0.06 0.11,0.12 0.17,-0.02 0.13,-0.06 0.12,0.11 0.16,-0.02 0.13,-0.05 0.11,0.12 0.17,-0.02 0.13,-0.06 0.11,0.11 0.17,-0.01 0.13,-0.05 0.12,0.12 0.16,-0.02 0.13,-0.06 0.11,0.11 0.17,-0.01 0.13,-0.05 0.11,0.12 0.17,-0.02 0.13,-0.06 0.12,0.12 0.16,-0.02 0.13,-0.06 0.11,0.11 0.17,-0.01 0.13,-0.05 0.11,0.12 0.17,-0.02 0.13,-0.06 0.12,0.11 0.16,-0.01 0.12,-0.05 0.11,0.12 0.17,-0.02 0.13,-0.06 0.11,0.12 0.17,-0.02 0.13,-0.06 0.12,0.11 0.16,-0.02 0.12,-0.06 0.11,0.12 0.17,-0.02 0.13,-0.06 0.11,0.11 0.17,-0.02 0.13,-0.05 0.11,0.12 0.17,-0.02 0.13,-0.06 0.12,0.11 0.17,-0.01 0.13,-0.05 0.11,0.12 0.17,-0.02 0.13,-0.06 0.11,0.11 0.17,-0.01 0.13,-0.05 0.12,0.12 0.17,-0.02 0.13,-0.06 0.11,0.12 0.17,-0.02 0.13,-0.06 0.11,0.11 0.17,-0.02 0.13,-0.05 0.12,0.12 0.17,-0.02 0.13,-0.06 0.11,0.11 0.17,-0.01 0.13,-0.05 0.11,0.12 0.17,-0.02 0.13,-0.06 0.12,0.12 0.16,-0.02 0.13,-0.06 0.11,0.11 0.17,-0.02 0.13,-0.06 0.11,0.12 0.17,-0.02 0.13,-0.06 0.12,0.11 0.16,-0.01 0.13,-0.05 0.11,0.12 0.17,-0.02 0.13,-0.06 0.11,0.11 0.17,-0.01 0.13,-0.05 0.12,0.12 0.16,-0.02 0.13,-0.06 0.11,0.12 0.17,-0.02 0.13,-0.06 0.11,0.11 0.17,-0.02 0.13,-0.06 0.12,0.12 0.16,-0.02 0.13,-0.06 0.11,0.11 0.17,-0.02 0.13,-0.05 0.11,0.12 0.17,-0.02 0.13,-0.06 0.12,0.11 0.16,-0.01 0.13,-0.05 0.11,0.12 0.17,-0.02 0.13,-0.06 0.11,0.11 0.17,-0.01 0.13,-0.05 0.12,0.12 0.16,-0.02 0.13,-0.06 0.11,0.12 0.17,-0.02 0.13,-0.06 0.11,0.11 0.17,-0.02 0.13,-0.05 0.12,0.12 0.16,-0.02 0.13,-0.06 0.11,0.11 0.17,-0.01 0.13,-0.05 0.11,0.12 0.17,-0.02 0.13,-0.06 0.12,0.12 0.16,-0.02 0.13,-0.06 0.11,0.11 0.17,-0.02 0.13,-0.06 0.11,0.12 0.17,-0.02 0.13,-0.06 0.12,0.11 0.16,-0.01 0.13,-0.05 0.11,0.12 0.17,-0.02 0.13,-0.06 0.11,0.11 0.17,-0.01 0.13,-0.05 0.12,0.12 0.16,-0.02 0.13,-0.06 0.11,0.12 0.17,-0.02 0.13,-0.06 0.11,0.11 0.17,-0.02 0.13,-0.06 0.12,0.12 0.16,-0.02 0.13,-0.06 0.11,0.11 0.17,-0.02 0.13,-0.05 0.11,0.12 0.17,-0.02 0.13,-0.06 0.12,0.11 0.16,-0.01 0.12,-0.05 0.11,0.12 0.17,-0.02 0.13,-0.06 0.11,0.12 0.17,-0.02 0.13,-0.06 0.12,0.11 0.16,-0.02 0.12,-0.05 0.11,0.12 0.17,-0.02 0.13,-0.06 0.11,0.11 0.17,-0.02 0.13,-0.05 0.11,0.12 0.17,-0.02 0.13,-0.06 0.12,0.11 0.17,-0.01 0.13,-0.05 0.11,0.12 0.17,-0.02 0.13,-0.06 0.11,0.12 0.17,-0.02 0.13,-0.06 0.12,0.11 0.17,-0.02 0.13,-0.06 0.11,0.12 0.17,-0.02 0.13,-0.06 0.11,0.11 0.17,-0.01 0.13,-0.05 0.12,0.12 0.17,-0.02 0.13,-0.06 0.11,0.11 0.17,-0.01 0.13,-0.05 0.11,0.12 0.17,-0.02 0.13,-0.06 0.12,0.12 0.16,-0.02 0.13,-0.06 0.11,0.11 0.17,-0.02 0.13,-0.06 0.11,0.12 0.17,-0.02 0.13,-0.06 0.12,0.11 0.16,-0.02 0.13,-0.05 0.11,0.12 0.17,-0.02 0.13,-0.06 0.11,0.11 0.17,-0.01 0.13,-0.05 0.12,0.12 0.16,-0.02 0.13,-0.06 0.11,0.12 0.17,-0.02 0.13,-0.06 0.11,0.11 0.17,-0.02 0.13,-0.05 0.12,0.12 0.16,-0.02 0.13,-0.06 0.11,0.11 0.17,-0.02 0.13,-0.05 0.11,0.12 0.17,-0.02 0.13,-0.06 0.12,0.11 0.16,-0.01 0.13,-0.05 0.11,0.12 0.17,-0.02 0.13,-0.06 0.11,0.12 0.17,-0.02 0.13,-0.06 0.12,0.11 0.16,-0.02 0.13,-0.06 0.11,0.12 0.17,-0.02 0.13,-0.06 0.11,0.11 0.17,-0.01 0.13,-0.05 0.12,0.12 0.16,-0.02 0.13,-0.06 0.11,0.11 0.17,-0.01 0.13,-0.05 0.11,0.12 0.17,-0.02 0.13,-0.06 0.12,0.12 0.16,-0.02 0.13,-0.06 0.11,0.11 0.17,-0.02 0.13,-0.06 0.11,0.12 0.17,-0.02 0.13,-0.06 0.12,0.11 0.16,-0.02 0.13,-0.05 0.11,0.12 0.17,-0.02 0.13,-0.06 0.11,0.11 0.17,-0.01 0.13,-0.05 0.12,0.12 0.16,-0.02 0.13,-0.06 0.11,0.12 0.17,-0.02 0.13,-0.06 0.11,0.11 0.17,-0.02 0.13,-0.05 0.12,0.12 0.16,-0.02 0.13,-0.06 0.11,0.11 0.17,-0.02 0.13,-0.05 0.11,0.12 0.17,-0.02 0.13,-0.06 0.11,0.11 0.17,-0.01 0.13,-0.05 0.12,0.12 0.17,-0.02 0.13,-0.06 0.11,0.12 0.17,-0.02 0.13,-0.06 0.12,0.11 0.16,-0.02 0.12,-0.06 0.11,0.12 0.17,-0.02 0.13,-0.06 0.11,0.11 0.17,-0.01 0.13,-0.05 0.11,0.12 0.17,-0.02 0.13,-0.06 0.12,0.11 0.17,-0.01 0.13,-0.05 0.11,0.12 0.17,-0.02 0.13,-0.06 0.11,0.12 0.17,-0.02 0.13,-0.06 0.12,0.11 0.17,-0.02 0.13,-0.06 0.11,0.12 0.17,-0.02 0.13,-0.06 0.11,0.11 0.17,-0.02 0.13,-0.05 0.12,0.12 0.17,-0.02 0.13,-0.06 0.11,0.11 0.17,-0.01 0.13,-0.05 0.11,0.12 0.17,-0.02 0.13,-0.06 0.12,0.12 0.16,-0.02 0.13,-0.06 0.11,0.11 0.17,-0.02 0.13,-0.05 0.11,0.12 0.17,-0.02 0.13,-0.06 0.12,0.11 0.16,-0.02 0.13,-0.05 0.11,0.12 0.17,-0.02 0.13,-0.06 0.11,0.11 0.17,-0.01 0.13,-0.05 0.12,0.12 0.16,-0.02 0.13,-0.06 0.11,0.12 0.17,-0.02 0.13,-0.06 0.11,0.11 0.17,-0.02 0.13,-0.06 0.12,0.12 0.16,-0.02 0.13,-0.06 0.11,0.11 0.17,-0.01 0.13,-0.05 0.11,0.12 0.17,-0.02 0.13,-0.06 0.12,0.11 0.16,-0.01 0.13,-0.05 0.11,0.12 0.17,-0.02 0.13,-0.06 0.11,0.12 0.17,-0.02 0.13,-0.06 0.12,0.11 0.16,-0.02 0.13,-0.06 0.11,0.12 0.17,-0.02 0.13,-0.06 0.11,0.11 0.17,-0.01 0.13,-0.05 0.12,0.12 0.16,-0.02 0.13,-0.06 0.11,0.11 0.17,-0.01 0.13,-0.05 0.11,0.12 0.17,-0.02 0.13,-0.06 0.12,0.12 0.16,-0.02 0.13,-0.06 0.11,0.11 0.17,-0.02 0.13,-0.05 0.11,0.12 0.17,-0.02 0.13,-0.06 0.12,0.11 0.16,-0.02 0.13,-0.05 0.11,0.12 0.17,-0.02 0.13,-0.06 0.11,0.11 0.17,-0.01 0.13,-0.05 0.12,0.12 0.16,-0.02 0.13,-0.06 0.11,0.12 0.17,-0.02 0.13,-0.06 0.11,0.11 0.17,-0.02 0.13,-0.06 0.12,0.12 0.16,-0.02 0.13,-0.06 0.11,0.11 0.17,-0.01 0.13,-0.05 0.11,0.12 0.17,-0.02 0.13,-0.06 0.11,0.11 0.17,-0.01 0.13,-0.05 0.12,0.12 0.17,-0.02 0.13,-0.06 0.11,0.12 0.17,-0.02 0.13,-0.06 0.12,0.11 0.16,-0.02 0.12,-0.06 0.11,0.12 0.17,-0.02 0.13,-0.06 0.11,0.11 0.17,-0.01 0.13,-0.05 0.11,0.12 0.17,-0.02 0.13,-0.06 0.12,0.11 0.17,-0.01 0.13,-0.05 0.11,0.12 0.17,-0.02 0.13,-0.06 0.11,0.12 0.17,-0.02 0.13,-0.06 0.12,0.11 0.17,-0.02 0.13,-0.05 0.11,0.12 0.17,-0.02 0.13,-0.06 0.11,0.11 0.17,-0.01 0.13,-0.05 0.12,0.12 0.17,-0.02 0.13,-0.06 0.11,0.11 0.17,-0.01 0.13,-0.05 0.11,0.12 0.17,-0.02 0.13,-0.06 0.12,0.12 0.16,-0.02 0.13,-0.06 0.11,0.11 0.17,-0.02 0.13,-0.06 0.11,0.12 0.17,-0.02 0.13,-0.06 0.12,0.11 0.16,-0.01 0.13,-0.05 0.11,0.12 0.17,-0.02 0.13,-0.06 0.11,0.11 0.17,-0.01 0.13,-0.05 0.12,0.12 0.16,-0.02 0.13,-0.06 0.11,0.12 0.17,-0.02 0.13,-0.06 0.11,0.11 0.17,-0.02 0.13,-0.06 0.12,0.12 0.16,-0.02 0.13,-0.06 0.11,0.11 0.17,-0.01 0.13,-0.05 0.11,0.12 0.17,-0.02 0.13,-0.06 0.12,0.11 0.16,-0.01 0.13,-0.05 0.11,0.12 0.17,-0.02 0.13,-0.06 0.11,0.12 0.17,-0.02 0.13,-0.06 0.12,0.11 0.16,-0.02 0.13,-0.05 0.11,0.12 0.17,-0.02 0.13,-0.06 0.11,0.11 0.17,-0.02 0.13,-0.05 0.12,0.12 0.16,-0.02 0.13,-0.06 0.11,0.11 0.17,-0.01 0.13,-0.05 0.11,0.12 0.17,-0.02 0.13,-0.06 0.12,0.12 0.16,-0.02 0.13,-0.06 0.11,0.11 0.17,-0.02 0.13,-0.06 0.11,0.12 0.17,-0.02 0.13,-0.06 0.12,0.11 0.16,-0.01 0.13,-0.05 0.11,0.12 0.17,-0.02 0.13,-0.06 0.11,0.11 0.17,-0.01 0.13,-0.05 0.12,0.12 0.16,-0.02 0.13,-0.06 0.11,0.12 0.17,-0.02 0.13,-0.06 0.11,0.11 0.17,-0.02 0.13,-0.05 0.12,0.12 0.16,-0.02 0.13,-0.06 0.11,0.11 0.17,-0.01 0.13,-0.05 0.11,0.12 0.17,-0.02 0.13,-0.06 0.11,0.11 0.17,-0.01 0.13,-0.05 0.12,0.12 0.17,-0.02 0.13,-0.06 0.11,0.12 0.17,-0.02 0.13,-0.06 0.11,0.11 0.17,-0.02 0.13,-0.06 0.12,0.12 0.17,-0.02 0.13,-0.06 0.11,0.11 0.17,-0.02 0.13,-0.05 0.11,0.12 0.17,-0.02 0.13,-0.06 0.12,0.11 0.17,-0.01 0.13,-0.05 0.11,0.12 0.17,-0.02 0.13,-0.06 0.11,0.12 0.17,-0.02 0.13,-0.06 0.12,0.11 0.17,-0.02 0.13,-0.06 0.11,0.12 0.17,-0.02 0.13,-0.06 0.11,0.11 0.17,-0.01 0.13,-0.05 0.12,0.12 0.17,-0.02 0.13,-0.06 0.11,0.11 0.17,-0.01 0.13,-0.05 0.11,0.12 0.17,-0.02 0.13,-0.06 0.12,0.12 0.16,-0.02 0.13,-0.06 0.11,0.11 0.17,-0.02 0.13,-0.05 0.11,0.12 0.17,-0.02 0.13,-0.06 0.12,0.11 0.16,-0.01 0.13,-0.05 0.11,0.12 0.17,-0.02 0.13,-0.06 0.11,0.11 0.17,-0.01 0.13,-0.05 0.12,0.12 0.16,-0.02 0.13,-0.06 0.11,0.12 0.17,-0.02 0.13,-0.06 0.11,0.11 0.17,-0.02 0.13,-0.06 0.12,0.12 0.16,-0.02 0.13,-0.06 0.11,0.11 0.17,-0.02 0.13,-0.05 0.11,0.12 0.17,-0.02 0.13,-0.06 0.12,0.11 0.16,-0.01 0.13,-0.05 0.11,0.12 0.17,-0.02 0.13,-0.06 0.11,0.12 0.17,-0.02 0.13,-0.06 0.12,0.11 0.16,-0.02 0.13,-0.05 0.11,0.12 0.17,-0.02 0.13,-0.06 0.11,0.11 0.17,-0.01 0.13,-0.05 0.12,0.12 0.16,-0.02 0.13,-0.06 0.11,0.11 0.17,-0.01 0.13,-0.05 0.11,0.12 0.17,-0.02 0.13,-0.06 0.12,0.12 0.16,-0.02 0.13,-0.06 0.11,0.11 0.17,-0.02 0.13,-0.06 0.11,0.12 0.17,-0.02 0.13,-0.06 0.12,0.11 0.16,-0.01 0.13,-0.05 0.11,0.12 0.17,-0.02 0.13,-0.06 0.11,0.11 0.17,-0.01 0.13,-0.05 0.12,0.12 0.16,-0.02 0.12,-0.06 0.11,0.12 0.17,-0.02 0.13,-0.06 0.11,0.11 0.17,-0.02 0.13,-0.06 0.12,0.12 0.16,-0.02 0.13,-0.06 0.11,0.11 0.17,-0.01 0.13,-0.05 0.11,0.12 0.17,-0.02 0.13,-0.06 0.11,0.11 0.17,-0.01 0.13,-0.05 0.12,0.12 0.17,-0.02 0.13,-0.06 0.11,0.12 0.17,-0.02 0.13,-0.06 0.11,0.11 0.17,-0.02 0.13,-0.05 0.12,0.12 0.17,-0.02 0.13,-0.06 0.11,0.11 0.17,-0.01 0.13,-0.05 0.11,0.12 0.17,-0.02 0.13,-0.06 0.12,0.11 0.17,-0.01 0.13,-0.05 0.11,0.12 0.17,-0.02 0.13,-0.06 0.11,0.12 0.17,-0.02 0.13,-0.06 0.12,0.11 0.17,-0.02 0.13,-0.06 0.11,0.12 0.17,-0.02 0.13,-0.06 0.11,0.11 0.17,-0.01 0.13,-0.05 0.12,0.12 0.17,-0.02 0.13,-0.06 0.11,0.11 0.17,-0.01 0.13,-0.05 0.11,0.12 0.17,-0.02 0.13,-0.06 0.12,0.12 0.16,-0.02 0.13,-0.06 0.11,0.11 0.17,-0.02 0.13,-0.05 0.11,0.12 0.17,-0.02 0.13,-0.06 0.12,0.11 0.16,-0.01 0.13,-0.05 0.11,0.12 0.17,-0.02 0.13,-0.06 0.11,0.11 0.17,-0.01 0.13,-0.05 0.12,0.12 0.16,-0.02 0.13,-0.06 0.11,0.12 0.17,-0.02 0.13,-0.06 0.11,0.11 0.17,-0.02 0.13,-0.05 0.12,0.12 0.16,-0.02 0.13,-0.06 0.11,0.11 0.17,-0.01 0.13,-0.05 0.11,0.12 0.17,-0.02 0.13,-0.06 0.12,0.11 0.16,-0.01 0.13,-0.05 0.11,0.12 0.17,-0.02 0.13,-0.06 0.11,0.12 0.17,-0.02 0.13,-0.06 0.12,0.11 0.16,-0.02 0.13,-0.06 0.11,0.12 0.17,-0.02 0.13,-0.06 0.11,0.11 0.06,0.03 0.4,0.22 0.01,0.19 0.01,0.16 0.05,0.13 -0.11,0.11 0.01,0.17 0.05,0.13 -0.12,0.12 0.02,0.17 0.06,0.13 -0.11,0.11 0.01,0.17 0.05,0.13 -0.11,0.12 0.01,0.17 0.05,0.13 -0.12,0.12 0.02,0.16 0.06,0.12 -0.11,0.11 0.01,0.17 0.05,0.13 -0.11,0.12 0.01,0.16 0.05,0.13 -0.12,0.11 0.02,0.17 0.06,0.13 -0.11,0.12 0.01,0.17 0.05,0.13 -0.11,0.11 0.01,0.17 0.05,0.13 -0.12,0.12 0.02,0.17 0.06,0.13 -0.11,0.12 0.01,0.16 0.05,0.12 -0.11,0.11 0.01,0.17 0.05,0.13 -0.12,0.12 0.02,0.16 0.06,0.13 -0.11,0.11 0.01,0.17 0.05,0.13 -0.11,0.12 0.01,0.17 0.05,0.13 -0.12,0.11 0.02,0.17 0.06,0.13 -0.11,0.12 0.02,0.17 0.05,0.13 -0.11,0.12 0.01,0.16 0.05,0.13 -0.12,0.11 0.02,0.17 0.06,0.13 -0.11,0.12 0.02,0.16 0.05,0.13 -0.11,0.11 0.01,0.17 0.05,0.13 -0.11,0.12 0.01,0.17 0.05,0.13 -0.12,0.11 0.02,0.17 0.05,0.13 -0.11,0.12 0.01,0.17 0.05,0.13 -0.11,0.12 0.01,0.16 0.05,0.12 -0.12,0.11 0.02,0.17 0.05,0.13 -0.11,0.12 0.01,0.16 0.05,0.13 -0.11,0.11 0.01,0.17 0.05,0.13 -0.12,0.12 0.02,0.17 0.05,0.13 -0.11,0.11 0.01,0.17 0.05,0.13 -0.11,0.12 0.01,0.17 0.05,0.13 -0.12,0.12 0.02,0.16 0.05,0.12 -0.11,0.11 0.01,0.17 0.05,0.13 -0.11,0.12 0.01,0.17 0.05,0.13 -0.12,0.11 0.02,0.17 0.05,0.13 -0.11,0.12 0.01,0.17 0.05,0.13 -0.11,0.11 0.01,0.17 0.05,0.13 -0.12,0.12 0.02,0.17 0.05,0.13 -0.11,0.12 0.01,0.16 0.05,0.12 -0.11,0.11 0.01,0.17 0.05,0.13 -0.12,0.12 0.02,0.16 0.05,0.13 -0.11,0.11 0.01,0.17 0.05,0.13 -0.11,0.12 0.01,0.17 0.05,0.13 -0.12,0.11 0.02,0.17 0.05,0.13 -0.11,0.12 0.01,0.17 0.05,0.13 -0.11,0.12 0.01,0.16 0.05,0.12 -0.12,0.11 0.02,0.17 0.05,0.13 -0.11,0.12 0.01,0.16 0.05,0.13 -0.11,0.11 0.01,0.17 0.05,0.13 -0.12,0.12 0.02,0.17 0.06,0.13 -0.11,0.11 0.01,0.17 0.05,0.13 -0.11,0.12 0.01,0.17 0.05,0.13 -0.12,0.12 0.02,0.16 0.06,0.13 -0.11,0.11 0.01,0.17 0.05,0.13 -0.11,0.12 0.01,0.16 0.05,0.13 -0.12,0.11 0.02,0.17 0.06,0.13 -0.11,0.12 0.01,0.17 0.05,0.13 -0.11,0.11 0.01,0.17 0.05,0.13 -0.12,0.12 0.02,0.17 0.06,0.13 -0.11,0.12 0.01,0.16 0.05,0.12 -0.11,0.11 0.01,0.17 0.05,0.13 -0.12,0.12 0.02,0.16 0.06,0.13 -0.11,0.11 0.01,0.17 0.05,0.13 -0.11,0.12 0.01,0.17 0.05,0.13 -0.11,0.11 0.01,0.17 0.05,0.13 -0.12,0.12 0.02,0.17 0.05,0.13 -0.11,0.12 0.01,0.16 0.05,0.13 -0.12,0.11 0.02,0.17 0.06,0.13 -0.11,0.12 0.02,0.17 0.05,0.13 -0.11,0.11 0.01,0.17 0.05,0.13 -0.11,0.12 0.01,0.17 0.05,0.13 -0.12,0.11 0.02,0.17 0.05,0.13 -0.11,0.12 0.01,0.17 0.05,0.13 -0.11,0.12 0.01,0.16 0.05,0.13 -0.12,0.11 0.02,0.17 0.05,0.13 -0.11,0.12 0.01,0.16 0.05,0.13 -0.11,0.11 0.01,0.17 0.05,0.13 -0.12,0.12 0.02,0.17 0.05,0.13 -0.11,0.11 0.01,0.17 0.05,0.13 -0.11,0.12 0.01,0.17 0.05,0.13 -0.12,0.12 0.02,0.16 0.05,0.12 -0.11,0.11 0.01,0.17 0.05,0.13 -0.11,0.12 0.01,0.16 0.05,0.13 -0.12,0.11 0.02,0.17 0.05,0.13 -0.11,0.12 0.01,0.17 0.05,0.13 -0.11,0.11 0.01,0.17 0.05,0.13 -0.12,0.12 0.02,0.17 0.05,0.13 -0.11,0.12 0.01,0.16 0.05,0.13 -0.11,0.11 0.01,0.17 0.05,0.13 -0.12,0.12 0.02,0.17 0.05,0.13 -0.11,0.11 0.01,0.17 0.05,0.13 -0.11,0.12 0.01,0.17 0.05,0.13 -0.12,0.11 0.02,0.17 0.05,0.13 -0.11,0.12 0.01,0.17 0.05,0.13 -0.11,0.12 0.01,0.16 0.05,0.12 -0.12,0.11 0.02,0.17 0.05,0.13 -0.11,0.12 0.01,0.16 0.05,0.13 -0.11,0.11 0.01,0.17 0.05,0.13 -0.12,0.12 0.02,0.17 0.06,0.13 -0.11,0.11 0.02,0.17 0.05,0.13 -0.11,0.12 0.01,0.17 0.05,0.13 -0.12,0.12 0.02,0.16 0.06,0.13 -0.11,0.11 0.02,0.17 0.05,0.13 -0.11,0.12 0.01,0.17 0.05,0.13 -0.12,0.11 0.02,0.17 0.06,0.13 -0.11,0.12 0.02,0.17 0.05,0.13 -0.11,0.11 0.01,0.17 0.05,0.13 -0.12,0.12 0.02,0.17 0.06,0.13 -0.11,0.12 0.02,0.16 0.05,0.13 -0.11,0.11 0.01,0.17 0.05,0.13 -0.12,0.12 0.02,0.16 0.06,0.13 -0.11,0.11 0.02,0.17 0.05,0.13 -0.11,0.12 0.01,0.17 0.05,0.13 -0.11,0.11 0.01,0.17 0.05,0.13 -0.12,0.12 0.02,0.17 0.05,0.13 -0.11,0.12 0.01,0.16 0.05,0.12 -0.11,0.11 0.01,0.17 0.05,0.13 -0.12,0.12 0.02,0.16 0.05,0.13 -0.11,0.11 0.01,0.17 0.05,0.13 -0.11,0.12 0.01,0.17 0.05,0.13 -0.12,0.11 0.02,0.17 0.05,0.13 -0.11,0.12 0.01,0.17 0.05,0.13 -0.11,0.12 0.01,0.16 0.05,0.13 -0.12,0.11 0.02,0.17 0.05,0.13 -0.11,0.12 0.01,0.17 0.05,0.13 -0.11,0.11 0.01,0.17 0.05,0.13 -0.12,0.12 0.02,0.17 0.05,0.13 -0.11,0.11 0.01,0.17 0.05,0.13 -0.11,0.12 0.01,0.17 0.05,0.13 -0.12,0.12 0.02,0.16 0.05,0.13 -0.11,0.11 0.01,0.17 0.05,0.13 -0.11,0.12 0.01,0.16 0.05,0.13 -0.12,0.11 0.02,0.17 0.05,0.13 -0.11,0.12 0.01,0.17 0.05,0.13 -0.11,0.11 0.01,0.17 0.05,0.13 -0.12,0.12 0.02,0.17 0.05,0.13 -0.11,0.12 0.01,0.16 0.05,0.13 -0.11,0.11 0.01,0.17 0.05,0.13 -0.12,0.12 0.02,0.17 0.05,0.13 -0.11,0.11 0.01,0.17 0.05,0.13 -0.11,0.12 0.01,0.17 0.05,0.13 -0.12,0.11 0.02,0.17 0.05,0.13 -0.11,0.12 0.01,0.17 0.05,0.13 -0.11,0.12 0.01,0.16 0.05,0.13 -0.12,0.11 0.02,0.17 0.05,0.13 -0.11,0.12 0.01,0.17 0.05,0.13 -0.11,0.11 0.01,0.17 0.05,0.13 -0.12,0.12 0.02,0.17 0.06,0.13 -0.11,0.11 0.02,0.17 0.05,0.13 -0.11,0.12 0.01,0.17 0.05,0.13 -0.12,0.12 0.02,0.16 0.06,0.12 -0.11,0.11 0.02,0.17 0.05,0.13 -0.11,0.12 0.01,0.17 0.05,0.13 -0.12,0.11 0.02,0.17 0.06,0.13 -0.11,0.12 0.02,0.17 0.05,0.13 -0.11,0.11 0.01,0.17 0.05,0.13 -0.12,0.12 0.02,0.17 0.06,0.13 -0.11,0.12 0.02,0.16 0.05,0.13 -0.11,0.11 0.01,0.17 0.05,0.13 -0.12,0.12 0.02,0.17 0.06,0.13 -0.11,0.11 0.02,0.17 0.05,0.13 -0.11,0.12 0.01,0.17 0.05,0.13 -0.11,0.11 0.01,0.17 0.05,0.13 -0.12,0.12 0.02,0.17 0.05,0.13 -0.11,0.12 0.01,0.16 0.05,0.13 -0.11,0.11 0.01,0.17 0.05,0.13 -0.12,0.12 0.02,0.16 0.05,0.13 -0.11,0.11 0.01,0.17 0.05,0.13 -0.11,0.12 0.01,0.17 0.05,0.13 -0.12,0.11 0.02,0.17 0.05,0.13 -0.11,0.12 0.01,0.17 0.05,0.13 -0.11,0.12 0.01,0.16 0.05,0.13 -0.12,0.11 0.02,0.17 0.05,0.13 -0.11,0.12 0.01,0.17 0.05,0.13 -0.11,0.11 0.01,0.17 0.05,0.13 -0.12,0.12 0.02,0.17 0.05,0.13 -0.11,0.11 0.01,0.17 0.05,0.13 -0.11,0.12 0.01,0.17 0.05,0.13 -0.12,0.12 0.02,0.16 0.05,0.13 -0.11,0.11 0.01,0.17 0.05,0.13 -0.11,0.12 0.01,0.17 0.05,0.13 -0.12,0.11 0.02,0.17 0.05,0.13 -0.11,0.12 0.01,0.17 0.05,0.13 -0.11,0.11 0.01,0.17 0.05,0.13 -0.12,0.12 0.02,0.17 0.05,0.13 -0.11,0.12 0.01,0.16 0.05,0.13 -0.11,0.11 0.01,0.17 0.05,0.13 -0.12,0.12 0.02,0.17 0.05,0.13 -0.11,0.11 0.01,0.17 0.05,0.13 -0.11,0.12 0.01,0.17 0.05,0.13 -0.12,0.11 0.02,0.17 0.05,0.13 -0.11,0.12 0.01,0.17 0.05,0.13 -0.11,0.12 0.01,0.16 0.05,0.13 -0.12,0.11 0.02,0.17 0.05,0.13 -0.11,0.12 0.01,0.17 0.05,0.13 -0.11,0.11 0.01,0.17 0.05,0.13 -0.12,0.12 0.02,0.17 0.06,0.13 -0.11,0.11 0.01,0.17 0.05,0.13 -0.11,0.12 0.01,0.17 0.05,0.13 -0.12,0.12 0.02,0.16 0.06,0.13 -0.11,0.11 0.01,0.17 0.05,0.13 -0.11,0.12 0.01,0.17 0.05,0.13 -0.12,0.11 0.02,0.17 0.06,0.13 -0.11,0.12 0.01,0.17 0.05,0.13 -0.11,0.11 0.01,0.17 0.05,0.13 -0.12,0.12 0.02,0.17 0.06,0.13 -0.11,0.12 0.01,0.16 0.05,0.13 -0.11,0.11 0.01,0.17 0.05,0.13 -0.12,0.12 0.02,0.17 0.06,0.13 -0.11,0.11 0.01,0.17 0.05,0.13 -0.11,0.12 0.01,0.17 0.05,0.13 -0.11,0.11 0.01,0.17 0.05,0.13 -0.12,0.12 0.02,0.17 0.05,0.13 -0.11,0.12 0.01,0.16 0.05,0.13 -0.11,0.11 0.01,0.17 0.05,0.13 -0.12,0.12 0.02,0.17 0.05,0.13 -0.11,0.11 0.01,0.17 0.05,0.13 -0.11,0.12 0.01,0.17 0.05,0.13 -0.12,0.11 0.02,0.17 0.05,0.13 -0.11,0.12 0.01,0.17 0.05,0.13 -0.11,0.12 0.01,0.16 0.05,0.13 -0.12,0.11 0.02,0.17 0.05,0.13 -0.11,0.12 0.01,0.17 0.05,0.13 -0.11,0.11 0.01,0.17 0.05,0.13 -0.12,0.12 0.02,0.17 0.05,0.13 -0.11,0.11 0.01,0.17 0.05,0.13 -0.11,0.12 0.01,0.17 0.05,0.13 -0.12,0.12 0.02,0.16 0.05,0.13 -0.11,0.11 0.01,0.17 0.05,0.13 -0.11,0.12 0.01,0.17 0.05,0.13 -0.12,0.11 0.02,0.17 0.05,0.13 -0.11,0.12 0.01,0.17 0.05,0.13 -0.11,0.11 0.01,0.17 0.05,0.13 -0.12,0.12 0.02,0.17 0.05,0.13 -0.11,0.12 0.01,0.16 0.05,0.13 -0.11,0.11 0.01,0.17 0.05,0.13 -0.12,0.12 0.02,0.17 0.05,0.13 -0.11,0.11 0.01,0.17 0.05,0.13 -0.11,0.12 0.01,0.17 0.05,0.13 -0.12,0.11 0.02,0.17 0.05,0.13 -0.11,0.12 0.01,0.17 0.05,0.13 -0.11,0.12 0.01,0.16 0.05,0.13 -0.12,0.11 0.02,0.17 0.05,0.13 -0.11,0.12 0.01,0.17 0.05,0.13 -0.11,0.11 0.01,0.17 0.05,0.13 -0.12,0.12 0.02,0.17 0.06,0.13 -0.11,0.11 0.01,0.17 0.05,0.13 -0.11,0.12 0.01,0.17 0.05,0.13 -0.12,0.12 0.02,0.16 0.06,0.13 -0.11,0.11 0.01,0.17 0.05,0.13 -0.11,0.12 0.01,0.17 0.05,0.13 -0.12,0.11 0.02,0.17 0.06,0.13 -0.11,0.12 0.01,0.17 0.05,0.13 -0.11,0.11 0.01,0.17 0.05,0.13 -0.12,0.12 0.02,0.17 0.06,0.13 -0.11,0.12 0.01,0.16 0.05,0.13 -0.11,0.11 0.01,0.17 0.05,0.13 -0.12,0.12 0.02,0.17 0.06,0.13 -0.11,0.11 0.01,0.17 0.05,0.13 -0.11,0.12 0.01,0.17 0.05,0.13 -0.11,0.11 0.01,0.17 0.05,0.13 -0.12,0.12 0.02,0.17 0.05,0.13 -0.11,0.12 0.01,0.16 0.05,0.13 -0.11,0.11 0.01,0.17 0.05,0.13 -0.12,0.12 0.02,0.17 0.05,0.13 -0.11,0.11 0.01,0.17 0.05,0.13 -0.11,0.12 0.01,0.17 0.05,0.13 -0.12,0.11 0.02,0.17 0.05,0.13 -0.11,0.12 0.01,0.17 0.05,0.13 -0.11,0.12 0.01,0.16 0.05,0.13 -0.12,0.11 0.02,0.17 0.05,0.13 -0.11,0.12 0.01,0.17 0.05,0.13 -0.11,0.11 0.01,0.17 0.05,0.13 -0.12,0.12 0.02,0.17 0.05,0.13 -0.11,0.11 0.01,0.17 0.05,0.13 -0.11,0.12 0.01,0.17 0.05,0.13 -0.12,0.12 0.02,0.16 0.05,0.13 -0.11,0.11 0.01,0.17 0.05,0.13 -0.11,0.12 0.01,0.17 0.05,0.13 -0.12,0.11 0.02,0.17 0.05,0.13 -0.11,0.12 0.01,0.17 0.05,0.13 -0.11,0.11 0.01,0.17 0.05,0.13 -0.12,0.12 0.02,0.17 0.05,0.13 -0.11,0.12 0.01,0.16 0.05,0.13 -0.11,0.11 0.01,0.17 0.05,0.13 -0.12,0.12 0.02,0.17 0.05,0.13 -0.11,0.11 0.01,0.17 0.05,0.13 -0.11,0.12 0.01,0.17 0.05,0.13 -0.12,0.11 0.02,0.17 0.05,0.13 -0.11,0.12 0.01,0.17 0.05,0.13 -0.11,0.12 0.01,0.16 0.05,0.13 -0.12,0.11 0.02,0.17 0.05,0.13 -0.11,0.12 0.01,0.17 0.05,0.13 -0.11,0.11 0.01,0.17 0.05,0.13 -0.12,0.12 0.02,0.17 0.06,0.13 -0.11,0.11 0.02,0.17 0.05,0.13 -0.11,0.12 0.01,0.17 0.05,0.13 -0.12,0.12 0.02,0.16 0.06,0.13 -0.11,0.11 0.02,0.17 0.05,0.13 -0.11,0.12 0.01,0.17 0.05,0.13 -0.12,0.11 0.02,0.17 0.06,0.13 -0.11,0.12 0.02,0.17 0.05,0.13 -0.11,0.11 0.01,0.17 0.05,0.13 -0.12,0.12 0.02,0.17 0.06,0.13 -0.11,0.12 0.02,0.16 0.05,0.13 -0.11,0.11 0.01,0.17 0.05,0.13 -0.12,0.12 0.02,0.17 0.06,0.13 -0.11,0.11 0.02,0.17 0.05,0.13 -0.11,0.12 0.01,0.17 0.05,0.13 -0.11,0.11 0.01,0.17 0.05,0.13 -0.12,0.12 0.02,0.17 0.05,0.13 -0.11,0.12 0.01,0.16 0.05,0.13 -0.11,0.11 0.01,0.17 0.05,0.13 -0.12,0.12 0.02,0.17 0.05,0.13 -0.11,0.11 0.01,0.17 0.05,0.13 -0.11,0.12 0.01,0.17 0.05,0.13 -0.12,0.11 0.02,0.17 0.05,0.13 -0.11,0.12 0.01,0.17 0.05,0.13 -0.11,0.12 0.01,0.16 0.05,0.13 -0.12,0.11 0.02,0.17 0.05,0.13 -0.11,0.12 0.01,0.17 0.05,0.13 -0.11,0.11 0.01,0.17 0.05,0.13 -0.12,0.12 0.02,0.17 0.05,0.13 -0.11,0.11 0.01,0.17 0.05,0.13 -0.11,0.12 0.01,0.17 0.05,0.13 -0.12,0.12 0.02,0.16 0.05,0.13 -0.11,0.11 0.01,0.17 0.05,0.13 -0.11,0.12 0.01,0.17 0.05,0.13 -0.12,0.11 0.02,0.17 0.05,0.13 -0.11,0.12 0.01,0.17 0.05,0.13 -0.11,0.11 0.01,0.17 0.05,0.13 -0.12,0.12 0.02,0.17 0.05,0.13 -0.11,0.12 0.01,0.16 0.05,0.13 -0.11,0.11 0.01,0.17 0.05,0.13 -0.12,0.12 0.02,0.17 0.05,0.13 -0.11,0.11 0.01,0.17 0.05,0.13 -0.11,0.12 0.01,0.17 0.05,0.13 -0.12,0.11 0.02,0.17 0.05,0.13 -0.11,0.12 0.01,0.17 0.05,0.13 -0.11,0.12 0.01,0.16 0.05,0.13 -0.12,0.11 0.02,0.17 0.05,0.13 -0.11,0.12 0.01,0.17 0.05,0.13 -0.11,0.11 0.01,0.17 0.05,0.13 -0.12,0.12 0.02,0.17 0.06,0.13 -0.11,0.11 0.01,0.17 0.05,0.13 -0.11,0.12 0.01,0.17 0.05,0.13 -0.12,0.12 0.02,0.16 0.06,0.13 -0.11,0.11 0.01,0.17 0.05,0.13 -0.11,0.12 0.01,0.17 0.05,0.13 -0.12,0.11 0.02,0.17 0.06,0.13 -0.11,0.12 0.01,0.17 0.05,0.13 -0.11,0.11 0.01,0.17 0.05,0.13 -0.12,0.12 0.02,0.17 0.06,0.13 -0.11,0.12 0.02,0.16 0.05,0.13 -0.11,0.11 0.01,0.17 0.05,0.13 -0.12,0.12 0.02,0.17 0.06,0.13 -0.11,0.11 0.02,0.17 0.05,0.13 -0.11,0.12 0.01,0.17 0.05,0.13 -0.11,0.11 0.01,0.17 0.05,0.13 -0.12,0.12 0.02,0.17 0.05,0.13 -0.11,0.12 0.01,0.16 0.05,0.13 -0.11,0.11 0.01,0.17 0.05,0.13 -0.12,0.12 0.02,0.17 0.05,0.13 -0.11,0.11 0.01,0.17 0.05,0.13 -0.11,0.12 0.01,0.17 0.05,0.13 -0.12,0.11 0.02,0.17 0.05,0.13 -0.11,0.12 0.01,0.17 0.05,0.13 -0.11,0.12 0.01,0.16 0.05,0.12 -0.11,0.13l0.02 0.14 6.34 6.44 42 -42.86 42 42.89 0.11 -0.02 6.22 -6.48 0 -0.1 -0.1 -0.12c-0.16,0 -0.12,0.04 -0.12,-0.12 -0.15,0.01 -0.11,0.05 -0.11,-0.11 -0.16,0 -0.12,0.04 -0.11,-0.12 -0.16,0.01 -0.12,0.05 -0.11,-0.12 -0.16,0.01 -0.12,0.05 -0.12,-0.11 -0.16,0.01 -0.12,0.04 -0.11,-0.12 -0.16,0.01 -0.12,0.05 -0.11,-0.11 -0.16,0 -0.12,0.04 -0.12,-0.12 -0.16,0.01 -0.12,0.05 -0.11,-0.11 -0.16,0 -0.12,0.04 -0.11,-0.12 -0.16,0.01 -0.12,0.05 -0.12,-0.12 -0.15,0.01 -0.12,0.05 -0.11,-0.11 -0.16,0 -0.12,0.04 -0.11,-0.12 -0.16,0.01 -0.12,0.05 -0.12,-0.11 -0.15,0 -0.12,0.04 -0.11,-0.12 -0.16,0.01 -0.12,0.05 -0.11,-0.11 -0.16,0 -0.12,0.04 -0.12,-0.12 -0.15,0.01 -0.12,0.05 -0.11,-0.12 -0.16,0.01 -0.12,0.05 -0.11,-0.11 -0.16,0.01 -0.12,0.04 -0.12,-0.12 -0.15,0.01 -0.12,0.05 -0.11,-0.11 -0.16,0 -0.12,0.04 -0.11,-0.12 -0.16,0.01 -0.12,0.05 -0.12,-0.11 -0.15,0 -0.12,0.04 -0.11,-0.12 -0.16,0.01 -0.12,0.05 -0.11,-0.12 -0.16,0.01 -0.12,0.05 -0.12,-0.11 -0.15,0.01 -0.12,0.04 -0.11,-0.12 -0.16,0.01 -0.12,0.05 -0.11,-0.11 -0.16,0 -0.12,0.04 -0.12,-0.12 -0.15,0.01 -0.12,0.05 -0.11,-0.11 -0.16,0 -0.12,0.04 -0.11,-0.12 -0.16,0.01 -0.12,0.04 -0.12,-0.12 -0.15,0.01 -0.12,0.05 -0.11,-0.11 -0.16,0.01 -0.12,0.04 -0.11,-0.12 -0.16,0.01 -0.12,0.05 -0.12,-0.11 -0.15,0 -0.12,0.04 -0.11,-0.12 -0.16,0.01 -0.12,0.05 -0.11,-0.11 -0.16,0 -0.12,0.04 -0.12,-0.12 -0.15,0.01 -0.12,0.05 -0.11,-0.12 -0.16,0.01 -0.12,0.05 -0.11,-0.11 -0.16,0.01 -0.12,0.04 -0.12,-0.12 -0.15,0.01 -0.12,0.05 -0.11,-0.11 -0.16,0 -0.12,0.04 -0.11,-0.12 -0.16,0.01 -0.12,0.05 -0.12,-0.11 -0.15,0 -0.11,0.04 -0.11,-0.12 -0.16,0.01 -0.12,0.05 -0.11,-0.12 -0.16,0.01 -0.12,0.05 -0.12,-0.11 -0.15,0 -0.11,0.04 -0.11,-0.12 -0.16,0.01 -0.12,0.05 -0.11,-0.11 -0.16,0 -0.12,0.04 -0.12,-0.12 -0.15,0.01 -0.11,0.05 -0.11,-0.11 -0.16,0 -0.12,0.04 -0.11,-0.12 -0.16,0.01 -0.12,0.05 -0.11,-0.12 -0.16,0.01 -0.12,0.05 -0.12,-0.11 -0.16,0.01 -0.12,0.04 -0.11,-0.12 -0.16,0.01 -0.12,0.05 -0.11,-0.11 -0.16,0 -0.12,0.04 -0.12,-0.12 -0.16,0.01 -0.12,0.05 -0.11,-0.11 -0.16,0 -0.12,0.04 -0.11,-0.12 -0.16,0.01 -0.12,0.05 -0.12,-0.12 -0.15,0.01 -0.12,0.05 -0.11,-0.11 -0.16,0.01 -0.12,0.04 -0.11,-0.12 -0.16,0.01 -0.12,0.05 -0.12,-0.11 -0.15,0 -0.12,0.04 -0.11,-0.12 -0.16,0.01 -0.12,0.05 -0.11,-0.11 -0.16,0 -0.12,0.04 -0.12,-0.12 -0.15,0.01 -0.12,0.04 -0.11,-0.12 -0.16,0.01 -0.12,0.05 -0.11,-0.11 -0.16,0 -0.12,0.04 -0.12,-0.12 -0.15,0.01 -0.12,0.05 -0.11,-0.11 -0.16,0 -0.12,0.04 -0.11,-0.12 -0.16,0.01 -0.12,0.05 -0.12,-0.11 -0.15,0 -0.12,0.04 -0.11,-0.12 -0.16,0.01 -0.12,0.05 -0.11,-0.12 -0.16,0.01 -0.12,0.05 -0.12,-0.11 -0.15,0.01 -0.12,0.04 -0.11,-0.12 -0.16,0.01 -0.12,0.05 -0.11,-0.11 -0.16,0 -0.12,0.04 -0.12,-0.12 -0.15,0.01 -0.12,0.05 -0.11,-0.11 -0.16,0 -0.12,0.04 -0.11,-0.12 -0.16,0.01 -0.12,0.05 -0.12,-0.12 -0.15,0.01 -0.12,0.05 -0.11,-0.11 -0.16,0 -0.12,0.04 -0.11,-0.12 -0.16,0.01 -0.12,0.05 -0.12,-0.11 -0.15,0 -0.12,0.04 -0.11,-0.12 -0.16,0.01 -0.12,0.05 -0.11,-0.11 -0.16,0 -0.12,0.04 -0.12,-0.12 -0.15,0.01 -0.12,0.04 -0.11,-0.12 -0.16,0.01 -0.12,0.05 -0.11,-0.11 -0.16,0.01 -0.12,0.04 -0.12,-0.12 -0.15,0.01 -0.12,0.05 -0.11,-0.11 -0.16,0 -0.12,0.04 -0.11,-0.12 -0.16,0.01 -0.12,0.05 -0.12,-0.11 -0.15,0 -0.11,0.04 -0.11,-0.12 -0.16,0.01 -0.12,0.05 -0.11,-0.12 -0.16,0.01 -0.12,0.05 -0.12,-0.11 -0.15,0.01 -0.11,0.04 -0.11,-0.12 -0.16,0.01 -0.12,0.05 -0.11,-0.11 -0.16,0 -0.12,0.04 -0.12,-0.12 -0.15,0.01 -0.11,0.05 -0.11,-0.11 -0.16,0 -0.12,0.04 -0.11,-0.12 -0.16,0.01 -0.12,0.04 -0.11,-0.12 -0.16,0.01 -0.12,0.05 -0.12,-0.11 -0.16,0 -0.12,0.04 -0.11,-0.12 -0.16,0.01 -0.12,0.05 -0.11,-0.11 -0.16,0 -0.12,0.04 -0.12,-0.12 -0.16,0.01 -0.12,0.05 -0.11,-0.11 -0.16,0 -0.12,0.04 -0.11,-0.12 -0.16,0.01 -0.12,0.05 -0.12,-0.12 -0.15,0.01 -0.12,0.05 -0.11,-0.11 -0.16,0.01 -0.12,0.04 -0.11,-0.12 -0.16,0.01 -0.12,0.05 -0.12,-0.11 -0.15,0 -0.12,0.04 -0.11,-0.12 -0.16,0.01 -0.12,0.05 -0.11,-0.11 -0.16,0 -0.12,0.04 -0.12,-0.12 -0.15,0.01 -0.12,0.05 -0.11,-0.12 -0.16,0.01 -0.12,0.05 -0.11,-0.11 -0.16,0 -0.12,0.04 -0.12,-0.12 -0.15,0.01 -0.12,0.05 -0.11,-0.11 -0.16,0 -0.12,0.04 -0.11,-0.12 -0.16,0.01 -0.12,0.05 -0.12,-0.11 -0.15,0 -0.12,0.04 -0.11,-0.12 -0.16,0.01 -0.12,0.04 -0.11,-0.12 -0.16,0.01 -0.12,0.05 -0.12,-0.11 -0.15,0 -0.12,0.04 -0.11,-0.12 -0.16,0.01 -0.12,0.05 -0.11,-0.11 -0.16,0 -0.12,0.04 -0.12,-0.12 -0.15,0.01 -0.12,0.05 -0.11,-0.11 -0.16,0 -0.12,0.04 -0.11,-0.12 -0.16,0.01 -0.12,0.05 -0.12,-0.12 -0.15,0.01 -0.12,0.05 -0.11,-0.11 -0.16,0.01 -0.12,0.04 -0.11,-0.12 -0.16,0.01 -0.12,0.05 -0.12,-0.11 -0.15,0 -0.12,0.04 -0.11,-0.12 -0.16,0.01 -0.12,0.05 -0.11,-0.11 -0.16,0 -0.12,0.04 -0.12,-0.12 -0.15,0.01 -0.12,0.04 -0.11,-0.12 -0.16,0.01 -0.12,0.05 -0.11,-0.11 -0.16,0 -0.12,0.04 -0.12,-0.12 -0.15,0.01 -0.12,0.05 -0.11,-0.11 -0.16,0 -0.12,0.04 -0.11,-0.12 -0.16,0.01 -0.12,0.05 -0.12,-0.11 -0.15,0 -0.11,0.04 -0.11,-0.12 -0.16,0.01 -0.12,0.04 -0.11,-0.12 -0.16,0.01 -0.12,0.05 -0.12,-0.11 -0.15,0.01 -0.11,0.04 -0.11,-0.12 -0.16,0.01 -0.12,0.05 -0.11,-0.11 -0.16,0 -0.12,0.04 -0.12,-0.12 -0.15,0.01 -0.11,0.05 -0.11,-0.11 -0.16,0 -0.12,0.04 -0.11,-0.12 -0.16,0.01 -0.12,0.04 -0.11,-0.12 -0.16,0.01 -0.12,0.05 -0.12,-0.11 -0.16,0 -0.12,0.04 -0.11,-0.12 -0.16,0.01 -0.12,0.05 -0.11,-0.11 -0.16,0 -0.12,0.04 -0.12,-0.12 -0.16,0.01 -0.12,0.05 -0.11,-0.11 -0.16,0 -0.12,0.04 -0.11,-0.12 -0.16,0.01 -0.12,0.04 -0.12,-0.12 -0.15,0.01 -0.12,0.05 -0.11,-0.11 -0.16,0 -0.12,0.04 -0.11,-0.12 -0.16,0.01 -0.12,0.05 -0.12,-0.11 -0.15,0 -0.12,0.04 -0.11,-0.12 -0.16,0.01 -0.12,0.05 -0.11,-0.11 -0.16,0 -0.12,0.04 -0.12,-0.12 -0.15,0.01 -0.12,0.05 -0.11,-0.12 -0.16,0.01 -0.12,0.05 -0.11,-0.11 -0.16,0.01 -0.12,0.04 -0.12,-0.12 -0.15,0.01 -0.12,0.05 -0.11,-0.11 -0.16,0 -0.12,0.04 -0.11,-0.12 -0.16,0.01 -0.12,0.05 -0.12,-0.11 -0.15,0 -0.12,0.04 -0.11,-0.12 -0.16,0.01 -0.12,0.04 -0.11,-0.12 -0.16,0.01 -0.12,0.05 -0.12,-0.11 -0.15,0 -0.12,0.04 -0.11,-0.12 -0.16,0.01 -0.12,0.05 -0.11,-0.11 -0.16,0 -0.12,0.04 -0.12,-0.12 -0.15,0.01 -0.12,0.05 -0.11,-0.11 -0.16,0 -0.12,0.04 -0.11,-0.12 -0.16,0.01 -0.12,0.04 -0.12,-0.12 -0.15,0.01 -0.12,0.05 -0.11,-0.11 -0.16,0 -0.12,0.04 -0.11,-0.12 -0.16,0.01 -0.12,0.05 -0.12,-0.11 -0.15,0 -0.12,0.04 -0.11,-0.12 -0.16,0.01 -0.12,0.05 -0.11,-0.11 -0.16,0 -0.12,0.04 -0.12,-0.12 -0.15,0.01 -0.12,0.04 -0.11,-0.12 -0.16,0.01 -0.12,0.05 -0.11,-0.11 -0.16,0 -0.12,0.04 -0.12,-0.12 -0.15,0.01 -0.12,0.05 -0.11,-0.11 -0.16,0 -0.12,0.04 -0.11,-0.12 -0.16,0.01 -0.12,0.05 -0.12,-0.11 -0.15,0 -0.11,0.04 -0.11,-0.12 -0.16,0.01 -0.12,0.04 -0.11,-0.12 -0.16,0.01 -0.12,0.05 -0.12,-0.11 -0.15,0 -0.11,0.04 -0.11,-0.12 -0.16,0.01 -0.12,0.05 -0.11,-0.11 -0.16,0 -0.12,0.04 -0.12,-0.12 -0.15,0.01 -0.11,0.05 -0.11,-0.11 -0.16,0 -0.12,0.04 -0.11,-0.12 -0.16,0.01 -0.12,0.04 -0.11,-0.12 -0.16,0.01 -0.12,0.05 -0.12,-0.11 -0.16,0.01 -0.12,0.04 -0.11,-0.12 -0.16,0.01 -0.12,0.05 -0.11,-0.11 -0.16,0 -0.12,0.04 -0.12,-0.12 -0.16,0.01 -0.12,0.05 -0.11,-0.11 -0.16,0 -0.12,0.04 -0.11,-0.12 -0.16,0.01 -0.12,0.04 -0.12,-0.12 -0.15,0.01 -0.12,0.05 -0.11,-0.11 -0.16,0 -0.12,0.04 -0.11,-0.12 -0.16,0.01 -0.12,0.05 -0.12,-0.11 -0.15,0 -0.12,0.04 -0.11,-0.12 -0.16,0.01 -0.12,0.05 -0.11,-0.11 -0.16,0 -0.12,0.04 -0.12,-0.12 -0.15,0.01 -0.12,0.04 -0.11,-0.12 -0.16,0.01 -0.12,0.05 -0.11,-0.11 -0.16,0 -0.12,0.04 -0.12,-0.12 -0.15,0.01 -0.12,0.05 -0.11,-0.11 -0.16,0 -0.12,0.04 -0.11,-0.12 -0.16,0.01 -0.12,0.05 -0.12,-0.11 -0.15,0 -0.12,0.04 -0.11,-0.12 -0.16,0.01 -0.12,0.04 -0.11,-0.12 -0.16,0.01 -0.12,0.05 -0.12,-0.11 -0.15,0 -0.12,0.04 -0.11,-0.12 -0.16,0.01 -0.12,0.05 -0.11,-0.11 -0.16,0 -0.12,0.04 -0.12,-0.12 -0.15,0.01 -0.12,0.05 -0.11,-0.11 -0.16,0 -0.12,0.04 -0.11,-0.12 -0.16,0.01 -0.12,0.04 -0.12,-0.12 -0.15,0.01 -0.12,0.05 -0.11,-0.11 -0.16,0 -0.12,0.04 -0.11,-0.12 -0.16,0.01 -0.12,0.05 -0.12,-0.11 -0.15,0 -0.12,0.04 -0.11,-0.12 -0.16,0.01 -0.12,0.05 -0.11,-0.11 -0.16,0 -0.12,0.04 -0.12,-0.12 -0.15,0.01 -0.11,0.04 -0.11,-0.12 -0.16,0.01 -0.12,0.05 -0.11,-0.11 -0.16,0 -0.12,0.04 -0.12,-0.12 -0.15,0.01 -0.12,0.05 -0.11,-0.11 -0.16,0 -0.12,0.04 -0.11,-0.12 -0.16,0.01 -0.12,0.05 -0.12,-0.11 -0.15,0 -0.11,0.04 -0.11,-0.12 -0.16,0.01 -0.12,0.04 -0.11,-0.12 -0.16,0.01 -0.12,0.05 -0.12,-0.11 -0.15,0 -0.11,0.04 -0.11,-0.12 -0.16,0.01 -0.12,0.05 -0.11,-0.11 -0.16,0 -0.12,0.04 -0.12,-0.12 -0.15,0.01 -0.11,0.05 -0.11,-0.11 -0.16,0 -0.12,0.04 -0.11,-0.12 -0.16,0.01 -0.12,0.04 -0.11,-0.12 -0.16,0.01 -0.12,0.05 -0.12,-0.11 -0.16,0 -0.12,0.04 -0.11,-0.12 -0.16,0.01 -0.12,0.05 -0.11,-0.11 -0.16,0 -0.12,0.04 -0.12,-0.12 -0.16,0.01 -0.12,0.05 -0.11,-0.11 -0.16,0 -0.12,0.04 -0.11,-0.12 -0.16,0.01 -0.12,0.04 -0.12,-0.12 -0.15,0.01 -0.12,0.05 -0.11,-0.11 -0.16,0 -0.12,0.04 -0.11,-0.12 -0.16,0.01 -0.12,0.05 -0.12,-0.11 -0.15,0 -0.12,0.04 -0.11,-0.12 -0.16,0.01 -0.12,0.05 -0.11,-0.11 -0.16,0 -0.12,0.04 -0.12,-0.12 -0.15,0.01 -0.12,0.04 -0.11,-0.12 -0.16,0.01 -0.12,0.05 -0.11,-0.11 -0.16,0 -0.12,0.04 -0.12,-0.12 -0.15,0.01 -0.12,0.05 -0.11,-0.11 -0.16,0 -0.12,0.04 -0.11,-0.12 -0.16,0.01 -0.12,0.05 -0.12,-0.11 -0.15,0 -0.12,0.04 -0.11,-0.12 -0.16,0.01 -0.12,0.04 -0.11,-0.12 -0.16,0.01 -0.12,0.05 -0.12,-0.11 -0.15,0 -0.12,0.04 -0.11,-0.12 -0.16,0.01 -0.12,0.05 -0.11,-0.11 -0.16,0 -0.12,0.04 -0.12,-0.12 -0.15,0.01 -0.12,0.05 -0.11,-0.11 -0.16,0 -0.12,0.04 -0.11,-0.12 -0.16,0.01 -0.12,0.04 -0.12,-0.12 -0.15,0.01 -0.12,0.05 -0.11,-0.11 -0.16,0 -0.12,0.04 -0.11,-0.12 -0.16,0.01 -0.12,0.05 -0.12,-0.11 -0.15,0 -0.12,0.04 -0.11,-0.12 -0.16,0.01 -0.12,0.05 -0.11,-0.11 -0.16,0 -0.12,0.04 -0.12,-0.12 -0.15,0.01 -0.11,0.04 -0.11,-0.12 -0.16,0.01 -0.12,0.05 -0.11,-0.11 -0.16,0 -0.12,0.04 -0.12,-0.12 -0.15,0.01 -0.12,0.05 -0.11,-0.11 -0.16,0 -0.12,0.04 -0.11,-0.12 -0.16,0.01 -0.12,0.05 -0.12,-0.11 -0.15,0 -0.11,0.04 -0.11,-0.12 -0.16,0.01 -0.12,0.04 -0.11,-0.12 -0.16,0.01 -0.12,0.05 -0.12,-0.11 -0.15,0 -0.11,0.04 -0.11,-0.12 -0.16,0.01 -0.12,0.05 -0.11,-0.11 -0.16,0 -0.12,0.04 -0.12,-0.12 -0.15,0.01 -0.11,0.05 -0.11,-0.11 -0.16,0 -0.12,0.04 -0.11,-0.12 -0.16,0.01 -0.12,0.04 -0.11,-0.12 -0.16,0.01 -0.12,0.05 -0.12,-0.11 -0.15,0 -0.12,0.04 -0.11,-0.12 -0.16,0.01 -0.12,0.05 -0.11,-0.11 -0.16,0 -0.12,0.04 -0.12,-0.12 -0.16,0.01 -0.12,0.05 -0.11,-0.11 -0.16,0 -0.12,0.04 -0.11,-0.12 -0.16,0.01 -0.12,0.04 -0.12,-0.12 -0.15,0.01 -0.12,0.05 -0.11,-0.11 -0.16,0 -0.12,0.04 -0.11,-0.12 -0.16,0.01 -0.12,0.05 -0.12,-0.11 -0.15,0 -0.12,0.04 -0.11,-0.12 -0.16,0.01 -0.12,0.05 -0.11,-0.11 -0.16,0 -0.12,0.04 -0.12,-0.12 -0.15,0.01 -0.12,0.04 -0.11,-0.12 -0.16,0.01 -0.12,0.05 -0.11,-0.11 -0.16,0 -0.12,0.04 -0.12,-0.12 -0.15,0.01 -0.12,0.05 -0.11,-0.11 -0.16,0 -0.12,0.04 -0.11,-0.12 -0.16,0.01 -0.12,0.05 -0.12,-0.11 -0.15,0 -0.12,0.04 -0.11,-0.12 -0.16,0.01 -0.12,0.04 -0.11,-0.12 -0.16,0.01 -0.12,0.05 -0.12,-0.11 -0.15,0 -0.12,0.04 -0.11,-0.12 -0.16,0.01 -0.12,0.05 -0.11,-0.11 -0.16,0 -0.12,0.04 -0.12,-0.12 -0.15,0.01 -0.12,0.05 -0.11,-0.11 -0.16,0 -0.12,0.04 -0.11,-0.12 -0.16,0.01 -0.12,0.04 -0.12,-0.12 -0.15,0.01 -0.12,0.05 -0.11,-0.11 -0.16,0 -0.12,0.04 -0.11,-0.12 -0.16,0.01 -0.12,0.05 -0.12,-0.11 -0.15,0 -0.12,0.04 -0.11,-0.12 -0.16,0.01 -0.12,0.05 -0.11,-0.11 -0.16,0 -0.12,0.04 -0.12,-0.12 -0.15,0.01 -0.11,0.04 -0.11,-0.12 -0.16,0.01 -0.12,0.05 -0.11,-0.11 -0.16,0 -0.12,0.04 -0.12,-0.12 -0.15,0.01 -0.11,0.05 -0.11,-0.11 -0.16,0 -0.12,0.04 -0.11,-0.12 -0.16,0.01 -0.12,0.05 -0.12,-0.11 -0.15,0 -0.11,0.04 -0.11,-0.12 -0.16,0.01 -0.12,0.04 -0.11,-0.12 -0.16,0.01 -0.12,0.05 -0.12,-0.11 -0.15,0 -0.11,0.04 -0.11,-0.12 -0.16,0.01 -0.12,0.05 -0.11,-0.11 -0.16,0 -0.12,0.04 -0.12,-0.12 -0.15,0.01 -0.11,0.05 -0.11,-0.11 -0.16,0 -0.12,0.04 -0.11,-0.12 -0.16,0.01 -0.12,0.04 -0.11,-0.12 -0.16,0.01 -0.12,0.05 -0.12,-0.11 -0.15,0 -0.12,0.04 -0.11,-0.12 -0.16,0.01 -0.12,0.05 -0.11,-0.11 -0.16,0 -0.12,0.04 -0.12,-0.12 -0.16,0.01 -0.12,0.05 -0.11,-0.11 -0.16,0 -0.12,0.04 -0.11,-0.12 -0.16,0.01 -0.12,0.04 -0.12,-0.12 -0.15,0.01 -0.12,0.05 -0.11,-0.11 -0.16,0 -0.12,0.04 -0.11,-0.12 -0.16,0.01 -0.12,0.05 -0.12,-0.11 -0.15,0 -0.12,0.04 -0.11,-0.12 -0.16,0.01 -0.12,0.05 -0.11,-0.11 -0.16,0 -0.12,0.04 -0.12,-0.12 -0.15,0.01 -0.12,0.04 -0.11,-0.12 -0.16,0.01 -0.12,0.05 -0.11,-0.11 -0.16,0 -0.12,0.04 -0.12,-0.12 -0.15,0.01 -0.12,0.05 -0.11,-0.11 -0.16,0 -0.12,0.04 -0.11,-0.12 -0.16,0.01 -0.12,0.05 -0.12,-0.11 -0.15,0 -0.12,0.04 -0.11,-0.12 -0.16,0.01 -0.12,0.04 -0.11,-0.12 -0.16,0.01 -0.12,0.05 -0.12,-0.11 -0.01,-0.02 -0.38,-0.23 0.01,-0.23l0.11 -0.11 0.12 -0.12 0.11 -0.11 0.11 -0.12 0.12 -0.12 0.11 -0.11 0.11 -0.12 0.12 -0.11 0.11 -0.12 0.11 -0.11 0.12 -0.12 0.11 -0.12 0.11 -0.11 0.12 -0.12 0.11 -0.11 0.11 -0.12 0.12 -0.11 0.11 -0.12 0.11 -0.12 0.11 -0.11 0.12 -0.12 0.11 -0.11 0.11 -0.12 0.12 -0.11 0.11 -0.12 0.11 -0.12 0.12 -0.11 0.11 -0.12 0.11 -0.11 0.12 -0.12 0.11 -0.11 0.11 -0.12 0.12 -0.12 0.11 -0.11 0.11 -0.12 0.12 -0.11 0.11 -0.12 0.11 -0.11 0.12 -0.12 0.11 -0.12 0.11 -0.11 0.12 -0.12 0.11 -0.11 0.11 -0.12 0.12 -0.11 0.11 -0.12 0.11 -0.12 0.12 -0.11 0.11 -0.12 0.11 -0.11 0.12 -0.12 0.11 -0.11 0.11 -0.12 0.12 -0.12 0.11 -0.11 0.11 -0.12 0.12 -0.11 0.11 -0.12 0.11 -0.11 0.11 -0.12 0.12 -0.12 0.11 -0.11 0.12 -0.12 0.11 -0.11 0.11 -0.12 0.12 -0.11 0.11 -0.12 0.11 -0.12 0.11 -0.11 0.12 -0.12 0.11 -0.11 0.11 -0.12 0.12 -0.11 0.11 -0.12 0.11 -0.12 0.12 -0.11 0.11 -0.12 0.11 -0.11 0.12 -0.12 0.11 -0.11 0.11 -0.12 0.12 -0.12 0.11 -0.11 0.11 -0.12 0.12 -0.11 0.11 -0.12 0.11 -0.11 0.12 -0.12 0.11 -0.12 0.11 -0.11 0.12 -0.12 0.11 -0.11 0.11 -0.12 0.12 -0.11 0.11 -0.12 0.11 -0.12 0.12 -0.11 0.11 -0.12 0.11 -0.11 0.12 -0.12 0.11 -0.11 0.11 -0.12 0.12 -0.12 0.11 -0.11 0.11 -0.12 0.12 -0.11 0.11 -0.12 0.11 -0.11 0.11 -0.12 0.12 -0.12 0.11 -0.11 0.12 -0.12 0.11 -0.11 0.11 -0.12 0.12 -0.11 0.11 -0.12 0.11 -0.12 0.11 -0.11 0.12 -0.12 0.11 -0.11 0.11 -0.12 0.12 -0.11 0.11 -0.12 0.11 -0.12 0.12 -0.11 0.11 -0.12 0.11 -0.11 0.12 -0.12 0.11 -0.11 0.11 -0.12 0.12 -0.12 0.11 -0.11 0.11 -0.12 0.12 -0.11 0.11 -0.12 0.11 -0.11 0.12 -0.12 0.11 -0.12 0.11 -0.11 0.12 -0.12 0.11 -0.11 0.11 -0.12 0.12 -0.11 0.11 -0.12 0.11 -0.12 0.12 -0.11 0.11 -0.12 0.11 -0.11 0.12 -0.12 0.11 -0.11 0.11 -0.12 0.12 -0.12 0.11 -0.11 0.11 -0.12 0.12 -0.11 0.11 -0.12 0.11 -0.11 0.11 -0.12 0.12 -0.12 0.11 -0.11 0.11 -0.12 0.12 -0.11 0.11 -0.12 0.12 -0.11 0.11 -0.12 0.11 -0.12 0.11 -0.11 0.12 -0.12 0.11 -0.11 0.11 -0.12 0.12 -0.11 0.11 -0.12 0.11 -0.12 0.12 -0.11 0.11 -0.12 0.11 -0.11 0.12 -0.12 0.11 -0.11 0.11 -0.12 0.12 -0.12 0.11 -0.11 0.11 -0.12 0.12 -0.11 0.11 -0.12 0.11 -0.11 0.12 -0.12 0.11 -0.12 0.11 -0.11 0.12 -0.12 0.11 -0.11 0.11 -0.12 0.12 -0.11 0.11 -0.12 0.11 -0.12 0.12 -0.11 0.11 -0.12 0.11 -0.11 0.12 -0.12 0.11 -0.11 0.11 -0.12 0.12 -0.12 0.11 -0.11 0.11 -0.12 0.12 -0.11 0.11 -0.12 0.11 -0.11 0.11 -0.12 0.12 -0.12 0.11 -0.11 0.11 -0.12 0.12 -0.11 0.11 -0.12 0.12 -0.12 0.11 -0.11 0.11 -0.12 0.11 -0.11 0.12 -0.12 0.11 -0.11 0.11 -0.12 0.12 -0.11 0.11 -0.12 0.11 -0.12 0.12 -0.11 0.11 -0.12 0.11 -0.11 0.12 -0.12 0.11 -0.11 0.11 -0.12 0.12 -0.12 0.11 -0.11 0.11 -0.12 0.12 -0.11 0.11 -0.12 0.11 -0.12 0.12 -0.11 0.11 -0.12 0.11 -0.11 0.12 -0.12 0.11 -0.11 0.11 -0.12 0.12 -0.11 0.11 -0.12 0.11 -0.12 0.12 -0.11 0.11 -0.12 0.11 -0.11 0.12 -0.12 0.11 -0.12 0.11 -0.11 0.12 -0.12 0.11 -0.11 0.11 -0.12 0.12 -0.11 0.11 -0.12 0.11 -0.11 0.11 -0.12 0.12 -0.12 0.11 -0.11 0.11 -0.12 0.12 -0.11 0.11 -0.12 0.11 -0.11 0.12 -0.12 0.11 -0.12 0.11 -0.11 0.12 -0.12 0.11 -0.11 0.11 -0.12 0.12 -0.12 0.11 -0.11 0.11 -0.12 0.12 -0.11 0.11 -0.12 0.11 -0.11 0.12 -0.12 0.11 -0.11 0.11 -0.12 0.12 -0.12 0.11 -0.11 0.11 -0.12 0.12 -0.11 0.11 -0.12 0.11 -0.12 0.12 -0.11 0.11 -0.12 0.11 -0.11 0.12 -0.12 0.11 -0.11 0.11 -0.12 0.12 -0.12 0.11 -0.11 0.11 -0.12 0.12 -0.11 0.11 -0.12 0.11 -0.11 0.12 -0.12 0.11 -0.11 0.11 -0.12 0.12 -0.12 0.11 -0.11 0.11 -0.12 0.12 -0.11 0.11 -0.12 0.11 -0.12 0.11 -0.11 0.12 -0.12 0.11 -0.11 0.11 -0.12 0.12 -0.11 0.11 -0.12 0.11 -0.11 0.12 -0.12 0.11 -0.12 0.11 -0.11 0.12 -0.12 0.11 -0.11 0.11 -0.12 0.12 -0.12 0.11 -0.11 0.11 -0.12 0.12 -0.11 0.11 -0.12 0.11 -0.11 0.12 -0.12 0.11 -0.12 0.11 -0.11 0.12 -0.12 0.11 -0.11 0.11 -0.12 0.12 -0.11 0.11 -0.12 0.11 -0.11 0.12 -0.12 0.11 -0.12 0.11 -0.11 0.12 -0.12 0.11 -0.11 0.11 -0.12 0.12 -0.12 0.11 -0.11 0.11 -0.12 0.12 -0.11 0.11 -0.12 0.11 -0.11 0.12 -0.12 0.11 -0.12 0.11 -0.11 0.12 -0.12 0.11 -0.11 0.11 -0.12 0.12 -0.11 0.11 -0.12 0.11 -0.12 0.11 -0.11 0.12 -0.12 0.11 -0.11 0.11 -0.12 0.12 -0.11 0.11 -0.12 0.11 -0.12 0.12 -0.11 0.11 -0.12 0.11 -0.11 0.12 -0.12 0.11 -0.11 0.11 -0.12 0.12 -0.12 0.11 -0.11 0.11 -0.12 0.11 -0.12 -0.01 -0.1 0 -0.12 -0.11 -0.11 -0.11 -0.12 -0.12 -0.12 -0.11 -0.11 -0.11 -0.12 -0.12 -0.11 -0.11 -0.12 -0.11 -0.11 -0.12 -0.12 -0.11 -0.12 -0.11 -0.11 -0.12 -0.12 -0.11 -0.11 -0.11 -0.12 -0.12 -0.12 -0.11 -0.11 -0.11 -0.12 -0.12 -0.11 -0.11 -0.12 -0.11 -0.11 -0.12 -0.12 -0.11 -0.11 -0.11 -0.12 -0.12 -0.12 -0.11 -0.11 -0.11 -0.12 -0.12 -0.11 -0.11 -0.12 -0.11 -0.12 -0.12 -0.11 -0.11 -0.12 -0.11 -0.11 -0.12 -0.12 -0.11 -0.11 -0.11 -0.12 -0.12 -0.12 -0.11 -0.11 -0.11 -0.12 -0.12 -0.11 -0.11 -0.12 -0.11 -0.11 -0.12 -0.12 -0.11 -0.12 -0.11 -0.11 -0.12 -0.12 -0.11 -0.11 -0.11 -0.12 -0.12 -0.11 -0.11 -0.12 -0.11 -0.12 -0.11 -0.11 -0.12 -0.12 -0.11 -0.11 -0.11 -0.12 -0.12 -0.12 -0.1 -0.02c0,0.17 0.04,0.13 -0.13,0.11l0.15 0z"/>
  </g>
 </g>
</svg>
