<?xml version="1.0" encoding="UTF-8"?>
<!DOCTYPE svg PUBLIC "-//W3C//DTD SVG 1.1//EN" "http://www.w3.org/Graphics/SVG/1.1/DTD/svg11.dtd">
<!-- Creator: CorelDRAW 2021 (64 Bit) -->
<svg xmlns="http://www.w3.org/2000/svg" xml:space="preserve" width="400px" height="400px" version="1.1" style="shape-rendering:geometricPrecision; text-rendering:geometricPrecision; image-rendering:optimizeQuality; fill-rule:evenodd; clip-rule:evenodd"
viewBox="0 0 2.53 2.53"
 xmlns:xlink="http://www.w3.org/1999/xlink"
 xmlns:xodm="http://www.corel.com/coreldraw/odm/2003">
 <defs>
  <style type="text/css">
   <![CDATA[
    .str0 {stroke:#B8B4B6;stroke-width:0.19;stroke-miterlimit:22.9256}
    .str1 {stroke:black;stroke-width:0.05;stroke-miterlimit:22.9256}
    .str2 {stroke:black;stroke-width:0.03;stroke-miterlimit:22.9256}
    .fil2 {fill:none}
    .fil1 {fill:#00FF95}
    .fil0 {fill:white}
    .fil3 {fill:white}
   ]]>
  </style>
 </defs>
 <g id="Camada_x0020_1">
  <metadata id="CorelCorpID_0Corel-Layer"/>
  <g id="_2069585819616">
   <path class="fil0 str0" d="M0.2 0.09l2.13 0c0.06,0 0.1,0.06 0.1,0.12l0 2.11c0,0.06 -0.04,0.11 -0.1,0.11l-2.13 0c-0.06,0 -0.1,-0.05 -0.1,-0.11 0,-0.26 -0.01,-2.04 0,-2.13 0,-0.05 0.06,-0.1 0.1,-0.1z"/>
   <g>
    <path class="fil1" d="M1.16 0.24c-0.27,0.11 -0.35,0.24 -0.38,0.49 -0.01,0.24 0.1,0.38 0.27,0.48l0.01 0.98c0.11,-0.02 0.19,-0.06 0.21,-0.15l0.02 -0.11 0.08 -0.21 -0.08 -0.19 0.12 -0.18 -0.03 -0.18c0.21,-0.12 0.29,-0.32 0.25,-0.58 -0.07,-0.24 -0.22,-0.37 -0.47,-0.35z"/>
    <line class="fil2 str1" x1="1.15" y1="1.17" x2="1.13" y2= "2.13" />
    <line class="fil2 str1" x1="1.26" y1="1.16" x2="1.26" y2= "1.49" />
    <path class="fil1 str2" d="M0.76 0.73c0,0.01 0,0.03 0,0.05 -0.01,0.11 0.05,0.24 0.12,0.32 0.02,0.04 0.05,0.07 0.08,0.09 0.06,0.03 0.07,0.02 0.07,0.06 0,0.07 0,0.11 0,0.19l0 0.19c0,0.04 0,0.56 0.01,0.57 0.02,0 0.04,-0.01 0.07,-0.01 0.08,-0.01 0.16,-0.07 0.2,-0.16 0.01,-0.05 -0.01,-0.1 0.01,-0.16l0.08 -0.16c-0.01,0 0,0 -0.01,-0.01 0,0 0,0 0,0 -0.02,-0.05 -0.06,-0.13 -0.08,-0.19 0.04,-0.04 0.1,-0.11 0.11,-0.17 0.01,-0.03 0,-0.05 0,-0.08 0,-0.03 0,-0.07 -0.01,-0.08 0.08,-0.05 0.11,-0.07 0.17,-0.17 0.04,-0.06 0.07,-0.14 0.08,-0.2 0,-0.06 0.01,-0.12 -0.01,-0.19 -0.01,-0.07 -0.03,-0.13 -0.07,-0.19 -0.05,-0.07 -0.1,-0.12 -0.17,-0.16 -0.06,-0.03 -0.11,-0.04 -0.17,-0.05l-0.08 0.01c-0.08,0.02 -0.16,0.06 -0.22,0.12 -0.01,0 -0.02,0.02 -0.03,0.03l0 0.01c0.02,0.02 0.03,0.03 0.05,0.05 0.05,-0.05 0.07,-0.09 0.15,-0.13 0.05,-0.02 0.11,-0.03 0.16,-0.02 0.03,0 0.12,0.02 0.15,0.05 0.1,0.07 0.18,0.19 0.19,0.33 0.01,0.05 0.01,0.13 0,0.17 -0.05,0.15 -0.14,0.25 -0.26,0.3 0,0.01 0,0.04 0,0.05l0.02 0.14c0,0.01 -0.02,0.03 -0.03,0.05l-0.11 0.15c0.03,0.04 0.05,0.11 0.08,0.16 0.01,0.03 0.01,0.02 -0.01,0.09l-0.05 0.13c-0.01,0.03 -0.01,0.02 -0.01,0.04 0,0.01 0,0.09 0,0.09 -0.03,0.06 -0.11,0.1 -0.15,0.1 0,-0.01 0,-0.02 0,-0.03 0,-0.07 0,-0.14 0,-0.22 0,-0.02 0.01,-0.04 0,-0.06l0.01 -0.3c0,-0.02 0,-0.05 0,-0.07 0,-0.02 0,-0.04 0,-0.06l0 -0.12c0,-0.04 0.01,-0.08 0,-0.12 -0.01,-0.02 -0.04,-0.01 -0.05,-0.02 -0.01,0 -0.05,-0.03 -0.06,-0.03 -0.1,-0.06 -0.14,-0.17 -0.16,-0.28 0,-0.01 0,-0.04 0,-0.05 0,-0.01 0,-0.03 0,-0.05 -0.01,0 -0.02,0 -0.04,0 -0.01,0 -0.01,0 -0.03,0z"/>
    <path class="fil1 str2" d="M0.8 0.52c-0.06,0.09 0.06,0.18 0.12,0.09 0.02,-0.03 0.01,-0.09 -0.02,-0.11 -0.03,-0.02 -0.08,-0.01 -0.1,0.02z"/>
    <ellipse class="fil3 str2" transform="matrix(0.461759 0.0265093 -0.0317651 0.554486 1.1186 0.503615)" rx="0.21" ry="0.19"/>
   </g>
  </g>
 </g>
</svg>
