<?xml version="1.0" encoding="UTF-8"?>
<!DOCTYPE svg PUBLIC "-//W3C//DTD SVG 1.1//EN" "http://www.w3.org/Graphics/SVG/1.1/DTD/svg11.dtd">
<!-- Creator: CorelDRAW 2021 (64 Bit) -->
<svg xmlns="http://www.w3.org/2000/svg" xml:space="preserve" width="752px" height="752px" version="1.1" style="shape-rendering:geometricPrecision; text-rendering:geometricPrecision; image-rendering:optimizeQuality; fill-rule:evenodd; clip-rule:evenodd"
viewBox="0 0 42.87 42.83"
 xmlns:xlink="http://www.w3.org/1999/xlink"
 xmlns:xodm="http://www.corel.com/coreldraw/odm/2003">
 <defs>
  <style type="text/css">
   <![CDATA[
    .str8 {stroke:#F5A980;stroke-width:0.23;stroke-miterlimit:22.9256}
    .str7 {stroke:black;stroke-width:0.06;stroke-miterlimit:22.9256}
    .str1 {stroke:#0D999A;stroke-width:0.06;stroke-miterlimit:22.9256}
    .str13 {stroke:#DBDBDB;stroke-width:0.06;stroke-miterlimit:22.9256}
    .str5 {stroke:#F5A980;stroke-width:0.06;stroke-miterlimit:22.9256}
    .str2 {stroke:#FA0505;stroke-width:0.06;stroke-miterlimit:22.9256}
    .str0 {stroke:#B8B4B6;stroke-width:2.85;stroke-miterlimit:22.9256}
    .str3 {stroke:#030303;stroke-width:0.46;stroke-miterlimit:22.9256}
    .str15 {stroke:black;stroke-width:0.11;stroke-miterlimit:22.9256}
    .str4 {stroke:#030303;stroke-width:0.11;stroke-miterlimit:22.9256}
    .str11 {stroke:#F5A980;stroke-width:0.11;stroke-miterlimit:22.9256}
    .str16 {stroke:black;stroke-width:0.17;stroke-miterlimit:22.9256}
    .str12 {stroke:#F5A980;stroke-width:0.17;stroke-miterlimit:22.9256}
    .str9 {stroke:#DBDBDB;stroke-width:0.05;stroke-miterlimit:22.9256}
    .str14 {stroke:#F5A980;stroke-width:0.05;stroke-miterlimit:22.9256}
    .str10 {stroke:#E1E1E1;stroke-width:0.05;stroke-miterlimit:22.9256}
    .str6 {stroke:#454545;stroke-width:0.85;stroke-linecap:round;stroke-miterlimit:22.9256}
    .fil4 {fill:none}
    .fil7 {fill:black}
    .fil8 {fill:black}
    .fil5 {fill:#003399}
    .fil15 {fill:#020305}
    .fil13 {fill:#23A342}
    .fil3 {fill:#33CC99}
    .fil10 {fill:#666666}
    .fil17 {fill:gray}
    .fil14 {fill:#94A1A7}
    .fil9 {fill:#999999}
    .fil12 {fill:#CCCCCC}
    .fil2 {fill:#E6E6E6}
    .fil11 {fill:#F5A980}
    .fil6 {fill:#F5B796}
    .fil16 {fill:red}
    .fil0 {fill:white}
    .fil1 {fill:white}
    .fil18 {fill:white;fill-rule:nonzero}
   ]]>
  </style>
 </defs>
 <g id="Camada_x0020_1">
  <metadata id="CorelCorpID_0Corel-Layer"/>
  <path class="fil0 str0" d="M3.22 1.42l36.47 0c0.97,0 1.76,0.9 1.76,2.01l0 35.97c0,1.11 -0.79,2 -1.76,2l-36.47 0c-0.97,0 -1.75,-0.89 -1.75,-2 0,-4.32 -0.07,-34.84 -0.04,-36.41 0.02,-0.86 1.07,-1.57 1.79,-1.57z"/>
  <g id="_1412216458544">
   <polygon class="fil1 str1" points="26.65,24.69 23.69,29.72 21.72,26.62 25.72,22.62 "/>
   <polygon class="fil1 str2" points="16.46,24.86 19.77,29.64 21.53,26.72 17.15,22.56 "/>
   <path class="fil1 str2" d="M16.43 24.82l3.32 5.1 0.54 -0.91 0.59 0.52 -0.12 8.02c-4.18,0 -8.35,0.01 -12.52,0.01 -0.64,0.1 -1,-0.59 -0.99,-1.05 0.02,-1.12 0.35,-4.35 0.59,-7.34 0.1,-1.26 0.38,-1.35 1.3,-1.63 1.45,-0.43 6.93,-2.57 7.29,-2.72z"/>
   <path class="fil2 str2" d="M26.71 24.74l-3.05 5.16 -0.54 -0.91 -0.59 0.52 0.25 8.08c4.17,0 6.57,0.05 10.74,0.05 1.14,0.01 1.46,-0.25 1.43,-1.13 -0.03,-1.12 -0.28,-4.41 -0.56,-7.4 -0.08,-0.83 -0.09,-1.25 -0.95,-1.57 -1.44,-0.53 -6.38,-2.66 -6.73,-2.8z"/>
   <path class="fil3 str3" d="M33.99 37.64l-25.83 0.02c-0.57,0.01 -1.1,-0.38 -1.02,-1.22 0.21,-2.52 0.42,-5.04 0.63,-7.57 0.08,-0.64 0.37,-1.05 0.89,-1.21l7.93 -2.91 0.63 -2.23 4.4 4.14 4.04 -4.17 0.99 2.2 7.11 3.01c0.38,0.25 0.62,0.65 0.67,1.24 0.25,2.51 0.49,5.03 0.73,7.54 0.08,0.67 -0.46,1.17 -1.17,1.16z"/>
   <polyline class="fil4 str3" points="16.53,24.87 19.79,29.73 21.56,26.78 23.69,29.72 26.59,24.81 "/>
   <polygon class="fil5 str4" points="23.03,29.08 21.55,26.96 20.32,29.08 20.92,29.62 20.79,37.67 23.09,37.66 22.58,29.63 "/>
   <path class="fil6 str5" d="M18.14 23.08l3.47 3.25 3.2 -3.3 -0.1 -1.37c-0.68,0.68 -1.35,1.37 -2.03,2.05 -0.38,0.45 -1.56,0.48 -2.14,0.02l-2.44 -2.09 0.04 1.44z"/>
   <path class="fil6 str5" d="M27.88 13.52c-0.2,0.04 -0.31,0.34 -0.46,0.51l0.18 -0.59 -1.73 -1.27 0.01 -2.67 -2.33 -0.01 -1.96 0.61 -2.02 -0.64 -2.52 0.03 -0.13 2.23 -1.15 1.56c-0.14,-0.2 -0.28,-0.41 -0.42,-0.61 -0.07,-0.2 -0.33,-0.18 -0.46,-0.1 -0.17,0.06 -0.25,0.21 -0.33,0.54 -0.1,0.35 -0.06,0.71 0,1.06l0.25 1.37c0.07,0.23 0.22,0.33 0.46,0.31 0.07,0.02 0.2,-0.07 0.42,-0.31 0.08,1.03 0.27,1.96 0.57,2.79 0.44,1.18 1.03,2.28 1.78,3.29 0.8,0.69 1.61,1.38 2.42,2.07 0.74,0.6 1.47,0.65 2.19,0.03 1.11,-1 2.18,-2.03 3.19,-3.1 0.44,-0.62 0.79,-1.26 1.04,-1.92 0.15,-0.81 0.31,-1.61 0.46,-2.41 0.06,0.11 0.14,0.17 0.25,0.16 0.1,0 0.38,-0.05 0.54,-0.23 0.33,-0.67 0.53,-1.35 0.65,-2.02 0.04,-0.21 -0.13,-0.42 -0.31,-0.54 -0.16,-0.12 -0.45,-0.2 -0.59,-0.14z"/>
   <path class="fil7" d="M24.24 14.42c-0.34,0.07 -0.57,0.3 -0.47,0.73 0.07,0.3 0.34,0.54 0.72,0.46 0.71,-0.15 0.62,-1.36 -0.25,-1.19z"/>
   <path class="fil7" d="M18.84 14.42c-0.83,0.17 -0.51,1.35 0.25,1.19 0.3,-0.06 0.53,-0.35 0.47,-0.74 -0.04,-0.32 -0.36,-0.52 -0.72,-0.45z"/>
   <line class="fil4 str6" x1="17.48" y1="12.84" x2="20.59" y2= "13.13" />
   <path class="fil8 str7" d="M17.16 12.07l-1.31 1.73c-0.44,-1.42 -0.11,-3.07 0.7,-5.25 0.82,-1.93 1.12,-2.64 2.48,-2.86 2.22,-0.27 2.14,-0.3 4.72,-0.15 1.02,0.24 1.96,1.25 2.82,2.99 0.57,1.58 1.41,3.18 1.15,5.25 -0.57,-0.42 -1.18,-0.84 -1.75,-1.26 -0.2,-0.85 -0.22,-1.75 -0.04,-2.64 -0.86,0.24 -1.4,0.24 -2.21,0 -1.01,0.86 -2.79,0.84 -4.05,0 -0.72,0.18 -1.51,0.2 -2.42,0 0.1,0.77 0.1,1.51 -0.09,2.19z"/>
   <line class="fil4 str6" x1="25.46" y1="12.84" x2="22.35" y2= "13.13" />
   <path class="fil9" d="M24.13 14.35c-0.14,-0.24 0.39,-0.48 1.03,-0.45 0.45,0.06 0.78,0.23 0.92,0.54 0.03,0.08 0.09,0.13 0.01,0.23l-0.29 0.18c-0.42,-0.33 -0.99,-0.47 -1.67,-0.5z"/>
   <path class="fil9" d="M19.41 14.35c0.14,-0.24 -0.38,-0.48 -1.02,-0.45 -0.46,0.06 -0.78,0.23 -0.93,0.54 -0.02,0.08 -0.08,0.13 -0.01,0.23l0.3 0.18c0.42,-0.33 0.99,-0.47 1.66,-0.5z"/>
   <path class="fil4 str8" d="M22.9 13.74l-0.46 0.42 -0.19 0.84 -0.15 1.41 0.18 0.72 0.57 0.88c0.03,0.1 0.01,0.18 -0.05,0.24l-0.94 0.68c-0.17,0.11 -0.34,0.1 -0.5,-0.01l-1.11 -0.7 -0.01 -0.29 0.44 -0.88 0.1 -0.64 -0.22 -1.38 -0.27 -0.92 -0.64 -0.43"/>
   <g>
    <path class="fil10" d="M23.42 19.96l-3.65 -0.05c-0.08,0.02 -0.09,0.05 -0.05,0.11l0.81 0.71c0.31,0.19 0.64,0.29 1.02,0.29 0.39,0.03 0.74,-0.04 1.06,-0.22l0.89 -0.69c0.05,-0.15 -0.05,-0.1 -0.08,-0.15z"/>
    <g>
     <path class="fil1 str9" d="M20.31 19.74l0.01 0.34c0,0.11 0.1,0.14 0.23,0.15 0.09,0.04 0.19,0.04 0.3,0 0.08,0.06 0.17,0.06 0.26,0 0.16,0.09 0.32,0.08 0.48,-0.01 0.16,0.09 0.32,0.09 0.48,0 0.12,0.06 0.23,0.06 0.33,0 0.11,0.05 0.22,0.05 0.33,0l0.09 0c0.1,-0.01 0.16,-0.06 0.2,-0.14l0.04 -0.35c-0.93,0.07 -1.85,0.08 -2.75,0.01z"/>
     <line class="fil4 str10" x1="22.07" y1="19.89" x2="22.07" y2= "20.22" />
     <line class="fil4 str10" x1="22.4" y1="19.9" x2="22.4" y2= "20.23" />
     <line class="fil4 str10" x1="22.73" y1="19.89" x2="22.73" y2= "20.22" />
     <line class="fil4 str10" x1="20.55" y1="19.92" x2="20.55" y2= "20.23" />
     <line class="fil4 str10" x1="20.85" y1="19.93" x2="20.85" y2= "20.24" />
     <line class="fil4 str10" x1="21.11" y1="19.93" x2="21.12" y2= "20.22" />
     <line class="fil4 str10" x1="21.59" y1="19.92" x2="21.59" y2= "20.22" />
     <path class="fil4 str11" d="M20.55 21.09l-1.09 -1.13c-0.14,-0.22 0.18,-0.31 0.38,-0.27 1.32,0.14 2.25,0.11 3.56,0.01 0.42,0.02 0.48,0.12 0.25,0.42l-0.92 0.96c-0.73,0.47 -1.45,0.49 -2.18,0.01z"/>
    </g>
   </g>
   <polyline class="fil4 str5" points="19.97,22.54 20.75,22.24 21.54,22 22.47,22.14 23.38,22.58 "/>
   <path class="fil4 str12" d="M15.24 15.06c-0.26,-0.37 -0.35,-1 -0.35,-1.78 0.17,-0.59 0.33,-0.28 0.42,-0.06 0.18,0.49 0.19,0.76 0.01,1.11"/>
   <path class="fil4 str12" d="M27.67 14.22c0.05,-0.29 0.23,-0.55 0.42,-0.52 0.34,-0.05 0.56,0.21 0.49,0.54 -0.12,0.8 -0.43,1.17 -0.69,1.3"/>
   <path class="fil4 str11" d="M23.05 15.12c0.13,0.15 0.33,0.2 0.52,0.31 0.46,0.24 0.77,0.62 1.83,-0.15 0.41,-0.31 0.45,-0.07 0.85,-0.19"/>
   <path class="fil4 str11" d="M20.17 15.12c-0.12,0.15 -0.3,0.2 -0.48,0.31 -0.41,0.24 -0.7,0.62 -1.67,-0.15 -0.38,-0.31 -0.41,-0.07 -0.78,-0.19"/>
   <path class="fil4 str11" d="M17.33 15.04c0.14,0 0.33,0.06 0.44,-0.04 0.89,-0.8 1.5,-0.74 1.98,-0.33 0.11,0.1 0.28,0.32 0.43,0.32"/>
   <path class="fil4 str11" d="M26.27 15.04c-0.17,0 -0.38,0.06 -0.5,-0.04 -1,-0.8 -1.69,-0.74 -2.23,-0.33 -0.13,0.1 -0.32,0.32 -0.49,0.32"/>
   <path class="fil11 str5" d="M23.5 20.17c-1.55,1.2 -2.81,0.88 -4,-0.3 1.02,1.83 2.76,2.14 4,0.3z"/>
   <path class="fil12 str5" d="M20.26 19.82c0.04,-0.05 -0.6,-0.08 -0.76,0 -0.04,0.01 0.04,0.02 0.09,0.1 0.23,0.29 0.57,0.52 0.8,0.65l-0.13 -0.75z"/>
   <path class="fil12 str5" d="M23.11 19.85c-0.01,-0.18 0.58,-0.11 0.61,0.01 0.06,0.14 -0.36,0.43 -0.72,0.66l0.11 -0.67z"/>
   <path class="fil1" d="M21.21 20.89c-0.27,-0.06 -0.52,-0.13 -0.68,-0.27 0.31,-0.09 0.14,0.04 0.28,0 0.32,-0.1 0.27,0.04 0.3,0.03 0.27,-0.13 0.44,-0.01 0.48,0.03 0.1,0.12 -0.09,-0.19 0.47,-0.01 0.12,0.04 -0.08,-0.1 0.34,0 0.18,0.04 -0.1,-0.08 0.35,-0.03 -0.21,0.1 -0.45,0.2 -0.71,0.27 -0.27,0.06 -0.55,0.05 -0.83,-0.02z"/>
   <path class="fil4 str13" d="M20.5 20.63c0.13,-0.05 0.22,-0.05 0.31,0.01 0.1,-0.08 0.2,-0.08 0.29,0 0.16,-0.09 0.33,-0.05 0.49,0.04 0.17,-0.09 0.36,-0.1 0.47,-0.01 0.08,-0.07 0.2,-0.07 0.35,0 0.14,-0.1 0.25,-0.09 0.34,-0.01"/>
   <line class="fil4 str9" x1="20.81" y1="20.66" x2="20.81" y2= "20.79" />
   <line class="fil4 str9" x1="21.1" y1="20.65" x2="21.09" y2= "20.88" />
   <line class="fil4 str9" x1="21.59" y1="20.66" x2="21.59" y2= "20.95" />
   <line class="fil4 str9" x1="22.06" y1="20.64" x2="22.06" y2= "20.92" />
   <line class="fil4 str9" x1="22.41" y1="20.63" x2="22.41" y2= "20.8" />
   <path class="fil11 str14" d="M21.36 19.34c-0.07,-0.07 -0.19,-0.06 -0.36,0 -0.4,0.17 -0.83,0.29 -1.27,0.34 -0.17,0 -0.38,0.19 -0.1,0.15 0.11,-0.01 0.51,-0.05 0.77,0.02 0.77,0.21 1.72,0.23 2.65,-0.03 0.19,-0.06 0.44,-0.03 0.59,-0.02 0.16,0.01 0.11,-0.05 -0.03,-0.08 -0.59,-0.13 -1.18,-0.17 -1.42,-0.3 -0.12,-0.03 -0.22,-0.15 -0.34,-0.08 -0.15,0.06 -0.32,0.06 -0.49,0z"/>
   <g>
    <path class="fil13 str15" d="M24.86 13.14c1.37,-0.21 2.86,-0.84 3.05,-1.59 0.35,-1.42 0.88,-2.45 2.23,-3.52 0.03,-0.03 0.06,-0.11 -0.05,-0.09 -0.34,0.08 -1.5,0.36 -2.56,0.59 -0.28,0.06 -0.57,0.04 -0.63,-0.16 -0.24,-0.8 -0.37,-1.8 -0.85,-4.33 -0.04,-0.23 -0.11,-0.5 -0.3,-0.26 -0.16,0.21 -0.18,0.29 -0.3,0.43 -1.04,1.24 -2.2,0.91 -4.07,0.34 -1.35,0.51 -2.89,0.91 -3.93,-0.33 -0.12,-0.13 -0.14,-0.22 -0.3,-0.42 -0.19,-0.24 -0.26,0.02 -0.3,0.26 -0.48,2.52 -0.61,3.52 -0.85,4.32 -0.06,0.21 -0.35,0.22 -0.63,0.16 -1.06,-0.22 -2.22,-0.51 -2.56,-0.58 -0.11,-0.03 -0.09,0.05 -0.05,0.08 0.76,0.44 1.91,2.02 2.38,3.4 0.94,2.7 7.49,1.89 9.72,1.7z"/>
    <path class="fil4 str16" d="M15.64 8.55c3.83,3.22 7.62,3.32 11.39,-0.01"/>
    <g>
     <path class="fil14" d="M20.66 9.72c0.28,-0.12 0.25,-0.03 0.4,-0.07 0,0 -0.02,0.04 0.05,-0.02 -0.07,-0.01 -0.19,-0.07 -0.28,-0.1 -0.1,-0.03 -0.2,-0.05 -0.3,-0.07 -0.19,-0.05 -0.41,-0.1 -0.58,-0.18 -0.3,-0.14 -0.6,-0.49 -0.49,-0.97 0.1,-0.41 0.67,-0.88 0.45,-1.75 -0.02,-0.1 -0.06,-0.19 -0.1,-0.28 -0.14,-0.31 -0.19,-0.17 0.06,-0.41 0.38,-0.37 0.18,-0.35 0.55,-0.26 0.28,0.07 0.57,0.03 0.82,-0.09 0.33,-0.16 0.1,-0.13 0.43,0.01 0.08,0.03 0.15,0.06 0.23,0.08 0.19,0.04 0.4,0.04 0.58,-0.01 0.35,-0.09 0.17,-0.11 0.39,0.11 0.43,0.44 0.34,0.26 0.19,0.59 -0.45,0.98 0.28,1.61 0.36,2.01 0.09,0.41 -0.11,0.78 -0.5,0.97 -0.17,0.08 -0.38,0.13 -0.58,0.18 -0.33,0.08 -0.36,0.12 -0.57,0.18 0.06,0.03 0.17,0.01 0.24,0.01 0.1,0.01 0.14,0.05 0.22,0.07 0.32,-0.06 0.86,-0.21 1.1,-0.43 0.24,-0.22 0.44,-0.67 0.28,-1.13 -0.07,-0.19 -0.19,-0.33 -0.27,-0.49 -0.21,-0.37 -0.27,-0.82 -0.12,-1.23 0.13,-0.36 0.24,-0.38 0.28,-0.48 -0.12,-0.06 -0.29,-0.25 -0.39,-0.34l-0.32 -0.37c-0.53,0.26 -0.89,0.22 -1.35,-0.14 -0.4,0.33 -0.89,0.42 -1.34,0.13l-0.34 0.4c-0.06,0.06 -0.12,0.12 -0.18,0.18 -0.07,0.05 -0.14,0.1 -0.2,0.15 0.43,0.42 0.47,1.17 0.15,1.73 -0.21,0.34 -0.43,0.62 -0.26,1.14 0.12,0.4 0.42,0.6 0.79,0.72 0.13,0.04 0.47,0.15 0.6,0.16z"/>
     <path class="fil15" d="M21.88 10.01c0,-0.08 -0.01,-0.09 0.07,-0.09l-0.03 0.02c-0.02,0.02 -0.01,-0.01 -0.02,0.03 0.02,-0.01 0.02,0 0.06,-0.04l0 0.03 0.03 0c0.01,-0.03 0.01,-0.02 0.02,-0.04 0.06,0 0.03,-0.01 0.07,0.01l0.02 -0.01c0.02,-0.02 0.01,-0.01 0.03,-0.02l0.19 -0.06c0.14,0.01 0.65,-0.16 0.78,-0.22 0.49,-0.21 0.79,-0.74 0.71,-1.28 -0.08,-0.59 -0.55,-0.75 -0.52,-1.5 0.02,-0.32 0.15,-0.55 0.3,-0.73 0.19,-0.22 0.18,-0.09 -0.27,-0.5 -0.13,-0.12 -0.37,-0.41 -0.47,-0.55 -0.17,-0.02 -0.51,0.4 -1.12,0.07 -0.11,-0.06 -0.2,-0.19 -0.29,-0.21 -0.06,0.01 -0.24,0.28 -0.64,0.33 -0.45,0.06 -0.61,-0.2 -0.77,-0.19 -0.04,0.04 -0.05,0.07 -0.09,0.12 -0.23,0.3 -0.24,0.31 -0.53,0.57 -0.05,0.04 -0.07,0.06 -0.12,0.09 -0.2,0.13 -0.09,0.16 -0.02,0.23 0.25,0.27 0.36,0.67 0.3,1.04 -0.07,0.5 -0.37,0.67 -0.48,1.11 -0.16,0.66 0.22,1.26 0.85,1.47 0.12,0.04 0.51,0.16 0.62,0.16l0.22 0.05c0.03,-0.03 0.01,-0.03 0.06,-0.07l0.02 0.04c0,0 -0.01,-0.03 -0.05,0.03 0.06,-0.01 0.05,0 0.13,0l0.02 -0.05c0.01,0.05 -0.01,0.03 0.05,0.05 -0.03,-0.03 -0.04,-0.05 -0.07,-0.06 -0.05,0 -0.05,0.02 -0.08,-0.02l0.06 0c-0.09,-0.05 -0.21,-0.06 -0.26,-0.1 -0.13,-0.01 -0.47,-0.12 -0.6,-0.16 -0.37,-0.12 -0.67,-0.32 -0.79,-0.72 -0.17,-0.52 0.05,-0.8 0.26,-1.14 0.32,-0.56 0.28,-1.31 -0.15,-1.73 0.06,-0.05 0.13,-0.1 0.2,-0.15 0.06,-0.06 0.12,-0.12 0.18,-0.18l0.34 -0.4c0.45,0.29 0.94,0.2 1.34,-0.13 0.46,0.36 0.82,0.4 1.35,0.14l0.32 0.37c0.1,0.09 0.27,0.28 0.39,0.34 -0.04,0.1 -0.15,0.12 -0.28,0.48 -0.15,0.41 -0.09,0.86 0.12,1.23 0.08,0.16 0.2,0.3 0.27,0.49 0.16,0.46 -0.04,0.91 -0.28,1.13 -0.24,0.22 -0.78,0.37 -1.1,0.43 -0.04,0.03 -0.21,0.07 -0.27,0.1 -0.09,0.03 -0.16,0.07 -0.24,0.11l0.06 0c0.01,0.01 -0.01,0.01 -0.02,0.02l-0.01 0.02c0,0 0,0 0,0.01 0.01,0.02 0.03,0.03 0.03,0.04 -0.05,0.04 0.01,-0.01 -0.06,-0.04l-0.02 -0.03c-0.02,0.02 -0.02,0.04 -0.02,0.1 0,-0.01 -0.01,-0.02 -0.01,-0.02 -0.01,0.02 -0.02,-0.04 -0.05,-0.03 -0.02,0.03 -0.01,0.02 -0.05,0.03 0.01,0.04 0.02,0.03 -0.02,0.03 0,0.04 0.01,0.01 -0.02,0.03 -0.03,0.04 -0.05,0.07 -0.1,0.09 -0.06,-0.06 -0.1,-0.12 -0.18,-0.17 0.01,0.05 0.01,0.01 -0.01,0.02l0 -0.05 -0.04 -0.01 -0.01 0.01c0,0 0,-0.01 -0.01,-0.01l-0.01 -0.03 -0.15 -0.07 -0.02 -0.02 -0.01 -0.01 0.01 0.01 0.02 0.02c0.02,0.09 0.03,0.07 0,0.16 0.06,0.01 0.09,0.03 0.14,0.07 0.06,0.04 0.08,0.04 0.1,0.12 0.03,0.03 0.05,0.06 0.08,0.1 0.05,0.07 0.04,0.08 0.15,0.07 0.03,-0.03 0.08,-0.1 0.09,-0.14l0.03 -0.05c0.06,-0.07 0.18,-0.17 0.27,-0.19zm0.15 -0.08l-0.02 0.01 0.02 -0.01z"/>
     <path class="fil15" d="M20.23 5.72c0.24,0.05 0.38,0.11 0.67,0.06 0.1,-0.01 0.21,-0.04 0.3,-0.07 0.4,-0.16 0.08,-0.15 0.5,0 0.45,0.17 0.66,0.05 0.98,0 0.04,0.08 0.25,0.29 0.32,0.35 -0.02,0.08 -0.09,0.17 -0.12,0.27 -0.04,0.1 -0.07,0.19 -0.09,0.3 -0.17,0.97 0.46,1.37 0.49,1.79 0.07,0.87 -0.94,0.77 -1.61,1.09 -0.09,0.05 -0.16,0.11 -0.23,0.14 -0.09,-0.05 -0.15,-0.09 -0.25,-0.14 -0.59,-0.29 -1.69,-0.23 -1.59,-1.11 0.03,-0.21 0.17,-0.39 0.25,-0.53 0.22,-0.38 0.32,-0.8 0.24,-1.25 -0.07,-0.33 -0.18,-0.46 -0.2,-0.56 0.13,-0.09 0.26,-0.28 0.34,-0.34zm0.88 3.91c0.06,0.04 0.11,0.06 0.17,0.1 0.21,0.14 0.13,0.12 0.32,0 0.03,-0.02 0.04,-0.03 0.08,-0.05 0.02,-0.01 0.02,-0.01 0.04,-0.02 0.05,-0.02 0,0 0.05,-0.02 0.21,-0.06 0.24,-0.1 0.57,-0.18 0.2,-0.05 0.41,-0.1 0.58,-0.18 0.39,-0.19 0.59,-0.56 0.5,-0.97 -0.08,-0.4 -0.81,-1.03 -0.36,-2.01 0.15,-0.33 0.24,-0.15 -0.19,-0.59 -0.22,-0.22 -0.04,-0.2 -0.39,-0.11 -0.18,0.05 -0.39,0.05 -0.58,0.01 -0.08,-0.02 -0.15,-0.05 -0.23,-0.08 -0.33,-0.14 -0.1,-0.17 -0.43,-0.01 -0.25,0.12 -0.54,0.16 -0.82,0.09 -0.37,-0.09 -0.17,-0.11 -0.55,0.26 -0.25,0.24 -0.2,0.1 -0.06,0.41 0.04,0.09 0.08,0.18 0.1,0.28 0.22,0.87 -0.35,1.34 -0.45,1.75 -0.11,0.48 0.19,0.83 0.49,0.97 0.17,0.08 0.39,0.13 0.58,0.18 0.1,0.02 0.2,0.04 0.3,0.07 0.09,0.03 0.21,0.09 0.28,0.1z"/>
     <g>
      <path class="fil1" d="M21.11 7.02c0.03,-0.12 0.07,-0.24 0.11,-0.35 0.04,-0.13 0.06,-0.26 0.22,-0.26 0.16,-0.01 0.18,0.12 0.22,0.25 0.04,0.12 0.09,0.25 0.12,0.36 0.15,0.01 0.31,0 0.46,0 0.29,0.01 0.3,0.25 0.16,0.35 -0.04,0.03 -0.09,0.07 -0.13,0.1 -0.09,0.06 -0.2,0.14 -0.27,0.21 0.04,0.2 0.28,0.6 0.06,0.71 -0.2,0.1 -0.39,-0.22 -0.62,-0.31 -0.08,0.06 -0.19,0.13 -0.28,0.2 -0.09,0.06 -0.19,0.18 -0.34,0.11 -0.21,-0.11 0.02,-0.51 0.07,-0.71l-0.4 -0.3c-0.04,-0.03 -0.08,-0.07 -0.09,-0.14 -0.04,-0.32 0.46,-0.2 0.71,-0.22zm-0.88 -1.3c-0.08,0.06 -0.21,0.25 -0.34,0.34 0.02,0.1 0.13,0.23 0.2,0.56 0.08,0.45 -0.02,0.87 -0.24,1.25 -0.08,0.14 -0.22,0.32 -0.25,0.53 -0.1,0.88 1,0.82 1.59,1.11 0.1,0.05 0.16,0.09 0.25,0.14 0.07,-0.03 0.14,-0.09 0.23,-0.14 0.67,-0.32 1.68,-0.22 1.61,-1.09 -0.04,-0.42 -0.66,-0.82 -0.49,-1.79 0.02,-0.11 0.05,-0.2 0.09,-0.3 0.03,-0.1 0.1,-0.19 0.12,-0.27 -0.07,-0.06 -0.28,-0.27 -0.32,-0.35 -0.32,0.05 -0.53,0.17 -0.98,0 -0.42,-0.15 -0.1,-0.16 -0.5,0 -0.09,0.03 -0.2,0.06 -0.3,0.07 -0.29,0.05 -0.43,-0.01 -0.67,-0.06z"/>
      <path class="fil16" d="M20.56 7.19c0.01,0.07 -0.02,0.04 0.1,0.12 0.07,0.05 0.38,0.26 0.4,0.3 0.04,0.12 -0.38,0.85 -0.03,0.57 0.06,-0.05 0.37,-0.28 0.41,-0.28 0.09,-0.01 0.45,0.35 0.55,0.35 0.02,-0.06 -0.01,-0.11 -0.03,-0.16 -0.2,-0.62 -0.22,-0.41 0.25,-0.77 0.13,-0.1 0.11,-0.05 0.12,-0.13l-0.64 -0.01c-0.07,-0.06 -0.09,-0.2 -0.12,-0.3 -0.02,-0.07 -0.07,-0.26 -0.12,-0.32 -0.04,0.02 -0.02,0.01 -0.05,0.05 0,0 -0.02,0.07 -0.02,0.07 -0.02,0.06 -0.03,0.1 -0.05,0.15 -0.12,0.41 -0.07,0.35 -0.41,0.35 -0.11,0 -0.26,-0.01 -0.36,0.01z"/>
      <path class="fil15" d="M20.56 7.19c0.1,-0.02 0.25,-0.01 0.36,-0.01 0.34,0 0.29,0.06 0.41,-0.35 0.02,-0.05 0.03,-0.09 0.05,-0.15 0,0 0.02,-0.07 0.02,-0.07 0.03,-0.04 0.01,-0.03 0.05,-0.05 0.05,0.06 0.1,0.25 0.12,0.32 0.03,0.1 0.05,0.24 0.12,0.3l0.64 0.01c-0.01,0.08 0.01,0.03 -0.12,0.13 -0.47,0.36 -0.45,0.15 -0.25,0.77 0.02,0.05 0.05,0.1 0.03,0.16 -0.1,0 -0.46,-0.36 -0.55,-0.35 -0.04,0 -0.35,0.23 -0.41,0.28 -0.35,0.28 0.07,-0.45 0.03,-0.57 -0.02,-0.04 -0.33,-0.25 -0.4,-0.3 -0.12,-0.08 -0.09,-0.05 -0.1,-0.12zm0.55 -0.17c-0.25,0.02 -0.75,-0.1 -0.71,0.22 0.01,0.07 0.05,0.11 0.09,0.14l0.4 0.3c-0.05,0.2 -0.28,0.6 -0.07,0.71 0.15,0.07 0.25,-0.05 0.34,-0.11 0.09,-0.07 0.2,-0.14 0.28,-0.2 0.23,0.09 0.42,0.41 0.62,0.31 0.22,-0.11 -0.02,-0.51 -0.06,-0.71 0.07,-0.07 0.18,-0.15 0.27,-0.21 0.04,-0.03 0.09,-0.07 0.13,-0.1 0.14,-0.1 0.13,-0.34 -0.16,-0.34 -0.15,-0.01 -0.31,0 -0.46,-0.01 -0.03,-0.11 -0.08,-0.24 -0.12,-0.36 -0.04,-0.13 -0.06,-0.26 -0.22,-0.25 -0.16,0 -0.18,0.13 -0.22,0.26 -0.04,0.11 -0.08,0.23 -0.11,0.35z"/>
     </g>
     <rect class="fil17 str15" x="19.79" y="9.65" width="3.57" height="0.57" rx="0.96" ry="0.62"/>
     <path class="fil18" d="M20.3 10.13l-0.22 0 0.17 -0.39 0.31 0 0.17 0.39 -0.22 0 -0.02 -0.07 -0.16 0 -0.03 0.07zm0.07 -0.16l0.08 0 -0.04 -0.1 -0.04 0.1z"/>
     <path id="_1" class="fil18" d="M20.78 9.74l0.24 0c0.09,0 0.16,0.02 0.21,0.06 0.04,0.03 0.07,0.08 0.07,0.14 0,0.03 -0.01,0.06 -0.03,0.09 -0.03,0.03 -0.06,0.06 -0.1,0.08 -0.04,0.01 -0.09,0.02 -0.15,0.02l-0.24 0 0 -0.39zm0.22 0.15l0 0.09 0.01 0c0.02,0 0.04,0 0.05,-0.01 0.01,-0.01 0.02,-0.02 0.02,-0.04 0,-0.03 -0.02,-0.04 -0.07,-0.04l-0.01 0z"/>
     <polygon id="_2" class="fil18" points="21.36,10.13 21.36,9.74 21.58,9.74 21.67,9.82 21.76,9.74 21.97,9.74 21.97,10.13 21.75,10.13 21.75,9.93 21.67,10.01 21.58,9.93 21.58,10.13 "/>
     <polygon id="_3" class="fil18" points="22.06,10.13 22.06,9.74 22.28,9.74 22.28,10.13 "/>
     <polygon id="_4" class="fil18" points="22.38,10.13 22.38,9.74 22.59,9.74 22.68,9.82 22.77,9.74 22.98,9.74 22.98,10.13 22.76,10.13 22.76,9.93 22.68,10.01 22.6,9.93 22.6,10.13 "/>
    </g>
   </g>
  </g>
 </g>
</svg>
