<?xml version="1.0" encoding="UTF-8"?>
<!DOCTYPE svg PUBLIC "-//W3C//DTD SVG 1.1//EN" "http://www.w3.org/Graphics/SVG/1.1/DTD/svg11.dtd">
<!-- Creator: CorelDRAW 2021 (64 Bit) -->
<svg xmlns="http://www.w3.org/2000/svg" xml:space="preserve" width="752px" height="752px" version="1.1" style="shape-rendering:geometricPrecision; text-rendering:geometricPrecision; image-rendering:optimizeQuality; fill-rule:evenodd; clip-rule:evenodd"
viewBox="0 0 32.96 32.93"
 xmlns:xlink="http://www.w3.org/1999/xlink"
 xmlns:xodm="http://www.corel.com/coreldraw/odm/2003">
 <defs>
  <style type="text/css">
   <![CDATA[
    .str0 {stroke:#B8B4B6;stroke-width:2.19;stroke-miterlimit:22.9256}
    .fil0 {fill:white}
    .fil1 {fill:black;fill-rule:nonzero}
   ]]>
  </style>
 </defs>
 <g id="Camada_x0020_1">
  <metadata id="CorelCorpID_0Corel-Layer"/>
  <path class="fil0 str0" d="M2.48 1.1l28.04 0c0.74,0 1.35,0.68 1.35,1.54l0 27.66c0,0.85 -0.61,1.54 -1.35,1.54l-28.04 0c-0.75,0 -1.35,-0.69 -1.35,-1.54 0,-3.33 -0.05,-26.79 -0.03,-28 0.01,-0.66 0.82,-1.2 1.38,-1.2z"/>
 </g>
 <g id="Camada_x0020_1_0">
  <metadata id="CorelCorpID_1Corel-Layer"/>
  <path class="fil1" d="M27.11 19c0,-0.72 -1.49,-3.37 -2.22,-4.64 0.07,-0.37 0.18,-1.2 0.18,-2.44 0,-2.17 -2.84,-7.6 -9.61,-7.6 -6.63,0 -9.61,5.03 -9.61,8.61 0,2.53 1.49,5.11 2.68,7.18 0.7,1.23 1.36,2.36 1.36,2.94 0,1.28 -2.09,3.85 -2.91,4.71 -0.13,0.15 -0.16,0.36 -0.07,0.55 0.07,0.19 0.24,0.3 0.45,0.3l11.14 0c0.28,0 0.49,-0.13 0.49,-0.41 0.19,-0.36 1.98,-1.34 3.63,-1.61 1.27,-0.2 2.96,-0.49 2.96,-2.03 0,-0.66 -0.22,-1 -0.37,-1.23 -0.12,-0.15 -0.14,-0.18 -0.19,-0.28 0.28,0.04 0.53,-0.17 0.56,-0.45 0.02,-0.09 0,-0.21 -0.05,-0.3l0.41 -0.42c0.13,-0.13 0.19,-0.34 0.13,-0.51l-0.34 -1.01c0.59,-0.21 1.38,-0.63 1.38,-1.36l0 0z"/>
 </g>
</svg>
