<?xml version="1.0" encoding="UTF-8"?>
<!DOCTYPE svg PUBLIC "-//W3C//DTD SVG 1.1//EN" "http://www.w3.org/Graphics/SVG/1.1/DTD/svg11.dtd">
<!-- Creator: CorelDRAW 2021 (64 Bit) -->
<svg xmlns="http://www.w3.org/2000/svg" xml:space="preserve" width="63.754mm" height="63.754mm" version="1.1" style="shape-rendering:geometricPrecision; text-rendering:geometricPrecision; image-rendering:optimizeQuality; fill-rule:evenodd; clip-rule:evenodd"
viewBox="0 0 798.37 798.37"
 xmlns:xlink="http://www.w3.org/1999/xlink"
 xmlns:xodm="http://www.corel.com/coreldraw/odm/2003">
 <defs>
  <style type="text/css">
   <![CDATA[
    .fil1 {fill:black}
    .fil5 {fill:#5E5E5E}
    .fil4 {fill:#8F8F8F}
    .fil3 {fill:#98FEFE}
    .fil0 {fill:#B7B3B5}
    .fil2 {fill:#E5E6E7}
   ]]>
  </style>
 </defs>
 <g id="Camada_x0020_1">
  <metadata id="CorelCorpID_0Corel-Layer"/>
  <g id="_1888585481472">
   <path class="fil0" d="M54.07 730.51l0 -671.14c0,-2.94 0.45,-1.88 2.04,-3.26 0.77,-0.66 2.76,-2.04 4.32,-2.04l676.44 0c5.07,0 7.42,3.59 7.42,8.48l0 673.26c0,3.87 -2.93,8.48 -6.36,8.48l-675.38 0c-6.91,0 -8.48,-6.86 -8.48,-13.78zm-54.07 -673.26l0 388.05c0,47.9 1.06,92.45 1.06,139.95 0,47 0,94.01 0,141.01 -0,20.39 2.49,37.93 17.21,52.77 13.08,13.18 25.95,19.33 51.71,19.33l657.35 0c20.35,0 36.2,-2.83 50.64,-16.15 10.45,-9.63 20.39,-27.66 20.39,-47.46l0 -671.14c0,-18.62 -8.91,-35.82 -18.27,-45.35 -10.67,-10.87 -24.16,-18.27 -45.35,-18.27l-670.08 0c-9.46,0 -18.31,1.53 -25.1,4.58 -20.56,9.25 -39.57,26.12 -39.57,52.67z"/>
   <path class="fil1" d="M379.99 641.16l0.03 -316.19 164.57 -81.39c0.52,93.99 0.68,187.64 1.25,281.25 0.03,4.78 1.54,11.66 -2.12,14.69l-76.33 47.69c-14.67,9.13 -29.06,18.5 -43.7,27.34 -6.99,4.22 -39.37,25.69 -43.71,26.61zm-38.45 -339.06l-0.08 273.65 -64.31 -0.3 -0.06 -332.29 184.95 -0.06 -120.5 59zm226.75 -112.38l-344.27 0.36 0 386.7 -0.34 13.78 54.11 0 0 -13.78 63.61 0 0 137.83 60.02 -38.59c5.28,-3.54 9.57,-6.01 14.84,-9.54 5.28,-3.54 9.57,-6.01 14.84,-9.54l150.97 -97.13 0 -375.33c-3.78,2 -8.48,5.25 -13.78,5.23z"/>
   <path class="fil2" d="M410.31 508.16c-1.1,9.05 -12.44,14.46 -20.79,7.79 -6.83,-5.45 -5.29,-16.54 -5.58,-27.14 -0.28,-10.37 -2.22,-24.29 3.99,-29.85 6.94,-6.22 19.87,-2.98 20.92,5.91 2.34,2.11 1.13,1.23 2.53,3.58 3.95,-2.32 10.06,-6.05 15.57,-4.87 6.03,1.29 16.22,12.91 -2.57,22.23 -3.6,1.79 -10.38,4.62 -13.32,7.2 -0.04,5.05 1,11.6 -0.74,15.14zm131.62 -123.47c-0.29,-35.85 1.04,-84.32 0.01,-118.07 -0.18,-5.85 -0.27,-11.65 -0.28,-17.58 -8.41,2.05 -30.72,14.8 -39.98,19.33 -13.36,6.54 -26.44,12.92 -39.92,19.52l-78.58 39.07c-0.11,6.89 0.24,13.85 -0.22,20.71 -0.26,3.97 -0.26,1.41 -0.15,3.84l-0.04 24.71c0.01,0.65 0.39,7.45 0.39,9.7 -0.01,3.49 0.11,7.24 -0.06,10.7 -0.56,11.32 0.59,15.7 -0.24,28.25l0.42 210.77 40.16 -24.56c13.54,-8.35 26.14,-16.64 39.7,-24.95 4.59,-2.81 78.11,-47.56 79.6,-50.7l-0.79 -150.74z"/>
   <polygon class="fil0" points="224.02,576.78 224.02,190.08 568.29,189.72 568.29,157.98 187.66,157.98 187.66,576.78 "/>
   <polygon class="fil3" points="462.04,243.1 277.09,243.16 277.15,575.45 341.46,575.75 341.54,302.1 "/>
   <path class="fil4" d="M542.72 535.43c-1.48,3.14 -75,47.89 -79.6,50.7 -13.56,8.31 -26.16,16.6 -39.7,24.95l-40.16 24.56 -0.42 -210.77c0.83,-12.55 -0.32,-16.93 0.24,-28.25 0.17,-3.46 0.05,-7.2 0.06,-10.7 0,-2.24 -0.38,-9.05 -0.39,-9.7l0.04 -24.71c-0.11,-2.44 -0.11,0.13 0.15,-3.84 0.46,-6.86 0.11,-13.82 0.22,-20.71l78.58 -39.07c13.48,-6.6 26.56,-12.98 39.92,-19.52 9.26,-4.53 31.57,-17.28 39.98,-19.33 0.02,5.93 0.1,11.72 0.28,17.58 1.04,33.75 -0.3,82.22 -0.01,118.07l0.79 150.74zm-162.73 105.73c4.34,-0.93 36.72,-22.39 43.71,-26.61 14.64,-8.84 29.02,-18.21 43.7,-27.34l76.33 -47.69c3.66,-3.03 2.15,-9.91 2.12,-14.69 -0.57,-93.61 -0.73,-187.26 -1.25,-281.25l-164.57 81.39 -0.03 316.19z"/>
   <path class="fil1" d="M410.31 508.16l-0.59 -15.23c-14.74,8.7 -24.15,4.08 -22.79,-7.22 0.72,-5.94 4.58,-7.52 9.34,-9.87l13.56 -7.21 -0.99 -3.76c-1.05,-8.89 -13.98,-12.14 -20.92,-5.91 -6.21,5.56 -4.27,19.48 -3.99,29.85 0.29,10.6 -1.25,21.69 5.58,27.14 8.35,6.67 19.69,1.26 20.79,-7.79z"/>
   <path class="fil5" d="M408.85 464.87l0.99 3.76 -13.56 7.21c-4.76,2.35 -8.63,3.92 -9.34,9.87 -1.36,11.3 8.05,15.91 22.79,7.22l0.59 15.23c1.74,-3.54 0.7,-10.09 0.74,-15.14 2.95,-2.58 9.72,-5.42 13.32,-7.2 18.8,-9.32 8.6,-20.94 2.57,-22.23 -5.5,-1.18 -11.61,2.55 -15.57,4.87 -1.4,-2.36 -0.19,-1.47 -2.53,-3.58z"/>
  </g>
 </g>
</svg>
