<?xml version="1.0" encoding="UTF-8"?>
<!DOCTYPE svg PUBLIC "-//W3C//DTD SVG 1.1//EN" "http://www.w3.org/Graphics/SVG/1.1/DTD/svg11.dtd">
<!-- Creator: CorelDRAW 2021 (64 Bit) -->
<svg xmlns="http://www.w3.org/2000/svg" xml:space="preserve" width="752px" height="752px" version="1.1" style="shape-rendering:geometricPrecision; text-rendering:geometricPrecision; image-rendering:optimizeQuality; fill-rule:evenodd; clip-rule:evenodd"
viewBox="0 0 25.47 25.45"
 xmlns:xlink="http://www.w3.org/1999/xlink"
 xmlns:xodm="http://www.corel.com/coreldraw/odm/2003">
 <defs>
  <style type="text/css">
   <![CDATA[
    .str2 {stroke:#AEA19E;stroke-width:0.54;stroke-miterlimit:22.9256;stroke-opacity:0.949020}
    .str0 {stroke:#B8B4B6;stroke-width:1.69;stroke-miterlimit:22.9256}
    .str1 {stroke:white;stroke-width:0.07;stroke-miterlimit:22.9256}
    .str3 {stroke:black;stroke-width:0.41;stroke-miterlimit:22.9256}
    .fil4 {fill:none}
    .fil1 {fill:#E6E7E8}
    .fil5 {fill:black}
    .fil9 {fill:#008CFF}
    .fil11 {fill:#04F9FD}
    .fil8 {fill:#333333}
    .fil10 {fill:#60FE04}
    .fil19 {fill:#615E5C}
    .fil18 {fill:#A7A786}
    .fil15 {fill:#BF08FC}
    .fil17 {fill:#D2AD6D}
    .fil12 {fill:#FA0404}
    .fil14 {fill:#FDFD00}
    .fil6 {fill:#FDFDCA}
    .fil13 {fill:#FE9800}
    .fil7 {fill:#FEFEFE}
    .fil16 {fill:#FF4CE7}
    .fil0 {fill:snow}
    .fil2 {fill:#333333;fill-rule:nonzero}
    .fil3 {fill:#FEFEFE;fill-rule:nonzero;fill-opacity:0.949020}
   ]]>
  </style>
 </defs>
 <g id="Camada_x0020_1">
  <metadata id="CorelCorpID_0Corel-Layer"/>
  <path class="fil0 str0" d="M1.91 0.85l21.67 0c0.58,0 1.05,0.53 1.05,1.19l0 21.37c0,0.66 -0.47,1.19 -1.05,1.19l-21.67 0c-0.57,0 -1.04,-0.53 -1.04,-1.19 0,-2.57 -0.04,-20.7 -0.02,-21.63 0.01,-0.52 0.63,-0.93 1.06,-0.93z"/>
  <g id="_2201386499488">
   <rect class="fil1 str1" x="4.04" y="14.61" width="3.17" height="7.3"/>
   <path class="fil2" d="M12.48 22.38c-0.61,0 -1.21,-0.22 -1.79,-0.44 -0.65,-0.24 -1.31,-0.49 -1.97,-0.43l-1.62 0.15 0 -6.29 0.88 -0.08c0.55,-0.05 1.01,0.16 1.46,0.37 0.42,0.19 0.81,0.38 1.26,0.34l2.91 -0.53c1.04,-0.17 1.61,0.43 1.96,0.98l3.17 -1.48c1.2,-0.54 2.54,0 3.35,1.34 0.21,0.35 0.09,0.82 -0.26,1.04 -0.41,0.26 -0.82,0.52 -1.23,0.77 -3.54,2.22 -6.6,4.14 -7.91,4.25 -0.07,0.01 -0.14,0.01 -0.21,0.01zm-3.55 -1.31c0.66,0 1.29,0.23 1.91,0.46 0.63,0.24 1.23,0.46 1.81,0.41 1.21,-0.11 4.37,-2.09 7.72,-4.19 0.41,-0.25 0.82,-0.51 1.23,-0.77 0.15,-0.09 0.21,-0.29 0.12,-0.44 -0.69,-1.14 -1.81,-1.61 -2.8,-1.17l-3.52 1.64c-0.01,-0.23 -0.19,-0.5 -0.28,-0.61 -0.33,-0.39 -0.96,-0.58 -1.44,-0.5l-2.92 0.53c-0.59,0.05 -1.05,-0.17 -1.51,-0.38 -0.41,-0.19 -0.79,-0.37 -1.23,-0.33l-0.48 0.04 0 5.42 1.14 -0.1c0.09,-0.01 0.17,-0.01 0.25,-0.01z"/>
   <path class="fil3 str2" d="M6.8 22.38l-2.48 0c-0.41,0 -0.74,-0.33 -0.74,-0.74l0 -6.67c0,-0.41 0.33,-0.74 0.74,-0.74l2.48 0c0.41,0 0.74,0.33 0.74,0.74l0 6.67c0,0.41 -0.33,0.74 -0.74,0.74zm-2.48 -7.71c-0.17,0 -0.31,0.13 -0.31,0.3l0 6.67c0,0.17 0.14,0.31 0.31,0.31l2.48 0c0.17,0 0.3,-0.14 0.3,-0.31l0 -6.67c0,-0.17 -0.13,-0.3 -0.3,-0.3l-2.48 0z"/>
   <path class="fil4 str3" d="M15.57 16.9c0.05,0.1 0.05,0.28 -0.07,0.47 -0.19,0.3 -0.62,0.53 -1.66,0.41 -0.77,-0.09 -1.7,0.09 -2.51,0.17"/>
  </g>
 </g>
 <g id="Camada_x0020_1_0">
  <metadata id="CorelCorpID_1Corel-Layer"/>
  <g id="_2201386522864">
   <path class="fil5" d="M13.2 12.43c-0.27,0.96 -1.68,0.6 -1.46,-0.36 0.08,-0.36 0.46,-0.67 0.93,-0.55 0.32,0.08 0.66,0.46 0.53,0.91zm1.93 -1.39c-0.16,-1 1.32,-1.19 1.48,-0.27 0.18,1.04 -1.33,1.2 -1.48,0.27zm-5.16 0.03c-0.29,0.92 -1.7,0.56 -1.44,-0.42 0.25,-0.96 1.74,-0.53 1.44,0.42zm1.51 -1.53l2.22 0c0,0.01 -0.01,0.01 -0.02,0.02 -0.05,0.17 -1.44,0.54 -2.14,0.03 -0.04,-0.03 -0.03,-0.02 -0.06,-0.05zm0.62 -1l-0.33 0 0 0.66 -0.27 0c-0.03,-0.2 -0.02,-0.95 0.01,-1.13 0.18,-0.07 2.07,-0.08 2.2,0.01 0.1,0.14 0.07,0.88 0.04,1.12l-0.19 0 -0.02 -0.68 -0.32 -0.02 0 0.7 -1.11 0.01 -0.01 -0.67zm-4.9 -0.85c-0.07,-1.02 1.42,-1.09 1.5,-0.14 0.08,1.01 -1.43,1.09 -1.5,0.14zm9.32 -0.04c-0.16,-1 1.3,-1.2 1.47,-0.26 0.09,0.46 -0.23,0.82 -0.61,0.88 -0.44,0.06 -0.81,-0.26 -0.86,-0.62zm-5.39 1.67c-0.02,-0.05 -1.18,-0.95 -0.65,-2.47 0.66,-1.85 3.34,-2.03 4.17,-0.12 0.19,0.44 0.23,0.97 0.11,1.45 -0.15,0.63 -0.42,0.79 -0.65,1.08 -0.08,-0.4 0.09,-1.11 -0.12,-1.39 -0.22,-0.28 -1.58,-0.18 -2.16,-0.18 -1.07,0 -0.52,0.98 -0.7,1.63zm4.67 -5.63c0.46,-0.12 0.8,0.19 0.89,0.53 0.11,0.45 -0.19,0.83 -0.54,0.92 -0.95,0.23 -1.37,-1.2 -0.35,-1.45zm-6.71 -0.08c0.45,-0.15 0.84,0.17 0.94,0.5 0.13,0.44 -0.15,0.82 -0.48,0.93 -0.94,0.29 -1.43,-1.1 -0.46,-1.43zm3.36 -1.38c0.95,-0.32 1.4,1.12 0.45,1.42 -0.92,0.3 -1.4,-1.11 -0.45,-1.42zm0.55 2.86l-0.21 -0.02 0.06 -0.76 0 -0.35c0.16,-0.1 0.89,-0.25 0.85,-1.08 -0.06,-1.27 -1.94,-1.28 -2.04,-0.03 -0.02,0.3 0.08,0.55 0.24,0.74 0.32,0.35 0.41,0.24 0.6,0.37l-0.01 1.07c-0.53,0.14 -0.64,0.03 -1.26,0.4 -0.15,0.09 -0.21,0.15 -0.35,0.23l-0.74 -0.7c0.09,-0.27 0.23,-0.36 0.18,-0.75 -0.08,-0.83 -1.11,-1.2 -1.69,-0.64 -0.89,0.85 0.12,2.25 1.24,1.61l0.77 0.74c-0.35,0.4 -0.57,0.95 -0.62,1.51l-1.07 0.02c-0.18,-1.23 -2.02,-1.07 -2.02,0.17 0,1.24 1.84,1.4 2.02,0.17l1.07 0c0.06,0.71 0.28,1.06 0.58,1.48 -0.07,0.07 -0.12,0.11 -0.19,0.18 -0.21,0.21 -0.3,0.33 -0.58,0.55 -0.35,-0.12 -0.85,-0.4 -1.38,0.23 -0.39,0.45 -0.22,1.06 0.13,1.39 0.5,0.48 1.56,0.27 1.68,-0.62 0.05,-0.38 -0.07,-0.51 -0.18,-0.77 0.2,-0.14 0.48,-0.51 0.77,-0.71 0.09,0.06 0.18,0.16 0.3,0.24 0.36,0.24 0.81,0.41 1.26,0.43l-0.04 1.02c-0.25,0.13 -0.42,0.08 -0.63,0.31 -0.13,0.13 -0.28,0.42 -0.29,0.7 -0.01,0.55 0.42,1 0.93,1.04 0.81,0.07 1.45,-0.83 0.92,-1.62 -0.16,-0.25 -0.28,-0.24 -0.58,-0.4l0.03 -1.04c1.19,-0.19 0.93,-0.31 1.6,-0.65l0.71 0.69c-0.05,0.19 -0.5,0.78 0.09,1.4 0.8,0.84 2.3,-0.22 1.54,-1.33 -0.11,-0.16 -0.3,-0.32 -0.56,-0.38 -0.37,-0.1 -0.52,0.01 -0.81,0.11l-0.75 -0.71c0.05,-0.15 0.26,-0.36 0.39,-0.68 0.11,-0.28 0.18,-0.52 0.21,-0.84l1.1 -0.02c0.26,1.17 2.14,0.92 2,-0.37 -0.05,-0.5 -0.48,-0.92 -1.02,-0.91 -0.57,0.01 -0.95,0.4 -1.01,0.94l-1.07 0c-0.06,-0.66 -0.31,-1.1 -0.58,-1.48l0.76 -0.72c0.28,0.08 0.36,0.23 0.78,0.17 0.8,-0.12 1.15,-1.14 0.55,-1.73 -0.62,-0.6 -1.58,-0.23 -1.72,0.52 -0.08,0.4 0.06,0.53 0.16,0.81 -0.34,0.23 -0.59,0.6 -0.79,0.7 -0.33,-0.26 -0.83,-0.65 -1.33,-0.63z"/>
   <path class="fil6" d="M12.37 5.57c0.65,-0.15 1.14,0.31 1.25,0.8 0.15,0.63 -0.29,1.13 -0.77,1.25 -1.34,0.34 -1.89,-1.71 -0.48,-2.05zm-1.24 3.75c0.18,-0.65 -0.37,-1.63 0.7,-1.63 0.58,0 1.94,-0.1 2.16,0.18 0.21,0.28 0.04,0.99 0.12,1.39 0.23,-0.29 0.5,-0.45 0.65,-1.08 0.12,-0.48 0.08,-1.01 -0.11,-1.45 -0.83,-1.91 -3.51,-1.73 -4.17,0.12 -0.53,1.52 0.63,2.42 0.65,2.47z"/>
   <path class="fil7" d="M6.36 5.17c-0.12,0.19 0.11,0.3 -0.14,0.43 -0.57,0.32 -0.37,-0.1 -0.69,-0.1 -0.33,-0.01 -0.08,0.36 -0.57,0.15 -0.46,-0.2 -0.08,-0.28 -0.27,-0.5 -0.1,-0.12 -0.25,-0.05 -0.42,-0.07 -0.42,-0.74 0.06,-0.47 0.05,-0.81 -0.02,-0.37 -0.44,0 -0.06,-0.79 0.29,-0.04 0.5,0.11 0.47,-0.31 -0.01,-0.19 0.02,-0.17 0.18,-0.24 0.13,-0.04 0.21,-0.09 0.36,-0.08 0.06,0.09 0.11,0.23 0.29,0.22 0.31,-0.04 0.06,-0.35 0.55,-0.15 0.48,0.19 0.05,0.31 0.29,0.52 0.11,0.09 0.27,0.02 0.4,0.04 0.4,0.79 -0.07,0.44 -0.05,0.82 0.02,0.33 0.45,0.04 0.05,0.78 -0.19,0.02 -0.34,-0.06 -0.44,0.09zm-1.76 -2.54c0.08,0.54 -0.21,0.81 -0.73,0.71l-0.16 0.42c0.08,0.09 0.31,0.17 0.32,0.51 0,0.27 -0.15,0.42 -0.33,0.49l0.18 0.46c0.52,-0.1 0.81,0.19 0.71,0.71l0.43 0.18c0.14,-0.15 0.19,-0.32 0.51,-0.32 0.33,0 0.37,0.18 0.51,0.32l0.43 -0.18c-0.12,-0.54 0.21,-0.8 0.73,-0.7l0.17 -0.46c-0.44,-0.18 -0.44,-0.81 0,-0.97l-0.18 -0.46c-0.51,0.09 -0.82,-0.16 -0.72,-0.7l-0.43 -0.19c-0.3,0.41 -0.66,0.45 -0.96,0.07l-0.05 -0.06 -0.43 0.17z"/>
   <path class="fil7" d="M19.28 2.85c0.35,0.49 0.48,0.03 0.57,0 0.08,-0.03 0.46,0.12 0.49,0.19 0.05,0.15 -0.06,0.25 0.06,0.38 0.11,0.12 0.27,0.04 0.42,0.06 0.4,0.75 -0.04,0.46 -0.05,0.79 -0.02,0.35 0.47,0.06 0.04,0.81 -0.16,0.02 -0.31,-0.05 -0.42,0.07 -0.2,0.23 0.21,0.3 -0.27,0.5 -0.49,0.2 -0.23,-0.16 -0.57,-0.15 -0.32,0 -0.12,0.42 -0.69,0.1 -0.24,-0.14 -0.02,-0.25 -0.14,-0.44 -0.09,-0.14 -0.24,-0.06 -0.43,-0.08 -0.04,-0.08 -0.09,-0.19 -0.14,-0.3 -0.15,-0.4 0.26,-0.22 0.18,-0.57 -0.08,-0.31 -0.4,0.04 -0.05,-0.73 0.28,-0.04 0.5,0.11 0.47,-0.31 -0.01,-0.19 0.02,-0.17 0.18,-0.24 0.12,-0.04 0.21,-0.09 0.35,-0.08zm-0.67 -0.22c0.1,0.54 -0.19,0.8 -0.72,0.71l-0.16 0.42 0.1 0.09c0.33,0.25 0.28,0.74 -0.11,0.92l0.17 0.45c0.53,-0.1 0.83,0.18 0.72,0.71l0.43 0.18c0.14,-0.14 0.18,-0.32 0.51,-0.32 0.32,0 0.37,0.17 0.51,0.31l0.43 -0.17c-0.11,-0.52 0.21,-0.8 0.72,-0.7l0.18 -0.46c-0.44,-0.18 -0.44,-0.81 -0.01,-0.97l-0.17 -0.46c-0.53,0.1 -0.8,-0.17 -0.72,-0.7l-0.43 -0.19c-0.13,0.16 -0.2,0.32 -0.51,0.32 -0.31,0 -0.36,-0.16 -0.51,-0.31l-0.43 0.17z"/>
   <path class="fil7" d="M4.73 9.72c0.66,-0.45 0.5,0.04 0.8,0.03 0.4,0 -0.04,-0.42 0.8,-0.05 0.01,0.14 -0.06,0.31 0.06,0.42 0.1,0.1 0.23,0.03 0.38,0.06 0.09,0.11 0.2,0.34 0.19,0.53 -0.31,0.18 -0.3,0.34 -0.01,0.52 0.02,0.19 -0.09,0.42 -0.18,0.54 -0.16,0.03 -0.3,-0.05 -0.4,0.07 -0.1,0.12 -0.02,0.25 -0.05,0.4 -0.84,0.39 -0.39,-0.08 -0.82,-0.05 -0.31,0.02 -0.06,0.46 -0.77,0.04 -0.03,-0.16 0.03,-0.31 -0.08,-0.41 -0.11,-0.1 -0.23,-0.04 -0.36,-0.05 -0.09,-0.09 -0.21,-0.32 -0.2,-0.49 0.09,-0.12 0.22,-0.12 0.22,-0.31 0,-0.19 -0.12,-0.2 -0.22,-0.3 -0.01,-0.18 0.11,-0.41 0.19,-0.5 0.14,-0.02 0.28,0.04 0.38,-0.04 0.13,-0.1 0.05,-0.24 0.07,-0.41zm-0.15 -0.41c0.1,0.54 -0.17,0.82 -0.71,0.72l-0.18 0.43c0.16,0.13 0.33,0.19 0.33,0.51 -0.01,0.34 -0.18,0.37 -0.32,0.51l0.18 0.43c0.53,-0.15 0.79,0.23 0.7,0.72l0.45 0.17c0.23,-0.43 0.78,-0.44 0.98,0l0.45 -0.17c-0.1,-0.56 0.19,-0.79 0.72,-0.72l0.17 -0.43c-0.16,-0.15 -0.32,-0.2 -0.32,-0.51 0,-0.3 0.16,-0.36 0.32,-0.51l-0.18 -0.43c-0.52,0.13 -0.79,-0.23 -0.7,-0.73l-0.43 -0.16c-0.14,0.12 -0.15,0.32 -0.51,0.32 -0.29,0 -0.37,-0.15 -0.5,-0.31l-0.45 0.16z"/>
   <path class="fil7" d="M18.74 9.72c0.08,-0.05 0.19,-0.1 0.3,-0.14 0.41,-0.17 0.22,0.29 0.6,0.17 0.31,-0.11 -0.1,-0.37 0.7,-0.05 0.03,0.17 -0.06,0.31 0.06,0.43 0.13,0.12 0.23,0.01 0.37,0.05 0.09,0.05 0.06,0.04 0.14,0.24 0.07,0.14 0.07,0.13 0.06,0.29 -0.48,0.33 -0.03,0.47 0,0.57 0.01,0.16 -0.1,0.39 -0.18,0.49 -0.14,0.03 -0.28,-0.03 -0.38,0.06 -0.1,0.08 -0.06,0.18 -0.06,0.3 -0.01,0.17 -0.33,0.3 -0.52,0.28 -0.08,-0.08 -0.1,-0.18 -0.22,-0.21 -0.35,-0.09 -0.16,0.34 -0.58,0.17 -0.11,-0.04 -0.22,-0.09 -0.29,-0.14 -0.02,-0.22 0.04,-0.23 -0.06,-0.42 -0.17,-0.06 -0.2,-0.02 -0.39,-0.03 -0.08,-0.1 -0.19,-0.33 -0.19,-0.5 0.1,-0.11 0.23,-0.12 0.23,-0.31 -0.01,-0.19 -0.13,-0.18 -0.23,-0.3 0,-0.18 0.12,-0.41 0.21,-0.5 0.13,-0.01 0.25,0.05 0.36,-0.04 0.11,-0.1 0.05,-0.25 0.07,-0.41zm-0.14 -0.4c0.07,0.5 -0.16,0.87 -0.71,0.71l-0.18 0.43c0.14,0.15 0.32,0.17 0.32,0.51 0.01,0.33 -0.16,0.38 -0.31,0.51l0.17 0.44c0.53,-0.11 0.8,0.18 0.71,0.72l0.45 0.17c0.1,-0.25 0.52,-0.57 0.96,-0.06 0.03,0.04 0.02,0.03 0.05,0.05l0.42 -0.17c-0.1,-0.51 0.19,-0.81 0.7,-0.72l0.19 -0.43c-0.16,-0.14 -0.33,-0.2 -0.32,-0.51 0,-0.31 0.18,-0.34 0.32,-0.51l-0.17 -0.41c-0.55,0.05 -0.8,-0.16 -0.72,-0.74l-0.42 -0.16c-0.14,0.11 -0.14,0.32 -0.51,0.32 -0.27,0 -0.42,-0.15 -0.5,-0.32l-0.45 0.17z"/>
   <path class="fil8" d="M20.01 12.75c-0.44,-0.51 -0.86,-0.19 -0.96,0.06l-0.45 -0.17c0.09,-0.54 -0.18,-0.83 -0.71,-0.72l-0.17 -0.44c0.15,-0.13 0.32,-0.18 0.31,-0.51 0,-0.34 -0.18,-0.36 -0.32,-0.51l0.18 -0.43c0.55,0.16 0.78,-0.21 0.71,-0.71l0.45 -0.17c0.08,0.17 0.23,0.32 0.5,0.32 0.37,0 0.37,-0.21 0.51,-0.32l0.42 0.16c-0.08,0.58 0.17,0.79 0.72,0.74l0.17 0.41c-0.14,0.17 -0.32,0.2 -0.32,0.51 -0.01,0.31 0.16,0.37 0.32,0.51l-0.19 0.43c-0.51,-0.09 -0.8,0.21 -0.7,0.72l-0.42 0.17c-0.03,-0.02 -0.02,-0.01 -0.05,-0.05zm-2.5 -1.34c-0.01,0.18 0.07,0.29 0.14,0.45 0.06,0.17 0.09,0.27 0.29,0.25 0.22,-0.02 0.31,-0.03 0.42,0.12 0.15,0.19 0,0.26 0.05,0.49 0.11,0.12 0.51,0.31 0.73,0.28 0.13,-0.12 0.13,-0.32 0.41,-0.31 0.48,0.02 0.05,0.52 0.86,0.19 0.17,-0.07 0.29,-0.08 0.27,-0.3 -0.09,-0.7 0.38,-0.39 0.6,-0.48 0.12,-0.06 0.21,-0.35 0.26,-0.49 0.11,-0.31 -0.11,-0.28 -0.23,-0.44 -0.15,-0.2 -0.02,-0.4 0.12,-0.48 0.24,-0.15 0.14,-0.26 0.05,-0.49 -0.09,-0.21 -0.1,-0.39 -0.35,-0.36 -0.26,0.04 -0.45,-0.01 -0.47,-0.26 -0.03,-0.3 0.15,-0.34 -0.19,-0.48 -0.21,-0.08 -0.34,-0.18 -0.57,-0.13 -0.08,0.14 -0.15,0.35 -0.43,0.29 -0.32,-0.07 -0.16,-0.34 -0.46,-0.31 -0.06,0 -0.49,0.18 -0.54,0.23 -0.17,0.15 0.06,0.38 -0.13,0.58 -0.2,0.21 -0.43,-0.02 -0.59,0.13 -0.04,0.04 -0.23,0.47 -0.24,0.55 -0.03,0.27 0.27,0.21 0.31,0.47 0.06,0.3 -0.19,0.32 -0.31,0.5z"/>
   <path class="fil8" d="M20.06 6.1c-0.14,-0.14 -0.19,-0.31 -0.51,-0.31 -0.33,0 -0.37,0.18 -0.51,0.32l-0.43 -0.18c0.11,-0.53 -0.19,-0.81 -0.72,-0.71l-0.17 -0.45c0.39,-0.18 0.44,-0.67 0.11,-0.92l-0.1 -0.09 0.16 -0.42c0.53,0.09 0.82,-0.17 0.72,-0.71l0.43 -0.17c0.15,0.15 0.2,0.31 0.51,0.31 0.31,0 0.38,-0.16 0.51,-0.32l0.43 0.19c-0.08,0.53 0.19,0.8 0.72,0.7l0.17 0.46c-0.43,0.16 -0.43,0.79 0.01,0.97l-0.18 0.46c-0.51,-0.1 -0.83,0.18 -0.72,0.7l-0.43 0.17zm-2.53 -1.42c-0.03,0.21 0.17,0.62 0.27,0.73 0.1,0.05 0.7,-0.22 0.61,0.46 -0.04,0.34 0.68,0.45 0.73,0.43 0.14,-0.12 0.18,-0.31 0.41,-0.31 0.26,0 0.25,0.22 0.44,0.32 0,0 0.74,-0.08 0.7,-0.44 -0.03,-0.2 -0.01,-0.32 0.12,-0.41 0.35,-0.27 0.4,0.38 0.74,-0.55 0.13,-0.34 -0.14,-0.27 -0.24,-0.44 -0.15,-0.27 0.03,-0.39 0.17,-0.5 0.21,-0.16 0.06,-0.33 -0.03,-0.55 -0.14,-0.37 -0.1,-0.26 -0.45,-0.25 -0.22,0.01 -0.35,-0.15 -0.33,-0.38 0.04,-0.34 0.03,-0.29 -0.27,-0.42 -0.22,-0.09 -0.37,-0.21 -0.53,-0.01 -0.11,0.13 -0.23,0.3 -0.48,0.17 -0.2,-0.09 -0.11,-0.36 -0.42,-0.27 -0.1,0.03 -0.47,0.19 -0.51,0.24 -0.14,0.15 0.09,0.41 -0.12,0.59 -0.21,0.18 -0.47,-0.07 -0.61,0.14 -0.03,0.04 -0.21,0.48 -0.21,0.53 -0.01,0.24 0.27,0.2 0.31,0.44 0.07,0.33 -0.18,0.34 -0.3,0.48z"/>
   <path class="fil8" d="M6.01 12.8c-0.2,-0.44 -0.75,-0.43 -0.98,0l-0.45 -0.17c0.09,-0.49 -0.17,-0.87 -0.7,-0.72l-0.18 -0.43c0.14,-0.14 0.31,-0.17 0.32,-0.51 0,-0.32 -0.17,-0.38 -0.33,-0.51l0.18 -0.43c0.54,0.1 0.81,-0.18 0.71,-0.72l0.45 -0.16c0.13,0.16 0.21,0.31 0.5,0.31 0.36,0 0.37,-0.2 0.51,-0.32l0.43 0.16c-0.09,0.5 0.18,0.86 0.7,0.73l0.18 0.43c-0.16,0.15 -0.32,0.21 -0.32,0.51 0,0.31 0.16,0.36 0.32,0.51l-0.17 0.43c-0.53,-0.07 -0.82,0.16 -0.72,0.72l-0.45 0.17zm-2.49 -2.22c0.09,0.15 0.32,0.12 0.29,0.42 -0.04,0.46 -0.52,0.02 -0.18,0.86 0.22,0.53 0.47,0.01 0.72,0.36 0.13,0.19 0.01,0.27 0.04,0.48 0.1,0.12 0.5,0.33 0.73,0.29 0.11,-0.09 0.21,-0.45 0.56,-0.27 0.25,0.13 0.1,0.41 0.56,0.21 0.32,-0.13 0.45,-0.08 0.41,-0.44 -0.05,-0.38 0.17,-0.41 0.49,-0.38 0.24,0.02 0.28,-0.25 0.37,-0.48 0.17,-0.41 -0.17,-0.26 -0.26,-0.55 -0.11,-0.4 0.27,-0.36 0.3,-0.56 0.03,-0.11 -0.18,-0.6 -0.24,-0.65 -0.15,-0.12 -0.48,0.13 -0.63,-0.18 -0.16,-0.31 0.22,-0.43 -0.24,-0.6 -0.3,-0.12 -0.42,-0.28 -0.62,0 -0.18,0.25 -0.45,0.22 -0.59,-0.01 -0.16,-0.26 -0.36,-0.1 -0.63,0.01 -0.46,0.19 -0.05,0.32 -0.24,0.61 -0.19,0.3 -0.49,0.01 -0.64,0.2 -0.1,0.12 -0.26,0.53 -0.2,0.68z"/>
   <path class="fil8" d="M5.03 2.46l0.05 0.06c0.3,0.38 0.66,0.34 0.96,-0.07l0.43 0.19c-0.1,0.54 0.21,0.79 0.72,0.7l0.18 0.46c-0.44,0.16 -0.44,0.79 0,0.97l-0.17 0.46c-0.52,-0.1 -0.85,0.16 -0.73,0.7l-0.43 0.18c-0.14,-0.14 -0.18,-0.32 -0.51,-0.32 -0.32,0 -0.37,0.17 -0.51,0.32l-0.43 -0.18c0.1,-0.52 -0.19,-0.81 -0.71,-0.71l-0.18 -0.46c0.18,-0.07 0.33,-0.22 0.33,-0.49 -0.01,-0.34 -0.24,-0.42 -0.32,-0.51l0.16 -0.42c0.52,0.1 0.81,-0.17 0.73,-0.71l0.43 -0.17zm-1.52 2.22c-0.03,0.21 0.17,0.62 0.27,0.73 0.07,0.04 0.71,-0.19 0.62,0.43 -0.03,0.22 0.05,0.25 0.22,0.32 0.14,0.06 0.31,0.16 0.47,0.15 0.17,-0.1 0.29,-0.46 0.6,-0.27 0.28,0.16 0.07,0.4 0.59,0.19 0.6,-0.24 0.34,-0.22 0.37,-0.54 0.04,-0.43 0.56,-0.24 0.64,-0.28 0.09,-0.1 0.19,-0.33 0.25,-0.5 0.11,-0.32 -0.13,-0.28 -0.24,-0.44 -0.18,-0.26 0.03,-0.4 0.17,-0.51 0.19,-0.15 0.05,-0.34 -0.03,-0.55 -0.15,-0.35 -0.12,-0.25 -0.46,-0.24 -0.22,0.01 -0.35,-0.14 -0.33,-0.39 0.04,-0.33 0.03,-0.28 -0.27,-0.41 -0.21,-0.08 -0.39,-0.22 -0.52,-0.01 -0.08,0.11 -0.04,0.13 -0.19,0.19 -0.47,0.17 -0.35,-0.39 -0.72,-0.29 -0.98,0.28 -0.31,0.55 -0.63,0.83 -0.21,0.18 -0.47,-0.07 -0.61,0.14 -0.03,0.04 -0.2,0.48 -0.21,0.53 -0.01,0.24 0.27,0.2 0.31,0.44 0.07,0.33 -0.18,0.34 -0.3,0.48z"/>
   <path class="fil7" d="M19.33 10.26c0.95,-0.3 1.37,1.16 0.44,1.44 -0.96,0.29 -1.43,-1.13 -0.44,-1.44zm-0.45 -0.46c0.03,0.38 -0.13,0.57 -0.53,0.51l-0.11 0.33c0.27,0.1 0.27,0.39 0.17,0.55l-0.14 0.14c0,0 -0.01,0.01 -0.02,0.01l0.12 0.3c0.39,-0.08 0.56,0.14 0.5,0.52l0.31 0.11c0.09,-0.1 0.15,-0.21 0.34,-0.22 0.21,-0.01 0.3,0.1 0.35,0.22l0.33 -0.11c-0.08,-0.56 0.31,-0.52 0.52,-0.53l0.12 -0.28c-0.21,-0.23 -0.39,-0.33 -0.05,-0.7 0.03,-0.03 0.02,-0.01 0.04,-0.05l-0.11 -0.27c-0.43,-0.02 -0.55,-0.08 -0.52,-0.54l-0.32 -0.12c-0.05,0.14 -0.13,0.23 -0.33,0.23 -0.22,0.01 -0.27,-0.12 -0.37,-0.21l-0.3 0.11z"/>
   <path class="fil7" d="M5.3 10.25c1,-0.3 1.36,1.16 0.45,1.45 -0.97,0.3 -1.4,-1.16 -0.45,-1.45zm-0.44 -0.46c0.05,0.38 -0.11,0.59 -0.51,0.51l-0.12 0.3 0.15 0.14c0.04,0.05 0.07,0.14 0.07,0.23 0,0.08 -0.02,0.15 -0.06,0.21l-0.08 0.09c-0.01,0.01 -0.02,0.01 -0.02,0.02 -0.05,0.04 -0.03,0.01 -0.06,0.05l0.11 0.29c0.4,-0.06 0.55,0.15 0.52,0.52l0.3 0.12c0.1,-0.1 0.14,-0.22 0.34,-0.23 0.22,-0.01 0.31,0.09 0.36,0.23l0.32 -0.12c-0.04,-0.45 0.12,-0.52 0.53,-0.53l0.11 -0.28c-0.08,-0.11 -0.22,-0.15 -0.22,-0.37 0,-0.2 0.11,-0.26 0.22,-0.37l-0.11 -0.28c-0.4,0 -0.58,-0.1 -0.52,-0.54l-0.33 -0.11c-0.04,0.13 -0.13,0.23 -0.33,0.23 -0.21,0 -0.26,-0.13 -0.37,-0.22l-0.3 0.11z"/>
   <path class="fil7" d="M19.39 3.55c0.96,-0.24 1.3,1.25 0.33,1.47 -0.98,0.23 -1.32,-1.23 -0.33,-1.47zm-0.51 -0.43c0.1,0.38 -0.15,0.53 -0.51,0.5l-0.12 0.32c0.13,0.05 0.23,0.13 0.23,0.33 0,0.22 -0.11,0.27 -0.22,0.37l0.11 0.3c0.37,-0.03 0.61,0.12 0.51,0.51l0.3 0.13 0.06 -0.06c0.36,-0.39 0.6,-0.01 0.68,0.05l0.3 -0.12c-0.09,-0.38 0.14,-0.55 0.51,-0.5l0.12 -0.31c-0.11,-0.1 -0.22,-0.15 -0.23,-0.34 0,-0.21 0.11,-0.3 0.23,-0.35l-0.12 -0.33c-0.38,0.05 -0.58,-0.14 -0.51,-0.51l-0.3 -0.12c-0.12,0.1 -0.13,0.22 -0.37,0.22 -0.2,0 -0.27,-0.14 -0.37,-0.22l-0.3 0.13z"/>
   <path class="fil7" d="M5.37 3.55c0.94,-0.23 1.33,1.23 0.34,1.47 -0.98,0.23 -1.33,-1.23 -0.34,-1.47zm-0.5 -0.43c0.08,0.38 -0.15,0.54 -0.52,0.5l-0.12 0.32c0.13,0.05 0.23,0.13 0.23,0.33 0.01,0.22 -0.11,0.27 -0.22,0.37l0.12 0.3c0.35,-0.03 0.6,0.11 0.5,0.51l0.3 0.12c0.11,-0.08 0.13,-0.22 0.37,-0.22 0.21,0 0.28,0.13 0.38,0.22l0.29 -0.12c-0.1,-0.38 0.15,-0.55 0.52,-0.5l0.11 -0.31c-0.11,-0.09 -0.22,-0.14 -0.22,-0.34 -0.01,-0.21 0.09,-0.3 0.22,-0.35l-0.12 -0.33c-0.37,0.05 -0.58,-0.13 -0.51,-0.5l-0.29 -0.13c-0.13,0.09 -0.14,0.22 -0.38,0.22 -0.22,0 -0.25,-0.14 -0.37,-0.22l-0.29 0.13z"/>
   <path class="fil6" d="M12.1 8.54c0.07,0.13 0.03,0.46 0.03,0.64l1.06 0c0,-0.59 -0.08,-0.7 0.13,-0.71 0.1,-0.01 0.2,-0.02 0.22,0.05l0.02 0.68 0.19 0c0.03,-0.24 0.06,-0.98 -0.04,-1.12 -0.13,-0.09 -2.02,-0.08 -2.2,-0.01 -0.03,0.18 -0.04,0.93 -0.01,1.13l0.27 0 0 -0.66 0.33 0z"/>
   <path class="fil5" d="M12.42 5.91c0.91,-0.24 1.26,1.14 0.37,1.38 -0.42,0.12 -0.8,-0.17 -0.88,-0.49 -0.12,-0.45 0.18,-0.81 0.51,-0.89zm-0.05 -0.34c-1.41,0.34 -0.86,2.39 0.48,2.05 0.48,-0.12 0.92,-0.62 0.77,-1.25 -0.11,-0.49 -0.6,-0.95 -1.25,-0.8z"/>
   <path class="fil9" d="M9.97 11.07c0.3,-0.95 -1.19,-1.38 -1.44,-0.42 -0.26,0.98 1.15,1.34 1.44,0.42z"/>
   <path class="fil10" d="M15.13 11.04c0.15,0.93 1.66,0.77 1.48,-0.27 -0.16,-0.92 -1.64,-0.73 -1.48,0.27z"/>
   <path class="fil11" d="M13.2 12.43c0.13,-0.45 -0.21,-0.83 -0.53,-0.91 -0.47,-0.12 -0.85,0.19 -0.93,0.55 -0.22,0.96 1.19,1.32 1.46,0.36z"/>
   <path class="fil12" d="M12.45 2.23c-0.95,0.31 -0.47,1.72 0.45,1.42 0.95,-0.3 0.5,-1.74 -0.45,-1.42z"/>
   <path class="fil13" d="M15.8 3.69c-1.02,0.25 -0.6,1.68 0.35,1.45 0.35,-0.09 0.65,-0.47 0.54,-0.92 -0.09,-0.34 -0.43,-0.65 -0.89,-0.53z"/>
   <path class="fil14" d="M16.52 7.65c0.05,0.36 0.42,0.68 0.86,0.62 0.38,-0.06 0.7,-0.42 0.61,-0.88 -0.17,-0.94 -1.63,-0.74 -1.47,0.26z"/>
   <path class="fil15" d="M7.2 7.69c0.07,0.95 1.58,0.87 1.5,-0.14 -0.08,-0.95 -1.57,-0.88 -1.5,0.14z"/>
   <path class="fil16" d="M9.09 3.61c-0.97,0.33 -0.48,1.72 0.46,1.43 0.33,-0.11 0.61,-0.49 0.48,-0.93 -0.1,-0.33 -0.49,-0.65 -0.94,-0.5z"/>
   <path class="fil6" d="M12.42 5.91c-0.33,0.08 -0.63,0.44 -0.51,0.89 0.08,0.32 0.46,0.61 0.88,0.49 0.89,-0.24 0.54,-1.62 -0.37,-1.38z"/>
   <path class="fil8" d="M18.37 4.94l-0.11 -0.3c0.11,-0.1 0.22,-0.15 0.22,-0.37 0,-0.2 -0.1,-0.28 -0.23,-0.33l0.12 -0.32c0.36,0.03 0.61,-0.12 0.51,-0.5l0.3 -0.13c0.1,0.08 0.17,0.22 0.37,0.22 0.24,0 0.25,-0.12 0.37,-0.22l0.3 0.12c-0.07,0.37 0.13,0.56 0.51,0.51l0.12 0.33c-0.12,0.05 -0.23,0.14 -0.23,0.35 0.01,0.19 0.12,0.24 0.23,0.34l-0.12 0.31c-0.37,-0.05 -0.6,0.12 -0.51,0.5l-0.3 0.12c-0.08,-0.06 -0.32,-0.44 -0.68,-0.05l-0.06 0.06 -0.3 -0.13c0.1,-0.39 -0.14,-0.54 -0.51,-0.51zm2.02 0.21c0.11,-0.12 0.26,-0.05 0.42,-0.07 0.43,-0.75 -0.06,-0.46 -0.04,-0.81 0.01,-0.33 0.45,-0.04 0.05,-0.79 -0.15,-0.02 -0.31,0.06 -0.42,-0.06 -0.12,-0.13 -0.01,-0.23 -0.06,-0.38 -0.03,-0.07 -0.41,-0.22 -0.49,-0.19 -0.09,0.03 -0.22,0.49 -0.57,0 -0.14,-0.01 -0.23,0.04 -0.35,0.08 -0.16,0.07 -0.19,0.05 -0.18,0.24 0.03,0.42 -0.19,0.27 -0.47,0.31 -0.35,0.77 -0.03,0.42 0.05,0.73 0.08,0.35 -0.33,0.17 -0.18,0.57 0.05,0.11 0.1,0.22 0.14,0.3 0.19,0.02 0.34,-0.06 0.43,0.08 0.12,0.19 -0.1,0.3 0.14,0.44 0.57,0.32 0.37,-0.1 0.69,-0.1 0.34,-0.01 0.08,0.35 0.57,0.15 0.48,-0.2 0.07,-0.27 0.27,-0.5z"/>
   <path class="fil8" d="M4.36 4.94l-0.12 -0.3c0.11,-0.1 0.23,-0.15 0.22,-0.37 0,-0.2 -0.1,-0.28 -0.23,-0.33l0.12 -0.32c0.37,0.04 0.6,-0.12 0.52,-0.5l0.29 -0.13c0.12,0.08 0.15,0.22 0.37,0.22 0.24,0 0.25,-0.13 0.38,-0.22l0.29 0.13c-0.07,0.37 0.14,0.55 0.51,0.5l0.12 0.33c-0.13,0.05 -0.23,0.14 -0.22,0.35 0,0.2 0.11,0.25 0.22,0.34l-0.11 0.31c-0.37,-0.05 -0.62,0.12 -0.52,0.5l-0.29 0.12c-0.1,-0.09 -0.17,-0.22 -0.38,-0.22 -0.24,0 -0.26,0.14 -0.37,0.22l-0.3 -0.12c0.1,-0.4 -0.15,-0.54 -0.5,-0.51zm-0.1 -1.46c-0.38,0.79 0.04,0.42 0.06,0.79 0.01,0.34 -0.47,0.07 -0.05,0.81 0.17,0.02 0.32,-0.05 0.42,0.07 0.19,0.22 -0.19,0.3 0.27,0.5 0.49,0.21 0.24,-0.16 0.57,-0.15 0.32,0 0.12,0.42 0.69,0.1 0.25,-0.13 0.02,-0.24 0.14,-0.43 0.1,-0.15 0.25,-0.07 0.44,-0.09 0.4,-0.74 -0.03,-0.45 -0.05,-0.78 -0.02,-0.38 0.45,-0.03 0.05,-0.82 -0.13,-0.02 -0.29,0.05 -0.4,-0.04 -0.24,-0.21 0.19,-0.33 -0.29,-0.52 -0.49,-0.2 -0.24,0.11 -0.55,0.15 -0.18,0.01 -0.23,-0.13 -0.29,-0.22 -0.15,-0.01 -0.23,0.04 -0.36,0.08 -0.16,0.07 -0.19,0.05 -0.18,0.24 0.03,0.42 -0.18,0.27 -0.47,0.31z"/>
   <path class="fil8" d="M4.39 11.18c0.04,-0.06 0.06,-0.13 0.06,-0.21 0,-0.09 -0.03,-0.18 -0.07,-0.23l-0.15 -0.14 0.12 -0.3c0.4,0.08 0.56,-0.13 0.51,-0.51l0.3 -0.11c0.11,0.09 0.16,0.22 0.37,0.22 0.2,0 0.29,-0.1 0.33,-0.23l0.33 0.11c-0.06,0.44 0.12,0.54 0.52,0.54l0.11 0.28c-0.11,0.11 -0.22,0.17 -0.22,0.37 0,0.22 0.14,0.26 0.22,0.37l-0.11 0.28c-0.41,0.01 -0.57,0.08 -0.53,0.53l-0.32 0.12c-0.05,-0.14 -0.14,-0.24 -0.36,-0.23 -0.2,0.01 -0.24,0.13 -0.34,0.23l-0.3 -0.12c0.03,-0.37 -0.12,-0.58 -0.52,-0.52l-0.11 -0.29c0.03,-0.04 0.01,-0.01 0.06,-0.05 0,-0.01 0.01,-0.01 0.02,-0.02l0.08 -0.09zm0.34 -1.46c-0.02,0.17 0.06,0.31 -0.07,0.41 -0.1,0.08 -0.24,0.02 -0.38,0.04 -0.08,0.09 -0.2,0.32 -0.19,0.5 0.1,0.1 0.22,0.11 0.22,0.3 0,0.19 -0.13,0.19 -0.22,0.31 -0.01,0.17 0.11,0.4 0.2,0.49 0.13,0.01 0.25,-0.05 0.36,0.05 0.11,0.1 0.05,0.25 0.08,0.41 0.71,0.42 0.46,-0.02 0.77,-0.04 0.43,-0.03 -0.02,0.44 0.82,0.05 0.03,-0.15 -0.05,-0.28 0.05,-0.4 0.1,-0.12 0.24,-0.04 0.4,-0.07 0.09,-0.12 0.2,-0.35 0.18,-0.54 -0.29,-0.18 -0.3,-0.34 0.01,-0.52 0.01,-0.19 -0.1,-0.42 -0.19,-0.53 -0.15,-0.03 -0.28,0.04 -0.38,-0.06 -0.12,-0.11 -0.05,-0.28 -0.06,-0.42 -0.84,-0.37 -0.4,0.05 -0.8,0.05 -0.3,0.01 -0.14,-0.48 -0.8,-0.03z"/>
   <path class="fil8" d="M19.18 9.69c0.1,0.09 0.15,0.22 0.37,0.21 0.2,0 0.28,-0.09 0.33,-0.23l0.32 0.12c-0.03,0.46 0.09,0.52 0.52,0.54l0.11 0.27c-0.02,0.04 -0.01,0.02 -0.04,0.05 -0.34,0.37 -0.16,0.47 0.05,0.7l-0.12 0.28c-0.21,0.01 -0.6,-0.03 -0.52,0.53l-0.33 0.11c-0.05,-0.12 -0.14,-0.23 -0.35,-0.22 -0.19,0.01 -0.25,0.12 -0.34,0.22l-0.31 -0.11c0.06,-0.38 -0.11,-0.6 -0.5,-0.52l-0.12 -0.3c0.01,0 0.02,-0.01 0.02,-0.01l0.14 -0.14c0.1,-0.16 0.1,-0.45 -0.17,-0.55l0.11 -0.33c0.4,0.06 0.56,-0.13 0.53,-0.51l0.3 -0.11zm-0.44 0.03c-0.02,0.16 0.04,0.31 -0.07,0.41 -0.11,0.09 -0.23,0.03 -0.36,0.04 -0.09,0.09 -0.21,0.32 -0.21,0.5 0.1,0.12 0.22,0.11 0.23,0.3 0,0.19 -0.13,0.2 -0.23,0.31 0,0.17 0.11,0.4 0.19,0.5 0.19,0.01 0.22,-0.03 0.39,0.03 0.1,0.19 0.04,0.2 0.06,0.42 0.07,0.05 0.18,0.1 0.29,0.14 0.42,0.17 0.23,-0.26 0.58,-0.17 0.12,0.03 0.14,0.13 0.22,0.21 0.19,0.02 0.51,-0.11 0.52,-0.28 0,-0.12 -0.04,-0.22 0.06,-0.3 0.1,-0.09 0.24,-0.03 0.38,-0.06 0.08,-0.1 0.19,-0.33 0.18,-0.49 -0.03,-0.1 -0.48,-0.24 0,-0.57 0.01,-0.16 0.01,-0.15 -0.06,-0.29 -0.08,-0.2 -0.05,-0.19 -0.14,-0.24 -0.14,-0.04 -0.24,0.07 -0.37,-0.05 -0.12,-0.12 -0.03,-0.26 -0.06,-0.43 -0.8,-0.32 -0.39,-0.06 -0.7,0.05 -0.38,0.12 -0.19,-0.34 -0.6,-0.17 -0.11,0.04 -0.22,0.09 -0.3,0.14z"/>
   <path class="fil17" d="M5.53 3.72c-0.76,0 -0.73,1.13 0,1.13 0.73,0 0.77,-1.13 0,-1.13z"/>
   <path class="fil17" d="M18.98 11.07c0.13,0.7 1.19,0.59 1.12,-0.17 -0.07,-0.75 -1.25,-0.57 -1.12,0.17z"/>
   <path class="fil17" d="M4.96 11.04c0.09,0.7 1.19,0.63 1.12,-0.14 -0.06,-0.7 -1.21,-0.62 -1.12,0.14z"/>
   <path class="fil17" d="M19.55 3.72c-0.76,0 -0.73,1.12 0,1.13 0.73,0 0.73,-1.13 0,-1.13z"/>
   <path class="fil5" d="M19.55 3.72c0.73,0 0.73,1.13 0,1.13 -0.73,-0.01 -0.76,-1.13 0,-1.13zm-0.16 -0.17c-0.99,0.24 -0.65,1.7 0.33,1.47 0.97,-0.22 0.63,-1.71 -0.33,-1.47z"/>
   <path class="fil5" d="M4.96 11.04c-0.09,-0.76 1.06,-0.84 1.12,-0.14 0.07,0.77 -1.03,0.84 -1.12,0.14zm0.34 -0.79c-0.95,0.29 -0.52,1.75 0.45,1.45 0.91,-0.29 0.55,-1.75 -0.45,-1.45z"/>
   <path class="fil5" d="M5.53 3.72c0.77,0 0.73,1.13 0,1.13 -0.73,0 -0.76,-1.13 0,-1.13zm-0.16 -0.17c-0.99,0.24 -0.64,1.7 0.34,1.47 0.99,-0.24 0.6,-1.7 -0.34,-1.47z"/>
   <path class="fil5" d="M18.98 11.07c-0.13,-0.74 1.05,-0.92 1.12,-0.17 0.07,0.76 -0.99,0.87 -1.12,0.17zm0.35 -0.81c-0.99,0.31 -0.52,1.73 0.44,1.44 0.93,-0.28 0.51,-1.74 -0.44,-1.44z"/>
   <path class="fil6" d="M11.48 9.54c0.03,0.03 0.02,0.02 0.06,0.05 0.7,0.51 2.09,0.14 2.14,-0.03 0.01,-0.01 0.02,-0.01 0.02,-0.02l-2.22 0z"/>
   <path class="fil18" d="M12.1 8.54l0.01 0.67 1.11 -0.01 0 -0.7 0.32 0.02c-0.02,-0.07 -0.12,-0.06 -0.22,-0.05 -0.21,0.01 -0.13,0.12 -0.13,0.71l-1.06 0c0,-0.18 0.04,-0.51 -0.03,-0.64z"/>
   <polygon class="fil19" points="13,5.09 12.84,5.01 12.85,4.31 12.79,5.07 "/>
  </g>
 </g>
</svg>
