<?xml version="1.0" encoding="UTF-8"?>
<!DOCTYPE svg PUBLIC "-//W3C//DTD SVG 1.1//EN" "http://www.w3.org/Graphics/SVG/1.1/DTD/svg11.dtd">
<!-- Creator: CorelDRAW 2021 (64 Bit) -->
<svg xmlns="http://www.w3.org/2000/svg" xml:space="preserve" width="752px" height="752px" version="1.1" style="shape-rendering:geometricPrecision; text-rendering:geometricPrecision; image-rendering:optimizeQuality; fill-rule:evenodd; clip-rule:evenodd"
viewBox="0 0 25.14 25.12"
 xmlns:xlink="http://www.w3.org/1999/xlink"
 xmlns:xodm="http://www.corel.com/coreldraw/odm/2003">
 <defs>
  <style type="text/css">
   <![CDATA[
    .str0 {stroke:#B8B4B6;stroke-width:1.67;stroke-miterlimit:22.9256}
    .fil0 {fill:white}
    .fil1 {fill:black;fill-rule:nonzero}
   ]]>
  </style>
 </defs>
 <g id="Camada_x0020_1">
  <metadata id="CorelCorpID_0Corel-Layer"/>
  <path class="fil0 str0" d="M1.89 0.84l21.39 0c0.57,0 1.03,0.52 1.03,1.17l0 21.1c0,0.65 -0.46,1.17 -1.03,1.17l-21.39 0c-0.57,0 -1.03,-0.52 -1.03,-1.17 0,-2.54 -0.04,-20.44 -0.02,-21.35 0.01,-0.51 0.63,-0.92 1.05,-0.92z"/>
 </g>
 <g id="Camada_x0020_1_0">
  <metadata id="CorelCorpID_1Corel-Layer"/>
  <path class="fil1" d="M20.68 14.49c0,-0.54 -1.14,-2.57 -1.7,-3.53 0.06,-0.29 0.15,-0.92 0.15,-1.87 0,-1.65 -2.17,-5.79 -7.33,-5.79 -5.06,0 -7.33,3.83 -7.33,6.56 0,1.93 1.13,3.9 2.04,5.48 0.53,0.93 1.03,1.8 1.03,2.24 0,0.98 -1.59,2.93 -2.21,3.6 -0.1,0.11 -0.13,0.27 -0.06,0.41 0.06,0.15 0.19,0.23 0.34,0.23l8.5 0c0.22,0 0.37,-0.1 0.37,-0.31 0.15,-0.28 1.51,-1.02 2.78,-1.22 0.96,-0.16 2.25,-0.38 2.25,-1.56 0,-0.5 -0.17,-0.76 -0.28,-0.93 -0.09,-0.12 -0.1,-0.15 -0.15,-0.22 0.22,0.03 0.4,-0.13 0.43,-0.34 0.02,-0.07 0,-0.16 -0.04,-0.23l0.32 -0.32c0.1,-0.1 0.14,-0.26 0.1,-0.39l-0.26 -0.77c0.44,-0.16 1.05,-0.48 1.05,-1.04l0 0z"/>
 </g>
</svg>
