<?xml version="1.0" encoding="UTF-8"?>
<!DOCTYPE svg PUBLIC "-//W3C//DTD SVG 1.1//EN" "http://www.w3.org/Graphics/SVG/1.1/DTD/svg11.dtd">
<!-- Creator: CorelDRAW 2021 (64 Bit) -->
<svg xmlns="http://www.w3.org/2000/svg" xml:space="preserve" width="752px" height="752px" version="1.1" style="shape-rendering:geometricPrecision; text-rendering:geometricPrecision; image-rendering:optimizeQuality; fill-rule:evenodd; clip-rule:evenodd"
viewBox="0 0 25.47 25.45"
 xmlns:xlink="http://www.w3.org/1999/xlink"
 xmlns:xodm="http://www.corel.com/coreldraw/odm/2003">
 <defs>
  <style type="text/css">
   <![CDATA[
    .str2 {stroke:#AEA19E;stroke-width:0.54;stroke-miterlimit:22.9256;stroke-opacity:0.949020}
    .str0 {stroke:#B8B4B6;stroke-width:1.69;stroke-miterlimit:22.9256}
    .str1 {stroke:white;stroke-width:0.07;stroke-miterlimit:22.9256}
    .str3 {stroke:black;stroke-width:0.41;stroke-miterlimit:22.9256}
    .fil4 {fill:none}
    .fil1 {fill:#E6E7E8}
    .fil7 {fill:black}
    .fil5 {fill:#373435}
    .fil6 {fill:red}
    .fil0 {fill:snow}
    .fil2 {fill:#333333;fill-rule:nonzero}
    .fil3 {fill:#FEFEFE;fill-rule:nonzero;fill-opacity:0.949020}
   ]]>
  </style>
 </defs>
 <g id="Camada_x0020_1">
  <metadata id="CorelCorpID_0Corel-Layer"/>
  <path class="fil0 str0" d="M1.91 0.85l21.67 0c0.58,0 1.05,0.53 1.05,1.19l0 21.37c0,0.66 -0.47,1.19 -1.05,1.19l-21.67 0c-0.57,0 -1.04,-0.53 -1.04,-1.19 0,-2.57 -0.04,-20.7 -0.02,-21.63 0.01,-0.52 0.63,-0.93 1.06,-0.93z"/>
  <g id="_2201384100064">
   <rect class="fil1 str1" x="4.04" y="14.61" width="3.17" height="7.3"/>
   <path class="fil2" d="M12.48 22.38c-0.61,0 -1.21,-0.22 -1.79,-0.44 -0.65,-0.24 -1.31,-0.49 -1.97,-0.43l-1.62 0.15 0 -6.29 0.88 -0.08c0.55,-0.05 1.01,0.16 1.46,0.37 0.42,0.19 0.81,0.38 1.26,0.34l2.91 -0.53c1.04,-0.17 1.61,0.43 1.96,0.98l3.17 -1.48c1.2,-0.54 2.54,0 3.35,1.34 0.21,0.35 0.09,0.82 -0.26,1.04 -0.41,0.26 -0.82,0.52 -1.23,0.77 -3.54,2.22 -6.6,4.14 -7.91,4.25 -0.07,0.01 -0.14,0.01 -0.21,0.01zm-3.55 -1.31c0.66,0 1.29,0.23 1.91,0.46 0.63,0.24 1.23,0.46 1.81,0.41 1.21,-0.11 4.37,-2.09 7.72,-4.19 0.41,-0.25 0.82,-0.51 1.23,-0.77 0.15,-0.09 0.21,-0.29 0.12,-0.44 -0.69,-1.14 -1.81,-1.61 -2.8,-1.17l-3.52 1.64c-0.01,-0.23 -0.19,-0.5 -0.28,-0.61 -0.33,-0.39 -0.96,-0.58 -1.44,-0.5l-2.92 0.53c-0.59,0.05 -1.05,-0.17 -1.51,-0.38 -0.41,-0.19 -0.79,-0.37 -1.23,-0.33l-0.48 0.04 0 5.42 1.14 -0.1c0.09,-0.01 0.17,-0.01 0.25,-0.01z"/>
   <path class="fil3 str2" d="M6.8 22.38l-2.48 0c-0.41,0 -0.74,-0.33 -0.74,-0.74l0 -6.67c0,-0.41 0.33,-0.74 0.74,-0.74l2.48 0c0.41,0 0.74,0.33 0.74,0.74l0 6.67c0,0.41 -0.33,0.74 -0.74,0.74zm-2.48 -7.71c-0.17,0 -0.31,0.13 -0.31,0.3l0 6.67c0,0.17 0.14,0.31 0.31,0.31l2.48 0c0.17,0 0.3,-0.14 0.3,-0.31l0 -6.67c0,-0.17 -0.13,-0.3 -0.3,-0.3l-2.48 0z"/>
   <path class="fil4 str3" d="M15.57 16.9c0.05,0.1 0.05,0.28 -0.07,0.47 -0.19,0.3 -0.62,0.53 -1.66,0.41 -0.77,-0.09 -1.7,0.09 -2.51,0.17"/>
  </g>
 </g>
 <g id="Camada_x0020_1_0">
  <metadata id="CorelCorpID_1Corel-Layer"/>
  <g id="_2201384103232">
   <path class="fil5" d="M10.01 3.44c0.11,-0.09 1.3,-0.58 1.47,-0.61 0.2,0.56 0.81,1.07 1.62,1.06 1.12,-0.02 1.35,-0.77 1.6,-1.06 0.15,0.04 1.37,0.55 1.44,0.61 -0.24,0.84 -0.11,1.38 0.4,1.88 0.2,0.2 0.45,0.38 0.82,0.47 0.46,0.11 0.66,0.01 1.07,-0.09l0.6 1.47c-1.6,0.65 -1.22,2.84 0.02,3.2l-0.63 1.46c-0.44,-0.09 -0.64,-0.2 -1.14,-0.05 -0.31,0.09 -0.62,0.3 -0.78,0.47 -0.15,0.17 -0.36,0.5 -0.43,0.82 -0.11,0.47 -0.01,0.66 0.08,1.06l-1.45 0.59c-0.11,-0.16 -0.15,-0.28 -0.27,-0.43 -0.66,-0.84 -2.12,-0.83 -2.74,0.06 -0.07,0.11 -0.17,0.31 -0.24,0.38l-1.44 -0.59c0.23,-0.86 0.12,-1.4 -0.39,-1.9 -0.19,-0.19 -0.45,-0.38 -0.79,-0.46 -0.49,-0.13 -0.69,-0.03 -1.11,0.07l-0.59 -1.44c0.19,-0.19 1.06,-0.48 1.06,-1.62 0,-0.41 -0.13,-0.77 -0.33,-1.03 -0.12,-0.16 -0.19,-0.23 -0.33,-0.34 -0.14,-0.11 -0.28,-0.16 -0.41,-0.26l0.6 -1.45c1.14,0.33 2.09,-0.18 2.36,-1.17 0.12,-0.45 0.03,-0.7 -0.07,-1.1zm1.32 -1.26c-0.4,0.1 -1.01,0.4 -1.42,0.57 -0.26,0.11 -0.44,0.19 -0.53,0.45 -0.13,0.35 0.09,0.53 0.09,0.88 0.01,0.56 -0.42,1.01 -0.9,1.09 -0.43,0.07 -0.57,-0.13 -0.88,-0.12 -0.32,0.01 -0.49,0.2 -0.59,0.44 -0.2,0.47 -0.38,0.92 -0.57,1.39 -0.32,0.78 0.53,0.93 0.72,1.16 0.36,0.4 0.37,1.01 0.03,1.45 -0.23,0.29 -1.04,0.4 -0.77,1.15 0.16,0.45 0.39,0.95 0.58,1.39 0.36,0.84 0.91,0.33 1.37,0.35 0.52,0.03 0.96,0.45 1.01,0.95 0.05,0.4 -0.13,0.54 -0.12,0.84 0.02,0.32 0.2,0.48 0.43,0.58 0.45,0.2 0.93,0.39 1.39,0.57 0.27,0.11 0.58,0.06 0.76,-0.09 0.12,-0.1 0.22,-0.44 0.4,-0.61 0.38,-0.36 1.06,-0.41 1.47,-0.03 0.27,0.25 0.44,1.02 1.15,0.75 0.46,-0.17 0.93,-0.38 1.39,-0.58 0.81,-0.34 0.32,-0.94 0.34,-1.37 0.04,-0.53 0.46,-0.96 0.96,-1.01 0.45,-0.05 1.08,0.45 1.42,-0.32 0.2,-0.45 0.39,-0.92 0.57,-1.39 0.3,-0.77 -0.52,-0.94 -0.71,-1.13 -0.35,-0.37 -0.39,-0.98 -0.07,-1.44 0.24,-0.35 1.04,-0.41 0.81,-1.16l-0.58 -1.39c-0.36,-0.86 -0.9,-0.37 -1.34,-0.38 -0.55,0 -0.98,-0.42 -1.05,-0.91 -0.08,-0.49 0.45,-1.11 -0.29,-1.44 -0.45,-0.21 -0.93,-0.39 -1.39,-0.58 -0.81,-0.33 -0.95,0.45 -1.16,0.66 -0.48,0.49 -1.28,0.43 -1.67,-0.13 -0.12,-0.16 -0.28,-0.72 -0.85,-0.59z"/>
   <path class="fil6" d="M10.55 9.13c0.2,1.27 1.34,2.38 2.87,2.17 1.27,-0.18 2.39,-1.36 2.18,-2.88 -0.17,-1.27 -1.36,-2.37 -2.87,-2.17 -1.25,0.18 -2.4,1.37 -2.18,2.88z"/>
   <path class="fil7" d="M10.55 9.13c-0.22,-1.51 0.93,-2.7 2.18,-2.88 1.51,-0.2 2.7,0.9 2.87,2.17 0.21,1.52 -0.91,2.7 -2.18,2.88 -1.53,0.21 -2.67,-0.9 -2.87,-2.17zm2.19 -3.81c-1.95,0.21 -3.32,1.91 -3.12,3.83 0.19,1.79 1.8,3.31 3.85,3.08 1.77,-0.2 3.28,-1.79 3.06,-3.82 -0.19,-1.78 -1.76,-3.3 -3.79,-3.09z"/>
  </g>
 </g>
</svg>
