<?xml version="1.0" encoding="UTF-8"?>
<!DOCTYPE svg PUBLIC "-//W3C//DTD SVG 1.1//EN" "http://www.w3.org/Graphics/SVG/1.1/DTD/svg11.dtd">
<!-- Creator: CorelDRAW 2021 (64 Bit) -->
<svg xmlns="http://www.w3.org/2000/svg" xml:space="preserve" width="752px" height="752px" version="1.1" style="shape-rendering:geometricPrecision; text-rendering:geometricPrecision; image-rendering:optimizeQuality; fill-rule:evenodd; clip-rule:evenodd"
viewBox="0 0 33.16 33.13"
 xmlns:xlink="http://www.w3.org/1999/xlink"
 xmlns:xodm="http://www.corel.com/coreldraw/odm/2003">
 <defs>
  <style type="text/css">
   <![CDATA[
    .str2 {stroke:#AEA19E;stroke-width:0.71;stroke-miterlimit:22.9256;stroke-opacity:0.949020}
    .str6 {stroke:#0D00FF;stroke-width:0.88;stroke-miterlimit:22.9256}
    .str0 {stroke:#B8B4B6;stroke-width:2.2;stroke-miterlimit:22.9256}
    .str5 {stroke:#00FF32;stroke-width:0.22;stroke-miterlimit:22.9256}
    .str1 {stroke:white;stroke-width:0.09;stroke-miterlimit:22.9256}
    .str3 {stroke:black;stroke-width:0.53;stroke-miterlimit:22.9256}
    .str4 {stroke:#373435;stroke-width:0.04;stroke-miterlimit:22.9256}
    .fil4 {fill:none}
    .fil1 {fill:#E6E7E8}
    .fil5 {fill:#373435}
    .fil6 {fill:#00FF32}
    .fil0 {fill:snow}
    .fil2 {fill:#333333;fill-rule:nonzero}
    .fil3 {fill:#FEFEFE;fill-rule:nonzero;fill-opacity:0.949020}
   ]]>
  </style>
 </defs>
 <g id="Camada_x0020_1">
  <metadata id="CorelCorpID_0Corel-Layer"/>
  <g id="_2202001135056">
   <path class="fil0 str0" d="M2.49 1.1l28.21 0c0.75,0 1.36,0.7 1.36,1.55l0 27.83c0,0.85 -0.61,1.55 -1.36,1.55l-28.21 0c-0.75,0 -1.36,-0.7 -1.36,-1.55 0,-3.35 -0.04,-26.95 -0.02,-28.17 0.01,-0.66 0.82,-1.21 1.38,-1.21z"/>
   <g>
    <rect class="fil1 str1" x="5.26" y="19.02" width="4.13" height="9.51"/>
    <path class="fil2" d="M16.25 29.14c-0.79,0 -1.58,-0.29 -2.34,-0.58 -0.83,-0.31 -1.7,-0.63 -2.55,-0.55l-2.11 0.18 0 -8.19 1.14 -0.1c0.72,-0.06 1.32,0.22 1.9,0.49 0.54,0.25 1.05,0.49 1.64,0.44l3.79 -0.69c1.35,-0.23 2.1,0.55 2.55,1.27l4.13 -1.92c1.56,-0.7 3.31,0 4.36,1.75 0.27,0.45 0.12,1.06 -0.35,1.35 -0.53,0.34 -1.06,0.67 -1.59,1 -4.61,2.89 -8.6,5.39 -10.3,5.53 -0.09,0.01 -0.18,0.02 -0.27,0.02zm-4.63 -1.71c0.87,0 1.69,0.31 2.49,0.6 0.82,0.31 1.6,0.6 2.36,0.53 1.57,-0.14 5.69,-2.72 10.05,-5.45 0.53,-0.33 1.06,-0.67 1.6,-1 0.2,-0.13 0.27,-0.39 0.15,-0.58 -0.89,-1.49 -2.36,-2.1 -3.64,-1.52l-4.59 2.13c-0.01,-0.3 -0.23,-0.64 -0.36,-0.79 -0.42,-0.51 -1.25,-0.76 -1.87,-0.65l-3.8 0.69c-0.77,0.06 -1.38,-0.22 -1.96,-0.49 -0.54,-0.25 -1.04,-0.48 -1.61,-0.43l-0.63 0.05 0 7.06 1.5 -0.14c0.1,-0.01 0.21,-0.01 0.31,-0.01z"/>
    <path class="fil3 str2" d="M8.85 29.14l-3.23 0c-0.53,0 -0.96,-0.43 -0.96,-0.96l0 -8.69c0,-0.53 0.43,-0.96 0.96,-0.96l3.23 0c0.53,0 0.96,0.43 0.96,0.96l0 8.69c0,0.53 -0.43,0.96 -0.96,0.96zm-3.23 -10.05c-0.22,0 -0.4,0.18 -0.4,0.4l0 8.69c0,0.21 0.18,0.39 0.4,0.39l3.23 0c0.22,0 0.4,-0.18 0.4,-0.39l0 -8.69c0,-0.22 -0.18,-0.4 -0.4,-0.4l-3.23 0z"/>
    <path class="fil4 str3" d="M20.26 22c0.07,0.13 0.08,0.36 -0.08,0.61 -0.24,0.39 -0.8,0.7 -2.16,0.54 -1.01,-0.12 -2.22,0.11 -3.26,0.22"/>
   </g>
   <g>
    <g>
     <g>
      <path class="fil5 str4" d="M7.39 13.65c0.46,-0.48 0.68,-0.6 1.36,-0.86 1.07,-0.41 3.23,-0.96 3.78,0.28 0.09,0.21 0.09,0.47 0.12,0.74 0.58,-0.3 1.38,-0.94 2.08,-0.83 0.46,0.07 0.8,0.4 0.83,0.78 0,0.07 -0.04,0.66 -0.08,0.86 0.36,0 1.04,-0.2 1.22,-0.29 0.74,-0.36 1.41,-1.13 2.48,-1.12 0.33,0.01 0.27,0.02 0.55,0.17 -0.43,0.23 -0.07,0.05 -0.45,0.21 -0.7,0.29 -1.03,0.77 -1.52,1.23 -0.58,0.54 -1.78,1.12 -2.72,1 -0.66,-0.08 -0.95,-0.39 -1.1,-0.77 -0.54,0.34 -1.14,0.62 -1.75,0.62 -0.97,0.01 -1.44,-0.61 -1.68,-1.29 -0.32,0.1 -0.65,0.24 -0.89,0.4 -0.01,0 -0.01,0.01 -0.02,0.01 0,0 0.01,0 0.01,-0.01 -0.02,0.01 -0.04,0.03 -0.06,0.04 0.02,0 0.03,-0.01 0.04,-0.01 -0.39,0.41 -1.1,0.54 -1.68,0.29 -0.63,-0.29 -0.86,-0.93 -0.52,-1.45zm4.9 0.3c-0.03,0 -0.06,0.01 -0.1,0.01 0.03,0 0.07,0 0.1,-0.01zm3.12 0.67c-0.03,-0.01 -0.06,-0.02 -0.09,-0.02 0.02,0.01 0.05,0.02 0.09,0.02zm-5.12 -1.05c0,-0.02 0,-0.03 0,-0.05 0,0.02 0,0.04 0,0.05zm-0.7 1.24c0,0 0.01,-0.01 0.01,-0.02 0,0.01 -0.01,0.01 -0.01,0.02z"/>
     </g>
     <path class="fil4" d="M8.55 14.16c0.27,-0.4 2.84,-1.28 2.9,-0.72 0.2,1.91 0.96,1.6 2.76,0.41 1.33,-0.88 -1.01,2.44 2.57,1.02 0.78,-0.31 1.54,-1.59 2.95,-1.49"/>
    </g>
    <g>
     <rect class="fil6 str5" transform="matrix(0.719585 0.668102 -0.668102 0.719585 26.5042 3.99181)" width="1.16" height="8.33"/>
     <g>
      <polyline class="fil4 str6" points="19.91,12.78 21.67,10.6 22.45,10.66 26.84,5.96 27.61,4.53 26.7,4.01 25.07,4.99 20.68,9.86 21.67,10.6 "/>
      <polyline class="fil4 str6" points="21.18,10.23 20.41,11.14 19.27,12.5 19.15,13.08 19.91,12.78 "/>
     </g>
    </g>
   </g>
  </g>
 </g>
</svg>
