<?xml version="1.0" encoding="UTF-8"?>
<!DOCTYPE svg PUBLIC "-//W3C//DTD SVG 1.1//EN" "http://www.w3.org/Graphics/SVG/1.1/DTD/svg11.dtd">
<!-- Creator: CorelDRAW 2021 (64 Bit) -->
<svg xmlns="http://www.w3.org/2000/svg" xml:space="preserve" width="541px" height="541px" version="1.1" style="shape-rendering:geometricPrecision; text-rendering:geometricPrecision; image-rendering:optimizeQuality; fill-rule:evenodd; clip-rule:evenodd"
viewBox="0 0 469.55 469.55"
 xmlns:xlink="http://www.w3.org/1999/xlink"
 xmlns:xodm="http://www.corel.com/coreldraw/odm/2003">
 <defs>
  <style type="text/css">
   <![CDATA[
    .fil2 {fill:black}
    .fil4 {fill:#00FA46}
    .fil3 {fill:#282829}
    .fil5 {fill:#888889}
    .fil1 {fill:#B8B4B6}
    .fil0 {fill:white}
   ]]>
  </style>
 </defs>
 <g id="Camada_x0020_1">
  <metadata id="CorelCorpID_0Corel-Layer"/>
  <g id="_1785513514000">
   <path class="fil0" d="M281.01 183.17l-7.07 -31.85 138.38 50.81c-1.11,1.14 -1.09,1.17 -2.95,2.45l-107.2 70.26 -7.56 -32.13c-10.72,-1.16 -49.23,4.68 -60.16,7.4 -19.99,4.97 -38.14,14.9 -50.93,26.3 -1.72,1.54 -2.72,2.81 -4.37,4.28 -9.19,8.21 -16.96,17.81 -24.65,27.45l-30.72 38.01c-0.11,0.1 -0.33,0.31 -0.49,0.46 2.63,-9.24 17.33,-46.83 21.79,-58.32 16.29,-41.93 29.64,-67.51 73.88,-86.68 29.93,-12.97 33.03,-11.34 62.05,-18.44zm64.12 180.88c-0.57,-6.84 -0.95,-51.53 0.81,-55.43 6.15,-0.64 13.99,-0.15 20.36,-0.22 7.15,-0.08 5.82,-1.95 5.82,14.47 0,7.46 1.38,37.25 -0.76,41.56 0.94,20.14 -13.43,36.98 -24.42,44.13 -15.61,10.18 -40.82,7.05 -61.39,7.05 -45.71,0 -91.42,0 -137.13,0 -19.56,0 -47.38,2.87 -62.19,-6.26 -12.79,-7.88 -23.84,-21.37 -25.87,-42.69 -1.54,-16.22 -0.28,-111.14 -0.28,-135.79 0,-22.63 -1.73,-120.66 1.72,-135.2 2.44,-10.25 6.89,-16.7 11.51,-23.26 16.18,-22.9 56.4,-17.01 85.52,-17.01 45.71,0 91.42,0 137.13,0 26.23,0 39.6,-2.92 57.08,11.63 12.58,10.47 18.73,26.45 18.73,49.58l-26.03 -0.43c0,-14.21 -3.75,-32.91 -21.13,-34.62 -15.51,-1.52 -39.16,-0.12 -55.55,-0.12 -13.46,0 -159.76,-1.12 -165.86,0.91 -14.5,4.81 -17.09,19.99 -17.09,38.29l0 221.32c0,19.52 -1.37,33.91 11.52,43.83 8.4,6.46 38.47,3.79 51.65,3.79l166.65 0c9.82,0.02 16.37,-1.03 21.42,-6.23 3.4,-3.5 8.05,-11.91 7.78,-19.3zm-309.97 -275.52l0.45 338.49c0,2.68 -0.31,7.46 2.58,7.46l394.46 -0.02c1.16,-1.92 1.75,-3.54 1.75,-6.57l-0.86 -392.59 -391.88 -0.07c-8.95,0 -6.5,0.08 -6.5,23.79 0,9.84 0,19.67 0,29.51z"/>
   <path class="fil1" d="M35.16 88.53c0,-9.84 0,-19.67 0,-29.51 0,-23.71 -2.45,-23.79 6.5,-23.79l391.88 0.07 0.86 392.59c0,3.03 -0.59,4.65 -1.75,6.57l-394.46 0.02c-2.89,0 -2.58,-4.78 -2.58,-7.46l-0.45 -338.49zm-35.16 -49.47l0 193.54c0,31.37 0.87,60.38 0.87,91.14 0,30.37 0,60.75 0,91.13 0,18.4 -0.91,27.61 7.16,38.83 6.15,8.55 15.81,15.85 30.16,15.85l394.04 0c21.78,0 37.32,-18.79 37.32,-40.79l0 -388.84c0,-23.08 -16.88,-39.92 -39.93,-39.92l-390.56 0c-21.28,0 -39.06,15.67 -39.06,39.06z"/>
   <path class="fil2" d="M371.36 364.43l-0.07 -55.3 -25.29 0.13c0,6.99 1.13,52.63 -0.87,54.79 0.27,7.39 -4.38,15.8 -7.78,19.3 -5.05,5.2 -11.6,6.25 -21.42,6.23l-166.65 0c-13.18,0 -43.25,2.67 -51.65,-3.79 -12.89,-9.92 -11.52,-24.31 -11.52,-43.83l0 -221.32c0,-18.3 2.59,-33.48 17.09,-38.29 6.1,-2.03 152.4,-0.91 165.86,-0.91 16.39,0 40.04,-1.4 55.55,0.12 17.38,1.71 21.13,20.41 21.13,34.62l26.03 0.43c0,-23.13 -6.15,-39.11 -18.73,-49.58 -17.48,-14.55 -30.85,-11.63 -57.08,-11.63 -45.71,0 -91.42,0 -137.13,0 -29.12,0 -69.34,-5.89 -85.52,17.01 -4.62,6.56 -9.07,13.01 -11.51,23.26 -3.45,14.54 -1.72,112.57 -1.72,135.2 0,24.65 -1.26,119.57 0.28,135.79 2.03,21.32 13.08,34.81 25.87,42.69 14.81,9.13 42.63,6.26 62.19,6.26 45.71,0 91.42,0 137.13,0 20.57,0 45.78,3.13 61.39,-7.05 10.99,-7.15 25.36,-23.99 24.42,-44.13z"/>
   <path class="fil3" d="M181.43 255.69l-4.03 3.34c0.56,-2.44 1.16,-3.39 3.01,-5.29 6.71,-14.62 29.85,-28.32 43.96,-35.46 9.42,-4.76 49.55,-18.91 60.8,-17.47l5.17 24.44c-30.19,3.71 -59.24,3.84 -86.84,17.33 -12.01,5.87 -15.76,9.83 -22.07,13.11zm131.87 -9.06l-15.14 -68.18 75.93 28.02c-2.46,2.44 -53.16,36.35 -60.79,40.16zm-32.29 -63.46c-29.02,7.1 -32.12,5.47 -62.05,18.44 -44.24,19.17 -57.59,44.75 -73.88,86.68 -4.46,11.49 -19.16,49.08 -21.79,58.32 0.16,-0.15 0.38,-0.36 0.49,-0.46l30.72 -38.01c7.69,-9.64 15.46,-19.24 24.65,-27.45 1.65,-1.47 2.65,-2.74 4.37,-4.28 12.79,-11.4 30.94,-21.33 50.93,-26.3 10.93,-2.72 49.44,-8.56 60.16,-7.4l7.56 32.13 107.2 -70.26c1.86,-1.28 1.84,-1.31 2.95,-2.45l-138.38 -50.81 7.07 31.85z"/>
   <path class="fil4" d="M313.3 246.63c7.63,-3.81 58.33,-37.72 60.79,-40.16l-75.93 -28.02 15.14 68.18z"/>
   <path class="fil4" d="M180.41 253.74l1.02 1.95c6.31,-3.28 10.06,-7.24 22.07,-13.11 27.6,-13.49 56.65,-13.62 86.84,-17.33l-5.17 -24.44c-11.25,-1.44 -51.38,12.71 -60.8,17.47 -14.11,7.14 -37.25,20.84 -43.96,35.46z"/>
   <path class="fil5" d="M345.13 364.05c2,-2.16 0.87,-47.8 0.87,-54.79l25.29 -0.13 0.07 55.3c2.14,-4.31 0.76,-34.1 0.76,-41.56 0,-16.42 1.33,-14.55 -5.82,-14.47 -6.37,0.07 -14.21,-0.42 -20.36,0.22 -1.76,3.9 -1.38,48.59 -0.81,55.43z"/>
   <path class="fil0" d="M181.43 255.69l-1.02 -1.95c-1.85,1.9 -2.45,2.85 -3.01,5.29l4.03 -3.34z"/>
  </g>
 </g>
</svg>
