<?xml version="1.0" encoding="UTF-8"?>
<!DOCTYPE svg PUBLIC "-//W3C//DTD SVG 1.1//EN" "http://www.w3.org/Graphics/SVG/1.1/DTD/svg11.dtd">
<!-- Creator: CorelDRAW 2021 (64 Bit) -->
<svg xmlns="http://www.w3.org/2000/svg" xml:space="preserve" width="140.547mm" height="140.547mm" version="1.1" style="shape-rendering:geometricPrecision; text-rendering:geometricPrecision; image-rendering:optimizeQuality; fill-rule:evenodd; clip-rule:evenodd"
viewBox="0 0 3192 3192"
 xmlns:xlink="http://www.w3.org/1999/xlink"
 xmlns:xodm="http://www.corel.com/coreldraw/odm/2003">
 <defs>
  <style type="text/css">
   <![CDATA[
    .str0 {stroke:#C2C0C0;stroke-width:115.37;stroke-miterlimit:22.9256}
    .str1 {stroke:#FA0505;stroke-width:115.37;stroke-linejoin:round;stroke-miterlimit:22.9256}
    .fil1 {fill:none}
    .fil0 {fill:white}
    .fil2 {fill:black;fill-rule:nonzero}
   ]]>
  </style>
 </defs>
 <g id="Camada_x0020_1">
  <metadata id="CorelCorpID_0Corel-Layer"/>
  <circle class="fil0 str0" cx="1596" cy="1596" r="1538.31"/>
  <polygon class="fil1 str1" points="817.11,1584.74 834.63,2609.53 2337.9,2609.53 2337.9,1605.01 2682.56,1605.01 2193.8,999.14 2193.8,494.63 1921.19,494.63 1921.19,683.82 1576.53,327.97 472.45,1584.74 "/>
  <path class="fil2" d="M1515.83 1990.87c-0.6,-24.44 -0.91,-42.94 -0.91,-55.16 0,-72.27 8.75,-134.41 26.56,-186.77 12.98,-39.8 33.8,-79.6 62.78,-119.74 21.13,-29.32 59.46,-71.92 114.39,-128.12 55.23,-56.21 90.85,-100.89 107.45,-134.41 16.6,-33.86 24.75,-70.17 24.75,-109.97 0,-71.92 -24.15,-135.1 -72.44,-189.56 -48.29,-54.46 -107.45,-81.69 -177.47,-81.69 -67.91,0 -124.35,24.78 -169.62,74.01 -45.57,49.57 -75.15,126.72 -89.34,231.81l-162.98 -23.04c14.79,-139.99 58.25,-247.51 130.99,-321.87 72.74,-74.36 168.72,-111.71 288.24,-111.71 126.46,0 227.27,39.8 302.73,119.74 75.15,79.95 112.88,176.65 112.88,290.11 0,65.63 -13.28,126.03 -39.84,181.19 -26.56,55.51 -78.47,122.54 -155.74,201.78 -51.91,53.06 -85.72,92.16 -101.71,117.3 -15.99,25.13 -27.76,54.11 -35.31,86.93 -7.54,32.47 -12.07,85.53 -13.28,159.19l-152.12 0zm-28.98 368.65l0 -209.46 181.09 0 0 209.46 -181.09 0z"/>
 </g>
</svg>
