<?xml version="1.0" encoding="UTF-8"?>
<!DOCTYPE svg PUBLIC "-//W3C//DTD SVG 1.1//EN" "http://www.w3.org/Graphics/SVG/1.1/DTD/svg11.dtd">
<!-- Creator: CorelDRAW 2021 (64 Bit) -->
<svg xmlns="http://www.w3.org/2000/svg" xml:space="preserve" width="140.547mm" height="140.55mm" version="1.1" style="shape-rendering:geometricPrecision; text-rendering:geometricPrecision; image-rendering:optimizeQuality; fill-rule:evenodd; clip-rule:evenodd"
viewBox="0 0 3663.62 3663.69"
 xmlns:xlink="http://www.w3.org/1999/xlink"
 xmlns:xodm="http://www.corel.com/coreldraw/odm/2003">
 <defs>
  <style type="text/css">
   <![CDATA[
    .fil3 {fill:black}
    .fil1 {fill:#C1C0C0}
    .fil2 {fill:#FA0505}
    .fil0 {fill:white}
   ]]>
  </style>
 </defs>
 <g id="Camada_x0020_1">
  <metadata id="CorelCorpID_0Corel-Layer"/>
  <g id="_1888131986016">
   <path class="fil0" d="M872.56 1886.26c-13.49,-3.31 -214.09,-1.14 -245.77,-1.14 -32.45,0 -90.14,5.5 -115.83,-7.98 -23.26,-12.2 -46.67,-46.43 -29.45,-84.55 6.91,-15.31 17.59,-24.1 26.54,-35.33 9.13,-11.45 20.14,-21.2 29.11,-32.62 5.05,-6.43 9.58,-10.15 14.57,-16.3l474.5 -540.8c10.15,-10.19 19.2,-22.83 29.08,-32.74 19.53,-19.58 79.31,-93.69 100.82,-115.43l100.33 -113.75c5.07,-6.38 9.63,-9.86 14.57,-16.29l71.83 -82.78c5.61,-6.13 9.7,-10.68 14.91,-15.96 21.42,-21.69 81.02,-95.57 100.82,-115.42l244.79 -278.26c5.12,-6.69 9.2,-9.92 14.54,-16.33 13.99,-16.81 43.91,-53.89 60.8,-62.83 51.35,-27.19 86.17,20.51 116.89,53.32 10.16,10.85 20.84,19.85 31,30.75l211.73 218.19c1.89,-28.51 -4.39,-59.9 8.55,-84.17 8.95,-16.79 29.76,-33.03 55.77,-34.25 72.68,-3.43 194.17,-0.1 275.81,-0.1 46.72,0 105.74,-4.68 105.62,76.78 -0.11,73.15 -3.25,537.15 2.13,547.72 1.39,2.73 8.2,10.06 10.78,13.53l479.86 594.97c6.85,9.1 14.21,17.67 20.74,25.59 25.41,30.77 50.53,54 46.98,89.26 -2.67,26.55 -18.48,43.92 -37.4,52.81 -23.75,11.15 -141,6.2 -176.28,6.2 -60.49,0 -120.97,0 -181.46,0 0,351.16 -0.01,702.33 0,1053.49 0,116.51 -47.77,99.45 -162.83,99.45l-1575.8 0c-50.41,0 -80.35,6.54 -105.73,-26.9 -20.49,-27 -14.08,-78.45 -14.75,-115.3l-13.26 -776.13c-1.48,-84.79 -0.87,-172.24 -4.51,-256.72zm907.68 -1753.02c-331.78,12.29 -627.43,109.65 -886.64,281.48 -52.36,34.71 -75.54,53.84 -122.51,89.38l-57.86 48.11c-39.53,31.53 -87.73,83.17 -122.18,118.41l-25.23 27.74c-21.09,24.29 -40.4,43.73 -60.89,71.49 -34.46,46.67 -53.73,69.04 -89.4,122.5 -189.77,284.37 -293.54,628.65 -282.39,992.52 9.2,300.45 98.05,583.6 240.45,820.41 72.45,120.48 117.91,171.91 203.29,273.49 27.51,32.73 63.61,64.12 93.78,93.79 60.79,59.78 151.2,128.35 221.77,175.5 283.83,189.62 629.61,293.48 991.85,282.38 322.47,-9.88 632.99,-112.68 885.9,-281.32l62.38 -43.53c42.01,-28 78.78,-62.31 117.5,-94.31 19.91,-16.45 36.99,-33.39 55.56,-50.42 14.82,-13.59 89.05,-88.79 104.64,-109.43l48.33 -57.61c98.73,-126.76 172.12,-242.11 238.48,-399.38 90.22,-213.81 141.14,-454.67 133.26,-715.56 -7.8,-258.37 -70.7,-478.34 -166.2,-682.51 -46.95,-100.37 -102.32,-184.94 -158.49,-265.34l-45.97 -59.91c-103.07,-123.62 -156.39,-179.49 -295.85,-289.04 -293.46,-230.51 -695.63,-363.18 -1083.55,-348.82z"/>
   <path class="fil0" d="M1706.46 2468.12l207.5 -0.4 0.4 8.59 -0.07 231.84 -207.84 -0.03 0.01 -240.01zm-352.48 -1012.52c-2.36,-34.5 22.07,-133.61 32.54,-166.09 16.63,-51.58 36.72,-94.96 62.86,-135.83 3.51,-5.49 7,-10.8 10.63,-15.88 3.66,-5.12 7.22,-8.65 10.61,-13.57 42.37,-61.46 127.87,-120.12 203.46,-143.09 105.6,-32.09 242.06,-31.79 344.12,6.65 104.43,39.33 167.68,101.85 218.99,178.26 54.42,81.04 84.25,201.68 70.79,321.31 -13.75,122.27 -68.45,202.27 -124.12,272.89l-142.85 155.03c-8.9,8.41 -13.78,16.35 -23.85,26.88 -89.87,93.96 -100.31,191.54 -102.84,342.9l-174.67 -0.76c-3.26,-172.56 8.39,-294.11 111.93,-428.24l18.3 -21.38c6.79,-7.47 9.26,-13.04 16.91,-20.64 12.32,-12.25 23.99,-27.83 36.86,-40.45 14.94,-14.64 24.41,-25.1 37.83,-39.36 13.19,-14.01 22.63,-25.03 37.99,-39.21 13.37,-12.35 24.06,-28.26 36.08,-41.23 56.32,-60.77 90.45,-131.84 88.57,-219.18 -2.01,-93.49 -34.67,-155.04 -91.57,-218.35 -107.09,-119.14 -314.33,-118.97 -416.48,33.46 -36.94,55.12 -68.18,151.31 -75.61,232.35l-186.48 -26.48zm-664.32 296.03c37.04,7.89 241.24,-7.74 275.21,6.97 18.8,8.14 36.73,29.35 38.83,55.65 4.58,57.19 2.32,126.6 3.34,185.21l15.88 928.29 1594.11 0.74 -0.01 -920.05c0,-35.39 -4.44,-157.95 2.36,-183.66 15.16,-57.37 72.43,-48.83 134.96,-48.83 61.29,0 123.43,1.01 184.62,-0.1 -11.07,-17.34 -70.04,-88.17 -89.24,-112.18l-273.02 -338.31c-30,-36.72 -60.38,-75.95 -90.55,-112.53 -14.92,-18.08 -33.59,-34.24 -34.52,-67.25 -0.95,-34.04 0,-69.6 0,-103.81 0,-67.68 0,-135.36 0,-203.04 0,-64.16 3.98,-142.07 -0.38,-204.53l-179.69 -0.19c-2.92,39.54 -0.45,89.09 -0.41,129.68 0.04,45.37 -9.84,73.13 -46.06,84.2 -52.25,15.96 -83.1,-32.35 -120.55,-72.25l-33.17 -33.01c-10.29,-10.84 -20.36,-23.29 -31.06,-33l-228.37 -234.31 -158.33 178.64c-7.74,8.56 -10.61,11.74 -17.28,20.25l-456.53 518.85c-6.41,7 -9.76,11.99 -17.42,20.12 -6.92,7.34 -11.75,12.25 -17.58,19.95l-122.9 139.71c-6.76,7.06 -9.26,11.45 -17.43,20.08l-70.01 80.17c-27.69,36.22 -109.92,121.04 -140.57,159.51l-69.84 80.32c-3.15,3.57 -5.51,5.22 -8.66,8.88l-25.72 29.83z"/>
   <path class="fil1" d="M1780.24 133.24c387.92,-14.37 790.09,118.3 1083.55,348.82 139.47,109.55 192.78,165.41 295.85,289.04l45.97 59.91c56.17,80.4 111.54,164.97 158.49,265.34 95.51,204.17 158.4,424.15 166.2,682.51 7.88,260.89 -43.04,501.74 -133.26,715.56 -66.36,157.26 -139.75,272.62 -238.48,399.38l-48.33 57.61c-15.59,20.64 -89.82,95.84 -104.64,109.43 -18.56,17.02 -35.65,33.97 -55.56,50.42 -38.73,32 -75.49,66.31 -117.5,94.31l-62.38 43.53c-252.91,168.65 -563.43,271.44 -885.9,281.32 -362.24,11.1 -708.02,-92.77 -991.85,-282.38 -70.58,-47.15 -160.99,-115.72 -221.77,-175.5 -30.16,-29.67 -66.26,-61.06 -93.78,-93.79 -85.38,-101.58 -130.85,-153.01 -203.29,-273.49 -142.4,-236.81 -231.24,-519.96 -240.45,-820.41 -11.15,-363.87 92.62,-708.15 282.39,-992.52 35.68,-53.46 54.95,-75.83 89.4,-122.5 20.49,-27.76 39.81,-47.2 60.89,-71.49l25.23 -27.74c34.46,-35.24 82.66,-86.88 122.18,-118.41l57.86 -48.11c46.97,-35.54 70.15,-54.67 122.51,-89.38 259.21,-171.83 554.86,-269.19 886.64,-281.48zm1883.37 1682.03l0 40.86c-0.84,69.9 -5.99,140.9 -15.85,222.54 -20.24,167.7 -69.08,329.21 -134.84,483.12 -16.72,39.12 -33.1,76.8 -53.86,113.88 -13.84,24.73 -26.67,48.52 -40.32,72.24 -27.78,48.25 -56.08,92.28 -87.49,137.62l-73.22 96.71c-8.68,10.62 -16.67,19.66 -25.09,30.08l-92.91 103.51c-4.56,4.93 -8.45,8.39 -13.27,13.22 -5.26,5.26 -8.88,9.58 -14.57,14.12 -15.49,12.36 -27.57,28 -43.54,40.33 -6.44,4.97 -9.04,8.75 -14.7,13.99l-76.72 64.53c-135.52,105.84 -263.84,183.58 -420.08,253.05 -94.84,42.17 -190.65,72.15 -292.78,97.86 -117.11,29.48 -243.87,46.53 -370.81,50.76l-124.83 0c-61.67,-2.07 -122.64,-7.24 -181.8,-15.57 -114,-16.04 -253.99,-45.01 -363,-87.23 -14.97,-5.8 -27.31,-9.41 -42.28,-15.11 -66.01,-25.11 -129.28,-54.4 -192.23,-85.85 -7.71,-3.85 -11.49,-6.79 -18.34,-10.35 -90.72,-47.19 -174.67,-104.17 -256.36,-165.18 -6.01,-4.49 -9.98,-7.88 -16.06,-12.63 -6.2,-4.84 -10.49,-7.45 -16.16,-12.53l-60.81 -51.75c-6.71,-5.64 -8.99,-6.86 -15.34,-13.35l-57.42 -52.93c-4.96,-4.98 -8.26,-8.32 -13.21,-13.28l-54.95 -57.61c-5.52,-6.92 -7.04,-8.83 -13.49,-15.2 -19,-18.74 -35.01,-39.98 -51.88,-60.68l-108.21 -145.59c-73.7,-110.57 -85.78,-143.26 -140.23,-250.41 -6.76,-13.31 -11.48,-25.81 -17.66,-39.72 -42.06,-94.62 -73.01,-192.09 -98.12,-292.52 -11.5,-45.99 -20.64,-94.63 -28.51,-141.43 -18.94,-112.61 -22.69,-217.4 -22.69,-334.84 0,-167.48 31.01,-327.19 75.97,-484.61 23.84,-83.46 55.09,-165.06 92.53,-242.94 57.24,-119.06 109.92,-209.36 187.76,-317.64l100.92 -124.2c15.23,-19.02 40.48,-41.77 52.64,-57.71 11.66,-15.28 27.6,-28.7 41.35,-42.52 6.16,-6.19 9.52,-7.65 15.51,-13.18 9.69,-8.96 17.47,-19.15 27.94,-27.23 7.26,-5.6 8.85,-7.52 15.03,-13.66 45.27,-45.06 149.3,-121.72 205.18,-158.97l158.89 -94.91c28.87,-17.58 61.3,-30.06 91.56,-45.28 13.77,-6.93 25.3,-11.3 39.68,-17.7 53.28,-23.7 108.01,-43.54 163.22,-61.9 104.05,-34.6 207.97,-56.35 318.79,-71.85 63.6,-8.9 135.96,-15.57 207.34,-15.57 53.21,0 131.92,-1.04 185.06,4.74 206.9,22.5 354.37,54.09 545.14,130.2l96.7 42.34c7.13,3.31 12.03,6.03 19.12,9.57 55.55,27.77 110.42,57.8 163.01,90.79l82.13 54.71c44.15,30.55 84.79,65.31 127.11,98 10.43,8.06 20.31,18.61 30.57,26.82 20.6,16.48 37.83,34.67 57.12,53.24 5.99,5.77 9.51,7.19 15.54,13.15l94.83 101.59c6.07,6.24 7.89,9.12 13.33,15.36 83.84,96.23 155.21,203.14 217.49,314.4 3.82,6.82 5.96,12.04 9.56,19.13 3.69,7.28 6.22,10.33 9.63,16.86 6.35,12.2 11.85,23.85 18.36,36.81 33.85,67.33 76.5,170.27 97.16,240.51 30.7,104.34 59.62,210.1 71.86,318.78 9.43,83.77 14.77,156.37 15.63,228.18z"/>
   <path class="fil2" d="M715.37 1721.8c3.16,-3.66 5.51,-5.31 8.66,-8.88l69.84 -80.32c30.65,-38.47 112.89,-123.29 140.57,-159.51l70.01 -80.17c8.17,-8.64 10.67,-13.03 17.43,-20.08l122.9 -139.71c5.83,-7.7 10.67,-12.61 17.58,-19.95 7.66,-8.13 11,-13.12 17.42,-20.12l456.53 -518.85c6.68,-8.51 9.54,-11.69 17.28,-20.25l158.33 -178.64 228.37 234.31c10.71,9.71 20.78,22.16 31.06,33l33.17 33.01c37.44,39.9 68.29,88.22 120.55,72.25 36.22,-11.07 46.1,-38.83 46.06,-84.2 -0.04,-40.59 -2.51,-90.13 0.41,-129.68l179.69 0.19c4.36,62.46 0.38,140.38 0.38,204.53 0,67.68 0,135.36 0,203.04 0,34.21 -0.95,69.77 0,103.81 0.92,33.01 19.6,49.17 34.52,67.25 30.18,36.57 60.55,75.81 90.55,112.53l273.02 338.31c19.2,24.02 78.17,94.84 89.24,112.18 -61.19,1.1 -123.33,0.1 -184.62,0.1 -62.53,0 -119.8,-8.54 -134.96,48.83 -6.8,25.71 -2.36,148.27 -2.36,183.66l0.01 920.05 -1594.11 -0.74 -15.88 -928.29c-1.02,-58.6 1.24,-128.02 -3.34,-185.21 -2.11,-26.3 -20.04,-47.51 -38.83,-55.65 -33.97,-14.71 -238.17,0.92 -275.21,-6.97l25.72 -29.83zm157.18 164.47c3.64,84.47 3.02,171.92 4.51,256.72l13.26 776.13c0.67,36.85 -5.75,88.3 14.75,115.3 25.38,33.44 55.32,26.9 105.73,26.9l1575.8 0c115.07,0 162.84,17.06 162.83,-99.45 -0.01,-351.16 0,-702.33 0,-1053.49 60.49,0 120.97,0 181.46,0 35.28,0 152.54,4.94 176.28,-6.2 18.92,-8.88 34.73,-26.25 37.4,-52.81 3.55,-35.26 -21.58,-58.49 -46.98,-89.26 -6.54,-7.92 -13.9,-16.49 -20.74,-25.59l-479.86 -594.97c-2.58,-3.47 -9.39,-10.8 -10.78,-13.53 -5.37,-10.58 -2.23,-474.58 -2.13,-547.72 0.12,-81.46 -58.9,-76.78 -105.62,-76.78 -81.63,0 -203.13,-3.33 -275.81,0.1 -26.01,1.23 -46.82,17.46 -55.77,34.25 -12.94,24.27 -6.66,55.66 -8.55,84.17l-211.73 -218.19c-10.17,-10.9 -20.84,-19.9 -31,-30.75 -30.72,-32.81 -65.53,-80.51 -116.89,-53.32 -16.89,8.94 -46.81,46.02 -60.8,62.83 -5.34,6.41 -9.42,9.65 -14.54,16.33l-244.79 278.26c-19.8,19.84 -79.4,93.73 -100.82,115.42 -5.21,5.28 -9.3,9.83 -14.91,15.96l-71.83 82.78c-4.94,6.43 -9.5,9.91 -14.57,16.29l-100.33 113.75c-21.5,21.74 -81.28,95.85 -100.82,115.43 -9.88,9.91 -18.93,22.54 -29.08,32.74l-474.5 540.8c-4.98,6.15 -9.51,9.88 -14.57,16.3 -8.97,11.42 -19.99,21.17 -29.11,32.62 -8.95,11.23 -19.63,20.02 -26.54,35.33 -17.22,38.12 6.19,72.35 29.45,84.55 25.69,13.48 83.39,7.98 115.83,7.98 31.68,0 232.28,-2.17 245.77,1.14z"/>
   <path class="fil3" d="M1353.97 1455.6l186.48 26.48c7.43,-81.04 38.68,-177.23 75.61,-232.35 102.15,-152.43 309.4,-152.6 416.48,-33.46 56.91,63.31 89.56,124.86 91.57,218.35 1.88,87.33 -32.25,158.41 -88.57,219.18 -12.02,12.97 -22.7,28.88 -36.08,41.23 -15.36,14.18 -24.8,25.2 -37.99,39.21 -13.41,14.25 -22.89,24.71 -37.83,39.36 -12.88,12.62 -24.55,28.2 -36.86,40.45 -7.65,7.61 -10.12,13.17 -16.91,20.64l-18.3 21.38c-103.54,134.12 -115.19,255.68 -111.93,428.24l174.67 0.76c2.53,-151.37 12.97,-248.95 102.84,-342.9 10.07,-10.53 14.95,-18.47 23.85,-26.88l142.85 -155.03c55.67,-70.62 110.37,-150.62 124.12,-272.89 13.45,-119.63 -16.38,-240.27 -70.79,-321.31 -51.31,-76.41 -114.56,-138.93 -218.99,-178.26 -102.06,-38.44 -238.52,-38.74 -344.12,-6.65 -75.59,22.97 -161.09,81.62 -203.46,143.09 -3.39,4.92 -6.95,8.45 -10.61,13.57 -3.63,5.08 -7.12,10.39 -10.63,15.88 -26.14,40.87 -46.23,84.25 -62.86,135.83 -10.47,32.48 -34.91,131.59 -32.54,166.09z"/>
   <polygon class="fil3" points="1706.45,2708.14 1914.29,2708.16 1914.36,2476.32 1913.96,2467.73 1706.46,2468.12 "/>
  </g>
 </g>
</svg>
