<?xml version="1.0" encoding="UTF-8"?>
<!DOCTYPE svg PUBLIC "-//W3C//DTD SVG 1.1//EN" "http://www.w3.org/Graphics/SVG/1.1/DTD/svg11.dtd">
<!-- Creator: CorelDRAW 2021 (64 Bit) -->
<svg xmlns="http://www.w3.org/2000/svg" xml:space="preserve" width="72.8133mm" height="72.8133mm" version="1.1" style="shape-rendering:geometricPrecision; text-rendering:geometricPrecision; image-rendering:optimizeQuality; fill-rule:evenodd; clip-rule:evenodd"
viewBox="0 0 3886.1 3886.1"
 xmlns:xlink="http://www.w3.org/1999/xlink"
 xmlns:xodm="http://www.corel.com/coreldraw/odm/2003">
 <defs>
  <style type="text/css">
   <![CDATA[
    .str0 {stroke:#C2C0C0;stroke-width:271.12;stroke-miterlimit:22.9256}
    .str1 {stroke:#FA0505;stroke-width:180.75;stroke-linejoin:round;stroke-miterlimit:22.9256}
    .fil1 {fill:none}
    .fil0 {fill:white}
    .fil2 {fill:black;fill-rule:nonzero}
   ]]>
  </style>
 </defs>
 <g id="Camada_x0020_1">
  <metadata id="CorelCorpID_0Corel-Layer"/>
  <circle class="fil0 str0" cx="1943.05" cy="1943.05" r="1807.49"/>
  <polygon class="fil1 str1" points="1049.6,2079.34 1070.19,3283.45 2836.5,3283.45 2836.5,2103.15 3241.47,2103.15 2667.19,1391.26 2667.19,798.47 2346.87,798.47 2346.87,1020.77 1941.91,602.65 644.63,2079.34 "/>
  <path class="fil2" d="M1870.59 2556.53c-0.7,-28.71 -1.07,-50.45 -1.07,-64.81 0,-84.91 10.28,-157.93 31.21,-219.45 15.25,-46.76 39.71,-93.53 73.76,-140.7 24.83,-34.45 69.87,-84.5 134.4,-150.54 64.89,-66.05 106.75,-118.55 126.25,-157.93 19.5,-39.78 29.08,-82.45 29.08,-129.21 0,-84.51 -28.38,-158.74 -85.12,-222.73 -56.74,-63.99 -126.25,-95.98 -208.52,-95.98 -79.79,0 -146.11,29.11 -199.3,86.96 -53.55,58.24 -88.3,148.89 -104.97,272.37l-191.5 -27.07c17.38,-164.49 68.44,-290.82 153.91,-378.2 85.47,-87.37 198.25,-131.25 338.68,-131.25 148.58,0 267.04,46.76 355.7,140.69 88.3,93.94 132.63,207.56 132.63,340.87 0,77.12 -15.61,148.08 -46.81,212.9 -31.21,65.22 -92.2,143.98 -182.99,237.09 -60.99,62.34 -100.72,108.28 -119.51,137.82 -18.79,29.52 -32.62,63.58 -41.49,102.14 -8.86,38.15 -14.18,100.5 -15.6,187.04l-178.74 0 -0.01 -0.02zm-34.05 433.16l0 -246.11 212.77 0 0 246.11 -212.77 0z"/>
 </g>
</svg>
