<?xml version="1.0" encoding="UTF-8"?>
<!DOCTYPE svg PUBLIC "-//W3C//DTD SVG 1.1//EN" "http://www.w3.org/Graphics/SVG/1.1/DTD/svg11.dtd">
<!-- Creator: CorelDRAW 2021 (64 Bit) -->
<svg xmlns="http://www.w3.org/2000/svg" xml:space="preserve" width="355px" height="355px" version="1.1" style="shape-rendering:geometricPrecision; text-rendering:geometricPrecision; image-rendering:optimizeQuality; fill-rule:evenodd; clip-rule:evenodd"
viewBox="0 0 86.22 86.22"
 xmlns:xlink="http://www.w3.org/1999/xlink"
 xmlns:xodm="http://www.corel.com/coreldraw/odm/2003">
 <defs>
  <style type="text/css">
   <![CDATA[
    .fil2 {fill:black}
    .fil1 {fill:#B8B4B5}
    .fil0 {fill:white}
   ]]>
  </style>
 </defs>
 <g id="Camada_x0020_1">
  <metadata id="CorelCorpID_0Corel-Layer"/>
  <g id="_1731665508384">
   <path class="fil0" d="M40.67 12.46c7.49,-0.32 12.32,0.9 18.51,4.45 0.49,0.28 0.71,0.48 1.18,0.77l1.13 0.82c1.38,1.04 3.01,2.33 4.1,3.61l1.74 2.07c6.45,8.48 8.49,19.76 4.5,29.97 -0.79,2.02 -1.55,3.46 -2.54,5.17 -0.22,0.38 -0.54,0.8 -0.78,1.17l-2.44 3.21c-0.46,0.59 -3.29,3.18 -3.99,3.7 -4.86,3.6 -10.41,6.07 -16.58,6.43 -6.83,0.4 -12.78,-0.95 -18.47,-4.41l-2.93 -2.01 -3.47 -3.2c-0.33,-0.39 -0.48,-0.69 -0.92,-1.05 -0.61,-0.48 -0.93,-1.19 -1.27,-1.61 -0.24,-0.29 -0.21,-0.17 -0.41,-0.5 -0.25,-0.41 -0.55,-0.75 -0.8,-1.15 -1.41,-2.27 -2.94,-5.23 -3.63,-7.87 -0.57,-2.15 -1.06,-4.13 -1.21,-6.4 -0.42,-6.67 1.03,-13.12 4.47,-18.61l2.8 -3.87c0.92,-0.95 0.99,-1.36 2.33,-2.5l3.19 -2.57c3.99,-2.92 10.36,-5.4 15.49,-5.62zm39.66 67.33c0.25,-0.84 0.07,-7.83 0.07,-9.31l0 -60.69c0,-5.18 1.19,-3.94 -10.07,-3.94 -20.19,0 -40.38,0 -60.58,0 -2.25,0 -3.6,-0.36 -3.85,0.76 -0.23,0.99 -0.11,63.84 -0.14,72.27 0,0.81 -0.1,1.36 0.71,1.54 0.76,0.17 63.81,-0.01 72.26,0.03 0.93,0.01 1.35,0.17 1.6,-0.66z"/>
   <path class="fil1" d="M80.35 79.78c-0.25,0.83 -0.67,0.66 -1.6,0.66 -8.45,-0.05 -71.5,0.14 -72.26,-0.03 -0.82,-0.19 -0.71,-0.73 -0.71,-1.55 0.03,-8.43 -0.09,-71.28 0.13,-72.26 0.26,-1.12 1.6,-0.76 3.86,-0.76 20.2,0 40.39,0 60.58,0 11.26,0 10.07,-1.24 10.07,3.93l0 60.7c0,1.47 0.18,8.47 -0.07,9.31zm-80.35 -40.7l0 41.04c0,3.22 3.29,6.1 6.44,6.1l73.45 0c1.91,0 3.33,-0.93 4.52,-2.16 1.03,-1.07 1.81,-2.89 1.81,-4.97l0 -72.08c0,-4.18 -2.89,-7.01 -7.48,-7.01l-71.27 0c-3.42,0 -6,1.48 -7,4.61 -0.6,1.88 -0.35,8.78 -0.35,11.25 0,3.97 -0.12,7.57 -0.12,11.5 0,3.91 0,7.82 0,11.72z"/>
   <path class="fil1" d="M40.48 12.02c5.06,-0.26 8.93,0.16 13.54,1.87 2.07,0.77 5.9,2.68 7.56,4.12 1.18,1.02 1.38,0.93 2.7,2.27 0.17,0.17 0.31,0.27 0.5,0.44l1.91 1.98c0.35,0.52 0.39,0.56 0.83,1.04 0.71,0.76 2.71,3.89 3.11,4.69 4.13,8.42 4.89,16.53 1.68,25.6 -0.87,2.47 -2.05,4.43 -3.35,6.45l-2.05 2.78c-2.04,2.4 -3.25,3.36 -5.62,5.13 -8.18,6.13 -19.42,7.54 -29.09,3.96 -3.7,-1.37 -4.42,-2.11 -7,-3.72 -0.3,-0.18 -0.25,-0.11 -0.58,-0.37l-1.66 -1.29c-0.88,-0.8 -1.83,-1.54 -2.52,-2.31 -0.37,-0.42 -0.54,-0.71 -0.89,-1.14 -0.21,-0.27 -0.21,-0.21 -0.45,-0.48l-3.52 -5.19c-1.74,-3 -3.3,-8.07 -3.59,-12.02 -0.48,-6.72 0.95,-13.26 4.4,-18.86 0.53,-0.86 1.04,-1.56 1.58,-2.31 0.25,-0.33 0.56,-0.81 0.84,-1.18l4.88 -4.79c1.59,-1.12 2.45,-1.97 4.67,-3.11 3.33,-1.7 7.79,-3.34 12.12,-3.56zm-0.22 -4.78c-5.99,0.26 -13.42,3.16 -18.09,6.57l-3.73 3c-1.57,1.33 -1.64,1.82 -2.72,2.92l-3.27 4.52c-4.03,6.42 -5.71,13.96 -5.22,21.75 0.17,2.65 0.75,4.97 1.41,7.48 0.81,3.09 2.59,6.54 4.24,9.19 0.3,0.47 0.64,0.87 0.94,1.35 0.23,0.38 0.2,0.25 0.48,0.59 0.4,0.48 0.76,1.31 1.48,1.88 0.51,0.41 0.68,0.76 1.07,1.22l4.05 3.74 3.43 2.35c6.64,4.04 13.61,5.62 21.59,5.15 7.2,-0.42 13.69,-3.3 19.37,-7.51 0.82,-0.61 4.12,-3.63 4.66,-4.33l2.85 -3.75c0.28,-0.43 0.65,-0.92 0.91,-1.36 1.16,-2 2.05,-3.68 2.97,-6.05 4.67,-11.93 2.28,-25.11 -5.26,-35.01l-2.03 -2.42c-1.27,-1.5 -3.18,-3 -4.79,-4.22l-1.32 -0.96c-0.55,-0.33 -0.81,-0.57 -1.38,-0.9 -7.23,-4.14 -12.88,-5.58 -21.64,-5.2z"/>
   <g>
    <path class="fil2" d="M61 38.4c0.45,-1.54 -0.68,-2.78 -1.85,-3.03 -1.02,-0.21 -26.32,-0.05 -30.17,-0.07 -4.57,-0.01 -3.76,4.38 -1.33,4.89 1,0.21 26.35,0.05 30.19,0.06 1.73,0.01 2.73,-0.42 3.16,-1.85z"/>
    <path class="fil2" d="M60.99 28.28c0.46,-1.5 -0.67,-2.8 -1.82,-3.05 -0.98,-0.22 -26.37,-0.06 -30.19,-0.07 -1.69,-0.01 -2.8,0.37 -3.17,1.79 -0.41,1.59 0.66,2.85 1.86,3.09 0.98,0.2 26.35,0.05 30.17,0.06 1.7,0.01 2.71,-0.42 3.15,-1.82z"/>
    <path class="fil2" d="M25.78 58.63c0.3,1.43 1.45,1.92 3.09,1.91 3.86,-0.01 29.17,0.13 30.16,-0.04 2.53,-0.44 3.32,-4.91 -1.08,-4.9 -3.88,0.01 -29.22,-0.13 -30.22,0.05 -1.24,0.21 -2.28,1.4 -1.95,2.98z"/>
    <path class="fil2" d="M60.93 48.74c0.51,-1.5 -0.46,-2.85 -1.63,-3.19 -0.93,-0.26 -26.35,-0.09 -30.09,-0.1 -1.68,0 -2.82,0.27 -3.32,1.58 -0.57,1.51 0.43,2.9 1.55,3.25 0.87,0.28 26.47,0.11 30.17,0.12 1.78,0 2.85,-0.24 3.32,-1.66z"/>
   </g>
  </g>
 </g>
</svg>
