<?xml version="1.0" encoding="UTF-8"?>
<!DOCTYPE svg PUBLIC "-//W3C//DTD SVG 1.1//EN" "http://www.w3.org/Graphics/SVG/1.1/DTD/svg11.dtd">
<!-- Creator: CorelDRAW 2021 (64 Bit) -->
<svg xmlns="http://www.w3.org/2000/svg" xml:space="preserve" width="749px" height="749px" version="1.1" style="shape-rendering:geometricPrecision; text-rendering:geometricPrecision; image-rendering:optimizeQuality; fill-rule:evenodd; clip-rule:evenodd"
viewBox="0 0 504.94 504.69"
 xmlns:xlink="http://www.w3.org/1999/xlink"
 xmlns:xodm="http://www.corel.com/coreldraw/odm/2003">
 <defs>
  <style type="text/css">
   <![CDATA[
    .str0 {stroke:#B8B4B6;stroke-width:33.69;stroke-miterlimit:22.9256}
    .str2 {stroke:black;stroke-width:3.37;stroke-miterlimit:22.9256}
    .str1 {stroke:#A3A3A3;stroke-width:23.58;stroke-miterlimit:22.9256}
    .fil1 {fill:none}
    .fil2 {fill:black}
    .fil0 {fill:white}
   ]]>
  </style>
 </defs>
 <g id="Camada_x0020_1">
  <metadata id="CorelCorpID_0Corel-Layer"/>
  <g id="_1731557405296">
   <g>
    <path class="fil0" d="M36.94 484.43l426.95 0c11.34,0 20.54,-10.5 20.54,-23.46l0 -421.36c0,-12.95 -9.2,-23.46 -20.54,-23.46l-426.95 0c-11.34,0 -20.54,10.51 -20.54,23.46l0 421.36c0,12.96 9.2,23.46 20.54,23.46z"/>
    <path class="fil0 str0" d="M38.01 487.84l429.43 0c11.4,0 20.66,-10.56 20.66,-23.59l0 -423.81c0,-13.03 -9.26,-23.59 -20.66,-23.59l-429.43 0c-11.41,0 -20.66,10.56 -20.66,23.59 0,50.91 -0.75,410.47 -0.42,428.93 0.18,10.2 12.56,18.47 21.08,18.47z"/>
   </g>
   <g>
    <circle class="fil1 str1" cx="252.47" cy="252.34" r="168.46"/>
    <rect class="fil2 str2" x="150.51" y="147.03" width="203.93" height="25.61" rx="25.09" ry="25.09"/>
    <rect class="fil2 str2" x="150.51" y="206.51" width="203.93" height="25.61" rx="25.09" ry="25.09"/>
    <rect class="fil2 str2" x="150.51" y="266" width="203.93" height="25.61" rx="25.09" ry="25.09"/>
    <rect class="fil2 str2" x="150.51" y="325.48" width="203.93" height="25.61" rx="25.09" ry="25.09"/>
   </g>
  </g>
 </g>
</svg>
