<?xml version="1.0" encoding="UTF-8"?>
<!DOCTYPE svg PUBLIC "-//W3C//DTD SVG 1.1//EN" "http://www.w3.org/Graphics/SVG/1.1/DTD/svg11.dtd">
<!-- Creator: CorelDRAW 2021 (64 Bit) -->
<svg xmlns="http://www.w3.org/2000/svg" xml:space="preserve" width="296px" height="296px" version="1.1" style="shape-rendering:geometricPrecision; text-rendering:geometricPrecision; image-rendering:optimizeQuality; fill-rule:evenodd; clip-rule:evenodd"
viewBox="0 0 38.52 38.48"
 xmlns:xlink="http://www.w3.org/1999/xlink"
 xmlns:xodm="http://www.corel.com/coreldraw/odm/2003">
 <defs>
  <style type="text/css">
   <![CDATA[
    .str0 {stroke:black;stroke-width:0.26;stroke-miterlimit:22.9256}
    .fil2 {fill:black}
    .fil0 {fill:gray}
    .fil1 {fill:white}
   ]]>
  </style>
 </defs>
 <g id="Camada_x0020_1">
  <metadata id="CorelCorpID_0Corel-Layer"/>
  <path class="fil0" d="M17.85 2.59c2.71,-0.14 4.78,0.08 7.25,1 1.11,0.42 3.16,1.44 4.05,2.21 0.63,0.54 0.74,0.49 1.45,1.21 0.09,0.1 0.16,0.15 0.26,0.24l1.03 1.06c0.18,0.28 0.2,0.3 0.44,0.56 0.38,0.41 1.45,2.08 1.67,2.51 2.21,4.5 2.62,8.85 0.9,13.71 -0.47,1.32 -1.1,2.37 -1.8,3.45l-1.1 1.49c-1.09,1.28 -1.74,1.8 -3,2.75 -4.39,3.28 -10.4,4.04 -15.58,2.12 -1.98,-0.73 -2.37,-1.13 -3.75,-1.99 -0.16,-0.1 -0.14,-0.06 -0.31,-0.2l-0.89 -0.69c-0.47,-0.43 -0.98,-0.83 -1.35,-1.24 -0.2,-0.22 -0.29,-0.38 -0.48,-0.61 -0.11,-0.14 -0.11,-0.11 -0.24,-0.26l-1.89 -2.78c-0.92,-1.6 -1.76,-4.32 -1.91,-6.43 -0.27,-3.6 0.5,-7.1 2.35,-10.11 0.28,-0.45 0.56,-0.83 0.85,-1.23 0.13,-0.18 0.3,-0.43 0.45,-0.63l2.61 -2.57c0.85,-0.6 1.31,-1.05 2.5,-1.66 1.78,-0.91 4.17,-1.79 6.49,-1.91zm-0.11 -2.56c-3.21,0.14 -7.2,1.69 -9.7,3.52l-1.99 1.6c-0.84,0.72 -0.88,0.98 -1.46,1.57l-1.75 2.42c-2.16,3.44 -3.06,7.48 -2.8,11.65 0.09,1.42 0.4,2.66 0.76,4 0.43,1.66 1.39,3.51 2.27,4.93 0.16,0.25 0.34,0.46 0.5,0.72 0.13,0.2 0.11,0.13 0.26,0.31 0.21,0.26 0.41,0.71 0.79,1.01 0.28,0.22 0.37,0.41 0.58,0.65l2.17 2 1.83 1.27c3.56,2.16 7.29,3 11.56,2.76 3.86,-0.23 7.33,-1.77 10.38,-4.03 0.44,-0.33 2.2,-1.94 2.49,-2.32l1.53 -2c0.15,-0.24 0.35,-0.5 0.49,-0.74 0.62,-1.07 1.09,-1.96 1.59,-3.23 2.5,-6.39 1.22,-13.45 -2.82,-18.76l-1.08 -1.29c-0.69,-0.8 -1.71,-1.61 -2.57,-2.26l-0.71 -0.51c-0.29,-0.18 -0.43,-0.31 -0.74,-0.48 -3.87,-2.22 -6.9,-2.99 -11.58,-2.79z"/>
  <circle class="fil1 str0" cx="19.26" cy="19.24" r="16.9"/>
  <g id="_1731670088480">
   <path class="fil2" d="M28.73 17.3c0.24,-0.82 -0.37,-1.49 -0.99,-1.62 -0.55,-0.11 -14.1,-0.03 -16.16,-0.03 -2.44,-0.01 -2.01,2.34 -0.71,2.61 0.53,0.11 14.11,0.03 16.17,0.04 0.92,0 1.46,-0.23 1.69,-1z"/>
   <path class="fil2" d="M28.72 11.89c0.25,-0.81 -0.35,-1.5 -0.97,-1.64 -0.52,-0.12 -14.12,-0.03 -16.17,-0.04 -0.9,0 -1.5,0.2 -1.7,0.96 -0.22,0.85 0.36,1.53 1,1.66 0.53,0.11 14.11,0.03 16.16,0.03 0.91,0 1.45,-0.23 1.68,-0.97z"/>
   <path class="fil2" d="M9.87 28.14c0.16,0.76 0.78,1.03 1.65,1.02 2.07,0 15.62,0.07 16.16,-0.02 1.35,-0.24 1.77,-2.63 -0.58,-2.62 -2.08,0 -15.65,-0.07 -16.19,0.02 -0.66,0.11 -1.22,0.75 -1.04,1.6z"/>
   <path class="fil2" d="M28.69 22.84c0.27,-0.8 -0.24,-1.52 -0.87,-1.7 -0.5,-0.15 -14.11,-0.06 -16.11,-0.06 -0.91,0 -1.52,0.15 -1.78,0.85 -0.31,0.8 0.23,1.55 0.83,1.74 0.46,0.15 14.17,0.06 16.15,0.06 0.96,0 1.53,-0.13 1.78,-0.89z"/>
  </g>
 </g>
</svg>
