<?xml version="1.0" encoding="UTF-8"?>
<!DOCTYPE svg PUBLIC "-//W3C//DTD SVG 1.1//EN" "http://www.w3.org/Graphics/SVG/1.1/DTD/svg11.dtd">
<!-- Creator: CorelDRAW 2021 (64 Bit) -->
<svg xmlns="http://www.w3.org/2000/svg" xml:space="preserve" width="752px" height="752px" version="1.1" style="shape-rendering:geometricPrecision; text-rendering:geometricPrecision; image-rendering:optimizeQuality; fill-rule:evenodd; clip-rule:evenodd"
viewBox="0 0 41.94 41.9"
 xmlns:xlink="http://www.w3.org/1999/xlink"
 xmlns:xodm="http://www.corel.com/coreldraw/odm/2003">
 <defs>
  <style type="text/css">
   <![CDATA[
    .str2 {stroke:#AEA19E;stroke-width:0.89;stroke-miterlimit:22.9256;stroke-opacity:0.949020}
    .str0 {stroke:#B8B4B6;stroke-width:2.79;stroke-miterlimit:22.9256}
    .str1 {stroke:white;stroke-width:0.11;stroke-miterlimit:22.9256}
    .str3 {stroke:black;stroke-width:0.67;stroke-miterlimit:22.9256}
    .str4 {stroke:#373435;stroke-width:0.89;stroke-miterlimit:22.9256}
    .fil4 {fill:none}
    .fil1 {fill:#E6E7E8}
    .fil6 {fill:#FFF212}
    .fil7 {fill:#ED3237}
    .fil5 {fill:#00A859}
    .fil0 {fill:snow}
    .fil2 {fill:#333333;fill-rule:nonzero}
    .fil3 {fill:#FEFEFE;fill-rule:nonzero;fill-opacity:0.949020}
   ]]>
  </style>
 </defs>
 <g id="Camada_x0020_1">
  <metadata id="CorelCorpID_0Corel-Layer"/>
  <g id="_2201532705968">
   <path class="fil0 str0" d="M3.15 1.39l35.68 0c0.95,0 1.72,0.88 1.72,1.96l0 35.2c0,1.08 -0.77,1.95 -1.72,1.95l-35.68 0.01c-0.95,-0.01 -1.71,-0.88 -1.71,-1.96 0,-4.23 -0.07,-34.09 -0.04,-35.62 0.02,-0.85 1.04,-1.54 1.75,-1.54z"/>
   <g>
    <rect class="fil1 str1" x="6.65" y="24.05" width="5.23" height="12.03"/>
    <path class="fil2" d="M20.55 36.85c-1,0 -1.99,-0.37 -2.95,-0.73 -1.06,-0.39 -2.15,-0.79 -3.24,-0.7l-2.67 0.24 0 -10.36 1.46 -0.13c0.9,-0.08 1.66,0.27 2.39,0.61 0.69,0.33 1.34,0.63 2.08,0.57l4.79 -0.87c1.71,-0.3 2.65,0.69 3.23,1.6l5.22 -2.43c1.97,-0.88 4.18,0 5.51,2.21 0.35,0.58 0.15,1.35 -0.43,1.71 -0.68,0.42 -1.35,0.85 -2.02,1.27 -5.83,3.65 -10.87,6.81 -13.03,7 -0.11,0.01 -0.23,0.01 -0.34,0.01zm-5.85 -2.16c1.09,0 2.13,0.39 3.14,0.76 1.05,0.39 2.03,0.76 2.99,0.67 1.99,-0.17 7.19,-3.44 12.71,-6.89 0.67,-0.42 1.34,-0.84 2.02,-1.27 0.26,-0.16 0.34,-0.49 0.2,-0.73 -1.13,-1.88 -2.98,-2.65 -4.6,-1.93l-5.81 2.7c-0.01,-0.37 -0.3,-0.81 -0.46,-1 -0.54,-0.64 -1.58,-0.95 -2.36,-0.82l-4.82 0.88c-0.96,0.07 -1.73,-0.28 -2.47,-0.63 -0.68,-0.31 -1.31,-0.61 -2.03,-0.54l-0.8 0.07 0 8.92 1.89 -0.17c0.13,-0.01 0.27,-0.02 0.4,-0.02z"/>
    <path class="fil3 str2" d="M11.19 36.85l-4.08 0c-0.67,0 -1.22,-0.54 -1.22,-1.22l0 -10.98c0,-0.67 0.55,-1.22 1.22,-1.22l4.08 0c0.67,0 1.22,0.55 1.22,1.22l0 10.99c0,0.67 -0.55,1.21 -1.22,1.21zm-4.08 -12.7c-0.28,0 -0.5,0.22 -0.5,0.5l0 10.99c0,0.27 0.22,0.49 0.5,0.49l4.08 0c0.28,0 0.5,-0.22 0.5,-0.5l0 -10.98c0,-0.28 -0.22,-0.5 -0.5,-0.5l-4.08 0z"/>
    <path class="fil4 str3" d="M25.63 27.82c0.09,0.17 0.09,0.46 -0.11,0.78 -0.3,0.49 -1.01,0.88 -2.73,0.67 -1.28,-0.15 -2.8,0.15 -4.13,0.29"/>
   </g>
  </g>
  <g id="_2201532737168">
   <rect class="fil5 str4" x="13.48" y="13.67" width="2.89" height="4.69"/>
   <rect class="fil6 str4" x="18.58" y="13.75" width="2.89" height="4.69"/>
   <rect class="fil7 str4" x="23.59" y="13.67" width="2.89" height="4.69"/>
   <polygon class="fil4 str4" points="8.49,10.09 8.48,21.62 31.31,21.62 31.31,9.81 30.78,4.08 26.49,4.03 24.05,9.97 21.29,9.97 21.29,7.39 15.27,9.71 15.31,7.54 "/>
   <line class="fil4 str4" x1="24.05" y1="9.97" x2="31.31" y2= "9.97" />
  </g>
 </g>
</svg>
