<?xml version="1.0" encoding="UTF-8"?>
<!DOCTYPE svg PUBLIC "-//W3C//DTD SVG 1.1//EN" "http://www.w3.org/Graphics/SVG/1.1/DTD/svg11.dtd">
<!-- Creator: CorelDRAW 2021 (64 Bit) -->
<svg xmlns="http://www.w3.org/2000/svg" xml:space="preserve" width="119.803mm" height="119.803mm" version="1.1" style="shape-rendering:geometricPrecision; text-rendering:geometricPrecision; image-rendering:optimizeQuality; fill-rule:evenodd; clip-rule:evenodd"
viewBox="0 0 3054.71 3054.71"
 xmlns:xlink="http://www.w3.org/1999/xlink"
 xmlns:xodm="http://www.corel.com/coreldraw/odm/2003">
 <defs>
  <style type="text/css">
   <![CDATA[
    .str3 {stroke:black;stroke-width:10.79;stroke-miterlimit:22.9256}
    .str1 {stroke:#A9ABAE;stroke-width:4.32;stroke-miterlimit:22.9256}
    .str2 {stroke:red;stroke-width:4.32;stroke-miterlimit:22.9256}
    .str0 {stroke:#B8B4B6;stroke-width:194.29;stroke-miterlimit:22.9256}
    .fil7 {fill:#727376}
    .fil8 {fill:#ED3237}
    .fil9 {fill:black}
    .fil5 {fill:#53331D}
    .fil3 {fill:#86B0C0}
    .fil2 {fill:#9D720B}
    .fil4 {fill:#B8E3E9}
    .fil6 {fill:#E2A610}
    .fil1 {fill:#FCD532}
    .fil10 {fill:red}
    .fil0 {fill:white}
   ]]>
  </style>
 </defs>
 <g id="Camada_x0020_1">
  <metadata id="CorelCorpID_0Corel-Layer"/>
  <path class="fil0 str0" d="M225.59 97.16l2606.58 0c69.24,-0.01 125.39,64.14 125.39,143.27l0 2573.85c0,79.11 -56.15,143.27 -125.39,143.27l-2606.58 0.01c-69.23,-0.01 -125.38,-64.17 -125.38,-143.29 0,-309.2 -4.55,-2492.83 -2.55,-2604.93 1.11,-61.93 76.22,-112.19 127.94,-112.19z"/>
 </g>
 <g id="Camada_x0020_1_0">
  <metadata id="CorelCorpID_1Corel-Layer"/>
  <g id="_2412161610288">
   <g>
    <g>
     <path class="fil1" d="M2351 1525.8c41.32,-6.74 84.97,6.52 103.44,36.07 14.17,22.67 0.54,43.52 -11.71,54.77 -63.64,58.4 -214.67,-2.64 -143.67,-69.21 13.36,-12.52 31.99,-18.38 51.93,-21.63zm-502.69 -97.86c-33.06,6.71 -65.68,9.98 -99.07,17.9 -45.11,9.92 -100.81,26.94 -134.62,39.86 -29.34,9.26 -59.23,23.36 -87.27,41.65 -27.97,18.25 -20.63,18.79 -30.65,33.5 3.49,5.7 3.67,14.6 5.16,21.44 4.69,21.49 13.79,35.98 24.45,51.08 12.91,18.29 30.07,32.79 51.83,47.26 37.38,24.85 91.09,42.1 137.69,53.53 192.34,47.19 631,56.38 809.12,-51.77 40.04,-24.3 76.01,-56.2 82.01,-122.05 -2.68,-11.08 -5.74,-15.89 -11.69,-20.92 -4.69,-3.96 -10.61,-8.86 -16.75,-12.96 -12.12,-8.09 -25.44,-14.63 -39.12,-21.2 -122.34,-58.8 -351.09,-102.1 -483.4,-99.31 -74.02,1.56 -136.71,10.62 -207.7,21.98z"/>
     <path class="fil2" d="M2351 1525.8c-19.94,3.25 -38.58,9.1 -51.93,21.63 -71,66.56 80.02,127.61 143.67,69.21 12.25,-11.24 25.88,-32.1 11.71,-54.77 -18.48,-29.55 -62.12,-42.81 -103.44,-36.07z"/>
     <path class="fil2" d="M1728.77 1525.8c-19.94,3.25 -38.58,9.1 -51.93,21.63 -71,66.56 80.02,127.61 143.67,69.21 12.25,-11.24 25.88,-32.1 11.7,-54.77 -18.48,-29.55 -62.12,-42.81 -103.44,-36.07z"/>
    </g>
    <g>
     <g>
      <path class="fil3" d="M1862.36 830.24c-7.72,51.45 -30.98,48.99 -57.35,95.14 -35.49,62.13 -59.59,161.01 -74.63,236.56 -4.07,20.43 -7.2,51.56 -20.93,57.85 -11.28,5.16 -17.07,-7.29 -19.31,-16.4 -2.77,-11.23 -2.15,-26.49 -2.24,-38.65 -0.93,-137.42 8.03,-289.47 100.47,-368.8 45.5,-39.06 81.21,-13.84 73.99,34.3zm-204.07 372.26l0.58 163.61c1.78,6.24 0.53,3.4 5.35,7.91 17.08,16 47.46,29.85 68.81,32.93 41.57,5.99 74.06,-11.25 105.09,-34.05 9.33,-6.86 7.34,-7.51 7.4,-23.23 0.08,-22.01 0.54,-44.13 0.82,-66.15 0.51,-39.77 -0.91,-88.41 1.98,-127.05 -2.61,-70.04 2.44,60.27 3.52,-22.7 0.53,-40.43 0.02,-51.89 10.74,-87.72 49.28,-164.62 185.35,-244.49 311.94,-174.37 73.33,40.62 134.61,147.04 134.5,239.37 -0.08,66.93 0,133.86 0,200.79 23.54,14.3 52.59,25.99 84.07,26.42 27.25,0.37 68.26,-11.52 85.23,-27.52 0.17,-52.32 2.46,-104.12 2.8,-156.33 0.74,-114.35 -47.14,-270.84 -105.5,-350.67 -28.25,-38.65 -34.82,-47.36 -66.79,-78.83 -22.13,-21.78 -51.13,-44.24 -80.66,-62.1 -104.18,-63.02 -213.9,-63.99 -324.43,-9.24 -29.38,14.56 -60.47,32.34 -83.27,59.05 -27.18,31.83 -37.88,37.59 -64.7,81.34 -11.61,18.93 -15.72,24.05 -27.04,46.02 -8.73,16.97 -16.06,32.47 -23.9,51.86 -31.03,76.77 -47.51,165.19 -47.2,262.57 0.33,105.08 3.14,-56.41 0.68,48.08z"/>
      <path class="fil4" d="M1862.36 830.24c7.22,-48.14 -28.49,-73.35 -73.99,-34.3 -92.43,79.34 -101.4,231.38 -100.47,368.8 0.08,12.16 -0.53,27.42 2.24,38.65 2.24,9.11 8.02,21.56 19.31,16.4 13.73,-6.29 16.86,-37.41 20.93,-57.85 15.04,-75.55 39.14,-174.42 74.63,-236.55 26.37,-46.15 49.63,-43.69 57.35,-95.15z"/>
     </g>
     <g>
      <path class="fil5" d="M2004.81 1961.66l-3.77 2.2c-11.07,14.76 -43.54,28 -41.59,92.97 1.18,39.22 23.14,79.31 46.76,88.01 -7.37,38.41 -62.34,183.34 -60.43,207.17 7.97,15.58 27.36,11.18 44.88,11.06l108.34 -0.3c46.84,0.84 42.66,-3.74 21.23,-69.36l-30.27 -95.78c-4.08,-12.83 -12.37,-35.69 -14.58,-47.98 17.02,-17.5 49.12,-30.05 47.7,-92.99 -0.96,-42.5 -14.42,-69.5 -41.1,-90.85 -0.32,-0.26 -0.75,-0.57 -1.07,-0.84l-4.04 -4.1c-11.25,-1.2 -21.79,-7.19 -36.33,-7.43 -15.25,-0.25 -23.03,4.45 -35.74,8.21z"/>
      <path class="fil2" d="M2076.87 1960.88l4.04 4.1c0.32,0.27 0.74,0.58 1.07,0.84 26.69,21.35 40.14,48.35 41.1,90.85 1.42,62.94 -30.67,75.49 -47.7,92.99 2.21,12.29 10.5,35.15 14.58,47.98l30.27 95.78c21.43,65.63 25.6,70.2 -21.23,69.36l-108.34 0.3c-17.52,0.12 -36.91,4.52 -44.88,-11.06 -1.91,-23.84 53.06,-168.76 60.43,-207.17 -23.61,-8.7 -45.58,-48.79 -46.76,-88.01 -1.95,-64.97 30.52,-78.22 41.59,-92.97l3.77 -2.2 -3.77 2.2c-41.02,3.63 -103.63,90.51 -50.5,169.98 17.55,26.25 24.02,26.42 44.65,39.13 -16.66,39.27 -47.1,125.89 -64.38,171.22 -5.5,14.44 -10.79,28.03 -16.15,42.54 -8.26,22.31 1,30.47 19.17,31.37 56.75,2.82 145.34,-0.73 208.19,0.16 16.77,0.24 33.31,-2.08 28.33,-25.91 -1.86,-8.92 -12.93,-34.9 -16.67,-44.07 -11.07,-27.19 -22.18,-56.78 -32.51,-84.82 -6.39,-17.34 -29.81,-75.58 -32.63,-87.66 34.75,-14.97 71.54,-51.63 65.1,-112.65 -5.93,-56.25 -34.3,-89.71 -76.76,-102.26z"/>
      <g>
       <path class="fil6" d="M2001.04 1963.86l3.77 -2.2c12.71,-3.76 20.48,-8.46 35.74,-8.21 14.54,0.24 25.08,6.23 36.33,7.43 42.46,12.55 70.82,46.01 76.76,102.26 6.44,61.03 -30.36,97.68 -65.1,112.65 2.82,12.08 26.25,70.33 32.63,87.66 10.33,28.03 21.44,57.62 32.51,84.82 3.74,9.17 14.81,35.15 16.67,44.07 4.97,23.83 -11.56,26.15 -28.33,25.91 -62.84,-0.89 -151.44,2.66 -208.19,-0.16 -18.17,-0.9 -27.43,-9.05 -19.17,-31.37 5.36,-14.5 10.65,-28.1 16.15,-42.54 17.29,-45.33 47.73,-131.95 64.38,-171.22 -20.62,-12.71 -27.09,-12.88 -44.65,-39.13 -53.14,-79.47 9.48,-166.35 50.5,-169.98zm605.93 -403.51c-6,65.86 -41.97,97.75 -82.01,122.05 -178.12,108.15 -616.78,98.96 -809.12,51.77 -46.59,-11.43 -100.31,-28.68 -137.68,-53.53 -21.76,-14.47 -38.92,-28.97 -51.83,-47.26 -10.66,-15.1 -19.76,-29.59 -24.45,-51.08 -1.49,-6.84 -1.68,-15.74 -5.16,-21.44 -3.42,8.36 -3.08,213.1 -3.13,219.2 -0.56,73.62 -1.17,147.26 -1.75,220.94 -1.14,146.61 -2.32,293.2 -3.47,439.81 -0.43,54.12 -8.17,48.45 23.48,83.45 12.45,13.77 37.95,31.81 57.5,42.5 43.18,23.61 90.38,40.58 140.68,53.93 214.07,56.81 457.91,55.26 672.04,-1.24 47.09,-12.43 101.02,-29.82 141.5,-52.93 22.25,-12.7 41.71,-25.15 58.58,-41.2 34.28,-32.61 26.44,-34.78 26.44,-78.3 0,-147.98 0,-295.96 0,-443.94 0,-6.43 2.51,-432.41 -1.61,-442.71z"/>
       <g>
        <polygon class="fil7 str1" points="1874.46,1552.64 2029.97,1696.3 2179.32,1560.36 2125.64,1784.33 2281.56,1927.25 2092.87,1922.02 2039.89,2146.29 1976.96,1919.09 1788.29,1914.77 1938.08,1779.58 "/>
        <polygon class="fil8 str2" points="2032.7,1371.04 2055.82,1778.85 2360.89,1681.45 2070.1,1836.08 2235.54,2183.69 2032.7,1871.45 1829.87,2183.69 1995.3,1836.08 1704.51,1681.45 2009.59,1778.85 "/>
       </g>
      </g>
     </g>
    </g>
   </g>
   <g>
    <g>
     <path class="fil9" d="M444.94 1254.68c-2.62,12.5 -1.49,30.48 -1.58,43.03 -0.7,102.55 66.76,214.53 141.47,285.91 27.46,26.24 57.61,51.14 90.82,67.81 57.76,29 70.2,18.81 71.97,49.37 3.69,63.52 8.92,105.38 10.99,169.97l13.04 171.65c2.72,35.8 35.64,497.36 39.79,508.99 26.09,-7.8 45.25,-11.17 71.73,-16.11 80.31,-15.01 163.39,-71.43 190.54,-148.47 16.59,-47.1 -12.6,-92.83 5.88,-143.11l67.2 -148.8c-1.32,-4.41 2.02,2.41 -2.55,-5.94 -2.4,-4.4 0.17,-0.12 -3.57,-5.44 -28.12,-39.98 -66.44,-112.79 -93.71,-158.91 37.03,-43.46 100.74,-108.98 107.34,-159.62 3.04,-23.31 -3.82,-48.53 -8.36,-73.4 -4.43,-24.31 -5.42,-55.7 -11.6,-70.53 72.27,-48.57 102.9,-67.06 158.08,-153.1 35.85,-55.89 62.67,-128.03 66.76,-181.42 4.68,-61.17 4.38,-113.82 -14.84,-173.4 -18.71,-57.98 -40.66,-109.8 -86.42,-166.29 -48.41,-59.74 -107.58,-102.81 -175.62,-130.91 -66.9,-27.62 -121.88,-31.72 -178.5,-31.85l-87.23 10.67c-75.88,16.06 -154.39,57.82 -212.44,113.9 -6.77,6.54 -34.99,33.17 -36.36,42.08l10.47 -6.62c21.57,20.13 21.33,32.09 48.68,43.73 53.81,-41.63 67.01,-80.64 150.74,-117.86 47.44,-21.09 107.22,-33.38 156.81,-31.46 35.39,1.37 122.66,12.34 161.37,35.01 106.57,62.4 191.65,161.55 212.13,285.01 7.36,44.41 14.26,113.39 1.76,157.67 -36.11,127.93 -120.42,221.8 -241,277.26 -1.26,10.64 2.3,29.04 4.58,40.68l20.85 123.32c0.75,14.71 -11.07,25.04 -24.97,44.3l-97.9 137.08c29.14,41.95 58.48,99.19 87.14,145.26 15.49,24.91 12.97,12.82 -9.63,77.17l-41.77 120.06c-8.2,22.82 -8.28,18.38 -2.97,38.3 1.98,7.41 6.94,71.64 4.37,77.56 -23.85,54.93 -109.11,94.88 -146.06,94.73 -3.8,-9.36 -2.36,-14.53 -2.67,-26.87 -1.61,-64.48 -7.75,-123.92 -9.5,-191.01 -0.49,-19.02 0.87,-35.88 -2.58,-54.86l-14.7 -272.21c-2.15,-15.85 -1.3,-37.93 -1.74,-54.95 -0.5,-19.2 -0.8,-35.85 -1.43,-55.01l-7.43 -109.43c-0.81,-37.44 -1.38,-72.73 -4.03,-109.28 -18.27,-9.93 -45.22,-6.96 -61.74,-10.33 -8.78,-1.79 -50.41,-21.78 -61.26,-26.97 -98.07,-46.85 -152.39,-139.21 -173.6,-239.78 -2.28,-10.83 -2.74,-19.83 -5.11,-29.86 -4.57,-19.29 -3.22,-42.46 -7.7,-59.32 -10.22,1.83 -18.9,1.9 -31.46,3.8 -10.83,1.64 -20.53,6.01 -32.48,-1.2z"/>
     <path class="fil9 str3" d="M739.44 989.72c36.26,-59.34 109.02,-70.63 156.73,-43.97 61.64,34.44 68.95,109.08 37.84,159.06 -81.76,131.34 -279.9,24.55 -194.57,-115.09zm-15.32 -15.36c-41.42,60.24 -34.25,145.89 32.32,190.22 57.53,38.31 147.04,23.8 192.48,-44.02 39.64,-59.18 32.07,-148.62 -36.57,-190.29 -57.84,-35.12 -142.49,-22.41 -188.22,44.1z"/>
     <path class="fil9" d="M450.02 1074.54c-51.23,80.26 72.01,158.12 123.35,70.03 18.13,-31.11 14,-76.41 -23.58,-97.45 -30.88,-17.28 -76.41,-9.15 -99.77,27.43z"/>
    </g>
    <polygon class="fil10 str2" points="289.5,2041.35 920.03,1702.69 626.44,2094.77 2152.08,869.57 1351.26,1373.38 1695.99,994.33 "/>
   </g>
  </g>
 </g>
</svg>
