<?xml version="1.0" encoding="UTF-8"?>
<!DOCTYPE svg PUBLIC "-//W3C//DTD SVG 1.1//EN" "http://www.w3.org/Graphics/SVG/1.1/DTD/svg11.dtd">
<!-- Creator: CorelDRAW 2021 (64 Bit) -->
<svg xmlns="http://www.w3.org/2000/svg" xml:space="preserve" width="46.5266mm" height="46.5042mm" version="1.1" style="shape-rendering:geometricPrecision; text-rendering:geometricPrecision; image-rendering:optimizeQuality; fill-rule:evenodd; clip-rule:evenodd"
viewBox="0 0 234.82 234.7"
 xmlns:xlink="http://www.w3.org/1999/xlink"
 xmlns:xodm="http://www.corel.com/coreldraw/odm/2003">
 <defs>
  <style type="text/css">
   <![CDATA[
    .str0 {stroke:#B8B4B6;stroke-width:21.37;stroke-miterlimit:22.9256}
    .str1 {stroke:black;stroke-width:17.09;stroke-linecap:round;stroke-linejoin:round;stroke-miterlimit:22.9256}
    .fil1 {fill:none}
    .fil0 {fill:white}
   ]]>
  </style>
 </defs>
 <g id="Camada_x0020_1">
  <metadata id="CorelCorpID_0Corel-Layer"/>
  <g id="_1249358250288">
   <g>
    <path class="fil0" d="M19.78 222.47l193.39 0c5.14,0 9.3,-4.76 9.3,-10.62l0 -190.86c0,-5.87 -4.17,-10.62 -9.3,-10.62l-193.39 -0c-5.14,0 -9.3,4.76 -9.3,10.63l-0 190.86c0,5.87 4.17,10.62 9.3,10.62z"/>
    <path class="fil0 str0" d="M20.27 224.02l194.51 0c5.17,0 9.36,-4.78 9.36,-10.69l0 -191.97c0,-5.9 -4.19,-10.69 -9.36,-10.69l-194.51 -0c-5.17,0 -9.36,4.79 -9.36,10.69 0,23.06 -0.34,185.92 -0.19,194.28 0.08,4.62 5.69,8.37 9.55,8.37z"/>
   </g>
   <path class="fil1 str1" d="M156.34 71.52c-26.57,14.7 -53.15,29.4 -79.72,44.1l79.11 45.7"/>
  </g>
 </g>
</svg>
