<?xml version="1.0" encoding="UTF-8"?>
<!DOCTYPE svg PUBLIC "-//W3C//DTD SVG 1.1//EN" "http://www.w3.org/Graphics/SVG/1.1/DTD/svg11.dtd">
<!-- Creator: CorelDRAW 2021 (64 Bit) -->
<svg xmlns="http://www.w3.org/2000/svg" xml:space="preserve" width="250px" height="250px" version="1.1" style="shape-rendering:geometricPrecision; text-rendering:geometricPrecision; image-rendering:optimizeQuality; fill-rule:evenodd; clip-rule:evenodd"
viewBox="0 0 17.22 17.22"
 xmlns:xlink="http://www.w3.org/1999/xlink"
 xmlns:xodm="http://www.corel.com/coreldraw/odm/2003">
 <defs>
  <style type="text/css">
   <![CDATA[
    .str0 {stroke:red;stroke-width:0.14;stroke-miterlimit:22.9256}
    .fil0 {fill:#FEFEFE}
    .fil2 {fill:black}
    .fil1 {fill:#B7B3B5}
   ]]>
  </style>
 </defs>
 <g id="Camada_x0020_1">
  <metadata id="CorelCorpID_0Corel-Layer"/>
  <rect class="fil0 str0" x="1.25" y="1.25" width="14.71" height="14.71"/>
  <path class="fil1" d="M1.59 1.57l14.05 0.01 -0.01 14.06 -14.06 0 0.02 -14.07zm-1.59 0.15l0 14.12c0,0.73 0.75,1.38 1.57,1.38l14.11 0c0.9,0 1.54,-0.71 1.54,-1.6l0 -14.02c0,-0.87 -0.64,-1.6 -1.47,-1.6l-14.28 0c-0.89,0 -1.47,0.79 -1.47,1.72z"/>
  <path class="fil2" d="M3.15 8.61l8.7 3.74c-0.03,-0.12 -0.41,-0.94 -0.55,-1.43 -0.16,-0.53 -0.29,-1.09 -0.34,-1.69 0.63,0 1.25,0 1.87,0 0.25,0 0.67,0.04 0.88,-0.06 0.19,-0.08 0.36,-0.27 0.36,-0.56 0,-0.75 -0.82,-0.63 -1.21,-0.63 -0.63,0 -1.26,0 -1.89,0 0.02,-0.74 0.3,-1.73 0.58,-2.4 0.08,-0.21 0.25,-0.53 0.3,-0.71 -0.3,0.08 -0.78,0.32 -1.09,0.45 -0.36,0.16 -0.73,0.31 -1.09,0.47l-6.52 2.82z"/>
 </g>
</svg>
