<?xml version="1.0" encoding="UTF-8"?>
<!DOCTYPE svg PUBLIC "-//W3C//DTD SVG 1.1//EN" "http://www.w3.org/Graphics/SVG/1.1/DTD/svg11.dtd">
<!-- Creator: CorelDRAW 2021 (64 Bit) -->
<svg xmlns="http://www.w3.org/2000/svg" xml:space="preserve" width="46.5666mm" height="46.5666mm" version="1.1" style="shape-rendering:geometricPrecision; text-rendering:geometricPrecision; image-rendering:optimizeQuality; fill-rule:evenodd; clip-rule:evenodd"
viewBox="0 0 324.78 324.78"
 xmlns:xlink="http://www.w3.org/1999/xlink"
 xmlns:xodm="http://www.corel.com/coreldraw/odm/2003">
 <defs>
  <style type="text/css">
   <![CDATA[
    .fil2 {fill:black}
    .fil1 {fill:#B7B3B5}
    .fil0 {fill:white}
   ]]>
  </style>
 </defs>
 <g id="Camada_x0020_1">
  <metadata id="CorelCorpID_0Corel-Layer"/>
  <g id="_2088558412928">
   <path class="fil0" d="M183.13 109.32c6.91,-3.01 13.83,-5.88 20.67,-8.86 5.69,-2.48 14.8,-7.01 20.51,-8.6 -0.89,3.37 -4.19,9.54 -5.73,13.35 -5.17,12.79 -10.5,31.34 -10.93,45.33 11.88,0 23.76,0 35.64,0 7.31,0 22.93,-2.19 22.88,11.85 -0.02,5.52 -3.24,9.08 -6.87,10.69 -3.94,1.75 -11.77,1.07 -16.6,1.07 -11.71,0 -23.41,0 -35.11,0 0.79,11.22 3.28,21.85 6.23,31.89 2.69,9.15 9.94,24.61 10.49,26.96l-164.17 -70.61 122.99 -53.07zm-153.57 185.62l265.34 0.06 0.18 -265.19 -265.12 -0.13 -0.4 265.26z"/>
   <path class="fil1" d="M29.96 29.68l265.12 0.13 -0.18 265.19 -265.34 -0.06 0.4 -265.26zm-29.96 2.8l0 266.32c0,13.75 14.17,25.98 29.53,25.98l266.32 0c16.84,0 28.94,-13.36 28.94,-30.12l0 -264.55c0,-16.39 -12.1,-30.12 -27.75,-30.12l-269.27 0c-16.85,0 -27.75,14.93 -27.75,32.48z"/>
   <path class="fil2" d="M60.14 162.39l164.17 70.61c-0.56,-2.35 -7.81,-17.81 -10.49,-26.96 -2.95,-10.04 -5.44,-20.67 -6.23,-31.89 11.7,0 23.41,0 35.11,0 4.83,0 12.66,0.68 16.6,-1.07 3.63,-1.61 6.84,-5.17 6.87,-10.69 0.06,-14.04 -15.57,-11.85 -22.88,-11.85 -11.88,0 -23.76,0 -35.64,0 0.43,-13.99 5.77,-32.54 10.93,-45.33 1.54,-3.81 4.84,-9.98 5.73,-13.35 -5.71,1.6 -14.82,6.13 -20.51,8.6 -6.83,2.98 -13.76,5.85 -20.67,8.86l-122.99 53.07z"/>
  </g>
 </g>
</svg>
