<?xml version="1.0" encoding="UTF-8"?>
<!DOCTYPE svg PUBLIC "-//W3C//DTD SVG 1.1//EN" "http://www.w3.org/Graphics/SVG/1.1/DTD/svg11.dtd">
<!-- Creator: CorelDRAW 2021 (64 Bit) -->
<svg xmlns="http://www.w3.org/2000/svg" xml:space="preserve" width="400px" height="400px" version="1.1" style="shape-rendering:geometricPrecision; text-rendering:geometricPrecision; image-rendering:optimizeQuality; fill-rule:evenodd; clip-rule:evenodd"
viewBox="0 0 18.86 18.86"
 xmlns:xlink="http://www.w3.org/1999/xlink"
 xmlns:xodm="http://www.corel.com/coreldraw/odm/2003">
 <defs>
  <style type="text/css">
   <![CDATA[
    .str2 {stroke:#AEA19E;stroke-width:0.75;stroke-miterlimit:22.9256;stroke-opacity:0.949020}
    .str0 {stroke:#B8B4B6;stroke-width:1.41;stroke-miterlimit:22.9256}
    .str1 {stroke:white;stroke-width:0.09;stroke-miterlimit:22.9256}
    .str3 {stroke:black;stroke-width:0.57;stroke-miterlimit:22.9256}
    .fil4 {fill:none}
    .fil1 {fill:#E6E7E8}
    .fil5 {fill:black}
    .fil9 {fill:#008CFF}
    .fil11 {fill:#04F9FD}
    .fil8 {fill:#333333}
    .fil10 {fill:#60FE04}
    .fil19 {fill:#615E5C}
    .fil18 {fill:#A7A786}
    .fil15 {fill:#BF08FC}
    .fil17 {fill:#D2AD6D}
    .fil12 {fill:#FA0404}
    .fil14 {fill:#FDFD00}
    .fil6 {fill:#FDFDCA}
    .fil13 {fill:#FE9800}
    .fil7 {fill:#FEFEFE}
    .fil16 {fill:#FF4CE7}
    .fil0 {fill:white}
    .fil2 {fill:#333333;fill-rule:nonzero}
    .fil3 {fill:#FEFEFE;fill-rule:nonzero;fill-opacity:0.949020}
   ]]>
  </style>
 </defs>
 <g id="Camada_x0020_1">
  <metadata id="CorelCorpID_0Corel-Layer"/>
  <g id="_2069524458160">
   <path class="fil0 str0" d="M1.49 0.71l15.89 0c0.43,0 0.77,0.39 0.77,0.87l0 15.7c0,0.48 -0.34,0.87 -0.77,0.87l-15.89 0c-0.42,0 -0.76,-0.39 -0.76,-0.87 0,-1.89 -0.03,-15.21 -0.02,-15.89 0.01,-0.38 0.47,-0.68 0.78,-0.68z"/>
   <g>
    <g>
     <rect class="fil1 str1" x="3.29" y="10.8" width="2.19" height="5.16"/>
     <path class="fil2" d="M9.12 16.29c-0.42,0 -0.84,-0.16 -1.24,-0.31 -0.44,-0.17 -0.9,-0.35 -1.36,-0.31l-1.12 0.11 0 -4.45 0.61 -0.05c0.38,-0.04 0.7,0.11 1.01,0.26 0.28,0.14 0.56,0.27 0.87,0.24l2 -0.37c0.72,-0.13 1.12,0.3 1.36,0.68l2.19 -1.04c0.82,-0.38 1.75,0 2.31,0.95 0.14,0.25 0.06,0.58 -0.18,0.74 -0.29,0.18 -0.57,0.36 -0.85,0.54 -2.44,1.56 -4.56,2.92 -5.46,3 -0.05,0 -0.1,0.01 -0.14,0.01zm-2.46 -0.93c0.46,0 0.9,0.17 1.32,0.33 0.44,0.16 0.85,0.32 1.25,0.28 0.84,-0.07 3.02,-1.47 5.33,-2.95 0.28,-0.18 0.56,-0.36 0.85,-0.55 0.11,-0.06 0.14,-0.21 0.08,-0.31 -0.47,-0.81 -1.25,-1.14 -1.93,-0.83l-2.43 1.16c-0.01,-0.16 -0.13,-0.35 -0.19,-0.43 -0.23,-0.28 -0.66,-0.41 -0.99,-0.35l-2.02 0.37c-0.41,0.04 -0.73,-0.11 -1.04,-0.26 -0.28,-0.14 -0.55,-0.27 -0.85,-0.24l-0.34 0.03 0 3.83 0.8 -0.07c0.05,-0.01 0.11,-0.01 0.16,-0.01z"/>
     <path class="fil3 str2" d="M5.2 16.29l-1.72 0c-0.28,0 -0.51,-0.24 -0.51,-0.52l0 -4.72c0,-0.29 0.23,-0.52 0.51,-0.52l1.72 0c0.28,0 0.5,0.23 0.5,0.52l0 4.72c0,0.28 -0.22,0.52 -0.5,0.52zm-1.72 -5.45c-0.11,0 -0.21,0.09 -0.21,0.21l0 4.72c0,0.11 0.1,0.21 0.21,0.21l1.72 0c0.11,0 0.2,-0.1 0.2,-0.21l0 -4.72c0,-0.12 -0.09,-0.21 -0.2,-0.21l-1.72 0z"/>
     <path class="fil4 str3" d="M11.25 12.41c0.03,0.07 0.04,0.2 -0.05,0.34 -0.13,0.21 -0.42,0.37 -1.14,0.29 -0.54,-0.07 -1.18,0.06 -1.73,0.12"/>
    </g>
    <g>
     <path class="fil5" d="M9.71 9.44c-0.19,0.68 -1.16,0.42 -1.01,-0.26 0.06,-0.25 0.31,-0.47 0.64,-0.39 0.22,0.06 0.45,0.33 0.37,0.65zm1.33 -0.98c-0.11,-0.71 0.91,-0.85 1.02,-0.19 0.13,0.73 -0.92,0.85 -1.02,0.19zm-3.56 0.02c-0.2,0.64 -1.18,0.39 -1,-0.3 0.18,-0.68 1.2,-0.37 1,0.3zm1.04 -1.08l1.53 0c0,0 -0.01,0 -0.01,0.01 -0.04,0.12 -1,0.38 -1.48,0.03 -0.03,-0.03 -0.02,-0.02 -0.04,-0.04zm0.42 -0.71l-0.22 0 0 0.47 -0.19 0c-0.02,-0.15 -0.01,-0.68 0.01,-0.8 0.12,-0.05 1.43,-0.06 1.52,0 0.06,0.1 0.05,0.63 0.02,0.79l-0.12 0.01 -0.02 -0.48 -0.22 -0.02 0 0.5 -0.77 0 -0.01 -0.47zm-3.37 -0.6c-0.06,-0.72 0.97,-0.77 1.03,-0.1 0.05,0.72 -0.99,0.77 -1.03,0.1zm6.42 -0.03c-0.1,-0.7 0.91,-0.84 1.02,-0.19 0.06,0.33 -0.16,0.59 -0.42,0.63 -0.3,0.04 -0.56,-0.18 -0.6,-0.44zm-3.71 1.18c-0.02,-0.03 -0.82,-0.67 -0.45,-1.74 0.45,-1.31 2.3,-1.44 2.88,-0.09 0.13,0.31 0.16,0.69 0.07,1.03 -0.1,0.44 -0.29,0.55 -0.45,0.76 -0.05,-0.28 0.07,-0.79 -0.08,-0.99 -0.15,-0.19 -1.09,-0.12 -1.49,-0.12 -0.74,0 -0.36,0.69 -0.48,1.15zm3.22 -3.98c0.31,-0.08 0.55,0.14 0.61,0.38 0.08,0.32 -0.13,0.59 -0.37,0.65 -0.65,0.16 -0.94,-0.85 -0.24,-1.03zm-4.63 -0.05c0.31,-0.11 0.58,0.12 0.65,0.35 0.09,0.31 -0.11,0.58 -0.33,0.65 -0.65,0.21 -0.99,-0.77 -0.32,-1zm2.32 -0.98c0.66,-0.22 0.97,0.79 0.31,1.01 -0.64,0.2 -0.97,-0.79 -0.31,-1.01zm0.38 2.03l-0.15 -0.02 0.04 -0.54 0 -0.24c0.11,-0.08 0.62,-0.18 0.59,-0.77 -0.04,-0.89 -1.34,-0.9 -1.41,-0.02 -0.01,0.21 0.06,0.39 0.17,0.52 0.22,0.25 0.28,0.18 0.41,0.27l-0.01 0.75c-0.36,0.1 -0.43,0.02 -0.86,0.28 -0.11,0.07 -0.15,0.11 -0.24,0.17l-0.52 -0.5c0.06,-0.19 0.16,-0.25 0.13,-0.53 -0.06,-0.58 -0.77,-0.85 -1.17,-0.45 -0.61,0.6 0.09,1.59 0.85,1.14l0.54 0.52c-0.24,0.28 -0.4,0.67 -0.43,1.07l-0.74 0.01c-0.12,-0.87 -1.39,-0.76 -1.39,0.12 0,0.88 1.27,0.99 1.39,0.12l0.74 0c0.04,0.5 0.2,0.75 0.4,1.05 -0.05,0.05 -0.08,0.07 -0.13,0.12 -0.14,0.15 -0.21,0.24 -0.4,0.39 -0.24,-0.08 -0.58,-0.28 -0.95,0.16 -0.27,0.32 -0.16,0.75 0.08,0.99 0.35,0.34 1.09,0.18 1.17,-0.44 0.03,-0.27 -0.05,-0.36 -0.13,-0.54 0.14,-0.1 0.33,-0.37 0.53,-0.5 0.07,0.04 0.13,0.1 0.21,0.16 0.25,0.17 0.56,0.29 0.87,0.31l-0.03 0.72c-0.17,0.09 -0.29,0.06 -0.44,0.22 -0.08,0.09 -0.19,0.29 -0.19,0.49 -0.01,0.39 0.29,0.71 0.64,0.74 0.56,0.04 1,-0.59 0.63,-1.15 -0.11,-0.18 -0.19,-0.17 -0.4,-0.28l0.03 -0.74c0.82,-0.13 0.63,-0.22 1.1,-0.46l0.49 0.49c-0.04,0.14 -0.35,0.55 0.06,0.99 0.55,0.59 1.59,-0.16 1.06,-0.94 -0.07,-0.11 -0.2,-0.22 -0.39,-0.27 -0.25,-0.07 -0.35,0.01 -0.55,0.08l-0.52 -0.5c0.04,-0.11 0.18,-0.25 0.27,-0.48 0.08,-0.2 0.12,-0.37 0.14,-0.6l0.77 -0.01c0.18,0.82 1.47,0.65 1.37,-0.26 -0.03,-0.35 -0.33,-0.65 -0.7,-0.65 -0.4,0.01 -0.66,0.29 -0.7,0.67l-0.74 0c-0.04,-0.46 -0.21,-0.77 -0.4,-1.04l0.53 -0.51c0.19,0.05 0.25,0.16 0.54,0.12 0.55,-0.09 0.79,-0.81 0.37,-1.23 -0.42,-0.42 -1.08,-0.16 -1.18,0.37 -0.05,0.28 0.04,0.38 0.11,0.57 -0.23,0.17 -0.41,0.43 -0.55,0.5 -0.23,-0.19 -0.57,-0.46 -0.91,-0.44z"/>
     <path class="fil6" d="M9.13 4.6c0.45,-0.11 0.79,0.21 0.87,0.55 0.1,0.45 -0.21,0.81 -0.53,0.89 -0.93,0.24 -1.31,-1.21 -0.34,-1.44zm-0.85 2.64c0.12,-0.46 -0.26,-1.15 0.48,-1.15 0.4,0 1.34,-0.07 1.49,0.12 0.15,0.2 0.03,0.71 0.08,0.99 0.16,-0.21 0.35,-0.32 0.45,-0.76 0.09,-0.34 0.06,-0.72 -0.07,-1.03 -0.58,-1.35 -2.43,-1.22 -2.88,0.09 -0.37,1.07 0.43,1.71 0.45,1.74z"/>
     <path class="fil7" d="M4.99 4.31c-0.09,0.13 0.07,0.21 -0.1,0.3 -0.39,0.23 -0.26,-0.07 -0.48,-0.07 -0.23,0 -0.05,0.25 -0.39,0.11 -0.32,-0.14 -0.06,-0.2 -0.19,-0.36 -0.07,-0.08 -0.17,-0.03 -0.29,-0.04 -0.29,-0.53 0.04,-0.33 0.03,-0.58 -0.01,-0.26 -0.3,0 -0.03,-0.55 0.19,-0.03 0.34,0.07 0.32,-0.22 -0.01,-0.14 0.01,-0.13 0.12,-0.17 0.09,-0.03 0.15,-0.07 0.25,-0.06 0.04,0.07 0.08,0.17 0.2,0.15 0.22,-0.02 0.04,-0.24 0.38,-0.1 0.33,0.13 0.03,0.22 0.2,0.36 0.08,0.07 0.19,0.02 0.28,0.04 0.28,0.55 -0.05,0.31 -0.04,0.57 0.02,0.24 0.31,0.03 0.03,0.56 -0.12,0.01 -0.23,-0.05 -0.29,0.06zm-1.22 -1.8c0.06,0.38 -0.14,0.57 -0.51,0.51l-0.11 0.29c0.06,0.07 0.22,0.12 0.22,0.36 0.01,0.2 -0.1,0.3 -0.22,0.35l0.12 0.33c0.36,-0.08 0.56,0.13 0.49,0.5l0.3 0.12c0.1,-0.1 0.13,-0.22 0.35,-0.22 0.23,0 0.26,0.12 0.35,0.22l0.3 -0.12c-0.08,-0.38 0.15,-0.57 0.5,-0.5l0.12 -0.32c-0.31,-0.13 -0.3,-0.58 0,-0.69l-0.12 -0.32c-0.36,0.06 -0.57,-0.12 -0.5,-0.5l-0.29 -0.13c-0.22,0.28 -0.46,0.32 -0.67,0.05l-0.04 -0.05 -0.29 0.12z"/>
     <path class="fil7" d="M13.9 2.67c0.25,0.35 0.33,0.02 0.4,0 0.05,-0.02 0.31,0.08 0.34,0.13 0.03,0.11 -0.05,0.18 0.03,0.27 0.08,0.09 0.19,0.03 0.29,0.05 0.28,0.53 -0.02,0.32 -0.03,0.55 -0.01,0.25 0.32,0.05 0.03,0.58 -0.12,0.01 -0.22,-0.04 -0.29,0.04 -0.14,0.17 0.14,0.22 -0.19,0.36 -0.34,0.14 -0.16,-0.11 -0.39,-0.11 -0.22,0 -0.08,0.3 -0.48,0.07 -0.17,-0.09 -0.01,-0.17 -0.09,-0.3 -0.07,-0.11 -0.17,-0.05 -0.3,-0.07 -0.03,-0.05 -0.07,-0.13 -0.1,-0.21 -0.11,-0.28 0.18,-0.15 0.12,-0.4 -0.05,-0.22 -0.27,0.03 -0.03,-0.51 0.2,-0.03 0.35,0.08 0.33,-0.22 -0.01,-0.14 0.01,-0.13 0.12,-0.17 0.09,-0.03 0.14,-0.07 0.24,-0.06zm-0.46 -0.15c0.07,0.37 -0.13,0.56 -0.5,0.5l-0.11 0.29 0.07 0.07c0.23,0.17 0.19,0.52 -0.07,0.64l0.12 0.32c0.35,-0.06 0.57,0.13 0.49,0.51l0.29 0.12c0.1,-0.1 0.13,-0.22 0.36,-0.22 0.22,0 0.25,0.12 0.35,0.22l0.3 -0.12c-0.08,-0.37 0.14,-0.57 0.5,-0.5l0.12 -0.32c-0.31,-0.13 -0.31,-0.57 -0.01,-0.69l-0.12 -0.32c-0.36,0.06 -0.55,-0.12 -0.5,-0.5l-0.29 -0.13c-0.09,0.11 -0.14,0.23 -0.35,0.23 -0.22,0 -0.25,-0.12 -0.35,-0.23l-0.3 0.13z"/>
     <path class="fil7" d="M3.86 7.52c0.45,-0.31 0.34,0.03 0.55,0.03 0.28,-0.01 -0.02,-0.3 0.55,-0.04 0.01,0.1 -0.04,0.22 0.04,0.3 0.08,0.07 0.17,0.01 0.27,0.04 0.06,0.08 0.14,0.24 0.13,0.37 -0.21,0.13 -0.21,0.24 -0.01,0.37 0.02,0.14 -0.06,0.3 -0.12,0.38 -0.11,0.02 -0.21,-0.03 -0.28,0.05 -0.07,0.08 -0.02,0.18 -0.03,0.29 -0.58,0.27 -0.27,-0.07 -0.57,-0.04 -0.21,0.01 -0.04,0.32 -0.53,0.02 -0.02,-0.11 0.02,-0.21 -0.06,-0.28 -0.07,-0.07 -0.15,-0.03 -0.25,-0.04 -0.06,-0.06 -0.14,-0.22 -0.13,-0.35 0.06,-0.08 0.15,-0.08 0.15,-0.21 0,-0.14 -0.08,-0.14 -0.15,-0.22 -0.01,-0.12 0.07,-0.28 0.13,-0.35 0.09,-0.01 0.19,0.03 0.26,-0.03 0.09,-0.07 0.03,-0.17 0.05,-0.29zm-0.1 -0.28c0.07,0.37 -0.12,0.57 -0.49,0.5l-0.13 0.31c0.11,0.09 0.23,0.13 0.23,0.36 0,0.24 -0.13,0.26 -0.22,0.36l0.12 0.3c0.37,-0.11 0.55,0.16 0.49,0.51l0.31 0.12c0.16,-0.31 0.53,-0.31 0.67,0l0.31 -0.12c-0.06,-0.4 0.13,-0.56 0.5,-0.51l0.12 -0.3c-0.11,-0.11 -0.22,-0.15 -0.22,-0.36 0,-0.22 0.11,-0.26 0.22,-0.36l-0.13 -0.31c-0.36,0.09 -0.54,-0.16 -0.48,-0.51l-0.3 -0.11c-0.09,0.08 -0.1,0.22 -0.35,0.22 -0.2,0 -0.25,-0.11 -0.35,-0.22l-0.3 0.12z"/>
     <path class="fil7" d="M13.53 7.52c0.05,-0.03 0.13,-0.07 0.2,-0.1 0.29,-0.11 0.16,0.21 0.42,0.12 0.21,-0.07 -0.07,-0.26 0.48,-0.03 0.02,0.12 -0.04,0.22 0.04,0.3 0.09,0.09 0.17,0.01 0.26,0.04 0.06,0.03 0.04,0.03 0.1,0.17 0.04,0.1 0.05,0.09 0.04,0.21 -0.33,0.23 -0.02,0.33 0,0.39 0,0.12 -0.07,0.28 -0.13,0.35 -0.09,0.02 -0.19,-0.02 -0.26,0.04 -0.07,0.06 -0.04,0.13 -0.04,0.22 -0.01,0.12 -0.23,0.2 -0.36,0.2 -0.06,-0.06 -0.07,-0.13 -0.15,-0.16 -0.25,-0.06 -0.11,0.25 -0.4,0.13 -0.07,-0.03 -0.16,-0.07 -0.2,-0.1 -0.02,-0.16 0.03,-0.17 -0.04,-0.3 -0.12,-0.04 -0.14,-0.01 -0.27,-0.02 -0.06,-0.07 -0.13,-0.23 -0.13,-0.36 0.07,-0.07 0.16,-0.08 0.15,-0.21 0,-0.14 -0.09,-0.13 -0.15,-0.22 0,-0.12 0.08,-0.28 0.14,-0.35 0.09,-0.01 0.17,0.04 0.25,-0.03 0.08,-0.07 0.04,-0.17 0.05,-0.29zm-0.1 -0.28c0.05,0.35 -0.11,0.62 -0.49,0.5l-0.12 0.31c0.09,0.1 0.22,0.11 0.22,0.36 0,0.23 -0.11,0.26 -0.22,0.36l0.12 0.31c0.37,-0.08 0.56,0.13 0.49,0.5l0.31 0.13c0.07,-0.18 0.36,-0.41 0.66,-0.05 0.02,0.03 0.02,0.03 0.04,0.04l0.29 -0.12c-0.07,-0.36 0.13,-0.57 0.48,-0.51l0.14 -0.3c-0.12,-0.1 -0.23,-0.15 -0.23,-0.36 0,-0.23 0.12,-0.25 0.22,-0.36l-0.11 -0.3c-0.39,0.04 -0.56,-0.11 -0.5,-0.52l-0.29 -0.11c-0.1,0.08 -0.1,0.22 -0.35,0.23 -0.19,0 -0.29,-0.11 -0.35,-0.23l-0.31 0.12z"/>
     <path class="fil8" d="M14.4 9.66c-0.3,-0.36 -0.59,-0.13 -0.66,0.05l-0.31 -0.13c0.07,-0.37 -0.12,-0.58 -0.49,-0.5l-0.12 -0.31c0.11,-0.1 0.22,-0.13 0.22,-0.36 0,-0.25 -0.13,-0.26 -0.22,-0.36l0.12 -0.31c0.38,0.12 0.54,-0.15 0.49,-0.5l0.31 -0.12c0.06,0.12 0.16,0.23 0.35,0.23 0.25,-0.01 0.25,-0.15 0.35,-0.23l0.29 0.11c-0.06,0.41 0.11,0.56 0.5,0.52l0.11 0.3c-0.1,0.11 -0.22,0.13 -0.22,0.36 0,0.21 0.11,0.26 0.23,0.36l-0.14 0.3c-0.35,-0.06 -0.55,0.15 -0.48,0.51l-0.29 0.12c-0.02,-0.01 -0.02,-0.01 -0.04,-0.04zm-1.72 -0.94c0,0.12 0.05,0.2 0.09,0.32 0.05,0.11 0.07,0.19 0.21,0.17 0.15,-0.01 0.21,-0.02 0.29,0.09 0.1,0.13 0,0.18 0.03,0.35 0.08,0.08 0.35,0.21 0.51,0.19 0.08,-0.08 0.08,-0.23 0.28,-0.22 0.33,0.01 0.03,0.37 0.59,0.13 0.12,-0.05 0.2,-0.05 0.19,-0.21 -0.06,-0.49 0.26,-0.27 0.41,-0.34 0.08,-0.03 0.15,-0.24 0.18,-0.34 0.08,-0.22 -0.07,-0.2 -0.16,-0.31 -0.1,-0.14 -0.01,-0.28 0.09,-0.34 0.16,-0.1 0.09,-0.18 0.03,-0.35 -0.06,-0.15 -0.07,-0.27 -0.24,-0.25 -0.18,0.03 -0.31,-0.01 -0.33,-0.18 -0.02,-0.22 0.11,-0.24 -0.13,-0.34 -0.14,-0.06 -0.23,-0.13 -0.39,-0.1 -0.06,0.1 -0.1,0.25 -0.3,0.21 -0.22,-0.05 -0.11,-0.24 -0.31,-0.22 -0.05,0 -0.34,0.13 -0.38,0.16 -0.11,0.11 0.04,0.27 -0.09,0.41 -0.14,0.15 -0.29,-0.02 -0.4,0.09 -0.03,0.03 -0.16,0.34 -0.17,0.39 -0.02,0.19 0.18,0.15 0.22,0.33 0.03,0.22 -0.14,0.23 -0.22,0.36z"/>
     <path class="fil8" d="M14.44 4.97c-0.1,-0.1 -0.13,-0.22 -0.35,-0.22 -0.23,0 -0.26,0.12 -0.36,0.22l-0.29 -0.12c0.08,-0.38 -0.14,-0.57 -0.49,-0.51l-0.12 -0.32c0.26,-0.12 0.3,-0.47 0.07,-0.64l-0.07 -0.07 0.11 -0.29c0.37,0.06 0.57,-0.13 0.5,-0.5l0.3 -0.13c0.1,0.11 0.13,0.23 0.35,0.23 0.21,0 0.26,-0.12 0.35,-0.23l0.29 0.13c-0.05,0.38 0.14,0.56 0.5,0.5l0.12 0.32c-0.3,0.12 -0.3,0.56 0.01,0.69l-0.12 0.32c-0.36,-0.07 -0.58,0.13 -0.5,0.5l-0.3 0.12zm-1.75 -1c-0.02,0.14 0.12,0.43 0.19,0.51 0.07,0.04 0.48,-0.16 0.42,0.33 -0.03,0.24 0.47,0.31 0.51,0.3 0.09,-0.08 0.12,-0.22 0.28,-0.22 0.18,0 0.17,0.15 0.3,0.23 0,0 0.51,-0.06 0.48,-0.31 -0.01,-0.15 0,-0.23 0.08,-0.3 0.25,-0.19 0.29,0.27 0.52,-0.38 0.09,-0.24 -0.1,-0.19 -0.17,-0.31 -0.1,-0.19 0.02,-0.28 0.12,-0.36 0.14,-0.11 0.04,-0.23 -0.02,-0.39 -0.1,-0.26 -0.07,-0.18 -0.31,-0.17 -0.15,0 -0.25,-0.11 -0.23,-0.27 0.03,-0.24 0.02,-0.21 -0.19,-0.3 -0.15,-0.06 -0.25,-0.15 -0.36,-0.01 -0.07,0.1 -0.16,0.21 -0.33,0.13 -0.14,-0.07 -0.08,-0.26 -0.29,-0.19 -0.07,0.02 -0.32,0.13 -0.36,0.16 -0.09,0.11 0.06,0.3 -0.08,0.42 -0.14,0.13 -0.32,-0.05 -0.42,0.1 -0.02,0.03 -0.14,0.34 -0.14,0.38 -0.01,0.16 0.18,0.13 0.21,0.31 0.05,0.23 -0.12,0.24 -0.21,0.34z"/>
     <path class="fil8" d="M4.74 9.7c-0.14,-0.31 -0.51,-0.31 -0.67,0l-0.31 -0.12c0.06,-0.35 -0.12,-0.62 -0.49,-0.51l-0.12 -0.3c0.09,-0.1 0.22,-0.12 0.22,-0.36 0,-0.23 -0.12,-0.27 -0.23,-0.36l0.13 -0.31c0.37,0.07 0.56,-0.13 0.49,-0.5l0.3 -0.12c0.1,0.11 0.15,0.22 0.35,0.22 0.25,0 0.26,-0.14 0.35,-0.22l0.3 0.11c-0.06,0.35 0.12,0.6 0.48,0.51l0.13 0.31c-0.11,0.1 -0.22,0.14 -0.22,0.36 0,0.21 0.11,0.25 0.22,0.36l-0.12 0.3c-0.37,-0.05 -0.56,0.11 -0.5,0.51l-0.31 0.12zm-1.72 -1.57c0.07,0.1 0.22,0.09 0.21,0.3 -0.03,0.32 -0.36,0.01 -0.13,0.6 0.15,0.38 0.33,0.01 0.5,0.26 0.09,0.14 0,0.19 0.03,0.34 0.07,0.09 0.34,0.23 0.5,0.2 0.08,-0.06 0.15,-0.31 0.39,-0.19 0.17,0.09 0.06,0.29 0.38,0.15 0.22,-0.09 0.31,-0.05 0.28,-0.31 -0.03,-0.27 0.13,-0.29 0.34,-0.27 0.16,0.02 0.2,-0.17 0.26,-0.34 0.12,-0.29 -0.12,-0.18 -0.18,-0.39 -0.08,-0.28 0.18,-0.25 0.21,-0.39 0.01,-0.08 -0.13,-0.43 -0.17,-0.46 -0.11,-0.09 -0.33,0.09 -0.44,-0.12 -0.1,-0.23 0.15,-0.31 -0.16,-0.43 -0.21,-0.08 -0.29,-0.2 -0.43,0 -0.12,0.18 -0.31,0.15 -0.41,-0.01 -0.1,-0.19 -0.25,-0.07 -0.43,0.01 -0.32,0.13 -0.03,0.22 -0.16,0.43 -0.14,0.21 -0.34,0.01 -0.45,0.14 -0.07,0.09 -0.18,0.38 -0.14,0.48z"/>
     <path class="fil8" d="M4.06 2.39l0.04 0.05c0.21,0.27 0.45,0.23 0.67,-0.05l0.29 0.13c-0.07,0.38 0.14,0.56 0.5,0.5l0.12 0.32c-0.3,0.11 -0.31,0.56 0,0.69l-0.12 0.32c-0.35,-0.07 -0.58,0.12 -0.5,0.5l-0.3 0.12c-0.09,-0.1 -0.12,-0.22 -0.35,-0.22 -0.22,0 -0.25,0.12 -0.35,0.22l-0.3 -0.12c0.07,-0.37 -0.13,-0.58 -0.49,-0.5l-0.12 -0.33c0.12,-0.05 0.23,-0.15 0.22,-0.35 0,-0.24 -0.16,-0.29 -0.22,-0.36l0.11 -0.29c0.37,0.06 0.57,-0.13 0.51,-0.51l0.29 -0.12zm-1.04 1.57c-0.03,0.15 0.11,0.44 0.19,0.52 0.05,0.02 0.48,-0.13 0.42,0.31 -0.02,0.15 0.03,0.17 0.15,0.22 0.1,0.04 0.21,0.11 0.33,0.1 0.12,-0.07 0.2,-0.32 0.42,-0.19 0.19,0.12 0.04,0.29 0.4,0.14 0.42,-0.17 0.23,-0.16 0.25,-0.38 0.03,-0.31 0.39,-0.17 0.44,-0.2 0.07,-0.07 0.13,-0.23 0.18,-0.35 0.07,-0.23 -0.09,-0.2 -0.17,-0.32 -0.12,-0.18 0.03,-0.28 0.12,-0.35 0.13,-0.11 0.03,-0.24 -0.02,-0.39 -0.1,-0.25 -0.08,-0.18 -0.31,-0.17 -0.16,0 -0.25,-0.11 -0.23,-0.28 0.02,-0.23 0.01,-0.2 -0.19,-0.29 -0.14,-0.06 -0.27,-0.15 -0.36,-0.01 -0.06,0.08 -0.03,0.1 -0.13,0.14 -0.32,0.12 -0.25,-0.28 -0.5,-0.2 -0.67,0.19 -0.21,0.38 -0.43,0.58 -0.15,0.13 -0.33,-0.05 -0.42,0.1 -0.02,0.03 -0.15,0.34 -0.15,0.38 0,0.16 0.18,0.14 0.22,0.31 0.04,0.23 -0.13,0.24 -0.21,0.33z"/>
     <path class="fil7" d="M13.94 7.9c0.65,-0.21 0.94,0.82 0.3,1.02 -0.66,0.21 -0.99,-0.79 -0.3,-1.02zm-0.31 -0.32c0.02,0.27 -0.1,0.4 -0.37,0.36l-0.08 0.24c0.19,0.06 0.19,0.27 0.12,0.38l-0.1 0.1c0,0 -0.01,0.01 -0.01,0.01l0.08 0.21c0.28,-0.06 0.39,0.1 0.35,0.36l0.21 0.09c0.07,-0.07 0.11,-0.15 0.23,-0.16 0.15,-0.01 0.22,0.07 0.25,0.16l0.23 -0.09c-0.06,-0.39 0.21,-0.36 0.35,-0.37l0.08 -0.2c-0.13,-0.16 -0.26,-0.22 -0.03,-0.49 0.03,-0.02 0.02,-0.01 0.03,-0.04l-0.07 -0.19c-0.3,-0.01 -0.38,-0.05 -0.36,-0.38l-0.22 -0.08c-0.04,0.1 -0.09,0.16 -0.23,0.16 -0.15,0.01 -0.19,-0.08 -0.26,-0.15l-0.2 0.08z"/>
     <path class="fil7" d="M4.25 7.9c0.69,-0.21 0.94,0.82 0.31,1.02 -0.67,0.21 -0.96,-0.82 -0.31,-1.02zm-0.3 -0.32c0.03,0.26 -0.08,0.41 -0.35,0.35l-0.09 0.21 0.11 0.1c0.03,0.04 0.05,0.1 0.05,0.17 0,0.05 -0.02,0.1 -0.04,0.15l-0.06 0.06c-0.01,0 -0.01,0.01 -0.02,0.01 -0.03,0.03 -0.01,0.01 -0.03,0.04l0.07 0.21c0.28,-0.05 0.38,0.1 0.36,0.36l0.2 0.08c0.08,-0.07 0.11,-0.15 0.24,-0.16 0.15,0 0.22,0.07 0.25,0.16l0.22 -0.08c-0.03,-0.32 0.08,-0.37 0.37,-0.37l0.07 -0.2c-0.06,-0.08 -0.15,-0.11 -0.15,-0.26 0,-0.14 0.08,-0.19 0.15,-0.27l-0.08 -0.19c-0.27,0 -0.39,-0.07 -0.35,-0.38l-0.23 -0.08c-0.03,0.09 -0.09,0.16 -0.23,0.16 -0.14,0 -0.18,-0.09 -0.25,-0.16l-0.21 0.09z"/>
     <path class="fil7" d="M13.97 3.16c0.67,-0.17 0.9,0.88 0.24,1.04 -0.68,0.17 -0.91,-0.87 -0.24,-1.04zm-0.34 -0.3c0.06,0.27 -0.11,0.38 -0.36,0.35l-0.08 0.23c0.09,0.04 0.16,0.09 0.16,0.23 0,0.16 -0.08,0.19 -0.15,0.27l0.08 0.21c0.25,-0.03 0.42,0.08 0.35,0.36l0.2 0.09 0.04 -0.05c0.25,-0.27 0.42,0 0.47,0.04l0.21 -0.08c-0.06,-0.27 0.1,-0.39 0.35,-0.36l0.08 -0.21c-0.07,-0.07 -0.15,-0.11 -0.15,-0.24 -0.01,-0.15 0.07,-0.22 0.15,-0.25l-0.08 -0.24c-0.26,0.04 -0.4,-0.09 -0.35,-0.35l-0.2 -0.09c-0.09,0.07 -0.1,0.16 -0.26,0.16 -0.14,-0.01 -0.19,-0.1 -0.26,-0.16l-0.2 0.09z"/>
     <path class="fil7" d="M4.3 3.16c0.65,-0.16 0.92,0.88 0.23,1.04 -0.67,0.17 -0.92,-0.87 -0.23,-1.04zm-0.35 -0.3c0.06,0.27 -0.1,0.38 -0.35,0.35l-0.09 0.23c0.09,0.04 0.16,0.09 0.16,0.23 0.01,0.16 -0.07,0.19 -0.15,0.27l0.08 0.21c0.24,-0.02 0.42,0.08 0.35,0.36l0.21 0.09c0.07,-0.06 0.09,-0.16 0.25,-0.16 0.15,0 0.2,0.09 0.26,0.16l0.2 -0.09c-0.06,-0.27 0.11,-0.39 0.36,-0.36l0.08 -0.21c-0.08,-0.07 -0.15,-0.11 -0.16,-0.24 0,-0.16 0.07,-0.22 0.16,-0.25l-0.08 -0.24c-0.26,0.04 -0.41,-0.09 -0.36,-0.35l-0.2 -0.09c-0.08,0.06 -0.1,0.16 -0.26,0.16 -0.15,0 -0.17,-0.1 -0.25,-0.16l-0.21 0.09z"/>
     <path class="fil6" d="M8.94 6.69c0.06,0.09 0.02,0.32 0.02,0.45l0.74 0c0,-0.41 -0.06,-0.49 0.09,-0.5 0.06,0 0.13,-0.01 0.15,0.04l0.02 0.48 0.12 -0.01c0.03,-0.16 0.04,-0.69 -0.02,-0.79 -0.09,-0.06 -1.4,-0.05 -1.52,0 -0.02,0.12 -0.03,0.65 -0.01,0.8l0.19 0 0 -0.47 0.22 0z"/>
     <path class="fil5" d="M9.17 4.83c0.62,-0.16 0.87,0.81 0.25,0.98 -0.29,0.08 -0.55,-0.13 -0.61,-0.35 -0.08,-0.32 0.13,-0.57 0.36,-0.63zm-0.04 -0.23c-0.97,0.23 -0.59,1.68 0.34,1.44 0.32,-0.08 0.63,-0.44 0.53,-0.89 -0.08,-0.34 -0.42,-0.66 -0.87,-0.55z"/>
     <path class="fil9" d="M7.48 8.48c0.2,-0.67 -0.82,-0.98 -1,-0.3 -0.18,0.69 0.8,0.94 1,0.3z"/>
     <path class="fil10" d="M11.04 8.46c0.1,0.66 1.15,0.54 1.02,-0.19 -0.11,-0.66 -1.13,-0.52 -1.02,0.19z"/>
     <path class="fil11" d="M9.71 9.44c0.08,-0.32 -0.15,-0.59 -0.37,-0.65 -0.33,-0.08 -0.58,0.14 -0.64,0.39 -0.15,0.68 0.82,0.94 1.01,0.26z"/>
     <path class="fil12" d="M9.19 2.23c-0.66,0.22 -0.33,1.21 0.31,1.01 0.66,-0.22 0.35,-1.23 -0.31,-1.01z"/>
     <path class="fil13" d="M11.5 3.26c-0.7,0.18 -0.41,1.19 0.24,1.03 0.24,-0.06 0.45,-0.33 0.37,-0.65 -0.06,-0.24 -0.3,-0.46 -0.61,-0.38z"/>
     <path class="fil14" d="M11.99 6.06c0.04,0.26 0.3,0.48 0.6,0.44 0.26,-0.04 0.48,-0.3 0.42,-0.63 -0.11,-0.65 -1.12,-0.51 -1.02,0.19z"/>
     <path class="fil15" d="M5.57 6.09c0.04,0.67 1.08,0.62 1.03,-0.1 -0.06,-0.67 -1.09,-0.62 -1.03,0.1z"/>
     <path class="fil16" d="M6.87 3.21c-0.67,0.23 -0.33,1.21 0.32,1 0.22,-0.07 0.42,-0.34 0.33,-0.65 -0.07,-0.23 -0.34,-0.46 -0.65,-0.35z"/>
     <path class="fil6" d="M9.17 4.83c-0.23,0.06 -0.44,0.31 -0.36,0.63 0.06,0.22 0.32,0.43 0.61,0.35 0.62,-0.17 0.37,-1.14 -0.25,-0.98z"/>
     <path class="fil8" d="M13.28 4.15l-0.08 -0.21c0.07,-0.08 0.15,-0.11 0.15,-0.27 0,-0.14 -0.07,-0.19 -0.16,-0.23l0.08 -0.23c0.25,0.03 0.42,-0.08 0.36,-0.35l0.2 -0.09c0.07,0.06 0.12,0.15 0.26,0.16 0.16,0 0.17,-0.09 0.26,-0.16l0.2 0.09c-0.05,0.26 0.09,0.39 0.35,0.35l0.08 0.24c-0.08,0.03 -0.16,0.1 -0.15,0.25 0,0.13 0.08,0.17 0.15,0.24l-0.08 0.21c-0.25,-0.03 -0.41,0.09 -0.35,0.36l-0.21 0.08c-0.05,-0.04 -0.22,-0.31 -0.47,-0.04l-0.04 0.05 -0.2 -0.09c0.07,-0.28 -0.1,-0.39 -0.35,-0.36zm1.39 0.14c0.07,-0.08 0.17,-0.03 0.29,-0.04 0.29,-0.53 -0.04,-0.33 -0.03,-0.58 0.01,-0.23 0.31,-0.02 0.03,-0.55 -0.1,-0.02 -0.21,0.04 -0.29,-0.05 -0.08,-0.09 0,-0.16 -0.03,-0.27 -0.03,-0.05 -0.29,-0.15 -0.34,-0.13 -0.07,0.02 -0.15,0.35 -0.4,0 -0.1,-0.01 -0.15,0.03 -0.24,0.06 -0.11,0.04 -0.13,0.03 -0.12,0.17 0.02,0.3 -0.13,0.19 -0.33,0.22 -0.24,0.54 -0.02,0.29 0.03,0.51 0.06,0.25 -0.23,0.12 -0.12,0.4 0.03,0.08 0.07,0.16 0.1,0.21 0.13,0.02 0.23,-0.04 0.3,0.07 0.08,0.13 -0.08,0.21 0.09,0.3 0.4,0.23 0.26,-0.07 0.48,-0.07 0.23,0 0.05,0.25 0.39,0.11 0.33,-0.14 0.05,-0.19 0.19,-0.36z"/>
     <path class="fil8" d="M3.6 4.15l-0.08 -0.21c0.08,-0.08 0.16,-0.11 0.15,-0.27 0,-0.14 -0.07,-0.19 -0.16,-0.23l0.09 -0.23c0.25,0.03 0.41,-0.08 0.35,-0.35l0.21 -0.09c0.08,0.06 0.1,0.16 0.25,0.16 0.16,0 0.18,-0.1 0.26,-0.16l0.2 0.09c-0.05,0.26 0.1,0.39 0.36,0.35l0.08 0.24c-0.09,0.03 -0.16,0.09 -0.16,0.25 0.01,0.13 0.08,0.17 0.16,0.24l-0.08 0.21c-0.25,-0.03 -0.42,0.09 -0.36,0.36l-0.2 0.09c-0.06,-0.07 -0.11,-0.16 -0.26,-0.16 -0.16,0 -0.18,0.1 -0.25,0.16l-0.21 -0.09c0.07,-0.28 -0.11,-0.38 -0.35,-0.36zm-0.06 -1.03c-0.27,0.55 0.02,0.29 0.03,0.55 0.01,0.25 -0.32,0.05 -0.03,0.58 0.12,0.01 0.22,-0.04 0.29,0.04 0.13,0.16 -0.13,0.22 0.19,0.36 0.34,0.14 0.16,-0.11 0.39,-0.11 0.22,0 0.09,0.3 0.48,0.07 0.17,-0.09 0.01,-0.17 0.1,-0.3 0.06,-0.11 0.17,-0.05 0.29,-0.06 0.28,-0.53 -0.01,-0.32 -0.03,-0.56 -0.01,-0.26 0.32,-0.02 0.04,-0.57 -0.09,-0.02 -0.2,0.03 -0.28,-0.04 -0.17,-0.14 0.13,-0.23 -0.2,-0.36 -0.34,-0.14 -0.16,0.08 -0.38,0.1 -0.12,0.02 -0.16,-0.08 -0.2,-0.15 -0.1,-0.01 -0.16,0.03 -0.25,0.06 -0.11,0.04 -0.13,0.03 -0.12,0.17 0.02,0.29 -0.13,0.19 -0.32,0.22z"/>
     <path class="fil8" d="M3.63 8.56c0.02,-0.05 0.04,-0.1 0.04,-0.15 0,-0.07 -0.02,-0.13 -0.05,-0.17l-0.11 -0.1 0.09 -0.21c0.27,0.06 0.38,-0.09 0.35,-0.35l0.21 -0.09c0.07,0.07 0.11,0.16 0.25,0.16 0.14,0 0.2,-0.07 0.23,-0.16l0.23 0.08c-0.04,0.31 0.08,0.38 0.35,0.38l0.08 0.19c-0.07,0.08 -0.15,0.13 -0.15,0.27 0,0.15 0.09,0.18 0.15,0.26l-0.07 0.2c-0.29,0 -0.4,0.05 -0.37,0.37l-0.22 0.08c-0.03,-0.09 -0.1,-0.16 -0.25,-0.16 -0.13,0.01 -0.16,0.09 -0.24,0.16l-0.2 -0.08c0.02,-0.26 -0.08,-0.41 -0.36,-0.36l-0.07 -0.21c0.02,-0.03 0,-0.01 0.03,-0.04 0.01,0 0.01,-0.01 0.02,-0.01l0.06 -0.06zm0.23 -1.04c-0.02,0.12 0.04,0.22 -0.05,0.29 -0.07,0.06 -0.17,0.02 -0.26,0.03 -0.06,0.07 -0.14,0.23 -0.13,0.35 0.07,0.08 0.15,0.08 0.15,0.22 0,0.13 -0.09,0.13 -0.15,0.21 -0.01,0.13 0.07,0.29 0.13,0.35 0.1,0.01 0.18,-0.03 0.25,0.04 0.08,0.07 0.04,0.17 0.06,0.28 0.49,0.3 0.32,-0.01 0.53,-0.02 0.3,-0.03 -0.01,0.31 0.57,0.04 0.01,-0.11 -0.04,-0.21 0.03,-0.29 0.07,-0.08 0.17,-0.03 0.28,-0.05 0.06,-0.08 0.14,-0.24 0.12,-0.38 -0.2,-0.13 -0.2,-0.24 0.01,-0.37 0.01,-0.13 -0.07,-0.29 -0.13,-0.37 -0.1,-0.03 -0.19,0.03 -0.27,-0.04 -0.08,-0.08 -0.03,-0.2 -0.04,-0.3 -0.57,-0.26 -0.27,0.03 -0.55,0.04 -0.21,0 -0.1,-0.34 -0.55,-0.03z"/>
     <path class="fil8" d="M13.83 7.5c0.07,0.07 0.11,0.16 0.26,0.15 0.14,0 0.19,-0.06 0.23,-0.16l0.22 0.08c-0.02,0.33 0.06,0.37 0.36,0.38l0.07 0.19c-0.01,0.03 0,0.02 -0.03,0.04 -0.23,0.27 -0.1,0.33 0.03,0.49l-0.08 0.2c-0.14,0.01 -0.41,-0.02 -0.35,0.37l-0.23 0.09c-0.03,-0.09 -0.1,-0.17 -0.25,-0.16 -0.12,0.01 -0.16,0.09 -0.23,0.16l-0.21 -0.09c0.04,-0.26 -0.07,-0.42 -0.35,-0.36l-0.08 -0.21c0,0 0.01,-0.01 0.01,-0.01l0.1 -0.1c0.07,-0.11 0.07,-0.32 -0.12,-0.38l0.08 -0.24c0.27,0.04 0.39,-0.09 0.37,-0.36l0.2 -0.08zm-0.3 0.02c-0.01,0.12 0.03,0.22 -0.05,0.29 -0.08,0.07 -0.16,0.02 -0.25,0.03 -0.06,0.07 -0.14,0.23 -0.14,0.35 0.06,0.09 0.15,0.08 0.15,0.22 0.01,0.13 -0.08,0.14 -0.15,0.21 0,0.13 0.07,0.29 0.13,0.36 0.13,0.01 0.15,-0.02 0.27,0.02 0.07,0.13 0.02,0.14 0.04,0.3 0.04,0.03 0.13,0.07 0.2,0.1 0.29,0.12 0.15,-0.19 0.4,-0.13 0.08,0.03 0.09,0.1 0.15,0.16 0.13,0 0.35,-0.08 0.36,-0.2 0,-0.09 -0.03,-0.16 0.04,-0.22 0.07,-0.06 0.17,-0.02 0.26,-0.04 0.06,-0.07 0.13,-0.23 0.13,-0.35 -0.02,-0.06 -0.33,-0.16 0,-0.39 0.01,-0.12 0,-0.11 -0.04,-0.21 -0.06,-0.14 -0.04,-0.14 -0.1,-0.17 -0.09,-0.03 -0.17,0.05 -0.26,-0.04 -0.08,-0.08 -0.02,-0.18 -0.04,-0.3 -0.55,-0.23 -0.27,-0.04 -0.48,0.03 -0.26,0.09 -0.13,-0.23 -0.42,-0.12 -0.07,0.03 -0.15,0.07 -0.2,0.1z"/>
     <path class="fil17" d="M4.41 3.29c-0.52,0 -0.5,0.79 0,0.79 0.51,0 0.53,-0.79 0,-0.79z"/>
     <path class="fil17" d="M13.7 8.48c0.08,0.49 0.81,0.41 0.76,-0.12 -0.04,-0.53 -0.86,-0.41 -0.76,0.12z"/>
     <path class="fil17" d="M4.02 8.46c0.06,0.49 0.82,0.44 0.77,-0.1 -0.04,-0.5 -0.83,-0.44 -0.77,0.1z"/>
     <path class="fil17" d="M14.09 3.29c-0.53,0 -0.51,0.79 0,0.79 0.5,0 0.5,-0.79 0,-0.79z"/>
     <path class="fil5" d="M14.09 3.29c0.5,0 0.5,0.79 0,0.79 -0.51,0 -0.53,-0.79 0,-0.79zm-0.12 -0.13c-0.67,0.17 -0.44,1.21 0.24,1.04 0.66,-0.16 0.43,-1.21 -0.24,-1.04z"/>
     <path class="fil5" d="M4.02 8.46c-0.06,-0.54 0.73,-0.6 0.77,-0.1 0.05,0.54 -0.71,0.59 -0.77,0.1zm0.23 -0.56c-0.65,0.2 -0.36,1.23 0.31,1.02 0.63,-0.2 0.38,-1.23 -0.31,-1.02z"/>
     <path class="fil5" d="M4.41 3.29c0.53,0 0.51,0.79 0,0.79 -0.5,0 -0.52,-0.79 0,-0.79zm-0.11 -0.13c-0.69,0.17 -0.44,1.21 0.23,1.04 0.69,-0.16 0.42,-1.2 -0.23,-1.04z"/>
     <path class="fil5" d="M13.7 8.48c-0.1,-0.53 0.72,-0.65 0.76,-0.12 0.05,0.53 -0.68,0.61 -0.76,0.12zm0.24 -0.58c-0.69,0.23 -0.36,1.23 0.3,1.02 0.64,-0.2 0.35,-1.23 -0.3,-1.02z"/>
     <path class="fil6" d="M8.52 7.4c0.02,0.02 0.01,0.01 0.04,0.04 0.48,0.35 1.44,0.09 1.48,-0.03 0,-0.01 0.01,-0.01 0.01,-0.01l-1.53 0z"/>
     <path class="fil18" d="M8.94 6.69l0.01 0.47 0.77 0 0 -0.5 0.22 0.02c-0.02,-0.05 -0.09,-0.04 -0.15,-0.04 -0.15,0.01 -0.09,0.09 -0.09,0.5l-0.74 0c0,-0.13 0.04,-0.36 -0.02,-0.45z"/>
     <polygon class="fil19" points="9.57,4.26 9.45,4.2 9.46,3.7 9.42,4.24 "/>
    </g>
   </g>
  </g>
 </g>
</svg>
