<?xml version="1.0" encoding="UTF-8"?>
<!DOCTYPE svg PUBLIC "-//W3C//DTD SVG 1.1//EN" "http://www.w3.org/Graphics/SVG/1.1/DTD/svg11.dtd">
<!-- Creator: CorelDRAW 2021 (64 Bit) -->
<svg xmlns="http://www.w3.org/2000/svg" xml:space="preserve" width="330px" height="330px" version="1.1" style="shape-rendering:geometricPrecision; text-rendering:geometricPrecision; image-rendering:optimizeQuality; fill-rule:evenodd; clip-rule:evenodd"
viewBox="0 0 26.38 26.38"
 xmlns:xlink="http://www.w3.org/1999/xlink"
 xmlns:xodm="http://www.corel.com/coreldraw/odm/2003">
 <defs>
  <style type="text/css">
   <![CDATA[
    .str1 {stroke:black;stroke-width:0.8;stroke-miterlimit:22.9256}
    .str0 {stroke:#B8B4B6;stroke-width:2.4;stroke-miterlimit:22.9256}
    .str2 {stroke:black;stroke-width:0.08;stroke-miterlimit:22.9256}
    .fil4 {fill:black}
    .fil3 {fill:#00FA46}
    .fil2 {fill:#282829}
    .fil1 {fill:red}
    .fil0 {fill:white}
   ]]>
  </style>
 </defs>
 <g id="Camada_x0020_1">
  <metadata id="CorelCorpID_0Corel-Layer"/>
  <g id="_2713634552848">
   <path class="fil0 str0" d="M2.28 1.2l21.85 0c0.58,0 1.05,0.54 1.05,1.2l0 21.58c0,0.66 -0.47,1.2 -1.05,1.2l-21.85 0c-0.58,0 -1.06,-0.54 -1.06,-1.2 0,-2.6 -0.03,-20.9 -0.02,-21.84 0.01,-0.52 0.64,-0.94 1.08,-0.94z"/>
   <g>
    <path class="fil1 str1" d="M18.51 20.23l-0.01 -2.59 -1.18 0.01c0,0.33 0.05,2.46 -0.04,2.56 0.01,0.35 -0.21,0.74 -0.36,0.91 -0.24,0.24 -0.55,0.29 -1.01,0.29l-7.79 0c-0.61,0 -2.02,0.12 -2.41,-0.18 -0.6,-0.46 -0.54,-1.14 -0.54,-2.05l0 -5.21c-0.03,0 -0.28,0 -0.68,0l-0.61 0c0,0 0.01,5.61 0.09,6.36 0.09,1 0.61,1.63 1.21,2 0.69,0.43 1.99,0.3 2.9,0.3 2.14,0 4.28,0 6.41,0 0.97,0 2.14,0.14 2.87,-0.33 0.52,-0.34 1.19,-1.13 1.15,-2.07l0 0z"/>
    <g>
     <path class="fil2" d="M9.66 9.18l-0.25 0.2c0.03,-0.15 0.07,-0.2 0.18,-0.32 0.41,-0.9 1.83,-1.74 2.69,-2.17 0.58,-0.29 3.04,-1.16 3.73,-1.07l0.31 1.49c-1.85,0.23 -3.62,0.24 -5.31,1.07 -0.74,0.36 -0.97,0.6 -1.35,0.8zm8.07 -0.56l-0.93 -4.17 4.65 1.71c-0.15,0.15 -3.25,2.23 -3.72,2.46l0 0zm-1.98 -3.88c-1.77,0.43 -1.96,0.33 -3.8,1.13 -2.71,1.17 -3.52,2.74 -4.52,5.31 -0.27,0.7 -1.17,3.01 -1.33,3.57 0.01,-0.01 0.02,-0.02 0.03,-0.03l1.88 -2.33c0.47,-0.59 0.94,-1.18 1.51,-1.68 0.1,-0.09 0.16,-0.17 0.26,-0.26 0.79,-0.7 1.9,-1.31 3.12,-1.61 0.67,-0.17 3.03,-0.53 3.68,-0.46l0.47 1.97 6.56 -4.3c0.11,-0.08 0.11,-0.08 0.18,-0.15l-8.47 -3.12 0.43 1.96 0 0z"/>
     <path class="fil3" d="M17.76 8.87c0.48,-0.26 3.65,-2.57 3.81,-2.74l-4.87 -1.88 1.06 4.62 0 0z"/>
     <path class="fil3" d="M9.33 9.5l-0.1 0.16c0.4,-0.22 0.9,-0.67 1.65,-1.07 1.73,-0.92 3.55,-0.93 5.44,-1.18l-0.32 -1.66c-0.71,-0.1 -3.22,0.86 -3.81,1.19 -0.44,0.24 -1.03,0.54 -1.56,0.96 -0.52,0.42 -0.93,0.79 -1.3,1.6z"/>
    </g>
    <circle class="fil4 str2" cx="7.85" cy="19.18" r="0.68"/>
    <circle class="fil4 str2" cx="14.68" cy="19.18" r="0.68"/>
    <circle class="fil4 str2" cx="11.26" cy="19.18" r="0.68"/>
   </g>
  </g>
 </g>
</svg>
