<?xml version="1.0" encoding="UTF-8"?>
<!DOCTYPE svg PUBLIC "-//W3C//DTD SVG 1.1//EN" "http://www.w3.org/Graphics/SVG/1.1/DTD/svg11.dtd">
<!-- Creator: CorelDRAW 2021 (64 Bit) -->
<svg xmlns="http://www.w3.org/2000/svg" xml:space="preserve" width="330px" height="330px" version="1.1" style="shape-rendering:geometricPrecision; text-rendering:geometricPrecision; image-rendering:optimizeQuality; fill-rule:evenodd; clip-rule:evenodd"
viewBox="0 0 165.48 165.48"
 xmlns:xlink="http://www.w3.org/1999/xlink"
 xmlns:xodm="http://www.corel.com/coreldraw/odm/2003">
 <defs>
  <style type="text/css">
   <![CDATA[
    .str0 {stroke:#C4C4C4;stroke-width:15.04;stroke-miterlimit:22.9256}
    .str1 {stroke:black;stroke-width:17.55;stroke-miterlimit:22.9256}
    .str2 {stroke:#F7FF00;stroke-width:17.55;stroke-miterlimit:22.9256}
    .fil1 {fill:none}
    .fil0 {fill:white}
    .fil3 {fill:#ED3237;fill-rule:nonzero}
    .fil2 {fill:black;fill-rule:nonzero}
   ]]>
  </style>
 </defs>
 <g id="Camada_x0020_1">
  <metadata id="CorelCorpID_0Corel-Layer"/>
  <g id="_2713542817472">
   <circle class="fil0 str0" cx="82.74" cy="82.74" r="75.22"/>
   <g>
    <circle class="fil1 str1" cx="82.87" cy="83.11" r="50.15"/>
    <circle class="fil1 str2" cx="82.87" cy="83.11" r="45.59"/>
    <polygon class="fil2" points="56.9,115.78 56.9,49.7 65.66,49.7 65.66,76.93 99.81,76.93 99.81,49.7 108.58,49.7 108.58,115.78 99.81,115.78 99.81,84.68 65.66,84.68 65.66,115.78 "/>
    <path class="fil3" d="M86.55 95.92l-9.72 0c-0.02,-1.4 -0.04,-2.24 -0.04,-2.55 0,-3.14 0.52,-5.72 1.57,-7.75 1.04,-2.02 3.11,-4.3 6.23,-6.84 3.13,-2.53 4.99,-4.19 5.6,-4.98 0.95,-1.24 1.41,-2.62 1.41,-4.11 0,-2.06 -0.82,-3.83 -2.5,-5.3 -1.65,-1.47 -3.9,-2.21 -6.72,-2.21 -2.72,0 -4.99,0.78 -6.83,2.32 -1.83,1.55 -3.08,3.91 -3.77,7.09l-9.8 -1.25c0.29,-4.55 2.22,-8.39 5.81,-11.57 3.59,-3.17 8.3,-4.75 14.14,-4.75 6.14,0 11.02,1.6 14.65,4.8 3.63,3.2 5.44,6.92 5.44,11.18 0,2.35 -0.66,4.59 -1.99,6.69 -1.34,2.1 -4.17,4.96 -8.54,8.59 -2.26,1.87 -3.66,3.38 -4.2,4.52 -0.54,1.14 -0.79,3.18 -0.74,6.12zm-9.72 14.3l0 -10.65 9.72 0 0 10.65 -9.72 0z"/>
   </g>
  </g>
 </g>
</svg>
