<?xml version="1.0" encoding="UTF-8"?>
<!DOCTYPE svg PUBLIC "-//W3C//DTD SVG 1.1//EN" "http://www.w3.org/Graphics/SVG/1.1/DTD/svg11.dtd">
<!-- Creator: CorelDRAW 2021 (64 Bit) -->
<svg xmlns="http://www.w3.org/2000/svg" xml:space="preserve" width="330px" height="330px" version="1.1" style="shape-rendering:geometricPrecision; text-rendering:geometricPrecision; image-rendering:optimizeQuality; fill-rule:evenodd; clip-rule:evenodd"
viewBox="0 0 166.37 166.37"
 xmlns:xlink="http://www.w3.org/1999/xlink"
 xmlns:xodm="http://www.corel.com/coreldraw/odm/2003">
 <defs>
  <style type="text/css">
   <![CDATA[
    .str1 {stroke:black;stroke-width:5.04;stroke-miterlimit:22.9256}
    .str0 {stroke:#C4C4C4;stroke-width:15.12;stroke-miterlimit:22.9256}
    .fil3 {fill:#00FA46}
    .fil2 {fill:#282829}
    .fil1 {fill:red}
    .fil0 {fill:white}
   ]]>
  </style>
 </defs>
 <g id="Camada_x0020_1">
  <metadata id="CorelCorpID_0Corel-Layer"/>
  <g id="_2713725192320">
   <circle class="fil0 str0" cx="83.19" cy="83.19" r="75.62"/>
   <g>
    <path class="fil1 str1" d="M120.62 114.18l-0.02 -13.87 -6.34 0.03c0,1.75 0.28,13.2 -0.22,13.75 0.07,1.85 -1.09,3.96 -1.95,4.84 -1.26,1.3 -2.9,1.56 -5.36,1.56l-41.76 0c-3.3,0 -10.84,0.67 -12.94,-0.95 -3.23,-2.49 -2.89,-6.1 -2.89,-11l0 -55.51c0,-4.59 0.65,-8.4 4.28,-9.61 1.53,-0.5 38.19,-0.22 41.56,-0.22 4.11,0 10.04,-0.36 13.92,0.03 4.36,0.43 5.3,5.12 5.3,8.68l6.52 0.11c0,-5.8 -1.54,-9.81 -4.7,-12.44 -4.37,-3.65 -7.73,-2.92 -14.3,-2.92 -11.45,0 -22.91,0 -34.36,0 -7.3,0 -17.37,-1.47 -21.43,4.27 -1.15,1.65 -2.27,3.26 -2.88,5.84 -0.87,3.64 -0.43,28.23 -0.43,33.91 0,6.18 -0.32,29.99 0.07,34.06 0.51,5.35 3.28,8.73 6.48,10.71 3.71,2.29 10.68,1.57 15.58,1.57 11.46,0 22.91,0 34.36,0 5.16,0 11.48,0.78 15.39,-1.77 2.75,-1.79 6.35,-6.02 6.12,-11.07l0 0z"/>
    <g>
     <path class="fil2" d="M71.55 88.45l-1.32 1.1c0.18,-0.8 0.38,-1.11 0.98,-1.74 2.21,-4.8 9.8,-9.3 14.43,-11.64 3.09,-1.57 16.25,-6.21 19.95,-5.74l1.69 8.03c-9.9,1.22 -19.43,1.26 -28.49,5.69 -3.94,1.93 -5.17,3.23 -7.24,4.3zm43.26 -2.97l-4.96 -22.39 24.91 9.2c-0.81,0.8 -17.44,11.94 -19.95,13.19l0 0zm-10.59 -20.84c-9.52,2.33 -10.54,1.79 -20.36,6.05 -14.51,6.3 -18.89,14.7 -24.24,28.47 -1.46,3.78 -6.28,16.12 -7.15,19.16 0.06,-0.05 0.13,-0.12 0.16,-0.15l10.08 -12.49c2.53,-3.16 5.08,-6.32 8.09,-9.01 0.54,-0.49 0.87,-0.9 1.43,-1.41 4.2,-3.74 10.16,-7.01 16.71,-8.64 3.59,-0.89 16.23,-2.81 19.74,-2.43l2.48 10.55 35.17 -23.07c0.62,-0.42 0.61,-0.43 0.97,-0.81l-45.4 -16.69 2.32 10.47 0 0z"/>
     <path class="fil3" d="M114.98 86.78c2.56,-1.39 19.58,-13.77 20.41,-14.66l-26.08 -10.11 5.67 24.77 0 0z"/>
     <path class="fil3" d="M69.82 90.2l-0.53 0.83c2.12,-1.2 4.79,-3.59 8.82,-5.73 9.27,-4.93 19.02,-4.97 29.16,-6.33l-1.74 -8.92c-3.77,-0.52 -17.25,4.64 -20.41,6.38 -2.37,1.3 -5.52,2.94 -8.33,5.19 -2.82,2.24 -5,4.19 -6.97,8.58z"/>
    </g>
   </g>
  </g>
 </g>
</svg>
