<?xml version="1.0" encoding="UTF-8"?>
<!DOCTYPE svg PUBLIC "-//W3C//DTD SVG 1.1//EN" "http://www.w3.org/Graphics/SVG/1.1/DTD/svg11.dtd">
<!-- Creator: CorelDRAW 2021 (64 Bit) -->
<svg xmlns="http://www.w3.org/2000/svg" xml:space="preserve" width="400px" height="400px" version="1.1" style="shape-rendering:geometricPrecision; text-rendering:geometricPrecision; image-rendering:optimizeQuality; fill-rule:evenodd; clip-rule:evenodd"
viewBox="0 0 2.26 2.26"
 xmlns:xlink="http://www.w3.org/1999/xlink"
 xmlns:xodm="http://www.corel.com/coreldraw/odm/2003">
 <defs>
  <style type="text/css">
   <![CDATA[
    .str0 {stroke:#C4C4C4;stroke-width:0.17;stroke-miterlimit:22.9256}
    .str1 {stroke:black;stroke-width:0.01;stroke-miterlimit:22.9256}
    .str2 {stroke:black;stroke-width:0.01;stroke-miterlimit:22.9256}
    .fil2 {fill:none}
    .fil1 {fill:black}
    .fil3 {fill:aqua}
    .fil6 {fill:#999999}
    .fil4 {fill:#99FFFF}
    .fil0 {fill:white}
    .fil7 {fill:black;fill-rule:nonzero}
    .fil5 {fill:#999999;fill-rule:nonzero}
   ]]>
  </style>
 </defs>
 <g id="Camada_x0020_1">
  <metadata id="CorelCorpID_0Corel-Layer"/>
  <g id="_2069827449600">
   <circle class="fil0 str0" cx="1.13" cy="1.13" r="1.04"/>
   <g>
    <g>
     <g>
      <path class="fil1" d="M0.99 1.13l0.69 0 0 -0.66 -0.69 0 0 0.66zm0 -0.66l0.03 -0.03 0.16 0 0.03 0.03 -0.22 0z"/>
      <path id="_1" class="fil2 str1" d="M0.99 1.13l0.69 0 0 -0.66 -0.69 0 0 0.66zm0 -0.66l0.03 -0.03 0.16 0 0.03 0.03"/>
     </g>
     <rect class="fil3 str1" x="0.95" y="0.51" width="0.69" height="0.66"/>
     <polygon class="fil4 str1" points="0.99,0.51 0.95,0.51 0.99,0.47 "/>
     <polygon class="fil4 str1" points="1.64,1.13 1.68,1.13 1.64,1.16 "/>
     <polygon class="fil4 str2" points="1.64,1.16 1.64,0.51 1.68,0.47 1.68,1.13 "/>
     <g>
      <path class="fil1" d="M0.79 1.21l0.69 0 0 -0.66 -0.69 0 0 0.66zm0 -0.66l0.03 -0.04 0.16 0 0.03 0.04 -0.22 0z"/>
      <path id="_1_0" class="fil2 str1" d="M0.79 1.21l0.69 0 0 -0.66 -0.69 0 0 0.66zm0 -0.66l0.03 -0.04 0.16 0 0.03 0.04"/>
     </g>
     <rect class="fil3 str1" x="0.75" y="0.59" width="0.69" height="0.66"/>
     <polygon class="fil4 str1" points="0.79,0.59 0.75,0.59 0.79,0.55 "/>
     <polygon class="fil4 str1" points="1.44,1.21 1.48,1.21 1.44,1.24 "/>
     <polygon class="fil4 str2" points="1.44,1.24 1.44,0.59 1.48,0.55 1.48,1.21 "/>
     <g>
      <path class="fil1" d="M0.59 1.28l0.68 0 0 -0.66 -0.68 0 0 0.66zm0 -0.66l0.02 -0.03 0.17 -0.01 0.02 0.04 -0.21 0z"/>
      <path id="_1_1" class="fil2 str1" d="M0.59 1.28l0.68 0 0 -0.66 -0.68 0 0 0.66zm0 -0.66l0.02 -0.03 0.17 -0.01 0.02 0.04"/>
     </g>
     <rect class="fil3 str1" x="0.54" y="0.66" width="0.69" height="0.66"/>
     <polygon class="fil4 str1" points="0.59,0.66 0.54,0.66 0.59,0.62 "/>
     <polygon class="fil4 str1" points="1.23,1.28 1.27,1.28 1.23,1.31 "/>
     <polygon class="fil4 str2" points="1.23,1.31 1.23,0.66 1.27,0.62 1.27,1.28 "/>
    </g>
    <g>
     <path class="fil5" d="M0.5 1.39l0.12 0c0.02,0 0.04,0.01 0.06,0.01 0.02,0.01 0.03,0.01 0.05,0.03 0.01,0.01 0.02,0.03 0.03,0.05 0.01,0.02 0.01,0.04 0.01,0.07 0,0.03 0,0.05 -0.01,0.07 -0.01,0.02 -0.02,0.04 -0.04,0.05 -0.01,0.01 -0.02,0.02 -0.04,0.03 -0.02,0 -0.03,0 -0.06,0l-0.12 0 0 -0.31zm0.06 0.06l0 0.2 0.05 0c0.02,0 0.03,0 0.04,0 0.01,0 0.02,-0.01 0.03,-0.01 0,-0.01 0.01,-0.02 0.01,-0.03 0.01,-0.02 0.01,-0.04 0.01,-0.06 0,-0.02 0,-0.04 -0.01,-0.06 0,-0.01 -0.01,-0.02 -0.01,-0.03 -0.01,0 -0.02,-0.01 -0.03,-0.01 -0.01,0 -0.03,0 -0.06,0l-0.03 0z"/>
     <path id="_1_2" class="fil5" d="M0.94 1.55c0,-0.03 0,-0.06 0.01,-0.08 0.01,-0.01 0.02,-0.03 0.03,-0.04 0.01,-0.01 0.03,-0.02 0.04,-0.03 0.02,-0.01 0.05,-0.01 0.07,-0.01 0.05,0 0.09,0.01 0.12,0.04 0.02,0.03 0.04,0.07 0.04,0.12 0,0.05 -0.02,0.09 -0.04,0.12 -0.03,0.03 -0.07,0.04 -0.12,0.04 -0.05,0 -0.08,-0.01 -0.11,-0.04 -0.03,-0.03 -0.04,-0.07 -0.04,-0.12zm0.06 0c0,0.03 0.01,0.06 0.03,0.08 0.02,0.02 0.04,0.03 0.06,0.03 0.03,0 0.05,-0.01 0.07,-0.03 0.01,-0.02 0.02,-0.05 0.02,-0.08 0,-0.04 -0.01,-0.06 -0.02,-0.08 -0.02,-0.02 -0.04,-0.03 -0.07,-0.03 -0.02,0 -0.05,0.01 -0.06,0.03 -0.02,0.02 -0.03,0.04 -0.03,0.08z"/>
     <path id="_2" class="fil5" d="M1.63 1.59l0.06 0.02c-0.01,0.03 -0.02,0.06 -0.04,0.08 -0.03,0.01 -0.06,0.02 -0.09,0.02 -0.04,0 -0.08,-0.01 -0.11,-0.04 -0.02,-0.03 -0.04,-0.07 -0.04,-0.12 0,-0.05 0.02,-0.09 0.04,-0.12 0.03,-0.03 0.07,-0.04 0.11,-0.04 0.04,0 0.08,0.01 0.1,0.03 0.01,0.02 0.03,0.03 0.03,0.06l-0.06 0.01c-0.01,-0.01 -0.01,-0.02 -0.03,-0.03 -0.01,-0.01 -0.02,-0.02 -0.04,-0.02 -0.02,0 -0.04,0.01 -0.06,0.03 -0.01,0.01 -0.02,0.04 -0.02,0.08 0,0.04 0.01,0.06 0.02,0.08 0.02,0.02 0.04,0.03 0.06,0.03 0.02,0 0.03,-0.01 0.04,-0.02 0.02,-0.01 0.03,-0.03 0.03,-0.05z"/>
     <polygon id="_3" class="fil6" points="0.47,1.74 1.72,1.74 1.72,1.76 0.47,1.76 "/>
     <path class="fil7" d="M0.54 1.37l0.12 0c0.03,0 0.05,0 0.06,0.01 0.02,0 0.04,0.01 0.05,0.03 0.02,0.01 0.03,0.03 0.03,0.05 0.01,0.02 0.01,0.04 0.01,0.07 0,0.03 0,0.05 -0.01,0.07 0,0.02 -0.02,0.04 -0.03,0.05 -0.01,0.01 -0.03,0.02 -0.05,0.03 -0.01,0 -0.03,0 -0.05,0l-0.13 0 0 -0.31zm0.07 0.05l0 0.21 0.05 0c0.02,0 0.03,0 0.04,0 0.01,0 0.02,-0.01 0.02,-0.02 0.01,0 0.02,-0.01 0.02,-0.03 0,-0.01 0.01,-0.03 0.01,-0.05 0,-0.03 -0.01,-0.04 -0.01,-0.06 0,-0.01 -0.01,-0.02 -0.02,-0.03 -0.01,0 -0.02,-0.01 -0.03,-0.01 -0.01,0 -0.03,-0.01 -0.05,-0.01l-0.03 0z"/>
     <path id="_1_3" class="fil7" d="M0.98 1.53c0,-0.03 0.01,-0.06 0.02,-0.08 0,-0.02 0.01,-0.03 0.03,-0.04 0.01,-0.02 0.02,-0.02 0.04,-0.03 0.02,-0.01 0.04,-0.01 0.07,-0.01 0.04,0 0.08,0.01 0.11,0.04 0.03,0.03 0.04,0.07 0.04,0.12 0,0.05 -0.01,0.09 -0.04,0.12 -0.03,0.02 -0.07,0.04 -0.11,0.04 -0.05,0 -0.09,-0.02 -0.12,-0.04 -0.03,-0.03 -0.04,-0.07 -0.04,-0.12zm0.07 0c0,0.03 0.01,0.06 0.02,0.08 0.02,0.02 0.04,0.02 0.07,0.02 0.02,0 0.04,0 0.06,-0.02 0.02,-0.02 0.03,-0.05 0.03,-0.08 0,-0.04 -0.01,-0.07 -0.03,-0.08 -0.01,-0.02 -0.04,-0.03 -0.06,-0.03 -0.03,0 -0.05,0.01 -0.07,0.03 -0.01,0.01 -0.02,0.04 -0.02,0.08z"/>
     <path id="_2_4" class="fil7" d="M1.68 1.57l0.06 0.02c-0.01,0.03 -0.03,0.06 -0.05,0.07 -0.02,0.02 -0.05,0.03 -0.09,0.03 -0.04,0 -0.07,-0.02 -0.1,-0.04 -0.03,-0.03 -0.04,-0.07 -0.04,-0.12 0,-0.05 0.01,-0.09 0.04,-0.12 0.03,-0.03 0.06,-0.04 0.11,-0.04 0.04,0 0.07,0.01 0.09,0.03 0.02,0.01 0.03,0.03 0.04,0.06l-0.07 0.01c0,-0.01 -0.01,-0.03 -0.02,-0.04 -0.01,0 -0.03,-0.01 -0.04,-0.01 -0.03,0 -0.05,0.01 -0.06,0.03 -0.02,0.01 -0.03,0.04 -0.03,0.08 0,0.03 0.01,0.06 0.03,0.08 0.01,0.02 0.03,0.02 0.05,0.02 0.02,0 0.04,0 0.05,-0.01 0.01,-0.01 0.02,-0.03 0.03,-0.05z"/>
     <polygon id="_3_5" class="fil1" points="0.51,1.72 1.76,1.72 1.76,1.74 0.51,1.74 "/>
    </g>
   </g>
  </g>
 </g>
</svg>
