<?xml version="1.0" encoding="UTF-8"?>
<!DOCTYPE svg PUBLIC "-//W3C//DTD SVG 1.1//EN" "http://www.w3.org/Graphics/SVG/1.1/DTD/svg11.dtd">
<!-- Creator: CorelDRAW 2021 (64 Bit) -->
<svg xmlns="http://www.w3.org/2000/svg" xml:space="preserve" width="330px" height="330px" version="1.1" style="shape-rendering:geometricPrecision; text-rendering:geometricPrecision; image-rendering:optimizeQuality; fill-rule:evenodd; clip-rule:evenodd"
viewBox="0 0 171.51 171.51"
 xmlns:xlink="http://www.w3.org/1999/xlink"
 xmlns:xodm="http://www.corel.com/coreldraw/odm/2003">
 <defs>
  <style type="text/css">
   <![CDATA[
    .str2 {stroke:black;stroke-width:5.2;stroke-miterlimit:22.9256}
    .str1 {stroke:#B8B6B6;stroke-width:5.2;stroke-miterlimit:22.9256}
    .str0 {stroke:#C4C4C4;stroke-width:15.59;stroke-miterlimit:22.9256}
    .str4 {stroke:#8A6B29;stroke-width:0.52;stroke-miterlimit:22.9256}
    .str5 {stroke:black;stroke-width:2.6;stroke-linecap:round;stroke-miterlimit:22.9256}
    .str3 {stroke:black;stroke-width:0.52;stroke-miterlimit:22.9256;stroke-dasharray:1.040000 1.560000}
    .fil2 {fill:none}
    .fil4 {fill:#8A6B29}
    .fil1 {fill:#98FEFE}
    .fil3 {fill:#DEB260}
    .fil0 {fill:white}
   ]]>
  </style>
 </defs>
 <g id="Camada_x0020_1">
  <metadata id="CorelCorpID_0Corel-Layer"/>
  <g id="_2713637868416">
   <circle class="fil0 str0" cx="85.75" cy="85.75" r="77.96"/>
   <g>
    <polygon class="fil1" points="111.69,40.15 57.08,40.21 57.31,139.42 81.11,139.62 81.09,62.35 "/>
    <polyline class="fil2 str1" points="53.24,135.86 53.24,36.04 120.1,36.04 "/>
    <polyline class="fil2 str2" points="55.52,139.7 55.59,38.92 118.97,38.83 "/>
    <polygon class="fil3 str2" points="117.63,119.19 82.69,152.79 82.71,63.25 117.63,37.72 "/>
    <line class="fil2 str3" x1="86.72" y1="68.55" x2="114.61" y2= "48.16" />
    <line class="fil2 str3" x1="86.78" y1="75.58" x2="114.67" y2= "55.18" />
    <line class="fil2 str3" x1="86.63" y1="82.75" x2="114.52" y2= "62.36" />
    <line class="fil2 str3" x1="86.75" y1="89.73" x2="114.64" y2= "69.34" />
    <line class="fil2 str3" x1="86.25" y1="97.17" x2="114.14" y2= "76.77" />
    <line class="fil2 str3" x1="85.7" y1="124.33" x2="113.58" y2= "103.93" />
    <line class="fil2 str3" x1="86.13" y1="137.39" x2="112.53" y2= "114.87" />
    <line class="fil2 str3" x1="86.23" y1="113.75" x2="114.11" y2= "93.35" />
    <polygon class="fil4 str4" points="86.38,100.55 86.52,111.27 89.56,108.99 89.35,98.4 "/>
    <line class="fil2 str5" x1="87.97" y1="104.84" x2="92.86" y2= "101.65" />
   </g>
  </g>
 </g>
</svg>
