<?xml version="1.0" encoding="UTF-8"?>
<!DOCTYPE svg PUBLIC "-//W3C//DTD SVG 1.1//EN" "http://www.w3.org/Graphics/SVG/1.1/DTD/svg11.dtd">
<!-- Creator: CorelDRAW 2021 (64 Bit) -->
<svg xmlns="http://www.w3.org/2000/svg" xml:space="preserve" width="400px" height="400px" version="1.1" style="shape-rendering:geometricPrecision; text-rendering:geometricPrecision; image-rendering:optimizeQuality; fill-rule:evenodd; clip-rule:evenodd"
viewBox="0 0 4 4"
 xmlns:xlink="http://www.w3.org/1999/xlink"
 xmlns:xodm="http://www.corel.com/coreldraw/odm/2003">
 <defs>
  <style type="text/css">
   <![CDATA[
    .str0 {stroke:#B8B4B6;stroke-width:0.3;stroke-miterlimit:22.9256}
    .str1 {stroke:#FA0505;stroke-width:0.25;stroke-linejoin:round;stroke-miterlimit:22.9256}
    .fil1 {fill:none}
    .fil0 {fill:white}
    .fil2 {fill:black;fill-rule:nonzero}
   ]]>
  </style>
 </defs>
 <g id="Camada_x0020_1">
  <metadata id="CorelCorpID_0Corel-Layer"/>
  <g id="_2069656135760">
   <path class="fil0 str0" d="M0.32 0.15l3.37 0c0.09,0 0.16,0.08 0.16,0.19l0 3.33c0,0.1 -0.07,0.18 -0.16,0.18l-3.37 0c-0.09,0 -0.17,-0.08 -0.17,-0.18 0,-0.4 0,-3.23 0,-3.37 0,-0.08 0.1,-0.15 0.17,-0.15z"/>
   <g>
    <polygon class="fil1 str1" points="0.99,2.05 1.01,3.28 2.78,3.28 2.78,2.07 3.19,2.07 2.61,1.34 2.61,0.73 2.29,0.73 2.29,0.96 1.88,0.53 0.58,2.05 "/>
    <path class="fil2" d="M1.77 2.51c0,-0.03 0,-0.05 0,-0.06 0,-0.09 0.01,-0.16 0.03,-0.23 0.01,-0.04 0.04,-0.09 0.07,-0.14 0.03,-0.03 0.07,-0.09 0.14,-0.15 0.06,-0.07 0.1,-0.12 0.12,-0.16 0.02,-0.04 0.03,-0.09 0.03,-0.14 0,-0.08 -0.03,-0.16 -0.08,-0.22 -0.06,-0.07 -0.13,-0.1 -0.21,-0.1 -0.08,0 -0.15,0.03 -0.2,0.09 -0.05,0.06 -0.09,0.15 -0.1,0.28l-0.19 -0.03c0.01,-0.17 0.06,-0.3 0.15,-0.39 0.08,-0.09 0.2,-0.13 0.34,-0.13 0.14,0 0.26,0.05 0.35,0.14 0.09,0.1 0.13,0.21 0.13,0.35 0,0.08 -0.01,0.15 -0.05,0.22 -0.03,0.06 -0.09,0.14 -0.18,0.24 -0.06,0.06 -0.1,0.11 -0.12,0.14 -0.01,0.03 -0.03,0.06 -0.04,0.1 -0.01,0.04 -0.01,0.1 -0.01,0.19l-0.18 0 0 0 0 0zm-0.03 0.44l0 -0.25 0.21 0 0 0.25 -0.21 0z"/>
   </g>
  </g>
 </g>
</svg>
