<?xml version="1.0" encoding="UTF-8"?>
<!DOCTYPE svg PUBLIC "-//W3C//DTD SVG 1.1//EN" "http://www.w3.org/Graphics/SVG/1.1/DTD/svg11.dtd">
<!-- Creator: CorelDRAW 2021 (64 Bit) -->
<svg xmlns="http://www.w3.org/2000/svg" xml:space="preserve" width="400px" height="400px" version="1.1" style="shape-rendering:geometricPrecision; text-rendering:geometricPrecision; image-rendering:optimizeQuality; fill-rule:evenodd; clip-rule:evenodd"
viewBox="0 0 2.26 2.26"
 xmlns:xlink="http://www.w3.org/1999/xlink"
 xmlns:xodm="http://www.corel.com/coreldraw/odm/2003">
 <defs>
  <style type="text/css">
   <![CDATA[
    .str0 {stroke:#C4C4C4;stroke-width:0.17;stroke-miterlimit:22.9256}
    .str2 {stroke:#967708;stroke-width:0.01;stroke-miterlimit:22.9256}
    .str1 {stroke:black;stroke-width:0.03;stroke-miterlimit:22.9256}
    .fil2 {fill:black}
    .fil8 {fill:#009933}
    .fil6 {fill:#00CCFF}
    .fil7 {fill:aqua}
    .fil9 {fill:#99FF99}
    .fil10 {fill:#9C7C49}
    .fil1 {fill:red}
    .fil3 {fill:#FFAE00}
    .fil4 {fill:yellow}
    .fil5 {fill:white}
    .fil0 {fill:white}
   ]]>
  </style>
 </defs>
 <g id="Camada_x0020_1">
  <metadata id="CorelCorpID_0Corel-Layer"/>
  <g id="_2070156449344">
   <circle class="fil0 str0" cx="1.13" cy="1.13" r="1.04"/>
   <g>
    <g>
     <g>
      <path class="fil1" d="M1.35 0.72c-0.14,-0.08 -0.21,-0.06 -0.3,0.06 -0.08,0.11 -0.09,0.24 -0.05,0.38l-0.31 0.5c0.05,0.05 0.1,0.07 0.13,0.04l0.05 -0.05 0.1 -0.07 0.02 -0.14 0.11 -0.03 0.05 -0.11c0.12,0.05 0.22,-0.01 0.28,-0.16 0.05,-0.16 0.03,-0.31 -0.08,-0.42z"/>
      <g>
       <path class="fil2 str1" d="M1.26 0.79c0.03,-0.01 0.06,0.02 0.07,0.06 0.01,0.05 -0.01,0.1 -0.04,0.11 -0.08,0.03 -0.12,-0.14 -0.03,-0.17zm0 -0.01c-0.04,0.01 -0.07,0.06 -0.06,0.12 0,0.05 0.04,0.09 0.09,0.07 0.03,-0.01 0.06,-0.06 0.05,-0.12 0,-0.05 -0.04,-0.08 -0.08,-0.07z"/>
       <path class="fil2" d="M1.12 0.69c-0.05,0.01 -0.04,0.12 0.02,0.1 0.01,-0.01 0.03,-0.03 0.02,-0.06 0,-0.03 -0.02,-0.05 -0.04,-0.04z"/>
      </g>
      <path class="fil2" d="M1.04 0.77c-0.01,0.01 -0.02,0.02 -0.02,0.03 -0.04,0.05 -0.06,0.15 -0.06,0.23 0,0.02 0,0.05 0.01,0.08 0.01,0.05 0.02,0.05 0.01,0.07 -0.03,0.03 -0.04,0.06 -0.06,0.09l-0.07 0.1c-0.01,0.02 -0.17,0.29 -0.18,0.3 0.02,0.01 0.02,0.02 0.04,0.03 0.03,0.03 0.09,0.05 0.13,0.02 0.02,-0.02 0.03,-0.06 0.05,-0.08l0.09 -0.04c0,0 -0.01,0 0,-0.01 0,0 0,0 0,0 0,-0.04 0.02,-0.1 0.02,-0.14 0.03,0 0.08,0 0.11,-0.03 0.01,-0.01 0.01,-0.02 0.02,-0.04 0.01,-0.02 0.02,-0.03 0.02,-0.04 0.05,0.01 0.07,0.01 0.12,0 0.04,-0.02 0.07,-0.04 0.1,-0.07 0.02,-0.03 0.04,-0.06 0.06,-0.1 0.01,-0.04 0.02,-0.08 0.03,-0.13 0,-0.06 0,-0.12 -0.02,-0.17 -0.01,-0.05 -0.03,-0.08 -0.05,-0.11l-0.04 -0.04c-0.03,-0.03 -0.08,-0.05 -0.12,-0.05 -0.01,0 -0.03,0 -0.03,0l0.01 0.01c0,0.02 -0.01,0.02 0,0.05 0.03,0 0.05,-0.01 0.1,0.01 0.02,0.01 0.05,0.04 0.07,0.07 0.01,0.02 0.04,0.07 0.05,0.1 0.01,0.09 0.01,0.19 -0.03,0.27 -0.02,0.02 -0.04,0.07 -0.06,0.08 -0.07,0.05 -0.13,0.06 -0.2,0.03 -0.01,0 -0.01,0.01 -0.01,0.02l-0.04 0.08c-0.01,0.01 -0.02,0.01 -0.03,0.01l-0.09 0.02c-0.01,0.04 -0.02,0.09 -0.02,0.13 -0.01,0.02 0,0.01 -0.04,0.03l-0.06 0.05c-0.01,0 -0.01,0 -0.01,0.02 -0.01,0 -0.03,0.04 -0.03,0.04 -0.03,0.02 -0.08,-0.01 -0.09,-0.03 0,0 0,-0.01 0,-0.01 0.03,-0.04 0.05,-0.07 0.07,-0.11 0.01,-0.01 0.02,-0.02 0.03,-0.03l0.09 -0.16c0.01,-0.01 0.02,-0.02 0.03,-0.03 0,-0.01 0.01,-0.02 0.02,-0.03l0.04 -0.06c0.01,-0.02 0.02,-0.04 0.04,-0.06 -0.01,-0.02 -0.02,-0.03 -0.02,-0.04 -0.01,-0.01 -0.01,-0.04 -0.02,-0.05 -0.01,-0.07 0,-0.15 0.03,-0.22 0,-0.01 0.01,-0.01 0.01,-0.02 0.01,-0.01 0.02,-0.02 0.02,-0.03 0,-0.01 -0.01,-0.01 -0.01,-0.02 -0.01,0 -0.01,-0.01 -0.01,-0.02z"/>
     </g>
     <g>
      <path class="fil3" d="M1.29 0.7c-0.15,-0.03 -0.22,0.03 -0.28,0.17 -0.06,0.14 -0.04,0.26 0.02,0.39l-0.2 0.6c0.05,0.02 0.1,0.03 0.13,-0.02l0.03 -0.06 0.09 -0.1 0 -0.15 0.1 -0.06 0.02 -0.13c0.13,0 0.21,-0.09 0.25,-0.26 0.01,-0.17 -0.03,-0.3 -0.16,-0.38z"/>
      <g>
       <path class="fil2 str1" d="M1.21 0.81c0.04,-0.02 0.07,0 0.09,0.03 0.02,0.05 0,0.1 -0.03,0.12 -0.07,0.06 -0.13,-0.09 -0.06,-0.15zm0 -0.01c-0.04,0.02 -0.06,0.08 -0.04,0.13 0.02,0.05 0.06,0.07 0.1,0.05 0.04,-0.03 0.06,-0.09 0.04,-0.14 -0.02,-0.05 -0.06,-0.07 -0.1,-0.04z"/>
       <path class="fil2" d="M1.06 0.76c-0.05,0.03 -0.01,0.13 0.03,0.09 0.02,-0.01 0.03,-0.04 0.02,-0.07 -0.01,-0.02 -0.03,-0.04 -0.05,-0.02z"/>
      </g>
      <path class="fil2" d="M1 0.87c-0.01,0.01 -0.01,0.02 -0.02,0.03 -0.03,0.07 -0.02,0.17 -0.01,0.24 0.01,0.03 0.01,0.06 0.02,0.08 0.02,0.04 0.03,0.04 0.02,0.06 -0.01,0.04 -0.02,0.07 -0.04,0.12l-0.04 0.12c-0.01,0.02 -0.12,0.34 -0.12,0.35 0.01,0 0.02,0.01 0.04,0.02 0.04,0.02 0.09,0.01 0.13,-0.03 0.02,-0.03 0.01,-0.07 0.04,-0.09l0.07 -0.08c0,0 0,0 0,0 0,-0.01 0,0 0,-0.01 0,-0.04 0,-0.1 0,-0.14 0.03,-0.01 0.07,-0.03 0.09,-0.06 0.01,-0.02 0.01,-0.04 0.02,-0.06 0,-0.01 0.01,-0.04 0.01,-0.05 0.05,0 0.07,0 0.12,-0.04 0.03,-0.02 0.06,-0.06 0.08,-0.1 0.01,-0.03 0.03,-0.07 0.04,-0.12 0,-0.04 0.01,-0.08 0,-0.14 0,-0.06 -0.02,-0.11 -0.04,-0.15 -0.03,-0.04 -0.05,-0.07 -0.08,-0.09l-0.04 -0.02c-0.04,-0.02 -0.09,-0.02 -0.13,-0.01 0,0 -0.02,0.01 -0.03,0.02l0.01 0c0.01,0.02 0,0.03 0.01,0.04 0.04,0 0.05,-0.03 0.1,-0.02 0.03,0.01 0.06,0.02 0.08,0.04 0.02,0.01 0.06,0.05 0.07,0.08 0.03,0.08 0.04,0.18 0.02,0.27 -0.01,0.03 -0.03,0.08 -0.04,0.11 -0.06,0.07 -0.12,0.1 -0.19,0.09 0,0.01 -0.01,0.02 -0.01,0.03l-0.02 0.09c-0.01,0.01 -0.02,0.01 -0.03,0.02l-0.08 0.05c0,0.04 0,0.09 0,0.13 0,0.02 0,0.01 -0.02,0.05l-0.06 0.06c-0.01,0.02 -0.01,0.01 -0.01,0.03 0,0 -0.01,0.05 -0.02,0.05 -0.02,0.03 -0.07,0.02 -0.09,0.01 0,-0.01 0,-0.01 0.01,-0.02 0.01,-0.04 0.03,-0.08 0.04,-0.13 0.01,-0.01 0.01,-0.02 0.02,-0.04l0.06 -0.18c0.01,-0.01 0.01,-0.03 0.02,-0.04 0,-0.01 0.01,-0.02 0.01,-0.04l0.03 -0.07c0.01,-0.03 0.02,-0.05 0.03,-0.08 -0.01,-0.01 -0.02,-0.02 -0.03,-0.03 0,0 -0.02,-0.03 -0.02,-0.04 -0.03,-0.07 -0.03,-0.15 -0.01,-0.22 0,-0.01 0,-0.02 0,-0.02 0.01,-0.02 0.01,-0.03 0.02,-0.05 -0.01,0 -0.01,0 -0.02,0 -0.01,-0.01 -0.01,-0.01 -0.01,-0.02z"/>
     </g>
     <g>
      <path class="fil4" d="M1.23 0.69c-0.15,0.03 -0.2,0.1 -0.24,0.27 -0.03,0.16 0.01,0.27 0.1,0.36l-0.09 0.65c0.06,0.01 0.1,0 0.12,-0.06l0.02 -0.07 0.06 -0.13 -0.02 -0.14 0.08 -0.1 0 -0.12c0.13,-0.05 0.19,-0.17 0.19,-0.35 -0.01,-0.17 -0.08,-0.28 -0.22,-0.31z"/>
      <g>
       <path class="fil2 str1" d="M1.18 0.83c0.02,-0.04 0.06,-0.03 0.08,0 0.03,0.03 0.02,0.09 0,0.12 -0.06,0.08 -0.15,-0.04 -0.08,-0.12zm-0.01 -0.02c-0.03,0.04 -0.04,0.1 -0.01,0.15 0.03,0.04 0.07,0.04 0.11,0 0.02,-0.03 0.03,-0.1 0,-0.14 -0.02,-0.04 -0.07,-0.05 -0.1,-0.01z"/>
       <path class="fil2" d="M1.02 0.83c-0.04,0.05 0.01,0.13 0.05,0.08 0.01,-0.02 0.02,-0.05 0,-0.08 -0.01,-0.02 -0.04,-0.02 -0.05,0z"/>
      </g>
      <path class="fil2" d="M0.98 0.96c0,0.01 -0.01,0.03 -0.01,0.04 -0.01,0.07 0.01,0.17 0.03,0.24 0.01,0.02 0.03,0.04 0.04,0.06 0.03,0.04 0.03,0.03 0.03,0.05 -0.01,0.05 -0.01,0.08 -0.02,0.13l-0.02 0.13c0,0.03 -0.05,0.38 -0.05,0.39 0.02,-0.01 0.03,0 0.04,0 0.04,0 0.1,-0.02 0.12,-0.08 0.02,-0.03 0.01,-0.07 0.02,-0.1l0.06 -0.1c0,0 0,0 0,0 0,-0.01 0,0 0,-0.01 -0.01,-0.03 -0.02,-0.09 -0.03,-0.13 0.03,-0.03 0.07,-0.06 0.08,-0.1 0,-0.02 0,-0.04 0.01,-0.06 0,-0.02 0,-0.04 0,-0.05 0.04,-0.02 0.06,-0.03 0.1,-0.08 0.03,-0.04 0.05,-0.09 0.06,-0.13 0.01,-0.04 0.02,-0.08 0.02,-0.13 0,-0.04 -0.01,-0.09 -0.02,-0.14 -0.02,-0.05 -0.04,-0.09 -0.07,-0.13 -0.03,-0.03 -0.06,-0.04 -0.09,-0.06l-0.05 0c-0.04,-0.01 -0.08,0.01 -0.12,0.04 -0.01,0 -0.02,0.02 -0.03,0.02l0.01 0c0.01,0.02 0.01,0.03 0.02,0.04 0.03,-0.02 0.04,-0.04 0.09,-0.06 0.03,0 0.06,0 0.09,0.01 0.02,0.01 0.06,0.03 0.07,0.06 0.05,0.06 0.08,0.15 0.07,0.25 0,0.03 -0.01,0.09 -0.02,0.12 -0.03,0.08 -0.09,0.14 -0.16,0.16 0,0 0,0.02 0,0.03l-0.01 0.09c0,0.01 -0.01,0.02 -0.02,0.03l-0.07 0.08c0.01,0.04 0.02,0.09 0.03,0.13 0,0.02 0,0.01 -0.02,0.05l-0.04 0.08c-0.01,0.02 -0.01,0.01 -0.01,0.03 0,0.01 0,0.06 0,0.06 -0.02,0.04 -0.07,0.05 -0.09,0.04 0,-0.01 0,-0.01 0,-0.02 0.01,-0.05 0.01,-0.09 0.02,-0.14 0,-0.02 0.01,-0.03 0.01,-0.04l0.03 -0.21c0,-0.01 0,-0.03 0.01,-0.04 0,-0.01 0,-0.03 0,-0.04l0.01 -0.08c0.01,-0.03 0.01,-0.06 0.02,-0.08 -0.01,-0.01 -0.02,-0.02 -0.03,-0.02 -0.01,-0.01 -0.02,-0.03 -0.03,-0.04 -0.04,-0.05 -0.06,-0.13 -0.05,-0.21 0,0 0,-0.01 0,-0.02 0,-0.01 0,-0.03 0,-0.04 0,-0.01 -0.01,-0.01 -0.02,-0.01 0,0 -0.01,0 -0.01,-0.01z"/>
     </g>
     <g>
      <path class="fil5" d="M1.25 0.92c-0.05,-0.2 -0.12,-0.27 -0.24,-0.28 -0.12,-0.01 -0.18,0.07 -0.23,0.21l-0.48 0.02c0.01,0.08 0.03,0.14 0.07,0.15l0.06 0.02 0.1 0.05 0.09 -0.06 0.09 0.09 0.09 -0.02c0.06,0.16 0.15,0.21 0.28,0.18 0.12,-0.05 0.18,-0.17 0.17,-0.36z"/>
      <g>
       <path class="fil2 str1" d="M1.14 0.87c0.03,0.03 0.03,0.08 0.02,0.12 -0.02,0.04 -0.06,0.04 -0.09,0.02 -0.07,-0.07 0,-0.21 0.07,-0.14zm0.01 -0.01c-0.03,-0.04 -0.08,-0.03 -0.1,0.01 -0.03,0.05 -0.02,0.11 0.01,0.15 0.03,0.03 0.08,0.03 0.11,-0.02 0.02,-0.04 0.01,-0.11 -0.02,-0.14z"/>
       <path class="fil2" d="M1.1 0.65c-0.04,-0.04 -0.08,0.05 -0.04,0.09 0.02,0.01 0.04,0.01 0.05,-0.02 0.01,-0.02 0.01,-0.05 -0.01,-0.07z"/>
      </g>
      <path class="fil2" d="M1 0.62c0,0 -0.01,0 -0.02,0 -0.06,0 -0.12,0.04 -0.16,0.1 -0.02,0.02 -0.03,0.04 -0.04,0.06 -0.02,0.04 -0.01,0.05 -0.03,0.05 -0.03,0 -0.06,0.01 -0.09,0l-0.1 0.01c-0.01,0 -0.27,0.01 -0.27,0.01 0,0.02 0,0.03 0,0.05 0.01,0.06 0.04,0.13 0.08,0.15 0.02,0.01 0.05,-0.01 0.08,0.01l0.08 0.05c0,0 0,0.01 0,0 0,0 0,0 0,0 0.03,-0.02 0.07,-0.04 0.09,-0.06 0.02,0.03 0.06,0.08 0.09,0.08 0.01,0.01 0.02,0 0.04,0 0.01,0 0.03,0 0.03,-0.01 0.03,0.06 0.04,0.08 0.08,0.13 0.03,0.02 0.07,0.05 0.1,0.05 0.03,0.01 0.06,0.01 0.1,0 0.03,-0.01 0.06,-0.03 0.09,-0.06 0.03,-0.03 0.06,-0.08 0.07,-0.13 0.02,-0.04 0.02,-0.09 0.03,-0.13l-0.01 -0.06c0,-0.06 -0.02,-0.12 -0.05,-0.17 -0.01,0 -0.02,-0.02 -0.03,-0.02l0.01 0c-0.01,0.02 -0.02,0.02 -0.03,0.04 0.02,0.04 0.04,0.05 0.06,0.12 0.01,0.03 0.02,0.08 0.02,0.11 -0.01,0.03 -0.01,0.09 -0.03,0.12 -0.03,0.08 -0.09,0.14 -0.16,0.15 -0.02,0 -0.06,0.01 -0.08,-0.01 -0.07,-0.03 -0.12,-0.09 -0.15,-0.18 0,-0.01 -0.01,0 -0.02,0l-0.07 0.01c-0.01,0 -0.01,-0.01 -0.02,-0.02l-0.07 -0.08c-0.03,0.02 -0.06,0.04 -0.09,0.06 -0.01,0.01 0,0.01 -0.04,-0.01l-0.06 -0.04c-0.01,0 -0.01,0 -0.02,0 -0.01,0 -0.04,0 -0.04,0 -0.03,-0.02 -0.05,-0.08 -0.05,-0.11 0,0 0.01,0 0.01,0 0.04,0 0.07,0 0.11,0 0.01,0 0.02,0 0.03,0l0.14 0c0.01,0 0.03,0 0.03,0 0.02,0 0.02,0 0.03,0l0.06 0c0.03,0 0.04,0 0.06,0 0.01,-0.02 0.01,-0.04 0.01,-0.05 0,0 0.01,-0.03 0.02,-0.04 0.03,-0.07 0.08,-0.11 0.13,-0.12 0.01,0 0.01,0 0.02,0 0.01,-0.01 0.02,-0.01 0.03,-0.01 0,-0.01 0,-0.01 0,-0.02 0,-0.01 0,-0.02 0,-0.03z"/>
     </g>
     <g>
      <path class="fil6" d="M1.17 0.67c-0.14,0.09 -0.18,0.18 -0.19,0.35 0.01,0.16 0.07,0.25 0.16,0.32l0.04 0.66c0.06,-0.01 0.1,-0.04 0.11,-0.11l0.01 -0.07 0.03 -0.15 -0.05 -0.12 0.06 -0.13 -0.02 -0.13c0.11,-0.09 0.15,-0.22 0.12,-0.4 -0.05,-0.16 -0.13,-0.24 -0.27,-0.22z"/>
      <g>
       <path class="fil2 str1" d="M1.14 0.83c0.02,-0.05 0.06,-0.06 0.08,-0.04 0.04,0.03 0.04,0.08 0.02,0.12 -0.04,0.1 -0.14,0.02 -0.1,-0.08zm-0.01 -0.02c-0.02,0.05 -0.01,0.11 0.02,0.15 0.03,0.03 0.08,0.02 0.1,-0.04 0.02,-0.04 0.02,-0.11 -0.02,-0.14 -0.03,-0.03 -0.07,-0.02 -0.1,0.03z"/>
       <path class="fil2" d="M0.99 0.89c-0.03,0.06 0.04,0.12 0.06,0.05 0.01,-0.02 0.01,-0.06 -0.01,-0.07 -0.02,-0.01 -0.04,-0.01 -0.05,0.02z"/>
      </g>
      <path class="fil2" d="M0.97 1.03c0,0.01 0,0.02 0,0.03 0,0.08 0.04,0.17 0.08,0.22 0.01,0.02 0.03,0.04 0.05,0.05 0.03,0.03 0.03,0.02 0.04,0.04 0,0.05 0,0.08 0,0.13l0.01 0.13c0,0.03 0.02,0.39 0.02,0.39 0.01,0 0.02,0 0.04,-0.01 0.04,-0.01 0.08,-0.05 0.1,-0.11 0.01,-0.04 -0.01,-0.07 0,-0.11l0.04 -0.12c0,0 0,0.01 0,0 -0.01,0 0,0 -0.01,0 -0.01,-0.03 -0.03,-0.09 -0.05,-0.13 0.02,-0.03 0.06,-0.08 0.06,-0.12 0,-0.02 0,-0.04 0,-0.05 -0.01,-0.02 -0.01,-0.05 -0.01,-0.06 0.04,-0.04 0.05,-0.05 0.08,-0.12 0.02,-0.04 0.04,-0.09 0.04,-0.13 0,-0.05 0,-0.09 -0.01,-0.14 -0.01,-0.04 -0.02,-0.08 -0.04,-0.13 -0.03,-0.04 -0.06,-0.07 -0.1,-0.1 -0.03,-0.02 -0.06,-0.02 -0.09,-0.02l-0.05 0.01c-0.04,0.01 -0.08,0.04 -0.11,0.09 0,0 -0.02,0.02 -0.02,0.03l0.01 -0.01c0.01,0.02 0.01,0.03 0.02,0.04 0.03,-0.04 0.04,-0.07 0.08,-0.09 0.03,-0.02 0.06,-0.03 0.08,-0.03 0.02,0 0.07,0.01 0.09,0.03 0.06,0.05 0.1,0.12 0.11,0.22 0.01,0.03 0.01,0.08 0,0.12 -0.02,0.1 -0.06,0.17 -0.12,0.21 -0.01,0.01 0,0.02 0,0.03l0.01 0.1c0,0.01 -0.01,0.02 -0.01,0.03l-0.06 0.1c0.02,0.04 0.03,0.08 0.05,0.12 0.01,0.02 0.01,0.01 -0.01,0.06l-0.02 0.09c0,0.01 0,0.01 0,0.03 0,0 0,0.05 0,0.06 -0.01,0.04 -0.05,0.07 -0.07,0.07 -0.01,-0.01 -0.01,-0.01 -0.01,-0.02 0,-0.05 0,-0.1 0,-0.15 0,-0.01 0,-0.03 0,-0.04l-0.01 -0.21c0,-0.01 0,-0.03 0,-0.04 0,-0.02 0,-0.03 0,-0.04l-0.01 -0.09c0,-0.03 0,-0.05 0,-0.08 -0.01,-0.01 -0.02,-0.01 -0.03,-0.01 0,0 -0.03,-0.02 -0.03,-0.02 -0.05,-0.04 -0.08,-0.11 -0.09,-0.18 -0.01,-0.01 -0.01,-0.02 -0.01,-0.03 0,-0.01 0,-0.03 0,-0.04 -0.01,0 -0.01,0 -0.02,0 0,0 -0.01,0.01 -0.02,0z"/>
     </g>
     <g>
      <path class="fil7" d="M1.09 0.7c-0.12,0.13 -0.14,0.24 -0.12,0.4 0.03,0.16 0.11,0.23 0.21,0.25l0.16 0.63c0.05,-0.04 0.09,-0.08 0.09,-0.14l-0.01 -0.08 0.01 -0.15 -0.08 -0.11 0.04 -0.14 -0.04 -0.11c0.09,-0.13 0.1,-0.28 0.04,-0.43 -0.08,-0.14 -0.18,-0.19 -0.3,-0.12z"/>
      <g>
       <path class="fil2 str1" d="M1.09 0.86c0.01,-0.05 0.04,-0.07 0.07,-0.06 0.04,0.01 0.05,0.06 0.04,0.11 -0.02,0.11 -0.14,0.07 -0.11,-0.05zm-0.01 -0.01c-0.02,0.05 0,0.11 0.04,0.13 0.03,0.02 0.08,-0.01 0.09,-0.07 0.01,-0.05 0,-0.11 -0.04,-0.13 -0.04,-0.01 -0.08,0.01 -0.09,0.07z"/>
       <path class="fil2" d="M0.95 0.98c-0.01,0.06 0.06,0.1 0.07,0.02 0.01,-0.02 0,-0.05 -0.02,-0.06 -0.02,-0.01 -0.04,0.01 -0.05,0.04z"/>
      </g>
      <path class="fil2" d="M0.96 1.12c0,0.01 0.01,0.02 0.01,0.03 0.01,0.08 0.06,0.15 0.11,0.18 0.02,0.02 0.04,0.03 0.06,0.04 0.03,0.01 0.04,0 0.04,0.02 0.01,0.05 0.02,0.08 0.03,0.12l0.03 0.13c0.01,0.02 0.09,0.36 0.09,0.37 0.02,-0.01 0.03,-0.02 0.04,-0.03 0.04,-0.03 0.07,-0.08 0.08,-0.15 0,-0.03 -0.02,-0.06 -0.02,-0.1l0.01 -0.13c0,0 0,0.01 0,0 0,0 0,0 0,0 -0.02,-0.03 -0.05,-0.07 -0.07,-0.1 0.01,-0.04 0.03,-0.1 0.03,-0.14 0,-0.02 -0.01,-0.04 -0.02,-0.05 0,-0.02 -0.01,-0.04 -0.01,-0.05 0.03,-0.05 0.04,-0.07 0.06,-0.15 0.01,-0.05 0.01,-0.1 0.01,-0.15 -0.01,-0.04 -0.02,-0.08 -0.04,-0.12 -0.01,-0.04 -0.03,-0.07 -0.06,-0.11 -0.04,-0.03 -0.07,-0.05 -0.11,-0.06 -0.04,-0.01 -0.07,0 -0.1,0.01l-0.04 0.03c-0.04,0.02 -0.07,0.07 -0.09,0.12 -0.01,0.01 -0.02,0.03 -0.02,0.04l0.01 -0.01c0.01,0.01 0.01,0.02 0.03,0.02 0.02,-0.04 0.02,-0.07 0.06,-0.11 0.02,-0.03 0.05,-0.05 0.08,-0.05 0.01,-0.01 0.06,-0.02 0.08,-0.01 0.07,0.03 0.12,0.08 0.15,0.17 0.01,0.03 0.03,0.08 0.03,0.12 -0.01,0.1 -0.04,0.18 -0.09,0.25 0,0.01 0.01,0.02 0.01,0.03l0.03 0.08c0,0.02 -0.01,0.03 -0.01,0.04l-0.03 0.12c0.02,0.03 0.04,0.06 0.06,0.09 0.02,0.02 0.01,0.01 0.01,0.06l0 0.1c0,0.02 -0.01,0.01 0,0.03 0,0 0.01,0.05 0.01,0.05 0,0.05 -0.04,0.1 -0.06,0.1 0,0 0,-0.01 0,-0.02 -0.01,-0.04 -0.02,-0.09 -0.03,-0.14 -0.01,-0.01 -0.01,-0.02 -0.01,-0.04l-0.05 -0.19c0,-0.02 -0.01,-0.03 -0.01,-0.05 0,-0.01 0,-0.02 -0.01,-0.04l-0.02 -0.08c0,-0.02 -0.01,-0.05 -0.01,-0.08 -0.01,0 -0.03,0.01 -0.04,0.01 0,0 -0.03,-0.01 -0.03,-0.01 -0.06,-0.02 -0.1,-0.07 -0.12,-0.14 -0.01,-0.01 -0.01,-0.02 -0.01,-0.02 -0.01,-0.02 -0.01,-0.04 -0.01,-0.05 -0.01,0.01 -0.01,0.01 -0.02,0.01 0,0.01 -0.01,0.01 -0.02,0.01z"/>
     </g>
     <g>
      <path class="fil8" d="M1.03 0.76c-0.09,0.17 -0.1,0.27 -0.04,0.43 0.06,0.14 0.14,0.17 0.25,0.16l0.27 0.55c0.04,-0.05 0.07,-0.11 0.06,-0.17l-0.03 -0.07 -0.02 -0.15 -0.08 -0.08 0 -0.15 -0.06 -0.09c0.06,-0.16 0.05,-0.3 -0.04,-0.43 -0.1,-0.11 -0.2,-0.12 -0.31,0z"/>
      <g>
       <path class="fil2 str1" d="M1.06 0.91c0,-0.05 0.03,-0.09 0.06,-0.09 0.04,0 0.06,0.05 0.06,0.09 0,0.12 -0.12,0.12 -0.12,0zm-0.01 -0.01c-0.01,0.06 0.02,0.11 0.06,0.12 0.04,0 0.08,-0.04 0.08,-0.1 0,-0.06 -0.03,-0.11 -0.07,-0.11 -0.03,-0.01 -0.07,0.03 -0.07,0.09z"/>
       <path class="fil2" d="M0.95 1.07c0,0.07 0.07,0.08 0.07,0 0,-0.03 -0.01,-0.05 -0.03,-0.05 -0.02,0 -0.04,0.02 -0.04,0.05z"/>
      </g>
      <path class="fil2" d="M0.99 1.2c0,0.01 0,0.02 0.01,0.03 0.03,0.07 0.09,0.12 0.14,0.14 0.02,0.01 0.04,0.01 0.06,0.01 0.03,0 0.04,-0.01 0.05,0.01 0.02,0.04 0.03,0.06 0.05,0.11l0.05 0.1c0.01,0.03 0.15,0.32 0.16,0.33 0.01,-0.02 0.02,-0.03 0.03,-0.04 0.03,-0.04 0.05,-0.11 0.04,-0.17 0,-0.04 -0.03,-0.06 -0.03,-0.1l-0.01 -0.12c0,0 0,0 -0.01,0 0,-0.01 0,0 0,-0.01 -0.02,-0.01 -0.06,-0.05 -0.08,-0.07 0,-0.04 0.01,-0.11 0,-0.14 0,-0.02 -0.01,-0.03 -0.02,-0.05 -0.01,-0.01 -0.02,-0.03 -0.03,-0.04 0.02,-0.06 0.03,-0.08 0.03,-0.16 0,-0.05 0,-0.11 -0.02,-0.15 -0.01,-0.04 -0.02,-0.07 -0.05,-0.11 -0.02,-0.03 -0.05,-0.05 -0.08,-0.07 -0.04,-0.03 -0.08,-0.03 -0.12,-0.03 -0.04,0.01 -0.07,0.03 -0.09,0.05l-0.04 0.04c-0.03,0.04 -0.05,0.1 -0.06,0.15 -0.01,0.01 -0.01,0.04 -0.01,0.05l0 -0.01c0.02,0 0.02,0.01 0.04,0.01 0.01,-0.05 0.01,-0.08 0.03,-0.14 0.02,-0.03 0.04,-0.06 0.07,-0.08 0.01,-0.01 0.06,-0.03 0.08,-0.03 0.07,0 0.13,0.03 0.18,0.11 0.01,0.02 0.03,0.07 0.04,0.1 0.02,0.1 0.01,0.19 -0.03,0.28 0,0 0,0.01 0.01,0.02l0.04 0.08c0.01,0 0,0.02 0,0.03l-0.01 0.13c0.03,0.02 0.06,0.05 0.08,0.07 0.02,0.01 0.01,0 0.02,0.05l0.01 0.1c0.01,0.01 0.01,0.01 0.01,0.02 0.01,0.01 0.03,0.05 0.03,0.05 0,0.05 -0.03,0.11 -0.04,0.12 -0.01,-0.01 -0.01,-0.01 -0.01,-0.02 -0.02,-0.04 -0.04,-0.08 -0.06,-0.12 -0.01,-0.01 -0.01,-0.03 -0.02,-0.04l-0.08 -0.17c0,-0.01 -0.01,-0.03 -0.01,-0.04 -0.01,-0.01 -0.01,-0.02 -0.02,-0.03l-0.03 -0.07c-0.01,-0.03 -0.02,-0.05 -0.03,-0.07 -0.01,0 -0.03,0.01 -0.03,0.01 -0.01,0 -0.03,0.01 -0.04,0.01 -0.06,0 -0.11,-0.04 -0.14,-0.1 -0.01,0 -0.01,-0.01 -0.02,-0.02 0,-0.01 -0.01,-0.02 -0.01,-0.03 -0.01,0 -0.01,0.01 -0.02,0.01 0,0.01 -0.01,0.01 -0.01,0.01z"/>
     </g>
     <g>
      <path class="fil9" d="M1 0.82c-0.06,0.2 -0.04,0.3 0.04,0.43 0.09,0.11 0.18,0.12 0.28,0.07l0.36 0.43c0.03,-0.07 0.04,-0.13 0.02,-0.18l-0.04 -0.07 -0.04 -0.13 -0.1 -0.04 -0.02 -0.15 -0.08 -0.07c0.03,-0.17 -0.01,-0.31 -0.12,-0.4 -0.11,-0.07 -0.21,-0.04 -0.3,0.11z"/>
      <g>
       <path class="fil2 str1" d="M1.06 0.96c-0.01,-0.05 0.01,-0.1 0.04,-0.11 0.04,-0.01 0.07,0.02 0.07,0.07 0.02,0.11 -0.09,0.16 -0.11,0.04zm-0.01 0c0,0.05 0.04,0.09 0.08,0.08 0.04,-0.01 0.06,-0.06 0.06,-0.12 -0.01,-0.06 -0.05,-0.1 -0.09,-0.09 -0.04,0.02 -0.06,0.07 -0.05,0.13z"/>
       <path class="fil2" d="M0.98 1.15c0.01,0.07 0.09,0.05 0.07,-0.02 0,-0.03 -0.02,-0.05 -0.04,-0.04 -0.02,0 -0.03,0.03 -0.03,0.06z"/>
      </g>
      <path class="fil2" d="M1.04 1.27c0.01,0.01 0.01,0.01 0.02,0.02 0.04,0.06 0.11,0.08 0.16,0.08 0.02,0 0.04,0 0.06,-0.01 0.03,-0.01 0.04,-0.03 0.05,-0.01 0.02,0.03 0.04,0.05 0.07,0.09l0.07 0.08c0.01,0.02 0.2,0.25 0.21,0.26 0.01,-0.02 0.01,-0.03 0.02,-0.05 0.02,-0.05 0.03,-0.12 0.01,-0.18 -0.01,-0.03 -0.04,-0.04 -0.05,-0.08l-0.03 -0.12c0,0 0,0 0,0 -0.01,0 0,0 -0.01,0 -0.02,-0.01 -0.07,-0.03 -0.09,-0.04 -0.01,-0.04 -0.01,-0.11 -0.02,-0.14 -0.01,-0.01 -0.02,-0.02 -0.04,-0.03 -0.01,-0.02 -0.02,-0.03 -0.03,-0.04 0.01,-0.06 0.01,-0.09 0,-0.16 -0.01,-0.05 -0.02,-0.11 -0.04,-0.14 -0.02,-0.03 -0.04,-0.06 -0.07,-0.08 -0.03,-0.02 -0.06,-0.04 -0.1,-0.05 -0.04,0 -0.08,0 -0.12,0.02 -0.03,0.02 -0.06,0.05 -0.08,0.08l-0.03 0.05c-0.02,0.05 -0.03,0.12 -0.03,0.18 0,0 0,0.03 0,0.04l0 -0.01c0.02,0 0.02,0.01 0.04,0 0,-0.05 -0.01,-0.08 0.01,-0.15 0.01,-0.03 0.03,-0.07 0.05,-0.1 0.01,-0.01 0.05,-0.05 0.07,-0.06 0.06,-0.02 0.13,-0.01 0.19,0.04 0.02,0.02 0.05,0.06 0.06,0.09 0.04,0.08 0.04,0.18 0.02,0.27 0,0.01 0.01,0.02 0.01,0.02l0.06 0.06c0.01,0.01 0.01,0.02 0.01,0.04l0.01 0.12c0.03,0.01 0.06,0.02 0.09,0.03 0.02,0.01 0.01,0 0.03,0.05l0.03 0.09c0,0.01 0,0.01 0.01,0.02 0.01,0 0.03,0.04 0.03,0.04 0.02,0.04 0,0.11 -0.01,0.13 -0.01,0 -0.01,-0.01 -0.02,-0.02 -0.02,-0.03 -0.05,-0.06 -0.07,-0.09 -0.01,-0.01 -0.02,-0.02 -0.02,-0.03l-0.12 -0.14c0,-0.01 -0.01,-0.02 -0.02,-0.03 0,-0.01 -0.01,-0.02 -0.02,-0.03l-0.04 -0.05c-0.02,-0.02 -0.03,-0.04 -0.05,-0.06 -0.01,0 -0.02,0.02 -0.02,0.02 -0.01,0.01 -0.03,0.02 -0.04,0.02 -0.05,0.03 -0.11,0.01 -0.16,-0.04 0,0 0,-0.01 -0.01,-0.01 -0.01,-0.01 -0.02,-0.02 -0.02,-0.03 -0.01,0.01 -0.01,0.01 -0.01,0.02 -0.01,0.01 -0.01,0.02 -0.02,0.02z"/>
     </g>
    </g>
    <path class="fil10 str2" d="M1.11 0.94c0,0.01 0.02,0.01 0.04,0.02l0.49 0.04c0.05,0 0.16,0.02 0.2,-0.06 0.03,-0.08 0,-0.23 -0.04,-0.35 -0.07,-0.1 -0.18,-0.18 -0.43,-0.16 -0.12,0.02 -0.22,0.08 -0.29,0.21 0.02,0 0.03,0.01 0.04,0.04 0.06,-0.11 0.15,-0.19 0.26,-0.2 0.15,-0.01 0.32,0.03 0.36,0.12 0.05,0.1 0.06,0.22 0.05,0.28 0,0.03 -0.04,0.07 -0.07,0.07l-0.57 -0.03c-0.02,0 -0.03,0 -0.03,0.01 -0.01,0 -0.01,0.01 -0.01,0.01z"/>
   </g>
  </g>
 </g>
</svg>
