<?xml version="1.0" encoding="UTF-8"?>
<!DOCTYPE svg PUBLIC "-//W3C//DTD SVG 1.1//EN" "http://www.w3.org/Graphics/SVG/1.1/DTD/svg11.dtd">
<!-- Creator: CorelDRAW 2021 (64 Bit) -->
<svg xmlns="http://www.w3.org/2000/svg" xml:space="preserve" width="330px" height="330px" version="1.1" style="shape-rendering:geometricPrecision; text-rendering:geometricPrecision; image-rendering:optimizeQuality; fill-rule:evenodd; clip-rule:evenodd"
viewBox="0 0 26.37 26.37"
 xmlns:xlink="http://www.w3.org/1999/xlink"
 xmlns:xodm="http://www.corel.com/coreldraw/odm/2003">
 <defs>
  <style type="text/css">
   <![CDATA[
    .str1 {stroke:black;stroke-width:0.8;stroke-miterlimit:22.9256}
    .str0 {stroke:#B8B4B6;stroke-width:2.4;stroke-miterlimit:22.9256}
    .fil4 {fill:#282829}
    .fil2 {fill:#28F95A}
    .fil3 {fill:#FE0018}
    .fil1 {fill:red}
    .fil0 {fill:white}
   ]]>
  </style>
 </defs>
 <g id="Camada_x0020_1">
  <metadata id="CorelCorpID_0Corel-Layer"/>
  <g id="_2713498629920">
   <path class="fil0 str0" d="M2.27 1.2l21.85 0c0.58,0 1.05,0.54 1.05,1.2l0 21.57c0,0.66 -0.47,1.2 -1.05,1.2l-21.85 0c-0.58,0 -1.05,-0.54 -1.05,-1.2 0,-2.59 -0.03,-20.89 -0.02,-21.83 0.01,-0.52 0.64,-0.94 1.08,-0.94z"/>
   <g>
    <path class="fil1" d="M17.01 14.53l0.1 0.16c-0.4,-0.23 -0.89,-0.67 -1.65,-1.07 -1.72,-0.92 -3.54,-0.93 -5.44,-1.18l0.33 -1.67c0.7,-0.09 3.22,0.87 3.81,1.19 0.44,0.25 1.03,0.55 1.55,0.97 0.53,0.42 0.93,0.78 1.3,1.6z"/>
    <g>
     <path class="fil2 str1" d="M7.54 19l0 -2.58 1.18 0c0,0.33 -0.05,2.47 0.04,2.57 -0.01,0.34 0.21,0.74 0.36,0.9 0.24,0.24 0.55,0.29 1.01,0.29l7.79 0c0.61,0 2.02,0.13 2.41,-0.18 0.6,-0.46 0.54,-1.13 0.54,-2.05l0 -10.35c0,-0.86 -0.12,-1.57 -0.8,-1.79 -0.29,-0.1 -7.12,-0.05 -7.75,-0.05 -0.77,0 -1.87,-0.06 -2.6,0.01 -0.81,0.08 -0.99,0.95 -0.99,1.62l-1.21 0.02c0,-1.08 0.28,-1.83 0.87,-2.32 0.82,-0.68 1.44,-0.54 2.67,-0.54 2.14,0 4.27,0 6.41,0 1.36,0 3.24,-0.28 4,0.79 0.21,0.31 0.42,0.61 0.53,1.09 0.17,0.68 0.08,5.27 0.08,6.33 0,1.15 0.06,5.59 -0.01,6.35 -0.09,1 -0.61,1.63 -1.21,2 -0.69,0.42 -1.99,0.29 -2.9,0.29 -2.14,0 -4.28,0 -6.41,0 -0.97,0 -2.14,0.15 -2.87,-0.33 -0.52,-0.33 -1.19,-1.12 -1.14,-2.07l0 0z"/>
     <g>
      <path class="fil3" d="M8.59 13.89c-0.48,-0.26 -3.66,-2.56 -3.81,-2.73l4.86 -1.89 -1.05 4.62 0 0z"/>
      <path class="fil4" d="M16.69 14.21l0.24 0.2c-0.03,-0.15 -0.07,-0.21 -0.18,-0.32 -0.41,-0.9 -1.83,-1.74 -2.69,-2.18 -0.58,-0.29 -3.03,-1.15 -3.72,-1.07l-0.32 1.5c1.85,0.23 3.63,0.24 5.32,1.06 0.73,0.36 0.96,0.61 1.35,0.81zm-8.07 -0.56l0.92 -4.18 -4.64 1.72c0.15,0.15 3.25,2.23 3.72,2.46l0 0zm1.97 -3.89c1.78,0.44 1.97,0.34 3.8,1.13 2.71,1.18 3.53,2.74 4.52,5.31 0.28,0.71 1.18,3.01 1.34,3.58 -0.01,-0.01 -0.03,-0.03 -0.03,-0.03l-1.88 -2.33c-0.47,-0.59 -0.95,-1.18 -1.51,-1.68 -0.1,-0.09 -0.16,-0.17 -0.27,-0.26 -0.78,-0.7 -1.89,-1.31 -3.12,-1.62 -0.67,-0.16 -3.02,-0.52 -3.68,-0.45l-0.46 1.97 -6.56 -4.31c-0.12,-0.07 -0.11,-0.08 -0.18,-0.15l8.47 -3.11 -0.44 1.95 0 0z"/>
     </g>
    </g>
   </g>
  </g>
 </g>
</svg>
