<?xml version="1.0" encoding="UTF-8"?>
<!DOCTYPE svg PUBLIC "-//W3C//DTD SVG 1.1//EN" "http://www.w3.org/Graphics/SVG/1.1/DTD/svg11.dtd">
<!-- Creator: CorelDRAW 2021 (64 Bit) -->
<svg xmlns="http://www.w3.org/2000/svg" xml:space="preserve" width="301px" height="300px" version="1.1" style="shape-rendering:geometricPrecision; text-rendering:geometricPrecision; image-rendering:optimizeQuality; fill-rule:evenodd; clip-rule:evenodd"
viewBox="0 0 22.19 22.12"
 xmlns:xlink="http://www.w3.org/1999/xlink"
 xmlns:xodm="http://www.corel.com/coreldraw/odm/2003">
 <defs>
  <style type="text/css">
   <![CDATA[
    .str7 {stroke:#52331E;stroke-width:0.07;stroke-miterlimit:22.9256}
    .str6 {stroke:#9F740B;stroke-width:0.07;stroke-miterlimit:22.9256}
    .str1 {stroke:black;stroke-width:0.59;stroke-miterlimit:22.9256}
    .str0 {stroke:black;stroke-width:0.37;stroke-miterlimit:22.9256}
    .str2 {stroke:#86B0C0;stroke-width:0.37;stroke-miterlimit:22.9256}
    .str4 {stroke:#E2A610;stroke-width:0.37;stroke-miterlimit:22.9256}
    .str8 {stroke:#9F740E;stroke-width:0.15;stroke-miterlimit:22.9256}
    .str5 {stroke:#FDD734;stroke-width:0.15;stroke-miterlimit:22.9256}
    .str3 {stroke:#B9E4EA;stroke-width:0.07;stroke-miterlimit:22.9256}
    .fil5 {fill:none}
    .fil12 {fill:#52331E}
    .fil7 {fill:#86B0C0}
    .fil2 {fill:#8A8A8A}
    .fil11 {fill:#9F740B}
    .fil13 {fill:#9F7507}
    .fil1 {fill:#B7B3B5}
    .fil8 {fill:#B9E4EA}
    .fil9 {fill:#E2A610}
    .fil4 {fill:#EAFF00}
    .fil10 {fill:#FDD734}
    .fil0 {fill:#FDFDFD}
    .fil3 {fill:red}
    .fil6 {fill:white}
   ]]>
  </style>
 </defs>
 <g id="Camada_x0020_1">
  <metadata id="CorelCorpID_0Corel-Layer"/>
  <g id="_2713531434336">
   <path class="fil0" d="M4.76 14.23c0.94,-0.07 1.9,-0.2 2.83,-0.3 1.65,-0.17 1.17,-0.3 2.01,0.73l2.72 3.41c-0.17,0.22 -0.59,0.53 -0.83,0.71 -0.43,-0.4 -0.97,-1.15 -1.36,-1.63 -0.47,-0.58 -0.87,-1.07 -1.35,-1.67 -0.31,-0.4 -0.26,-0.62 -0.89,-0.53l-1.98 0.27c-0.49,0.06 -0.71,-0.27 -1.15,-0.99zm4.18 -1.45c-0.13,0.17 -0.14,0.18 -0.41,0.2l-4.42 0.54c-0.1,-0.19 -0.28,-0.42 -0.44,-0.55 -0.1,-0.1 -0.06,-0.02 -0.17,-0.19 -0.01,-0.03 -0.05,-0.11 -0.05,-0.12 0.01,-0.1 0.16,-0.11 0.33,-0.13l3.6 -0.42c-0.19,-0.41 -0.51,-0.82 -0.75,-1.33 -1.71,-3.6 1.81,-7.93 5.99,-6.74 1.96,0.56 3.42,2.09 3.63,4.4 0.16,1.91 -0.61,3.07 -1.64,4.26 -0.29,0.34 -0.72,0.75 -0.31,1.22 0.26,-0.14 0.52,-0.61 0.85,-0.8l-0.07 2.35 -1.66 0.23c-0.03,0.19 0.03,0.23 0.13,0.42 0.23,0.23 0.33,0.33 0.48,0.65 -0.36,0.2 -0.54,0.45 -0.93,0.64 -0.16,-0.31 -0.59,-0.79 -0.82,-1.08l-2.58 -3.21 1.43 -3.97 0.63 0.7c0.25,0.38 -0.54,1.82 -0.79,2.75 -0.08,0.33 0.16,0.51 0.37,0.76 0.29,0.34 1.47,1.89 1.72,2.05l0.4 -0.51c-0.19,-0.3 -0.6,-0.54 -0.64,-1.11 -0.08,-0.82 0.64,-1.64 1.14,-2.26 1.84,-2.27 1.05,-4.78 -0.63,-5.83 -3.4,-2.14 -7.74,1.69 -4.98,5.56 0.46,-0.68 0.97,-3.38 1.38,-3.87 0.23,0.19 0.75,0.76 0.67,1.09 -0.21,0.87 -1.34,3.4 -1.46,4.3zm-6.87 -10.74c0,1.04 -0.12,17.49 0.02,18.06l18.03 0 0.01 -18.06 -18.06 0z"/>
   <path class="fil1" d="M2.07 2.04l18.06 0 -0.01 18.06 -18.03 0c-0.14,-0.57 -0.02,-17.02 -0.02,-18.06zm-2.07 0.25l0 18.06c0,0.89 0.95,1.77 1.84,1.77l18.58 0c1.02,0 1.77,-1.02 1.77,-2.21l0 -17.7c0,-1.15 -0.77,-2.21 -1.77,-2.21l-18.65 0c-1.04,0 -1.77,1.13 -1.77,2.29z"/>
   <path class="fil2" d="M3.67 12.97l-0.17 -0.32 0.28 -0.12c-0.17,0.02 -0.32,0.03 -0.33,0.13 0,0.01 0.04,0.09 0.05,0.12 0.11,0.17 0.07,0.09 0.17,0.19z"/>
   <path class="fil2" d="M8.53 12.98c0.27,-0.02 0.28,-0.03 0.41,-0.2l-0.41 0.2z"/>
   <path class="fil2" d="M13.55 16.12c-0.1,-0.19 -0.16,-0.23 -0.13,-0.42l0.01 0.29c0.01,0.02 0.03,0.04 0.03,0.05l0.09 0.08z"/>
   <g>
    <g>
     <path class="fil3" d="M5.82 4.83c-1.83,0.84 -2.38,1.81 -2.46,3.61 0.05,1.7 0.82,2.65 2.12,3.31l0.47 6.92c0.76,-0.14 1.32,-0.45 1.45,-1.1l0.07 -0.81 0.48 -1.51 -0.67 -1.32 0.8 -1.32 -0.27 -1.3c1.44,-0.96 1.94,-2.37 1.54,-4.2 -0.59,-1.7 -1.73,-2.55 -3.53,-2.28z"/>
     <path class="fil4 str0" d="M3.22 8.42c-0.01,0.1 -0.01,0.24 -0.01,0.34 0,0.82 0.47,1.72 0.99,2.29 0.19,0.21 0.4,0.41 0.63,0.54 0.41,0.24 0.5,0.15 0.51,0.4 0.02,0.51 0.06,0.84 0.07,1.36l0.1 1.38c0.01,0.28 0.24,3.98 0.27,4.07 0.19,-0.06 0.32,-0.09 0.5,-0.13 0.57,-0.12 1.15,-0.57 1.34,-1.19 0.11,-0.37 -0.09,-0.74 0.04,-1.14l0.47 -1.19c-0.01,-0.04 0.01,0.02 -0.02,-0.05 -0.02,-0.04 0,0 -0.03,-0.04 -0.19,-0.32 -0.46,-0.91 -0.65,-1.28 0.26,-0.35 0.7,-0.87 0.75,-1.28 0.02,-0.18 -0.03,-0.38 -0.06,-0.58 -0.03,-0.2 -0.04,-0.45 -0.08,-0.57 0.5,-0.39 0.72,-0.54 1.1,-1.23 0.25,-0.44 0.44,-1.02 0.47,-1.45 0.03,-0.49 0.03,-0.91 -0.1,-1.39 -0.13,-0.46 -0.29,-0.88 -0.61,-1.33 -0.34,-0.48 -0.75,-0.82 -1.22,-1.05 -0.47,-0.22 -0.86,-0.25 -1.25,-0.25l-0.61 0.08c-0.53,0.13 -1.08,0.47 -1.48,0.91 -0.05,0.06 -0.18,0.18 -0.21,0.25l0.02 0.04c0.15,0.16 0.2,0.23 0.34,0.35 0.38,-0.33 0.47,-0.65 1.06,-0.94 0.33,-0.17 0.75,-0.27 1.09,-0.26 0.25,0.01 0.86,0.1 1.13,0.28 0.74,0.5 1.34,1.3 1.48,2.29 0.05,0.35 0.1,0.9 0.01,1.26 -0.25,1.02 -0.84,1.78 -1.68,2.22 -0.01,0.09 0.02,0.23 0.03,0.33l0.15 0.98c0,0.12 -0.08,0.2 -0.18,0.36l-0.68 1.1c0.2,0.33 0.41,0.79 0.61,1.16 0.11,0.2 0.09,0.1 -0.07,0.62l-0.29 0.96c-0.06,0.18 -0.06,0.15 -0.02,0.31 0.01,0.06 0.05,0.57 0.03,0.62 -0.17,0.44 -0.76,0.76 -1.02,0.76 -0.03,-0.08 -0.02,-0.12 -0.02,-0.22 -0.01,-0.52 -0.05,-0.99 -0.07,-1.53 0,-0.15 0.01,-0.29 -0.01,-0.44l-0.11 -2.18c-0.01,-0.13 -0.01,-0.3 -0.01,-0.44 0,-0.15 0,-0.29 -0.01,-0.44l-0.05 -0.88c-0.01,-0.3 -0.01,-0.58 -0.03,-0.87 -0.13,-0.08 -0.31,-0.06 -0.43,-0.08 -0.06,-0.02 -0.35,-0.18 -0.43,-0.22 -0.68,-0.37 -1.06,-1.11 -1.21,-1.92 -0.02,-0.09 -0.04,-0.27 -0.05,-0.35 -0.01,-0.1 -0.02,-0.22 -0.04,-0.36 -0.07,0.01 -0.13,0.01 -0.22,0.03 -0.08,0 -0.13,0 -0.23,-0.01z"/>
     <line class="fil5 str1" x1="6.29" y1="11.22" x2="6.56" y2= "18.24" />
     <line class="fil5 str1" x1="7.1" y1="11.15" x2="7.19" y2= "13.46" />
     <path class="fil3 str0" d="M3.18 6.87c-0.35,0.63 0.51,1.24 0.87,0.55 0.12,-0.25 0.09,-0.6 -0.17,-0.77 -0.21,-0.13 -0.53,-0.07 -0.7,0.22z"/>
     <ellipse class="fil6 str0" cx="5.84" cy="7" rx="0.68" ry="0.76"/>
    </g>
    <g>
     <path class="fil7 str2" d="M12.15 6.9c0.01,1.18 0.01,1.31 0.01,2.49 0.4,0.34 0.82,0.37 1.26,0.01 0.01,-1.29 0.02,-1.55 0.03,-2.83 0.45,-2.32 2.83,-2.29 3.24,0 0,0.51 0,2.36 0,2.88 0.38,0.22 0.75,0.25 1.13,0.01 0,-0.42 0.01,-2.09 0.01,-2.51 -0.09,-1.27 -0.49,-2.34 -1.39,-3.08 -0.95,-0.77 -1.96,-0.77 -2.99,-0.08 -0.84,0.79 -1.26,1.83 -1.3,3.11z"/>
     <path class="fil8 str3" d="M13.55 4.68c-0.01,-0.25 -0.14,-0.32 -0.34,-0.26 -0.64,0.33 -0.91,1.3 -0.87,2.84 0.01,0.31 0.18,0.3 0.24,0.09 0.19,-1.07 0.44,-1.86 0.74,-2.17 0.16,-0.13 0.23,-0.31 0.23,-0.5z"/>
     <path class="fil9 str4" d="M11.1 17.64c0.02,-2.17 0.04,-4.34 0.06,-6.5 2.67,-1.43 5.24,-1.43 7.69,0 0,2.16 0,4.33 0,6.5 -0.5,0.83 -2.61,1.15 -3.86,1.17 -1.33,0.01 -3.43,-0.35 -3.89,-1.17z"/>
     <path class="fil10 str5" d="M14.99 12.55c-1.89,-0.03 -3.75,-0.32 -3.83,-1.44 0.02,-0.41 2.44,-1.06 3.85,-1.07 1.39,-0.05 3.82,0.64 3.85,1.07 -0.04,1.2 -2.26,1.41 -3.87,1.44z"/>
     <path class="fil11 str6" d="M14.61 15.93c-0.19,0.51 -0.38,1.01 -0.56,1.52 -0.06,0.13 -0.01,0.2 0.13,0.21 0.2,0 0.97,-0.01 1.48,0 0.14,0 0.19,-0.09 0.14,-0.21 -0.19,-0.51 -0.37,-0.98 -0.56,-1.48 0.3,-0.15 0.49,-0.39 0.46,-0.77 -0.06,-0.51 -0.33,-0.76 -0.79,-0.77 -0.48,0.01 -0.76,0.38 -0.75,0.78 0,0.31 0.2,0.66 0.45,0.72z"/>
     <path class="fil12 str7" d="M14.69 15.75c-0.14,0.44 -0.28,0.89 -0.42,1.33 -0.04,0.13 0,0.19 0.1,0.19 0.15,0.01 0.71,-0.01 1.09,0 0.1,0.01 0.13,-0.07 0.1,-0.19 -0.14,-0.44 -0.27,-0.86 -0.41,-1.31 0.22,-0.13 0.35,-0.33 0.33,-0.68 -0.04,-0.45 -0.24,-0.67 -0.58,-0.68 -0.34,0.02 -0.55,0.34 -0.54,0.69 0,0.28 0.15,0.59 0.33,0.65z"/>
     <ellipse class="fil13 str8" cx="17.18" cy="10.99" rx="0.72" ry="0.39"/>
     <ellipse class="fil13 str8" cx="12.63" cy="10.99" rx="0.72" ry="0.39"/>
    </g>
   </g>
  </g>
 </g>
</svg>
