<?xml version="1.0" encoding="UTF-8"?>
<!DOCTYPE svg PUBLIC "-//W3C//DTD SVG 1.1//EN" "http://www.w3.org/Graphics/SVG/1.1/DTD/svg11.dtd">
<!-- Creator: CorelDRAW 2021 (64 Bit) -->
<svg xmlns="http://www.w3.org/2000/svg" xml:space="preserve" width="400px" height="400px" version="1.1" style="shape-rendering:geometricPrecision; text-rendering:geometricPrecision; image-rendering:optimizeQuality; fill-rule:evenodd; clip-rule:evenodd"
viewBox="0 0 18.83 18.83"
 xmlns:xlink="http://www.w3.org/1999/xlink"
 xmlns:xodm="http://www.corel.com/coreldraw/odm/2003">
 <defs>
  <style type="text/css">
   <![CDATA[
    .str2 {stroke:#AEA19E;stroke-width:0.75;stroke-miterlimit:22.9256;stroke-opacity:0.949020}
    .str0 {stroke:#B8B4B6;stroke-width:1.41;stroke-miterlimit:22.9256}
    .str1 {stroke:white;stroke-width:0.09;stroke-miterlimit:22.9256}
    .str3 {stroke:black;stroke-width:0.56;stroke-miterlimit:22.9256}
    .fil4 {fill:none}
    .fil1 {fill:#E6E7E8}
    .fil8 {fill:#FFF212}
    .fil9 {fill:aqua}
    .fil7 {fill:red}
    .fil0 {fill:white}
    .fil5 {fill:#373435;fill-rule:nonzero}
    .fil6 {fill:black;fill-rule:nonzero}
    .fil2 {fill:#333333;fill-rule:nonzero}
    .fil3 {fill:#FEFEFE;fill-rule:nonzero;fill-opacity:0.949020}
   ]]>
  </style>
 </defs>
 <g id="Camada_x0020_1">
  <metadata id="CorelCorpID_0Corel-Layer"/>
  <g id="_2069686349872">
   <path class="fil0 str0" d="M1.49 0.71l15.87 0c0.42,0 0.76,0.39 0.76,0.87l0 15.67c0,0.48 -0.34,0.87 -0.76,0.87l-15.87 0c-0.42,0 -0.77,-0.39 -0.77,-0.87 0,-1.88 -0.02,-15.18 -0.01,-15.86 0.01,-0.38 0.46,-0.68 0.78,-0.68z"/>
   <g>
    <g>
     <rect class="fil1 str1" x="3.33" y="10.58" width="2.22" height="5.23"/>
     <path class="fil2" d="M9.23 16.14c-0.43,0 -0.85,-0.16 -1.26,-0.32 -0.45,-0.17 -0.91,-0.34 -1.37,-0.3l-1.13 0.1 0 -4.5 0.61 -0.06c0.39,-0.03 0.71,0.12 1.02,0.27 0.29,0.14 0.57,0.27 0.88,0.24l2.04 -0.37c0.72,-0.13 1.12,0.3 1.37,0.69l2.21 -1.05c0.84,-0.39 1.78,0 2.34,0.96 0.15,0.25 0.07,0.58 -0.18,0.74 -0.29,0.18 -0.57,0.37 -0.86,0.55 -2.47,1.59 -4.61,2.96 -5.53,3.04 -0.05,0.01 -0.09,0.01 -0.14,0.01zm-2.49 -0.94c0.47,0 0.91,0.17 1.34,0.33 0.44,0.17 0.86,0.33 1.27,0.29 0.84,-0.07 3.05,-1.49 5.39,-2.99 0.29,-0.19 0.57,-0.37 0.86,-0.55 0.11,-0.07 0.15,-0.22 0.08,-0.32 -0.48,-0.82 -1.26,-1.16 -1.95,-0.84l-2.47 1.17c0,-0.16 -0.12,-0.35 -0.19,-0.43 -0.23,-0.28 -0.67,-0.42 -1,-0.36l-2.05 0.38c-0.41,0.04 -0.73,-0.12 -1.05,-0.27 -0.28,-0.14 -0.56,-0.26 -0.86,-0.24l-0.34 0.03 0 3.88 0.8 -0.07c0.06,-0.01 0.12,-0.01 0.17,-0.01z"/>
     <path class="fil3 str2" d="M5.26 16.14l-1.74 0c-0.28,0 -0.52,-0.24 -0.52,-0.53l0 -4.77c0,-0.3 0.24,-0.53 0.52,-0.53l1.74 0c0.28,0 0.51,0.23 0.51,0.53l0 4.77c0,0.29 -0.23,0.53 -0.51,0.53zm-1.74 -5.52c-0.12,0 -0.21,0.1 -0.21,0.22l0 4.77c0,0.12 0.09,0.22 0.21,0.22l1.74 0c0.11,0 0.21,-0.1 0.21,-0.22l0 -4.77c0,-0.12 -0.1,-0.22 -0.21,-0.22l-1.74 0z"/>
     <path class="fil4 str3" d="M11.38 12.21c0.04,0.08 0.04,0.2 -0.04,0.34 -0.13,0.22 -0.43,0.38 -1.16,0.3 -0.54,-0.07 -1.19,0.06 -1.75,0.12"/>
    </g>
    <g>
     <g>
      <path class="fil5" d="M6.45 6.97c0.03,-0.03 0.04,-0.05 0.06,-0.08 0.02,-0.06 0.02,-0.13 0,-0.19 -0.08,-0.18 -0.01,-0.35 0.08,-0.44 0.09,-0.09 0.25,-0.16 0.43,-0.09 0.12,0.06 0.26,0 0.31,-0.13l0.22 -0.54c0.02,-0.06 0.02,-0.13 0,-0.19 -0.02,-0.06 -0.07,-0.11 -0.13,-0.13 -0.18,-0.08 -0.24,-0.24 -0.24,-0.37 0,-0.13 0.06,-0.3 0.24,-0.38 0.12,-0.05 0.18,-0.19 0.13,-0.31l-0.22 -0.55c-0.03,-0.06 -0.07,-0.11 -0.13,-0.13 -0.06,-0.03 -0.12,-0.03 -0.18,0 -0.18,0.08 -0.34,0 -0.43,-0.09 -0.09,-0.09 -0.16,-0.25 -0.09,-0.44 0.03,-0.06 0.03,-0.12 0,-0.18 -0.02,-0.06 -0.07,-0.11 -0.13,-0.13l-0.53 -0.23c-0.12,-0.05 -0.26,0.01 -0.31,0.13 -0.07,0.19 -0.24,0.25 -0.36,0.25 -0.13,0 -0.29,-0.06 -0.37,-0.25 -0.05,-0.12 -0.19,-0.18 -0.31,-0.13l-0.53 0.23c-0.06,0.02 -0.11,0.07 -0.13,0.13 -0.02,0.06 -0.02,0.13 0,0.19 0.07,0.18 0,0.34 -0.09,0.44 0,0 0,0 0,0 -0.09,0.09 -0.25,0.16 -0.42,0.08 -0.06,-0.02 -0.13,-0.02 -0.19,0 -0.05,0.03 -0.1,0.07 -0.12,0.13l-0.22 0.55c-0.03,0.06 -0.03,0.13 0,0.19 0.02,0.06 0.07,0.1 0.12,0.13 0.18,0.07 0.25,0.24 0.25,0.37 0,0.13 -0.07,0.3 -0.25,0.37 -0.12,0.05 -0.17,0.2 -0.12,0.32l0.22 0.55c0.02,0.06 0.07,0.1 0.13,0.13 0.06,0.02 0.12,0.02 0.18,0 0.18,-0.08 0.34,-0.01 0.43,0.09 0.09,0.09 0.16,0.25 0.08,0.43l0 0c-0.02,0.06 -0.02,0.13 0,0.19 0.03,0.06 0.07,0.11 0.13,0.13l0.54 0.23c0.05,0.02 0.12,0.02 0.18,0 0.06,-0.03 0.1,-0.07 0.13,-0.13 0.07,-0.19 0.23,-0.25 0.36,-0.25 0.13,0 0.29,0.06 0.36,0.24 0.05,0.13 0.19,0.19 0.31,0.14l0.54 -0.23c0.03,-0.01 0.05,-0.03 0.07,-0.05zm-0.03 -0.88c-0.18,0.19 -0.23,0.46 -0.13,0.71l-0.54 0.22c-0.1,-0.25 -0.32,-0.4 -0.58,-0.4 -0.26,0 -0.49,0.16 -0.58,0.4l-0.54 -0.22c0.1,-0.25 0.05,-0.52 -0.13,-0.71 -0.19,-0.19 -0.45,-0.24 -0.69,-0.14l-0.22 -0.54c0.24,-0.1 0.39,-0.33 0.39,-0.6 0,-0.27 -0.15,-0.5 -0.4,-0.6l0.23 -0.54c0.24,0.1 0.5,0.05 0.68,-0.14 0,0 0,0 0,0 0.19,-0.19 0.24,-0.46 0.14,-0.71l0.53 -0.22c0.1,0.24 0.33,0.4 0.59,0.4 0.26,-0.01 0.48,-0.16 0.58,-0.41l0.53 0.23c-0.1,0.25 -0.05,0.52 0.14,0.7 0.18,0.19 0.45,0.25 0.69,0.14l0.22 0.55c-0.24,0.1 -0.39,0.33 -0.39,0.6 0,0.26 0.15,0.49 0.39,0.59l-0.22 0.55c-0.24,-0.1 -0.5,-0.05 -0.69,0.14z"/>
      <path class="fil5" d="M6.08 6.34c0.02,-0.02 0.03,-0.04 0.04,-0.06 0.01,-0.04 0.01,-0.09 0,-0.13 -0.06,-0.13 -0.01,-0.24 0.06,-0.31 0.06,-0.07 0.17,-0.12 0.3,-0.06 0.09,0.03 0.19,-0.01 0.22,-0.1l0.16 -0.38c0.02,-0.05 0.02,-0.09 0,-0.14 -0.02,-0.04 -0.05,-0.07 -0.09,-0.09 -0.13,-0.05 -0.18,-0.17 -0.18,-0.26 0,-0.1 0.05,-0.21 0.18,-0.27 0.08,-0.03 0.12,-0.13 0.09,-0.22l-0.16 -0.39c-0.02,-0.04 -0.05,-0.08 -0.09,-0.09 -0.04,-0.02 -0.09,-0.02 -0.13,0 -0.13,0.05 -0.24,0 -0.3,-0.06 -0.07,-0.07 -0.12,-0.19 -0.07,-0.32 0.02,-0.04 0.02,-0.09 0,-0.13 -0.01,-0.04 -0.05,-0.07 -0.09,-0.09l-0.38 -0.16c-0.08,-0.04 -0.18,0 -0.22,0.09 -0.05,0.13 -0.16,0.18 -0.25,0.18 -0.09,0 -0.21,-0.05 -0.26,-0.18 -0.04,-0.09 -0.14,-0.13 -0.22,-0.09l-0.38 0.16c-0.04,0.02 -0.07,0.05 -0.09,0.09 -0.02,0.05 -0.02,0.09 0,0.14 0.05,0.13 0,0.24 -0.06,0.31 0,0 0,0 0,0 -0.07,0.06 -0.18,0.11 -0.31,0.06 -0.04,-0.02 -0.08,-0.02 -0.13,0 -0.04,0.02 -0.07,0.05 -0.09,0.09l-0.15 0.39c-0.02,0.04 -0.02,0.09 0,0.13 0.01,0.05 0.05,0.08 0.09,0.1 0.13,0.05 0.17,0.17 0.17,0.26 0,0.09 -0.04,0.21 -0.17,0.26 -0.09,0.04 -0.13,0.14 -0.09,0.23l0.16 0.39c0.01,0.04 0.04,0.07 0.09,0.09 0.04,0.02 0.08,0.02 0.13,0 0.12,-0.05 0.24,0 0.3,0.06 0.06,0.07 0.11,0.18 0.06,0.31l0 0c-0.02,0.05 -0.02,0.09 0,0.14 0.02,0.04 0.05,0.07 0.09,0.09l0.38 0.16c0.04,0.02 0.09,0.02 0.13,0 0.04,-0.02 0.07,-0.05 0.09,-0.09 0.05,-0.13 0.17,-0.18 0.26,-0.18 0.09,0 0.2,0.04 0.26,0.18 0.03,0.08 0.13,0.12 0.22,0.09l0.38 -0.16c0.02,-0.01 0.04,-0.02 0.05,-0.04zm-0.02 -0.62c-0.13,0.13 -0.17,0.32 -0.1,0.5l-0.38 0.16c-0.07,-0.18 -0.23,-0.28 -0.41,-0.28 -0.19,0 -0.35,0.1 -0.42,0.28l-0.37 -0.16c0.07,-0.18 0.03,-0.37 -0.1,-0.5 -0.13,-0.13 -0.32,-0.17 -0.49,-0.1l-0.16 -0.39c0.17,-0.07 0.28,-0.23 0.28,-0.42 0,-0.19 -0.11,-0.35 -0.28,-0.42l0.16 -0.39c0.17,0.07 0.36,0.03 0.49,-0.1 0,0 0,0 0,0 0.13,-0.13 0.17,-0.33 0.09,-0.5l0.38 -0.16c0.07,0.17 0.23,0.28 0.42,0.28 0.18,0 0.34,-0.11 0.41,-0.28l0.38 0.16c-0.07,0.17 -0.04,0.36 0.1,0.5 0.13,0.13 0.31,0.17 0.48,0.1l0.16 0.38c-0.17,0.08 -0.28,0.24 -0.28,0.43 0,0.19 0.11,0.35 0.28,0.42l-0.16 0.39c-0.16,-0.07 -0.35,-0.04 -0.48,0.1z"/>
      <g>
       <path class="fil6" d="M5.8 5.46c0.35,-0.36 0.35,-0.94 0,-1.3 -0.35,-0.36 -0.92,-0.35 -1.27,0 -0.34,0.36 -0.34,0.94 0.01,1.3 0.34,0.35 0.91,0.35 1.26,0zm-1.1 -1.13c0.26,-0.26 0.67,-0.26 0.93,0 0.26,0.27 0.26,0.69 0,0.95 -0.25,0.26 -0.67,0.27 -0.93,0 -0.25,-0.26 -0.25,-0.68 0,-0.95z"/>
       <ellipse class="fil7" cx="5.17" cy="4.81" rx="0.65" ry="0.67"/>
      </g>
     </g>
     <g>
      <path class="fil5" d="M11.93 6.76c-0.02,-0.02 -0.03,-0.05 -0.05,-0.08 -0.02,-0.06 -0.02,-0.13 0,-0.19 0.08,-0.18 0.01,-0.34 -0.08,-0.44 -0.09,-0.09 -0.25,-0.16 -0.43,-0.08 -0.12,0.05 -0.26,-0.01 -0.31,-0.13l-0.22 -0.55c-0.02,-0.06 -0.02,-0.13 0,-0.19 0.02,-0.06 0.07,-0.1 0.13,-0.13 0.18,-0.07 0.24,-0.24 0.24,-0.37 0,-0.13 -0.06,-0.3 -0.24,-0.37 -0.12,-0.05 -0.18,-0.2 -0.13,-0.32l0.22 -0.55c0.03,-0.06 0.07,-0.1 0.13,-0.13 0.06,-0.02 0.12,-0.02 0.18,0 0.18,0.08 0.34,0.01 0.43,-0.08 0.09,-0.1 0.16,-0.26 0.09,-0.44 -0.03,-0.06 -0.03,-0.13 0,-0.19 0.02,-0.06 0.07,-0.11 0.13,-0.13l0.53 -0.23c0.12,-0.05 0.26,0.01 0.31,0.13 0.07,0.19 0.24,0.25 0.36,0.25 0.13,0 0.29,-0.06 0.37,-0.24 0.05,-0.13 0.19,-0.19 0.31,-0.14l0.53 0.23c0.06,0.03 0.11,0.07 0.13,0.13 0.02,0.06 0.02,0.13 0,0.19 -0.07,0.18 -0.01,0.35 0.08,0.44 0,0 0,0 0,0 0.09,0.09 0.25,0.16 0.43,0.09 0.06,-0.03 0.13,-0.03 0.19,0 0.05,0.02 0.1,0.07 0.12,0.13l0.22 0.55c0.03,0.05 0.03,0.12 0,0.18 -0.02,0.06 -0.07,0.11 -0.12,0.13 -0.18,0.08 -0.25,0.24 -0.25,0.37 0,0.13 0.07,0.3 0.25,0.38 0.12,0.05 0.17,0.19 0.12,0.31l-0.22 0.55c-0.02,0.06 -0.07,0.11 -0.13,0.13 -0.06,0.03 -0.12,0.03 -0.18,0 -0.18,-0.07 -0.34,0 -0.43,0.09 -0.09,0.09 -0.16,0.25 -0.08,0.44l0 0c0.02,0.06 0.02,0.12 0,0.18 -0.03,0.06 -0.07,0.11 -0.13,0.13l-0.54 0.23c-0.06,0.02 -0.12,0.02 -0.18,0 -0.06,-0.02 -0.1,-0.07 -0.13,-0.13 -0.07,-0.19 -0.23,-0.25 -0.36,-0.25 -0.13,0 -0.29,0.06 -0.36,0.25 -0.05,0.12 -0.19,0.18 -0.31,0.13l-0.54 -0.23c-0.03,-0.01 -0.05,-0.03 -0.08,-0.05zm0.04 -0.88c0.18,0.19 0.23,0.46 0.13,0.71l0.54 0.22c0.1,-0.24 0.32,-0.4 0.58,-0.4 0.26,0.01 0.48,0.16 0.58,0.41l0.54 -0.23c-0.1,-0.25 -0.05,-0.52 0.13,-0.7 0.19,-0.19 0.45,-0.25 0.69,-0.14l0.22 -0.55c-0.24,-0.1 -0.39,-0.33 -0.39,-0.6 0,-0.26 0.15,-0.49 0.39,-0.59l-0.22 -0.55c-0.24,0.1 -0.5,0.05 -0.68,-0.14 0,0 0,0 0,0 -0.19,-0.19 -0.24,-0.46 -0.14,-0.71l-0.53 -0.22c-0.1,0.25 -0.33,0.4 -0.59,0.4 -0.26,0 -0.48,-0.16 -0.58,-0.4l-0.53 0.22c0.1,0.25 0.05,0.52 -0.14,0.71 -0.18,0.19 -0.45,0.24 -0.69,0.14l-0.22 0.54c0.24,0.1 0.39,0.33 0.39,0.6 0,0.27 -0.15,0.5 -0.39,0.6l0.22 0.54c0.24,-0.1 0.5,-0.05 0.69,0.14z"/>
      <path class="fil5" d="M12.31 6.13c-0.02,-0.01 -0.03,-0.03 -0.04,-0.05 -0.01,-0.05 -0.01,-0.09 0,-0.14 0.06,-0.13 0.01,-0.24 -0.06,-0.31 -0.06,-0.06 -0.17,-0.11 -0.3,-0.06 -0.09,0.04 -0.19,-0.01 -0.22,-0.09l-0.16 -0.39c-0.02,-0.04 -0.02,-0.09 0,-0.13 0.02,-0.05 0.05,-0.08 0.09,-0.1 0.13,-0.05 0.18,-0.17 0.18,-0.26 0,-0.09 -0.05,-0.21 -0.18,-0.26 -0.08,-0.04 -0.12,-0.14 -0.09,-0.23l0.16 -0.39c0.02,-0.04 0.05,-0.07 0.09,-0.09 0.04,-0.02 0.09,-0.02 0.13,0 0.13,0.05 0.24,0 0.3,-0.06 0.07,-0.07 0.12,-0.18 0.07,-0.31 -0.02,-0.05 -0.02,-0.09 0,-0.14 0.01,-0.04 0.05,-0.07 0.09,-0.09l0.38 -0.16c0.08,-0.03 0.18,0.01 0.22,0.09 0.05,0.14 0.16,0.18 0.25,0.18 0.09,0 0.21,-0.04 0.26,-0.17 0.04,-0.09 0.14,-0.13 0.22,-0.1l0.38 0.16c0.04,0.02 0.07,0.05 0.09,0.1 0.02,0.04 0.02,0.09 0,0.13 -0.05,0.13 0,0.25 0.06,0.31 0,0 0,0 0,0 0.07,0.07 0.18,0.12 0.31,0.06 0.04,-0.01 0.08,-0.01 0.12,0 0.05,0.02 0.08,0.05 0.1,0.1l0.15 0.38c0.02,0.05 0.02,0.09 0,0.14 -0.01,0.04 -0.05,0.07 -0.09,0.09 -0.13,0.05 -0.17,0.17 -0.17,0.26 0,0.1 0.04,0.21 0.17,0.27 0.09,0.03 0.13,0.13 0.09,0.22l-0.16 0.39c-0.01,0.04 -0.05,0.08 -0.09,0.09 -0.04,0.02 -0.08,0.02 -0.13,0 -0.12,-0.05 -0.24,0 -0.3,0.07 -0.06,0.06 -0.11,0.18 -0.06,0.31l0 0c0.02,0.04 0.02,0.09 0,0.13 -0.02,0.04 -0.05,0.07 -0.09,0.09l-0.38 0.16c-0.04,0.02 -0.09,0.02 -0.13,0 -0.04,-0.02 -0.07,-0.05 -0.09,-0.09 -0.05,-0.13 -0.17,-0.18 -0.26,-0.18 -0.09,0 -0.21,0.05 -0.26,0.18 -0.03,0.09 -0.13,0.13 -0.22,0.09l-0.38 -0.16c-0.02,-0.01 -0.04,-0.02 -0.05,-0.04zm0.02 -0.62c0.13,0.13 0.17,0.33 0.1,0.5l0.38 0.16c0.07,-0.17 0.23,-0.28 0.41,-0.28 0.19,0 0.34,0.11 0.41,0.28l0.38 -0.16c-0.07,-0.17 -0.03,-0.36 0.1,-0.5 0.13,-0.13 0.32,-0.17 0.49,-0.1l0.16 -0.38c-0.18,-0.08 -0.28,-0.24 -0.28,-0.43 0,-0.19 0.11,-0.35 0.28,-0.42l-0.16 -0.39c-0.17,0.07 -0.36,0.04 -0.49,-0.1 0,0 0,0 0,0 -0.13,-0.13 -0.17,-0.32 -0.09,-0.5l-0.38 -0.16c-0.07,0.18 -0.23,0.28 -0.42,0.28 -0.18,0 -0.34,-0.1 -0.41,-0.28l-0.38 0.16c0.07,0.18 0.03,0.37 -0.1,0.5 -0.13,0.13 -0.31,0.17 -0.49,0.1l-0.15 0.39c0.17,0.07 0.28,0.23 0.27,0.42 0,0.19 -0.1,0.35 -0.27,0.42l0.15 0.39c0.17,-0.07 0.36,-0.03 0.49,0.1z"/>
      <path class="fil6" d="M13.85 5.25c0.35,-0.36 0.35,-0.94 0,-1.3 -0.35,-0.35 -0.91,-0.35 -1.26,0.01 -0.35,0.35 -0.35,0.93 0,1.29 0.35,0.36 0.92,0.36 1.26,0zm-1.09 -1.12c0.25,-0.26 0.67,-0.26 0.93,0 0.25,0.26 0.25,0.68 0,0.95 -0.26,0.26 -0.68,0.26 -0.93,0 -0.26,-0.26 -0.26,-0.69 0,-0.95z"/>
      <ellipse class="fil8" cx="13.22" cy="4.6" rx="0.65" ry="0.67"/>
     </g>
     <g>
      <path class="fil6" d="M9.88 8.56c0.35,-0.36 0.35,-0.94 0,-1.29 -0.35,-0.36 -0.92,-0.36 -1.26,0 -0.35,0.36 -0.35,0.94 0,1.29 0.35,0.36 0.91,0.36 1.26,0zm-1.1 -1.12c0.26,-0.26 0.68,-0.26 0.93,0 0.26,0.26 0.26,0.69 0,0.95 -0.25,0.26 -0.67,0.26 -0.93,0 -0.25,-0.26 -0.25,-0.69 0,-0.95z"/>
      <g>
       <path class="fil5" d="M8.86 10.44c-0.03,-0.01 -0.05,-0.03 -0.08,-0.05 -0.04,-0.05 -0.07,-0.11 -0.07,-0.17 0,-0.2 -0.12,-0.33 -0.24,-0.37 -0.12,-0.05 -0.29,-0.06 -0.43,0.08 -0.09,0.1 -0.24,0.1 -0.33,0.01l-0.42 -0.42c-0.04,-0.05 -0.07,-0.11 -0.07,-0.17 0,-0.07 0.03,-0.13 0.07,-0.17 0.14,-0.14 0.14,-0.32 0.09,-0.44 -0.05,-0.12 -0.17,-0.25 -0.37,-0.25 -0.13,0 -0.24,-0.11 -0.24,-0.24l0 -0.59c0,-0.07 0.02,-0.13 0.07,-0.18 0.04,-0.04 0.1,-0.07 0.17,-0.07 0.19,0 0.31,-0.13 0.36,-0.25 0.05,-0.12 0.05,-0.3 -0.09,-0.44 -0.04,-0.04 -0.07,-0.1 -0.07,-0.17 0,-0.06 0.03,-0.12 0.07,-0.17l0.41 -0.42c0.09,-0.1 0.24,-0.1 0.33,0 0.14,0.14 0.32,0.13 0.43,0.08 0.12,-0.05 0.24,-0.17 0.24,-0.37 0,-0.13 0.11,-0.24 0.24,-0.24l0.58 -0.01c0.06,0 0.12,0.03 0.17,0.07 0.04,0.05 0.07,0.11 0.07,0.17 0,0.2 0.12,0.33 0.24,0.38 0,0 0,0 0,0 0.12,0.05 0.29,0.05 0.43,-0.09 0.04,-0.05 0.1,-0.07 0.17,-0.08 0.06,0 0.12,0.03 0.17,0.08l0.41 0.41c0.04,0.05 0.07,0.11 0.07,0.17 0,0.07 -0.03,0.13 -0.07,0.17 -0.14,0.15 -0.14,0.32 -0.09,0.44 0.05,0.12 0.18,0.25 0.37,0.25 0.13,0 0.24,0.11 0.24,0.24l0 0.59c0,0.07 -0.02,0.13 -0.07,0.18 -0.04,0.04 -0.1,0.07 -0.17,0.07 -0.19,0 -0.31,0.13 -0.36,0.25 -0.05,0.12 -0.05,0.3 0.09,0.44l0 0c0.04,0.04 0.07,0.1 0.07,0.17 0,0.06 -0.03,0.13 -0.07,0.17l-0.41 0.42c-0.04,0.05 -0.1,0.07 -0.16,0.07 -0.07,0 -0.13,-0.02 -0.17,-0.07 -0.14,-0.14 -0.31,-0.13 -0.43,-0.08 -0.12,0.05 -0.24,0.17 -0.24,0.37 0,0.14 -0.11,0.24 -0.24,0.25l-0.58 0c-0.03,0 -0.06,-0.01 -0.09,-0.02zm-0.3 -0.82c0.24,0.1 0.39,0.33 0.39,0.6l0.58 -0.01c0,-0.26 0.15,-0.49 0.39,-0.6 0.24,-0.1 0.5,-0.05 0.69,0.14l0.4 -0.42c-0.18,-0.19 -0.24,-0.46 -0.14,-0.7 0.1,-0.25 0.32,-0.4 0.58,-0.41l0 -0.59c-0.26,0.01 -0.49,-0.15 -0.59,-0.39 -0.1,-0.25 -0.05,-0.52 0.14,-0.71l-0.41 -0.41c-0.18,0.19 -0.45,0.24 -0.69,0.14 0,0 0,0 0,0 -0.24,-0.1 -0.39,-0.33 -0.39,-0.59l-0.58 0c0,0.27 -0.15,0.5 -0.39,0.6 -0.24,0.1 -0.5,0.05 -0.69,-0.14l-0.4 0.42c0.19,0.19 0.24,0.46 0.14,0.7 -0.1,0.25 -0.32,0.41 -0.58,0.41l0 0.59c0.26,-0.01 0.49,0.15 0.59,0.39 0.1,0.25 0.05,0.52 -0.14,0.71l0.41 0.41c0.18,-0.19 0.45,-0.24 0.69,-0.14z"/>
       <path class="fil5" d="M8.97 9.71c-0.02,0 -0.04,-0.02 -0.06,-0.03 -0.03,-0.04 -0.05,-0.08 -0.05,-0.12 0,-0.15 -0.09,-0.23 -0.17,-0.27 -0.08,-0.03 -0.21,-0.03 -0.3,0.07 -0.07,0.06 -0.18,0.06 -0.24,0l-0.29 -0.3c-0.03,-0.03 -0.05,-0.07 -0.05,-0.12 0,-0.05 0.01,-0.09 0.05,-0.12 0.09,-0.1 0.09,-0.23 0.06,-0.31 -0.04,-0.09 -0.13,-0.18 -0.26,-0.18 -0.1,0 -0.17,-0.08 -0.17,-0.17l0 -0.42c0,-0.05 0.01,-0.09 0.04,-0.12 0.04,-0.04 0.08,-0.05 0.12,-0.05 0.14,0 0.23,-0.1 0.26,-0.18 0.03,-0.09 0.04,-0.21 -0.06,-0.31 -0.03,-0.04 -0.05,-0.08 -0.05,-0.12 0,-0.05 0.02,-0.09 0.05,-0.13l0.29 -0.3c0.06,-0.06 0.17,-0.06 0.23,0 0.1,0.1 0.23,0.1 0.31,0.06 0.08,-0.03 0.17,-0.12 0.17,-0.26 0,-0.1 0.07,-0.17 0.17,-0.17l0.41 -0.01c0.04,0 0.08,0.02 0.12,0.05 0.03,0.04 0.05,0.08 0.05,0.13 0,0.14 0.09,0.22 0.17,0.26 0,0 0,0 0,0 0.08,0.03 0.21,0.04 0.3,-0.06 0.04,-0.04 0.08,-0.06 0.12,-0.06 0.05,0 0.09,0.02 0.12,0.05l0.29 0.3c0.04,0.03 0.05,0.08 0.05,0.12 0,0.05 -0.01,0.09 -0.05,0.12 -0.09,0.1 -0.09,0.23 -0.05,0.32 0.03,0.08 0.12,0.17 0.25,0.17 0.1,0 0.17,0.08 0.17,0.17l0.01 0.42c0,0.05 -0.02,0.09 -0.05,0.12 -0.03,0.04 -0.08,0.05 -0.12,0.06 -0.14,0 -0.23,0.09 -0.26,0.17 -0.03,0.09 -0.04,0.22 0.06,0.31l0 0c0.03,0.04 0.05,0.08 0.05,0.13 0,0.04 -0.01,0.09 -0.05,0.12l-0.29 0.3c-0.03,0.03 -0.07,0.05 -0.11,0.05 -0.05,0 -0.09,-0.02 -0.12,-0.05 -0.1,-0.1 -0.22,-0.1 -0.31,-0.06 -0.08,0.03 -0.17,0.12 -0.17,0.26 0,0.1 -0.07,0.17 -0.17,0.17l-0.41 0.01c-0.02,0 -0.04,-0.01 -0.06,-0.02zm-0.22 -0.58c0.18,0.07 0.28,0.24 0.28,0.42l0.41 0c0,-0.19 0.11,-0.35 0.28,-0.42 0.17,-0.08 0.35,-0.04 0.49,0.09l0.28 -0.29c-0.13,-0.14 -0.17,-0.33 -0.1,-0.5 0.07,-0.18 0.23,-0.29 0.42,-0.29l-0.01 -0.42c-0.18,0 -0.34,-0.1 -0.41,-0.28 -0.07,-0.17 -0.04,-0.36 0.09,-0.5l-0.29 -0.29c-0.13,0.13 -0.31,0.17 -0.48,0.1 0,0 0,0 0,0 -0.18,-0.07 -0.28,-0.23 -0.28,-0.42l-0.41 0c0,0.19 -0.11,0.35 -0.28,0.42 -0.17,0.08 -0.35,0.04 -0.49,-0.09l-0.28 0.3c0.13,0.13 0.17,0.32 0.1,0.49 -0.07,0.18 -0.23,0.29 -0.42,0.29l0.01 0.42c0.18,0 0.34,0.1 0.41,0.28 0.07,0.17 0.04,0.36 -0.09,0.5l0.29 0.29c0.13,-0.13 0.31,-0.17 0.48,-0.1z"/>
       <ellipse class="fil9" cx="9.23" cy="7.94" rx="0.65" ry="0.67"/>
      </g>
     </g>
    </g>
   </g>
  </g>
 </g>
</svg>
