<?xml version="1.0" encoding="UTF-8"?>
<!DOCTYPE svg PUBLIC "-//W3C//DTD SVG 1.1//EN" "http://www.w3.org/Graphics/SVG/1.1/DTD/svg11.dtd">
<!-- Creator: CorelDRAW 2021 (64 Bit) -->
<svg xmlns="http://www.w3.org/2000/svg" xml:space="preserve" width="400px" height="400px" version="1.1" style="shape-rendering:geometricPrecision; text-rendering:geometricPrecision; image-rendering:optimizeQuality; fill-rule:evenodd; clip-rule:evenodd"
viewBox="0 0 4.01 4.01"
 xmlns:xlink="http://www.w3.org/1999/xlink"
 xmlns:xodm="http://www.corel.com/coreldraw/odm/2003">
 <defs>
  <style type="text/css">
   <![CDATA[
    .str0 {stroke:#B8B4B6;stroke-width:0.3;stroke-miterlimit:22.9256}
    .str8 {stroke:#52331E;stroke-width:0.01;stroke-miterlimit:22.9256}
    .str7 {stroke:#9F740B;stroke-width:0.01;stroke-miterlimit:22.9256}
    .str2 {stroke:black;stroke-width:0.08;stroke-miterlimit:22.9256}
    .str1 {stroke:black;stroke-width:0.05;stroke-miterlimit:22.9256}
    .str3 {stroke:#86B0C0;stroke-width:0.05;stroke-miterlimit:22.9256}
    .str5 {stroke:#E2A610;stroke-width:0.05;stroke-miterlimit:22.9256}
    .str9 {stroke:#9F740E;stroke-width:0.02;stroke-miterlimit:22.9256}
    .str6 {stroke:#FDD734;stroke-width:0.02;stroke-miterlimit:22.9256}
    .str4 {stroke:#B9E4EA;stroke-width:0.01;stroke-miterlimit:22.9256}
    .fil3 {fill:none}
    .fil10 {fill:#52331E}
    .fil5 {fill:#86B0C0}
    .fil9 {fill:#9F740B}
    .fil11 {fill:#9F7507}
    .fil6 {fill:#B9E4EA}
    .fil7 {fill:#E2A610}
    .fil2 {fill:#EAFF00}
    .fil8 {fill:#FDD734}
    .fil1 {fill:red}
    .fil0 {fill:white}
    .fil4 {fill:white}
   ]]>
  </style>
 </defs>
 <g id="Camada_x0020_1">
  <metadata id="CorelCorpID_0Corel-Layer"/>
  <path class="fil0 str0" d="M0.32 0.15l3.37 0c0.09,0 0.17,0.08 0.17,0.19l0 3.33c0,0.1 -0.08,0.19 -0.17,0.19l-3.37 0c-0.09,0 -0.17,-0.09 -0.17,-0.19 0,-0.4 0,-3.23 0,-3.37 0,-0.08 0.1,-0.15 0.17,-0.15z"/>
  <g id="_2713765098320">
   <g>
    <path class="fil1" d="M0.97 0.73c-0.36,0.16 -0.47,0.35 -0.48,0.7 0.01,0.33 0.16,0.52 0.41,0.65l0.09 1.35c0.15,-0.03 0.26,-0.09 0.28,-0.22l0.02 -0.16 0.09 -0.29 -0.13 -0.26 0.16 -0.26 -0.06 -0.25c0.28,-0.19 0.38,-0.46 0.3,-0.82 -0.11,-0.33 -0.33,-0.49 -0.68,-0.44z"/>
    <path class="fil2 str1" d="M0.46 1.43c0,0.02 0,0.04 0,0.06 0,0.16 0.09,0.34 0.19,0.45 0.04,0.04 0.08,0.08 0.12,0.11 0.08,0.04 0.1,0.03 0.1,0.07 0.01,0.1 0.01,0.17 0.02,0.27l0.01 0.27c0.01,0.05 0.05,0.77 0.06,0.79 0.03,-0.01 0.06,-0.02 0.1,-0.02 0.11,-0.03 0.22,-0.12 0.26,-0.24 0.02,-0.07 -0.02,-0.14 0,-0.22l0.1 -0.23c-0.01,-0.01 0,0 -0.01,-0.01 0,-0.01 0,0 0,-0.01 -0.04,-0.06 -0.09,-0.18 -0.13,-0.25 0.05,-0.07 0.14,-0.17 0.15,-0.25 0,-0.03 -0.01,-0.07 -0.02,-0.11 0,-0.04 0,-0.09 -0.01,-0.11 0.1,-0.08 0.14,-0.11 0.21,-0.24 0.05,-0.09 0.09,-0.2 0.09,-0.28 0.01,-0.1 0.01,-0.18 -0.02,-0.27 -0.02,-0.09 -0.05,-0.18 -0.11,-0.26 -0.07,-0.1 -0.15,-0.16 -0.24,-0.21 -0.09,-0.04 -0.17,-0.05 -0.25,-0.05l-0.11 0.02c-0.11,0.02 -0.21,0.09 -0.29,0.18 -0.01,0.01 -0.04,0.03 -0.04,0.04l0 0.01c0.03,0.03 0.04,0.05 0.07,0.07 0.07,-0.06 0.09,-0.13 0.2,-0.18 0.07,-0.04 0.15,-0.06 0.22,-0.05 0.04,0 0.16,0.02 0.22,0.05 0.14,0.1 0.26,0.25 0.28,0.45 0.01,0.07 0.02,0.17 0.01,0.24 -0.05,0.2 -0.17,0.35 -0.33,0.44 0,0.01 0,0.04 0.01,0.06l0.02 0.19c0,0.02 -0.01,0.04 -0.03,0.07l-0.13 0.21c0.04,0.07 0.08,0.16 0.12,0.23 0.02,0.04 0.01,0.02 -0.02,0.12l-0.05 0.19c-0.02,0.04 -0.02,0.03 -0.01,0.06 0,0.01 0.01,0.11 0.01,0.12 -0.04,0.09 -0.15,0.15 -0.2,0.15 -0.01,-0.02 0,-0.02 -0.01,-0.04 0,-0.1 -0.01,-0.2 -0.01,-0.3 0,-0.03 0,-0.06 0,-0.09l-0.02 -0.42c0,-0.03 0,-0.06 0,-0.09 0,-0.03 -0.01,-0.05 -0.01,-0.08l-0.01 -0.17c0,-0.06 0,-0.12 0,-0.18 -0.03,-0.01 -0.06,-0.01 -0.09,-0.01 -0.01,0 -0.06,-0.04 -0.08,-0.04 -0.13,-0.08 -0.21,-0.22 -0.24,-0.38 0,-0.01 0,-0.05 -0.01,-0.07 0,-0.02 0,-0.04 0,-0.07 -0.02,0.01 -0.03,0.01 -0.05,0.01 -0.01,0 -0.02,0 -0.04,0z"/>
    <line class="fil3 str2" x1="1.06" y1="1.97" x2="1.11" y2= "3.34" />
    <line class="fil3 str2" x1="1.22" y1="1.96" x2="1.23" y2= "2.41" />
    <path class="fil1 str1" d="M0.45 1.12c-0.07,0.13 0.1,0.25 0.17,0.11 0.03,-0.05 0.02,-0.11 -0.03,-0.15 -0.04,-0.02 -0.11,-0.01 -0.14,0.04z"/>
    <ellipse class="fil4 str1" cx="0.97" cy="1.15" rx="0.13" ry="0.15"/>
   </g>
   <g>
    <path class="fil5 str3" d="M2.2 1.13c0,0.23 0,0.26 0,0.49 0.08,0.06 0.16,0.07 0.25,0 0,-0.25 0,-0.3 0,-0.55 0.09,-0.45 0.55,-0.45 0.63,0 0,0.1 0,0.46 0,0.56 0.08,0.04 0.15,0.05 0.22,0 0,-0.08 0.01,-0.41 0.01,-0.49 -0.02,-0.25 -0.1,-0.46 -0.27,-0.6 -0.19,-0.15 -0.39,-0.15 -0.59,-0.01 -0.16,0.15 -0.24,0.35 -0.25,0.6z"/>
    <path class="fil6 str4" d="M2.47 0.7c0,-0.05 -0.02,-0.06 -0.06,-0.05 -0.13,0.06 -0.18,0.25 -0.17,0.55 0,0.06 0.03,0.06 0.04,0.02 0.04,-0.21 0.09,-0.36 0.15,-0.42 0.03,-0.03 0.04,-0.06 0.04,-0.1z"/>
    <path class="fil7 str5" d="M2 3.22c0,-0.42 0,-0.84 0.01,-1.26 0.52,-0.28 1.02,-0.28 1.5,0 0,0.42 0,0.84 0,1.26 -0.1,0.17 -0.51,0.23 -0.76,0.23 -0.26,0 -0.67,-0.07 -0.75,-0.23z"/>
    <path class="fil8 str6" d="M2.75 2.23c-0.37,0 -0.73,-0.06 -0.74,-0.28 0,-0.08 0.47,-0.2 0.75,-0.21 0.27,-0.01 0.74,0.13 0.75,0.21 -0.01,0.23 -0.44,0.28 -0.76,0.28z"/>
    <path class="fil9 str7" d="M2.68 2.89c-0.04,0.1 -0.07,0.2 -0.11,0.3 -0.01,0.02 0,0.04 0.03,0.04 0.03,0 0.18,0 0.28,0 0.03,0 0.04,-0.02 0.03,-0.04 -0.04,-0.1 -0.07,-0.19 -0.11,-0.29 0.06,-0.03 0.1,-0.08 0.09,-0.15 -0.01,-0.1 -0.06,-0.15 -0.15,-0.15 -0.1,0 -0.15,0.07 -0.15,0.15 0,0.06 0.04,0.13 0.09,0.14z"/>
    <path class="fil10 str8" d="M2.69 2.86c-0.02,0.08 -0.05,0.17 -0.08,0.26 0,0.02 0,0.03 0.02,0.03 0.03,0 0.14,0 0.21,0 0.02,0 0.03,-0.01 0.02,-0.03 -0.02,-0.09 -0.05,-0.17 -0.08,-0.26 0.05,-0.03 0.07,-0.07 0.07,-0.13 -0.01,-0.09 -0.05,-0.13 -0.11,-0.13 -0.07,0 -0.11,0.06 -0.11,0.13 0,0.05 0.03,0.11 0.06,0.13z"/>
    <ellipse class="fil11 str9" cx="3.18" cy="1.93" rx="0.14" ry="0.08"/>
    <ellipse class="fil11 str9" cx="2.29" cy="1.93" rx="0.14" ry="0.08"/>
   </g>
  </g>
 </g>
</svg>
