<?xml version="1.0" encoding="UTF-8"?>
<!DOCTYPE svg PUBLIC "-//W3C//DTD SVG 1.1//EN" "http://www.w3.org/Graphics/SVG/1.1/DTD/svg11.dtd">
<!-- Creator: CorelDRAW 2021 (64 Bit) -->
<svg xmlns="http://www.w3.org/2000/svg" xml:space="preserve" width="330px" height="330px" version="1.1" style="shape-rendering:geometricPrecision; text-rendering:geometricPrecision; image-rendering:optimizeQuality; fill-rule:evenodd; clip-rule:evenodd"
viewBox="0 0 171.51 171.51"
 xmlns:xlink="http://www.w3.org/1999/xlink"
 xmlns:xodm="http://www.corel.com/coreldraw/odm/2003">
 <defs>
  <style type="text/css">
   <![CDATA[
    .str1 {stroke:black;stroke-width:5.2;stroke-miterlimit:22.9256}
    .str0 {stroke:#C4C4C4;stroke-width:15.59;stroke-miterlimit:22.9256}
    .fil4 {fill:#282829}
    .fil2 {fill:#28F95A}
    .fil3 {fill:#FE0018}
    .fil1 {fill:red}
    .fil0 {fill:white}
   ]]>
  </style>
 </defs>
 <g id="Camada_x0020_1">
  <metadata id="CorelCorpID_0Corel-Layer"/>
  <g id="_2713627293072">
   <circle class="fil0 str0" cx="85.75" cy="85.75" r="77.96"/>
   <g>
    <path class="fil1" d="M103.45 93.16l0.55 0.85c-2.17,-1.23 -4.9,-3.67 -9.02,-5.85 -9.46,-5.03 -19.43,-5.08 -29.79,-6.47l1.78 -9.11c3.86,-0.54 17.62,4.74 20.85,6.51 2.43,1.34 5.64,3.01 8.51,5.3 2.88,2.29 5.11,4.29 7.12,8.77z"/>
    <g>
     <path class="fil2 str1" d="M51.56 117.66l0.02 -14.17 6.47 0.04c0,1.79 -0.29,13.48 0.22,14.04 -0.07,1.89 1.12,4.05 1.99,4.94 1.3,1.33 2.97,1.6 5.49,1.6l42.66 0c3.37,0 11.07,0.68 13.22,-0.97 3.3,-2.54 2.95,-6.23 2.95,-11.24l0 -56.71c0,-4.69 -0.66,-8.58 -4.37,-9.82 -1.56,-0.52 -39.02,-0.23 -42.46,-0.23 -4.2,0 -10.25,-0.36 -14.22,0.03 -4.45,0.44 -5.41,5.23 -5.41,8.87l-6.67 0.11c0,-5.92 1.58,-10.02 4.8,-12.7 4.47,-3.73 7.9,-2.98 14.61,-2.98 11.7,0 23.4,0 35.11,0 7.45,0 17.75,-1.51 21.89,4.36 1.18,1.68 2.32,3.33 2.94,5.96 0.89,3.72 0.44,28.85 0.44,34.65 0,6.31 0.33,30.64 -0.07,34.8 -0.52,5.46 -3.35,8.92 -6.62,10.94 -3.79,2.34 -10.91,1.6 -15.92,1.6 -11.7,0 -23.4,0 -35.1,0 -5.27,0 -11.72,0.8 -15.72,-1.81 -2.81,-1.83 -6.49,-6.15 -6.25,-11.31l0 0z"/>
     <g>
      <path class="fil3" d="M57.32 89.67c-2.62,-1.43 -20.01,-14.07 -20.86,-14.98l26.65 -10.33 -5.79 25.31 0 0z"/>
      <path class="fil4" d="M101.69 91.38l1.35 1.12c-0.19,-0.82 -0.39,-1.14 -1.01,-1.77 -2.25,-4.91 -10.01,-9.51 -14.74,-11.9 -3.15,-1.6 -16.61,-6.35 -20.38,-5.86l-1.73 8.2c10.12,1.24 19.86,1.28 29.11,5.81 4.02,1.97 5.28,3.3 7.4,4.4zm-44.21 -3.04l5.08 -22.88 -25.45 9.4c0.82,0.82 17.82,12.2 20.37,13.48l0 0zm10.83 -21.29c9.73,2.38 10.76,1.83 20.8,6.18 14.83,6.44 19.3,15.02 24.76,29.09 1.5,3.86 6.42,16.47 7.31,19.57 -0.06,-0.05 -0.13,-0.12 -0.17,-0.15l-10.3 -12.76c-2.57,-3.23 -5.18,-6.46 -8.26,-9.21 -0.55,-0.49 -0.89,-0.92 -1.46,-1.44 -4.29,-3.82 -10.37,-7.15 -17.08,-8.82 -3.66,-0.91 -16.57,-2.87 -20.16,-2.48l-2.53 10.78 -35.94 -23.58c-0.62,-0.43 -0.62,-0.44 -0.99,-0.82l46.39 -17.05 -2.37 10.69 0 0z"/>
     </g>
    </g>
   </g>
  </g>
 </g>
</svg>
