<?xml version="1.0" encoding="UTF-8"?>
<!DOCTYPE svg PUBLIC "-//W3C//DTD SVG 1.1//EN" "http://www.w3.org/Graphics/SVG/1.1/DTD/svg11.dtd">
<!-- Creator: CorelDRAW 2021 (64 Bit) -->
<svg xmlns="http://www.w3.org/2000/svg" xml:space="preserve" width="301px" height="300px" version="1.1" style="shape-rendering:geometricPrecision; text-rendering:geometricPrecision; image-rendering:optimizeQuality; fill-rule:evenodd; clip-rule:evenodd"
viewBox="0 0 21.99 21.92"
 xmlns:xlink="http://www.w3.org/1999/xlink"
 xmlns:xodm="http://www.corel.com/coreldraw/odm/2003">
 <defs>
  <style type="text/css">
   <![CDATA[
    .fil2 {fill:black}
    .fil4 {fill:#8A8A8A}
    .fil1 {fill:#B7B3B5}
    .fil0 {fill:#FDFDFD}
    .fil3 {fill:red}
   ]]>
  </style>
 </defs>
 <g id="Camada_x0020_1">
  <metadata id="CorelCorpID_0Corel-Layer"/>
  <g id="_2713634987424">
   <path class="fil0" d="M4.72 14.1c0.93,-0.07 1.87,-0.2 2.8,-0.3 1.63,-0.17 1.15,-0.29 1.99,0.73l2.69 3.37c-0.17,0.22 -0.58,0.53 -0.82,0.71 -0.43,-0.4 -0.95,-1.15 -1.34,-1.62 -0.47,-0.57 -0.86,-1.06 -1.34,-1.65 -0.31,-0.4 -0.26,-0.62 -0.88,-0.53l-1.97 0.27c-0.48,0.06 -0.7,-0.27 -1.13,-0.98zm4.14 -1.44c-0.14,0.17 -0.15,0.18 -0.41,0.2l-4.38 0.53c-0.09,-0.19 -0.27,-0.41 -0.44,-0.55 -0.1,-0.09 -0.05,-0.01 -0.16,-0.18 -0.01,-0.03 -0.05,-0.11 -0.05,-0.12 0,-0.1 0.16,-0.11 0.32,-0.12l3.57 -0.43c-0.19,-0.39 -0.51,-0.81 -0.75,-1.31 -1.69,-3.56 1.8,-7.85 5.94,-6.68 1.94,0.55 3.39,2.07 3.6,4.37 0.16,1.88 -0.61,3.03 -1.62,4.21 -0.29,0.34 -0.72,0.75 -0.31,1.21 0.25,-0.14 0.51,-0.61 0.84,-0.8l-0.07 2.33 -1.65 0.23c-0.03,0.19 0.03,0.23 0.13,0.42 0.23,0.23 0.33,0.33 0.48,0.65 -0.36,0.19 -0.54,0.44 -0.92,0.63 -0.16,-0.31 -0.58,-0.78 -0.82,-1.07l-2.55 -3.18 1.42 -3.93 0.62 0.69c0.25,0.37 -0.54,1.81 -0.78,2.73 -0.08,0.32 0.16,0.49 0.37,0.74 0.28,0.35 1.45,1.87 1.7,2.03l0.4 -0.5c-0.19,-0.3 -0.59,-0.54 -0.64,-1.1 -0.07,-0.81 0.64,-1.62 1.13,-2.24 1.83,-2.24 1.04,-4.73 -0.62,-5.78 -3.38,-2.12 -7.67,1.69 -4.93,5.51 0.45,-0.67 0.95,-3.35 1.36,-3.83 0.22,0.19 0.75,0.75 0.67,1.08 -0.22,0.86 -1.33,3.37 -1.45,4.26zm-6.81 -10.64c0,1.03 -0.12,17.33 0.02,17.89l17.86 0 0.02 -17.89 -17.9 0z"/>
   <path class="fil1" d="M2.05 2.02l17.9 0 -0.02 17.89 -17.86 0c-0.14,-0.56 -0.02,-16.86 -0.02,-17.89zm-2.05 0.24l0 17.9c0,0.88 0.94,1.76 1.83,1.76l18.4 0c1.01,0 1.76,-1.02 1.76,-2.2l0 -17.53c0,-1.14 -0.77,-2.19 -1.76,-2.19l-18.48 0c-1.03,0 -1.75,1.12 -1.75,2.26z"/>
   <path class="fil2" d="M3.74 12.42l-0.27 0.11 0.16 0.31c0.17,0.14 0.35,0.36 0.44,0.55l4.38 -0.53 0.41 -0.2c0.12,-0.89 1.23,-3.4 1.45,-4.26 0.08,-0.33 -0.45,-0.89 -0.67,-1.08 -0.41,0.48 -0.91,3.16 -1.36,3.83 -2.74,-3.82 1.55,-7.63 4.93,-5.51 1.66,1.05 2.45,3.54 0.62,5.78 -0.49,0.62 -1.2,1.43 -1.13,2.24 0.05,0.56 0.45,0.8 0.64,1.1l-0.4 0.5c-0.25,-0.16 -1.42,-1.68 -1.7,-2.03 -0.21,-0.25 -0.45,-0.42 -0.37,-0.74 0.24,-0.92 1.03,-2.36 0.78,-2.73l-0.62 -0.69 -1.42 3.93 2.55 3.18c0.24,0.29 0.66,0.76 0.82,1.07 0.38,-0.19 0.56,-0.44 0.92,-0.63 -0.15,-0.32 -0.25,-0.42 -0.48,-0.65l-0.08 -0.08c-0.01,-0.01 -0.02,-0.03 -0.03,-0.05l-0.02 -0.29 1.65 -0.23 0.07 -2.33c-0.33,0.19 -0.59,0.66 -0.84,0.8 -0.41,-0.46 0.02,-0.87 0.31,-1.21 1.01,-1.18 1.78,-2.33 1.62,-4.21 -0.21,-2.3 -1.66,-3.82 -3.6,-4.37 -4.14,-1.17 -7.63,3.12 -5.94,6.68 0.24,0.5 0.56,0.92 0.75,1.31l-3.57 0.43z"/>
   <path class="fil3" d="M4.72 14.1c0.43,0.71 0.65,1.04 1.13,0.98l1.97 -0.27c0.62,-0.09 0.57,0.13 0.88,0.53 0.48,0.59 0.87,1.08 1.34,1.65 0.39,0.47 0.91,1.22 1.34,1.62 0.24,-0.18 0.65,-0.49 0.82,-0.71l-2.69 -3.37c-0.84,-1.02 -0.36,-0.9 -1.99,-0.73 -0.93,0.1 -1.87,0.23 -2.8,0.3z"/>
   <path class="fil4" d="M3.63 12.84l-0.16 -0.31 0.27 -0.11c-0.16,0.01 -0.32,0.02 -0.32,0.12 0,0.01 0.04,0.09 0.05,0.12 0.11,0.17 0.06,0.09 0.16,0.18z"/>
   <path class="fil4" d="M8.45 12.86c0.26,-0.02 0.27,-0.03 0.41,-0.2l-0.41 0.2z"/>
   <path class="fil4" d="M13.42 15.97c-0.1,-0.19 -0.16,-0.23 -0.13,-0.42l0.02 0.29c0.01,0.02 0.02,0.04 0.03,0.05l0.08 0.08z"/>
  </g>
 </g>
</svg>
