<?xml version="1.0" encoding="UTF-8"?>
<!DOCTYPE svg PUBLIC "-//W3C//DTD SVG 1.1//EN" "http://www.w3.org/Graphics/SVG/1.1/DTD/svg11.dtd">
<!-- Creator: CorelDRAW 2021 (64 Bit) -->
<svg xmlns="http://www.w3.org/2000/svg" xml:space="preserve" width="400px" height="400px" version="1.1" style="shape-rendering:geometricPrecision; text-rendering:geometricPrecision; image-rendering:optimizeQuality; fill-rule:evenodd; clip-rule:evenodd"
viewBox="0 0 4 4"
 xmlns:xlink="http://www.w3.org/1999/xlink"
 xmlns:xodm="http://www.corel.com/coreldraw/odm/2003">
 <defs>
  <style type="text/css">
   <![CDATA[
    .str0 {stroke:#B8B4B6;stroke-width:0.3;stroke-miterlimit:22.9256}
    .str1 {stroke:black;stroke-width:0.02;stroke-miterlimit:22.9256}
    .str2 {stroke:black;stroke-width:0.01;stroke-miterlimit:22.9256}
    .str3 {stroke:yellow;stroke-width:0.01;stroke-miterlimit:22.9256}
    .fil5 {fill:none}
    .fil6 {fill:black}
    .fil4 {fill:#CCCCCC}
    .fil1 {fill:#E6E6E6}
    .fil2 {fill:yellow}
    .fil3 {fill:#FFFF99}
    .fil0 {fill:white}
   ]]>
  </style>
 </defs>
 <g id="Camada_x0020_1">
  <metadata id="CorelCorpID_0Corel-Layer"/>
  <g id="_2069751008288">
   <path class="fil0 str0" d="M0.32 0.15l3.37 0c0.09,0 0.16,0.08 0.16,0.19l0 3.33c0,0.1 -0.07,0.18 -0.16,0.18l-3.37 0c-0.09,0 -0.17,-0.08 -0.17,-0.18 0,-0.4 0,-3.23 0,-3.37 0,-0.08 0.1,-0.15 0.17,-0.15z"/>
   <g>
    <g>
     <polygon class="fil1 str1" points="3.13,2.13 2.87,2.13 2.93,2.08 3.08,2.08 "/>
     <rect class="fil2 str1" x="1.8" y="2.13" width="1.38" height="0.66"/>
     <g>
      <g>
       <rect class="fil3 str1" x="0.95" y="2.68" width="1.38" height="0.55"/>
       <polygon class="fil4 str1" points="2.05,2.68 1.78,2.68 1.85,2.66 2,2.66 "/>
      </g>
      <g>
       <polygon class="fil4 str1" points="1.8,2.74 1.53,2.74 1.6,2.72 1.75,2.72 "/>
       <rect class="fil3 str1" x="0.9" y="2.75" width="1.38" height="0.55"/>
      </g>
      <g>
       <rect class="fil3 str1" x="0.84" y="2.81" width="1.38" height="0.56"/>
       <polygon class="fil5 str1" points="1.48,2.81 1.21,2.81 1.27,2.78 1.42,2.78 "/>
       <polygon class="fil4 str1" points="1.48,2.81 1.21,2.81 1.27,2.78 1.42,2.78 "/>
      </g>
      <g>
       <rect class="fil3 str1" x="0.79" y="2.87" width="1.38" height="0.55"/>
       <polygon class="fil4 str1" points="1.14,2.87 0.88,2.87 0.94,2.85 1.09,2.85 "/>
      </g>
     </g>
    </g>
    <g>
     <path class="fil0" d="M1.94 1.35c0.02,0 0.04,0 0.05,-0.01 0,-0.01 0.01,-0.01 0.01,-0.02 0.01,0 0.02,-0.01 0.02,-0.01 0.01,0.01 0.02,0.02 0.02,0.02 0,0.02 -0.03,0.03 -0.04,0.04 -0.04,0.03 -0.09,0.03 -0.13,0.01 -0.01,-0.01 -0.03,-0.03 -0.04,-0.04 0.01,-0.01 0.02,-0.02 0.03,-0.03 0.02,0.04 0.05,0.04 0.08,0.04zm0.08 -0.23c0.05,-0.01 0.06,0.07 0.01,0.08 -0.02,0.01 -0.04,-0.01 -0.04,-0.03 -0.01,-0.03 0.01,-0.04 0.03,-0.05zm-0.2 0c0.02,0 0.04,0.01 0.05,0.03 0,0.03 -0.01,0.05 -0.03,0.05 -0.05,0.01 -0.07,-0.07 -0.02,-0.08zm0.36 0.04c0,-0.04 0.01,-0.08 -0.01,-0.11 0,-0.01 -0.02,-0.02 -0.03,-0.03 -0.03,-0.02 -0.03,-0.01 -0.06,0.01 -0.04,0.04 -0.09,0.06 -0.15,0.06 -0.07,0.01 -0.12,-0.04 -0.16,-0.07 -0.02,-0.02 -0.03,-0.01 -0.05,0 -0.01,0 -0.02,0.01 -0.03,0.03 0,0.01 -0.01,0.04 0,0.06 0,0.02 0,0.03 0,0.05l-0.04 0.01c-0.01,0.02 0.01,0.06 0.01,0.08 0,0.02 0.01,0.03 0.02,0.04 0.01,0 0.03,0 0.04,0 0.01,0.03 0.01,0.05 0.03,0.07 0.01,0.02 0.03,0.05 0.04,0.06 0.02,0.02 0.04,0.03 0.06,0.04 0.03,0.01 0.06,0.01 0.09,0.01 0.06,0 0.1,-0.02 0.14,-0.05 0.01,-0.01 0.04,-0.04 0.05,-0.06 0.02,-0.03 0.01,-0.04 0.03,-0.07 0.02,0 0.03,0.01 0.04,-0.01 0.01,-0.02 0.01,-0.03 0.02,-0.05 0,-0.02 0.01,-0.05 0,-0.05 -0.01,-0.01 -0.03,-0.01 -0.04,-0.02z"/>
     <path class="fil0" d="M2.39 1.43c-0.07,0.02 -0.04,0.13 0.02,0.11 0.03,0 0.05,-0.03 0.05,-0.07 -0.01,-0.02 -0.04,-0.05 -0.07,-0.04z"/>
     <path class="fil6" d="M1.94 1.35c-0.03,0 -0.06,0 -0.08,-0.04 -0.01,0.01 -0.02,0.02 -0.03,0.03 0.01,0.01 0.03,0.03 0.04,0.04 0.04,0.02 0.09,0.02 0.13,-0.01 0.01,-0.01 0.04,-0.02 0.04,-0.04 0,0 -0.01,-0.01 -0.02,-0.02 0,0 -0.01,0.01 -0.02,0.01 0,0.01 -0.01,0.01 -0.01,0.02 -0.01,0.01 -0.03,0.01 -0.05,0.01z"/>
     <polygon class="fil6" points="1.57,2.02 1.6,2.02 1.6,1.86 1.57,1.86 "/>
     <polygon class="fil6" points="2.29,2.02 2.32,2.02 2.33,2.01 2.33,1.87 2.32,1.87 2.29,1.87 "/>
     <path class="fil6" d="M2.02 1.12c-0.02,0.01 -0.04,0.02 -0.03,0.05 0,0.02 0.02,0.04 0.04,0.03 0.05,-0.01 0.04,-0.09 -0.01,-0.08z"/>
     <path class="fil6" d="M1.82 1.12c-0.05,0.01 -0.03,0.09 0.02,0.08 0.02,0 0.03,-0.02 0.03,-0.05 -0.01,-0.02 -0.03,-0.03 -0.05,-0.03z"/>
     <path class="fil6 str2" d="M2.18 1.16c0.01,0.01 0.03,0.01 0.04,0.02 0.01,0 0,0.03 0,0.05 -0.01,0.02 -0.01,0.03 -0.02,0.05 -0.01,0.02 -0.02,0.01 -0.04,0.01 -0.02,0.03 -0.01,0.04 -0.03,0.07 -0.01,0.02 -0.04,0.05 -0.05,0.06 -0.04,0.03 -0.08,0.05 -0.14,0.05 -0.03,0 -0.06,0 -0.09,-0.01 -0.02,-0.01 -0.04,-0.02 -0.06,-0.04 -0.01,-0.01 -0.03,-0.04 -0.04,-0.06 -0.02,-0.02 -0.02,-0.04 -0.03,-0.07 -0.01,0 -0.03,0 -0.04,0 -0.01,-0.01 -0.02,-0.02 -0.02,-0.04 0,-0.02 -0.02,-0.06 -0.01,-0.08l0.04 -0.01c0,-0.02 0,-0.03 0,-0.05 -0.01,-0.02 0,-0.05 0,-0.06 0.01,-0.02 0.02,-0.03 0.03,-0.03 0.02,-0.01 0.03,-0.02 0.05,0 0.04,0.03 0.09,0.08 0.16,0.07 0.06,0 0.11,-0.02 0.15,-0.06 0.03,-0.02 0.03,-0.03 0.06,-0.01 0.01,0.01 0.03,0.02 0.03,0.03 0.02,0.03 0.01,0.07 0.01,0.11zm-0.36 -0.41c-0.05,0.02 -0.1,0.07 -0.12,0.11 -0.02,0.03 -0.04,0.06 -0.05,0.11 0,0.03 0,0.06 0,0.08 0,0.03 0,0.05 0,0.08 -0.02,0 -0.03,0.01 -0.03,0.03 -0.01,0.02 -0.01,0.04 0,0.07 0.02,0.13 0.06,0.07 0.08,0.12 0.01,0.02 0.01,0.02 0.03,0.04l0.03 0.04c0.01,0.01 0.02,0.03 0.03,0.03 0,0.02 0,0.08 0,0.1 0,0.01 0,0.01 -0.01,0.01 -0.05,0.01 -0.15,0.03 -0.2,0.04 -0.03,0 -0.06,0.01 -0.09,0.02 -0.01,0.01 -0.02,0.02 -0.04,0.03 -0.03,0.02 -0.06,0.06 -0.07,0.11 0,0.03 0,0.09 0,0.12 0,0.04 0,0.09 0,0.13 0.02,0 0.03,0 0.04,-0.01l0 -0.16c0,-0.05 0,-0.11 0.04,-0.15 0.02,-0.02 0.03,-0.03 0.06,-0.04 0.05,-0.02 0.1,-0.02 0.16,-0.03 0.02,-0.01 0.05,-0.02 0.08,-0.02 0,0.04 0,0.05 0.02,0.08 0.02,0.04 0.05,0.06 0.09,0.08 0.02,0.01 0.05,0.02 0.07,0.02 0.08,-0.01 0.18,-0.08 0.18,-0.18l0.21 0.04c0.06,0.01 0.13,0.06 0.13,0.14 0,0.08 0.01,0.15 0.01,0.23l0.03 0 0 -0.22c-0.01,-0.1 -0.06,-0.17 -0.18,-0.19 -0.07,-0.01 -0.14,-0.03 -0.2,-0.04 -0.03,0 -0.03,0 -0.03,-0.03 0,-0.03 0,-0.06 0,-0.08 0.01,-0.01 0.02,-0.03 0.04,-0.04 0.01,-0.01 0.04,-0.06 0.05,-0.09 0.06,0 0.06,-0.05 0.07,-0.09 0,-0.01 0.01,-0.02 0.01,-0.03 0,-0.01 0,-0.02 0,-0.04 -0.01,-0.02 -0.02,-0.03 -0.04,-0.04 0,-0.08 0.01,-0.11 -0.01,-0.19 -0.02,-0.05 -0.03,-0.08 -0.07,-0.12 -0.01,-0.01 -0.01,-0.01 -0.02,-0.02 -0.01,-0.01 -0.03,-0.03 -0.05,-0.03 -0.05,-0.04 -0.09,-0.05 -0.15,-0.04 -0.03,0 -0.06,0 -0.1,0.02zm-0.09 0.13c0.03,-0.03 0.06,-0.07 0.12,-0.1 0.02,-0.01 0.03,-0.02 0.05,-0.02 0.04,0 0.09,0.01 0.13,0.02 0.03,0.01 0.04,0.03 0.06,0.05 0.03,0.02 0.04,0.03 0.06,0.06 0.01,0.02 0.04,0.09 0.03,0.12 -0.01,-0.01 -0.03,-0.03 -0.05,-0.04 -0.01,0 -0.02,0 -0.04,0.01 -0.01,0 -0.01,0.01 -0.02,0.02 -0.09,0.07 -0.16,0.08 -0.26,0 -0.01,-0.01 -0.02,-0.01 -0.03,-0.02 -0.01,-0.01 -0.01,-0.01 -0.03,-0.01 -0.04,0 -0.05,0.02 -0.07,0.03 0,-0.06 0.04,-0.1 0.05,-0.12zm0.21 0.87c0,0 0.01,0 0.01,0 0.01,0 0.02,-0.01 0.03,-0.01 0.06,-0.01 0.11,-0.07 0.11,-0.13 -0.02,-0.01 -0.04,-0.03 -0.04,-0.06l0.01 -0.07 0 0c-0.01,0 -0.01,0 -0.01,0 -0.03,0.02 -0.07,0.03 -0.11,0.03 -0.03,0 -0.06,0 -0.09,-0.01 -0.01,-0.01 -0.02,-0.01 -0.02,-0.01 -0.01,0.02 0,0.05 0,0.08 -0.01,0.02 -0.02,0.03 -0.04,0.04 0,0.07 0.06,0.12 0.11,0.13 0.02,0.01 0.03,0.01 0.04,0.01z"/>
    </g>
    <path class="fil2 str3" d="M1.42 1.81l0 0.21 0.15 0 0 -0.16 0.03 0 0 0.16 0.69 -0.01 0 -0.14 0.04 0 0 0.14 0.14 0.01 -0.01 -0.23c0,-0.07 -0.05,-0.12 -0.12,-0.14l-0.22 -0.04c-0.01,0.1 -0.07,0.16 -0.18,0.17 -0.1,0 -0.16,-0.05 -0.18,-0.17l-0.21 0.04c-0.09,0.03 -0.13,0.08 -0.13,0.16z"/>
   </g>
  </g>
 </g>
</svg>
