<?xml version="1.0" encoding="UTF-8"?>
<!DOCTYPE svg PUBLIC "-//W3C//DTD SVG 1.1//EN" "http://www.w3.org/Graphics/SVG/1.1/DTD/svg11.dtd">
<!-- Creator: CorelDRAW 2021 (64 Bit) -->
<svg xmlns="http://www.w3.org/2000/svg" xml:space="preserve" width="400px" height="400px" version="1.1" style="shape-rendering:geometricPrecision; text-rendering:geometricPrecision; image-rendering:optimizeQuality; fill-rule:evenodd; clip-rule:evenodd"
viewBox="0 0 18.86 18.86"
 xmlns:xlink="http://www.w3.org/1999/xlink"
 xmlns:xodm="http://www.corel.com/coreldraw/odm/2003">
 <defs>
  <style type="text/css">
   <![CDATA[
    .str3 {stroke:#AEA19E;stroke-width:0.75;stroke-miterlimit:22.9256;stroke-opacity:0.949020}
    .str0 {stroke:#B8B4B6;stroke-width:1.41;stroke-miterlimit:22.9256}
    .str2 {stroke:white;stroke-width:0.09;stroke-miterlimit:22.9256}
    .str4 {stroke:black;stroke-width:0.57;stroke-miterlimit:22.9256}
    .str1 {stroke:black;stroke-width:0.75;stroke-miterlimit:22.9256}
    .fil6 {fill:none}
    .fil3 {fill:#E6E7E8}
    .fil2 {fill:#373435}
    .fil1 {fill:red}
    .fil0 {fill:white}
    .fil4 {fill:#333333;fill-rule:nonzero}
    .fil5 {fill:#FEFEFE;fill-rule:nonzero;fill-opacity:0.949020}
   ]]>
  </style>
 </defs>
 <g id="Camada_x0020_1">
  <metadata id="CorelCorpID_0Corel-Layer"/>
  <g id="_2069705004176">
   <path class="fil0 str0" d="M1.49 0.71l15.89 0c0.43,0 0.77,0.39 0.77,0.87l0 15.7c0,0.48 -0.34,0.87 -0.77,0.87l-15.89 0c-0.42,0 -0.76,-0.39 -0.76,-0.87 0,-1.89 -0.03,-15.21 -0.02,-15.89 0.01,-0.38 0.47,-0.68 0.78,-0.68z"/>
   <g>
    <ellipse class="fil1 str1" cx="9.25" cy="9.24" rx="1.54" ry="1.58"/>
    <path class="fil2" d="M7.87 6.84c0.01,-0.03 0.03,-0.05 0.05,-0.03 0.05,0.03 0.23,0.05 0.31,0.07 0.53,0.12 1.15,-0.07 1.55,-0.14 0.27,-0.05 0.39,-0.09 0.51,-0.1 0.09,0 0.21,0.11 0.33,0.2 -0.11,0.39 -0.05,0.64 0.18,0.87 0.09,0.09 0.2,0.17 0.37,0.21 0.21,0.05 0.29,0.01 0.48,-0.04l0.27 0.68c-0.72,0.29 -0.55,1.3 0,1.47l-0.28 0.67c-0.19,-0.05 -0.28,-0.09 -0.51,-0.03 -0.14,0.05 -0.28,0.14 -0.35,0.22 -0.06,0.07 -0.16,0.23 -0.19,0.37 -0.05,0.22 -0.01,0.31 0.04,0.49l-0.08 0.06c-0.04,-0.07 -0.35,-0.17 -0.43,-0.23 -0.29,0.01 -1.36,0.14 -1.53,0.2 -0.08,0.02 -0.44,0.04 -0.47,0.08l-0.24 -0.1c0.1,-0.4 0.05,-0.65 -0.18,-0.88 -0.08,-0.08 -0.2,-0.17 -0.35,-0.21 -0.22,-0.06 -0.32,-0.01 -0.5,0.03l-0.27 -0.66c0.09,-0.08 0.48,-0.22 0.48,-0.74 0,-0.19 -0.06,-0.35 -0.15,-0.47 -0.05,-0.08 -0.08,-0.11 -0.15,-0.16 -0.06,-0.05 -0.12,-0.07 -0.18,-0.12l0.27 -0.66c0.51,0.15 0.93,-0.09 1.05,-0.54 0.06,-0.21 0.02,-0.32 -0.03,-0.51zm0.54 -0.05c-0.26,-0.04 -0.35,-0.08 -0.58,-0.26 -0.12,0.05 -0.2,0.08 -0.24,0.2 -0.06,0.17 0.04,0.25 0.04,0.41 0.01,0.25 -0.19,0.46 -0.4,0.5 -0.19,0.03 -0.26,-0.06 -0.4,-0.06 -0.14,0.01 -0.22,0.1 -0.26,0.21 -0.09,0.21 -0.17,0.42 -0.26,0.63 -0.14,0.36 0.24,0.43 0.33,0.53 0.16,0.19 0.17,0.47 0.01,0.67 -0.1,0.13 -0.47,0.18 -0.34,0.53 0.07,0.21 0.17,0.43 0.25,0.64 0.17,0.38 0.41,0.15 0.62,0.16 0.23,0.01 0.43,0.2 0.45,0.43 0.03,0.19 -0.06,0.25 -0.05,0.39 0.01,0.15 0.09,0.22 0.19,0.27 0.08,0.02 0.26,0.02 0.48,-0.03 0.15,-0.02 1.13,-0.22 1.27,-0.25 0.24,-0.1 0.82,0.01 1.19,0.28 0.37,-0.16 0.14,-0.43 0.16,-0.63 0.01,-0.24 0.2,-0.44 0.43,-0.46 0.19,-0.03 0.48,0.2 0.63,-0.15 0.09,-0.2 0.17,-0.42 0.26,-0.64 0.13,-0.35 -0.24,-0.43 -0.32,-0.52 -0.16,-0.16 -0.18,-0.45 -0.03,-0.66 0.1,-0.16 0.46,-0.18 0.36,-0.53l-0.26 -0.64c-0.16,-0.39 -0.4,-0.17 -0.6,-0.17 -0.25,0 -0.44,-0.2 -0.47,-0.42 -0.04,-0.23 0.2,-0.51 -0.13,-0.66 -0.2,-0.1 -0.1,-0.05 -0.31,-0.14 -0.29,0.08 -0.88,0.2 -1.49,0.32 -0.1,0.02 -0.2,0.05 -0.53,0.05z"/>
    <g>
     <rect class="fil3 str2" x="2.91" y="10.89" width="2.23" height="5.24"/>
     <path class="fil4" d="M8.83 16.47c-0.43,0 -0.85,-0.16 -1.26,-0.32 -0.45,-0.17 -0.91,-0.35 -1.37,-0.3l-1.14 0.1 0 -4.52 0.62 -0.05c0.38,-0.04 0.71,0.12 1.02,0.27 0.29,0.13 0.57,0.27 0.88,0.24l2.04 -0.38c0.73,-0.13 1.13,0.3 1.38,0.7l2.22 -1.06c0.84,-0.38 1.78,0 2.35,0.96 0.15,0.26 0.07,0.59 -0.18,0.75 -0.29,0.18 -0.58,0.37 -0.86,0.55 -2.49,1.59 -4.63,2.97 -5.55,3.05 -0.05,0.01 -0.1,0.01 -0.15,0.01zm-2.49 -0.94c0.47,0 0.91,0.17 1.34,0.33 0.44,0.17 0.86,0.33 1.27,0.29 0.85,-0.07 3.06,-1.5 5.41,-3 0.29,-0.19 0.58,-0.37 0.86,-0.55 0.11,-0.07 0.15,-0.22 0.09,-0.33 -0.48,-0.81 -1.27,-1.15 -1.96,-0.83l-2.47 1.17c-0.01,-0.16 -0.13,-0.35 -0.2,-0.44 -0.23,-0.27 -0.67,-0.41 -1.01,-0.35l-2.05 0.38c-0.41,0.03 -0.73,-0.12 -1.05,-0.27 -0.29,-0.14 -0.56,-0.27 -0.86,-0.24l-0.35 0.03 0 3.89 0.81 -0.07c0.06,-0.01 0.11,-0.01 0.17,-0.01z"/>
     <path class="fil5 str3" d="M4.85 16.47l-1.74 0c-0.29,0 -0.52,-0.24 -0.52,-0.53l0 -4.79c0,-0.29 0.23,-0.53 0.52,-0.53l1.74 0c0.28,0 0.51,0.24 0.51,0.53l0 4.79c0,0.29 -0.23,0.53 -0.51,0.53zm-1.74 -5.54c-0.12,0 -0.22,0.1 -0.22,0.22l0 4.79c0,0.12 0.1,0.22 0.22,0.22l1.74 0c0.11,0 0.21,-0.1 0.21,-0.22l0 -4.79c0,-0.12 -0.1,-0.22 -0.21,-0.22l-1.74 0z"/>
     <path class="fil6 str4" d="M10.99 12.53c0.04,0.07 0.05,0.2 -0.04,0.34 -0.13,0.22 -0.43,0.38 -1.17,0.3 -0.54,-0.07 -1.19,0.06 -1.75,0.12"/>
    </g>
    <g>
     <rect class="fil3 str2" x="13.24" y="2.38" width="2.23" height="5.24"/>
     <path class="fil4" d="M9.55 2.05c0.43,0 0.85,0.16 1.26,0.31 0.45,0.17 0.91,0.35 1.37,0.31l1.14 -0.1 0 4.51 -0.62 0.06c-0.38,0.03 -0.71,-0.12 -1.02,-0.27 -0.29,-0.14 -0.57,-0.27 -0.88,-0.24l-2.04 0.37c-0.73,0.13 -1.13,-0.3 -1.38,-0.69l-2.22 1.05c-0.84,0.39 -1.78,0 -2.35,-0.96 -0.15,-0.25 -0.07,-0.59 0.18,-0.75 0.29,-0.18 0.58,-0.36 0.86,-0.55 2.49,-1.59 4.63,-2.97 5.55,-3.05 0.05,0 0.1,0 0.15,0zm2.49 0.94c-0.47,0 -0.91,-0.17 -1.34,-0.33 -0.44,-0.17 -0.86,-0.33 -1.27,-0.3 -0.85,0.08 -3.06,1.5 -5.41,3.01 -0.29,0.18 -0.58,0.37 -0.86,0.55 -0.11,0.07 -0.15,0.21 -0.09,0.32 0.48,0.82 1.27,1.16 1.96,0.84l2.47 -1.18c0.01,0.17 0.13,0.36 0.2,0.44 0.23,0.28 0.67,0.42 1.01,0.36l2.05 -0.38c0.41,-0.04 0.73,0.12 1.05,0.27 0.29,0.13 0.56,0.26 0.86,0.24l0.35 -0.03 0 -3.89 -0.81 0.07c-0.06,0.01 -0.11,0.01 -0.17,0.01z"/>
     <path class="fil5 str3" d="M13.53 2.05l1.74 0c0.29,0 0.52,0.23 0.52,0.53l0 4.79c0,0.29 -0.23,0.53 -0.52,0.53l-1.74 0c-0.28,0 -0.51,-0.24 -0.51,-0.53l0 -4.79c0,-0.3 0.23,-0.53 0.51,-0.53zm1.74 5.53c0.12,0 0.22,-0.09 0.22,-0.21l0 -4.79c0,-0.12 -0.1,-0.22 -0.22,-0.22l-1.74 0c-0.11,0 -0.21,0.1 -0.21,0.22l0 4.79c0,0.12 0.1,0.21 0.21,0.21l1.74 0z"/>
     <path class="fil6 str4" d="M7.39 5.98c-0.04,-0.07 -0.05,-0.2 0.04,-0.34 0.13,-0.21 0.43,-0.38 1.17,-0.29 0.54,0.06 1.19,-0.07 1.75,-0.13"/>
    </g>
   </g>
  </g>
 </g>
</svg>
