<?xml version="1.0" encoding="UTF-8"?>
<!DOCTYPE svg PUBLIC "-//W3C//DTD SVG 1.1//EN" "http://www.w3.org/Graphics/SVG/1.1/DTD/svg11.dtd">
<!-- Creator: CorelDRAW 2021 (64 Bit) -->
<svg xmlns="http://www.w3.org/2000/svg" xml:space="preserve" width="400px" height="400px" version="1.1" style="shape-rendering:geometricPrecision; text-rendering:geometricPrecision; image-rendering:optimizeQuality; fill-rule:evenodd; clip-rule:evenodd"
viewBox="0 0 2.53 2.53"
 xmlns:xlink="http://www.w3.org/1999/xlink"
 xmlns:xodm="http://www.corel.com/coreldraw/odm/2003">
 <defs>
  <style type="text/css">
   <![CDATA[
    .str0 {stroke:#B8B4B6;stroke-width:0.19;stroke-miterlimit:22.9256}
    .str7 {stroke:#F5A980;stroke-width:0.03;stroke-miterlimit:22.9256}
    .str6 {stroke:black;stroke-width:0.01;stroke-miterlimit:22.9256}
    .str12 {stroke:#DBDBDB;stroke-width:0.01;stroke-miterlimit:22.9256}
    .str4 {stroke:#F5A980;stroke-width:0.01;stroke-miterlimit:22.9256}
    .str1 {stroke:#FA0505;stroke-width:0.01;stroke-miterlimit:22.9256}
    .str2 {stroke:#030303;stroke-width:0.05;stroke-miterlimit:22.9256}
    .str3 {stroke:#030303;stroke-width:0.01;stroke-miterlimit:22.9256}
    .str15 {stroke:#4A4949;stroke-width:0.01;stroke-miterlimit:22.9256}
    .str14 {stroke:#C9C5C5;stroke-width:0.01;stroke-miterlimit:22.9256}
    .str10 {stroke:#F5A980;stroke-width:0.01;stroke-miterlimit:22.9256}
    .str11 {stroke:#F5A980;stroke-width:0.02;stroke-miterlimit:22.9256}
    .str16 {stroke:#8F8C8C;stroke-width:0.01;stroke-miterlimit:22.9256}
    .str17 {stroke:#B3B3B3;stroke-width:0.01;stroke-miterlimit:22.9256}
    .str8 {stroke:#DBDBDB;stroke-width:0.01;stroke-miterlimit:22.9256}
    .str13 {stroke:#F5A980;stroke-width:0.01;stroke-miterlimit:22.9256}
    .str9 {stroke:#E1E1E1;stroke-width:0.01;stroke-miterlimit:22.9256}
    .str5 {stroke:#454545;stroke-width:0.09;stroke-linecap:round;stroke-miterlimit:22.9256}
    .fil3 {fill:none}
    .fil6 {fill:black}
    .fil7 {fill:black}
    .fil4 {fill:#003399}
    .fil12 {fill:#615F5F}
    .fil9 {fill:#666666}
    .fil8 {fill:#999999}
    .fil11 {fill:#CCCCCC}
    .fil2 {fill:#E6E6E6}
    .fil10 {fill:#F5A980}
    .fil5 {fill:#F5B796}
    .fil0 {fill:white}
    .fil1 {fill:white}
   ]]>
  </style>
 </defs>
 <g id="Camada_x0020_1">
  <metadata id="CorelCorpID_0Corel-Layer"/>
  <g id="_2069709175264">
   <path class="fil0 str0" d="M0.2 0.09l2.13 0c0.06,0 0.1,0.06 0.1,0.12l0 2.11c0,0.06 -0.04,0.11 -0.1,0.11l-2.13 0c-0.06,0 -0.1,-0.05 -0.1,-0.11 0,-0.26 -0.01,-2.04 0,-2.13 0,-0.05 0.06,-0.1 0.1,-0.1z"/>
   <g>
    <g>
     <polygon class="fil1 str1" points="1.96,1.16 1.86,1.34 1.79,1.23 1.93,1.09 "/>
     <polygon class="fil1 str1" points="1.61,1.17 1.73,1.34 1.78,1.24 1.64,1.09 "/>
     <path class="fil1 str1" d="M1.61 1.17l0.11 0.18 0.02 -0.03 0.02 0.01 0 0.28c-0.14,0 -0.28,0 -0.43,0 -0.02,0.01 -0.03,-0.02 -0.03,-0.03 0,-0.04 0.01,-0.15 0.02,-0.26 0,-0.04 0.01,-0.05 0.05,-0.06 0.04,-0.01 0.23,-0.09 0.24,-0.09z"/>
     <path class="fil2 str1" d="M1.96 1.17l-0.1 0.18 -0.02 -0.04 -0.02 0.02 0.01 0.29c0.14,0 0.22,0 0.36,0 0.04,0 0.05,-0.01 0.05,-0.04 0,-0.04 -0.01,-0.16 -0.02,-0.26 0,-0.03 0,-0.04 -0.03,-0.06 -0.05,-0.01 -0.22,-0.09 -0.23,-0.09z"/>
     <path class="fil2 str2" d="M2.21 1.62l-0.88 0c-0.02,0 -0.04,-0.02 -0.03,-0.04 0,-0.09 0.01,-0.18 0.02,-0.27 0,-0.02 0.01,-0.04 0.03,-0.04l0.27 -0.1 0.02 -0.08 0.15 0.14 0.13 -0.14 0.04 0.07 0.24 0.11c0.01,0.01 0.02,0.02 0.02,0.04 0.01,0.09 0.02,0.18 0.03,0.27 0,0.02 -0.02,0.04 -0.04,0.04z"/>
     <polyline class="fil3 str2" points="1.62,1.17 1.73,1.34 1.79,1.24 1.86,1.34 1.96,1.17 "/>
     <polygon class="fil4 str3" points="1.84,1.32 1.79,1.24 1.74,1.32 1.76,1.34 1.76,1.62 1.84,1.62 1.82,1.34 "/>
     <path class="fil5 str4" d="M1.67 1.11l0.12 0.11 0.11 -0.11 -0.01 -0.05c-0.02,0.02 -0.04,0.05 -0.07,0.07 -0.01,0.02 -0.05,0.02 -0.07,0l-0.08 -0.07 0 0.05z"/>
     <path class="fil5 str4" d="M2 0.77c-0.01,0.01 -0.01,0.02 -0.02,0.02l0.01 -0.02 -0.06 -0.04 0 -0.1 -0.08 0 -0.06 0.03 -0.07 -0.03 -0.09 0 0 0.08 -0.04 0.06c-0.01,-0.01 -0.01,-0.02 -0.01,-0.03 -0.01,0 -0.02,0 -0.02,0 -0.01,0 -0.01,0.01 -0.01,0.02 0,0.01 0,0.03 0,0.04l0.01 0.05c0,0 0,0.01 0.01,0.01 0.01,0 0.01,-0.01 0.02,-0.01 0,0.03 0.01,0.06 0.02,0.09 0.01,0.04 0.03,0.08 0.06,0.12 0.02,0.02 0.05,0.05 0.08,0.07 0.02,0.02 0.05,0.02 0.07,0 0.04,-0.03 0.08,-0.07 0.11,-0.11 0.02,-0.02 0.03,-0.04 0.04,-0.06 0,-0.03 0.01,-0.06 0.01,-0.09 0,0.01 0.01,0.01 0.01,0.01 0,0 0.01,0 0.02,-0.01 0.01,-0.02 0.02,-0.05 0.02,-0.07 0,-0.01 0,-0.02 -0.01,-0.02 -0.01,0 -0.02,-0.01 -0.02,-0.01z"/>
     <g>
      <path class="fil6" d="M1.88 0.81c-0.01,0 -0.02,0.01 -0.02,0.02 0,0.01 0.01,0.02 0.03,0.02 0.02,-0.01 0.02,-0.05 -0.01,-0.04z"/>
      <path class="fil6" d="M1.69 0.81c-0.02,0 -0.01,0.04 0.01,0.04 0.01,0 0.02,-0.01 0.02,-0.03 0,-0.01 -0.01,-0.02 -0.03,-0.01z"/>
      <line class="fil3 str5" x1="1.65" y1="0.75" x2="1.75" y2= "0.76" />
      <path class="fil7 str6" d="M1.63 0.71l-0.04 0.06c-0.02,-0.05 -0.03,-0.11 -0.01,-0.19 0.01,-0.07 0.05,-0.1 0.09,-0.11 0.09,-0.01 0.16,-0.01 0.23,0 0.05,0.02 0.08,0.07 0.09,0.11 0.02,0.07 0.01,0.12 0,0.19 -0.02,-0.01 -0.04,-0.03 -0.06,-0.04 -0.01,-0.03 -0.01,-0.06 0,-0.1 -0.03,0.01 -0.05,0.01 -0.08,0 -0.03,0.03 -0.09,0.03 -0.13,0 -0.03,0.01 -0.05,0.01 -0.09,0 0.01,0.03 0.01,0.06 0,0.08z"/>
      <line class="fil3 str5" x1="1.92" y1="0.75" x2="1.81" y2= "0.76" />
      <path class="fil8" d="M1.87 0.8c0,0 0.02,-0.01 0.04,-0.01 0.01,0 0.02,0.01 0.03,0.02 0,0 0,0 0,0l-0.01 0.01c-0.01,-0.01 -0.03,-0.02 -0.06,-0.02z"/>
      <path class="fil8" d="M1.71 0.8c0.01,0 -0.01,-0.01 -0.03,-0.01 -0.02,0 -0.03,0.01 -0.03,0.02 0,0 -0.01,0 0,0l0.01 0.01c0.01,-0.01 0.03,-0.02 0.05,-0.02z"/>
     </g>
     <path class="fil3 str7" d="M1.83 0.78l-0.01 0.02 -0.01 0.03 -0.01 0.05 0.01 0.02 0.02 0.03c0,0 0,0.01 0,0.01l-0.03 0.02c-0.01,0.01 -0.02,0.01 -0.02,0l-0.04 -0.02 0 -0.01 0.02 -0.03 0 -0.02 -0.01 -0.05 -0.01 -0.03 -0.02 -0.02"/>
     <g>
      <path class="fil9" d="M1.85 1l-0.12 0c-0.01,0 -0.01,0 -0.01,0l0.03 0.03c0.01,0 0.02,0.01 0.04,0.01 0.01,0 0.02,-0.01 0.03,-0.01l0.03 -0.03c0,0 0,0 0,0z"/>
      <g>
       <path class="fil1 str8" d="M1.74 0.99l0 0.01c0,0.01 0.01,0.01 0.01,0.01 0,0 0.01,0 0.01,0 0,0 0.01,0 0.01,0 0.01,0 0.01,0 0.02,0 0,0 0.01,0 0.01,0 0.01,0 0.01,0 0.01,0 0.01,0 0.01,0 0.02,0l0 0c0,0 0,0 0.01,-0.01l0 -0.01c-0.03,0 -0.07,0 -0.1,0z"/>
       <line class="fil3 str9" x1="1.8" y1="1" x2="1.8" y2= "1.01" />
       <line class="fil3 str9" x1="1.81" y1="1" x2="1.81" y2= "1.01" />
       <line class="fil3 str9" x1="1.83" y1="1" x2="1.83" y2= "1.01" />
       <line class="fil3 str9" x1="1.75" y1="1" x2="1.75" y2= "1.01" />
       <line class="fil3 str9" x1="1.76" y1="1" x2="1.76" y2= "1.01" />
       <line class="fil3 str9" x1="1.77" y1="1" x2="1.77" y2= "1.01" />
       <line class="fil3 str9" x1="1.79" y1="1" x2="1.79" y2= "1.01" />
       <path class="fil3 str10" d="M1.75 1.04l-0.04 -0.04c0,-0.01 0.01,-0.01 0.02,-0.01 0.04,0.01 0.07,0 0.12,0 0.01,0 0.01,0 0.01,0.01l-0.03 0.04c-0.03,0.01 -0.05,0.02 -0.08,0z"/>
      </g>
     </g>
     <polyline class="fil3 str4" points="1.73,1.09 1.76,1.08 1.79,1.07 1.82,1.08 1.85,1.09 "/>
     <path class="fil3 str11" d="M1.57 0.83c-0.01,-0.01 -0.01,-0.04 -0.01,-0.06 0.01,-0.02 0.01,-0.01 0.01,-0.01 0.01,0.02 0.01,0.03 0,0.04"/>
     <path class="fil3 str11" d="M1.99 0.8c0,-0.01 0.01,-0.02 0.02,-0.02 0.01,0 0.02,0.01 0.01,0.02 0,0.03 -0.01,0.04 -0.02,0.05"/>
     <path class="fil3 str10" d="M1.84 0.83c0,0.01 0.01,0.01 0.01,0.01 0.02,0.01 0.03,0.02 0.07,0 0.01,-0.01 0.01,-0.01 0.02,-0.01"/>
     <path class="fil3 str10" d="M1.74 0.83c-0.01,0.01 -0.01,0.01 -0.02,0.01 -0.01,0.01 -0.02,0.02 -0.05,0 -0.02,-0.01 -0.02,-0.01 -0.03,-0.01"/>
     <path class="fil3 str10" d="M1.64 0.83c0.01,0 0.01,0 0.02,0 0.03,-0.03 0.05,-0.03 0.06,-0.02 0.01,0.01 0.01,0.02 0.02,0.02"/>
     <path class="fil3 str10" d="M1.95 0.83c-0.01,0 -0.02,0 -0.02,0 -0.04,-0.03 -0.06,-0.03 -0.08,-0.02 0,0.01 -0.01,0.02 -0.01,0.02"/>
     <path class="fil10 str4" d="M1.85 1.01c-0.05,0.04 -0.09,0.03 -0.13,-0.01 0.03,0.06 0.09,0.07 0.13,0.01z"/>
     <path class="fil11 str4" d="M1.74 0.99c0,0 -0.02,0 -0.02,0 -0.01,0.01 0,0.01 0,0.01 0.01,0.01 0.02,0.02 0.03,0.02l-0.01 -0.03z"/>
     <path class="fil11 str4" d="M1.84 1c0,-0.01 0.02,-0.01 0.02,0 0,0 -0.01,0.01 -0.03,0.02l0.01 -0.02z"/>
     <path class="fil1" d="M1.77 1.03c-0.01,0 -0.01,0 -0.02,-0.01 0.01,0 0.01,0 0.01,0 0.01,0 0.01,0 0.01,0 0.01,0 0.02,0 0.02,0 0,0.01 -0.01,0 0.01,0 0.01,0.01 0,0 0.01,0 0.01,0.01 0,0 0.02,0 -0.01,0.01 -0.02,0.01 -0.03,0.01 -0.01,0 -0.02,0 -0.03,0z"/>
     <path class="fil3 str12" d="M1.75 1.02c0,0 0.01,0 0.01,0 0,0 0.01,0 0.01,0 0.01,0 0.01,0 0.02,0 0,0 0.01,0 0.01,0 0.01,0 0.01,0 0.01,0 0.01,0 0.01,0 0.02,0"/>
     <line class="fil3 str8" x1="1.76" y1="1.02" x2="1.76" y2= "1.03" />
     <line class="fil3 str8" x1="1.77" y1="1.02" x2="1.77" y2= "1.03" />
     <line class="fil3 str8" x1="1.79" y1="1.02" x2="1.79" y2= "1.03" />
     <line class="fil3 str8" x1="1.8" y1="1.02" x2="1.8" y2= "1.03" />
     <line class="fil3 str8" x1="1.81" y1="1.02" x2="1.81" y2= "1.03" />
     <path class="fil10 str13" d="M1.78 0.98c0,0 -0.01,0 -0.01,0 -0.02,0 -0.03,0.01 -0.05,0.01 0,0 -0.01,0.01 0,0.01 0,-0.01 0.02,-0.01 0.03,0 0.02,0 0.05,0 0.09,-0.01 0,0 0.01,0 0.02,0 0,0 0,0 0,0 -0.02,0 -0.04,0 -0.05,-0.01 -0.01,0 -0.01,0 -0.01,0 -0.01,0 -0.02,0 -0.02,0z"/>
     <path class="fil8 str14" d="M2.01 0.67c-0.15,0.05 -0.3,0.05 -0.46,0l0.01 -0.11c0,-0.04 0.04,-0.09 0.08,-0.1 0.09,-0.03 0.19,-0.03 0.26,-0.01 0.05,0.02 0.1,0.06 0.11,0.1l0 0.12z"/>
     <path class="fil11 str15" d="M1.57 0.7l-0.01 -0.03c0.14,0.03 0.29,0.04 0.45,0 0,0.01 -0.01,0.02 -0.01,0.03 -0.01,0.02 -0.02,0.02 -0.03,0.03 -0.05,0.05 -0.34,0.06 -0.38,0.01 -0.01,-0.01 -0.02,-0.03 -0.02,-0.04z"/>
     <path class="fil12 str16" d="M2.01 0.67c-0.15,0.03 -0.29,0.03 -0.46,0l0 0.01c0.16,0.04 0.31,0.04 0.46,0l0 -0.01z"/>
     <path class="fil3 str14" d="M1.55 0.67c0.04,-0.13 0.09,-0.23 0.22,-0.23"/>
     <path class="fil3 str14" d="M1.79 0.44c0.12,-0.01 0.18,0.07 0.22,0.23"/>
     <ellipse class="fil9 str17" cx="1.78" cy="0.44" rx="0.02" ry="0.01"/>
    </g>
    <g>
     <polygon class="fil1 str1" points="0.91,1.18 0.81,1.35 0.75,1.25 0.88,1.11 "/>
     <polygon class="fil1 str1" points="0.57,1.18 0.68,1.35 0.74,1.25 0.59,1.1 "/>
     <path class="fil1 str1" d="M0.57 1.18l0.11 0.18 0.02 -0.03 0.02 0.02 -0.01 0.28c-0.14,0 -0.28,0 -0.42,0 -0.02,0 -0.03,-0.02 -0.03,-0.04 0,-0.04 0.01,-0.15 0.02,-0.26 0,-0.04 0.01,-0.04 0.04,-0.05 0.05,-0.02 0.24,-0.09 0.25,-0.1z"/>
     <path class="fil2 str1" d="M0.92 1.18l-0.11 0.18 -0.02 -0.03 -0.02 0.02 0.01 0.28c0.14,0 0.23,0 0.37,0 0.04,0 0.05,-0.01 0.05,-0.04 -0.01,-0.04 -0.01,-0.15 -0.02,-0.26 -0.01,-0.03 -0.01,-0.04 -0.04,-0.05 -0.04,-0.02 -0.21,-0.1 -0.22,-0.1z"/>
     <path class="fil2 str2" d="M1.16 1.63l-0.87 0c-0.02,0 -0.04,-0.01 -0.04,-0.04 0.01,-0.09 0.02,-0.18 0.02,-0.27 0.01,-0.02 0.02,-0.03 0.04,-0.04l0.26 -0.1 0.02 -0.08 0.15 0.15 0.14 -0.15 0.03 0.08 0.25 0.1c0.01,0.01 0.02,0.03 0.02,0.05 0.01,0.08 0.01,0.17 0.02,0.26 0.01,0.02 -0.01,0.04 -0.04,0.04z"/>
     <polyline class="fil3 str2" points="0.57,1.18 0.68,1.35 0.74,1.25 0.81,1.35 0.91,1.18 "/>
     <polygon class="fil4 str3" points="0.79,1.33 0.74,1.26 0.7,1.33 0.72,1.35 0.72,1.63 0.79,1.63 0.78,1.35 "/>
     <path class="fil5 str4" d="M0.63 1.12l0.11 0.12 0.11 -0.12 0 -0.05c-0.02,0.03 -0.05,0.05 -0.07,0.07 -0.01,0.02 -0.05,0.02 -0.07,0l-0.09 -0.07 0.01 0.05z"/>
     <path class="fil5 str4" d="M0.96 0.79c-0.01,0 -0.01,0.01 -0.02,0.02l0.01 -0.03 -0.06 -0.04 0 -0.09 -0.08 0 -0.07 0.02 -0.07 -0.02 -0.08 0 -0.01 0.07 -0.03 0.06c-0.01,-0.01 -0.01,-0.02 -0.02,-0.02 0,-0.01 -0.01,-0.01 -0.01,-0.01 -0.01,0.01 -0.01,0.01 -0.02,0.02 0,0.02 0,0.03 0,0.04l0.01 0.05c0.01,0.01 0.01,0.01 0.02,0.01 0,0 0.01,0 0.01,-0.01 0.01,0.03 0.01,0.07 0.02,0.1 0.02,0.04 0.04,0.08 0.06,0.11 0.03,0.02 0.06,0.05 0.08,0.07 0.03,0.02 0.05,0.03 0.08,0 0.04,-0.03 0.07,-0.07 0.11,-0.1 0.01,-0.03 0.02,-0.05 0.03,-0.07 0.01,-0.03 0.01,-0.06 0.02,-0.09 0,0.01 0,0.01 0.01,0.01 0,0 0.01,0 0.01,-0.01 0.02,-0.02 0.02,-0.05 0.03,-0.07 0,-0.01 -0.01,-0.01 -0.01,-0.02 -0.01,0 -0.02,0 -0.02,0z"/>
     <g>
      <path class="fil6" d="M0.83 0.82c-0.01,0 -0.02,0.01 -0.01,0.02 0,0.02 0.01,0.02 0.02,0.02 0.03,0 0.02,-0.05 -0.01,-0.04z"/>
      <path class="fil6" d="M0.65 0.82c-0.03,0 -0.02,0.05 0.01,0.04 0.01,0 0.02,-0.01 0.01,-0.03 0,-0.01 -0.01,-0.01 -0.02,-0.01z"/>
      <line class="fil3 str5" x1="0.6" y1="0.76" x2="0.71" y2= "0.77" />
      <path class="fil7 str6" d="M0.59 0.72l-0.05 0.06c-0.01,-0.05 -0.02,-0.1 -0.01,-0.18 0.01,-0.08 0.05,-0.11 0.1,-0.11 0.08,-0.02 0.16,-0.02 0.22,0 0.05,0.02 0.09,0.06 0.1,0.1 0.02,0.08 0,0.12 0,0.19 -0.02,-0.01 -0.04,-0.03 -0.06,-0.04 -0.01,-0.03 -0.01,-0.06 0,-0.09 -0.03,0.01 -0.05,0.01 -0.08,0 -0.03,0.03 -0.09,0.03 -0.14,0 -0.02,0 -0.05,0 -0.08,0 0,0.02 0,0.05 0,0.07z"/>
      <line class="fil3 str5" x1="0.87" y1="0.76" x2="0.77" y2= "0.77" />
      <path class="fil8" d="M0.83 0.82c-0.01,-0.01 0.01,-0.02 0.03,-0.02 0.02,0 0.03,0.01 0.04,0.02 0,0 0,0 0,0.01l-0.01 0c-0.02,-0.01 -0.04,-0.01 -0.06,-0.01z"/>
      <path class="fil8" d="M0.67 0.82c0,-0.01 -0.01,-0.02 -0.04,-0.02 -0.01,0 -0.02,0.01 -0.03,0.02 0,0 0,0 0,0.01l0.01 0c0.02,-0.01 0.04,-0.01 0.06,-0.01z"/>
     </g>
     <path class="fil3 str7" d="M0.79 0.8l-0.02 0.01 0 0.03 -0.01 0.05 0.01 0.02 0.02 0.03c0,0.01 0,0.01 -0.01,0.01l-0.03 0.03c0,0 -0.01,0 -0.02,0l-0.03 -0.03 0 -0.01 0.01 -0.03 0.01 -0.02 -0.01 -0.05 -0.01 -0.03 -0.02 -0.02"/>
     <g>
      <path class="fil9" d="M0.8 1.01l-0.12 0c0,0 0,0 0,0l0.03 0.03c0.01,0.01 0.02,0.01 0.03,0.01 0.01,0 0.03,0 0.04,-0.01l0.03 -0.02c0,-0.01 0,-0.01 -0.01,-0.01z"/>
      <g>
       <path class="fil1 str8" d="M0.7 1l0 0.02c0,0 0,0 0.01,0 0,0 0,0 0.01,0 0,0 0,0 0.01,0 0,0 0.01,0 0.01,0 0.01,0 0.01,0 0.02,0 0,0 0.01,0 0.01,0 0,0 0.01,0 0.01,0l0 0c0.01,0 0.01,0 0.01,0l0 -0.02c-0.03,0.01 -0.06,0.01 -0.09,0z"/>
       <line class="fil3 str9" x1="0.76" y1="1.01" x2="0.76" y2= "1.02" />
       <line class="fil3 str9" x1="0.77" y1="1.01" x2="0.77" y2= "1.02" />
       <line class="fil3 str9" x1="0.78" y1="1.01" x2="0.78" y2= "1.02" />
       <line class="fil3 str9" x1="0.71" y1="1.01" x2="0.71" y2= "1.02" />
       <line class="fil3 str9" x1="0.72" y1="1.01" x2="0.72" y2= "1.02" />
       <line class="fil3 str9" x1="0.73" y1="1.01" x2="0.73" y2= "1.02" />
       <line class="fil3 str9" x1="0.74" y1="1.01" x2="0.74" y2= "1.02" />
       <path class="fil3 str10" d="M0.71 1.05l-0.04 -0.04c0,-0.01 0.01,-0.01 0.01,-0.01 0.05,0.01 0.08,0.01 0.12,0 0.02,0 0.02,0.01 0.01,0.02l-0.03 0.03c-0.02,0.02 -0.05,0.02 -0.07,0z"/>
      </g>
     </g>
     <polyline class="fil3 str4" points="0.69,1.1 0.71,1.09 0.74,1.08 0.77,1.09 0.8,1.1 "/>
     <path class="fil3 str11" d="M0.53 0.84c-0.01,-0.01 -0.01,-0.03 -0.01,-0.06 0,-0.02 0.01,-0.01 0.01,0 0.01,0.01 0.01,0.02 0,0.04"/>
     <path class="fil3 str11" d="M0.95 0.81c0,-0.01 0.01,-0.02 0.01,-0.02 0.01,0 0.02,0.01 0.02,0.02 0,0.03 -0.01,0.04 -0.02,0.05"/>
     <path class="fil3 str10" d="M0.79 0.84c0.01,0.01 0.01,0.01 0.02,0.01 0.02,0.01 0.03,0.03 0.06,0 0.02,-0.01 0.02,0 0.03,-0.01"/>
     <path class="fil3 str10" d="M0.69 0.84c0,0.01 -0.01,0.01 -0.01,0.01 -0.02,0.01 -0.03,0.03 -0.06,0 -0.01,-0.01 -0.01,0 -0.02,-0.01"/>
     <path class="fil3 str10" d="M0.6 0.84c0,0 0.01,0 0.01,0 0.03,-0.03 0.05,-0.03 0.07,-0.01 0,0 0.01,0.01 0.02,0.01"/>
     <path class="fil3 str10" d="M0.9 0.84c0,0 -0.01,0 -0.02,0 -0.03,-0.03 -0.05,-0.03 -0.07,-0.01 -0.01,0 -0.01,0.01 -0.02,0.01"/>
     <path class="fil10 str4" d="M0.81 1.02c-0.06,0.04 -0.1,0.03 -0.14,-0.01 0.04,0.06 0.1,0.07 0.14,0.01z"/>
     <path class="fil11 str4" d="M0.7 1.01c0,0 -0.02,-0.01 -0.03,0 0,0 0,0 0.01,0 0,0.01 0.01,0.02 0.02,0.02l0 -0.02z"/>
     <path class="fil11 str4" d="M0.79 1.01c0,-0.01 0.02,-0.01 0.02,0 0.01,0 -0.01,0.01 -0.02,0.02l0 -0.02z"/>
     <path class="fil1" d="M0.73 1.05c-0.01,-0.01 -0.02,-0.01 -0.02,-0.01 0.01,-0.01 0,0 0.01,0 0.01,-0.01 0.01,0 0.01,0 0.01,-0.01 0.01,0 0.01,0 0.01,0 0,-0.01 0.02,0 0,0 0,-0.01 0.01,0 0.01,0 0,-0.01 0.01,0 -0.01,0 -0.01,0 -0.02,0.01 -0.01,0 -0.02,0 -0.03,0z"/>
     <path class="fil3 str12" d="M0.71 1.04c0,-0.01 0,-0.01 0.01,0 0,-0.01 0,-0.01 0.01,0 0,-0.01 0.01,-0.01 0.01,0 0.01,-0.01 0.01,-0.01 0.02,0 0,-0.01 0.01,-0.01 0.01,0 0.01,-0.01 0.01,-0.01 0.01,0"/>
     <line class="fil3 str8" x1="0.72" y1="1.04" x2="0.72" y2= "1.04" />
     <line class="fil3 str8" x1="0.73" y1="1.04" x2="0.73" y2= "1.04" />
     <line class="fil3 str8" x1="0.74" y1="1.04" x2="0.74" y2= "1.05" />
     <line class="fil3 str8" x1="0.76" y1="1.04" x2="0.76" y2= "1.05" />
     <line class="fil3 str8" x1="0.77" y1="1.04" x2="0.77" y2= "1.04" />
     <path class="fil10 str13" d="M0.73 0.99c0,0 0,0 -0.01,0 -0.01,0.01 -0.03,0.01 -0.04,0.01 -0.01,0 -0.01,0.01 0,0.01 0,0 0.01,0 0.02,0 0.03,0.01 0.06,0.01 0.09,0 0.01,0 0.02,0 0.02,0 0.01,0 0.01,0 0,-0.01 -0.02,0 -0.04,0 -0.05,-0.01 0,0 0,0 -0.01,0 0,0 -0.01,0 -0.02,0z"/>
     <path class="fil8 str14" d="M0.96 0.68c-0.14,0.05 -0.29,0.05 -0.45,0l0.01 -0.11c0,-0.04 0.04,-0.09 0.07,-0.1 0.1,-0.03 0.2,-0.03 0.27,0 0.04,0.01 0.1,0.06 0.1,0.1l0 0.11z"/>
     <path class="fil11 str15" d="M0.52 0.71l-0.01 -0.03c0.15,0.04 0.3,0.04 0.45,0.01 0,0.01 0,0.02 -0.01,0.03 0,0.01 -0.01,0.02 -0.02,0.03 -0.05,0.04 -0.34,0.05 -0.38,0 -0.01,-0.01 -0.02,-0.02 -0.03,-0.04z"/>
     <path class="fil12 str16" d="M0.96 0.68c-0.14,0.04 -0.29,0.04 -0.45,0l0 0.01c0.15,0.04 0.3,0.04 0.45,0l0 -0.01z"/>
     <path class="fil3 str14" d="M0.51 0.68c0.04,-0.12 0.08,-0.23 0.22,-0.23"/>
     <path class="fil3 str14" d="M0.74 0.45c0.13,0 0.19,0.08 0.22,0.23"/>
     <ellipse class="fil9 str17" cx="0.73" cy="0.45" rx="0.02" ry="0.01"/>
    </g>
    <g>
     <polygon class="fil1 str1" points="1.44,1.59 1.33,1.76 1.27,1.65 1.4,1.51 "/>
     <polygon class="fil1 str1" points="1.09,1.59 1.2,1.76 1.26,1.66 1.11,1.51 "/>
     <path class="fil1 str1" d="M1.09 1.59l0.11 0.18 0.02 -0.03 0.02 0.02 0 0.28c-0.15,0 -0.29,0 -0.43,0 -0.02,0 -0.03,-0.02 -0.03,-0.04 0,-0.04 0.01,-0.15 0.02,-0.26 0,-0.04 0.01,-0.04 0.04,-0.05 0.05,-0.02 0.24,-0.09 0.25,-0.1z"/>
     <path class="fil2 str1" d="M1.44 1.59l-0.11 0.18 -0.01 -0.03 -0.02 0.02 0 0.28c0.15,0 0.23,0 0.37,0 0.04,0 0.05,-0.01 0.05,-0.04 -0.01,-0.04 -0.01,-0.15 -0.02,-0.26 -0.01,-0.03 -0.01,-0.04 -0.04,-0.05 -0.04,-0.02 -0.21,-0.1 -0.22,-0.1z"/>
     <path class="fil2 str2" d="M1.68 2.04l-0.87 0c-0.02,0 -0.04,-0.01 -0.04,-0.04 0.01,-0.09 0.02,-0.18 0.03,-0.27 0,-0.02 0.01,-0.03 0.03,-0.04l0.26 -0.1 0.03 -0.08 0.14 0.15 0.14 -0.15 0.04 0.08 0.24 0.1c0.01,0.01 0.02,0.02 0.02,0.05 0.01,0.08 0.02,0.17 0.02,0.26 0.01,0.02 -0.01,0.04 -0.04,0.04z"/>
     <polyline class="fil3 str2" points="1.09,1.59 1.2,1.76 1.26,1.66 1.33,1.76 1.43,1.59 "/>
     <polygon class="fil4 str3" points="1.31,1.74 1.26,1.67 1.22,1.74 1.24,1.76 1.24,2.04 1.31,2.04 1.3,1.76 "/>
     <path class="fil5 str4" d="M1.15 1.53l0.11 0.11 0.11 -0.11 0 -0.05c-0.02,0.03 -0.05,0.05 -0.07,0.07 -0.01,0.02 -0.05,0.02 -0.07,0l-0.08 -0.07 0 0.05z"/>
     <path class="fil5 str4" d="M1.48 1.2c-0.01,0 -0.01,0.01 -0.02,0.01l0.01 -0.02 -0.06 -0.04 0 -0.09 -0.08 0 -0.07 0.02 -0.06 -0.02 -0.09 0 0 0.07 -0.04 0.06c-0.01,-0.01 -0.01,-0.02 -0.02,-0.02 0,-0.01 -0.01,-0.01 -0.01,-0.01 -0.01,0.01 -0.01,0.01 -0.01,0.02 -0.01,0.01 -0.01,0.03 0,0.04l0 0.05c0.01,0.01 0.01,0.01 0.02,0.01 0,0 0.01,0 0.01,-0.01 0.01,0.03 0.01,0.07 0.02,0.09 0.02,0.05 0.04,0.08 0.06,0.12 0.03,0.02 0.06,0.05 0.09,0.07 0.02,0.02 0.05,0.02 0.07,0 0.04,-0.03 0.07,-0.07 0.11,-0.11 0.01,-0.02 0.02,-0.04 0.03,-0.06 0.01,-0.03 0.01,-0.06 0.02,-0.09 0,0.01 0,0.01 0.01,0.01 0,0 0.01,0 0.02,-0.01 0.01,-0.02 0.01,-0.05 0.02,-0.07 0,-0.01 -0.01,-0.01 -0.01,-0.02 -0.01,0 -0.02,-0.01 -0.02,0z"/>
     <g>
      <path class="fil6" d="M1.35 1.23c-0.01,0 -0.02,0.01 -0.01,0.02 0,0.01 0.01,0.02 0.02,0.02 0.03,-0.01 0.02,-0.05 -0.01,-0.04z"/>
      <path class="fil6" d="M1.17 1.23c-0.03,0 -0.02,0.05 0.01,0.04 0.01,0 0.02,-0.01 0.01,-0.03 0,-0.01 -0.01,-0.01 -0.02,-0.01z"/>
      <line class="fil3 str5" x1="1.12" y1="1.17" x2="1.23" y2= "1.18" />
      <path class="fil7 str6" d="M1.11 1.13l-0.05 0.06c-0.01,-0.05 -0.02,-0.11 -0.01,-0.18 0.01,-0.08 0.05,-0.11 0.1,-0.12 0.08,-0.01 0.16,-0.01 0.22,0.01 0.05,0.01 0.09,0.06 0.1,0.1 0.02,0.08 0.01,0.12 0,0.19 -0.02,-0.01 -0.04,-0.03 -0.06,-0.04 -0.01,-0.03 -0.01,-0.06 0,-0.09 -0.03,0.01 -0.05,0 -0.08,0 -0.03,0.03 -0.09,0.03 -0.14,0 -0.02,0 -0.05,0 -0.08,0 0.01,0.02 0.01,0.05 0,0.07z"/>
      <line class="fil3 str5" x1="1.39" y1="1.17" x2="1.29" y2= "1.18" />
      <path class="fil8" d="M1.35 1.23c0,-0.01 0.01,-0.02 0.03,-0.02 0.02,0 0.03,0.01 0.04,0.02 0,0 0,0 0,0.01l-0.01 0c-0.02,-0.01 -0.04,-0.01 -0.06,-0.01z"/>
      <path class="fil8" d="M1.19 1.23c0,-0.01 -0.01,-0.02 -0.03,-0.02 -0.02,0 -0.03,0.01 -0.04,0.02 0,0 0,0 0,0.01l0.01 0c0.02,-0.01 0.04,-0.01 0.06,-0.01z"/>
     </g>
     <path class="fil3 str7" d="M1.31 1.2l-0.02 0.02 0 0.03 -0.01 0.05 0.01 0.02 0.02 0.03c0,0.01 0,0.01 -0.01,0.01l-0.03 0.03c0,0 -0.01,0 -0.01,0l-0.04 -0.03 0 -0.01 0.01 -0.03 0.01 -0.02 -0.01 -0.05 -0.01 -0.03 -0.02 -0.02"/>
     <g>
      <path class="fil9" d="M1.33 1.42l-0.13 0c0,0 0,0 0,0l0.03 0.03c0.01,0.01 0.02,0.01 0.03,0.01 0.02,0 0.03,0 0.04,-0.01l0.03 -0.02c0,-0.01 0,-0.01 0,-0.01z"/>
      <g>
       <path class="fil1 str8" d="M1.22 1.41l0 0.02c0,0 0,0 0.01,0 0,0 0,0 0.01,0 0,0 0,0 0.01,0 0,0 0.01,0 0.01,0 0.01,0 0.01,0 0.02,0 0,0 0.01,0 0.01,0 0,0 0.01,0 0.01,0l0.01 0c0,0 0,0 0,0l0 -0.02c-0.03,0.01 -0.06,0.01 -0.09,0z"/>
       <line class="fil3 str9" x1="1.28" y1="1.42" x2="1.28" y2= "1.43" />
       <line class="fil3 str9" x1="1.29" y1="1.42" x2="1.29" y2= "1.43" />
       <line class="fil3 str9" x1="1.3" y1="1.42" x2="1.3" y2= "1.43" />
       <line class="fil3 str9" x1="1.23" y1="1.42" x2="1.23" y2= "1.43" />
       <line class="fil3 str9" x1="1.24" y1="1.42" x2="1.24" y2= "1.43" />
       <line class="fil3 str9" x1="1.25" y1="1.42" x2="1.25" y2= "1.43" />
       <line class="fil3 str9" x1="1.26" y1="1.42" x2="1.26" y2= "1.43" />
       <path class="fil3 str10" d="M1.23 1.46l-0.04 -0.04c0,-0.01 0.01,-0.01 0.01,-0.01 0.05,0.01 0.08,0.01 0.12,0 0.02,0 0.02,0.01 0.01,0.02l-0.03 0.03c-0.02,0.02 -0.05,0.02 -0.07,0z"/>
      </g>
     </g>
     <polyline class="fil3 str4" points="1.21,1.51 1.24,1.5 1.26,1.49 1.29,1.5 1.32,1.51 "/>
     <path class="fil3 str11" d="M1.05 1.25c-0.01,-0.01 -0.01,-0.03 -0.01,-0.06 0,-0.02 0.01,-0.01 0.01,0 0.01,0.01 0.01,0.02 0,0.04"/>
     <path class="fil3 str11" d="M1.47 1.22c0,-0.01 0.01,-0.02 0.01,-0.02 0.02,0 0.02,0.01 0.02,0.02 0,0.03 -0.01,0.04 -0.02,0.05"/>
     <path class="fil3 str10" d="M1.31 1.25c0.01,0.01 0.01,0.01 0.02,0.01 0.02,0.01 0.03,0.03 0.06,0 0.02,-0.01 0.02,0 0.03,-0.01"/>
     <path class="fil3 str10" d="M1.22 1.25c-0.01,0.01 -0.01,0.01 -0.02,0.01 -0.01,0.01 -0.02,0.03 -0.06,0 -0.01,-0.01 -0.01,0 -0.02,-0.01"/>
     <path class="fil3 str10" d="M1.12 1.25c0,0 0.01,0 0.01,0 0.03,-0.03 0.05,-0.03 0.07,-0.01 0.01,0 0.01,0.01 0.02,0.01"/>
     <path class="fil3 str10" d="M1.42 1.25c0,0 -0.01,0 -0.01,0 -0.04,-0.03 -0.06,-0.03 -0.08,-0.01 0,0 -0.01,0.01 -0.02,0.01"/>
     <path class="fil10 str4" d="M1.33 1.43c-0.05,0.04 -0.1,0.03 -0.14,-0.01 0.04,0.06 0.1,0.07 0.14,0.01z"/>
     <path class="fil11 str4" d="M1.22 1.42c0,0 -0.02,-0.01 -0.03,0 0,0 0,0 0.01,0 0,0.01 0.02,0.02 0.02,0.02l0 -0.02z"/>
     <path class="fil11 str4" d="M1.31 1.42c0,-0.01 0.02,-0.01 0.03,0 0,0 -0.02,0.01 -0.03,0.02l0 -0.02z"/>
     <path class="fil1" d="M1.25 1.45c-0.01,0 -0.02,0 -0.02,-0.01 0.01,0 0,0.01 0.01,0 0.01,0 0.01,0.01 0.01,0.01 0.01,-0.01 0.01,0 0.01,0 0.01,0 0,-0.01 0.02,0 0,0 0,-0.01 0.01,0 0.01,0 0,-0.01 0.01,0 0,0 -0.01,0 -0.02,0 -0.01,0.01 -0.02,0.01 -0.03,0z"/>
     <path class="fil3 str12" d="M1.23 1.45c0,-0.01 0,-0.01 0.01,0 0,-0.01 0,-0.01 0.01,0 0,-0.01 0.01,-0.01 0.01,0 0.01,-0.01 0.02,-0.01 0.02,0 0,-0.01 0.01,-0.01 0.01,0 0.01,-0.01 0.01,-0.01 0.01,0"/>
     <line class="fil3 str8" x1="1.24" y1="1.45" x2="1.24" y2= "1.45" />
     <line class="fil3 str8" x1="1.25" y1="1.45" x2="1.25" y2= "1.45" />
     <line class="fil3 str8" x1="1.26" y1="1.45" x2="1.26" y2= "1.46" />
     <line class="fil3 str8" x1="1.28" y1="1.45" x2="1.28" y2= "1.46" />
     <line class="fil3 str8" x1="1.29" y1="1.45" x2="1.29" y2= "1.45" />
     <path class="fil10 str13" d="M1.26 1.4c-0.01,0 -0.01,0 -0.02,0 -0.01,0.01 -0.02,0.01 -0.04,0.01 -0.01,0 -0.01,0.01 0,0.01 0,0 0.01,0 0.02,0 0.03,0.01 0.06,0.01 0.09,0 0.01,0 0.02,0 0.02,0 0.01,0 0.01,-0.01 0,-0.01 -0.02,0 -0.04,0 -0.05,-0.01 0,0 0,0 -0.01,0 0,0 -0.01,0 -0.01,0z"/>
     <path class="fil8 str14" d="M1.49 1.09c-0.15,0.05 -0.3,0.05 -0.46,0l0.01 -0.11c0,-0.04 0.04,-0.09 0.07,-0.1 0.1,-0.03 0.2,-0.03 0.27,-0.01 0.05,0.02 0.1,0.07 0.1,0.11l0.01 0.11z"/>
     <path class="fil11 str15" d="M1.05 1.12l-0.02 -0.03c0.15,0.03 0.3,0.04 0.46,0.01 -0.01,0.01 -0.01,0.02 -0.01,0.03 -0.01,0.01 -0.02,0.02 -0.03,0.03 -0.05,0.04 -0.34,0.05 -0.38,0 -0.01,-0.01 -0.02,-0.02 -0.02,-0.04z"/>
     <path class="fil12 str16" d="M1.49 1.09c-0.15,0.03 -0.29,0.03 -0.46,0l0 0.01c0.15,0.04 0.3,0.04 0.45,0l0.01 -0.01z"/>
     <path class="fil3 str14" d="M1.03 1.09c0.04,-0.12 0.08,-0.23 0.22,-0.23"/>
     <path class="fil3 str14" d="M1.26 0.86c0.13,0 0.19,0.08 0.23,0.23"/>
     <ellipse class="fil9 str17" cx="1.26" cy="0.86" rx="0.02" ry="0.01"/>
    </g>
   </g>
  </g>
 </g>
</svg>
