<?xml version="1.0" encoding="UTF-8"?>
<!DOCTYPE svg PUBLIC "-//W3C//DTD SVG 1.1//EN" "http://www.w3.org/Graphics/SVG/1.1/DTD/svg11.dtd">
<!-- Creator: CorelDRAW 2021 (64 Bit) -->
<svg xmlns="http://www.w3.org/2000/svg" xml:space="preserve" width="330px" height="330px" version="1.1" style="shape-rendering:geometricPrecision; text-rendering:geometricPrecision; image-rendering:optimizeQuality; fill-rule:evenodd; clip-rule:evenodd"
viewBox="0 0 26.38 26.38"
 xmlns:xlink="http://www.w3.org/1999/xlink"
 xmlns:xodm="http://www.corel.com/coreldraw/odm/2003">
 <defs>
  <style type="text/css">
   <![CDATA[
    .str0 {stroke:#B8B4B6;stroke-width:2.4;stroke-miterlimit:22.9256}
    .fil1 {fill:black}
    .fil0 {fill:white}
   ]]>
  </style>
 </defs>
 <g id="Camada_x0020_1">
  <metadata id="CorelCorpID_0Corel-Layer"/>
  <g id="_2713547811712">
   <path class="fil0 str0" d="M2.28 1.2l21.85 0c0.58,0 1.05,0.54 1.05,1.2l0 21.58c0,0.66 -0.47,1.2 -1.05,1.2l-21.85 0c-0.58,0 -1.06,-0.54 -1.06,-1.2 0,-2.59 -0.03,-20.9 -0.02,-21.84 0.01,-0.52 0.64,-0.94 1.08,-0.94z"/>
   <path class="fil1" d="M20.39 4.56c0,0.03 0.01,0.03 -0.02,0.02 0,0.03 0.01,0.03 -0.02,0.02 0,0.03 0.01,0.03 -0.02,0.02 0,0.03 0.01,0.03 -0.02,0.02 0,0.03 0.01,0.03 -0.02,0.02 0,0.03 0.01,0.03 -0.02,0.02 0,0.03 0.01,0.03 -0.02,0.02 0,0.03 0.01,0.03 -0.02,0.02 0,0.03 0.01,0.03 -0.02,0.02 0,0.03 0.01,0.03 -0.02,0.02 0,0.03 0.01,0.03 -0.02,0.02 0,0.03 0.01,0.03 -0.02,0.02 0,0.03 0.01,0.03 -0.02,0.02 0,0.03 0.01,0.03 -0.02,0.02 0,0.03 0.01,0.03 -0.02,0.02 0,0.03 0.01,0.03 -0.02,0.02 0,0.03 0.01,0.03 -0.02,0.02 0,0.03 0.01,0.03 -0.02,0.02 0,0.03 0.01,0.03 -0.02,0.02 0,0.03 0.01,0.03 -0.02,0.02 0,0.03 0.01,0.03 -0.02,0.02 0,0.03 0.01,0.03 -0.02,0.02 0,0.03 0.01,0.03 -0.02,0.02 0,0.03 0.01,0.03 -0.02,0.02 0,0.03 0.01,0.03 -0.02,0.02 0,0.03 0.01,0.03 -0.02,0.02 0,0.03 0.01,0.03 -0.02,0.02 0,0.03 0.01,0.03 -0.02,0.02 0,0.03 0.01,0.03 -0.02,0.02 0,0.03 0.01,0.03 -0.02,0.02 0,0.03 0.01,0.03 -0.02,0.02 0,0.03 0.01,0.03 -0.02,0.02 0,0.03 0.01,0.03 -0.02,0.02 0,0.03 0.01,0.03 -0.02,0.02 0,0.03 0.01,0.03 -0.02,0.02 0,0.03 0.01,0.03 -0.02,0.02 0,0.03 0.01,0.03 -0.02,0.02 0,0.03 0.01,0.03 -0.02,0.02 0,0.03 0.01,0.03 -0.02,0.02 0,0.03 0.01,0.03 -0.02,0.02 0,0.03 0.01,0.03 -0.02,0.02 0,0.03 0.01,0.03 -0.02,0.02 0,0.03 0.01,0.03 -0.02,0.02 0,0.03 0.01,0.03 -0.02,0.02 0,0.03 0.01,0.03 -0.02,0.02 0,0.03 0.01,0.03 -0.02,0.02 0,0.03 0.01,0.03 -0.02,0.02 0,0.03 0.01,0.03 -0.02,0.02 0,0.03 0.01,0.03 -0.02,0.02 0,0.03 0.01,0.03 -0.02,0.02 0,0.03 0.01,0.03 -0.02,0.02 0,0.03 0.01,0.03 -0.02,0.02 0,0.03 0.01,0.03 -0.02,0.02 0,0.03 0.01,0.03 -0.02,0.02 0,0.03 0.01,0.03 -0.02,0.02 0,0.03 0.01,0.03 -0.02,0.02 0,0.03 0.01,0.03 -0.02,0.02 0,0.03 0.01,0.02 -0.02,0.02 0,0.03 0.01,0.02 -0.02,0.02 0,0.03 0.01,0.02 -0.02,0.02 0,0.03 0.01,0.02 -0.02,0.02 0,0.03 0.01,0.02 -0.02,0.02 0,0.03 0.01,0.02 -0.02,0.02 0,0.03 0.01,0.02 -0.02,0.02 0,0.03 0.01,0.02 -0.02,0.02 0,0.03 0.01,0.02 -0.02,0.02 0,0.03 0.01,0.02 -0.02,0.02 0,0.03 0.01,0.02 -0.02,0.02 0,0.03 0.01,0.02 -0.02,0.02 0,0.03 0.01,0.02 -0.02,0.02 0,0.03 0.01,0.02 -0.02,0.02 0,0.03 0.01,0.02 -0.02,0.02 0,0.03 0.01,0.02 -0.02,0.02 0,0.03 0.01,0.02 -0.02,0.02 0,0.03 0.01,0.02 -0.02,0.02 0,0.03 0.01,0.02 -0.02,0.02 0,0.03 0.01,0.02 -0.02,0.02 0,0.03 0.01,0.02 -0.02,0.02 0,0.03 0.01,0.02 -0.02,0.02 0,0.03 0.01,0.02 -0.02,0.02 0,0.03 0.01,0.02 -0.02,0.02 0,0.03 0.01,0.02 -0.02,0.02 0,0.03 0.01,0.02 -0.02,0.02 0,0.03 0.01,0.02 -0.02,0.02 0,0.03 0.01,0.02 -0.02,0.02 0,0.03 0.01,0.02 -0.02,0.02 0,0.03 0.01,0.02 -0.02,0.02 0,0.03 0.01,0.02 -0.02,0.02 0,0.03 0.01,0.02 -0.02,0.02 0,0.03 0.01,0.02 -0.02,0.02 0,0.03 0.01,0.02 -0.02,0.02 0,0.03 0.01,0.02 -0.02,0.02 0,0.03 0.01,0.02 -0.02,0.02 0,0.03 0.01,0.02 -0.02,0.02 0,0.03 0.01,0.02 -0.02,0.02 0,0.03 0.01,0.02 -0.02,0.02 0,0.03 0.01,0.02 -0.02,0.02 0,0.03 0.01,0.02 -0.02,0.02 0,0.03 0.01,0.02 -0.02,0.02 0,0.03 0.01,0.02 -0.02,0.02 0,0.03 0.01,0.02 -0.02,0.02 0,0.03 0.01,0.02 -0.02,0.02 0,0.03 0.01,0.02 -0.02,0.02 0,0.03 0.01,0.02 -0.02,0.02 0,0.03 0.01,0.02 -0.02,0.02 0,0.03 0.01,0.02 -0.02,0.02 0,0.03 0.01,0.02 -0.02,0.02 0,0.03 0.01,0.02 -0.02,0.02 0,0.03 0.01,0.02 -0.02,0.02 0,0.03 0.01,0.02 -0.02,0.02 0,0.03 0.01,0.02 -0.02,0.02 0,0.03 0.01,0.02 -0.02,0.02 0,0.03 0.01,0.02 -0.02,0.02 0,0.03 0.01,0.02 -0.02,0.02 0,0.03 0.01,0.02 -0.02,0.02 0,0.03 0.01,0.02 -0.02,0.02 0,0.03 0.01,0.02 -0.02,0.02 0,0.03 0.01,0.02 -0.02,0.02 0,0.03 0.01,0.02 -0.02,0.02 0,0.03 0.01,0.02 -0.02,0.02 0,0.03 0.01,0.02 -0.02,0.02 0,0.03 0.01,0.02 -0.02,0.02 0,0.03 0.01,0.02 -0.02,0.02 0,0.03 0.01,0.02 -0.02,0.02 0,0.03 0.01,0.02 -0.02,0.02 0,0.03 0.01,0.02 -0.02,0.02 0,0.03 0.01,0.02 -0.02,0.02 0,0.03 0.01,0.02 -0.02,0.02 0,0.03 0.01,0.02 -0.02,0.02 0,0.03 0.01,0.02 -0.02,0.02 0,0.03 0.01,0.02 -0.02,0.02 0,0.03 0.01,0.02 -0.02,0.02 0,0.03 0.01,0.02 -0.02,0.02 0,0.03 0.01,0.02 -0.02,0.02 0,0.03 0.01,0.02 -0.02,0.02 0,0.03 0.01,0.02 -0.02,0.02 0,0.03 0.01,0.02 -0.02,0.02 0,0.03 0.01,0.02 -0.02,0.02 0,0.03 0.01,0.02 -0.02,0.02 0,0.03 0.01,0.02 -0.02,0.02 0,0.03 0.01,0.02 -0.02,0.02 0,0.03 0.01,0.02 -0.02,0.02 0,0.03 0.01,0.02 -0.02,0.02 0,0.03 0.01,0.02 -0.02,0.02 0,0.03 0.01,0.02 -0.02,0.02 0,0.03 0.01,0.02 -0.02,0.02 0,0.03 0.01,0.02 -0.02,0.02 0,0.03 0.01,0.02 -0.02,0.02 0,0.03 0.01,0.02 -0.02,0.02 0,0.03 0.01,0.02 -0.02,0.02 0,0.03 0.01,0.02 -0.02,0.02 0,0.03 0.01,0.02 -0.02,0.02 0,0.03 0.01,0.02 -0.02,0.02 0,0.03 0.01,0.02 -0.02,0.02 0,0.03 0.01,0.02 -0.02,0.02 0,0.03 0.01,0.02 -0.02,0.02 0,0.03 0.01,0.02 -0.02,0.02 0,0.03 0.01,0.02 -0.02,0.02 0,0.03 0.01,0.02 -0.02,0.02 0,0.03 0.01,0.02 -0.02,0.02 0,0.03 0.01,0.02 -0.02,0.02 0,0.03 0.01,0.02 -0.02,0.02 0,0.03 0.01,0.02 -0.02,0.02 0,0.03 0.01,0.02 -0.02,0.02 0,0.03 0.01,0.02 -0.02,0.02 0,0.03 0.01,0.02 -0.02,0.02 0,0.03 0.01,0.02 -0.02,0.02 0,0.03 0.01,0.02 -0.02,0.02 0,0.03 0.01,0.02 -0.02,0.02 0,0.03 0.01,0.02 -0.02,0.02 0,0.03 0.01,0.02 -0.02,0.02 0,0.03 0.01,0.02 -0.02,0.02 0,0.03 0.01,0.02 -0.02,0.02 0,0.03 0.01,0.02 -0.02,0.02 0,0.03 0.01,0.02 -0.02,0.02 0,0.03 0.01,0.02 -0.02,0.02 0,0.03 0.01,0.02 -0.02,0.02 0,0.03 0.01,0.02 -0.02,0.02 0,0.03 0.01,0.02 -0.02,0.02 0,0.03 0.01,0.02 -0.02,0.02 0,0.03 0.01,0.02 -0.02,0.02 0,0.03 0.01,0.02 -0.02,0.02 0,0.03 0.01,0.02 -0.02,0.02 0,0.03 0.01,0.02 -0.02,0.02 0,0.03 0.01,0.02 -0.02,0.02 0,0.03 0.01,0.02 -0.02,0.02 0,0.03 0.01,0.02 -0.02,0.02 0,0.03 0.01,0.02 -0.02,0.02 0,0.03 0.01,0.02 -0.02,0.02 0,0.03 0.01,0.02 -0.02,0.02 0,0.03 0.01,0.02 -0.02,0.02 0,0.03 0.01,0.02 -0.02,0.02 0,0.03 0.01,0.02 -0.02,0.02 0,0.03 0.01,0.02 -0.02,0.02 0,0.03 0.01,0.02 -0.02,0.02 0,0.03 0.01,0.02 -0.02,0.02 0,0.03 0.01,0.02 -0.02,0.02 0,0.03 0.01,0.02 -0.02,0.02 0,0.03 0.01,0.02 -0.02,0.02 0,0.03 0.01,0.02 -0.02,0.02 0,0.03 0.01,0.02 -0.02,0.02 0,0.03 0.01,0.02 -0.02,0.02 0,0.03 0.01,0.02 -0.02,0.02 0,0.03 0.01,0.02 -0.02,0.02 0,0.03 0.01,0.02 -0.02,0.02 0,0.03 0.01,0.02 -0.02,0.02 0,0.03 0.01,0.02 -0.02,0.02 0,0.03 0.01,0.02 -0.02,0.02 0,0.03 0.01,0.02 -0.02,0.02 0,0.03 0.01,0.02 -0.02,0.02 0,0.03 0.01,0.02 -0.02,0.02 0,0.03 0.01,0.02 -0.02,0.02 0,0.03 0.01,0.02 -0.02,0.02 0,0.03 0.01,0.02 -0.02,0.02 0,0.03 0.01,0.02 -0.02,0.02 0,0.03 0.01,0.02 -0.02,0.02 0,0.03 0.01,0.02 -0.02,0.02 0,0.03 0.01,0.02 -0.02,0.02 0,0.03 0.01,0.02 -0.02,0.02 0,0.03 0.01,0.02 -0.02,0.02 0,0.02 0.01,0.02 -0.02,0.02 0,0.02 0.01,0.02 -0.02,0.02 0,0.02 0.01,0.02 -0.02,0.02 0,0.02 0.01,0.02 -0.02,0.02 0,0.02 0.01,0.02 -0.02,0.02 0,0.02 0.01,0.02 -0.02,0.02 0,0.02 0.01,0.02 -0.02,0.02 0,0.02 0.01,0.02 -0.02,0.02 0,0.02 0.01,0.02 -0.02,0.02 0,0.02 0.01,0.02 -0.02,0.02 0,0.02 0.01,0.02 -0.02,0.02 0,0.02 0.01,0.02 -0.02,0.02 0,0.02 0.01,0.02 -0.02,0.02 0,0.02 0.01,0.02 -0.02,0.02 0,0.02 0.01,0.02 -0.02,0.02 0,0.02 0.01,0.02 -0.02,0.02 0,0.02 0.01,0.02 -0.02,0.02 0,0.02 0.01,0.02 -0.02,0.02 0,0.02 0.01,0.02 -0.02,0.02 0,0.02 0.01,0.02 -0.02,0.02 0,0.02 0.01,0.02 -0.02,0.02 0,0.02 0.01,0.02 -0.02,0.02 0,0.02 0.01,0.02 -0.02,0.02 0,0.02 0.01,0.02 -0.02,0.02 0,0.02 0.01,0.02 -0.02,0.01 0,0.03 0.01,0.03 -0.02,0.02 0,0.03 0.01,0.03 -0.02,0.02 0,0.03 0.01,0.03 -0.02,0.02 0,0.03 0.01,0.03 -0.02,0.02 0,0.03 0.01,0.03 -0.02,0.02 0,0.03 0.01,0.03 -0.02,0.02 0,0.03 0.01,0.03 -0.02,0.02 0,0.03 0.01,0.03 -0.02,0.02 0,0.03 0.01,0.03 -0.02,0.02 0,0.03 0.01,0.03 -0.02,0.02 0,0.03 0.01,0.03 -0.02,0.02 0,0.03 0.01,0.03 -0.02,0.02 0,0.03 0.01,0.03 -0.02,0.02 0,0.03 0.01,0.03 -0.02,0.02 0,0.03 0.01,0.03 -0.02,0.02 0,0.03 0.01,0.03 -0.02,0.02 0,0.03 0.01,0.03 -0.02,0.02 0,0.03 0.01,0.03 -0.02,0.02 0,0.03 0.01,0.03 -0.02,0.02 0,0.03 0.01,0.03 -0.02,0.02 0,0.03 0.01,0.03 -0.02,0.02 0,0.03 0.01,0.03 -0.02,0.02 0,0.03 0.01,0.03 -0.02,0.02 0,0.03 0.01,0.03 -0.02,0.02 0,0.03 0.01,0.03 -0.02,0.02 0,0.03 0.01,0.03 -0.02,0.02 0,0.03 0.01,0.03 -0.02,0.02 0,0.03 0.01,0.03 -0.02,0.02 0,0.03 0.01,0.03 -0.02,0.02 0,0.03 0.01,0.03 -0.02,0.02 0,0.03 0.01,0.03 -0.02,0.02 0,0.03 0.01,0.03 -0.02,0.02 0,0.03 0.01,0.03 -0.02,0.02 0,0.03 0.01,0.03 -0.02,0.02 0,0.03 0.01,0.03 -0.02,0.02 0,0.03 0.01,0.03 -0.02,0.02 0,0.03 0.01,0.03 -0.02,0.02 0,0.03 0.01,0.03 -0.02,0.02 0,0.03 0.01,0.03 -0.02,0.02 0,0.03 0.01,0.03 -0.02,0.02 0,0.03 0.01,0.03 -0.02,0.02 0,0.03 0.01,0.03 -0.02,0.02 0,0.03 0.01,0.03 -0.02,0.02 0,0.03 0.01,0.03 -0.02,0.02 0,0.03 0.01,0.03 -0.02,0.02 0,0.03 0.01,0.03 -0.02,0.02 0,0.03 0.01,0.03 -0.02,0.02 0,0.03 0.01,0.03 -0.02,0.02 0,0.03 0.01,0.03 -0.02,0.02 0,0.03 0.01,0.03 -0.02,0.02 0,0.03 0.01,0.03 -0.02,0.02 0,0.03 0.01,0.03 -0.02,0.02 0,0.03 0.01,0.03 -0.02,0.02 0,0.03 0.01,0.03 -0.02,0.02 0,0.03 0.01,0.03 -0.02,0.02 0,0.03 0.01,0.03 -0.02,0.02 0,0.03 0.01,0.03 -0.02,0.02 0,0.03 0.01,0.03 -0.02,0.02 0,0.03 0.01,0.02 -0.02,0.02 0,0.03 0.01,0.02 -0.02,0.02 0,0.03 0.01,0.02 -0.02,0.02 0,0.03 0.01,0.02 -0.02,0.02 0,0.03 0.01,0.02 -0.02,0.02 0,0.03 0.01,0.02 -0.02,0.02 0,0.03 0.01,0.02 -0.02,0.02 0,0.03 0.01,0.02 -0.02,0.02 0,0.03 0.01,0.02 -0.02,0.02 0,0.03 0.01,0.02 -0.02,0.02 0,0.03 0.01,0.02 -0.02,0.02 0,0.03 0.01,0.02 -0.02,0.02 0,0.03 0.01,0.02 -0.02,0.02 0,0.03 0.01,0.02 -0.02,0.02 0,0.03 0.01,0.02 -0.02,0.02 0,0.03 0.01,0.02 -0.02,0.02 0,0.03 0.01,0.02 -0.02,0.02 0,0.03 0.01,0.02 -0.02,0.02 0,0.03 0.01,0.02 -0.02,0.02 0,0.03 0.01,0.02 -0.02,0.02 0,0.03 0.01,0.02 -0.02,0.02 0,0.03 0.01,0.02 -0.02,0.02 0,0.03 0.01,0.02 -0.02,0.02 0,0.03 0.01,0.02 -0.02,0.02 0,0.03 0.01,0.02 -0.02,0.02 0,0.03 0.01,0.02 -0.02,0.02 0,0.03 0.01,0.02 -0.02,0.02 0,0.03 0.01,0.02 -0.02,0.02 0,0.03 0.01,0.02 -0.02,0.02 0,0.03 0.01,0.02 -0.02,0.02 0,0.03 0.01,0.02 -0.02,0.02 0,0.03 0.01,0.02 -0.02,0.02 0,0.03 0.01,0.02 -0.02,0.02 0,0.03 0.01,0.02 -0.02,0.02 0,0.03 0.01,0.02 -0.02,0.02 0,0.03 0.01,0.02 -0.02,0.02 0,0.03 0.01,0.02 -0.02,0.02 0,0.03 0.01,0.02 -0.02,0.02 0,0.03 0.01,0.02 -0.02,0.02 0,0.03 0.01,0.02 -0.02,0.02 0,0.03 0.01,0.02 -0.02,0.02 0,0.03 0.01,0.02 -0.02,0.02 0,0.03 0.01,0.02 -0.02,0.02 0,0.03 0.01,0.02 -0.02,0.02 0,0.03 0.01,0.02 -0.02,0.02 0,0.03 0.01,0.02 -0.02,0.02 0,0.03 0.01,0.02 -0.02,0.02 0,0.03 0.01,0.02 -0.02,0.02 0,0.03 0.01,0.02 -0.02,0.02 0,0.03 0.01,0.02 -0.02,0.02 0,0.03 0.01,0.02 -0.02,0.02 0,0.03 0.01,0.02 -0.02,0.02 0,0.03 0.01,0.02 -0.02,0.02 0,0.03 0.01,0.02 -0.02,0.02 0,0.03 0.01,0.02 -0.02,0.02 0,0.03 0.01,0.02 -0.02,0.02 0,0.03 0.01,0.02 -0.02,0.02 0,0.03 0.01,0.02 -0.02,0.02 0,0.03 0.01,0.02 -0.02,0.02 0,0.03 0.01,0.02 -0.02,0.02 0,0.03 0.01,0.02 -0.02,0.02 0,0.03 0.01,0.02 -0.02,0.02 0,0.03 0.01,0.02 -0.02,0.02 0,0.03 0.01,0.02 -0.02,0.02 0,0.03 0.01,0.02 -0.02,0.02 0,0.03 0.01,0.02 -0.02,0.02 0,0.03 0.01,0.02 -0.02,0.02l-0.01 0c-0.03,0 -0.03,0.01 -0.03,-0.02 -0.03,0 -0.02,0.01 -0.02,-0.02 -0.03,0 -0.02,0.01 -0.02,-0.02 -0.03,0 -0.02,0.01 -0.02,-0.02 -0.03,0 -0.02,0.01 -0.02,-0.02 -0.02,0 -0.02,0.01 -0.02,-0.02 -0.03,0 -0.02,0.01 -0.02,-0.02 -0.03,0 -0.02,0.01 -0.02,-0.02 -0.03,0 -0.02,0.01 -0.02,-0.02 -0.02,0 -0.02,0.01 -0.02,-0.02 -0.02,0 -0.02,0.01 -0.02,-0.02 -0.02,0 -0.02,0.01 -0.02,-0.02 -0.02,0.01 -0.02,0.01 -0.02,-0.02 -0.03,0.01 -0.02,0.01 -0.02,-0.02 -0.02,0.01 -0.02,0.01 -0.02,-0.02 -0.02,0.01 -0.02,0.01 -0.02,-0.02 -0.02,0.01 -0.02,0.01 -0.02,-0.02 -0.02,0.01 -0.02,0.01 -0.02,-0.02 -0.02,0.01 -0.02,0.01 -0.02,-0.02 -0.02,0.01 -0.02,0.01 -0.02,-0.02 -0.02,0.01 -0.02,0.01 -0.02,-0.02 -0.02,0.01 -0.02,0.01 -0.02,-0.02 -0.02,0.01 -0.02,0.01 -0.02,-0.02 -0.02,0.01 -0.02,0.01 -0.02,-0.02 -0.02,0.01 -0.02,0.01 -0.02,-0.02 -0.02,0.01 -0.02,0.01 -0.02,-0.02 -0.02,0.01 -0.02,0.01 -0.02,-0.02 -0.02,0.01 -0.02,0.01 -0.02,-0.02 -0.02,0.01 -0.02,0.01 -0.02,-0.02 -0.02,0.01 -0.02,0.01 -0.02,-0.02 -0.02,0.01 -0.02,0.01 -0.02,-0.02 -0.02,0.01 -0.02,0.01 -0.02,-0.02 -0.02,0.01 -0.02,0.01 -0.02,-0.02 -0.02,0.01 -0.02,0.01 -0.02,-0.02 -0.02,0.01 -0.02,0.01 -0.02,-0.02 -0.02,0.01 -0.02,0.01 -0.02,-0.02 -0.02,0.01 -0.02,0.01 -0.02,-0.01 -0.02,0 -0.02,0 -0.02,-0.02 -0.02,0 -0.02,0 -0.02,-0.02 -0.02,0 -0.02,0 -0.02,-0.02 -0.02,0 -0.02,0 -0.02,-0.02 -0.02,0 -0.02,0 -0.02,-0.02 -0.02,0 -0.02,0 -0.02,-0.02 -0.02,0 -0.02,0 -0.02,-0.02 -0.02,0 -0.02,0 -0.02,-0.02 -0.02,0 -0.02,0 -0.02,-0.02 -0.02,0 -0.02,0 -0.02,-0.02 -0.02,0 -0.02,0 -0.02,-0.02 -0.02,0 -0.02,0 -0.02,-0.02 -0.02,0 -0.02,0 -0.02,-0.02 -0.02,0 -0.02,0 -0.02,-0.02 -0.02,0 -0.02,0 -0.02,-0.02 -0.02,0 -0.02,0 -0.02,-0.02 -0.02,0 -0.02,0 -0.02,-0.02 -0.02,0 -0.02,0 -0.02,-0.02 -0.02,0 -0.02,0 -0.02,-0.02 -0.02,0 -0.02,0 -0.02,-0.02 -0.02,0 -0.02,0 -0.02,-0.02 -0.02,0 -0.02,0 -0.02,-0.02 -0.02,0 -0.02,0 -0.02,-0.02 -0.02,0 -0.02,0 -0.02,-0.02 -0.02,0 -0.02,0 -0.02,-0.02 -0.02,0 -0.02,0 -0.02,-0.02 -0.02,0 -0.02,0 -0.02,-0.02 -0.02,0 -0.02,0 -0.02,-0.02 -0.02,0 -0.02,0 -0.02,-0.02 -0.02,0 -0.02,0 -0.02,-0.02 -0.02,0 -0.02,0 -0.02,-0.02 -0.02,0 -0.02,0 -0.02,-0.02 -0.02,0 -0.02,0 -0.02,-0.02 -0.02,0 -0.02,0 -0.02,-0.02 -0.02,0 -0.02,0 -0.02,-0.02 -0.02,0 -0.02,0 -0.02,-0.02 -0.02,0 -0.02,0 -0.02,-0.02 -0.02,0 -0.02,0 -0.02,-0.02 -0.02,0 -0.02,0 -0.02,-0.02 -0.02,0 -0.02,0 -0.02,-0.02 -0.02,0 -0.02,0 -0.02,-0.02 -0.02,0 -0.02,0 -0.02,-0.02 -0.02,0 -0.02,0 -0.02,-0.02 -0.02,0 -0.02,0 -0.02,-0.02 -0.02,0 -0.02,0 -0.02,-0.02 -0.02,0 -0.02,0 -0.02,-0.02 -0.02,0 -0.02,0 -0.02,-0.02 -0.02,0 -0.02,0 -0.02,-0.02 -0.02,0 -0.02,0 -0.02,-0.02 -0.02,0 -0.02,0 -0.02,-0.02 -0.02,0 -0.02,0 -0.02,-0.02 -0.02,0 -0.02,0 -0.02,-0.02 -0.02,0 -0.02,0 -0.02,-0.02 -0.02,0 -0.02,0 -0.02,-0.02 -0.02,0 -0.02,0 -0.02,-0.02 -0.02,0 -0.02,0 -0.02,-0.02 -0.02,0 -0.02,0 -0.02,-0.02 -0.02,0 -0.02,0.01 -0.02,-0.02 -0.02,0 -0.02,0.01 -0.02,-0.02 -0.02,0 -0.02,0.01 -0.02,-0.02 -0.02,0 -0.02,0.01 -0.02,-0.02 -0.02,0 -0.02,0.01 -0.02,-0.02 -0.02,0 -0.02,0.01 -0.02,-0.02 -0.02,0 -0.02,0.01 -0.02,-0.02 -0.02,0 -0.02,0.01 -0.02,-0.02 -0.02,0 -0.02,0.01 -0.02,-0.02 -0.02,0 -0.02,0.01 -0.02,-0.02 -0.02,0 -0.02,0.01 -0.02,-0.02 -0.02,0 -0.02,0.01 -0.02,-0.02 -0.02,0 -0.02,0.01 -0.02,-0.02 -0.02,0 -0.02,0.01 -0.02,-0.02 -0.02,0 -0.02,0.01 -0.02,-0.02 -0.02,0 -0.02,0.01 -0.02,-0.02 -0.02,0 -0.02,0.01 -0.02,-0.02 -0.02,0 -0.02,0.01 -0.02,-0.02 -0.02,0 -0.02,0.01 -0.02,-0.02 -0.02,0 -0.02,0.01 -0.02,-0.02 -0.02,0 -0.02,0.01 -0.02,-0.02 -0.02,0 -0.02,0.01 -0.02,-0.02 -0.02,0 -0.02,0.01 -0.02,-0.02 -0.02,0 -0.02,0.01 -0.02,-0.02 -0.02,0 -0.02,0.01 -0.02,-0.02 -0.02,0 -0.02,0.01 -0.02,-0.02 -0.02,0 -0.02,0.01 -0.02,-0.02 -0.02,0 -0.02,0.01 -0.02,-0.02 -0.02,0 -0.02,0.01 -0.02,-0.02 -0.02,0 -0.02,0.01 -0.02,-0.02 -0.02,0 -0.02,0.01 -0.02,-0.02 -0.02,0 -0.02,0.01 -0.02,-0.02 -0.02,0 -0.02,0.01 -0.02,-0.02 -0.02,0 -0.02,0.01 -0.02,-0.02 -0.02,0 -0.02,0.01 -0.02,-0.02 -0.02,0 -0.02,0.01 -0.02,-0.02 -0.02,0 -0.02,0.01 -0.02,-0.02 -0.02,0 -0.02,0.01 -0.02,-0.02 -0.02,0 -0.02,0.01 -0.02,-0.02 -0.02,0 -0.02,0.01 -0.02,-0.02 -0.02,0 -0.02,0.01 -0.02,-0.02 -0.02,0 -0.02,0.01 -0.02,-0.02 -0.02,0 -0.02,0.01 -0.02,-0.02 -0.02,0 -0.02,0.01 -0.02,-0.02 -0.02,0 -0.02,0.01 -0.02,-0.02 -0.02,0 -0.02,0.01 -0.02,-0.02 -0.02,0 -0.02,0.01 -0.02,-0.02 -0.02,0 -0.02,0.01 -0.02,-0.02 -0.02,0 -0.02,0.01 -0.02,-0.02 -0.02,0 -0.02,0.01 -0.02,-0.02 -0.02,0 -0.02,0.01 -0.02,-0.02 -0.02,0 -0.02,0.01 -0.02,-0.02 -0.02,0 -0.02,0.01 -0.02,-0.02 -0.02,0 -0.02,0.01 -0.02,-0.02 -0.02,0 -0.02,0.01 -0.02,-0.02 -0.02,0 -0.02,0.01 -0.02,-0.02 -0.02,0 -0.02,0.01 -0.02,-0.02 -0.02,0 -0.02,0.01 -0.02,-0.02 -0.02,0 -0.02,0.01 -0.02,-0.02 -0.02,0 -0.02,0.01 -0.02,-0.02 -0.02,0 -0.02,0.01 -0.02,-0.02 -0.02,0 -0.02,0.01 -0.02,-0.02 -0.02,0 -0.02,0.01 -0.02,-0.02 -0.02,0 -0.02,0.01 -0.02,-0.02 -0.02,0 -0.02,0.01 -0.02,-0.02 -0.02,0 -0.02,0.01 -0.02,-0.02 -0.02,0 -0.02,0.01 -0.02,-0.02 -0.02,0 -0.02,0.01 -0.02,-0.02 -0.02,0 -0.02,0.01 -0.02,-0.02 -0.02,0 -0.02,0.01 -0.02,-0.02 -0.02,0 -0.02,0.01 -0.02,-0.02 -0.02,0 -0.02,0.01 -0.02,-0.02 -0.02,0 -0.02,0.01 -0.02,-0.02 -0.02,0 -0.02,0.01 -0.02,-0.02 -0.02,0 -0.02,0.01 -0.02,-0.02 -0.02,0 -0.02,0.01 -0.02,-0.02 -0.02,0 -0.02,0.01 -0.02,-0.02 -0.02,0 -0.02,0.01 -0.02,-0.02 -0.02,0 -0.02,0.01 -0.02,-0.02 -0.02,0 -0.02,0.01 -0.02,-0.02 -0.02,0 -0.02,0.01 -0.02,-0.02 -0.02,0 -0.02,0.01 -0.02,-0.02 -0.02,0 -0.02,0.01 -0.02,-0.02 -0.02,0 -0.02,0.01 -0.02,-0.02 -0.02,0 -0.02,0.01 -0.02,-0.02 -0.02,0 -0.02,0.01 -0.02,-0.02 -0.02,0 -0.02,0.01 -0.02,-0.02 -0.02,0 -0.02,0.01 -0.02,-0.02 -0.02,0 -0.02,0.01 -0.02,-0.02 -0.02,0 -0.02,0.01 -0.02,-0.02 -0.02,0 -0.02,0.01 -0.02,-0.02 -0.02,0 -0.02,0.01 -0.02,-0.02 -0.02,0 -0.02,0.01 -0.02,-0.02 -0.02,0 -0.02,0.01 -0.02,-0.02 -0.02,0 -0.02,0.01 -0.02,-0.02 -0.02,0 -0.02,0.01 -0.02,-0.02 -0.02,0 -0.02,0.01 -0.02,-0.02 -0.02,0 -0.02,0.01 -0.02,-0.02 -0.02,0 -0.02,0.01 -0.02,-0.02 -0.02,0 -0.02,0.01 -0.02,-0.02 -0.02,0 -0.02,0.01 -0.02,-0.02 -0.02,0 -0.02,0.01 -0.02,-0.02 -0.02,0 -0.02,0.01 -0.02,-0.02 -0.02,0 -0.02,0.01 -0.02,-0.02 -0.02,0 -0.02,0.01 -0.02,-0.02 -0.02,0 -0.02,0.01 -0.02,-0.02 -0.02,0 -0.02,0.01 -0.02,-0.02 -0.02,0 -0.02,0.01 -0.02,-0.02 -0.02,0 -0.02,0.01 -0.02,-0.02 -0.02,0 -0.02,0.01 -0.02,-0.02 -0.02,0 -0.02,0.01 -0.02,-0.02 -0.02,0 -0.02,0.01 -0.02,-0.02 -0.02,0 -0.02,0.01 -0.02,-0.02 -0.02,0 -0.02,0.01 -0.02,-0.02 -0.02,0 -0.02,0.01 -0.02,-0.02 -0.02,0 -0.02,0.01 -0.02,-0.02 -0.02,0 -0.02,0.01 -0.02,-0.02 -0.02,0 -0.02,0.01 -0.02,-0.02 -0.02,0 -0.02,0.01 -0.02,-0.02 -0.02,0 -0.02,0.01 -0.02,-0.02 -0.02,0 -0.02,0.01 -0.02,-0.02 -0.02,0 -0.02,0.01 -0.02,-0.02 -0.02,0 -0.02,0.01 -0.02,-0.02 -0.02,0 -0.02,0.01 -0.02,-0.02 -0.02,0 -0.02,0.01 -0.02,-0.02 -0.02,0 -0.02,0.01 -0.02,-0.02 -0.02,0 -0.02,0.01 -0.02,-0.02 -0.02,0 -0.02,0.01 -0.02,-0.02 -0.02,0 -0.02,0.01 -0.02,-0.02 -0.02,0 -0.02,0.01 -0.02,-0.02 -0.02,0 -0.02,0.01 -0.02,-0.02 -0.02,0 -0.02,0.01 -0.02,-0.02 -0.02,0 -0.02,0.01 -0.02,-0.02 -0.02,0 -0.02,0.01 -0.02,-0.02 -0.02,0 -0.02,0.01 -0.02,-0.02 -0.02,0 -0.02,0.01 -0.02,-0.02 -0.02,0 -0.02,0.01 -0.02,-0.02 -0.02,0 -0.02,0.01 -0.02,-0.02 -0.02,0 -0.02,0.01 -0.02,-0.02 -0.02,0 -0.02,0.01 -0.02,-0.02 -0.02,0 -0.02,0.01 -0.02,-0.02 -0.02,0 -0.02,0.01 -0.02,-0.02 -0.02,0 -0.02,0.01 -0.02,-0.02 -0.02,0 -0.02,0.01 -0.02,-0.02 -0.02,0 -0.02,0.01 -0.02,-0.02 -0.02,0 -0.02,0.01 -0.02,-0.02 -0.02,0 -0.02,0.01 -0.02,-0.02 -0.02,0 -0.02,0.01 -0.02,-0.02 -0.02,0 -0.02,0.01 -0.02,-0.02 -0.02,0 -0.02,0.01 -0.02,-0.02 -0.02,0 -0.02,0.01 -0.02,-0.02 -0.02,0 -0.02,0.01 -0.02,-0.02 -0.02,0 -0.02,0.01 -0.02,-0.02 -0.02,0 -0.02,0.01 -0.02,-0.02 -0.02,0 -0.02,0.01 -0.02,-0.02 -0.02,0 -0.02,0.01 -0.02,-0.02 -0.02,0 -0.02,0.01 -0.02,-0.02 -0.02,0 -0.02,0.01 -0.02,-0.02 -0.02,0 -0.02,0.01 -0.02,-0.02 -0.02,0 -0.02,0.01 -0.02,-0.02 -0.02,0 -0.02,0.01 -0.02,-0.02 -0.02,0 -0.02,0.01 -0.02,-0.02 -0.02,0 -0.02,0.01 -0.02,-0.02 -0.02,0.01 -0.02,0.01 -0.02,-0.02 -0.02,0.01 -0.02,0.01 -0.02,-0.02 -0.02,0.01 -0.02,0.01 -0.02,-0.02 -0.02,0.01 -0.02,0.01 -0.02,-0.02 -0.02,0.01 -0.02,0.01 -0.02,-0.02 -0.02,0.01 -0.02,0.01 -0.02,-0.02 -0.02,0.01 -0.02,0.01 -0.02,-0.02 -0.02,0.01 -0.02,0.01 -0.02,-0.02 -0.02,0.01 -0.02,0.01 -0.02,-0.02 -0.02,0.01 -0.02,0.01 -0.02,-0.02 -0.02,0.01 -0.02,0.01 -0.02,-0.02 -0.02,0.01 -0.02,0.01 -0.02,-0.02 -0.02,0.01 -0.02,0.01 -0.02,-0.02 -0.02,0.01 -0.02,0.01 -0.02,-0.02 -0.02,0.01 -0.02,0.01 -0.02,-0.02 -0.02,0.01 -0.02,0.01 -0.02,-0.02 -0.02,0.01 -0.02,0.01 -0.02,-0.02 -0.02,0.01 -0.02,0.01 -0.02,-0.02 -0.02,0.01 -0.02,0.01 -0.02,-0.02 -0.02,0.01 -0.02,0.01 -0.02,-0.02 -0.02,0.01 -0.02,0.01 -0.02,-0.02 -0.02,0.01 -0.02,0.01 -0.02,-0.02 -0.02,0.01 -0.02,0.01 -0.02,-0.02 -0.02,0.01 -0.02,0.01 -0.02,-0.02 -0.02,0.01 -0.02,0.01 -0.02,-0.02 -0.02,0.01 -0.02,0.01 -0.02,-0.01 -0.02,0 -0.02,0 -0.02,-0.02 -0.02,0 -0.02,0 -0.02,-0.02 -0.02,0 -0.02,0 -0.02,-0.02 -0.02,0 -0.02,0 -0.02,-0.02 -0.02,0 -0.02,0 -0.02,-0.02 -0.02,0 -0.02,0 -0.02,-0.02 -0.02,0 -0.02,0 -0.02,-0.02 -0.02,0 -0.02,0 -0.02,-0.02 -0.02,0 -0.02,0 -0.02,-0.02 -0.02,0 -0.02,0 -0.02,-0.02 -0.02,0 -0.02,0 -0.02,-0.02 -0.02,0 -0.02,0 -0.02,-0.02 -0.02,0 -0.02,0 -0.02,-0.02 -0.02,0 -0.02,0 -0.02,-0.02 -0.02,0 -0.02,0 -0.02,-0.02 -0.02,0 -0.02,0 -0.02,-0.02 -0.02,0 -0.02,0 -0.02,-0.02 -0.02,0 -0.02,0 -0.02,-0.02 -0.02,0 -0.02,0 -0.02,-0.02 -0.02,0 -0.02,0 -0.02,-0.02 -0.02,0 -0.02,0 -0.02,-0.02 -0.02,0 -0.02,0 -0.02,-0.02 -0.02,0 -0.02,0 -0.02,-0.02 -0.02,0 -0.02,0 -0.02,-0.02 -0.02,0 -0.02,0 -0.02,-0.02 -0.02,0 -0.02,0 -0.02,-0.02 -0.02,0 -0.02,0 -0.02,-0.02 -0.02,0 -0.02,0 -0.02,-0.02 -0.02,0 -0.02,0 -0.02,-0.02 -0.02,0 -0.02,0 -0.02,-0.02 -0.02,0 -0.02,0 -0.02,-0.02 -0.02,0 -0.02,0 -0.02,-0.02 -0.02,0 -0.02,0 -0.02,-0.02 -0.02,0 -0.02,0 -0.02,-0.02 -0.02,0 -0.02,0 -0.02,-0.02 -0.02,0 -0.02,0 -0.02,-0.02 -0.02,0 -0.02,0 -0.02,-0.02 -0.02,0 -0.02,0 -0.02,-0.02 -0.02,0 -0.02,0 -0.02,-0.02 -0.02,0 -0.02,0 -0.02,-0.02 -0.02,0 -0.02,0 -0.02,-0.02 -0.02,0 -0.02,0 -0.02,-0.02 -0.02,0 -0.02,0 -0.02,-0.02 -0.02,0 -0.02,0 -0.02,-0.02 -0.02,0 -0.02,0 -0.02,-0.02 -0.02,0 -0.02,0 -0.02,-0.02 -0.02,0 -0.02,0 -0.02,-0.02 -0.02,0 -0.02,0 -0.02,-0.02 -0.02,0 -0.02,0 -0.02,-0.02 -0.02,0 -0.02,0 -0.02,-0.02 -0.02,0 -0.02,0 -0.02,-0.02 -0.02,0 -0.02,0 -0.02,-0.02 -0.02,0 -0.02,0 -0.02,-0.02 -0.02,0 -0.02,0 -0.02,-0.02 -0.02,0 -0.02,0 -0.02,-0.02 -0.02,0 -0.02,0 -0.02,-0.02 -0.02,0 -0.02,0.01 -0.02,-0.02 -0.02,0 -0.02,0.01 -0.02,-0.02 -0.02,0 -0.02,0.01 -0.02,-0.02 -0.02,0 -0.02,0.01 -0.02,-0.02 -0.02,0 -0.02,0.01 -0.02,-0.02 -0.02,0 -0.02,0.01 -0.02,-0.02 -0.02,0 -0.02,0.01 -0.02,-0.02 -0.02,0 -0.02,0.01 -0.02,-0.02 -0.02,0 -0.02,0.01 -0.02,-0.02 -0.02,0 -0.02,0.01 -0.02,-0.02 -0.02,0 -0.02,0.01 -0.02,-0.02 -0.02,0 -0.02,0.01 -0.02,-0.02 -0.02,0 -0.02,0.01 -0.02,-0.02 -0.02,0 -0.02,0.01 -0.02,-0.02 -0.02,0 -0.02,0.01 -0.02,-0.02 -0.02,0 -0.02,0.01 -0.02,-0.02 -0.02,0 -0.02,0.01 -0.02,-0.02 -0.02,0 -0.02,0.01 -0.02,-0.02 -0.02,0 -0.02,0.01 -0.02,-0.02 -0.02,0 -0.02,0.01 -0.02,-0.02 -0.02,0 -0.02,0.01 -0.02,-0.02 -0.02,0 -0.02,0.01 -0.02,-0.02 -0.02,0 -0.02,0.01 -0.02,-0.02 -0.02,0 -0.02,0.01 -0.02,-0.02 -0.02,0 -0.02,0.01 -0.02,-0.02 -0.02,0 -0.02,0.01 -0.02,-0.02 -0.02,0 -0.02,0.01 -0.02,-0.02 -0.02,0 -0.02,0.01 -0.02,-0.02 -0.02,0 -0.02,0.01 -0.02,-0.02 -0.02,0 -0.02,0.01 -0.02,-0.02 -0.02,0 -0.02,0.01 -0.02,-0.02l-0.03 0c0,0.03 0,0.02 -0.02,0.02 0,0.03 0,0.02 -0.02,0.02 0,0.03 0,0.02 -0.02,0.02 0,0.03 0,0.02 -0.02,0.02 0,0.03 0,0.02 -0.02,0.02 0,0.03 0,0.02 -0.02,0.02 0,0.03 0,0.02 -0.02,0.02 0,0.03 0,0.02 -0.02,0.02 0,0.03 0,0.02 -0.02,0.02 0,0.03 0,0.02 -0.02,0.02 0,0.03 0,0.02 -0.02,0.02 0,0.03 0,0.02 -0.02,0.02 0,0.03 0,0.02 -0.02,0.02 0,0.03 0,0.02 -0.02,0.02 0,0.03 0,0.02 -0.02,0.02 0,0.03 0,0.02 -0.02,0.02 0,0.03 0,0.02 -0.02,0.02 0,0.03 0,0.02 -0.02,0.02 0,0.03 0,0.02 -0.02,0.02 0,0.03 0,0.02 -0.02,0.02 0,0.03 0,0.02 -0.02,0.02 0,0.03 0,0.02 -0.02,0.02 0,0.03 0,0.02 -0.02,0.02 0,0.03 0,0.02 -0.02,0.02 0,0.03 0,0.02 -0.02,0.02 0,0.03 0,0.02 -0.02,0.02 0,0.03 0,0.02 -0.02,0.02 0,0.03 0,0.02 -0.02,0.02 0,0.03 0,0.02 -0.02,0.02 0,0.03 0,0.02 -0.02,0.02 0,0.03 0,0.02 -0.02,0.02 0,0.03 0,0.02 -0.02,0.02 0,0.03 0,0.02 -0.02,0.02 0,0.03 0,0.02 -0.02,0.02 0,0.03 0,0.02 -0.02,0.02 0,0.03 0,0.02 -0.02,0.02 0,0.03 0,0.02 -0.02,0.02 0,0.03 0,0.02 -0.02,0.02 0,0.03 0,0.02 -0.02,0.02 0,0.03 0,0.02 -0.02,0.02 0,0.02 0,0.02 -0.02,0.02 0,0.03 0,0.02 -0.02,0.02 0,0.02 0,0.02 -0.02,0.02 0,0.02 0,0.02 -0.02,0.02 0,0.02 0,0.02 -0.02,0.02 0,0.02 0,0.02 -0.02,0.02 0,0.02 0,0.02 -0.02,0.02 0,0.02 0,0.02 -0.02,0.02 0,0.02 0,0.02 -0.02,0.02 0,0.02 0,0.02 -0.02,0.02 0,0.02 0,0.02 -0.02,0.02 0,0.02 0,0.02 -0.02,0.02 0,0.02 0,0.02 -0.02,0.02 0,0.02 0,0.02 -0.02,0.02 0,0.03 0,0.02 -0.03,0.02l0 0.02c0.03,0 0.02,-0.01 0.02,0.02 0.03,0 0.02,-0.01 0.02,0.02 0.03,0 0.02,-0.01 0.02,0.02 0.03,0 0.02,-0.01 0.02,0.02 0.03,0 0.02,-0.01 0.02,0.02 0.03,0 0.02,-0.01 0.02,0.02 0.03,0 0.02,-0.01 0.02,0.02 0.03,0 0.02,-0.01 0.02,0.02 0.03,0 0.02,-0.01 0.02,0.02 0.03,0 0.02,-0.01 0.02,0.02 0.03,0 0.02,-0.01 0.02,0.02 0.03,0 0.02,-0.01 0.02,0.02 0.03,0 0.02,-0.01 0.02,0.02 0.03,0 0.02,-0.01 0.02,0.02 0.03,0 0.02,-0.01 0.02,0.02 0.03,0 0.02,-0.01 0.02,0.02 0.03,0 0.02,-0.01 0.02,0.02 0.03,0 0.02,-0.01 0.02,0.02 0.03,0 0.02,-0.01 0.02,0.02 0.03,0 0.02,-0.01 0.02,0.02 0.03,0 0.02,-0.01 0.02,0.02 0.03,0 0.02,-0.01 0.02,0.02 0.03,0 0.02,-0.01 0.02,0.02 0.03,0 0.02,-0.01 0.02,0.02 0.03,0 0.02,-0.01 0.02,0.02 0.03,0 0.02,-0.01 0.02,0.02 0.03,0 0.02,-0.01 0.02,0.02 0.03,0 0.02,-0.01 0.02,0.02 0.03,0 0.02,-0.01 0.02,0.02 0.03,0 0.02,-0.01 0.02,0.02 0.03,0 0.02,-0.01 0.02,0.02 0.03,0 0.02,-0.01 0.02,0.02 0.03,0 0.02,-0.01 0.02,0.02 0.03,0 0.02,-0.01 0.02,0.02 0.03,0 0.02,-0.01 0.02,0.02 0.03,0 0.02,-0.01 0.02,0.02 0.03,0 0.02,-0.01 0.02,0.02 0.03,0 0.02,-0.01 0.02,0.02 0.03,0 0.02,-0.01 0.02,0.02 0.03,0 0.02,-0.01 0.02,0.02 0.03,0 0.02,-0.01 0.02,0.02 0.03,0 0.02,-0.01 0.02,0.02 0.03,0 0.02,-0.01 0.02,0.02 0.03,0 0.02,-0.01 0.02,0.02 0.03,0 0.02,-0.01 0.02,0.02 0.03,0 0.02,-0.01 0.02,0.02 0.03,0 0.02,-0.01 0.02,0.02 0.03,0 0.02,-0.01 0.02,0.02 0.03,0 0.02,-0.01 0.02,0.02 0.03,0 0.02,-0.01 0.02,0.02 0.03,0 0.02,-0.01 0.02,0.02 0.03,0 0.02,-0.01 0.02,0.02 0.03,0 0.02,-0.01 0.02,0.02 0.03,0 0.02,-0.01 0.02,0.02 0.03,0 0.02,-0.01 0.02,0.02 0.03,0 0.02,-0.01 0.02,0.02 0.03,0 0.02,-0.01 0.02,0.02 0.03,0 0.02,-0.01 0.02,0.02 0.03,0 0.02,-0.01 0.02,0.02 0.03,0 0.02,-0.01 0.02,0.02 0.03,0 0.02,-0.01 0.02,0.02 0.03,0 0.02,-0.01 0.02,0.02 0.03,0 0.02,-0.01 0.02,0.02 0.03,0 0.02,-0.01 0.02,0.02 0.03,0 0.02,-0.01 0.02,0.02 0.03,0 0.02,-0.01 0.02,0.02 0.03,0 0.02,-0.01 0.02,0.02 0.03,0 0.02,-0.01 0.02,0.02 0.03,0 0.02,-0.01 0.02,0.02 0.03,0 0.02,-0.01 0.02,0.02 0.03,0 0.02,-0.01 0.02,0.02 0.03,-0.01 0.02,-0.01 0.02,0.02 0.03,0 0.02,-0.01 0.02,0.02 0.03,-0.01 0.02,-0.01 0.02,0.02 0.03,-0.01 0.02,-0.01 0.02,0.02 0.03,-0.01 0.02,-0.01 0.02,0.02 0.03,-0.01 0.02,-0.01 0.02,0.02 0.03,-0.01 0.02,-0.01 0.02,0.02 0.03,-0.01 0.02,-0.01 0.02,0.02 0.03,-0.01 0.02,-0.01 0.02,0.02 0.03,-0.01 0.02,-0.01 0.02,0.02 0.03,-0.01 0.02,-0.01 0.02,0.02 0.03,-0.01 0.02,-0.01 0.02,0.02 0.03,-0.01 0.02,-0.01 0.02,0.02 0.03,-0.01 0.02,-0.01 0.02,0.02 0.03,-0.01 0.02,-0.01 0.02,0.02 0.03,-0.01 0.02,-0.01 0.02,0.02 0.03,-0.01 0.02,-0.01 0.02,0.02 0.03,-0.01 0.02,-0.01 0.02,0.02 0.03,-0.01 0.02,-0.01 0.02,0.02 0.03,-0.01 0.02,-0.01 0.02,0.02 0.03,-0.01 0.02,-0.01 0.02,0.02 0.03,-0.01 0.02,-0.01 0.02,0.02 0.03,-0.01 0.02,-0.01 0.02,0.02 0.03,-0.01 0.02,-0.01 0.02,0.02 0.03,-0.01 0.02,-0.01 0.02,0.02 0.03,-0.01 0.02,-0.01 0.02,0.02 0.03,-0.01 0.02,-0.01 0.02,0.02 0.03,-0.01 0.02,-0.01 0.02,0.02 0.03,-0.01 0.02,-0.01 0.02,0.02 0.03,-0.01 0.02,-0.01 0.02,0.02 0.03,-0.01 0.02,-0.01 0.02,0.02 0.03,-0.01 0.02,-0.01 0.02,0.02 0.03,-0.01 0.02,-0.01 0.02,0.02 0.03,-0.01 0.02,-0.01 0.02,0.02 0.03,-0.01 0.02,-0.01 0.02,0.02 0.03,-0.01 0.02,-0.01 0.02,0.02 0.03,-0.01 0.02,-0.01 0.02,0.02 0.03,-0.01 0.02,-0.01 0.02,0.02 0.03,-0.01 0.02,-0.01 0.02,0.02 0.03,-0.01 0.02,-0.01 0.02,0.02 0.03,-0.01 0.02,-0.01 0.02,0.02 0.03,-0.01 0.02,-0.01 0.02,0.02 0.03,-0.01 0.02,-0.01 0.02,0.02 0.03,-0.01 0.02,-0.01 0.02,0.02 0.03,-0.01 0.02,-0.01 0.02,0.02 0.03,-0.01 0.02,-0.01 0.02,0.02 0.03,-0.01 0.02,-0.01 0.02,0.02 0.03,-0.01 0.02,-0.01 0.02,0.02 0.03,-0.01 0.02,-0.01 0.02,0.02 0.03,-0.01 0.02,-0.01 0.02,0.02 0.03,-0.01 0.02,-0.01 0.02,0.02 0.03,-0.01 0.02,-0.01 0.02,0.02 0.03,-0.01 0.02,-0.01 0.02,0.02 0.03,-0.01 0.02,-0.01 0.02,0.02 0.03,-0.01 0.02,-0.01 0.02,0.02 0.03,-0.01 0.02,-0.01 0.02,0.02 0.03,-0.01 0.02,-0.01 0.02,0.02 0.03,-0.01 0.02,-0.01 0.02,0.02 0.03,-0.01 0.02,-0.01 0.02,0.02 0.03,-0.01 0.02,-0.01 0.02,0.02 0.03,-0.01 0.02,-0.01 0.02,0.02 0.03,-0.01 0.02,-0.01 0.02,0.02 0.03,-0.01 0.02,-0.01 0.02,0.02 0.03,-0.01 0.02,-0.01 0.02,0.02 0.03,-0.01 0.02,-0.01 0.02,0.02 0.03,-0.01 0.02,-0.01 0.02,0.02 0.03,-0.01 0.02,-0.01 0.02,0.02 0.03,-0.01 0.02,-0.01 0.02,0.02 0.03,-0.01 0.02,-0.01 0.02,0.02 0.03,-0.01 0.02,-0.01 0.02,0.02 0.03,-0.01 0.02,-0.01 0.02,0.02 0.03,-0.01 0.02,-0.01 0.02,0.02 0.03,-0.01 0.02,-0.01 0.02,0.02 0.03,-0.01 0.02,-0.01 0.02,0.02 0.03,-0.01 0.02,-0.01 0.02,0.01 0.03,0 0.02,0 0.02,0.02 0.03,0 0.02,0 0.02,0.02 0.03,0 0.02,0 0.02,0.02 0.03,0 0.02,0 0.02,0.02 0.03,0 0.02,0 0.02,0.02 0.03,0 0.02,0 0.02,0.02 0.03,0 0.02,0 0.02,0.02 0.03,0 0.02,0 0.02,0.02 0.03,0 0.02,-0.01 0.02,0.02 0.03,0 0.02,-0.01 0.02,0.02 0.03,0 0.02,-0.01 0.02,0.02 0.03,0 0.02,-0.01 0.02,0.02 0.03,0 0.02,-0.01 0.02,0.02 0.03,0 0.02,-0.01 0.02,0.02 0.03,0 0.02,-0.01 0.02,0.02 0.03,0 0.02,-0.01 0.02,0.02 0.03,0 0.02,-0.01 0.02,0.02 0.03,0 0.02,-0.01 0.02,0.02 0.03,0 0.02,-0.01 0.02,0.02 0.03,0 0.02,-0.01 0.02,0.02 0.03,0 0.02,-0.01 0.02,0.02 0.03,0 0.02,-0.01 0.02,0.02 0.03,0 0.02,-0.01 0.02,0.02 0.03,0 0.02,-0.01 0.02,0.02 0.03,0 0.02,-0.01 0.02,0.02 0.03,0 0.02,-0.01 0.02,0.02 0.03,0 0.02,-0.01 0.02,0.02 0.03,0 0.02,-0.01 0.02,0.02 0.03,0 0.02,-0.01 0.02,0.02 0.03,0 0.02,-0.01 0.02,0.02 0.03,0 0.02,-0.01 0.02,0.02 0.03,0 0.02,-0.01 0.02,0.02 0.03,0 0.02,-0.01 0.02,0.02 0.03,0 0.02,-0.01 0.02,0.02 0.03,0 0.02,-0.01 0.02,0.02 0.03,0 0.02,-0.01 0.02,0.02 0.03,0 0.02,-0.01 0.02,0.02 0.03,0 0.02,-0.01 0.02,0.02 0.03,0 0.02,-0.01 0.02,0.02 0.03,0 0.02,-0.01 0.02,0.02 0.03,0 0.02,-0.01 0.02,0.02 0.03,0 0.02,-0.01 0.02,0.02 0.03,0 0.02,-0.01 0.02,0.02 0.03,0 0.02,-0.01 0.02,0.02 0.03,0 0.02,-0.01 0.02,0.02 0.03,0 0.02,-0.01 0.02,0.02 0.03,0 0.02,-0.01 0.02,0.02 0.03,0 0.02,-0.01 0.02,0.02 0.03,0 0.02,-0.01 0.02,0.02 0.03,0 0.02,-0.01 0.02,0.02 0.03,0 0.02,-0.01 0.02,0.02 0.03,0 0.02,-0.01 0.02,0.02 0.03,0 0.02,-0.01 0.02,0.02 0.03,0 0.02,-0.01 0.02,0.02 0.03,0 0.02,-0.01 0.02,0.02 0.03,0 0.02,-0.01 0.02,0.02 0.03,0 0.02,-0.01 0.02,0.02 0.03,0 0.02,-0.01 0.02,0.02 0.03,0 0.02,-0.01 0.02,0.02 0.03,0 0.02,-0.01 0.02,0.02 0.03,0 0.02,-0.01 0.02,0.02 0.03,0 0.02,-0.01 0.02,0.02 0.03,0 0.02,-0.01 0.02,0.02 0.03,0 0.02,-0.01 0.02,0.02 0.03,0 0.02,-0.01 0.02,0.02 0.03,0 0.02,-0.01 0.02,0.02 0.03,0 0.02,-0.01 0.02,0.02 0.03,0 0.02,-0.01 0.02,0.02 0.03,0 0.02,-0.01 0.02,0.02 0.03,0 0.02,-0.01 0.02,0.02 0.03,0 0.02,-0.01 0.02,0.02 0.03,0 0.02,-0.01 0.02,0.02 0.03,0 0.02,-0.01 0.02,0.02 0.03,0 0.02,-0.01 0.02,0.02 0.03,0 0.02,-0.01 0.02,0.02 0.03,0 0.02,-0.01 0.02,0.02 0.03,0 0.02,-0.01 0.02,0.02 0.03,0 0.02,-0.01 0.02,0.02 0.03,0 0.02,-0.01 0.02,0.02 0.03,0 0.02,-0.01 0.02,0.02 0.03,0 0.02,-0.01 0.02,0.02 0.03,0 0.02,-0.01 0.02,0.02 0.03,0 0.02,-0.01 0.02,0.02 0.03,0 0.02,-0.01 0.02,0.02 0.03,0 0.02,-0.01 0.02,0.02 0.03,0 0.02,-0.01 0.02,0.02 0.03,0 0.02,-0.01 0.02,0.02 0.03,0 0.02,-0.01 0.02,0.02 0.03,0 0.02,-0.01 0.02,0.02 0.03,0 0.02,-0.01 0.02,0.02 0.03,0 0.02,-0.01 0.02,0.02 0.03,0 0.02,-0.01 0.02,0.02 0.03,0 0.02,-0.01 0.02,0.02 0.03,0 0.02,-0.01 0.02,0.02 0.03,0 0.02,-0.01 0.02,0.02 0.03,0 0.02,-0.01 0.02,0.02 0.03,0 0.02,-0.01 0.02,0.02 0.03,0 0.02,-0.01 0.02,0.02 0.03,0 0.02,-0.01 0.02,0.02 0.03,0 0.02,-0.01 0.02,0.02 0.03,0 0.02,-0.01 0.02,0.02 0.03,0 0.02,-0.01 0.02,0.02 0.03,0 0.02,-0.01 0.02,0.02 0.03,0 0.02,-0.01 0.02,0.02 0.03,0 0.02,-0.01 0.02,0.02 0.03,0 0.02,-0.01 0.02,0.02 0.03,0 0.02,-0.01 0.02,0.02 0.03,0 0.02,-0.01 0.02,0.02 0.03,0 0.02,-0.01 0.02,0.02 0.03,0 0.02,-0.01 0.02,0.02 0.03,0 0.02,-0.01 0.02,0.02 0.03,0 0.02,-0.01 0.02,0.02 0.03,0 0.02,-0.01 0.02,0.02 0.03,0 0.02,-0.01 0.02,0.02 0.03,0 0.02,-0.01 0.02,0.02 0.03,0 0.02,-0.01 0.02,0.02 0.03,0 0.02,-0.01 0.02,0.02 0.03,0 0.02,-0.01 0.02,0.02 0.03,0 0.02,-0.01 0.02,0.02 0.03,0 0.02,-0.01 0.02,0.02 0.03,0 0.02,-0.01 0.02,0.02 0.03,0 0.02,-0.01 0.02,0.02 0.03,0 0.02,-0.01 0.02,0.02 0.03,0 0.02,-0.01 0.02,0.02 0.03,0 0.02,-0.01 0.02,0.02 0.03,0 0.02,-0.01 0.02,0.02 0.03,0 0.02,-0.01 0.02,0.02 0.03,0 0.02,-0.01 0.02,0.02 0.03,0 0.02,-0.01 0.02,0.02 0.03,0 0.02,-0.01 0.02,0.02 0.03,0 0.02,-0.01 0.02,0.02 0.03,0 0.02,-0.01 0.02,0.02 0.03,0 0.02,-0.01 0.02,0.02 0.03,0 0.02,-0.01 0.02,0.02 0.03,0 0.02,-0.01 0.02,0.02 0.03,0 0.02,-0.01 0.02,0.02 0.03,0 0.02,-0.01 0.02,0.02 0.03,0 0.02,-0.01 0.02,0.02 0.03,0 0.02,-0.01 0.02,0.02 0.03,0 0.02,-0.01 0.02,0.02 0.03,0 0.02,-0.01 0.02,0.02 0.03,0 0.02,-0.01 0.02,0.02 0.03,0 0.02,-0.01 0.02,0.02 0.03,0 0.02,-0.01 0.02,0.02 0.03,0 0.02,-0.01 0.02,0.02 0.03,0 0.02,-0.01 0.02,0.02 0.03,0 0.02,-0.01 0.02,0.02 0.03,0 0.02,-0.01 0.02,0.02 0.03,0 0.02,-0.01 0.02,0.02 0.03,0 0.02,-0.01 0.02,0.02 0.03,0 0.02,-0.01 0.02,0.02 0.03,0 0.02,-0.01 0.02,0.02 0.03,0 0.02,-0.01 0.02,0.02 0.03,0 0.02,-0.01 0.02,0.02 0.03,0 0.02,-0.01 0.02,0.02 0.03,0 0.02,-0.01 0.02,0.02 0.03,0 0.02,-0.01 0.02,0.02 0.03,0 0.02,-0.01 0.02,0.02 0.03,0 0.02,-0.01 0.02,0.02 0.03,0 0.02,-0.01 0.02,0.02 0.03,0 0.02,-0.01 0.02,0.02 0.03,0 0.02,-0.01 0.02,0.02 0.03,0 0.02,-0.01 0.02,0.02 0.03,0 0.02,-0.01 0.02,0.02 0.03,0 0.02,-0.01 0.02,0.02 0.03,0 0.02,-0.01 0.02,0.02 0.03,0 0.02,-0.01 0.02,0.02 0.03,0 0.02,-0.01 0.02,0.02 0.03,0 0.02,-0.01 0.02,0.02 0.03,0 0.02,-0.01 0.02,0.02 0.03,0 0.02,-0.01 0.02,0.02 0.03,-0.01 0.02,-0.01 0.02,0.02 0.03,-0.01 0.02,-0.01 0.02,0.02 0.03,-0.01 0.02,-0.01 0.02,0.02 0.03,-0.01 0.02,-0.01 0.02,0.02 0.03,-0.01 0.02,-0.01 0.02,0.02 0.03,-0.01 0.02,-0.01 0.02,0.02 0.03,-0.01 0.02,-0.01 0.02,0.02 0.03,-0.01 0.02,-0.01 0.02,0.02 0.03,-0.01 0.02,-0.01 0.02,0.02 0.03,-0.01 0.02,-0.01 0.02,0.02 0.03,-0.01 0.02,-0.01 0.02,0.02 0.03,-0.01 0.02,-0.01 0.02,0.02 0.03,-0.01 0.02,-0.01 0.02,0.02 0.03,-0.01 0.02,-0.01 0.02,0.02 0.03,-0.01 0.02,-0.01 0.02,0.02 0.03,-0.01 0.02,-0.01 0.02,0.02 0.03,-0.01 0.02,-0.01 0.02,0.02 0.03,-0.01 0.02,-0.01 0.02,0.02 0.03,-0.01 0.02,-0.01 0.02,0.02 0.03,-0.01 0.02,-0.01 0.02,0.02 0.03,-0.01 0.02,-0.01 0.02,0.02 0.03,-0.01 0.02,-0.01 0.02,0.02 0.03,-0.01 0.02,-0.01 0.02,0.02 0.03,-0.01 0.02,-0.01 0.02,0.02 0.03,-0.01 0.02,-0.01 0.02,0.02 0.03,-0.01 0.02,-0.01 0.02,0.02 0.03,-0.01 0.02,-0.01 0.02,0.02 0.03,-0.01 0.02,-0.01 0.02,0.02 0.03,-0.01 0.02,-0.01 0.02,0.02 0.03,-0.01 0.02,-0.01 0.02,0.02 0.03,-0.01 0.02,-0.01 0.02,0.02 0.03,-0.01 0.02,-0.01 0.02,0.02 0.03,-0.01 0.02,-0.01 0.02,0.02 0.03,-0.01 0.02,-0.01 0.02,0.02 0.03,-0.01 0.02,-0.01 0.02,0.02 0.03,-0.01 0.02,-0.01 0.02,0.02 0.03,-0.01 0.02,-0.01 0.02,0.02 0.03,-0.01 0.02,-0.01 0.02,0.02 0.03,-0.01 0.02,-0.01 0.02,0.02 0.03,-0.01 0.02,-0.01 0.02,0.02 0.03,-0.01 0.02,-0.01 0.02,0.02 0.03,-0.01 0.02,-0.01 0.02,0.02 0.03,-0.01 0.02,-0.01 0.02,0.02 0.03,-0.01 0.02,-0.01 0.02,0.02 0.03,-0.01 0.02,-0.01 0.02,0.02 0.03,-0.01 0.02,-0.01 0.02,0.02 0.03,-0.01 0.02,-0.01 0.02,0.02 0.03,-0.01 0.02,-0.01 0.02,0.02 0.03,-0.01 0.02,-0.01 0.02,0.02 0.03,-0.01 0.02,-0.01 0.02,0.02 0.03,-0.01 0.02,-0.01 0.02,0.02 0.03,-0.01 0.02,-0.01 0.02,0.02 0.03,-0.01 0.02,-0.01 0.02,0.02 0.01,0 0.07,0.03 0,0.03 0,0.03 0.01,0.02 -0.02,0.02 0,0.03 0.01,0.02 -0.02,0.02 0,0.03 0.01,0.02 -0.02,0.02 0,0.03 0.01,0.02 -0.02,0.02 0,0.03 0.01,0.02 -0.02,0.02 0,0.03 0.01,0.02 -0.02,0.02 0,0.03 0.01,0.02 -0.02,0.02 0,0.03 0.01,0.02 -0.02,0.02 0,0.03 0.01,0.02 -0.02,0.02 0,0.03 0.01,0.02 -0.02,0.02 0,0.03 0.01,0.02 -0.02,0.02 0,0.03 0.01,0.02 -0.02,0.02 0,0.03 0.01,0.02 -0.02,0.02 0,0.03 0.01,0.02 -0.02,0.02 0,0.03 0.01,0.02 -0.02,0.02 0,0.03 0.01,0.02 -0.02,0.02 0,0.03 0.01,0.02 -0.02,0.02 0,0.03 0.01,0.02 -0.02,0.02 0,0.03 0.01,0.02 -0.02,0.02 0,0.03 0.01,0.02 -0.02,0.02 0,0.03 0.01,0.02 -0.02,0.02 0,0.03 0.01,0.02 -0.02,0.02 0,0.03 0.01,0.02 -0.02,0.02 0,0.03 0.01,0.02 -0.02,0.02 0,0.03 0.01,0.02 -0.02,0.02 0,0.03 0.01,0.02 -0.02,0.02 0,0.03 0.01,0.02 -0.02,0.02 0,0.03 0.01,0.02 -0.02,0.02 0,0.03 0.01,0.02 -0.02,0.02 0,0.03 0.01,0.02 -0.02,0.02 0,0.03 0.01,0.02 -0.02,0.02 0,0.03 0.01,0.02 -0.02,0.02 0,0.03 0.01,0.02 -0.02,0.02 0,0.03 0.01,0.02 -0.02,0.02 0,0.03 0.01,0.02 -0.02,0.02 0,0.03 0.01,0.02 -0.02,0.02 0,0.03 0.01,0.02 -0.02,0.02 0,0.03 0.01,0.02 -0.02,0.02 0,0.02 0.01,0.02 -0.02,0.02 0,0.02 0.01,0.02 -0.02,0.02 0,0.02 0.01,0.02 -0.02,0.02 0,0.02 0.01,0.02 -0.02,0.02 0,0.02 0.01,0.02 -0.02,0.02 0,0.02 0.01,0.02 -0.02,0.02 0,0.02 0.01,0.02 -0.02,0.02 0,0.02 0.01,0.02 -0.02,0.02 0,0.02 0.01,0.02 -0.02,0.02 0,0.02 0.01,0.02 -0.02,0.02 0,0.02 0.01,0.02 -0.02,0.02 0,0.02 0.01,0.02 -0.02,0.02 0,0.02 0.01,0.02 -0.02,0.02 0,0.02 0.01,0.02 -0.02,0.02 0,0.02 0.01,0.02 -0.02,0.02 0,0.02 0.01,0.02 -0.02,0.02 0,0.02 0.01,0.02 -0.02,0.02 0,0.02 0.01,0.02 -0.02,0.02 0,0.02 0.01,0.02 -0.02,0.02 0,0.02 0.01,0.02 -0.02,0.02 0,0.02 0.01,0.02 -0.02,0.02 0,0.02 0.01,0.02 -0.02,0.02 0,0.02 0.01,0.02 -0.02,0.01 0,0.03 0.01,0.03 -0.02,0.03 0,0.02 0.01,0.02 -0.02,0.01 0,0.03 0.01,0.03 -0.02,0.02 0,0.03 0.01,0.03 -0.02,0.02 0,0.03 0.01,0.03 -0.02,0.02 0,0.03 0.01,0.03 -0.02,0.02 0,0.03 0.01,0.03 -0.02,0.02 0,0.03 0.01,0.03 -0.02,0.02 0,0.03 0.01,0.03 -0.02,0.02 0,0.03 0.01,0.03 -0.02,0.02 0,0.03 0.01,0.03 -0.02,0.02 0,0.03 0.01,0.03 -0.02,0.02 0,0.03 0.01,0.03 -0.02,0.02 0,0.03 0.01,0.03 -0.02,0.02 0,0.03 0.01,0.03 -0.02,0.02 0,0.03 0.01,0.03 -0.02,0.02 0,0.03 0.01,0.03 -0.02,0.02 0,0.03 0.01,0.03 -0.02,0.02 0,0.03 0.01,0.03 -0.02,0.02 0,0.03 0.01,0.03 -0.02,0.02 0,0.03 0.01,0.03 -0.02,0.02 0,0.03 0.01,0.03 -0.02,0.02 0,0.03 0.01,0.03 -0.02,0.02 0,0.03 0.01,0.03 -0.02,0.02 0,0.03 0.01,0.03 -0.02,0.02 0,0.03 0.01,0.03 -0.02,0.02 0,0.03 0.01,0.03 -0.02,0.02 0,0.03 0.01,0.03 -0.02,0.02 0,0.03 0.01,0.03 -0.02,0.02 0,0.03 0.01,0.03 -0.02,0.02 0,0.03 0.01,0.03 -0.02,0.02 0,0.03 0.01,0.03 -0.02,0.02 0,0.03 0.01,0.03 -0.02,0.02 0,0.03 0.01,0.03 -0.02,0.02 0,0.03 0.01,0.03 -0.02,0.02 0,0.03 0.01,0.03 -0.02,0.02 0,0.03 0.01,0.03 -0.02,0.02 0,0.03 0.01,0.03 -0.02,0.02 0,0.03 0.01,0.03 -0.02,0.02 0,0.03 0.01,0.03 -0.02,0.02 0,0.03 0.01,0.03 -0.02,0.02 0,0.03 0.01,0.03 -0.02,0.02 0,0.03 0.01,0.03 -0.02,0.02 0,0.03 0.01,0.03 -0.02,0.02 0,0.03 0.01,0.03 -0.02,0.02 0,0.03 0.01,0.03 -0.02,0.02 0,0.03 0.01,0.03 -0.02,0.02 0,0.03 0.01,0.03 -0.02,0.02 0,0.03 0.01,0.03 -0.02,0.02 0,0.03 0.01,0.03 -0.02,0.02 0,0.03 0.01,0.03 -0.02,0.02 0,0.03 0.01,0.03 -0.02,0.02 0,0.03 0.01,0.03 -0.02,0.02 0,0.03 0.01,0.03 -0.02,0.02 0,0.03 0.01,0.03 -0.02,0.02 0,0.03 0.01,0.03 -0.02,0.02 0,0.03 0.01,0.03 -0.02,0.02 0,0.03 0.01,0.03 -0.02,0.02 0,0.03 0.01,0.03 -0.02,0.02 0,0.03 0.01,0.02 -0.02,0.02 0,0.03 0.01,0.02 -0.02,0.02 0,0.03 0.01,0.02 -0.02,0.02 0,0.03 0.01,0.02 -0.02,0.02 0,0.03 0.01,0.02 -0.02,0.02 0,0.03 0.01,0.02 -0.02,0.02 0,0.03 0.01,0.02 -0.02,0.02 0,0.03 0.01,0.02 -0.02,0.02 0,0.03 0.01,0.02 -0.02,0.02 0,0.03 0.01,0.02 -0.02,0.02 0,0.03 0.01,0.02 -0.02,0.02 0,0.03 0.01,0.02 -0.02,0.02 0,0.03 0.01,0.02 -0.02,0.02 0,0.03 0.01,0.02 -0.02,0.02 0,0.03 0.01,0.02 -0.02,0.02 0,0.03 0.01,0.02 -0.02,0.02 0,0.03 0.01,0.02 -0.02,0.02 0,0.03 0.01,0.02 -0.02,0.02 0,0.03 0.01,0.02 -0.02,0.02 0,0.03 0.01,0.02 -0.02,0.02 0,0.03 0.01,0.02 -0.02,0.02 0,0.03 0.01,0.02 -0.02,0.02 0,0.03 0.01,0.02 -0.02,0.02 0,0.03 0.01,0.02 -0.02,0.02 0,0.03 0.01,0.02 -0.02,0.02 0,0.03 0.01,0.02 -0.02,0.02 0,0.03 0.01,0.02 -0.02,0.02 0,0.03 0.01,0.02 -0.02,0.02 0,0.03 0.01,0.02 -0.02,0.02 0,0.03 0.01,0.02 -0.02,0.02 0,0.03 0.01,0.02 -0.02,0.02 0,0.03 0.01,0.02 -0.02,0.02 0,0.03 0.01,0.02 -0.02,0.02 0,0.03 0.01,0.02 -0.02,0.02 0,0.03 0.01,0.02 -0.02,0.02 0,0.03 0.01,0.02 -0.02,0.02 0,0.03 0.01,0.02 -0.02,0.02 0,0.03 0.01,0.02 -0.02,0.02 0,0.03 0.01,0.02 -0.02,0.02 0,0.03 0.01,0.02 -0.02,0.02 0,0.03 0.01,0.02 -0.02,0.02 0,0.03 0.01,0.02 -0.02,0.02 0,0.03 0.01,0.02 -0.02,0.02 0,0.03 0.01,0.02 -0.02,0.02 0,0.03 0.01,0.02 -0.02,0.02 0,0.03 0.01,0.02 -0.02,0.02 0,0.03 0.01,0.02 -0.02,0.02 0,0.03 0.01,0.02 -0.02,0.02 0,0.03 0.01,0.02 -0.02,0.02 0,0.03 0.01,0.02 -0.02,0.02 0,0.03 0.01,0.02 -0.02,0.02 0,0.03 0.01,0.02 -0.02,0.02 0,0.03 0.01,0.02 -0.02,0.02 0,0.03 0.01,0.02 -0.02,0.02 0,0.03 0.01,0.02 -0.02,0.02 0,0.03 0.01,0.02 -0.02,0.02 0,0.03 0.01,0.02 -0.02,0.02 0,0.03 0.01,0.02 -0.02,0.02 0,0.03 0.01,0.02 -0.02,0.02 0,0.03 0.01,0.02 -0.02,0.02 0,0.03 0.01,0.02 -0.02,0.02 0,0.03 0.01,0.02 -0.02,0.02 0,0.03 0.01,0.02 -0.02,0.02 0,0.03 0.01,0.02 -0.02,0.02 0,0.03 0.01,0.02 -0.02,0.02 0,0.03 0.01,0.02 -0.02,0.02 0,0.03 0.01,0.02 -0.02,0.02 0,0.03 0.01,0.02 -0.02,0.02 0,0.03 0.01,0.02 -0.02,0.02 0,0.03 0.01,0.02 -0.02,0.02 0,0.03 0.01,0.02 -0.02,0.02 0,0.03 0.01,0.02 -0.02,0.02 0,0.03 0.01,0.02 -0.02,0.02 0,0.03 0.01,0.02 -0.02,0.02 0,0.03 0.01,0.02 -0.02,0.02 0,0.03 0.01,0.02 -0.02,0.02 0,0.03 0.01,0.02 -0.02,0.02 0,0.03 0.01,0.02 -0.02,0.02 0,0.03 0.01,0.02 -0.02,0.02 0,0.03 0.01,0.02 -0.02,0.02 0,0.03 0.01,0.02 -0.02,0.02 0,0.03 0.01,0.02 -0.02,0.02 0,0.03 0.01,0.02 -0.02,0.02 0,0.03 0.01,0.02 -0.02,0.02 0,0.03 0.01,0.02 -0.02,0.02 0,0.03 0.01,0.02 -0.02,0.02 0,0.03 0.01,0.02 -0.02,0.02 0,0.03 0.01,0.02 -0.02,0.02 0,0.03 0.01,0.02 -0.02,0.02 0,0.03 0.01,0.02 -0.02,0.02 0,0.03 0.01,0.02 -0.02,0.02 0,0.03 0.01,0.02 -0.02,0.02 0,0.03 0.01,0.02 -0.02,0.02 0,0.03 0.01,0.02 -0.02,0.02 0,0.03 0.01,0.02 -0.02,0.02 0,0.03 0.01,0.02 -0.02,0.02 0,0.03 0.01,0.02 -0.02,0.02 0,0.03 0.01,0.02 -0.02,0.02 0,0.03 0.01,0.02 -0.02,0.02 0,0.03 0.01,0.02 -0.02,0.02 0,0.03 0.01,0.02 -0.02,0.02 0,0.03 0.01,0.02 -0.02,0.02 0,0.03 0.01,0.02 -0.02,0.02 0,0.03 0.01,0.02 -0.02,0.02 0,0.03 0.01,0.02 -0.02,0.02 0,0.03 0.01,0.02 -0.02,0.02 0,0.03 0.01,0.02 -0.02,0.02 0,0.03 0.01,0.02 -0.02,0.02 0,0.03 0.01,0.02 -0.02,0.02 0,0.03 0.01,0.02 -0.02,0.02 0,0.03 0.01,0.02 -0.02,0.02 0,0.03 0.01,0.02 -0.02,0.02 0,0.03 0.01,0.02 -0.02,0.02 0,0.03 0.01,0.02 -0.02,0.02 0,0.03 0.01,0.02 -0.02,0.02 0,0.03 0.01,0.02 -0.02,0.02 0,0.03 0.01,0.02 -0.02,0.02 0,0.03 0.01,0.02 -0.02,0.02 0,0.03 0.01,0.02 -0.02,0.02 0,0.03 0.01,0.02 -0.02,0.02 0,0.03 0.01,0.02 -0.02,0.02 0,0.03 0.01,0.02 -0.02,0.02 0,0.03 0.01,0.02 -0.02,0.02 0,0.03 0.01,0.02 -0.02,0.02 0,0.03 0.01,0.02 -0.02,0.02 0,0.03 0.01,0.02 -0.02,0.02 0,0.03 0.01,0.02 -0.02,0.02 0,0.03 0.01,0.02 -0.02,0.02 0,0.03 0.01,0.02 -0.02,0.02 0,0.03 0.01,0.02 -0.02,0.02 0,0.03 0.01,0.02 -0.02,0.02 0,0.03 0.01,0.02 -0.02,0.02 0,0.03 0.01,0.02 -0.02,0.02 0,0.03 0.01,0.02 -0.02,0.02 0,0.03 0.01,0.02 -0.02,0.02 0,0.03 0.01,0.02 -0.02,0.02 0,0.03 0.01,0.02 -0.02,0.02 0,0.03 0.01,0.02 -0.02,0.02 0,0.03 0.01,0.02 -0.02,0.02 0,0.03 0.01,0.02 -0.02,0.02 0,0.03 0.01,0.02 -0.02,0.02 0,0.03 0.01,0.02 -0.02,0.02 0,0.03 0.01,0.02 -0.02,0.02 0,0.03 0.01,0.02 -0.02,0.02 0,0.03 0.01,0.02 -0.02,0.02 0,0.03 0.01,0.02 -0.02,0.02 0,0.03 0.01,0.02 -0.02,0.02 0,0.03 0.01,0.02 -0.02,0.02 0,0.03 0.01,0.02 -0.02,0.02 0,0.03 0.01,0.02 -0.02,0.02 0,0.03 0.01,0.02 -0.02,0.02 0,0.03 0.01,0.02 -0.02,0.02 0,0.03 0.01,0.02 -0.02,0.02 0,0.03 0.01,0.02 -0.02,0.02 0,0.03 0.01,0.02 -0.02,0.02 0,0.03 0.01,0.02 -0.02,0.02 0,0.03 0.01,0.02 -0.02,0.02 0,0.03 0.01,0.02 -0.02,0.02 0,0.03 0.01,0.02 -0.02,0.02 0,0.03 0.01,0.02 -0.02,0.02 0,0.03 0.01,0.02 -0.02,0.02 0,0.03 0.01,0.02 -0.02,0.02 0,0.03 0.01,0.02 -0.02,0.02 0,0.02 0.01,0.02 -0.02,0.02 0,0.02 0.01,0.02 -0.02,0.02 0,0.02 0.01,0.02 -0.02,0.02 0,0.02 0.01,0.02 -0.02,0.02 0,0.02 0.01,0.02 -0.02,0.02 0,0.02 0.01,0.02 -0.02,0.02 0,0.02 0.01,0.02 -0.02,0.02 0,0.02 0.01,0.02 -0.02,0.02 0,0.02 0.01,0.02 -0.02,0.02 0,0.02 0.01,0.02 -0.02,0.02 0,0.02 0.01,0.02 -0.02,0.02 0,0.02 0.01,0.02 -0.02,0.02 0,0.02 0.01,0.02 -0.02,0.02 0,0.02 0.01,0.02 -0.02,0.02 0,0.02 0.01,0.02 -0.02,0.02 0,0.02 0.01,0.02 -0.02,0.02 0,0.02 0.01,0.02 -0.02,0.02 0,0.02 0.01,0.02 -0.02,0.02 0,0.02 0.01,0.02 -0.02,0.02 0,0.02 0.01,0.02 -0.02,0.02 0,0.02 0.01,0.02 -0.02,0.02 0,0.02 0.01,0.02 -0.02,0.02 0,0.02 0.01,0.02 -0.02,0.01 0,0.03 0.01,0.03 -0.02,0.02 0,0.03 0.01,0.03 -0.02,0.02 0,0.03 0.01,0.03 -0.02,0.02 0,0.03 0.01,0.03 -0.02,0.02 0,0.03 0.01,0.03 -0.02,0.02 0,0.03 0.01,0.03 -0.02,0.02 0,0.03 0.01,0.03 -0.02,0.02 0,0.03 0.01,0.03 -0.02,0.02 0,0.03 0.01,0.03 -0.02,0.02 0,0.03 0.01,0.03 -0.02,0.02 0,0.03 0.01,0.03 -0.02,0.02 0,0.03 0.01,0.03 -0.02,0.02 0,0.03 0.01,0.03 -0.02,0.02 0,0.03 0.01,0.03 -0.02,0.02 0,0.03 0.01,0.03 -0.02,0.02 0,0.03 0.01,0.03 -0.02,0.02 0,0.03 0.01,0.03 -0.02,0.02 0,0.03 0.01,0.03 -0.02,0.02 0,0.03 0.01,0.03 -0.02,0.02 0,0.03 0.01,0.03 -0.02,0.02 0,0.03 0.01,0.03 -0.02,0.02 0,0.03 0.01,0.03 -0.02,0.02 0,0.03 0.01,0.03 -0.02,0.02 0,0.03 0.01,0.03 -0.02,0.02 0,0.03 0.01,0.03 -0.02,0.02 0,0.03 0.01,0.03 -0.02,0.02 0,0.03 0.01,0.03 -0.02,0.02 0,0.03 0.01,0.03 -0.02,0.02 0,0.03 0.01,0.03 -0.02,0.02 0,0.03 0.01,0.03 -0.02,0.02 0,0.03 0.01,0.03 -0.02,0.02 0,0.03 0.01,0.03 -0.02,0.02 0,0.03 0.01,0.03 -0.02,0.02 0,0.03 0.01,0.03 -0.02,0.02 0,0.03 0.01,0.03 -0.02,0.02 0,0.03 0.01,0.03 -0.02,0.02 0,0.03 0.01,0.03 -0.02,0.02 0,0.03 0.01,0.03 -0.02,0.02 0,0.03 0.01,0.03 -0.02,0.02 0,0.03 0.01,0.03 -0.02,0.02 0,0.03 0.01,0.03 -0.02,0.02 0,0.03 0.01,0.03 -0.02,0.02 0,0.03 0.01,0.03 -0.02,0.02 0,0.03 0.01,0.03 -0.02,0.02 0,0.03 0.01,0.03 -0.02,0.02 0,0.03 0.01,0.03 -0.02,0.02 0,0.03 0.01,0.03 -0.02,0.02 0,0.03 0.01,0.03 -0.02,0.02 0,0.03 0.01,0.03 -0.02,0.02 0,0.03 0.01,0.03 -0.02,0.02 0,0.03 0.01,0.03 -0.02,0.02 0,0.03 0.01,0.03 -0.02,0.02 0,0.03 0.01,0.03 -0.02,0.02 0,0.03 0.01,0.03 -0.02,0.02 0,0.03 0.01,0.03 -0.02,0.02 0,0.03 0.01,0.03 -0.02,0.02 0,0.03 0.01,0.03 -0.02,0.02 0,0.03 0.01,0.03 -0.02,0.02 0,0.03 0.01,0.03 -0.02,0.02 0,0.03 0.01,0.02 -0.02,0.02 0,0.03 0.01,0.02 -0.02,0.02 0,0.03 0.01,0.02 -0.02,0.02 0,0.03 0.01,0.02 -0.02,0.02 0,0.03 0.01,0.02 -0.02,0.02l0.01 0.03 1.12 1.11 7.41 -7.39 7.41 7.4 0.02 -0.01 1.1 -1.12 0 -0.01 -0.02 -0.02c-0.02,0 -0.02,0 -0.02,-0.02 -0.02,0 -0.02,0 -0.02,-0.02 -0.02,0 -0.02,0 -0.02,-0.02 -0.02,0 -0.02,0 -0.02,-0.02 -0.02,0 -0.02,0 -0.02,-0.02 -0.02,0 -0.02,0 -0.02,-0.02 -0.02,0 -0.02,0 -0.02,-0.02 -0.02,0 -0.02,0 -0.02,-0.02 -0.02,0 -0.02,0 -0.02,-0.02 -0.02,0 -0.02,0 -0.02,-0.02 -0.02,0 -0.02,0 -0.02,-0.02 -0.02,0 -0.02,0 -0.02,-0.02 -0.02,0 -0.02,0 -0.02,-0.02 -0.02,0 -0.02,0 -0.02,-0.02 -0.02,0 -0.02,0 -0.02,-0.02 -0.02,0 -0.02,0 -0.02,-0.02 -0.02,0 -0.02,0 -0.02,-0.02 -0.02,0 -0.02,0 -0.02,-0.02 -0.02,0 -0.02,0 -0.02,-0.02 -0.02,0 -0.02,0 -0.02,-0.02 -0.02,0 -0.02,0 -0.02,-0.02 -0.02,0 -0.02,0 -0.02,-0.02 -0.02,0 -0.02,0 -0.02,-0.02 -0.02,0 -0.02,0 -0.02,-0.02 -0.02,0 -0.02,0 -0.02,-0.02 -0.02,0 -0.02,0 -0.02,-0.02 -0.02,0 -0.02,0 -0.02,-0.02 -0.02,0 -0.02,0 -0.02,-0.02 -0.02,0 -0.02,0.01 -0.02,-0.02 -0.02,0 -0.02,0.01 -0.02,-0.02 -0.02,0 -0.02,0.01 -0.02,-0.02 -0.02,0 -0.02,0.01 -0.02,-0.02 -0.02,0 -0.02,0.01 -0.02,-0.02 -0.02,0 -0.02,0.01 -0.02,-0.02 -0.02,0 -0.02,0.01 -0.02,-0.02 -0.02,0 -0.02,0.01 -0.02,-0.02 -0.02,0 -0.02,0.01 -0.02,-0.02 -0.02,0 -0.02,0.01 -0.02,-0.02 -0.02,0 -0.02,0.01 -0.02,-0.02 -0.02,0 -0.02,0.01 -0.02,-0.02 -0.02,0 -0.02,0.01 -0.02,-0.02 -0.02,0 -0.02,0.01 -0.02,-0.02 -0.02,0 -0.02,0.01 -0.02,-0.02 -0.02,0 -0.02,0.01 -0.02,-0.02 -0.02,0 -0.02,0.01 -0.02,-0.02 -0.02,0 -0.02,0.01 -0.02,-0.02 -0.02,0 -0.02,0.01 -0.02,-0.02 -0.02,0 -0.02,0.01 -0.02,-0.02 -0.02,0 -0.02,0.01 -0.02,-0.02 -0.02,0 -0.02,0.01 -0.02,-0.02 -0.02,0 -0.02,0.01 -0.02,-0.02 -0.02,0 -0.02,0.01 -0.02,-0.02 -0.02,0 -0.02,0.01 -0.02,-0.02 -0.02,0 -0.02,0.01 -0.02,-0.02 -0.02,0 -0.02,0.01 -0.02,-0.02 -0.02,0 -0.02,0.01 -0.02,-0.02 -0.02,0 -0.02,0.01 -0.02,-0.02 -0.02,0 -0.02,0.01 -0.02,-0.02 -0.02,0 -0.02,0.01 -0.02,-0.02 -0.02,0 -0.02,0.01 -0.02,-0.02 -0.02,0 -0.02,0.01 -0.02,-0.02 -0.02,0 -0.02,0.01 -0.02,-0.02 -0.02,0 -0.02,0.01 -0.02,-0.02 -0.02,0 -0.02,0.01 -0.02,-0.02 -0.02,0 -0.02,0.01 -0.02,-0.02 -0.02,0 -0.02,0.01 -0.02,-0.02 -0.02,0 -0.02,0.01 -0.02,-0.02 -0.02,0 -0.02,0.01 -0.02,-0.02 -0.02,0 -0.02,0.01 -0.02,-0.02 -0.02,0 -0.02,0.01 -0.02,-0.02 -0.02,0 -0.02,0.01 -0.02,-0.02 -0.02,0 -0.02,0.01 -0.02,-0.02 -0.02,0 -0.02,0.01 -0.02,-0.02 -0.02,0 -0.02,0.01 -0.02,-0.02 -0.02,0 -0.02,0.01 -0.02,-0.02 -0.02,0 -0.02,0.01 -0.02,-0.02 -0.02,0 -0.02,0.01 -0.02,-0.02 -0.02,0 -0.02,0.01 -0.02,-0.02 -0.02,0 -0.02,0.01 -0.02,-0.02 -0.02,0 -0.02,0.01 -0.02,-0.02 -0.02,0 -0.02,0.01 -0.02,-0.02 -0.02,0 -0.02,0.01 -0.02,-0.02 -0.02,0 -0.02,0.01 -0.02,-0.02 -0.02,0 -0.02,0.01 -0.02,-0.02 -0.02,0 -0.02,0.01 -0.02,-0.02 -0.02,0 -0.02,0.01 -0.02,-0.02 -0.02,0 -0.02,0.01 -0.02,-0.02 -0.02,0 -0.02,0.01 -0.02,-0.02 -0.02,0 -0.02,0.01 -0.02,-0.02 -0.02,0 -0.02,0.01 -0.02,-0.02 -0.02,0 -0.02,0.01 -0.02,-0.02 -0.02,0 -0.02,0.01 -0.02,-0.02 -0.02,0 -0.02,0.01 -0.02,-0.02 -0.02,0 -0.02,0.01 -0.02,-0.02 -0.02,0 -0.02,0.01 -0.02,-0.02 -0.02,0 -0.02,0.01 -0.02,-0.02 -0.02,0 -0.02,0.01 -0.02,-0.02 -0.02,0 -0.02,0.01 -0.02,-0.02 -0.02,0 -0.02,0.01 -0.02,-0.02 -0.02,0 -0.02,0.01 -0.02,-0.02 -0.02,0 -0.02,0.01 -0.02,-0.02 -0.02,0 -0.02,0.01 -0.02,-0.02 -0.02,0 -0.02,0.01 -0.02,-0.02 -0.02,0 -0.02,0.01 -0.02,-0.02 -0.02,0 -0.02,0.01 -0.02,-0.02 -0.02,0 -0.02,0.01 -0.02,-0.02 -0.02,0 -0.02,0.01 -0.02,-0.02 -0.02,0 -0.02,0.01 -0.02,-0.02 -0.02,0 -0.02,0.01 -0.02,-0.02 -0.02,0 -0.02,0.01 -0.02,-0.02 -0.02,0 -0.02,0.01 -0.02,-0.02 -0.02,0 -0.02,0.01 -0.02,-0.02 -0.02,0 -0.02,0.01 -0.02,-0.02 -0.02,0 -0.02,0.01 -0.02,-0.02 -0.02,0 -0.02,0.01 -0.02,-0.02 -0.02,0 -0.02,0.01 -0.02,-0.02 -0.02,0 -0.02,0.01 -0.02,-0.02 -0.02,0 -0.02,0.01 -0.02,-0.02 -0.02,0 -0.02,0.01 -0.02,-0.02 -0.02,0 -0.02,0.01 -0.02,-0.02 -0.02,0 -0.02,0.01 -0.02,-0.02 -0.02,0 -0.02,0.01 -0.02,-0.02 -0.02,0 -0.02,0.01 -0.02,-0.02 -0.02,0 -0.02,0.01 -0.02,-0.02 -0.02,0 -0.02,0.01 -0.02,-0.02 -0.02,0 -0.02,0.01 -0.02,-0.02 -0.02,0 -0.02,0.01 -0.02,-0.02 -0.02,0 -0.02,0.01 -0.02,-0.02 -0.02,0 -0.02,0.01 -0.02,-0.02 -0.02,0 -0.02,0.01 -0.02,-0.02 -0.02,0 -0.02,0.01 -0.02,-0.02 -0.02,0 -0.02,0.01 -0.02,-0.02 -0.02,0 -0.02,0.01 -0.02,-0.02 -0.02,0 -0.02,0.01 -0.02,-0.02 -0.02,0 -0.02,0.01 -0.02,-0.02 -0.02,0 -0.02,0.01 -0.02,-0.02 -0.02,0 -0.02,0.01 -0.02,-0.02 -0.02,0 -0.02,0.01 -0.02,-0.02 -0.02,0 -0.02,0.01 -0.02,-0.02 -0.02,0 -0.02,0.01 -0.02,-0.02 -0.02,0 -0.02,0.01 -0.02,-0.02 -0.02,0 -0.02,0.01 -0.02,-0.02 -0.02,0 -0.02,0.01 -0.02,-0.02 -0.02,0 -0.02,0.01 -0.02,-0.02 -0.02,0 -0.02,0.01 -0.02,-0.02 -0.02,0 -0.02,0.01 -0.02,-0.02 -0.02,0 -0.02,0.01 -0.02,-0.02 -0.02,0 -0.02,0.01 -0.02,-0.02 -0.02,0 -0.02,0.01 -0.02,-0.02 -0.02,0 -0.02,0.01 -0.02,-0.02 -0.02,0 -0.02,0.01 -0.02,-0.02 -0.02,0 -0.02,0.01 -0.02,-0.02 -0.02,0 -0.02,0.01 -0.02,-0.02 -0.02,0 -0.02,0.01 -0.02,-0.02 -0.02,0 -0.02,0.01 -0.02,-0.02 -0.02,0 -0.02,0.01 -0.02,-0.02 -0.02,0 -0.02,0.01 -0.02,-0.02 -0.02,0 -0.02,0.01 -0.02,-0.02 -0.02,0 -0.02,0.01 -0.02,-0.02 -0.02,0 -0.02,0.01 -0.02,-0.02 -0.02,0 -0.02,0.01 -0.02,-0.02 -0.02,0 -0.02,0.01 -0.02,-0.02 -0.02,0 -0.02,0.01 -0.02,-0.02 -0.02,0 -0.02,0.01 -0.02,-0.02 -0.02,0 -0.02,0.01 -0.02,-0.02 -0.02,0 -0.02,0.01 -0.02,-0.02 -0.02,0 -0.02,0.01 -0.02,-0.02 -0.02,0 -0.02,0.01 -0.02,-0.02 -0.02,0 -0.02,0.01 -0.02,-0.02 -0.02,0 -0.02,0.01 -0.02,-0.02 -0.02,0 -0.02,0.01 -0.02,-0.02 -0.02,0 -0.02,0.01 -0.02,-0.02 -0.02,0 -0.02,0.01 -0.02,-0.02 -0.02,0 -0.02,0.01 -0.02,-0.02 -0.02,0 -0.02,0.01 -0.02,-0.02 -0.02,0 -0.02,0.01 -0.02,-0.02 -0.02,0 -0.02,0.01 -0.02,-0.02 -0.02,0 -0.02,0.01 -0.02,-0.02 -0.02,0 -0.02,0.01 -0.02,-0.02 -0.02,0 -0.02,0.01 -0.02,-0.02 -0.02,0 -0.02,0.01 -0.02,-0.02 -0.02,0 -0.02,0.01 -0.02,-0.02 -0.02,0 -0.02,0.01 -0.02,-0.02 -0.02,0 -0.02,0.01 -0.02,-0.02 -0.02,0 -0.02,0.01 -0.02,-0.02 -0.02,0 -0.02,0.01 -0.02,-0.02 -0.02,0 -0.02,0.01 -0.02,-0.02 -0.02,0 -0.02,0.01 -0.02,-0.02 -0.02,0 -0.02,0.01 -0.02,-0.02 -0.02,0 -0.02,0.01 -0.02,-0.02 -0.02,0 -0.02,0.01 -0.02,-0.02 -0.02,0.01 -0.02,0.01 -0.02,-0.02 -0.02,0.01 -0.02,0.01 -0.02,-0.02 -0.02,0.01 -0.02,0.01 -0.02,-0.02 -0.02,0.01 -0.02,0.01 -0.02,-0.02 -0.02,0.01 -0.02,0.01 -0.02,-0.02 -0.02,0.01 -0.02,0.01 -0.02,-0.02 -0.02,0.01 -0.02,0.01 -0.02,-0.02 -0.02,0.01 -0.02,0.01 -0.02,-0.02 -0.02,0.01 -0.02,0.01 -0.02,-0.02 -0.02,0.01 -0.02,0.01 -0.02,-0.02 -0.02,0.01 -0.02,0.01 -0.02,-0.02 -0.02,0.01 -0.02,0.01 -0.02,-0.02 -0.02,0.01 -0.02,0.01 -0.02,-0.02 -0.02,0.01 -0.02,0.01 -0.02,-0.02 -0.02,0.01 -0.02,0.01 -0.02,-0.02 -0.02,0.01 -0.02,0.01 -0.02,-0.02 -0.02,0.01 -0.02,0.01 -0.02,-0.02 -0.02,0.01 -0.02,0.01 -0.02,-0.02 -0.02,0.01 -0.02,0.01 -0.02,-0.02 -0.02,0.01 -0.02,0.01 -0.02,-0.02 -0.02,0.01 -0.02,0.01 -0.01,-0.02 -0.03,0.01 -0.03,0.01 -0.03,-0.02 -0.02,0.01 -0.02,0.01 -0.02,-0.02 -0.02,0.01 -0.02,0.01 -0.02,-0.02 -0.02,0.01 -0.02,0.01 -0.02,-0.02 -0.02,0.01 -0.02,0.01 -0.01,-0.01 -0.03,0 -0.03,0 -0.02,-0.02 -0.03,0 -0.03,0 -0.02,-0.02 -0.03,0 -0.03,0 -0.03,-0.02 -0.02,0 -0.02,0 -0.02,-0.02 -0.02,0 -0.02,0 -0.01,-0.02 -0.03,0 -0.03,0 -0.02,-0.02 -0.03,0 -0.03,0 -0.02,-0.02 -0.03,0 -0.03,0 -0.02,-0.02 -0.03,0 -0.03,0 -0.02,-0.02 -0.03,0 -0.03,0 -0.02,-0.02 -0.03,0 -0.03,0 -0.02,-0.02 -0.03,0 -0.03,0 -0.02,-0.02 -0.03,0 -0.03,0 -0.02,-0.02 -0.03,0 -0.03,0 -0.02,-0.02 -0.03,0 -0.03,0 -0.02,-0.02 -0.03,0 -0.03,0 -0.02,-0.02 -0.03,0 -0.03,0 -0.02,-0.02 -0.03,0 -0.03,0 -0.02,-0.02 -0.03,0 -0.03,0 -0.02,-0.02 -0.03,0 -0.03,0 -0.02,-0.02 -0.03,0 -0.03,0 -0.02,-0.02 -0.03,0 -0.03,0 -0.02,-0.02 -0.03,0 -0.03,0 -0.02,-0.02 -0.03,0 -0.03,0 -0.02,-0.02 -0.03,0 -0.03,0 -0.02,-0.02 -0.03,0 -0.03,0 -0.02,-0.02 -0.03,0 -0.03,0 -0.02,-0.02 -0.03,0 -0.03,0 -0.02,-0.02 -0.03,0 -0.03,0 -0.02,-0.02 -0.03,0 -0.03,0 -0.02,-0.02 -0.03,0 -0.03,0 -0.02,-0.02 -0.03,0 -0.03,0 -0.02,-0.02 -0.03,0 -0.03,0 -0.02,-0.02 -0.03,0 -0.03,0 -0.02,-0.02 -0.03,0 -0.03,0 -0.02,-0.02 -0.03,0 -0.03,0 -0.02,-0.02 -0.03,0 -0.03,0 -0.02,-0.02 -0.03,0 -0.03,0 -0.02,-0.02 -0.03,0 -0.03,0 -0.02,-0.02 -0.03,0 -0.03,0 -0.02,-0.02 -0.03,0 -0.03,0 -0.02,-0.02 -0.03,0 -0.03,0 -0.02,-0.02 -0.03,0 -0.03,0 -0.02,-0.02 -0.03,0 -0.03,0 -0.02,-0.02 -0.03,0 -0.03,0 -0.02,-0.02 -0.03,0 -0.03,0 -0.02,-0.02 -0.03,0 -0.03,0 -0.02,-0.02 -0.03,0 -0.03,0 -0.02,-0.02 -0.03,0 -0.03,0 -0.02,-0.02 -0.03,0 -0.03,0 -0.02,-0.02 -0.03,0 -0.03,0 -0.02,-0.02 -0.03,0 -0.03,0 -0.02,-0.02 -0.03,0 -0.03,0 -0.02,-0.02 -0.03,0 -0.03,0 -0.02,-0.02 -0.03,0 -0.03,0 -0.02,-0.02 -0.03,0 -0.03,0 -0.02,-0.02 -0.03,0 -0.03,0.01 -0.02,-0.02 -0.03,0 -0.03,0.01 -0.02,-0.02 -0.03,0 -0.03,0.01 -0.02,-0.02 -0.03,0 -0.03,0.01 -0.02,-0.02 -0.03,0 -0.03,0.01 -0.02,-0.02 -0.03,0 -0.03,0.01 -0.02,-0.02 -0.03,0 -0.03,0.01 -0.02,-0.02 -0.03,0 -0.03,0.01 -0.02,-0.02 -0.03,0 -0.03,0.01 -0.02,-0.02 -0.03,0 -0.03,0.01 -0.02,-0.02 -0.03,0 -0.03,0.01 -0.02,-0.02 -0.03,0 -0.03,0.01 -0.02,-0.02 -0.03,0 -0.03,0.01 -0.02,-0.02 -0.03,0 -0.03,0.01 -0.02,-0.02 -0.03,0 -0.03,0.01 -0.02,-0.02 -0.03,0 -0.03,0.01 -0.02,-0.02 -0.03,0 -0.03,0.01 -0.02,-0.02 -0.03,0 -0.03,0.01 -0.02,-0.02 -0.03,0 -0.03,0.01 -0.02,-0.02 -0.03,0 -0.03,0.01 -0.02,-0.02 -0.03,0 -0.03,0.01 -0.02,-0.02 -0.03,0 -0.03,0.01 -0.02,-0.02 -0.03,0 -0.03,0.01 -0.02,-0.02 -0.03,0 -0.03,0.01 -0.02,-0.02 -0.03,0 -0.03,0.01 -0.02,-0.02 -0.03,0 -0.03,0.01 -0.02,-0.02 -0.03,0 -0.03,0.01 -0.02,-0.02 -0.03,0 -0.03,0.01 -0.02,-0.02 -0.03,0 -0.03,0.01 -0.02,-0.02 -0.03,0 -0.03,0.01 -0.02,-0.02 -0.03,0 -0.03,0.01 -0.02,-0.02 -0.03,0 -0.03,0.01 -0.02,-0.02 -0.03,0 -0.03,0.01 -0.02,-0.02 -0.03,0 -0.03,0.01 -0.02,-0.02 -0.03,0 -0.03,0.01 -0.02,-0.02 -0.03,0 -0.03,0.01 -0.02,-0.02 -0.03,0 -0.03,0.01 -0.02,-0.02 -0.03,0 -0.03,0.01 -0.02,-0.02 -0.03,0 -0.03,0.01 -0.02,-0.02 -0.03,0 -0.03,0.01 -0.02,-0.02 -0.03,0 -0.03,0.01 -0.02,-0.02 -0.03,0 -0.03,0.01 -0.02,-0.02 -0.03,0 -0.03,0.01 -0.02,-0.02 -0.03,0 -0.03,0.01 -0.02,-0.02 -0.03,0 -0.03,0.01 -0.02,-0.02 -0.03,0 -0.03,0.01 -0.02,-0.02 -0.03,0 -0.03,0.01 -0.02,-0.02 -0.03,0 -0.03,0.01 -0.02,-0.02 -0.03,0 -0.03,0.01 -0.02,-0.02 -0.03,0 -0.03,0.01 -0.02,-0.02 -0.03,0 -0.03,0.01 -0.02,-0.02 -0.03,0 -0.03,0.01 -0.02,-0.02 -0.03,0 -0.03,0.01 -0.02,-0.02 -0.03,0 -0.03,0.01 -0.02,-0.02 -0.03,0 -0.03,0.01 -0.02,-0.02 -0.03,0 -0.03,0.01 -0.02,-0.02 -0.03,0 -0.03,0.01 -0.02,-0.02 -0.03,0 -0.03,0.01 -0.02,-0.02 -0.03,0 -0.03,0.01 -0.02,-0.02 -0.03,0 -0.03,0.01 -0.02,-0.02 -0.03,0 -0.03,0.01 -0.02,-0.02 -0.03,0 -0.03,0.01 -0.02,-0.02 -0.03,0 -0.03,0.01 -0.02,-0.02 -0.03,0 -0.03,0.01 -0.02,-0.02 -0.03,0 -0.03,0.01 -0.02,-0.02 -0.03,0 -0.03,0.01 -0.02,-0.02 -0.03,0 -0.03,0.01 -0.02,-0.02 -0.03,0 -0.03,0.01 -0.02,-0.02 -0.03,0 -0.03,0.01 -0.02,-0.02 -0.03,0 -0.03,0.01 -0.02,-0.02 -0.03,0 -0.03,0.01 -0.02,-0.02 -0.03,0 -0.03,0.01 -0.02,-0.02 -0.03,0 -0.03,0.01 -0.02,-0.02 -0.03,0 -0.03,0.01 -0.02,-0.02 -0.03,0 -0.03,0.01 -0.02,-0.02 -0.03,0 -0.03,0.01 -0.02,-0.02 -0.03,0 -0.03,0.01 -0.02,-0.02 -0.03,0 -0.03,0.01 -0.02,-0.02 -0.03,0 -0.03,0.01 -0.02,-0.02 -0.03,0 -0.03,0.01 -0.02,-0.02 -0.03,0 -0.03,0.01 -0.02,-0.02 -0.03,0 -0.03,0.01 -0.02,-0.02 -0.03,0 -0.03,0.01 -0.02,-0.02 -0.03,0 -0.03,0.01 -0.02,-0.02 -0.03,0 -0.03,0.01 -0.02,-0.02 -0.03,0 -0.03,0.01 -0.02,-0.02 -0.03,0 -0.03,0.01 -0.02,-0.02 -0.03,0 -0.03,0.01 -0.02,-0.02 -0.03,0 -0.03,0.01 -0.02,-0.02 -0.03,0 -0.03,0.01 -0.02,-0.02 -0.03,0 -0.03,0.01 -0.02,-0.02 -0.03,0 -0.03,0.01 -0.02,-0.02 -0.03,0 -0.03,0.01 -0.02,-0.02 -0.03,0 -0.03,0.01 -0.02,-0.02 -0.03,0 -0.03,0.01 -0.02,-0.02 -0.03,0 -0.03,0.01 -0.02,-0.02 -0.01,0 -0.07,-0.04 0,-0.04l0.02 -0.02 0.02 -0.02 0.02 -0.02 0.02 -0.02 0.02 -0.02 0.02 -0.02 0.02 -0.02 0.02 -0.02 0.02 -0.02 0.02 -0.02 0.02 -0.02 0.02 -0.02 0.02 -0.02 0.02 -0.02 0.02 -0.02 0.02 -0.02 0.02 -0.02 0.02 -0.02 0.02 -0.02 0.02 -0.02 0.02 -0.02 0.02 -0.02 0.02 -0.02 0.02 -0.02 0.02 -0.02 0.02 -0.02 0.02 -0.02 0.02 -0.02 0.02 -0.02 0.02 -0.02 0.02 -0.02 0.02 -0.02 0.02 -0.02 0.02 -0.02 0.02 -0.02 0.02 -0.02 0.02 -0.02 0.02 -0.02 0.02 -0.02 0.02 -0.02 0.02 -0.02 0.02 -0.02 0.02 -0.02 0.02 -0.02 0.02 -0.02 0.02 -0.02 0.02 -0.02 0.02 -0.02 0.02 -0.02 0.02 -0.02 0.02 -0.02 0.02 -0.02 0.02 -0.02 0.02 -0.02 0.02 -0.02 0.02 -0.02 0.02 -0.02 0.02 -0.02 0.02 -0.02 0.02 -0.02 0.02 -0.02 0.02 -0.02 0.02 -0.02 0.02 -0.02 0.02 -0.02 0.02 -0.01 0.02 -0.02 0.02 -0.02 0.02 -0.02 0.02 -0.02 0.02 -0.02 0.02 -0.02 0.02 -0.02 0.02 -0.02 0.02 -0.02 0.02 -0.02 0.02 -0.02 0.02 -0.02 0.02 -0.02 0.02 -0.02 0.02 -0.02 0.02 -0.02 0.02 -0.02 0.02 -0.02 0.02 -0.02 0.02 -0.02 0.02 -0.02 0.02 -0.02 0.02 -0.02 0.02 -0.02 0.02 -0.02 0.02 -0.02 0.02 -0.02 0.02 -0.02 0.02 -0.02 0.02 -0.02 0.02 -0.02 0.02 -0.02 0.02 -0.02 0.02 -0.02 0.02 -0.02 0.02 -0.02 0.02 -0.02 0.02 -0.02 0.02 -0.02 0.02 -0.02 0.02 -0.02 0.02 -0.02 0.02 -0.02 0.02 -0.02 0.02 -0.02 0.02 -0.02 0.02 -0.02 0.02 -0.02 0.02 -0.02 0.02 -0.02 0.02 -0.02 0.02 -0.02 0.02 -0.02 0.02 -0.02 0.02 -0.02 0.02 -0.02 0.02 -0.02 0.02 -0.02 0.02 -0.02 0.02 -0.02 0.02 -0.02 0.02 -0.02 0.02 -0.02 0.02 -0.02 0.02 -0.02 0.02 -0.02 0.02 -0.02 0.02 -0.02 0.02 -0.02 0.02 -0.02 0.02 -0.02 0.02 -0.02 0.02 -0.02 0.02 -0.02 0.02 -0.02 0.02 -0.02 0.02 -0.02 0.02 -0.02 0.02 -0.02 0.02 -0.02 0.02 -0.02 0.02 -0.02 0.02 -0.02 0.02 -0.02 0.02 -0.02 0.02 -0.02 0.02 -0.02 0.02 -0.02 0.02 -0.02 0.02 -0.02 0.02 -0.02 0.02 -0.02 0.02 -0.02 0.02 -0.02 0.02 -0.02 0.02 -0.02 0.02 -0.02 0.02 -0.02 0.02 -0.02 0.02 -0.02 0.02 -0.02 0.02 -0.02 0.02 -0.02 0.02 -0.02 0.02 -0.02 0.02 -0.02 0.02 -0.02 0.02 -0.02 0.02 -0.02 0.02 -0.02 0.02 -0.02 0.02 -0.02 0.02 -0.02 0.02 -0.02 0.02 -0.02 0.02 -0.02 0.02 -0.02 0.02 -0.02 0.02 -0.02 0.02 -0.02 0.02 -0.02 0.02 -0.02 0.02 -0.02 0.02 -0.02 0.02 -0.02 0.02 -0.02 0.02 -0.02 0.02 -0.02 0.02 -0.02 0.02 -0.02 0.02 -0.02 0.02 -0.02 0.02 -0.02 0.02 -0.02 0.02 -0.02 0.02 -0.02 0.02 -0.02 0.02 -0.02 0.02 -0.02 0.02 -0.02 0.02 -0.02 0.02 -0.02 0.02 -0.02 0.02 -0.02 0.02 -0.02 0.02 -0.02 0.02 -0.02 0.02 -0.02 0.02 -0.02 0.02 -0.02 0.02 -0.02 0.02 -0.02 0.02 -0.02 0.02 -0.02 0.02 -0.02 0.02 -0.02 0.02 -0.02 0.02 -0.02 0.02 -0.02 0.02 -0.02 0.02 -0.02 0.02 -0.02 0.02 -0.02 0.02 -0.02 0.02 -0.02 0.02 -0.02 0.02 -0.02 0.02 -0.02 0.02 -0.02 0.02 -0.02 0.02 -0.02 0.02 -0.02 0.02 -0.02 0.02 -0.02 0.02 -0.02 0.02 -0.02 0.02 -0.02 0.02 -0.02 0.02 -0.02 0.02 -0.02 0.02 -0.02 0.02 -0.02 0.02 -0.02 0.02 -0.02 0.02 -0.02 0.02 -0.02 0.02 -0.02 0.02 -0.02 0.02 -0.02 0.02 -0.02 0.02 -0.02 0.02 -0.02 0.02 -0.02 0.02 -0.02 0.02 -0.02 0.02 -0.02 0.02 -0.02 0.02 -0.02 0.02 -0.02 0.02 -0.02 0.02 -0.02 0.02 -0.02 0.02 -0.02 0.02 -0.02 0.02 -0.02 0.02 -0.02 0.02 -0.02 0.02 -0.02 0.02 -0.02 0.02 -0.02 0.02 -0.02 0.02 -0.02 0.02 -0.02 0.02 -0.02 0.02 -0.02 0.02 -0.02 0.02 -0.02 0.02 -0.02 0.02 -0.02 0.02 -0.02 0.02 -0.02 0.02 -0.02 0.02 -0.02 0.02 -0.02 0.02 -0.02 0.02 -0.02 0.02 -0.02 0.02 -0.02 0.02 -0.02 0.02 -0.02 0.02 -0.02 0.02 -0.02 0.02 -0.02 0.02 -0.02 0.02 -0.02 0.02 -0.02 0.02 -0.02 0.02 -0.02 0.02 -0.02 0.02 -0.02 0.02 -0.02 0.02 -0.02 0.02 -0.02 0.02 -0.02 0.02 -0.01 0.02 -0.02 0.02 -0.02 0.02 -0.02 0.02 -0.02 0.02 -0.02 0.02 -0.02 0.02 -0.02 0.02 -0.02 0.02 -0.02 0.02 -0.02 0.02 -0.02 0.02 -0.02 0.02 -0.02 0.02 -0.02 0.02 -0.02 0.02 -0.02 0.02 -0.02 0.02 -0.02 0.02 -0.02 0.02 -0.02 0.02 -0.02 0.02 -0.02 0.02 -0.02 0.02 -0.02 0.02 -0.02 0.02 -0.02 0.02 -0.02 0.02 -0.02 0.02 -0.02 0.02 -0.02 0.02 -0.02 0.02 -0.02 0.01 -0.02 0.03 -0.02 0.02 -0.02 0.02 -0.02 0.01 -0.02 0.02 -0.02 0.02 -0.02 0.02 -0.02 0.03 -0.02 0.01 -0.02 0.02 -0.02 0.02 -0.02 0.02 -0.02 0.02 -0.02 0.02 -0.02 0.02 -0.02 0.02 -0.02 0.02 -0.02 0.02 -0.02 0.02 -0.02 0.02 -0.02 0.02 -0.02 0.02 -0.02 0.02 -0.02 0.02 -0.02 0.02 -0.02 0.02 -0.02 0 -0.02 0 -0.02 -0.02 -0.02 -0.02 -0.02 -0.02 -0.02 -0.02 -0.02 -0.02 -0.02 -0.02 -0.02 -0.02 -0.02 -0.02 -0.02 -0.02 -0.02 -0.02 -0.02 -0.02 -0.02 -0.02 -0.02 -0.02 -0.02 -0.02 -0.02 -0.02 -0.02 -0.02 -0.02 -0.02 -0.02 -0.02 -0.02 -0.02 -0.02 -0.02 -0.02 -0.02 -0.02 -0.02 -0.02 -0.02 -0.02 -0.02 -0.02 -0.02 -0.02 -0.02 -0.02 -0.02 -0.02 -0.02 -0.02 -0.02 -0.02 -0.02 -0.02 -0.02 -0.02 -0.02 -0.02 -0.02 -0.02 -0.02 -0.02 -0.02 -0.02 -0.02 -0.02 -0.02 -0.02 -0.02 -0.02 -0.02 -0.02 -0.02 -0.02 -0.02 -0.02 -0.02 -0.02 -0.02 -0.02 -0.02 -0.02 -0.02 -0.02 -0.02 -0.02 -0.02 -0.02 -0.02 -0.02 -0.02 -0.02 -0.02 -0.02 -0.02 -0.02 -0.02 -0.02 -0.02 -0.02 -0.02 -0.02 -0.02 -0.02 -0.02 0c0,0.03 0.01,0.02 -0.02,0.02l0.03 -0.01z"/>
  </g>
 </g>
</svg>
