<?xml version="1.0" encoding="UTF-8"?>
<!DOCTYPE svg PUBLIC "-//W3C//DTD SVG 1.1//EN" "http://www.w3.org/Graphics/SVG/1.1/DTD/svg11.dtd">
<!-- Creator: CorelDRAW 2021 (64 Bit) -->
<svg xmlns="http://www.w3.org/2000/svg" xml:space="preserve" width="330px" height="330px" version="1.1" style="shape-rendering:geometricPrecision; text-rendering:geometricPrecision; image-rendering:optimizeQuality; fill-rule:evenodd; clip-rule:evenodd"
viewBox="0 0 26.09 26.09"
 xmlns:xlink="http://www.w3.org/1999/xlink"
 xmlns:xodm="http://www.corel.com/coreldraw/odm/2003">
 <defs>
  <style type="text/css">
   <![CDATA[
    .str0 {stroke:#B8B4B6;stroke-width:2.37;stroke-miterlimit:22.9256}
    .str1 {stroke:black;stroke-width:0.63;stroke-miterlimit:22.9256}
    .fil1 {fill:black}
    .fil0 {fill:white}
   ]]>
  </style>
 </defs>
 <g id="Camada_x0020_1">
  <metadata id="CorelCorpID_0Corel-Layer"/>
  <g id="_2713576230000">
   <path class="fil0 str0" d="M2.25 1.19l21.61 0c0.58,0 1.04,0.53 1.04,1.18l0 21.35c0,0.65 -0.46,1.18 -1.04,1.18l-21.61 0c-0.57,0 -1.04,-0.53 -1.04,-1.19 0,-2.56 -0.04,-20.66 -0.02,-21.59 0.01,-0.52 0.63,-0.93 1.06,-0.93z"/>
   <g>
    <path class="fil1 str1" d="M8.74 7.07l8.25 0c0.75,0 1.35,0.31 1.35,0.69l0 0c0,0.38 -0.6,0.69 -1.35,0.69l-8.25 0c-0.75,0 -1.35,-0.31 -1.35,-0.69l0 0c0,-0.38 0.6,-0.69 1.35,-0.69z"/>
    <path class="fil1 str1" d="M8.74 10.27l8.25 0c0.75,0 1.35,0.31 1.35,0.69l0 0c0,0.38 -0.6,0.68 -1.35,0.68l-8.25 0c-0.75,0 -1.35,-0.3 -1.35,-0.68l0 0c0,-0.38 0.6,-0.69 1.35,-0.69z"/>
    <path class="fil1 str1" d="M8.74 13.46l8.25 0c0.75,0 1.35,0.31 1.35,0.69l0 0c0,0.38 -0.6,0.69 -1.35,0.69l-8.25 0c-0.75,0 -1.35,-0.31 -1.35,-0.69l0 0c0,-0.38 0.6,-0.69 1.35,-0.69z"/>
    <path class="fil1 str1" d="M8.74 16.66l8.25 0c0.75,0 1.35,0.31 1.35,0.69l0 0c0,0.38 -0.6,0.69 -1.35,0.69l-8.25 0c-0.75,0 -1.35,-0.31 -1.35,-0.69l0 0c0,-0.38 0.6,-0.69 1.35,-0.69z"/>
   </g>
  </g>
 </g>
</svg>
