<?xml version="1.0" encoding="UTF-8"?>
<!DOCTYPE svg PUBLIC "-//W3C//DTD SVG 1.1//EN" "http://www.w3.org/Graphics/SVG/1.1/DTD/svg11.dtd">
<!-- Creator: CorelDRAW 2021 (64 Bit) -->
<svg xmlns="http://www.w3.org/2000/svg" xml:space="preserve" width="330px" height="330px" version="1.1" style="shape-rendering:geometricPrecision; text-rendering:geometricPrecision; image-rendering:optimizeQuality; fill-rule:evenodd; clip-rule:evenodd"
viewBox="0 0 189.55 189.55"
 xmlns:xlink="http://www.w3.org/1999/xlink"
 xmlns:xodm="http://www.corel.com/coreldraw/odm/2003">
 <defs>
  <style type="text/css">
   <![CDATA[
    .str0 {stroke:#C4C4C4;stroke-width:17.23;stroke-miterlimit:22.9256}
    .str1 {stroke:white;stroke-width:0.57;stroke-miterlimit:22.9256}
    .fil2 {fill:black}
    .fil0 {fill:#8A8A8A}
    .fil3 {fill:red}
    .fil1 {fill:white}
   ]]>
  </style>
 </defs>
 <g id="Camada_x0020_1">
  <metadata id="CorelCorpID_0Corel-Layer"/>
  <g id="_2713634962944">
   <path class="fil0" d="M16.49 171.17l-1.28 -2.46 2.11 -0.91c-1.26,0.11 -2.49,0.22 -2.5,0.97 -0.01,0.1 0.26,0.72 0.4,0.94 0.82,1.34 0.49,0.75 1.27,1.46z"/>
   <g>
    <circle class="fil1 str0" cx="94.78" cy="94.78" r="86.16"/>
    <ellipse class="fil1 str1" cx="94.78" cy="94.78" rx="79.4" ry="79.37"/>
   </g>
   <g>
    <path class="fil2" d="M35.22 108.29l-2.33 1 1.41 2.7c1.42,1.17 2.98,3.11 3.75,4.76l37.94 -4.65 3.48 -1.7c1.05,-7.68 10.69,-29.41 12.54,-36.87 0.69,-2.82 -3.82,-7.67 -5.73,-9.29 -3.57,4.15 -7.93,27.29 -11.83,33.12 -23.67,-33.1 13.49,-65.98 42.64,-47.66 14.38,9.03 21.21,30.56 5.44,50 -4.3,5.3 -10.45,12.31 -9.84,19.35 0.42,4.87 3.89,6.91 5.56,9.51l-3.47 4.34c-2.17,-1.36 -12.29,-14.59 -14.71,-17.54 -1.79,-2.17 -3.88,-3.7 -3.16,-6.46 2.08,-7.97 8.9,-20.37 6.7,-23.57l-5.33 -6.03 -12.27 34.03 22.05 27.52c2.04,2.47 5.69,6.56 7.11,9.25 3.29,-1.67 4.85,-3.78 7.93,-5.49 -1.27,-2.75 -2.16,-3.57 -4.15,-5.56l-0.7 -0.72c-0.08,-0.1 -0.21,-0.27 -0.29,-0.39l-0.13 -2.52 14.26 -1.99 0.64 -20.15c-2.89,1.65 -5.12,5.68 -7.28,6.93 -3.53,-4.04 0.13,-7.61 2.65,-10.52 8.79,-10.15 15.43,-20.12 13.98,-36.44 -1.75,-19.82 -14.3,-32.98 -31.06,-37.73 -35.84,-10.16 -66,26.93 -51.38,57.72 2.08,4.37 4.86,7.95 6.44,11.4l-30.86 3.65z"/>
    <path class="fil3" d="M43.7 122.82c3.75,6.15 5.65,9 9.81,8.48l16.96 -2.28c5.43,-0.78 4.96,1.13 7.64,4.51 4.12,5.19 7.5,9.38 11.58,14.33 3.36,4.07 7.91,10.5 11.65,13.96 2.04,-1.51 5.62,-4.17 7.07,-6.13l-23.31 -29.14c-7.2,-8.85 -3.09,-7.79 -17.15,-6.29 -8.04,0.85 -16.21,1.95 -24.25,2.56z"/>
   </g>
  </g>
 </g>
</svg>
