<?xml version="1.0" encoding="UTF-8"?>
<!DOCTYPE svg PUBLIC "-//W3C//DTD SVG 1.1//EN" "http://www.w3.org/Graphics/SVG/1.1/DTD/svg11.dtd">
<!-- Creator: CorelDRAW 2021 (64 Bit) -->
<svg xmlns="http://www.w3.org/2000/svg" xml:space="preserve" width="330px" height="330px" version="1.1" style="shape-rendering:geometricPrecision; text-rendering:geometricPrecision; image-rendering:optimizeQuality; fill-rule:evenodd; clip-rule:evenodd"
viewBox="0 0 26.32 26.32"
 xmlns:xlink="http://www.w3.org/1999/xlink"
 xmlns:xodm="http://www.corel.com/coreldraw/odm/2003">
 <defs>
  <style type="text/css">
   <![CDATA[
    .str0 {stroke:#B8B4B6;stroke-width:2.39;stroke-miterlimit:22.9256}
    .str2 {stroke:black;stroke-width:1.2;stroke-miterlimit:22.9256}
    .str1 {stroke:#828282;stroke-width:1.2;stroke-miterlimit:22.9256}
    .str6 {stroke:#CC8821;stroke-width:0.16;stroke-miterlimit:22.9256}
    .str5 {stroke:black;stroke-width:0.64;stroke-linecap:round;stroke-miterlimit:22.9256}
    .str4 {stroke:#8F611D;stroke-width:0.8;stroke-linecap:square;stroke-miterlimit:22.9256}
    .str3 {stroke:black;stroke-width:0.16;stroke-miterlimit:22.9256;stroke-dasharray:0.320000 0.800000}
    .fil1 {fill:none}
    .fil2 {fill:#DEB260}
    .fil0 {fill:white}
    .fil3 {fill:white}
   ]]>
  </style>
 </defs>
 <g id="Camada_x0020_1">
  <metadata id="CorelCorpID_0Corel-Layer"/>
  <g id="_2713547765104">
   <path class="fil0 str0" d="M2.27 1.2l21.8 0c0.58,0 1.05,0.53 1.05,1.19l0 21.53c0,0.66 -0.47,1.2 -1.05,1.2l-21.8 0c-0.58,0 -1.05,-0.54 -1.05,-1.2 0,-2.58 -0.04,-20.85 -0.02,-21.79 0.01,-0.51 0.64,-0.93 1.07,-0.93z"/>
   <g>
    <polyline class="fil1 str1" points="21.37,24.05 21.35,3.4 5.85,3.4 5.96,23.93 "/>
    <rect class="fil2 str2" x="6.56" y="4.07" width="14.14" height="18.96"/>
    <g>
     <g>
      <line class="fil1 str3" x1="7.75" y1="5.87" x2="19.71" y2= "5.87" />
     </g>
     <g>
      <line class="fil1 str3" x1="7.75" y1="20.87" x2="19.71" y2= "20.87" />
     </g>
     <g>
      <line class="fil1 str3" x1="7.75" y1="19.17" x2="19.71" y2= "19.17" />
     </g>
     <g>
      <line class="fil1 str3" x1="7.75" y1="7.58" x2="19.71" y2= "7.58" />
     </g>
     <g>
      <line class="fil1 str3" x1="7.75" y1="9.28" x2="19.71" y2= "9.28" />
     </g>
     <g>
      <line class="fil1 str3" x1="7.75" y1="10.99" x2="19.71" y2= "10.99" />
     </g>
     <g>
      <line class="fil1 str3" x1="7.59" y1="12.79" x2="19.55" y2= "12.79" />
     </g>
     <g>
      <line class="fil1 str3" x1="7.75" y1="17.46" x2="19.71" y2= "17.46" />
     </g>
     <g>
      <line class="fil1 str3" x1="7.75" y1="15.76" x2="19.71" y2= "15.76" />
     </g>
    </g>
    <g>
     <line class="fil1 str4" x1="8.87" y1="13.19" x2="8.87" y2= "15.15" />
    </g>
    <g>
     <line class="fil1 str5" x1="8.43" y1="14.1" x2="10.06" y2= "14.1" />
    </g>
    <circle class="fil3 str6" cx="8.87" cy="14.1" r="0.17"/>
   </g>
  </g>
 </g>
</svg>
