<?xml version="1.0" encoding="UTF-8"?>
<!DOCTYPE svg PUBLIC "-//W3C//DTD SVG 1.1//EN" "http://www.w3.org/Graphics/SVG/1.1/DTD/svg11.dtd">
<!-- Creator: CorelDRAW 2021 (64 Bit) -->
<svg xmlns="http://www.w3.org/2000/svg" xml:space="preserve" width="400px" height="400px" version="1.1" style="shape-rendering:geometricPrecision; text-rendering:geometricPrecision; image-rendering:optimizeQuality; fill-rule:evenodd; clip-rule:evenodd"
viewBox="0 0 4.67 4.67"
 xmlns:xlink="http://www.w3.org/1999/xlink"
 xmlns:xodm="http://www.corel.com/coreldraw/odm/2003">
 <defs>
  <style type="text/css">
   <![CDATA[
    .str0 {stroke:#C4C4C4;stroke-width:0.35;stroke-miterlimit:22.9256}
    .str1 {stroke:#FA0505;stroke-width:0.29;stroke-linejoin:round;stroke-miterlimit:22.9256}
    .fil1 {fill:none}
    .fil0 {fill:white}
    .fil2 {fill:black;fill-rule:nonzero}
   ]]>
  </style>
 </defs>
 <g id="Camada_x0020_1">
  <metadata id="CorelCorpID_0Corel-Layer"/>
  <g id="_2069654296944">
   <circle class="fil0 str0" cx="2.34" cy="2.34" r="2.16"/>
   <g>
    <polygon class="fil1 str1" points="1.29,2.36 1.31,3.81 3.38,3.81 3.38,2.39 3.86,2.39 3.19,1.54 3.19,0.82 2.81,0.82 2.81,1.09 2.33,0.59 0.81,2.36 "/>
    <path class="fil2" d="M2.2 2.91c0,-0.04 0,-0.06 0,-0.08 0,-0.1 0.01,-0.19 0.04,-0.26 0.01,-0.06 0.04,-0.11 0.08,-0.17 0.03,-0.04 0.08,-0.1 0.16,-0.18 0.07,-0.08 0.12,-0.14 0.15,-0.19 0.02,-0.04 0.03,-0.09 0.03,-0.15 0,-0.1 -0.03,-0.19 -0.1,-0.26 -0.07,-0.08 -0.15,-0.12 -0.24,-0.12 -0.09,0 -0.17,0.04 -0.23,0.11 -0.07,0.07 -0.11,0.17 -0.13,0.32l-0.22 -0.03c0.02,-0.2 0.08,-0.35 0.18,-0.45 0.1,-0.11 0.23,-0.16 0.39,-0.16 0.18,0 0.31,0.06 0.42,0.17 0.1,0.11 0.15,0.25 0.15,0.4 0,0.1 -0.02,0.18 -0.05,0.26 -0.04,0.07 -0.11,0.17 -0.22,0.28 -0.07,0.07 -0.11,0.13 -0.13,0.16 -0.03,0.04 -0.04,0.08 -0.05,0.12 -0.01,0.05 -0.02,0.12 -0.02,0.23l-0.21 0 0 0 0 0zm-0.04 0.51l0 -0.29 0.25 0 0 0.29 -0.25 0z"/>
   </g>
  </g>
 </g>
</svg>
