<?xml version="1.0" encoding="UTF-8"?>
<!DOCTYPE svg PUBLIC "-//W3C//DTD SVG 1.1//EN" "http://www.w3.org/Graphics/SVG/1.1/DTD/svg11.dtd">
<!-- Creator: CorelDRAW 2021 (64 Bit) -->
<svg xmlns="http://www.w3.org/2000/svg" xml:space="preserve" width="330px" height="330px" version="1.1" style="shape-rendering:geometricPrecision; text-rendering:geometricPrecision; image-rendering:optimizeQuality; fill-rule:evenodd; clip-rule:evenodd"
viewBox="0 0 165.48 165.48"
 xmlns:xlink="http://www.w3.org/1999/xlink"
 xmlns:xodm="http://www.corel.com/coreldraw/odm/2003">
 <defs>
  <style type="text/css">
   <![CDATA[
    .str0 {stroke:#C4C4C4;stroke-width:15.04;stroke-miterlimit:22.9256}
    .str1 {stroke:black;stroke-width:1.5;stroke-miterlimit:22.9256}
    .fil2 {fill:black}
    .fil1 {fill:#FA0505}
    .fil0 {fill:white}
   ]]>
  </style>
 </defs>
 <g id="Camada_x0020_1">
  <metadata id="CorelCorpID_0Corel-Layer"/>
  <g id="_2713837214928">
   <circle class="fil0 str0" cx="82.74" cy="82.74" r="75.22"/>
   <g>
    <path class="fil1 str1" d="M41.6 79.03c0.12,-0.13 0.21,-0.19 0.33,-0.32l2.62 -2.93c1.16,-1.4 4.25,-4.49 5.29,-5.81l2.63 -2.92c0.3,-0.32 0.4,-0.48 0.65,-0.73l4.62 -5.09c0.22,-0.29 0.4,-0.46 0.66,-0.73 0.29,-0.3 0.41,-0.48 0.65,-0.73l17.16 -18.91c0.25,-0.31 0.35,-0.43 0.64,-0.74l5.95 -6.51 8.58 8.54c0.41,0.36 0.78,0.81 1.17,1.2l1.25 1.21c1.4,1.45 2.56,3.21 4.53,2.63 1.36,-0.4 1.73,-1.42 1.73,-3.07 -0.01,-1.48 -0.1,-3.28 0.01,-4.72l6.75 0c0.17,2.28 0.02,5.12 0.02,7.46 0,2.46 0,4.93 0,7.39 0,1.25 -0.04,2.55 0,3.79 0.03,1.2 0.73,1.79 1.29,2.45 1.14,1.33 2.28,2.76 3.41,4.1l10.25 12.32c0.72,0.88 2.94,3.46 3.36,4.09 -2.3,0.04 -4.64,0 -6.94,0 -2.35,0 -4.5,-0.31 -5.07,1.78 -0.26,0.94 -0.09,5.41 -0.09,6.7l0 33.52 -59.89 -0.03 -0.6 -33.82c-0.04,-2.14 0.05,-4.67 -0.12,-6.75 -0.08,-0.96 -0.76,-1.73 -1.46,-2.03 -1.28,-0.53 -8.95,0.04 -10.34,-0.25l0.96 -1.09 0 0zm5.91 5.99c0.14,3.08 0.11,6.27 0.17,9.36l0.5 28.28c0.02,1.34 -0.22,3.21 0.55,4.2 0.96,1.22 2.08,0.98 3.97,0.98l59.21 0c4.32,0 6.12,0.62 6.12,-3.63 0,-12.79 0,-25.59 0,-38.38 2.27,0 4.54,0 6.81,0 1.33,0 5.73,0.18 6.63,-0.23 0.71,-0.32 1.3,-0.95 1.4,-1.92 0.14,-1.29 -0.81,-2.13 -1.76,-3.25 -0.25,-0.29 -0.53,-0.6 -0.78,-0.94l-18.03 -21.67c-0.1,-0.13 -0.35,-0.4 -0.41,-0.5 -0.2,-0.38 -0.08,-17.29 -0.08,-19.95 0.01,-2.97 -2.21,-2.8 -3.96,-2.8 -3.07,0 -7.64,-0.12 -10.37,0 -0.97,0.05 -1.76,0.64 -2.09,1.25 -0.49,0.88 -0.25,2.03 -0.32,3.07l-7.96 -7.95c-0.38,-0.4 -0.78,-0.73 -1.16,-1.12 -1.16,-1.2 -2.47,-2.94 -4.39,-1.95 -0.64,0.33 -1.76,1.68 -2.29,2.29 -0.2,0.24 -0.35,0.35 -0.55,0.6l-9.19 10.14c-0.75,0.72 -2.99,3.41 -3.79,4.2 -0.2,0.19 -0.35,0.36 -0.56,0.58l-2.7 3.02c-0.18,0.23 -0.36,0.36 -0.55,0.59l-3.77 4.15c-0.8,0.79 -3.05,3.49 -3.78,4.2 -0.38,0.36 -0.72,0.83 -1.1,1.2l-17.82 19.7c-0.19,0.23 -0.36,0.36 -0.55,0.6 -0.34,0.41 -0.75,0.77 -1.1,1.18 -0.33,0.41 -0.73,0.73 -0.99,1.29 -0.65,1.39 0.23,2.64 1.1,3.08 0.97,0.49 3.14,0.29 4.36,0.29 1.19,0 8.72,-0.08 9.23,0.04l0 0z"/>
    <g>
     <polygon class="fil2 str1" points="78.41,117.33 86.22,117.33 86.22,108.88 86.2,108.57 78.41,108.58 "/>
     <path class="fil2 str1" d="M64.45 72.83l7 0.97c0.28,-2.95 1.46,-6.46 2.84,-8.47 3.84,-5.55 11.63,-5.56 15.65,-1.22 2.14,2.31 3.37,4.55 3.44,7.96 0.07,3.18 -1.21,5.77 -3.33,7.99 -0.45,0.47 -0.85,1.05 -1.35,1.5 -0.58,0.51 -0.93,0.92 -1.43,1.43 -0.5,0.52 -0.86,0.9 -1.42,1.43 -0.48,0.46 -0.92,1.03 -1.38,1.47 -0.29,0.28 -0.38,0.48 -0.64,0.76l-0.69 0.78c-3.89,4.88 -4.32,9.31 -4.2,15.6l6.56 0.03c0.1,-5.52 0.49,-9.07 3.86,-12.5 0.38,-0.38 0.57,-0.67 0.9,-0.98l5.37 -5.64c2.09,-2.58 4.14,-5.49 4.66,-9.95 0.51,-4.36 -0.61,-8.75 -2.66,-11.71 -1.93,-2.78 -4.3,-5.06 -8.23,-6.49 -3.83,-1.4 -8.96,-1.41 -12.93,-0.24 -2.84,0.83 -6.05,2.97 -7.64,5.21 -0.13,0.18 -0.26,0.31 -0.4,0.5 -0.13,0.18 -0.27,0.37 -0.4,0.57 -0.98,1.49 -1.73,3.07 -2.36,4.95 -0.39,1.19 -1.31,4.8 -1.22,6.05l0 0z"/>
    </g>
   </g>
  </g>
 </g>
</svg>
