<?xml version="1.0" encoding="UTF-8"?>
<!DOCTYPE svg PUBLIC "-//W3C//DTD SVG 1.1//EN" "http://www.w3.org/Graphics/SVG/1.1/DTD/svg11.dtd">
<!-- Creator: CorelDRAW 2021 (64 Bit) -->
<svg xmlns="http://www.w3.org/2000/svg" xml:space="preserve" width="400px" height="400px" version="1.1" style="shape-rendering:geometricPrecision; text-rendering:geometricPrecision; image-rendering:optimizeQuality; fill-rule:evenodd; clip-rule:evenodd"
viewBox="0 0 18.83 18.83"
 xmlns:xlink="http://www.w3.org/1999/xlink"
 xmlns:xodm="http://www.corel.com/coreldraw/odm/2003">
 <defs>
  <style type="text/css">
   <![CDATA[
    .str5 {stroke:#AEA19E;stroke-width:0.75;stroke-miterlimit:22.9256;stroke-opacity:0.949020}
    .str0 {stroke:#B8B4B6;stroke-width:1.41;stroke-miterlimit:22.9256}
    .str1 {stroke:black;stroke-width:0.09;stroke-miterlimit:22.9256}
    .str3 {stroke:black;stroke-width:0.09;stroke-miterlimit:22.9256}
    .str2 {stroke:#080808;stroke-width:0.09;stroke-miterlimit:22.9256}
    .str4 {stroke:white;stroke-width:0.09;stroke-miterlimit:22.9256}
    .fil7 {fill:#E6E7E8}
    .fil5 {fill:aqua}
    .fil4 {fill:red}
    .fil3 {fill:#FF6600}
    .fil2 {fill:yellow}
    .fil0 {fill:white}
    .fil1 {fill:black;fill-rule:nonzero}
    .fil6 {fill:black;fill-rule:nonzero}
    .fil8 {fill:#FEFEFE;fill-rule:nonzero;fill-opacity:0.949020}
   ]]>
  </style>
 </defs>
 <g id="Camada_x0020_1">
  <metadata id="CorelCorpID_0Corel-Layer"/>
  <g id="_2069735006816">
   <path class="fil0 str0" d="M1.49 0.71l15.87 0c0.42,0 0.76,0.39 0.76,0.87l0 15.67c0,0.48 -0.34,0.87 -0.76,0.87l-15.87 0c-0.42,0 -0.77,-0.39 -0.77,-0.87 0,-1.88 -0.02,-15.18 -0.01,-15.86 0.01,-0.38 0.46,-0.68 0.78,-0.68z"/>
   <g>
    <g>
     <path class="fil1" d="M12.3 6.43l-3.2 0c-0.08,0 -0.15,-0.07 -0.15,-0.16 0,-0.08 0.07,-0.15 0.15,-0.15l3.2 0c0.09,0 0.15,0.07 0.15,0.15 0,0.09 -0.06,0.16 -0.15,0.16z"/>
     <path class="fil1" d="M13.36 9.65l-1.06 0c-0.08,0 -0.15,-0.07 -0.15,-0.16l0 -6.35c0,-0.09 0.07,-0.16 0.15,-0.16l1.06 0c0.08,0 0.15,0.07 0.15,0.16 0,0.08 -0.07,0.15 -0.15,0.15l-0.91 0 0 6.05 0.91 0c0.08,0 0.15,0.07 0.15,0.15 0,0.09 -0.07,0.16 -0.15,0.16z"/>
     <path class="fil1" d="M13.36 6.43l-1.06 0c-0.08,0 -0.15,-0.07 -0.15,-0.16 0,-0.08 0.07,-0.15 0.15,-0.15l1.06 0c0.08,0 0.15,0.07 0.15,0.15 0,0.09 -0.07,0.16 -0.15,0.16z"/>
     <ellipse class="fil2 str1" cx="13.94" cy="3.1" rx="0.89" ry="0.92"/>
     <ellipse class="fil3 str2" cx="13.94" cy="6.27" rx="0.89" ry="0.92"/>
     <ellipse class="fil4 str3" cx="13.92" cy="9.46" rx="0.89" ry="0.92"/>
     <ellipse class="fil5" cx="6.72" cy="6.31" rx="0.97" ry="0.99"/>
     <path class="fil6" d="M7.45 9.41c-0.04,0 -0.08,-0.01 -0.11,-0.03 -0.08,-0.03 -0.14,-0.09 -0.17,-0.16 -0.09,-0.23 -0.29,-0.31 -0.45,-0.31 -0.16,0 -0.37,0.08 -0.46,0.31 -0.07,0.15 -0.24,0.23 -0.39,0.16l-0.67 -0.28c-0.08,-0.03 -0.14,-0.09 -0.17,-0.17 -0.03,-0.07 -0.03,-0.15 0,-0.23 0.1,-0.23 0.01,-0.44 -0.1,-0.55 -0.12,-0.12 -0.32,-0.21 -0.54,-0.11 -0.16,0.06 -0.33,-0.01 -0.39,-0.17l-0.28 -0.69c-0.03,-0.07 -0.03,-0.16 0,-0.23 0.03,-0.08 0.08,-0.13 0.16,-0.17 0.22,-0.09 0.3,-0.3 0.3,-0.47 0,-0.16 -0.08,-0.37 -0.3,-0.46 -0.07,-0.04 -0.13,-0.09 -0.16,-0.17 -0.03,-0.07 -0.03,-0.16 0,-0.23l0.28 -0.69c0.06,-0.16 0.23,-0.23 0.39,-0.17 0.22,0.1 0.42,0.01 0.54,-0.11 0.11,-0.11 0.2,-0.32 0.1,-0.55 -0.06,-0.16 0.01,-0.33 0.17,-0.4l0.67 -0.28c0.07,-0.04 0.15,-0.04 0.23,0 0.07,0.03 0.13,0.09 0.16,0.16 0.09,0.23 0.3,0.31 0.46,0.31 0,0 0,0 0,0 0.16,0 0.36,-0.08 0.45,-0.31 0.04,-0.07 0.09,-0.13 0.17,-0.16 0.07,-0.04 0.15,-0.04 0.22,0l0.68 0.28c0.07,0.03 0.13,0.09 0.16,0.17 0.03,0.07 0.03,0.15 0,0.23 -0.09,0.23 -0.01,0.44 0.11,0.55 0.11,0.12 0.31,0.21 0.54,0.11 0.15,-0.06 0.32,0.01 0.39,0.17l0.28 0.69c0.03,0.07 0.03,0.16 0,0.23 -0.04,0.08 -0.09,0.13 -0.17,0.17 -0.22,0.09 -0.3,0.3 -0.3,0.46 0,0.17 0.08,0.38 0.3,0.47l0 0c0.08,0.04 0.13,0.09 0.17,0.17 0.03,0.07 0.03,0.16 0,0.23l-0.28 0.69c-0.03,0.08 -0.09,0.14 -0.16,0.17 -0.08,0.03 -0.16,0.03 -0.23,0 -0.23,-0.1 -0.43,-0.01 -0.54,0.11 -0.12,0.11 -0.2,0.32 -0.11,0.55 0.06,0.16 -0.01,0.33 -0.16,0.4l-0.68 0.28c-0.03,0.02 -0.07,0.03 -0.11,0.03zm-0.73 -0.81c0.32,0 0.61,0.19 0.73,0.5l0.67 -0.29c-0.12,-0.3 -0.06,-0.64 0.17,-0.88 0.24,-0.24 0.57,-0.31 0.87,-0.18l0.28 -0.68c-0.31,-0.13 -0.49,-0.42 -0.49,-0.76 0,-0.33 0.19,-0.62 0.49,-0.75l-0.28 -0.68c-0.3,0.13 -0.63,0.06 -0.87,-0.18 -0.23,-0.24 -0.29,-0.58 -0.17,-0.89l-0.67 -0.28c-0.12,0.31 -0.41,0.5 -0.73,0.5 0,0 0,0 0,0 -0.33,0 -0.61,-0.19 -0.74,-0.5l-0.67 0.28c0.13,0.31 0.06,0.65 -0.17,0.89 -0.23,0.24 -0.57,0.31 -0.87,0.18l-0.28 0.68c0.31,0.13 0.5,0.42 0.5,0.75 0,0.34 -0.19,0.63 -0.5,0.76l0.28 0.68c0.3,-0.13 0.64,-0.06 0.87,0.18 0.23,0.24 0.3,0.58 0.17,0.89l0.67 0.28c0.13,-0.31 0.41,-0.5 0.74,-0.5z"/>
     <path class="fil1" d="M6.72 7.47c-0.62,0 -1.13,-0.52 -1.13,-1.16 0,-0.63 0.51,-1.15 1.13,-1.15 0.62,0 1.12,0.52 1.12,1.15 0,0.64 -0.5,1.16 -1.12,1.16zm0 -2c-0.46,0 -0.83,0.38 -0.83,0.84 0,0.47 0.37,0.85 0.83,0.85 0.45,0 0.82,-0.38 0.82,-0.85 0,-0.46 -0.37,-0.84 -0.82,-0.84z"/>
     <path class="fil6" d="M7.24 8.51c-0.03,0 -0.06,-0.01 -0.08,-0.02 -0.06,-0.02 -0.1,-0.06 -0.12,-0.11 -0.07,-0.17 -0.21,-0.23 -0.32,-0.23 -0.12,0 -0.26,0.06 -0.33,0.23 -0.04,0.11 -0.17,0.16 -0.28,0.11l-0.47 -0.2c-0.06,-0.02 -0.1,-0.06 -0.12,-0.12 -0.02,-0.05 -0.02,-0.11 0,-0.16 0.07,-0.17 0.01,-0.31 -0.07,-0.4 -0.08,-0.08 -0.23,-0.14 -0.39,-0.07 -0.11,0.04 -0.23,-0.01 -0.27,-0.12l-0.2 -0.49c-0.02,-0.05 -0.02,-0.11 0,-0.17 0.02,-0.05 0.06,-0.09 0.11,-0.11 0.16,-0.07 0.22,-0.22 0.22,-0.34 0,-0.11 -0.06,-0.26 -0.22,-0.33 -0.05,-0.02 -0.09,-0.06 -0.11,-0.12 -0.02,-0.05 -0.02,-0.11 0,-0.16l0.2 -0.49c0.04,-0.11 0.16,-0.16 0.27,-0.12 0.16,0.07 0.31,0.01 0.39,-0.08 0.08,-0.08 0.14,-0.22 0.07,-0.39 -0.04,-0.11 0.01,-0.24 0.12,-0.28l0.47 -0.2c0.06,-0.03 0.11,-0.03 0.17,0 0.05,0.02 0.09,0.06 0.11,0.11 0.07,0.17 0.21,0.23 0.33,0.23 0,0 0,0 0,0 0.11,0 0.26,-0.06 0.32,-0.23 0.02,-0.05 0.06,-0.09 0.12,-0.11 0.05,-0.03 0.11,-0.03 0.16,0l0.48 0.2c0.05,0.02 0.09,0.06 0.11,0.12 0.02,0.05 0.02,0.11 0,0.16 -0.07,0.17 0,0.31 0.08,0.39 0.08,0.09 0.22,0.15 0.38,0.08 0.11,-0.04 0.23,0.01 0.28,0.12l0.19 0.49c0.03,0.05 0.03,0.11 0,0.16 -0.02,0.06 -0.06,0.1 -0.11,0.12 -0.16,0.07 -0.22,0.22 -0.22,0.33 0,0.12 0.06,0.27 0.22,0.34l0 0c0.05,0.02 0.09,0.06 0.11,0.12 0.03,0.05 0.03,0.11 0,0.16l-0.19 0.49c-0.03,0.05 -0.07,0.09 -0.12,0.12 -0.05,0.02 -0.11,0.02 -0.16,0 -0.16,-0.07 -0.3,-0.01 -0.38,0.07 -0.08,0.09 -0.15,0.23 -0.08,0.4 0.04,0.11 -0.01,0.23 -0.11,0.28l-0.48 0.2c-0.03,0.01 -0.06,0.02 -0.08,0.02zm-0.52 -0.57c0.23,0 0.43,0.13 0.52,0.35l0.47 -0.2c-0.09,-0.22 -0.04,-0.46 0.13,-0.63 0.16,-0.17 0.4,-0.22 0.61,-0.12l0.2 -0.49c-0.22,-0.09 -0.35,-0.3 -0.35,-0.54 0,-0.23 0.13,-0.44 0.35,-0.53l-0.2 -0.49c-0.21,0.1 -0.45,0.05 -0.61,-0.12 -0.17,-0.17 -0.22,-0.41 -0.13,-0.63l-0.47 -0.2c-0.09,0.22 -0.29,0.35 -0.52,0.35 0,0 0,0 0,0 -0.24,0 -0.44,-0.13 -0.53,-0.35l-0.47 0.2c0.09,0.22 0.04,0.46 -0.12,0.63 -0.17,0.17 -0.4,0.22 -0.62,0.12l-0.19 0.49c0.21,0.09 0.34,0.3 0.34,0.53 0,0.24 -0.13,0.45 -0.35,0.54l0.2 0.49c0.22,-0.1 0.45,-0.05 0.62,0.12 0.16,0.17 0.21,0.41 0.12,0.63l0.48 0.2c0.08,-0.22 0.28,-0.35 0.52,-0.35z"/>
    </g>
    <g>
     <rect class="fil7 str4" x="3.08" y="10.72" width="2.19" height="5.16"/>
     <path class="fil6" d="M8.91 16.22c-0.42,0 -0.84,-0.16 -1.24,-0.32 -0.45,-0.16 -0.9,-0.34 -1.36,-0.3l-1.12 0.11 0 -4.45 0.61 -0.06c0.38,-0.03 0.7,0.12 1.01,0.27 0.28,0.13 0.56,0.27 0.87,0.24l2 -0.37c0.72,-0.13 1.12,0.29 1.36,0.68l2.19 -1.04c0.82,-0.38 1.75,0 2.31,0.95 0.15,0.25 0.06,0.58 -0.18,0.73 -0.29,0.18 -0.57,0.37 -0.85,0.55 -2.44,1.56 -4.56,2.92 -5.46,3 -0.05,0 -0.1,0.01 -0.14,0.01zm-2.46 -0.93c0.46,0 0.9,0.17 1.32,0.33 0.44,0.16 0.85,0.32 1.25,0.28 0.84,-0.07 3.02,-1.47 5.33,-2.95 0.28,-0.18 0.57,-0.37 0.85,-0.55 0.11,-0.07 0.14,-0.21 0.08,-0.31 -0.47,-0.81 -1.25,-1.14 -1.93,-0.83l-2.43 1.16 -0.07 -0.12c-0.22,-0.39 -0.52,-0.77 -1.11,-0.66l-2.02 0.37c-0.41,0.04 -0.73,-0.12 -1.04,-0.26 -0.28,-0.14 -0.55,-0.27 -0.85,-0.24l-0.34 0.03 0 3.83 0.8 -0.07c0.05,-0.01 0.11,-0.01 0.16,-0.01z"/>
     <path class="fil6" d="M8.34 14.06c-0.07,0 -0.13,-0.05 -0.14,-0.12 -0.02,-0.09 0.03,-0.17 0.11,-0.18 0.8,-0.17 1.69,-0.54 2.72,-1.14l-0.18 -0.32c-0.04,-0.08 -0.02,-0.17 0.06,-0.21 0.07,-0.04 0.16,-0.02 0.2,0.05l0.26 0.47c0.04,0.07 0.02,0.16 -0.06,0.21 -1.12,0.66 -2.08,1.06 -2.94,1.24 -0.01,0 -0.02,0 -0.03,0z"/>
     <path class="fil8 str5" d="M4.98 16.22l-1.71 0c-0.28,0 -0.51,-0.24 -0.51,-0.53l0 -4.71c0,-0.29 0.23,-0.52 0.51,-0.52l1.71 0c0.28,0 0.51,0.23 0.51,0.52l0 4.71c0,0.29 -0.23,0.53 -0.51,0.53zm-1.71 -5.45c-0.12,0 -0.21,0.09 -0.21,0.21l0 4.71c0,0.12 0.09,0.22 0.21,0.22l1.71 0c0.12,0 0.21,-0.1 0.21,-0.22l0 -4.71c0,-0.12 -0.09,-0.21 -0.21,-0.21l-1.71 0z"/>
    </g>
   </g>
  </g>
 </g>
</svg>
