<?xml version="1.0" encoding="UTF-8"?>
<!DOCTYPE svg PUBLIC "-//W3C//DTD SVG 1.1//EN" "http://www.w3.org/Graphics/SVG/1.1/DTD/svg11.dtd">
<!-- Creator: CorelDRAW 2021 (64 Bit) -->
<svg xmlns="http://www.w3.org/2000/svg" xml:space="preserve" width="400px" height="400px" version="1.1" style="shape-rendering:geometricPrecision; text-rendering:geometricPrecision; image-rendering:optimizeQuality; fill-rule:evenodd; clip-rule:evenodd"
viewBox="0 0 2.26 2.26"
 xmlns:xlink="http://www.w3.org/1999/xlink"
 xmlns:xodm="http://www.corel.com/coreldraw/odm/2003">
 <defs>
  <style type="text/css">
   <![CDATA[
    .str0 {stroke:#C4C4C4;stroke-width:0.17;stroke-miterlimit:22.9256}
    .str1 {stroke:red;stroke-width:0.08;stroke-miterlimit:22.9256}
    .fil1 {fill:none}
    .fil5 {fill:black}
    .fil3 {fill:#999999}
    .fil0 {fill:white}
    .fil4 {fill:black;fill-rule:nonzero}
    .fil2 {fill:#999999;fill-rule:nonzero}
   ]]>
  </style>
 </defs>
 <g id="Camada_x0020_1">
  <metadata id="CorelCorpID_0Corel-Layer"/>
  <g id="_2069852666320">
   <circle class="fil0 str0" cx="1.13" cy="1.13" r="1.04"/>
   <path class="fil1 str1" d="M0.66 0.46l0.93 0c0.03,0 0.05,0.02 0.05,0.05l0 0.69c0,0.03 -0.02,0.05 -0.05,0.05l-0.93 0c-0.02,0 -0.04,-0.02 -0.04,-0.05l0 -0.69c0,-0.03 0.02,-0.05 0.04,-0.05zm-0.04 0.02l0.51 0.36 0.5 -0.36"/>
   <path class="fil2" d="M0.85 1.67l0.04 0c-0.01,0.04 -0.03,0.06 -0.06,0.08 -0.03,0.02 -0.07,0.03 -0.12,0.03 -0.05,0 -0.09,-0.01 -0.12,-0.02 -0.03,-0.02 -0.06,-0.05 -0.07,-0.08 -0.02,-0.04 -0.03,-0.08 -0.03,-0.12 0,-0.04 0.01,-0.08 0.03,-0.12 0.02,-0.04 0.04,-0.07 0.08,-0.09 0.03,-0.02 0.06,-0.03 0.11,-0.03 0.03,0 0.06,0.01 0.09,0.02 0.03,0.02 0.05,0.04 0.06,0.07 0.02,0.03 0.02,0.06 0.02,0.09 0,0.05 -0.01,0.08 -0.03,0.12 -0.03,0.04 -0.06,0.06 -0.11,0.06 -0.01,0 -0.02,0 -0.02,-0.01 -0.01,0 -0.01,-0.01 -0.01,-0.02 -0.02,0.02 -0.04,0.03 -0.06,0.03 -0.02,0 -0.04,-0.01 -0.06,-0.03 -0.01,-0.02 -0.02,-0.04 -0.02,-0.07 0,-0.04 0.01,-0.07 0.03,-0.11 0.02,-0.03 0.05,-0.05 0.08,-0.05 0.03,0 0.05,0.01 0.06,0.03l0 -0.03 0.06 0 -0.03 0.18c-0.01,0.01 -0.01,0.01 -0.01,0.02 0,0 0,0 0.01,0.01 0,0 0,0 0,0 0.01,0 0.02,-0.01 0.03,-0.02 0.01,-0.01 0.02,-0.02 0.03,-0.04 0.01,-0.02 0.02,-0.05 0.02,-0.07 0,-0.04 -0.02,-0.07 -0.04,-0.1 -0.03,-0.02 -0.06,-0.04 -0.11,-0.04 -0.03,0 -0.07,0.01 -0.09,0.03 -0.03,0.02 -0.05,0.04 -0.06,0.08 -0.01,0.03 -0.02,0.06 -0.02,0.1 0,0.03 0.01,0.06 0.02,0.09 0.02,0.03 0.04,0.05 0.06,0.06 0.03,0.01 0.06,0.02 0.1,0.02 0.03,0 0.06,-0.01 0.08,-0.02 0.03,-0.01 0.05,-0.03 0.06,-0.05zm-0.23 -0.1c0,0.03 0.01,0.04 0.01,0.05 0.01,0.01 0.02,0.01 0.03,0.01 0.01,0 0.02,0 0.02,0 0.01,-0.01 0.01,-0.01 0.02,-0.02 0.01,-0.01 0.01,-0.02 0.02,-0.04 0,-0.02 0.01,-0.04 0.01,-0.05 0,-0.02 -0.01,-0.03 -0.01,-0.04 -0.01,-0.01 -0.02,-0.02 -0.03,-0.02 -0.01,0 -0.02,0.01 -0.04,0.02 -0.01,0.01 -0.01,0.02 -0.02,0.04 0,0.02 -0.01,0.04 -0.01,0.05z"/>
   <path id="_1" class="fil2" d="M0.92 1.42l0.06 0 0 0.04c0.02,-0.03 0.04,-0.04 0.07,-0.04 0.01,0 0.02,0 0.03,0.01 0.01,0 0.02,0.01 0.03,0.03 0.01,-0.02 0.02,-0.03 0.03,-0.03 0.01,-0.01 0.02,-0.01 0.04,-0.01 0.01,0 0.03,0 0.04,0.01 0.01,0.01 0.02,0.02 0.02,0.03 0.01,0.01 0.01,0.03 0.01,0.06l0 0.16 -0.06 0 0 -0.15c0,-0.02 0,-0.04 -0.01,-0.05 0,-0.01 -0.01,-0.01 -0.02,-0.01 -0.01,0 -0.02,0 -0.02,0.01 -0.01,0 -0.02,0.01 -0.02,0.02 0,0.01 -0.01,0.03 -0.01,0.06l0 0.12 -0.05 0 0 -0.14c0,-0.03 0,-0.04 -0.01,-0.05 0,-0.01 0,-0.01 -0.01,-0.02 0,0 -0.01,0 -0.01,0 -0.01,0 -0.02,0 -0.03,0.01 -0.01,0 -0.01,0.01 -0.01,0.02 -0.01,0.01 -0.01,0.03 -0.01,0.05l0 0.13 -0.06 0 0 -0.26z"/>
   <path id="_2" class="fil2" d="M1.35 1.5l-0.05 -0.01c0,-0.02 0.01,-0.04 0.03,-0.05 0.01,-0.02 0.04,-0.02 0.06,-0.02 0.03,0 0.05,0 0.06,0.01 0.02,0.01 0.02,0.01 0.03,0.03 0,0.01 0.01,0.03 0.01,0.06l0 0.07c0,0.03 0,0.04 0,0.05 0,0.01 0,0.03 0.01,0.04l-0.06 0c0,-0.01 0,-0.01 0,-0.02 0,-0.01 -0.01,-0.01 -0.01,-0.01 -0.01,0.01 -0.02,0.02 -0.03,0.03 -0.01,0 -0.02,0 -0.03,0 -0.03,0 -0.05,0 -0.06,-0.02 -0.01,-0.01 -0.02,-0.03 -0.02,-0.05 0,-0.02 0,-0.03 0.01,-0.04 0.01,-0.01 0.02,-0.02 0.03,-0.03 0.01,0 0.02,-0.01 0.04,-0.01 0.03,-0.01 0.05,-0.01 0.06,-0.02l0 0c0,-0.02 0,-0.03 -0.01,-0.03 0,-0.01 -0.01,-0.01 -0.03,-0.01 -0.01,0 -0.02,0 -0.02,0.01 -0.01,0 -0.02,0.01 -0.02,0.02zm0.08 0.06c-0.01,0 -0.02,0 -0.04,0.01 -0.01,0 -0.02,0 -0.03,0.01 -0.01,0 -0.01,0.01 -0.01,0.02 0,0.01 0,0.02 0.01,0.03 0.01,0 0.01,0.01 0.02,0.01 0.01,0 0.02,-0.01 0.03,-0.02 0.01,0 0.02,-0.01 0.02,-0.02 0,0 0,-0.01 0,-0.03l0 -0.01z"/>
   <path id="_3" class="fil2" d="M1.55 1.39l0 -0.06 0.05 0 0 0.06 -0.05 0zm0 0.29l0 -0.26 0.05 0 0 0.26 -0.05 0z"/>
   <polygon id="_4" class="fil2" points="1.66,1.68 1.66,1.33 1.72,1.33 1.72,1.68 "/>
   <polygon id="_5" class="fil3" points="0.48,1.72 1.75,1.72 1.75,1.74 0.48,1.74 "/>
   <path class="fil4" d="M0.87 1.64l0.05 0c-0.02,0.03 -0.04,0.06 -0.07,0.08 -0.03,0.02 -0.07,0.03 -0.12,0.03 -0.04,0 -0.08,-0.01 -0.12,-0.03 -0.03,-0.01 -0.06,-0.04 -0.07,-0.08 -0.02,-0.03 -0.03,-0.07 -0.03,-0.11 0,-0.04 0.01,-0.09 0.03,-0.13 0.02,-0.03 0.04,-0.06 0.08,-0.08 0.03,-0.02 0.07,-0.03 0.11,-0.03 0.03,0 0.06,0.01 0.09,0.02 0.03,0.02 0.05,0.04 0.06,0.07 0.02,0.03 0.03,0.06 0.03,0.09 0,0.04 -0.02,0.08 -0.04,0.11 -0.03,0.04 -0.06,0.07 -0.1,0.07 -0.01,0 -0.02,-0.01 -0.03,-0.01 -0.01,-0.01 -0.01,-0.01 -0.01,-0.02 -0.02,0.02 -0.04,0.03 -0.06,0.03 -0.02,0 -0.04,-0.01 -0.06,-0.03 -0.01,-0.02 -0.02,-0.04 -0.02,-0.07 0,-0.04 0.01,-0.08 0.03,-0.11 0.02,-0.04 0.05,-0.05 0.09,-0.05 0.02,0 0.04,0.01 0.05,0.03l0.01 -0.03 0.05 0 -0.03 0.17c0,0.01 0,0.02 0,0.02 0,0.01 0,0.01 0,0.01 0,0.01 0,0.01 0,0.01 0.01,0 0.02,-0.01 0.03,-0.02 0.01,-0.01 0.03,-0.03 0.03,-0.05 0.01,-0.02 0.02,-0.04 0.02,-0.06 0,-0.04 -0.01,-0.07 -0.04,-0.1 -0.02,-0.02 -0.06,-0.04 -0.1,-0.04 -0.04,0 -0.07,0.01 -0.1,0.03 -0.03,0.02 -0.05,0.04 -0.06,0.07 -0.01,0.04 -0.02,0.07 -0.02,0.1 0,0.04 0.01,0.07 0.02,0.1 0.02,0.02 0.04,0.04 0.07,0.06 0.02,0.01 0.05,0.02 0.09,0.02 0.03,0 0.06,-0.01 0.08,-0.02 0.03,-0.01 0.05,-0.03 0.06,-0.05zm-0.22 -0.1c0,0.02 0,0.04 0.01,0.05 0,0.01 0.01,0.01 0.02,0.01 0.01,0 0.02,0 0.03,0 0,-0.01 0.01,-0.01 0.01,-0.02 0.01,-0.01 0.02,-0.02 0.02,-0.04 0.01,-0.02 0.01,-0.04 0.01,-0.05 0,-0.02 -0.01,-0.04 -0.01,-0.05 -0.01,-0.01 -0.02,-0.01 -0.03,-0.01 -0.01,0 -0.02,0 -0.03,0.02 -0.01,0.01 -0.02,0.02 -0.03,0.04 0,0.02 0,0.04 0,0.05z"/>
   <path id="_1_0" class="fil4" d="M0.94 1.39l0.06 0 0 0.04c0.02,-0.03 0.04,-0.04 0.07,-0.04 0.01,0 0.02,0 0.03,0.01 0.01,0 0.02,0.01 0.03,0.03 0.01,-0.02 0.02,-0.03 0.03,-0.03 0.01,-0.01 0.02,-0.01 0.04,-0.01 0.01,0 0.03,0 0.04,0.01 0.01,0 0.02,0.02 0.02,0.03 0.01,0.01 0.01,0.03 0.01,0.05l0 0.17 -0.06 0 0 -0.15c0,-0.03 0,-0.04 0,-0.05 -0.01,-0.01 -0.02,-0.01 -0.03,-0.01 -0.01,0 -0.02,0 -0.02,0.01 -0.01,0 -0.02,0.01 -0.02,0.02 0,0.01 0,0.03 0,0.05l0 0.13 -0.06 0 0 -0.14c0,-0.03 0,-0.04 0,-0.05 -0.01,-0.01 -0.01,-0.01 -0.01,-0.02 -0.01,0 -0.02,0 -0.02,0 -0.01,0 -0.02,0 -0.03,0.01 0,0 -0.01,0.01 -0.01,0.02 -0.01,0.01 -0.01,0.03 -0.01,0.05l0 0.13 -0.06 0 0 -0.26z"/>
   <path id="_2_1" class="fil4" d="M1.37 1.47l-0.05 -0.01c0.01,-0.03 0.02,-0.04 0.03,-0.06 0.02,-0.01 0.04,-0.01 0.07,-0.01 0.02,0 0.04,0 0.05,0.01 0.02,0 0.03,0.01 0.03,0.02 0.01,0.01 0.01,0.03 0.01,0.06l0 0.08c0,0.02 0,0.04 0,0.05 0,0.01 0.01,0.02 0.01,0.04l-0.06 0c0,-0.01 0,-0.02 0,-0.02 0,-0.01 0,-0.01 0,-0.01 -0.01,0.01 -0.02,0.02 -0.04,0.02 -0.01,0.01 -0.02,0.01 -0.03,0.01 -0.03,0 -0.04,-0.01 -0.06,-0.02 -0.01,-0.01 -0.02,-0.03 -0.02,-0.05 0,-0.02 0.01,-0.03 0.01,-0.04 0.01,-0.01 0.02,-0.02 0.03,-0.03 0.01,0 0.02,-0.01 0.04,-0.01 0.03,-0.01 0.05,-0.01 0.06,-0.02l0 -0.01c0,-0.01 0,-0.02 -0.01,-0.02 0,-0.01 -0.01,-0.01 -0.03,-0.01 -0.01,0 -0.02,0 -0.02,0 -0.01,0.01 -0.01,0.02 -0.02,0.03zm0.08 0.05c-0.01,0.01 -0.02,0.01 -0.03,0.01 -0.02,0.01 -0.03,0.01 -0.04,0.02 0,0 -0.01,0.01 -0.01,0.02 0,0.01 0.01,0.02 0.01,0.02 0.01,0.01 0.02,0.01 0.02,0.01 0.02,0 0.03,0 0.04,-0.01 0,0 0.01,-0.01 0.01,-0.02 0,-0.01 0,-0.02 0,-0.03l0 -0.02z"/>
   <path id="_3_2" class="fil4" d="M1.57 1.36l0 -0.07 0.06 0 0 0.07 -0.06 0zm0 0.29l0 -0.26 0.06 0 0 0.26 -0.06 0z"/>
   <polygon id="_4_3" class="fil4" points="1.69,1.65 1.69,1.29 1.74,1.29 1.74,1.65 "/>
   <polygon id="_5_4" class="fil5" points="0.5,1.69 1.77,1.69 1.77,1.71 0.5,1.71 "/>
  </g>
 </g>
</svg>
