<?xml version="1.0" encoding="UTF-8"?>
<!DOCTYPE svg PUBLIC "-//W3C//DTD SVG 1.1//EN" "http://www.w3.org/Graphics/SVG/1.1/DTD/svg11.dtd">
<!-- Creator: CorelDRAW 2021 (64 Bit) -->
<svg xmlns="http://www.w3.org/2000/svg" xml:space="preserve" width="330px" height="330px" version="1.1" style="shape-rendering:geometricPrecision; text-rendering:geometricPrecision; image-rendering:optimizeQuality; fill-rule:evenodd; clip-rule:evenodd"
viewBox="0 0 26.31 26.31"
 xmlns:xlink="http://www.w3.org/1999/xlink"
 xmlns:xodm="http://www.corel.com/coreldraw/odm/2003">
 <defs>
  <style type="text/css">
   <![CDATA[
    .str0 {stroke:#B8B4B6;stroke-width:2.39;stroke-miterlimit:22.9256}
    .fil0 {fill:snow}
    .fil1 {fill:#33CC66;fill-rule:nonzero}
   ]]>
  </style>
 </defs>
 <g id="Camada_x0020_1">
  <metadata id="CorelCorpID_0Corel-Layer"/>
  <g id="_2713501365616">
   <path class="fil0 str0" d="M2.27 1.2l21.8 0c0.58,0 1.05,0.53 1.05,1.19l0 21.53c0,0.66 -0.47,1.2 -1.05,1.2l-21.8 0c-0.58,0 -1.05,-0.54 -1.05,-1.2 0,-2.59 -0.04,-20.85 -0.02,-21.79 0.01,-0.51 0.64,-0.93 1.07,-0.93z"/>
   <path id="bt_avatar.svg" class="fil1" d="M21.39 15.12c0,-0.55 -1.15,-2.61 -1.72,-3.6 0.06,-0.29 0.14,-0.93 0.14,-1.89 0,-1.69 -2.2,-5.9 -7.44,-5.9 -5.14,0 -7.45,3.9 -7.45,6.68 0,1.97 1.16,3.97 2.08,5.58 0.54,0.95 1.05,1.83 1.05,2.28 0,0.99 -1.62,2.99 -2.25,3.66 -0.1,0.11 -0.13,0.28 -0.06,0.42 0.06,0.15 0.19,0.24 0.35,0.24l8.63 0c0.22,0 0.38,-0.11 0.38,-0.32 0.15,-0.28 1.53,-1.04 2.81,-1.25 0.99,-0.16 2.3,-0.38 2.3,-1.58 0,-0.51 -0.17,-0.78 -0.29,-0.95 -0.09,-0.12 -0.11,-0.14 -0.15,-0.22 0.22,0.03 0.41,-0.13 0.44,-0.35 0.01,-0.07 0,-0.16 -0.04,-0.23l0.32 -0.33c0.1,-0.1 0.14,-0.26 0.1,-0.4l-0.27 -0.78c0.46,-0.16 1.07,-0.49 1.07,-1.06l0 0 0 0z"/>
  </g>
 </g>
</svg>
