<?xml version="1.0" encoding="UTF-8"?>
<!DOCTYPE svg PUBLIC "-//W3C//DTD SVG 1.1//EN" "http://www.w3.org/Graphics/SVG/1.1/DTD/svg11.dtd">
<!-- Creator: CorelDRAW 2021 (64 Bit) -->
<svg xmlns="http://www.w3.org/2000/svg" xml:space="preserve" width="400px" height="400px" version="1.1" style="shape-rendering:geometricPrecision; text-rendering:geometricPrecision; image-rendering:optimizeQuality; fill-rule:evenodd; clip-rule:evenodd"
viewBox="0 0 2.53 2.53"
 xmlns:xlink="http://www.w3.org/1999/xlink"
 xmlns:xodm="http://www.corel.com/coreldraw/odm/2003">
 <defs>
  <style type="text/css">
   <![CDATA[
    .str2 {stroke:black;stroke-width:0.06;stroke-miterlimit:22.9256}
    .str0 {stroke:#B8B4B6;stroke-width:0.19;stroke-miterlimit:22.9256}
    .str1 {stroke:black;stroke-width:0.1;stroke-miterlimit:22.9256}
    .str4 {stroke:whitesmoke;stroke-width:0.01;stroke-miterlimit:22.9256}
    .str3 {stroke:#FF0505;stroke-width:0.01;stroke-miterlimit:22.9256}
    .str5 {stroke:yellow;stroke-width:0.01;stroke-miterlimit:22.9256}
    .fil2 {fill:none}
    .fil3 {fill:#003399}
    .fil4 {fill:#33CC66}
    .fil1 {fill:#E6E6E6}
    .fil0 {fill:white}
   ]]>
  </style>
 </defs>
 <g id="Camada_x0020_1">
  <metadata id="CorelCorpID_0Corel-Layer"/>
  <path class="fil0 str0" d="M0.2 0.09l2.13 0c0.06,0 0.1,0.06 0.1,0.12l0 2.11c0,0.06 -0.04,0.11 -0.1,0.11l-2.13 0c-0.06,0 -0.1,-0.05 -0.1,-0.11 0,-0.26 -0.01,-2.04 0,-2.13 0,-0.05 0.06,-0.1 0.1,-0.1z"/>
  <g id="_2069888868448">
   <polygon class="fil1" points="0.68,1.27 0.37,1.71 0.47,1.78 0.77,1.32 "/>
   <ellipse class="fil2 str1" cx="1.25" cy="0.48" rx="0.26" ry="0.24"/>
   <ellipse class="fil2 str1" cx="0.96" cy="0.67" rx="0.26" ry="0.24"/>
   <ellipse class="fil2 str1" cx="1.53" cy="0.67" rx="0.26" ry="0.24"/>
   <ellipse class="fil2 str1" cx="1.42" cy="0.97" rx="0.26" ry="0.24"/>
   <ellipse class="fil2 str1" cx="1.07" cy="0.97" rx="0.26" ry="0.24"/>
   <rect class="fil2 str2" transform="matrix(0.449742 0.334123 -0.395998 0.444057 0.715851 1.68305)" width="0.26" height="0.47" rx="0.13" ry="0.13"/>
   <rect class="fil2 str2" transform="matrix(0.567025 0.421255 -0.499265 0.559858 0.87688 1.71622)" width="0.26" height="0.47" rx="0.13" ry="0.13"/>
   <rect class="fil2 str2" transform="matrix(0.449742 0.334123 -0.395998 0.444057 1.00325 1.84956)" width="0.26" height="0.47" rx="0.13" ry="0.13"/>
   <rect class="fil2 str2" transform="matrix(0.417706 0.310323 -0.36779 0.412426 1.12404 1.92944)" width="0.26" height="0.47" rx="0.13" ry="0.13"/>
   <polygon class="fil3 str3" points="2.29,1.68 2.24,1.71 1.84,1.14 2.29,0.84 "/>
   <polygon class="fil1 str4" points="2.09,1.72 1.78,1.26 1.88,1.2 2.19,1.66 "/>
   <polygon class="fil4 str5" points="0.25,1.73 0.31,1.77 0.7,1.2 0.25,0.9 "/>
   <path class="fil2 str2" d="M2.29 0.85l-0.45 0.31 0.39 0.57 0.06 -0.04m-2.03 0.05l0.06 0.04 0.39 -0.58 -0.45 -0.31m0.25 0.86l0.11 0.06m0.16 -0.49l0.5 0m0.78 0.38l-0.17 0.11m-0.18 0.08l0.03 0.02c0.13,0.07 0.22,-0.04 0.13,-0.12l-0.44 -0.33c-0.06,0.02 -0.13,0.04 -0.19,0.06 -0.13,0.02 -0.22,-0.08 -0.13,-0.11l0.17 -0.09 0.04 -0.01c0.02,-0.02 0.04,-0.02 0.06,-0.01l0.25 0.06 0.16 -0.05m-0.35 0.81l0.06 0.04c0.11,0.04 0.19,-0.06 0.1,-0.14l-0.27 -0.17m-0.19 0.27l0.19 0.13c0.1,0.04 0.17,-0.04 0.12,-0.12 0,0 0,-0.01 -0.01,-0.01 -0.01,-0.01 -0.18,-0.12 -0.19,-0.13m0.35 0.03l0.04 0.02c0.11,0.05 0.19,-0.05 0.1,-0.13l-0.33 -0.21m0.47 -0.49l-0.11 0.06 0.31 0.47 0.11 -0.07m-1.51 -0.41l-0.32 0.46 0.12 0.06 0.3 -0.46 -0.1 -0.06z"/>
  </g>
 </g>
</svg>
