<?xml version="1.0" encoding="UTF-8"?>
<!DOCTYPE svg PUBLIC "-//W3C//DTD SVG 1.1//EN" "http://www.w3.org/Graphics/SVG/1.1/DTD/svg11.dtd">
<!-- Creator: CorelDRAW 2021 (64 Bit) -->
<svg xmlns="http://www.w3.org/2000/svg" xml:space="preserve" width="400px" height="400px" version="1.1" style="shape-rendering:geometricPrecision; text-rendering:geometricPrecision; image-rendering:optimizeQuality; fill-rule:evenodd; clip-rule:evenodd"
viewBox="0 0 178.62 178.62"
 xmlns:xlink="http://www.w3.org/1999/xlink"
 xmlns:xodm="http://www.corel.com/coreldraw/odm/2003">
 <defs>
  <style type="text/css">
   <![CDATA[
    .str5 {stroke:#AEA19E;stroke-width:7.14;stroke-miterlimit:22.9256;stroke-opacity:0.949020}
    .str0 {stroke:#C4C4C4;stroke-width:13.4;stroke-miterlimit:22.9256}
    .str1 {stroke:black;stroke-width:0.89;stroke-miterlimit:22.9256}
    .str3 {stroke:black;stroke-width:0.89;stroke-miterlimit:22.9256}
    .str2 {stroke:#080808;stroke-width:0.89;stroke-miterlimit:22.9256}
    .str4 {stroke:white;stroke-width:0.89;stroke-miterlimit:22.9256}
    .fil7 {fill:#E6E7E8}
    .fil5 {fill:aqua}
    .fil4 {fill:red}
    .fil3 {fill:#FF6600}
    .fil2 {fill:yellow}
    .fil0 {fill:white}
    .fil1 {fill:black;fill-rule:nonzero}
    .fil6 {fill:black;fill-rule:nonzero}
    .fil8 {fill:#FEFEFE;fill-rule:nonzero;fill-opacity:0.949020}
   ]]>
  </style>
 </defs>
 <g id="Camada_x0020_1">
  <metadata id="CorelCorpID_0Corel-Layer"/>
  <g id="_2069472777376">
   <circle class="fil0 str0" cx="89.31" cy="89.31" r="82.61"/>
   <g>
    <g>
     <path class="fil1" d="M113.06 69.23l-24.42 0c-0.63,0 -1.14,-0.52 -1.14,-1.17 0,-0.64 0.51,-1.17 1.14,-1.17l24.42 0c0.63,0 1.14,0.53 1.14,1.17 0,0.65 -0.51,1.17 -1.14,1.17z"/>
     <path class="fil1" d="M121.1 93.77l-8.04 0c-0.63,0 -1.15,-0.53 -1.15,-1.17l0 -48.46c0,-0.65 0.52,-1.17 1.15,-1.17l8.04 0c0.63,0 1.15,0.52 1.15,1.17 0,0.64 -0.52,1.17 -1.15,1.17l-6.9 0 0 46.11 6.9 0c0.63,0 1.15,0.53 1.15,1.17 0,0.65 -0.52,1.18 -1.15,1.18z"/>
     <path class="fil1" d="M121.1 69.23l-8.04 0c-0.63,0 -1.15,-0.52 -1.15,-1.17 0,-0.64 0.52,-1.17 1.15,-1.17l8.04 0c0.63,0 1.15,0.53 1.15,1.17 0,0.65 -0.52,1.17 -1.15,1.17z"/>
     <ellipse class="fil2 str1" cx="125.5" cy="43.9" rx="6.82" ry="6.98"/>
     <ellipse class="fil3 str2" cx="125.5" cy="68.06" rx="6.82" ry="6.98"/>
     <ellipse class="fil4 str3" cx="125.38" cy="92.36" rx="6.82" ry="6.98"/>
     <ellipse class="fil5" cx="70.47" cy="68.37" rx="7.38" ry="7.55"/>
     <path class="fil6" d="M76.06 91.94c-0.29,0 -0.59,-0.06 -0.87,-0.17 -0.56,-0.24 -0.99,-0.69 -1.23,-1.26 -0.71,-1.77 -2.27,-2.39 -3.49,-2.39 -1.22,0 -2.78,0.62 -3.49,2.39 -0.49,1.18 -1.82,1.74 -2.98,1.25l-5.12 -2.17c-0.57,-0.24 -1,-0.69 -1.23,-1.26 -0.24,-0.57 -0.24,-1.21 0,-1.78 0.71,-1.76 0.04,-3.33 -0.82,-4.22 -0.87,-0.88 -2.41,-1.57 -4.13,-0.84 -1.16,0.49 -2.49,-0.07 -2.97,-1.26l-2.12 -5.25c-0.23,-0.57 -0.23,-1.2 0,-1.78 0.23,-0.57 0.67,-1.02 1.23,-1.26 1.72,-0.73 2.33,-2.32 2.33,-3.57 0,-1.25 -0.61,-2.85 -2.33,-3.58 -0.56,-0.24 -1,-0.68 -1.23,-1.26 -0.23,-0.57 -0.23,-1.2 0,-1.78l2.12 -5.25c0.48,-1.18 1.82,-1.75 2.97,-1.26 1.73,0.73 3.26,0.05 4.13,-0.84 0.86,-0.88 1.53,-2.45 0.82,-4.22 -0.48,-1.18 0.07,-2.54 1.23,-3.04l5.13 -2.17c0.56,-0.24 1.18,-0.24 1.74,0 0.56,0.24 1,0.68 1.23,1.26 0.71,1.76 2.27,2.39 3.49,2.39 0,0 0,0 0,0 1.22,0 2.78,-0.63 3.5,-2.39 0.23,-0.58 0.66,-1.02 1.23,-1.26 0.56,-0.24 1.17,-0.24 1.74,0l5.13 2.18c0.56,0.23 0.99,0.68 1.23,1.25 0.23,0.58 0.23,1.21 0,1.78 -0.72,1.77 -0.05,3.34 0.82,4.22 0.86,0.89 2.4,1.57 4.12,0.84 1.16,-0.49 2.49,0.08 2.97,1.26l2.12 5.25c0.23,0.57 0.23,1.21 0,1.78 -0.23,0.58 -0.67,1.02 -1.23,1.26 -1.72,0.73 -2.33,2.33 -2.33,3.58 0,1.25 0.61,2.84 2.33,3.57l0 0c0.56,0.24 1,0.69 1.23,1.26 0.23,0.58 0.23,1.21 0,1.78l-2.12 5.25c-0.23,0.58 -0.67,1.03 -1.23,1.26 -0.56,0.24 -1.18,0.24 -1.74,0 -1.72,-0.73 -3.26,-0.04 -4.12,0.84 -0.87,0.89 -1.54,2.46 -0.82,4.22 0.47,1.19 -0.08,2.55 -1.23,3.04l-5.13 2.18c-0.29,0.11 -0.58,0.17 -0.88,0.17zm-5.59 -6.17c2.5,0 4.65,1.47 5.61,3.84l5.11 -2.18c-0.97,-2.35 -0.47,-4.94 1.3,-6.76 1.77,-1.8 4.31,-2.32 6.62,-1.34l2.1 -5.23c-2.3,-0.98 -3.73,-3.18 -3.73,-5.73 0,-2.57 1.43,-4.77 3.74,-5.74l-2.13 -5.23c-2.29,0.98 -4.83,0.47 -6.6,-1.34 -1.76,-1.81 -2.27,-4.41 -1.31,-6.77l-5.12 -2.16c-0.94,2.36 -3.09,3.83 -5.59,3.83 0,0 0,0 0,0 -2.5,0 -4.65,-1.47 -5.61,-3.84l-5.11 2.19c0.97,2.34 0.46,4.94 -1.31,6.75 -1.76,1.81 -4.3,2.33 -6.61,1.35l-2.11 5.24c2.31,0.95 3.74,3.15 3.74,5.72 0,2.56 -1.43,4.76 -3.74,5.74l2.13 5.22c2.29,-0.98 4.83,-0.47 6.6,1.34 1.76,1.81 2.27,4.41 1.31,6.78l5.12 2.15c0.94,-2.36 3.09,-3.83 5.59,-3.83z"/>
     <path class="fil1" d="M70.47 77.15c-4.73,0 -8.58,-3.94 -8.58,-8.78 0,-4.85 3.85,-8.79 8.58,-8.79 4.73,0 8.58,3.94 8.58,8.79 0,4.84 -3.85,8.78 -8.58,8.78zm0 -15.22c-3.47,0 -6.29,2.89 -6.29,6.44 0,3.55 2.82,6.44 6.29,6.44 3.47,0 6.29,-2.89 6.29,-6.44 0,-3.55 -2.82,-6.44 -6.29,-6.44z"/>
     <path class="fil6" d="M74.44 85.1c-0.21,0 -0.42,-0.05 -0.62,-0.13 -0.4,-0.17 -0.71,-0.49 -0.87,-0.89 -0.51,-1.25 -1.61,-1.7 -2.48,-1.7 -0.87,0 -1.97,0.45 -2.48,1.7 -0.34,0.84 -1.29,1.24 -2.11,0.89l-3.64 -1.54c-0.39,-0.17 -0.7,-0.49 -0.87,-0.9 -0.16,-0.4 -0.16,-0.85 0,-1.26 0.51,-1.25 0.03,-2.37 -0.58,-2.99 -0.61,-0.63 -1.7,-1.12 -2.93,-0.6 -0.82,0.35 -1.76,-0.05 -2.1,-0.89l-1.51 -3.73c-0.16,-0.41 -0.16,-0.85 0,-1.26 0.16,-0.41 0.47,-0.73 0.87,-0.89 1.22,-0.52 1.66,-1.65 1.66,-2.54 0,-0.89 -0.44,-2.02 -1.66,-2.54 -0.4,-0.17 -0.7,-0.49 -0.87,-0.89 -0.16,-0.41 -0.16,-0.86 0,-1.27l1.51 -3.72c0.34,-0.84 1.28,-1.24 2.11,-0.9 1.22,0.52 2.31,0.04 2.92,-0.59 0.61,-0.63 1.09,-1.75 0.58,-3 -0.34,-0.84 0.05,-1.8 0.87,-2.15l3.64 -1.54c0.4,-0.17 0.84,-0.17 1.24,0 0.4,0.16 0.71,0.48 0.87,0.89 0.51,1.25 1.61,1.69 2.48,1.69 0,0 0,0 0,0 0.87,0 1.98,-0.44 2.48,-1.69 0.17,-0.41 0.48,-0.73 0.87,-0.89 0.4,-0.17 0.84,-0.17 1.24,0l3.64 1.54c0.4,0.17 0.71,0.48 0.87,0.89 0.17,0.41 0.17,0.86 0,1.27 -0.5,1.24 -0.03,2.36 0.58,2.99 0.62,0.63 1.71,1.11 2.93,0.59 0.82,-0.35 1.76,0.06 2.1,0.9l1.51 3.72c0.17,0.41 0.17,0.86 0,1.27 -0.16,0.4 -0.47,0.72 -0.87,0.89 -1.22,0.52 -1.66,1.65 -1.66,2.54 0,0.88 0.44,2.02 1.66,2.54l0 0c0.4,0.16 0.71,0.48 0.87,0.89 0.17,0.41 0.17,0.86 0,1.26l-1.51 3.73c-0.16,0.41 -0.47,0.72 -0.87,0.89 -0.4,0.17 -0.84,0.17 -1.23,0 -1.22,-0.52 -2.31,-0.03 -2.93,0.6 -0.61,0.62 -1.09,1.74 -0.58,2.99 0.34,0.84 -0.05,1.81 -0.87,2.16l-3.64 1.54c-0.2,0.08 -0.41,0.13 -0.62,0.13zm-3.97 -4.38c1.78,0 3.3,1.04 3.98,2.72l3.62 -1.55c-0.68,-1.66 -0.32,-3.5 0.93,-4.79 1.26,-1.28 3.06,-1.65 4.7,-0.96l1.48 -3.7c-1.63,-0.7 -2.64,-2.26 -2.64,-4.07 0,-1.82 1.02,-3.38 2.66,-4.08l-1.52 -3.71c-1.62,0.7 -3.42,0.34 -4.68,-0.95 -1.25,-1.28 -1.61,-3.12 -0.93,-4.8l-3.64 -1.53c-0.66,1.67 -2.18,2.72 -3.96,2.72 0,0 0,0 0,0 -1.78,0 -3.3,-1.05 -3.98,-2.73l-3.62 1.55c0.68,1.67 0.32,3.51 -0.93,4.79 -1.26,1.29 -3.06,1.65 -4.7,0.96l-1.49 3.72c1.63,0.68 2.65,2.24 2.65,4.06 0,1.81 -1.02,3.38 -2.66,4.07l1.52 3.71c1.62,-0.7 3.42,-0.34 4.68,0.95 1.25,1.28 1.61,3.13 0.93,4.81l3.64 1.52c0.66,-1.67 2.18,-2.71 3.96,-2.71z"/>
    </g>
    <g>
     <rect class="fil7 str4" x="42.73" y="101.98" width="16.71" height="39.35"/>
     <path class="fil6" d="M87.17 143.85c-3.21,0 -6.37,-1.21 -9.45,-2.38 -3.38,-1.28 -6.86,-2.61 -10.33,-2.3l-8.53 0.78 0 -33.89 4.64 -0.42c2.9,-0.25 5.32,0.89 7.66,2.01 2.19,1.04 4.26,2.04 6.65,1.83l15.29 -2.84c5.47,-0.96 8.49,2.28 10.32,5.24l16.7 -7.94c6.29,-2.9 13.37,0 17.61,7.22 1.12,1.89 0.5,4.41 -1.38,5.61 -2.16,1.38 -4.32,2.76 -6.45,4.13 -18.64,11.95 -34.75,22.28 -41.64,22.9 -0.36,0.03 -0.73,0.05 -1.09,0.05zm-18.71 -7.07c3.51,0 6.83,1.27 10.06,2.5 3.33,1.27 6.49,2.46 9.54,2.18 6.35,-0.56 23,-11.24 40.62,-22.55 2.14,-1.37 4.3,-2.75 6.46,-4.13 0.82,-0.53 1.11,-1.61 0.63,-2.42 -3.61,-6.14 -9.53,-8.67 -14.7,-6.29l-18.57 8.83 -0.52 -0.93c-1.64,-2.93 -3.93,-5.82 -8.49,-5.02l-15.39 2.85c-3.09,0.26 -5.54,-0.9 -7.91,-2.03 -2.16,-1.03 -4.2,-2.01 -6.49,-1.8l-2.55 0.24 0 29.18 6.04 -0.55c0.43,-0.04 0.85,-0.06 1.27,-0.06z"/>
     <path class="fil6" d="M82.88 127.41c-0.54,0 -1.02,-0.38 -1.12,-0.94 -0.13,-0.63 0.27,-1.25 0.89,-1.38 6.04,-1.23 12.83,-4.06 20.73,-8.62l-1.4 -2.5c-0.31,-0.56 -0.12,-1.28 0.42,-1.6 0.55,-0.32 1.25,-0.13 1.57,0.43l1.97 3.52c0.31,0.56 0.13,1.28 -0.42,1.6 -8.55,5.04 -15.88,8.13 -22.42,9.47 -0.07,0.02 -0.15,0.02 -0.22,0.02z"/>
     <path class="fil8 str5" d="M57.26 143.85l-13.06 0c-2.14,0 -3.89,-1.79 -3.89,-3.98l0 -35.94c0,-2.19 1.75,-3.98 3.89,-3.98l13.06 0c2.14,0 3.89,1.79 3.89,3.98l0 35.94c0,2.19 -1.75,3.98 -3.89,3.98zm-13.06 -41.55c-0.88,0 -1.6,0.73 -1.6,1.63l0 35.94c0,0.9 0.72,1.63 1.6,1.63l13.06 0c0.88,0 1.6,-0.73 1.6,-1.63l0 -35.94c0,-0.9 -0.72,-1.63 -1.6,-1.63l-13.06 0z"/>
    </g>
   </g>
  </g>
 </g>
</svg>
