<?xml version="1.0" encoding="UTF-8"?>
<!DOCTYPE svg PUBLIC "-//W3C//DTD SVG 1.1//EN" "http://www.w3.org/Graphics/SVG/1.1/DTD/svg11.dtd">
<!-- Creator: CorelDRAW 2021 (64 Bit) -->
<svg xmlns="http://www.w3.org/2000/svg" xml:space="preserve" width="400px" height="400px" version="1.1" style="shape-rendering:geometricPrecision; text-rendering:geometricPrecision; image-rendering:optimizeQuality; fill-rule:evenodd; clip-rule:evenodd"
viewBox="0 0 4 4"
 xmlns:xlink="http://www.w3.org/1999/xlink"
 xmlns:xodm="http://www.corel.com/coreldraw/odm/2003">
 <defs>
  <style type="text/css">
   <![CDATA[
    .str0 {stroke:#B8B4B6;stroke-width:0.3;stroke-miterlimit:22.9256}
    .str3 {stroke:black;stroke-width:0.02;stroke-miterlimit:22.9256}
    .str1 {stroke:black;stroke-width:0.01;stroke-miterlimit:22.9256}
    .str2 {stroke:#FF9933;stroke-width:0.01;stroke-miterlimit:22.9256}
    .fil6 {fill:none}
    .fil1 {fill:black}
    .fil5 {fill:#CCCCCC}
    .fil3 {fill:#E6E6E6}
    .fil2 {fill:#FF9933}
    .fil4 {fill:#FFFF99}
    .fil0 {fill:white}
   ]]>
  </style>
 </defs>
 <g id="Camada_x0020_1">
  <metadata id="CorelCorpID_0Corel-Layer"/>
  <g id="_2069393483824">
   <path class="fil0 str0" d="M0.32 0.15l3.37 0c0.09,0 0.16,0.08 0.16,0.19l0 3.32c0,0.1 -0.07,0.19 -0.16,0.19l-3.37 0c-0.09,0 -0.17,-0.09 -0.17,-0.19 0,-0.4 0,-3.22 0,-3.37 0,-0.08 0.1,-0.14 0.17,-0.14z"/>
   <g>
    <g>
     <path class="fil0" d="M1.98 1.21c0.02,0 0.03,0 0.05,-0.01 0,-0.01 0.01,-0.01 0.01,-0.01 0.01,-0.01 0.01,-0.02 0.02,-0.02 0,0.01 0.02,0.02 0.02,0.02 0,0.02 -0.03,0.04 -0.04,0.04 -0.04,0.03 -0.09,0.03 -0.13,0.01 -0.01,-0.01 -0.03,-0.03 -0.04,-0.04 0.01,-0.01 0.02,-0.02 0.03,-0.02 0.02,0.03 0.05,0.03 0.08,0.03zm0.08 -0.23c0.05,-0.01 0.05,0.07 0.01,0.08 -0.02,0.01 -0.04,-0.01 -0.04,-0.03 -0.01,-0.03 0.01,-0.04 0.03,-0.05zm-0.2 0c0.02,0 0.04,0.01 0.05,0.03 0,0.03 -0.01,0.05 -0.03,0.05 -0.05,0.01 -0.07,-0.06 -0.02,-0.08zm0.35 0.04c0.01,-0.04 0.02,-0.08 0,-0.11 -0.01,-0.01 -0.02,-0.02 -0.03,-0.03 -0.03,-0.02 -0.03,-0.01 -0.06,0.01 -0.04,0.04 -0.09,0.06 -0.15,0.06 -0.07,0.01 -0.12,-0.04 -0.16,-0.07 -0.02,-0.02 -0.03,-0.01 -0.05,0 -0.01,0 -0.02,0.01 -0.02,0.03 -0.01,0.01 -0.01,0.04 -0.01,0.06 0,0.02 0,0.03 0,0.05l-0.04 0.01c-0.01,0.02 0.01,0.06 0.01,0.08 0.01,0.02 0.01,0.03 0.02,0.04 0.01,0 0.03,0 0.04,0 0.01,0.03 0.02,0.05 0.03,0.08 0.01,0.01 0.03,0.04 0.04,0.05 0.02,0.02 0.04,0.03 0.06,0.04 0.03,0.01 0.06,0.01 0.09,0.01 0.06,0.01 0.1,-0.02 0.14,-0.05 0.01,-0.01 0.03,-0.04 0.04,-0.05 0.03,-0.04 0.02,-0.04 0.03,-0.08 0.03,0 0.04,0.01 0.05,-0.01 0.01,-0.02 0.01,-0.03 0.01,-0.05 0.01,-0.01 0.02,-0.04 0.01,-0.05 -0.01,-0.01 -0.04,-0.01 -0.05,-0.02z"/>
     <path class="fil0" d="M2.43 1.29c-0.07,0.02 -0.05,0.13 0.02,0.12 0.03,-0.01 0.05,-0.04 0.04,-0.07 0,-0.03 -0.03,-0.06 -0.06,-0.05z"/>
     <path class="fil1" d="M1.98 1.21c-0.03,0 -0.06,0 -0.08,-0.03 -0.01,0 -0.02,0.01 -0.03,0.02 0.01,0.01 0.03,0.03 0.04,0.04 0.04,0.02 0.09,0.02 0.13,-0.01 0.01,0 0.04,-0.02 0.04,-0.04 0,0 -0.02,-0.01 -0.02,-0.02 -0.01,0 -0.01,0.01 -0.02,0.02 0,0 -0.01,0 -0.01,0.01 -0.02,0.01 -0.03,0.01 -0.05,0.01z"/>
     <polygon class="fil1" points="1.61,1.89 1.64,1.89 1.64,1.73 1.61,1.73 "/>
     <polygon class="fil1" points="2.33,1.88 2.36,1.88 2.36,1.88 2.36,1.73 2.36,1.73 2.33,1.73 "/>
     <path class="fil1" d="M2.06 0.98c-0.02,0.01 -0.04,0.02 -0.03,0.05 0,0.02 0.02,0.04 0.04,0.03 0.04,-0.01 0.04,-0.09 -0.01,-0.08z"/>
     <path class="fil1" d="M1.86 0.98c-0.05,0.02 -0.03,0.09 0.02,0.08 0.02,0 0.03,-0.02 0.03,-0.05 -0.01,-0.02 -0.03,-0.03 -0.05,-0.03z"/>
     <path class="fil1 str1" d="M2.21 1.02c0.01,0.01 0.04,0.01 0.05,0.02 0.01,0.01 0,0.04 -0.01,0.05 0,0.02 0,0.03 -0.01,0.05 -0.01,0.02 -0.02,0.01 -0.05,0.01 -0.01,0.04 0,0.04 -0.03,0.08 -0.01,0.01 -0.03,0.04 -0.04,0.05 -0.04,0.03 -0.08,0.06 -0.14,0.05 -0.03,0 -0.06,0 -0.09,-0.01 -0.02,-0.01 -0.04,-0.02 -0.06,-0.04 -0.01,-0.01 -0.03,-0.04 -0.04,-0.05 -0.01,-0.03 -0.02,-0.05 -0.03,-0.08 -0.01,0 -0.03,0 -0.04,0 -0.01,-0.01 -0.01,-0.02 -0.02,-0.04 0,-0.02 -0.02,-0.06 -0.01,-0.08l0.04 -0.01c0,-0.02 0,-0.03 0,-0.05 0,-0.02 0,-0.05 0.01,-0.06 0,-0.02 0.01,-0.03 0.02,-0.03 0.02,-0.01 0.03,-0.02 0.05,0 0.04,0.03 0.09,0.08 0.16,0.07 0.06,0 0.11,-0.02 0.15,-0.06 0.03,-0.02 0.03,-0.03 0.06,-0.01 0.01,0.01 0.02,0.02 0.03,0.03 0.02,0.03 0.01,0.07 0,0.11zm-0.35 -0.41c-0.05,0.02 -0.1,0.07 -0.12,0.11 -0.02,0.03 -0.04,0.06 -0.05,0.11 0,0.03 0,0.06 0,0.08 0,0.03 0,0.05 0,0.08 -0.02,0 -0.02,0.01 -0.03,0.03 -0.01,0.03 0,0.05 0,0.07 0.03,0.13 0.06,0.07 0.08,0.12 0.01,0.02 0.01,0.02 0.03,0.05l0.03 0.04c0.01,0.01 0.02,0.02 0.03,0.03 0,0.01 0,0.08 0,0.09 0,0.01 0,0.01 -0.01,0.01 -0.05,0.01 -0.14,0.03 -0.2,0.04 -0.03,0.01 -0.06,0.01 -0.09,0.03 -0.01,0.01 -0.02,0.01 -0.03,0.02 -0.04,0.03 -0.06,0.07 -0.07,0.11 -0.01,0.03 -0.01,0.1 -0.01,0.13 0,0.04 0,0.08 0,0.13 0.03,0 0.04,0 0.04,-0.02l0 -0.15c0,-0.06 0,-0.12 0.04,-0.16 0.02,-0.01 0.04,-0.02 0.06,-0.03 0.05,-0.02 0.11,-0.03 0.16,-0.04 0.02,0 0.05,-0.01 0.08,-0.01 0,0.03 0,0.05 0.02,0.07 0.02,0.04 0.05,0.07 0.09,0.09 0.02,0 0.05,0.01 0.07,0.01 0.08,0 0.18,-0.07 0.18,-0.17l0.2 0.04c0.07,0.01 0.13,0.06 0.14,0.14 0,0.07 0,0.15 0,0.22l0.03 0.01 0 -0.23c-0.01,-0.09 -0.05,-0.16 -0.18,-0.18 -0.06,-0.02 -0.13,-0.03 -0.2,-0.04 -0.02,-0.01 -0.03,-0.01 -0.02,-0.04 0,-0.02 0,-0.06 0,-0.08 0.01,-0.01 0.02,-0.02 0.03,-0.04 0.02,-0.01 0.05,-0.05 0.06,-0.09 0.06,0 0.06,-0.05 0.07,-0.09 0,-0.01 0,-0.02 0.01,-0.03 0,-0.01 0,-0.02 -0.01,-0.03 0,-0.03 -0.02,-0.04 -0.04,-0.05 0,-0.07 0.02,-0.11 -0.01,-0.19 -0.01,-0.05 -0.03,-0.08 -0.06,-0.12 -0.01,-0.01 -0.01,-0.01 -0.02,-0.02 -0.02,-0.01 -0.03,-0.03 -0.05,-0.04 -0.05,-0.03 -0.09,-0.04 -0.15,-0.04 -0.03,0 -0.06,0.01 -0.1,0.03zm-0.09 0.13c0.03,-0.04 0.06,-0.07 0.12,-0.1 0.02,-0.01 0.02,-0.02 0.05,-0.02 0.04,0 0.09,0 0.13,0.02 0.03,0.01 0.04,0.03 0.06,0.05 0.03,0.02 0.03,0.02 0.05,0.06 0.01,0.02 0.04,0.09 0.04,0.12 -0.01,-0.01 -0.04,-0.03 -0.05,-0.04 -0.02,0 -0.03,0 -0.04,0.01 -0.01,0 -0.02,0.01 -0.02,0.02 -0.09,0.07 -0.16,0.08 -0.26,0 -0.01,-0.01 -0.02,-0.01 -0.03,-0.02 -0.01,-0.01 -0.01,-0.01 -0.03,-0.01 -0.04,0 -0.05,0.02 -0.07,0.03 0.01,-0.06 0.04,-0.1 0.05,-0.12zm0.21 0.87c0,0 0.01,0 0.01,0 0.01,0 0.02,0 0.03,0 0.06,-0.01 0.11,-0.08 0.11,-0.14 -0.03,-0.01 -0.04,-0.03 -0.04,-0.05l0 -0.08 0 0c0,0 0,0 -0.01,0.01 -0.03,0.01 -0.07,0.02 -0.1,0.02 -0.03,0.01 -0.06,0 -0.09,-0.01 -0.01,0 -0.02,-0.01 -0.02,-0.01 -0.01,0.03 0,0.06 0,0.08 -0.01,0.02 -0.02,0.03 -0.04,0.04 0,0.07 0.06,0.13 0.11,0.14 0.02,0 0.03,0 0.04,0z"/>
    </g>
    <path class="fil2 str2" d="M1.46 1.68l0 0.21 0.15 0 0 -0.16 0.03 0 0 0.16 0.69 -0.01 0 -0.15 0.03 0 0 0.15 0.14 0 0 -0.22c-0.01,-0.08 -0.06,-0.12 -0.13,-0.14l-0.21 -0.04c-0.01,0.1 -0.08,0.16 -0.18,0.17 -0.1,-0.01 -0.16,-0.06 -0.18,-0.17l-0.21 0.04c-0.09,0.02 -0.13,0.08 -0.13,0.16z"/>
    <polygon class="fil3 str3" points="3.12,2 2.86,2 2.92,1.94 3.07,1.94 "/>
    <rect class="fil2 str3" x="1.8" y="2" width="1.37" height="0.67"/>
    <g>
     <g>
      <rect class="fil4 str3" x="0.96" y="2.56" width="1.37" height="0.55"/>
      <polygon class="fil5 str3" points="2.05,2.55 1.78,2.56 1.85,2.53 1.99,2.53 "/>
     </g>
     <g>
      <polygon class="fil5 str3" points="1.8,2.62 1.54,2.62 1.6,2.59 1.75,2.59 "/>
      <rect class="fil4 str3" x="0.9" y="2.62" width="1.37" height="0.55"/>
     </g>
     <g>
      <rect class="fil4 str3" x="0.85" y="2.68" width="1.37" height="0.56"/>
      <polygon class="fil6 str3" points="1.48,2.68 1.21,2.68 1.28,2.66 1.42,2.66 "/>
      <polygon class="fil5 str3" points="1.48,2.68 1.21,2.68 1.28,2.66 1.42,2.66 "/>
     </g>
     <g>
      <rect class="fil4 str3" x="0.8" y="2.74" width="1.37" height="0.55"/>
      <polygon class="fil5 str3" points="1.15,2.74 0.88,2.74 0.95,2.72 1.09,2.72 "/>
     </g>
    </g>
   </g>
  </g>
 </g>
</svg>
