<?xml version="1.0" encoding="UTF-8"?>
<!DOCTYPE svg PUBLIC "-//W3C//DTD SVG 1.1//EN" "http://www.w3.org/Graphics/SVG/1.1/DTD/svg11.dtd">
<!-- Creator: CorelDRAW 2021 (64 Bit) -->
<svg xmlns="http://www.w3.org/2000/svg" xml:space="preserve" width="330px" height="330px" version="1.1" style="shape-rendering:geometricPrecision; text-rendering:geometricPrecision; image-rendering:optimizeQuality; fill-rule:evenodd; clip-rule:evenodd"
viewBox="0 0 26.3 26.3"
 xmlns:xlink="http://www.w3.org/1999/xlink"
 xmlns:xodm="http://www.corel.com/coreldraw/odm/2003">
 <defs>
  <style type="text/css">
   <![CDATA[
    .str1 {stroke:black;stroke-width:0.8;stroke-miterlimit:22.9256}
    .str0 {stroke:#B8B4B6;stroke-width:2.39;stroke-miterlimit:22.9256}
    .fil3 {fill:#00FA46}
    .fil2 {fill:#282829}
    .fil1 {fill:red}
    .fil0 {fill:snow}
   ]]>
  </style>
 </defs>
 <g id="Camada_x0020_1">
  <metadata id="CorelCorpID_0Corel-Layer"/>
  <g id="_2713504599072">
   <path class="fil0 str0" d="M2.27 1.2l21.79 0c0.57,0 1.04,0.53 1.04,1.19l0 21.52c0,0.66 -0.47,1.19 -1.04,1.19l-21.79 0c-0.58,0 -1.05,-0.53 -1.05,-1.19 0,-2.59 -0.04,-20.84 -0.02,-21.78 0.01,-0.51 0.64,-0.93 1.07,-0.93z"/>
   <g>
    <path class="fil1 str1" d="M18.41 19.36l-0.01 -2.58 -1.18 0.01c0,0.32 0.06,2.45 -0.04,2.55 0.02,0.35 -0.2,0.74 -0.36,0.9 -0.24,0.25 -0.54,0.3 -1,0.29l-7.77 0c-0.61,0 -2.01,0.13 -2.4,-0.17 -0.61,-0.47 -0.54,-1.14 -0.54,-2.05l0 -10.33c0,-0.85 0.12,-1.56 0.79,-1.78 0.29,-0.1 7.11,-0.05 7.74,-0.05 0.76,0 1.86,-0.06 2.59,0.01 0.81,0.08 0.98,0.95 0.98,1.62l1.21 0.02c0,-1.08 -0.28,-1.83 -0.87,-2.32 -0.81,-0.68 -1.44,-0.54 -2.66,-0.54 -2.13,0 -4.26,0 -6.39,0 -1.36,0 -3.23,-0.28 -3.99,0.79 -0.21,0.31 -0.42,0.61 -0.54,1.09 -0.16,0.68 -0.08,5.25 -0.08,6.31 0,1.15 -0.05,5.58 0.02,6.33 0.09,1 0.61,1.63 1.2,2 0.69,0.42 1.99,0.29 2.9,0.29 2.13,0 4.26,0 6.4,0 0.95,0 2.13,0.15 2.86,-0.33 0.51,-0.33 1.18,-1.12 1.14,-2.06l0 0z"/>
    <g>
     <path class="fil2" d="M9.28 14.57l-0.25 0.21c0.04,-0.15 0.07,-0.21 0.18,-0.32 0.41,-0.9 1.83,-1.74 2.69,-2.17 0.57,-0.29 3.02,-1.16 3.71,-1.07l0.32 1.49c-1.85,0.23 -3.62,0.24 -5.31,1.06 -0.73,0.36 -0.96,0.6 -1.34,0.8zm8.05 -0.55l-0.93 -4.17 4.64 1.72c-0.15,0.15 -3.25,2.22 -3.71,2.45l0 0zm-1.97 -3.88c-1.78,0.44 -1.97,0.34 -3.79,1.13 -2.7,1.17 -3.52,2.73 -4.51,5.3 -0.27,0.7 -1.17,3 -1.33,3.56 0.01,-0.01 0.02,-0.02 0.03,-0.03l1.87 -2.32c0.47,-0.59 0.95,-1.18 1.51,-1.68 0.1,-0.09 0.16,-0.17 0.26,-0.26 0.79,-0.7 1.89,-1.3 3.11,-1.61 0.67,-0.16 3.02,-0.52 3.68,-0.45l0.46 1.96 6.54 -4.29c0.11,-0.08 0.11,-0.08 0.18,-0.15l-8.45 -3.1 0.44 1.94 0 0z"/>
     <path class="fil3" d="M17.36 14.26c0.47,-0.26 3.64,-2.56 3.79,-2.72l-4.85 -1.89 1.06 4.61 0 0z"/>
     <path class="fil3" d="M8.96 14.9l-0.1 0.15c0.39,-0.22 0.89,-0.66 1.64,-1.06 1.72,-0.92 3.54,-0.93 5.42,-1.18l-0.32 -1.66c-0.7,-0.1 -3.21,0.86 -3.8,1.19 -0.44,0.24 -1.02,0.55 -1.55,0.96 -0.52,0.42 -0.93,0.78 -1.29,1.6z"/>
    </g>
   </g>
  </g>
 </g>
</svg>
