<?xml version="1.0" encoding="UTF-8"?>
<!DOCTYPE svg PUBLIC "-//W3C//DTD SVG 1.1//EN" "http://www.w3.org/Graphics/SVG/1.1/DTD/svg11.dtd">
<!-- Creator: CorelDRAW 2021 (64 Bit) -->
<svg xmlns="http://www.w3.org/2000/svg" xml:space="preserve" width="400px" height="400px" version="1.1" style="shape-rendering:geometricPrecision; text-rendering:geometricPrecision; image-rendering:optimizeQuality; fill-rule:evenodd; clip-rule:evenodd"
viewBox="0 0 2.53 2.53"
 xmlns:xlink="http://www.w3.org/1999/xlink"
 xmlns:xodm="http://www.corel.com/coreldraw/odm/2003">
 <defs>
  <style type="text/css">
   <![CDATA[
    .str3 {stroke:black;stroke-width:0.06;stroke-miterlimit:22.9256}
    .str1 {stroke:black;stroke-width:0.13;stroke-miterlimit:22.9256}
    .str0 {stroke:#B8B4B6;stroke-width:0.19;stroke-miterlimit:22.9256}
    .str2 {stroke:blue;stroke-width:0.03;stroke-miterlimit:22.9256}
    .fil1 {fill:none}
    .fil2 {fill:black}
    .fil4 {fill:#CCCCCC}
    .fil0 {fill:white}
    .fil3 {fill:black;fill-rule:nonzero}
   ]]>
  </style>
 </defs>
 <g id="Camada_x0020_1">
  <metadata id="CorelCorpID_0Corel-Layer"/>
  <g id="_2069720518656">
   <path class="fil0 str0" d="M0.2 0.09l2.13 0c0.06,0 0.1,0.06 0.1,0.12l0 2.11c0,0.06 -0.04,0.11 -0.1,0.11l-2.13 0c-0.06,0 -0.1,-0.05 -0.1,-0.11 0,-0.26 -0.01,-2.04 0,-2.13 0,-0.05 0.06,-0.1 0.1,-0.1z"/>
   <g>
    <path class="fil1 str1" d="M0.37 2.14l0.7 0 0.21 -0.18 0.19 0.18 0.67 0c0.01,-0.57 0.01,-1.05 0.02,-1.62 0,-0.11 -0.07,-0.17 -0.16,-0.17 -0.24,0 -0.38,0 -0.44,0 -0.31,0.01 -0.18,0.5 -0.25,0.49 -0.07,0 0.09,-0.49 -0.44,-0.49 -0.11,0 -0.2,0 -0.31,0 -0.12,0.01 -0.18,0.07 -0.18,0.23 0,0.08 -0.01,1.37 -0.01,1.56z"/>
    <g>
     <g>
      <rect class="fil2 str2" x="0.48" y="1.06" width="0.62" height="0.09"/>
      <rect class="fil2 str2" x="0.48" y="1.34" width="0.62" height="0.09"/>
      <rect class="fil2 str2" x="0.48" y="1.62" width="0.62" height="0.09"/>
      <rect class="fil2 str2" x="0.48" y="1.9" width="0.62" height="0.09"/>
      <rect class="fil2 str2" x="0.48" y="0.8" width="0.62" height="0.09"/>
      <rect class="fil2 str2" x="0.48" y="0.56" width="0.62" height="0.09"/>
     </g>
     <path class="fil3" d="M1.66 1.51l-0.11 0 -0.04 -0.11 -0.19 0 -0.04 0.11 -0.11 0 0.19 -0.48 0.1 0 0.2 0.48zm-0.18 -0.19l-0.07 -0.18 -0.06 0.18 0.13 0z"/>
     <path class="fil4 str3" d="M1.76 0.96c0.1,0.21 0.12,0.42 0.02,0.64 -0.03,-0.01 -0.06,-0.02 -0.09,-0.03 -0.05,-0.01 -0.05,0 -0.06,0.03 -0.03,0.06 -0.07,0.12 -0.1,0.18 -0.01,0.03 -0.02,0.03 0.01,0.06l0.07 0.08c0.07,0.05 0.15,0.04 0.2,-0.01 0.08,-0.07 0.14,-0.13 0.17,-0.21 0.14,-0.31 0.09,-0.61 -0.02,-0.82 -0.03,-0.08 -0.08,-0.14 -0.14,-0.19 -0.02,-0.02 -0.08,-0.07 -0.12,-0.07 -0.02,0 -0.05,0 -0.09,0.03 -0.04,0.03 -0.06,0.05 -0.1,0.09 -0.01,0 -0.01,0.01 -0.01,0.02 0.04,0.07 0.08,0.14 0.12,0.22 0,0.01 0.01,0.01 0.03,0 0.04,0 0.07,-0.01 0.11,-0.02z"/>
    </g>
   </g>
  </g>
 </g>
</svg>
