<?xml version="1.0" encoding="UTF-8"?>
<!DOCTYPE svg PUBLIC "-//W3C//DTD SVG 1.1//EN" "http://www.w3.org/Graphics/SVG/1.1/DTD/svg11.dtd">
<!-- Creator: CorelDRAW 2021 (64 Bit) -->
<svg xmlns="http://www.w3.org/2000/svg" xml:space="preserve" width="400px" height="400px" version="1.1" style="shape-rendering:geometricPrecision; text-rendering:geometricPrecision; image-rendering:optimizeQuality; fill-rule:evenodd; clip-rule:evenodd"
viewBox="0 0 4.67 4.67"
 xmlns:xlink="http://www.w3.org/1999/xlink"
 xmlns:xodm="http://www.corel.com/coreldraw/odm/2003">
 <defs>
  <style type="text/css">
   <![CDATA[
    .str0 {stroke:#C4C4C4;stroke-width:0.35;stroke-miterlimit:22.9256}
    .str1 {stroke:black;stroke-width:0.02;stroke-miterlimit:22.9256}
    .str2 {stroke:black;stroke-width:0.01;stroke-miterlimit:22.9256}
    .str3 {stroke:yellow;stroke-width:0.01;stroke-miterlimit:22.9256}
    .fil5 {fill:none}
    .fil7 {fill:black}
    .fil4 {fill:#CCCCCC}
    .fil1 {fill:#E6E6E6}
    .fil2 {fill:yellow}
    .fil3 {fill:#FFFF99}
    .fil6 {fill:white}
    .fil0 {fill:white}
   ]]>
  </style>
 </defs>
 <g id="Camada_x0020_1">
  <metadata id="CorelCorpID_0Corel-Layer"/>
  <g id="_2069392571968">
   <circle class="fil0 str0" cx="2.34" cy="2.34" r="2.16"/>
   <g>
    <g>
     <polygon class="fil1 str1" points="3.8,2.23 3.48,2.23 3.56,2.16 3.73,2.16 "/>
     <rect class="fil2 str1" x="2.24" y="2.23" width="1.61" height="0.77"/>
     <g>
      <g>
       <rect class="fil3 str1" x="1.25" y="2.87" width="1.61" height="0.64"/>
       <polygon class="fil4 str1" points="2.53,2.87 2.22,2.87 2.29,2.84 2.47,2.84 "/>
      </g>
      <g>
       <polygon class="fil4 str1" points="2.24,2.94 1.93,2.94 2,2.92 2.17,2.92 "/>
       <rect class="fil3 str1" x="1.18" y="2.95" width="1.61" height="0.64"/>
      </g>
      <g>
       <rect class="fil3 str1" x="1.12" y="3.02" width="1.61" height="0.65"/>
       <polygon class="fil5 str1" points="1.86,3.02 1.55,3.02 1.62,2.99 1.8,2.99 "/>
       <polygon class="fil4 str1" points="1.86,3.02 1.55,3.02 1.62,2.99 1.8,2.99 "/>
      </g>
      <g>
       <rect class="fil3 str1" x="1.06" y="3.09" width="1.61" height="0.64"/>
       <polygon class="fil4 str1" points="1.47,3.09 1.16,3.09 1.23,3.06 1.41,3.06 "/>
      </g>
     </g>
    </g>
    <g>
     <path class="fil6" d="M2.41 1.32c0.02,0 0.03,-0.01 0.05,-0.02 0,-0.01 0.01,-0.01 0.02,-0.02 0,0 0.01,-0.01 0.02,-0.01 0,0.01 0.01,0.02 0.02,0.02 0,0.02 -0.03,0.04 -0.05,0.05 -0.04,0.03 -0.1,0.03 -0.15,0.01 -0.01,-0.01 -0.04,-0.03 -0.04,-0.05 0,-0.01 0.02,-0.02 0.03,-0.03 0.02,0.04 0.05,0.05 0.1,0.05zm0.08 -0.27c0.06,-0.01 0.07,0.08 0.02,0.09 -0.03,0.01 -0.05,-0.01 -0.05,-0.03 -0.01,-0.04 0.01,-0.05 0.03,-0.06zm-0.23 0c0.03,0 0.05,0.01 0.06,0.04 0,0.03 -0.02,0.05 -0.04,0.05 -0.05,0.01 -0.08,-0.08 -0.02,-0.09zm0.42 0.04c0.01,-0.04 0.02,-0.09 -0.01,-0.12 0,-0.01 -0.02,-0.03 -0.03,-0.04 -0.03,-0.02 -0.04,-0.01 -0.07,0.01 -0.05,0.04 -0.11,0.08 -0.18,0.08 -0.08,0 -0.14,-0.06 -0.19,-0.1 -0.02,-0.01 -0.03,0 -0.05,0.01 -0.02,0.01 -0.03,0.01 -0.04,0.04 0,0.01 -0.01,0.05 -0.01,0.06 0.01,0.02 0.01,0.04 0.01,0.07l-0.05 0c-0.01,0.03 0.01,0.08 0.02,0.1 0,0.02 0,0.03 0.01,0.04 0.02,0.01 0.04,0.01 0.05,0.01 0.01,0.03 0.02,0.05 0.04,0.08 0.01,0.02 0.04,0.05 0.05,0.07 0.02,0.02 0.04,0.03 0.07,0.04 0.03,0.01 0.07,0.02 0.1,0.02 0.08,0 0.12,-0.03 0.17,-0.07 0.01,-0.01 0.04,-0.04 0.05,-0.06 0.03,-0.04 0.02,-0.05 0.03,-0.08 0.03,0 0.05,0 0.06,-0.02 0.01,-0.02 0.01,-0.04 0.01,-0.06 0.01,-0.01 0.02,-0.05 0.01,-0.06 -0.01,-0.01 -0.04,-0.01 -0.05,-0.02z"/>
     <path class="fil6" d="M2.93 1.41c-0.08,0.02 -0.05,0.15 0.03,0.13 0.03,-0.01 0.05,-0.04 0.05,-0.08 -0.01,-0.03 -0.04,-0.06 -0.08,-0.05z"/>
     <path class="fil7" d="M2.41 1.32c-0.05,0 -0.08,-0.01 -0.1,-0.05 -0.01,0.01 -0.03,0.02 -0.03,0.03 0,0.02 0.03,0.04 0.04,0.05 0.05,0.02 0.11,0.02 0.15,-0.01 0.02,-0.01 0.05,-0.03 0.05,-0.05 -0.01,0 -0.02,-0.01 -0.02,-0.02 -0.01,0 -0.02,0.01 -0.02,0.01 -0.01,0.01 -0.02,0.01 -0.02,0.02 -0.02,0.01 -0.03,0.02 -0.05,0.02z"/>
     <polygon class="fil7" points="1.97,2.1 2.01,2.1 2.01,1.92 1.97,1.92 "/>
     <polygon class="fil7" points="2.82,2.09 2.85,2.09 2.85,2.09 2.85,1.92 2.85,1.92 2.82,1.92 "/>
     <path class="fil7" d="M2.49 1.05c-0.02,0.01 -0.04,0.02 -0.03,0.06 0,0.02 0.02,0.04 0.05,0.03 0.05,-0.01 0.04,-0.1 -0.02,-0.09z"/>
     <path class="fil7" d="M2.26 1.05c-0.06,0.01 -0.03,0.1 0.02,0.09 0.02,0 0.04,-0.02 0.04,-0.05 -0.01,-0.03 -0.03,-0.04 -0.06,-0.04z"/>
     <path class="fil7 str2" d="M2.68 1.09c0.01,0.01 0.04,0.01 0.05,0.02 0.01,0.01 0,0.05 -0.01,0.06 0,0.02 0,0.04 -0.01,0.06 -0.01,0.02 -0.03,0.02 -0.06,0.02 -0.01,0.03 0,0.04 -0.03,0.08 -0.01,0.02 -0.04,0.05 -0.05,0.06 -0.05,0.04 -0.09,0.07 -0.17,0.07 -0.03,0 -0.07,-0.01 -0.1,-0.02 -0.03,-0.01 -0.05,-0.02 -0.07,-0.04 -0.01,-0.02 -0.04,-0.05 -0.05,-0.07 -0.02,-0.03 -0.03,-0.05 -0.04,-0.08 -0.01,0 -0.03,0 -0.05,-0.01 -0.01,-0.01 -0.01,-0.02 -0.01,-0.04 -0.01,-0.02 -0.03,-0.07 -0.02,-0.1l0.05 0c0,-0.03 0,-0.05 -0.01,-0.07 0,-0.01 0.01,-0.05 0.01,-0.06 0.01,-0.03 0.02,-0.03 0.04,-0.04 0.02,-0.01 0.03,-0.02 0.05,-0.01 0.05,0.04 0.11,0.1 0.19,0.1 0.07,0 0.13,-0.04 0.18,-0.08 0.03,-0.02 0.04,-0.03 0.07,-0.01 0.01,0.01 0.03,0.03 0.03,0.04 0.03,0.03 0.02,0.08 0.01,0.12zm-0.42 -0.48c-0.06,0.03 -0.11,0.08 -0.14,0.13 -0.03,0.04 -0.05,0.07 -0.06,0.13 0,0.03 0,0.07 0,0.1 0,0.03 0.01,0.06 0.01,0.09 -0.03,0 -0.04,0.01 -0.04,0.04 -0.01,0.02 -0.01,0.05 0,0.07 0.03,0.15 0.07,0.09 0.09,0.14 0.02,0.03 0.01,0.03 0.03,0.06l0.04 0.04c0.01,0.01 0.02,0.03 0.04,0.04 0,0.02 0,0.09 0,0.11 0,0.01 -0.01,0.01 -0.02,0.01 -0.05,0.01 -0.17,0.03 -0.23,0.05 -0.04,0 -0.07,0.01 -0.1,0.03 -0.02,0 -0.03,0.01 -0.04,0.02 -0.05,0.03 -0.07,0.08 -0.09,0.13 0,0.04 0,0.11 0,0.15 0,0.05 0,0.1 0,0.15 0.03,0 0.04,0 0.04,-0.02l0 -0.18c0,-0.07 0,-0.13 0.05,-0.18 0.03,-0.02 0.04,-0.03 0.07,-0.04 0.06,-0.02 0.12,-0.03 0.18,-0.04 0.03,-0.01 0.07,-0.02 0.1,-0.02 0,0.04 0,0.06 0.02,0.09 0.02,0.04 0.06,0.08 0.11,0.1 0.02,0.01 0.05,0.02 0.08,0.01 0.1,0 0.22,-0.08 0.22,-0.2l0.23 0.05c0.08,0.01 0.16,0.07 0.16,0.16 0,0.09 0.01,0.18 0.01,0.26l0.04 0.01 0 -0.26c-0.02,-0.11 -0.07,-0.19 -0.22,-0.22 -0.08,-0.02 -0.15,-0.03 -0.23,-0.05 -0.03,0 -0.04,0 -0.04,-0.04 0,-0.02 0,-0.06 0,-0.09 0.02,-0.01 0.04,-0.03 0.05,-0.04 0.02,-0.02 0.05,-0.07 0.06,-0.11 0.07,0 0.07,-0.06 0.08,-0.1 0.01,-0.01 0.01,-0.02 0.01,-0.04 0.01,-0.01 0.01,-0.03 0,-0.04 -0.01,-0.03 -0.02,-0.04 -0.04,-0.05 0,-0.09 0.01,-0.13 -0.02,-0.22 -0.02,-0.06 -0.03,-0.09 -0.07,-0.14 -0.02,-0.02 -0.02,-0.01 -0.03,-0.03 -0.01,-0.01 -0.04,-0.03 -0.05,-0.04 -0.06,-0.04 -0.11,-0.05 -0.19,-0.04 -0.02,0 -0.07,0 -0.11,0.02zm-0.1 0.16c0.03,-0.04 0.06,-0.09 0.13,-0.12 0.03,-0.01 0.04,-0.02 0.07,-0.02 0.05,0 0.1,0 0.15,0.02 0.03,0.02 0.05,0.03 0.07,0.06 0.03,0.02 0.04,0.03 0.06,0.07 0.02,0.02 0.05,0.1 0.05,0.14 -0.02,-0.02 -0.05,-0.04 -0.07,-0.05 -0.01,0 -0.03,0 -0.04,0.01 -0.01,0.01 -0.02,0.01 -0.03,0.02 -0.1,0.08 -0.19,0.1 -0.3,0.01 -0.01,-0.01 -0.02,-0.02 -0.03,-0.03 -0.01,-0.01 -0.02,-0.01 -0.04,-0.01 -0.04,0 -0.06,0.03 -0.08,0.03 0,-0.06 0.04,-0.11 0.06,-0.13zm0.24 1.01c0,0 0.01,0 0.02,0 0.01,0 0.02,-0.01 0.02,-0.01 0.08,-0.01 0.14,-0.08 0.14,-0.16 -0.03,-0.01 -0.05,-0.03 -0.04,-0.06l0 -0.09 0 0c-0.01,0 -0.01,0.01 -0.01,0.01 -0.04,0.02 -0.09,0.03 -0.13,0.03 -0.04,0 -0.07,0 -0.11,-0.01 0,-0.01 -0.01,-0.01 -0.02,-0.02 0,0.03 0,0.07 0,0.1 0,0.03 -0.02,0.04 -0.04,0.04 0,0.09 0.07,0.15 0.13,0.16 0.02,0.01 0.03,0.01 0.04,0.01z"/>
    </g>
    <path class="fil2 str3" d="M1.79 1.86l0 0.24 0.18 0 0 -0.18 0.04 0 0 0.18 0.8 -0.01 0 -0.17 0.04 0 0 0.17 0.17 0 -0.01 -0.26c-0.01,-0.09 -0.06,-0.14 -0.14,-0.16l-0.25 -0.05c-0.02,0.12 -0.1,0.19 -0.22,0.2 -0.12,0 -0.19,-0.07 -0.21,-0.2l-0.25 0.05c-0.1,0.03 -0.15,0.09 -0.15,0.19z"/>
   </g>
  </g>
 </g>
</svg>
