<?xml version="1.0" encoding="UTF-8"?>
<!DOCTYPE svg PUBLIC "-//W3C//DTD SVG 1.1//EN" "http://www.w3.org/Graphics/SVG/1.1/DTD/svg11.dtd">
<!-- Creator: CorelDRAW 2021 (64 Bit) -->
<svg xmlns="http://www.w3.org/2000/svg" xml:space="preserve" width="400px" height="400px" version="1.1" style="shape-rendering:geometricPrecision; text-rendering:geometricPrecision; image-rendering:optimizeQuality; fill-rule:evenodd; clip-rule:evenodd"
viewBox="0 0 2.26 2.26"
 xmlns:xlink="http://www.w3.org/1999/xlink"
 xmlns:xodm="http://www.corel.com/coreldraw/odm/2003">
 <defs>
  <style type="text/css">
   <![CDATA[
    .str0 {stroke:#C4C4C4;stroke-width:0.17;stroke-miterlimit:22.9256}
    .str1 {stroke:black;stroke-width:0.03;stroke-miterlimit:22.9256}
    .fil2 {fill:gray}
    .fil1 {fill:#B3B3B3}
    .fil3 {fill:#CCCCCC}
    .fil4 {fill:#E6E6E6}
    .fil0 {fill:white}
   ]]>
  </style>
 </defs>
 <g id="Camada_x0020_1">
  <metadata id="CorelCorpID_0Corel-Layer"/>
  <g id="_2069832950608">
   <circle class="fil0 str0" cx="1.13" cy="1.13" r="1.04"/>
   <g>
    <path class="fil1 str1" d="M1.38 0.76l0.01 0c0.01,0 0.01,-0.01 0,-0.02 0.01,0 0.02,-0.01 0.02,-0.02 0,0 -0.01,-0.02 -0.01,-0.03 0,0 0.01,0 0.01,0 0.02,-0.01 0.03,-0.02 0.03,-0.04 -0.01,-0.01 -0.02,-0.03 -0.03,-0.05 -0.01,-0.01 -0.02,-0.03 -0.03,-0.05 -0.01,-0.01 0,-0.01 0,-0.02 0.01,-0.06 0,-0.09 -0.04,-0.13 -0.02,-0.04 -0.06,-0.07 -0.09,-0.08 -0.09,-0.04 -0.19,-0.04 -0.27,0 -0.06,0.03 -0.12,0.1 -0.12,0.19 0,0.04 0.01,0.08 0.03,0.11l0.06 0.1c0.03,0.04 0.02,0.05 -0.01,0.1 -0.01,0.01 -0.02,0.03 -0.03,0.03 0,0.01 -0.01,0.01 -0.01,0.02 0,0 -0.02,0.01 -0.02,0.02 0,0 0.01,0.01 0.01,0.01 0.01,0 0.16,0 0.18,0l0.12 0c0.04,0 0,-0.01 0.08,-0.04 0.03,-0.01 0.04,-0.01 0.07,-0.01 0.06,-0.02 0.07,-0.05 0.04,-0.09l0 0z"/>
    <path class="fil2 str1" d="M0.86 1.27l0.01 0c0.01,0 0.01,-0.01 0.01,-0.02 0,0 0.01,-0.01 0.01,-0.02 0,0 0,-0.02 -0.01,-0.02 0.01,-0.01 0.01,-0.01 0.02,-0.01 0.01,-0.01 0.02,-0.02 0.02,-0.03 0,-0.02 -0.02,-0.04 -0.02,-0.05 -0.01,-0.02 -0.02,-0.04 -0.03,-0.05 -0.01,-0.02 -0.01,-0.01 -0.01,-0.03 0.01,-0.06 0,-0.09 -0.03,-0.13 -0.02,-0.03 -0.06,-0.06 -0.1,-0.08 -0.08,-0.04 -0.18,-0.03 -0.26,0.01 -0.06,0.02 -0.13,0.09 -0.13,0.18 0,0.04 0.02,0.09 0.04,0.12l0.05 0.09c0.03,0.05 0.02,0.06 -0.01,0.11 -0.01,0.01 -0.02,0.02 -0.03,0.03 0,0 0,0 0,0.01 -0.01,0 -0.02,0.01 -0.02,0.02 0,0 0,0.01 0.01,0.01 0,0 0.16,0 0.18,0l0.12 0c0.04,0 -0.01,-0.01 0.08,-0.04 0.02,-0.01 0.04,-0.01 0.06,-0.01 0.06,-0.01 0.07,-0.05 0.04,-0.09l0 0z"/>
    <path class="fil3 str1" d="M1.38 1.79l0 0c0.01,-0.01 0.01,-0.01 0.01,-0.02 0,-0.01 0.02,-0.01 0.01,-0.02 0,-0.01 0,-0.02 0,-0.03 0,0 0,0 0.01,0 0.01,-0.01 0.02,-0.02 0.02,-0.04 0,-0.01 -0.02,-0.04 -0.02,-0.05 -0.01,-0.02 -0.02,-0.03 -0.03,-0.05 -0.01,-0.01 -0.01,-0.01 -0.01,-0.03 0.01,-0.06 0,-0.08 -0.03,-0.13 -0.02,-0.03 -0.06,-0.06 -0.1,-0.08 -0.08,-0.03 -0.18,-0.03 -0.26,0.01 -0.06,0.03 -0.13,0.1 -0.13,0.18 0,0.04 0.02,0.09 0.04,0.12l0.05 0.1c0.03,0.04 0.03,0.05 -0.01,0.1 -0.01,0.01 -0.02,0.02 -0.02,0.03 -0.01,0 -0.01,0.01 -0.01,0.01 -0.01,0.01 -0.02,0.02 -0.02,0.02 0,0.01 0,0.01 0.01,0.02 0,0 0.16,0 0.18,0l0.12 0c0.04,0 -0.01,-0.01 0.08,-0.04 0.02,-0.01 0.04,-0.01 0.06,-0.02 0.06,-0.01 0.08,-0.04 0.05,-0.08l0 0z"/>
    <path class="fil4 str1" d="M1.87 1.3l0.01 0c0.01,0 0.01,-0.01 0.01,-0.02 0,0 0.01,-0.01 0.01,-0.02 0,-0.01 -0.01,-0.02 -0.01,-0.03 0.01,0 0.01,0 0.02,0 0.01,-0.01 0.02,-0.02 0.02,-0.04 0,-0.01 -0.02,-0.04 -0.03,-0.05 -0.01,-0.02 -0.01,-0.03 -0.02,-0.05 -0.01,-0.01 -0.01,-0.01 -0.01,-0.03 0.01,-0.05 0,-0.08 -0.03,-0.13 -0.02,-0.03 -0.06,-0.06 -0.1,-0.07 -0.09,-0.04 -0.19,-0.04 -0.27,0 -0.05,0.03 -0.12,0.1 -0.12,0.18 0,0.04 0.02,0.09 0.03,0.12l0.06 0.1c0.03,0.04 0.02,0.05 -0.01,0.1 -0.01,0.01 -0.02,0.02 -0.03,0.03 0,0.01 0,0.01 -0.01,0.01 0,0.01 -0.01,0.02 -0.01,0.02 0,0.01 0,0.01 0,0.02 0.01,0 0.17,0 0.18,0l0.13 0c0.04,0 -0.01,-0.01 0.07,-0.04 0.03,-0.01 0.05,-0.01 0.07,-0.02 0.06,-0.01 0.07,-0.04 0.04,-0.08l0 0z"/>
   </g>
  </g>
 </g>
</svg>
