<?xml version="1.0" encoding="UTF-8"?>
<!DOCTYPE svg PUBLIC "-//W3C//DTD SVG 1.1//EN" "http://www.w3.org/Graphics/SVG/1.1/DTD/svg11.dtd">
<!-- Creator: CorelDRAW 2021 (64 Bit) -->
<svg xmlns="http://www.w3.org/2000/svg" xml:space="preserve" width="330px" height="330px" version="1.1" style="shape-rendering:geometricPrecision; text-rendering:geometricPrecision; image-rendering:optimizeQuality; fill-rule:evenodd; clip-rule:evenodd"
viewBox="0 0 26.32 26.32"
 xmlns:xlink="http://www.w3.org/1999/xlink"
 xmlns:xodm="http://www.corel.com/coreldraw/odm/2003">
 <defs>
  <style type="text/css">
   <![CDATA[
    .str2 {stroke:black;stroke-width:0.8;stroke-miterlimit:22.9256}
    .str1 {stroke:#B8B6B6;stroke-width:0.8;stroke-miterlimit:22.9256}
    .str0 {stroke:#B8B4B6;stroke-width:2.39;stroke-miterlimit:22.9256}
    .str4 {stroke:#8A6B29;stroke-width:0.08;stroke-miterlimit:22.9256}
    .str5 {stroke:black;stroke-width:0.4;stroke-linecap:round;stroke-miterlimit:22.9256}
    .str3 {stroke:black;stroke-width:0.08;stroke-miterlimit:22.9256;stroke-dasharray:0.160000 0.240000}
    .fil2 {fill:none}
    .fil4 {fill:#8A6B29}
    .fil1 {fill:#98FEFE}
    .fil3 {fill:#DEB260}
    .fil0 {fill:white}
   ]]>
  </style>
 </defs>
 <g id="Camada_x0020_1">
  <metadata id="CorelCorpID_0Corel-Layer"/>
  <g id="_2713504619136">
   <path class="fil0 str0" d="M2.27 1.2l21.81 0c0.58,0 1.05,0.53 1.05,1.2l0 21.53c0,0.66 -0.47,1.2 -1.05,1.2l-21.81 0c-0.58,0 -1.05,-0.54 -1.05,-1.2 0,-2.59 -0.04,-20.86 -0.02,-21.79 0.01,-0.52 0.64,-0.94 1.07,-0.94z"/>
   <g>
    <polygon class="fil1" points="17.58,5.52 9.2,5.53 9.24,20.76 12.89,20.79 12.89,8.93 "/>
    <polyline class="fil2 str1" points="8.61,20.21 8.61,4.89 18.87,4.89 "/>
    <polyline class="fil2 str2" points="8.96,20.8 8.97,5.33 18.7,5.32 "/>
    <polygon class="fil3 str2" points="18.49,17.65 13.13,22.81 13.14,9.07 18.49,5.15 "/>
    <line class="fil2 str3" x1="13.75" y1="9.88" x2="18.03" y2= "6.75" />
    <line class="fil2 str3" x1="13.76" y1="10.96" x2="18.04" y2= "7.83" />
    <line class="fil2 str3" x1="13.74" y1="12.06" x2="18.02" y2= "8.93" />
    <line class="fil2 str3" x1="13.76" y1="13.13" x2="18.04" y2= "10" />
    <line class="fil2 str3" x1="13.68" y1="14.27" x2="17.96" y2= "11.14" />
    <line class="fil2 str3" x1="13.59" y1="18.44" x2="17.87" y2= "15.31" />
    <line class="fil2 str3" x1="13.66" y1="20.44" x2="17.71" y2= "16.99" />
    <line class="fil2 str3" x1="13.68" y1="16.82" x2="17.96" y2= "13.69" />
    <polygon class="fil4 str4" points="13.7,14.79 13.72,16.44 14.19,16.08 14.15,14.46 "/>
    <line class="fil2 str5" x1="13.94" y1="15.45" x2="14.69" y2= "14.96" />
   </g>
  </g>
 </g>
</svg>
