<?xml version="1.0" encoding="UTF-8"?>
<!DOCTYPE svg PUBLIC "-//W3C//DTD SVG 1.1//EN" "http://www.w3.org/Graphics/SVG/1.1/DTD/svg11.dtd">
<!-- Creator: CorelDRAW 2021 (64 Bit) -->
<svg xmlns="http://www.w3.org/2000/svg" xml:space="preserve" width="400px" height="400px" version="1.1" style="shape-rendering:geometricPrecision; text-rendering:geometricPrecision; image-rendering:optimizeQuality; fill-rule:evenodd; clip-rule:evenodd"
viewBox="0 0 2.53 2.53"
 xmlns:xlink="http://www.w3.org/1999/xlink"
 xmlns:xodm="http://www.corel.com/coreldraw/odm/2003">
 <defs>
  <style type="text/css">
   <![CDATA[
    .str0 {stroke:#B8B4B6;stroke-width:0.19;stroke-miterlimit:22.9256}
    .str1 {stroke:black;stroke-width:0.01;stroke-miterlimit:22.9256}
    .str2 {stroke:black;stroke-width:0.01;stroke-miterlimit:22.9256}
    .fil2 {fill:none}
    .fil1 {fill:black}
    .fil3 {fill:aqua}
    .fil6 {fill:#999999}
    .fil4 {fill:#99FFFF}
    .fil0 {fill:white}
    .fil7 {fill:black;fill-rule:nonzero}
    .fil5 {fill:#999999;fill-rule:nonzero}
   ]]>
  </style>
 </defs>
 <g id="Camada_x0020_1">
  <metadata id="CorelCorpID_0Corel-Layer"/>
  <g id="_2069518530080">
   <path class="fil0 str0" d="M0.2 0.09l2.13 0c0.06,0 0.1,0.06 0.1,0.12l0 2.11c0,0.06 -0.04,0.11 -0.1,0.11l-2.13 0c-0.06,0 -0.1,-0.05 -0.1,-0.11 0,-0.26 -0.01,-2.04 0,-2.13 0,-0.05 0.06,-0.1 0.1,-0.1z"/>
   <g>
    <g>
     <g>
      <path class="fil1" d="M1.06 1.33l1.02 0 0 -1.01 -1.02 0 0 1.01zm0 -1.01l0.04 -0.05 0.25 0 0.03 0.05 -0.32 0z"/>
      <path id="_1" class="fil2 str1" d="M1.06 1.33l1.02 0 0 -1.01 -1.02 0 0 1.01zm0 -1.01l0.04 -0.05 0.25 0 0.03 0.05"/>
     </g>
     <rect class="fil3 str1" x="1" y="0.38" width="1.02" height="1.01"/>
     <polygon class="fil4 str1" points="1.06,0.38 1,0.38 1.06,0.32 "/>
     <polygon class="fil4 str1" points="2.02,1.33 2.08,1.33 2.02,1.38 "/>
     <polygon class="fil4 str2" points="2.02,1.38 2.02,0.38 2.08,0.32 2.08,1.33 "/>
     <g>
      <path class="fil1" d="M0.77 1.45l1.02 0 0 -1.01 -1.02 0 0 1.01zm0 -1.01l0.04 -0.05 0.24 -0.01 0.04 0.06 -0.32 0z"/>
      <path id="_1_0" class="fil2 str1" d="M0.77 1.45l1.02 0 0 -1.01 -1.02 0 0 1.01zm0 -1.01l0.04 -0.05 0.24 -0.01 0.04 0.06"/>
     </g>
     <rect class="fil3 str1" x="0.71" y="0.5" width="1.02" height="1.01"/>
     <polygon class="fil4 str1" points="0.77,0.5 0.71,0.5 0.77,0.44 "/>
     <polygon class="fil4 str1" points="1.72,1.45 1.79,1.45 1.72,1.5 "/>
     <polygon class="fil4 str2" points="1.72,1.5 1.72,0.5 1.79,0.44 1.79,1.45 "/>
     <g>
      <path class="fil1" d="M0.46 1.56l1.02 0 0 -1.01 -1.02 0 0 1.01zm0 -1.01l0.04 -0.06 0.25 0 0.03 0.06 -0.32 0z"/>
      <path id="_1_1" class="fil2 str1" d="M0.46 1.56l1.02 0 0 -1.01 -1.02 0 0 1.01zm0 -1.01l0.04 -0.06 0.25 0 0.03 0.06"/>
     </g>
     <rect class="fil3 str1" x="0.4" y="0.6" width="1.02" height="1.01"/>
     <polygon class="fil4 str1" points="0.46,0.6 0.4,0.6 0.46,0.55 "/>
     <polygon class="fil4 str1" points="1.42,1.56 1.48,1.56 1.42,1.61 "/>
     <polygon class="fil4 str2" points="1.42,1.61 1.42,0.6 1.48,0.55 1.48,1.56 "/>
    </g>
    <g>
     <path class="fil5" d="M0.34 1.74l0.17 0c0.04,0 0.07,0 0.09,0.01 0.03,0 0.05,0.02 0.07,0.04 0.02,0.02 0.04,0.05 0.05,0.08 0.01,0.03 0.01,0.07 0.01,0.11 0,0.04 0,0.07 -0.01,0.1 -0.01,0.04 -0.03,0.06 -0.05,0.09 -0.02,0.01 -0.04,0.03 -0.07,0.03 -0.02,0.01 -0.05,0.01 -0.08,0.01l-0.18 0 0 -0.47zm0.09 0.08l0 0.31 0.07 0c0.03,0 0.05,0 0.06,0 0.02,0 0.03,-0.01 0.04,-0.02 0.01,-0.01 0.02,-0.03 0.03,-0.05 0,-0.02 0,-0.05 0,-0.08 0,-0.04 0,-0.07 0,-0.09 -0.01,-0.02 -0.02,-0.03 -0.03,-0.05 -0.01,-0.01 -0.03,-0.01 -0.05,-0.02 -0.01,0 -0.04,0 -0.08,0l-0.04 0z"/>
     <path id="_1_2" class="fil5" d="M0.98 1.98c0,-0.05 0.01,-0.09 0.02,-0.12 0.01,-0.03 0.03,-0.05 0.05,-0.07 0.02,-0.02 0.04,-0.03 0.06,-0.04 0.03,-0.02 0.06,-0.02 0.1,-0.02 0.07,0 0.13,0.02 0.17,0.06 0.04,0.05 0.06,0.11 0.06,0.19 0,0.07 -0.02,0.13 -0.06,0.18 -0.04,0.04 -0.1,0.06 -0.17,0.06 -0.07,0 -0.12,-0.02 -0.17,-0.06 -0.04,-0.05 -0.06,-0.11 -0.06,-0.18zm0.1 0c0,0.05 0.01,0.09 0.04,0.12 0.02,0.03 0.05,0.04 0.09,0.04 0.04,0 0.07,-0.01 0.1,-0.04 0.02,-0.03 0.04,-0.07 0.04,-0.13 0,-0.05 -0.02,-0.09 -0.04,-0.12 -0.03,-0.03 -0.06,-0.04 -0.1,-0.04 -0.04,0 -0.07,0.01 -0.09,0.04 -0.03,0.03 -0.04,0.07 -0.04,0.13z"/>
     <path id="_2" class="fil5" d="M2.01 2.04l0.09 0.03c-0.01,0.05 -0.04,0.09 -0.07,0.11 -0.03,0.03 -0.07,0.04 -0.13,0.04 -0.06,0 -0.11,-0.02 -0.15,-0.06 -0.04,-0.05 -0.06,-0.11 -0.06,-0.18 0,-0.08 0.02,-0.14 0.06,-0.19 0.04,-0.04 0.09,-0.06 0.16,-0.06 0.06,0 0.11,0.02 0.14,0.05 0.02,0.02 0.04,0.05 0.05,0.09l-0.09 0.02c-0.01,-0.02 -0.02,-0.04 -0.04,-0.06 -0.02,-0.01 -0.04,-0.02 -0.06,-0.02 -0.04,0 -0.07,0.01 -0.09,0.04 -0.02,0.02 -0.03,0.07 -0.03,0.12 0,0.06 0.01,0.11 0.03,0.13 0.02,0.03 0.05,0.04 0.08,0.04 0.03,0 0.05,-0.01 0.07,-0.02 0.02,-0.02 0.03,-0.05 0.04,-0.08z"/>
     <polygon id="_3" class="fil6" points="0.29,2.27 2.14,2.27 2.14,2.31 0.29,2.31 "/>
     <path class="fil7" d="M0.4 1.7l0.18 0c0.04,0 0.07,0.01 0.09,0.01 0.03,0.01 0.05,0.03 0.07,0.05 0.02,0.02 0.03,0.04 0.05,0.07 0.01,0.03 0.01,0.07 0.01,0.12 0,0.04 0,0.07 -0.01,0.1 -0.02,0.03 -0.03,0.06 -0.05,0.08 -0.02,0.02 -0.04,0.03 -0.07,0.04 -0.02,0.01 -0.05,0.01 -0.09,0.01l-0.18 0 0 -0.48zm0.1 0.08l0 0.32 0.07 0c0.03,0 0.05,0 0.06,0 0.01,-0.01 0.03,-0.01 0.04,-0.02 0.01,-0.01 0.02,-0.03 0.02,-0.05 0.01,-0.02 0.01,-0.05 0.01,-0.09 0,-0.03 0,-0.06 -0.01,-0.08 0,-0.02 -0.01,-0.04 -0.03,-0.05 -0.01,-0.01 -0.02,-0.02 -0.04,-0.02 -0.01,0 -0.04,-0.01 -0.08,-0.01l-0.04 0z"/>
     <path id="_1_3" class="fil7" d="M1.05 1.95c0,-0.05 0.01,-0.09 0.02,-0.13 0.01,-0.02 0.03,-0.04 0.04,-0.06 0.02,-0.02 0.04,-0.04 0.07,-0.05 0.03,-0.01 0.06,-0.02 0.1,-0.02 0.07,0 0.13,0.03 0.17,0.07 0.04,0.04 0.06,0.11 0.06,0.18 0,0.08 -0.02,0.14 -0.06,0.18 -0.04,0.05 -0.1,0.07 -0.17,0.07 -0.07,0 -0.13,-0.02 -0.17,-0.07 -0.04,-0.04 -0.06,-0.1 -0.06,-0.17zm0.1 -0.01c0,0.06 0.01,0.1 0.03,0.13 0.03,0.02 0.06,0.04 0.1,0.04 0.04,0 0.07,-0.02 0.09,-0.04 0.03,-0.03 0.04,-0.07 0.04,-0.13 0,-0.05 -0.01,-0.1 -0.03,-0.12 -0.03,-0.03 -0.06,-0.04 -0.1,-0.04 -0.04,0 -0.07,0.01 -0.1,0.04 -0.02,0.03 -0.03,0.07 -0.03,0.12z"/>
     <path id="_2_4" class="fil7" d="M2.08 2l0.09 0.03c-0.01,0.06 -0.04,0.1 -0.07,0.12 -0.04,0.03 -0.08,0.04 -0.13,0.04 -0.06,0 -0.11,-0.02 -0.16,-0.07 -0.04,-0.04 -0.06,-0.1 -0.06,-0.17 0,-0.08 0.02,-0.15 0.07,-0.19 0.04,-0.04 0.09,-0.07 0.16,-0.07 0.06,0 0.1,0.02 0.14,0.06 0.02,0.02 0.04,0.05 0.05,0.08l-0.1 0.03c0,-0.03 -0.01,-0.05 -0.03,-0.06 -0.02,-0.02 -0.04,-0.02 -0.07,-0.02 -0.03,0 -0.06,0.01 -0.08,0.04 -0.03,0.02 -0.04,0.06 -0.04,0.12 0,0.06 0.01,0.1 0.04,0.13 0.02,0.02 0.05,0.04 0.08,0.04 0.03,0 0.05,-0.01 0.07,-0.03 0.01,-0.01 0.03,-0.04 0.04,-0.08z"/>
     <polygon id="_3_5" class="fil1" points="0.35,2.24 2.2,2.24 2.2,2.27 0.35,2.27 "/>
    </g>
   </g>
  </g>
 </g>
</svg>
