<svg fill="#000000" xmlns="http://www.w3.org/2000/svg"  viewBox="0 0 32 32" width="96px" height="96px"><path d="M 5 5 L 5 27 L 27 27 L 27 5 Z M 7 7 L 25 7 L 25 25 L 7 25 Z M 15.09375 9.6875 C 14.265625 9.6875 13.59375 10.359375 13.59375 11.1875 C 13.59375 12.015625 14.265625 12.6875 15.09375 12.6875 C 15.921875 12.6875 16.59375 12.015625 16.59375 11.1875 C 16.59375 10.359375 15.921875 9.6875 15.09375 9.6875 Z M 19 9.6875 C 18.007813 9.6875 17.1875 10.507813 17.1875 11.5 C 17.1875 12.492188 18.007813 13.3125 19 13.3125 C 19.992188 13.3125 20.8125 12.492188 20.8125 11.5 C 20.8125 10.507813 19.992188 9.6875 19 9.6875 Z M 11.8125 10.3125 C 11.148438 10.3125 10.59375 10.835938 10.59375 11.5 C 10.59375 12.164063 11.148438 12.6875 11.8125 12.6875 C 12.476563 12.6875 13 12.164063 13 11.5 C 13 10.835938 12.476563 10.3125 11.8125 10.3125 Z M 11.8125 13.3125 C 10.347656 13.3125 10 14.664063 10 14.96875 L 10 18.09375 L 13 18.09375 L 13 19.90625 L 16 19.90625 L 16 22.3125 L 22 22.3125 C 22 22.3125 22 17.925781 22 17.03125 C 22 16.050781 21.078125 14.3125 19.21875 14.3125 C 17.9375 14.3125 17.417969 14.71875 17 15.03125 C 16.613281 14.359375 15.808594 13.84375 15.09375 13.84375 C 14.375 13.84375 13.828125 14.066406 13.375 14.5 C 13.28125 14.171875 12.84375 13.3125 11.8125 13.3125 Z"/></svg>