<?xml version="1.0" encoding="UTF-8"?>
<!DOCTYPE svg PUBLIC "-//W3C//DTD SVG 1.1//EN" "http://www.w3.org/Graphics/SVG/1.1/DTD/svg11.dtd">
<!-- Creator: CorelDRAW 2021 (64 Bit) -->
<svg xmlns="http://www.w3.org/2000/svg" xml:space="preserve" width="19.0499mm" height="19.1185mm" version="1.1" style="shape-rendering:geometricPrecision; text-rendering:geometricPrecision; image-rendering:optimizeQuality; fill-rule:evenodd; clip-rule:evenodd"
viewBox="0 0 352.89 354.16"
 xmlns:xlink="http://www.w3.org/1999/xlink"
 xmlns:xodm="http://www.corel.com/coreldraw/odm/2003">
 <defs>
  <style type="text/css">
   <![CDATA[
    .fil0 {fill:#0008FB}
    .fil2 {fill:#0581AE}
    .fil8 {fill:#0C0C0C}
    .fil5 {fill:#343434}
    .fil4 {fill:#45C3F0}
    .fil6 {fill:#656365}
    .fil3 {fill:#B7B76F}
    .fil7 {fill:#C9C996}
    .fil1 {fill:#FCFCB3}
   ]]>
  </style>
 </defs>
 <g id="Camada_x0020_1">
  <metadata id="CorelCorpID_0Corel-Layer"/>
  <g id="_2550091572784">
   <path class="fil0" d="M39.45 166.05l1.09 -6.24 0.09 -3.6 0.21 -0.57c1.58,-9.88 5.47,-28.95 11.3,-34.54l-0.22 -1.04 3.01 -5.67 1.67 -4.78 1.69 -0.8c1.55,-5.83 3.6,-7.08 6.34,-13.07 2.3,-0.3 0.19,0.7 2.69,-1.57 0.76,-0.69 1.18,-1.57 2.06,-2.51l1.78 -1.76 1.45 -1.56c2.56,-4.27 5.05,-7.37 9.27,-9.53 1.77,-2.92 3.96,-5.56 7.42,-8.26 1.05,-0.82 3.54,-2.6 4.67,-3.22 5.66,-3.16 0.44,-1.27 5.72,-2.22 -0.73,-2.53 -1.19,-1.75 1.39,-2.33l0.14 -0.9 8.95 -4.47c6.45,-5.42 18.59,-9.62 29.09,-12.58l8.04 -1.87 5.41 -0.53 13.93 -1.47c4.07,-2.11 16.3,-2.12 21.06,-0.07l1.75 -0.39 10.6 1.99 4.8 0.32 3.7 1.28 9.39 2.42 18.87 7.69 9.4 5.42 0.61 0.27 1.88 1.94c2.88,-0.61 2.68,-1.46 1.91,1.19 5.19,1.5 3.59,1.32 8.01,4.52 1.73,1.26 2.26,1.35 3.8,2.52 2.86,2.18 1.75,1.35 3.35,3.35l0.97 0.26 9.27 9.58 1.66 1.32 1.66 1.29 3.71 4.66c0.17,0.22 2.08,2.56 2.64,3.42 1.66,2.54 0.04,-0.29 1.78,3.37 3.43,3.63 5.33,5.94 6.99,11.66l1.48 2.07 0.3 0.11 1.88 3.49 1.3 1.46 0.34 1.9 2.15 4.26 5.54 13.75c1.65,6.12 3.21,9.95 2.61,16.61 1.9,0.65 1.09,-2.8 1.77,3.32l0.39 2.05 0.54 5.14 -0.49 1.24c2.47,6.75 1.92,19.49 0.08,27.29l-0.77 7.5 -0.71 4.75 -3.14 12.44 -3.1 8.17 -9.72 22.24c-7.19,10.44 -14.39,21.56 -24.22,28.58l-3.13 3.09 -1.69 1.91c-1.37,3.06 0.17,0.88 -2.42,1.78 -2.06,2.12 -4.63,4.45 -7.76,6.61l-1.92 0.89 -2.17 1.56c-4.16,3.62 -1.76,1.98 -6.13,3.13l-9.97 6.71 -5.35 2.12 -11.06 4.15 -6.67 1.94 -9.96 2.6 -5.31 0.23 -23.69 2.01 -5.01 -0.26 -13.74 -2.09 -4.46 0.16 -2.92 -1.14 -8.1 -1.57 -1.74 -0.78 -14.72 -5.44 -5.89 -1.79 -9.61 -6.44 -5.44 -3.48c-5.18,-2.6 -7.22,-2.64 -10.68,-7.43l-1.74 -1.49c-5.95,-2.51 -11.91,-7.65 -14.43,-13.26 -1.59,-1.23 -1.27,-0.74 -2.78,-2.38 -0.2,-0.21 -1.85,-2.49 -2.04,-2.76 -1.68,-2.4 -2.27,-3.5 -3.98,-5.98l-0.81 -0.24c-1.88,-3.11 -2.85,-4.68 -4.55,-7.51l-0.97 0.15 -7.98 -17.26c-5.06,-5.69 -9.45,-25.56 -11.25,-35.09l-0.16 -2.39 -0.77 -6.74 -0.21 -22.83zm128.2 -166.05l16.83 0c20.99,1.04 42.39,5.99 63.78,15.23 29.15,12.59 41.83,26.25 61.91,46.31 3.87,3.86 6.78,7.94 9.78,12.18 19.82,28.08 31.08,60.92 32.94,94.32l0 19.64c-1.28,23.07 -7.1,46.02 -17.75,67.47 -23.09,46.51 -68.89,84.02 -120.37,94.49 -30.96,6.3 -30.69,4.6 -57.88,3.2 -55.53,-2.85 -113.35,-46.19 -139.11,-97.72 -16.72,-33.44 -17.77,-52.84 -17.77,-88.88 0,-43.12 21.01,-76.85 44.81,-107.32 3.52,-4.51 5.51,-7.02 9.7,-10.69 33.3,-29.18 72.17,-46.18 113.14,-48.24z"/>
   <path class="fil1" d="M58.31 108.81l-1.69 0.8 -1.67 4.78c7.18,2.75 14.64,-0.29 16.65,8.62 2.2,9.78 -4.91,11.25 -9.61,15 4.2,2.94 3.07,3.33 6.18,7.04 2.65,3.15 2.22,2.1 4.06,3.86 2.88,2.76 2.3,0.69 3.79,4.68 -5.98,-0 -17.54,2.88 -22.04,-17.15l8.79 -5.8 0.14 -10.97 -10.98 0.38 0.22 1.04c-0.37,7.15 0.35,14.85 -0.26,21.7 -0.83,9.4 -3.99,9.84 -11.04,12.84l-0.21 0.57 26.63 0.35c10.64,12.2 2.91,15.69 -5.29,22.23 7.79,5.44 3.88,11.03 16.18,12.41 -0.35,-5.74 0.51,-12.56 7.31,-9.81 7.6,3.07 -2.27,6.84 8.33,6.87l-0.56 -24.64c-1.54,-6.86 -1.89,1.78 -1.87,-6.29 8.7,-0.15 22.48,-1.94 27.64,3 7.44,7.14 1.72,14.14 -4.52,18.62l-1.98 1.41c2,3.09 3.41,6.09 5.95,8.7 4.84,4.98 5.75,1.69 7.7,6.3 -12.74,2.28 -19.57,-5.82 -22.73,-16.57 5.22,-3.71 9.42,-2.25 10.17,-9.51 0.82,-8 -4.7,-8.29 -11.49,-7.44 -0.08,8.91 1.62,21.45 -1.36,29.21l1.06 1.87 2.1 1.06c2.59,-0.52 2.18,-1.23 2.03,1.15 2.5,-0.38 1.99,-0.91 1.56,1.59 2.8,-0.5 2.55,-1.28 1.76,1.31 6.83,1.26 11.19,3.35 11.27,10.63 0.09,7.71 -5.31,9.01 -9.49,12.47 6.62,10.42 10.93,10.85 14.94,15.19 5.16,-5.74 4.21,-32.23 3.51,-40.29 -1.25,-14.28 0.72,-29.61 -0.11,-44.55 -3.65,1.03 -1.93,-0.09 -5.08,1.75l-11.04 0.13c-3.18,-6.3 -7.35,-9.21 -9.09,-16.93 0.33,-0.31 0.88,-1.16 1.06,-0.84 0.18,0.31 0.81,-0.64 1.06,-0.81l6.67 -4.16 0.14 -10.97 -10.94 -0.56c-0.29,14.1 3.91,32.09 -8.93,35.36 -20.31,5.19 -17.88,-22.61 -4.9,-13.93 0.68,5.67 -0.05,5.72 -4.08,7.4 2.8,2.07 4.68,2.05 8.74,1.27l0.64 -26.65c-1.22,-6.49 0.15,-0.25 -3.14,-6.86l26.95 -0.19c2.8,4.36 6.18,8.52 3.35,15.88 -2.91,4.51 -1.67,3.2 -7.38,5.31 2.83,8.14 4.12,11 10.5,12.98l4.37 -6.81c0.19,-0.34 0.49,-0.89 0.79,-1.3l-0.2 0.48 -0.31 -33.62c-4.41,5.64 -7.5,8.95 -17.79,5.96 -4.28,-2.18 -0.03,-1.88 -6.7,-1.32 -10.63,-0.57 -9.34,1.47 -14.15,-5.36 -3.39,-4.81 -4.77,-6 -6.13,-12.04l9.25 -5.82 -0.79 -11.21 -10.34 0.16c-0.41,7.89 1.69,24.83 -2.29,30.59 -4.74,6.87 -16.9,5.96 -21.3,-0.59zm46.61 119.12l-3.87 2.45c-0.28,0.37 -0.66,0.5 -0.82,1.13l-3.39 3.41c-2.6,2.2 -1.54,0.67 -3.93,3.56 5.36,2.46 8.94,4.07 15.5,4.21l14.95 -4.89 -4.38 -0.85c-4.72,-0.86 -1.84,1.01 -6.06,-1.74 -4.68,-3.05 -0.38,-3.98 -8.01,-7.29z"/>
   <path class="fil1" d="M253.66 113.62l1.17 0.88c0.32,0.22 0.77,0.47 1,0.57l2.21 0.96c0.38,0.13 0.81,0.25 1.22,0.37 8.96,2.75 14.73,2.52 9.85,19.57l-9.35 3.27c4.04,-0.05 3.5,2.98 11.61,11.19 3.23,3.27 2.22,0.43 3.5,5.23l-11.18 -0.87c-0.59,-0.82 -3.97,-6.13 -4.36,-6.5 -3.33,-3.21 -2.22,-3.04 -5.48,-0.86l-1.1 6.47c0.34,4.54 -1.33,0.79 1.3,3.47 22.21,0.1 22.57,16.7 5.7,22.65 4.26,-0.05 4.27,3.31 7.57,7.39 4.66,5.75 6.07,3.47 7.87,8.59 -9.29,-0.02 -17.96,-0.68 -22.81,-17.19 5.22,-3.71 9.42,-2.25 10.17,-9.51 0.82,-8 -4.7,-8.29 -11.49,-7.44 -0.26,27.78 3.59,27.62 -9.81,35.83 9.41,0.95 23.49,-1.72 28.07,5.15 6.16,9.24 -2.07,15.32 -9.58,17.96 2.88,-0.03 14.7,14.75 15.06,15.96 -9.55,-0 -10.27,0.76 -15.36,-5.37 -3.65,-4.39 -5.56,-6.71 -7.06,-11.81 5.22,-3.71 9.42,-2.25 10.17,-9.51 0.82,-8 -4.7,-8.29 -11.49,-7.44 -0.13,13.52 1.9,22.4 -3.34,33.61 2.83,6.92 8.84,14.01 15.75,16.05 4.45,-8.38 -1.2,-7.42 -1.18,-13.22l18.62 -1.84c-2.85,-2.35 -1.26,-0.45 -2.94,-2.49 -1.51,-1.83 -2.62,-3.37 -2.05,-7.16 0.96,-6.39 6.15,-6.46 10,-3.88 0.68,5.67 -0.06,5.72 -4.08,7.4 2.8,2.07 4.68,2.05 8.74,1.27l0.56 -26.64c-1.54,-9.37 -0.29,2.79 -2.05,-6.01 6.49,-2.13 15.3,-1.39 22.47,-0.52l0.77 -7.5c-4.95,-2.57 -7.73,-7.41 -9.01,-12.88l2.09 -1.69c6.68,-4.3 6.52,-0.83 6.83,-12.72l0.49 -1.24 -11.43 -1.28c-0.28,13.51 4.05,33.02 -9.96,35.43 -19.39,3.33 -16.49,-22.84 -3.85,-14.39 0.68,5.68 -0.05,5.73 -4.08,7.4 2.8,2.07 4.69,2.05 8.74,1.27 1.14,-5.16 0.82,-11.3 0.87,-17.52 0.12,-14.97 -0.51,-9.74 -3.37,-16.35l22.56 0.29 -0.39 -2.05 -1.77 -3.32 -3.23 -3.02c-4.91,-5.65 -4.55,-6.23 -5.2,-12.16l5.82 -1.44 -5.54 -13.75c-2.4,2.81 -1.25,0.48 -2.13,4.87l0.07 14.11c-0.05,7.9 -1.8,11.63 -5.19,15.5 -5.36,3.23 -24.12,0.64 -18.19,-11.86 1.84,-3.88 7.44,-4.45 9.22,-1.1 2.85,5.38 -3.21,3.07 -2.03,9.41l7.06 -0.8c3.71,-19.05 -1.74,-30.88 -1.71,-34.28l10.76 -0.12 -0.34 -1.9 -1.3 -1.46c-4.85,-0.24 -16.91,2.74 -21.43,-17.4 0.34,-0.32 0.84,-0.63 1.1,-0.84l3.01 -2.59c2.04,-2.12 0.56,0.29 2.25,-3.29l-3.71 -4.66 -1.66 -1.29 -1.66 -1.32c-0.96,1.57 -0.55,0.13 -1.15,3.35l-0.19 9.05c0.24,12.08 -0.23,24.5 -21.02,17.97z"/>
   <path class="fil2" d="M142.8 161.24c2.35,5.33 1.38,25.39 0.38,30.67l-8.6 -0.14c0.22,-0.39 0.59,-0.84 0.76,-1.09 0.16,-0.25 0.54,-0.77 0.73,-1.07 1.99,-3.12 2.14,-1.66 2.75,-6.1l-5.69 -4.71c-0.09,-4.09 -0.22,-8.53 -0.16,-12.61l1.92 -10.22c4.15,0.51 2.47,-0.25 5.21,1.63l2.71 3.63zm-9.37 -10.2c-1.13,8.32 -2.3,65.03 -0.78,70.58l0.41 8.41c5.39,-2.41 1.53,0.48 4.45,-2.52 -0.88,-4.6 -0.88,-4.25 -4.86,-5.89l0.37 -25.52c4.42,0.78 1.27,-0.49 3.84,0.96l5.11 7.28 -0.37 28 -8.18 0.66c-2.05,2.87 -3.2,4.38 -6.37,7.17 -2.58,2.27 -4.83,2.99 -8.87,4.56l-1.63 26.99 -8.64 -0.26c1.75,-4.36 4.47,-1.74 3.97,-8.58 -7.94,-5.29 -10.14,-0.41 -9.87,8.83l0.71 2.57 2.48 -1.35c10.27,-2.05 -5.52,0.07 2.88,-0.48 0.78,-0.05 6.99,0.39 8.5,0.39l-0.04 -1.12 8.13 -0.21 1.26 -29.32 10.2 -0.43 0.77 11.19c-3.54,2.42 -0.52,0.02 -4.04,2.14 -0.29,0.17 -0.71,0.38 -1.02,0.57 -0.32,0.2 -0.73,0.43 -1.05,0.64 -2.51,1.69 -1.42,0.79 -3.19,2.5l4.71 10.66 2.9 -1.38 6.06 -1.57 1.16 -1.34c-5.71,-0.94 -0.95,1.21 -6.1,-3.15 3.42,-8.73 17.12,-7.32 4.78,-23.61 6.62,-4.07 8.75,-2.68 9.64,-12.47 0.64,-7.02 -0.1,-15.83 0.07,-23.21l10.4 -0.12c1.03,4.23 2.11,7.1 -0.55,11.18 -1.92,2.94 -1.47,1.28 -6.89,4.99 -0.27,0.18 -0.77,0.5 -1.09,0.82 2.42,10.63 7.55,9.3 9.24,18.94l2.74 -14.48 -3.6 -2.48 3.61 -2.02 -0.11 -0.91 0.08 -19.24 -20.87 -1.61c12.39,-10.11 8.05,-12.15 8.62,-35.84 10.29,-1.4 11.94,0.99 10.59,11.02l-8.72 5.84c1.62,7.15 5.11,11.9 10.36,15.85l0.16 -10.21 0.17 -6.42 -0.25 -19.84 0.04 -0.95 -22.44 -0.32c12.27,-9.26 7.94,-11.8 8.52,-35.74 9.7,-1.26 8,0.12 11.11,1.52l-0.41 9.49 -8.83 5.84c1.77,7.77 6.85,13.2 11.95,17.41l-0.18 -10.19 0.36 -2.38 -3.6 -3.82 3.46 -1.06 -0.48 -27.26 -4.54 -0.51c2.17,-3.53 -0.14,-0.64 2.31,-3.08 0.89,-0.89 1.85,-1.16 2.8,-1.74l0.22 -4.28c-5.06,-1.84 -10.03,-3.32 -10.8,4.08 -0.74,7.14 5.18,10.54 5.3,10.32 0.17,-0.3 0.75,0.46 1.1,0.88l-20.73 0.02c0.16,9.28 2.66,-3.3 2.53,16.87 -0.04,6.19 0.27,12.26 -0.78,17.75l-8.18 0.01z"/>
   <path class="fil3" d="M40.54 159.81l-1.09 6.24 1.09 -6.24c4.39,1.44 3.14,-3.07 3.07,14.28 -0.07,18.66 -0.51,16.06 -3.96,14.78l0.77 6.74c15.67,-3.6 11.03,-11.47 11.55,-35.74l10.93 0.58 -0.14 10.97 -7.73 4.99c-0.18,-0.32 -0.73,0.51 -1.06,0.81 1.36,6.06 2.85,7.36 6.17,12 6.25,8.72 2.34,2.27 10.08,6.33l5.04 -2.77c3.94,2.57 0.95,-1.63 1.57,2.83l1.03 -1.2 0.29 -3.21 15.58 -1.06 1.93 0.16c4.74,1.94 1.9,0.85 5.06,0.76 -0.49,2.64 -1.3,2.45 1.06,1.87l2.1 1.06 2.03 1.15 -0.1 2.58 1.66 -0.99c-0.46,2.5 -0.85,1.84 1.76,1.31l-0.25 1.94 2.18 14.54c-0.64,6.24 -3.81,10.42 -6.27,13.4 7.63,3.31 3.33,4.24 8.01,7.29 4.22,2.75 1.34,0.89 6.06,1.74l4.38 0.85 2.61 -1.47c-4.01,-4.34 -8.32,-4.77 -14.94,-15.19 4.18,-3.46 9.58,-4.76 9.49,-12.47 -0.08,-7.28 -4.44,-9.37 -11.27,-10.63 0.79,-2.59 1.03,-1.82 -1.76,-1.31 0.43,-2.49 0.95,-1.96 -1.56,-1.59 0.15,-2.38 0.56,-1.67 -2.03,-1.15l-2.1 -1.06 -1.06 -1.87c2.98,-7.76 1.28,-20.3 1.36,-29.21 6.78,-0.85 12.31,-0.56 11.49,7.44 -0.75,7.26 -4.95,5.8 -10.17,9.51 3.16,10.75 9.99,18.85 22.73,16.57 -1.94,-4.61 -2.85,-1.32 -7.7,-6.3 -2.54,-2.61 -3.95,-5.61 -5.95,-8.7l1.98 -1.41c6.24,-4.47 11.96,-11.47 4.52,-18.62 -5.15,-4.94 -18.94,-3.15 -27.64,-3 -0.02,8.08 0.33,-0.56 1.87,6.29l0.56 24.64c-10.6,-0.03 -0.72,-3.8 -8.33,-6.87 -6.81,-2.75 -7.66,4.07 -7.31,9.81 -12.3,-1.38 -8.4,-6.97 -16.18,-12.41 8.2,-6.55 15.93,-10.03 5.29,-22.23l-26.63 -0.35 -0.09 3.6z"/>
   <path class="fil1" d="M168.35 115.08l-0.03 4.98c4.8,4.91 4.08,9.53 -0.22,15.58l-0.26 12.15 -0.04 1.18c3.76,2.25 5.52,1.88 6.98,5.88l-7 0.32 0.17 4.24c6.3,6.36 5.99,11.56 -0.24,17.61l-0.1 9.63 0.26 1.26 3.08 3.81 3.6 0.12c4.63,-0.21 2.72,0.49 2.57,-5.1l-5.22 0.22c1.54,-14.42 9.59,-15.53 20.81,-20.75 -1.27,-10.05 -2.48,-0.31 -2.58,-8.93 15.84,-0.03 14.71,1.54 21.73,-3.8l-0.42 -2.1c-2.54,-3.58 -7.67,-10.6 -8.8,-14.9 5.01,-4.77 9.05,-1.81 9.91,-9.84 0.78,-7.33 -4.76,-7.73 -11.55,-7.47 -0.49,20.79 3.45,45.56 -23.3,32.43l0.01 -9.35c2.03,-2.58 1.11,-2.07 4.22,-4.13 4.09,0.96 3.58,1.19 5.85,3.08 -0.79,5.38 0.37,1.13 -1.54,4.3 -3.53,5.87 2.87,-4.1 -1.35,1.62 -0.12,0.17 -0.55,1.12 -0.64,0.88 -0.09,-0.24 -0.44,0.58 -0.67,1.29l7.68 0.21c2.06,-4.93 1.37,-11.18 1.42,-17.76 0.11,-16.52 -1.52,-9.64 -3.42,-16.01l26.99 0.72 -0.11 0.95 -1.72 -2.41 -9.93 -1.33c-1.9,-3.88 -3.78,-6.99 -1.1,-12.71 -2.93,-0.07 -3.19,2 -2.19,-1.19l-13.15 -1.46c3.88,8.04 7.78,9.3 10.51,12.09 2.67,2.72 1.33,0.2 2.55,4.32 -10.32,-0 -9.58,1.5 -14.33,-5.07 -2.59,-3.59 -5.35,-6.26 -7.18,-11.01l-2.11 -0.3c-0.39,10.59 0.15,13.87 -9.15,16.8z"/>
   <path class="fil1" d="M162.78 244.36l-6.28 12.2 -1.49 1.85 -1.2 1.99c-1.89,2.41 -0.03,0.64 -2.26,2.56 -2,1.72 -0.24,0.22 -3.13,1.84l-2 1.7 -2.44 3.25c6.99,5.52 3.48,-0.46 5.46,7 -9.13,-1.69 -8.13,1.25 -13.26,-4.34l-13.73 2.62 -5.41 0.49 -4.81 3.33c5.06,1.73 9.05,3.81 8.26,11.08 -1.03,9.42 -6.2,3.89 -3.64,11.22l5.89 1.79 9 -1.04c2.76,3.39 2.27,3.58 5.73,6.49l1.74 0.78c0.08,-5.31 0.14,-10.68 0.14,-15.99 0.01,-11.66 -1.62,-9.74 -2.37,-13.55 6,-2.05 18.57,-1.49 24.29,-0.43 3.45,0.64 8.27,5.37 5.69,13.21 -1.77,5.38 -5.38,5.57 -9.32,8.72 4.49,3.14 7.48,8.56 10.78,12.7l5.01 0.26 0.42 -11.62c3.85,-0.77 5.83,-0.64 8.58,1.2 0.82,6.78 0.71,1.54 -1.04,4.88l-2.15 2.99c-0.12,-0.27 -0.6,0.66 -0.82,1.04 11.56,1.24 9.72,-1.79 9.55,-12.95 -0.09,-5.88 0.86,-13.9 -1.35,-18.22 -5.09,-3.15 1.66,0.52 -2.53,-7.29l-3.25 -4.67c-2.47,-3.81 -1.38,-1.47 -2.5,-5.69 -0.5,0.44 -1.1,0.93 -1.52,1.32l-3.71 3.79c-0.47,10.4 -13.38,12.54 -19.48,7.76 -7.37,-5.78 -2.6,-18.49 6.84,-12.18 0.68,5.68 -0.05,5.72 -4.08,7.4 2.8,2.07 4.68,2.05 9.26,1.27l0.27 -28.46c-2.14,-1.93 0.35,-1.84 -3.16,-0.31z"/>
   <path class="fil3" d="M249.25 158.92l-3.14 7.14c-1.47,2.55 -1.79,3.16 -3.3,5.18 -0.07,9.83 3.26,27.35 -9.74,19.18 4.63,-1.79 3.42,-1.55 5.29,-5.88l-5.61 -5.01 -4.41 1.56c-4.87,19.76 6.09,10.66 12.14,18.89 2.36,3.2 2.4,7.63 2.42,13.28 0.02,4.58 0.43,10.84 -1.8,14.56 0.58,-2.17 0.85,-1.46 -1.6,-1.46l1.6 1.46c1.01,2.35 -0.44,1.18 1.68,3.23 2.37,-0.53 2.01,-1.14 1.69,1.14l1.35 2.36 -0.39 1.7 2.32 0c5.25,-11.2 3.22,-20.09 3.34,-33.61 6.78,-0.85 12.31,-0.56 11.49,7.44 -0.75,7.26 -4.95,5.8 -10.17,9.51 1.5,5.09 3.41,7.42 7.06,11.81 5.09,6.13 5.81,5.37 15.36,5.37 -0.36,-1.2 -12.17,-15.99 -15.06,-15.96 7.51,-2.65 15.74,-8.73 9.58,-17.96 -4.58,-6.87 -18.67,-4.2 -28.07,-5.15 13.4,-8.21 9.55,-8.05 9.81,-35.83 6.78,-0.85 12.31,-0.56 11.49,7.44 -0.75,7.26 -4.95,5.8 -10.17,9.51 4.85,16.52 13.52,17.17 22.81,17.19 -1.8,-5.12 -3.22,-2.84 -7.87,-8.59 -3.3,-4.08 -3.31,-7.43 -7.57,-7.39 16.87,-5.95 16.51,-22.54 -5.7,-22.65 -2.64,-2.68 -0.96,1.07 -1.3,-3.47l-3.53 5.02z"/>
   <path class="fil4" d="M219.08 114.07c3.7,16.78 0.68,17.81 -1.24,33.23l6.34 3.86c0.24,0.21 0.64,0.65 0.96,0.97 -1.26,0.61 0.3,0.53 -3.97,1.43 -1.32,0.28 -4.25,0.51 -6.07,0.82l-0.11 0.23c-0.86,3.17 1.3,1.83 -0.89,3.41 11.33,6.33 8.67,17.43 -3.65,21.58l1.19 3.05 12.65 -1.91 9.92 -7.64c4.06,-3.23 4.69,-5.03 8.92,-8.1l-0.36 -1.73c-11.75,-14.79 -15.97,-7.43 -15.39,-17.48 0.37,-6.32 6.35,-7.25 9.15,-4.38 3.6,3.7 0.48,1.83 -1.2,7.06 -0.85,2.65 -1.29,-0.28 -0.3,2.72l7.02 -0.28c3.39,-19.16 -1.79,-32.52 -1.83,-34.54l11.16 0.28 -1.33 -4.1c-0.01,0.01 -2.3,4.13 -9.71,1.77 -4.26,-1.36 -10.82,-10.25 -12.37,-17.08 4.42,-4.28 4.49,-1.38 7.83,-7.36l-9.7 -5.51c-0.14,6.24 0.45,13.22 -0.08,19.22 -0.67,7.64 -1.71,8.45 -6.97,10.48z"/>
   <path class="fil1" d="M110.19 57.4c4.25,3.61 3.42,3.78 6.57,7.71l6.59 7.04c-1.14,0.56 -3.95,2.55 -8.44,1.24 -6.83,-2 -4.97,-11.64 -13.66,-11.51l-0.14 0.9c0,3.47 1.19,3.7 -1.39,2.33 -0.77,6.49 -2.02,6.76 -7.26,9.15 5.32,2.21 9.11,3.34 9.28,10.53 0.18,7.72 -5.11,8.93 -9.36,12.46 2.94,4.98 6.69,10.19 12.29,11.46 -0.54,-9.82 4.55,-12.14 10.98,-6.75l-4.14 7.65 7.62 0.64 1.29 -12.87 -5.27 -0.68c0.01,-3.02 -0.04,-5.96 -0.05,-8.9 -0.03,-6.36 -0.55,-6.62 1.73,-8.8l12.25 -4.81c-5.77,-4.55 -5.06,-5.58 -5.48,-11.64 3.02,-7.09 5.5,-5.87 10.87,-1.37 -1.18,7.15 -1.74,4.28 -2.9,5.89l6.39 2.4c2.65,-5.95 1.35,-16.87 1.35,-24.64 -10.5,2.95 -22.64,7.16 -29.09,12.58z"/>
   <path class="fil3" d="M270.04 274.16l-6.55 -0.14 -8.67 0.26 -3.33 0.14c1.86,3.09 -0.3,1.15 3.13,2.87 2.63,1.32 2.42,1.38 5.72,1.37 5.94,-0.01 6.93,-1.34 9.7,-4.51zm-4.17 6.2l1.69 -1.91 3.13 -3.09c9.84,-7.03 17.04,-18.14 24.22,-28.58 -5.21,-2.55 -0.08,0.34 -2.97,-2.17l-7.14 -6.28c8.86,-1.05 13.56,-2.11 14.76,-10.93 0.94,-6.86 0.05,-17.34 0.29,-25.42l11.03 1.94 0.71 -4.75c-7.16,-0.88 -15.97,-1.61 -22.47,0.52 1.76,8.81 0.51,-3.35 2.05,6.01l-0.56 26.64c-4.05,0.79 -5.94,0.8 -8.74,-1.27 4.03,-1.68 4.77,-1.73 4.08,-7.4 -3.85,-2.58 -9.04,-2.51 -10,3.88 -0.57,3.79 0.54,5.33 2.05,7.16 1.68,2.04 0.09,0.14 2.94,2.49l-18.62 1.84c-0.01,5.81 5.63,4.84 1.18,13.22l0.97 1.23 8.72 0.48c0.09,7.67 1.16,14.84 -2.2,20.3l-0.31 1.07 -3.13 3.09c-2.3,0.14 -1.69,-0.45 -1.69,1.91zm9.73 -9.44c-0.64,-1.47 -1.07,2.87 -0.8,-2.94 0.15,-3.27 0.37,-2.64 1.24,-4.73 1.32,3.54 1.71,4.08 -0.44,7.67zm-2.57 -21.54l0.03 -5.97 10.87 0.77c2.27,14.06 -1.25,9.98 -6.99,15.04 -1.38,-1.75 -1.16,-0.16 -2.85,-4.64 -1.03,-2.75 -1.08,-1.49 -1.06,-5.2z"/>
   <path class="fil1" d="M152.73 42.42l-5.41 0.53c0.72,15.94 2.77,23.51 -5.31,30.36 -0.33,0.28 -0.74,0.59 -1.05,0.84l3.59 4.18 1.26 -0.02 4.97 0.27 5.83 0.03 8.74 0.14c2.97,-4.89 8.82,-2.71 16.97,-3.36 -4.37,-2.67 -9.57,-3.21 -8.43,-10.92 0.96,-6.49 6.28,-6.45 10.11,-3.89 0.68,5.67 -0.05,5.72 -4.08,7.4 2.8,2.07 4.68,2.05 9.26,1.27l0.28 -28.75 -1.75 0.39 -21.06 0.07c3.22,11.99 -2.73,12.06 -9.01,17.08l11.15 11.61c2.98,2.92 1.37,-0.09 2.89,4 -5.99,-0 -17.55,2.8 -22.04,-17.18 0.33,-0.31 0.81,-0.65 1.07,-0.84 0.26,-0.18 0.75,-0.58 1.07,-0.79 0.31,-0.2 0.74,-0.48 1.08,-0.7 6.04,-3.88 6.18,-2.22 6.16,-12.64l-6.3 0.92z"/>
   <path class="fil3" d="M153.81 260.41l1.2 -1.99 1.49 -1.85c-2.38,0 -1.82,-0.56 -1.49,1.85l-1.2 1.99c-6.72,2.5 -1.82,-1.73 -5.39,4.41 2.89,-1.62 1.13,-0.12 3.13,-1.84 2.23,-1.92 0.37,-0.15 2.26,-2.56zm19.31 8.47l-0.76 -19.62c0.5,-5.76 1.02,-5.32 2.42,-6.97l10.46 1.29 -0.15 10.95 -4.05 2.69 -3.99 2.87c1.27,3.14 0.88,2.24 2.15,4.58 3.85,7.1 2.72,2.11 6.83,11.9l11.37 -0.09c-8.33,-5.22 -4.13,0.42 -9.83,-9.16l-3.94 -4.35c-1.41,-5.58 -0.64,-0.48 1.91,-2.53 13.04,-4.52 9.99,-13.65 2.43,-21.53 -0.27,-0.28 -0.73,-0.69 -1.04,-1.08l10.55 -0.86 1.07 2.14c0.11,2.4 -0.53,1.82 1.85,1.82 -0.05,-2.6 0.64,-2.08 -1.85,-1.82l-1.07 -2.14 0.39 -1.95 -5.04 -4.23c-4.13,2.83 -5.22,3.35 -9.93,0.39 1.22,-0.47 1.45,-0.31 3.25,-2.36l2.9 -3.75c0.12,-0.56 0.55,-0.62 0.84,-0.9l0.91 2.42 -0.91 -2.42c0.62,-2.94 1.24,-2.56 -1.55,-1.46 -2.82,-0.25 -4.21,1.26 -0.13,-1.32l-1.7 -1.7 -5.26 2.61c-5.71,2.31 -0.47,-0.37 -3.96,1.5 -0.79,7.13 -1.79,6.08 4.31,12.16 0.56,0.56 1.76,2.17 1.93,1.88 0.17,-0.3 0.68,0.64 0.99,1.08l-17.84 -0.03 8.11 -3.63c-2.64,-2.77 -4,-2.99 -7.62,-4.74 -0.4,4.8 -2.39,10.75 -4.39,13.85 3.51,-1.53 1.02,-1.62 3.16,0.31l-0.27 28.46c-4.58,0.78 -6.47,0.8 -9.26,-1.27 4.03,-1.68 4.77,-1.73 4.08,-7.4 -9.44,-6.31 -14.21,6.39 -6.84,12.18 6.1,4.78 19.01,2.65 19.48,-7.76z"/>
   <path class="fil4" d="M132.61 104.61l0.1 35.49c3.93,1.6 3.93,1.28 4.81,5.85 -2.55,2.62 0.31,0.42 -4.11,2.52l0.03 2.57 8.18 -0.01c1.05,-5.49 0.74,-11.57 0.78,-17.75 0.13,-20.17 -2.37,-7.59 -2.53,-16.87l20.73 -0.02c-0.35,-0.42 -0.93,-1.18 -1.1,-0.88 -0.12,0.23 -6.04,-3.18 -5.3,-10.32 0.77,-7.4 5.74,-5.92 10.8,-4.08l-0.16 -5.79 4.14 -2.78 0.34 -10.97 -12.48 -0.36 -4.7 0 -4.92 0.31c4.73,9.45 -2.66,13.11 -7.74,17.29 10.59,18.63 9.24,6.31 13.44,15.87 -6.25,-0 -8.8,1.21 -12.77,-2.31 -2.5,-2.21 -1.2,-3.66 -7.52,-7.77z"/>
   <path class="fil3" d="M81.9 78.8c-4.22,2.16 -6.71,5.27 -9.27,9.53l-1.45 1.56 -1.78 1.76c2.3,0 1.69,0.57 1.78,-1.76l1.45 -1.56c2.1,5.41 3.6,27.99 -8.76,18.84 3.41,-1.42 3.16,-1.57 4.82,-5.38l-4.03 -6.07c-2.75,6 -4.8,7.25 -6.34,13.07l-1.69 0.8 1.69 -0.8c4.4,6.55 16.56,7.46 21.3,0.59 3.98,-5.76 1.88,-22.7 2.29,-30.59l10.34 -0.16 0.79 11.21 -9.25 5.82c1.36,6.04 2.74,7.24 6.13,12.04 4.81,6.83 3.53,4.78 14.15,5.36l0.59 -4.37c-5.6,-1.27 -9.35,-6.48 -12.29,-11.46 4.26,-3.53 9.54,-4.73 9.36,-12.46 -0.17,-7.19 -3.96,-8.33 -9.28,-10.53 5.24,-2.39 6.49,-2.66 7.26,-9.15 2.58,1.37 1.39,1.14 1.39,-2.33 -2.58,0.58 -2.12,-0.2 -1.39,2.33 -5.28,0.96 -0.06,-0.94 -5.72,2.22 -1.12,0.63 -3.62,2.4 -4.67,3.22 -3.46,2.7 -5.65,5.35 -7.42,8.26z"/>
   <path class="fil3" d="M124.29 153.25c-1.37,-5.32 -2.98,-0.03 -7.38,-6.62 -1.58,-2.37 -4.21,-7.01 -6.1,-10.27 4.82,-1.56 7.05,-2.82 9.97,-4.97 2.83,-7.35 -0.55,-11.52 -3.35,-15.88l-26.95 0.19c3.29,6.61 1.91,0.37 3.14,6.86l-0.64 26.65c-4.05,0.78 -5.94,0.8 -8.74,-1.27 4.03,-1.68 4.77,-1.73 4.08,-7.4 -12.98,-8.69 -15.41,19.11 4.9,13.93 12.84,-3.28 8.63,-21.27 8.93,-35.36l10.94 0.56 -0.14 10.97 -6.67 4.16c-0.25,0.17 -0.88,1.12 -1.06,0.81 -0.18,-0.32 -0.74,0.53 -1.06,0.84 1.74,7.72 5.91,10.63 9.09,16.93l11.04 -0.13z"/>
   <path class="fil4" d="M192.49 195.31l6.66 2.72c5.91,0.83 8.11,-1.89 19.2,2.68l1.33 1.77 1.41 2.81c-0.32,8.4 -4.26,16.17 -11.4,14.55l11.83 12.53c2.94,2.83 2.44,1.25 3.61,4.65 -9.63,-0 -10.94,0.9 -15.77,-5.66 -2.49,-3.38 -5.98,-7.65 -7.19,-11.78 5.19,-3.69 9.46,-2.32 10.19,-9.51 0.79,-7.88 -4.69,-8.26 -11.39,-7.37 -0.09,9.2 1.41,21.3 -1.38,29.63l-0.16 1.18 15.6 25.43c3.89,-9.72 0.11,-16.17 -2.28,-20.78l21.54 -0.07c-6.62,-3.7 -7.74,-3.58 -6.53,-14.37l4.82 -2.31c-3.32,-6.53 -5.96,-12.17 -11.49,-16.11l-1.41 -2.81 -1.33 -1.77c-5.45,-7.01 -9.56,-5.88 -20.21,-5.47l-5.65 0.08z"/>
   <path class="fil4" d="M76.84 195.62c-5.54,4.1 -5.44,1.48 -7.84,6.51 8.6,9.29 -1.11,14.69 -6.37,19.02 8.08,14.15 11.01,7.85 13.02,16.11 -12.36,-0 -8.34,0.09 -15.09,-3.9 1.43,7.28 2.61,12.51 6.24,17.5 0.65,-10.9 0.48,-5.58 -3.05,-12.98l19.53 0.04c-6.12,-1.41 -6.95,-7.76 -5.05,-15.48 3.9,-0.7 5.77,-0.44 8.58,1.27 0.64,4.52 -0.06,4.44 -2.06,6.7l4.11 0.22 3.67 0.06 -1.15 -0.42c1.4,-7.19 2.62,-21.7 -0.4,-28.2 -0.2,-0.43 -1.49,-2.49 -1.78,-2.84l-1.53 -1.54c-0.35,-0.29 -1.62,-0.98 -1.96,-1.21l-3.18 -2.12 -4.66 0.07 -1.03 1.2zm6.13 36.41l1.95 -0.11c-2.45,-2.83 -0.82,-1.84 -1.95,0.11z"/>
   <path class="fil2" d="M215.03 258.93l1.71 3.41c1.26,1.24 1.18,0.98 2.6,2.92 0.28,0.39 1.04,1.66 1.27,2.04 0.89,1.43 1.47,2.62 2.02,3.57l1.7 0.06 0.22 -29.42 10.84 0.52 -0.15 10.91 -7.76 4.95c-0.19,-0.33 -0.73,0.57 -1.07,0.9 1.09,4.58 4.66,9.94 6.78,12.01l13.04 0.53 4.6 -0.37 4 -0.01 3.13 -0.11c4.05,-4.79 1.67,-8.02 -5.08,-8.2l-5.09 8.32c-6.89,-1.34 -10,-6.08 -12.66,-10.6 10.19,-8.37 13.32,-9.57 4.71,-22.33l3.39 -0.78 -1.44 -5.02 -2.03 0 -6.73 0.52c2.17,-3.79 -2.93,-1.65 4.91,-4.04l-5.36 -7.32 -4.82 2.31c-1.21,10.79 -0.08,10.67 6.53,14.37l-21.54 0.07c2.4,4.61 6.18,11.06 2.28,20.78z"/>
   <path class="fil3" d="M201.2 99.72c-1.01,3.19 -0.75,1.12 2.19,1.19 -2.68,5.72 -0.8,8.83 1.1,12.71l9.93 1.33 1.72 2.41c0.07,-3.48 1.17,-3.29 -1.72,-2.41l-1.47 -5.26c-2.1,1.15 0.9,1.73 -4.72,0.58 1.83,-3.6 -2.4,-1.94 3.08,-3.14l2.17 1.34c-0.16,-2.37 0.4,-1.72 -2.17,-1.34l0.19 -2.28c-1.48,-0.89 -1.71,-1.34 -3.49,-2.3 -3.15,-1.69 -1.51,-0.93 -4.62,-1.64 1.78,-3.14 -1.4,-2.94 2.89,-2.32l-6.4 -2.43 1.32 3.56zm-9.94 49.73c-0.43,0.22 2.02,3.59 -5.96,1.32 -2.02,-0.57 -2.56,-1.74 -2.48,-2.99 0.41,-6.67 4.7,1.44 2.84,-7.23 -2.42,-0.77 -2.32,-1.66 -7.94,1.65l-0.01 9.35c26.75,13.13 22.8,-11.64 23.3,-32.43 6.79,-0.26 12.33,0.15 11.55,7.47 -0.86,8.03 -4.91,5.07 -9.91,9.84 1.13,4.3 6.26,11.32 8.8,14.9l5.29 -11.48c-5.54,2.08 -1.71,3.11 -5.39,-2.46l5.53 -1.98 -0.62 -19.02 -26.99 -0.72c1.91,6.37 3.53,-0.51 3.42,16.01 -0.05,6.58 0.64,12.83 -1.42,17.76z"/>
   <path class="fil1" d="M216.33 276.05l-8.04 3.18c5.08,1.38 8.51,3.59 7.82,10.71 -0.66,6.86 -5.14,7.76 -9.27,11.18l5.56 8.12 6.67 -1.94c1.84,-3.39 4.17,-9.78 11.06,-4.15l5.35 -2.12c3.93,-11.91 -0.17,-17.86 -2.29,-22.52 17.81,-0.31 22.56,-2.09 30.23,3.62 2.59,-0.9 1.04,1.28 2.42,-1.78 0,-2.37 -0.61,-1.77 1.69,-1.91l3.13 -3.09 0.31 -1.07 -0.96 -0.14c-2.77,3.16 -3.75,4.5 -9.7,4.51 -3.29,0.01 -3.08,-0.05 -5.72,-1.37 -3.43,-1.72 -1.27,0.22 -3.13,-2.87l1.02 -0.12 -6.26 0.33 -9.43 -0.5 -15.72 0.63 -4.77 1.3z"/>
   <path class="fil1" d="M245.15 95.38l3.73 8.54 6.12 -4.1c3.4,-0.84 3.99,0.28 5.86,1.53 0.68,5.68 -0.05,5.72 -4.08,7.4 2.8,2.07 4.68,2.05 8.74,1.27l0.61 -26.68c-1.23,-6.91 -0.04,-0.04 -2.7,-6.48 5.53,-2.65 0.89,-0.47 3.34,-3.19l-0.97 -0.26c-6.69,0.28 -6.48,1.24 -10.4,-2.59 -0.17,-0.17 -2.82,-3.45 -2.84,-3.49 -1.95,-2.96 -0.91,-1.15 -1.92,-4.31 -2.49,0.84 -1.94,1.37 -1.91,-1.19 -2.73,0.74 -1.88,1.1 -1.88,-1.94l-0.61 -0.27c-6,10.17 5.47,1.44 -10.23,16.32 13.36,3.57 8.38,7.98 9.14,19.45z"/>
   <path class="fil1" d="M193.18 78.33l1.26 -0.02 5.16 0.23 5.28 -0 9.1 0.21 12.19 -4.87 -4.73 -3.83c-0.73,-9.13 1.74,-14.75 9.63,-9.48 0.68,5.67 -0.05,5.72 -4.08,7.4 10.6,7.84 9.29,-5.1 9.85,-13.78l-18.87 -7.69c-0.98,4.01 -1.21,5.25 -1.88,8.07 -2.66,0.93 -5.05,1.27 -8.24,3.46l12.77 14.12c-6.72,3.02 -10.43,2.13 -13.99,-2.71 -3.14,-4.28 -5.46,-7.12 -6.77,-12.97l8.79 -5.8 -0.06 -6.57 -3.7 -1.28 -4.8 -0.32c-4.68,2.39 -1.64,7.52 -2.23,18.78 -0.19,3.53 -0.25,6.13 -2.18,8.85l-5.51 4.45c-0.24,0.16 -0.73,0.45 -1.07,0.71l4.08 3.05z"/>
   <path class="fil2" d="M192.21 221.8l0.77 2.93 6.61 7.59c2.79,-8.32 1.28,-20.43 1.38,-29.63 6.7,-0.88 12.19,-0.5 11.39,7.37 -0.73,7.19 -5,5.82 -10.19,9.51 1.2,4.13 4.7,8.4 7.19,11.78 4.84,6.56 6.15,5.66 15.77,5.66 -1.17,-3.4 -0.67,-1.82 -3.61,-4.65l-11.83 -12.53c7.14,1.62 11.08,-6.16 11.4,-14.55l-1.41 -2.81 -1.33 -1.77c-11.09,-4.57 -13.28,-1.85 -19.2,-2.68l-6.66 -2.72 -8.31 -0.09c0.62,0.57 9.95,-0.32 8.02,26.58z"/>
   <path class="fil4" d="M142.45 265.15c9.84,-3.89 16.44,-14.02 19.5,-26.64 -1.69,-9.64 -6.82,-8.31 -9.24,-18.94 0.33,-0.32 0.82,-0.63 1.09,-0.82 5.42,-3.71 4.97,-2.05 6.89,-4.99 2.66,-4.08 1.58,-6.95 0.55,-11.18l-10.4 0.12c-0.18,7.38 0.57,16.19 -0.07,23.21 -0.9,9.79 -3.02,8.4 -9.64,12.47 12.34,16.29 -1.35,14.88 -4.78,23.61 5.16,4.36 0.39,2.21 6.1,3.15z"/>
   <path class="fil3" d="M186.63 281.41c2.21,4.32 1.26,12.34 1.35,18.22 0.18,11.16 2.01,14.19 -9.55,12.95 0.23,-0.38 0.7,-1.31 0.82,-1.04l2.15 -2.99c1.74,-3.34 1.85,1.9 1.04,-4.88 -2.75,-1.84 -4.72,-1.97 -8.58,-1.2l-0.42 11.62 23.69 -2.01c-2.34,-1.37 -0.98,-25.02 -0.89,-29.45l10.49 -0.07 0.79 11.19 -7.14 4.12c-0.31,0.22 -0.8,0.64 -1.05,0.83 -0.26,0.19 -0.73,0.56 -1.06,0.87 2.1,8.94 6.44,6.59 4.18,12.29l9.96 -2.6 -5.56 -8.12c4.13,-3.42 8.6,-4.32 9.27,-11.18 0.68,-7.12 -2.75,-9.34 -7.82,-10.71l-22.07 0.76 0.41 1.42z"/>
   <path class="fil3" d="M139.21 309.18l8.1 1.57 2.92 1.14 -2.92 -1.14 0.33 -28.52 10.94 0.56 -0.14 10.97c-2.82,2.2 -2.26,1.27 -4.58,2.72l-4.21 3.08c1.49,6.63 2.61,7.43 6.61,11.36l-1.57 0.81 13.74 2.09c-3.3,-4.13 -6.29,-9.55 -10.78,-12.7 3.94,-3.15 7.55,-3.34 9.32,-8.72 2.58,-7.83 -2.24,-12.57 -5.69,-13.21 -5.72,-1.05 -18.28,-1.62 -24.29,0.43 0.75,3.81 2.38,1.9 2.37,13.55 -0.01,5.31 -0.06,10.68 -0.14,15.99z"/>
   <path class="fil4" d="M93.55 270.11l3.01 0.93 3.54 0.73 1.91 -0.08c-0.27,-9.24 1.93,-14.13 9.87,-8.83 0.49,6.83 -2.22,4.22 -3.97,8.58l8.64 0.26 1.63 -26.99c-12.4,0.95 -12.4,-0.23 -23.57,-1.94 2.41,11.36 -2.01,12.28 -8.46,17.58l7.41 9.76z"/>
   <path class="fil2" d="M242.8 163.28l3.89 -4.03 2.29 -1.27c0.67,-7.29 3.59,-12.07 4.81,-20.62 1.88,-13.12 -1.14,-11.93 -2.39,-20.71l-11.16 -0.28c0.04,2.02 5.22,15.38 1.83,34.54l-7.02 0.28c-0.99,-3 -0.55,-0.07 0.3,-2.72 1.68,-5.23 4.8,-3.36 1.2,-7.06 -2.8,-2.87 -8.78,-1.95 -9.15,4.38 -0.58,10.05 3.64,2.69 15.39,17.48z"/>
   <path class="fil5" d="M128.84 97.27c3.56,7.15 3.28,37.82 0.02,44.77l0.2 -0.48 0.32 9.93c0.82,14.94 -1.14,30.27 0.11,44.55 0.7,8.05 1.65,34.54 -3.51,40.29l-2.61 1.47 -14.95 4.89c-6.55,-0.14 -10.13,-1.75 -15.5,-4.21 -2.06,-1.17 -7.04,-1.71 -3.56,-4.38l-0.25 -1.87c4.16,1.33 3.42,2.44 3.42,-1.54l-3.67 -0.06 0.25 1.61 -4.19 -0.31 -1.95 0.11 -0.11 4.79c4.17,3.76 5.89,3.19 11.75,5.96 11.17,1.71 11.16,2.89 23.57,1.94 4.04,-1.57 6.29,-2.29 8.87,-4.56 3.17,-2.79 4.32,-4.29 6.37,-7.17l-0.35 -2.96 -0.41 -8.41c-1.52,-5.55 -0.35,-62.26 0.78,-70.58l-0.03 -2.57 -0.69 -8.38 -0.1 -35.49 0.04 -10.12 -4.09 -0.37 0.28 3.15z"/>
   <path class="fil2" d="M77.02 261.73c0.44,-2.29 0.94,-1.8 -1.35,-1.59l-0.11 -18.61 10.84 0.52 -0.15 10.91c-3.37,2.64 -3.59,1.62 -5.78,3.2 -4.26,3.07 -1.82,-1.19 -3.45,5.59zm-10.22 -10.87c1.22,2.63 0.11,1.58 1.9,3.58l1.63 1.43 1.14 1.88 1.74 1.85 2.46 0.54c-0.66,2.8 -1.33,2.49 1.35,1.59 1.46,2.08 0.35,1.55 3.23,3.18 0.01,0 4.16,1.62 4.36,1.7 3.13,1.27 5.43,2.46 8.94,3.5l3.01 0.93 -3.01 -0.93 -7.41 -9.76c6.45,-5.3 10.87,-6.22 8.46,-17.58 -5.86,-2.77 -7.58,-2.2 -11.75,-5.96l0.11 -4.79c1.13,-1.95 -0.5,-2.94 1.95,-0.11l4.19 0.31 -0.25 -1.61 -4.11 -0.22c2,-2.26 2.7,-2.17 2.06,-6.7 -2.81,-1.71 -4.68,-1.97 -8.58,-1.27 -1.9,7.72 -1.07,14.07 5.05,15.48l-19.53 -0.04c3.53,7.41 3.7,2.09 3.05,12.98z"/>
   <path class="fil1" d="M185.54 260.45c3.35,10.8 6.88,11.24 11.69,14.54 11.18,7.65 9.64,1.29 10.4,0.71l-6.11 -1.82c-1.45,-6.43 -2.98,-13.24 6.38,-12.62 0.31,0.02 0.94,0.17 1.2,0.21 0.27,0.03 1.03,0.64 1.22,0.26 0.19,-0.39 0.8,0.22 1.21,0.3 -0.89,6.09 -0.2,6.29 -4.96,8.27 3.34,2.47 7.9,3.96 9.34,-1.98l1.24 -2.15c-3.41,-2.7 -1.75,0.11 -3.25,-5.01 -3.28,1.19 -2.57,1.65 -1.75,-1.75l-11.78 -18.46c-2.38,0 -1.74,0.59 -1.85,-1.82l-1.07 -2.14 -10.55 0.86c0.32,0.39 0.77,0.8 1.04,1.08 7.56,7.87 10.61,17.01 -2.43,21.53z"/>
   <path class="fil3" d="M312.77 163.14l-0.54 -5.14 -22.56 -0.29c2.86,6.61 3.5,1.37 3.37,16.35 -0.05,6.22 0.27,12.36 -0.87,17.52 -4.05,0.78 -5.94,0.8 -8.74,-1.27 4.03,-1.68 4.77,-1.73 4.08,-7.4 -12.64,-8.45 -15.54,17.71 3.85,14.39 14.02,-2.4 9.69,-21.92 9.96,-35.43l11.43 1.28z"/>
   <path class="fil3" d="M213.97 78.75l1.56 -0.01 10.35 2.29 2.74 0.28c0.81,-3.61 11.16,-0.74 7.74,4.66l0.94 2.07c4.29,2.03 3.88,1.9 6,6.87l1.83 0.47c-0.76,-11.47 4.22,-15.88 -9.14,-19.45 15.69,-14.88 4.23,-6.15 10.23,-16.32l-9.4 -5.42c-0.56,8.68 0.75,21.63 -9.85,13.78 4.03,-1.68 4.77,-1.73 4.08,-7.4 -7.88,-5.27 -10.36,0.35 -9.63,9.48l4.73 3.83 -12.19 4.87z"/>
   <path class="fil3" d="M165.35 78.75l1.56 -0.04 26.27 -0.38 -4.08 -3.05c0.34,-0.26 0.83,-0.54 1.07,-0.71l5.51 -4.45c1.93,-2.73 1.99,-5.33 2.18,-8.85 0.59,-11.27 -2.45,-16.39 2.23,-18.78l-10.6 -1.99 -0.28 28.75c-4.58,0.78 -6.47,0.8 -9.26,-1.27 4.03,-1.68 4.77,-1.73 4.08,-7.4 -3.83,-2.56 -9.15,-2.6 -10.11,3.89 -1.14,7.71 4.06,8.26 8.43,10.92 -8.15,0.66 -14,-1.53 -16.97,3.36z"/>
   <path class="fil1" d="M222.72 183.04l-5.95 1.96c2.59,10.14 6.22,3.71 8.2,10.46l-5.39 1.15c3.18,4.89 6.7,10.43 9.85,14.67 4.26,5.74 8.08,8.83 10.08,15.06 2.45,0 2.18,-0.71 1.6,1.46 2.23,-3.72 1.82,-9.98 1.8,-14.56 -0.03,-5.65 -0.07,-10.08 -2.42,-13.28 -6.06,-8.23 -17.01,0.87 -12.14,-18.89l-3.39 0c0.62,2.77 0.98,1.79 -2.24,1.96z"/>
   <path class="fil3" d="M301.91 122.26l-2.15 -4.26 -10.76 0.12c-0.02,3.39 5.42,15.22 1.71,34.28l-7.06 0.8c-1.18,-6.34 4.88,-4.03 2.03,-9.41 -1.78,-3.35 -7.38,-2.79 -9.22,1.1 -5.92,12.49 12.84,15.09 18.19,11.86 3.4,-3.88 5.15,-7.6 5.19,-15.5l-0.07 -14.11c0.88,-4.39 -0.27,-2.06 2.13,-4.87z"/>
   <path class="fil4" d="M257.98 270.83l6.11 0.14 -0.35 -0.12 1.47 -13.95c-9.44,-4.12 -16.17,-11.03 -20.71,-20.31l-1.26 0.67 -3.39 0.78c8.62,12.76 5.49,13.96 -4.71,22.33 2.67,4.52 5.77,9.26 12.66,10.6l5.09 -8.32c6.75,0.18 9.13,3.41 5.08,8.2z"/>
   <path class="fil3" d="M248.88 103.92c1.52,3.5 2.89,5.28 4.78,9.7 20.79,6.52 21.26,-5.89 21.02,-17.97l0.19 -9.05c0.59,-3.22 0.19,-1.77 1.15,-3.35l1.66 1.32 1.66 1.29 -1.66 -1.29 -1.66 -1.32 -9.27 -9.58c-2.45,2.71 2.19,0.54 -3.34,3.19 2.67,6.44 1.47,-0.43 2.7,6.48l-0.61 26.68c-4.05,0.79 -5.94,0.8 -8.74,-1.27 4.03,-1.68 4.77,-1.73 4.08,-7.4 -1.87,-1.25 -2.46,-2.37 -5.86,-1.53l-6.12 4.1z"/>
   <path class="fil1" d="M167.79 201.47l0.11 0.14c2.49,2.15 0.99,-3.19 3.21,4.13 0.24,0.81 0.32,3.43 0.23,4.32 -0.43,4.26 -1.07,4.2 -3.45,6.69l-0.72 13.77c3.62,1.76 4.98,1.97 7.62,4.74l-8.11 3.63 17.84 0.03c-0.31,-0.44 -0.82,-1.38 -0.99,-1.08 -0.17,0.3 -1.37,-1.32 -1.93,-1.88 -6.09,-6.08 -5.1,-5.03 -4.31,-12.16 3.49,-1.87 -1.75,0.8 3.96,-1.5l5.26 -2.61c-2.82,-7 -10.17,-16.76 -14.31,-23.58l-1.23 0.02 -3.28 -0.57 0.1 5.9zm20.55 21.24l-0.13 -1.32c-4.08,2.57 -2.7,1.07 0.13,1.32z"/>
   <path class="fil3" d="M139.28 44.82c0,7.77 1.3,18.69 -1.35,24.64 -0.74,0.38 2.04,3.29 -5.94,1.33 -5.8,-1.42 0.52,-6.59 0.92,-9.62 -5.42,-3.49 -6.85,-0.73 -9.34,1.37 0.42,6.06 -0.29,7.09 5.48,11.64l-12.25 4.81 1.48 -0.28 26.27 -0.38 -3.59 -4.18c0.31,-0.26 0.72,-0.56 1.05,-0.84 8.09,-6.84 6.03,-14.42 5.31,-30.36l-8.04 1.87z"/>
   <path class="fil3" d="M51.93 120.06l10.98 -0.38 -0.14 10.97 -8.79 5.8c4.5,20.03 16.06,17.15 22.04,17.15 -1.49,-3.99 -0.91,-1.93 -3.79,-4.68 -1.84,-1.77 -1.42,-0.71 -4.06,-3.86 -3.11,-3.71 -1.98,-4.1 -6.18,-7.04 4.7,-3.75 11.81,-5.22 9.61,-15 -2.01,-8.92 -9.46,-5.88 -16.65,-8.62l-3.01 5.67z"/>
   <path class="fil3" d="M256.29 120.75c9.38,2.55 7.92,9.07 2.98,14.04l-2.98 -14.04zm-2.42 26.68c3.27,-2.18 2.16,-2.35 5.48,0.86 0.39,0.37 3.77,5.67 4.36,6.5l11.18 0.87c-1.28,-4.8 -0.27,-1.96 -3.5,-5.23 -8.12,-8.22 -7.58,-11.24 -11.61,-11.19l9.35 -3.27c4.88,-17.05 -0.89,-16.82 -9.85,-19.57 -0.41,-0.13 -0.84,-0.24 -1.22,-0.37l-2.21 -0.96c-0.23,-0.1 -0.69,-0.35 -1,-0.57 1.48,5.41 0.55,3.19 0.75,9.4 0.1,3.02 0.47,6.1 0.79,9.09 0.75,7.13 0.1,6.96 -2.5,14.45z"/>
   <path class="fil4" d="M195.45 95.85l4.43 0.31 6.4 2.43 5.57 1.81c1.45,2.14 0.24,0.83 0.56,3.76l4.04 3.42c3.04,-5.12 1.31,-18.57 0.96,-25.73l-12.18 -0.59 -5.98 -0.03 -3.42 0.28c3.24,6.49 0.87,7.5 -0.38,14.33z"/>
   <path class="fil1" d="M40.43 195.62l0.16 2.39 24.4 0.29c4.12,-1.26 0.97,0.91 5.24,-2.74 -7.74,-4.06 -3.83,2.39 -10.08,-6.33 -3.33,-4.64 -4.81,-5.94 -6.17,-12 0.33,-0.3 0.88,-1.13 1.06,-0.81l7.73 -4.99 0.14 -10.97 -10.93 -0.58c-0.52,24.27 4.12,32.15 -11.55,35.74z"/>
   <path class="fil2" d="M91.37 230.26c3.67,-0.85 2.22,-0.19 5.7,-1.46 0.96,-0.35 1.45,-0.52 2.23,-0.91 1.87,-0.94 1.93,-1.26 2.87,-1.99 2.36,0.85 1.72,1.22 1.77,-1.33l-1.77 1.33c-3.12,-5.28 -1.64,-16.83 -1.6,-23.31l5.14 -0.52 -1.65 -4.3 -0.34 0.12c-3.38,-3.22 -0.88,-1.32 -5.29,-3.64l-5.78 -1.51 -10.14 1.61 3.18 2.12c0.34,0.23 1.61,0.92 1.96,1.21l1.53 1.54c0.29,0.35 1.58,2.41 1.78,2.84 3.02,6.5 1.8,21.01 0.4,28.2z"/>
   <path class="fil3" d="M152.73 42.42l6.3 -0.92c0.03,10.42 -0.12,8.76 -6.16,12.64 -0.33,0.21 -0.77,0.49 -1.08,0.7 -0.32,0.21 -0.81,0.61 -1.07,0.79 -0.26,0.18 -0.74,0.52 -1.07,0.84 4.49,19.99 16.05,17.18 22.04,17.18 -1.52,-4.09 0.09,-1.08 -2.89,-4l-11.15 -11.61c6.28,-5.02 12.23,-5.09 9.01,-17.08l21.06 -0.07c-4.76,-2.05 -16.99,-2.03 -21.06,0.07l-13.93 1.47z"/>
   <path class="fil4" d="M164.66 199.39l0.03 -4.28 -0.05 -0.46c-5.25,-3.95 -8.74,-8.7 -10.36,-15.85l8.72 -5.84c1.35,-10.03 -0.3,-12.42 -10.59,-11.02 -0.57,23.69 3.77,25.74 -8.62,35.84l20.87 1.61z"/>
   <path class="fil4" d="M164.76 157.22l-0.1 -1.79c-5.1,-4.22 -10.18,-9.64 -11.95,-17.41l8.83 -5.84 0.41 -9.49c-3.11,-1.41 -1.4,-2.78 -11.11,-1.52 -0.58,23.94 3.75,26.48 -8.52,35.74l22.44 0.32z"/>
   <path class="fil3" d="M89.38 282.33l2.98 0.19 -1.24 1.31c3.46,4.79 5.5,4.83 10.68,7.43l-1.52 -8.59c6.1,-0.77 9.88,-1.17 11.54,3.71 0.44,1.29 0.38,4.34 -0.24,5.64 -2.06,4.28 0.45,2.37 -4.35,2.72l9.61 6.44c-2.56,-7.33 2.61,-1.81 3.64,-11.22 0.79,-7.27 -3.2,-9.35 -8.26,-11.08l4.81 -3.33 -7.91 -0.01c-3.75,3.63 3.74,1.13 -5.52,2.92l-13.95 -0.17 -0.28 4.05z"/>
   <path class="fil4" d="M133.12 178.8l5.69 4.71c-0.61,4.44 -0.76,2.98 -2.75,6.1 -0.19,0.3 -0.56,0.82 -0.73,1.07 -0.17,0.25 -0.54,0.71 -0.76,1.09l8.6 0.14c1,-5.28 1.97,-25.35 -0.38,-30.67l-2.71 -3.63c-2.74,-1.88 -1.06,-1.12 -5.21,-1.63l-1.92 10.22c-0.06,4.08 0.07,8.51 0.16,12.61z"/>
   <path class="fil3" d="M119.12 110.24c-3.93,2.03 4.9,1.82 -4.56,1.54 -12.84,-0.39 10.2,-10.42 -6.31,-11.5 -0.81,6.46 -0.19,10.01 2.52,14.11 10.29,2.99 13.38,-0.33 17.79,-5.96l0.31 33.62c3.25,-6.95 3.54,-37.62 -0.02,-44.77l-8.43 0.09 -1.29 12.87z"/>
   <path class="fil2" d="M132.66 94.49l-0.04 10.12c6.33,4.11 5.03,5.56 7.52,7.77 3.97,3.51 6.52,2.31 12.77,2.31 -4.2,-9.56 -2.85,2.76 -13.44,-15.87 5.08,-4.17 12.47,-7.83 7.74,-17.29l-7.77 -0c1.73,9.38 1.2,11.24 -6.78,12.97z"/>
   <path class="fil3" d="M51.83 233.09l0.17 -30.45c6.94,-0.88 6.87,-2.05 9.13,2.96l3.85 -7.3 -24.4 -0.29c1.79,9.53 6.18,29.4 11.25,35.09z"/>
   <path class="fil3" d="M208.57 44.09l0.06 6.57 -8.79 5.8c1.31,5.85 3.63,8.69 6.77,12.97 3.56,4.85 7.27,5.73 13.99,2.71l-12.77 -14.12c3.19,-2.19 5.58,-2.52 8.24,-3.46 0.67,-2.82 0.91,-4.06 1.88,-8.07l-9.39 -2.42 -3.7 -1.28 3.7 1.28z"/>
   <path class="fil5" d="M164.83 95.31l0.16 5.79 -0.22 4.28 -0.57 5.33 0.48 27.26 0.14 4.88 -0.36 2.38c0.87,0.72 2.57,1.74 3.36,2.54l0.26 -12.15 0.22 -15.58 0.03 -4.98c-0.74,-7.25 -2.42,-10 -0.6,-17.34l9.75 0.54 2.11 0.3 8.45 -0.32 13.15 1.46 -1.32 -3.56 -4.43 -0.31 -18.24 -1.57c-5.58,0.28 -7.45,0.49 -12.38,1.03z"/>
   <path class="fil1" d="M51.83 233.09l7.98 17.26c3.28,-4.13 -1.87,-15.2 -2.78,-21.34 -1.65,-11.08 1.64,-14.65 4.1,-23.42 -2.27,-5 -2.19,-3.84 -9.13,-2.96l-0.17 30.45zm13.51 24.62l0.81 0.24 -0.81 -0.24 -0.09 -1.76c-1.38,-4.42 2.36,0.77 -1.69,-4.45 -2.61,-3.36 0.62,-1.82 -2.78,-1.3 1.7,2.83 2.67,4.4 4.55,7.51z"/>
   <path class="fil4" d="M132.65 221.62c3.98,1.63 3.98,1.29 4.86,5.89 -2.92,3.01 0.94,0.11 -4.45,2.52l0.35 2.96 8.18 -0.66 0.37 -28 -5.11 -7.28c-2.57,-1.45 0.58,-0.17 -3.84,-0.96l-0.37 25.52z"/>
   <path class="fil1" d="M294.91 246.78l9.72 -22.24c-2.41,-2.51 -1.37,3.75 -2.85,-4.96l4.57 -2.96c0.22,-0.58 0.92,-0.16 1.38,-0.26l3.14 -12.44 -11.03 -1.94c-0.24,8.07 0.64,18.56 -0.29,25.42 -1.2,8.82 -5.9,9.88 -14.76,10.93l7.14 6.28c2.89,2.5 -2.24,-0.38 2.97,2.17z"/>
   <path class="fil3" d="M235.5 301.04l9.97 -6.71 -0.71 -11.7c8.21,-1.02 10.49,-1.26 10.93,6.11l-1.92 0.89c-2.68,-0.08 -2.17,-0.83 -2.17,1.56l2.17 -1.56 1.92 -0.89c3.13,-2.16 5.7,-4.48 7.76,-6.61 -7.68,-5.71 -12.42,-3.93 -30.23,-3.62 2.11,4.66 6.22,10.61 2.29,22.52z"/>
   <path class="fil2" d="M60.56 233.36c6.75,3.99 2.72,3.9 15.09,3.9 -2.01,-8.27 -4.94,-1.96 -13.02,-16.11 5.27,-4.33 14.97,-9.73 6.37,-19.02 -1.24,1.19 -0.52,0.33 -2.35,2.5 -3.23,3.8 -4.33,4.71 -5.23,8.92 -1.29,6.05 -0.96,13.6 -0.85,19.81z"/>
   <path class="fil5" d="M211.5 104.85l-0.19 2.28c2.57,-0.38 2.01,-1.03 2.17,1.34l-0.54 1.22 1.47 5.26c2.89,-0.88 1.79,-1.07 1.72,2.41l0.11 -0.95 0.62 19.02 -0.13 4.44 -5.29 11.48 0.42 2.1c-0.93,1.23 -2.17,2.65 -3.04,3.64l-10.71 8.1c3.82,-1.38 0.79,-1.24 2.82,1.26l9.22 -4.4c1.56,-2.31 3.7,-5.56 4.84,-7.44l0.11 -0.23 2.74 -7.09c1.91,-15.42 4.93,-16.45 1.24,-33.23 -0.69,-3.03 -1.59,-4.53 -2.63,-6.49l-4.04 -3.42 -0.91 0.69z"/>
   <path class="fil2" d="M216.45 107.58c1.04,1.96 1.94,3.45 2.63,6.49 5.26,-2.03 6.29,-2.84 6.97,-10.48 0.53,-6.01 -0.06,-12.98 0.08,-19.22l-0.15 -1.01 -8.56 -1.51c0.35,7.16 2.07,20.61 -0.96,25.73z"/>
   <path class="fil2" d="M164.83 95.31c4.93,-0.54 6.8,-0.75 12.38,-1.03l18.24 1.57c1.25,-6.83 3.63,-7.84 0.38,-14.33l-7.77 -0c2.21,12 -0.19,11.73 -10.85,12.76l0.19 -12.95 -8.09 0.24 -0.34 10.97 -4.14 2.78z"/>
   <path class="fil2" d="M250.07 112.56l-0.05 -1.87c-7.87,-1.61 -8.53,-6.84 -14,-12.48l5.93 -1.22 1.39 1.23 -1.39 -1.23 -0.18 -2.1c-4.91,-1.53 -2.7,-0.27 -3.73,-5.01l-2.21 0c-3.34,5.98 -3.42,3.08 -7.83,7.36 1.55,6.84 8.11,15.72 12.37,17.08 7.41,2.36 9.7,-1.76 9.71,-1.77z"/>
   <path class="fil5" d="M70.23 195.56c-4.27,3.65 -1.12,1.48 -5.24,2.74l-3.85 7.3c-2.45,8.77 -5.74,12.33 -4.1,23.42 0.91,6.14 6.05,17.2 2.78,21.34l0.97 -0.15c3.4,-0.51 0.17,-2.06 2.78,1.3 4.05,5.22 0.31,0.03 1.69,4.45l1.99 0 1.47 -1.53 1.63 1.43 1.14 1.88c0.01,2.42 -0.62,1.85 1.74,1.85l-1.74 -1.85 -1.14 -1.88 -1.63 -1.43c-1.8,-1.99 -0.68,-0.94 -1.9,-3.58 -3.64,-4.99 -4.82,-10.22 -6.24,-17.5 -0.11,-6.22 -0.44,-13.76 0.85,-19.81 0.9,-4.22 2.01,-5.13 5.23,-8.92 1.84,-2.16 1.11,-1.3 2.35,-2.5 2.41,-5.03 2.3,-2.4 7.84,-6.51 -0.62,-4.46 2.37,-0.26 -1.57,-2.83l-5.04 2.77z"/>
   <path class="fil1" d="M197.14 312.08l5.31 -0.23c2.26,-5.7 -2.09,-3.35 -4.18,-12.29 0.33,-0.31 0.8,-0.68 1.06,-0.87 0.26,-0.19 0.74,-0.61 1.05,-0.83l7.14 -4.12 -0.79 -11.19 -10.49 0.07c-0.09,4.43 -1.45,28.09 0.89,29.45z"/>
   <path class="fil1" d="M147.31 310.75l2.92 1.14 4.46 -0.16 1.57 -0.81c-4,-3.94 -5.12,-4.74 -6.61,-11.36l4.21 -3.08c2.32,-1.45 1.76,-0.52 4.58,-2.72l0.14 -10.97 -10.94 -0.56 -0.33 28.52z"/>
   <path class="fil3" d="M298.12 114.64l1.3 1.46 -1.3 -1.46 -1.88 -3.49c-6.74,-4.58 -5.84,-8.35 -11.56,-12.34l2.79 -1.5c-1.74,-3.66 -0.13,-0.83 -1.78,-3.37 -0.56,-0.86 -2.47,-3.2 -2.64,-3.42 -1.69,3.58 -0.21,1.17 -2.25,3.29l-3.01 2.59c-0.26,0.22 -0.76,0.53 -1.1,0.84 4.52,20.14 16.58,17.16 21.43,17.4zm-3.65 -5.68l1.48 2.07 -1.48 -2.07z"/>
   <path class="fil4" d="M124.67 271.49l7.65 -2.05 -4.71 -10.66c1.76,-1.71 0.67,-0.81 3.19,-2.5 0.32,-0.21 0.73,-0.44 1.05,-0.64 0.3,-0.19 0.73,-0.4 1.02,-0.57 3.51,-2.12 0.5,0.28 4.04,-2.14l-0.77 -11.19 -10.2 0.43 -1.26 29.32z"/>
   <path class="fil4" d="M224.34 270.94l8.86 -0.14c-2.13,-2.07 -5.7,-7.43 -6.78,-12.01 0.33,-0.32 0.87,-1.22 1.07,-0.9l7.76 -4.95 0.15 -10.91 -10.84 -0.52 -0.22 29.42z"/>
   <path class="fil2" d="M210.16 162.05c1.82,2.85 2.29,5.64 1.61,10.97 -3.83,3.15 -3.01,2.28 -9.05,3.51l1.24 6.37 7.69 -0.25 -1.19 -3.05c12.32,-4.16 14.98,-15.25 3.65,-21.58 2.19,-1.58 0.02,-0.24 0.89,-3.41 -1.13,1.88 -3.27,5.13 -4.84,7.44z"/>
   <path class="fil6" d="M198.14 195.23c10.64,-0.41 14.76,-1.54 20.21,5.47l1.33 1.77 1.41 2.81c5.52,3.94 8.17,9.58 11.49,16.11l5.36 7.32c2.11,1.03 1.24,-0.81 1.83,3.52l2.03 0 0.99 -1.2 1.69 1.14c-0.26,2.84 -1.08,2.36 1.35,2.36l-1.35 -2.36c0.32,-2.27 0.68,-1.67 -1.69,-1.14 -2.12,-2.05 -0.67,-0.87 -1.68,-3.23l-1.6 -1.46c-2,-6.23 -5.82,-9.32 -10.08,-15.06 -3.15,-4.24 -6.67,-9.78 -9.85,-14.67l-1.82 -3.73c-0.11,-0.68 -0.66,-0.68 -0.98,-1.34l-6.65 -0.12c-1.05,0.89 1.16,1.29 -4.63,1.78 -1.45,0.12 -2.95,-0.17 -4.36,-0.39 -3.28,-0.52 -4.21,-1.22 -9.19,-1.67l-2.26 0.11 0 1.39c2.06,-0.19 2.76,-0.5 4.76,-0.02 4.39,1.07 1.37,-1.02 3.68,2.61z"/>
   <path class="fil3" d="M40.85 155.64c7.05,-3 10.22,-3.43 11.04,-12.84 0.6,-6.86 -0.12,-14.55 0.26,-21.7 -5.83,5.59 -9.72,24.66 -11.3,34.54z"/>
   <path class="fil7" d="M173.12 268.88l3.71 -3.79c0.42,-0.39 1.02,-0.87 1.52,-1.32 1.12,4.22 0.03,1.88 2.5,5.69l3.25 4.67c4.19,7.81 -2.56,4.14 2.53,7.29l-0.41 -1.42 22.07 -0.76 8.04 -3.18 -8.7 -0.35c-0.76,0.58 0.77,6.93 -10.4,-0.71 -4.81,-3.29 -8.34,-3.74 -11.69,-14.54 -2.55,2.05 -3.32,-3.04 -1.91,2.53l3.94 4.35c5.7,9.58 1.5,3.94 9.83,9.16l-11.37 0.09c-4.11,-9.8 -2.98,-4.8 -6.83,-11.9 -1.27,-2.35 -0.88,-1.44 -2.15,-4.58l3.99 -2.87 -6.51 1.29 0.25 -16.22c-1.4,1.65 -1.92,1.21 -2.42,6.97l0.76 19.62z"/>
   <path class="fil4" d="M192.21 221.8c1.93,-26.9 -7.4,-26 -8.02,-26.58l-3.86 -0.46 -4.13 0.69 0.02 0.63 16 25.72z"/>
   <path class="fil3" d="M207.63 275.7l8.7 0.35 4.77 -1.3 0 -2.1 -5.17 -4.34c-1.45,5.94 -6,4.46 -9.34,1.98 4.76,-1.98 4.06,-2.19 4.96,-8.27 -0.41,-0.08 -1.02,-0.69 -1.21,-0.3 -0.19,0.39 -0.95,-0.22 -1.22,-0.26 -0.26,-0.03 -0.89,-0.19 -1.2,-0.21 -9.36,-0.62 -7.83,6.19 -6.38,12.62l6.11 1.82zm4.54 -16.3c-0.82,3.41 -1.52,2.95 1.75,1.75 0.08,-2.36 0.64,-1.75 -1.75,-1.75z"/>
   <path class="fil5" d="M243.33 98.22l6.69 12.46 0.05 1.87 1.33 4.1c1.25,8.78 4.27,7.59 2.39,20.71 -1.22,8.55 -4.14,13.33 -4.81,20.62l-2.29 1.27 2.29 -1.27 0.27 0.93 3.53 -5.02 1.1 -6.47c2.6,-7.48 3.25,-7.32 2.5,-14.45 -0.31,-2.99 -0.69,-6.07 -0.79,-9.09 -0.21,-6.21 0.73,-3.98 -0.75,-9.4l-1.17 -0.88c-1.89,-4.42 -3.26,-6.21 -4.78,-9.7l-3.73 -8.54 -1.83 -0.47 -1.55 -0.02 0.18 2.1 1.39 1.23z"/>
   <path class="fil3" d="M188.05 98.26l-8.45 0.32c1.83,4.76 4.59,7.42 7.18,11.01 4.75,6.57 4.01,5.07 14.33,5.07 -1.23,-4.12 0.11,-1.59 -2.55,-4.32 -2.73,-2.79 -6.63,-4.04 -10.51,-12.09z"/>
   <path class="fil4" d="M75.68 260.13c2.28,-0.2 1.78,-0.69 1.35,1.59 1.64,-6.78 -0.81,-2.52 3.45,-5.59 2.18,-1.57 2.4,-0.56 5.78,-3.2l0.15 -10.91 -10.84 -0.52 0.11 18.61z"/>
   <path class="fil1" d="M89.38 282.33l1.74 1.49 1.24 -1.31 -2.98 -0.19 0.28 -4.05 13.95 0.17c9.26,-1.79 1.78,0.7 5.52,-2.92l-2.67 1.03c-7.42,-1.18 -9.45,-0.14 -18.41,-1.05 -1.8,-2.41 -2.93,-4.04 -4.43,-6.23l-5.9 -2.85c-3.26,0.43 -2.39,-0.51 -2.78,2.66 2.52,5.61 8.49,10.75 14.43,13.26z"/>
   <path class="fil5" d="M164.58 218.63l0.11 0.91 -0.01 4.5 -2.74 14.48c-3.05,12.62 -9.66,22.75 -19.5,26.64l-1.16 1.34 0.18 3.49c2.9,-3.35 -0.42,-0.81 4.95,-3.47l2 -1.7c3.57,-6.13 -1.33,-1.9 5.39,-4.41l1.2 -1.99c-0.34,-2.42 -0.89,-1.85 1.49,-1.85l6.28 -12.2c2,-3.1 3.99,-9.04 4.39,-13.85l0.72 -13.77c-2.07,3.17 0.57,0.44 -3.3,1.89z"/>
   <polygon class="fil1" points="181.04,257.22 185.1,254.53 185.24,243.58 174.78,242.29 174.53,258.51 "/>
   <path class="fil3" d="M168.35 115.08c9.3,-2.92 8.77,-6.21 9.15,-16.8l-9.75 -0.54c-1.82,7.33 -0.14,10.08 0.6,17.34z"/>
   <path class="fil3" d="M101.24 61.87c8.7,-0.13 6.84,9.52 13.66,11.51 4.49,1.31 7.3,-0.68 8.44,-1.24l-6.59 -7.04c-3.16,-3.93 -2.32,-4.1 -6.57,-7.71l-8.95 4.47z"/>
   <path class="fil1" d="M276.92 259.22c5.74,-5.06 9.26,-0.98 6.99,-15.04l-10.87 -0.77 -0.03 5.97c-0.02,3.72 0.02,2.46 1.06,5.2 1.68,4.47 1.47,2.89 2.85,4.64z"/>
   <path class="fil4" d="M200.94 166.46l-0.16 17.03 3.18 -0.58 -1.24 -6.37c6.04,-1.23 5.22,-0.36 9.05,-3.51 0.68,-5.34 0.21,-8.12 -1.61,-10.97l-9.22 4.4z"/>
   <path class="fil6" d="M171.09 194.49l-0.12 1.64 1.23 -0.02c4.14,6.82 11.49,16.57 14.31,23.58l1.7 1.7 0.13 1.32c2.78,-1.1 2.17,-1.48 1.55,1.46l0.91 2.42 2.77 2 -0.58 -3.86 -0.77 -2.93 -16 -25.72 -4 0.04 -1.12 -1.62c2.34,-1.86 -2.68,-1.88 4.22,-1.02l0.89 1.98 4.13 -0.69c-0.19,-1.85 -2.35,-2.37 3.89,-2.49l-0.7 -0.94c-5.24,0.61 -3.4,0.62 -8.21,2.13l-0.76 -1.65 -3.6 -0.12c-1.06,1.28 -2.11,-0.37 0.15,2.79z"/>
   <path class="fil4" d="M128.56 94.12l4.09 0.37c7.98,-1.73 8.51,-3.59 6.78,-12.97l-10.66 -0.19 -0.22 12.79z"/>
   <path class="fil3" d="M207.32 186.81l2.82 4.6 -10.24 0.18 0.78 -4.99 -8.01 0.11 -0.71 4.42c4.98,0.45 5.91,1.15 9.19,1.67 1.41,0.22 2.91,0.52 4.36,0.39 5.79,-0.49 3.58,-0.9 4.63,-1.78l6.65 0.12c0.31,0.67 0.87,0.67 0.98,1.34l1.82 3.73 5.39 -1.15c-1.98,-6.74 -5.61,-0.32 -8.2,-10.46l-9.45 1.81z"/>
   <path class="fil3" d="M312.36 191.68c1.83,-7.8 2.38,-20.54 -0.08,-27.29 -0.31,11.89 -0.16,8.42 -6.83,12.72l-2.09 1.69c1.28,5.46 4.06,10.31 9.01,12.88z"/>
   <path class="fil4" d="M177.22 94.28c10.65,-1.04 13.06,-0.77 10.85,-12.76l-10.66 -0.19 -0.19 12.95z"/>
   <polygon class="fil2" points="192.23,169.65 192.51,170.87 192.63,183.4 200.78,183.49 200.94,166.46 "/>
   <path class="fil4" d="M177.59 183.49l0.99 -0c0.12,-0.12 0.14,-2.95 4.79,-2.64 5.48,0.37 2.76,1.21 3.84,2.53l-0.11 0.16 5.52 -0.14 -0.12 -12.53c-3.52,1.29 -7.53,2.85 -10.81,4.61 -2.15,1.15 -3.13,1.15 -4.43,3.53 -2.62,4.78 0.24,4.34 0.33,4.47z"/>
   <path class="fil1" d="M232.76 179.52l5.61 5.01c-1.87,4.33 -0.66,4.09 -5.29,5.88 13,8.17 9.66,-9.35 9.74,-19.18 -4.61,3.04 -4.84,5.29 -10.05,8.29z"/>
   <path class="fil4" d="M102.18 225.9l1.77 -1.33 0.04 -1.55c-2.69,-2.07 -2.02,1.85 -2.19,-3.45l5.97 -4.7 0.5 1.42 -1.52 -14.4 -1.02 0.17 -5.14 0.52c-0.04,6.48 -1.52,18.03 1.6,23.31z"/>
   <path class="fil1" d="M71.18 89.9c-0.1,2.32 0.51,1.76 -1.78,1.76 -0.88,0.94 -1.3,1.82 -2.06,2.51 -2.5,2.27 -0.39,1.27 -2.69,1.57l4.03 6.07c-1.66,3.8 -1.41,3.96 -4.82,5.38 12.36,9.14 10.86,-13.43 8.76,-18.84l-1.45 1.56z"/>
   <path class="fil1" d="M39.45 166.05l0.21 22.83c3.45,1.27 3.89,3.88 3.96,-14.78 0.06,-17.35 1.32,-12.84 -3.07,-14.28l-1.09 6.24z"/>
   <path class="fil1" d="M101.81 291.25l5.44 3.48c4.8,-0.34 2.29,1.56 4.35,-2.72 0.63,-1.3 0.69,-4.35 0.24,-5.64 -1.66,-4.88 -5.44,-4.48 -11.54,-3.71l1.52 8.59z"/>
   <path class="fil6" d="M177.12 186.72l0.48 -3.23c-0.09,-0.14 -2.95,0.31 -0.33,-4.47 1.31,-2.39 2.29,-2.39 4.43,-3.53 3.28,-1.76 7.3,-3.32 10.81,-4.61l-0.29 -1.23 0.48 -3.45c-11.22,5.21 -19.27,6.33 -20.81,20.75l5.22 -0.22z"/>
   <path class="fil3" d="M192.71 166.19l5.41 -1 10.71 -8.1c0.87,-0.99 2.11,-2.41 3.04,-3.64 -7.02,5.34 -5.89,3.77 -21.73,3.8 0.1,8.62 1.31,-1.11 2.58,8.93z"/>
   <polygon class="fil2" points="120.59,94.04 128.56,94.12 128.78,81.33 120.69,81.57 "/>
   <path class="fil8" d="M77.74 266.42l5.9 2.85c4.07,2.2 9.29,4.35 15.18,5.01 2.45,-1.57 0.66,1.56 1.29,-2.5l-3.54 -0.73 -3.01 -0.93c-3.51,-1.04 -5.81,-2.23 -8.94,-3.5 -0.21,-0.09 -4.35,-1.7 -4.36,-1.7 -2.88,-1.64 -1.77,-1.1 -3.23,-3.18 -2.68,0.9 -2,1.2 -1.35,-1.59l-2.46 -0.54c-2.36,0 -1.74,0.57 -1.74,-1.85l-1.14 -1.88 -1.63 -1.43 -1.47 1.53 4.9 5.95c1.67,1.36 1.17,0.79 2.72,2.01l2.88 2.5z"/>
   <path class="fil6" d="M197.47 236.98l1.07 2.14c2.5,-0.27 1.8,-0.79 1.85,1.82l11.78 18.46c2.39,0 1.83,-0.61 1.75,1.75 1.5,5.12 -0.16,2.31 3.25,5.01l-0.43 -3.83 -1.71 -3.41 -15.6 -25.43 -1.57 1.53 -0.39 1.95z"/>
   <path class="fil1" d="M245.47 294.33c4.37,-1.15 1.97,0.49 6.13,-3.13 0,-2.39 -0.51,-1.64 2.17,-1.56l1.92 -0.89c-0.44,-7.37 -2.72,-7.14 -10.93,-6.11l0.71 11.7z"/>
   <path class="fil5" d="M265.22 256.89l5.35 1.12 -0.09 12.13 -6.73 0.7 0.35 0.12 -0.61 3.05 6.55 0.14 0.96 0.14c3.36,-5.45 2.29,-12.63 2.2,-20.3l-8.72 -0.48 0.74 3.38z"/>
   <path class="fil6" d="M224.3 180.75l0.65 0.33c-3.13,-0.98 -2.24,-1.44 -2.24,1.96 3.22,-0.17 2.86,0.81 2.24,-1.96l3.39 0 4.41 -1.56c5.21,-3 5.44,-5.24 10.05,-8.29 1.5,-2.02 1.83,-2.62 3.3,-5.18 -1.7,1.09 -1.81,0.54 -3.95,2.19l0.99 -3.24c-4.24,3.07 -4.86,4.87 -8.92,8.1l-9.92 7.64z"/>
   <path class="fil3" d="M310.06 152.62l1.77 3.32c-0.68,-6.12 0.12,-2.67 -1.77,-3.32 0.6,-6.67 -0.96,-10.49 -2.61,-16.61l-5.82 1.44c0.65,5.93 0.29,6.5 5.2,12.16l3.23 3.02z"/>
   <path class="fil8" d="M108.26 216.3l-0.5 -1.42c-0.74,2.74 -0.51,3.03 -1.76,5.69 -0.79,1.69 -1.73,2.14 -2.02,2.45l-0.04 1.55c-0.05,2.55 0.59,2.18 -1.77,1.33 -0.95,0.72 -1,1.05 -2.87,1.99 -0.78,0.39 -1.27,0.56 -2.23,0.91 -3.48,1.27 -2.03,0.62 -5.7,1.46l1.15 0.42c0,3.98 0.74,2.87 -3.42,1.54l0.25 1.87c6.44,-1.02 7.09,-1.23 11.69,-3.72l3.87 -2.45c2.46,-2.98 5.63,-7.16 6.27,-13.4 0.53,3.44 0.39,0.62 -2.92,1.78z"/>
   <polygon class="fil2" points="263.75,270.85 270.48,270.15 270.57,258.02 265.22,256.89 "/>
   <path class="fil8" d="M120.69 81.57l8.09 -0.24 10.66 0.19 7.77 0 -1.39 -3.22 -1.26 0.02 -26.27 0.38c3.92,1.48 1.15,0.58 2.4,2.86z"/>
   <path class="fil8" d="M169.31 81.57l8.09 -0.24 10.66 0.19 7.77 0 -1.39 -3.22 -1.26 0.02 -26.27 0.38c4.23,1.46 1.22,0.65 2.4,2.86z"/>
   <path class="fil6" d="M244.5 236.58c4.54,9.29 11.28,16.19 20.71,20.31l-0.74 -3.38 -0.97 -1.23c-6.91,-2.03 -12.92,-9.13 -15.75,-16.05l-2.32 0 -0.94 0.35z"/>
   <path class="fil7" d="M124.29 153.25c3.15,-1.84 1.44,-0.73 5.08,-1.75l-0.32 -9.93c-0.3,0.41 -0.6,0.96 -0.79,1.3l-4.37 6.81c-6.38,-1.98 -7.67,-4.83 -10.5,-12.98 5.71,-2.11 4.47,-0.81 7.38,-5.31 -2.92,2.15 -5.15,3.41 -9.97,4.97 1.9,3.25 4.52,7.9 6.1,10.27 4.39,6.59 6.01,1.29 7.38,6.62z"/>
   <path class="fil7" d="M104.65 108.7l-0.59 4.37c6.67,-0.57 2.42,-0.87 6.7,1.32 -2.7,-4.1 -3.33,-7.65 -2.52,-14.11 16.51,1.08 -6.52,11.11 6.31,11.5 9.46,0.28 0.64,0.49 4.56,-1.54l-7.62 -0.64 4.14 -7.65c-6.43,-5.38 -11.51,-3.07 -10.98,6.75z"/>
   <path class="fil5" d="M211.65 182.66l-7.69 0.25 -3.18 0.58 -0.11 3.12 6.65 0.21 9.45 -1.81 5.95 -1.96c0,-3.41 -0.89,-2.95 2.24,-1.96l-0.65 -0.33 -12.65 1.91z"/>
   <path class="fil4" d="M250.02 110.68l-6.69 -12.46 -1.39 -1.23 -5.93 1.22c5.48,5.64 6.14,10.87 14,12.48z"/>
   <path class="fil3" d="M141.47 269.99l-5.71 0.69 0.42 1.75c5.13,5.59 4.13,2.65 13.26,4.34 -1.99,-7.46 1.52,-1.48 -5.46,-7l2.44 -3.25c-5.37,2.66 -2.05,0.11 -4.95,3.47z"/>
   <path class="fil3" d="M248.72 61.82c-0.03,2.55 -0.57,2.03 1.91,1.19 1,3.17 -0.04,1.35 1.92,4.31 0.03,0.04 2.67,3.32 2.84,3.49 3.91,3.83 3.71,2.87 10.4,2.59 -1.6,-2 -0.49,-1.17 -3.35,-3.35 -1.54,-1.17 -2.07,-1.27 -3.8,-2.52 -4.41,-3.21 -2.82,-3.02 -8.01,-4.52 0.77,-2.65 0.97,-1.8 -1.91,-1.19l-1.88 -1.94c0,3.05 -0.86,2.68 1.88,1.94z"/>
   <path class="fil5" d="M120.41 97.37l0.18 -3.32 -2.72 -1.51 -0.23 -10.01 3.06 -0.96c-1.25,-2.28 1.51,-1.38 -2.4,-2.86l-1.48 0.28c-2.27,2.18 -1.75,2.43 -1.73,8.8 0.01,2.94 0.06,5.88 0.05,8.9l5.27 0.68z"/>
   <path class="fil8" d="M164.58 218.63c3.88,-1.45 1.24,1.28 3.3,-1.89l0.01 -15.14 -0.11 -0.14c-3.4,-1.1 -1.62,1.13 -3.13,-2.08l-0.08 19.24z"/>
   <polygon class="fil8" points="164.97,178.02 167.7,177 167.94,159.4 164.72,158.17 "/>
   <path class="fil3" d="M106.46 276.55l-3.75 -2.28 -0.71 -2.57 -1.91 0.08c-0.63,4.06 1.15,0.93 -1.29,2.5 -5.89,-0.67 -11.1,-2.82 -15.18,-5.01 1.49,2.2 2.63,3.83 4.43,6.23 8.96,0.92 10.98,-0.13 18.41,1.05z"/>
   <path class="fil3" d="M167.7 177c6.23,-6.05 6.54,-11.24 0.24,-17.61l-0.24 17.61z"/>
   <path class="fil1" d="M259.28 134.79c4.94,-4.97 6.39,-11.49 -2.98,-14.04l2.98 14.04z"/>
   <path class="fil7" d="M123.58 62.54c2.49,-2.1 3.92,-4.86 9.34,-1.37 -0.41,3.04 -6.72,8.2 -0.92,9.62 7.98,1.96 5.2,-0.95 5.94,-1.33l-6.39 -2.4c1.17,-1.61 1.73,1.26 2.9,-5.89 -5.37,-4.5 -7.85,-5.72 -10.87,1.37z"/>
   <path class="fil5" d="M132.33 269.44l-7.65 2.05 -8.13 0.21 0.04 1.12c8.41,-0.52 4.25,-0.64 5.87,2.22l13.73 -2.62 -0.42 -1.75c-1.47,-2 -2.42,0.36 -0.53,-2.62l-2.9 1.38z"/>
   <path class="fil8" d="M106.46 276.55l2.67 -1.03 7.91 0.01 5.41 -0.49c-1.62,-2.86 2.54,-2.74 -5.87,-2.22 -1.51,0 -7.71,-0.44 -8.5,-0.39 -8.4,0.55 7.39,-1.57 -2.88,0.48l-2.48 1.35 3.75 2.28z"/>
   <path class="fil6" d="M221.1 272.65l0 2.1 15.72 -0.63c-2.39,-4.2 3.23,-1.8 -3.61,-3.33l-8.86 0.14 -1.7 -0.06 -1.54 1.78z"/>
   <path class="fil3" d="M174.54 191.82l0.76 1.65c4.81,-1.51 2.97,-1.51 8.21,-2.13l0.7 0.94 5.48 0.36 0 -1.39 -6.18 0.09 2.7 -3.78c0.16,-0.18 0.57,-0.56 0.86,-0.84l-9.95 -0c0.14,5.59 2.06,4.89 -2.57,5.1z"/>
   <path class="fil5" d="M184.18 195.22l8.31 0.09 5.65 -0.08c-2.32,-3.63 0.71,-1.54 -3.68,-2.61 -2,-0.49 -2.7,-0.17 -4.76,0.02l-5.48 -0.36c-6.24,0.12 -4.08,0.64 -3.89,2.49l3.86 0.46z"/>
   <polygon class="fil5" points="78.16,191.2 77.87,194.42 82.52,194.35 92.66,192.74 93.74,190.15 "/>
   <path class="fil1" d="M192.82 230.8l0.74 -2.2 -2.77 -2 -0.91 -2.42c-0.29,0.29 -0.72,0.34 -0.84,0.9l-2.9 3.75c-1.8,2.05 -2.03,1.88 -3.25,2.36 4.71,2.96 5.81,2.44 9.93,-0.39z"/>
   <path class="fil5" d="M226.12 84.37l9.7 5.51 2.21 0 -0.72 -1.85 -0.94 -2.07c-2.42,-0.98 -5.26,-2.54 -7.74,-4.66l-2.74 -0.28 0.09 2.34 0.15 1.01z"/>
   <path class="fil3" d="M66.15 257.95c1.71,2.47 2.3,3.58 3.98,5.98 0.19,0.28 1.84,2.55 2.04,2.76 1.51,1.64 1.19,1.15 2.78,2.38 0.4,-3.17 -0.48,-2.23 2.78,-2.66l-2.88 -2.5c-1.55,-1.22 -1.05,-0.65 -2.72,-2.01l-4.9 -5.95 -1.99 0 0.09 1.76 0.81 0.24z"/>
   <path class="fil5" d="M105.72 202.07l1.02 -0.17 1.52 14.4c3.31,-1.15 3.45,1.67 2.92,-1.78l-2.18 -14.54c0.41,2.63 0.81,1.68 -2.26,1.91l-2.67 -4.13 1.65 4.3z"/>
   <path class="fil7" d="M167.88 216.74c2.38,-2.49 3.03,-2.43 3.45,-6.69 0.09,-0.89 0.02,-3.51 -0.23,-4.32 -2.22,-7.31 -0.72,-1.97 -3.21,-4.13l-0.01 15.14z"/>
   <polygon class="fil1" points="210.14,191.42 207.32,186.81 200.68,186.6 199.89,191.6 "/>
   <path class="fil7" d="M177.72 142.21c5.62,-3.31 5.52,-2.42 7.94,-1.65 1.87,8.67 -2.43,0.56 -2.84,7.23 -0.08,1.25 0.46,2.41 2.48,2.99 7.99,2.27 5.53,-1.1 5.96,-1.32l-7.68 -0.21c0.23,-0.71 0.58,-1.54 0.67,-1.29 0.09,0.24 0.51,-0.71 0.64,-0.88 4.22,-5.72 -2.18,4.25 1.35,-1.62 1.91,-3.17 0.75,1.07 1.54,-4.3 -2.26,-1.89 -1.75,-2.12 -5.85,-3.08 -3.11,2.06 -2.19,1.55 -4.22,4.13z"/>
   <path class="fil2" d="M215.1 154.39c1.82,-0.31 4.76,-0.54 6.07,-0.82 4.26,-0.9 2.7,-0.83 3.97,-1.43 -0.33,-0.32 -0.72,-0.76 -0.96,-0.97l-6.34 -3.86 -2.74 7.09z"/>
   <path class="fil3" d="M89.36 234.1c-3.48,2.68 1.5,3.22 3.56,4.38 2.39,-2.9 1.33,-1.36 3.93,-3.56l3.39 -3.41c0.15,-0.63 0.54,-0.76 0.82,-1.13 -4.6,2.49 -5.25,2.7 -11.69,3.72z"/>
   <path class="fil7" d="M168.1 135.63c4.29,-6.04 5.02,-10.66 0.22,-15.58l-0.22 15.58z"/>
   <path class="fil5" d="M205.23 81.26l12.18 0.59c-1.02,-2.91 1.66,-1.59 -1.88,-3.11l-1.56 0.01 -9.1 -0.21 0.35 2.73z"/>
   <path class="fil1" d="M296.24 111.15l-0.3 -0.11 -1.48 -2.07c-1.66,-5.72 -3.57,-8.02 -6.99,-11.66l-2.79 1.5c5.71,3.99 4.81,7.76 11.56,12.34z"/>
   <path class="fil5" d="M236.82 274.12l9.43 0.5 0 -3.3 -13.04 -0.53c6.84,1.52 1.22,-0.87 3.61,3.33z"/>
   <path class="fil1" d="M183.51 191.34l6.18 -0.09 2.26 -0.11 0.71 -4.42 -5.55 -0.12 -0.04 0.12c-0.29,0.27 -0.71,0.66 -0.86,0.84l-2.7 3.78z"/>
   <path class="fil5" d="M156.83 81.21l12.48 0.36c-1.19,-2.21 1.83,-1.41 -2.4,-2.86l-1.56 0.04 -8.74 -0.14 0.22 2.61z"/>
   <polygon class="fil4" points="120.59,94.04 120.69,81.57 117.63,82.53 117.87,92.53 "/>
   <polygon class="fil8" points="177.12,186.72 187.07,186.72 187.11,186.6 187.11,183.54 187.22,183.38 178.58,183.49 177.59,183.49 "/>
   <path class="fil7" d="M219.09 307.31l11.06 -4.15c-6.89,-5.63 -9.23,0.76 -11.06,4.15z"/>
   <path class="fil3" d="M122.75 302.95l14.72 5.44c-3.46,-2.91 -2.97,-3.1 -5.73,-6.49l-9 1.04z"/>
   <path class="fil1" d="M236.37 85.97c3.41,-5.4 -6.93,-8.27 -7.74,-4.66 2.48,2.13 5.32,3.68 7.74,4.66z"/>
   <path class="fil8" d="M211.5 104.85l0.91 -0.69c-0.32,-2.93 0.89,-1.62 -0.56,-3.76l-5.57 -1.81c-4.3,-0.62 -1.12,-0.82 -2.89,2.32 3.11,0.71 1.48,-0.06 4.62,1.64 1.78,0.96 2.01,1.41 3.49,2.3z"/>
   <polygon class="fil5" points="193.56,228.59 192.82,230.8 197.87,235.03 199.43,233.5 199.59,232.32 192.98,224.73 "/>
   <path class="fil5" d="M98.44 194.24c4.41,2.32 1.9,0.43 5.29,3.64l2.1 -0.16 0.1 -2.58 -2.03 -1.15 -2.1 -1.06c-2.36,0.57 -1.55,0.77 -1.06,-1.87 -3.16,0.09 -0.33,1.19 -5.06,-0.76 0.38,0.35 0.84,0.83 1.07,1.1 0.2,0.24 0.66,0.8 0.84,1.04 6.15,7.86 -1.96,-6.14 0.86,1.8z"/>
   <path class="fil8" d="M246.69 159.25l-3.89 4.03 0.36 1.73 -0.99 3.24c2.14,-1.65 2.25,-1.1 3.95,-2.19l3.14 -7.14 -0.27 -0.93 -2.29 1.27z"/>
   <path class="fil5" d="M217.18 266.17l-1.24 2.15 5.17 4.34 1.54 -1.78c-0.56,-0.94 -1.13,-2.14 -2.02,-3.57 -0.24,-0.38 -0.99,-1.65 -1.27,-2.04 -1.42,-1.94 -1.34,-1.69 -2.6,-2.92l0.43 3.83z"/>
   <polygon class="fil6" points="254.81,274.27 263.48,274.01 264.09,270.97 257.98,270.83 254.85,270.95 "/>
   <path class="fil8" d="M164.66 155.43l3.12 -0.27 0.02 -6.2 0.04 -1.18c-0.79,-0.81 -2.49,-1.82 -3.36,-2.54l0.18 10.19z"/>
   <path class="fil3" d="M167.77 155.16l7 -0.32c-1.46,-4 -3.22,-3.63 -6.98,-5.88l-0.02 6.2z"/>
   <path class="fil8" d="M164.64 194.65l0.05 0.46 3.01 0.45 0.17 -7.68 -0.26 -1.26c-3.52,-1.66 -2.86,2.23 -2.81,-2.19l-0.16 10.21z"/>
   <polygon class="fil8" points="120.41,97.37 128.84,97.27 128.56,94.12 120.59,94.04 "/>
   <path class="fil2" d="M133.41 148.47c4.42,-2.1 1.56,0.1 4.11,-2.52 -0.88,-4.57 -0.87,-4.25 -4.81,-5.85l0.69 8.38z"/>
   <polygon class="fil8" points="192.66,186.72 200.68,186.6 200.78,183.49 192.63,183.4 "/>
   <path class="fil3" d="M304.64 224.54l3.1 -8.17c-0.46,0.09 -1.17,-0.33 -1.38,0.26l-4.57 2.96c1.48,8.71 0.44,2.45 2.85,4.96z"/>
   <path class="fil5" d="M164.97 178.02l-0.17 6.42c-0.06,4.42 -0.71,0.54 2.81,2.19l0.1 -9.63 -2.73 1.01z"/>
   <path class="fil2" d="M103.98 223.02c0.29,-0.31 1.23,-0.76 2.02,-2.45 1.25,-2.66 1.02,-2.95 1.76,-5.69l-5.97 4.7c0.17,5.3 -0.5,1.38 2.19,3.45z"/>
   <path class="fil8" d="M217.41 81.85l8.56 1.51 -0.09 -2.34 -10.35 -2.29c3.54,1.52 0.86,0.2 1.88,3.11z"/>
   <path class="fil8" d="M192.71 166.19l-0.48 3.45 8.72 -3.19c-2.03,-2.5 1,-2.64 -2.82,-1.26l-5.41 1z"/>
   <path class="fil8" d="M238.03 89.88c1.03,4.74 -1.17,3.48 3.73,5.01l1.55 0.02c-2.13,-4.97 -1.72,-4.84 -6,-6.87l0.72 1.85z"/>
   <path class="fil1" d="M216.73 139.87l0.13 -4.44 -5.53 1.98c3.68,5.57 -0.15,4.54 5.39,2.46z"/>
   <path class="fil8" d="M135.23 268.06c-1.88,2.98 -0.93,0.62 0.53,2.62l5.71 -0.69 -0.18 -3.49 -6.06 1.57z"/>
   <path class="fil6" d="M246.24 274.63l6.26 -0.33c-1.38,-4.07 1.15,-2.26 -1.65,-3.34l-4.6 0.37 0 3.3z"/>
   <path class="fil4" d="M239.77 232.23c-0.58,-4.33 0.29,-2.49 -1.83,-3.52 -7.83,2.39 -2.74,0.25 -4.91,4.04l6.73 -0.52z"/>
   <path class="fil2" d="M178.58 183.49l8.64 -0.11c-1.08,-1.32 1.64,-2.17 -3.84,-2.53 -4.65,-0.31 -4.67,2.52 -4.79,2.64z"/>
   <path class="fil3" d="M167.69 195.57l3.28 0.57 0.12 -1.64c-2.26,-3.17 -1.21,-1.51 -0.15,-2.79l-3.08 -3.81 -0.17 7.68z"/>
   <polygon class="fil5" points="187.11,186.6 192.66,186.72 192.63,183.4 187.11,183.54 "/>
   <path class="fil5" d="M164.66 199.39c1.51,3.21 -0.27,0.98 3.13,2.08l-0.1 -5.9 -3.01 -0.45 -0.03 4.28z"/>
   <polygon class="fil6" points="199.25,81.24 205.23,81.26 204.88,78.53 199.6,78.54 "/>
   <path class="fil4" d="M164.21 110.72l0.57 -5.33c-0.95,0.58 -1.91,0.85 -2.8,1.74 -2.45,2.45 -0.13,-0.45 -2.31,3.08l4.54 0.51z"/>
   <path class="fil8" d="M106.74 201.9c3.07,-0.23 2.67,0.72 2.26,-1.91l0.25 -1.94c-2.61,0.53 -2.23,1.19 -1.76,-1.31l-1.66 0.99 -2.1 0.16 0.34 -0.12 2.67 4.13z"/>
   <polygon class="fil5" points="147.21,81.52 152.13,81.21 150.79,78.57 145.82,78.3 "/>
   <polygon class="fil6" points="152.13,81.21 156.83,81.21 156.61,78.6 150.79,78.57 "/>
   <path class="fil1" d="M212.95 109.69l0.54 -1.22 -2.17 -1.34c-5.48,1.2 -1.25,-0.46 -3.08,3.14 5.62,1.15 2.61,0.57 4.72,-0.58z"/>
   <path class="fil5" d="M243.24 237.25l1.26 -0.67 0.94 -0.35 0.39 -1.7c-2.43,0 -1.61,0.48 -1.35,-2.36l-1.69 -1.14 -0.99 1.2 1.44 5.02z"/>
   <polygon class="fil5" points="195.83,81.52 199.25,81.24 199.6,78.54 194.44,78.3 "/>
   <path class="fil1" d="M276.04 263.25c-0.87,2.09 -1.09,1.46 -1.24,4.73 -0.27,5.81 0.16,1.47 0.8,2.94 2.15,-3.59 1.76,-4.13 0.44,-7.67z"/>
   <path class="fil5" d="M172.2 196.12l4 -0.04 -0.02 -0.63 -0.89 -1.98c-6.89,-0.85 -1.87,-0.84 -4.22,1.02l1.12 1.62z"/>
   <polygon class="fil5" points="164.72,158.17 167.94,159.4 167.77,155.16 164.66,155.43 164.76,157.22 "/>
   <path class="fil8" d="M92.66 192.74l5.78 1.51c-2.82,-7.93 5.29,6.07 -0.86,-1.8 -0.19,-0.24 -0.64,-0.8 -0.84,-1.04 -0.23,-0.28 -0.69,-0.76 -1.07,-1.1l-1.93 -0.16 -1.08 2.59z"/>
   <path class="fil5" d="M252.5 274.29l-1.02 0.12 3.33 -0.14 0.04 -3.33 -4 0.01c2.8,1.08 0.27,-0.73 1.65,3.34z"/>
   <polygon class="fil4" points="164.84,142.86 164.69,137.98 161.23,139.04 "/>
   <polygon class="fil4" points="164.68,224.04 164.69,219.54 161.08,221.56 "/>
  </g>
 </g>
</svg>
