<?xml version="1.0" encoding="UTF-8"?>
<!DOCTYPE svg PUBLIC "-//W3C//DTD SVG 1.1//EN" "http://www.w3.org/Graphics/SVG/1.1/DTD/svg11.dtd">
<!-- Creator: CorelDRAW 2021 (64 Bit) -->
<svg xmlns="http://www.w3.org/2000/svg" xml:space="preserve" width="176.356mm" height="90.9465mm" version="1.1" style="shape-rendering:geometricPrecision; text-rendering:geometricPrecision; image-rendering:optimizeQuality; fill-rule:evenodd; clip-rule:evenodd"
viewBox="0 0 3411.23 1759.16"
 xmlns:xlink="http://www.w3.org/1999/xlink"
 xmlns:xodm="http://www.corel.com/coreldraw/odm/2003">
 <defs>
  <style type="text/css">
   <![CDATA[
    .fil1 {fill:black}
    .fil14 {fill:#00A859}
    .fil4 {fill:#333333}
    .fil13 {fill:#3DBD81}
    .fil8 {fill:#65B1FB}
    .fil11 {fill:#66CB9C}
    .fil9 {fill:#8AD7B3}
    .fil7 {fill:#8BC4FB}
    .fil2 {fill:#959798}
    .fil3 {fill:#C7EBDA}
    .fil10 {fill:#DBAD8F}
    .fil5 {fill:#EBD0BE}
    .fil12 {fill:#ED3237}
    .fil15 {fill:#FE0000}
    .fil6 {fill:#FEFE00}
    .fil0 {fill:white}
   ]]>
  </style>
 </defs>
 <g id="Camada_x0020_1">
  <metadata id="CorelCorpID_0Corel-Layer"/>
  <g id="_2404952635616">
   <path class="fil0" d="M358.35 1403.26l42.21 -0.33 0.37 183.07 -42.51 -0.07 -0.07 -182.66zm2212.8 196.99l-5.95 3.84c-2.33,45.45 -38.25,48.45 -70.03,48.45 -24.98,-0 -99.36,3.4 -116.84,-3.77 -34.73,-14.24 -30.28,-48.28 -30.28,-90.53l0 -242.38c0,-27.1 -6.18,-73 38.72,-82.14 21.86,-4.45 92.4,-1.05 119.87,-1.12 42.96,-0.11 58.58,19.49 58.58,61.97l2.37 1.41c0.06,0.01 3.23,0.33 3.78,0.37 47.9,1.73 54.3,11.26 91.88,26.63 56.28,23.02 144.39,-22.16 205.38,-18.84 33.68,1.83 62.6,27.45 71.33,48.11l128.66 -59.06c51.19,-25.59 95.17,-33.61 142.46,2.75 21.03,16.17 63,52.99 45.93,85.71 -7.06,13.55 -11.88,13.56 -25.28,22.25l-115.95 72.41c-70.4,41.93 -165.13,104.66 -238.9,137.72 -57.14,25.61 -82.63,35.43 -148.81,12.66 -34.71,-11.94 -73.49,-30.4 -111.75,-29.36 -14.99,0.41 -30.34,3.97 -45.16,2.93zm-781.22 -924.73c-15.1,-8.05 -48.83,-6.02 -76.32,-47.1 -17.34,-25.92 -25.94,-61.43 -14.09,-96.74 18.52,-55.17 85.22,-98.21 155.04,-62.28 76.1,39.16 76.32,153.47 1.22,192.35 -32.29,16.72 -39.25,5.71 -39.69,20.16 -0.29,9.53 -3.57,105.57 -1.1,115.82 0.08,0.31 0.43,1.44 0.5,1.22 0.06,-0.22 0.31,0.82 0.55,1.18 11.18,3.66 36.91,5.63 51.83,9.77 34.97,9.69 83.62,33.41 109.2,59.48 4.25,4.34 2.83,3.84 7.79,6.66l43.03 -40.55c14.66,-13.1 28.51,-27.69 43.12,-39.94 -4.6,-10.86 -48.95,-54.54 -18.31,-120.27 6.97,-14.95 11.67,-20.75 21.51,-30.93 38.35,-39.68 106.73,-45.06 148.84,-6.24 68.22,62.89 39.77,170.6 -48.97,189.64 -35.79,7.68 -57.82,-3.09 -83.07,-15.78 -14.43,14.67 -29.65,28.28 -44.87,41.8l-21.62 20.97c-8.38,8.72 -13.54,13.63 -21.64,20.78 47.1,63.17 52.99,82.66 65.87,165.9l124.54 0.03c4.43,-16.78 5.45,-26.58 13.49,-40.54 55.63,-96.51 204.45,-60.61 204.9,52.58 0.24,59.03 -45.49,106.01 -101.6,109.56 -60.77,3.85 -110.27,-41.42 -115.95,-95.4l-125.77 0.91c-2.01,36.55 -9.76,65.58 -22.41,95.83 -17.97,42.95 -35.82,54.93 -45.5,72.53 10.47,14.02 69.44,65.67 80.24,80.2 5.99,-2.27 9.93,-6.06 16.75,-9.54 47.99,-24.55 100.43,-10.9 133.85,26.2 16.35,18.15 28.26,46.23 26.01,78.41 -1.84,26.25 -14.35,53.32 -32.23,70.5 -38.2,36.72 -108.58,42.63 -150.18,2.58 -72.95,-70.24 -14.26,-143.77 -12.26,-150.3l-80.68 -78.88c-5.8,3.36 -11.27,9.15 -17.25,13.76 -28.87,22.31 -61.46,39.64 -97.7,49.64 -7.56,2.09 -46.1,7.81 -48.58,10 -2.85,2.63 -1.23,-1.5 -2.15,5.64 -1.95,15.07 -1.72,100.07 -2.01,116.33 4.96,3.05 10.39,2.41 22.32,6.72 115.06,41.49 87.72,211.02 -34.15,212.71 -59.12,0.82 -106.33,-45.24 -110.34,-101.45 -4.39,-61.65 41.72,-110.27 95.91,-116.19l1.67 -122.97c-5.16,-1.73 -43.22,-4.45 -59.2,-8.2 -16.83,-3.95 -34.27,-9.79 -48.89,-16.69 -56.38,-26.6 -53.85,-37.14 -78.86,-51.87 -6.53,8.51 -78.25,74.86 -82.36,77.73 3.86,10.76 12.95,20.42 17.89,35.63 4.56,14.04 6.44,30.49 4.62,46.09 -12.8,109.89 -158.22,132.18 -207.06,35.06 -16.61,-33.03 -12.3,-74.21 5.76,-105.31 22.46,-38.65 78.94,-61.47 126.05,-46.14 16.8,5.47 21.71,11.18 33.48,17.04 3.89,-2.36 81,-73.91 83.91,-79.97 -2.68,-4.7 -9.02,-11.82 -12.89,-17.01 -32,-42.89 -50.17,-93.39 -52.63,-148.95l-118.3 0.05c-4.88,1.56 -5.4,15.98 -7.15,21.14 -2.3,6.79 -4.55,12.64 -7.88,18.4 -55.86,96.7 -204.69,62.12 -205.21,-52.15 -0.41,-89.07 100.36,-145.77 181.74,-82.66 20.43,15.84 30.48,42.96 36.26,68.52 14.93,2.23 44.66,0.49 61.2,0.49 81.47,0 50.8,11.27 67.19,-53.54 4.08,-16.13 8.82,-30.59 15.47,-45.01 9.74,-21.13 19.84,-39.36 33.73,-56.35l13.03 -16.51c-4.76,-7.66 -14.41,-14.65 -21.21,-21.41 -3.84,-3.82 -6.23,-7.51 -10.01,-11.26 -14.52,-14.41 -43.18,-38.4 -53.81,-52.44 -12.05,4.71 -20.63,12.37 -35.68,16.88 -14.39,4.32 -30.95,5.56 -46.63,3.3 -91.85,-13.26 -122.23,-129.77 -60.1,-187.04 84.86,-78.22 216.6,7.97 178.52,116.27 -5.53,15.73 -13.22,22.22 -18.01,32.72l86.55 83.48 17.55 -13.76c17.68,-14.85 36.97,-25.25 58.66,-34.68 30.73,-13.36 65.09,-21.3 102.58,-22.28l1.98 -124.31zm1117.02 355.38c1.01,23.71 9.1,32.57 14.68,50.87l-66.73 23.69c-1.92,-5.46 -9.56,-17.51 -13.41,-24.62 -4.86,-8.95 -7.11,-18.35 -18.12,-19.38 -8.42,12.58 -13.8,31.23 -21.75,46.09 -8.16,-2.02 -48.05,-16.33 -54.9,-20.29 -17.87,-10.33 1.92,-38.45 2.72,-56.31 -21.04,0.03 -34.87,7.23 -53.04,11.21l-29.45 -66.95c14.12,-8.22 35,-8.13 46.77,-18.01 -3.23,-7.44 -16.39,-14.19 -23.34,-18.34 -8.73,-5.21 -18.16,-9.76 -25.75,-15.11l30.04 -65.39c16.32,4.52 35.9,18.57 55.6,15.05 -1.93,-16.98 -13.75,-36.72 -18.04,-53.95l20.63 -7.13c-1.87,-2.37 -0.44,-1 -2.97,-3.05 -0.33,-0.26 -0.7,-0.56 -1.05,-0.8 -7.17,-5.13 -25.88,-14.52 -33.48,-14.31 -2.1,18.94 3.8,34.98 4.55,52.93l-67.62 14.13c-1.73,-9.08 -4.25,-17.33 -7.11,-26.19 -1.48,-4.56 -2.6,-7.91 -4.33,-12.03l-5.6 -9.67c-0.13,-0.61 -0.57,-0.66 -0.88,-0.98 -16.97,8.55 -22.6,27.68 -34.39,40.21 -8.33,-4.21 -21.84,-13.93 -29.48,-19.85 -9.94,-7.7 -18.22,-13.67 -27.4,-19.78 3.25,-10.46 19.58,-36.8 19.91,-44.9 0.33,-8.07 0.37,-2.9 -1.92,-4.76 -5.32,-6.13 -40.99,4.46 -50.89,5.3 -3.96,-19.51 -14.58,-46.61 -13.39,-65.94 16.22,-12.32 39.43,-11.96 46.94,-20.56 -3.07,-6.46 -12.37,-15.3 -18.16,-20.55 -6.45,-5.85 -14.53,-10.5 -20.02,-17.03l38.73 -61.81c8.61,5.74 32.22,28.24 41.83,28.38 3.47,-22.46 -1.31,-37.85 -1.03,-59.13l72.13 -11.22c1.48,11.65 5.88,46.01 18.09,53.02 10.37,-7.64 18.07,-22.81 25.41,-33.7l8.98 -10.42c4.37,2.69 9.06,5.83 13.34,9.03 3.3,-7.84 11.44,-32.34 11.11,-41.63 -21.16,-0.11 -34.78,7.8 -52.83,11.07l-29.83 -66.65c13.01,-7.46 32.21,-8.3 45.3,-16.89l2.03 -1.58c-9.45,-15.12 -35.53,-21.99 -49.19,-33.13l30.23 -65.47c19.84,5.17 29.13,16.29 55.44,15.7 -2.22,-19.18 -14.08,-36.45 -17.93,-54.51l63.29 -22.9c7,13.97 17.74,30.74 31.41,36.4 1.46,-2.19 4.08,-3.77 6.99,-7.43 7.54,-9.47 11.58,-21.4 17.16,-32.32l67.59 26.08c-1.63,17.31 -16.46,45.06 -12.3,55.52 16.15,3.44 34.5,-12.82 49.83,-17.09l28.88 66.65c-7.41,3.08 -40.84,19.91 -46.86,27.57 2.35,4.31 6.51,6.23 10.48,8.43 4.33,2.41 7.62,4.3 11.66,6.32 6.86,3.43 16.81,8.62 24.33,10.98l-24.52 61.92 18.58 -6.12c4.75,13.17 19.55,32.12 30.75,36.3 9.77,-6.42 18.02,-25.98 24.09,-39.6l68.11 24.9c-1.56,16.04 -7.38,27.78 -12.19,42.45 -1.33,4.08 -2.71,10.66 0.16,13.45 10.7,6.68 38.26,-13.11 49.28,-16.33 6.96,17.57 25.07,50.15 28.72,67.36 -9.53,3.25 -41.46,19.78 -46.66,27.4 11.45,10.29 30.04,18.5 46.3,25.64l-26.79 63.67c-18.04,-3.95 -30.09,-11.78 -50.89,-12.49 0.4,23.96 8.83,34.04 14.75,52.36l-65.39 23.47c-10.43,-10.77 -18.29,-39.46 -30.76,-43.93 -12.45,9.08 -15.51,37.64 -24.92,46.2 -13.04,-4.41 -43.11,-14.04 -54.56,-20.12 -16.5,-8.77 2.25,-39.39 3.5,-55.94 -15.47,-1.36 -38.36,6.72 -52.11,10.67 -3.36,-3.43 -28.88,-59.85 -30.66,-66.61 10.22,-6.94 33.95,-8.94 46.89,-18.02 -2.17,-4.7 -0.74,-2.34 -5.22,-6.1l-17.47 -12c-7,-4.39 -18.54,-11.31 -26.8,-14.59l28.76 -62.94 -18.42 6.61c-12.09,-9.4 -17.85,-41.74 -33.66,-44.01 -5.78,7.76 -17.28,34.32 -21.74,46.58l-23.21 -8.45 -12.17 35.12c-0.33,1.98 -0.84,5.45 -0.73,7.38 0.18,3.17 0.29,2.14 0.8,4.07l1.11 2.26c10.41,7.05 33.33,-0.27 45.38,-1.71l17.22 71.25c-8.84,2.08 -18.14,6.72 -28.73,9.32 -9.76,2.4 -20.37,3.01 -24.23,11.41 -0.73,9.74 30.47,22.58 39.31,29.41l1.89 1.71c-6.3,16.37 -20.47,31.65 -28.45,47.66l19.71 -6.54c3.41,3.77 4.42,6.81 6.86,10.97 6.38,10.85 12.54,19.21 24.25,24.96 9.85,-5.42 19.64,-26.22 24.89,-39.58l68 25.22c-0.83,17.46 -17.16,46.09 -12.09,56.27 11.86,3.29 37.83,-12.2 48.57,-16.72 3.39,3.75 26.63,56.63 29.56,64.81 -10.41,12.01 -33.61,16.63 -44.94,27.48l-1.65 2c8.47,11.41 32.41,17.72 45.99,26.61l-25.69 63.31c-11.73,-3.05 -39.48,-16.85 -51.67,-11.3zm-146.24 -446.11c2.18,0.34 0.61,-0.6 -1.12,-0.19 -0.52,0.12 1.11,0.19 1.12,0.19zm-2089.07 -472.8c60.89,-15.17 78.97,65.35 25.81,79.15 -60.73,15.76 -81.61,-65.25 -25.81,-79.15zm10.57 941.65c12.95,-1.31 18.75,-4.51 20.57,-16.66 2.18,-14.56 0.56,-93.07 0.36,-110.55 -20.58,-8.05 -54.36,-41.94 -68.5,-59.11 -31.01,-37.64 -26.27,-31.57 -49.5,-78.31 -13.95,-28.08 -25.03,-19.49 -51.62,-33.49 -36.83,-19.39 -48.36,-59.27 -59.32,-111 -9.05,-42.73 -12.31,-106.18 44.94,-114.11 2.49,-10.45 -7.62,-57.38 -7.5,-90.72 0.11,-31.3 0.23,-64.64 5.11,-94.97 4.47,-27.75 13.51,-53.11 24.87,-75.21 11.17,-21.72 32.93,-53.15 37.34,-62.43 16.05,2.68 32.69,16.38 38.79,25.05 -4.35,9.1 -13.39,20.52 -19.5,30.16 -20.69,32.66 -38.23,68.41 -39.69,109.53 17.27,-4.87 40.65,-28.57 87.61,-32.45 31.52,-2.61 50.13,16.84 79.25,39.1 40.22,30.75 100.15,66.42 171.4,63.4 90.73,-3.84 143.67,-54.67 200.35,-94.96 28.29,-20.11 56.93,-2.16 84.95,15.41l35.84 22.45c-3.32,-47.61 -30.15,-107.73 -51.36,-139.57 -30.94,-46.43 -31.46,-42.31 -67.86,-74.58 -67.17,-59.54 -157.37,-84.08 -251.07,-76.37 -48.51,3.99 -47.12,10.97 -75.99,18.03l-12.59 -41.08c18.32,-15.09 78.14,-20.28 106.57,-21.28 42.72,-1.5 78.81,-1.41 118.14,9.56 67.22,18.73 123.08,55.45 161.98,91.88 45.34,42.46 72.19,76.63 99.37,154.52 30.97,88.76 16.03,134.98 15.65,228.42 26.08,8.43 43.83,23.33 51.53,48.33 11.6,37.64 -2.8,50.98 -10.71,80.12 -11.38,41.93 -10.78,104.19 -92.15,105.99 -8.74,39.95 -48.8,87.74 -69.17,107.7 -81.47,79.8 -214.21,125.78 -330.27,98.73 -40.11,-9.35 -44.85,-16.9 -64.11,-22.77 -2.81,96.29 21.41,114.56 -46.98,144.1 1.06,58.61 32.77,99.79 76.88,130.75 20.26,14.22 44.19,25.88 73.9,30.71 47.82,7.77 54.92,-5.03 45.18,51.09 -79.73,3.87 -172.02,-47.93 -214.72,-118.87 -17.91,-29.75 -19.47,-47.28 -24.31,-85.18 -35.59,0.67 -72.67,9.45 -106.51,15.8 -34.83,6.53 -70.24,11.39 -104.95,17.73 -71.69,13.09 -122.47,23.32 -176.92,67.17 -58.79,47.35 -58.1,112.49 -58.1,185.5l0.28 181.18c-1.66,11.21 -4.88,13.53 -16.99,14 -9.68,0.38 -20.26,-0.22 -30.03,-0.36 -1.12,-49.75 -0.1,-100.72 -0.1,-150.6 0,-93.84 -11.14,-125.73 26.31,-200.2 17.96,-35.72 24.72,-38.87 49.24,-63.78 42.98,-43.65 128.92,-63.94 187.72,-74.3 68.8,-12.12 193.99,-37.17 256.38,-43.49zm-579.91 -1052.04c-46.69,3.96 -79.18,33.87 -93.28,67.8 -13.15,31.66 -8.03,114.08 -8.03,154.11l0 1370.75c0,22.66 -2.09,56.84 2.56,77.75 9.11,41 40.16,72.42 79.49,82.48 30.26,7.74 119.97,3.51 157.03,3.51l2987.15 0c62.02,0 93.79,8.72 139.31,-22.75 57.55,-39.79 43.1,-124.47 43.1,-199.95l0 -1370.75c0,-22.94 2.04,-57.01 -2.66,-78.16 -8.9,-40.04 -41.2,-72.33 -80.24,-81.96 -30.4,-7.5 -119.86,-3.24 -156.83,-3.24 -995.72,0 -1991.44,0 -2987.15,0 -24.93,0 -56.52,-1.63 -80.45,0.4z"/>
   <path class="fil0" d="M754.81 777.06c5.91,-8.19 23.46,-24.07 33.94,-29.24 11.24,16.27 19.95,26.05 41.14,35.57 20,8.99 42.74,10.6 66.89,10.83 58.5,0.55 84.3,-42.37 105.68,-50.65 6.32,14.68 20.01,19 27.56,25.31 -4.57,17.99 -38.47,39.79 -53.81,48.37 -50.79,28.4 -112.59,30.79 -165.78,6.85 -21.28,-9.58 -48.74,-30.65 -55.62,-47.03zm246.34 -254.76c70.72,-8.15 71.76,86.35 12.97,93.43 -62.24,7.49 -80.38,-85.66 -12.97,-93.43zm-259.05 0.72c69.67,-13.41 79.38,79.76 20.58,92.02 -60.24,12.56 -88.54,-78.94 -20.58,-92.02zm463.55 40.38c5.21,-17.37 10,-45.43 11.68,-64.72 2.51,-28.82 -1.01,-42.09 -15.35,-61.17 -14.53,-19.32 -41.76,-44.02 -67.54,-50.51 -12.86,-3.23 -18.55,1.88 -26.87,7.97 -33.86,24.78 -52.9,42.39 -94.34,61.24 -116.36,52.93 -198.49,36.54 -298.11,-29.75 -29.1,-19.37 -48.41,-44.45 -74.23,-39.73 -29.43,5.39 -61.09,16.72 -67.56,48.83 -3.57,17.73 -12.78,49.75 -11.49,66.11 1.82,23.03 10.1,43.05 9.17,67.82l-54.19 7.78c-13.65,27.51 5.45,71.68 12.96,98.35 11.97,42.49 20.16,45.83 75.05,46.24 6.6,17.92 9.1,29.46 17.47,46.29 17.62,35.43 53.76,82.75 81.41,105.31 59.48,48.53 105.6,59.54 188.14,61.06 83.75,1.54 137.23,-25.24 187.29,-63.54 33.92,-25.95 90,-86.36 100.25,-149.08 29.01,0.43 50.65,5.76 63.9,-14.3 12.4,-18.77 9.28,-40.54 16.08,-62.52 4.85,-15.67 20.83,-49.91 4.57,-61.57 -13.08,-9.38 -46.83,-9.74 -58.3,-20.12z"/>
   <path class="fil1" d="M1205.65 563.4c11.46,10.37 45.22,10.74 58.3,20.12 16.26,11.66 0.28,45.89 -4.57,61.57 -6.8,21.99 -3.68,43.76 -16.08,62.52 -13.25,20.05 -34.89,14.73 -63.9,14.3 -10.25,62.72 -66.33,123.13 -100.25,149.08 -50.06,38.31 -103.54,65.08 -187.29,63.54 -82.54,-1.52 -128.66,-12.53 -188.14,-61.06 -27.65,-22.56 -63.79,-69.88 -81.41,-105.31 -8.37,-16.82 -10.87,-28.36 -17.47,-46.29 -54.89,-0.41 -63.08,-3.75 -75.05,-46.24 -7.51,-26.67 -26.61,-70.85 -12.96,-98.35l54.19 -7.78c0.93,-24.77 -7.35,-44.79 -9.17,-67.82 -1.29,-16.36 7.92,-48.38 11.49,-66.11 6.46,-32.12 38.13,-43.45 67.56,-48.83 25.81,-4.72 45.12,20.36 74.23,39.73 99.62,66.29 181.75,82.68 298.11,29.75 41.44,-18.85 60.49,-36.46 94.34,-61.24 8.33,-6.1 14.02,-11.21 26.87,-7.97 25.78,6.48 53.01,31.18 67.54,50.51 14.34,19.08 17.86,32.35 15.35,61.17 -1.68,19.29 -6.46,47.35 -11.68,64.72zm-446.58 -492.18l12.59 41.08c28.87,-7.07 27.48,-14.04 75.99,-18.03 93.69,-7.71 183.89,16.83 251.07,76.37 36.4,32.27 36.92,28.15 67.86,74.58 21.21,31.83 48.04,91.96 51.36,139.57l-35.84 -22.45c-28.02,-17.57 -56.66,-35.52 -84.95,-15.41 -56.67,40.29 -109.62,91.12 -200.35,94.96 -71.25,3.01 -131.18,-32.65 -171.4,-63.4 -29.12,-22.26 -47.74,-41.71 -79.25,-39.1 -46.96,3.88 -70.33,27.58 -87.61,32.45 1.46,-41.12 19,-76.87 39.69,-109.53 6.11,-9.64 15.15,-21.05 19.5,-30.16 -6.1,-8.67 -22.73,-22.37 -38.79,-25.05 -4.4,9.28 -26.17,40.71 -37.34,62.43 -11.37,22.1 -20.4,47.46 -24.87,75.21 -4.89,30.33 -5.01,63.66 -5.11,94.97 -0.11,33.35 10,80.27 7.5,90.72 -57.25,7.93 -53.99,71.38 -44.94,114.11 10.96,51.73 22.48,91.61 59.32,111 26.59,14 37.67,5.41 51.62,33.49 23.23,46.74 18.49,40.67 49.5,78.31 14.15,17.17 47.92,51.05 68.5,59.11 0.2,17.48 1.82,95.99 -0.36,110.55 -1.82,12.15 -7.62,15.35 -20.57,16.66 -62.39,6.32 -187.58,31.37 -256.38,43.49 -58.81,10.36 -144.74,30.65 -187.72,74.3 -24.52,24.91 -31.28,28.06 -49.24,63.78 -37.45,74.47 -26.31,106.36 -26.31,200.2 0,49.89 -1.02,100.85 0.1,150.6 9.77,0.14 20.35,0.74 30.03,0.36 12.11,-0.47 15.33,-2.79 16.99,-14l-0.28 -181.18c0,-73.01 -0.69,-138.14 58.1,-185.5 54.45,-43.86 105.22,-54.08 176.92,-67.17 34.71,-6.34 70.12,-11.2 104.95,-17.73 33.84,-6.35 70.92,-15.13 106.51,-15.8 4.84,37.9 6.4,55.43 24.31,85.18 42.7,70.93 134.99,122.73 214.72,118.87 9.73,-56.12 2.63,-43.31 -45.18,-51.09 -29.71,-4.83 -53.64,-16.49 -73.9,-30.71 -44.12,-30.96 -75.83,-72.14 -76.88,-130.75 68.38,-29.54 44.16,-47.81 46.98,-144.1 19.27,5.87 24,13.42 64.11,22.77 116.06,27.05 248.8,-18.92 330.27,-98.73 20.37,-19.96 60.43,-67.75 69.17,-107.7 81.38,-1.8 80.77,-64.06 92.15,-105.99 7.91,-29.14 22.32,-42.48 10.71,-80.12 -7.7,-24.99 -25.46,-39.9 -51.53,-48.33 0.38,-93.44 15.32,-139.65 -15.65,-228.42 -27.18,-77.89 -54.03,-112.06 -99.37,-154.52 -38.9,-36.43 -94.76,-73.14 -161.98,-91.88 -39.33,-10.96 -75.42,-11.05 -118.14,-9.56 -28.43,1 -88.25,6.19 -106.57,21.28z"/>
   <path class="fil1" d="M1720.65 1601.13c-3.09,-9.78 -3.33,-22.16 -1.65,-32.91 0.81,-5.21 2.59,-10.61 3.8,-14.33 1.79,-5.51 2.85,-8.57 6.24,-11.8 10.09,-35.33 94.37,-72 138.15,-10.57l2.86 3.31c6.39,8.59 14.15,27.68 12.52,37.53 8.31,17.47 -5.83,49.36 -15.69,60.15 -12.43,13.59 -25.59,25.55 -49.63,30.43 -49.93,10.14 -89.21,-25.64 -96.58,-61.82zm413.23 -94.94c-37.24,-7.96 -72.25,-39.81 -68.7,-84.91 5.04,-46.27 32.75,-74.51 78.48,-79.91 23.34,-2.21 44.67,8.6 56.12,17.74 8.1,6.47 29.14,28.49 28.24,46.05 3.49,5.84 3.56,15.19 3.36,22.05 -1.51,50.9 -52.57,89.51 -97.5,78.98zm-643.56 -24.95c-3.24,4.85 -2.33,3.03 -7.36,6.57 -3.97,2.8 -4.7,3.62 -8.95,5.87 -6.53,3.46 -13.26,7 -20.93,6.56 -2.11,3.64 -4.42,2.16 -8.35,1.71 -14.47,10.37 -54.88,-9.65 -64.16,-18.09 -14.26,-12.97 -27.9,-31.99 -29.4,-59.31 0.13,-7.22 -0.65,-16.83 3.18,-21.48 -0.4,-9.81 9.7,-32.66 19.5,-37.7 -0.9,-2.91 -1.53,-2.44 1.4,-1.82 -0.72,-2.82 -1.29,-2.32 1.53,-1.69 -0.62,-2.77 -1.12,-2.19 1.67,-1.56 -0.55,-2.79 -0.98,-2.16 1.8,-1.32 -0.44,-2.95 -0.89,-2.23 2.05,-1.3 -0.59,-3.12 -1.05,-1.98 2.51,-2.58 1.02,-2.71 0.77,-1.68 4.03,-3.97l20.01 -9.6c54.28,-17.57 112.91,23.56 108.29,85.83 -1.44,19.51 -14.68,47.25 -26.81,53.87zm551.72 -391.38c-8.85,135.84 -123.97,241.67 -264.23,232.77 -131.73,-8.36 -241.67,-122.57 -231.88,-265.37 3.53,-51.45 21.85,-95.76 50.54,-134.06 8.83,-11.79 20.68,-22.44 30.25,-31.97 38.42,-38.26 107.37,-69.74 183.95,-64.68 130.64,8.63 240.6,121.71 231.37,263.33zm263.56 67.2c-21.48,-0.19 -42.94,-5.9 -54.04,-18.51 -7.61,-2.93 -18.09,-15.55 -21.73,-25.75 -6.74,-5.08 -10.67,-29.8 -10.38,-40.98 0.32,-12.3 5.09,-34.14 11.93,-39.29 0.44,-3.91 -0.81,-3.35 2.38,-3.18 0.42,-3.57 -1.11,-1.01 3.36,-7.56 5.82,-8.53 9.46,-10.33 18.01,-16.06 13.98,-11.19 34.64,-15.71 57.01,-14.29 40.34,5.94 74.57,37.65 73.14,85.35 -1.32,43.86 -35.97,78.08 -79.67,80.27zm-976.27 -10.1c-9.58,9.64 -31.82,11.3 -47.43,10.28 -40.4,-4.61 -75.07,-38.38 -74.52,-83.77 0.56,-45.27 35.47,-78.75 78.45,-81.77 7.97,-0.2 15.61,0.21 23.18,1.9 3.92,0.88 6.73,1.85 10.15,3.15 2.63,1 6.1,2.22 8.8,4.06 22.08,9.5 45.12,37.68 45.49,72.66 0.24,22.24 -11.16,50.78 -26.31,62.26 -4,3.03 -12.12,9.88 -17.82,11.23zm888.04 -377.69c0.77,3.24 1.55,2.57 -1.59,2.57 -5.54,19.86 -72.62,55.34 -122.35,8.97 -26.67,-24.87 -30.71,-67.26 -14.52,-98.84 4.98,-9.72 12.17,-21.13 20.05,-23.55 5.56,-8.7 22.69,-16.71 31.47,-16.62 6.09,-5.37 21.63,-4.61 30.65,-3.44 21.42,2.16 37.57,12.13 48.66,22.87 7.45,7.22 25.78,29.78 23.1,46.83 1.98,1.25 1.4,-3.54 1.74,4.86 0.32,3.72 0.68,8.11 0.5,11.86 -0.11,2.35 -0.26,3.83 -0.85,6.1 -1.48,5.68 -0.05,1.36 -1.63,3.7 1.23,10.94 -6.86,31.43 -15.23,34.69zm-806.37 25.69c-4.2,-0.18 -3.91,1.2 -3.33,-1.93 -16.84,-0.63 -48.49,-34.13 -49.03,-54.42l-2.2 -5.14c-0.41,-1.38 -0.84,-4.18 -1.02,-5.61 -9.87,-78.97 80.32,-106.8 99.38,-90.96 25.39,-1.07 53.41,30.01 57.75,45.18 7.8,8.42 9.51,36.61 7.1,49.71 -11.81,63.96 -83.96,78.44 -108.63,63.18zm311.23 -245.68c0.13,-4.47 -1.39,-4.64 1.79,-3.25 -0.8,-9.43 5.35,-18.14 9.52,-24.38l7.16 -11.09c10.48,-13.32 35.94,-26.11 56.88,-27.52 39.34,-2.64 76.07,25.11 83.39,54.91 11.01,16.46 3.83,65.5 -10.31,74.74 -1.77,4.78 -5.05,7.92 -8.31,11.39 -1.07,1.14 -4.23,4.47 -4.86,5 -4.74,4.02 -0.61,2.4 -6.51,3.09 0.52,3.1 0.97,1.93 -2.69,2.44 -8.63,14.55 -67.55,19.77 -81.9,4.78 -3.73,-0.38 -3.2,0.81 -3.06,-2.17 -12.28,-1.81 -19.58,-17.87 -25.88,-19.04 -3.01,-6.04 -6.3,-9.81 -9.03,-15.95 -6.92,-15.53 -10.96,-35.92 -6.16,-52.97zm67.69 126.25l-1.98 124.31c-37.48,0.97 -71.85,8.91 -102.58,22.28 -21.68,9.43 -40.98,19.84 -58.66,34.68l-17.55 13.76 -86.55 -83.48c4.79,-10.5 12.48,-16.99 18.01,-32.72 38.07,-108.3 -93.66,-194.49 -178.52,-116.27 -62.13,57.27 -31.75,173.79 60.1,187.04 15.68,2.26 32.24,1.02 46.63,-3.3 15.05,-4.51 23.63,-12.18 35.68,-16.88 10.63,14.04 39.29,38.03 53.81,52.44 3.78,3.75 6.17,7.44 10.01,11.26 6.81,6.76 16.45,13.76 21.21,21.41l-13.03 16.51c-13.89,16.98 -23.99,35.22 -33.73,56.35 -6.65,14.43 -11.39,28.89 -15.47,45.01 -16.38,64.81 14.28,53.54 -67.19,53.54 -16.54,0 -46.26,1.74 -61.2,-0.49 -5.79,-25.56 -15.83,-52.68 -36.26,-68.52 -81.38,-63.11 -182.15,-6.41 -181.74,82.66 0.53,114.27 149.35,148.85 205.21,52.15 3.33,-5.76 5.58,-11.62 7.88,-18.4 1.75,-5.17 2.27,-19.58 7.15,-21.14l118.3 -0.05c2.45,55.55 20.63,106.05 52.63,148.95 3.87,5.19 10.21,12.31 12.89,17.01 -2.91,6.06 -80.03,77.61 -83.91,79.97 -11.76,-5.86 -16.68,-11.57 -33.48,-17.04 -47.1,-15.33 -103.59,7.48 -126.05,46.14 -18.07,31.1 -22.37,72.28 -5.76,105.31 48.83,97.12 194.26,74.83 207.06,-35.06 1.82,-15.6 -0.06,-32.05 -4.62,-46.09 -4.94,-15.22 -14.03,-24.87 -17.89,-35.63 4.12,-2.86 75.84,-69.21 82.36,-77.73 25.01,14.73 22.48,25.27 78.86,51.87 14.62,6.9 32.06,12.74 48.89,16.69 15.98,3.75 54.04,6.47 59.2,8.2l-1.67 122.97c-54.19,5.93 -100.3,54.54 -95.91,116.19 4,56.21 51.21,102.27 110.34,101.45 121.88,-1.68 149.21,-171.21 34.15,-212.71 -11.93,-4.3 -17.36,-3.67 -22.32,-6.72 0.28,-16.26 0.06,-101.25 2.01,-116.33 0.92,-7.13 -0.69,-3 2.15,-5.64 2.49,-2.2 41.02,-7.92 48.58,-10 36.24,-10 68.83,-27.33 97.7,-49.64 5.97,-4.62 11.44,-10.4 17.25,-13.76l80.68 78.88c-2.01,6.52 -60.7,80.05 12.26,150.3 41.6,40.05 111.98,34.14 150.18,-2.58 17.88,-17.19 30.39,-44.25 32.23,-70.5 2.25,-32.18 -9.66,-60.26 -26.01,-78.41 -33.42,-37.1 -85.87,-50.75 -133.85,-26.2 -6.81,3.49 -10.76,7.27 -16.75,9.54 -10.8,-14.54 -69.77,-66.19 -80.24,-80.2 9.69,-17.6 27.54,-29.58 45.5,-72.53 12.65,-30.24 20.4,-59.28 22.41,-95.83l125.77 -0.91c5.68,53.99 55.17,99.25 115.95,95.4 56.11,-3.56 101.84,-50.54 101.6,-109.56 -0.46,-113.19 -149.28,-149.08 -204.9,-52.58 -8.05,13.96 -9.06,23.76 -13.49,40.54l-124.54 -0.03c-12.88,-83.24 -18.77,-102.73 -65.87,-165.9 8.09,-7.16 13.26,-12.06 21.64,-20.78l21.62 -20.97c15.22,-13.52 30.43,-27.14 44.87,-41.8 25.25,12.69 47.28,23.46 83.07,15.78 88.75,-19.05 117.19,-126.76 48.97,-189.64 -42.11,-38.82 -110.5,-33.43 -148.84,6.24 -9.84,10.18 -14.54,15.98 -21.51,30.93 -30.65,65.73 13.71,109.41 18.31,120.27 -14.61,12.25 -28.46,26.83 -43.12,39.94l-43.03 40.55c-4.96,-2.81 -3.53,-2.32 -7.79,-6.66 -25.58,-26.07 -74.23,-49.79 -109.2,-59.48 -14.92,-4.13 -40.65,-6.11 -51.83,-9.77 -0.24,-0.36 -0.49,-1.39 -0.55,-1.18 -0.06,0.22 -0.42,-0.91 -0.5,-1.22 -2.47,-10.25 0.81,-106.29 1.1,-115.82 0.44,-14.45 7.41,-3.44 39.69,-20.16 75.09,-38.88 74.88,-153.19 -1.22,-192.35 -69.82,-35.92 -136.52,7.12 -155.04,62.28 -11.85,35.3 -3.26,70.82 14.09,96.74 27.49,41.08 61.21,39.05 76.32,47.1z"/>
   <path class="fil1" d="M2766.3 836.01l16.96 -7.04c10.01,9.74 22.29,30.01 42.72,30.6 22.15,0.65 29.14,-20.83 39.3,-32.68l22.5 8.43c-6.6,18.73 -15.85,40.53 -1.44,56.6 14.69,16.39 36.82,9.52 55.91,1.59l9.2 18.9c-15.13,7.71 -39.84,19.57 -40.86,38.26 -1.25,22.77 24.32,30.93 39.38,40.92l-6.53 17.63c-16.38,-3.39 -42.31,-12.59 -55.66,-0.03 -13.68,12.87 -4.08,40.09 -1.1,57.53l-19.66 6.8c-15.57,-39.3 -46.37,-50.96 -66.25,-25.21 -5.93,7.67 -8.36,18.42 -14.09,25.52l-18.34 -6.39c2.88,-18.76 16.26,-39.61 -0.25,-55.63 -12.48,-12.12 -40.38,-7.05 -56.13,-1.5 -3.07,-3.81 -7.13,-12.91 -8.83,-18.7 14.61,-9.19 46.01,-12.41 38.52,-40.03 -4.46,-16.45 -28.09,-28.43 -42,-38.58l8.51 -20.06c19.36,4.16 44.59,15.94 61,-0.74 15.11,-15.35 3.68,-39.38 -2.85,-56.17zm-130.26 -265.33c11.24,52.87 43.61,72.94 79.07,15.21l15.22 11.02c-11.19,48.39 -9.42,68.98 47.97,65.44l5.57 24.54c-71.73,11.47 -51.53,63.59 -16.35,76.97l-10.35 18.29c-14.79,-4.18 -35.3,-22.57 -54.84,-12.54 -17.25,8.85 -13.82,35.32 -12.04,56.84l-18.27 3.29c-9.46,-15.77 -11.43,-42.23 -32.82,-45.04 -19.22,-2.52 -39.64,21.57 -46.26,31.05l-16.7 -12.5c7.41,-13.99 20.17,-36.08 9.23,-54.2 -11.06,-18.31 -32.04,-14.33 -55.64,-11.11l-4.82 -19.98c19.95,-6.25 44.52,-11.29 45.99,-32.65 1.42,-20.53 -22.3,-38.03 -31.07,-46.23l10.91 -17.23c11.2,4.15 31.64,28.01 50.91,12.92 14.53,-11.38 12.39,-38.78 11.62,-60.6l22.67 -3.5zm123.54 13.91c1.73,-0.4 3.3,0.53 1.12,0.19 -0.02,-0 -1.64,-0.07 -1.12,-0.19zm191.74 -32.72c8,9.79 22.81,29.69 41.74,30.7 21.4,1.15 31.03,-19.2 39.18,-33.03l23.23 8.22c-3.91,19.54 -18.65,38.79 -0.41,57.36 19.14,19.49 35.41,7.2 56.08,1.26l8.06 19.84c-14.82,5.26 -41.02,21.25 -40.88,39.3 0.18,23.14 26.21,28.42 39.92,39.47l-7.19 17.37c-55.41,-13.22 -74.48,-4.13 -56.22,56.87l-19.22 6.92c-5.24,-6.33 -10.18,-18 -15.41,-25 -16.64,-22.23 -51.64,-18.67 -64.43,26.44l-19.94 -6.97c3.92,-17.69 15.17,-41.05 0.84,-55.46 -13.48,-13.55 -39.43,-4.68 -58,-2.05l-7.95 -18.29c11.14,-9.12 46.43,-11.05 38.58,-40.54 -4.23,-15.9 -28.61,-28.12 -42.41,-38.29l9.86 -19.86c19.52,3.93 43.08,15.38 59.88,-0.28 15.23,-14.2 3.21,-39.66 -2.44,-56.61 4.42,-3.6 11.33,-4.86 17.13,-7.37zm-51.32 -8.99c4.33,16.72 16.38,37.07 18.06,54.13 -13.2,0.64 -42.19,-7.51 -50.13,-15.06l38.8 -13.83c-4.38,-17.31 -15.42,-29.52 -14.55,-52.4 8.81,-0.71 17.59,1.99 25.46,4.27l21.85 8.18 -39.5 14.7zm-131.34 -227.49c52.29,61.93 65.64,14.38 81.85,-2.43l22.06 8.81c-5.86,18.86 -16.12,39.22 -1.35,56.34 15.77,18.28 37.04,7.88 56.81,1.22l8.47 18.71c-14.69,9.95 -40.67,17.88 -40.86,40.01 -0.18,19.98 24.5,32.09 40.06,39.27l-8.17 17.75c-67.92,-17.59 -66.84,5.76 -55.74,57.31l-19.88 6.91c-6.95,-16.76 -18.51,-38.48 -40.66,-38.43 -26.99,0.07 -32.58,30.38 -39.35,39.34l-18.72 -7.52c4.9,-16.06 14.08,-42.71 0.3,-55.21 -13.6,-12.33 -39.25,-4.62 -57.3,-1.16l-7.83 -18.97c15.38,-8.79 47.41,-13.45 37.91,-40.97 -6.31,-18.28 -32.19,-28.91 -41.95,-37.67l8.71 -19.93c19.28,4.37 45.46,16.08 61.47,-0.79 15.5,-16.33 2.01,-38.74 -3.18,-56.65l17.37 -5.95zm43.42 3.68c-13.68,-5.67 -24.41,-22.44 -31.41,-36.4l-63.29 22.9c3.85,18.05 15.71,35.33 17.93,54.51 -26.31,0.59 -35.6,-10.53 -55.44,-15.7l-30.23 65.47c13.67,11.15 39.75,18.01 49.19,33.13l-2.03 1.58c-13.09,8.59 -32.29,9.43 -45.3,16.89l29.83 66.65c18.05,-3.27 31.68,-11.18 52.83,-11.07 0.32,9.29 -7.81,33.79 -11.11,41.63 -4.29,-3.2 -8.97,-6.33 -13.34,-9.03l-8.98 10.42c-7.34,10.88 -15.04,26.06 -25.41,33.7 -12.21,-7.02 -16.61,-41.38 -18.09,-53.02l-72.13 11.22c-0.28,21.27 4.5,36.67 1.03,59.13 -9.61,-0.14 -33.22,-22.64 -41.83,-28.38l-38.73 61.81c5.49,6.53 13.57,11.18 20.02,17.03 5.79,5.25 15.1,14.09 18.16,20.55 -7.51,8.6 -30.71,8.24 -46.94,20.56 -1.19,19.34 9.43,46.43 13.39,65.94 9.91,-0.84 45.57,-11.43 50.89,-5.3 2.28,1.86 2.25,-3.31 1.92,4.76 -0.33,8.1 -16.66,34.44 -19.91,44.9 9.18,6.11 17.46,12.07 27.4,19.78 7.64,5.92 21.15,15.65 29.48,19.85 11.79,-12.53 17.42,-31.67 34.39,-40.21 0.31,0.31 0.75,0.37 0.88,0.98l5.6 9.67c1.73,4.12 2.85,7.47 4.33,12.03 2.87,8.86 5.39,17.11 7.11,26.19l67.62 -14.13c-0.75,-17.95 -6.65,-33.99 -4.55,-52.93 7.6,-0.21 26.31,9.19 33.48,14.31 0.35,0.25 0.72,0.54 1.05,0.8 2.54,2.05 1.1,0.68 2.97,3.05l-20.63 7.13c4.29,17.23 16.11,36.98 18.04,53.95 -19.7,3.52 -39.28,-10.53 -55.6,-15.05l-30.04 65.39c7.58,5.35 17.02,9.91 25.75,15.11 6.95,4.15 20.11,10.9 23.34,18.34 -11.77,9.89 -32.65,9.8 -46.77,18.01l29.45 66.95c18.18,-3.99 32,-11.19 53.04,-11.21 -0.8,17.86 -20.6,45.98 -2.72,56.31 6.86,3.96 46.74,18.27 54.9,20.29 7.95,-14.85 13.33,-33.51 21.75,-46.09 11.01,1.03 13.27,10.42 18.12,19.38 3.85,7.1 11.49,19.15 13.41,24.62l66.73 -23.69c-5.58,-18.3 -13.67,-27.16 -14.68,-50.87 12.19,-5.55 39.95,8.25 51.67,11.3l25.69 -63.31c-13.58,-8.89 -37.52,-15.2 -45.99,-26.61l1.65 -2c11.33,-10.85 34.53,-15.47 44.94,-27.48 -2.93,-8.18 -26.17,-61.06 -29.56,-64.81 -10.74,4.53 -36.71,20.01 -48.57,16.72 -5.07,-10.18 11.27,-38.81 12.09,-56.27l-68 -25.22c-5.25,13.36 -15.04,34.16 -24.89,39.58 -11.72,-5.75 -17.87,-14.1 -24.25,-24.96 -2.45,-4.16 -3.45,-7.2 -6.86,-10.97l-19.71 6.54c7.98,-16.01 22.15,-31.29 28.45,-47.66l-1.89 -1.71c-8.84,-6.83 -40.04,-19.66 -39.31,-29.41 3.86,-8.4 14.46,-9.01 24.23,-11.41 10.59,-2.6 19.88,-7.25 28.73,-9.32l-17.22 -71.25c-12.05,1.44 -34.97,8.75 -45.38,1.71l-1.11 -2.26c-0.5,-1.93 -0.62,-0.9 -0.8,-4.07 -0.11,-1.93 0.4,-5.4 0.73,-7.38l12.17 -35.12 23.21 8.45c4.46,-12.25 15.96,-38.82 21.74,-46.58 15.81,2.26 21.57,34.61 33.66,44.01l18.42 -6.61 -28.76 62.94c8.27,3.27 19.81,10.2 26.8,14.59l17.47 12c4.49,3.76 3.05,1.4 5.22,6.1 -12.94,9.07 -36.68,11.08 -46.89,18.02 1.78,6.76 27.3,63.19 30.66,66.61 13.75,-3.95 36.64,-12.03 52.11,-10.67 -1.25,16.54 -20,47.17 -3.5,55.94 11.45,6.08 41.52,15.72 54.56,20.12 9.41,-8.56 12.47,-37.12 24.92,-46.2 12.46,4.46 20.33,33.16 30.76,43.93l65.39 -23.47c-5.91,-18.33 -14.35,-28.4 -14.75,-52.36 20.8,0.7 32.85,8.54 50.89,12.49l26.79 -63.67c-16.26,-7.14 -34.84,-15.36 -46.3,-25.64 5.19,-7.62 37.13,-24.15 46.66,-27.4 -3.65,-17.21 -21.76,-49.78 -28.72,-67.36 -11.02,3.22 -38.58,23.02 -49.28,16.33 -2.87,-2.79 -1.5,-9.37 -0.16,-13.45 4.81,-14.67 10.63,-26.41 12.19,-42.45l-68.11 -24.9c-6.07,13.62 -14.31,33.18 -24.09,39.6 -11.2,-4.18 -26,-23.14 -30.75,-36.3l-18.58 6.12 24.52 -61.92c-7.51,-2.36 -17.46,-7.56 -24.33,-10.98 -4.04,-2.02 -7.33,-3.91 -11.66,-6.32 -3.97,-2.2 -8.13,-4.12 -10.48,-8.43 6.01,-7.66 39.44,-24.5 46.86,-27.57l-28.88 -66.65c-15.33,4.27 -33.68,20.53 -49.83,17.09 -4.15,-10.45 10.67,-38.2 12.3,-55.52l-67.59 -26.08c-5.58,10.92 -9.62,22.85 -17.16,32.32 -2.91,3.66 -5.53,5.24 -6.99,7.43z"/>
   <path class="fil0" d="M2949.68 1371.12c9.2,22.17 -8.18,39.91 -19.83,46.95 -31.08,18.81 -79.09,4.74 -128.21,9.43 -21.38,2.04 -43.05,5.99 -64.29,7.64l-2.35 -19.59c37.17,-2.93 72.3,-11.13 110.65,-9.29 21.77,1.04 88.13,12.48 86.64,-27.85 -4.46,-29.69 -31.97,-50.49 -65.33,-52.84 -21.46,-1.51 -78.07,11.69 -102.13,16.04 -82.36,14.88 -73.98,16.06 -142.28,-13.92 -20.75,-9.11 -25.84,-8.74 -49.77,-10.76l-7.56 3.84 0 257.12c2.07,1.94 -3.32,1.53 4.51,1.79 29.67,0.72 46.66,-6.77 79.81,-0.44 90.55,17.3 105.66,64.11 206.87,20.92 40.87,-17.44 78.9,-40.2 115.77,-61.15 81.8,-46.46 164.41,-102.23 245.24,-151.07 8.87,-5.36 21.61,-10.59 22.67,-21.58 1.44,-14.96 -27.43,-42.63 -37.59,-50.41 -53.52,-41.02 -86.52,-20.74 -131.53,-0.72l-121.3 55.89z"/>
   <path class="fil0" d="M1720.54 879.39c4.44,4.03 27.37,38.36 51.13,41.7 19.49,2.74 32.77,-44.22 36.09,-57.78l82.09 18.52c-0.61,24.4 -20.16,70.49 -1.5,81.2 20.16,11.57 52.91,-20.81 67.87,-26.97l42.19 69.94 -31.72 23.73c-9.37,6.84 -25.52,15.47 -27.07,29.02 11.89,18.41 45.72,23.05 68.89,32.97l-19.56 74.94c-20.93,-2.27 -57.84,-16.21 -75.82,-3.55 -7.38,21.79 17.86,56.39 24.24,72.51 -5.1,4.54 -64.27,35.7 -71.49,36.62 -4.01,-7.82 -14.81,-20.52 -21.31,-29.6 -38.62,-54.04 -50.89,-4.02 -61.43,43.91 -15.03,-2.56 -69.59,-13.24 -76.77,-19.94 -4.54,-8.26 11.12,-51.47 6.66,-67.6 -6.56,-23.73 -59.26,9.74 -77.66,13.98 -5.98,-6.28 -16.84,-26.39 -22.43,-35.18 -6.88,-10.82 -16.04,-24.46 -21.43,-35.36 16.48,-7.63 56.85,-23.65 61.69,-37.83 -8.47,-15.45 -52.6,-36.66 -75.88,-42.29l24.88 -79.49c20.02,3.84 68.99,22.81 82.7,2.23 1.61,-18.73 -23.93,-52.58 -30.94,-70.99l66.57 -34.67zm321.5 210.47c9.23,-141.62 -100.72,-254.69 -231.37,-263.33 -76.58,-5.06 -145.53,26.42 -183.95,64.68 -9.57,9.53 -21.42,20.18 -30.25,31.97 -28.7,38.3 -47.01,82.62 -50.54,134.06 -9.79,142.8 100.14,257.01 231.88,265.37 140.26,8.9 255.38,-96.92 264.23,-232.77z"/>
   <path class="fil2" d="M1891.11 1091.49c-8.6,47.75 -54.2,90.59 -113.22,80.39 -48.73,-8.42 -91.72,-53.76 -81.18,-114.14 8.44,-48.3 55.19,-91.29 115.02,-80.21 47.99,8.89 90.09,54.5 79.37,113.96zm58.7 -132.4c-18.78,10.38 -45.54,35.67 -73.3,15.75 -22.89,-16.43 -7.7,-52.28 -4.33,-80.06l-53.73 -11.97c-1.91,9.8 -10.14,27.09 -14.91,34.56 -5.72,8.97 -12.64,19.98 -27.32,20.49 -22.5,0.78 -52.27,-26.94 -57.91,-37.62 -8.05,1.62 -34.96,16.04 -41.78,20.93 5.23,17.28 36.51,53.47 20.85,75.11 -17.37,24.01 -55.29,11.02 -84.02,6.88l-15.41 49.04c22.75,8.59 59.36,25.68 68.91,42.24 14.56,25.23 -32.88,47.75 -51.53,54.34 1.52,5.21 22.71,39.38 26.6,43.47 18.67,-5.67 54.82,-26.92 76.74,-13.69 21.24,12.82 6.66,54.78 4.18,77.79l49.05 10.74c8.51,-51.78 37.14,-89.85 77.25,-45.44 4.28,4.74 19.32,24.99 22.06,31.05l43.3 -23.64c-5.63,-17.57 -29.2,-54.17 -15.09,-74.92 14.6,-21.47 54.87,-6.79 77.72,-7.12l11.11 -44.06c-10.89,-6.81 -28.32,-10.12 -40.13,-16.33 -52.43,-27.54 -11.16,-56.06 13.44,-73.51l11.24 -8.35c2.52,-2.17 1.4,-0.9 3.58,-3.35 -2.6,-5.25 -21.16,-37.48 -26.56,-42.33z"/>
   <path class="fil2" d="M2394.42 1279.14l124.25 -0.15 0.14 326.89 -123.8 0.22 -0.59 -326.96zm176.73 321.11l-5.58 -0.31 0.02 -17.14 4.14 -3.13c-7.83,-0.25 -2.44,0.15 -4.51,-1.79l0 -257.12 7.56 -3.84 -7.2 0.51 0 -17.96 5.78 -3.13c-0.54,-0.04 -3.72,-0.36 -3.78,-0.37l-2.37 -1.41c0,-42.48 -15.62,-62.08 -58.58,-61.97 -27.47,0.07 -98.01,-3.34 -119.87,1.12 -44.9,9.15 -38.72,55.04 -38.72,82.14l0 242.38c0,42.25 -4.45,76.29 30.28,90.53 17.49,7.17 91.86,3.77 116.84,3.77 31.78,0 67.71,-3 70.03,-48.45l5.95 -3.84z"/>
   <polygon class="fil3" points="2395.01,1606.09 2518.81,1605.87 2518.66,1278.98 2394.42,1279.14 "/>
   <path class="fil4" d="M2571.37 1296.35l-5.78 3.13 -0 17.96 7.2 -0.51c23.93,2.02 29.02,1.65 49.77,10.76 68.29,29.99 59.92,28.81 142.28,13.92 24.06,-4.35 80.67,-17.55 102.13,-16.04 33.35,2.35 60.87,23.15 65.33,52.84 4.13,-1.76 14.57,-8.13 17.39,-7.29l121.3 -55.89c45.01,-20.02 78.01,-40.3 131.53,0.72 10.15,7.78 39.03,35.45 37.59,50.41 -1.06,10.99 -13.8,16.22 -22.67,21.58 -80.83,48.83 -163.44,104.61 -245.24,151.07 -36.87,20.94 -74.9,43.71 -115.77,61.15 -101.21,43.19 -116.31,-3.62 -206.87,-20.92 -33.15,-6.33 -50.15,1.16 -79.81,0.44l-4.14 3.13 -0.02 17.14 5.58 0.31c14.82,1.05 30.17,-2.52 45.16,-2.93 38.26,-1.04 77.04,17.41 111.75,29.36 66.18,22.77 91.67,12.95 148.81,-12.66 73.77,-33.06 168.5,-95.79 238.9,-137.72l115.95 -72.41c13.4,-8.68 18.22,-8.7 25.28,-22.25 17.07,-32.72 -24.9,-69.54 -45.93,-85.71 -47.29,-36.36 -91.27,-28.34 -142.46,-2.75l-128.66 59.06c-8.73,-20.66 -37.65,-46.27 -71.33,-48.11 -60.99,-3.32 -149.09,41.86 -205.38,18.84 -37.59,-15.37 -43.98,-24.9 -91.88,-26.63z"/>
   <path class="fil1" d="M1949.81 959.09c5.4,4.85 23.96,37.08 26.56,42.33 -2.19,2.45 -1.07,1.18 -3.58,3.35l-11.24 8.35c-24.6,17.45 -65.86,45.97 -13.44,73.51 11.81,6.2 29.24,9.51 40.13,16.33l-11.11 44.06c-22.85,0.33 -63.12,-14.35 -77.72,7.12 -14.11,20.76 9.45,57.36 15.09,74.92l-43.3 23.64c-2.74,-6.07 -17.78,-26.31 -22.06,-31.05 -40.12,-44.41 -68.74,-6.34 -77.25,45.44l-49.05 -10.74c2.49,-23.01 17.07,-64.97 -4.18,-77.79 -21.92,-13.22 -58.07,8.03 -76.74,13.69 -3.9,-4.09 -25.09,-38.27 -26.6,-43.47 18.65,-6.59 66.09,-29.11 51.53,-54.34 -9.55,-16.56 -46.16,-33.64 -68.91,-42.24l15.41 -49.04c28.73,4.14 66.65,17.13 84.02,-6.88 15.66,-21.64 -15.62,-57.82 -20.85,-75.11 6.81,-4.88 33.73,-19.31 41.78,-20.93 5.64,10.67 35.41,38.4 57.91,37.62 14.68,-0.51 21.6,-11.52 27.32,-20.49 4.77,-7.48 13,-24.76 14.91,-34.56l53.73 11.97c-3.37,27.78 -18.56,63.63 4.33,80.06 27.76,19.92 54.52,-5.37 73.3,-15.75zm-229.28 -79.71l-66.57 34.67c7.01,18.41 32.55,52.26 30.94,70.99 -13.71,20.58 -62.68,1.6 -82.7,-2.23l-24.88 79.49c23.28,5.63 67.41,26.84 75.88,42.29 -4.84,14.19 -45.21,30.21 -61.69,37.83 5.4,10.91 14.55,24.54 21.43,35.36 5.59,8.79 16.45,28.9 22.43,35.18 18.4,-4.24 71.09,-37.71 77.66,-13.98 4.46,16.12 -11.2,59.34 -6.66,67.6 7.18,6.7 61.74,17.38 76.77,19.94 10.54,-47.93 22.81,-97.95 61.43,-43.91 6.49,9.09 17.3,21.79 21.31,29.6 7.21,-0.91 66.39,-32.08 71.49,-36.62 -6.38,-16.13 -31.61,-50.72 -24.24,-72.51 17.98,-12.66 54.89,1.28 75.82,3.55l19.56 -74.94c-23.17,-9.92 -57,-14.56 -68.89,-32.97 1.55,-13.56 17.7,-22.18 27.07,-29.02l31.72 -23.73 -42.19 -69.94c-14.96,6.16 -47.71,38.54 -67.87,26.97 -18.67,-10.71 0.89,-56.8 1.5,-81.2l-82.09 -18.52c-3.32,13.56 -16.6,60.53 -36.09,57.78 -23.75,-3.34 -46.69,-37.67 -51.13,-41.7z"/>
   <path class="fil5" d="M2065.18 1421.28c-3.55,45.1 31.46,76.96 68.7,84.91l89.69 -91.76c4.92,-4.97 3.86,-2.07 4.45,-9.27 0.89,-17.56 -20.14,-39.58 -28.24,-46.05 -11.45,-9.14 -32.78,-19.95 -56.12,-17.74 -2.88,6.51 -3.31,5.53 -9.42,11.54 -12.94,12.74 -59.55,64.38 -69.07,68.37z"/>
   <path class="fil6" d="M1787.6 1035.1c23.62,-4.22 42.28,13.03 45.71,32.07 4.55,25.22 -12.72,43.72 -32.8,46.9 -52.12,8.25 -65.33,-69.6 -12.91,-78.97zm-11.13 -40.75c-39.58,9.27 -74.85,47.39 -62.71,99 8.97,38.13 47.8,72.67 97.99,61.56 38.34,-8.49 73.25,-48.15 62.71,-97.65 -8.22,-38.6 -48.81,-74.43 -97.99,-62.91z"/>
   <path class="fil2" d="M2984.89 596.21c44.43,-6.09 81.2,28.95 85.42,67.8 5.03,46.29 -27.95,81.55 -68.14,86.38 -98.88,11.88 -123.03,-139.68 -17.28,-154.18zm-33.57 -44.33c-5.8,2.51 -12.71,3.77 -17.13,7.37 5.65,16.95 17.67,42.41 2.44,56.61 -16.8,15.66 -40.37,4.21 -59.88,0.28l-9.86 19.86c13.8,10.17 38.17,22.39 42.41,38.29 7.85,29.48 -27.43,31.42 -38.58,40.54l7.95 18.29c18.57,-2.62 44.52,-11.5 58,2.05 14.33,14.41 3.08,37.77 -0.84,55.46l19.94 6.97c12.79,-45.11 47.79,-48.67 64.43,-26.44 5.24,7 10.17,18.67 15.41,25l19.22 -6.92c-18.26,-60.99 0.81,-70.08 56.22,-56.87l7.19 -17.37c-13.72,-11.05 -39.74,-16.33 -39.92,-39.47 -0.14,-18.05 26.06,-34.04 40.88,-39.3l-8.06 -19.84c-20.68,5.94 -36.94,18.23 -56.08,-1.26 -18.24,-18.57 -3.49,-37.82 0.41,-57.36l-23.23 -8.22c-8.14,13.83 -17.77,34.17 -39.18,33.03 -18.92,-1.01 -33.74,-20.91 -41.74,-30.7z"/>
   <path class="fil2" d="M2646.03 622.48c44.7,-6.18 80.97,28.93 85.14,67.77 4.98,46.3 -27.76,81.49 -67.94,86.48 -98.65,12.26 -124.02,-139.49 -17.21,-154.25zm-32.66 -48.3c0.77,21.82 2.91,49.23 -11.62,60.6 -19.27,15.09 -39.71,-8.77 -50.91,-12.92l-10.91 17.23c8.77,8.2 32.49,25.7 31.07,46.23 -1.48,21.37 -26.05,26.41 -45.99,32.65l4.82 19.98c23.59,-3.22 44.57,-7.21 55.64,11.11 10.94,18.12 -1.82,40.2 -9.23,54.2l16.7 12.5c6.63,-9.48 27.04,-33.57 46.26,-31.05 21.39,2.81 23.36,29.27 32.82,45.04l18.27 -3.29c-1.79,-21.52 -5.21,-47.99 12.04,-56.84 19.54,-10.03 40.05,8.36 54.84,12.54l10.35 -18.29c-35.18,-13.38 -55.39,-65.5 16.35,-76.97l-5.57 -24.54c-57.39,3.54 -59.16,-17.05 -47.97,-65.44l-15.22 -11.02c-35.46,57.73 -67.83,37.67 -79.07,-15.21l-22.67 3.5z"/>
   <path class="fil2" d="M2793.67 360.66c47.96,-11.29 85.24,22.42 92.82,59.66 9.52,46.76 -22.29,83.26 -58.75,91.69 -97.64,22.58 -137.18,-127.07 -34.07,-151.35zm-25.01 -45.26l-17.37 5.95c5.19,17.91 18.68,40.33 3.18,56.65 -16.01,16.87 -42.19,5.15 -61.47,0.79l-8.71 19.93c9.75,8.76 35.64,19.39 41.95,37.67 9.5,27.53 -22.53,32.18 -37.91,40.97l7.83 18.97c18.04,-3.46 43.7,-11.17 57.3,1.16 13.78,12.5 4.6,39.15 -0.3,55.21l18.72 7.52c6.77,-8.96 12.37,-39.27 39.35,-39.34 22.15,-0.05 33.71,21.67 40.66,38.43l19.88 -6.91c-11.09,-51.55 -12.17,-74.9 55.74,-57.31l8.17 -17.75c-15.56,-7.18 -40.23,-19.3 -40.06,-39.27 0.19,-22.12 26.17,-30.06 40.86,-40.01l-8.47 -18.71c-19.77,6.66 -41.03,17.05 -56.81,-1.22 -14.77,-17.11 -4.5,-37.47 1.35,-56.34l-22.06 -8.81c-16.2,16.81 -29.56,64.36 -81.85,2.43z"/>
   <path class="fil2" d="M2808.02 874.7c48.23,-11.5 85.8,22.39 93.46,59.68 9.73,47.38 -22.48,83.22 -59.17,91.65 -47.97,11.02 -85.08,-22.97 -92.91,-59.52 -10.27,-47.96 21.72,-83.02 58.62,-91.82zm-41.72 -38.68c6.53,16.79 17.95,40.82 2.85,56.17 -16.42,16.68 -41.65,4.91 -61,0.74l-8.51 20.06c13.92,10.15 37.54,22.13 42,38.58 7.5,27.62 -23.91,30.84 -38.52,40.03 1.7,5.79 5.76,14.89 8.83,18.7 15.75,-5.54 43.65,-10.61 56.13,1.5 16.5,16.02 3.13,36.87 0.25,55.63l18.34 6.39c5.73,-7.1 8.17,-17.84 14.09,-25.52 19.88,-25.75 50.69,-14.09 66.25,25.21l19.66 -6.8c-2.98,-17.44 -12.57,-44.65 1.1,-57.53 13.35,-12.56 39.28,-3.36 55.66,0.03l6.53 -17.63c-15.06,-9.99 -40.63,-18.16 -39.38,-40.92 1.03,-18.7 25.73,-30.56 40.86,-38.26l-9.2 -18.9c-19.09,7.93 -41.22,14.8 -55.91,-1.59 -14.41,-16.07 -5.15,-37.86 1.44,-56.6l-22.5 -8.43c-10.16,11.85 -17.15,33.33 -39.3,32.68 -20.43,-0.6 -32.71,-20.86 -42.72,-30.6l-16.96 7.04z"/>
   <path class="fil1" d="M754.81 777.06c6.88,16.38 34.34,37.45 55.62,47.03 53.19,23.94 114.99,21.55 165.78,-6.85 15.34,-8.58 49.23,-30.37 53.81,-48.37 -7.55,-6.3 -21.24,-10.63 -27.56,-25.31 -21.38,8.28 -47.18,51.21 -105.68,50.65 -24.15,-0.23 -46.89,-1.84 -66.89,-10.83 -21.19,-9.53 -29.9,-19.3 -41.14,-35.57 -10.48,5.17 -28.03,21.05 -33.94,29.24z"/>
   <path class="fil3" d="M2215.78 771.84c-0.8,-3.61 -1.8,-3.16 1.59,-2.57 -1.85,-4.83 -21.53,-20.92 -28.64,-28.06 -2.68,-2.69 -4.55,-4.88 -7.39,-7.3l-75.35 -70.46c-3.12,-2.65 -3.74,-2.35 -7.04,-5.02 -7.89,2.41 -15.07,13.83 -20.05,23.55 -16.18,31.57 -12.15,73.97 14.52,98.84 49.73,46.37 116.8,10.88 122.35,-8.97z"/>
   <path class="fil5" d="M1358.63 738.61c0.54,20.29 32.19,53.79 49.03,54.42 -0.58,3.12 -0.86,1.75 3.33,1.93 0,-4.4 0.93,-3.49 -3.33,-1.93 12.9,-11.8 27.89,-31.18 38.41,-41.49l61.33 -68.06c3.26,-2.28 0.89,-1.91 5.13,-1.41 -4.34,-15.17 -32.35,-46.24 -57.75,-45.18l-8.25 -1.19c-1.09,3.76 -17.78,21.77 -21.73,25.78 -10.68,10.85 -62.61,65.62 -66.18,77.12z"/>
   <path class="fil3" d="M1384.8 1355.1c0,4.12 1.17,3.68 -2.51,2.58 0.59,2.91 0.95,2.1 -2.05,1.3 0.43,2.58 0.85,1.93 -1.8,1.32 0.52,2.72 1.05,2.18 -1.67,1.56 0.59,2.77 1.2,2.31 -1.53,1.69 0.69,2.9 1.41,2.53 -1.4,1.82l100.12 102.06c5.15,5.15 8.75,11.41 16.35,13.8 12.13,-6.62 25.36,-34.37 26.81,-53.87 4.62,-62.27 -54.01,-103.4 -108.29,-85.83l-20.01 9.6c-3.27,2.28 -3.01,1.26 -4.03,3.97z"/>
   <path class="fil7" d="M1724.03 546.03c1.63,4.14 2.52,3.25 -1.79,3.25 -4.8,17.05 -0.76,37.44 6.16,52.97 2.74,6.14 6.02,9.91 9.03,15.95 2.89,0.2 27.22,0.07 31.4,-1.06 22.13,-5.98 77.16,-7.46 100.73,-7.55 2.11,2.39 0.89,-0.96 1.1,3.11 14.14,-9.25 21.32,-58.28 10.31,-74.74 -9.05,-2.09 -29.2,-0.2 -40.71,0.71 -19.43,1.55 -103.68,9.67 -116.24,7.37z"/>
   <path class="fil1" d="M2811.59 901.11c31.09,-9.54 57.59,13.1 63.51,36.52 7.77,30.73 -13.59,55.89 -36.17,61.99 -63.37,17.11 -93.58,-78.18 -27.33,-98.51zm-3.57 -26.42c-36.9,8.8 -68.88,43.86 -58.62,91.82 7.82,36.55 44.94,70.54 92.91,59.52 36.69,-8.43 68.9,-44.28 59.17,-91.65 -7.66,-37.29 -45.23,-71.19 -93.46,-59.68z"/>
   <path class="fil1" d="M2759.6 442.97c-8.69,-68.56 94.26,-79.59 101.76,-12.65 7.58,67.59 -93.49,77.9 -101.76,12.65zm34.07 -82.31c-103.11,24.28 -63.57,173.92 34.07,151.35 36.46,-8.43 68.27,-44.93 58.75,-91.69 -7.58,-37.24 -44.86,-70.95 -92.82,-59.66z"/>
   <path class="fil1" d="M2639.99 650.74c65.44,-19.23 92.83,79.62 28.26,98.07 -64.94,18.55 -94.16,-78.7 -28.26,-98.07zm6.04 -28.26c-106.82,14.76 -81.44,166.51 17.21,154.25 40.17,-4.99 72.91,-40.18 67.94,-86.48 -4.18,-38.84 -40.44,-73.95 -85.14,-67.77z"/>
   <path class="fil1" d="M2984.48 623.13c65.32,-12.51 84.81,87.19 19,100.31 -66.72,13.3 -87.32,-87.23 -19,-100.31zm0.41 -26.92c-105.75,14.5 -81.61,166.05 17.28,154.18 40.19,-4.83 73.17,-40.09 68.14,-86.38 -4.22,-38.84 -40.98,-73.89 -85.42,-67.8z"/>
   <path class="fil8" d="M2305.6 1157.06c43.7,-2.18 78.35,-36.4 79.67,-80.27 1.44,-47.71 -32.79,-79.41 -73.14,-85.35 0.61,56.54 -6.53,109.07 -6.53,165.62z"/>
   <path class="fil8" d="M1281.91 1157.24l0 -162.37c8.4,-2.09 -0.07,0.85 3.93,-3.17 -42.98,3.01 -77.89,36.5 -78.45,81.77 -0.56,45.39 34.12,79.16 74.52,83.77z"/>
   <path class="fil1" d="M1776.47 994.35c49.18,-11.52 89.77,24.31 97.99,62.91 10.54,49.5 -24.37,89.16 -62.71,97.65 -50.19,11.11 -89.02,-23.43 -97.99,-61.56 -12.13,-51.61 23.13,-89.73 62.71,-99zm114.65 97.14c10.71,-59.46 -31.39,-105.08 -79.37,-113.96 -59.84,-11.08 -106.58,31.91 -115.02,80.21 -10.55,60.38 32.45,105.72 81.18,114.14 59.02,10.2 104.62,-32.64 113.22,-80.39z"/>
   <path class="fil7" d="M1729.03 1542.1c-3.39,3.22 -4.44,6.28 -6.24,11.8 -1.21,3.71 -2.98,9.12 -3.8,14.33 -1.68,10.76 -1.44,23.13 1.65,32.91 0.33,0.24 0.87,0.16 1.04,0.62l7.16 1.2c24.3,-0.72 93.73,-9.71 122.77,-11.72 37.76,-2.61 30.07,-0.27 30.93,-18.87 1.63,-9.85 -6.13,-28.94 -12.52,-37.53l-2.86 -3.31c-23,3.2 -46.14,5.56 -69.61,7.19 -10.84,0.75 -61.1,8.22 -68.54,3.38z"/>
   <path class="fil7" d="M2255.13 1005.73c4.63,4.14 0.56,-1.18 2.44,4.07l-4.34 96.41c0.02,6.44 1.31,28.16 -1.67,32.34 11.1,12.61 32.56,18.32 54.04,18.51 0,-56.55 7.14,-109.08 6.53,-165.62 -22.37,-1.42 -43.03,3.1 -57.01,14.29z"/>
   <path class="fil8" d="M1720.65 1601.13c7.37,36.17 46.65,71.96 96.58,61.82 24.03,-4.88 37.2,-16.84 49.63,-30.43 9.87,-10.79 24.01,-42.68 15.69,-60.15 -0.86,18.6 6.83,16.26 -30.93,18.87 -29.04,2.01 -98.47,11 -122.77,11.72l-7.16 -1.2c-0.17,-0.46 -0.71,-0.39 -1.04,-0.62z"/>
   <polygon class="fil1" points="358.41,1585.92 400.92,1585.99 400.56,1402.92 358.35,1403.26 "/>
   <path class="fil4" d="M742.1 523.02c-67.96,13.08 -39.66,104.58 20.58,92.02 58.8,-12.27 49.09,-105.43 -20.58,-92.02z"/>
   <path class="fil4" d="M1001.15 522.29c-67.41,7.77 -49.27,100.92 12.97,93.43 58.79,-7.08 57.74,-101.58 -12.97,-93.43z"/>
   <path class="fil7" d="M1281.91 1157.24c15.61,1.02 37.85,-0.65 47.43,-10.28 -4.3,-7.14 -1.89,-127.7 -1.37,-146.15 -2.7,-1.84 -6.17,-3.06 -8.8,-4.06 -3.41,-1.29 -6.23,-2.27 -10.15,-3.15 -7.58,-1.7 -15.21,-2.1 -23.18,-1.9 -4,4.03 4.47,1.08 -3.93,3.17l0 162.37z"/>
   <path class="fil8" d="M1724.03 546.03c-3.18,-1.39 -1.66,-1.23 -1.79,3.25 4.31,0 3.42,0.89 1.79,-3.25 12.56,2.3 96.8,-5.82 116.24,-7.37 11.51,-0.92 31.66,-2.8 40.71,-0.71 -7.32,-29.8 -44.06,-57.56 -83.39,-54.91 -20.94,1.41 -46.39,14.2 -56.88,27.52l-7.16 11.09c-4.17,6.24 -10.32,14.96 -9.52,24.38z"/>
   <path class="fil9" d="M1380.24 1358.98c-2.79,-0.84 -2.35,-1.47 -1.8,1.32 -2.79,-0.63 -2.28,-1.2 -1.67,1.56 -2.82,-0.63 -2.25,-1.13 -1.53,1.69 -2.93,-0.62 -2.3,-1.09 -1.4,1.82 -9.79,5.03 -19.9,27.88 -19.5,37.7 2.45,9.64 12.81,17.16 22.68,27.02l49.02 49.24c4.49,4.49 7.83,7.76 12.28,12.29 1.51,1.54 5.2,5.72 6.46,6.62 5.56,3.99 -0.29,1.47 8.29,2 7.67,0.45 14.39,-3.09 20.93,-6.56 4.25,-2.25 4.97,-3.07 8.95,-5.87 5.03,-3.54 4.12,-1.71 7.36,-6.57 -7.6,-2.4 -11.2,-8.65 -16.35,-13.8l-100.12 -102.06c2.8,0.71 2.09,1.08 1.4,-1.82 2.72,0.62 2.12,1.09 1.53,-1.69 2.72,0.62 2.18,1.16 1.67,-1.56 2.65,0.61 2.23,1.25 1.8,-1.32 3,0.81 2.64,1.61 2.05,-1.3 3.68,1.09 2.51,1.54 2.51,-2.58 -3.56,0.6 -3.09,-0.53 -2.51,2.58 -2.95,-0.93 -2.49,-1.65 -2.05,1.3z"/>
   <path class="fil0" d="M1407.67 793.02c4.27,-1.56 3.33,-2.47 3.33,1.93 24.67,15.26 96.82,0.78 108.63,-63.18 2.42,-13.09 0.71,-41.28 -7.1,-49.71 -4.24,-0.5 -1.87,-0.87 -5.13,1.41l-61.33 68.06c-10.52,10.31 -25.51,29.68 -38.41,41.49z"/>
   <path class="fil1" d="M671.63 111.99c-55.79,13.9 -34.92,94.91 25.81,79.15 53.16,-13.8 35.07,-94.32 -25.81,-79.15z"/>
   <path class="fil9" d="M2098.97 658.43c3.29,2.67 3.91,2.37 7.04,5.02l75.35 70.46c2.83,2.42 4.71,4.61 7.39,7.3 7.1,7.14 26.79,23.23 28.64,28.06 -3.39,-0.58 -2.39,-1.04 -1.59,2.57 3.14,0 2.36,0.67 1.59,-2.57 8.37,-3.25 16.46,-23.75 15.23,-34.69 -3.2,-8.66 -39.82,-40.05 -48.86,-48.98l-44.91 -41.91c-5.74,-4.1 0.07,-2.01 -8.4,-1.88 -8.78,-0.09 -25.91,7.92 -31.47,16.62z"/>
   <path class="fil3" d="M1329.34 1146.95c5.69,-1.35 13.82,-8.2 17.82,-11.23 15.15,-11.47 26.54,-40.02 26.31,-62.26 -0.37,-34.98 -23.41,-63.16 -45.49,-72.66 -0.52,18.45 -2.94,139.01 1.37,146.15z"/>
   <path class="fil1" d="M2932.29 1378.41c1.49,40.33 -64.87,28.89 -86.64,27.85 -38.35,-1.84 -73.48,6.36 -110.65,9.29l2.35 19.59c21.24,-1.65 42.91,-5.6 64.29,-7.64 49.12,-4.68 97.13,9.38 128.21,-9.43 11.65,-7.05 29.03,-24.79 19.83,-46.95 -2.82,-0.84 -13.26,5.52 -17.39,7.29z"/>
   <path class="fil6" d="M2802.14 401.79c21.38,-5.46 38.83,9.33 42.87,25.4 5.44,21.64 -9.58,39.51 -25.58,43.59 -44.98,11.48 -64.38,-56.96 -17.28,-68.99zm-42.54 41.18c8.27,65.25 109.34,54.94 101.76,-12.65 -7.51,-66.94 -110.45,-55.91 -101.76,12.65z"/>
   <path class="fil6" d="M2644.83 665.43c21.3,-5.95 39.32,8.19 43.68,24.7 5.59,21.21 -8.08,38.97 -23.76,43.6 -46.83,13.82 -65.78,-55.49 -19.91,-68.31zm-4.84 -14.69c-65.91,19.37 -36.68,116.62 28.26,98.07 64.57,-18.45 37.18,-117.3 -28.26,-98.07z"/>
   <path class="fil6" d="M2983.63 639.13c46.39,-13.08 63.35,55.76 20.06,68.32 -47.1,13.67 -64.49,-55.8 -20.06,-68.32zm0.85 -16c-68.32,13.08 -47.72,113.61 19,100.31 65.81,-13.12 46.33,-112.82 -19,-100.31z"/>
   <path class="fil6" d="M2790.68 958.84c-5.25,-21.85 9.67,-39.5 26.21,-43.42 22.07,-5.23 39.34,9.53 43.15,25.8 10.89,46.48 -58.43,63.06 -69.36,17.62zm20.91 -57.73c-66.25,20.32 -36.03,115.62 27.33,98.51 22.58,-6.1 43.94,-31.26 36.17,-61.99 -5.92,-23.41 -32.42,-46.05 -63.51,-36.52z"/>
   <path class="fil3" d="M1729.03 1542.1c7.44,4.84 57.7,-2.62 68.54,-3.38 23.47,-1.63 46.61,-4 69.61,-7.19 -43.78,-61.43 -128.06,-24.76 -138.15,10.57z"/>
   <path class="fil1" d="M2821.05 942.07c12.12,-5.92 18.77,12.25 8.14,16.85 -5.18,2.24 -10.36,-0.94 -12.1,-4.44 -3.39,-6.85 -0.1,-10.43 3.96,-12.41zm-30.37 16.77c10.93,45.44 80.25,28.87 69.36,-17.62 -3.81,-16.27 -21.08,-31.03 -43.15,-25.8 -16.54,3.92 -31.46,21.57 -26.21,43.42z"/>
   <path class="fil1" d="M2988.53 665.69c12.49,-8.28 18.87,10.95 10.23,15.71 -6.16,3.4 -12.21,0.54 -14.22,-4.07 -3.46,-7.99 2.62,-10.73 3.98,-11.64zm-4.9 -26.56c-44.43,12.52 -27.04,81.99 20.06,68.32 43.29,-12.56 26.33,-81.4 -20.06,-68.32z"/>
   <path class="fil1" d="M2649.6 691.9c12.14,-7.45 18.59,10.73 10.16,15.71 -11.22,6.63 -22.35,-8.24 -10.16,-15.71zm-4.77 -26.47c-45.87,12.81 -26.92,82.13 19.91,68.31 15.69,-4.63 29.36,-22.39 23.76,-43.6 -4.36,-16.51 -22.38,-30.65 -43.68,-24.7z"/>
   <path class="fil1" d="M2806.62 427.97c13.22,-5.95 18.13,12.18 7.93,16.79 -5.62,2.55 -10.94,-0.56 -12.58,-4.21 -1.3,-2.89 -1.56,-5.45 -0.26,-8.45 2.57,-5.95 0.45,-2.12 4.91,-4.13zm-4.48 -26.18c-47.1,12.03 -27.7,80.47 17.28,68.99 16,-4.08 31.02,-21.96 25.58,-43.59 -4.04,-16.07 -21.48,-30.85 -42.87,-25.4z"/>
   <path class="fil10" d="M1358.63 738.61c3.57,-11.5 55.5,-66.27 66.18,-77.12 3.95,-4.01 20.64,-22.03 21.73,-25.78l8.25 1.19c-19.07,-15.84 -109.25,11.99 -99.38,90.96 0.18,1.43 0.61,4.23 1.02,5.61l2.2 5.14z"/>
   <path class="fil10" d="M2133.89 1506.19c44.92,10.52 95.98,-28.08 97.5,-78.98 0.2,-6.86 0.14,-16.21 -3.36,-22.05 -0.59,7.2 0.47,4.3 -4.45,9.27l-89.69 91.76z"/>
   <path class="fil1" d="M1789.14 1051.45c30.31,-6.7 40.57,40.06 9.59,46.23 -30,5.97 -40.96,-39.29 -9.59,-46.23zm-1.55 -16.35c-52.42,9.38 -39.21,87.22 12.91,78.97 20.08,-3.18 37.35,-21.68 32.8,-46.9 -3.43,-19.05 -22.09,-36.29 -45.71,-32.07z"/>
   <path class="fil3" d="M2233.76 1029.35c-3.18,-0.16 -1.94,-0.73 -2.38,3.18 4.49,0 3.72,1.08 2.38,-3.18 3.21,8.15 -0.74,32.07 -0.68,42.48 0.05,9.37 -0.62,14.53 -1.37,21.54 -0.52,4.88 1.67,17.65 -1.88,19.43 3.64,10.21 14.12,22.82 21.73,25.75 2.98,-4.18 1.69,-25.9 1.67,-32.34l4.34 -96.41c-1.88,-5.25 2.19,0.06 -2.44,-4.07 -8.55,5.73 -12.19,7.53 -18.01,16.06 -4.47,6.55 -2.94,3.99 -3.36,7.56z"/>
   <path class="fil3" d="M1737.43 618.19c6.3,1.17 13.6,17.23 25.88,19.04 -0.14,2.98 -0.66,1.8 3.06,2.17 0,-4.26 1,-3.51 -3.06,-2.17 6.52,-2.21 79.83,-7.82 87.66,-5.05 -3.81,-1.23 -2.69,-1.75 -2.69,2.44 3.66,-0.51 3.22,0.66 2.69,-2.44 5.91,-0.69 1.78,0.93 6.51,-3.09 0.63,-0.54 3.8,-3.87 4.86,-5 3.27,-3.48 6.54,-6.62 8.31,-11.39 -0.21,-4.07 1.01,-0.72 -1.1,-3.11 -23.57,0.09 -78.6,1.57 -100.73,7.55 -4.18,1.13 -28.51,1.26 -31.4,1.06z"/>
   <path class="fil11" d="M2130.43 641.81c8.47,-0.13 2.66,-2.22 8.4,1.88l44.91 41.91c9.04,8.93 45.66,40.32 48.86,48.98 1.58,-2.34 0.15,1.99 1.63,-3.7 0.59,-2.26 0.73,-3.74 0.85,-6.1 0.18,-3.74 -0.19,-8.14 -0.5,-11.86 -2.8,-1.97 -3.27,2.18 -1.74,-4.86 -5.78,-3.43 -42.84,-41.21 -53.07,-51.24 -3.43,-3.37 -5.63,-5.56 -9.08,-8.93l-8.65 -8.46c-0.23,-0.25 -0.66,-0.69 -0.95,-1.07 -9.02,-1.17 -24.56,-1.93 -30.65,3.44z"/>
   <path class="fil0" d="M2065.18 1421.28c9.52,-3.99 56.13,-55.62 69.07,-68.37 6.1,-6.01 6.53,-5.03 9.42,-11.54 -45.73,5.39 -73.44,33.64 -78.48,79.91z"/>
   <path class="fil12" d="M1789.14 1051.45c-31.38,6.94 -20.41,52.19 9.59,46.23 30.98,-6.16 20.72,-52.93 -9.59,-46.23z"/>
   <path class="fil13" d="M1444.74 1501.94c-18.28,-3.58 -7.29,7.96 -28.27,-13.03 -12.69,-12.69 -57.72,-59.81 -65.29,-64.37 1.5,27.32 15.15,46.34 29.4,59.31 9.28,8.44 49.69,28.46 64.16,18.09z"/>
   <path class="fil11" d="M1351.17 1424.54c7.57,4.56 52.6,51.68 65.29,64.37 20.98,20.98 10,9.44 28.27,13.03 3.92,0.45 6.24,1.93 8.35,-1.71 -8.58,-0.53 -2.72,1.99 -8.29,-2 -1.26,-0.9 -4.95,-5.08 -6.46,-6.62 -4.45,-4.53 -7.79,-7.8 -12.28,-12.29l-49.02 -49.24c-9.86,-9.86 -20.22,-17.38 -22.68,-27.02 -3.83,4.65 -3.05,14.25 -3.18,21.48z"/>
   <path class="fil0" d="M2906.74 568.13l-38.8 13.83c7.94,7.55 36.92,15.7 50.13,15.06 -1.68,-17.06 -13.73,-37.42 -18.06,-54.13l39.5 -14.7 -21.85 -8.18c-7.87,-2.28 -16.64,-4.98 -25.46,-4.27 -0.87,22.87 10.17,35.09 14.55,52.4z"/>
   <path class="fil13" d="M2232.84 708.07c-1.53,7.04 -1.06,2.89 1.74,4.86 -0.34,-8.4 0.24,-3.62 -1.74,-4.86 2.68,-17.04 -15.64,-39.61 -23.1,-46.83 -11.09,-10.74 -27.24,-20.72 -48.66,-22.87 0.29,0.38 0.72,0.82 0.95,1.07l8.65 8.46c3.45,3.37 5.65,5.56 9.08,8.93 10.23,10.03 47.29,47.81 53.07,51.24z"/>
   <path class="fil0" d="M1763.32 637.23c4.07,-1.34 3.06,-2.09 3.06,2.17 14.35,14.99 73.27,9.77 81.9,-4.78 0,-4.19 -1.12,-3.67 2.69,-2.44 -7.83,-2.77 -81.14,2.84 -87.66,5.05z"/>
   <path class="fil0" d="M2231.38 1032.53c-6.84,5.14 -11.61,26.99 -11.93,39.29 -0.29,11.18 3.64,35.9 10.38,40.98 3.55,-1.78 1.36,-14.55 1.88,-19.43 0.74,-7.01 1.42,-12.17 1.37,-21.54 -0.06,-10.41 3.89,-34.33 0.68,-42.48 1.34,4.26 2.11,3.18 -2.38,3.18z"/>
   <path class="fil12" d="M2988.53 665.69c-1.37,0.91 -7.44,3.65 -3.98,11.64 2,4.62 8.05,7.47 14.22,4.07 8.63,-4.76 2.25,-23.99 -10.23,-15.71z"/>
   <path class="fil14" d="M2806.62 427.97c-4.46,2.01 -2.34,-1.82 -4.91,4.13 -1.3,3 -1.04,5.56 0.26,8.45 1.64,3.65 6.96,6.75 12.58,4.21 10.2,-4.62 5.28,-22.74 -7.93,-16.79z"/>
   <path class="fil15" d="M2649.6 691.9c-12.19,7.47 -1.05,22.34 10.16,15.71 8.43,-4.98 1.98,-23.16 -10.16,-15.71z"/>
   <path class="fil14" d="M2821.05 942.07c-4.06,1.98 -7.35,5.56 -3.96,12.41 1.74,3.5 6.92,6.68 12.1,4.44 10.64,-4.6 3.98,-22.77 -8.14,-16.85z"/>
  </g>
 </g>
</svg>
