<?xml version="1.0" encoding="UTF-8"?>
<!DOCTYPE svg PUBLIC "-//W3C//DTD SVG 1.1//EN" "http://www.w3.org/Graphics/SVG/1.1/DTD/svg11.dtd">
<!-- Creator: CorelDRAW 2021 (64 Bit) -->
<svg xmlns="http://www.w3.org/2000/svg" xml:space="preserve" width="703px" height="345px" version="1.1" style="shape-rendering:geometricPrecision; text-rendering:geometricPrecision; image-rendering:optimizeQuality; fill-rule:evenodd; clip-rule:evenodd"
viewBox="0 0 117.08 57.46"
 xmlns:xlink="http://www.w3.org/1999/xlink"
 xmlns:xodm="http://www.corel.com/coreldraw/odm/2003">
 <defs>
  <style type="text/css">
   <![CDATA[
    .fil3 {fill:black}
    .fil6 {fill:#53331D}
    .fil10 {fill:#727376}
    .fil4 {fill:#86B0BF}
    .fil9 {fill:#9D720B}
    .fil8 {fill:#B8E3E9}
    .fil1 {fill:#E2A610}
    .fil7 {fill:#ED3135}
    .fil5 {fill:#FCD532}
    .fil0 {fill:#FEFEFE}
    .fil2 {fill:red}
   ]]>
  </style>
 </defs>
 <g id="Camada_x0020_1">
  <metadata id="CorelCorpID_0Corel-Layer"/>
  <g id="_2434881561248">
   <path class="fil0" d="M41.86 50.63l0.01 -3.25 1.39 -0.05 0.05 5.79 -1.45 -0.01 0 -2.48zm-29.5 -3.66l0.63 -0.04 0.17 0 0.66 0.01 -0.01 6.06 -1.43 -0.02 -0.02 -6.01zm66.26 -18.49c-0.02,-2.33 0.5,-2.46 2.45,-3.2 1.41,-0.55 3.01,-0.93 4.56,-1.27 3.02,-0.67 7.1,-1.15 10.3,-1.28l0.23 -2.74 0.25 2.72c4.64,-0.07 13.13,0.98 17.48,3.12 0.87,0.43 1.06,0.63 1.1,1.81 0.16,5.36 0,12.19 0,17.82 0,1.03 0.27,5.27 -0.16,5.75 -0.11,1.45 -4.34,2.75 -5.46,3.03 -7.38,1.86 -15.71,2.06 -23.12,0.58 -2.15,-0.43 -4.69,-1.11 -6.32,-2.18 -1.32,-0.85 -1.55,-0.77 -1.49,-2.84 0.16,-6.42 0.29,-15.17 0.18,-21.32zm-24.79 -12.83c-1.07,2.22 -4.48,0.96 -3.41,-1.53 0.91,-2.1 4.62,-0.96 3.41,1.53zm10.69 -1.83c-1.07,5.33 -8.79,4.14 -7.85,-1.12 0.35,-1.96 2.19,-3.7 4.62,-3.41 2.05,0.24 3.71,2.11 3.23,4.53zm-44.8 -9.85c1.97,-0.57 2.73,2.09 0.97,2.56 -0.97,0.27 -1.76,-0.09 -1.97,-0.78 -0.36,-1.17 0.2,-1.55 1,-1.78zm21.78 32.36c0.79,-0.25 2.61,-1.48 3.38,-1.94l6.76 -4.07c0.56,-0.34 1.11,-0.67 1.66,-1 0.52,-0.32 1.39,-0.74 1.7,-1.15 -2.64,-1.79 -4.78,-5.56 -4.62,-9.3l1.7 -0.2c0.55,4.15 1.72,7.15 4.63,8.47 1.13,-0.23 15.02,-9.17 16.33,-9.58l-0.06 -0.8c-0.41,-3.75 -3.49,-7.7 -6.9,-8.58 -2.29,-0.59 -4.52,-0.56 -6.68,0.26 -2.35,0.91 -2.78,2.35 -4.28,3.19 -0.92,-0.52 -0.57,-0.82 -1.43,-1.09 2,-2.74 7.49,-5.43 12.68,-3.63 3.8,1.33 7.24,4.91 7.83,9.67 0.66,0.02 1.92,-0.98 2.61,-1.39 0.92,-0.56 1.81,-1.1 2.7,-1.63 1.86,-1.12 3.6,-2.16 5.43,-3.26l0.12 -0.15c4.2,-10.61 18.23,-11.09 23.82,-1.13 2.09,3.72 1.89,6.54 1.84,11.18 -1.09,0.63 -4.69,1.28 -5.52,-0.22 -0.36,-1.42 1.9,-9.11 -5.12,-11.64 -1.06,0.39 -3.65,2.28 -4.8,3.01 -0.88,0.55 -1.61,1.06 -2.42,1.57 -0.79,0.51 -1.67,1.16 -2.46,1.58 -0.42,1.65 -0.29,5.2 -0.32,7.19 -2.14,1.23 -3.89,1.65 -6.06,-0.04l-0.08 -2.88 -7.75 4.96c-1.11,0.75 -7.25,4.6 -7.68,5.08 0.15,1.74 0.8,3.03 -0.04,4.52 -0.73,1.3 -1.75,2.04 -2.34,3.2l2.47 4.27c0.06,0.93 -1.84,3.41 -1.81,5.16 0.03,1.14 0.32,1.97 -0.17,3.01 -1.25,2.63 -3.83,3.34 -6.68,3.88l-1.36 -17.71c-1.13,0.86 -2.62,1.72 -3.81,2.48 -0.74,0.47 -3.3,2.03 -3.75,2.54 1.05,1.86 1.69,2.61 1.64,5.47 -0.04,2.42 0.03,4.9 -0.06,7.3 -2.18,0.21 -1.64,-0.08 -1.6,-5.63 0.03,-3.13 0.13,-4.02 -1.25,-6.28 -1.07,0.23 -4.17,2.82 -5.52,3.36 0.08,-0.04 3.86,-4.16 4.13,-4.58 -0.93,-0.43 -1.53,-0.81 -2.76,-1.13 -1.02,-0.28 -2.07,-0.39 -3.08,-0.66 -0.95,0.12 -4.32,1.75 -5.44,2.23 -0.93,0.4 -1.76,0.77 -2.68,1.16 -0.92,0.38 -1.95,1 -2.71,1.28 -3.36,2.19 -8.47,0.76 -10.54,-2.04 -1.15,-1.54 -0.94,-1.88 -1.28,-3.02l-0.15 -0.41c-0.02,-0.04 -0.04,-0.1 -0.07,-0.14 -2.91,0.14 -10.75,1.55 -12.59,2.96 -4.4,3.39 -1.58,7.82 -2.61,12.89 -2.11,0.67 -1.55,-0.78 -1.54,-2.63 0.02,-4.36 -0.76,-8.61 3.03,-11.38 3.65,-2.67 12.8,-2.71 15.38,-3.76 0.27,-1.01 0.14,-2.78 0.12,-3.98 -1.87,-0.98 -3.02,-2.71 -3.97,-4.51 -1.05,-1.99 -2.7,0.34 -3.84,-4.8 -0.21,-0.91 -0.31,-1.74 -0.04,-2.61 0.38,-1.24 0.91,-0.89 1.57,-1.43 -0.15,-2.18 -0.46,-3.66 -0.11,-5.94 0.36,-2.34 1.44,-3.04 2.02,-4.62 0.71,0.14 1.02,0.38 1.41,0.67 -0.58,1.64 -1.81,2.24 -1.98,4.74 2.41,-0.68 2.55,-2.13 5.61,0.19 7.64,5.81 11.73,-1.66 14.16,-1.21 1.02,0.2 1.82,1.04 2.78,1.39 -0.39,-3.61 -2.85,-6.32 -4.9,-7.72 -3.19,-2.18 -6.32,-2.08 -10.42,-1.25l-0.37 -1.36c6.84,-2.35 14.06,1.03 16.53,7.53 1.31,3.43 0.46,4.35 0.67,7.75 0.04,0.02 0.09,0.02 0.11,0.08l0.45 0.27c1.96,1.1 1.26,2.66 0.85,3.98 -0.65,2.13 -0.55,3.34 -3.09,3.57 -0.28,0.5 -0.53,1.14 -0.86,1.64 -0.85,1.24 -1.29,1.71 -2.37,2.62 -0.49,0.41 -1.1,0.72 -1.54,1.16 -0.05,1.03 -0.32,2.88 0.17,3.67 0.33,0.29 0.16,0.21 0.7,0.32l6.52 1.03zm75.58 -36.33l-117.08 0 0 57.46 117.08 0 0 -57.46z"/>
   <path class="fil1" d="M100.1 40.16c-0.13,2.23 -1.12,1.92 -2.19,2.97l0.68 1.34c2.6,5.24 2.62,4.83 0.17,4.81 -1.62,-0.01 -5.67,0.35 -6.25,-0.2 -0.19,-0.19 -0.49,0.2 0.24,-1.32l1.28 -2.7c0.25,-0.53 0.42,-1.03 0.74,-1.43 0.1,-0.29 0.14,-0.42 0.23,-0.66 -0.04,-0.03 -0.1,-0.12 -0.11,-0.08 0,0 -1.01,-0.54 -1.53,-1.36 -0.46,-0.72 -0.58,-1.43 -0.27,-2.36 -1.37,1.44 -4.08,5.06 -4.09,5.06 -0.01,-0.03 -0.03,0.14 -0.11,0.14l-0.11 -0.27c0.52,-0.55 1.75,-2.86 2.37,-3.91 0.77,-1.33 1.51,-2.61 2.28,-3.88l-5.58 -0.09 3.28 -2.38c0.23,-0.17 0.33,-0.26 0.55,-0.44 0.1,-0.08 0.18,-0.14 0.29,-0.23l0.2 -0.18 -3.09 -1.39c-0.98,0.6 -5.27,-0.67 -6.15,-0.94 -2.13,-0.68 -3.1,-1.45 -4.15,-3.22l-0.16 1.04c0.11,6.15 -0.02,14.9 -0.18,21.32 -0.06,2.07 0.17,1.99 1.49,2.84 1.63,1.07 4.17,1.75 6.32,2.18 7.41,1.48 15.74,1.28 23.12,-0.58 1.12,-0.28 5.35,-1.58 5.46,-3.03 -0.33,-3.32 -0.05,-18.93 -0.08,-23.75 -0.11,1.77 -2.96,2.93 -4.75,3.43 -1.13,0.32 -2.27,0.56 -3.44,0.74 -0.64,0.1 -1.22,0.16 -1.91,0.25 -0.32,0.05 -0.56,0.12 -0.91,0.12 -0.84,0.01 -0.72,-0.14 -0.76,-0.17l-2.89 1.33 3.55 2.6c0.38,0.28 0.72,0.62 1.04,0.83l-5.59 -0.17c0.31,0.91 2.72,4.72 3.49,6.05 0.2,0.34 1.23,1.72 1.02,2.01 -0.25,-0.39 -3.15,-4.07 -3.5,-4.32zm-5.69 4.57l-0.07 0.06 0.07 -0.06zm-0.33 0.83l-0.05 0.06 0.05 -0.06zm4.56 -0.56l-0.05 0.07 0.05 -0.07z"/>
   <path class="fil2" d="M84.62 11.21c0.36,-0.55 0.33,-0.51 0.83,-0.72l0.14 -0.23 0.13 -0.13 0.2 -0.14c0,-0.25 -0.05,-0.19 0.19,-0.14l-0.07 -0.2 -0.16 -0.04c-0.14,0.18 -0.06,0.14 -0.34,0.32 -0.49,0.33 -0.02,0.05 -0.48,0.22l-0.12 0.15c-1.83,1.1 -3.57,2.14 -5.43,3.26 -0.89,0.53 -1.78,1.07 -2.7,1.63 -0.69,0.41 -1.95,1.41 -2.61,1.39 -0.34,0.46 -0.45,0.44 -0.92,0.73 -0.23,-0.21 -0.15,0.24 -0.3,-0.55l0.06 0.8c-1.31,0.41 -15.2,9.35 -16.33,9.58 -0.03,0.04 -0.07,0.08 -0.09,0.1 -0.03,0.02 -0.07,0.07 -0.1,0.09l-0.2 0.17c-0.1,0.07 -0.34,0.22 -0.42,0.26 -0.35,0.21 -0.5,0.31 -0.9,0.41 -0.31,0.41 -1.18,0.83 -1.7,1.15 -0.55,0.33 -1.1,0.66 -1.66,1l-6.76 4.07c-0.77,0.46 -2.59,1.69 -3.38,1.94 -0.43,0.39 -1.32,1.01 -2.01,1.19 -0.37,0.42 -4.31,2.73 -5.13,3.15l-3.3 2.13c0.31,-0.1 0.27,-0.06 0.63,-0.12 0.76,-0.28 1.79,-0.9 2.71,-1.28 0.92,-0.39 1.75,-0.76 2.68,-1.16 1.12,-0.48 4.49,-2.11 5.44,-2.23 0.44,-0.49 1.56,-0.88 2.3,-1.06l10.52 -4.53 -2.89 3.03c-0.83,0.97 -1.97,2.49 -3.04,3.21 -0.22,0.49 -0.57,0.98 -1.05,1.14 -0.27,0.42 -4.05,4.54 -4.13,4.58 1.35,-0.54 4.45,-3.13 5.52,-3.36 0.14,-0.16 0.11,-0.14 0.29,-0.29 0.04,-0.04 0.26,-0.2 0.29,-0.23 0.28,-0.18 0.39,-0.22 0.69,-0.34 0.45,-0.51 3.01,-2.07 3.75,-2.54 1.19,-0.76 2.68,-1.62 3.81,-2.48l1.85 -1.19c1.04,-0.74 2.13,-1.33 3.24,-2.09 0.7,-0.49 2.63,-1.82 3.32,-2.07l1.52 -0.98c0.43,-0.48 6.57,-4.33 7.68,-5.08l7.75 -4.96c0.87,-0.76 2.16,-1.47 3.27,-2.17 0.89,-0.57 2.45,-1.5 3.19,-2.1 0.79,-0.42 1.67,-1.07 2.46,-1.58 0.81,-0.51 1.54,-1.02 2.42,-1.57 1.15,-0.73 3.74,-2.62 4.8,-3.01 1.17,-1.11 3.08,-1.91 4.08,-2.83 -1.57,0.55 -3.39,1.83 -5.22,2.55l-7.62 3.93 -4.2 2.03 -0.22 0.1 -0.23 0.16 -1.76 0.88 -0.98 0.54 -0.1 0.1c-1.51,0.57 -7.47,3.83 -9.73,4.86 0.23,-0.55 1.93,-1.98 2.56,-2.46 1.16,-0.9 6.87,-6.3 7.96,-6.99z"/>
   <path class="fil0" d="M23.53 27.66c1.1,-2.66 7.41,-3.01 9.37,0.19 -0.32,0.25 -0.81,0.64 -1.09,0.8 -0.94,-0.66 -1.81,-1.58 -3.49,-1.6 -2.1,-0.03 -2.71,0.49 -3.67,1.45 -0.59,-0.25 -0.81,-0.42 -1.12,-0.84zm8.01 -9.36c2.42,-0.9 3.05,2.22 1.26,2.85 -1,0.35 -1.89,-0.09 -2.18,-0.81 -0.49,-1.2 0.05,-1.72 0.92,-2.04zm-8.63 -0.08c2.44,-0.6 2.93,2.61 0.83,3.02 -2.07,0.4 -2.79,-2.55 -0.83,-3.02zm15.76 0.91c0.2,-1.57 0.75,-3.18 -0.27,-4.4 -2.51,-2.95 -3.04,-0.8 -6.39,0.8 -5.1,2.44 -8.25,0.21 -11.57,-2 -1.13,-0.76 -2.94,0.04 -3.36,1.05 -0.84,2.02 -0.15,2.77 -0.2,4.57 -0.73,0.43 -1.23,0.14 -1.85,0.5 -0.24,1.26 0.15,2.32 0.55,3.4 0.54,1.5 1.09,1.02 2.47,1.35 1.14,2.41 1.68,3.62 3.5,5.02 3.7,2.83 9.15,2.64 12.83,-0.2 1.95,-1.5 2.25,-2.13 3.43,-4.87 1.59,-0.02 2.13,0.2 2.44,-1.25 0.77,-3.66 1.24,-3.13 -1.58,-3.97z"/>
   <path class="fil3" d="M34.36 40.67c0.69,-1.42 1.12,-1.39 1.35,-3.63 1.17,-0.11 2.61,0.31 3.78,0.48 0.69,-0.18 1.58,-0.8 2.01,-1.19l-6.52 -1.03c-0.54,-0.11 -0.37,-0.03 -0.7,-0.32 -0.49,-0.79 -0.22,-2.64 -0.17,-3.67 0.44,-0.44 1.05,-0.75 1.54,-1.16 1.08,-0.91 1.52,-1.38 2.37,-2.62 0.33,-0.5 0.58,-1.14 0.86,-1.64 2.54,-0.23 2.44,-1.44 3.09,-3.57 0.41,-1.32 1.11,-2.88 -0.85,-3.98l-0.45 -0.27c-0.02,-0.06 -0.07,-0.06 -0.11,-0.08 -0.21,-3.4 0.64,-4.32 -0.67,-7.75 -2.47,-6.5 -9.69,-9.88 -16.53,-7.53l0.37 1.36c4.1,-0.83 7.23,-0.93 10.42,1.25 2.05,1.4 4.51,4.11 4.9,7.72 -0.96,-0.35 -1.76,-1.19 -2.78,-1.39 -2.43,-0.45 -6.52,7.02 -14.16,1.21 -3.06,-2.32 -3.2,-0.87 -5.61,-0.19 0.17,-2.5 1.4,-3.1 1.98,-4.74 -0.39,-0.29 -0.7,-0.53 -1.41,-0.67 -0.58,1.58 -1.66,2.28 -2.02,4.62 -0.35,2.28 -0.04,3.76 0.11,5.94 -0.66,0.54 -1.19,0.19 -1.57,1.43 -0.27,0.87 -0.17,1.7 0.04,2.61 1.14,5.14 2.79,2.81 3.84,4.8 0.95,1.8 2.1,3.53 3.97,4.51 0.02,1.2 0.15,2.97 -0.12,3.98 -2.58,1.05 -11.73,1.09 -15.38,3.76 -3.79,2.77 -3.01,7.02 -3.03,11.38 -0.01,1.85 -0.57,3.3 1.54,2.63 1.03,-5.07 -1.79,-9.5 2.61,-12.89 1.84,-1.41 9.68,-2.82 12.59,-2.96 0.03,0.04 0.05,0.1 0.07,0.14l0.15 0.41c0.34,1.14 0.13,1.48 1.28,3.02 2.07,2.8 7.18,4.23 10.54,2.04 -0.36,0.06 -0.32,0.02 -0.63,0.12l3.3 -2.13zm-13.05 -3.92c2.05,-0.95 1.66,-0.91 1.6,-4.69 4.58,1.18 4.51,1.46 9.72,-0.08 -0.04,5.28 -0.13,3.32 1.58,4.82 0,3.2 -3.2,5.21 -6.49,5.41 -3.27,0.2 -6.33,-2.4 -6.41,-5.46zm17.36 -17.62c2.82,0.84 2.35,0.31 1.58,3.97 -0.31,1.45 -0.85,1.23 -2.44,1.25 -1.18,2.74 -1.48,3.37 -3.43,4.87 -3.68,2.84 -9.13,3.03 -12.83,0.2 -1.82,-1.4 -2.36,-2.61 -3.5,-5.02 -1.38,-0.33 -1.93,0.15 -2.47,-1.35 -0.4,-1.08 -0.79,-2.14 -0.55,-3.4 0.62,-0.36 1.12,-0.07 1.85,-0.5 0.05,-1.8 -0.64,-2.55 0.2,-4.57 0.42,-1.01 2.23,-1.81 3.36,-1.05 3.32,2.21 6.47,4.44 11.57,2 3.35,-1.6 3.88,-3.75 6.39,-0.8 1.02,1.22 0.47,2.83 0.27,4.4z"/>
   <path class="fil4" d="M100.08 8.34c7.02,2.53 4.76,10.22 5.12,11.64 0.83,1.5 4.43,0.85 5.52,0.22 0.05,-4.64 0.25,-7.46 -1.84,-11.18 -5.59,-9.96 -19.62,-9.48 -23.82,1.13l-0.12 0.15 0.12 -0.15c0.46,-0.17 -0.01,0.11 0.48,-0.22 0.28,-0.18 0.2,-0.14 0.34,-0.32 0.02,-1.25 2.88,-4.22 4.33,-3.4 1.52,1.59 -0.64,2.81 -1.25,3.64 -0.64,0.86 -1.74,2.95 -1.84,4.17l-0.22 0.1c-0.29,-0.03 -0.23,-0.11 -0.23,0.16l0.23 -0.16 0.22 -0.1 4.2 -2.03c0.37,-1.31 1.65,-2.36 2.75,-3.02 1.35,-0.8 2.95,-1.18 4.87,-0.91 1.83,-0.72 3.65,-2 5.22,-2.55 -1,0.92 -2.91,1.72 -4.08,2.83zm-14.36 1.79l-0.13 0.13 -0.14 0.23c-0.5,0.21 -0.47,0.17 -0.83,0.72l-0.69 4.49 -0.1 0.1 0.1 -0.1 0.98 -0.54c0.05,-1.95 0.34,-2.98 0.54,-4.67l0.14 -0.23 0.13 -0.13 0.2 -0.14 0.19 -0.14c0.61,-0.31 0.25,0.03 0.55,-0.58 -1.31,0.32 -0.24,-0.06 -0.62,0.38l0.07 0.2c-0.24,-0.05 -0.19,-0.11 -0.19,0.14l-0.2 0.14z"/>
   <path class="fil5" d="M106.43 25.92c3.65,-0.61 5.17,2.38 1.64,2.87 -3.56,0.5 -5.53,-2.22 -1.64,-2.87zm-9.52 3.59c0.67,-0.28 2.4,-1.7 3.33,-2.37l0.96 -0.69 -1.5 5.16 8.52 -2.16 -5.24 2.38c0.04,0.03 -0.08,0.18 0.76,0.17 0.35,0 0.59,-0.07 0.91,-0.12 0.69,-0.09 1.27,-0.15 1.91,-0.25 1.17,-0.18 2.31,-0.42 3.44,-0.74 1.79,-0.5 4.64,-1.66 4.75,-3.43 0.03,4.82 -0.25,20.43 0.08,23.75 0.43,-0.48 0.16,-4.72 0.16,-5.75 0,-5.63 0.16,-12.46 0,-17.82 -0.04,-1.18 -0.23,-1.38 -1.1,-1.81 -4.35,-2.14 -12.84,-3.19 -17.48,-3.12l0.5 6.8z"/>
   <path class="fil0" d="M21.31 36.75c0.08,3.06 3.14,5.66 6.41,5.46 3.29,-0.2 6.49,-2.21 6.49,-5.41 -1.71,-1.5 -1.62,0.46 -1.58,-4.82 -5.21,1.54 -5.14,1.26 -9.72,0.08 0.06,3.78 0.45,3.74 -1.6,4.69z"/>
   <path class="fil0" d="M60.43 33.95l0.81 17.1c0.15,0.11 0.2,0.35 1.01,0.07 0.88,-0.31 2.09,-1.11 2.55,-1.81 0.51,-0.77 0.29,-1.43 0.19,-2.36 -0.26,-2.34 2.28,-4.99 1.28,-6.64 -0.58,-0.95 -1.8,-2.82 -2.11,-3.66 3.74,-5.09 3.17,-3.77 2.83,-6.86 -0.69,0.25 -2.62,1.58 -3.32,2.07 -1.11,0.76 -2.2,1.35 -3.24,2.09z"/>
   <path class="fil5" d="M84 27.48c-0.17,-2.07 5.45,-2.22 5.78,-0.3 0.39,2.22 -5.63,2.09 -5.78,0.3zm-5.38 1l0.16 -1.04c1.05,1.77 2.02,2.54 4.15,3.22 0.88,0.27 5.17,1.54 6.15,0.94l-4.92 -2.03 8.47 2.04 -1.84 -5.36c0.35,0.32 4.26,3.18 4.65,3.34l0.49 -6.86c-3.2,0.13 -7.28,0.61 -10.3,1.28 -1.55,0.34 -3.15,0.72 -4.56,1.27 -1.95,0.74 -2.47,0.87 -2.45,3.2z"/>
   <path class="fil3" d="M66.99 29.79c0.34,3.09 0.91,1.77 -2.83,6.86 0.31,0.84 1.53,2.71 2.11,3.66 1,1.65 -1.54,4.3 -1.28,6.64 0.1,0.93 0.32,1.59 -0.19,2.36 -0.46,0.7 -1.67,1.5 -2.55,1.81 -0.81,0.28 -0.86,0.04 -1.01,-0.07l-0.81 -17.1 -1.85 1.19 1.36 17.71c2.85,-0.54 5.43,-1.25 6.68,-3.88 0.49,-1.04 0.2,-1.87 0.17,-3.01 -0.03,-1.75 1.87,-4.23 1.81,-5.16l-2.47 -4.27c0.59,-1.16 1.61,-1.9 2.34,-3.2 0.84,-1.49 0.19,-2.78 0.04,-4.52l-1.52 0.98z"/>
   <path class="fil6" d="M94.73 37.88c-1.59,1.51 -0.98,3.06 0.64,4.38l-0.6 1.37 -0.36 1.1 -0.07 0.06 -0.26 0.77 -0.05 0.06c-0.24,0.81 -0.64,1.3 -0.53,2.1 0.95,0.26 4.7,0.13 5.9,0.05 0.07,-0.96 -0.56,-1.83 -0.76,-2.77l-0.05 0.07 -0.68 -1.94c-0.05,-0.08 -0.1,-0.09 -0.19,-0.31 -0.13,-0.33 -0.07,-0.16 -0.14,-0.52 1.35,-1.36 1.68,-0.93 1.36,-3.59 -0.1,-0.17 -0.28,-0.45 -0.44,-0.64 -0.35,-0.45 -0.09,-0.23 -0.55,-0.53l-1.59 4.96 -1.63 -4.62z"/>
   <path class="fil3" d="M72.98 16.76c0.15,0.79 0.07,0.34 0.3,0.55 0.47,-0.29 0.58,-0.27 0.92,-0.73 -0.59,-4.76 -4.03,-8.34 -7.83,-9.67 -5.19,-1.8 -10.68,0.89 -12.68,3.63 0.86,0.27 0.51,0.57 1.43,1.09 1.5,-0.84 1.93,-2.28 4.28,-3.19 2.16,-0.82 4.39,-0.85 6.68,-0.26 3.41,0.88 6.49,4.83 6.9,8.58z"/>
   <path class="fil4" d="M83.94 18.77l0.08 2.88c2.17,1.69 3.92,1.27 6.06,0.04 0.03,-1.99 -0.1,-5.54 0.32,-7.19 -0.74,0.6 -2.3,1.53 -3.19,2.1 -1.11,0.7 -2.4,1.41 -3.27,2.17z"/>
   <path class="fil2" d="M96.24 24.91l0.54 7.77c2.38,-0.32 5.38,-1.49 7.49,-1.82 -1.02,0.48 -2.22,1 -3.56,1.57 -0.84,0.36 -2.8,1.08 -3.44,1.54l2.84 4.98c0.65,1.12 1.06,1.38 0.82,1.7 -0.64,-1.1 -3.8,-4.5 -4.58,-5.9 -0.54,0.26 -0.09,-0.03 -0.47,0.34l-0.89 1.11c-0.84,1.06 -2.88,3.69 -3.62,4.28l3.74 -6.51 -7 -3.1c1.29,0.13 5.59,1.45 7.47,1.84l0.66 -7.8zm-0.31 -2.18l-0.49 6.86 0 0.38 -0.18 2.34 -2.34 -0.62 -0.29 -0.08 -8.47 -2.04 4.92 2.03 3.09 1.39 0.24 0.14 2.28 1.04 -1.13 1.82 -0.13 0.32c-0.77,1.27 -1.51,2.55 -2.28,3.88 -0.62,1.05 -1.85,3.36 -2.37,3.91l0.11 0.27c0.08,0 0.1,-0.17 0.11,-0.14 0.01,0 2.72,-3.62 4.09,-5.06 0.33,-0.63 1.03,-1.4 1.52,-1.85l0.1 -0.2c0.22,-0.37 0.47,-0.65 0.73,-0.97 0.04,-0.05 0.37,-0.45 0.37,-0.45 0.35,-0.36 0.02,-0.15 0.51,-0.42 0.48,0.84 1.11,1.34 1.49,2.04l0.14 0.22c0.46,0.3 0.2,0.08 0.55,0.53 0.16,0.19 0.34,0.47 0.44,0.64 0.18,0.15 0.1,0.08 0.28,0.28 0.11,0.13 0.23,0.27 0.31,0.37 0.35,0.41 0.33,0.37 0.57,0.8 0.35,0.25 3.25,3.93 3.5,4.32 0.21,-0.29 -0.82,-1.67 -1.02,-2.01 -0.77,-1.33 -3.18,-5.14 -3.49,-6.05l-0.17 -0.27c-0.33,-0.37 -0.99,-1.51 -1.2,-2.06l2.02 -0.84 0.35 -0.09 2.89 -1.33 5.24 -2.38 -8.52 2.16 -0.31 0.09 -2.29 0.59 -0.17 -2.43 -0.02 -0.35 -0.5 -6.8 -0.25 -2.72 -0.23 2.74z"/>
   <path class="fil3" d="M59.99 10.78c1.49,-0.46 2.89,0.49 3.14,1.73 0.33,1.56 -0.81,3 -1.88,3.3 -3.52,0.99 -4.57,-4 -1.26,-5.03zm4.53 3.04c0.48,-2.42 -1.18,-4.29 -3.23,-4.53 -2.43,-0.29 -4.27,1.45 -4.62,3.41 -0.94,5.26 6.78,6.45 7.85,1.12z"/>
   <path class="fil7" d="M95.58 32.71c-1.88,-0.39 -6.18,-1.71 -7.47,-1.84l7 3.1 -3.74 6.51c0.74,-0.59 2.78,-3.22 3.62,-4.28l0.89 -1.11c0.38,-0.37 -0.07,-0.08 0.47,-0.34 0.78,1.4 3.94,4.8 4.58,5.9 0.24,-0.32 -0.17,-0.58 -0.82,-1.7l-2.84 -4.98c0.64,-0.46 2.6,-1.18 3.44,-1.54 1.34,-0.57 2.54,-1.09 3.56,-1.57 -2.11,0.33 -5.11,1.5 -7.49,1.82l-0.54 -7.77 -0.66 7.8z"/>
   <path class="fil8" d="M85.88 9.61l0.16 0.04c0.38,-0.44 -0.69,-0.06 0.62,-0.38 -0.3,0.61 0.06,0.27 -0.55,0.58l-0.19 0.14 -0.2 0.14 -0.13 0.13 -0.14 0.23c-0.2,1.69 -0.49,2.72 -0.54,4.67l1.76 -0.88c0,-0.27 -0.06,-0.19 0.23,-0.16l0.22 -0.1c0.1,-1.22 1.2,-3.31 1.84,-4.17 0.61,-0.83 2.77,-2.05 1.25,-3.64 -1.45,-0.82 -4.31,2.15 -4.33,3.4z"/>
   <path class="fil9" d="M93.09 39.17c-0.31,0.93 -0.19,1.64 0.27,2.36 0.52,0.82 1.53,1.36 1.53,1.36 0.01,-0.04 0.07,0.05 0.11,0.08 -0.09,0.24 -0.13,0.37 -0.23,0.66 -0.32,0.4 -0.49,0.9 -0.74,1.43l-1.28 2.7c-0.73,1.52 -0.43,1.13 -0.24,1.32 0.58,0.55 4.63,0.19 6.25,0.2 2.45,0.02 2.43,0.43 -0.17,-4.81l-0.68 -1.34c1.07,-1.05 2.06,-0.74 2.19,-2.97 -0.24,-0.43 -0.22,-0.39 -0.57,-0.8 -0.08,-0.1 -0.2,-0.24 -0.31,-0.37 -0.18,-0.2 -0.1,-0.13 -0.28,-0.28 0.32,2.66 -0.01,2.23 -1.36,3.59 0.07,0.36 0.01,0.19 0.14,0.52 0.09,0.22 0.14,0.23 0.19,0.31l0.68 1.94 0.05 -0.07c0.2,0.94 0.83,1.81 0.76,2.77 -1.2,0.08 -4.95,0.21 -5.9,-0.05 -0.11,-0.8 0.29,-1.29 0.53,-2.1l0.05 -0.06 0.26 -0.77 0.07 -0.06 0.36 -1.1 0.6 -1.37c-1.62,-1.32 -2.23,-2.87 -0.64,-4.38l-0.12 -0.56c-0.49,0.45 -1.19,1.22 -1.52,1.85z"/>
   <path class="fil0" d="M83.83 15.8l0.1 -0.1 0.69 -4.49c-1.09,0.69 -6.8,6.09 -7.96,6.99 -0.63,0.48 -2.33,1.91 -2.56,2.46 2.26,-1.03 8.22,-4.29 9.73,-4.86z"/>
   <path class="fil0" d="M59.99 10.78c-3.31,1.03 -2.26,6.02 1.26,5.03 1.07,-0.3 2.21,-1.74 1.88,-3.3 -0.25,-1.24 -1.65,-2.19 -3.14,-1.73z"/>
   <path class="fil3" d="M49.75 41.02c1.38,2.26 1.28,3.15 1.25,6.28 -0.04,5.55 -0.58,5.84 1.6,5.63 0.09,-2.4 0.02,-4.88 0.06,-7.3 0.05,-2.86 -0.59,-3.61 -1.64,-5.47 -0.3,0.12 -0.41,0.16 -0.69,0.34 -0.03,0.03 -0.25,0.19 -0.29,0.23 -0.18,0.15 -0.15,0.13 -0.29,0.29z"/>
   <path class="fil0" d="M44.82 36.95c2.18,0.55 2.83,0.82 4.59,1.71 1.07,-0.72 2.21,-2.24 3.04,-3.21l2.89 -3.03 -10.52 4.53z"/>
   <path class="fil3" d="M55 28.17c0.4,-0.1 0.55,-0.2 0.9,-0.41 0.08,-0.04 0.32,-0.19 0.42,-0.26l0.2 -0.17c0.03,-0.02 0.07,-0.07 0.1,-0.09 0.02,-0.02 0.06,-0.06 0.09,-0.1 -2.91,-1.32 -4.08,-4.32 -4.63,-8.47l-1.7 0.2c-0.16,3.74 1.98,7.51 4.62,9.3z"/>
   <path class="fil3" d="M23.53 27.66c0.31,0.42 0.53,0.59 1.12,0.84 0.96,-0.96 1.57,-1.48 3.67,-1.45 1.68,0.02 2.55,0.94 3.49,1.6 0.28,-0.16 0.77,-0.55 1.09,-0.8 -1.96,-3.2 -8.27,-2.85 -9.37,-0.19z"/>
   <path class="fil9" d="M84 27.48c0.15,1.79 6.17,1.92 5.78,-0.3 -0.33,-1.92 -5.95,-1.77 -5.78,0.3z"/>
   <path class="fil9" d="M106.43 25.92c-3.89,0.65 -1.92,3.37 1.64,2.87 3.53,-0.49 2.01,-3.48 -1.64,-2.87z"/>
   <path class="fil3" d="M53.83 15.65c1.21,-2.49 -2.5,-3.63 -3.41,-1.53 -1.07,2.49 2.34,3.75 3.41,1.53z"/>
   <path class="fil10" d="M98.92 36.15l4.6 0.1c-0.35,-0.64 -3.24,-2.68 -3.78,-3l-2.02 0.84c0.21,0.55 0.87,1.69 1.2,2.06z"/>
   <path class="fil10" d="M92.92 31.69l2.34 0.62 0.18 -2.34c-0.53,-0.23 -1.52,-1.02 -2.04,-1.46 -0.68,-0.58 -1.22,-0.94 -2,-1.37l1.52 4.55z"/>
   <path class="fil10" d="M96.93 29.86l0.17 2.43 2.29 -0.59 1.26 -4.39c-1.16,0.44 -2.47,1.89 -3.72,2.55z"/>
   <path class="fil10" d="M94.71 37.12c0.34,0.39 0.22,0.22 0.49,1.07 0.26,0.77 0.89,2.83 1.24,3.28 0.42,-0.99 0.82,-3.42 1.37,-4.15 -0.38,-0.7 -1.01,-1.2 -1.49,-2.04 -0.49,0.27 -0.16,0.06 -0.51,0.42 0,0 -0.33,0.4 -0.37,0.45 -0.26,0.32 -0.51,0.6 -0.73,0.97z"/>
   <polygon class="fil10" points="93.56,35.99 94.69,34.17 92.41,33.13 88.81,35.92 "/>
   <polygon class="fil3" points="12.38,52.98 13.81,53 13.82,46.94 13.16,46.93 12.99,46.93 12.36,46.97 "/>
   <path class="fil3" d="M42.52 38.01c1.01,0.27 2.06,0.38 3.08,0.66 1.23,0.32 1.83,0.7 2.76,1.13 0.48,-0.16 0.83,-0.65 1.05,-1.14 -1.76,-0.89 -2.41,-1.16 -4.59,-1.71 -0.74,0.18 -1.86,0.57 -2.3,1.06z"/>
   <path class="fil0" d="M91.32 11.99l7.62 -3.93c-1.92,-0.27 -3.52,0.11 -4.87,0.91 -1.1,0.66 -2.38,1.71 -2.75,3.02z"/>
   <path class="fil3" d="M31.54 18.3c-0.87,0.32 -1.41,0.84 -0.92,2.04 0.29,0.72 1.18,1.16 2.18,0.81 1.79,-0.63 1.16,-3.75 -1.26,-2.85z"/>
   <path class="fil3" d="M22.91 18.22c-1.96,0.47 -1.24,3.42 0.83,3.02 2.1,-0.41 1.61,-3.62 -0.83,-3.02z"/>
   <polygon class="fil3" points="41.86,53.11 43.31,53.12 43.26,47.33 41.87,47.38 41.86,50.63 "/>
   <path class="fil0" d="M34.36 40.67c0.82,-0.42 4.76,-2.73 5.13,-3.15 -1.17,-0.17 -2.61,-0.59 -3.78,-0.48 -0.23,2.24 -0.66,2.21 -1.35,3.63z"/>
   <path class="fil3" d="M19.72 3.97c-0.8,0.23 -1.36,0.61 -1,1.78 0.21,0.69 1,1.05 1.97,0.78 1.76,-0.47 1,-3.13 -0.97,-2.56z"/>
   <path class="fil4" d="M98.92 36.15l0.17 0.27 5.59 0.17c-0.32,-0.21 -0.66,-0.55 -1.04,-0.83l-3.55 -2.6 -0.35 0.09c0.54,0.32 3.43,2.36 3.78,3l-4.6 -0.1z"/>
   <path class="fil4" d="M94.73 37.88l1.63 4.62 1.59 -4.96 -0.14 -0.22c-0.55,0.73 -0.95,3.16 -1.37,4.15 -0.35,-0.45 -0.98,-2.51 -1.24,-3.28 -0.27,-0.85 -0.15,-0.68 -0.49,-1.07l-0.1 0.2 0.12 0.56z"/>
   <path class="fil4" d="M93.43 36.31l0.13 -0.32 -4.75 -0.07 3.6 -2.79 -0.24 -0.14 -0.2 0.18c-0.11,0.09 -0.19,0.15 -0.29,0.23 -0.22,0.18 -0.32,0.27 -0.55,0.44l-3.28 2.38 5.58 0.09z"/>
   <path class="fil4" d="M92.63 31.61l0.29 0.08 -1.52 -4.55c0.78,0.43 1.32,0.79 2,1.37 0.52,0.44 1.51,1.23 2.04,1.46l0 -0.38c-0.39,-0.16 -4.3,-3.02 -4.65,-3.34l1.84 5.36z"/>
   <path class="fil4" d="M96.91 29.51l0.02 0.35c1.25,-0.66 2.56,-2.11 3.72,-2.55l-1.26 4.39 0.31 -0.09 1.5 -5.16 -0.96 0.69c-0.93,0.67 -2.66,2.09 -3.33,2.37z"/>
  </g>
 </g>
</svg>
