<?xml version="1.0" encoding="UTF-8"?>
<!DOCTYPE svg PUBLIC "-//W3C//DTD SVG 1.1//EN" "http://www.w3.org/Graphics/SVG/1.1/DTD/svg11.dtd">
<!-- Creator: CorelDRAW 2021 (64 Bit) -->
<svg xmlns="http://www.w3.org/2000/svg" xml:space="preserve" width="725px" height="375px" version="1.1" style="shape-rendering:geometricPrecision; text-rendering:geometricPrecision; image-rendering:optimizeQuality; fill-rule:evenodd; clip-rule:evenodd"
viewBox="0 0 10.01 5.18"
 xmlns:xlink="http://www.w3.org/1999/xlink"
 xmlns:xodm="http://www.corel.com/coreldraw/odm/2003">
 <defs>
  <style type="text/css">
   <![CDATA[
    .str4 {stroke:black;stroke-width:0.14;stroke-miterlimit:22.9256}
    .str2 {stroke:black;stroke-width:0.28;stroke-miterlimit:22.9256}
    .str3 {stroke:blue;stroke-width:0.07;stroke-miterlimit:22.9256}
    .str0 {stroke:#B8B4B6;stroke-width:0.35;stroke-miterlimit:22.9256}
    .str1 {stroke:black;stroke-width:0.01;stroke-miterlimit:22.9256}
    .fil4 {fill:none}
    .fil3 {fill:black}
    .fil5 {fill:black}
    .fil0 {fill:aqua}
    .fil7 {fill:#CCCCCC}
    .fil2 {fill:white}
    .fil1 {fill:white}
    .fil6 {fill:black;fill-rule:nonzero}
   ]]>
  </style>
 </defs>
 <g id="Camada_x0020_1">
  <metadata id="CorelCorpID_0Corel-Layer"/>
  <g id="_2713646450000">
   <rect class="fil0" x="0.32" y="0.27" width="9.38" height="4.63"/>
   <rect class="fil1 str0" x="0.17" y="0.17" width="9.67" height="4.83" rx="0.45" ry="0.41"/>
   <g>
    <path class="fil2" d="M2.83 2.34c0.07,0 0.11,-0.02 0.16,-0.05 0.02,-0.02 0.03,-0.03 0.05,-0.04 0.02,-0.01 0.05,-0.04 0.06,-0.05 0.02,0.04 0.06,0.06 0.08,0.07 -0.02,0.05 -0.1,0.11 -0.15,0.13 -0.14,0.07 -0.29,0.08 -0.44,0.01 -0.04,-0.01 -0.12,-0.08 -0.14,-0.12 0.01,-0.02 0.07,-0.06 0.09,-0.08 0.07,0.11 0.17,0.13 0.29,0.13zm0.26 -0.72c0.19,-0.03 0.2,0.21 0.05,0.25 -0.08,0.01 -0.13,-0.04 -0.15,-0.1 -0.02,-0.09 0.03,-0.13 0.1,-0.15zm-0.67 0c0.07,-0.01 0.14,0.03 0.15,0.09 0.01,0.08 -0.04,0.14 -0.1,0.16 -0.16,0.03 -0.23,-0.21 -0.05,-0.25zm1.22 0.11c0.03,-0.11 0.06,-0.24 -0.01,-0.33 -0.02,-0.03 -0.08,-0.08 -0.11,-0.1 -0.09,-0.06 -0.11,-0.04 -0.2,0.03 -0.14,0.11 -0.33,0.2 -0.52,0.2 -0.26,0 -0.42,-0.14 -0.57,-0.25 -0.05,-0.03 -0.1,-0.02 -0.16,0.01 -0.05,0.02 -0.08,0.04 -0.1,0.1 -0.01,0.05 -0.03,0.14 -0.03,0.18 0.01,0.06 0.03,0.11 0.03,0.18l-0.14 0.02c-0.04,0.07 0.01,0.19 0.03,0.25 0.01,0.05 0.02,0.09 0.06,0.11 0.03,0.02 0.09,0.02 0.14,0.02 0.03,0.09 0.05,0.15 0.1,0.22 0.04,0.05 0.12,0.14 0.16,0.18 0.06,0.05 0.12,0.09 0.21,0.12 0.08,0.03 0.19,0.03 0.29,0.04 0.22,0 0.35,-0.07 0.49,-0.17 0.04,-0.04 0.12,-0.12 0.16,-0.17 0.08,-0.11 0.06,-0.12 0.1,-0.22 0.08,0 0.13,0.01 0.17,-0.04 0.03,-0.05 0.02,-0.11 0.04,-0.17 0.01,-0.04 0.05,-0.13 0.01,-0.16 -0.03,-0.02 -0.12,-0.02 -0.15,-0.05z"/>
    <path class="fil3" d="M2.83 2.34c-0.12,0 -0.22,-0.02 -0.29,-0.13 -0.02,0.02 -0.08,0.06 -0.09,0.08 0.02,0.04 0.1,0.11 0.14,0.12 0.15,0.07 0.3,0.06 0.44,-0.01 0.05,-0.02 0.13,-0.08 0.15,-0.13 -0.02,-0.01 -0.06,-0.03 -0.08,-0.07 -0.01,0.01 -0.04,0.04 -0.06,0.05 -0.02,0.01 -0.03,0.02 -0.05,0.04 -0.05,0.03 -0.09,0.05 -0.16,0.05z"/>
    <polygon class="fil3" points="1.55,4.42 1.66,4.42 1.66,3.94 1.55,3.94 "/>
    <polygon class="fil3" points="4.05,4.41 4.14,4.41 4.16,4.41 4.16,3.95 4.14,3.95 4.05,3.95 "/>
    <path class="fil3" d="M3.09 1.62c-0.07,0.02 -0.12,0.06 -0.1,0.15 0.02,0.06 0.07,0.11 0.15,0.1 0.15,-0.04 0.14,-0.28 -0.05,-0.25z"/>
    <path class="fil3" d="M2.42 1.62c-0.18,0.04 -0.11,0.28 0.05,0.25 0.06,-0.02 0.11,-0.08 0.1,-0.16 -0.01,-0.06 -0.08,-0.1 -0.15,-0.09z"/>
    <path class="fil3 str1" d="M3.64 1.73c0.03,0.03 0.12,0.03 0.15,0.05 0.04,0.03 0,0.12 -0.01,0.16 -0.02,0.06 -0.01,0.12 -0.04,0.17 -0.04,0.05 -0.09,0.04 -0.17,0.04 -0.04,0.1 -0.02,0.11 -0.1,0.22 -0.04,0.05 -0.12,0.13 -0.16,0.17 -0.14,0.1 -0.27,0.17 -0.49,0.17 -0.1,-0.01 -0.21,-0.01 -0.29,-0.04 -0.09,-0.03 -0.15,-0.07 -0.21,-0.12 -0.04,-0.04 -0.12,-0.13 -0.16,-0.18 -0.05,-0.07 -0.07,-0.13 -0.1,-0.22 -0.05,0 -0.11,0 -0.14,-0.02 -0.04,-0.02 -0.05,-0.06 -0.06,-0.11 -0.02,-0.06 -0.07,-0.18 -0.03,-0.25l0.14 -0.02c0,-0.07 -0.02,-0.12 -0.03,-0.18 0,-0.04 0.02,-0.13 0.03,-0.18 0.02,-0.06 0.05,-0.08 0.1,-0.1 0.06,-0.03 0.11,-0.04 0.16,-0.01 0.15,0.11 0.31,0.25 0.57,0.25 0.19,0 0.38,-0.09 0.52,-0.2 0.09,-0.07 0.11,-0.09 0.2,-0.03 0.03,0.02 0.09,0.07 0.11,0.1 0.07,0.09 0.04,0.22 0.01,0.33zm-1.23 -1.29c-0.18,0.08 -0.33,0.23 -0.42,0.35 -0.08,0.1 -0.14,0.19 -0.16,0.36 -0.02,0.08 -0.02,0.17 -0.02,0.25 0,0.09 0.02,0.16 0.02,0.24 -0.07,0.01 -0.1,0.04 -0.12,0.1 -0.02,0.07 -0.01,0.14 0,0.2 0.09,0.41 0.22,0.24 0.29,0.38 0.04,0.07 0.03,0.08 0.09,0.15l0.1 0.12c0.03,0.03 0.07,0.07 0.13,0.1 0,0.04 0,0.25 -0.01,0.29 0,0.03 -0.02,0.04 -0.05,0.04 -0.16,0.02 -0.49,0.08 -0.67,0.11 -0.12,0.02 -0.22,0.04 -0.32,0.09 -0.05,0.02 -0.08,0.04 -0.12,0.07 -0.12,0.08 -0.21,0.21 -0.25,0.35 -0.02,0.09 -0.01,0.28 -0.01,0.38 0,0.14 0,0.27 0,0.4 0.08,0 0.12,0.02 0.13,-0.04l0 -0.47c0,-0.19 -0.01,-0.37 0.15,-0.49 0.07,-0.06 0.11,-0.08 0.2,-0.11 0.17,-0.06 0.36,-0.08 0.54,-0.11 0.09,-0.02 0.19,-0.04 0.28,-0.04 0.01,0.1 0.02,0.14 0.06,0.22 0.08,0.12 0.2,0.21 0.33,0.26 0.06,0.03 0.16,0.06 0.24,0.05 0.28,-0.01 0.64,-0.23 0.64,-0.53l0.69 0.11c0.25,0.03 0.46,0.2 0.48,0.45 0.01,0.23 0.01,0.46 0.02,0.69l0.11 0.01 0 -0.7c-0.05,-0.28 -0.19,-0.5 -0.63,-0.57 -0.23,-0.04 -0.47,-0.09 -0.7,-0.13 -0.08,-0.01 -0.1,-0.01 -0.09,-0.1 0,-0.08 0,-0.18 0,-0.26 0.04,-0.03 0.09,-0.07 0.13,-0.11 0.04,-0.04 0.16,-0.18 0.18,-0.28 0.21,0 0.21,-0.16 0.24,-0.28 0.01,-0.03 0.03,-0.06 0.03,-0.1 0.01,-0.03 0.01,-0.07 0,-0.11 -0.02,-0.07 -0.07,-0.1 -0.14,-0.13 0,-0.24 0.04,-0.36 -0.04,-0.6 -0.06,-0.16 -0.1,-0.24 -0.22,-0.36 -0.04,-0.05 -0.04,-0.05 -0.08,-0.08 -0.04,-0.04 -0.11,-0.08 -0.15,-0.11 -0.18,-0.11 -0.33,-0.13 -0.55,-0.12 -0.07,0 -0.2,0.01 -0.33,0.06zm-0.31 0.42c0.09,-0.11 0.19,-0.23 0.4,-0.32 0.07,-0.03 0.1,-0.04 0.2,-0.05 0.14,-0.01 0.3,0.01 0.43,0.06 0.1,0.04 0.16,0.09 0.23,0.15 0.09,0.07 0.1,0.08 0.18,0.19 0.04,0.06 0.14,0.28 0.13,0.37 -0.04,-0.03 -0.14,-0.09 -0.19,-0.11 -0.05,-0.02 -0.09,-0.02 -0.12,0.01 -0.04,0.02 -0.06,0.04 -0.09,0.06 -0.3,0.22 -0.56,0.27 -0.9,0.02 -0.03,-0.02 -0.05,-0.04 -0.09,-0.06 -0.03,-0.03 -0.05,-0.05 -0.11,-0.04 -0.13,0.01 -0.18,0.07 -0.24,0.08 0.01,-0.16 0.12,-0.3 0.17,-0.36zm0.71 2.71c0.02,0 0.05,0 0.06,0 0.03,0 0.06,-0.01 0.08,-0.01 0.21,-0.04 0.4,-0.23 0.4,-0.43 -0.09,-0.03 -0.14,-0.08 -0.13,-0.16l0 -0.25 0.01 0c-0.02,0.01 -0.03,0.02 -0.04,0.02 -0.11,0.05 -0.25,0.09 -0.38,0.09 -0.1,0.01 -0.21,-0.01 -0.3,-0.04 -0.03,-0.01 -0.06,-0.03 -0.08,-0.04 -0.01,0.09 0.01,0.18 0,0.26 -0.01,0.07 -0.07,0.1 -0.13,0.12 0.01,0.23 0.22,0.4 0.4,0.43 0.06,0.01 0.09,0.01 0.11,0.01z"/>
   </g>
   <g>
    <path class="fil4 str2" d="M5.27 4.53l1.51 0 0.47 -0.41 0.42 0.41 1.44 0c0.01,-1.24 0.03,-2.28 0.04,-3.52 -0.01,-0.23 -0.16,-0.35 -0.35,-0.36 -0.51,0 -0.81,0 -0.96,0.01 -0.65,0.01 -0.39,1.07 -0.53,1.06 -0.14,0 0.19,-1.07 -0.94,-1.07 -0.24,0 -0.44,0.01 -0.68,0.01 -0.27,0.01 -0.39,0.15 -0.39,0.48 0,0.19 -0.02,2.97 -0.03,3.39z"/>
    <g>
     <g>
      <rect class="fil5 str3" x="5.52" y="2.2" width="1.35" height="0.19"/>
      <rect class="fil5 str3" x="5.52" y="2.8" width="1.35" height="0.19"/>
      <rect class="fil5 str3" x="5.52" y="3.39" width="1.35" height="0.19"/>
      <rect class="fil5 str3" x="5.52" y="4.01" width="1.35" height="0.19"/>
      <rect class="fil5 str3" x="5.52" y="1.62" width="1.35" height="0.19"/>
      <rect class="fil5 str3" x="5.52" y="1.11" width="1.35" height="0.19"/>
     </g>
     <path class="fil6" d="M8.06 3.16l-0.23 0 -0.09 -0.24 -0.42 0 -0.08 0.24 -0.22 0 0.4 -1.04 0.22 0 0.42 1.04zm-0.39 -0.41l-0.14 -0.39 -0.14 0.39 0.28 0z"/>
     <path class="fil7 str4" d="M8.27 1.98c0.24,0.45 0.27,0.91 0.06,1.39 -0.06,-0.03 -0.13,-0.05 -0.2,-0.07 -0.1,-0.04 -0.1,-0.01 -0.13,0.06 -0.07,0.13 -0.14,0.26 -0.21,0.39 -0.03,0.05 -0.04,0.05 0.01,0.12l0.16 0.17c0.14,0.11 0.32,0.09 0.44,-0.02 0.17,-0.15 0.29,-0.28 0.36,-0.44 0.3,-0.68 0.19,-1.33 -0.04,-1.78 -0.08,-0.17 -0.17,-0.3 -0.3,-0.41 -0.06,-0.05 -0.19,-0.15 -0.26,-0.15 -0.05,-0.01 -0.12,-0.01 -0.2,0.05 -0.09,0.08 -0.13,0.12 -0.22,0.2 -0.02,0.02 -0.03,0.02 -0.02,0.04 0.09,0.16 0.17,0.32 0.25,0.48 0.02,0.03 0.04,0.02 0.08,0.02 0.07,-0.02 0.15,-0.03 0.22,-0.05z"/>
    </g>
   </g>
  </g>
 </g>
</svg>
