<?xml version="1.0" encoding="UTF-8"?>
<!DOCTYPE svg PUBLIC "-//W3C//DTD SVG 1.1//EN" "http://www.w3.org/Graphics/SVG/1.1/DTD/svg11.dtd">
<!-- Creator: CorelDRAW 2021 (64 Bit) -->
<svg xmlns="http://www.w3.org/2000/svg" xml:space="preserve" width="725px" height="375px" version="1.1" style="shape-rendering:geometricPrecision; text-rendering:geometricPrecision; image-rendering:optimizeQuality; fill-rule:evenodd; clip-rule:evenodd"
viewBox="0 0 10.01 5.18"
 xmlns:xlink="http://www.w3.org/1999/xlink"
 xmlns:xodm="http://www.corel.com/coreldraw/odm/2003">
 <defs>
  <style type="text/css">
   <![CDATA[
    .str2 {stroke:black;stroke-width:0.03;stroke-miterlimit:22.9256}
    .str3 {stroke:black;stroke-width:0.03;stroke-miterlimit:22.9256}
    .str0 {stroke:#B8B4B6;stroke-width:0.35;stroke-miterlimit:22.9256}
    .str1 {stroke:black;stroke-width:0.01;stroke-miterlimit:22.9256}
    .fil4 {fill:none}
    .fil3 {fill:black}
    .fil0 {fill:aqua}
    .fil5 {fill:#99FFFF}
    .fil2 {fill:white}
    .fil1 {fill:white}
   ]]>
  </style>
 </defs>
 <g id="Camada_x0020_1">
  <metadata id="CorelCorpID_0Corel-Layer"/>
  <g id="_2713842670224">
   <rect class="fil0" x="0.32" y="0.27" width="9.38" height="4.63"/>
   <rect class="fil1 str0" x="0.17" y="0.17" width="9.66" height="4.83" rx="0.45" ry="0.41"/>
   <g>
    <path class="fil2" d="M2.74 2.47c0.06,0 0.11,-0.03 0.15,-0.05 0.02,-0.02 0.04,-0.03 0.06,-0.05 0.01,-0.01 0.04,-0.03 0.06,-0.04 0.01,0.04 0.05,0.05 0.07,0.07 -0.01,0.05 -0.1,0.11 -0.15,0.13 -0.13,0.07 -0.29,0.08 -0.43,0.01 -0.04,-0.02 -0.13,-0.08 -0.15,-0.12 0.02,-0.02 0.07,-0.06 0.09,-0.08 0.07,0.11 0.18,0.13 0.3,0.13zm0.25 -0.72c0.19,-0.03 0.21,0.21 0.06,0.24 -0.08,0.02 -0.14,-0.03 -0.15,-0.09 -0.03,-0.09 0.02,-0.13 0.09,-0.15zm-0.67 0c0.08,-0.01 0.14,0.03 0.15,0.09 0.02,0.08 -0.03,0.14 -0.09,0.15 -0.17,0.04 -0.24,-0.2 -0.06,-0.24zm1.22 0.11c0.03,-0.12 0.06,-0.24 -0.01,-0.33 -0.02,-0.03 -0.07,-0.08 -0.11,-0.1 -0.09,-0.07 -0.11,-0.04 -0.2,0.03 -0.14,0.11 -0.33,0.2 -0.51,0.2 -0.26,0 -0.43,-0.14 -0.58,-0.25 -0.05,-0.03 -0.1,-0.02 -0.16,0.01 -0.05,0.02 -0.08,0.04 -0.09,0.1 -0.01,0.04 -0.04,0.14 -0.03,0.17 0,0.07 0.02,0.12 0.02,0.18l-0.14 0.02c-0.04,0.08 0.01,0.19 0.03,0.26 0.01,0.05 0.02,0.09 0.06,0.11 0.03,0.01 0.1,0.01 0.14,0.02 0.03,0.09 0.06,0.15 0.11,0.22 0.03,0.05 0.11,0.14 0.15,0.17 0.07,0.06 0.12,0.1 0.21,0.13 0.09,0.03 0.19,0.03 0.29,0.04 0.22,0 0.36,-0.07 0.49,-0.17 0.05,-0.04 0.13,-0.12 0.16,-0.17 0.08,-0.12 0.06,-0.12 0.1,-0.22 0.08,0 0.14,0.01 0.17,-0.04 0.03,-0.05 0.02,-0.11 0.04,-0.17 0.02,-0.04 0.06,-0.13 0.01,-0.16 -0.03,-0.02 -0.11,-0.02 -0.15,-0.05z"/>
    <path class="fil3" d="M2.74 2.47c-0.12,0 -0.23,-0.02 -0.3,-0.13 -0.02,0.02 -0.07,0.06 -0.09,0.08 0.02,0.04 0.11,0.1 0.15,0.12 0.14,0.07 0.3,0.06 0.43,-0.01 0.05,-0.02 0.14,-0.08 0.15,-0.13 -0.02,-0.02 -0.06,-0.03 -0.07,-0.07 -0.02,0.01 -0.05,0.03 -0.06,0.04 -0.02,0.02 -0.04,0.03 -0.06,0.05 -0.04,0.02 -0.09,0.05 -0.15,0.05z"/>
    <polygon class="fil3" points="1.45,4.55 1.56,4.55 1.56,4.07 1.45,4.07 "/>
    <polygon class="fil3" points="3.95,4.54 4.05,4.54 4.06,4.54 4.06,4.08 4.05,4.08 3.95,4.08 "/>
    <path class="fil3" d="M2.99 1.75c-0.07,0.02 -0.12,0.06 -0.09,0.15 0.01,0.06 0.07,0.11 0.15,0.09 0.15,-0.03 0.13,-0.27 -0.06,-0.24z"/>
    <path class="fil3" d="M2.32 1.75c-0.18,0.04 -0.11,0.28 0.06,0.24 0.06,-0.01 0.11,-0.07 0.09,-0.15 -0.01,-0.06 -0.07,-0.1 -0.15,-0.09z"/>
    <path class="fil3 str1" d="M3.54 1.86c0.04,0.03 0.12,0.03 0.15,0.05 0.05,0.03 0.01,0.12 -0.01,0.16 -0.02,0.06 -0.01,0.12 -0.04,0.17 -0.03,0.05 -0.09,0.04 -0.17,0.04 -0.04,0.1 -0.02,0.1 -0.1,0.22 -0.03,0.05 -0.11,0.13 -0.16,0.17 -0.13,0.1 -0.27,0.17 -0.49,0.17 -0.1,-0.01 -0.2,-0.01 -0.29,-0.04 -0.09,-0.03 -0.14,-0.07 -0.21,-0.13 -0.04,-0.03 -0.12,-0.12 -0.15,-0.17 -0.05,-0.07 -0.08,-0.13 -0.11,-0.22 -0.04,-0.01 -0.11,-0.01 -0.14,-0.02 -0.04,-0.02 -0.05,-0.06 -0.06,-0.11 -0.02,-0.07 -0.07,-0.18 -0.03,-0.26l0.14 -0.02c0,-0.06 -0.02,-0.11 -0.02,-0.18 -0.01,-0.03 0.02,-0.13 0.03,-0.17 0.01,-0.06 0.04,-0.08 0.09,-0.1 0.06,-0.03 0.11,-0.04 0.16,-0.01 0.15,0.11 0.32,0.25 0.58,0.25 0.18,0 0.37,-0.09 0.51,-0.2 0.09,-0.07 0.11,-0.1 0.2,-0.03 0.04,0.02 0.09,0.07 0.11,0.1 0.07,0.09 0.04,0.21 0.01,0.33zm-1.23 -1.29c-0.18,0.08 -0.33,0.23 -0.42,0.35 -0.07,0.1 -0.13,0.19 -0.16,0.36 -0.02,0.08 -0.02,0.17 -0.02,0.25 0,0.09 0.02,0.16 0.03,0.24 -0.08,0.01 -0.11,0.04 -0.13,0.1 -0.02,0.07 -0.01,0.13 0.01,0.2 0.08,0.41 0.22,0.24 0.29,0.38 0.03,0.07 0.02,0.07 0.08,0.15l0.1 0.12c0.03,0.03 0.07,0.07 0.13,0.09 0,0.05 0,0.25 0,0.29 -0.01,0.04 -0.02,0.05 -0.06,0.05 -0.16,0.02 -0.49,0.08 -0.67,0.11 -0.12,0.02 -0.21,0.04 -0.31,0.09 -0.05,0.02 -0.09,0.04 -0.13,0.06 -0.12,0.09 -0.21,0.22 -0.24,0.36 -0.03,0.09 -0.01,0.28 -0.01,0.38 0,0.14 -0.01,0.27 0,0.4 0.07,0 0.11,0.01 0.12,-0.04l0 -0.47c0,-0.19 0,-0.37 0.15,-0.49 0.07,-0.06 0.11,-0.08 0.21,-0.12 0.17,-0.05 0.36,-0.07 0.53,-0.1 0.09,-0.02 0.19,-0.04 0.28,-0.05 0.02,0.11 0.02,0.15 0.07,0.23 0.07,0.12 0.19,0.21 0.32,0.26 0.06,0.03 0.17,0.06 0.24,0.05 0.28,-0.01 0.64,-0.23 0.64,-0.54l0.7 0.12c0.24,0.03 0.46,0.2 0.47,0.45 0.01,0.23 0.01,0.46 0.02,0.69l0.11 0.01 0 -0.7c-0.04,-0.28 -0.19,-0.5 -0.63,-0.58 -0.23,-0.04 -0.46,-0.08 -0.7,-0.12 -0.07,-0.01 -0.1,-0.02 -0.09,-0.1 0,-0.08 0,-0.18 0,-0.26 0.05,-0.03 0.09,-0.07 0.13,-0.11 0.05,-0.05 0.16,-0.18 0.18,-0.28 0.21,-0.01 0.21,-0.16 0.24,-0.28 0.01,-0.04 0.03,-0.06 0.04,-0.1 0,-0.03 0,-0.08 -0.01,-0.11 -0.02,-0.07 -0.07,-0.11 -0.13,-0.13 0,-0.24 0.04,-0.36 -0.05,-0.6 -0.05,-0.17 -0.1,-0.25 -0.21,-0.36 -0.05,-0.05 -0.05,-0.05 -0.09,-0.08 -0.04,-0.04 -0.1,-0.08 -0.15,-0.11 -0.18,-0.11 -0.33,-0.13 -0.54,-0.12 -0.08,0 -0.21,0.01 -0.34,0.06zm-0.31 0.42c0.1,-0.11 0.19,-0.23 0.4,-0.32 0.07,-0.03 0.1,-0.04 0.2,-0.05 0.14,-0.01 0.3,0.01 0.43,0.06 0.11,0.04 0.16,0.09 0.23,0.15 0.09,0.07 0.11,0.08 0.18,0.19 0.04,0.06 0.14,0.28 0.13,0.37 -0.04,-0.03 -0.13,-0.09 -0.19,-0.11 -0.05,-0.02 -0.08,-0.02 -0.12,0.01 -0.03,0.02 -0.06,0.04 -0.09,0.06 -0.3,0.22 -0.56,0.27 -0.89,0.02 -0.03,-0.02 -0.06,-0.04 -0.09,-0.06 -0.04,-0.03 -0.06,-0.05 -0.12,-0.04 -0.13,0.01 -0.17,0.07 -0.23,0.08 0,-0.16 0.11,-0.3 0.16,-0.36zm0.71 2.71c0.03,0 0.05,0 0.07,0 0.02,0 0.05,-0.01 0.07,-0.01 0.22,-0.04 0.4,-0.23 0.4,-0.43 -0.09,-0.03 -0.13,-0.08 -0.13,-0.17l0.01 -0.24 0 0c-0.01,0.01 -0.03,0.02 -0.04,0.02 -0.1,0.05 -0.24,0.09 -0.37,0.09 -0.11,0 -0.21,-0.01 -0.31,-0.04 -0.03,-0.01 -0.06,-0.03 -0.08,-0.04 0,0.08 0.01,0.18 0,0.26 -0.01,0.07 -0.06,0.1 -0.12,0.12 0,0.23 0.21,0.4 0.39,0.43 0.06,0.01 0.09,0.01 0.11,0.01z"/>
   </g>
   <g>
    <g>
     <path class="fil3" d="M6.65 3.68l2.71 0 0 -2.67 -2.71 0 0 2.67zm0 -2.67l0.1 -0.15 0.65 0 0.1 0.15 -0.85 0z"/>
     <path id="_1" class="fil4 str2" d="M6.65 3.68l2.71 0 0 -2.67 -2.71 0 0 2.67zm0 -2.67l0.1 -0.15 0.65 0 0.1 0.15"/>
    </g>
    <rect class="fil0 str2" x="6.49" y="1.15" width="2.71" height="2.67"/>
    <polygon class="fil5 str2" points="6.65,1.15 6.49,1.15 6.65,1.01 "/>
    <polygon class="fil5 str2" points="9.2,3.68 9.36,3.68 9.2,3.83 "/>
    <polygon class="fil5 str3" points="9.2,3.83 9.19,1.15 9.36,1.01 9.36,3.68 "/>
    <g>
     <path class="fil3" d="M5.86 3.99l2.72 0 0 -2.67 -2.72 0 0 2.67zm0 -2.67l0.11 -0.15 0.65 0 0.09 0.15 -0.85 0z"/>
     <path id="_1_0" class="fil4 str2" d="M5.86 3.99l2.72 0 0 -2.67 -2.72 0 0 2.67zm0 -2.67l0.11 -0.15 0.65 0 0.09 0.15"/>
    </g>
    <rect class="fil0 str2" x="5.7" y="1.46" width="2.71" height="2.67"/>
    <polygon class="fil5 str2" points="5.86,1.46 5.7,1.46 5.86,1.32 "/>
    <polygon class="fil5 str2" points="8.41,3.99 8.58,3.99 8.41,4.14 "/>
    <polygon class="fil5 str3" points="8.41,4.14 8.41,1.46 8.58,1.32 8.58,3.99 "/>
    <g>
     <path class="fil3" d="M5.05 4.28l2.72 0 0 -2.67 -2.72 0 0 2.67zm0 -2.67l0.11 -0.15 0.65 0 0.09 0.15 -0.85 0z"/>
     <path id="_1_1" class="fil4 str2" d="M5.05 4.28l2.72 0 0 -2.67 -2.72 0 0 2.67zm0 -2.67l0.11 -0.15 0.65 0 0.09 0.15"/>
    </g>
    <rect class="fil0 str2" x="4.89" y="1.75" width="2.71" height="2.67"/>
    <polygon class="fil5 str2" points="5.05,1.75 4.89,1.75 5.05,1.61 "/>
    <polygon class="fil5 str2" points="7.6,4.28 7.76,4.28 7.6,4.42 "/>
    <polygon class="fil5 str3" points="7.6,4.42 7.59,1.75 7.77,1.61 7.76,4.28 "/>
   </g>
  </g>
 </g>
</svg>
