<?xml version="1.0" encoding="UTF-8"?>
<!DOCTYPE svg PUBLIC "-//W3C//DTD SVG 1.1//EN" "http://www.w3.org/Graphics/SVG/1.1/DTD/svg11.dtd">
<!-- Creator: CorelDRAW 2021 (64 Bit) -->
<svg xmlns="http://www.w3.org/2000/svg" xml:space="preserve" width="725px" height="375px" version="1.1" style="shape-rendering:geometricPrecision; text-rendering:geometricPrecision; image-rendering:optimizeQuality; fill-rule:evenodd; clip-rule:evenodd"
viewBox="0 0 25 12.93"
 xmlns:xlink="http://www.w3.org/1999/xlink"
 xmlns:xodm="http://www.corel.com/coreldraw/odm/2003">
 <defs>
  <style type="text/css">
   <![CDATA[
    .str3 {stroke:black;stroke-width:0.07;stroke-miterlimit:22.9256}
    .str0 {stroke:#B8B4B6;stroke-width:0.86;stroke-miterlimit:22.9256}
    .str2 {stroke:black;stroke-width:0.03;stroke-miterlimit:22.9256}
    .str1 {stroke:yellow;stroke-width:0.03;stroke-miterlimit:22.9256}
    .fil3 {fill:black}
    .fil1 {fill:lime}
    .fil4 {fill:#E6E6E6}
    .fil5 {fill:#FFFF99}
    .fil2 {fill:white}
    .fil0 {fill:white}
   ]]>
  </style>
 </defs>
 <g id="Camada_x0020_1">
  <metadata id="CorelCorpID_0Corel-Layer"/>
  <g id="_2713799015440">
   <g>
    <rect class="fil0 str0" x="0.43" y="0.43" width="24.14" height="12.07" rx="1.12" ry="1.03"/>
    <path class="fil1 str1" d="M1.91 9.97l0 1.59 1.32 0 0 -1.2 0.28 0 0 1.2 5.97 -0.02 0 -1.15 0.28 0 0 1.14 1.22 0.01 -0.04 -1.73c-0.06,-0.61 -0.47,-0.94 -1.08,-1.1l-1.84 -0.31c-0.13,0.8 -0.68,1.23 -1.61,1.34 -0.85,-0.04 -1.4,-0.47 -1.57,-1.34l-1.81 0.31c-0.74,0.19 -1.11,0.61 -1.12,1.26z"/>
    <g>
     <path class="fil2" d="M6.46 6.37c0.16,0 0.28,-0.05 0.38,-0.12 0.06,-0.03 0.1,-0.07 0.15,-0.11 0.03,-0.02 0.11,-0.09 0.15,-0.1 0.04,0.1 0.13,0.13 0.18,0.16 -0.03,0.13 -0.25,0.27 -0.36,0.33 -0.35,0.18 -0.74,0.2 -1.09,0.04 -0.1,-0.05 -0.32,-0.21 -0.36,-0.31 0.03,-0.05 0.16,-0.16 0.22,-0.19 0.17,0.26 0.43,0.3 0.73,0.3zm0.65 -1.78c0.46,-0.09 0.51,0.53 0.13,0.6 -0.2,0.04 -0.34,-0.08 -0.38,-0.23 -0.05,-0.22 0.07,-0.34 0.25,-0.37zm-1.68 0c0.19,-0.04 0.36,0.06 0.38,0.23 0.03,0.2 -0.09,0.34 -0.25,0.37 -0.4,0.09 -0.58,-0.52 -0.13,-0.6zm3.04 0.27c0.08,-0.29 0.15,-0.61 -0.02,-0.84 -0.05,-0.07 -0.19,-0.19 -0.27,-0.24 -0.24,-0.16 -0.28,-0.09 -0.5,0.08 -0.35,0.27 -0.83,0.49 -1.29,0.49 -0.65,0.01 -1.07,-0.35 -1.43,-0.61 -0.13,-0.09 -0.26,-0.05 -0.4,0.01 -0.14,0.06 -0.21,0.1 -0.24,0.26 -0.03,0.11 -0.09,0.34 -0.08,0.44 0.01,0.15 0.07,0.28 0.06,0.44l-0.35 0.05c-0.1,0.18 0.03,0.48 0.08,0.65 0.03,0.12 0.06,0.21 0.14,0.26 0.09,0.04 0.24,0.04 0.35,0.05 0.08,0.24 0.15,0.38 0.27,0.56 0.08,0.12 0.28,0.35 0.38,0.43 0.17,0.14 0.3,0.23 0.53,0.31 0.22,0.07 0.47,0.09 0.72,0.09 0.56,0.01 0.89,-0.17 1.23,-0.42 0.11,-0.08 0.31,-0.29 0.4,-0.42 0.19,-0.28 0.15,-0.3 0.26,-0.55 0.19,0 0.32,0.03 0.41,-0.1 0.09,-0.13 0.06,-0.26 0.11,-0.41 0.03,-0.1 0.13,-0.33 0.03,-0.4 -0.09,-0.07 -0.3,-0.07 -0.39,-0.13z"/>
     <path class="fil2" d="M10.34 6.97c-0.62,0.13 -0.4,1.02 0.19,0.89 0.23,-0.04 0.43,-0.25 0.37,-0.53 -0.04,-0.22 -0.28,-0.42 -0.56,-0.36z"/>
     <path class="fil3" d="M6.46 6.37c-0.3,0 -0.56,-0.04 -0.73,-0.3 -0.06,0.03 -0.19,0.14 -0.22,0.19 0.04,0.1 0.26,0.26 0.36,0.31 0.35,0.16 0.74,0.14 1.09,-0.04 0.11,-0.06 0.33,-0.2 0.36,-0.33 -0.05,-0.03 -0.14,-0.06 -0.18,-0.16 -0.04,0.01 -0.12,0.08 -0.15,0.1 -0.05,0.04 -0.09,0.08 -0.15,0.11 -0.1,0.07 -0.22,0.12 -0.38,0.12z"/>
     <polygon class="fil3" points="3.25,11.58 3.53,11.58 3.52,10.37 3.25,10.38 "/>
     <polygon class="fil3" points="9.5,11.55 9.74,11.55 9.78,11.55 9.78,10.4 9.74,10.4 9.5,10.4 "/>
     <path class="fil3" d="M7.11 4.59c-0.18,0.03 -0.3,0.15 -0.25,0.37 0.04,0.15 0.18,0.27 0.38,0.23 0.38,-0.07 0.33,-0.69 -0.13,-0.6z"/>
     <path class="fil3" d="M5.43 4.59c-0.45,0.08 -0.27,0.69 0.13,0.6 0.16,-0.03 0.28,-0.17 0.25,-0.37 -0.02,-0.17 -0.19,-0.27 -0.38,-0.23z"/>
     <path class="fil3 str2" d="M8.47 4.86c0.09,0.06 0.3,0.06 0.39,0.13 0.1,0.07 0,0.3 -0.03,0.4 -0.05,0.15 -0.02,0.28 -0.11,0.41 -0.09,0.13 -0.22,0.1 -0.41,0.1 -0.11,0.25 -0.07,0.27 -0.26,0.55 -0.09,0.13 -0.29,0.34 -0.4,0.42 -0.34,0.25 -0.67,0.43 -1.23,0.42 -0.25,0 -0.5,-0.02 -0.72,-0.09 -0.23,-0.08 -0.36,-0.17 -0.53,-0.31 -0.1,-0.08 -0.3,-0.31 -0.38,-0.43 -0.12,-0.18 -0.19,-0.32 -0.27,-0.56 -0.11,-0.01 -0.26,-0.01 -0.35,-0.05 -0.08,-0.05 -0.11,-0.14 -0.14,-0.26 -0.05,-0.17 -0.18,-0.47 -0.08,-0.65l0.35 -0.05c0.01,-0.16 -0.05,-0.29 -0.06,-0.44 -0.01,-0.1 0.05,-0.33 0.08,-0.44 0.03,-0.16 0.1,-0.2 0.24,-0.26 0.14,-0.06 0.27,-0.1 0.4,-0.01 0.36,0.26 0.78,0.62 1.43,0.61 0.46,0 0.94,-0.22 1.29,-0.49 0.22,-0.17 0.26,-0.24 0.5,-0.08 0.08,0.05 0.22,0.17 0.27,0.24 0.17,0.23 0.1,0.55 0.02,0.84zm-3.08 -3.21c-0.43,0.19 -0.82,0.55 -1.04,0.86 -0.18,0.26 -0.33,0.47 -0.4,0.9 -0.04,0.19 -0.04,0.41 -0.04,0.62 0,0.23 0.05,0.4 0.06,0.61 -0.18,0.02 -0.26,0.09 -0.31,0.25 -0.05,0.17 -0.03,0.33 0,0.5 0.22,1.03 0.56,0.59 0.73,0.95 0.09,0.17 0.07,0.18 0.21,0.36l0.25 0.3c0.08,0.08 0.18,0.18 0.32,0.24 0,0.12 0.01,0.63 0,0.73 -0.01,0.08 -0.05,0.1 -0.14,0.11 -0.41,0.04 -1.23,0.2 -1.68,0.28 -0.29,0.05 -0.53,0.1 -0.79,0.21 -0.12,0.06 -0.2,0.1 -0.31,0.17 -0.3,0.21 -0.52,0.53 -0.6,0.88 -0.06,0.22 -0.04,0.71 -0.04,0.97 0,0.33 0,0.66 0.01,0.99 0.19,0 0.29,0.03 0.31,-0.09l-0.01 -1.19c0,-0.47 0,-0.92 0.38,-1.22 0.18,-0.14 0.28,-0.21 0.52,-0.29 0.42,-0.14 0.9,-0.19 1.34,-0.27 0.22,-0.04 0.47,-0.1 0.7,-0.1 0.03,0.25 0.04,0.36 0.16,0.56 0.18,0.3 0.47,0.53 0.8,0.66 0.16,0.06 0.42,0.13 0.61,0.12 0.7,-0.02 1.59,-0.59 1.6,-1.34l1.73 0.28c0.6,0.09 1.15,0.51 1.19,1.12 0.02,0.58 0.03,1.16 0.04,1.73l0.28 0.03 0 -1.75c-0.11,-0.7 -0.47,-1.25 -1.58,-1.44 -0.57,-0.1 -1.15,-0.2 -1.73,-0.3 -0.19,-0.04 -0.26,-0.05 -0.24,-0.27 0,-0.19 0,-0.45 0,-0.64 0.12,-0.08 0.22,-0.17 0.32,-0.27 0.12,-0.12 0.41,-0.46 0.46,-0.71 0.52,-0.01 0.52,-0.39 0.6,-0.69 0.03,-0.09 0.07,-0.15 0.09,-0.24 0.02,-0.1 0.01,-0.2 -0.01,-0.29 -0.06,-0.17 -0.17,-0.26 -0.34,-0.32 0,-0.61 0.1,-0.91 -0.11,-1.5 -0.14,-0.41 -0.26,-0.61 -0.54,-0.91 -0.12,-0.13 -0.12,-0.11 -0.22,-0.2 -0.1,-0.08 -0.25,-0.19 -0.37,-0.26 -0.44,-0.27 -0.83,-0.33 -1.36,-0.31 -0.19,0 -0.52,0.03 -0.85,0.17zm-0.77 1.03c0.24,-0.26 0.48,-0.56 1,-0.79 0.18,-0.08 0.26,-0.11 0.5,-0.12 0.35,-0.03 0.76,0.02 1.09,0.15 0.25,0.1 0.39,0.21 0.57,0.36 0.22,0.18 0.26,0.21 0.44,0.49 0.1,0.15 0.36,0.68 0.33,0.91 -0.11,-0.08 -0.33,-0.22 -0.48,-0.28 -0.12,-0.05 -0.21,-0.04 -0.3,0.03 -0.08,0.05 -0.15,0.11 -0.23,0.16 -0.75,0.55 -1.39,0.68 -2.22,0.05 -0.08,-0.06 -0.15,-0.11 -0.23,-0.17 -0.09,-0.06 -0.14,-0.1 -0.29,-0.09 -0.32,0.03 -0.44,0.17 -0.58,0.21 0.01,-0.41 0.29,-0.76 0.4,-0.91zm1.79 6.78c0.05,0 0.11,0 0.15,-0.01 0.07,0 0.14,-0.02 0.2,-0.03 0.53,-0.09 0.99,-0.57 0.99,-1.06 -0.23,-0.08 -0.34,-0.22 -0.32,-0.42l0.01 -0.6 0 0c-0.03,0.01 -0.06,0.03 -0.09,0.04 -0.26,0.13 -0.61,0.22 -0.94,0.23 -0.26,0.01 -0.52,-0.03 -0.76,-0.11 -0.07,-0.03 -0.14,-0.07 -0.2,-0.09 -0.01,0.21 0.02,0.44 0,0.64 -0.01,0.18 -0.16,0.25 -0.31,0.31 0.01,0.57 0.53,1 0.99,1.07 0.14,0.02 0.22,0.03 0.28,0.03z"/>
    </g>
   </g>
   <g>
    <polygon class="fil4 str3" points="23.11,2.09 20.91,2.11 21.44,1.34 22.65,1.34 "/>
    <rect class="fil5 str3" x="12.18" y="2.1" width="11.31" height="9.02"/>
    <g id="_2171365958832">
     <path class="fil3" d="M13.45 6.56c0.31,-0.46 1.32,-1.11 1.87,-1.41l0.74 -0.36c0.26,0.18 -0.12,-0.03 -0.51,0.74 -0.56,1.11 -0.13,2.3 0.51,2.71l-0.07 0.09c-0.02,0 -0.05,-0.06 -0.06,-0.04l-0.24 -0.15c-0.72,-0.37 -1.81,-0.96 -2.24,-1.58l0 0 0 0zm4.59 1.91l-0.48 0c-0.87,0 -1.82,-0.81 -1.82,-1.91 0,-2.39 3.87,-2.66 4.16,-0.13 0.12,1.01 -0.88,2.04 -1.86,2.04l0 0zm1.66 -3.52c0.63,0.14 2.13,1.21 2.45,1.68 -0.32,0.46 -1.95,1.54 -2.61,1.69 0.38,-0.56 0.79,-0.61 0.79,-1.84 0,-0.71 -0.34,-1.11 -0.63,-1.53l0 0 0 0zm-1.9 4.13c2.07,0 3.16,-0.97 4.42,-1.91 0.21,-0.15 0.33,-0.25 0.48,-0.46 -0.23,-0.46 -0.24,-0.51 -0.84,-0.95 -0.38,-0.3 -0.66,-0.54 -1.09,-0.79 -2.4,-1.4 -4.96,-1.07 -7.03,0.72 -0.54,0.47 -0.85,0.53 -0.77,0.89 0,0.01 0.01,0.03 0.01,0.04 0,0.01 0.01,0.03 0.01,0.04 0.05,0.14 0,0.04 0.05,0.14 0.2,0.34 1.53,1.23 1.85,1.42 0.75,0.43 1.76,0.86 2.91,0.86l0 0z"/>
     <path class="fil3" d="M17.95 7.09c-0.4,0 -0.71,0.02 -0.71,-0.53 0,-0.84 1.19,-0.62 1.19,0 0,0.21 -0.25,0.53 -0.48,0.53l0 0zm-1.18 -0.46c0,1.24 2.05,1.17 2.05,0.08 0,-0.35 0.06,-0.63 -0.39,-0.93 -0.75,-0.52 -1.66,0.02 -1.66,0.85l0 0z"/>
     <path class="fil3" d="M17.56 2.72c0,0.7 -0.1,1 0.24,1 0.32,0 0.24,-0.25 0.24,-0.85 0,-0.28 -0.08,-0.35 -0.24,-0.46 -0.13,0.08 -0.24,0.1 -0.24,0.31z"/>
     <path class="fil3" d="M15.42 10.24c0,0.32 0.24,0.41 0.61,-0.26 0.25,-0.44 0.26,-0.29 0.26,-0.67 -0.39,-0.08 -0.32,-0.09 -0.53,0.26 -0.09,0.16 -0.34,0.49 -0.34,0.67l0 0 0 0z"/>
     <path class="fil3" d="M19.54 4.1c0.24,-0.16 0.99,-1.23 0.47,-1.23 -0.23,0 -0.27,0.2 -0.5,0.59 -0.2,0.34 -0.31,0.42 0.03,0.64l0 0z"/>
     <path class="fil3" d="M19.38 9.39c0,0.17 0.23,0.46 0.31,0.62 0.16,0.3 0.12,0.37 0.56,0.38 0,-0.83 -0.87,-1.49 -0.87,-1l0 0z"/>
     <path class="fil3" d="M15.35 3.1c0,0.5 0.87,1.37 0.87,0.85 0,-0.2 -0.47,-0.92 -0.54,-0.96 -0.16,-0.1 -0.33,-0.02 -0.33,0.11l0 0 0 0z"/>
     <path class="fil3" d="M17.88 9.55c-0.4,0.2 -0.31,0.16 -0.25,1 0,0 -0.06,0.5 0.28,0.33 0.2,-0.1 0.21,-0.98 -0.03,-1.33z"/>
    </g>
   </g>
  </g>
 </g>
</svg>
