<?xml version="1.0" encoding="UTF-8"?>
<!DOCTYPE svg PUBLIC "-//W3C//DTD SVG 1.1//EN" "http://www.w3.org/Graphics/SVG/1.1/DTD/svg11.dtd">
<!-- Creator: CorelDRAW 2021 (64 Bit) -->
<svg xmlns="http://www.w3.org/2000/svg" xml:space="preserve" width="725px" height="375px" version="1.1" style="shape-rendering:geometricPrecision; text-rendering:geometricPrecision; image-rendering:optimizeQuality; fill-rule:evenodd; clip-rule:evenodd"
viewBox="0 0 37.51 19.4"
 xmlns:xlink="http://www.w3.org/1999/xlink"
 xmlns:xodm="http://www.corel.com/coreldraw/odm/2003">
 <defs>
  <style type="text/css">
   <![CDATA[
    .str4 {stroke:#B8B4B6;stroke-width:0.52;stroke-miterlimit:22.9256}
    .str2 {stroke:white;stroke-width:0.1;stroke-miterlimit:22.9256}
    .str0 {stroke:#B8B4B6;stroke-width:1.29;stroke-miterlimit:22.9256}
    .str3 {stroke:black;stroke-width:0.31;stroke-miterlimit:22.9256}
    .str1 {stroke:black;stroke-width:0.05;stroke-miterlimit:22.9256}
    .fil5 {fill:none}
    .fil3 {fill:#E6E7E8}
    .fil2 {fill:black}
    .fil9 {fill:#008CFF}
    .fil11 {fill:#04F9FD}
    .fil8 {fill:#333333}
    .fil10 {fill:#60FE04}
    .fil19 {fill:#615E5C}
    .fil18 {fill:#A7A786}
    .fil15 {fill:#BF08FC}
    .fil17 {fill:#D2AD6D}
    .fil12 {fill:#FA0404}
    .fil14 {fill:#FDFD00}
    .fil6 {fill:#FDFDCA}
    .fil13 {fill:#FE9800}
    .fil7 {fill:#FEFEFE}
    .fil16 {fill:#FF4CE7}
    .fil1 {fill:white}
    .fil0 {fill:white}
    .fil4 {fill:black;fill-rule:nonzero}
   ]]>
  </style>
 </defs>
 <g id="Camada_x0020_1">
  <metadata id="CorelCorpID_0Corel-Layer"/>
  <g id="_2713706046560">
   <g>
    <rect class="fil0 str0" x="0.65" y="0.65" width="36.22" height="18.11" rx="1.68" ry="1.55"/>
    <g>
     <path class="fil1" d="M9.42 9.52c0.23,0 0.41,-0.08 0.57,-0.18 0.08,-0.05 0.14,-0.11 0.21,-0.16 0.05,-0.04 0.16,-0.14 0.22,-0.16 0.07,0.15 0.21,0.2 0.28,0.25 -0.05,0.18 -0.38,0.4 -0.54,0.48 -0.52,0.27 -1.11,0.31 -1.64,0.06 -0.15,-0.07 -0.48,-0.31 -0.54,-0.46 0.05,-0.07 0.24,-0.24 0.34,-0.29 0.25,0.4 0.64,0.46 1.1,0.46zm0.96 -2.68c0.69,-0.13 0.76,0.8 0.2,0.91 -0.3,0.06 -0.51,-0.12 -0.57,-0.35 -0.08,-0.33 0.1,-0.5 0.37,-0.56zm-2.52 0c0.28,-0.05 0.54,0.1 0.57,0.35 0.05,0.3 -0.14,0.52 -0.37,0.56 -0.61,0.12 -0.86,-0.78 -0.2,-0.91zm4.57 0.4c0.11,-0.42 0.22,-0.9 -0.03,-1.24 -0.09,-0.11 -0.29,-0.3 -0.41,-0.37 -0.36,-0.24 -0.43,-0.14 -0.75,0.12 -0.52,0.41 -1.25,0.73 -1.94,0.74 -0.97,0.01 -1.6,-0.53 -2.15,-0.92 -0.19,-0.13 -0.38,-0.07 -0.59,0.02 -0.21,0.09 -0.32,0.15 -0.37,0.39 -0.03,0.16 -0.12,0.5 -0.11,0.65 0.02,0.23 0.1,0.42 0.09,0.67l-0.53 0.08c-0.15,0.26 0.05,0.71 0.12,0.97 0.05,0.17 0.09,0.32 0.22,0.38 0.13,0.07 0.36,0.07 0.52,0.08 0.12,0.36 0.22,0.57 0.4,0.84 0.13,0.18 0.43,0.53 0.58,0.65 0.25,0.21 0.45,0.35 0.79,0.46 0.33,0.11 0.71,0.14 1.08,0.14 0.84,0.02 1.33,-0.26 1.84,-0.63 0.18,-0.13 0.47,-0.44 0.6,-0.63 0.29,-0.42 0.23,-0.45 0.39,-0.83 0.28,0 0.49,0.05 0.62,-0.15 0.13,-0.19 0.09,-0.39 0.16,-0.61 0.05,-0.16 0.2,-0.49 0.04,-0.61 -0.13,-0.09 -0.44,-0.09 -0.57,-0.2z"/>
     <path class="fil2" d="M9.42 9.52c-0.46,0 -0.85,-0.06 -1.1,-0.46 -0.1,0.05 -0.29,0.22 -0.34,0.29 0.06,0.15 0.39,0.39 0.54,0.46 0.53,0.25 1.12,0.21 1.64,-0.06 0.16,-0.08 0.49,-0.3 0.54,-0.48 -0.07,-0.05 -0.21,-0.1 -0.28,-0.25 -0.06,0.02 -0.17,0.12 -0.22,0.16 -0.07,0.05 -0.13,0.11 -0.21,0.16 -0.16,0.1 -0.34,0.18 -0.57,0.18z"/>
     <polygon class="fil2" points="4.59,17.33 5.01,17.33 5.01,15.52 4.59,15.53 "/>
     <polygon class="fil2" points="13.97,17.29 14.33,17.29 14.39,17.29 14.39,15.57 14.33,15.57 13.97,15.57 "/>
     <path class="fil2" d="M10.38 6.84c-0.27,0.06 -0.45,0.23 -0.37,0.56 0.06,0.23 0.27,0.41 0.57,0.35 0.56,-0.11 0.49,-1.04 -0.2,-0.91z"/>
     <path class="fil2" d="M7.86 6.84c-0.66,0.13 -0.41,1.03 0.2,0.91 0.23,-0.04 0.42,-0.26 0.37,-0.56 -0.03,-0.25 -0.29,-0.4 -0.57,-0.35z"/>
     <path class="fil2 str1" d="M12.43 7.24c0.13,0.11 0.44,0.11 0.57,0.2 0.16,0.12 0.01,0.45 -0.04,0.61 -0.07,0.22 -0.03,0.42 -0.16,0.61 -0.13,0.2 -0.34,0.15 -0.62,0.15 -0.16,0.38 -0.1,0.41 -0.39,0.83 -0.13,0.19 -0.42,0.5 -0.6,0.63 -0.51,0.37 -1,0.65 -1.84,0.63 -0.37,0 -0.75,-0.03 -1.08,-0.14 -0.34,-0.11 -0.54,-0.25 -0.79,-0.46 -0.15,-0.12 -0.45,-0.47 -0.58,-0.65 -0.18,-0.27 -0.28,-0.48 -0.4,-0.84 -0.16,-0.01 -0.39,-0.01 -0.52,-0.08 -0.13,-0.06 -0.17,-0.21 -0.22,-0.38 -0.07,-0.26 -0.27,-0.71 -0.12,-0.97l0.53 -0.08c0.01,-0.25 -0.07,-0.44 -0.09,-0.67 -0.01,-0.15 0.08,-0.49 0.11,-0.65 0.05,-0.24 0.16,-0.3 0.37,-0.39 0.21,-0.09 0.4,-0.15 0.59,-0.02 0.55,0.39 1.18,0.93 2.15,0.92 0.69,-0.01 1.42,-0.33 1.94,-0.74 0.32,-0.26 0.39,-0.36 0.75,-0.12 0.12,0.07 0.32,0.26 0.41,0.37 0.25,0.34 0.14,0.82 0.03,1.24zm-4.62 -4.81c-0.66,0.28 -1.23,0.84 -1.56,1.3 -0.28,0.38 -0.5,0.7 -0.61,1.34 -0.05,0.3 -0.06,0.63 -0.06,0.94 0,0.34 0.08,0.59 0.09,0.91 -0.27,0.04 -0.39,0.14 -0.46,0.37 -0.08,0.26 -0.05,0.5 0,0.75 0.33,1.55 0.83,0.9 1.1,1.43 0.13,0.26 0.09,0.27 0.3,0.54l0.39 0.45c0.12,0.13 0.26,0.28 0.47,0.37 0,0.18 0.02,0.93 0,1.08 -0.02,0.13 -0.08,0.16 -0.2,0.17 -0.61,0.06 -1.86,0.31 -2.53,0.43 -0.44,0.07 -0.8,0.15 -1.18,0.31 -0.18,0.08 -0.31,0.15 -0.47,0.26 -0.44,0.3 -0.77,0.8 -0.91,1.32 -0.08,0.33 -0.04,1.06 -0.04,1.45 0,0.49 -0.01,0.99 0,1.48 0.29,0 0.44,0.05 0.47,-0.14l-0.01 -1.78c0,-0.7 0,-1.38 0.57,-1.83 0.27,-0.21 0.42,-0.31 0.77,-0.43 0.64,-0.21 1.35,-0.28 2.02,-0.41 0.33,-0.06 0.7,-0.15 1.05,-0.15 0.04,0.38 0.06,0.54 0.24,0.84 0.27,0.46 0.71,0.8 1.2,0.99 0.24,0.1 0.63,0.2 0.91,0.18 1.05,-0.03 2.39,-0.88 2.41,-2.01l2.6 0.43c0.9,0.12 1.72,0.75 1.78,1.67 0.02,0.87 0.04,1.74 0.06,2.6l0.42 0.04 0 -2.62c-0.17,-1.06 -0.72,-1.88 -2.37,-2.16 -0.87,-0.15 -1.74,-0.3 -2.6,-0.45 -0.29,-0.06 -0.4,-0.08 -0.37,-0.4 0.01,-0.29 0.01,-0.68 0.01,-0.97 0.18,-0.12 0.34,-0.25 0.48,-0.4 0.19,-0.18 0.62,-0.69 0.69,-1.06 0.78,-0.02 0.78,-0.59 0.91,-1.05 0.03,-0.13 0.1,-0.22 0.12,-0.36 0.03,-0.14 0.03,-0.29 -0.02,-0.43 -0.08,-0.25 -0.25,-0.39 -0.51,-0.47 0.01,-0.93 0.16,-1.38 -0.15,-2.26 -0.22,-0.62 -0.39,-0.92 -0.81,-1.36 -0.18,-0.19 -0.18,-0.17 -0.34,-0.3 -0.14,-0.13 -0.38,-0.29 -0.54,-0.39 -0.68,-0.41 -1.26,-0.5 -2.05,-0.47 -0.29,0.01 -0.78,0.05 -1.27,0.25zm-1.16 1.56c0.36,-0.4 0.72,-0.85 1.5,-1.2 0.27,-0.12 0.39,-0.16 0.75,-0.17 0.53,-0.05 1.14,0.03 1.63,0.22 0.38,0.15 0.58,0.31 0.85,0.54 0.34,0.27 0.4,0.32 0.67,0.74 0.15,0.22 0.53,1.02 0.49,1.36 -0.15,-0.11 -0.5,-0.33 -0.71,-0.42 -0.18,-0.07 -0.32,-0.06 -0.46,0.04 -0.12,0.08 -0.22,0.17 -0.33,0.25 -1.13,0.83 -2.1,1.01 -3.34,0.07 -0.12,-0.09 -0.22,-0.16 -0.34,-0.25 -0.14,-0.1 -0.22,-0.16 -0.45,-0.14 -0.47,0.04 -0.65,0.26 -0.86,0.32 0.02,-0.61 0.43,-1.15 0.6,-1.36zm2.68 10.16c0.08,0 0.17,0 0.24,-0.01 0.09,-0.01 0.2,-0.03 0.28,-0.05 0.8,-0.13 1.49,-0.85 1.49,-1.59 -0.33,-0.11 -0.5,-0.32 -0.48,-0.62l0.02 -0.91 0 0c-0.04,0.02 -0.09,0.05 -0.13,0.07 -0.39,0.18 -0.92,0.32 -1.41,0.34 -0.4,0.01 -0.78,-0.04 -1.15,-0.17 -0.1,-0.04 -0.21,-0.1 -0.3,-0.13 -0.01,0.31 0.04,0.65 0.01,0.95 -0.03,0.28 -0.25,0.38 -0.47,0.47 0.02,0.86 0.8,1.5 1.49,1.61 0.2,0.03 0.32,0.04 0.41,0.04z"/>
    </g>
   </g>
   <g>
    <rect class="fil3 str2" x="20.58" y="10.98" width="2.52" height="6.32"/>
    <g>
     <path class="fil4" d="M27.35 17.36c-0.49,0 -0.96,-0.18 -1.43,-0.35 -0.51,-0.19 -1.03,-0.39 -1.56,-0.34l-1.28 0.11 0 -4.99 0.7 -0.06c0.43,-0.04 0.8,0.13 1.15,0.29 0.33,0.16 0.65,0.3 1.01,0.27l2.3 -0.41c0.83,-0.15 1.28,0.33 1.56,0.77l2.52 -1.17c0.95,-0.43 2.02,0 2.66,1.06 0.16,0.28 0.07,0.65 -0.21,0.83 -0.33,0.2 -0.65,0.41 -0.98,0.61 -2.81,1.76 -5.24,3.28 -6.28,3.37 -0.05,0.01 -0.11,0.01 -0.16,0.01zm-2.82 -1.04c0.52,0 1.03,0.18 1.51,0.37 0.51,0.18 0.98,0.36 1.44,0.32 0.96,-0.09 3.47,-1.66 6.13,-3.33 0.32,-0.2 0.65,-0.4 0.97,-0.61 0.13,-0.07 0.17,-0.23 0.1,-0.35 -0.55,-0.91 -1.44,-1.28 -2.22,-0.93l-2.8 1.3c0,-0.18 -0.14,-0.39 -0.22,-0.48 -0.26,-0.31 -0.76,-0.46 -1.14,-0.39l-2.32 0.42c-0.47,0.03 -0.84,-0.14 -1.19,-0.3 -0.33,-0.16 -0.64,-0.3 -0.98,-0.27l-0.39 0.04 0 4.3 0.91 -0.08c0.07,-0.01 0.13,-0.01 0.2,-0.01z"/>
     <path class="fil5 str3" d="M29.8 13c0.04,0.08 0.04,0.23 -0.05,0.38 -0.15,0.24 -0.49,0.42 -1.32,0.33 -0.62,-0.08 -1.35,0.07 -1.99,0.14"/>
     <rect class="fil5 str4" x="20.36" y="10.98" width="2.96" height="6.32" rx="0.55" ry="0.55"/>
    </g>
   </g>
   <g>
    <path class="fil2" d="M28.1 10.53c-0.22,0.79 -1.38,0.49 -1.2,-0.29 0.07,-0.3 0.37,-0.55 0.76,-0.45 0.26,0.06 0.54,0.37 0.44,0.74zm1.58 -1.14c-0.13,-0.82 1.07,-0.97 1.2,-0.22 0.16,0.86 -1.08,0.99 -1.2,0.22zm-4.23 0.03c-0.23,0.75 -1.39,0.46 -1.18,-0.35 0.21,-0.78 1.42,-0.43 1.18,0.35zm1.24 -1.26l1.82 0c-0.01,0.01 -0.02,0.01 -0.02,0.02 -0.04,0.14 -1.19,0.45 -1.75,0.03 -0.04,-0.03 -0.03,-0.02 -0.05,-0.05zm0.5 -0.81l-0.26 -0.01 -0.01 0.55 -0.22 0c-0.02,-0.17 -0.02,-0.78 0.01,-0.93 0.15,-0.06 1.7,-0.06 1.8,0.01 0.08,0.11 0.06,0.72 0.03,0.91l-0.15 0.01 -0.01 -0.56 -0.27 -0.02 0 0.58 -0.91 0 -0.01 -0.54zm-4.01 -0.7c-0.06,-0.83 1.16,-0.89 1.23,-0.11 0.07,0.83 -1.17,0.89 -1.23,0.11zm7.63 -0.03c-0.13,-0.82 1.07,-0.98 1.21,-0.22 0.07,0.38 -0.19,0.68 -0.5,0.72 -0.36,0.06 -0.67,-0.2 -0.71,-0.5zm-4.41 1.37c-0.02,-0.04 -0.97,-0.78 -0.53,-2.03 0.53,-1.51 2.73,-1.66 3.41,-0.09 0.16,0.35 0.19,0.79 0.09,1.18 -0.12,0.52 -0.34,0.65 -0.53,0.89 -0.06,-0.33 0.07,-0.91 -0.1,-1.14 -0.18,-0.23 -1.29,-0.15 -1.77,-0.15 -0.88,0 -0.42,0.81 -0.57,1.34zm3.82 -4.62c0.38,-0.09 0.66,0.16 0.73,0.44 0.09,0.37 -0.15,0.68 -0.44,0.75 -0.78,0.2 -1.12,-0.98 -0.29,-1.19zm-5.49 -0.06c0.36,-0.12 0.69,0.14 0.77,0.41 0.11,0.36 -0.12,0.67 -0.39,0.76 -0.78,0.24 -1.17,-0.9 -0.38,-1.17zm2.75 -1.13c0.78,-0.26 1.15,0.92 0.37,1.16 -0.75,0.25 -1.15,-0.9 -0.37,-1.16zm0.45 2.35l-0.17 -0.03 0.05 -0.62 0 -0.28c0.13,-0.08 0.72,-0.21 0.69,-0.89 -0.05,-1.03 -1.58,-1.04 -1.66,-0.02 -0.02,0.25 0.06,0.45 0.19,0.6 0.26,0.29 0.34,0.21 0.49,0.31l-0.01 0.87c-0.43,0.12 -0.52,0.03 -1.03,0.33 -0.12,0.07 -0.17,0.13 -0.28,0.19l-0.61 -0.57c0.07,-0.22 0.18,-0.3 0.15,-0.62 -0.07,-0.68 -0.91,-0.98 -1.39,-0.52 -0.73,0.69 0.1,1.84 1.02,1.32l0.63 0.6c-0.29,0.33 -0.47,0.78 -0.51,1.24l-0.87 0.02c-0.15,-1.01 -1.66,-0.88 -1.66,0.13 0,1.02 1.51,1.15 1.66,0.14l0.87 0c0.05,0.59 0.23,0.87 0.47,1.21 -0.05,0.06 -0.09,0.09 -0.15,0.15 -0.17,0.17 -0.24,0.28 -0.47,0.45 -0.29,-0.09 -0.7,-0.33 -1.14,0.19 -0.31,0.37 -0.18,0.86 0.11,1.14 0.41,0.39 1.28,0.22 1.38,-0.51 0.04,-0.31 -0.06,-0.42 -0.15,-0.63 0.16,-0.11 0.39,-0.42 0.63,-0.58 0.08,0.05 0.15,0.13 0.24,0.19 0.3,0.2 0.67,0.34 1.04,0.36l-0.04 0.83c-0.2,0.11 -0.34,0.07 -0.51,0.26 -0.11,0.1 -0.23,0.34 -0.24,0.57 0,0.45 0.35,0.82 0.76,0.85 0.67,0.06 1.19,-0.68 0.75,-1.33 -0.13,-0.2 -0.22,-0.19 -0.47,-0.32l0.03 -0.85c0.97,-0.16 0.75,-0.26 1.3,-0.54l0.59 0.57c-0.05,0.15 -0.41,0.64 0.07,1.15 0.65,0.68 1.88,-0.19 1.26,-1.09 -0.09,-0.13 -0.25,-0.27 -0.46,-0.32 -0.3,-0.07 -0.42,0.01 -0.66,0.09l-0.62 -0.58c0.05,-0.12 0.22,-0.29 0.32,-0.55 0.1,-0.23 0.15,-0.43 0.17,-0.69l0.91 -0.02c0.21,0.96 1.74,0.75 1.63,-0.3 -0.04,-0.41 -0.39,-0.75 -0.83,-0.75 -0.47,0.01 -0.78,0.34 -0.83,0.77l-0.88 0c-0.04,-0.53 -0.24,-0.89 -0.47,-1.2l0.62 -0.59c0.23,0.06 0.3,0.19 0.64,0.13 0.66,-0.1 0.95,-0.93 0.45,-1.41 -0.51,-0.5 -1.29,-0.19 -1.41,0.42 -0.06,0.33 0.05,0.44 0.13,0.66 -0.27,0.2 -0.48,0.5 -0.64,0.58 -0.27,-0.22 -0.68,-0.53 -1.09,-0.51z"/>
    <path class="fil6" d="M27.42 4.92c0.52,-0.13 0.93,0.25 1.02,0.65 0.12,0.51 -0.24,0.93 -0.63,1.03 -1.1,0.27 -1.55,-1.41 -0.39,-1.68zm-1.02 3.07c0.15,-0.53 -0.31,-1.34 0.57,-1.34 0.48,0 1.59,-0.08 1.77,0.15 0.17,0.23 0.04,0.81 0.1,1.14 0.19,-0.24 0.41,-0.37 0.53,-0.89 0.1,-0.39 0.07,-0.83 -0.09,-1.18 -0.68,-1.57 -2.88,-1.42 -3.41,0.09 -0.44,1.25 0.51,1.99 0.53,2.03z"/>
    <path class="fil7" d="M22.5 4.59c-0.1,0.15 0.08,0.24 -0.12,0.35 -0.46,0.26 -0.3,-0.08 -0.56,-0.08 -0.28,-0.01 -0.07,0.29 -0.47,0.12 -0.38,-0.16 -0.07,-0.23 -0.22,-0.41 -0.08,-0.1 -0.21,-0.04 -0.34,-0.06 -0.35,-0.6 0.05,-0.38 0.03,-0.66 -0.01,-0.3 -0.35,0 -0.04,-0.64 0.23,-0.04 0.41,0.09 0.38,-0.26 -0.01,-0.15 0.02,-0.14 0.15,-0.19 0.1,-0.04 0.17,-0.08 0.29,-0.07 0.05,0.07 0.1,0.19 0.24,0.18 0.26,-0.03 0.05,-0.29 0.45,-0.13 0.39,0.16 0.04,0.26 0.24,0.43 0.09,0.08 0.22,0.02 0.33,0.04 0.33,0.64 -0.06,0.36 -0.04,0.67 0.01,0.26 0.36,0.03 0.03,0.64 -0.15,0.01 -0.28,-0.05 -0.35,0.07zm-1.45 -2.08c0.07,0.44 -0.16,0.66 -0.59,0.58l-0.14 0.34c0.07,0.08 0.26,0.14 0.26,0.42 0.01,0.22 -0.12,0.34 -0.26,0.41l0.14 0.37c0.44,-0.08 0.67,0.15 0.59,0.58l0.35 0.15c0.11,-0.13 0.15,-0.27 0.42,-0.26 0.26,0 0.3,0.14 0.41,0.25l0.36 -0.14c-0.1,-0.44 0.17,-0.65 0.59,-0.58l0.14 -0.37c-0.36,-0.15 -0.36,-0.66 0,-0.79l-0.15 -0.38c-0.41,0.07 -0.66,-0.13 -0.58,-0.57l-0.35 -0.16c-0.25,0.33 -0.55,0.37 -0.8,0.06l-0.04 -0.05 -0.35 0.14z"/>
    <path class="fil7" d="M33.07 2.69c0.29,0.4 0.39,0.02 0.47,0 0.06,-0.03 0.37,0.1 0.4,0.15 0.04,0.13 -0.05,0.21 0.05,0.31 0.08,0.1 0.22,0.04 0.34,0.06 0.33,0.61 -0.03,0.37 -0.04,0.64 -0.02,0.29 0.38,0.05 0.04,0.67 -0.14,0.01 -0.26,-0.05 -0.35,0.05 -0.16,0.19 0.17,0.25 -0.22,0.41 -0.4,0.17 -0.19,-0.13 -0.47,-0.12 -0.26,0 -0.09,0.34 -0.56,0.08 -0.2,-0.11 -0.02,-0.2 -0.12,-0.36 -0.07,-0.12 -0.2,-0.05 -0.35,-0.07 -0.04,-0.06 -0.08,-0.15 -0.11,-0.24 -0.13,-0.33 0.21,-0.18 0.14,-0.47 -0.06,-0.25 -0.33,0.03 -0.04,-0.59 0.23,-0.04 0.41,0.09 0.39,-0.26 -0.01,-0.15 0.01,-0.14 0.14,-0.19 0.11,-0.04 0.17,-0.08 0.29,-0.07zm-0.55 -0.18c0.09,0.44 -0.15,0.65 -0.59,0.58l-0.13 0.34 0.09 0.08c0.26,0.2 0.22,0.6 -0.1,0.75l0.15 0.37c0.42,-0.08 0.67,0.15 0.58,0.58l0.35 0.15c0.12,-0.12 0.15,-0.26 0.42,-0.26 0.27,0 0.3,0.14 0.42,0.25l0.35 -0.14c-0.09,-0.43 0.17,-0.66 0.59,-0.58l0.15 -0.37c-0.37,-0.15 -0.36,-0.66 -0.01,-0.79l-0.14 -0.38c-0.43,0.08 -0.65,-0.14 -0.59,-0.57l-0.35 -0.16c-0.11,0.13 -0.17,0.27 -0.42,0.27 -0.25,0 -0.29,-0.14 -0.41,-0.26l-0.36 0.14z"/>
    <path class="fil7" d="M21.16 8.31c0.54,-0.36 0.41,0.03 0.66,0.03 0.32,0 -0.03,-0.35 0.65,-0.05 0.01,0.12 -0.05,0.26 0.05,0.35 0.09,0.08 0.19,0.02 0.31,0.05 0.08,0.09 0.17,0.28 0.15,0.43 -0.24,0.15 -0.24,0.28 0,0.43 0.02,0.16 -0.07,0.35 -0.15,0.44 -0.13,0.03 -0.24,-0.04 -0.33,0.06 -0.08,0.09 -0.02,0.2 -0.04,0.33 -0.69,0.31 -0.32,-0.07 -0.67,-0.05 -0.25,0.02 -0.05,0.38 -0.63,0.03 -0.02,-0.13 0.03,-0.25 -0.06,-0.33 -0.09,-0.08 -0.19,-0.03 -0.3,-0.04 -0.07,-0.07 -0.17,-0.26 -0.17,-0.4 0.08,-0.1 0.19,-0.1 0.19,-0.25 0,-0.16 -0.1,-0.17 -0.18,-0.25 -0.01,-0.14 0.09,-0.33 0.15,-0.41 0.12,-0.01 0.23,0.03 0.31,-0.03 0.11,-0.08 0.04,-0.2 0.06,-0.34zm-0.12 -0.33c0.08,0.44 -0.14,0.67 -0.58,0.58l-0.15 0.36c0.13,0.11 0.27,0.15 0.27,0.42 0,0.28 -0.15,0.3 -0.26,0.41l0.14 0.36c0.44,-0.13 0.65,0.18 0.58,0.59l0.37 0.14c0.19,-0.36 0.63,-0.37 0.8,-0.01l0.37 -0.14c-0.08,-0.45 0.15,-0.64 0.59,-0.59l0.14 -0.35c-0.14,-0.12 -0.26,-0.16 -0.26,-0.41 0,-0.25 0.12,-0.3 0.26,-0.42l-0.15 -0.35c-0.43,0.1 -0.65,-0.19 -0.58,-0.6l-0.35 -0.13c-0.11,0.09 -0.12,0.26 -0.41,0.26 -0.24,0 -0.31,-0.13 -0.42,-0.25l-0.36 0.13z"/>
    <path class="fil7" d="M32.63 8.31c0.06,-0.04 0.15,-0.08 0.24,-0.11 0.34,-0.14 0.19,0.24 0.49,0.13 0.26,-0.08 -0.07,-0.3 0.58,-0.03 0.02,0.13 -0.05,0.25 0.04,0.34 0.11,0.11 0.2,0.02 0.31,0.05 0.08,0.04 0.05,0.03 0.12,0.19 0.05,0.12 0.06,0.11 0.05,0.25 -0.4,0.26 -0.03,0.38 0,0.46 0,0.13 -0.09,0.32 -0.15,0.4 -0.12,0.03 -0.23,-0.03 -0.32,0.05 -0.08,0.06 -0.05,0.15 -0.05,0.25 0,0.13 -0.27,0.24 -0.42,0.23 -0.07,-0.07 -0.08,-0.15 -0.18,-0.18 -0.29,-0.07 -0.13,0.28 -0.47,0.14 -0.09,-0.03 -0.19,-0.07 -0.24,-0.11 -0.02,-0.18 0.03,-0.19 -0.05,-0.35 -0.14,-0.05 -0.16,-0.01 -0.32,-0.02 -0.07,-0.08 -0.16,-0.27 -0.15,-0.41 0.08,-0.09 0.18,-0.1 0.18,-0.25 0,-0.16 -0.11,-0.15 -0.18,-0.25 0,-0.15 0.09,-0.33 0.16,-0.41 0.11,-0.01 0.21,0.04 0.3,-0.03 0.09,-0.09 0.04,-0.21 0.06,-0.34zm-0.11 -0.32c0.05,0.4 -0.13,0.71 -0.58,0.58l-0.15 0.35c0.11,0.12 0.26,0.13 0.26,0.42 0,0.26 -0.13,0.3 -0.26,0.41l0.14 0.36c0.44,-0.09 0.66,0.15 0.58,0.59l0.37 0.14c0.08,-0.21 0.43,-0.47 0.79,-0.05 0.02,0.03 0.02,0.03 0.04,0.05l0.34 -0.14c-0.08,-0.42 0.16,-0.67 0.57,-0.59l0.16 -0.35c-0.13,-0.12 -0.27,-0.17 -0.26,-0.42 0,-0.26 0.14,-0.29 0.26,-0.42l-0.14 -0.34c-0.45,0.04 -0.66,-0.13 -0.59,-0.6l-0.34 -0.13c-0.12,0.09 -0.12,0.25 -0.42,0.26 -0.22,0 -0.34,-0.13 -0.41,-0.27l-0.36 0.15z"/>
    <path class="fil8" d="M33.67 10.79c-0.36,-0.42 -0.71,-0.16 -0.79,0.05l-0.37 -0.14c0.08,-0.44 -0.14,-0.68 -0.58,-0.59l-0.14 -0.36c0.13,-0.11 0.26,-0.15 0.26,-0.41 0,-0.29 -0.15,-0.3 -0.26,-0.42l0.15 -0.35c0.45,0.13 0.63,-0.18 0.58,-0.58l0.36 -0.15c0.07,0.14 0.19,0.27 0.41,0.27 0.3,-0.01 0.3,-0.17 0.42,-0.26l0.34 0.13c-0.07,0.47 0.14,0.64 0.59,0.6l0.14 0.34c-0.12,0.13 -0.26,0.16 -0.26,0.42 -0.01,0.25 0.13,0.3 0.26,0.42l-0.16 0.35c-0.41,-0.08 -0.65,0.17 -0.57,0.59l-0.34 0.14c-0.02,-0.02 -0.02,-0.02 -0.04,-0.05zm-2.05 -1.09c0,0.14 0.06,0.24 0.11,0.36 0.06,0.14 0.08,0.23 0.25,0.21 0.17,-0.02 0.24,-0.03 0.34,0.1 0.12,0.15 0,0.21 0.04,0.4 0.09,0.1 0.41,0.25 0.6,0.22 0.1,-0.09 0.1,-0.26 0.33,-0.25 0.39,0.02 0.04,0.43 0.7,0.16 0.15,-0.06 0.25,-0.07 0.22,-0.25 -0.07,-0.57 0.32,-0.32 0.5,-0.39 0.09,-0.04 0.17,-0.29 0.21,-0.4 0.09,-0.25 -0.09,-0.23 -0.19,-0.36 -0.12,-0.16 -0.02,-0.33 0.1,-0.4 0.19,-0.11 0.12,-0.2 0.04,-0.4 -0.07,-0.17 -0.08,-0.31 -0.29,-0.29 -0.21,0.03 -0.36,0 -0.38,-0.21 -0.03,-0.25 0.13,-0.28 -0.15,-0.39 -0.18,-0.07 -0.28,-0.15 -0.47,-0.12 -0.07,0.12 -0.12,0.29 -0.36,0.24 -0.26,-0.05 -0.13,-0.27 -0.37,-0.25 -0.05,0 -0.4,0.15 -0.44,0.19 -0.14,0.13 0.05,0.31 -0.11,0.48 -0.16,0.17 -0.35,-0.02 -0.48,0.1 -0.04,0.03 -0.19,0.39 -0.2,0.45 -0.02,0.22 0.22,0.17 0.26,0.39 0.04,0.24 -0.16,0.26 -0.26,0.41z"/>
    <path class="fil8" d="M33.71 5.35c-0.12,-0.11 -0.15,-0.25 -0.42,-0.25 -0.27,0 -0.3,0.14 -0.42,0.26l-0.35 -0.15c0.09,-0.43 -0.16,-0.66 -0.58,-0.58l-0.15 -0.37c0.32,-0.15 0.36,-0.55 0.1,-0.75l-0.09 -0.08 0.13 -0.34c0.44,0.07 0.68,-0.14 0.59,-0.58l0.36 -0.14c0.12,0.12 0.16,0.26 0.41,0.26 0.25,0 0.31,-0.14 0.42,-0.27l0.35 0.16c-0.06,0.43 0.16,0.65 0.59,0.57l0.14 0.38c-0.35,0.13 -0.36,0.64 0.01,0.79l-0.15 0.37c-0.42,-0.08 -0.68,0.15 -0.59,0.58l-0.35 0.14zm-2.07 -1.16c-0.03,0.17 0.14,0.51 0.22,0.59 0.08,0.05 0.57,-0.18 0.5,0.38 -0.03,0.28 0.55,0.37 0.6,0.35 0.11,-0.09 0.14,-0.25 0.33,-0.25 0.22,0 0.21,0.18 0.36,0.26 0,0 0.61,-0.07 0.57,-0.36 -0.02,-0.16 -0.01,-0.26 0.1,-0.34 0.29,-0.22 0.33,0.32 0.61,-0.44 0.1,-0.28 -0.12,-0.22 -0.2,-0.36 -0.12,-0.22 0.02,-0.33 0.14,-0.42 0.17,-0.13 0.05,-0.27 -0.02,-0.45 -0.12,-0.29 -0.09,-0.21 -0.37,-0.2 -0.18,0.01 -0.29,-0.12 -0.27,-0.31 0.03,-0.28 0.02,-0.24 -0.22,-0.34 -0.19,-0.08 -0.31,-0.18 -0.43,-0.01 -0.09,0.11 -0.2,0.24 -0.4,0.14 -0.16,-0.08 -0.09,-0.29 -0.34,-0.22 -0.09,0.02 -0.39,0.15 -0.42,0.19 -0.11,0.12 0.07,0.34 -0.1,0.49 -0.17,0.14 -0.38,-0.06 -0.5,0.11 -0.02,0.04 -0.17,0.4 -0.17,0.44 -0.01,0.19 0.22,0.16 0.26,0.36 0.05,0.27 -0.15,0.28 -0.25,0.39z"/>
    <path class="fil8" d="M22.21 10.83c-0.17,-0.36 -0.61,-0.35 -0.8,0.01l-0.37 -0.14c0.07,-0.41 -0.14,-0.72 -0.58,-0.59l-0.14 -0.36c0.11,-0.11 0.26,-0.13 0.26,-0.41 0,-0.27 -0.14,-0.31 -0.27,-0.42l0.15 -0.36c0.44,0.09 0.66,-0.14 0.58,-0.58l0.36 -0.13c0.11,0.12 0.18,0.25 0.42,0.25 0.29,0 0.3,-0.17 0.41,-0.26l0.35 0.13c-0.07,0.41 0.15,0.7 0.58,0.6l0.15 0.35c-0.14,0.12 -0.26,0.17 -0.26,0.42 0,0.25 0.12,0.29 0.26,0.41l-0.14 0.35c-0.44,-0.05 -0.67,0.14 -0.59,0.59l-0.37 0.14zm-2.04 -1.81c0.07,0.12 0.26,0.1 0.24,0.34 -0.04,0.38 -0.43,0.02 -0.15,0.7 0.18,0.44 0.39,0.01 0.59,0.3 0.11,0.16 0.01,0.22 0.03,0.39 0.09,0.1 0.41,0.27 0.6,0.24 0.09,-0.08 0.18,-0.37 0.46,-0.22 0.21,0.1 0.08,0.33 0.46,0.17 0.26,-0.11 0.36,-0.06 0.33,-0.36 -0.04,-0.31 0.15,-0.33 0.4,-0.31 0.2,0.02 0.23,-0.2 0.31,-0.39 0.14,-0.34 -0.14,-0.22 -0.21,-0.45 -0.1,-0.33 0.21,-0.3 0.24,-0.46 0.02,-0.09 -0.15,-0.49 -0.2,-0.53 -0.12,-0.11 -0.39,0.1 -0.52,-0.15 -0.12,-0.26 0.18,-0.35 -0.19,-0.5 -0.25,-0.09 -0.34,-0.22 -0.51,0.01 -0.14,0.2 -0.37,0.18 -0.48,-0.01 -0.13,-0.22 -0.3,-0.08 -0.51,0.01 -0.38,0.15 -0.04,0.26 -0.2,0.5 -0.16,0.24 -0.4,0 -0.53,0.16 -0.08,0.1 -0.21,0.43 -0.16,0.56z"/>
    <path class="fil8" d="M21.4 2.37l0.04 0.05c0.25,0.31 0.55,0.27 0.8,-0.06l0.35 0.16c-0.08,0.44 0.17,0.64 0.58,0.57l0.15 0.38c-0.36,0.13 -0.36,0.64 0,0.79l-0.14 0.37c-0.42,-0.07 -0.69,0.14 -0.59,0.58l-0.36 0.14c-0.11,-0.11 -0.15,-0.25 -0.41,-0.25 -0.27,-0.01 -0.31,0.13 -0.42,0.26l-0.35 -0.15c0.08,-0.43 -0.15,-0.66 -0.59,-0.58l-0.14 -0.37c0.14,-0.07 0.27,-0.19 0.26,-0.41 0,-0.28 -0.19,-0.34 -0.26,-0.42l0.14 -0.34c0.43,0.08 0.66,-0.14 0.59,-0.58l0.35 -0.14zm-1.23 1.82c-0.03,0.17 0.13,0.51 0.22,0.59 0.06,0.03 0.57,-0.15 0.5,0.36 -0.02,0.18 0.04,0.2 0.18,0.26 0.11,0.05 0.25,0.13 0.39,0.12 0.14,-0.08 0.23,-0.38 0.49,-0.22 0.23,0.13 0.06,0.33 0.48,0.16 0.49,-0.2 0.28,-0.19 0.3,-0.44 0.03,-0.36 0.46,-0.2 0.52,-0.24 0.08,-0.08 0.16,-0.26 0.21,-0.4 0.09,-0.26 -0.1,-0.23 -0.2,-0.37 -0.14,-0.21 0.03,-0.32 0.14,-0.41 0.16,-0.12 0.04,-0.28 -0.02,-0.45 -0.12,-0.29 -0.1,-0.21 -0.37,-0.2 -0.19,0.01 -0.3,-0.12 -0.27,-0.31 0.03,-0.27 0.02,-0.24 -0.23,-0.34 -0.17,-0.07 -0.32,-0.18 -0.43,-0.01 -0.06,0.09 -0.03,0.11 -0.15,0.15 -0.38,0.14 -0.29,-0.32 -0.59,-0.23 -0.8,0.22 -0.25,0.45 -0.51,0.68 -0.17,0.14 -0.39,-0.06 -0.5,0.11 -0.03,0.03 -0.17,0.4 -0.17,0.44 -0.01,0.19 0.21,0.16 0.25,0.36 0.05,0.27 -0.15,0.28 -0.24,0.39z"/>
    <path class="fil7" d="M33.11 8.75c0.78,-0.24 1.12,0.95 0.36,1.18 -0.78,0.24 -1.17,-0.92 -0.36,-1.18zm-0.36 -0.37c0.02,0.31 -0.12,0.47 -0.44,0.41l-0.09 0.28c0.22,0.07 0.22,0.31 0.14,0.44l-0.12 0.12c0,0 -0.01,0.01 -0.01,0.01l0.09 0.25c0.33,-0.07 0.46,0.11 0.42,0.42l0.24 0.09c0.09,-0.08 0.13,-0.17 0.28,-0.18 0.18,-0.01 0.25,0.08 0.29,0.18l0.28 -0.09c-0.07,-0.46 0.25,-0.43 0.42,-0.43l0.09 -0.24c-0.16,-0.18 -0.31,-0.26 -0.04,-0.56 0.03,-0.03 0.02,-0.02 0.04,-0.05l-0.09 -0.22c-0.35,-0.01 -0.45,-0.06 -0.43,-0.44l-0.26 -0.1c-0.04,0.12 -0.1,0.19 -0.27,0.19 -0.18,0.01 -0.22,-0.09 -0.3,-0.18l-0.24 0.1z"/>
    <path class="fil7" d="M21.63 8.75c0.82,-0.25 1.11,0.95 0.37,1.18 -0.8,0.25 -1.15,-0.95 -0.37,-1.18zm-0.36 -0.38c0.04,0.31 -0.09,0.48 -0.42,0.42l-0.1 0.24 0.13 0.11c0.03,0.05 0.05,0.12 0.05,0.2 0,0.06 -0.01,0.12 -0.05,0.17l-0.06 0.07c-0.01,0.01 -0.02,0.01 -0.02,0.02 -0.04,0.03 -0.02,0.01 -0.05,0.04l0.1 0.24c0.32,-0.05 0.44,0.12 0.42,0.42l0.24 0.1c0.09,-0.09 0.12,-0.18 0.28,-0.19 0.18,-0.01 0.26,0.08 0.3,0.19l0.26 -0.1c-0.04,-0.37 0.1,-0.43 0.44,-0.43l0.08 -0.23c-0.07,-0.09 -0.18,-0.13 -0.18,-0.3 0,-0.17 0.1,-0.22 0.18,-0.31l-0.09 -0.23c-0.32,0 -0.47,-0.08 -0.42,-0.44l-0.27 -0.09c-0.04,0.11 -0.11,0.19 -0.27,0.19 -0.18,0 -0.22,-0.1 -0.31,-0.18l-0.24 0.09z"/>
    <path class="fil7" d="M33.16 3.26c0.79,-0.2 1.06,1.02 0.27,1.21 -0.8,0.18 -1.08,-1.01 -0.27,-1.21zm-0.41 -0.35c0.07,0.31 -0.13,0.44 -0.43,0.41l-0.09 0.26c0.1,0.04 0.18,0.11 0.19,0.27 0,0.18 -0.09,0.22 -0.18,0.3l0.09 0.25c0.3,-0.03 0.5,0.1 0.42,0.42l0.24 0.1 0.04 -0.05c0.31,-0.31 0.5,0 0.57,0.05l0.24 -0.1c-0.08,-0.31 0.12,-0.46 0.42,-0.41l0.09 -0.25c-0.09,-0.08 -0.17,-0.13 -0.18,-0.28 -0.01,-0.18 0.08,-0.25 0.18,-0.29l-0.09 -0.27c-0.31,0.04 -0.48,-0.11 -0.42,-0.41l-0.24 -0.11c-0.1,0.08 -0.11,0.19 -0.31,0.18 -0.17,0 -0.22,-0.11 -0.3,-0.18l-0.24 0.11z"/>
    <path class="fil7" d="M21.68 3.26c0.77,-0.19 1.09,1.01 0.28,1.21 -0.8,0.19 -1.09,-1.01 -0.28,-1.21zm-0.41 -0.35c0.07,0.31 -0.12,0.44 -0.42,0.41l-0.1 0.26c0.11,0.05 0.19,0.11 0.19,0.27 0.01,0.18 -0.09,0.22 -0.18,0.3l0.09 0.25c0.29,-0.02 0.5,0.09 0.42,0.42l0.24 0.1c0.09,-0.07 0.11,-0.18 0.31,-0.18 0.17,0 0.23,0.1 0.3,0.18l0.25 -0.1c-0.09,-0.32 0.12,-0.45 0.42,-0.41l0.09 -0.25c-0.09,-0.08 -0.18,-0.12 -0.18,-0.28 -0.01,-0.18 0.08,-0.25 0.18,-0.29l-0.1 -0.27c-0.3,0.04 -0.48,-0.11 -0.42,-0.41l-0.24 -0.11c-0.1,0.08 -0.11,0.18 -0.3,0.19 -0.18,0 -0.21,-0.12 -0.31,-0.19l-0.24 0.11z"/>
    <path class="fil6" d="M27.19 7.35c0.06,0.1 0.02,0.37 0.03,0.52l0.86 0c0,-0.48 -0.06,-0.57 0.11,-0.58 0.08,-0.01 0.16,-0.02 0.19,0.04l0.01 0.56 0.15 -0.01c0.03,-0.19 0.05,-0.8 -0.03,-0.91 -0.1,-0.07 -1.65,-0.07 -1.8,-0.01 -0.03,0.15 -0.03,0.76 -0.01,0.93l0.22 0 0.01 -0.55 0.26 0.01z"/>
    <path class="fil2" d="M27.46 5.19c0.74,-0.19 1.03,0.93 0.3,1.14 -0.35,0.09 -0.66,-0.15 -0.73,-0.41 -0.09,-0.36 0.16,-0.66 0.43,-0.73zm-0.04 -0.27c-1.16,0.27 -0.71,1.95 0.39,1.68 0.39,-0.1 0.75,-0.52 0.63,-1.03 -0.09,-0.4 -0.5,-0.78 -1.02,-0.65z"/>
    <path class="fil9" d="M25.45 9.42c0.24,-0.78 -0.97,-1.13 -1.18,-0.35 -0.21,0.81 0.95,1.1 1.18,0.35z"/>
    <path class="fil10" d="M29.68 9.39c0.12,0.77 1.36,0.64 1.2,-0.22 -0.13,-0.75 -1.33,-0.6 -1.2,0.22z"/>
    <path class="fil11" d="M28.1 10.53c0.1,-0.37 -0.18,-0.68 -0.44,-0.74 -0.39,-0.1 -0.69,0.15 -0.76,0.45 -0.18,0.78 0.98,1.08 1.2,0.29z"/>
    <path class="fil12" d="M27.48 2.18c-0.78,0.26 -0.38,1.41 0.37,1.16 0.78,-0.24 0.41,-1.42 -0.37,-1.16z"/>
    <path class="fil13" d="M30.22 3.37c-0.83,0.21 -0.49,1.39 0.29,1.19 0.29,-0.07 0.53,-0.38 0.44,-0.75 -0.07,-0.28 -0.35,-0.53 -0.73,-0.44z"/>
    <path class="fil14" d="M30.81 6.62c0.04,0.3 0.35,0.56 0.71,0.5 0.31,-0.04 0.57,-0.34 0.5,-0.72 -0.14,-0.76 -1.34,-0.6 -1.21,0.22z"/>
    <path class="fil15" d="M23.18 6.65c0.06,0.78 1.3,0.72 1.23,-0.11 -0.07,-0.78 -1.29,-0.72 -1.23,0.11z"/>
    <path class="fil16" d="M24.73 3.31c-0.79,0.27 -0.4,1.41 0.38,1.17 0.27,-0.09 0.5,-0.4 0.39,-0.76 -0.08,-0.27 -0.41,-0.53 -0.77,-0.41z"/>
    <path class="fil6" d="M27.46 5.19c-0.27,0.07 -0.52,0.37 -0.43,0.73 0.07,0.26 0.38,0.5 0.73,0.41 0.73,-0.21 0.44,-1.33 -0.3,-1.14z"/>
    <path class="fil8" d="M32.33 4.4l-0.09 -0.25c0.09,-0.08 0.18,-0.12 0.18,-0.3 -0.01,-0.16 -0.09,-0.23 -0.19,-0.27l0.09 -0.26c0.3,0.03 0.5,-0.1 0.43,-0.41l0.24 -0.11c0.08,0.07 0.13,0.18 0.3,0.18 0.2,0.01 0.21,-0.1 0.31,-0.18l0.24 0.11c-0.06,0.3 0.11,0.45 0.42,0.41l0.09 0.27c-0.1,0.04 -0.19,0.11 -0.18,0.29 0.01,0.15 0.09,0.2 0.18,0.28l-0.09 0.25c-0.3,-0.05 -0.5,0.1 -0.42,0.41l-0.24 0.1c-0.07,-0.05 -0.26,-0.36 -0.57,-0.05l-0.04 0.05 -0.24 -0.1c0.08,-0.32 -0.12,-0.45 -0.42,-0.42zm1.65 0.17c0.09,-0.1 0.21,-0.04 0.35,-0.05 0.34,-0.62 -0.06,-0.38 -0.04,-0.67 0.01,-0.27 0.37,-0.03 0.04,-0.64 -0.12,-0.02 -0.26,0.04 -0.34,-0.06 -0.1,-0.1 -0.01,-0.18 -0.05,-0.31 -0.03,-0.05 -0.34,-0.18 -0.4,-0.15 -0.08,0.02 -0.18,0.4 -0.47,0 -0.12,-0.01 -0.18,0.03 -0.29,0.07 -0.13,0.05 -0.15,0.04 -0.14,0.19 0.02,0.35 -0.16,0.22 -0.39,0.26 -0.29,0.62 -0.02,0.34 0.04,0.59 0.07,0.29 -0.27,0.14 -0.14,0.47 0.03,0.09 0.07,0.18 0.11,0.24 0.15,0.02 0.28,-0.05 0.35,0.07 0.1,0.16 -0.08,0.25 0.12,0.36 0.47,0.26 0.3,-0.08 0.56,-0.08 0.28,-0.01 0.07,0.29 0.47,0.12 0.39,-0.16 0.06,-0.22 0.22,-0.41z"/>
    <path class="fil8" d="M20.85 4.4l-0.09 -0.25c0.09,-0.08 0.19,-0.12 0.18,-0.3 0,-0.16 -0.08,-0.22 -0.19,-0.27l0.1 -0.26c0.3,0.03 0.49,-0.1 0.42,-0.41l0.24 -0.11c0.1,0.07 0.13,0.19 0.31,0.19 0.19,-0.01 0.2,-0.11 0.3,-0.19l0.24 0.11c-0.06,0.3 0.12,0.45 0.42,0.41l0.1 0.27c-0.1,0.04 -0.19,0.11 -0.18,0.29 0,0.16 0.09,0.2 0.18,0.28l-0.09 0.25c-0.3,-0.04 -0.51,0.09 -0.42,0.41l-0.25 0.1c-0.07,-0.08 -0.13,-0.18 -0.3,-0.18 -0.2,0 -0.22,0.11 -0.31,0.18l-0.24 -0.1c0.08,-0.33 -0.13,-0.44 -0.42,-0.42zm-0.07 -1.19c-0.31,0.64 0.03,0.34 0.04,0.64 0.02,0.28 -0.38,0.06 -0.03,0.66 0.13,0.02 0.26,-0.04 0.34,0.06 0.15,0.18 -0.16,0.25 0.22,0.41 0.4,0.17 0.19,-0.13 0.47,-0.12 0.26,0 0.1,0.34 0.56,0.08 0.2,-0.11 0.02,-0.2 0.12,-0.35 0.07,-0.12 0.2,-0.06 0.35,-0.07 0.33,-0.61 -0.02,-0.38 -0.03,-0.64 -0.02,-0.31 0.37,-0.03 0.04,-0.67 -0.11,-0.02 -0.24,0.04 -0.33,-0.04 -0.2,-0.17 0.15,-0.27 -0.24,-0.43 -0.4,-0.16 -0.19,0.1 -0.45,0.13 -0.14,0.01 -0.19,-0.11 -0.24,-0.18 -0.12,-0.01 -0.19,0.03 -0.29,0.07 -0.13,0.05 -0.16,0.04 -0.15,0.19 0.03,0.35 -0.15,0.22 -0.38,0.26z"/>
    <path class="fil8" d="M20.88 9.51c0.04,-0.05 0.05,-0.11 0.05,-0.17 0,-0.08 -0.02,-0.15 -0.05,-0.2l-0.13 -0.11 0.1 -0.24c0.33,0.06 0.46,-0.11 0.42,-0.42l0.24 -0.09c0.09,0.08 0.13,0.18 0.31,0.18 0.16,0 0.23,-0.08 0.27,-0.19l0.27 0.09c-0.05,0.36 0.1,0.44 0.42,0.44l0.09 0.23c-0.08,0.09 -0.18,0.14 -0.18,0.31 0,0.17 0.11,0.21 0.18,0.3l-0.08 0.23c-0.34,0 -0.48,0.06 -0.44,0.43l-0.26 0.1c-0.04,-0.11 -0.12,-0.2 -0.3,-0.19 -0.16,0.01 -0.19,0.1 -0.28,0.19l-0.24 -0.1c0.02,-0.3 -0.1,-0.47 -0.42,-0.42l-0.1 -0.24c0.03,-0.03 0.01,-0.01 0.05,-0.04 0,-0.01 0.01,-0.01 0.02,-0.02l0.06 -0.07zm0.28 -1.2c-0.02,0.14 0.05,0.26 -0.06,0.34 -0.08,0.06 -0.19,0.02 -0.31,0.03 -0.06,0.08 -0.16,0.27 -0.15,0.41 0.08,0.08 0.18,0.09 0.18,0.25 0,0.15 -0.11,0.15 -0.19,0.25 0,0.14 0.1,0.33 0.17,0.4 0.11,0.01 0.21,-0.04 0.3,0.04 0.09,0.08 0.04,0.2 0.06,0.33 0.58,0.35 0.38,-0.01 0.63,-0.03 0.35,-0.02 -0.02,0.36 0.67,0.05 0.02,-0.13 -0.04,-0.24 0.04,-0.33 0.09,-0.1 0.2,-0.03 0.33,-0.06 0.08,-0.09 0.17,-0.28 0.15,-0.44 -0.24,-0.15 -0.24,-0.28 0,-0.43 0.02,-0.15 -0.07,-0.34 -0.15,-0.43 -0.12,-0.03 -0.22,0.03 -0.31,-0.05 -0.1,-0.09 -0.04,-0.23 -0.05,-0.35 -0.68,-0.3 -0.33,0.05 -0.65,0.05 -0.25,0 -0.12,-0.39 -0.66,-0.03z"/>
    <path class="fil8" d="M32.99 8.28c0.08,0.09 0.12,0.19 0.3,0.18 0.17,0 0.23,-0.07 0.27,-0.19l0.26 0.1c-0.02,0.38 0.08,0.43 0.43,0.44l0.09 0.22c-0.02,0.03 -0.01,0.02 -0.04,0.05 -0.27,0.3 -0.12,0.38 0.04,0.56l-0.09 0.24c-0.17,0 -0.49,-0.03 -0.42,0.43l-0.28 0.09c-0.04,-0.1 -0.11,-0.19 -0.29,-0.18 -0.15,0.01 -0.19,0.1 -0.28,0.18l-0.24 -0.09c0.04,-0.31 -0.09,-0.49 -0.42,-0.42l-0.09 -0.25c0,0 0.01,-0.01 0.01,-0.01l0.12 -0.12c0.08,-0.13 0.08,-0.37 -0.14,-0.44l0.09 -0.28c0.32,0.06 0.46,-0.1 0.44,-0.41l0.24 -0.1zm-0.36 0.03c-0.02,0.13 0.03,0.25 -0.06,0.34 -0.09,0.07 -0.19,0.02 -0.3,0.03 -0.07,0.08 -0.16,0.26 -0.16,0.41 0.07,0.1 0.18,0.09 0.18,0.25 0,0.15 -0.1,0.16 -0.18,0.25 -0.01,0.14 0.08,0.33 0.15,0.41 0.16,0.01 0.18,-0.03 0.32,0.02 0.08,0.16 0.03,0.17 0.05,0.35 0.05,0.04 0.15,0.08 0.24,0.11 0.34,0.14 0.18,-0.21 0.47,-0.14 0.1,0.03 0.11,0.11 0.18,0.18 0.15,0.01 0.42,-0.1 0.42,-0.23 0,-0.1 -0.03,-0.19 0.05,-0.25 0.09,-0.08 0.2,-0.02 0.32,-0.05 0.06,-0.08 0.15,-0.27 0.15,-0.4 -0.03,-0.08 -0.4,-0.2 0,-0.46 0.01,-0.14 0,-0.13 -0.05,-0.25 -0.07,-0.16 -0.04,-0.15 -0.12,-0.19 -0.11,-0.03 -0.2,0.06 -0.31,-0.05 -0.09,-0.09 -0.02,-0.21 -0.04,-0.34 -0.65,-0.27 -0.32,-0.05 -0.58,0.03 -0.3,0.11 -0.15,-0.27 -0.49,-0.13 -0.09,0.03 -0.18,0.07 -0.24,0.11z"/>
    <path class="fil17" d="M21.82 3.41c-0.63,0 -0.6,0.91 0,0.91 0.6,0 0.62,-0.91 0,-0.91z"/>
    <path class="fil17" d="M32.83 9.42c0.1,0.57 0.97,0.48 0.91,-0.14 -0.06,-0.62 -1.03,-0.47 -0.91,0.14z"/>
    <path class="fil17" d="M21.35 9.39c0.07,0.58 0.97,0.52 0.92,-0.11 -0.05,-0.57 -0.99,-0.51 -0.92,0.11z"/>
    <path class="fil17" d="M33.29 3.41c-0.62,0 -0.6,0.91 0,0.91 0.6,0.01 0.6,-0.92 0,-0.91z"/>
    <path class="fil2" d="M33.29 3.41c0.6,-0.01 0.6,0.92 0,0.91 -0.6,0 -0.62,-0.91 0,-0.91zm-0.13 -0.15c-0.81,0.2 -0.53,1.39 0.27,1.21 0.79,-0.19 0.52,-1.41 -0.27,-1.21z"/>
    <path class="fil2" d="M21.35 9.39c-0.07,-0.62 0.87,-0.68 0.92,-0.11 0.05,0.63 -0.85,0.69 -0.92,0.11zm0.28 -0.64c-0.78,0.23 -0.43,1.43 0.37,1.18 0.74,-0.23 0.45,-1.43 -0.37,-1.18z"/>
    <path class="fil2" d="M21.82 3.41c0.62,0 0.6,0.91 0,0.91 -0.6,0 -0.63,-0.91 0,-0.91zm-0.14 -0.15c-0.81,0.2 -0.52,1.4 0.28,1.21 0.81,-0.2 0.49,-1.4 -0.28,-1.21z"/>
    <path class="fil2" d="M32.83 9.42c-0.12,-0.61 0.85,-0.76 0.91,-0.14 0.06,0.62 -0.81,0.71 -0.91,0.14zm0.28 -0.67c-0.81,0.26 -0.42,1.42 0.36,1.18 0.76,-0.23 0.42,-1.42 -0.36,-1.18z"/>
    <path class="fil6" d="M26.69 8.16c0.02,0.03 0.01,0.02 0.05,0.05 0.56,0.42 1.71,0.11 1.75,-0.03 0,-0.01 0.01,-0.01 0.02,-0.02l-1.82 0z"/>
    <path class="fil18" d="M27.19 7.35l0.01 0.54 0.91 0 0 -0.58 0.27 0.02c-0.03,-0.06 -0.11,-0.05 -0.19,-0.04 -0.17,0.01 -0.11,0.1 -0.11,0.58l-0.86 0c-0.01,-0.15 0.03,-0.42 -0.03,-0.52z"/>
    <polygon class="fil19" points="27.93,4.53 27.8,4.46 27.81,3.88 27.76,4.5 "/>
   </g>
  </g>
 </g>
</svg>
