<?xml version="1.0" encoding="UTF-8"?>
<!DOCTYPE svg PUBLIC "-//W3C//DTD SVG 1.1//EN" "http://www.w3.org/Graphics/SVG/1.1/DTD/svg11.dtd">
<!-- Creator: CorelDRAW 2021 (64 Bit) -->
<svg xmlns="http://www.w3.org/2000/svg" xml:space="preserve" width="725px" height="375px" version="1.1" style="shape-rendering:geometricPrecision; text-rendering:geometricPrecision; image-rendering:optimizeQuality; fill-rule:evenodd; clip-rule:evenodd"
viewBox="0 0 10.01 5.18"
 xmlns:xlink="http://www.w3.org/1999/xlink"
 xmlns:xodm="http://www.corel.com/coreldraw/odm/2003">
 <defs>
  <style type="text/css">
   <![CDATA[
    .str2 {stroke:black;stroke-width:0.07;stroke-miterlimit:22.9256}
    .str0 {stroke:#B8B4B6;stroke-width:0.35;stroke-miterlimit:22.9256}
    .str1 {stroke:black;stroke-width:0.01;stroke-miterlimit:22.9256}
    .fil3 {fill:black}
    .fil0 {fill:aqua}
    .fil5 {fill:gray}
    .fil4 {fill:#B3B3B3}
    .fil6 {fill:#CCCCCC}
    .fil7 {fill:#E6E6E6}
    .fil2 {fill:white}
    .fil1 {fill:white}
   ]]>
  </style>
 </defs>
 <g id="Camada_x0020_1">
  <metadata id="CorelCorpID_0Corel-Layer"/>
  <g id="_2713745904304">
   <rect class="fil0" x="0.32" y="0.27" width="9.38" height="4.63"/>
   <rect class="fil1 str0" x="0.17" y="0.17" width="9.67" height="4.83" rx="0.45" ry="0.41"/>
   <g>
    <path class="fil2" d="M2.67 2.51c0.07,0 0.12,-0.03 0.16,-0.05 0.02,-0.02 0.03,-0.03 0.05,-0.05 0.02,-0.01 0.05,-0.03 0.06,-0.04 0.02,0.04 0.06,0.05 0.08,0.07 -0.02,0.05 -0.1,0.11 -0.15,0.13 -0.14,0.07 -0.29,0.08 -0.43,0.01 -0.04,-0.02 -0.13,-0.08 -0.15,-0.12 0.02,-0.02 0.07,-0.06 0.09,-0.08 0.07,0.11 0.17,0.12 0.29,0.13zm0.26 -0.72c0.19,-0.03 0.21,0.21 0.06,0.24 -0.08,0.02 -0.14,-0.03 -0.16,-0.09 -0.02,-0.09 0.03,-0.13 0.1,-0.15zm-0.67 0c0.08,-0.01 0.14,0.03 0.15,0.09 0.01,0.08 -0.03,0.14 -0.1,0.15 -0.16,0.04 -0.23,-0.2 -0.05,-0.24zm1.22 0.11c0.03,-0.12 0.06,-0.24 -0.01,-0.33 -0.02,-0.03 -0.08,-0.08 -0.11,-0.1 -0.09,-0.07 -0.11,-0.04 -0.2,0.03 -0.14,0.11 -0.33,0.19 -0.52,0.2 -0.25,0 -0.42,-0.14 -0.57,-0.25 -0.05,-0.03 -0.1,-0.02 -0.16,0.01 -0.05,0.02 -0.08,0.04 -0.1,0.1 -0.01,0.04 -0.03,0.14 -0.03,0.17 0.01,0.07 0.03,0.12 0.03,0.18l-0.14 0.02c-0.04,0.07 0.01,0.19 0.03,0.26 0.01,0.05 0.02,0.09 0.06,0.11 0.03,0.01 0.09,0.01 0.14,0.02 0.03,0.09 0.05,0.15 0.1,0.22 0.04,0.05 0.12,0.14 0.16,0.17 0.07,0.06 0.12,0.1 0.21,0.13 0.09,0.03 0.19,0.03 0.29,0.03 0.22,0.01 0.35,-0.07 0.49,-0.16 0.05,-0.04 0.12,-0.12 0.16,-0.17 0.08,-0.12 0.06,-0.12 0.1,-0.22 0.08,0 0.13,0.01 0.17,-0.04 0.03,-0.05 0.02,-0.11 0.04,-0.17 0.01,-0.04 0.05,-0.13 0.01,-0.16 -0.03,-0.02 -0.12,-0.02 -0.15,-0.05z"/>
    <path class="fil3" d="M2.67 2.51c-0.12,-0.01 -0.22,-0.02 -0.29,-0.13 -0.02,0.02 -0.07,0.06 -0.09,0.08 0.02,0.04 0.11,0.1 0.15,0.12 0.14,0.07 0.29,0.06 0.43,-0.01 0.05,-0.02 0.13,-0.08 0.15,-0.13 -0.02,-0.02 -0.06,-0.03 -0.08,-0.07 -0.01,0.01 -0.04,0.03 -0.06,0.04 -0.02,0.02 -0.03,0.03 -0.05,0.05 -0.04,0.02 -0.09,0.05 -0.16,0.05z"/>
    <polygon class="fil3" points="1.39,4.59 1.5,4.59 1.5,4.11 1.39,4.11 "/>
    <polygon class="fil3" points="3.89,4.58 3.98,4.58 4,4.58 4,4.12 3.98,4.12 3.89,4.12 "/>
    <path class="fil3" d="M2.93 1.79c-0.07,0.02 -0.12,0.06 -0.1,0.15 0.02,0.06 0.08,0.11 0.16,0.09 0.15,-0.03 0.13,-0.27 -0.06,-0.24z"/>
    <path class="fil3" d="M2.26 1.79c-0.18,0.04 -0.11,0.28 0.05,0.24 0.07,-0.01 0.11,-0.07 0.1,-0.15 -0.01,-0.06 -0.07,-0.1 -0.15,-0.09z"/>
    <path class="fil3 str1" d="M3.48 1.9c0.03,0.03 0.12,0.03 0.15,0.05 0.04,0.03 0,0.12 -0.01,0.16 -0.02,0.06 -0.01,0.12 -0.04,0.17 -0.04,0.05 -0.09,0.04 -0.17,0.04 -0.04,0.1 -0.02,0.1 -0.1,0.22 -0.04,0.05 -0.11,0.13 -0.16,0.17 -0.14,0.09 -0.27,0.17 -0.49,0.16 -0.1,0 -0.2,0 -0.29,-0.03 -0.09,-0.03 -0.14,-0.07 -0.21,-0.13 -0.04,-0.03 -0.12,-0.12 -0.16,-0.17 -0.05,-0.07 -0.07,-0.13 -0.1,-0.22 -0.05,-0.01 -0.11,-0.01 -0.14,-0.02 -0.04,-0.02 -0.05,-0.06 -0.06,-0.11 -0.02,-0.07 -0.07,-0.19 -0.03,-0.26l0.14 -0.02c0,-0.06 -0.02,-0.11 -0.03,-0.18 0,-0.03 0.02,-0.13 0.03,-0.17 0.02,-0.06 0.05,-0.08 0.1,-0.1 0.06,-0.03 0.11,-0.04 0.16,-0.01 0.15,0.11 0.32,0.25 0.57,0.25 0.19,-0.01 0.38,-0.09 0.52,-0.2 0.09,-0.07 0.11,-0.1 0.2,-0.03 0.03,0.02 0.09,0.07 0.11,0.1 0.07,0.09 0.04,0.21 0.01,0.33zm-1.23 -1.29c-0.18,0.08 -0.33,0.23 -0.42,0.35 -0.08,0.1 -0.13,0.19 -0.16,0.36 -0.02,0.08 -0.02,0.17 -0.02,0.25 0,0.09 0.02,0.16 0.02,0.24 -0.07,0.01 -0.1,0.04 -0.12,0.1 -0.02,0.07 -0.01,0.13 0,0.2 0.09,0.41 0.22,0.24 0.3,0.38 0.03,0.07 0.02,0.07 0.08,0.15l0.1 0.12c0.03,0.03 0.07,0.07 0.13,0.09 0,0.05 0,0.25 0,0.29 -0.01,0.04 -0.02,0.04 -0.06,0.05 -0.16,0.01 -0.49,0.08 -0.67,0.11 -0.12,0.02 -0.22,0.04 -0.32,0.09 -0.05,0.02 -0.08,0.04 -0.12,0.06 -0.12,0.09 -0.21,0.22 -0.24,0.36 -0.03,0.09 -0.02,0.28 -0.02,0.38 0,0.14 0,0.27 0,0.4 0.08,0 0.12,0.01 0.13,-0.04l0 -0.47c0,-0.19 -0.01,-0.37 0.15,-0.49 0.07,-0.06 0.11,-0.08 0.2,-0.12 0.17,-0.05 0.36,-0.07 0.54,-0.1 0.09,-0.02 0.19,-0.04 0.28,-0.05 0.01,0.1 0.02,0.15 0.07,0.23 0.07,0.12 0.19,0.21 0.32,0.26 0.06,0.03 0.16,0.06 0.24,0.05 0.28,-0.01 0.64,-0.23 0.64,-0.54l0.7 0.12c0.24,0.03 0.45,0.2 0.47,0.45 0.01,0.23 0.01,0.46 0.02,0.69l0.11 0.01 0 -0.7c-0.05,-0.28 -0.19,-0.5 -0.63,-0.58 -0.23,-0.04 -0.47,-0.08 -0.7,-0.12 -0.07,-0.01 -0.1,-0.02 -0.09,-0.1 0,-0.08 0,-0.18 0,-0.26 0.05,-0.03 0.09,-0.07 0.13,-0.11 0.05,-0.05 0.16,-0.18 0.18,-0.28 0.21,-0.01 0.21,-0.16 0.24,-0.28 0.01,-0.04 0.03,-0.06 0.04,-0.1 0,-0.03 0,-0.08 -0.01,-0.11 -0.02,-0.07 -0.07,-0.11 -0.14,-0.13 0,-0.24 0.04,-0.36 -0.04,-0.6 -0.06,-0.17 -0.1,-0.25 -0.21,-0.36 -0.05,-0.05 -0.05,-0.05 -0.09,-0.08 -0.04,-0.04 -0.1,-0.08 -0.15,-0.11 -0.18,-0.11 -0.33,-0.13 -0.55,-0.12 -0.07,0 -0.2,0.01 -0.33,0.06zm-0.31 0.42c0.09,-0.11 0.19,-0.23 0.4,-0.32 0.07,-0.03 0.1,-0.04 0.2,-0.05 0.14,-0.01 0.3,0.01 0.43,0.06 0.1,0.04 0.16,0.09 0.23,0.15 0.09,0.07 0.1,0.08 0.18,0.19 0.04,0.06 0.14,0.28 0.13,0.37 -0.04,-0.03 -0.13,-0.09 -0.19,-0.11 -0.05,-0.02 -0.09,-0.02 -0.12,0.01 -0.04,0.02 -0.06,0.04 -0.09,0.06 -0.3,0.22 -0.56,0.27 -0.89,0.02 -0.04,-0.02 -0.06,-0.04 -0.09,-0.06 -0.04,-0.03 -0.06,-0.05 -0.12,-0.04 -0.13,0.01 -0.18,0.07 -0.23,0.08 0,-0.16 0.11,-0.3 0.16,-0.36zm0.71 2.71c0.02,0 0.05,0 0.06,0 0.03,0 0.06,-0.01 0.08,-0.01 0.21,-0.04 0.4,-0.23 0.4,-0.43 -0.09,-0.03 -0.13,-0.08 -0.13,-0.17l0.01 -0.24 0 0c-0.02,0.01 -0.03,0.01 -0.04,0.02 -0.1,0.05 -0.24,0.09 -0.38,0.09 -0.1,0 -0.2,-0.01 -0.3,-0.04 -0.03,-0.01 -0.06,-0.03 -0.08,-0.04 0,0.08 0.01,0.18 0,0.26 -0.01,0.07 -0.07,0.1 -0.12,0.12 0,0.23 0.21,0.4 0.39,0.43 0.06,0.01 0.09,0.01 0.11,0.01z"/>
   </g>
   <g>
    <path class="fil4 str2" d="M7.85 1.69l0.02 0c0.02,-0.01 0.03,-0.03 0.02,-0.05 0.01,-0.01 0.04,-0.02 0.04,-0.05 0,-0.01 -0.02,-0.05 -0.02,-0.07 0.01,0 0.02,-0.01 0.03,-0.01 0.03,-0.02 0.07,-0.04 0.06,-0.09 0,-0.03 -0.04,-0.1 -0.06,-0.13 -0.03,-0.04 -0.05,-0.08 -0.08,-0.12 -0.02,-0.03 -0.02,-0.03 -0.01,-0.07 0.02,-0.15 0,-0.21 -0.09,-0.33 -0.06,-0.08 -0.17,-0.15 -0.27,-0.19 -0.22,-0.09 -0.49,-0.09 -0.7,0.01 -0.16,0.07 -0.33,0.24 -0.34,0.46 0,0.1 0.05,0.22 0.1,0.29l0.15 0.25c0.07,0.11 0.06,0.14 -0.03,0.26 -0.03,0.03 -0.05,0.05 -0.07,0.08 -0.01,0.01 -0.02,0.02 -0.03,0.02 -0.01,0.02 -0.04,0.04 -0.04,0.06 0,0.01 0.01,0.02 0.02,0.03 0.02,0.01 0.43,0 0.48,0l0.33 0c0.1,0 -0.03,-0.03 0.2,-0.1 0.07,-0.02 0.11,-0.02 0.18,-0.04 0.16,-0.03 0.2,-0.11 0.11,-0.21l0 0z"/>
    <path class="fil5 str2" d="M6.43 2.98l0.01 0c0.03,-0.01 0.03,-0.03 0.02,-0.05 0.02,-0.01 0.04,-0.03 0.04,-0.05 0,-0.01 -0.02,-0.05 -0.02,-0.07 0.01,0 0.02,-0.01 0.03,-0.01 0.04,-0.02 0.07,-0.04 0.07,-0.09 -0.01,-0.03 -0.05,-0.1 -0.07,-0.13 -0.03,-0.04 -0.05,-0.08 -0.08,-0.12 -0.02,-0.03 -0.01,-0.03 -0.01,-0.07 0.02,-0.15 0,-0.21 -0.09,-0.33 -0.06,-0.08 -0.16,-0.15 -0.26,-0.19 -0.23,-0.1 -0.5,-0.09 -0.71,0.01 -0.16,0.07 -0.33,0.24 -0.33,0.46 0,0.1 0.04,0.22 0.09,0.29l0.15 0.24c0.08,0.12 0.06,0.15 -0.03,0.27 -0.02,0.03 -0.05,0.05 -0.07,0.08 -0.01,0.01 -0.02,0.02 -0.03,0.02 -0.01,0.02 -0.04,0.04 -0.04,0.06 0,0.01 0.01,0.02 0.02,0.03 0.02,0.01 0.43,0 0.48,0l0.33 0c0.1,0 -0.03,-0.03 0.21,-0.1 0.06,-0.02 0.11,-0.02 0.17,-0.04 0.16,-0.03 0.2,-0.11 0.12,-0.21l0 0z"/>
    <path class="fil6 str2" d="M7.84 4.28l0.02 -0.01c0.02,-0.01 0.02,-0.03 0.02,-0.04 0.01,-0.01 0.04,-0.03 0.04,-0.05 0,-0.02 -0.02,-0.06 -0.03,-0.07 0.01,-0.01 0.03,-0.01 0.04,-0.02 0.03,-0.01 0.07,-0.04 0.06,-0.08 -0.01,-0.04 -0.05,-0.1 -0.06,-0.13 -0.03,-0.05 -0.05,-0.08 -0.08,-0.12 -0.03,-0.04 -0.02,-0.03 -0.01,-0.08 0.02,-0.15 -0.01,-0.21 -0.09,-0.33 -0.06,-0.07 -0.17,-0.15 -0.27,-0.19 -0.22,-0.09 -0.49,-0.08 -0.71,0.01 -0.15,0.07 -0.33,0.25 -0.33,0.46 0,0.1 0.05,0.22 0.09,0.3l0.16 0.24c0.07,0.11 0.05,0.14 -0.04,0.26 -0.02,0.03 -0.05,0.06 -0.07,0.08 0,0.01 -0.01,0.02 -0.02,0.03 -0.02,0.01 -0.04,0.03 -0.04,0.05 0,0.01 0.01,0.03 0.02,0.03 0.01,0.01 0.43,0 0.48,0l0.32 0c0.11,0 -0.02,-0.02 0.21,-0.1 0.06,-0.02 0.11,-0.02 0.18,-0.03 0.15,-0.03 0.19,-0.11 0.11,-0.21l0 0z"/>
    <path class="fil7 str2" d="M9.14 3.05l0.02 -0.01c0.02,0 0.03,-0.02 0.02,-0.04 0.01,-0.01 0.04,-0.03 0.04,-0.05 0,-0.02 -0.02,-0.05 -0.02,-0.07 0.01,-0.01 0.02,-0.01 0.03,-0.02 0.03,-0.01 0.07,-0.04 0.06,-0.08 0,-0.04 -0.04,-0.1 -0.06,-0.13 -0.03,-0.04 -0.05,-0.08 -0.08,-0.12 -0.02,-0.04 -0.02,-0.03 -0.01,-0.08 0.02,-0.14 0,-0.21 -0.09,-0.32 -0.06,-0.08 -0.17,-0.16 -0.27,-0.2 -0.22,-0.09 -0.49,-0.08 -0.7,0.01 -0.16,0.07 -0.33,0.25 -0.34,0.47 0,0.1 0.05,0.21 0.1,0.29l0.15 0.24c0.07,0.11 0.06,0.14 -0.03,0.26 -0.03,0.03 -0.05,0.06 -0.07,0.08 -0.01,0.01 -0.02,0.02 -0.03,0.03 -0.01,0.01 -0.04,0.03 -0.04,0.05 0,0.01 0.01,0.03 0.02,0.03 0.02,0.01 0.43,0 0.48,0l0.33 0c0.1,0.01 -0.03,-0.02 0.2,-0.1 0.07,-0.01 0.11,-0.02 0.18,-0.03 0.16,-0.03 0.2,-0.11 0.11,-0.21l0 0z"/>
   </g>
  </g>
 </g>
</svg>
