<?xml version="1.0" encoding="UTF-8"?>
<!DOCTYPE svg PUBLIC "-//W3C//DTD SVG 1.1//EN" "http://www.w3.org/Graphics/SVG/1.1/DTD/svg11.dtd">
<!-- Creator: CorelDRAW 2021 (64 Bit) -->
<svg xmlns="http://www.w3.org/2000/svg" xml:space="preserve" width="725px" height="375px" version="1.1" style="shape-rendering:geometricPrecision; text-rendering:geometricPrecision; image-rendering:optimizeQuality; fill-rule:evenodd; clip-rule:evenodd"
viewBox="0 0 10.01 5.18"
 xmlns:xlink="http://www.w3.org/1999/xlink"
 xmlns:xodm="http://www.corel.com/coreldraw/odm/2003">
 <defs>
  <style type="text/css">
   <![CDATA[
    .str8 {stroke:black;stroke-width:0.01;stroke-miterlimit:22.9256}
    .str9 {stroke:#6B4646;stroke-width:0.01;stroke-miterlimit:22.9256}
    .str4 {stroke:blue;stroke-width:0.11;stroke-miterlimit:22.9256}
    .str2 {stroke:#006633;stroke-width:0.11;stroke-miterlimit:22.9256}
    .str3 {stroke:red;stroke-width:0.11;stroke-miterlimit:22.9256}
    .str11 {stroke:#6B4646;stroke-width:0.07;stroke-miterlimit:22.9256}
    .str0 {stroke:#B8B4B6;stroke-width:0.35;stroke-miterlimit:22.9256}
    .str6 {stroke:#00AFEF;stroke-width:0.01;stroke-miterlimit:22.9256}
    .str1 {stroke:black;stroke-width:0.01;stroke-miterlimit:22.9256}
    .str10 {stroke:#6B4646;stroke-width:0.01;stroke-miterlimit:22.9256}
    .str5 {stroke:#FAAC04;stroke-width:0.01;stroke-miterlimit:22.9256}
    .str7 {stroke:yellow;stroke-width:0.01;stroke-miterlimit:22.9256}
    .fil16 {fill:none}
    .fil15 {fill:#D7CC75}
    .fil12 {fill:#FAA954}
    .fil13 {fill:#00AFEF}
    .fil18 {fill:#00A859}
    .fil3 {fill:black}
    .fil0 {fill:aqua}
    .fil4 {fill:#33CC66}
    .fil10 {fill:#6699FF}
    .fil8 {fill:#999999}
    .fil11 {fill:#CC9933}
    .fil17 {fill:#CCCC33}
    .fil7 {fill:#CCCCCC}
    .fil5 {fill:#E6E6E6}
    .fil9 {fill:#FF6600}
    .fil14 {fill:yellow}
    .fil2 {fill:white}
    .fil1 {fill:white}
    .fil6 {fill:black;fill-rule:nonzero}
   ]]>
  </style>
 </defs>
 <g id="Camada_x0020_1">
  <metadata id="CorelCorpID_0Corel-Layer"/>
  <g id="_2713760905184">
   <rect class="fil0" x="0.32" y="0.27" width="9.38" height="4.63"/>
   <rect class="fil1 str0" x="0.17" y="0.17" width="9.67" height="4.83" rx="0.45" ry="0.41"/>
   <g>
    <path class="fil2" d="M2.72 2.46c0.06,0 0.11,-0.02 0.15,-0.05 0.02,-0.01 0.04,-0.03 0.06,-0.04 0.01,-0.01 0.04,-0.04 0.06,-0.04 0.02,0.04 0.06,0.05 0.07,0.06 -0.01,0.05 -0.1,0.11 -0.14,0.13 -0.14,0.08 -0.3,0.09 -0.44,0.02 -0.04,-0.02 -0.13,-0.08 -0.14,-0.12 0.01,-0.02 0.06,-0.07 0.09,-0.08 0.06,0.1 0.17,0.12 0.29,0.12zm0.26 -0.71c0.18,-0.04 0.2,0.21 0.05,0.24 -0.08,0.02 -0.14,-0.03 -0.15,-0.09 -0.02,-0.09 0.03,-0.14 0.1,-0.15zm-0.67 0c0.07,-0.02 0.14,0.02 0.15,0.09 0.01,0.08 -0.04,0.14 -0.1,0.15 -0.16,0.03 -0.23,-0.21 -0.05,-0.24zm1.22 0.1c0.03,-0.11 0.05,-0.24 -0.01,-0.33 -0.03,-0.03 -0.08,-0.08 -0.11,-0.1 -0.1,-0.06 -0.12,-0.03 -0.2,0.03 -0.14,0.11 -0.33,0.2 -0.52,0.2 -0.26,0.01 -0.43,-0.14 -0.57,-0.24 -0.05,-0.04 -0.1,-0.02 -0.16,0 -0.06,0.03 -0.09,0.04 -0.1,0.11 -0.01,0.04 -0.03,0.13 -0.03,0.17 0.01,0.06 0.03,0.11 0.02,0.18l-0.14 0.02c-0.04,0.07 0.02,0.19 0.04,0.26 0.01,0.04 0.02,0.08 0.05,0.1 0.04,0.02 0.1,0.02 0.14,0.02 0.03,0.1 0.06,0.16 0.11,0.23 0.03,0.04 0.11,0.14 0.15,0.17 0.07,0.06 0.12,0.09 0.21,0.12 0.09,0.03 0.19,0.04 0.29,0.04 0.23,0 0.36,-0.07 0.5,-0.17 0.04,-0.03 0.12,-0.12 0.16,-0.17 0.07,-0.11 0.06,-0.12 0.1,-0.22 0.07,0 0.13,0.02 0.16,-0.04 0.04,-0.05 0.03,-0.1 0.05,-0.16 0.01,-0.04 0.05,-0.13 0.01,-0.16 -0.04,-0.03 -0.12,-0.03 -0.15,-0.06z"/>
    <path class="fil3" d="M2.72 2.46c-0.12,0 -0.23,-0.02 -0.29,-0.12 -0.03,0.01 -0.08,0.06 -0.09,0.08 0.01,0.04 0.1,0.1 0.14,0.12 0.14,0.07 0.3,0.06 0.44,-0.02 0.04,-0.02 0.13,-0.08 0.14,-0.13 -0.01,-0.01 -0.05,-0.02 -0.07,-0.06 -0.02,0 -0.05,0.03 -0.06,0.04 -0.02,0.01 -0.04,0.03 -0.06,0.04 -0.04,0.03 -0.09,0.05 -0.15,0.05z"/>
    <polygon class="fil3" points="1.43,4.55 1.54,4.55 1.54,4.06 1.43,4.06 "/>
    <polygon class="fil3" points="3.94,4.53 4.03,4.53 4.05,4.53 4.05,4.08 4.03,4.08 3.94,4.08 "/>
    <path class="fil3" d="M2.98 1.75c-0.07,0.01 -0.12,0.06 -0.1,0.15 0.01,0.06 0.07,0.11 0.15,0.09 0.15,-0.03 0.13,-0.28 -0.05,-0.24z"/>
    <path class="fil3" d="M2.31 1.75c-0.18,0.03 -0.11,0.27 0.05,0.24 0.06,-0.01 0.11,-0.07 0.1,-0.15 -0.01,-0.07 -0.08,-0.11 -0.15,-0.09z"/>
    <path class="fil3 str1" d="M3.53 1.85c0.03,0.03 0.11,0.03 0.15,0.06 0.04,0.03 0,0.12 -0.01,0.16 -0.02,0.06 -0.01,0.11 -0.05,0.16 -0.03,0.06 -0.09,0.04 -0.16,0.04 -0.04,0.1 -0.03,0.11 -0.1,0.22 -0.04,0.05 -0.12,0.14 -0.16,0.17 -0.14,0.1 -0.27,0.17 -0.5,0.17 -0.1,0 -0.2,-0.01 -0.29,-0.04 -0.09,-0.03 -0.14,-0.06 -0.21,-0.12 -0.04,-0.03 -0.12,-0.13 -0.15,-0.17 -0.05,-0.07 -0.08,-0.13 -0.11,-0.23 -0.04,0 -0.1,0 -0.14,-0.02 -0.03,-0.02 -0.04,-0.06 -0.05,-0.1 -0.02,-0.07 -0.08,-0.19 -0.04,-0.26l0.14 -0.02c0.01,-0.07 -0.01,-0.12 -0.02,-0.18 0,-0.04 0.02,-0.13 0.03,-0.17 0.01,-0.07 0.04,-0.08 0.1,-0.11 0.06,-0.02 0.11,-0.04 0.16,0 0.14,0.1 0.31,0.25 0.57,0.24 0.19,0 0.38,-0.09 0.52,-0.2 0.08,-0.06 0.1,-0.09 0.2,-0.03 0.03,0.02 0.08,0.07 0.11,0.1 0.06,0.09 0.04,0.22 0.01,0.33zm-1.24 -1.28c-0.17,0.08 -0.33,0.22 -0.41,0.35 -0.08,0.1 -0.14,0.18 -0.17,0.35 -0.01,0.08 -0.01,0.17 -0.01,0.25 0,0.09 0.02,0.16 0.02,0.25 -0.07,0.01 -0.1,0.03 -0.12,0.1 -0.02,0.07 -0.01,0.13 0,0.2 0.09,0.41 0.22,0.24 0.29,0.38 0.04,0.07 0.03,0.07 0.08,0.14l0.11 0.12c0.03,0.04 0.07,0.08 0.12,0.1 0,0.05 0.01,0.25 0,0.29 0,0.03 -0.02,0.04 -0.05,0.04 -0.17,0.02 -0.5,0.09 -0.68,0.12 -0.11,0.02 -0.21,0.04 -0.31,0.08 -0.05,0.02 -0.08,0.04 -0.13,0.07 -0.12,0.08 -0.2,0.21 -0.24,0.35 -0.02,0.09 -0.01,0.29 -0.01,0.39 0,0.13 0,0.26 0,0.4 0.08,0 0.12,0.01 0.12,-0.04l0 -0.48c0,-0.18 0,-0.37 0.16,-0.49 0.07,-0.05 0.11,-0.08 0.2,-0.11 0.17,-0.06 0.36,-0.08 0.54,-0.11 0.09,-0.02 0.18,-0.04 0.28,-0.04 0.01,0.1 0.01,0.14 0.06,0.22 0.08,0.13 0.19,0.22 0.32,0.27 0.07,0.02 0.17,0.05 0.25,0.05 0.28,-0.01 0.63,-0.24 0.64,-0.54l0.69 0.12c0.24,0.03 0.46,0.2 0.48,0.44 0,0.23 0.01,0.46 0.01,0.7l0.12 0.01 0 -0.7c-0.05,-0.29 -0.19,-0.51 -0.64,-0.58 -0.23,-0.04 -0.46,-0.08 -0.69,-0.12 -0.08,-0.02 -0.11,-0.02 -0.1,-0.11 0,-0.07 0,-0.18 0,-0.26 0.05,-0.03 0.09,-0.06 0.13,-0.1 0.05,-0.05 0.17,-0.19 0.19,-0.29 0.2,0 0.21,-0.15 0.24,-0.27 0.01,-0.04 0.02,-0.06 0.03,-0.1 0.01,-0.04 0.01,-0.08 0,-0.12 -0.03,-0.06 -0.07,-0.1 -0.14,-0.12 0,-0.25 0.04,-0.37 -0.04,-0.6 -0.06,-0.17 -0.1,-0.25 -0.22,-0.37 -0.05,-0.05 -0.04,-0.04 -0.09,-0.08 -0.03,-0.03 -0.1,-0.07 -0.14,-0.1 -0.18,-0.11 -0.34,-0.14 -0.55,-0.13 -0.07,0 -0.21,0.01 -0.34,0.07zm-0.31 0.42c0.1,-0.11 0.2,-0.23 0.4,-0.32 0.07,-0.04 0.11,-0.05 0.2,-0.05 0.15,-0.01 0.31,0.01 0.44,0.06 0.1,0.04 0.15,0.08 0.23,0.14 0.09,0.08 0.1,0.09 0.17,0.2 0.04,0.06 0.15,0.27 0.14,0.36 -0.05,-0.03 -0.14,-0.09 -0.19,-0.11 -0.05,-0.02 -0.09,-0.01 -0.13,0.01 -0.03,0.02 -0.06,0.05 -0.09,0.07 -0.3,0.22 -0.56,0.27 -0.89,0.02 -0.03,-0.03 -0.06,-0.05 -0.09,-0.07 -0.04,-0.03 -0.06,-0.04 -0.12,-0.04 -0.12,0.01 -0.17,0.07 -0.23,0.09 0.01,-0.16 0.12,-0.31 0.16,-0.36zm0.72 2.71c0.02,0 0.04,0 0.06,-0.01 0.03,0 0.06,0 0.08,-0.01 0.21,-0.03 0.39,-0.23 0.4,-0.42 -0.09,-0.03 -0.14,-0.09 -0.13,-0.17l0 -0.24 0 0c-0.01,0 -0.02,0.01 -0.03,0.02 -0.11,0.05 -0.25,0.08 -0.38,0.09 -0.11,0 -0.21,-0.01 -0.31,-0.05 -0.02,-0.01 -0.05,-0.02 -0.07,-0.03 -0.01,0.08 0,0.17 0,0.25 -0.01,0.08 -0.07,0.1 -0.13,0.13 0.01,0.23 0.21,0.4 0.4,0.43 0.05,0 0.08,0.01 0.11,0.01z"/>
   </g>
   <g>
    <g>
     <path class="fil4 str2" d="M7.57 3.42l0.01 -0.02 0.72 -0.8 0.22 0.21c0,-0.03 0,-0.07 0,-0.1 0,-0.02 0,-0.02 0.02,-0.02 0.05,0 0.1,0 0.15,0 0.03,0 0.03,0 0.03,0.02l0 0.32 0.32 0.39 -0.2 0c-0.03,0.01 -0.03,0 -0.03,0.04l0 0.62 -1 0.01c0,-0.22 0,-0.42 -0.01,-0.63 0,-0.04 0,-0.04 -0.04,-0.04 -0.05,0 -0.13,0 -0.19,0z"/>
     <g>
      <g>
       <polygon class="fil5" points="8.71,3.55 8.44,3.55 8.44,4.07 8.71,4.07 "/>
       <path id="_1" class="fil6" d="M8.44 3.54l0.27 0 0 0.03 -0.27 0 -0.02 -0.02 0.02 -0.01zm-0.02 0.01l0 -0.01 0.02 0 -0.02 0.01zm0 0.52l0 -0.52 0.03 0 0 0.52 -0.01 0.01 -0.02 -0.01zm0.02 0.01l-0.02 0 0 -0.01 0.02 0.01zm0.27 0l-0.27 0 0 -0.03 0.27 0 0.02 0.02 -0.02 0.01zm0.02 -0.01l0 0.01 -0.02 0 0.02 -0.01zm0 -0.52l0 0.52 -0.03 0 0 -0.52 0.01 -0.01 0.02 0.01zm-0.02 -0.01l0.02 0 0 0.01 -0.02 -0.01z"/>
      </g>
      <g>
       <polygon class="fil7" points="8.2,3.54 7.92,3.54 7.92,3.79 8.2,3.79 "/>
       <path id="_1_0" class="fil6" d="M7.92 3.52l0.28 0 0 0.03 -0.28 0 -0.01 -0.01 0.01 -0.02zm-0.01 0.02l0 -0.02 0.01 0 -0.01 0.02zm0 0.25l0 -0.25 0.03 0 0 0.25 -0.02 0.02 -0.01 -0.02zm0.01 0.02l-0.01 0 0 -0.02 0.01 0.02zm0.28 0l-0.28 0 0 -0.03 0.28 0 0.02 0.01 -0.02 0.02zm0.02 -0.02l0 0.02 -0.02 0 0.02 -0.02zm0 -0.25l0 0.25 -0.03 0 0 -0.25 0.01 -0.02 0.02 0.02zm-0.02 -0.02l0.02 0 0 0.02 -0.02 -0.02z"/>
      </g>
      <g>
       <polygon class="fil8" points="8.17,3.06 8.45,3.06 8.45,3.17 8.17,3.17 "/>
       <path id="_1_1" class="fil6" d="M8.45 3.07l-0.28 0 0 -0.03 0.28 0 0.01 0.02 -0.01 0.01zm0 -0.03l0.01 0 0 0.02 -0.01 -0.02zm-0.01 0.13l0 -0.11 0.02 0 0 0.11 -0.01 0.01 -0.01 -0.01zm0.02 0l0 0.01 -0.01 0 0.01 -0.01zm-0.29 -0.02l0.28 0 0 0.03 -0.28 0 -0.01 -0.01 0.01 -0.02zm0 0.03l-0.01 0 0 -0.01 0.01 0.01zm0.01 -0.12l0 0.11 -0.02 0 0 -0.11 0.01 -0.02 0.01 0.02zm-0.02 0l0 -0.02 0.01 0 -0.01 0.02z"/>
      </g>
     </g>
    </g>
    <g>
     <path class="fil9 str3" d="M5.32 3.42l0.02 -0.02 0.72 -0.8 0.22 0.21c0,-0.03 0,-0.07 0,-0.1 0,-0.02 0,-0.02 0.02,-0.02 0.05,0 0.1,0 0.15,0 0.03,0 0.03,0 0.03,0.02l0 0.32 0.32 0.39 -0.2 0c-0.03,0.01 -0.03,0 -0.03,0.04l0 0.62 -1 0.01c0,-0.22 -0.01,-0.42 -0.01,-0.63 0,-0.04 0,-0.04 -0.04,-0.04 -0.06,0 -0.13,0 -0.2,0z"/>
     <g id="_2713560923872">
      <g>
       <polygon class="fil5" points="5.68,3.55 5.96,3.55 5.96,4.07 5.68,4.07 "/>
       <path id="_1_2" class="fil6" d="M5.96 3.56l-0.28 0 0 -0.02 0.28 0 0.02 0.01 -0.02 0.01zm0 -0.02l0.02 0 0 0.01 -0.02 -0.01zm-0.01 0.53l0 -0.52 0.03 0 0 0.52 -0.02 0.01 -0.01 -0.01zm0.03 0l0 0.01 -0.02 0 0.02 -0.01zm-0.3 -0.02l0.28 0 0 0.03 -0.28 0 -0.01 -0.01 0.01 -0.02zm0 0.03l-0.01 0 0 -0.01 0.01 0.01zm0.02 -0.53l0 0.52 -0.03 0 0 -0.52 0.01 -0.01 0.02 0.01zm-0.03 0l0 -0.01 0.01 0 -0.01 0.01z"/>
      </g>
      <g>
       <polygon class="fil7" points="6.2,3.54 6.48,3.54 6.48,3.79 6.2,3.79 "/>
       <path id="_1_3" class="fil6" d="M6.48 3.55l-0.28 0 0 -0.03 0.28 0 0.01 0.02 -0.01 0.01zm0 -0.03l0.01 0 0 0.02 -0.01 -0.02zm-0.02 0.27l0 -0.25 0.03 0 0 0.25 -0.01 0.02 -0.02 -0.02zm0.03 0l0 0.02 -0.01 0 0.01 -0.02zm-0.29 -0.01l0.28 0 0 0.03 -0.28 0 -0.02 -0.02 0.02 -0.01zm0 0.03l-0.02 0 0 -0.02 0.02 0.02zm0.01 -0.27l0 0.25 -0.03 0 0 -0.25 0.02 -0.02 0.01 0.02zm-0.03 0l0 -0.02 0.02 0 -0.02 0.02z"/>
      </g>
      <g>
       <polygon class="fil8" points="5.95,3.05 6.23,3.05 6.23,3.16 5.95,3.16 "/>
       <path id="_1_4" class="fil6" d="M6.23 3.06l-0.28 0 0 -0.02 0.28 0 0.02 0.01 -0.02 0.01zm0 -0.02l0.02 0 0 0.01 -0.02 -0.01zm-0.01 0.12l0 -0.11 0.03 0 0 0.11 -0.02 0.01 -0.01 -0.01zm0.03 0l0 0.01 -0.02 0 0.02 -0.01zm-0.3 -0.01l0.28 0 0 0.02 -0.28 0 -0.01 -0.01 0.01 -0.01zm0 0.02l-0.01 0 0 -0.01 0.01 0.01zm0.02 -0.12l0 0.11 -0.03 0 0 -0.11 0.01 -0.01 0.02 0.01zm-0.03 0l0 -0.01 0.01 0 -0.01 0.01z"/>
      </g>
     </g>
    </g>
    <g>
     <path class="fil10 str4" d="M6.42 3.96l0.01 -0.01 0.73 -0.81 0.22 0.21c0,-0.03 0,-0.07 0,-0.1 0,-0.02 0,-0.02 0.01,-0.02 0.05,0 0.1,0 0.15,0 0.03,0 0.03,0 0.03,0.02l0 0.32 0.33 0.4 -0.2 0c-0.04,0 -0.04,-0.01 -0.04,0.03l0 0.63 -0.99 0c-0.01,-0.21 -0.01,-0.42 -0.02,-0.63 0,-0.04 0,-0.04 -0.04,-0.04 -0.05,0 -0.12,0 -0.19,0z"/>
     <g>
      <g>
       <polygon class="fil5" points="6.77,4.09 7.05,4.09 7.05,4.61 6.77,4.61 "/>
       <path id="_1_5" class="fil6" d="M7.05 4.1l-0.28 0 0 -0.02 0.28 0 0.01 0.01 -0.01 0.01zm0 -0.02l0.01 0 0 0.01 -0.01 -0.01zm-0.01 0.53l0 -0.52 0.02 0 0 0.52 -0.01 0.01 -0.01 -0.01zm0.02 0l0 0.01 -0.01 0 0.01 -0.01zm-0.29 -0.02l0.28 0 0 0.03 -0.28 0 -0.01 -0.01 0.01 -0.02zm0 0.03l-0.01 0 0 -0.01 0.01 0.01zm0.02 -0.53l0 0.52 -0.03 0 0 -0.52 0.01 -0.01 0.02 0.01zm-0.03 0l0 -0.01 0.01 0 -0.01 0.01z"/>
      </g>
      <g>
       <polygon class="fil7" points="7.28,4.08 7.57,4.08 7.57,4.33 7.28,4.33 "/>
       <path id="_1_6" class="fil6" d="M7.57 4.09l-0.29 0 0 -0.03 0.29 0 0.01 0.02 -0.01 0.01zm0 -0.03l0.01 0 0 0.02 -0.01 -0.02zm-0.02 0.27l0 -0.25 0.03 0 0 0.25 -0.01 0.02 -0.02 -0.02zm0.03 0l0 0.02 -0.01 0 0.01 -0.02zm-0.3 -0.01l0.29 0 0 0.03 -0.29 0 -0.01 -0.02 0.01 -0.01zm0 0.03l-0.01 0 0 -0.02 0.01 0.02zm0.02 -0.27l0 0.25 -0.03 0 0 -0.25 0.01 -0.02 0.02 0.02zm-0.03 0l0 -0.02 0.01 0 -0.01 0.02z"/>
      </g>
      <g>
       <polygon class="fil8" points="7.01,3.58 7.29,3.58 7.29,3.69 7.01,3.69 "/>
       <path id="_1_7" class="fil6" d="M7.29 3.59l-0.28 0 0 -0.03 0.28 0 0.01 0.02 -0.01 0.01zm0 -0.03l0.01 0 0 0.02 -0.01 -0.02zm-0.02 0.13l0 -0.11 0.03 0 0 0.11 -0.01 0.01 -0.02 -0.01zm0.03 0l0 0.01 -0.01 0 0.01 -0.01zm-0.29 -0.02l0.28 0 0 0.03 -0.28 0 -0.02 -0.01 0.02 -0.02zm0 0.03l-0.02 0 0 -0.01 0.02 0.01zm0.01 -0.12l0 0.11 -0.03 0 0 -0.11 0.02 -0.02 0.01 0.02zm-0.03 0l0 -0.02 0.02 0 -0.02 0.02z"/>
      </g>
     </g>
    </g>
    <g>
     <polygon class="fil11" points="6.6,2.09 7.78,2.09 7.78,3.08 6.6,3.08 "/>
     <path id="_1_8" class="fil6" d="M7.78 2.11l-1.18 0 0 -0.04 1.18 0 0.02 0.02 -0.02 0.02zm0 -0.04l0.02 0 0 0.02 -0.02 -0.02zm-0.02 1.01l0 -0.99 0.04 0 0 0.99 -0.02 0.02 -0.02 -0.02zm0.04 0l0 0.02 -0.02 0 0.02 -0.02zm-1.2 -0.02l1.18 0 0 0.04 -1.18 0 -0.02 -0.02 0.02 -0.02zm0 0.04l-0.02 0 0 -0.02 0.02 0.02zm0.02 -1.01l0 0.99 -0.04 0 0 -0.99 0.02 -0.02 0.02 0.02zm-0.04 0l0 -0.02 0.02 0 -0.02 0.02z"/>
    </g>
    <path class="fil12 str5" d="M7.06 2.51l0.11 0 0.01 -0.02 -0.08 -0.07c-0.02,0.02 -0.04,0.05 -0.04,0.09z"/>
    <path class="fil12 str5" d="M7.35 2.51l-0.11 0 0 -0.02 0.07 -0.07c0.02,0.02 0.04,0.05 0.04,0.09z"/>
    <path class="fil13 str6" d="M7.11 2.4l0.07 0.08 0.02 -0.01 0 -0.1c-0.03,0 -0.07,0.01 -0.09,0.03z"/>
    <path class="fil12 str5" d="M7.06 2.51l0.11 0 0.01 -0.02 -0.08 -0.07c-0.02,0.02 -0.04,0.05 -0.04,0.09z"/>
    <path class="fil14 str7" d="M7.22 2.37l-0.01 0.11 0.02 0 0.07 -0.07c-0.02,-0.02 -0.05,-0.04 -0.08,-0.04z"/>
    <path class="fil15 str1" d="M7.06 2.51l0 0.41 0.29 0c0,-0.14 0,-0.25 0,-0.4l-0.29 -0.01z"/>
    <path class="fil16 str8" d="M7.06 2.52l0 0.41 0.3 0 0 -0.41m-0.16 -0.03l0.01 -0.12m-0.03 0.12l-0.08 -0.08m0.13 0.08l0.08 -0.08m-0.14 0.11c0.01,-0.05 0.06,-0.06 0.07,0m-0.18 0l0.3 0m-0.3 0c0.01,-0.1 0.06,-0.15 0.15,-0.15 0.09,0.01 0.14,0.06 0.15,0.15"/>
    <line class="fil16 str1" x1="7.06" y1="2.91" x2="7.35" y2= "2.91" />
    <line class="fil16 str8" x1="7.2" y1="2.91" x2="7.2" y2= "2.52" />
    <line class="fil16 str8" x1="7.23" y1="2.91" x2="7.24" y2= "2.52" />
    <line class="fil16 str8" x1="7.16" y1="2.91" x2="7.16" y2= "2.52" />
    <path class="fil12 str5" d="M6.66 2.19l0.11 0 0 -0.01 -0.07 -0.03c-0.03,0.01 -0.04,0.02 -0.04,0.04z"/>
    <path class="fil12 str5" d="M6.95 2.19l-0.11 0 -0.01 -0.01 0.08 -0.03c0.02,0.01 0.03,0.02 0.04,0.04z"/>
    <path class="fil13 str6" d="M6.7 2.14l0.08 0.04 0.01 -0.01 0 -0.05c-0.03,0 -0.06,0.01 -0.09,0.02z"/>
    <path class="fil12 str5" d="M6.66 2.19l0.11 0 0 -0.01 -0.07 -0.03c-0.03,0.01 -0.04,0.02 -0.04,0.04z"/>
    <path class="fil14 str7" d="M6.81 2.12l0 0.06 0.01 0 0.08 -0.04c-0.02,-0.01 -0.05,-0.02 -0.09,-0.02z"/>
    <path class="fil15 str1" d="M6.66 2.2l0 0.21 0.29 0c0,-0.07 -0.01,-0.13 -0.01,-0.21l-0.28 0z"/>
    <path class="fil16 str8" d="M6.65 2.2l0 0.21 0.3 0 0 -0.21m-0.15 -0.02l0 -0.06m-0.02 0.06l-0.08 -0.04m0.12 0.04l0.09 -0.04m-0.14 0.06c0,-0.03 0.06,-0.03 0.06,0m-0.18 0l0.3 0m-0.3 0c0.01,-0.05 0.06,-0.08 0.15,-0.08 0.1,0 0.15,0.03 0.15,0.08"/>
    <line class="fil16 str1" x1="6.66" y1="2.4" x2="6.95" y2= "2.41" />
    <line class="fil16 str8" x1="6.79" y1="2.41" x2="6.79" y2= "2.2" />
    <line class="fil16 str8" x1="6.83" y1="2.41" x2="6.83" y2= "2.2" />
    <line class="fil16 str8" x1="6.75" y1="2.41" x2="6.76" y2= "2.2" />
    <polygon class="fil17 str9" points="6.9,3.07 6.9,3.03 7.49,3.03 7.49,3.07 "/>
    <polyline class="fil16 str10" points="6.9,3.03 6.95,3.01 7.44,3.01 7.49,3.03 "/>
    <polygon class="fil17 str9" points="6.94,3.01 6.94,2.97 7.45,2.97 7.45,3.01 "/>
    <polyline class="fil16 str10" points="6.94,2.97 6.98,2.96 7.41,2.96 7.45,2.97 "/>
    <polygon class="fil17 str9" points="6.97,2.96 6.97,2.92 7.42,2.92 7.42,2.96 "/>
    <path class="fil12 str5" d="M7.42 2.19l0.11 0 0.01 -0.01 -0.08 -0.03c-0.02,0.01 -0.04,0.02 -0.04,0.04z"/>
    <path class="fil12 str5" d="M7.71 2.19l-0.11 0 -0.01 -0.01 0.08 -0.03c0.02,0.01 0.04,0.02 0.04,0.04z"/>
    <path class="fil13 str6" d="M7.46 2.14l0.08 0.04 0.02 -0.01 -0.01 -0.05c-0.03,0 -0.06,0.01 -0.09,0.02z"/>
    <path class="fil12 str5" d="M7.42 2.19l0.11 0 0.01 -0.01 -0.08 -0.03c-0.02,0.01 -0.04,0.02 -0.04,0.04z"/>
    <path class="fil14 str7" d="M7.58 2.12l-0.01 0.06 0.02 0 0.07 -0.04c-0.02,-0.01 -0.05,-0.02 -0.08,-0.02z"/>
    <path class="fil15 str1" d="M7.42 2.2l0 0.21 0.29 0c0,-0.07 0,-0.13 0,-0.21l-0.29 0z"/>
    <path class="fil16 str8" d="M7.42 2.2l-0.01 0.21 0.3 0 0.01 -0.21m-0.16 -0.02l0.01 -0.06m-0.03 0.06l-0.08 -0.04m0.13 0.04l0.08 -0.04m-0.14 0.06c0.01,-0.03 0.06,-0.03 0.06,0m-0.17 0l0.3 0m-0.3 0c0,-0.05 0.05,-0.08 0.15,-0.08 0.09,0 0.14,0.03 0.15,0.08"/>
    <line class="fil16 str1" x1="7.42" y1="2.4" x2="7.71" y2= "2.41" />
    <line class="fil16 str8" x1="7.56" y1="2.41" x2="7.56" y2= "2.2" />
    <line class="fil16 str8" x1="7.59" y1="2.41" x2="7.6" y2= "2.2" />
    <line class="fil16 str8" x1="7.52" y1="2.41" x2="7.52" y2= "2.2" />
    <rect class="fil8 str11" transform="matrix(4.41552E-15 0.0833601 -0.0488564 6.46967E-16 7.42873 0.595767)" width="0.68" height="9.34"/>
    <rect class="fil8 str11" x="7.17" y="0.4" width="0.06" height="0.68"/>
    <g>
     <polygon class="fil11" points="6.81,2.08 6.81,1.09 7.56,1.09 7.56,1.54 7.56,1.85 7.56,2.08 "/>
     <path id="_1_9" class="fil6" d="M6.83 1.09l0 0.99 -0.04 0 0 -0.99 0.02 -0.02 0.02 0.02zm-0.04 0l0 -0.02 0.02 0 -0.02 0.02zm0.77 0.02l-0.75 0 0 -0.04 0.75 0 0.02 0.02 -0.02 0.02zm0 -0.04l0.02 0 0 0.02 -0.02 -0.02zm-0.02 0.47l0 -0.45 0.04 0 0 0.45 0 0 -0.04 0zm0 0.31l0 -0.31 0.04 0 0 0.31 0 0 -0.04 0zm0 0.23l0 -0.23 0.04 0 0 0.23 -0.02 0.02 -0.02 -0.02zm0.04 0l0 0.02 -0.02 0 0.02 -0.02zm-0.77 -0.02l0.75 0 0 0.04 -0.75 0 -0.02 -0.02 0.02 -0.02zm0 0.04l-0.02 0 0 -0.02 0.02 0.02z"/>
    </g>
    <path class="fil12 str5" d="M7.08 1.64l0.08 0 0 -0.01 -0.06 -0.07c-0.01,0.02 -0.02,0.05 -0.02,0.08z"/>
    <path class="fil12 str5" d="M7.29 1.64l-0.08 0 -0.01 -0.01 0.06 -0.07c0.02,0.02 0.03,0.05 0.03,0.08z"/>
    <path class="fil13 str6" d="M7.11 1.54l0.05 0.08 0.02 -0.01 -0.01 -0.1c-0.02,-0.01 -0.04,0.01 -0.06,0.03z"/>
    <path class="fil12 str5" d="M7.08 1.64l0.08 0 0 -0.01 -0.06 -0.07c-0.01,0.02 -0.02,0.05 -0.02,0.08z"/>
    <path class="fil14 str7" d="M7.19 1.5l0 0.11 0.01 0.01 0.05 -0.07c-0.01,-0.03 -0.04,-0.04 -0.06,-0.05z"/>
    <path class="fil15 str1" d="M7.07 1.65l0 0.41 0.22 0c0,-0.14 0,-0.25 0,-0.41l-0.22 0z"/>
    <path class="fil16 str8" d="M7.07 1.65l0 0.41 0.22 0 0 -0.41m-0.11 -0.03l0 -0.11m-0.02 0.12l-0.06 -0.08m0.1 0.07l0.06 -0.07m-0.1 0.1c0,-0.05 0.04,-0.05 0.04,0m-0.13 0l0.22 0m-0.22 0c0.01,-0.09 0.05,-0.14 0.11,-0.15 0.07,0.02 0.11,0.07 0.11,0.15"/>
    <line class="fil16 str1" x1="7.08" y1="2.05" x2="7.29" y2= "2.05" />
    <line class="fil16 str8" x1="7.17" y1="2.05" x2="7.18" y2= "1.66" />
    <line class="fil16 str8" x1="7.2" y1="2.05" x2="7.2" y2= "1.66" />
    <line class="fil16 str8" x1="7.15" y1="2.05" x2="7.15" y2= "1.66" />
    <path class="fil18 str6" d="M7.34 1.29l-0.11 0 -0.01 -0.02 0.08 -0.08c0.02,0.01 0.04,0.06 0.04,0.1z"/>
    <path class="fil13 str6" d="M7.09 1.18l0.08 0.08 0.02 0 0 -0.12c-0.02,0 -0.07,0.02 -0.1,0.04z"/>
    <path class="fil14 str7" d="M7.19 1.14l0 0.12 0.03 0.01 0.08 -0.09c-0.02,-0.02 -0.08,-0.04 -0.11,-0.04z"/>
    <path class="fil18 str6" d="M7.05 1.29l0.11 0 0.01 0.02 -0.08 0.08c-0.02,-0.02 -0.04,-0.06 -0.04,-0.1z"/>
    <path class="fil13 str6" d="M7.3 1.39l-0.08 -0.08 -0.02 0.01 -0.01 0.11c0.03,0.01 0.08,-0.01 0.11,-0.04z"/>
    <path class="fil12 str5" d="M7.05 1.29l0.11 0 0.01 -0.03 -0.08 -0.08c-0.02,0.03 -0.04,0.07 -0.04,0.11z"/>
    <path class="fil14 str7" d="M7.19 1.43l0.01 -0.11 -0.03 -0.01 -0.08 0.08c0.02,0.02 0.06,0.04 0.1,0.04z"/>
    <path class="fil12 str5" d="M7.34 1.29l-0.11 0 -0.01 0.02 0.08 0.08c0.02,-0.02 0.04,-0.06 0.04,-0.1z"/>
    <path class="fil16 str9" d="M7.19 1.14c0.08,0 0.15,0.06 0.15,0.14 0,0.08 -0.06,0.15 -0.14,0.15 -0.08,0.01 -0.15,-0.06 -0.15,-0.14 0,-0.08 0.06,-0.15 0.14,-0.15zm0 0.12c0.02,0 0.03,0.01 0.03,0.03 0,0.01 -0.01,0.03 -0.02,0.03 -0.02,0 -0.03,-0.02 -0.03,-0.03 -0.01,-0.02 0.01,-0.03 0.02,-0.03zm0.03 0.01l0.08 -0.08m-0.13 0.08l-0.08 -0.09m0.1 0.08l0.01 -0.12m-0.03 0.15l-0.12 0m0.14 0.14l0.01 -0.11m0.1 0.07l-0.08 -0.08m0.12 -0.02l-0.12 0m-0.13 0.1l0.08 -0.08"/>
   </g>
  </g>
 </g>
</svg>
