<?xml version="1.0" encoding="UTF-8"?>
<!DOCTYPE svg PUBLIC "-//W3C//DTD SVG 1.1//EN" "http://www.w3.org/Graphics/SVG/1.1/DTD/svg11.dtd">
<!-- Creator: CorelDRAW 2021 (64 Bit) -->
<svg xmlns="http://www.w3.org/2000/svg" xml:space="preserve" width="725px" height="375px" version="1.1" style="shape-rendering:geometricPrecision; text-rendering:geometricPrecision; image-rendering:optimizeQuality; fill-rule:evenodd; clip-rule:evenodd"
viewBox="0 0 37.52 19.41"
 xmlns:xlink="http://www.w3.org/1999/xlink"
 xmlns:xodm="http://www.corel.com/coreldraw/odm/2003">
 <defs>
  <style type="text/css">
   <![CDATA[
    .str5 {stroke:#B8B4B6;stroke-width:0.52;stroke-miterlimit:22.9256}
    .str3 {stroke:black;stroke-width:0.41;stroke-miterlimit:22.9256}
    .str2 {stroke:black;stroke-width:0.26;stroke-miterlimit:22.9256}
    .str4 {stroke:white;stroke-width:0.1;stroke-miterlimit:22.9256}
    .str0 {stroke:#B8B4B6;stroke-width:1.29;stroke-miterlimit:22.9256}
    .str1 {stroke:black;stroke-width:0.05;stroke-miterlimit:22.9256}
    .fil4 {fill:none}
    .fil5 {fill:#E6E7E8}
    .fil2 {fill:black}
    .fil3 {fill:red}
    .fil1 {fill:white}
    .fil0 {fill:white}
   ]]>
  </style>
 </defs>
 <g id="Camada_x0020_1">
  <metadata id="CorelCorpID_0Corel-Layer"/>
  <g id="_2713607486400">
   <rect class="fil0 str0" x="0.65" y="0.65" width="36.23" height="18.11" rx="1.68" ry="1.55"/>
   <g>
    <path class="fil1" d="M9.42 9.52c0.23,0 0.41,-0.08 0.57,-0.18 0.08,-0.05 0.14,-0.1 0.21,-0.16 0.05,-0.04 0.16,-0.13 0.23,-0.16 0.06,0.15 0.2,0.2 0.27,0.25 -0.05,0.18 -0.38,0.4 -0.54,0.49 -0.52,0.26 -1.1,0.3 -1.64,0.05 -0.15,-0.07 -0.48,-0.3 -0.54,-0.46 0.05,-0.07 0.24,-0.24 0.34,-0.29 0.25,0.4 0.65,0.46 1.1,0.46zm0.96 -2.67c0.69,-0.14 0.77,0.79 0.2,0.9 -0.3,0.07 -0.51,-0.11 -0.57,-0.35 -0.08,-0.33 0.1,-0.5 0.37,-0.55zm-2.52 0c0.29,-0.06 0.54,0.1 0.57,0.34 0.05,0.3 -0.13,0.52 -0.37,0.56 -0.6,0.13 -0.86,-0.78 -0.2,-0.9zm4.57 0.4c0.11,-0.43 0.22,-0.91 -0.03,-1.25 -0.08,-0.11 -0.29,-0.29 -0.41,-0.37 -0.35,-0.24 -0.42,-0.14 -0.75,0.12 -0.52,0.41 -1.24,0.73 -1.93,0.74 -0.98,0.02 -1.61,-0.52 -2.16,-0.92 -0.19,-0.13 -0.37,-0.07 -0.59,0.02 -0.21,0.09 -0.31,0.15 -0.37,0.39 -0.03,0.16 -0.12,0.5 -0.11,0.65 0.02,0.24 0.1,0.43 0.09,0.68l-0.53 0.07c-0.14,0.27 0.06,0.71 0.12,0.97 0.05,0.17 0.09,0.32 0.22,0.39 0.13,0.07 0.36,0.07 0.52,0.07 0.12,0.36 0.22,0.58 0.41,0.84 0.12,0.18 0.42,0.53 0.57,0.66 0.25,0.21 0.45,0.34 0.79,0.45 0.33,0.11 0.71,0.14 1.08,0.15 0.85,0.01 1.34,-0.26 1.85,-0.64 0.17,-0.12 0.47,-0.44 0.59,-0.63 0.3,-0.42 0.24,-0.45 0.39,-0.83 0.29,0 0.49,0.06 0.62,-0.14 0.13,-0.2 0.09,-0.4 0.16,-0.62 0.05,-0.15 0.21,-0.49 0.05,-0.61 -0.13,-0.09 -0.44,-0.09 -0.58,-0.19z"/>
    <path class="fil2" d="M9.42 9.52c-0.45,0 -0.85,-0.06 -1.1,-0.46 -0.1,0.05 -0.29,0.22 -0.34,0.29 0.06,0.16 0.39,0.39 0.54,0.46 0.54,0.25 1.12,0.21 1.64,-0.05 0.16,-0.09 0.49,-0.31 0.54,-0.49 -0.07,-0.05 -0.21,-0.1 -0.27,-0.25 -0.07,0.03 -0.18,0.12 -0.23,0.16 -0.07,0.06 -0.13,0.11 -0.21,0.16 -0.16,0.1 -0.34,0.18 -0.57,0.18z"/>
    <polygon class="fil2" points="4.59,17.33 5.01,17.34 5.01,15.53 4.59,15.53 "/>
    <polygon class="fil2" points="13.97,17.29 14.33,17.29 14.39,17.29 14.39,15.57 14.33,15.57 13.97,15.57 "/>
    <path class="fil2" d="M10.38 6.85c-0.27,0.05 -0.45,0.22 -0.37,0.55 0.06,0.24 0.27,0.42 0.57,0.35 0.57,-0.11 0.49,-1.04 -0.2,-0.9z"/>
    <path class="fil2" d="M7.86 6.85c-0.66,0.12 -0.4,1.03 0.2,0.9 0.24,-0.04 0.42,-0.26 0.37,-0.56 -0.03,-0.24 -0.28,-0.4 -0.57,-0.34z"/>
    <path class="fil2 str1" d="M12.43 7.25c0.14,0.1 0.45,0.1 0.58,0.19 0.16,0.12 0,0.46 -0.05,0.61 -0.07,0.22 -0.03,0.42 -0.16,0.62 -0.13,0.2 -0.33,0.14 -0.62,0.14 -0.15,0.38 -0.09,0.41 -0.39,0.83 -0.12,0.19 -0.42,0.51 -0.59,0.63 -0.51,0.38 -1,0.65 -1.85,0.64 -0.37,-0.01 -0.75,-0.04 -1.08,-0.15 -0.34,-0.11 -0.54,-0.24 -0.79,-0.45 -0.15,-0.13 -0.45,-0.48 -0.57,-0.66 -0.19,-0.26 -0.29,-0.48 -0.41,-0.84 -0.16,0 -0.39,0 -0.52,-0.07 -0.13,-0.07 -0.17,-0.22 -0.22,-0.39 -0.06,-0.26 -0.26,-0.7 -0.12,-0.97l0.53 -0.07c0.01,-0.25 -0.07,-0.44 -0.09,-0.68 -0.01,-0.15 0.08,-0.49 0.11,-0.65 0.06,-0.24 0.16,-0.3 0.37,-0.39 0.22,-0.09 0.4,-0.15 0.59,-0.02 0.55,0.4 1.18,0.94 2.16,0.92 0.69,-0.01 1.41,-0.33 1.93,-0.74 0.33,-0.26 0.4,-0.36 0.75,-0.12 0.12,0.08 0.33,0.26 0.41,0.37 0.25,0.34 0.14,0.82 0.03,1.25zm-4.62 -4.82c-0.65,0.29 -1.23,0.84 -1.56,1.3 -0.28,0.38 -0.5,0.7 -0.61,1.34 -0.05,0.3 -0.05,0.63 -0.06,0.94 0,0.34 0.08,0.6 0.09,0.91 -0.27,0.04 -0.39,0.14 -0.46,0.38 -0.07,0.25 -0.05,0.49 0.01,0.75 0.32,1.54 0.82,0.89 1.09,1.42 0.13,0.26 0.1,0.27 0.3,0.54l0.39 0.45c0.12,0.13 0.26,0.28 0.47,0.37 0.01,0.18 0.02,0.94 0,1.09 -0.02,0.12 -0.07,0.15 -0.2,0.16 -0.61,0.06 -1.86,0.31 -2.53,0.43 -0.43,0.08 -0.8,0.15 -1.17,0.31 -0.19,0.08 -0.32,0.15 -0.47,0.26 -0.45,0.31 -0.78,0.8 -0.91,1.32 -0.09,0.33 -0.05,1.07 -0.05,1.45 0,0.49 -0.01,0.99 0,1.49 0.3,0 0.44,0.05 0.47,-0.14l-0.01 -1.79c0,-0.69 0,-1.38 0.58,-1.83 0.26,-0.21 0.41,-0.31 0.76,-0.43 0.64,-0.21 1.35,-0.28 2.02,-0.41 0.33,-0.06 0.7,-0.14 1.05,-0.15 0.05,0.38 0.06,0.54 0.24,0.84 0.27,0.46 0.71,0.8 1.2,0.99 0.24,0.1 0.63,0.2 0.92,0.18 1.05,-0.03 2.38,-0.88 2.4,-2.01l2.6 0.43c0.9,0.13 1.72,0.75 1.78,1.68 0.02,0.86 0.04,1.73 0.06,2.6l0.43 0.04 0 -2.62c-0.18,-1.07 -0.72,-1.89 -2.37,-2.17 -0.87,-0.15 -1.74,-0.3 -2.61,-0.45 -0.29,-0.06 -0.39,-0.07 -0.36,-0.4 0,-0.29 0,-0.68 0,-0.97 0.18,-0.12 0.34,-0.25 0.49,-0.4 0.18,-0.18 0.61,-0.69 0.68,-1.06 0.78,-0.01 0.79,-0.59 0.91,-1.05 0.03,-0.13 0.1,-0.22 0.13,-0.36 0.02,-0.14 0.02,-0.29 -0.02,-0.43 -0.09,-0.25 -0.25,-0.39 -0.51,-0.47 0,-0.92 0.15,-1.37 -0.16,-2.25 -0.22,-0.63 -0.39,-0.93 -0.81,-1.37 -0.18,-0.19 -0.18,-0.17 -0.33,-0.3 -0.15,-0.13 -0.38,-0.29 -0.55,-0.39 -0.68,-0.41 -1.25,-0.5 -2.05,-0.47 -0.28,0.01 -0.77,0.05 -1.27,0.25zm-1.16 1.56c0.37,-0.4 0.73,-0.85 1.5,-1.2 0.27,-0.11 0.39,-0.16 0.75,-0.17 0.53,-0.05 1.14,0.03 1.63,0.22 0.38,0.15 0.59,0.31 0.86,0.54 0.33,0.27 0.39,0.32 0.66,0.74 0.15,0.22 0.54,1.02 0.5,1.36 -0.16,-0.11 -0.5,-0.33 -0.72,-0.42 -0.18,-0.07 -0.31,-0.06 -0.46,0.04 -0.12,0.08 -0.22,0.17 -0.33,0.25 -1.13,0.83 -2.1,1.01 -3.34,0.07 -0.12,-0.09 -0.22,-0.16 -0.34,-0.25 -0.14,-0.1 -0.22,-0.15 -0.45,-0.14 -0.47,0.04 -0.64,0.26 -0.86,0.32 0.02,-0.61 0.43,-1.15 0.6,-1.36zm2.68 10.17c0.08,-0.01 0.17,-0.01 0.24,-0.02 0.09,0 0.2,-0.03 0.29,-0.04 0.79,-0.13 1.48,-0.86 1.49,-1.6 -0.34,-0.11 -0.51,-0.32 -0.48,-0.62l0.01 -0.9 0 0c-0.04,0.02 -0.08,0.04 -0.13,0.06 -0.39,0.19 -0.92,0.32 -1.41,0.34 -0.4,0.01 -0.78,-0.04 -1.15,-0.17 -0.1,-0.04 -0.21,-0.1 -0.29,-0.13 -0.02,0.31 0.03,0.66 0,0.96 -0.03,0.27 -0.25,0.38 -0.47,0.46 0.02,0.86 0.8,1.5 1.49,1.61 0.21,0.03 0.32,0.04 0.41,0.05z"/>
   </g>
   <g>
    <circle class="fil3 str2" cx="27.58" cy="9.95" r="1.64"/>
    <path class="fil4 str3" d="M23.63 16.29c0.27,-0.02 0.53,-0.04 0.8,-0.06 0.57,-0.13 1.19,0.04 1.63,0.24l0.74 0.25c0.52,0.2 1.06,0.21 1.61,0.02 2.19,-1.02 5.44,-3.13 6.34,-3.73 0.46,-0.21 0.55,-0.51 0.29,-0.9 -0.22,-0.29 -0.47,-0.53 -0.75,-0.72 -0.7,-0.47 -1.45,-0.29 -2.43,0.26 -0.04,0.02 -1.81,0.87 -1.82,0.88m-5.37 -0.88c-0.14,-0.34 -0.23,-0.56 -0.38,-0.9 0.74,-0.31 0.83,-1.14 -0.04,-1.6 0.15,-0.32 0.29,-0.63 0.43,-0.94 0.94,0.19 1.44,-0.43 1.07,-1.2m6.71 -3.91c-0.27,0.02 -0.54,0.04 -0.81,0.06 -0.56,0.14 -1.18,-0.04 -1.62,-0.24l-0.74 -0.25c-0.53,-0.19 -1.07,-0.21 -1.62,-0.02 -2.18,1.03 -5.43,3.13 -6.33,3.73 -0.47,0.21 -0.56,0.52 -0.29,0.91 0.22,0.28 0.46,0.52 0.75,0.71 0.7,0.47 1.45,0.29 2.43,-0.25 0.03,-0.02 1.01,-0.5 1.52,-0.74 0.18,-0.08 0.3,-0.14 0.3,-0.14m6.43 0.88c-0.38,0.08 -0.77,0.1 -1.15,-0.03 -0.2,-0.1 -0.43,-0.2 -0.63,-0.3 -0.14,-0.07 -0.5,-0.27 -0.98,-0.18 -0.1,0.01 -0.26,0.05 -0.39,0.07 -0.47,0.1 -1.05,0.23 -1.61,0.34 -0.32,0.06 -0.89,0.15 -1.21,-0.2 -0.15,-0.16 -0.26,-0.29 -0.46,-0.58 -0.18,-0.27 -0.02,-0.73 0.44,-0.82 0.05,-0.01 0.42,-0.08 0.65,-0.03 0.41,0.07 0.82,0.02 1.18,-0.03 0.53,-0.07 0.95,-0.09 1.04,-0.13m-0.03 1.45c-0.04,0.66 0.44,1.09 1.17,0.85 0.14,0.33 0.29,0.66 0.43,0.99 -0.77,0.39 -0.76,1.27 0,1.58 -0.12,0.32 -0.26,0.66 -0.38,0.98 -0.47,-0.11 -0.82,-0.03 -1.02,0.18m-5.92 -0.25c0.35,-0.07 0.71,-0.09 1.06,0.01 0.03,0.01 0.06,0.02 0.09,0.03 0.2,0.09 0.42,0.2 0.63,0.29 0.14,0.08 0.5,0.27 0.97,0.19 0.1,-0.02 0.22,-0.04 0.35,-0.07 0.47,-0.09 1.1,-0.23 1.65,-0.34 0.33,-0.07 0.84,-0.1 1.18,0.15 0.27,0.21 0.33,0.29 0.5,0.63 0.14,0.28 0.02,0.72 -0.44,0.81 -0.05,0.01 -0.43,0.08 -0.66,0.04 -0.41,-0.08 -0.81,-0.03 -1.17,0.02 -0.53,0.08 -0.95,0.1 -1.04,0.13"/>
    <g>
     <rect class="fil5 str4" transform="matrix(-0.4035 0.0018688 -0.0020354 -0.43947 23.5198 17.4161)" width="6.25" height="14.38"/>
     <rect class="fil4 str5" transform="matrix(-1.06328 0.00492455 -0.00492455 -1.06328 23.7392 17.4151)" width="2.78" height="5.94" rx="0.52" ry="0.52"/>
    </g>
    <g>
     <rect class="fil5 str4" transform="matrix(-0.4035 0.0018688 -0.0020354 -0.43947 35.0537 8.47244)" width="6.25" height="14.38"/>
     <rect class="fil4 str5" transform="matrix(-1.06328 0.00492455 -0.00492455 -1.06328 35.2731 8.47143)" width="2.78" height="5.94" rx="0.52" ry="0.52"/>
    </g>
    <circle class="fil3 str2" cx="27.58" cy="9.95" r="1.64"/>
    <g>
     <rect class="fil5 str4" transform="matrix(-0.4035 0.0018688 -0.0020354 -0.43947 23.5198 17.4161)" width="6.25" height="14.38"/>
     <rect class="fil4 str5" transform="matrix(-1.06328 0.00492455 -0.00492455 -1.06328 23.7392 17.4151)" width="2.78" height="5.94" rx="0.52" ry="0.52"/>
    </g>
    <g>
     <rect class="fil5 str4" transform="matrix(-0.4035 0.0018688 -0.0020354 -0.43947 35.0537 8.47244)" width="6.25" height="14.38"/>
     <rect class="fil4 str5" transform="matrix(-1.06328 0.00492455 -0.00492455 -1.06328 35.2731 8.47143)" width="2.78" height="5.94" rx="0.52" ry="0.52"/>
    </g>
   </g>
  </g>
 </g>
</svg>
