<?xml version="1.0" encoding="UTF-8"?>
<!DOCTYPE svg PUBLIC "-//W3C//DTD SVG 1.1//EN" "http://www.w3.org/Graphics/SVG/1.1/DTD/svg11.dtd">
<!-- Creator: CorelDRAW 2021 (64 Bit) -->
<svg xmlns="http://www.w3.org/2000/svg" xml:space="preserve" width="725px" height="375px" version="1.1" style="shape-rendering:geometricPrecision; text-rendering:geometricPrecision; image-rendering:optimizeQuality; fill-rule:evenodd; clip-rule:evenodd"
viewBox="0 0 10.01 5.18"
 xmlns:xlink="http://www.w3.org/1999/xlink"
 xmlns:xodm="http://www.corel.com/coreldraw/odm/2003">
 <defs>
  <style type="text/css">
   <![CDATA[
    .str8 {stroke:#F5A980;stroke-width:0.06;stroke-miterlimit:22.9256}
    .str7 {stroke:black;stroke-width:0.01;stroke-miterlimit:22.9256}
    .str13 {stroke:#DBDBDB;stroke-width:0.01;stroke-miterlimit:22.9256}
    .str5 {stroke:#F5A980;stroke-width:0.01;stroke-miterlimit:22.9256}
    .str2 {stroke:#FA0505;stroke-width:0.01;stroke-miterlimit:22.9256}
    .str3 {stroke:#030303;stroke-width:0.11;stroke-miterlimit:22.9256}
    .str4 {stroke:#030303;stroke-width:0.03;stroke-miterlimit:22.9256}
    .str16 {stroke:#4A4949;stroke-width:0.03;stroke-miterlimit:22.9256}
    .str15 {stroke:#C9C5C5;stroke-width:0.03;stroke-miterlimit:22.9256}
    .str11 {stroke:#F5A980;stroke-width:0.03;stroke-miterlimit:22.9256}
    .str0 {stroke:#B8B4B6;stroke-width:0.35;stroke-miterlimit:22.9256}
    .str12 {stroke:#F5A980;stroke-width:0.04;stroke-miterlimit:22.9256}
    .str1 {stroke:black;stroke-width:0.01;stroke-miterlimit:22.9256}
    .str17 {stroke:#8F8C8C;stroke-width:0.01;stroke-miterlimit:22.9256}
    .str18 {stroke:#B3B3B3;stroke-width:0.01;stroke-miterlimit:22.9256}
    .str9 {stroke:#DBDBDB;stroke-width:0.01;stroke-miterlimit:22.9256}
    .str14 {stroke:#F5A980;stroke-width:0.01;stroke-miterlimit:22.9256}
    .str10 {stroke:#E1E1E1;stroke-width:0.01;stroke-miterlimit:22.9256}
    .str6 {stroke:#454545;stroke-width:0.21;stroke-linecap:round;stroke-miterlimit:22.9256}
    .fil5 {fill:none}
    .fil3 {fill:black}
    .fil8 {fill:black}
    .fil6 {fill:#003399}
    .fil0 {fill:aqua}
    .fil13 {fill:#615F5F}
    .fil10 {fill:#666666}
    .fil9 {fill:#999999}
    .fil12 {fill:#CCCCCC}
    .fil4 {fill:#E6E6E6}
    .fil11 {fill:#F5A980}
    .fil7 {fill:#F5B796}
    .fil2 {fill:white}
    .fil1 {fill:white}
   ]]>
  </style>
 </defs>
 <g id="Camada_x0020_1">
  <metadata id="CorelCorpID_0Corel-Layer"/>
  <g id="_2713720637760">
   <rect class="fil0" x="0.32" y="0.27" width="9.38" height="4.63"/>
   <rect class="fil1 str0" x="0.17" y="0.17" width="9.66" height="4.83" rx="0.45" ry="0.41"/>
   <g>
    <path class="fil2" d="M2.67 2.47c0.06,0 0.11,-0.02 0.15,-0.05 0.02,-0.01 0.04,-0.03 0.06,-0.04 0.01,-0.01 0.04,-0.04 0.06,-0.04 0.02,0.04 0.05,0.05 0.07,0.06 -0.01,0.05 -0.1,0.11 -0.14,0.13 -0.14,0.07 -0.3,0.08 -0.44,0.02 -0.04,-0.02 -0.13,-0.09 -0.14,-0.13 0.01,-0.02 0.06,-0.06 0.09,-0.07 0.06,0.1 0.17,0.12 0.29,0.12zm0.26 -0.71c0.18,-0.04 0.2,0.21 0.05,0.24 -0.08,0.01 -0.14,-0.03 -0.15,-0.1 -0.02,-0.08 0.03,-0.13 0.1,-0.14zm-0.68 0c0.08,-0.02 0.15,0.02 0.16,0.09 0.01,0.08 -0.04,0.14 -0.1,0.15 -0.16,0.03 -0.23,-0.21 -0.06,-0.24zm1.22 0.1c0.03,-0.11 0.06,-0.24 0,-0.33 -0.03,-0.03 -0.08,-0.08 -0.11,-0.1 -0.1,-0.06 -0.12,-0.03 -0.2,0.03 -0.14,0.11 -0.34,0.2 -0.52,0.2 -0.26,0 -0.43,-0.14 -0.57,-0.24 -0.05,-0.04 -0.1,-0.02 -0.16,0 -0.06,0.02 -0.09,0.04 -0.1,0.11 -0.01,0.04 -0.03,0.13 -0.03,0.17 0,0.06 0.03,0.11 0.02,0.18l-0.14 0.02c-0.04,0.07 0.02,0.19 0.04,0.26 0.01,0.04 0.02,0.08 0.05,0.1 0.04,0.02 0.1,0.02 0.14,0.02 0.03,0.1 0.06,0.15 0.11,0.22 0.03,0.05 0.11,0.14 0.15,0.18 0.07,0.05 0.12,0.09 0.21,0.12 0.09,0.03 0.19,0.04 0.29,0.04 0.23,0 0.36,-0.07 0.49,-0.17 0.05,-0.03 0.13,-0.12 0.16,-0.17 0.08,-0.11 0.07,-0.12 0.11,-0.22 0.07,0 0.13,0.01 0.16,-0.04 0.04,-0.05 0.03,-0.1 0.05,-0.16 0.01,-0.04 0.05,-0.13 0.01,-0.16 -0.04,-0.03 -0.12,-0.03 -0.16,-0.06z"/>
    <path class="fil3" d="M2.67 2.47c-0.12,0 -0.23,-0.02 -0.29,-0.12 -0.03,0.01 -0.08,0.05 -0.09,0.07 0.01,0.04 0.1,0.11 0.14,0.13 0.14,0.06 0.3,0.05 0.44,-0.02 0.04,-0.02 0.13,-0.08 0.14,-0.13 -0.02,-0.01 -0.05,-0.02 -0.07,-0.06 -0.02,0 -0.05,0.03 -0.06,0.04 -0.02,0.01 -0.04,0.03 -0.06,0.04 -0.04,0.03 -0.09,0.05 -0.15,0.05z"/>
    <polygon class="fil3" points="1.38,4.55 1.49,4.55 1.49,4.07 1.38,4.07 "/>
    <polygon class="fil3" points="3.88,4.54 3.98,4.54 4,4.54 4,4.08 3.98,4.08 3.88,4.08 "/>
    <path class="fil3" d="M2.93 1.76c-0.07,0.01 -0.12,0.06 -0.1,0.14 0.01,0.07 0.07,0.11 0.15,0.1 0.15,-0.03 0.13,-0.28 -0.05,-0.24z"/>
    <path class="fil3" d="M2.25 1.76c-0.17,0.03 -0.1,0.27 0.06,0.24 0.06,-0.01 0.11,-0.07 0.1,-0.15 -0.01,-0.07 -0.08,-0.11 -0.16,-0.09z"/>
    <path class="fil3 str1" d="M3.47 1.86c0.04,0.03 0.12,0.03 0.16,0.06 0.04,0.03 0,0.12 -0.01,0.16 -0.02,0.06 -0.01,0.11 -0.05,0.16 -0.03,0.05 -0.09,0.04 -0.16,0.04 -0.04,0.1 -0.03,0.11 -0.11,0.22 -0.03,0.05 -0.11,0.14 -0.16,0.17 -0.13,0.1 -0.26,0.17 -0.49,0.17 -0.1,0 -0.2,-0.01 -0.29,-0.04 -0.09,-0.03 -0.14,-0.07 -0.21,-0.12 -0.04,-0.04 -0.12,-0.13 -0.15,-0.18 -0.05,-0.07 -0.08,-0.12 -0.11,-0.22 -0.04,0 -0.1,0 -0.14,-0.02 -0.03,-0.02 -0.04,-0.06 -0.05,-0.1 -0.02,-0.07 -0.08,-0.19 -0.04,-0.26l0.14 -0.02c0.01,-0.07 -0.02,-0.12 -0.02,-0.18 0,-0.04 0.02,-0.13 0.03,-0.17 0.01,-0.07 0.04,-0.09 0.1,-0.11 0.06,-0.02 0.11,-0.04 0.16,0 0.14,0.1 0.31,0.24 0.57,0.24 0.18,0 0.38,-0.09 0.52,-0.2 0.08,-0.06 0.1,-0.09 0.2,-0.03 0.03,0.02 0.08,0.07 0.11,0.1 0.06,0.09 0.03,0.22 0,0.33zm-1.23 -1.28c-0.17,0.07 -0.33,0.22 -0.42,0.34 -0.07,0.11 -0.13,0.19 -0.16,0.36 -0.01,0.08 -0.01,0.17 -0.01,0.25 0,0.09 0.02,0.16 0.02,0.24 -0.07,0.02 -0.1,0.04 -0.12,0.11 -0.02,0.06 -0.02,0.13 0,0.2 0.09,0.41 0.22,0.23 0.29,0.38 0.04,0.07 0.03,0.07 0.08,0.14l0.11 0.12c0.03,0.03 0.07,0.07 0.12,0.1 0,0.05 0.01,0.25 0,0.29 0,0.03 -0.02,0.04 -0.05,0.04 -0.17,0.02 -0.5,0.08 -0.68,0.12 -0.11,0.02 -0.21,0.04 -0.31,0.08 -0.05,0.02 -0.08,0.04 -0.13,0.07 -0.12,0.08 -0.2,0.21 -0.24,0.35 -0.02,0.09 -0.01,0.28 -0.01,0.39 0,0.13 0,0.26 0,0.39 0.08,0 0.12,0.02 0.12,-0.03l0 -0.48c0,-0.19 0,-0.37 0.16,-0.49 0.07,-0.05 0.11,-0.08 0.2,-0.11 0.17,-0.06 0.36,-0.08 0.54,-0.11 0.09,-0.02 0.18,-0.04 0.28,-0.04 0.01,0.1 0.01,0.14 0.06,0.22 0.07,0.13 0.19,0.21 0.32,0.27 0.07,0.02 0.17,0.05 0.25,0.04 0.28,0 0.63,-0.23 0.64,-0.53l0.69 0.11c0.24,0.04 0.46,0.2 0.48,0.45 0,0.23 0.01,0.46 0.01,0.69l0.11 0.01 0 -0.7c-0.04,-0.28 -0.19,-0.5 -0.63,-0.57 -0.23,-0.04 -0.46,-0.08 -0.69,-0.12 -0.08,-0.02 -0.11,-0.02 -0.1,-0.11 0,-0.08 0,-0.18 0,-0.26 0.05,-0.03 0.09,-0.07 0.13,-0.1 0.05,-0.05 0.17,-0.19 0.18,-0.29 0.21,0 0.21,-0.15 0.25,-0.28 0.01,-0.03 0.02,-0.06 0.03,-0.09 0.01,-0.04 0.01,-0.08 -0.01,-0.12 -0.02,-0.07 -0.06,-0.1 -0.13,-0.12 0,-0.25 0.04,-0.37 -0.04,-0.61 -0.06,-0.16 -0.11,-0.24 -0.22,-0.36 -0.05,-0.05 -0.05,-0.04 -0.09,-0.08 -0.04,-0.03 -0.1,-0.08 -0.14,-0.1 -0.18,-0.11 -0.34,-0.14 -0.55,-0.13 -0.08,0 -0.21,0.01 -0.34,0.07zm-0.31 0.41c0.1,-0.1 0.2,-0.22 0.4,-0.31 0.07,-0.04 0.11,-0.05 0.2,-0.05 0.14,-0.01 0.31,0.01 0.44,0.06 0.1,0.04 0.15,0.08 0.22,0.14 0.09,0.07 0.11,0.09 0.18,0.2 0.04,0.06 0.15,0.27 0.13,0.36 -0.04,-0.03 -0.13,-0.09 -0.19,-0.11 -0.05,-0.02 -0.08,-0.02 -0.12,0.01 -0.03,0.02 -0.06,0.05 -0.09,0.07 -0.3,0.22 -0.56,0.27 -0.89,0.01 -0.03,-0.02 -0.06,-0.04 -0.09,-0.06 -0.04,-0.03 -0.06,-0.04 -0.12,-0.04 -0.12,0.01 -0.17,0.07 -0.23,0.09 0.01,-0.17 0.12,-0.31 0.16,-0.37zm0.72 2.72c0.02,-0.01 0.04,-0.01 0.06,-0.01 0.02,0 0.05,-0.01 0.08,-0.01 0.21,-0.03 0.39,-0.23 0.39,-0.43 -0.09,-0.03 -0.13,-0.08 -0.12,-0.16l0 -0.24 0 0c-0.01,0 -0.02,0.01 -0.03,0.01 -0.11,0.05 -0.25,0.09 -0.38,0.09 -0.11,0.01 -0.21,-0.01 -0.31,-0.04 -0.02,-0.01 -0.05,-0.03 -0.08,-0.03 0,0.08 0.01,0.17 0.01,0.25 -0.01,0.07 -0.07,0.1 -0.13,0.12 0,0.23 0.21,0.4 0.4,0.43 0.05,0.01 0.08,0.01 0.11,0.02z"/>
   </g>
   <g>
    <g>
     <polygon class="fil1 str2" points="8.79,2.46 8.54,2.89 8.37,2.63 8.71,2.29 "/>
     <polygon class="fil1 str2" points="7.93,2.48 8.21,2.88 8.36,2.63 7.99,2.28 "/>
     <path class="fil1 str2" d="M7.93 2.47l0.28 0.43 0.04 -0.07 0.05 0.04 -0.01 0.67c-0.35,0 -0.7,0 -1.05,0.01 -0.06,0 -0.09,-0.05 -0.09,-0.09 0.01,-0.1 0.03,-0.37 0.05,-0.62 0.01,-0.11 0.04,-0.11 0.11,-0.14 0.13,-0.03 0.59,-0.21 0.62,-0.23z"/>
     <path class="fil4 str2" d="M8.79 2.47l-0.26 0.43 -0.04 -0.08 -0.05 0.05 0.02 0.68c0.35,0 0.55,0 0.9,0 0.1,0 0.13,-0.02 0.12,-0.09 0,-0.1 -0.02,-0.37 -0.04,-0.63 -0.01,-0.07 -0.01,-0.1 -0.08,-0.13 -0.13,-0.04 -0.54,-0.22 -0.57,-0.23z"/>
     <path class="fil4 str3" d="M9.4 3.55l-2.17 0c-0.05,0 -0.09,-0.03 -0.09,-0.1 0.02,-0.21 0.04,-0.42 0.06,-0.64 0,-0.05 0.03,-0.08 0.07,-0.1l0.67 -0.24 0.05 -0.19 0.37 0.35 0.34 -0.35 0.09 0.18 0.59 0.26c0.03,0.02 0.05,0.05 0.06,0.1 0.02,0.21 0.04,0.42 0.06,0.63 0.01,0.06 -0.04,0.1 -0.1,0.1z"/>
     <polyline class="fil5 str3" points="7.93,2.48 8.21,2.89 8.36,2.64 8.54,2.89 8.78,2.47 "/>
     <polygon class="fil6 str4" points="8.48,2.83 8.36,2.65 8.25,2.83 8.3,2.88 8.29,3.55 8.49,3.55 8.44,2.88 "/>
     <path class="fil7 str5" d="M8.07 2.33l0.29 0.27 0.27 -0.28 -0.01 -0.11c-0.05,0.06 -0.11,0.11 -0.17,0.17 -0.03,0.04 -0.13,0.04 -0.18,0l-0.2 -0.17 0 0.12z"/>
     <path class="fil7 str5" d="M8.89 1.52c-0.02,0.01 -0.03,0.03 -0.04,0.05l0.01 -0.05 -0.14 -0.11 0 -0.22 -0.2 0 -0.16 0.05 -0.17 -0.06 -0.21 0.01 -0.01 0.18 -0.1 0.13c-0.01,-0.01 -0.02,-0.03 -0.03,-0.05 -0.01,-0.01 -0.03,-0.01 -0.04,-0.01 -0.02,0.01 -0.02,0.02 -0.03,0.05 -0.01,0.03 -0.01,0.06 0,0.09l0.02 0.11c0.01,0.02 0.02,0.03 0.04,0.03 0,0 0.02,-0.01 0.03,-0.03 0.01,0.09 0.03,0.17 0.05,0.24 0.04,0.1 0.09,0.19 0.15,0.28 0.07,0.05 0.14,0.11 0.2,0.17 0.07,0.05 0.13,0.05 0.19,0 0.09,-0.08 0.18,-0.17 0.27,-0.26 0.03,-0.05 0.06,-0.1 0.08,-0.16 0.02,-0.07 0.03,-0.14 0.04,-0.2 0.01,0.01 0.02,0.01 0.02,0.01 0.01,0 0.04,0 0.05,-0.02 0.03,-0.06 0.04,-0.11 0.05,-0.17 0.01,-0.02 -0.01,-0.03 -0.02,-0.04 -0.02,-0.01 -0.04,-0.02 -0.05,-0.02z"/>
     <g>
      <path class="fil3" d="M8.58 1.6c-0.03,0.01 -0.05,0.03 -0.04,0.06 0.01,0.03 0.03,0.05 0.06,0.04 0.06,-0.01 0.06,-0.11 -0.02,-0.1z"/>
      <path class="fil3" d="M8.13 1.6c-0.07,0.01 -0.04,0.11 0.02,0.1 0.02,-0.01 0.04,-0.03 0.04,-0.06 0,-0.03 -0.03,-0.05 -0.06,-0.04z"/>
      <line class="fil5 str6" x1="8.01" y1="1.47" x2="8.28" y2= "1.49" />
      <path class="fil8 str7" d="M7.98 1.37l-0.11 0.15c-0.04,-0.12 -0.07,-0.27 -0.03,-0.46 0.03,-0.17 0.12,-0.25 0.24,-0.26 0.2,-0.03 0.39,-0.03 0.55,0 0.13,0.04 0.22,0.16 0.24,0.26 0.04,0.17 0.02,0.28 -0.01,0.45 -0.04,-0.03 -0.1,-0.07 -0.14,-0.1 -0.02,-0.07 -0.02,-0.15 -0.01,-0.22 -0.07,0.02 -0.12,0.02 -0.18,0 -0.09,0.07 -0.24,0.07 -0.34,0 -0.06,0.01 -0.13,0.01 -0.21,0 0.01,0.06 0.01,0.12 0,0.18z"/>
      <line class="fil5 str6" x1="8.69" y1="1.47" x2="8.42" y2= "1.49" />
      <path class="fil9" d="M8.57 1.59c-0.01,-0.02 0.04,-0.04 0.09,-0.03 0.04,0 0.07,0.02 0.08,0.04 0,0.01 0,0.01 0,0.02l-0.03 0.02c-0.03,-0.03 -0.08,-0.04 -0.14,-0.05z"/>
      <path class="fil9" d="M8.18 1.59c0.01,-0.02 -0.04,-0.04 -0.09,-0.03 -0.04,0 -0.06,0.02 -0.08,0.04 0,0.01 0,0.01 0,0.02l0.03 0.02c0.03,-0.03 0.08,-0.04 0.14,-0.05z"/>
     </g>
     <path class="fil5 str8" d="M8.47 1.54l-0.04 0.04 -0.01 0.07 -0.02 0.12 0.02 0.06 0.05 0.07c0,0.01 0,0.02 -0.01,0.02l-0.08 0.06c-0.01,0.01 -0.03,0.01 -0.04,0l-0.09 -0.06 0 -0.02 0.03 -0.08 0.01 -0.05 -0.02 -0.12 -0.02 -0.08 -0.05 -0.03"/>
     <g>
      <path class="fil10" d="M8.51 2.07l-0.3 -0.01c-0.01,0 -0.01,0.01 -0.01,0.01l0.07 0.06c0.03,0.02 0.05,0.02 0.09,0.02 0.03,0.01 0.06,0 0.09,-0.01l0.07 -0.06c0,-0.01 0,-0.01 -0.01,-0.01z"/>
      <g>
       <path class="fil1 str9" d="M8.25 2.05l0 0.03c0,0 0.01,0.01 0.02,0.01 0.01,0 0.02,0 0.03,0 0,0 0.01,0 0.02,0 0.01,0.01 0.03,0 0.04,0 0.01,0 0.03,0.01 0.04,0 0.01,0 0.02,0 0.03,0 0.01,0 0.02,0 0.03,0l0 0c0.01,0 0.02,-0.01 0.02,-0.01l0 -0.03c-0.08,0 -0.15,0 -0.23,0z"/>
       <line class="fil5 str10" x1="8.4" y1="2.06" x2="8.4" y2= "2.09" />
       <line class="fil5 str10" x1="8.43" y1="2.06" x2="8.43" y2= "2.09" />
       <line class="fil5 str10" x1="8.46" y1="2.06" x2="8.46" y2= "2.09" />
       <line class="fil5 str10" x1="8.27" y1="2.06" x2="8.27" y2= "2.09" />
       <line class="fil5 str10" x1="8.3" y1="2.06" x2="8.3" y2= "2.09" />
       <line class="fil5 str10" x1="8.32" y1="2.06" x2="8.32" y2= "2.09" />
       <line class="fil5 str10" x1="8.36" y1="2.06" x2="8.36" y2= "2.09" />
       <path class="fil5 str11" d="M8.27 2.16l-0.09 -0.09c-0.01,-0.02 0.02,-0.03 0.03,-0.03 0.11,0.01 0.19,0.01 0.3,0 0.04,0.01 0.04,0.01 0.02,0.04l-0.07 0.08c-0.07,0.04 -0.13,0.04 -0.19,0z"/>
      </g>
     </g>
     <polyline class="fil5 str5" points="8.22,2.28 8.29,2.26 8.36,2.24 8.43,2.25 8.51,2.29 "/>
     <path class="fil5 str12" d="M7.83 1.65c-0.03,-0.03 -0.03,-0.08 -0.03,-0.15 0.01,-0.05 0.02,-0.02 0.03,0 0.02,0.04 0.02,0.06 0,0.09"/>
     <path class="fil5 str12" d="M8.87 1.58c0,-0.02 0.02,-0.04 0.04,-0.04 0.02,0 0.04,0.02 0.04,0.04 -0.01,0.07 -0.04,0.1 -0.06,0.11"/>
     <path class="fil5 str11" d="M8.48 1.66c0.01,0.01 0.03,0.02 0.05,0.02 0.03,0.03 0.06,0.06 0.15,-0.01 0.03,-0.02 0.04,0 0.07,-0.01"/>
     <path class="fil5 str11" d="M8.24 1.66c-0.01,0.01 -0.02,0.02 -0.04,0.02 -0.03,0.03 -0.06,0.06 -0.14,-0.01 -0.03,-0.02 -0.04,0 -0.07,-0.01"/>
     <path class="fil5 str11" d="M8 1.65c0.01,0 0.03,0.01 0.04,0 0.07,-0.07 0.12,-0.06 0.17,-0.03 0,0.01 0.02,0.03 0.03,0.03"/>
     <path class="fil5 str11" d="M8.75 1.65c-0.01,0 -0.03,0.01 -0.04,0 -0.08,-0.07 -0.14,-0.06 -0.19,-0.03 -0.01,0.01 -0.02,0.03 -0.04,0.03"/>
     <path class="fil11 str5" d="M8.52 2.08c-0.13,0.1 -0.24,0.08 -0.34,-0.02 0.09,0.15 0.24,0.18 0.34,0.02z"/>
     <path class="fil12 str5" d="M8.25 2.05c0,0 -0.05,0 -0.07,0 0,0 0.01,0.01 0.01,0.01 0.02,0.03 0.05,0.05 0.07,0.06l-0.01 -0.07z"/>
     <path class="fil12 str5" d="M8.49 2.06c0,-0.02 0.05,-0.01 0.05,0 0,0.01 -0.03,0.03 -0.06,0.05l0.01 -0.05z"/>
     <path class="fil1" d="M8.33 2.14c-0.02,0 -0.05,-0.01 -0.06,-0.02 0.03,-0.01 0.01,0 0.02,0 0.03,-0.01 0.03,0 0.03,0 0.02,-0.01 0.04,0 0.04,0.01 0.01,0.01 -0.01,-0.02 0.04,0 0.01,0 -0.01,-0.01 0.03,0 0.01,0 -0.01,-0.01 0.03,-0.01 -0.02,0.01 -0.04,0.02 -0.06,0.03 -0.03,0 -0.05,0 -0.07,-0.01z"/>
     <path class="fil5 str13" d="M8.27 2.12c0.01,0 0.02,0 0.02,0 0.01,0 0.02,0 0.03,0 0.01,0 0.03,0 0.04,0.01 0.01,-0.01 0.03,-0.01 0.04,0 0.01,-0.01 0.02,-0.01 0.03,0 0.01,-0.01 0.02,-0.01 0.03,-0.01"/>
     <line class="fil5 str9" x1="8.29" y1="2.12" x2="8.29" y2= "2.13" />
     <line class="fil5 str9" x1="8.32" y1="2.12" x2="8.32" y2= "2.14" />
     <line class="fil5 str9" x1="8.36" y1="2.12" x2="8.36" y2= "2.15" />
     <line class="fil5 str9" x1="8.4" y1="2.12" x2="8.4" y2= "2.15" />
     <line class="fil5 str9" x1="8.43" y1="2.12" x2="8.43" y2= "2.14" />
     <path class="fil11 str14" d="M8.34 2.01c-0.01,0 -0.02,0 -0.03,0 -0.03,0.02 -0.07,0.03 -0.11,0.03 -0.01,0 -0.03,0.02 -0.01,0.01 0.01,0 0.05,0 0.07,0.01 0.06,0.01 0.14,0.02 0.22,-0.01 0.02,0 0.04,0 0.05,0 0.02,0 0.01,0 0,0 -0.05,-0.02 -0.1,-0.02 -0.12,-0.03 -0.01,0 -0.02,-0.01 -0.03,-0.01 -0.01,0.01 -0.02,0.01 -0.04,0z"/>
     <path class="fil9 str15" d="M8.91 1.27c-0.36,0.12 -0.74,0.11 -1.13,0l0.02 -0.27c0,-0.09 0.09,-0.21 0.19,-0.24 0.23,-0.07 0.49,-0.07 0.66,-0.01 0.11,0.04 0.24,0.15 0.25,0.24l0.01 0.28z"/>
     <path class="fil12 str16" d="M7.82 1.35l-0.03 -0.08c0.35,0.08 0.73,0.09 1.12,0.01 -0.01,0.03 -0.01,0.05 -0.03,0.07 -0.01,0.03 -0.03,0.05 -0.06,0.08 -0.13,0.11 -0.85,0.12 -0.94,0 -0.03,-0.02 -0.05,-0.05 -0.06,-0.08z"/>
     <path class="fil13 str17" d="M8.91 1.27c-0.37,0.08 -0.72,0.08 -1.13,-0.01l0 0.03c0.38,0.1 0.76,0.1 1.13,0.01l0 -0.03z"/>
     <path class="fil5 str15" d="M7.78 1.26c0.09,-0.29 0.21,-0.54 0.54,-0.55"/>
     <path class="fil5 str15" d="M8.36 0.71c0.31,-0.01 0.47,0.19 0.55,0.56"/>
     <ellipse class="fil10 str18" cx="8.34" cy="0.71" rx="0.06" ry="0.01"/>
    </g>
    <g>
     <polygon class="fil1 str2" points="6.19,2.49 5.95,2.92 5.78,2.66 6.12,2.32 "/>
     <polygon class="fil1 str2" points="5.34,2.51 5.62,2.91 5.76,2.67 5.4,2.32 "/>
     <path class="fil1 str2" d="M5.33 2.51l0.28 0.42 0.05 -0.07 0.05 0.04 -0.01 0.68c-0.35,0 -0.7,0 -1.05,0 -0.06,0 -0.09,-0.05 -0.09,-0.09 0.01,-0.1 0.03,-0.37 0.05,-0.62 0.01,-0.1 0.04,-0.11 0.11,-0.14 0.12,-0.03 0.58,-0.21 0.61,-0.22z"/>
     <path class="fil4 str2" d="M6.2 2.5l-0.26 0.43 -0.04 -0.07 -0.05 0.04 0.02 0.68c0.35,0 0.55,0 0.9,0 0.1,0 0.12,-0.02 0.12,-0.09 0,-0.1 -0.02,-0.37 -0.05,-0.62 0,-0.07 0,-0.11 -0.08,-0.14 -0.12,-0.04 -0.53,-0.22 -0.56,-0.23z"/>
     <path class="fil4 str3" d="M6.81 3.58l-2.17 0c-0.05,0.01 -0.09,-0.03 -0.09,-0.1 0.02,-0.21 0.04,-0.42 0.06,-0.63 0,-0.06 0.03,-0.09 0.07,-0.11l0.67 -0.24 0.05 -0.19 0.37 0.35 0.34 -0.35 0.08 0.18 0.6 0.26c0.03,0.02 0.05,0.05 0.06,0.1 0.02,0.21 0.04,0.42 0.06,0.64 0.01,0.05 -0.04,0.09 -0.1,0.09z"/>
     <polyline class="fil5 str3" points="5.34,2.51 5.62,2.92 5.77,2.67 5.95,2.92 6.19,2.5 "/>
     <polygon class="fil6 str4" points="5.89,2.86 5.77,2.68 5.66,2.86 5.71,2.91 5.7,3.59 5.9,3.59 5.85,2.91 "/>
     <path class="fil7 str5" d="M5.48 2.36l0.29 0.27 0.27 -0.28 -0.01 -0.11c-0.06,0.06 -0.11,0.11 -0.17,0.17 -0.03,0.04 -0.13,0.04 -0.18,0l-0.2 -0.17 0 0.12z"/>
     <path class="fil7 str5" d="M6.3 1.56c-0.02,0 -0.03,0.02 -0.04,0.04l0.01 -0.05 -0.14 -0.11 0 -0.22 -0.2 0 -0.16 0.05 -0.17 -0.06 -0.21 0.01 -0.01 0.18 -0.1 0.14c-0.01,-0.02 -0.02,-0.04 -0.04,-0.06 0,-0.01 -0.02,-0.01 -0.03,0 -0.02,0 -0.02,0.01 -0.03,0.04 -0.01,0.03 -0.01,0.06 0,0.09l0.02 0.12c0,0.01 0.02,0.02 0.04,0.02 0,0 0.01,0 0.03,-0.02 0.01,0.08 0.03,0.16 0.05,0.23 0.04,0.1 0.09,0.19 0.15,0.28 0.07,0.05 0.14,0.11 0.2,0.17 0.07,0.05 0.13,0.06 0.19,0 0.09,-0.08 0.18,-0.17 0.27,-0.26 0.03,-0.05 0.06,-0.1 0.08,-0.16 0.02,-0.07 0.03,-0.13 0.04,-0.2 0.01,0.01 0.01,0.01 0.02,0.01 0.01,0 0.04,0 0.05,-0.02 0.03,-0.05 0.04,-0.11 0.05,-0.17 0.01,-0.01 -0.01,-0.03 -0.02,-0.04 -0.02,-0.01 -0.04,-0.02 -0.05,-0.01z"/>
     <g>
      <path class="fil3" d="M5.99 1.63c-0.03,0.01 -0.05,0.03 -0.04,0.06 0.01,0.03 0.03,0.05 0.06,0.04 0.06,-0.01 0.05,-0.11 -0.02,-0.1z"/>
      <path class="fil3" d="M5.54 1.63c-0.07,0.02 -0.04,0.11 0.02,0.1 0.02,0 0.04,-0.03 0.04,-0.06 -0.01,-0.03 -0.03,-0.04 -0.06,-0.04z"/>
      <line class="fil5 str6" x1="5.42" y1="1.5" x2="5.69" y2= "1.52" />
      <path class="fil8 str7" d="M5.38 1.4l-0.1 0.15c-0.04,-0.12 -0.07,-0.26 -0.03,-0.45 0.03,-0.18 0.12,-0.25 0.24,-0.27 0.2,-0.03 0.39,-0.03 0.55,0 0.13,0.05 0.22,0.16 0.24,0.26 0.04,0.17 0.01,0.28 -0.01,0.46 -0.05,-0.04 -0.1,-0.07 -0.15,-0.11 -0.01,-0.07 -0.01,-0.15 0,-0.22 -0.07,0.02 -0.12,0.02 -0.18,0 -0.09,0.07 -0.24,0.07 -0.34,0 -0.06,0.01 -0.13,0.02 -0.21,0 0.01,0.06 0.01,0.13 -0.01,0.18z"/>
      <line class="fil5 str6" x1="6.09" y1="1.5" x2="5.83" y2= "1.52" />
      <path class="fil9" d="M5.98 1.63c-0.01,-0.02 0.04,-0.04 0.09,-0.04 0.04,0 0.06,0.02 0.08,0.04 0,0.01 0,0.01 0,0.02l-0.03 0.02c-0.03,-0.03 -0.08,-0.04 -0.14,-0.04z"/>
      <path class="fil9" d="M5.59 1.63c0.01,-0.02 -0.04,-0.04 -0.09,-0.04 -0.04,0 -0.07,0.02 -0.08,0.04 0,0.01 0,0.01 0,0.02l0.03 0.02c0.03,-0.03 0.08,-0.04 0.14,-0.04z"/>
     </g>
     <path class="fil5 str8" d="M5.88 1.57l-0.04 0.04 -0.02 0.07 -0.01 0.12 0.02 0.06 0.04 0.07c0.01,0.01 0.01,0.02 0,0.02l-0.08 0.06c-0.01,0.01 -0.03,0.01 -0.04,0l-0.09 -0.06 0 -0.02 0.03 -0.08 0.01 -0.05 -0.02 -0.12 -0.02 -0.07 -0.05 -0.04"/>
     <g>
      <path class="fil10" d="M5.92 2.1l-0.3 -0.01c-0.01,0 -0.01,0.01 -0.01,0.01l0.07 0.06c0.03,0.02 0.05,0.03 0.09,0.03 0.03,0 0.06,-0.01 0.08,-0.02l0.08 -0.06c0,-0.01 -0.01,-0.01 -0.01,-0.01z"/>
      <g>
       <path class="fil1 str9" d="M5.66 2.08l0 0.03c0,0.01 0.01,0.01 0.02,0.01 0.01,0 0.02,0 0.03,0 0,0 0.01,0 0.02,0 0.01,0.01 0.03,0.01 0.04,0 0.01,0.01 0.03,0.01 0.04,0 0.01,0 0.02,0 0.03,0 0.01,0 0.02,0 0.02,0l0.01 0c0.01,0 0.02,-0.01 0.02,-0.01l0 -0.03c-0.08,0 -0.15,0 -0.23,0z"/>
       <line class="fil5 str10" x1="5.81" y1="2.09" x2="5.81" y2= "2.12" />
       <line class="fil5 str10" x1="5.84" y1="2.09" x2="5.84" y2= "2.12" />
       <line class="fil5 str10" x1="5.86" y1="2.09" x2="5.86" y2= "2.12" />
       <line class="fil5 str10" x1="5.68" y1="2.09" x2="5.68" y2= "2.12" />
       <line class="fil5 str10" x1="5.71" y1="2.09" x2="5.71" y2= "2.12" />
       <line class="fil5 str10" x1="5.73" y1="2.09" x2="5.73" y2= "2.12" />
       <line class="fil5 str10" x1="5.77" y1="2.09" x2="5.77" y2= "2.12" />
       <path class="fil5 str11" d="M5.68 2.19l-0.09 -0.09c-0.01,-0.02 0.01,-0.03 0.03,-0.03 0.11,0.02 0.19,0.01 0.3,0.01 0.04,0 0.04,0.01 0.02,0.03l-0.08 0.08c-0.06,0.04 -0.12,0.04 -0.18,0z"/>
      </g>
     </g>
     <polyline class="fil5 str5" points="5.63,2.31 5.7,2.29 5.76,2.27 5.84,2.28 5.92,2.32 "/>
     <path class="fil5 str12" d="M5.24 1.68c-0.03,-0.03 -0.03,-0.08 -0.03,-0.14 0.01,-0.05 0.02,-0.03 0.03,-0.01 0.02,0.04 0.02,0.06 0,0.09"/>
     <path class="fil5 str12" d="M6.28 1.61c0,-0.02 0.02,-0.04 0.04,-0.04 0.02,0 0.04,0.02 0.04,0.05 -0.01,0.06 -0.04,0.09 -0.06,0.11"/>
     <path class="fil5 str11" d="M5.89 1.69c0.01,0.01 0.03,0.02 0.05,0.03 0.03,0.02 0.06,0.05 0.15,-0.02 0.03,-0.02 0.04,0 0.07,-0.01"/>
     <path class="fil5 str11" d="M5.65 1.69c-0.01,0.01 -0.03,0.02 -0.04,0.03 -0.04,0.02 -0.06,0.05 -0.14,-0.02 -0.03,-0.02 -0.04,0 -0.07,-0.01"/>
     <path class="fil5 str11" d="M5.41 1.68c0.01,0 0.03,0.01 0.04,0 0.07,-0.07 0.12,-0.06 0.16,-0.03 0.01,0.01 0.03,0.03 0.04,0.03"/>
     <path class="fil5 str11" d="M6.16 1.68c-0.01,0 -0.03,0.01 -0.04,0 -0.08,-0.07 -0.14,-0.06 -0.19,-0.03 -0.01,0.01 -0.02,0.03 -0.04,0.03"/>
     <path class="fil11 str5" d="M5.93 2.11c-0.13,0.11 -0.24,0.08 -0.34,-0.02 0.09,0.15 0.23,0.18 0.34,0.02z"/>
     <path class="fil12 str5" d="M5.66 2.08c0,0 -0.05,0 -0.07,0.01 0,0 0.01,0 0.01,0 0.02,0.03 0.05,0.05 0.07,0.06l-0.01 -0.07z"/>
     <path class="fil12 str5" d="M5.9 2.09c0,-0.02 0.05,-0.01 0.05,0 0,0.01 -0.03,0.04 -0.06,0.05l0.01 -0.05z"/>
     <path class="fil1" d="M5.74 2.18c-0.03,-0.01 -0.05,-0.02 -0.06,-0.03 0.03,0 0.01,0.01 0.02,0 0.03,-0.01 0.03,0.01 0.03,0 0.02,-0.01 0.04,0 0.04,0.01 0.01,0.01 -0.01,-0.02 0.04,0 0.01,0 -0.01,-0.01 0.03,0 0.01,0 -0.01,-0.01 0.03,-0.01 -0.02,0.01 -0.04,0.02 -0.06,0.03 -0.03,0 -0.05,0 -0.07,0z"/>
     <path class="fil5 str13" d="M5.68 2.15c0.01,0 0.02,0 0.02,0 0.01,0 0.02,0 0.03,0 0.01,0 0.03,0 0.04,0.01 0.01,-0.01 0.03,-0.01 0.04,0 0,-0.01 0.02,-0.01 0.03,0 0.01,-0.01 0.02,-0.01 0.03,0"/>
     <line class="fil5 str9" x1="5.7" y1="2.16" x2="5.7" y2= "2.17" />
     <line class="fil5 str9" x1="5.73" y1="2.16" x2="5.73" y2= "2.17" />
     <line class="fil5 str9" x1="5.77" y1="2.16" x2="5.77" y2= "2.18" />
     <line class="fil5 str9" x1="5.81" y1="2.15" x2="5.81" y2= "2.18" />
     <line class="fil5 str9" x1="5.84" y1="2.15" x2="5.84" y2= "2.17" />
     <path class="fil11 str14" d="M5.75 2.05c-0.01,-0.01 -0.02,-0.01 -0.03,-0.01 -0.03,0.02 -0.07,0.03 -0.11,0.03 -0.01,0 -0.03,0.02 -0.01,0.02 0.01,-0.01 0.05,-0.01 0.07,0 0.06,0.02 0.14,0.02 0.22,0 0.02,-0.01 0.04,-0.01 0.05,-0.01 0.01,0 0.01,0 0,0 -0.05,-0.01 -0.1,-0.02 -0.12,-0.03 -0.01,0 -0.02,-0.01 -0.03,0 -0.01,0 -0.03,0 -0.04,0z"/>
     <path class="fil9 str15" d="M6.32 1.3c-0.37,0.12 -0.74,0.11 -1.13,0l0.01 -0.27c0,-0.09 0.1,-0.21 0.2,-0.24 0.23,-0.07 0.49,-0.07 0.66,-0.01 0.11,0.04 0.24,0.15 0.25,0.24l0.01 0.28z"/>
     <path class="fil12 str16" d="M5.23 1.38l-0.04 -0.08c0.36,0.08 0.74,0.09 1.13,0.01 -0.01,0.03 -0.01,0.05 -0.03,0.07 -0.01,0.04 -0.03,0.06 -0.06,0.08 -0.13,0.11 -0.85,0.13 -0.94,0 -0.03,-0.02 -0.05,-0.05 -0.06,-0.08z"/>
     <path class="fil13 str17" d="M6.32 1.3c-0.37,0.08 -0.72,0.08 -1.13,-0.01l0 0.03c0.38,0.1 0.75,0.1 1.13,0.01l0 -0.03z"/>
     <path class="fil5 str15" d="M5.19 1.29c0.09,-0.29 0.21,-0.54 0.54,-0.54"/>
     <path class="fil5 str15" d="M5.77 0.75c0.31,-0.02 0.46,0.18 0.55,0.55"/>
     <ellipse class="fil10 str18" cx="5.75" cy="0.74" rx="0.06" ry="0.01"/>
    </g>
    <g>
     <polygon class="fil1 str2" points="7.49,3.48 7.24,3.9 7.07,3.64 7.41,3.31 "/>
     <polygon class="fil1 str2" points="6.63,3.49 6.91,3.9 7.06,3.65 6.69,3.3 "/>
     <path class="fil1 str2" d="M6.63 3.49l0.28 0.43 0.04 -0.08 0.05 0.05 -0.01 0.67c-0.35,0 -0.7,0 -1.05,0 -0.05,0.01 -0.08,-0.05 -0.08,-0.09 0,-0.09 0.03,-0.36 0.05,-0.61 0,-0.11 0.03,-0.12 0.1,-0.14 0.13,-0.04 0.59,-0.22 0.62,-0.23z"/>
     <path class="fil4 str2" d="M7.49 3.48l-0.25 0.44 -0.05 -0.08 -0.05 0.04 0.02 0.68c0.35,0 0.55,0.01 0.9,0.01 0.1,0 0.13,-0.02 0.12,-0.1 0,-0.09 -0.02,-0.37 -0.04,-0.62 -0.01,-0.07 -0.01,-0.1 -0.08,-0.13 -0.12,-0.05 -0.54,-0.22 -0.57,-0.24z"/>
     <path class="fil4 str3" d="M8.1 4.57l-2.17 0c-0.05,0 -0.09,-0.03 -0.08,-0.1 0.01,-0.21 0.03,-0.43 0.05,-0.64 0.01,-0.05 0.03,-0.09 0.07,-0.1l0.67 -0.25 0.05 -0.18 0.37 0.35 0.34 -0.36 0.09 0.19 0.59 0.25c0.04,0.02 0.06,0.06 0.06,0.11 0.02,0.21 0.04,0.42 0.06,0.63 0.01,0.06 -0.04,0.1 -0.1,0.1z"/>
     <polyline class="fil5 str3" points="6.64,3.49 6.91,3.9 7.06,3.66 7.24,3.9 7.48,3.49 "/>
     <polygon class="fil6 str4" points="7.18,3.85 7.06,3.67 6.96,3.85 7.01,3.89 6.99,4.57 7.19,4.57 7.14,3.89 "/>
     <path class="fil7 str5" d="M6.77 3.34l0.29 0.28 0.27 -0.28 -0.01 -0.12c-0.05,0.06 -0.11,0.12 -0.17,0.18 -0.03,0.03 -0.13,0.04 -0.18,0l-0.2 -0.18 0 0.12z"/>
     <path class="fil7 str5" d="M7.59 2.54c-0.02,0 -0.03,0.03 -0.04,0.04l0.02 -0.05 -0.15 -0.1 0 -0.23 -0.19 0 -0.17 0.05 -0.17 -0.05 -0.21 0 -0.01 0.19 -0.1 0.13c-0.01,-0.02 -0.02,-0.03 -0.03,-0.05 -0.01,-0.02 -0.03,-0.02 -0.04,-0.01 -0.02,0.01 -0.02,0.02 -0.03,0.05 -0.01,0.03 0,0.06 0,0.09l0.02 0.11c0.01,0.02 0.02,0.03 0.04,0.03 0.01,0 0.02,-0.01 0.04,-0.03 0,0.09 0.02,0.17 0.04,0.23 0.04,0.1 0.09,0.2 0.15,0.28 0.07,0.06 0.14,0.12 0.21,0.18 0.06,0.05 0.12,0.05 0.18,0 0.09,-0.09 0.18,-0.17 0.27,-0.26 0.04,-0.05 0.07,-0.11 0.09,-0.16 0.01,-0.07 0.02,-0.14 0.03,-0.21 0.01,0.01 0.02,0.02 0.03,0.02 0,0 0.03,-0.01 0.04,-0.02 0.03,-0.06 0.05,-0.12 0.06,-0.17 0,-0.02 -0.01,-0.04 -0.03,-0.05 -0.01,-0.01 -0.04,-0.01 -0.05,-0.01z"/>
     <g>
      <path class="fil3" d="M7.28 2.62c-0.02,0 -0.04,0.02 -0.04,0.06 0.01,0.02 0.03,0.04 0.07,0.04 0.05,-0.02 0.05,-0.12 -0.03,-0.1z"/>
      <path class="fil3" d="M6.83 2.62c-0.07,0.01 -0.04,0.11 0.02,0.1 0.03,-0.01 0.05,-0.03 0.04,-0.07 0,-0.02 -0.03,-0.04 -0.06,-0.03z"/>
      <line class="fil5 str6" x1="6.72" y1="2.48" x2="6.98" y2= "2.51" />
      <path class="fil8 str7" d="M6.68 2.39l-0.11 0.14c-0.04,-0.12 -0.07,-0.26 -0.03,-0.45 0.03,-0.18 0.13,-0.25 0.24,-0.27 0.21,-0.03 0.39,-0.02 0.55,0.01 0.13,0.04 0.22,0.16 0.24,0.25 0.04,0.18 0.02,0.29 0,0.46 -0.05,-0.03 -0.1,-0.07 -0.15,-0.11 -0.02,-0.07 -0.02,-0.14 -0.01,-0.22 -0.07,0.02 -0.11,0.02 -0.18,0 -0.09,0.08 -0.24,0.07 -0.34,0 -0.06,0.02 -0.13,0.02 -0.21,0 0.01,0.07 0.01,0.13 0,0.19z"/>
      <line class="fil5 str6" x1="7.39" y1="2.48" x2="7.13" y2= "2.51" />
      <path class="fil9" d="M7.28 2.61c-0.02,-0.02 0.03,-0.04 0.08,-0.04 0.04,0.01 0.07,0.02 0.08,0.05 0,0 0.01,0.01 0,0.02l-0.02 0.01c-0.04,-0.03 -0.09,-0.04 -0.14,-0.04z"/>
      <path class="fil9" d="M6.88 2.61c0.01,-0.02 -0.03,-0.04 -0.09,-0.04 -0.04,0.01 -0.06,0.02 -0.08,0.05 0,0 0,0.01 0,0.02l0.03 0.01c0.03,-0.03 0.08,-0.04 0.14,-0.04z"/>
     </g>
     <path class="fil5 str8" d="M7.17 2.56l-0.04 0.03 -0.01 0.08 -0.02 0.11 0.02 0.06 0.05 0.08c0,0.01 0,0.01 -0.01,0.02l-0.08 0.06c-0.01,0 -0.02,0 -0.04,-0.01l-0.09 -0.05 0 -0.03 0.04 -0.07 0 -0.06 -0.02 -0.11 -0.02 -0.08 -0.05 -0.04"/>
     <g>
      <path class="fil10" d="M7.22 3.08l-0.31 0c-0.01,0 -0.01,0 -0.01,0.01l0.07 0.06c0.03,0.01 0.06,0.02 0.09,0.02 0.03,0 0.06,0 0.09,-0.02l0.07 -0.06c0.01,-0.01 0,0 0,-0.01z"/>
      <g>
       <path class="fil1 str9" d="M6.95 3.06l0 0.03c0,0.01 0.01,0.01 0.02,0.01 0.01,0.01 0.02,0.01 0.03,0 0.01,0.01 0.01,0.01 0.02,0 0.01,0.01 0.03,0.01 0.04,0 0.01,0.01 0.03,0.01 0.04,0 0.01,0.01 0.02,0.01 0.03,0 0.01,0.01 0.02,0.01 0.03,0l0 0c0.01,0 0.02,0 0.02,-0.01l0 -0.03c-0.07,0.01 -0.15,0.01 -0.23,0z"/>
       <line class="fil5 str10" x1="7.1" y1="3.08" x2="7.1" y2= "3.1" />
       <line class="fil5 str10" x1="7.13" y1="3.08" x2="7.13" y2= "3.1" />
       <line class="fil5 str10" x1="7.16" y1="3.08" x2="7.16" y2= "3.1" />
       <line class="fil5 str10" x1="6.97" y1="3.08" x2="6.97" y2= "3.1" />
       <line class="fil5 str10" x1="7" y1="3.08" x2="7" y2= "3.11" />
       <line class="fil5 str10" x1="7.02" y1="3.08" x2="7.02" y2= "3.1" />
       <line class="fil5 str10" x1="7.06" y1="3.08" x2="7.06" y2= "3.1" />
       <path class="fil5 str11" d="M6.97 3.18l-0.09 -0.1c-0.01,-0.02 0.02,-0.02 0.03,-0.02 0.12,0.01 0.19,0.01 0.3,0 0.04,0 0.04,0.01 0.02,0.04l-0.07 0.08c-0.06,0.04 -0.12,0.04 -0.19,0z"/>
      </g>
     </g>
     <polyline class="fil5 str5" points="6.92,3.3 6.99,3.27 7.06,3.25 7.14,3.27 7.21,3.3 "/>
     <path class="fil5 str12" d="M6.53 2.67c-0.02,-0.03 -0.03,-0.08 -0.03,-0.15 0.01,-0.05 0.03,-0.02 0.03,0 0.02,0.04 0.02,0.06 0,0.09"/>
     <path class="fil5 str12" d="M7.57 2.6c0.01,-0.03 0.02,-0.05 0.04,-0.04 0.03,-0.01 0.04,0.01 0.04,0.04 -0.01,0.07 -0.04,0.1 -0.06,0.11"/>
     <path class="fil5 str11" d="M7.18 2.67c0.02,0.02 0.03,0.02 0.05,0.03 0.04,0.02 0.06,0.05 0.15,-0.01 0.04,-0.03 0.04,-0.01 0.07,-0.02"/>
     <path class="fil5 str11" d="M6.94 2.67c-0.01,0.02 -0.02,0.02 -0.04,0.03 -0.03,0.02 -0.06,0.05 -0.14,-0.01 -0.03,-0.03 -0.03,-0.01 -0.06,-0.02"/>
     <path class="fil5 str11" d="M6.7 2.67c0.02,0 0.03,0 0.04,0 0.08,-0.07 0.13,-0.07 0.17,-0.03 0.01,0.01 0.02,0.02 0.03,0.02"/>
     <path class="fil5 str11" d="M7.45 2.67c-0.01,0 -0.03,0 -0.04,0 -0.08,-0.07 -0.14,-0.07 -0.18,-0.03 -0.02,0.01 -0.03,0.02 -0.05,0.02"/>
     <path class="fil11 str5" d="M7.22 3.1c-0.13,0.1 -0.23,0.07 -0.33,-0.03 0.08,0.16 0.23,0.18 0.33,0.03z"/>
     <path class="fil12 str5" d="M6.95 3.07c0,0 -0.05,-0.01 -0.06,0 -0.01,0 0,0 0,0.01 0.02,0.02 0.05,0.04 0.07,0.05l-0.01 -0.06z"/>
     <path class="fil12 str5" d="M7.19 3.07c0,-0.01 0.05,-0.01 0.05,0 0.01,0.02 -0.03,0.04 -0.06,0.06l0.01 -0.06z"/>
     <path class="fil1" d="M7.03 3.16c-0.02,0 -0.04,-0.01 -0.06,-0.02 0.03,-0.01 0.01,0 0.03,0 0.02,-0.01 0.02,0 0.02,0 0.02,-0.01 0.04,0 0.04,0 0.01,0.01 -0.01,-0.01 0.04,0 0.01,0 -0.01,-0.01 0.03,0 0.01,0 -0.01,0 0.03,0 -0.02,0.01 -0.04,0.02 -0.06,0.02 -0.02,0.01 -0.05,0.01 -0.07,0z"/>
     <path class="fil5 str13" d="M6.97 3.14c0.01,-0.01 0.02,-0.01 0.03,0 0,-0.01 0.01,-0.01 0.02,0 0.01,-0.01 0.03,0 0.04,0 0.02,-0.01 0.03,-0.01 0.04,0 0.01,0 0.02,0 0.03,0 0.01,-0.01 0.02,-0.01 0.03,0"/>
     <line class="fil5 str9" x1="7" y1="3.14" x2="7" y2= "3.15" />
     <line class="fil5 str9" x1="7.02" y1="3.14" x2="7.02" y2= "3.16" />
     <line class="fil5 str9" x1="7.06" y1="3.14" x2="7.06" y2= "3.17" />
     <line class="fil5 str9" x1="7.1" y1="3.14" x2="7.1" y2= "3.16" />
     <line class="fil5 str9" x1="7.13" y1="3.14" x2="7.13" y2= "3.15" />
     <path class="fil11 str14" d="M7.04 3.03c0,-0.01 -0.01,-0.01 -0.03,0 -0.03,0.01 -0.07,0.02 -0.1,0.03 -0.02,0 -0.04,0.01 -0.01,0.01 0.01,0 0.04,0 0.06,0 0.07,0.02 0.15,0.02 0.22,0 0.02,0 0.04,0 0.05,0 0.02,0 0.01,-0.01 0,-0.01 -0.05,-0.01 -0.1,-0.01 -0.12,-0.02 -0.01,-0.01 -0.02,-0.02 -0.03,-0.01 -0.01,0 -0.02,0 -0.04,0z"/>
     <path class="fil9 str15" d="M7.61 2.29c-0.36,0.12 -0.74,0.11 -1.13,0l0.02 -0.27c0,-0.1 0.1,-0.22 0.19,-0.24 0.23,-0.07 0.49,-0.07 0.66,-0.02 0.11,0.04 0.24,0.15 0.25,0.25l0.01 0.28z"/>
     <path class="fil12 str16" d="M6.52 2.37l-0.03 -0.09c0.36,0.09 0.73,0.1 1.12,0.02 0,0.02 -0.01,0.04 -0.02,0.07 -0.02,0.03 -0.04,0.05 -0.07,0.07 -0.13,0.12 -0.85,0.13 -0.94,0.01 -0.03,-0.03 -0.05,-0.05 -0.06,-0.08z"/>
     <path class="fil13 str17" d="M7.61 2.29c-0.37,0.08 -0.72,0.08 -1.13,-0.01l0.01 0.02c0.38,0.1 0.75,0.1 1.12,0.01l0 -0.02z"/>
     <path class="fil5 str15" d="M6.48 2.28c0.09,-0.29 0.21,-0.55 0.54,-0.55"/>
     <path class="fil5 str15" d="M7.06 1.73c0.31,-0.01 0.47,0.18 0.55,0.56"/>
     <ellipse class="fil10 str18" cx="7.04" cy="1.73" rx="0.06" ry="0.01"/>
    </g>
   </g>
  </g>
 </g>
</svg>
