<?xml version="1.0" encoding="UTF-8"?>
<!DOCTYPE svg PUBLIC "-//W3C//DTD SVG 1.1//EN" "http://www.w3.org/Graphics/SVG/1.1/DTD/svg11.dtd">
<!-- Creator: CorelDRAW 2021 (64 Bit) -->
<svg xmlns="http://www.w3.org/2000/svg" xml:space="preserve" width="725px" height="375px" version="1.1" style="shape-rendering:geometricPrecision; text-rendering:geometricPrecision; image-rendering:optimizeQuality; fill-rule:evenodd; clip-rule:evenodd"
viewBox="0 0 10.02 5.18"
 xmlns:xlink="http://www.w3.org/1999/xlink"
 xmlns:xodm="http://www.corel.com/coreldraw/odm/2003">
 <defs>
  <style type="text/css">
   <![CDATA[
    .str3 {stroke:#967708;stroke-width:0.01;stroke-miterlimit:22.9256}
    .str2 {stroke:black;stroke-width:0.07;stroke-miterlimit:22.9256}
    .str0 {stroke:#B8B4B6;stroke-width:0.35;stroke-miterlimit:22.9256}
    .str1 {stroke:black;stroke-width:0.01;stroke-miterlimit:22.9256}
    .fil3 {fill:black}
    .fil8 {fill:#009933}
    .fil7 {fill:#00CCFF}
    .fil0 {fill:aqua}
    .fil9 {fill:#99FF99}
    .fil10 {fill:#9C7C49}
    .fil4 {fill:red}
    .fil5 {fill:#FFAE00}
    .fil6 {fill:yellow}
    .fil2 {fill:white}
    .fil1 {fill:white}
   ]]>
  </style>
 </defs>
 <g id="Camada_x0020_1">
  <metadata id="CorelCorpID_0Corel-Layer"/>
  <g id="_2713755641568">
   <rect class="fil0" x="0.32" y="0.27" width="9.39" height="4.63"/>
   <rect class="fil1 str0" x="0.17" y="0.17" width="9.67" height="4.84" rx="0.45" ry="0.41"/>
   <g>
    <g>
     <path class="fil2" d="M2.64 2.47c0.06,0 0.11,-0.02 0.15,-0.04 0.02,-0.02 0.04,-0.03 0.06,-0.05 0.01,-0.01 0.04,-0.03 0.06,-0.04 0.02,0.04 0.05,0.05 0.07,0.07 -0.01,0.05 -0.1,0.1 -0.14,0.13 -0.14,0.07 -0.3,0.08 -0.44,0.01 -0.04,-0.02 -0.13,-0.08 -0.14,-0.12 0.01,-0.02 0.06,-0.07 0.09,-0.08 0.06,0.11 0.17,0.12 0.29,0.12zm0.26 -0.71c0.18,-0.04 0.2,0.21 0.05,0.24 -0.08,0.02 -0.14,-0.03 -0.15,-0.09 -0.02,-0.09 0.03,-0.14 0.1,-0.15zm-0.68 0c0.08,-0.01 0.15,0.03 0.16,0.09 0.01,0.08 -0.04,0.14 -0.1,0.15 -0.16,0.03 -0.23,-0.21 -0.06,-0.24zm1.22 0.11c0.03,-0.12 0.06,-0.24 0,-0.34 -0.03,-0.03 -0.08,-0.07 -0.11,-0.1 -0.1,-0.06 -0.12,-0.03 -0.2,0.04 -0.14,0.11 -0.34,0.19 -0.52,0.2 -0.26,0 -0.43,-0.15 -0.57,-0.25 -0.06,-0.04 -0.1,-0.02 -0.16,0 -0.06,0.03 -0.09,0.05 -0.1,0.11 -0.01,0.04 -0.03,0.13 -0.03,0.17 0,0.06 0.03,0.12 0.02,0.18l-0.14 0.02c-0.04,0.07 0.02,0.19 0.04,0.26 0.01,0.05 0.02,0.09 0.05,0.1 0.04,0.02 0.1,0.02 0.14,0.02 0.03,0.1 0.06,0.16 0.11,0.23 0.03,0.05 0.11,0.14 0.15,0.17 0.07,0.06 0.12,0.09 0.21,0.12 0.09,0.03 0.19,0.04 0.29,0.04 0.23,0.01 0.36,-0.07 0.49,-0.17 0.05,-0.03 0.13,-0.11 0.16,-0.16 0.08,-0.12 0.07,-0.12 0.11,-0.23 0.07,0 0.13,0.02 0.16,-0.03 0.04,-0.06 0.03,-0.11 0.05,-0.17 0.01,-0.04 0.05,-0.13 0.01,-0.16 -0.04,-0.03 -0.12,-0.03 -0.16,-0.05z"/>
     <path class="fil3" d="M2.64 2.47c-0.12,0 -0.23,-0.01 -0.29,-0.12 -0.03,0.01 -0.08,0.06 -0.09,0.08 0.01,0.04 0.1,0.1 0.14,0.12 0.14,0.07 0.3,0.06 0.44,-0.01 0.04,-0.03 0.13,-0.08 0.14,-0.13 -0.02,-0.02 -0.05,-0.03 -0.07,-0.07 -0.02,0.01 -0.05,0.03 -0.06,0.04 -0.02,0.02 -0.04,0.03 -0.06,0.05 -0.04,0.02 -0.09,0.04 -0.15,0.04z"/>
     <polygon class="fil3" points="1.35,4.56 1.46,4.56 1.46,4.08 1.35,4.08 "/>
     <polygon class="fil3" points="3.86,4.55 3.95,4.55 3.97,4.55 3.97,4.09 3.95,4.09 3.86,4.09 "/>
     <path class="fil3" d="M2.9 1.76c-0.07,0.01 -0.12,0.06 -0.1,0.15 0.01,0.06 0.07,0.11 0.15,0.09 0.15,-0.03 0.13,-0.28 -0.05,-0.24z"/>
     <path class="fil3" d="M2.22 1.76c-0.17,0.03 -0.1,0.27 0.06,0.24 0.06,-0.01 0.11,-0.07 0.1,-0.15 -0.01,-0.06 -0.08,-0.1 -0.16,-0.09z"/>
     <path class="fil3 str1" d="M3.44 1.87c0.04,0.02 0.12,0.02 0.16,0.05 0.04,0.03 0,0.12 -0.01,0.16 -0.02,0.06 -0.01,0.11 -0.05,0.17 -0.03,0.05 -0.09,0.03 -0.16,0.03 -0.04,0.11 -0.03,0.11 -0.11,0.23 -0.03,0.05 -0.11,0.13 -0.16,0.16 -0.13,0.1 -0.26,0.18 -0.49,0.17 -0.1,0 -0.2,-0.01 -0.29,-0.04 -0.09,-0.03 -0.14,-0.06 -0.21,-0.12 -0.04,-0.03 -0.12,-0.12 -0.15,-0.17 -0.05,-0.07 -0.08,-0.13 -0.11,-0.23 -0.04,0 -0.1,0 -0.14,-0.02 -0.03,-0.01 -0.04,-0.05 -0.05,-0.1 -0.02,-0.07 -0.08,-0.19 -0.04,-0.26l0.14 -0.02c0.01,-0.06 -0.02,-0.12 -0.02,-0.18 0,-0.04 0.02,-0.13 0.03,-0.17 0.01,-0.06 0.04,-0.08 0.1,-0.11 0.06,-0.02 0.1,-0.04 0.16,0 0.14,0.1 0.31,0.25 0.57,0.25 0.18,-0.01 0.38,-0.09 0.52,-0.2 0.08,-0.07 0.1,-0.1 0.2,-0.04 0.03,0.03 0.08,0.07 0.11,0.1 0.06,0.1 0.03,0.22 0,0.34zm-1.23 -1.29c-0.17,0.08 -0.33,0.22 -0.42,0.35 -0.07,0.1 -0.13,0.19 -0.16,0.36 -0.01,0.08 -0.01,0.16 -0.01,0.25 0,0.09 0.02,0.16 0.02,0.24 -0.07,0.01 -0.1,0.04 -0.12,0.1 -0.02,0.07 -0.02,0.13 0,0.2 0.09,0.41 0.22,0.24 0.29,0.38 0.04,0.07 0.03,0.07 0.08,0.14l0.11 0.12c0.03,0.04 0.07,0.08 0.12,0.1 0,0.05 0.01,0.25 0,0.29 0,0.04 -0.02,0.04 -0.05,0.05 -0.17,0.01 -0.5,0.08 -0.68,0.11 -0.11,0.02 -0.21,0.04 -0.31,0.09 -0.05,0.02 -0.09,0.04 -0.13,0.06 -0.12,0.09 -0.2,0.22 -0.24,0.36 -0.02,0.08 -0.01,0.28 -0.01,0.38 0,0.13 0,0.27 0,0.4 0.08,0 0.11,0.01 0.12,-0.04l0 -0.47c0,-0.19 0,-0.37 0.15,-0.49 0.08,-0.06 0.11,-0.08 0.21,-0.12 0.17,-0.05 0.36,-0.07 0.54,-0.11 0.09,-0.01 0.18,-0.04 0.28,-0.04 0.01,0.1 0.01,0.15 0.06,0.23 0.07,0.12 0.19,0.21 0.32,0.26 0.07,0.03 0.17,0.06 0.25,0.05 0.28,-0.01 0.63,-0.24 0.64,-0.54l0.69 0.12c0.24,0.03 0.46,0.2 0.48,0.44 0,0.24 0.01,0.47 0.01,0.7l0.12 0.01 0 -0.7c-0.05,-0.28 -0.19,-0.5 -0.64,-0.58 -0.23,-0.04 -0.46,-0.08 -0.69,-0.12 -0.08,-0.01 -0.11,-0.02 -0.1,-0.1 0,-0.08 0,-0.19 0,-0.26 0.05,-0.04 0.09,-0.07 0.13,-0.11 0.05,-0.05 0.17,-0.18 0.18,-0.28 0.21,-0.01 0.22,-0.16 0.25,-0.28 0.01,-0.04 0.02,-0.06 0.03,-0.1 0.01,-0.04 0.01,-0.08 0,-0.11 -0.03,-0.07 -0.07,-0.11 -0.14,-0.13 0,-0.25 0.04,-0.37 -0.04,-0.6 -0.06,-0.17 -0.11,-0.25 -0.22,-0.37 -0.05,-0.05 -0.05,-0.04 -0.09,-0.08 -0.03,-0.03 -0.1,-0.07 -0.14,-0.1 -0.18,-0.11 -0.34,-0.13 -0.55,-0.13 -0.08,0.01 -0.21,0.02 -0.34,0.07zm-0.31 0.42c0.1,-0.11 0.2,-0.23 0.4,-0.32 0.07,-0.03 0.11,-0.04 0.2,-0.05 0.14,-0.01 0.31,0.01 0.44,0.06 0.1,0.04 0.15,0.08 0.23,0.14 0.08,0.08 0.1,0.09 0.17,0.2 0.04,0.06 0.15,0.27 0.14,0.37 -0.05,-0.04 -0.14,-0.09 -0.2,-0.12 -0.04,-0.02 -0.08,-0.01 -0.12,0.01 -0.03,0.03 -0.06,0.05 -0.09,0.07 -0.3,0.22 -0.56,0.27 -0.89,0.02 -0.03,-0.03 -0.06,-0.04 -0.09,-0.07 -0.04,-0.02 -0.06,-0.04 -0.12,-0.03 -0.13,0.01 -0.17,0.07 -0.23,0.08 0.01,-0.16 0.12,-0.31 0.16,-0.36zm0.72 2.71c0.02,0 0.04,0 0.06,0 0.03,0 0.06,-0.01 0.08,-0.01 0.21,-0.04 0.39,-0.23 0.39,-0.43 -0.09,-0.03 -0.13,-0.09 -0.12,-0.17l0 -0.24 0 0c-0.01,0.01 -0.02,0.01 -0.03,0.02 -0.11,0.05 -0.25,0.08 -0.38,0.09 -0.11,0 -0.21,-0.01 -0.31,-0.05 -0.02,-0.01 -0.05,-0.02 -0.08,-0.03 0,0.08 0.01,0.18 0.01,0.25 -0.01,0.08 -0.07,0.11 -0.13,0.13 0,0.23 0.21,0.4 0.4,0.43 0.05,0.01 0.08,0.01 0.11,0.01z"/>
    </g>
    <g>
     <g>
      <g>
       <path class="fil4" d="M7.71 1.26c-0.44,-0.22 -0.68,-0.15 -0.96,0.16 -0.25,0.33 -0.27,0.67 -0.15,1.06l-0.96 1.38c0.14,0.13 0.28,0.19 0.4,0.1l0.14 -0.14 0.31 -0.18 0.09 -0.38 0.33 -0.08 0.15 -0.3c0.39,0.12 0.69,-0.04 0.9,-0.46 0.15,-0.44 0.09,-0.84 -0.25,-1.16z"/>
       <g>
        <path class="fil3 str2" d="M7.4 1.48c0.12,-0.04 0.22,0.05 0.24,0.16 0.03,0.14 -0.05,0.26 -0.14,0.29 -0.26,0.07 -0.36,-0.37 -0.1,-0.45zm0 -0.05c-0.12,0.03 -0.21,0.16 -0.18,0.33 0.02,0.14 0.14,0.24 0.27,0.21 0.12,-0.03 0.22,-0.17 0.19,-0.33 -0.03,-0.14 -0.14,-0.24 -0.28,-0.21z"/>
        <path class="fil3" d="M6.96 1.18c-0.15,0.04 -0.1,0.34 0.06,0.28 0.06,-0.02 0.11,-0.09 0.09,-0.17 -0.01,-0.07 -0.08,-0.13 -0.15,-0.11z"/>
       </g>
       <path class="fil3" d="M6.71 1.42c-0.02,0.01 -0.04,0.04 -0.05,0.06 -0.13,0.15 -0.19,0.42 -0.18,0.63 0,0.08 0,0.16 0.02,0.23 0.03,0.13 0.06,0.13 0.03,0.18 -0.08,0.1 -0.12,0.17 -0.2,0.27l-0.19 0.27c-0.04,0.06 -0.56,0.8 -0.57,0.82 0.04,0.02 0.07,0.05 0.1,0.08 0.12,0.09 0.28,0.13 0.41,0.05 0.07,-0.04 0.1,-0.15 0.18,-0.2l0.26 -0.13c0,0 0,0.01 0,-0.01 0,-0.01 0,0 0,-0.01 0.02,-0.1 0.06,-0.27 0.09,-0.37 0.09,-0.01 0.25,-0.02 0.32,-0.09 0.03,-0.03 0.05,-0.07 0.08,-0.12 0.02,-0.04 0.06,-0.09 0.07,-0.12 0.14,0.03 0.2,0.05 0.37,0 0.11,-0.03 0.23,-0.1 0.3,-0.17 0.08,-0.09 0.14,-0.16 0.19,-0.28 0.05,-0.11 0.08,-0.22 0.1,-0.37 0.01,-0.16 0,-0.31 -0.05,-0.45 -0.04,-0.14 -0.1,-0.23 -0.17,-0.31l-0.12 -0.11c-0.1,-0.08 -0.25,-0.14 -0.38,-0.14 -0.02,0 -0.09,0 -0.1,0.01l0.02 0.01c0,0.06 -0.01,0.08 0.01,0.14 0.11,0.01 0.17,-0.03 0.32,0.04 0.08,0.03 0.16,0.1 0.22,0.18 0.04,0.05 0.13,0.19 0.15,0.28 0.05,0.25 0.03,0.52 -0.1,0.73 -0.04,0.08 -0.12,0.19 -0.19,0.24 -0.19,0.14 -0.41,0.16 -0.62,0.07 -0.01,0.01 -0.03,0.04 -0.04,0.06l-0.13 0.22c-0.01,0.02 -0.04,0.02 -0.08,0.03l-0.28 0.06c-0.02,0.1 -0.05,0.23 -0.07,0.34 -0.02,0.06 0,0.04 -0.11,0.1l-0.19 0.12c-0.04,0.02 -0.03,0.01 -0.05,0.05 -0.01,0.02 -0.08,0.12 -0.09,0.12 -0.1,0.05 -0.24,-0.01 -0.29,-0.07 0.01,-0.02 0.02,-0.02 0.03,-0.04 0.08,-0.1 0.14,-0.2 0.22,-0.3 0.02,-0.03 0.05,-0.05 0.06,-0.08l0.32 -0.43c0.01,-0.03 0.04,-0.06 0.06,-0.08 0.02,-0.03 0.04,-0.06 0.07,-0.09l0.12 -0.17c0.05,-0.06 0.09,-0.11 0.13,-0.17 -0.01,-0.04 -0.05,-0.08 -0.06,-0.1 -0.01,-0.02 -0.03,-0.11 -0.04,-0.13 -0.06,-0.21 -0.01,-0.43 0.08,-0.61 0.02,-0.02 0.03,-0.03 0.04,-0.05 0.01,-0.04 0.04,-0.07 0.06,-0.1 -0.02,-0.01 -0.03,-0.03 -0.04,-0.04 -0.02,-0.02 -0.04,-0.02 -0.04,-0.05z"/>
      </g>
      <g>
       <path class="fil5" d="M7.51 1.22c-0.47,-0.08 -0.68,0.07 -0.89,0.46 -0.17,0.4 -0.12,0.73 0.08,1.07l-0.64 1.64c0.17,0.08 0.32,0.09 0.41,-0.04l0.11 -0.17 0.26 -0.28 0 -0.39 0.31 -0.19 0.08 -0.33c0.4,-0.01 0.65,-0.26 0.76,-0.73 0.07,-0.48 -0.08,-0.84 -0.48,-1.04z"/>
       <g>
        <path class="fil3 str2" d="M7.26 1.52c0.11,-0.06 0.22,-0.01 0.27,0.09 0.06,0.12 0,0.26 -0.08,0.32 -0.23,0.15 -0.43,-0.24 -0.19,-0.41zm-0.01 -0.04c-0.11,0.07 -0.17,0.23 -0.11,0.37 0.05,0.13 0.19,0.2 0.32,0.12 0.1,-0.06 0.17,-0.23 0.1,-0.38 -0.05,-0.12 -0.18,-0.18 -0.31,-0.11z"/>
        <path class="fil3" d="M6.78 1.38c-0.15,0.09 -0.03,0.36 0.11,0.25 0.06,-0.04 0.09,-0.12 0.05,-0.2 -0.03,-0.06 -0.1,-0.09 -0.16,-0.05z"/>
       </g>
       <path class="fil3" d="M6.58 1.69c-0.01,0.02 -0.03,0.05 -0.04,0.08 -0.09,0.18 -0.09,0.46 -0.04,0.66 0.02,0.08 0.04,0.15 0.07,0.22 0.06,0.11 0.09,0.11 0.07,0.16 -0.05,0.12 -0.08,0.2 -0.13,0.32l-0.13 0.33c-0.03,0.07 -0.38,0.94 -0.38,0.97 0.04,0.01 0.07,0.02 0.12,0.04 0.12,0.06 0.29,0.04 0.4,-0.07 0.06,-0.07 0.06,-0.19 0.13,-0.26l0.22 -0.2c0.01,-0.01 0,0.01 0,-0.01 0.01,-0.01 0.01,0 0,-0.02 0,-0.1 0.01,-0.27 0.01,-0.38 0.09,-0.04 0.23,-0.1 0.29,-0.18 0.02,-0.04 0.03,-0.1 0.05,-0.15 0.01,-0.05 0.04,-0.1 0.04,-0.14 0.15,-0.01 0.21,-0.01 0.36,-0.11 0.1,-0.07 0.2,-0.17 0.25,-0.27 0.06,-0.1 0.11,-0.2 0.13,-0.33 0.02,-0.12 0.03,-0.24 0.02,-0.39 -0.02,-0.16 -0.07,-0.3 -0.14,-0.42 -0.08,-0.12 -0.15,-0.18 -0.23,-0.24l-0.14 -0.07c-0.12,-0.05 -0.27,-0.05 -0.4,-0.01 -0.02,0.01 -0.08,0.03 -0.09,0.04l0.02 0c0.01,0.06 0,0.08 0.03,0.13 0.12,-0.02 0.17,-0.08 0.32,-0.06 0.09,0.01 0.18,0.05 0.25,0.1 0.05,0.04 0.17,0.15 0.21,0.23 0.1,0.22 0.13,0.49 0.06,0.74 -0.03,0.09 -0.08,0.22 -0.13,0.29 -0.17,0.19 -0.37,0.28 -0.59,0.26 -0.01,0.01 -0.02,0.05 -0.03,0.07l-0.07 0.25c-0.02,0.03 -0.04,0.03 -0.08,0.06l-0.26 0.15c0.01,0.1 0,0.24 0.01,0.35 0,0.06 0,0.04 -0.08,0.13l-0.17 0.18c-0.03,0.03 -0.03,0.02 -0.03,0.06 -0.01,0.02 -0.06,0.14 -0.07,0.15 -0.08,0.07 -0.23,0.06 -0.29,0.02 0.01,-0.02 0.01,-0.03 0.02,-0.05 0.06,-0.12 0.1,-0.23 0.15,-0.36 0.02,-0.03 0.03,-0.06 0.05,-0.1l0.21 -0.51c0.01,-0.03 0.03,-0.07 0.04,-0.1 0.02,-0.04 0.03,-0.07 0.05,-0.1l0.08 -0.21c0.03,-0.07 0.06,-0.14 0.09,-0.21 -0.02,-0.03 -0.06,-0.05 -0.08,-0.08 -0.01,-0.01 -0.06,-0.09 -0.07,-0.11 -0.1,-0.18 -0.1,-0.41 -0.04,-0.61 0,-0.03 0.01,-0.04 0.02,-0.06 0.01,-0.04 0.03,-0.08 0.04,-0.12 -0.02,-0.01 -0.03,-0.01 -0.05,-0.02 -0.02,-0.01 -0.04,-0.01 -0.05,-0.04z"/>
      </g>
      <g>
       <path class="fil6" d="M7.33 1.19c-0.47,0.08 -0.65,0.29 -0.77,0.74 -0.08,0.43 0.04,0.73 0.31,1l-0.28 1.79c0.18,0.02 0.33,-0.02 0.39,-0.17l0.07 -0.2 0.19 -0.35 -0.08 -0.38 0.26 -0.28 0.01 -0.35c0.38,-0.14 0.57,-0.45 0.58,-0.95 -0.04,-0.47 -0.25,-0.78 -0.68,-0.85z"/>
       <g>
        <path class="fil3 str2" d="M7.15 1.57c0.09,-0.1 0.21,-0.09 0.27,-0.01 0.09,0.1 0.07,0.26 -0.01,0.34 -0.18,0.22 -0.46,-0.1 -0.26,-0.33zm-0.02 -0.04c-0.09,0.1 -0.11,0.27 -0.03,0.39 0.08,0.11 0.23,0.13 0.33,0.02 0.09,-0.1 0.12,-0.28 0.03,-0.4 -0.08,-0.1 -0.22,-0.12 -0.33,-0.01z"/>
        <path class="fil3" d="M6.65 1.58c-0.12,0.14 0.05,0.36 0.17,0.21 0.04,-0.06 0.05,-0.15 0,-0.21 -0.04,-0.05 -0.12,-0.06 -0.17,0z"/>
       </g>
       <path class="fil3" d="M6.53 1.94c-0.01,0.03 -0.02,0.06 -0.02,0.09 -0.05,0.21 0.01,0.47 0.1,0.66 0.03,0.06 0.07,0.13 0.11,0.18 0.08,0.09 0.11,0.08 0.1,0.14 -0.03,0.13 -0.04,0.22 -0.06,0.35l-0.06 0.36c-0.01,0.07 -0.16,1.03 -0.16,1.05 0.05,0 0.08,0 0.12,0.01 0.14,0.01 0.3,-0.06 0.38,-0.2 0.04,-0.09 0.02,-0.2 0.07,-0.29l0.17 -0.27c0,-0.01 0.01,0.01 0,-0.01 0,-0.01 0,0 0,-0.01 -0.03,-0.1 -0.06,-0.27 -0.08,-0.38 0.08,-0.07 0.21,-0.16 0.24,-0.26 0.02,-0.05 0.02,-0.1 0.02,-0.16 0,-0.05 0.02,-0.11 0.01,-0.15 0.14,-0.06 0.2,-0.08 0.33,-0.22 0.08,-0.1 0.15,-0.23 0.18,-0.34 0.04,-0.12 0.06,-0.23 0.06,-0.36 -0.01,-0.13 -0.02,-0.24 -0.07,-0.38 -0.05,-0.15 -0.13,-0.27 -0.22,-0.36 -0.1,-0.09 -0.19,-0.13 -0.28,-0.16l-0.14 -0.02c-0.13,-0.01 -0.28,0.03 -0.39,0.11 -0.02,0.01 -0.07,0.05 -0.08,0.07l0.02 -0.01c0.02,0.05 0.02,0.08 0.06,0.12 0.1,-0.06 0.14,-0.13 0.29,-0.16 0.09,-0.02 0.19,-0.01 0.27,0.02 0.06,0.02 0.19,0.09 0.24,0.15 0.15,0.19 0.24,0.43 0.22,0.69 -0.01,0.1 -0.03,0.24 -0.07,0.33 -0.11,0.24 -0.29,0.38 -0.51,0.43 -0.01,0.02 -0.01,0.06 -0.01,0.09l-0.02 0.26c-0.01,0.03 -0.03,0.04 -0.06,0.08l-0.22 0.22c0.03,0.1 0.05,0.23 0.08,0.34 0.01,0.06 0.01,0.04 -0.05,0.16l-0.12 0.22c-0.03,0.04 -0.03,0.03 -0.03,0.07 0,0.02 -0.02,0.15 -0.02,0.16 -0.07,0.1 -0.22,0.14 -0.28,0.12 0,-0.02 0,-0.03 0.01,-0.06 0.02,-0.13 0.04,-0.25 0.07,-0.39 0,-0.04 0.01,-0.07 0.02,-0.11l0.09 -0.56c0.01,-0.04 0.02,-0.08 0.03,-0.12 0,-0.04 0.01,-0.07 0.02,-0.11l0.03 -0.23c0.02,-0.07 0.03,-0.14 0.05,-0.22 -0.03,-0.03 -0.07,-0.04 -0.1,-0.05 -0.01,-0.01 -0.07,-0.07 -0.08,-0.09 -0.14,-0.15 -0.19,-0.36 -0.18,-0.58 0,-0.02 0.01,-0.04 0.01,-0.06 0,-0.05 0.01,-0.09 0.01,-0.13 -0.02,0 -0.03,0 -0.05,-0.01 -0.02,0 -0.04,0 -0.05,-0.02z"/>
      </g>
      <g>
       <path class="fil2" d="M7.37 1.81c-0.16,-0.55 -0.36,-0.72 -0.75,-0.77 -0.36,0 -0.57,0.21 -0.73,0.58l-1.48 0.05c0.02,0.23 0.08,0.39 0.22,0.44l0.17 0.03 0.32 0.16 0.29 -0.18 0.27 0.25 0.28 -0.06c0.19,0.43 0.48,0.59 0.88,0.5 0.37,-0.15 0.56,-0.47 0.53,-1z"/>
       <g>
        <path class="fil3 str2" d="M7.03 1.68c0.1,0.08 0.11,0.23 0.07,0.32 -0.07,0.12 -0.19,0.13 -0.27,0.06 -0.22,-0.18 -0.02,-0.57 0.2,-0.38zm0.03 -0.03c-0.1,-0.09 -0.24,-0.09 -0.32,0.04 -0.07,0.12 -0.05,0.3 0.06,0.4 0.09,0.09 0.25,0.08 0.32,-0.05 0.06,-0.12 0.05,-0.29 -0.06,-0.39z"/>
        <path class="fil3" d="M6.92 1.08c-0.14,-0.12 -0.28,0.13 -0.13,0.24 0.05,0.04 0.12,0.04 0.16,-0.04 0.03,-0.06 0.02,-0.15 -0.03,-0.2z"/>
       </g>
       <path class="fil3" d="M6.6 1.01c-0.02,-0.01 -0.05,-0.01 -0.07,-0.01 -0.18,-0.01 -0.37,0.11 -0.5,0.26 -0.05,0.05 -0.09,0.11 -0.13,0.18 -0.05,0.11 -0.03,0.14 -0.09,0.14 -0.1,0 -0.18,0.01 -0.29,0.01l-0.29 0c-0.06,0.01 -0.86,0.03 -0.88,0.03 0.01,0.06 0.02,0.1 0.03,0.15 0.01,0.17 0.1,0.34 0.23,0.41 0.08,0.04 0.16,-0.02 0.25,0.02l0.25 0.16c0.01,-0.01 -0.01,0 0.01,-0.01 0.01,0 0,0 0.01,-0.01 0.07,-0.05 0.2,-0.12 0.28,-0.17 0.07,0.08 0.18,0.22 0.26,0.23 0.04,0.01 0.09,0 0.13,-0.01 0.04,0 0.09,0 0.12,-0.01 0.08,0.15 0.11,0.21 0.25,0.34 0.09,0.07 0.21,0.14 0.3,0.15 0.11,0.02 0.2,0.02 0.3,-0.01 0.1,-0.03 0.19,-0.07 0.29,-0.16 0.11,-0.09 0.19,-0.21 0.24,-0.35 0.05,-0.13 0.07,-0.24 0.07,-0.36l-0.01 -0.18c-0.02,-0.15 -0.09,-0.32 -0.18,-0.44 -0.01,-0.02 -0.05,-0.08 -0.07,-0.08l0.01 0.02c-0.03,0.04 -0.05,0.04 -0.08,0.1 0.07,0.11 0.14,0.14 0.19,0.31 0.04,0.1 0.05,0.23 0.04,0.33 0,0.07 -0.03,0.25 -0.07,0.32 -0.11,0.22 -0.29,0.38 -0.5,0.41 -0.08,0.01 -0.2,0.02 -0.27,-0.01 -0.22,-0.09 -0.37,-0.27 -0.46,-0.52 -0.02,-0.01 -0.05,0 -0.07,0l-0.21 0.03c-0.03,0 -0.04,-0.02 -0.07,-0.05l-0.23 -0.22c-0.08,0.06 -0.18,0.11 -0.26,0.17 -0.04,0.02 -0.02,0.02 -0.13,-0.03l-0.2 -0.1c-0.04,-0.02 -0.03,-0.02 -0.07,-0.01 -0.01,0 -0.12,0.01 -0.13,0 -0.09,-0.05 -0.15,-0.23 -0.15,-0.31 0.02,0 0.03,0 0.05,0 0.11,0 0.21,0 0.32,0 0.04,0 0.07,0.01 0.1,0l0.47 0c0.02,0 0.06,0 0.09,0 0.03,0 0.06,0 0.09,0l0.19 0c0.07,0 0.13,0 0.19,0 0.02,-0.03 0.02,-0.09 0.02,-0.12 0.01,-0.02 0.04,-0.1 0.05,-0.13 0.09,-0.19 0.25,-0.29 0.43,-0.33 0.02,0 0.03,0 0.05,0 0.03,-0.01 0.07,-0.01 0.1,-0.01 0,-0.02 0,-0.04 0,-0.07 0,-0.02 -0.01,-0.04 0,-0.06z"/>
      </g>
      <g>
       <path class="fil7" d="M7.13 1.15c-0.44,0.22 -0.57,0.47 -0.59,0.95 0.02,0.44 0.2,0.69 0.51,0.87l0.11 1.81c0.18,-0.03 0.32,-0.11 0.35,-0.28l0.01 -0.22 0.12 -0.39 -0.16 -0.35 0.19 -0.35 -0.07 -0.34c0.35,-0.25 0.47,-0.62 0.37,-1.1 -0.14,-0.45 -0.41,-0.67 -0.84,-0.6z"/>
       <g>
        <path class="fil3 str2" d="M7.04 1.56c0.06,-0.12 0.18,-0.14 0.26,-0.09 0.1,0.07 0.12,0.23 0.06,0.33 -0.13,0.27 -0.46,0.05 -0.32,-0.24zm-0.03 -0.03c-0.06,0.12 -0.05,0.3 0.06,0.39 0.09,0.08 0.24,0.05 0.32,-0.09 0.06,-0.12 0.05,-0.31 -0.06,-0.39 -0.1,-0.07 -0.24,-0.05 -0.32,0.09z"/>
        <path class="fil3" d="M6.56 1.74c-0.09,0.16 0.12,0.32 0.2,0.14 0.03,-0.06 0.03,-0.16 -0.04,-0.2 -0.05,-0.04 -0.12,-0.02 -0.16,0.06z"/>
       </g>
       <path class="fil3" d="M6.52 2.12c-0.01,0.03 -0.01,0.07 -0.01,0.09 0,0.22 0.11,0.46 0.24,0.61 0.04,0.05 0.09,0.1 0.15,0.14 0.1,0.06 0.12,0.04 0.12,0.1 0.01,0.14 0.01,0.22 0.02,0.36l0.02 0.36c0,0.08 0.06,1.05 0.07,1.07 0.04,-0.01 0.07,-0.02 0.12,-0.03 0.13,-0.03 0.27,-0.15 0.31,-0.31 0.03,-0.1 -0.02,-0.2 0.01,-0.3l0.11 -0.32c0,-0.01 0.01,0.01 0,-0.01 0,-0.01 0,0 -0.01,-0.01 -0.04,-0.09 -0.11,-0.24 -0.15,-0.34 0.06,-0.09 0.17,-0.23 0.18,-0.33 0,-0.05 -0.01,-0.1 -0.02,-0.16 0,-0.05 -0.01,-0.11 -0.02,-0.14 0.12,-0.11 0.18,-0.15 0.27,-0.33 0.06,-0.11 0.1,-0.27 0.11,-0.38 0.01,-0.13 0.01,-0.24 -0.03,-0.36 -0.03,-0.13 -0.06,-0.23 -0.14,-0.35 -0.08,-0.13 -0.18,-0.22 -0.29,-0.28 -0.11,-0.06 -0.21,-0.07 -0.3,-0.07l-0.15 0.03c-0.12,0.03 -0.25,0.12 -0.35,0.24 -0.01,0.01 -0.06,0.07 -0.06,0.08l0.02 -0.01c0.03,0.04 0.03,0.07 0.08,0.09 0.09,-0.08 0.11,-0.17 0.25,-0.25 0.08,-0.04 0.18,-0.07 0.26,-0.06 0.06,0 0.21,0.02 0.27,0.07 0.18,0.13 0.32,0.34 0.35,0.6 0.02,0.1 0.03,0.24 0.01,0.33 -0.06,0.27 -0.2,0.47 -0.41,0.59 0,0.02 0.01,0.06 0.01,0.08l0.04 0.26c0,0.03 -0.02,0.05 -0.04,0.1l-0.17 0.28c0.05,0.09 0.1,0.21 0.15,0.31 0.02,0.05 0.02,0.03 -0.02,0.16l-0.07 0.25c-0.01,0.05 -0.01,0.04 0,0.09 0,0.01 0.01,0.15 0,0.16 -0.04,0.11 -0.18,0.2 -0.24,0.2 -0.01,-0.02 0,-0.03 0,-0.06 -0.01,-0.13 -0.02,-0.26 -0.02,-0.4 0,-0.04 0,-0.08 0,-0.12l-0.03 -0.57c0,-0.03 0,-0.08 0,-0.11 0,-0.05 0,-0.08 0,-0.12l-0.02 -0.23c0,-0.08 0,-0.15 0,-0.23 -0.03,-0.02 -0.08,-0.02 -0.11,-0.02 -0.01,-0.01 -0.08,-0.05 -0.1,-0.06 -0.16,-0.1 -0.25,-0.29 -0.29,-0.5 0,-0.03 0,-0.05 0,-0.07 -0.01,-0.04 -0.01,-0.09 -0.02,-0.12 -0.01,0 -0.03,0 -0.05,0.01 -0.02,0 -0.03,0.01 -0.05,-0.01z"/>
      </g>
      <g>
       <path class="fil0" d="M6.87 1.22c-0.38,0.36 -0.45,0.64 -0.37,1.11 0.11,0.42 0.34,0.61 0.68,0.68l0.49 1.72c0.16,-0.1 0.27,-0.22 0.27,-0.39l-0.03 -0.21 0.03 -0.42 -0.23 -0.29 0.11 -0.39 -0.13 -0.31c0.28,-0.36 0.31,-0.75 0.12,-1.18 -0.23,-0.39 -0.54,-0.52 -0.94,-0.32z"/>
       <g>
        <path class="fil3 str2" d="M6.87 1.65c0.03,-0.14 0.14,-0.2 0.23,-0.17 0.12,0.04 0.16,0.18 0.13,0.3 -0.07,0.3 -0.44,0.2 -0.36,-0.13zm-0.03 -0.02c-0.04,0.14 0.01,0.31 0.13,0.36 0.11,0.05 0.25,-0.03 0.29,-0.19 0.04,-0.14 -0.01,-0.31 -0.14,-0.36 -0.11,-0.04 -0.24,0.03 -0.28,0.19z"/>
        <path class="fil3" d="M6.44 1.97c-0.05,0.19 0.19,0.28 0.23,0.08 0.02,-0.07 -0.01,-0.16 -0.08,-0.18 -0.06,-0.02 -0.13,0.02 -0.15,0.1z"/>
       </g>
       <path class="fil3" d="M6.48 2.36c0,0.03 0.01,0.07 0.02,0.09 0.04,0.21 0.2,0.4 0.35,0.51 0.06,0.04 0.12,0.07 0.18,0.09 0.11,0.03 0.12,0 0.14,0.06 0.03,0.13 0.06,0.21 0.09,0.34l0.1 0.34c0.02,0.07 0.27,0.99 0.29,1.01 0.04,-0.03 0.06,-0.04 0.11,-0.07 0.12,-0.07 0.23,-0.23 0.24,-0.4 0,-0.1 -0.07,-0.18 -0.06,-0.29l0.04 -0.34c0,-0.01 0.01,0 0,-0.01 -0.01,-0.01 0,0 -0.01,-0.01 -0.06,-0.07 -0.16,-0.2 -0.22,-0.27 0.04,-0.11 0.11,-0.28 0.1,-0.39 -0.01,-0.04 -0.03,-0.09 -0.05,-0.14 -0.01,-0.05 -0.03,-0.11 -0.05,-0.14 0.1,-0.13 0.14,-0.19 0.19,-0.39 0.03,-0.14 0.04,-0.3 0.03,-0.41 -0.02,-0.12 -0.05,-0.23 -0.1,-0.34 -0.06,-0.11 -0.12,-0.2 -0.22,-0.29 -0.1,-0.1 -0.22,-0.16 -0.34,-0.18 -0.12,-0.02 -0.21,0 -0.3,0.03l-0.13 0.07c-0.12,0.07 -0.23,0.2 -0.29,0.34 -0.01,0.02 -0.05,0.09 -0.04,0.11l0.01 -0.02c0.04,0.03 0.05,0.05 0.1,0.06 0.06,-0.11 0.07,-0.2 0.19,-0.32 0.06,-0.06 0.15,-0.12 0.24,-0.14 0.05,-0.02 0.2,-0.04 0.27,-0.02 0.2,0.07 0.38,0.23 0.47,0.47 0.03,0.09 0.07,0.22 0.07,0.32 0,0.28 -0.09,0.51 -0.26,0.69 0,0.02 0.01,0.06 0.02,0.08l0.09 0.24c0.01,0.03 -0.01,0.06 -0.02,0.1l-0.1 0.33c0.07,0.07 0.14,0.18 0.21,0.25 0.03,0.05 0.02,0.02 0.02,0.17l-0.02 0.26c0,0.05 0,0.04 0.01,0.08 0.01,0.02 0.05,0.14 0.05,0.16 -0.02,0.12 -0.14,0.25 -0.2,0.27 -0.01,-0.02 -0.01,-0.03 -0.01,-0.06 -0.04,-0.13 -0.07,-0.24 -0.1,-0.38 -0.01,-0.04 -0.02,-0.07 -0.03,-0.11l-0.15 -0.55c-0.01,-0.03 -0.02,-0.07 -0.02,-0.11 -0.01,-0.04 -0.02,-0.07 -0.03,-0.11l-0.06 -0.22c-0.02,-0.07 -0.04,-0.14 -0.06,-0.22 -0.03,-0.01 -0.07,0.01 -0.1,0.02 -0.01,0 -0.09,-0.02 -0.11,-0.03 -0.18,-0.04 -0.31,-0.2 -0.39,-0.39 0,-0.02 -0.01,-0.04 -0.02,-0.06 -0.01,-0.04 -0.02,-0.08 -0.04,-0.12 -0.01,0.01 -0.03,0.02 -0.04,0.03 -0.02,0.01 -0.04,0.02 -0.06,0.01z"/>
      </g>
      <g>
       <path class="fil8" d="M6.69 1.37c-0.29,0.46 -0.3,0.76 -0.12,1.19 0.19,0.38 0.45,0.48 0.79,0.44l0.84 1.5c0.14,-0.14 0.22,-0.29 0.18,-0.46l-0.08 -0.19 -0.06 -0.42 -0.28 -0.2 0.03 -0.42 -0.2 -0.25c0.2,-0.43 0.15,-0.82 -0.13,-1.18 -0.3,-0.3 -0.63,-0.33 -0.97,-0.01z"/>
       <g>
        <path class="fil3 str2" d="M6.78 1.79c0,-0.14 0.1,-0.24 0.19,-0.24 0.11,0 0.19,0.12 0.19,0.25 -0.01,0.31 -0.39,0.33 -0.38,-0.01zm-0.04 -0.01c-0.01,0.15 0.08,0.29 0.21,0.3 0.11,0.01 0.23,-0.1 0.24,-0.27 0.01,-0.15 -0.08,-0.3 -0.21,-0.3 -0.12,-0.01 -0.23,0.1 -0.24,0.27z"/>
        <path class="fil3" d="M6.43 2.24c0,0.19 0.24,0.21 0.24,0 0,-0.08 -0.05,-0.16 -0.12,-0.15 -0.06,0 -0.12,0.06 -0.12,0.15z"/>
       </g>
       <path class="fil3" d="M6.55 2.6c0.01,0.02 0.03,0.06 0.04,0.08 0.08,0.19 0.28,0.32 0.45,0.37 0.06,0.02 0.12,0.04 0.19,0.04 0.1,-0.01 0.11,-0.04 0.14,0.01 0.06,0.11 0.1,0.18 0.16,0.3l0.17 0.3c0.03,0.06 0.48,0.87 0.49,0.89 0.03,-0.04 0.06,-0.07 0.09,-0.11 0.1,-0.11 0.18,-0.29 0.15,-0.46 -0.02,-0.1 -0.1,-0.16 -0.11,-0.27l-0.04 -0.34c0,0 0.01,0 0,-0.01 -0.01,0 0,0 -0.01,0 -0.08,-0.05 -0.2,-0.14 -0.27,-0.2 0.01,-0.11 0.05,-0.3 0.01,-0.4 -0.01,-0.04 -0.04,-0.08 -0.07,-0.12 -0.03,-0.04 -0.06,-0.1 -0.08,-0.12 0.06,-0.16 0.09,-0.23 0.1,-0.44 0,-0.14 -0.02,-0.3 -0.06,-0.4 -0.05,-0.11 -0.09,-0.21 -0.17,-0.3 -0.08,-0.09 -0.15,-0.16 -0.27,-0.21 -0.12,-0.06 -0.24,-0.08 -0.36,-0.06 -0.12,0.02 -0.21,0.06 -0.29,0.12l-0.11 0.11c-0.1,0.11 -0.18,0.26 -0.21,0.42 -0.01,0.02 -0.03,0.1 -0.02,0.12l0.01 -0.02c0.05,0.01 0.06,0.03 0.11,0.03 0.04,-0.14 0.02,-0.22 0.11,-0.37 0.05,-0.09 0.13,-0.17 0.2,-0.22 0.05,-0.03 0.19,-0.1 0.27,-0.1 0.2,0 0.41,0.1 0.55,0.3 0.04,0.07 0.11,0.19 0.13,0.29 0.06,0.27 0.02,0.52 -0.11,0.75 0.01,0.02 0.03,0.05 0.04,0.07l0.14 0.2c0.01,0.03 0.01,0.06 0,0.11l-0.02 0.35c0.08,0.04 0.17,0.12 0.25,0.17 0.04,0.03 0.03,0.01 0.05,0.15l0.04 0.26c0.01,0.05 0.01,0.05 0.03,0.08 0.01,0.01 0.07,0.12 0.07,0.13 0.02,0.13 -0.07,0.29 -0.13,0.33 -0.01,-0.02 -0.01,-0.03 -0.02,-0.05 -0.06,-0.12 -0.12,-0.22 -0.18,-0.34 -0.02,-0.03 -0.03,-0.06 -0.05,-0.1l-0.25 -0.48c-0.02,-0.02 -0.04,-0.06 -0.05,-0.1 -0.02,-0.03 -0.04,-0.06 -0.05,-0.09l-0.11 -0.2c-0.03,-0.06 -0.06,-0.13 -0.1,-0.19 -0.03,0 -0.07,0.03 -0.09,0.04 -0.02,0.01 -0.1,0.02 -0.12,0.02 -0.18,0.01 -0.34,-0.1 -0.45,-0.26 -0.01,-0.02 -0.02,-0.04 -0.03,-0.05 -0.03,-0.03 -0.05,-0.08 -0.07,-0.1 -0.01,0.01 -0.02,0.02 -0.04,0.04 -0.01,0.01 -0.02,0.03 -0.05,0.03z"/>
      </g>
      <g>
       <path class="fil9" d="M6.6 1.55c-0.18,0.54 -0.12,0.83 0.13,1.18 0.27,0.31 0.54,0.32 0.86,0.18l1.13 1.18c0.1,-0.18 0.15,-0.35 0.07,-0.5l-0.11 -0.16 -0.14 -0.38 -0.31 -0.11 -0.07 -0.41 -0.24 -0.19c0.09,-0.48 -0.04,-0.84 -0.38,-1.1 -0.35,-0.19 -0.68,-0.11 -0.94,0.31z"/>
       <g>
        <path class="fil3 str2" d="M6.78 1.92c-0.03,-0.14 0.04,-0.26 0.13,-0.29 0.11,-0.04 0.21,0.06 0.23,0.18 0.06,0.31 -0.3,0.44 -0.36,0.11zm-0.04 0c0.02,0.15 0.13,0.26 0.26,0.23 0.12,-0.02 0.21,-0.18 0.18,-0.34 -0.03,-0.14 -0.14,-0.26 -0.27,-0.23 -0.11,0.04 -0.2,0.18 -0.17,0.34z"/>
        <path class="fil3" d="M6.54 2.46c0.03,0.2 0.27,0.13 0.22,-0.07 -0.01,-0.07 -0.07,-0.13 -0.14,-0.11 -0.06,0.02 -0.1,0.1 -0.08,0.18z"/>
       </g>
       <path class="fil3" d="M6.73 2.77c0.01,0.03 0.04,0.05 0.05,0.07 0.12,0.15 0.34,0.22 0.51,0.22 0.07,0 0.13,-0.01 0.19,-0.03 0.11,-0.04 0.11,-0.07 0.15,-0.03 0.08,0.09 0.13,0.14 0.22,0.24l0.22 0.23c0.05,0.05 0.64,0.69 0.66,0.7 0.02,-0.05 0.04,-0.08 0.07,-0.12 0.07,-0.14 0.1,-0.35 0.04,-0.5 -0.04,-0.09 -0.13,-0.12 -0.16,-0.22l-0.11 -0.32c0,0 0.01,0 -0.01,0 0,-0.01 0,-0.01 -0.01,-0.01 -0.08,-0.02 -0.21,-0.07 -0.3,-0.1 -0.01,-0.12 -0.01,-0.31 -0.07,-0.39 -0.02,-0.04 -0.06,-0.07 -0.1,-0.1 -0.03,-0.03 -0.07,-0.07 -0.09,-0.09 0.02,-0.17 0.04,-0.25 0,-0.45 -0.03,-0.14 -0.09,-0.28 -0.15,-0.37 -0.06,-0.1 -0.13,-0.18 -0.22,-0.24 -0.1,-0.06 -0.18,-0.1 -0.31,-0.12 -0.13,-0.02 -0.25,0 -0.36,0.06 -0.11,0.06 -0.18,0.13 -0.25,0.21l-0.09 0.14c-0.07,0.14 -0.11,0.31 -0.11,0.48 0,0.02 0,0.1 0.01,0.11l0 -0.02c0.05,0 0.06,0.02 0.11,-0.01 0.01,-0.14 -0.02,-0.21 0.04,-0.39 0.03,-0.1 0.08,-0.2 0.14,-0.27 0.05,-0.05 0.16,-0.16 0.23,-0.18 0.21,-0.06 0.43,-0.04 0.6,0.11 0.06,0.06 0.15,0.15 0.19,0.24 0.11,0.24 0.13,0.5 0.05,0.76 0.02,0.01 0.04,0.04 0.06,0.05l0.17 0.15c0.02,0.03 0.02,0.06 0.03,0.11l0.05 0.34c0.08,0.02 0.19,0.06 0.28,0.09 0.05,0.02 0.03,0 0.08,0.13l0.1 0.24c0.01,0.05 0.01,0.04 0.04,0.06 0.01,0.01 0.09,0.1 0.1,0.11 0.04,0.12 -0.02,0.3 -0.06,0.35 -0.02,-0.01 -0.02,-0.02 -0.04,-0.03 -0.08,-0.1 -0.15,-0.18 -0.24,-0.27 -0.02,-0.03 -0.04,-0.06 -0.07,-0.08l-0.34 -0.39c-0.03,-0.02 -0.05,-0.05 -0.07,-0.08 -0.03,-0.02 -0.05,-0.05 -0.07,-0.08l-0.14 -0.15c-0.05,-0.05 -0.09,-0.1 -0.14,-0.15 -0.03,0.01 -0.06,0.05 -0.09,0.07 -0.01,0.01 -0.08,0.04 -0.1,0.05 -0.17,0.07 -0.35,0.01 -0.49,-0.11 -0.02,-0.01 -0.03,-0.02 -0.05,-0.03 -0.03,-0.03 -0.05,-0.06 -0.08,-0.08 -0.01,0.02 -0.02,0.03 -0.03,0.05 -0.01,0.02 -0.02,0.04 -0.04,0.04z"/>
      </g>
     </g>
     <path class="fil10 str3" d="M6.92 1.91c0.01,0.02 0.05,0.03 0.13,0.04l1.54 0.11c0.14,0.01 0.51,0.07 0.63,-0.16 0.08,-0.21 -0.01,-0.63 -0.12,-0.95 -0.23,-0.29 -0.57,-0.49 -1.38,-0.44 -0.36,0.04 -0.67,0.21 -0.91,0.56 0.07,0.01 0.11,0.05 0.14,0.13 0.18,-0.32 0.46,-0.53 0.82,-0.56 0.47,-0.01 0.99,0.09 1.12,0.32 0.17,0.27 0.18,0.62 0.15,0.79 0.01,0.08 -0.11,0.17 -0.22,0.17l-1.77 -0.07c-0.05,0 -0.09,0.01 -0.11,0.02 -0.02,0.01 -0.02,0.03 -0.02,0.04z"/>
    </g>
   </g>
  </g>
 </g>
</svg>
