<?xml version="1.0" encoding="UTF-8"?>
<!DOCTYPE svg PUBLIC "-//W3C//DTD SVG 1.1//EN" "http://www.w3.org/Graphics/SVG/1.1/DTD/svg11.dtd">
<!-- Creator: CorelDRAW 2021 (64 Bit) -->
<svg xmlns="http://www.w3.org/2000/svg" xml:space="preserve" width="725px" height="375px" version="1.1" style="shape-rendering:geometricPrecision; text-rendering:geometricPrecision; image-rendering:optimizeQuality; fill-rule:evenodd; clip-rule:evenodd"
viewBox="0 0 10.02 5.18"
 xmlns:xlink="http://www.w3.org/1999/xlink"
 xmlns:xodm="http://www.corel.com/coreldraw/odm/2003">
 <defs>
  <style type="text/css">
   <![CDATA[
    .str7 {stroke:#52331E;stroke-width:0.01;stroke-miterlimit:22.9256}
    .str6 {stroke:#9F740B;stroke-width:0.01;stroke-miterlimit:22.9256}
    .str10 {stroke:black;stroke-width:0.11;stroke-miterlimit:22.9256}
    .str9 {stroke:black;stroke-width:0.07;stroke-miterlimit:22.9256}
    .str2 {stroke:#86B0C0;stroke-width:0.07;stroke-miterlimit:22.9256}
    .str4 {stroke:#E2A610;stroke-width:0.07;stroke-miterlimit:22.9256}
    .str8 {stroke:#9F740E;stroke-width:0.03;stroke-miterlimit:22.9256}
    .str5 {stroke:#FDD734;stroke-width:0.03;stroke-miterlimit:22.9256}
    .str0 {stroke:#B8B4B6;stroke-width:0.35;stroke-miterlimit:22.9256}
    .str1 {stroke:black;stroke-width:0.01;stroke-miterlimit:22.9256}
    .str3 {stroke:#B9E4EA;stroke-width:0.01;stroke-miterlimit:22.9256}
    .fil13 {fill:none}
    .fil3 {fill:black}
    .fil0 {fill:aqua}
    .fil9 {fill:#52331E}
    .fil4 {fill:#86B0C0}
    .fil8 {fill:#9F740B}
    .fil10 {fill:#9F7507}
    .fil5 {fill:#B9E4EA}
    .fil6 {fill:#E2A610}
    .fil12 {fill:#EAFF00}
    .fil7 {fill:#FDD734}
    .fil11 {fill:red}
    .fil2 {fill:white}
    .fil1 {fill:white}
   ]]>
  </style>
 </defs>
 <g id="Camada_x0020_1">
  <metadata id="CorelCorpID_0Corel-Layer"/>
  <g id="_2713922356000">
   <rect class="fil0" x="0.32" y="0.27" width="9.38" height="4.63"/>
   <rect class="fil1 str0" x="0.17" y="0.17" width="9.67" height="4.84" rx="0.45" ry="0.41"/>
   <g>
    <g>
     <path class="fil2" d="M2.68 2.48c0.06,0 0.11,-0.02 0.15,-0.05 0.02,-0.01 0.04,-0.03 0.06,-0.04 0.01,-0.01 0.04,-0.04 0.06,-0.04 0.01,0.04 0.05,0.05 0.07,0.06 -0.01,0.05 -0.1,0.11 -0.14,0.13 -0.14,0.08 -0.3,0.08 -0.44,0.02 -0.04,-0.02 -0.13,-0.08 -0.14,-0.12 0.01,-0.02 0.06,-0.07 0.09,-0.08 0.06,0.1 0.17,0.12 0.29,0.12zm0.26 -0.71c0.18,-0.04 0.2,0.21 0.05,0.24 -0.08,0.02 -0.14,-0.03 -0.15,-0.09 -0.02,-0.09 0.02,-0.14 0.1,-0.15zm-0.68 0c0.08,-0.02 0.15,0.02 0.16,0.09 0.01,0.08 -0.04,0.14 -0.1,0.15 -0.16,0.03 -0.23,-0.21 -0.06,-0.24zm1.22 0.1c0.03,-0.11 0.06,-0.24 -0.01,-0.33 -0.02,-0.03 -0.07,-0.08 -0.1,-0.1 -0.1,-0.06 -0.12,-0.03 -0.2,0.03 -0.14,0.11 -0.34,0.2 -0.52,0.2 -0.26,0.01 -0.43,-0.14 -0.58,-0.24 -0.05,-0.04 -0.1,-0.02 -0.15,0 -0.06,0.03 -0.09,0.04 -0.1,0.11 -0.01,0.04 -0.04,0.13 -0.03,0.17 0,0.06 0.02,0.11 0.02,0.18l-0.14 0.02c-0.04,0.07 0.02,0.19 0.03,0.26 0.02,0.04 0.03,0.08 0.06,0.1 0.04,0.02 0.1,0.02 0.14,0.02 0.03,0.1 0.06,0.15 0.11,0.23 0.03,0.04 0.11,0.14 0.15,0.17 0.07,0.06 0.12,0.09 0.21,0.12 0.09,0.03 0.19,0.04 0.29,0.04 0.23,0 0.36,-0.07 0.49,-0.17 0.05,-0.03 0.13,-0.12 0.16,-0.17 0.08,-0.11 0.07,-0.12 0.11,-0.22 0.07,0 0.13,0.02 0.16,-0.04 0.04,-0.05 0.03,-0.1 0.05,-0.16 0.01,-0.04 0.05,-0.13 0.01,-0.16 -0.04,-0.03 -0.12,-0.03 -0.16,-0.06z"/>
     <path class="fil3" d="M2.68 2.48c-0.12,0 -0.23,-0.02 -0.29,-0.12 -0.03,0.01 -0.08,0.06 -0.09,0.08 0.01,0.04 0.1,0.1 0.14,0.12 0.14,0.06 0.3,0.06 0.44,-0.02 0.04,-0.02 0.13,-0.08 0.14,-0.13 -0.02,-0.01 -0.06,-0.02 -0.07,-0.06 -0.02,0 -0.05,0.03 -0.06,0.04 -0.02,0.01 -0.04,0.03 -0.06,0.04 -0.04,0.03 -0.09,0.05 -0.15,0.05z"/>
     <polygon class="fil3" points="1.39,4.57 1.5,4.57 1.5,4.08 1.39,4.08 "/>
     <polygon class="fil3" points="3.89,4.56 3.99,4.56 4.01,4.55 4.01,4.1 3.99,4.1 3.89,4.1 "/>
     <path class="fil3" d="M2.94 1.77c-0.08,0.01 -0.12,0.06 -0.1,0.15 0.01,0.06 0.07,0.11 0.15,0.09 0.15,-0.03 0.13,-0.28 -0.05,-0.24z"/>
     <path class="fil3" d="M2.26 1.77c-0.17,0.03 -0.1,0.27 0.06,0.24 0.06,-0.01 0.11,-0.07 0.1,-0.15 -0.01,-0.07 -0.08,-0.11 -0.16,-0.09z"/>
     <path class="fil3 str1" d="M3.48 1.87c0.04,0.03 0.12,0.03 0.16,0.06 0.04,0.03 0,0.12 -0.01,0.16 -0.02,0.06 -0.01,0.11 -0.05,0.16 -0.03,0.06 -0.09,0.04 -0.16,0.04 -0.04,0.1 -0.03,0.11 -0.11,0.22 -0.03,0.05 -0.11,0.14 -0.16,0.17 -0.13,0.1 -0.26,0.17 -0.49,0.17 -0.1,0 -0.2,-0.01 -0.29,-0.04 -0.09,-0.03 -0.14,-0.06 -0.21,-0.12 -0.04,-0.03 -0.12,-0.13 -0.15,-0.17 -0.05,-0.08 -0.08,-0.13 -0.11,-0.23 -0.04,0 -0.1,0 -0.14,-0.02 -0.03,-0.02 -0.04,-0.06 -0.06,-0.1 -0.01,-0.07 -0.07,-0.19 -0.03,-0.26l0.14 -0.02c0,-0.07 -0.02,-0.12 -0.02,-0.18 -0.01,-0.04 0.02,-0.13 0.03,-0.17 0.01,-0.07 0.04,-0.08 0.1,-0.11 0.05,-0.02 0.1,-0.04 0.15,0 0.15,0.1 0.32,0.25 0.58,0.24 0.18,0 0.38,-0.09 0.52,-0.2 0.08,-0.06 0.1,-0.09 0.2,-0.03 0.03,0.02 0.08,0.07 0.1,0.1 0.07,0.09 0.04,0.22 0.01,0.33zm-1.23 -1.28c-0.17,0.07 -0.33,0.22 -0.42,0.34 -0.07,0.11 -0.13,0.19 -0.16,0.36 -0.01,0.08 -0.01,0.17 -0.01,0.25 0,0.09 0.02,0.16 0.02,0.25 -0.07,0.01 -0.1,0.03 -0.12,0.1 -0.02,0.07 -0.02,0.13 0,0.2 0.09,0.41 0.22,0.24 0.29,0.38 0.03,0.07 0.03,0.07 0.08,0.14l0.1 0.12c0.04,0.04 0.07,0.08 0.13,0.1 0,0.05 0,0.25 0,0.29 -0.01,0.03 -0.02,0.04 -0.05,0.04 -0.17,0.02 -0.5,0.09 -0.68,0.12 -0.12,0.02 -0.21,0.04 -0.31,0.08 -0.05,0.02 -0.09,0.04 -0.13,0.07 -0.12,0.08 -0.21,0.21 -0.24,0.35 -0.02,0.09 -0.01,0.29 -0.01,0.39 0,0.13 -0.01,0.26 0,0.4 0.08,0 0.11,0.01 0.12,-0.04l0 -0.48c0,-0.18 0,-0.37 0.15,-0.49 0.07,-0.05 0.11,-0.08 0.21,-0.11 0.17,-0.06 0.36,-0.08 0.54,-0.11 0.08,-0.02 0.18,-0.04 0.28,-0.04 0.01,0.1 0.01,0.15 0.06,0.22 0.07,0.13 0.19,0.22 0.32,0.27 0.06,0.02 0.17,0.05 0.25,0.05 0.28,-0.01 0.63,-0.24 0.64,-0.54l0.69 0.12c0.24,0.03 0.46,0.2 0.48,0.44 0,0.23 0.01,0.47 0.01,0.7l0.12 0.01 0 -0.7c-0.05,-0.29 -0.2,-0.5 -0.64,-0.58 -0.23,-0.04 -0.46,-0.08 -0.69,-0.12 -0.08,-0.02 -0.11,-0.02 -0.1,-0.11 0,-0.07 0,-0.18 0,-0.26 0.05,-0.03 0.09,-0.06 0.13,-0.1 0.05,-0.05 0.17,-0.19 0.18,-0.29 0.21,0 0.21,-0.15 0.25,-0.28 0.01,-0.03 0.02,-0.05 0.03,-0.09 0.01,-0.04 0.01,-0.08 -0.01,-0.12 -0.02,-0.06 -0.06,-0.1 -0.13,-0.12 0,-0.25 0.04,-0.37 -0.04,-0.6 -0.06,-0.17 -0.11,-0.25 -0.22,-0.37 -0.05,-0.05 -0.05,-0.04 -0.09,-0.08 -0.04,-0.03 -0.1,-0.08 -0.14,-0.1 -0.18,-0.11 -0.34,-0.14 -0.55,-0.13 -0.08,0 -0.21,0.01 -0.34,0.07zm-0.31 0.41c0.1,-0.1 0.19,-0.22 0.4,-0.31 0.07,-0.04 0.1,-0.05 0.2,-0.05 0.14,-0.01 0.31,0.01 0.44,0.06 0.1,0.04 0.15,0.08 0.22,0.14 0.09,0.07 0.11,0.09 0.18,0.2 0.04,0.06 0.15,0.27 0.13,0.36 -0.04,-0.03 -0.13,-0.09 -0.19,-0.11 -0.05,-0.02 -0.08,-0.02 -0.12,0.01 -0.03,0.02 -0.06,0.05 -0.09,0.07 -0.3,0.22 -0.56,0.27 -0.89,0.02 -0.03,-0.03 -0.06,-0.05 -0.09,-0.07 -0.04,-0.03 -0.06,-0.04 -0.12,-0.04 -0.13,0.01 -0.17,0.07 -0.23,0.09 0.01,-0.17 0.12,-0.31 0.16,-0.37zm0.72 2.72c0.02,0 0.04,0 0.06,-0.01 0.02,0 0.05,0 0.08,-0.01 0.21,-0.03 0.39,-0.23 0.39,-0.42 -0.09,-0.03 -0.13,-0.09 -0.12,-0.17l0 -0.24 0 0c-0.01,0 -0.02,0.01 -0.04,0.02 -0.1,0.05 -0.24,0.08 -0.37,0.09 -0.11,0 -0.21,-0.01 -0.31,-0.05 -0.02,-0.01 -0.05,-0.02 -0.08,-0.03 0,0.08 0.01,0.17 0,0.25 0,0.08 -0.06,0.1 -0.12,0.13 0,0.23 0.21,0.4 0.4,0.43 0.05,0 0.08,0.01 0.11,0.01z"/>
    </g>
    <g>
     <path class="fil4 str2" d="M7.14 1.42c0,0.33 0,0.36 0,0.69 0.14,0.1 0.28,0.1 0.43,0 0,-0.35 0.01,-0.43 0.01,-0.79 0.15,-0.64 0.96,-0.64 1.1,0 0,0.15 0,0.66 0,0.81 0.12,0.06 0.25,0.07 0.38,0 0,-0.11 0,-0.58 0,-0.7 -0.03,-0.36 -0.16,-0.65 -0.47,-0.86 -0.32,-0.22 -0.66,-0.22 -1.01,-0.02 -0.28,0.22 -0.43,0.51 -0.44,0.87z"/>
     <path class="fil5 str3" d="M7.62 0.79c-0.01,-0.07 -0.05,-0.08 -0.12,-0.07 -0.22,0.1 -0.31,0.37 -0.29,0.8 0,0.08 0.05,0.08 0.07,0.02 0.07,-0.3 0.16,-0.52 0.26,-0.6 0.05,-0.04 0.07,-0.09 0.08,-0.15z"/>
     <path class="fil6 str4" d="M6.79 4.42c0,-0.61 0.01,-1.21 0.01,-1.82 0.91,-0.4 1.78,-0.4 2.61,0 0,0.61 0,1.21 0,1.82 -0.17,0.23 -0.89,0.32 -1.31,0.33 -0.45,0 -1.16,-0.1 -1.31,-0.33z"/>
     <path class="fil7 str5" d="M8.1 3c-0.64,-0.01 -1.27,-0.09 -1.29,-0.41 0,-0.11 0.82,-0.29 1.3,-0.3 0.47,-0.01 1.29,0.18 1.3,0.3 -0.02,0.34 -0.77,0.4 -1.31,0.41z"/>
     <path class="fil8 str6" d="M7.97 3.94c-0.06,0.14 -0.12,0.28 -0.19,0.43 -0.02,0.03 0,0.05 0.05,0.06 0.07,0 0.32,-0.01 0.5,0 0.05,0 0.06,-0.03 0.05,-0.06 -0.07,-0.14 -0.13,-0.28 -0.19,-0.42 0.1,-0.04 0.16,-0.11 0.15,-0.21 -0.02,-0.15 -0.11,-0.22 -0.27,-0.22 -0.16,0.01 -0.25,0.11 -0.25,0.22 0,0.09 0.07,0.18 0.15,0.2z"/>
     <path class="fil9 str7" d="M8 3.89c-0.05,0.12 -0.09,0.25 -0.14,0.37 -0.02,0.04 0,0.06 0.03,0.06 0.05,0 0.24,-0.01 0.37,0 0.03,0 0.05,-0.02 0.03,-0.06 -0.04,-0.12 -0.09,-0.24 -0.14,-0.36 0.08,-0.04 0.12,-0.1 0.12,-0.19 -0.02,-0.13 -0.08,-0.19 -0.2,-0.19 -0.12,0 -0.19,0.09 -0.18,0.19 0,0.08 0.05,0.16 0.11,0.18z"/>
     <ellipse class="fil10 str8" cx="8.84" cy="2.56" rx="0.24" ry="0.11"/>
     <ellipse class="fil10 str8" cx="7.3" cy="2.56" rx="0.24" ry="0.11"/>
     <g>
      <path class="fil11" d="M5.41 0.52c-0.53,0.24 -0.69,0.53 -0.72,1.05 0.02,0.5 0.24,0.78 0.62,0.97l0.14 2.02c0.22,-0.04 0.38,-0.13 0.42,-0.32l0.02 -0.24 0.14 -0.44 -0.19 -0.39 0.23 -0.38 -0.08 -0.38c0.42,-0.28 0.57,-0.69 0.45,-1.22 -0.17,-0.5 -0.5,-0.75 -1.03,-0.67z"/>
      <path class="fil12 str9" d="M4.65 1.57c0,0.03 0,0.07 0,0.1 0,0.24 0.14,0.5 0.29,0.66 0.06,0.07 0.12,0.12 0.18,0.16 0.12,0.07 0.15,0.05 0.15,0.12 0.01,0.15 0.02,0.24 0.02,0.4l0.03 0.4c0.01,0.08 0.07,1.16 0.08,1.19 0.05,-0.02 0.09,-0.03 0.15,-0.04 0.16,-0.04 0.33,-0.17 0.39,-0.35 0.03,-0.11 -0.03,-0.22 0.01,-0.33l0.13 -0.35c0,-0.01 0.01,0 0,-0.01 -0.01,-0.02 0,-0.01 -0.01,-0.02 -0.05,-0.09 -0.13,-0.26 -0.19,-0.37 0.08,-0.1 0.21,-0.25 0.22,-0.37 0.01,-0.06 -0.01,-0.12 -0.02,-0.17 -0.01,-0.06 -0.01,-0.13 -0.02,-0.17 0.15,-0.11 0.21,-0.16 0.32,-0.36 0.07,-0.13 0.13,-0.3 0.14,-0.42 0.01,-0.14 0.01,-0.27 -0.03,-0.41 -0.04,-0.13 -0.09,-0.25 -0.18,-0.38 -0.1,-0.14 -0.22,-0.24 -0.36,-0.31 -0.13,-0.06 -0.25,-0.07 -0.36,-0.07l-0.18 0.02c-0.15,0.04 -0.31,0.14 -0.43,0.27 -0.02,0.01 -0.05,0.05 -0.06,0.07l0.01 0.01c0.04,0.05 0.05,0.07 0.1,0.1 0.1,-0.1 0.13,-0.19 0.3,-0.27 0.1,-0.05 0.22,-0.08 0.32,-0.08 0.07,0.01 0.25,0.03 0.33,0.08 0.22,0.15 0.39,0.38 0.43,0.67 0.02,0.1 0.03,0.27 0.01,0.37 -0.08,0.3 -0.25,0.52 -0.49,0.65 -0.01,0.02 0,0.06 0.01,0.09l0.04 0.29c0,0.03 -0.02,0.06 -0.05,0.1l-0.2 0.32c0.06,0.1 0.12,0.24 0.17,0.34 0.04,0.06 0.03,0.03 -0.01,0.18l-0.09 0.28c-0.02,0.06 -0.02,0.05 -0.01,0.09 0.01,0.02 0.02,0.17 0.01,0.19 -0.05,0.12 -0.22,0.22 -0.29,0.22 -0.01,-0.02 -0.01,-0.04 -0.01,-0.07 0,-0.15 -0.02,-0.29 -0.02,-0.44 0,-0.05 0,-0.09 0,-0.13l-0.03 -0.64c-0.01,-0.03 -0.01,-0.09 -0.01,-0.13 0,-0.04 0,-0.08 0,-0.12l-0.02 -0.26c0,-0.09 0,-0.17 0,-0.25 -0.04,-0.03 -0.1,-0.02 -0.13,-0.03 -0.02,0 -0.1,-0.05 -0.13,-0.06 -0.2,-0.11 -0.31,-0.33 -0.35,-0.56 0,-0.03 -0.01,-0.08 -0.01,-0.11 -0.01,-0.02 -0.01,-0.06 -0.02,-0.1 -0.02,0 -0.03,0 -0.06,0.01 -0.02,0 -0.04,0 -0.07,0z"/>
      <line class="fil13 str10" x1="5.55" y1="2.38" x2="5.63" y2= "4.43" />
      <line class="fil13 str10" x1="5.79" y1="2.36" x2="5.81" y2= "3.04" />
      <path class="fil11 str9" d="M4.64 1.11c-0.1,0.19 0.15,0.37 0.25,0.16 0.04,-0.07 0.03,-0.17 -0.04,-0.22 -0.07,-0.04 -0.16,-0.02 -0.21,0.06z"/>
      <ellipse class="fil1 str9" cx="5.42" cy="1.15" rx="0.2" ry="0.22"/>
     </g>
    </g>
   </g>
  </g>
 </g>
</svg>
