<?xml version="1.0" encoding="UTF-8"?>
<!DOCTYPE svg PUBLIC "-//W3C//DTD SVG 1.1//EN" "http://www.w3.org/Graphics/SVG/1.1/DTD/svg11.dtd">
<!-- Creator: CorelDRAW 2021 (64 Bit) -->
<svg xmlns="http://www.w3.org/2000/svg" xml:space="preserve" width="725px" height="375px" version="1.1" style="shape-rendering:geometricPrecision; text-rendering:geometricPrecision; image-rendering:optimizeQuality; fill-rule:evenodd; clip-rule:evenodd"
viewBox="0 0 10.01 5.18"
 xmlns:xlink="http://www.w3.org/1999/xlink"
 xmlns:xodm="http://www.corel.com/coreldraw/odm/2003">
 <defs>
  <style type="text/css">
   <![CDATA[
    .str3 {stroke:#FF0303;stroke-width:0.14;stroke-miterlimit:22.9256}
    .str2 {stroke:#00E6FF;stroke-width:0.35;stroke-miterlimit:22.9256}
    .str0 {stroke:#B8B4B6;stroke-width:0.35;stroke-miterlimit:22.9256}
    .str1 {stroke:black;stroke-width:0.01;stroke-miterlimit:22.9256}
    .fil5 {fill:none}
    .fil3 {fill:black}
    .fil0 {fill:aqua}
    .fil4 {fill:yellow}
    .fil2 {fill:white}
    .fil1 {fill:white}
   ]]>
  </style>
 </defs>
 <g id="Camada_x0020_1">
  <metadata id="CorelCorpID_0Corel-Layer"/>
  <g id="_2713609873488">
   <rect class="fil0" x="0.32" y="0.27" width="9.38" height="4.63"/>
   <rect class="fil1 str0" x="0.17" y="0.17" width="9.67" height="4.83" rx="0.45" ry="0.41"/>
   <g>
    <path class="fil2" d="M2.88 2.46c0.06,0 0.11,-0.03 0.16,-0.05 0.02,-0.02 0.03,-0.03 0.05,-0.05 0.01,-0.01 0.05,-0.03 0.06,-0.04 0.02,0.04 0.06,0.05 0.08,0.07 -0.02,0.05 -0.11,0.11 -0.15,0.13 -0.14,0.07 -0.29,0.08 -0.44,0.01 -0.04,-0.02 -0.12,-0.08 -0.14,-0.12 0.01,-0.02 0.06,-0.06 0.09,-0.08 0.07,0.11 0.17,0.12 0.29,0.13zm0.26 -0.72c0.18,-0.03 0.2,0.21 0.05,0.24 -0.08,0.02 -0.13,-0.03 -0.15,-0.09 -0.02,-0.09 0.03,-0.13 0.1,-0.15zm-0.67 0c0.07,-0.01 0.14,0.03 0.15,0.09 0.01,0.08 -0.04,0.14 -0.1,0.15 -0.16,0.04 -0.23,-0.2 -0.05,-0.24zm1.22 0.11c0.03,-0.12 0.06,-0.24 -0.01,-0.33 -0.02,-0.03 -0.08,-0.08 -0.11,-0.1 -0.09,-0.07 -0.11,-0.04 -0.2,0.03 -0.14,0.11 -0.33,0.19 -0.52,0.2 -0.26,0 -0.43,-0.14 -0.57,-0.25 -0.05,-0.03 -0.1,-0.02 -0.16,0.01 -0.06,0.02 -0.08,0.04 -0.1,0.1 -0.01,0.04 -0.03,0.13 -0.03,0.17 0.01,0.07 0.03,0.12 0.03,0.18l-0.15 0.02c-0.03,0.07 0.02,0.19 0.04,0.26 0.01,0.05 0.02,0.09 0.06,0.11 0.03,0.01 0.09,0.01 0.14,0.02 0.03,0.09 0.05,0.15 0.1,0.22 0.04,0.05 0.12,0.14 0.16,0.17 0.06,0.06 0.12,0.1 0.21,0.13 0.08,0.03 0.19,0.03 0.29,0.04 0.22,0 0.35,-0.07 0.49,-0.17 0.04,-0.04 0.12,-0.12 0.16,-0.17 0.08,-0.12 0.06,-0.12 0.1,-0.22 0.08,0 0.13,0.01 0.17,-0.04 0.03,-0.05 0.02,-0.11 0.04,-0.17 0.01,-0.04 0.05,-0.13 0.01,-0.16 -0.03,-0.02 -0.12,-0.02 -0.15,-0.05z"/>
    <path class="fil3" d="M2.88 2.46c-0.12,-0.01 -0.22,-0.02 -0.29,-0.13 -0.03,0.02 -0.08,0.06 -0.09,0.08 0.02,0.04 0.1,0.1 0.14,0.12 0.15,0.07 0.3,0.06 0.44,-0.01 0.04,-0.02 0.13,-0.08 0.15,-0.13 -0.02,-0.02 -0.06,-0.03 -0.08,-0.07 -0.01,0.01 -0.05,0.03 -0.06,0.04 -0.02,0.02 -0.03,0.03 -0.05,0.05 -0.05,0.02 -0.1,0.05 -0.16,0.05z"/>
    <polygon class="fil3" points="1.59,4.54 1.71,4.54 1.71,4.06 1.59,4.06 "/>
    <polygon class="fil3" points="4.1,4.53 4.19,4.53 4.21,4.53 4.21,4.07 4.19,4.07 4.1,4.07 "/>
    <path class="fil3" d="M3.14 1.74c-0.07,0.02 -0.12,0.06 -0.1,0.15 0.02,0.06 0.07,0.11 0.15,0.09 0.15,-0.03 0.13,-0.27 -0.05,-0.24z"/>
    <path class="fil3" d="M2.47 1.74c-0.18,0.04 -0.11,0.28 0.05,0.24 0.06,-0.01 0.11,-0.07 0.1,-0.15 -0.01,-0.06 -0.08,-0.1 -0.15,-0.09z"/>
    <path class="fil3 str1" d="M3.69 1.85c0.03,0.03 0.12,0.03 0.15,0.05 0.04,0.03 0,0.12 -0.01,0.16 -0.02,0.06 -0.01,0.12 -0.04,0.17 -0.04,0.05 -0.09,0.04 -0.17,0.04 -0.04,0.1 -0.02,0.1 -0.1,0.22 -0.04,0.05 -0.12,0.13 -0.16,0.17 -0.14,0.1 -0.27,0.17 -0.49,0.17 -0.1,-0.01 -0.21,-0.01 -0.29,-0.04 -0.09,-0.03 -0.15,-0.07 -0.21,-0.13 -0.04,-0.03 -0.12,-0.12 -0.16,-0.17 -0.05,-0.07 -0.07,-0.13 -0.1,-0.22 -0.05,-0.01 -0.11,-0.01 -0.14,-0.02 -0.04,-0.02 -0.05,-0.06 -0.06,-0.11 -0.02,-0.07 -0.07,-0.19 -0.04,-0.26l0.15 -0.02c0,-0.06 -0.02,-0.11 -0.03,-0.18 0,-0.04 0.02,-0.13 0.03,-0.17 0.02,-0.06 0.04,-0.08 0.1,-0.1 0.06,-0.03 0.11,-0.04 0.16,-0.01 0.14,0.11 0.31,0.25 0.57,0.25 0.19,-0.01 0.38,-0.09 0.52,-0.2 0.09,-0.07 0.11,-0.1 0.2,-0.03 0.03,0.02 0.09,0.07 0.11,0.1 0.07,0.09 0.04,0.21 0.01,0.33zm-1.24 -1.29c-0.17,0.08 -0.32,0.23 -0.41,0.35 -0.08,0.1 -0.14,0.19 -0.17,0.36 -0.01,0.08 -0.01,0.17 -0.01,0.25 0,0.09 0.02,0.16 0.02,0.24 -0.07,0.01 -0.1,0.04 -0.12,0.1 -0.02,0.07 -0.01,0.13 0,0.2 0.09,0.41 0.22,0.24 0.29,0.38 0.04,0.07 0.03,0.07 0.08,0.15l0.11 0.12c0.03,0.03 0.07,0.07 0.12,0.09 0,0.05 0.01,0.25 0,0.29 0,0.04 -0.02,0.05 -0.05,0.05 -0.16,0.02 -0.5,0.08 -0.68,0.11 -0.11,0.02 -0.21,0.04 -0.31,0.09 -0.05,0.02 -0.08,0.04 -0.12,0.07 -0.12,0.08 -0.21,0.21 -0.25,0.35 -0.02,0.09 -0.01,0.28 -0.01,0.38 0,0.14 0,0.27 0,0.4 0.08,0 0.12,0.01 0.13,-0.04l-0.01 -0.47c0,-0.19 0,-0.37 0.16,-0.49 0.07,-0.06 0.11,-0.08 0.2,-0.12 0.17,-0.05 0.36,-0.07 0.54,-0.1 0.09,-0.02 0.19,-0.04 0.28,-0.05 0.01,0.11 0.02,0.15 0.06,0.23 0.08,0.12 0.19,0.21 0.33,0.26 0.06,0.03 0.16,0.06 0.24,0.05 0.28,-0.01 0.64,-0.23 0.64,-0.54l0.69 0.12c0.24,0.03 0.46,0.2 0.48,0.45 0.01,0.23 0.01,0.46 0.02,0.69l0.11 0.01 0 -0.7c-0.05,-0.28 -0.19,-0.5 -0.63,-0.58 -0.24,-0.04 -0.47,-0.08 -0.7,-0.12 -0.08,-0.01 -0.1,-0.02 -0.1,-0.1 0.01,-0.08 0,-0.18 0.01,-0.26 0.04,-0.03 0.09,-0.07 0.13,-0.11 0.04,-0.05 0.16,-0.18 0.18,-0.28 0.21,-0.01 0.21,-0.16 0.24,-0.28 0.01,-0.04 0.03,-0.06 0.03,-0.1 0.01,-0.03 0.01,-0.08 0,-0.11 -0.02,-0.07 -0.07,-0.11 -0.14,-0.13 0,-0.24 0.04,-0.36 -0.04,-0.6 -0.06,-0.17 -0.1,-0.25 -0.22,-0.36 -0.04,-0.06 -0.04,-0.05 -0.08,-0.08 -0.04,-0.04 -0.11,-0.08 -0.15,-0.11 -0.18,-0.11 -0.33,-0.13 -0.55,-0.12 -0.07,0 -0.2,0.01 -0.34,0.06zm-0.3 0.42c0.09,-0.11 0.19,-0.23 0.4,-0.32 0.07,-0.03 0.1,-0.04 0.2,-0.05 0.14,-0.01 0.3,0.01 0.43,0.06 0.1,0.04 0.16,0.09 0.23,0.15 0.09,0.07 0.1,0.08 0.18,0.19 0.03,0.06 0.14,0.28 0.13,0.37 -0.04,-0.03 -0.14,-0.09 -0.19,-0.11 -0.05,-0.02 -0.09,-0.02 -0.13,0.01 -0.03,0.02 -0.06,0.04 -0.08,0.06 -0.3,0.22 -0.56,0.27 -0.9,0.02 -0.03,-0.02 -0.05,-0.04 -0.09,-0.06 -0.03,-0.03 -0.05,-0.05 -0.12,-0.04 -0.12,0.01 -0.17,0.07 -0.23,0.08 0.01,-0.16 0.12,-0.3 0.17,-0.36zm0.71 2.71c0.02,0 0.04,0 0.06,0 0.03,0 0.06,-0.01 0.08,-0.01 0.21,-0.04 0.4,-0.23 0.4,-0.43 -0.09,-0.03 -0.14,-0.08 -0.13,-0.17l0 -0.24 0 0c-0.01,0.01 -0.02,0.01 -0.03,0.02 -0.11,0.05 -0.25,0.09 -0.38,0.09 -0.1,0 -0.21,-0.01 -0.3,-0.04 -0.03,-0.01 -0.06,-0.03 -0.08,-0.04 -0.01,0.08 0.01,0.18 0,0.26 -0.01,0.07 -0.07,0.1 -0.13,0.12 0.01,0.23 0.22,0.4 0.4,0.43 0.06,0.01 0.09,0.01 0.11,0.01z"/>
   </g>
   <g>
    <ellipse class="fil4 str2" cx="7.16" cy="2.55" rx="2" ry="1.89"/>
    <path class="fil5 str3" d="M5.98 2.59c0.13,0.48 0.42,0.82 0.9,1.01 0.03,-0.06 0.06,-0.12 0.09,-0.18 0.05,-0.1 0.06,-0.07 0.13,-0.05 0.14,0.05 0.28,0.09 0.42,0.14 0.05,0.01 0.07,0 0.07,0.09l0.01 0.22c-0.02,0.18 -0.16,0.28 -0.32,0.29 -0.23,0.01 -0.4,0 -0.56,-0.07 -0.67,-0.27 -1.04,-0.8 -1.19,-1.27 -0.05,-0.17 -0.07,-0.33 -0.06,-0.49 0.01,-0.07 0.02,-0.24 0.08,-0.29 0.03,-0.03 0.08,-0.08 0.18,-0.09 0.12,-0.01 0.17,-0.01 0.29,-0.02 0.02,0 0.03,0 0.04,0.03 0.04,0.16 0.1,0.33 0.15,0.49 0.01,0.04 -0.01,0.05 -0.05,0.07 -0.06,0.04 -0.12,0.08 -0.18,0.12z"/>
    <path class="fil5 str3" d="M6.39 1.9c0.37,0.02 0.7,0.18 0.96,0.47 0.24,0.3 0.35,0.6 0.32,0.92"/>
    <path class="fil5 str3" d="M7.39 1.38c0.25,0.03 0.48,0.15 0.66,0.36 0.17,0.21 0.26,0.42 0.25,0.64"/>
    <path class="fil5 str3" d="M6.91 1.6c0.3,0.03 0.58,0.18 0.8,0.43 0.21,0.26 0.31,0.52 0.3,0.78"/>
    <path class="fil5 str3" d="M7.83 1.21c0.19,0.02 0.37,0.12 0.51,0.28 0.13,0.16 0.2,0.32 0.19,0.49"/>
   </g>
  </g>
 </g>
</svg>
