<?xml version="1.0" encoding="UTF-8"?>
<!DOCTYPE svg PUBLIC "-//W3C//DTD SVG 1.1//EN" "http://www.w3.org/Graphics/SVG/1.1/DTD/svg11.dtd">
<!-- Creator: CorelDRAW 2021 (64 Bit) -->
<svg xmlns="http://www.w3.org/2000/svg" xml:space="preserve" width="725px" height="375px" version="1.1" style="shape-rendering:geometricPrecision; text-rendering:geometricPrecision; image-rendering:optimizeQuality; fill-rule:evenodd; clip-rule:evenodd"
viewBox="0 0 10.01 5.18"
 xmlns:xlink="http://www.w3.org/1999/xlink"
 xmlns:xodm="http://www.corel.com/coreldraw/odm/2003">
 <defs>
  <style type="text/css">
   <![CDATA[
    .str0 {stroke:#B8B4B6;stroke-width:0.35;stroke-miterlimit:22.9256}
    .str1 {stroke:black;stroke-width:0.01;stroke-miterlimit:22.9256}
    .fil3 {fill:black}
    .fil0 {fill:aqua}
    .fil2 {fill:white}
    .fil1 {fill:white}
    .fil5 {fill:black;fill-rule:nonzero}
    .fil4 {fill:#8F8F8F;fill-rule:nonzero}
   ]]>
  </style>
 </defs>
 <g id="Camada_x0020_1">
  <metadata id="CorelCorpID_0Corel-Layer"/>
  <g id="_2713760898272">
   <rect class="fil0" x="0.32" y="0.27" width="9.38" height="4.63"/>
   <rect class="fil1 str0" x="0.17" y="0.17" width="9.67" height="4.83" rx="0.45" ry="0.41"/>
   <g>
    <path class="fil2" d="M2.65 2.42c0.06,0 0.11,-0.02 0.15,-0.05 0.02,-0.01 0.04,-0.02 0.06,-0.04 0.01,-0.01 0.04,-0.03 0.06,-0.04 0.01,0.04 0.05,0.05 0.07,0.07 -0.01,0.04 -0.1,0.1 -0.14,0.12 -0.14,0.08 -0.3,0.09 -0.44,0.02 -0.04,-0.02 -0.13,-0.08 -0.14,-0.12 0.01,-0.02 0.06,-0.07 0.09,-0.08 0.06,0.1 0.17,0.12 0.29,0.12zm0.26 -0.71c0.18,-0.04 0.2,0.21 0.05,0.24 -0.08,0.02 -0.14,-0.03 -0.15,-0.09 -0.02,-0.09 0.02,-0.14 0.1,-0.15zm-0.68 0c0.08,-0.02 0.15,0.02 0.16,0.09 0.01,0.08 -0.04,0.14 -0.1,0.15 -0.17,0.03 -0.23,-0.21 -0.06,-0.24zm1.22 0.1c0.03,-0.11 0.06,-0.24 -0.01,-0.33 -0.02,-0.03 -0.07,-0.08 -0.1,-0.1 -0.1,-0.06 -0.12,-0.03 -0.2,0.04 -0.14,0.11 -0.34,0.19 -0.52,0.19 -0.26,0.01 -0.43,-0.14 -0.58,-0.24 -0.05,-0.04 -0.1,-0.02 -0.15,0 -0.06,0.03 -0.09,0.04 -0.1,0.11 -0.01,0.04 -0.04,0.13 -0.03,0.17 0,0.06 0.02,0.11 0.02,0.18l-0.14 0.02c-0.04,0.07 0.02,0.19 0.03,0.26 0.02,0.05 0.03,0.08 0.06,0.1 0.04,0.02 0.1,0.02 0.14,0.02 0.03,0.1 0.06,0.16 0.11,0.23 0.03,0.05 0.11,0.14 0.15,0.17 0.07,0.06 0.12,0.09 0.21,0.12 0.09,0.03 0.19,0.04 0.29,0.04 0.23,0.01 0.36,-0.07 0.49,-0.17 0.05,-0.03 0.13,-0.12 0.16,-0.17 0.08,-0.11 0.06,-0.12 0.11,-0.22 0.07,0 0.13,0.02 0.16,-0.04 0.04,-0.05 0.03,-0.1 0.04,-0.16 0.02,-0.04 0.06,-0.13 0.02,-0.16 -0.04,-0.03 -0.12,-0.03 -0.16,-0.06z"/>
    <path class="fil3" d="M2.65 2.42c-0.12,0 -0.23,-0.02 -0.29,-0.12 -0.03,0.01 -0.08,0.06 -0.09,0.08 0.01,0.04 0.1,0.1 0.14,0.12 0.14,0.07 0.3,0.06 0.44,-0.02 0.04,-0.02 0.13,-0.08 0.14,-0.12 -0.02,-0.02 -0.06,-0.03 -0.07,-0.07 -0.02,0.01 -0.05,0.03 -0.06,0.04 -0.02,0.02 -0.04,0.03 -0.06,0.04 -0.04,0.03 -0.09,0.05 -0.15,0.05z"/>
    <polygon class="fil3" points="1.36,4.51 1.47,4.51 1.47,4.02 1.36,4.03 "/>
    <polygon class="fil3" points="3.86,4.5 3.96,4.5 3.98,4.49 3.98,4.04 3.96,4.04 3.86,4.04 "/>
    <path class="fil3" d="M2.91 1.71c-0.08,0.01 -0.12,0.06 -0.1,0.15 0.01,0.06 0.07,0.11 0.15,0.09 0.15,-0.03 0.13,-0.28 -0.05,-0.24z"/>
    <path class="fil3" d="M2.23 1.71c-0.17,0.03 -0.11,0.27 0.06,0.24 0.06,-0.01 0.11,-0.07 0.1,-0.15 -0.01,-0.07 -0.08,-0.11 -0.16,-0.09z"/>
    <path class="fil3 str1" d="M3.45 1.81c0.04,0.03 0.12,0.03 0.16,0.06 0.04,0.03 0,0.12 -0.02,0.16 -0.01,0.06 0,0.11 -0.04,0.16 -0.03,0.06 -0.09,0.04 -0.16,0.04 -0.05,0.1 -0.03,0.11 -0.11,0.22 -0.03,0.05 -0.11,0.14 -0.16,0.17 -0.13,0.1 -0.26,0.18 -0.49,0.17 -0.1,0 -0.2,-0.01 -0.29,-0.04 -0.09,-0.03 -0.14,-0.06 -0.21,-0.12 -0.04,-0.03 -0.12,-0.12 -0.15,-0.17 -0.05,-0.07 -0.08,-0.13 -0.11,-0.23 -0.04,0 -0.1,0 -0.14,-0.02 -0.03,-0.02 -0.04,-0.05 -0.06,-0.1 -0.01,-0.07 -0.07,-0.19 -0.03,-0.26l0.14 -0.02c0,-0.07 -0.02,-0.12 -0.02,-0.18 -0.01,-0.04 0.02,-0.13 0.03,-0.17 0.01,-0.07 0.04,-0.08 0.1,-0.11 0.05,-0.02 0.1,-0.04 0.15,0 0.15,0.1 0.32,0.25 0.58,0.24 0.18,0 0.38,-0.08 0.52,-0.19 0.08,-0.07 0.1,-0.1 0.2,-0.04 0.03,0.02 0.08,0.07 0.1,0.1 0.07,0.09 0.04,0.22 0.01,0.33zm-1.23 -1.28c-0.18,0.08 -0.33,0.22 -0.42,0.35 -0.07,0.1 -0.13,0.18 -0.16,0.35 -0.01,0.08 -0.01,0.17 -0.01,0.25 0,0.1 0.02,0.16 0.02,0.25 -0.07,0.01 -0.1,0.03 -0.12,0.1 -0.02,0.07 -0.02,0.13 0,0.2 0.08,0.41 0.22,0.24 0.29,0.38 0.03,0.07 0.02,0.07 0.08,0.14l0.1 0.12c0.04,0.04 0.07,0.08 0.13,0.1 0,0.05 0,0.25 0,0.29 -0.01,0.03 -0.02,0.04 -0.05,0.05 -0.17,0.01 -0.5,0.08 -0.68,0.11 -0.12,0.02 -0.21,0.04 -0.31,0.08 -0.05,0.02 -0.09,0.04 -0.13,0.07 -0.12,0.08 -0.21,0.21 -0.24,0.35 -0.02,0.09 -0.01,0.29 -0.01,0.39 0,0.13 0,0.26 0,0.4 0.08,0 0.11,0.01 0.12,-0.04l0 -0.48c0,-0.18 0,-0.37 0.15,-0.48 0.07,-0.06 0.11,-0.09 0.21,-0.12 0.17,-0.06 0.36,-0.07 0.54,-0.11 0.08,-0.01 0.18,-0.04 0.28,-0.04 0.01,0.1 0.01,0.15 0.06,0.22 0.07,0.13 0.19,0.22 0.32,0.27 0.06,0.03 0.17,0.05 0.24,0.05 0.28,-0.01 0.64,-0.24 0.65,-0.54l0.69 0.12c0.24,0.03 0.46,0.2 0.48,0.44 0,0.23 0.01,0.47 0.01,0.7l0.11 0.01 0 -0.7c-0.04,-0.29 -0.19,-0.5 -0.63,-0.58 -0.23,-0.04 -0.46,-0.08 -0.69,-0.12 -0.08,-0.02 -0.11,-0.02 -0.1,-0.11 0,-0.07 0,-0.18 0,-0.26 0.05,-0.03 0.09,-0.06 0.13,-0.1 0.05,-0.05 0.17,-0.19 0.18,-0.29 0.21,0 0.21,-0.15 0.25,-0.27 0,-0.04 0.02,-0.06 0.03,-0.1 0.01,-0.04 0.01,-0.08 -0.01,-0.11 -0.02,-0.07 -0.06,-0.11 -0.13,-0.13 0,-0.25 0.04,-0.37 -0.04,-0.6 -0.06,-0.17 -0.11,-0.25 -0.22,-0.37 -0.05,-0.05 -0.05,-0.04 -0.09,-0.08 -0.04,-0.03 -0.1,-0.07 -0.15,-0.1 -0.18,-0.11 -0.33,-0.14 -0.54,-0.13 -0.08,0.01 -0.21,0.02 -0.34,0.07zm-0.31 0.42c0.1,-0.11 0.19,-0.23 0.4,-0.32 0.07,-0.03 0.1,-0.05 0.2,-0.05 0.14,-0.01 0.31,0.01 0.44,0.06 0.1,0.04 0.15,0.08 0.22,0.14 0.09,0.08 0.11,0.09 0.18,0.2 0.04,0.06 0.14,0.27 0.13,0.36 -0.04,-0.03 -0.13,-0.09 -0.19,-0.11 -0.05,-0.02 -0.08,-0.01 -0.12,0.01 -0.03,0.02 -0.06,0.05 -0.09,0.07 -0.3,0.22 -0.56,0.27 -0.89,0.02 -0.03,-0.03 -0.06,-0.05 -0.09,-0.07 -0.04,-0.03 -0.06,-0.04 -0.12,-0.04 -0.13,0.02 -0.17,0.07 -0.23,0.09 0,-0.16 0.12,-0.31 0.16,-0.36zm0.72 2.71c0.02,0 0.04,0 0.06,-0.01 0.02,0 0.05,0 0.08,-0.01 0.21,-0.03 0.39,-0.22 0.39,-0.42 -0.09,-0.03 -0.13,-0.09 -0.12,-0.17l0 -0.24 0 0c-0.01,0.01 -0.02,0.01 -0.04,0.02 -0.1,0.05 -0.24,0.08 -0.37,0.09 -0.11,0 -0.21,-0.01 -0.31,-0.05 -0.03,-0.01 -0.05,-0.02 -0.08,-0.03 0,0.08 0.01,0.17 0,0.25 0,0.08 -0.06,0.1 -0.12,0.13 0,0.23 0.21,0.4 0.39,0.43 0.06,0 0.09,0.01 0.12,0.01z"/>
   </g>
   <g>
    <polygon class="fil4" points="4.83,3.8 4.83,1.97 5.2,1.97 5.2,3.8 "/>
    <polygon id="_1" class="fil4" points="5.54,3.8 5.54,1.97 6.1,1.97 6.42,3.22 6.75,1.97 7.3,1.97 7.3,3.8 6.96,3.8 6.96,2.36 6.6,3.8 6.24,3.8 5.88,2.36 5.88,3.8 "/>
    <path id="_2" class="fil4" d="M8.52 3.13l0 -0.31 0.79 0 0 0.73c-0.08,0.07 -0.19,0.14 -0.33,0.2 -0.15,0.05 -0.3,0.08 -0.45,0.08 -0.19,0 -0.36,-0.04 -0.5,-0.12 -0.14,-0.08 -0.25,-0.19 -0.32,-0.34 -0.07,-0.15 -0.1,-0.31 -0.1,-0.49 0,-0.19 0.04,-0.36 0.12,-0.51 0.07,-0.15 0.19,-0.26 0.34,-0.34 0.12,-0.06 0.27,-0.09 0.44,-0.09 0.23,0 0.4,0.05 0.53,0.14 0.13,0.1 0.21,0.23 0.25,0.4l-0.37 0.07c-0.02,-0.09 -0.07,-0.16 -0.14,-0.22 -0.07,-0.05 -0.16,-0.07 -0.27,-0.07 -0.16,0 -0.29,0.05 -0.38,0.15 -0.1,0.1 -0.14,0.25 -0.14,0.46 0,0.21 0.04,0.38 0.14,0.48 0.1,0.11 0.22,0.17 0.38,0.17 0.07,0 0.15,-0.02 0.23,-0.05 0.08,-0.03 0.14,-0.07 0.2,-0.11l0 -0.23 -0.42 0z"/>
    <polygon class="fil5" points="4.99,3.63 4.99,1.81 5.36,1.81 5.36,3.63 "/>
    <polygon id="_1_0" class="fil5" points="5.71,3.63 5.71,1.81 6.26,1.81 6.59,3.05 6.91,1.81 7.46,1.81 7.46,3.63 7.12,3.63 7.12,2.2 6.76,3.63 6.41,3.63 6.05,2.2 6.05,3.63 "/>
    <path id="_2_1" class="fil5" d="M8.68 2.96l0 -0.3 0.8 0 0 0.72c-0.08,0.08 -0.19,0.15 -0.34,0.2 -0.15,0.06 -0.29,0.09 -0.44,0.09 -0.2,0 -0.36,-0.04 -0.5,-0.12 -0.14,-0.08 -0.25,-0.2 -0.32,-0.35 -0.07,-0.15 -0.11,-0.31 -0.11,-0.48 0,-0.19 0.04,-0.36 0.12,-0.51 0.08,-0.15 0.2,-0.26 0.35,-0.34 0.12,-0.06 0.26,-0.09 0.44,-0.09 0.22,0 0.4,0.04 0.53,0.14 0.12,0.1 0.21,0.23 0.24,0.4l-0.36 0.06c-0.03,-0.09 -0.08,-0.16 -0.15,-0.21 -0.07,-0.05 -0.16,-0.08 -0.26,-0.08 -0.17,0 -0.29,0.05 -0.39,0.16 -0.09,0.1 -0.14,0.25 -0.14,0.45 0,0.22 0.05,0.38 0.14,0.49 0.1,0.11 0.23,0.16 0.38,0.16 0.08,0 0.16,-0.01 0.23,-0.04 0.08,-0.03 0.15,-0.07 0.2,-0.11l0 -0.24 -0.42 0z"/>
   </g>
  </g>
 </g>
</svg>
