<?xml version="1.0" encoding="UTF-8"?>
<!DOCTYPE svg PUBLIC "-//W3C//DTD SVG 1.1//EN" "http://www.w3.org/Graphics/SVG/1.1/DTD/svg11.dtd">
<!-- Creator: CorelDRAW 2021 (64 Bit) -->
<svg xmlns="http://www.w3.org/2000/svg" xml:space="preserve" width="725px" height="375px" version="1.1" style="shape-rendering:geometricPrecision; text-rendering:geometricPrecision; image-rendering:optimizeQuality; fill-rule:evenodd; clip-rule:evenodd"
viewBox="0 0 10.01 5.18"
 xmlns:xlink="http://www.w3.org/1999/xlink"
 xmlns:xodm="http://www.corel.com/coreldraw/odm/2003">
 <defs>
  <style type="text/css">
   <![CDATA[
    .str2 {stroke:black;stroke-width:0.11;stroke-miterlimit:22.9256}
    .str3 {stroke:black;stroke-width:0.07;stroke-miterlimit:22.9256}
    .str0 {stroke:#B8B4B6;stroke-width:0.35;stroke-miterlimit:22.9256}
    .str1 {stroke:black;stroke-width:0.01;stroke-miterlimit:22.9256}
    .str5 {stroke:whitesmoke;stroke-width:0.01;stroke-miterlimit:22.9256}
    .str4 {stroke:#FF0505;stroke-width:0.01;stroke-miterlimit:22.9256}
    .str6 {stroke:yellow;stroke-width:0.01;stroke-miterlimit:22.9256}
    .fil5 {fill:none}
    .fil3 {fill:black}
    .fil6 {fill:#003399}
    .fil0 {fill:aqua}
    .fil7 {fill:#33CC66}
    .fil4 {fill:#E6E6E6}
    .fil2 {fill:white}
    .fil1 {fill:white}
   ]]>
  </style>
 </defs>
 <g id="Camada_x0020_1">
  <metadata id="CorelCorpID_0Corel-Layer"/>
  <g id="_2713743544560">
   <rect class="fil0" x="0.32" y="0.27" width="9.38" height="4.63"/>
   <rect class="fil1 str0" x="0.17" y="0.17" width="9.67" height="4.83" rx="0.45" ry="0.41"/>
   <g>
    <path class="fil2" d="M2.7 2.45c0.07,0 0.12,-0.03 0.16,-0.05 0.02,-0.02 0.03,-0.03 0.05,-0.05 0.02,-0.01 0.05,-0.03 0.06,-0.04 0.02,0.04 0.06,0.05 0.08,0.07 -0.02,0.05 -0.1,0.1 -0.15,0.13 -0.14,0.07 -0.29,0.08 -0.43,0.01 -0.04,-0.02 -0.13,-0.08 -0.15,-0.12 0.02,-0.02 0.07,-0.06 0.09,-0.08 0.07,0.11 0.17,0.12 0.29,0.13zm0.26 -0.72c0.19,-0.03 0.21,0.21 0.06,0.24 -0.08,0.02 -0.14,-0.03 -0.16,-0.09 -0.02,-0.09 0.03,-0.14 0.1,-0.15zm-0.67 0c0.08,-0.01 0.14,0.03 0.15,0.09 0.01,0.08 -0.03,0.14 -0.1,0.15 -0.16,0.04 -0.23,-0.21 -0.05,-0.24zm1.22 0.11c0.03,-0.12 0.06,-0.24 -0.01,-0.33 -0.02,-0.03 -0.08,-0.08 -0.11,-0.1 -0.09,-0.07 -0.11,-0.04 -0.2,0.03 -0.14,0.11 -0.33,0.19 -0.52,0.2 -0.25,0 -0.42,-0.14 -0.57,-0.25 -0.05,-0.03 -0.1,-0.02 -0.16,0.01 -0.05,0.02 -0.08,0.04 -0.1,0.1 -0.01,0.04 -0.03,0.13 -0.03,0.17 0.01,0.07 0.03,0.12 0.03,0.18l-0.14 0.02c-0.04,0.07 0.01,0.19 0.03,0.26 0.01,0.05 0.02,0.09 0.06,0.11 0.03,0.01 0.09,0.01 0.14,0.01 0.03,0.1 0.05,0.16 0.1,0.23 0.04,0.05 0.12,0.14 0.16,0.17 0.07,0.06 0.12,0.1 0.21,0.13 0.09,0.03 0.19,0.03 0.29,0.03 0.22,0.01 0.35,-0.07 0.49,-0.16 0.05,-0.04 0.12,-0.12 0.16,-0.17 0.08,-0.12 0.06,-0.12 0.1,-0.23 0.08,0.01 0.13,0.02 0.17,-0.03 0.03,-0.05 0.02,-0.11 0.04,-0.17 0.01,-0.04 0.06,-0.13 0.01,-0.16 -0.03,-0.02 -0.12,-0.02 -0.15,-0.05z"/>
    <path class="fil3" d="M2.7 2.45c-0.12,-0.01 -0.22,-0.02 -0.29,-0.13 -0.02,0.02 -0.07,0.06 -0.09,0.08 0.02,0.04 0.11,0.1 0.15,0.12 0.14,0.07 0.29,0.06 0.43,-0.01 0.05,-0.03 0.13,-0.08 0.15,-0.13 -0.02,-0.02 -0.06,-0.03 -0.08,-0.07 -0.01,0.01 -0.04,0.03 -0.06,0.04 -0.02,0.02 -0.03,0.03 -0.05,0.05 -0.04,0.02 -0.09,0.05 -0.16,0.05z"/>
    <polygon class="fil3" points="1.42,4.53 1.53,4.53 1.53,4.05 1.42,4.05 "/>
    <polygon class="fil3" points="3.92,4.52 4.02,4.52 4.03,4.52 4.03,4.06 4.02,4.06 3.92,4.06 "/>
    <path class="fil3" d="M2.96 1.73c-0.07,0.01 -0.12,0.06 -0.1,0.15 0.02,0.06 0.08,0.11 0.16,0.09 0.15,-0.03 0.13,-0.27 -0.06,-0.24z"/>
    <path class="fil3" d="M2.29 1.73c-0.18,0.03 -0.11,0.28 0.05,0.24 0.07,-0.01 0.11,-0.07 0.1,-0.15 -0.01,-0.06 -0.07,-0.1 -0.15,-0.09z"/>
    <path class="fil3 str1" d="M3.51 1.84c0.03,0.03 0.12,0.03 0.15,0.05 0.05,0.03 0,0.12 -0.01,0.16 -0.02,0.06 -0.01,0.12 -0.04,0.17 -0.04,0.05 -0.09,0.04 -0.17,0.03 -0.04,0.11 -0.02,0.11 -0.1,0.23 -0.04,0.05 -0.11,0.13 -0.16,0.17 -0.14,0.09 -0.27,0.17 -0.49,0.16 -0.1,0 -0.2,0 -0.29,-0.03 -0.09,-0.03 -0.14,-0.07 -0.21,-0.13 -0.04,-0.03 -0.12,-0.12 -0.16,-0.17 -0.05,-0.07 -0.07,-0.13 -0.1,-0.23 -0.05,0 -0.11,0 -0.14,-0.01 -0.04,-0.02 -0.05,-0.06 -0.06,-0.11 -0.02,-0.07 -0.07,-0.19 -0.03,-0.26l0.14 -0.02c0,-0.06 -0.02,-0.11 -0.03,-0.18 0,-0.04 0.02,-0.13 0.03,-0.17 0.02,-0.06 0.05,-0.08 0.1,-0.1 0.06,-0.03 0.11,-0.04 0.16,-0.01 0.15,0.11 0.32,0.25 0.57,0.25 0.19,-0.01 0.38,-0.09 0.52,-0.2 0.09,-0.07 0.11,-0.1 0.2,-0.03 0.03,0.02 0.09,0.07 0.11,0.1 0.07,0.09 0.04,0.21 0.01,0.33zm-1.23 -1.29c-0.18,0.08 -0.33,0.23 -0.42,0.35 -0.08,0.1 -0.13,0.19 -0.16,0.36 -0.02,0.08 -0.02,0.17 -0.02,0.25 0,0.09 0.02,0.16 0.02,0.24 -0.07,0.01 -0.1,0.04 -0.12,0.1 -0.02,0.07 -0.01,0.13 0,0.2 0.09,0.41 0.22,0.24 0.3,0.38 0.03,0.07 0.02,0.07 0.08,0.15l0.1 0.12c0.03,0.03 0.07,0.07 0.13,0.09 0,0.05 0,0.25 0,0.29 -0.01,0.04 -0.02,0.04 -0.06,0.05 -0.16,0.01 -0.49,0.08 -0.67,0.11 -0.12,0.02 -0.22,0.04 -0.32,0.09 -0.05,0.02 -0.08,0.04 -0.12,0.06 -0.12,0.09 -0.21,0.22 -0.25,0.36 -0.02,0.09 -0.01,0.28 -0.01,0.38 0,0.14 0,0.27 0,0.4 0.08,0 0.12,0.01 0.13,-0.04l0 -0.47c0,-0.19 -0.01,-0.37 0.15,-0.49 0.07,-0.06 0.11,-0.08 0.2,-0.12 0.17,-0.05 0.36,-0.07 0.54,-0.1 0.09,-0.02 0.19,-0.04 0.28,-0.05 0.01,0.1 0.02,0.15 0.07,0.23 0.07,0.12 0.19,0.21 0.32,0.26 0.06,0.03 0.16,0.06 0.24,0.05 0.28,-0.01 0.64,-0.23 0.64,-0.54l0.7 0.12c0.24,0.03 0.46,0.2 0.47,0.45 0.01,0.23 0.01,0.46 0.02,0.69l0.11 0.01 0 -0.7c-0.05,-0.28 -0.19,-0.5 -0.63,-0.58 -0.23,-0.04 -0.47,-0.08 -0.7,-0.12 -0.07,-0.01 -0.1,-0.02 -0.09,-0.1 0,-0.08 0,-0.18 0,-0.26 0.05,-0.03 0.09,-0.07 0.13,-0.11 0.05,-0.05 0.16,-0.18 0.18,-0.28 0.21,-0.01 0.21,-0.16 0.24,-0.28 0.01,-0.04 0.03,-0.06 0.04,-0.1 0,-0.03 0,-0.08 -0.01,-0.11 -0.02,-0.07 -0.07,-0.11 -0.14,-0.13 0.01,-0.25 0.05,-0.37 -0.04,-0.6 -0.05,-0.17 -0.1,-0.25 -0.21,-0.37 -0.05,-0.05 -0.05,-0.04 -0.09,-0.08 -0.04,-0.03 -0.1,-0.07 -0.15,-0.1 -0.18,-0.11 -0.33,-0.13 -0.55,-0.12 -0.07,0 -0.2,0.01 -0.33,0.06zm-0.31 0.42c0.09,-0.11 0.19,-0.23 0.4,-0.32 0.07,-0.03 0.1,-0.04 0.2,-0.05 0.14,-0.01 0.3,0.01 0.43,0.06 0.1,0.04 0.16,0.09 0.23,0.15 0.09,0.07 0.11,0.08 0.18,0.19 0.04,0.06 0.14,0.28 0.13,0.37 -0.04,-0.03 -0.13,-0.09 -0.19,-0.11 -0.05,-0.02 -0.09,-0.02 -0.12,0.01 -0.04,0.02 -0.06,0.04 -0.09,0.06 -0.3,0.22 -0.56,0.27 -0.89,0.02 -0.04,-0.02 -0.06,-0.04 -0.09,-0.07 -0.04,-0.02 -0.06,-0.04 -0.12,-0.03 -0.13,0.01 -0.18,0.07 -0.23,0.08 0,-0.16 0.11,-0.3 0.16,-0.36zm0.71 2.71c0.02,0 0.05,0 0.06,0 0.03,0 0.06,-0.01 0.08,-0.01 0.21,-0.04 0.4,-0.23 0.4,-0.43 -0.09,-0.03 -0.13,-0.08 -0.13,-0.17l0.01 -0.24 0 0c-0.02,0.01 -0.03,0.01 -0.04,0.02 -0.1,0.05 -0.24,0.09 -0.38,0.09 -0.1,0 -0.2,-0.01 -0.3,-0.04 -0.03,-0.01 -0.06,-0.03 -0.08,-0.04 0,0.08 0.01,0.18 0,0.26 -0.01,0.07 -0.07,0.1 -0.12,0.12 0,0.23 0.21,0.4 0.39,0.43 0.06,0.01 0.09,0.01 0.11,0.01z"/>
   </g>
   <g>
    <polygon class="fil4" points="5.97,2.56 5.37,3.43 5.56,3.55 6.14,2.66 "/>
    <ellipse class="fil5 str2" cx="7.09" cy="1" rx="0.51" ry="0.46"/>
    <ellipse class="fil5 str2" cx="6.53" cy="1.37" rx="0.51" ry="0.46"/>
    <ellipse class="fil5 str2" cx="7.64" cy="1.37" rx="0.51" ry="0.46"/>
    <ellipse class="fil5 str2" cx="7.42" cy="1.97" rx="0.51" ry="0.46"/>
    <ellipse class="fil5 str2" cx="6.73" cy="1.97" rx="0.51" ry="0.46"/>
    <rect class="fil5 str3" transform="matrix(0.405047 0.300599 -0.356644 0.399503 6.03884 3.36389)" width="0.56" height="1.02" rx="0.28" ry="0.28"/>
    <rect class="fil5 str3" transform="matrix(0.510675 0.378988 -0.449649 0.503684 6.35585 3.42913)" width="0.56" height="1.02" rx="0.28" ry="0.28"/>
    <rect class="fil5 str3" transform="matrix(0.405047 0.300599 -0.356644 0.399503 6.60463 3.69134)" width="0.56" height="1.02" rx="0.28" ry="0.28"/>
    <rect class="fil5 str3" transform="matrix(0.376195 0.279186 -0.331239 0.371045 6.84243 3.84843)" width="0.56" height="1.02" rx="0.28" ry="0.28"/>
    <polygon class="fil6 str4" points="9.13,3.35 9.03,3.42 8.26,2.3 9.14,1.7 "/>
    <polygon class="fil4 str5" points="8.74,3.44 8.13,2.53 8.33,2.42 8.95,3.31 "/>
    <polygon class="fil7 str6" points="5.13,3.47 5.24,3.54 6.01,2.42 5.12,1.82 "/>
    <path class="fil5 str3" d="M9.13 1.72l-0.88 0.61 0.78 1.13 0.1 -0.08m-3.99 0.09l0.12 0.08 0.77 -1.13 -0.89 -0.61m0.48 1.68l0.22 0.12m0.33 -0.96l0.98 0m1.53 0.74l-0.33 0.22m-0.35 0.17l0.06 0.03c0.25,0.15 0.43,-0.09 0.25,-0.23l-0.87 -0.65c-0.12,0.04 -0.25,0.08 -0.37,0.12 -0.26,0.03 -0.44,-0.15 -0.26,-0.23l0.35 -0.17 0.07 -0.03c0.04,-0.02 0.08,-0.02 0.12,-0.01l0.49 0.12 0.32 -0.11m-0.7 1.6l0.12 0.07c0.21,0.1 0.37,-0.1 0.21,-0.26l-0.53 -0.35m-0.38 0.54l0.37 0.26c0.19,0.08 0.33,-0.09 0.24,-0.24 0,-0.01 -0.01,-0.01 -0.03,-0.02 -0.02,-0.02 -0.36,-0.24 -0.37,-0.25m0.7 0.06l0.07 0.05c0.21,0.09 0.37,-0.11 0.2,-0.27l-0.65 -0.42m0.91 -0.95l-0.2 0.12 0.61 0.91 0.22 -0.13m-2.99 -0.81l-0.61 0.9 0.22 0.13 0.59 -0.91 -0.2 -0.12z"/>
   </g>
  </g>
 </g>
</svg>
