<?xml version="1.0" encoding="UTF-8"?>
<!DOCTYPE svg PUBLIC "-//W3C//DTD SVG 1.1//EN" "http://www.w3.org/Graphics/SVG/1.1/DTD/svg11.dtd">
<!-- Creator: CorelDRAW 2021 (64 Bit) -->
<svg xmlns="http://www.w3.org/2000/svg" xml:space="preserve" width="700px" height="385px" version="1.1" style="shape-rendering:geometricPrecision; text-rendering:geometricPrecision; image-rendering:optimizeQuality; fill-rule:evenodd; clip-rule:evenodd"
viewBox="0 0 734.65 404.03"
 xmlns:xlink="http://www.w3.org/1999/xlink"
 xmlns:xodm="http://www.corel.com/coreldraw/odm/2003">
 <defs>
  <style type="text/css">
   <![CDATA[
    .fil5 {fill:black}
    .fil4 {fill:#00FE94}
    .fil7 {fill:#52331D}
    .fil3 {fill:#86B0C0}
    .fil9 {fill:#9F740B}
    .fil8 {fill:#B8E3EA}
    .fil1 {fill:silver}
    .fil2 {fill:#E2A610}
    .fil6 {fill:#FDD734}
    .fil0 {fill:white}
   ]]>
  </style>
 </defs>
 <g id="Camada_x0020_1">
  <metadata id="CorelCorpID_0Corel-Layer"/>
  <g id="_2296619766944">
   <path class="fil0" d="M97.7 306.81l8.45 -0.05 0.07 36.63 -8.51 -0.01 -0.01 -36.57zm242.73 0.81l7.24 0 1.28 0.02 0 34.87 -1.28 0.04 -7.25 -0.01 0.01 -34.92zm-62.93 -112.06c0.98,-1.37 2.65,-2.68 4.41,-3.76 1.64,-1 3.81,-1.91 5.39,-2.96 1.51,-6.06 7.89,-8.46 14.23,-5.26l0.26 0.25c1.45,0.52 4.06,-0.44 5.9,-0.68 2.46,-0.33 4.68,-0.43 7.19,-0.29 0.59,-0.48 -0.43,-0.28 1.32,-0.44 0.39,-0.04 1.52,0.05 1.98,0.07 1.23,0.07 2.46,0.16 3.65,0.28 2.24,0.24 4.4,0.59 6.49,1.07 3.91,0.89 7.78,2.35 11.06,4.02 6.54,3.34 12.53,7.73 16.93,13.21 5.05,6.28 8.21,11.05 10.8,19.35 2.62,8.37 3.15,17.69 1.47,26.62 -1.69,8.93 -6.39,19.77 -11.67,25.99 -1.29,1.52 -2.26,2.8 -3.45,4.09 -1.3,1.4 -2.42,2.21 -4.01,3.52 -7.6,6.23 -14.88,10.02 -26.01,11.71 -8.76,1.34 -18.95,0.9 -26.27,-2.55l-4.44 4.88c-9.44,11.05 -6.07,11.15 -30.42,11.24 -1.1,1.67 -7.37,20.01 -7.91,22.86 -3.38,1.41 -14.52,4.13 -18.89,5.69 -7.05,2.54 -7.45,8.42 -13.9,11.01 -6.25,2.5 -15.36,1.4 -20.94,-1.21 -6.46,-3.03 -10.74,-8.19 -14.5,-10.35 0.97,-1.59 5.56,-5.82 7.21,-7.5l20.04 -20.27c10.88,-10.15 20.96,-20.89 31.44,-31.47 4.96,-5.01 9.65,-9.88 14.66,-14.83 2.93,-2.88 1.18,-1.89 -0.8,-10.69 -2.67,-11.88 0.45,-27.05 5.22,-37.34 3.39,-7.32 8.19,-12.41 13.56,-16.26zm391.68 -6.89c0.88,0.1 0.47,2.01 0.47,4l0.02 141.59c0,0.28 0,1 -0.04,1.25 -0.14,0.8 0.02,0.46 -0.35,0.87 -0.3,0.87 -0.55,0.99 -1.18,1.73 -0.61,0.72 -0.9,1.06 -1.61,1.69 -17.07,15.15 -54.35,20.04 -75.81,22.1 -30.71,2.93 -66.52,1.31 -95.36,-5.9 -13.86,-3.47 -28.01,-8.18 -36.16,-15.96 -3.54,-3.38 -3.08,-3.49 -3.02,-9.74l1.31 -139.28c-0.01,-1.24 -0.31,-2.19 0.62,-2.67 1.22,-3.94 8.83,-6.89 13.39,-8.53 4.89,-1.76 11.97,-4.2 17.1,-5.13 0.2,-17.87 -0.47,-35.93 -0.15,-53.78 0.3,-16.37 4.62,-30.64 11.12,-42.77 3.12,-5.82 7.52,-11.53 11.15,-15.73 2.6,-3.02 7.26,-7.09 10.24,-9.74 1.1,-0.97 2.46,-2.11 3.87,-3.01 10.28,-6.53 27.77,-11.93 42.75,-11.41 17.95,0.62 31.97,7.82 43.71,16.66 1.3,0.98 2.47,2.1 3.76,3.11 7.69,5.99 13.36,13.64 18.39,22.27 5.89,10.12 11.39,27.89 11.91,41.93 0.66,17.55 -0.75,36.1 -0.36,53.65 3.99,0.8 10.05,3.19 13.67,4.69 3.88,1.6 10.27,4.3 10.56,8.11zm-508.78 -140.21c11.74,-3.21 16.02,12.95 5.16,15.83 -11.89,3.16 -16.59,-12.71 -5.16,-15.83zm6.28 162.99c-4.26,-1.81 -7.12,-4.8 -9.59,-7.44l-7.88 -9.17c-4.17,-5.39 -3.51,-5.61 -6.14,-10.88 -5.37,-10.82 -15.52,2.35 -22.2,-28.92 -1.09,-5.11 -1.6,-10.01 -0.04,-15.21 1.46,-4.85 3.79,-6.81 9.22,-7.69 -0.16,-6.32 -1.71,-11.52 -1.68,-18.44 0.02,-6.24 0.05,-12.98 1.08,-19 1.46,-8.56 4.54,-14.24 8.61,-21.19 1.15,-1.97 2.83,-4.11 3.77,-6.03 3.29,0.61 6.51,3.27 7.77,5.06 -4.93,8.72 -11.4,15.44 -11.85,27.9 4.42,-1.23 7.91,-5.68 17.56,-6.48 4.64,-0.38 6.16,0.77 9.06,2.82 2.45,1.74 4.49,3.17 6.85,4.96 25.29,19.16 44.93,15.42 67.76,-1.36 2.21,-1.62 4.31,-3.4 6.74,-5.06 2.94,-1.99 5.62,-2.2 9.35,-0.75 4.32,1.69 11.27,6.14 14.49,8.49 0.82,-7.01 -7.08,-23.26 -10.02,-27.72 -5.55,-8.43 -6.74,-9.36 -13.52,-14.98 -5.48,-4.53 -9.61,-7.91 -17.32,-10.87 -9.92,-3.8 -22.29,-5.43 -33.06,-4.58 -9.02,0.72 -8.91,1.89 -15.23,3.63l-2.53 -8.24c3.72,-3.03 15.62,-4.05 21.34,-4.25 16.17,-0.59 27.9,1.3 41.55,9.57 3.42,2.07 8.25,5.28 11.16,7.85 3.15,2.78 3.07,2.25 6.7,6.07 8.57,9.03 12.09,15.1 16.5,27.74 6.22,17.86 3.19,26.97 3.13,45.71 5.24,1.7 8.66,4.43 10.34,9.64 0.87,2.71 0.97,5.87 0.4,8.73 -0.55,2.79 -1.88,4.62 -2.58,7.29 -2.44,9.3 -2.55,20.93 -18.43,21.21 -1.35,7.55 -10.14,17.91 -13.84,21.54 -5.72,5.62 -12.01,10.11 -21.02,14.36 -7.96,3.76 -18.61,6.48 -28.66,6.85 -8.08,0.3 -15.81,-0.75 -23.22,-3.44 -2.03,-0.73 -4.23,-2 -6,-2.54 -0.24,6.23 0.69,13.26 0.1,19.31 -0.54,5.55 -5,7.72 -9.51,9.48 0.31,17.37 16.25,30.17 30.19,32.34 9.58,1.49 10.94,-0.91 9.02,10.19 -5.85,0.48 -13.7,-1.66 -18.54,-3.58 -9.95,-3.97 -18.83,-10.75 -24.43,-20.14 -3.59,-6.04 -3.86,-9.38 -4.86,-17.08 -7.07,0.14 -14.55,1.88 -21.28,3.16 -13.47,2.54 -27.96,3.97 -40.83,8.31 -7.16,2.42 -10.13,4.44 -15.59,8.66 -11.74,9.09 -11.64,22.99 -11.63,37.13l0.07 36.2c-0.55,3.85 -3.46,2.86 -9.43,2.79 -0.12,-10.02 -0.01,-20.11 -0.01,-30.14 0,-7.79 -0.82,-22.62 0.92,-29.35 2.73,-10.59 9.35,-20.61 18.45,-26.79 3.2,-2.17 5.72,-3.58 9.54,-5.21 7.68,-3.28 14.99,-4.78 23.81,-6.34 13.66,-2.42 38.88,-7.43 51.28,-8.69 2.57,-0.27 3.76,-0.89 4.1,-3.35 0.42,-3.08 0.1,-18.43 0.06,-22.08zm-120.74 -185.02c-9.19,1.02 -15.52,6.89 -18.31,13.98 -2.43,6.15 -1.44,23.29 -1.44,31.02l0 258.21c0,7.31 -0.84,25.58 0.64,31.51 1.97,7.89 8.28,14.27 16.32,16.1 4.51,1.02 25.45,0.56 31.56,0.56 199.23,0 398.46,0 597.69,0 4.92,0 11.53,0.37 16.26,-0.12 9.12,-0.96 15.5,-7.14 18.13,-13.97 2.37,-6.16 1.43,-23.35 1.43,-31.13l0 -258.21c0,-7.29 0.84,-25.59 -0.68,-31.55 -2.01,-7.86 -8.36,-14.22 -16.43,-16 -5.15,-1.13 -57.44,-0.53 -63.93,-0.53l-565.25 0c-4.8,0 -11.46,-0.37 -15.99,0.13z"/>
   <path class="fil1" d="M45.94 26.43c4.53,-0.5 11.19,-0.13 15.99,-0.13l565.25 0c6.49,0 58.78,-0.6 63.93,0.53 8.07,1.78 14.42,8.14 16.43,16 1.52,5.96 0.68,24.26 0.68,31.55l0 258.21c0,7.78 0.94,24.97 -1.43,31.13 -2.63,6.83 -9.01,13.01 -18.13,13.97 -4.73,0.49 -11.34,0.12 -16.26,0.12 -199.23,0 -398.46,0 -597.69,0 -6.11,0 -27.05,0.46 -31.56,-0.56 -8.04,-1.83 -14.35,-8.21 -16.32,-16.1 -1.48,-5.93 -0.64,-24.2 -0.64,-31.51l0 -258.21c0,-7.73 -0.99,-24.87 1.44,-31.02 2.79,-7.09 9.12,-12.96 18.31,-13.98zm-45.94 18.79l0 313.59c0,11.47 6.31,23.49 14.17,31.37 7.84,7.86 20.11,13.85 31.7,13.85l643.24 0c6.51,0 14.3,-2.72 18.68,-4.92 16.78,-8.43 26.86,-25.19 26.86,-44.56l0 -305.07c0,-8.06 -1.59,-14.36 -3.88,-20.04l-4.24 -7.88c-0.82,-1.22 -1.57,-2.23 -2.5,-3.4 -0.56,-0.72 -0.8,-0.87 -1.36,-1.59 -3.62,-4.64 -9.92,-9 -15.43,-11.76 -4.85,-2.44 -12.32,-4.81 -19.44,-4.81l-641.27 0c-6.36,0 -14.24,2.2 -18.57,4.37 -5.31,2.65 -6.12,3.16 -10.46,6.58 -3.48,2.76 -5.65,5.27 -8.42,8.94 -4.75,6.3 -9.08,17.13 -9.08,25.33z"/>
   <path class="fil2" d="M554.17 252.36l0.71 -0.35c2.23,-0.53 3.75,-1.24 6.43,-1.2 2.66,0.03 4.52,0.86 6.66,1.04l0.85 0.48c3.56,0.06 8.23,3.66 9.65,5.43 5.18,6.45 6.61,15.26 1.07,22.27 -3.08,3.88 -7.79,5.11 -8.98,6.36l15.42 33.66c1.21,3.82 -1.72,4.6 -5.01,4.57 -6.68,-0.06 -13.3,-0.14 -19.99,-0.11 -6.38,0.03 -13.35,0.37 -19.67,0.05 -7.44,-0.37 -4.16,-4.51 -0.93,-11.59 3.19,-7.01 9.25,-21.27 12.29,-27.23 -0.43,-0.4 -12.45,-4.6 -12.26,-17.36 0.13,-8.55 8.08,-15.67 13.76,-16.02zm115.11 84.02l-0.1 -147.71c0.51,4.23 -3.37,9.82 -5.06,11.79 -7.05,8.22 -25.66,13.36 -36.62,15.46 -36.64,7.05 -91.24,7.46 -127.86,0.11 -15.84,-3.18 -38.75,-9.07 -41.57,-27.68 -0.93,0.48 -0.63,1.43 -0.62,2.67l-1.31 139.28c-0.06,6.25 -0.52,6.36 3.02,9.74 8.15,7.78 22.3,12.49 36.16,15.96 28.84,7.21 64.65,8.83 95.36,5.9 21.46,-2.06 58.74,-6.95 75.81,-22.1 0.71,-0.63 1,-0.97 1.61,-1.69 0.63,-0.74 0.88,-0.86 1.18,-1.73z"/>
   <path class="fil3" d="M518.75 64.46c11.07,-2.64 11.42,10.81 2.94,17.46 -13.87,10.87 -18.91,45.13 -21.15,49.96 -1.91,4.1 -5.53,3.57 -6.17,-1.39 -1.23,-9.44 0.49,-27.29 2.44,-36.07 1.47,-6.62 4.25,-13.63 7.57,-18.32 2.25,-3.19 3.6,-4.45 6.22,-6.87 1.78,-1.64 5.19,-4.06 8.15,-4.77zm-30.19 110.23l0.1 26.51c11.81,8.48 23.85,8.02 35.5,-0.44l0.53 -33.31 0.79 -50.5c0.09,-5.65 1.48,-9.11 3.4,-13.73 5.85,-14.1 19.96,-28.08 40.3,-28.06 20.44,0.02 34.26,13.86 40.18,28.18 1.97,4.76 3.18,8.23 3.17,13.97 -0.02,16.1 0.49,35.78 -0.03,51.02l0 18.31 0.02 10.06c1.84,1.6 7.55,3.25 10.47,3.78 5.06,0.92 8.6,0.55 13.49,-0.33 3.22,-1.25 5.19,-1.69 8.26,-3.35l0.11 -10.68 0.1 -10.25c-0.39,-17.55 1.02,-36.1 0.36,-53.65 -0.52,-14.04 -6.02,-31.81 -11.91,-41.93 -5.03,-8.63 -10.7,-16.28 -18.39,-22.27 -1.29,-1.01 -2.46,-2.13 -3.76,-3.11 -11.74,-8.84 -25.76,-16.04 -43.71,-16.66 -14.98,-0.52 -32.47,4.88 -42.75,11.41 -1.41,0.9 -2.77,2.04 -3.87,3.01 -2.98,2.65 -7.64,6.72 -10.24,9.74 -3.63,4.2 -8.03,9.91 -11.15,15.73 -6.5,12.13 -10.82,26.4 -11.12,42.77 -0.32,17.85 0.35,35.91 0.15,53.78z"/>
   <path class="fil0" d="M206.11 184.97c4.67,0.03 8.4,-1.61 11.57,-3.67 1.62,-1.05 2.83,-2.16 4.26,-3.25 0.99,-0.75 3.35,-2.74 4.63,-3.22 1.23,3.04 4.16,3.96 5.52,5.07 -0.96,3.68 -7.64,8.08 -10.94,9.79 -10.48,5.45 -22.4,6.2 -33.22,1.16 -3.08,-1.43 -9.7,-6.22 -10.91,-9.32 1.02,-1.47 4.86,-4.93 6.81,-5.85 5.08,7.98 13.11,9.24 22.28,9.29zm19.5 -54.27c14.05,-2.68 15.54,16.1 4.13,18.42 -6.1,1.24 -10.45,-2.4 -11.6,-7.12 -1.63,-6.67 2.06,-10.27 7.47,-11.3zm-51.11 0c5.79,-1.11 10.94,2.02 11.66,6.92 0.9,6.08 -2.81,10.55 -7.54,11.5 -12.3,2.48 -17.54,-15.85 -4.12,-18.42zm92.73 8.12c2.26,-8.68 4.42,-18.31 -0.67,-25.28 -1.67,-2.3 -5.85,-5.95 -8.21,-7.52 -7.26,-4.8 -8.71,-2.73 -15.22,2.43 -10.55,8.38 -25.32,14.91 -39.31,15.09 -19.7,0.25 -32.56,-10.7 -43.63,-18.64 -3.87,-2.78 -7.66,-1.46 -12,0.37 -4.28,1.79 -6.41,3.07 -7.48,7.93 -0.72,3.24 -2.53,10.17 -2.31,13.16 0.36,4.74 2.01,8.58 1.86,13.64l-10.83 1.55c-2.85,5.38 1.18,14.46 2.59,19.7 0.93,3.44 1.69,6.43 4.32,7.79 2.73,1.41 7.31,1.42 10.69,1.46 2.34,7.36 4.36,11.71 8.13,17.1 2.56,3.67 8.54,10.68 11.64,13.24 5.15,4.26 9.11,6.98 16,9.26 6.67,2.21 14.47,2.82 22,2.95 17.11,0.29 27.04,-5.32 37.34,-12.86 3.52,-2.57 9.52,-8.94 12.14,-12.75 5.94,-8.62 4.71,-9.19 7.9,-16.94 5.74,0.09 9.94,1.14 12.59,-2.89 2.56,-3.91 1.78,-8.05 3.21,-12.51 1,-3.12 4.13,-9.94 0.91,-12.27 -2.68,-1.94 -8.97,-1.9 -11.66,-4.01z"/>
   <path class="fil4" d="M323.85 200.46c10.21,-2.05 18.35,5.16 19.84,13.22 1.87,10.14 -5.29,17.69 -13.4,19.3 -10.24,2.04 -18.37,-5.1 -19.93,-13.16 -2,-10.33 5.3,-17.72 13.49,-19.36zm-27.67 -14.13c5.31,-1.45 9.95,2.14 11,6.17 1.39,5.37 -2.45,9.61 -6.41,10.6 -11.1,2.79 -15.95,-13.66 -4.59,-16.77zm5.61 -2.5l-0.26 -0.25 0.26 0.25c-0.26,0.31 -0.06,0.22 -0.77,0.53l-6.65 1.88c-2.35,0.77 -4.96,2.05 -7.07,2.6 -1.58,1.05 -3.75,1.96 -5.39,2.96 -1.76,1.08 -3.43,2.39 -4.41,3.76 0.45,1.93 3.82,4.39 5.34,5.52 -0.49,1.49 -3.59,4.31 -4.76,5.57 -1.75,1.87 -2.96,3.75 -4.57,5.92 -6.72,9.02 -9.39,21.33 -6.76,32.52 3.06,13.05 3.1,7.69 6.12,14.37l-19.07 18.58c-1.74,1.6 -3.21,2.97 -4.95,4.57 -6.19,5.73 -13.07,13.01 -19.26,18.73 -1.58,1.46 -3.58,3.08 -4.91,4.62l-14.53 13.96c-4.83,4.45 -9.15,8.97 -14.6,13.78 1.46,3.33 13.39,8.48 19.8,6.48 1.78,-0.55 7.36,-8.15 10.34,-9.3l19.03 -7.52c2.75,-1.09 2.64,-0.62 3.49,-3.38 2.04,-6.6 4.46,-13.73 6.82,-20.06 3.3,-0.28 24.53,-1.71 25.77,-2.74l6.56 -7.86c1.43,-1.68 5.57,-6.23 6.47,-7.93 6.44,1.51 9.95,4.98 22.05,5.37 8.56,0.28 15.63,-1.69 22.39,-4.85 3.41,-1.6 5.35,-3.49 7.69,-5.74 7.63,-7.34 12.94,-13.75 16,-25.29 2.16,-8.11 2.15,-16.12 0.85,-24.53 -0.9,-5.82 -6.56,-14.38 -9.34,-18.18 -5.48,-7.51 -15.11,-13.95 -25.43,-15.52 -11.22,-1.7 -13.43,0.85 -12.01,-6.76 0.43,-2.27 1.04,-2.73 -1.15,-3.03 -2.51,-0.14 -4.73,-0.04 -7.19,0.29 -1.84,0.24 -4.45,1.2 -5.9,0.68z"/>
   <path class="fil5" d="M267.23 138.82c2.69,2.11 8.98,2.07 11.66,4.01 3.22,2.33 0.09,9.15 -0.91,12.27 -1.43,4.46 -0.65,8.6 -3.21,12.51 -2.65,4.03 -6.85,2.98 -12.59,2.89 -3.19,7.75 -1.96,8.32 -7.9,16.94 -2.62,3.81 -8.62,10.18 -12.14,12.75 -10.3,7.54 -20.23,13.15 -37.34,12.86 -7.53,-0.13 -15.33,-0.74 -22,-2.95 -6.89,-2.28 -10.85,-5 -16,-9.26 -3.1,-2.56 -9.08,-9.57 -11.64,-13.24 -3.77,-5.39 -5.79,-9.74 -8.13,-17.1 -3.38,-0.04 -7.96,-0.05 -10.69,-1.46 -2.63,-1.36 -3.39,-4.35 -4.32,-7.79 -1.41,-5.24 -5.44,-14.32 -2.59,-19.7l10.83 -1.55c0.15,-5.06 -1.5,-8.9 -1.86,-13.64 -0.22,-2.99 1.59,-9.92 2.31,-13.16 1.07,-4.86 3.2,-6.14 7.48,-7.93 4.34,-1.83 8.13,-3.15 12,-0.37 11.07,7.94 23.93,18.89 43.63,18.64 13.99,-0.18 28.76,-6.71 39.31,-15.09 6.51,-5.16 7.96,-7.23 15.22,-2.43 2.36,1.57 6.54,5.22 8.21,7.52 5.09,6.97 2.93,16.6 0.67,25.28zm-89.35 -98.52l2.53 8.24c6.32,-1.74 6.21,-2.91 15.23,-3.63 10.77,-0.85 23.14,0.78 33.06,4.58 7.71,2.96 11.84,6.34 17.32,10.87 6.78,5.62 7.97,6.55 13.52,14.98 2.94,4.46 10.84,20.71 10.02,27.72 -3.22,-2.35 -10.17,-6.8 -14.49,-8.49 -3.73,-1.45 -6.41,-1.24 -9.35,0.75 -2.43,1.66 -4.53,3.44 -6.74,5.06 -22.83,16.78 -42.47,20.52 -67.76,1.36 -2.36,-1.79 -4.4,-3.22 -6.85,-4.96 -2.9,-2.05 -4.42,-3.2 -9.06,-2.82 -9.65,0.8 -13.14,5.25 -17.56,6.48 0.45,-12.46 6.92,-19.18 11.85,-27.9 -1.26,-1.79 -4.48,-4.45 -7.77,-5.06 -0.94,1.92 -2.62,4.06 -3.77,6.03 -4.07,6.95 -7.15,12.63 -8.61,21.19 -1.03,6.02 -1.06,12.76 -1.08,19 -0.03,6.92 1.52,12.12 1.68,18.44 -5.43,0.88 -7.76,2.84 -9.22,7.69 -1.56,5.2 -1.05,10.1 0.04,15.21 6.68,31.27 16.83,18.1 22.2,28.92 2.63,5.27 1.97,5.49 6.14,10.88l7.88 9.17c2.47,2.64 5.33,5.63 9.59,7.44 0.04,3.65 0.36,19 -0.06,22.08 -0.34,2.46 -1.53,3.08 -4.1,3.35 -12.4,1.26 -37.62,6.27 -51.28,8.69 -8.82,1.56 -16.13,3.06 -23.81,6.34 -3.82,1.63 -6.34,3.04 -9.54,5.21 -9.1,6.18 -15.72,16.2 -18.45,26.79 -1.74,6.73 -0.92,21.56 -0.92,29.35 0,10.03 -0.11,20.12 0.01,30.14 5.97,0.07 8.88,1.06 9.43,-2.79l-0.07 -36.2c-0.01,-14.14 -0.11,-28.04 11.63,-37.13 5.46,-4.22 8.43,-6.24 15.59,-8.66 12.87,-4.34 27.36,-5.77 40.83,-8.31 6.73,-1.28 14.21,-3.02 21.28,-3.16 1,7.7 1.27,11.04 4.86,17.08 5.6,9.39 14.48,16.17 24.43,20.14 4.84,1.92 12.69,4.06 18.54,3.58 1.92,-11.1 0.56,-8.7 -9.02,-10.19 -13.94,-2.17 -29.88,-14.97 -30.19,-32.34 4.51,-1.76 8.97,-3.93 9.51,-9.48 0.59,-6.05 -0.34,-13.08 -0.1,-19.31 1.77,0.54 3.97,1.81 6,2.54 7.41,2.69 15.14,3.74 23.22,3.44 10.05,-0.37 20.7,-3.09 28.66,-6.85 9.01,-4.25 15.3,-8.74 21.02,-14.36 3.7,-3.63 12.49,-13.99 13.84,-21.54 15.88,-0.28 15.99,-11.91 18.43,-21.21 0.7,-2.67 2.03,-4.5 2.58,-7.29 0.57,-2.86 0.47,-6.02 -0.4,-8.73 -1.68,-5.21 -5.1,-7.94 -10.34,-9.64 0.06,-18.74 3.09,-27.85 -3.13,-45.71 -4.41,-12.64 -7.93,-18.71 -16.5,-27.74 -3.63,-3.82 -3.55,-3.29 -6.7,-6.07 -2.91,-2.57 -7.74,-5.78 -11.16,-7.85 -13.65,-8.27 -25.38,-10.16 -41.55,-9.57 -5.72,0.2 -17.62,1.22 -21.34,4.25z"/>
   <path class="fil6" d="M524.69 167.45l-0.53 33.31c-11.65,8.46 -23.69,8.92 -35.5,0.44l-0.1 -26.51c-5.13,0.93 -12.21,3.37 -17.1,5.13 -4.56,1.64 -12.17,4.59 -13.39,8.53 2.82,18.61 25.73,24.5 41.57,27.68 36.62,7.35 91.22,6.94 127.86,-0.11 10.96,-2.1 29.57,-7.24 36.62,-15.46 1.69,-1.97 5.57,-7.56 5.06,-11.79l0.1 147.71c0.37,-0.41 0.21,-0.07 0.35,-0.87 0.04,-0.25 0.04,-0.97 0.04,-1.25l-0.02 -141.59c0,-1.99 0.41,-3.9 -0.47,-4 -0.29,-3.81 -6.68,-6.51 -10.56,-8.11 -3.62,-1.5 -9.68,-3.89 -13.67,-4.69l-0.1 10.25c3.51,1.49 5.92,6.04 2.35,9.54 -2.02,1.99 -6.96,4.04 -10.72,4.49 -4.89,0.88 -8.43,1.25 -13.49,0.33 -2.92,-0.53 -8.63,-2.18 -10.47,-3.78 -3.33,-1.42 -5.62,-6.82 -0.02,-10.06l0 -18.31c-7.06,-0.93 -13.97,-2.2 -21.24,-3.03 -7.36,-0.83 -14.87,-1.37 -22.41,-1.43 -15.43,-0.12 -29.41,1.48 -44.16,3.58z"/>
   <path class="fil0" d="M524.69 167.45c14.75,-2.1 28.73,-3.7 44.16,-3.58 7.54,0.06 15.05,0.6 22.41,1.43 7.27,0.83 14.18,2.1 21.24,3.03 0.52,-15.24 0.01,-34.92 0.03,-51.02 0.01,-5.74 -1.2,-9.21 -3.17,-13.97 -5.92,-14.32 -19.74,-28.16 -40.18,-28.18 -20.34,-0.02 -34.45,13.96 -40.3,28.06 -1.92,4.62 -3.31,8.08 -3.4,13.73l-0.79 50.5z"/>
   <path class="fil5" d="M277.5 195.56c-5.37,3.85 -10.17,8.94 -13.56,16.26 -4.77,10.29 -7.89,25.46 -5.22,37.34 1.98,8.8 3.73,7.81 0.8,10.69 -5.01,4.95 -9.7,9.82 -14.66,14.83 -10.48,10.58 -20.56,21.32 -31.44,31.47l-20.04 20.27c-1.65,1.68 -6.24,5.91 -7.21,7.5 3.76,2.16 8.04,7.32 14.5,10.35 5.58,2.61 14.69,3.71 20.94,1.21 6.45,-2.59 6.85,-8.47 13.9,-11.01 4.37,-1.56 15.51,-4.28 18.89,-5.69 0.54,-2.85 6.81,-21.19 7.91,-22.86 24.35,-0.09 20.98,-0.19 30.42,-11.24l4.44 -4.88c7.32,3.45 17.51,3.89 26.27,2.55 11.13,-1.69 18.41,-5.48 26.01,-11.71 1.59,-1.31 2.71,-2.12 4.01,-3.52 1.19,-1.29 2.16,-2.57 3.45,-4.09 5.28,-6.22 9.98,-17.06 11.67,-25.99 1.68,-8.93 1.15,-18.25 -1.47,-26.62 -2.59,-8.3 -5.75,-13.07 -10.8,-19.35 -4.4,-5.48 -10.39,-9.87 -16.93,-13.21 -3.28,-1.67 -7.15,-3.13 -11.06,-4.02 -2.09,-0.48 -4.25,-0.83 -6.49,-1.07 -1.19,-0.12 -2.42,-0.21 -3.65,-0.28 -0.46,-0.02 -1.59,-0.11 -1.98,-0.07 -1.75,0.16 -0.73,-0.04 -1.32,0.44 2.19,0.3 1.58,0.76 1.15,3.03 -1.42,7.61 0.79,5.06 12.01,6.76 10.32,1.57 19.95,8.01 25.43,15.52 2.78,3.8 8.44,12.36 9.34,18.18 1.3,8.41 1.31,16.42 -0.85,24.53 -3.06,11.54 -8.37,17.95 -16,25.29 -2.34,2.25 -4.28,4.14 -7.69,5.74 -6.76,3.16 -13.83,5.13 -22.39,4.85 -12.1,-0.39 -15.61,-3.86 -22.05,-5.37 -0.9,1.7 -5.04,6.25 -6.47,7.93l-6.56 7.86c-1.24,1.03 -22.47,2.46 -25.77,2.74 -2.36,6.33 -4.78,13.46 -6.82,20.06 -0.85,2.76 -0.74,2.29 -3.49,3.38l-19.03 7.52c-2.98,1.15 -8.56,8.75 -10.34,9.3 -6.41,2 -18.34,-3.15 -19.8,-6.48 5.45,-4.81 9.77,-9.33 14.6,-13.78l14.53 -13.96c1.33,-1.54 3.33,-3.16 4.91,-4.62 6.19,-5.72 13.07,-13 19.26,-18.73 1.74,-1.6 3.21,-2.97 4.95,-4.57l19.07 -18.58c-3.02,-6.68 -3.06,-1.32 -6.12,-14.37 -2.63,-11.19 0.04,-23.5 6.76,-32.52 1.61,-2.17 2.82,-4.05 4.57,-5.92 1.17,-1.26 4.27,-4.08 4.76,-5.57 -1.52,-1.13 -4.89,-3.59 -5.34,-5.52z"/>
   <path class="fil7" d="M554.88 252.01l-0.71 0.35c-2.62,2.17 -3.38,1.64 -5.95,5.53 -3.5,5.29 -2.87,12.41 0.4,17.92 1.07,1.79 2.66,3.59 4.32,4.53l1.85 1.14c-2.49,7.67 -5.81,15.55 -8.63,23.18 -1.76,4.78 -4.79,9.99 -0.98,10.98l31.51 0.18c5.35,-0.55 1.16,-7.63 0,-10.73 -2.83,-7.52 -6.29,-15.67 -8.76,-23.23 9.64,-4.91 11.47,-14.77 6.77,-23.59 -0.81,-1.51 -1.35,-2.28 -2.56,-3.36 -0.51,-0.46 -0.95,-0.83 -1.61,-1.33l-1.71 -1.25c-1.12,-0.1 -0.58,-0.05 -0.85,-0.48 -2.14,-0.18 -4,-1.01 -6.66,-1.04 -2.68,-0.04 -4.2,0.67 -6.43,1.2z"/>
   <path class="fil8" d="M518.75 64.46c-2.96,0.71 -6.37,3.13 -8.15,4.77 -2.62,2.42 -3.97,3.68 -6.22,6.87 -3.32,4.69 -6.1,11.7 -7.57,18.32 -1.95,8.78 -3.67,26.63 -2.44,36.07 0.64,4.96 4.26,5.49 6.17,1.39 2.24,-4.83 7.28,-39.09 21.15,-49.96 8.48,-6.65 8.13,-20.1 -2.94,-17.46z"/>
   <path class="fil9" d="M568.82 252.33l-0.85 -0.48c0.27,0.43 -0.27,0.38 0.85,0.48l1.71 1.25c0.66,0.5 1.1,0.87 1.61,1.33 1.21,1.08 1.75,1.85 2.56,3.36 4.7,8.82 2.87,18.68 -6.77,23.59 2.47,7.56 5.93,15.71 8.76,23.23 1.16,3.1 5.35,10.18 0,10.73l-31.51 -0.18c-3.81,-0.99 -0.78,-6.2 0.98,-10.98 2.82,-7.63 6.14,-15.51 8.63,-23.18l-1.85 -1.14c-1.66,-0.94 -3.25,-2.74 -4.32,-4.53 -3.27,-5.51 -3.9,-12.63 -0.4,-17.92 2.57,-3.89 3.33,-3.36 5.95,-5.53l0.71 -0.35 -0.71 0.35c-5.68,0.35 -13.63,7.47 -13.76,16.02 -0.19,12.76 11.83,16.96 12.26,17.36 -3.04,5.96 -9.1,20.22 -12.29,27.23 -3.23,7.08 -6.51,11.22 0.93,11.59 6.32,0.32 13.29,-0.02 19.67,-0.05 6.69,-0.03 13.31,0.05 19.99,0.11 3.29,0.03 6.22,-0.75 5.01,-4.57l-15.42 -33.66c1.19,-1.25 5.9,-2.48 8.98,-6.36 5.54,-7.01 4.11,-15.82 -1.07,-22.27 -1.42,-1.77 -6.09,-5.37 -9.65,-5.43z"/>
   <path class="fil0" d="M324.15 203.08c-19.08,4.17 -12.33,31.1 5.81,27.29 6.81,-1.43 12.82,-7.78 11.13,-16.36 -1.32,-6.7 -8.41,-12.8 -16.94,-10.93z"/>
   <path class="fil5" d="M206.11 184.97c-9.17,-0.05 -17.2,-1.31 -22.28,-9.29 -1.95,0.92 -5.79,4.38 -6.81,5.85 1.21,3.1 7.83,7.89 10.91,9.32 10.82,5.04 22.74,4.29 33.22,-1.16 3.3,-1.71 9.98,-6.11 10.94,-9.79 -1.36,-1.11 -4.29,-2.03 -5.52,-5.07 -1.28,0.48 -3.64,2.47 -4.63,3.22 -1.43,1.09 -2.64,2.2 -4.26,3.25 -3.17,2.06 -6.9,3.7 -11.57,3.67z"/>
   <polygon class="fil5" points="97.71,343.38 106.22,343.39 106.15,306.76 97.7,306.81 "/>
   <polygon class="fil5" points="340.42,342.54 347.67,342.55 348.95,342.51 348.95,307.64 347.67,307.62 340.43,307.62 "/>
   <path class="fil7" d="M225.61 130.7c-5.41,1.03 -9.1,4.63 -7.47,11.3 1.15,4.72 5.5,8.36 11.6,7.12 11.41,-2.32 9.92,-21.1 -4.13,-18.42z"/>
   <path class="fil7" d="M174.5 130.7c-13.42,2.57 -8.18,20.9 4.12,18.42 4.73,-0.95 8.44,-5.42 7.54,-11.5 -0.72,-4.9 -5.87,-8.03 -11.66,-6.92z"/>
   <path class="fil5" d="M324.15 203.08c8.53,-1.87 15.62,4.23 16.94,10.93 1.69,8.58 -4.32,14.93 -11.13,16.36 -18.14,3.81 -24.89,-23.12 -5.81,-27.29zm-0.3 -2.62c-8.19,1.64 -15.49,9.03 -13.49,19.36 1.56,8.06 9.69,15.2 19.93,13.16 8.11,-1.61 15.27,-9.16 13.4,-19.3 -1.49,-8.06 -9.63,-15.27 -19.84,-13.22z"/>
   <path class="fil7" d="M296.18 186.33c-11.36,3.11 -6.51,19.56 4.59,16.77 3.96,-0.99 7.8,-5.23 6.41,-10.6 -1.05,-4.03 -5.69,-7.62 -11,-6.17z"/>
   <path class="fil5" d="M160.4 48.46c-11.43,3.12 -6.73,18.99 5.16,15.83 10.86,-2.88 6.58,-19.04 -5.16,-15.83z"/>
   <path class="fil5" d="M287.3 188.84c2.11,-0.55 4.72,-1.83 7.07,-2.6l6.65 -1.88c0.71,-0.31 0.51,-0.22 0.77,-0.53l-0.26 -0.25c-6.34,-3.2 -12.72,-0.8 -14.23,5.26z"/>
   <path class="fil9" d="M636.48 200.15c3.76,-0.45 8.7,-2.5 10.72,-4.49 3.57,-3.5 1.16,-8.05 -2.35,-9.54l-0.11 10.68c-3.07,1.66 -5.04,2.1 -8.26,3.35z"/>
   <path class="fil9" d="M612.52 196.7l-0.02 -10.06c-5.6,3.24 -3.31,8.64 0.02,10.06z"/>
  </g>
 </g>
</svg>
