<?xml version="1.0" encoding="UTF-8"?>
<!DOCTYPE svg PUBLIC "-//W3C//DTD SVG 1.1//EN" "http://www.w3.org/Graphics/SVG/1.1/DTD/svg11.dtd">
<!-- Creator: CorelDRAW 2021 (64 Bit) -->
<svg xmlns="http://www.w3.org/2000/svg" xml:space="preserve" width="752px" height="752px" version="1.1" style="shape-rendering:geometricPrecision; text-rendering:geometricPrecision; image-rendering:optimizeQuality; fill-rule:evenodd; clip-rule:evenodd"
viewBox="0 0 32.93 32.89"
 xmlns:xlink="http://www.w3.org/1999/xlink"
 xmlns:xodm="http://www.corel.com/coreldraw/odm/2003">
 <defs>
  <style type="text/css">
   <![CDATA[
    .str3 {stroke:black;stroke-width:0.44;stroke-miterlimit:22.9256}
    .str0 {stroke:#B8B4B6;stroke-width:2.19;stroke-miterlimit:22.9256}
    .str2 {stroke:red;stroke-width:1.97;stroke-miterlimit:22.9256}
    .str1 {stroke:red;stroke-width:1.97;stroke-miterlimit:22.9256}
    .fil2 {fill:none}
    .fil3 {fill:black}
    .fil4 {fill:red}
    .fil0 {fill:white}
    .fil1 {fill:white}
   ]]>
  </style>
 </defs>
 <g id="Camada_x0020_1">
  <metadata id="CorelCorpID_0Corel-Layer"/>
  <g id="_2606231416032">
   <path class="fil0 str0" d="M2.47 1.09l28.01 0c0.75,0 1.35,0.69 1.35,1.54l0 27.63c0,0.85 -0.6,1.54 -1.35,1.54l-28.01 0c-0.74,0 -1.34,-0.69 -1.34,-1.54 0,-3.32 -0.05,-26.76 -0.03,-27.96 0.01,-0.67 0.82,-1.21 1.37,-1.21z"/>
   <g>
    <g>
     <ellipse class="fil1 str1" cx="16.46" cy="16.45" rx="12.43" ry="12.17"/>
     <line class="fil2 str2" x1="8.41" y1="25.72" x2="24.9" y2= "7.51" />
    </g>
    <g>
     <path class="fil3 str3" d="M19.44 16.79c0.08,-0.06 0.86,-0.38 0.97,-0.4 0.13,0.37 0.54,0.71 1.08,0.7 0.74,-0.01 0.89,-0.5 1.05,-0.7 0.1,0.03 0.91,0.36 0.95,0.4 -0.15,0.56 -0.07,0.92 0.27,1.25 0.13,0.13 0.29,0.25 0.54,0.31 0.31,0.07 0.44,0.01 0.71,-0.06l0.39 0.97c-1.06,0.43 -0.8,1.88 0.02,2.12l-0.42 0.97c-0.29,-0.06 -0.42,-0.14 -0.75,-0.04 -0.21,0.06 -0.41,0.2 -0.52,0.31 -0.1,0.11 -0.24,0.33 -0.29,0.54 -0.07,0.32 0,0.44 0.06,0.71l-0.96 0.38c-0.07,-0.1 -0.1,-0.18 -0.17,-0.28 -0.44,-0.56 -1.41,-0.55 -1.82,0.04 -0.05,0.08 -0.11,0.2 -0.16,0.25l-0.95 -0.39c0.15,-0.57 0.08,-0.93 -0.26,-1.26 -0.12,-0.12 -0.29,-0.24 -0.52,-0.3 -0.32,-0.08 -0.46,-0.02 -0.73,0.05l-0.4 -0.96c0.13,-0.12 0.7,-0.31 0.71,-1.07 0,-0.27 -0.09,-0.5 -0.22,-0.67 -0.08,-0.11 -0.12,-0.16 -0.22,-0.23 -0.09,-0.08 -0.19,-0.1 -0.27,-0.17l0.39 -0.96c0.76,0.22 1.39,-0.12 1.56,-0.78 0.08,-0.29 0.03,-0.46 -0.04,-0.73zm0.88 -0.82c-0.27,0.06 -0.67,0.26 -0.94,0.37 -0.18,0.07 -0.3,0.12 -0.36,0.3 -0.08,0.23 0.06,0.35 0.07,0.58 0,0.37 -0.29,0.67 -0.6,0.72 -0.28,0.05 -0.38,-0.09 -0.59,-0.08 -0.2,0.01 -0.32,0.14 -0.38,0.29 -0.13,0.31 -0.26,0.61 -0.38,0.92 -0.21,0.52 0.35,0.62 0.48,0.77 0.23,0.26 0.24,0.67 0.01,0.96 -0.15,0.19 -0.68,0.26 -0.5,0.76 0.1,0.3 0.25,0.62 0.38,0.92 0.24,0.55 0.6,0.21 0.91,0.23 0.34,0.02 0.63,0.3 0.67,0.63 0.03,0.26 -0.09,0.35 -0.09,0.55 0.01,0.21 0.14,0.32 0.29,0.39 0.3,0.13 0.61,0.25 0.92,0.37 0.18,0.08 0.38,0.04 0.5,-0.06 0.08,-0.06 0.15,-0.29 0.27,-0.4 0.25,-0.24 0.69,-0.27 0.97,-0.02 0.18,0.17 0.29,0.67 0.76,0.5 0.3,-0.12 0.61,-0.26 0.91,-0.39 0.54,-0.23 0.22,-0.62 0.23,-0.9 0.02,-0.35 0.3,-0.64 0.64,-0.67 0.29,-0.03 0.71,0.29 0.93,-0.21 0.13,-0.3 0.26,-0.61 0.38,-0.92 0.2,-0.51 -0.34,-0.62 -0.47,-0.75 -0.23,-0.24 -0.26,-0.65 -0.05,-0.95 0.16,-0.23 0.7,-0.27 0.54,-0.77l-0.38 -0.92c-0.24,-0.57 -0.6,-0.24 -0.89,-0.25 -0.36,0 -0.64,-0.28 -0.7,-0.6 -0.05,-0.33 0.3,-0.74 -0.18,-0.96 -0.3,-0.13 -0.62,-0.25 -0.92,-0.38 -0.54,-0.22 -0.63,0.3 -0.77,0.44 -0.32,0.32 -0.85,0.29 -1.11,-0.09 -0.07,-0.1 -0.18,-0.48 -0.55,-0.38z"/>
     <path class="fil4" d="M19.8 20.56c0.13,0.84 0.88,1.58 1.9,1.43 0.83,-0.11 1.57,-0.89 1.44,-1.9 -0.12,-0.84 -0.9,-1.57 -1.9,-1.43 -0.83,0.11 -1.59,0.9 -1.44,1.9z"/>
     <path class="fil3 str3" d="M19.8 20.56c-0.15,-1 0.61,-1.79 1.44,-1.9 1,-0.14 1.78,0.59 1.9,1.43 0.13,1.01 -0.61,1.79 -1.44,1.9 -1.02,0.15 -1.77,-0.59 -1.9,-1.43zm1.45 -2.52c-1.29,0.14 -2.2,1.26 -2.06,2.53 0.12,1.19 1.18,2.19 2.54,2.04 1.17,-0.13 2.17,-1.18 2.02,-2.52 -0.12,-1.18 -1.16,-2.19 -2.5,-2.05z"/>
    </g>
    <g>
     <path class="fil3 str3" d="M10.07 8.5c0.08,-0.06 0.86,-0.38 0.97,-0.41 0.14,0.38 0.54,0.72 1.08,0.71 0.74,-0.02 0.89,-0.51 1.05,-0.71 0.1,0.03 0.91,0.37 0.96,0.41 -0.16,0.56 -0.08,0.91 0.26,1.24 0.14,0.14 0.3,0.25 0.54,0.31 0.31,0.07 0.44,0.01 0.71,-0.05l0.4 0.97c-1.06,0.43 -0.81,1.88 0.01,2.11l-0.42 0.97c-0.28,-0.06 -0.42,-0.13 -0.75,-0.03 -0.21,0.06 -0.41,0.19 -0.51,0.31 -0.11,0.11 -0.24,0.32 -0.29,0.54 -0.07,0.31 -0.01,0.44 0.05,0.7l-0.96 0.39c-0.07,-0.11 -0.09,-0.18 -0.17,-0.28 -0.44,-0.56 -1.41,-0.55 -1.81,0.04 -0.05,0.07 -0.12,0.2 -0.17,0.25l-0.94 -0.39c0.14,-0.57 0.08,-0.93 -0.26,-1.26 -0.13,-0.13 -0.3,-0.25 -0.53,-0.31 -0.32,-0.08 -0.46,-0.01 -0.73,0.05l-0.39 -0.95c0.13,-0.13 0.7,-0.32 0.7,-1.07 0,-0.28 -0.09,-0.51 -0.22,-0.68 -0.08,-0.11 -0.12,-0.15 -0.22,-0.23 -0.09,-0.07 -0.18,-0.1 -0.27,-0.17l0.4 -0.96c0.76,0.22 1.38,-0.12 1.56,-0.77 0.08,-0.3 0.02,-0.46 -0.05,-0.73zm0.88 -0.83c-0.27,0.07 -0.67,0.26 -0.94,0.37 -0.17,0.08 -0.29,0.13 -0.35,0.3 -0.09,0.24 0.05,0.35 0.06,0.58 0.01,0.37 -0.28,0.67 -0.6,0.72 -0.28,0.05 -0.37,-0.08 -0.58,-0.07 -0.21,0 -0.33,0.13 -0.39,0.29 -0.13,0.31 -0.25,0.61 -0.38,0.92 -0.21,0.51 0.35,0.61 0.48,0.76 0.23,0.26 0.25,0.67 0.02,0.96 -0.15,0.19 -0.69,0.26 -0.51,0.76 0.11,0.3 0.25,0.63 0.38,0.92 0.24,0.55 0.6,0.22 0.91,0.23 0.34,0.02 0.63,0.3 0.67,0.63 0.03,0.26 -0.09,0.36 -0.08,0.55 0.01,0.22 0.13,0.32 0.28,0.39 0.3,0.13 0.62,0.25 0.92,0.38 0.18,0.07 0.39,0.04 0.5,-0.06 0.08,-0.07 0.15,-0.3 0.27,-0.41 0.25,-0.23 0.7,-0.27 0.97,-0.02 0.18,0.17 0.29,0.68 0.76,0.5 0.3,-0.11 0.62,-0.25 0.92,-0.38 0.54,-0.23 0.21,-0.63 0.23,-0.91 0.02,-0.35 0.3,-0.63 0.63,-0.67 0.29,-0.03 0.71,0.3 0.94,-0.21 0.13,-0.29 0.25,-0.61 0.37,-0.92 0.21,-0.51 -0.34,-0.62 -0.46,-0.75 -0.24,-0.24 -0.26,-0.65 -0.05,-0.95 0.16,-0.23 0.69,-0.27 0.53,-0.76l-0.38 -0.92c-0.23,-0.57 -0.59,-0.25 -0.88,-0.25 -0.37,-0.01 -0.65,-0.29 -0.7,-0.61 -0.05,-0.32 0.3,-0.73 -0.19,-0.95 -0.3,-0.14 -0.61,-0.26 -0.92,-0.38 -0.53,-0.22 -0.63,0.29 -0.77,0.43 -0.31,0.33 -0.85,0.29 -1.1,-0.08 -0.08,-0.11 -0.19,-0.48 -0.56,-0.39z"/>
     <path class="fil4" d="M10.43 12.26c0.13,0.84 0.89,1.58 1.9,1.44 0.84,-0.12 1.58,-0.9 1.44,-1.91 -0.11,-0.83 -0.9,-1.57 -1.89,-1.43 -0.84,0.11 -1.6,0.9 -1.45,1.9z"/>
     <path class="fil3 str3" d="M10.43 12.26c-0.15,-1 0.61,-1.79 1.45,-1.9 0.99,-0.14 1.78,0.6 1.89,1.43 0.14,1.01 -0.6,1.79 -1.44,1.91 -1.01,0.14 -1.77,-0.6 -1.9,-1.44zm1.45 -2.51c-1.29,0.13 -2.2,1.26 -2.06,2.53 0.12,1.18 1.19,2.18 2.54,2.03 1.17,-0.13 2.17,-1.18 2.03,-2.52 -0.13,-1.18 -1.17,-2.19 -2.51,-2.04z"/>
    </g>
   </g>
  </g>
 </g>
</svg>
