<?xml version="1.0" encoding="UTF-8"?>
<!DOCTYPE svg PUBLIC "-//W3C//DTD SVG 1.1//EN" "http://www.w3.org/Graphics/SVG/1.1/DTD/svg11.dtd">
<!-- Creator: CorelDRAW 2021 (64 Bit) -->
<svg xmlns="http://www.w3.org/2000/svg" xml:space="preserve" width="182.998mm" height="97.5991mm" version="1.1" style="shape-rendering:geometricPrecision; text-rendering:geometricPrecision; image-rendering:optimizeQuality; fill-rule:evenodd; clip-rule:evenodd"
viewBox="0 0 3295.55 1757.63"
 xmlns:xlink="http://www.w3.org/1999/xlink"
 xmlns:xodm="http://www.corel.com/coreldraw/odm/2003">
 <defs>
  <style type="text/css">
   <![CDATA[
    .str2 {stroke:#AEA19E;stroke-width:24.4;stroke-miterlimit:22.9256;stroke-opacity:0.949020}
    .str4 {stroke:black;stroke-width:60.99;stroke-miterlimit:22.9256}
    .str8 {stroke:black;stroke-width:3.05;stroke-miterlimit:22.9256}
    .str7 {stroke:blue;stroke-width:3.05;stroke-miterlimit:22.9256}
    .str6 {stroke:lime;stroke-width:3.05;stroke-miterlimit:22.9256}
    .str0 {stroke:#9F740E;stroke-width:3.05;stroke-miterlimit:22.9256}
    .str5 {stroke:red;stroke-width:3.05;stroke-miterlimit:22.9256}
    .str1 {stroke:white;stroke-width:3.05;stroke-miterlimit:22.9256}
    .str3 {stroke:black;stroke-width:18.3;stroke-miterlimit:22.9256}
    .fil7 {fill:none}
    .fil0 {fill:#FEFEFE}
    .fil4 {fill:#E6E7E8}
    .fil2 {fill:black}
    .fil11 {fill:blue}
    .fil10 {fill:lime}
    .fil3 {fill:#373435}
    .fil13 {fill:#666666}
    .fil1 {fill:#9F7507}
    .fil14 {fill:#E6E6E6}
    .fil9 {fill:red}
    .fil16 {fill:yellow}
    .fil8 {fill:black;fill-rule:nonzero}
    .fil12 {fill:black;fill-rule:nonzero}
    .fil5 {fill:#333333;fill-rule:nonzero}
    .fil15 {fill:#B3B3B3;fill-rule:nonzero}
    .fil6 {fill:#FEFEFE;fill-rule:nonzero;fill-opacity:0.949020}
   ]]>
  </style>
 </defs>
 <g id="Camada_x0020_1">
  <metadata id="CorelCorpID_0Corel-Layer"/>
  <g id="_2404869284560">
   <rect class="fil0" y="-0" width="3295.55" height="1757.63" rx="159.96" ry="162.69"/>
   <g>
    <ellipse class="fil1 str0" cx="2881.16" cy="872.83" rx="91.48" ry="41.33"/>
    <path class="fil2" d="M682.18 461.22c32.38,0 144.14,161.89 343.51,62.14 16.99,-8.5 35.2,-19.22 49.46,-29.8 8,-5.94 39.03,-32.34 46.93,-32.34 28.02,0 87.19,45.87 87.19,87.19 0,29.03 -6.34,55.43 -11.89,79.26 40.96,19.65 79.42,-0.02 51.51,71.31 -7.34,18.76 -4.21,42.59 -15.07,60.23 -12.88,20.92 -29.15,15.09 -60.21,15.09 -25.38,108.95 -145.34,198.16 -249.67,198.16 -77.01,0 -142.97,-6.62 -201.2,-64.32 -35.67,-35.35 -72.14,-82.32 -84.14,-133.83 -70.24,0 -59.66,-13.7 -77.79,-68.84 -15.97,-48.58 -7.17,-45.01 -5.43,-65.9 14.69,-3.11 17.55,-0.01 51.52,-7.93 0,-25.66 -5.89,-36.12 -8.44,-59.46 -2.19,-20.03 2.29,-21.08 8.01,-51.94 4.6,-24.83 5.35,-31.92 24.17,-43.2 10.05,-6.02 35.41,-15.82 51.56,-15.82zm99.07 -293.26l12.47 39.44c62.57,-30.3 165.68,-19.46 225.37,4.1 22.02,8.69 27.98,12.09 46.73,24.61 33.97,22.7 21.43,17.3 42.09,33.21 50.46,38.84 95.89,126.25 101.35,191.91 -114.96,-76.98 -87.59,-42.68 -183.53,14.62 -186.83,111.58 -292.58,-58.21 -335.63,-58.21 -43.85,0 -64.88,15.7 -95.11,31.7 1.13,-50.86 29.52,-92.01 55.48,-130.78 -6.63,-9.05 -22.44,-20.7 -35.67,-23.78 -59.55,88.94 -63.4,119.53 -63.4,225.9 0,31.26 7.36,49.78 7.92,75.29 -43.16,3.6 -47.56,44.18 -47.56,75.3 0,18.97 17.09,84.7 26.31,100.51 27.56,47.28 61.37,36.29 74.13,52.7 18.89,24.31 5.1,36.73 78.86,111.36 9.53,9.64 25.3,25.13 38.68,28.7 0,15.43 1.75,98.13 -0.79,106.22 -5.04,16.03 -20.84,11.19 -41.19,14.3l-231.99 41.46c-80.39,13.52 -164.19,45.14 -203.01,121.96 -11.42,22.6 -26.33,53.05 -26.33,84.64l0 245.71c55.24,0 43.59,13 43.59,-95.11 0,-36.99 0.01,-73.97 0,-110.96 -0.01,-65.34 6.65,-110.66 62.74,-155.23 59.97,-47.64 164.6,-54.94 256.6,-72.33 27.78,-5.25 69.14,-14.18 96.78,-14.18 0,106.67 114.38,190.23 221.93,190.23 18.88,-81.03 -25.42,-12.11 -119.55,-82.56 -30.64,-22.94 -62.75,-63.03 -62.75,-115.59 56.57,-27.14 43.59,-24.47 43.59,-134.75 116.71,61.75 294.59,20.65 387.49,-92.04 15.78,-19.14 38.28,-51.7 44.49,-78.37 78.23,0 79.03,-73.6 85.1,-97.21 5.56,-21.63 13.98,-24.4 13.98,-53.39 0,-34.95 -22.8,-60.68 -51.52,-67.37 0,-107.05 21.22,-127.03 -28.26,-249.15 -42.03,-103.74 -176.97,-202.64 -296.72,-202.64 -47.39,0 -101.99,0.3 -142.67,19.82z"/>
    <path class="fil2" d="M916 841.67c-41.61,0 -79.52,-2.56 -107,-43.6 -7.7,5.15 -26.82,20.44 -31.7,27.74 38.12,56.93 130.07,78.32 204.84,38.4 12.04,-6.43 18.45,-11.7 28.47,-19.08 14.24,-10.5 15.86,-11.33 24.28,-27.24 -14.79,-7.83 -18.47,-9.93 -27.74,-23.78 -20.21,13.53 -50.23,47.56 -91.15,47.56z"/>
    <polygon class="fil2" points="408.73,1578.8 448.35,1578.8 448.35,1408.39 408.73,1408.39 "/>
    <polygon class="fil2" points="1538.2,1574.83 1577.82,1574.83 1577.82,1412.35 1538.2,1412.35 "/>
    <path class="fil3" d="M729.73 627.66c0,64.31 91.15,64.31 91.15,0 0,-52.81 -91.15,-52.81 -91.15,0z"/>
    <path class="fil3" d="M967.52 627.66c0,64.31 91.15,64.31 91.15,0 0,-52.81 -91.15,-52.81 -91.15,0z"/>
    <path class="fil2" d="M670.29 243.25c0,51.41 83.22,51.41 83.22,0 0,-51.41 -83.22,-51.41 -83.22,0z"/>
    <path class="fil2" d="M682.18 461.22c32.38,0 144.14,161.89 343.51,62.14 16.99,-8.5 35.2,-19.22 49.46,-29.8 8,-5.94 39.03,-32.34 46.93,-32.34 28.02,0 87.19,45.87 87.19,87.19 0,29.03 -6.34,55.43 -11.89,79.26 40.96,19.65 79.42,-0.02 51.51,71.31 -7.34,18.76 -4.21,42.59 -15.07,60.23 -12.88,20.92 -29.15,15.09 -60.21,15.09 -25.38,108.95 -145.34,198.16 -249.67,198.16 -77.01,0 -142.97,-6.62 -201.2,-64.32 -35.67,-35.35 -72.14,-82.32 -84.14,-133.83 -70.24,0 -59.66,-13.7 -77.79,-68.84 -15.97,-48.58 -7.17,-45.01 -5.43,-65.9 14.69,-3.11 17.55,-0.01 51.52,-7.93 0,-25.66 -5.89,-36.12 -8.44,-59.46 -2.19,-20.03 2.29,-21.08 8.01,-51.94 4.6,-24.83 5.35,-31.92 24.17,-43.2 10.05,-6.02 35.41,-15.82 51.56,-15.82zm99.07 -293.26l12.47 39.44c62.57,-30.3 165.68,-19.46 225.37,4.1 22.02,8.69 27.98,12.09 46.73,24.61 33.97,22.7 21.43,17.3 42.09,33.21 50.46,38.84 95.89,126.25 101.35,191.91 -114.96,-76.98 -87.59,-42.68 -183.53,14.62 -186.83,111.58 -292.58,-58.21 -335.63,-58.21 -43.85,0 -64.88,15.7 -95.11,31.7 1.13,-50.86 29.52,-92.01 55.48,-130.78 -6.63,-9.05 -22.44,-20.7 -35.67,-23.78 -59.55,88.94 -63.4,119.53 -63.4,225.9 0,31.26 7.36,49.78 7.92,75.29 -43.16,3.6 -47.56,44.18 -47.56,75.3 0,18.97 17.09,84.7 26.31,100.51 27.56,47.28 61.37,36.29 74.13,52.7 18.89,24.31 5.1,36.73 78.86,111.36 9.53,9.64 25.3,25.13 38.68,28.7 0,15.43 1.75,98.13 -0.79,106.22 -5.04,16.03 -20.84,11.19 -41.19,14.3l-231.99 41.46c-80.39,13.52 -164.19,45.14 -203.01,121.96 -11.42,22.6 -26.33,53.05 -26.33,84.64l0 245.71c55.24,0 43.59,13 43.59,-95.11 0,-36.99 0.01,-73.97 0,-110.96 -0.01,-65.34 6.65,-110.66 62.74,-155.23 59.97,-47.64 164.6,-54.94 256.6,-72.33 27.78,-5.25 69.14,-14.18 96.78,-14.18 0,106.67 114.38,190.23 221.93,190.23 18.88,-81.03 -25.42,-12.11 -119.55,-82.56 -30.64,-22.94 -62.75,-63.03 -62.75,-115.59 56.57,-27.14 43.59,-24.47 43.59,-134.75 116.71,61.75 294.59,20.65 387.49,-92.04 15.78,-19.14 38.28,-51.7 44.49,-78.37 78.23,0 79.03,-73.6 85.1,-97.21 5.56,-21.63 13.98,-24.4 13.98,-53.39 0,-34.95 -22.8,-60.68 -51.52,-67.37 0,-107.05 21.22,-127.03 -28.26,-249.15 -42.03,-103.74 -176.97,-202.64 -296.72,-202.64 -47.39,0 -101.99,0.3 -142.67,19.82z"/>
    <path class="fil2" d="M916 841.67c-41.61,0 -79.52,-2.56 -107,-43.6 -7.7,5.15 -26.82,20.44 -31.7,27.74 38.12,56.93 130.07,78.32 204.84,38.4 12.04,-6.43 18.45,-11.7 28.47,-19.08 14.24,-10.5 15.86,-11.33 24.28,-27.24 -14.79,-7.83 -18.47,-9.93 -27.74,-23.78 -20.21,13.53 -50.23,47.56 -91.15,47.56z"/>
    <polygon class="fil2" points="408.73,1578.8 448.35,1578.8 448.35,1408.39 408.73,1408.39 "/>
    <path class="fil3" d="M729.73 627.66c0,64.31 91.15,64.31 91.15,0 0,-52.81 -91.15,-52.81 -91.15,0z"/>
    <path class="fil3" d="M967.52 627.66c0,64.31 91.15,64.31 91.15,0 0,-52.81 -91.15,-52.81 -91.15,0z"/>
    <path class="fil2" d="M670.29 243.25c0,51.41 83.22,51.41 83.22,0 0,-51.41 -83.22,-51.41 -83.22,0z"/>
    <g>
     <rect class="fil4 str1" x="1423.04" y="1251.29" width="142.98" height="328.95"/>
     <path class="fil5" d="M1803.26 1601.34c-27.42,0 -54.51,-10.07 -80.81,-19.85 -28.91,-10.73 -58.74,-21.87 -88.39,-19.22l-73.03 6.48 0 -283.32 39.74 -3.53c24.77,-2.12 45.49,7.44 65.49,16.76 18.78,8.76 36.53,17.1 56.91,15.35l130.84 -23.74c46.84,-8.01 72.67,19.03 88.37,43.8l142.84 -66.41c53.89,-24.19 114.44,0.06 150.75,60.35 9.54,15.85 4.23,36.89 -11.82,46.9 -18.52,11.55 -36.96,23.11 -55.22,34.54 -159.53,99.97 -297.31,186.32 -356.27,191.46 -3.14,0.27 -6.27,0.41 -9.4,0.41zm-160.07 -59.06c30,0 58.46,10.58 86.08,20.85 28.51,10.61 55.5,20.59 81.67,18.29 54.28,-4.74 196.75,-94.03 347.58,-188.54 18.27,-11.44 36.72,-23.01 55.25,-34.57 7.04,-4.39 9.46,-13.44 5.42,-20.18 -30.96,-51.38 -81.55,-72.49 -125.82,-52.63l-158.87 73.86c-0.33,-10.33 -8.17,-22.31 -12.55,-27.54 -14.65,-17.46 -43.08,-25.99 -64.55,-22.24l-131.69 23.85c-26.45,2.16 -47.46,-7.55 -67.74,-16.99 -18.47,-8.62 -35.91,-16.76 -55.49,-15.01l-21.88 1.94 0 243.98 51.7 -4.59c3.65,-0.32 7.28,-0.47 10.88,-0.47z"/>
     <path class="fil6 str2" d="M1547.38 1601.34l-111.79 0c-18.33,0 -33.24,-14.91 -33.24,-33.25l-0 -300.49c0,-18.33 14.91,-33.25 33.25,-33.25l111.79 -0c18.33,0 33.24,14.91 33.24,33.25l0 300.49c0,18.33 -14.92,33.24 -33.24,33.24zm-111.79 -347.39c-7.53,0 -13.65,6.12 -13.65,13.65l0 300.49c0.01,7.52 6.13,13.65 13.65,13.65l111.79 0c7.53,0 13.65,-6.12 13.65,-13.65l0 -300.49c0,-7.53 -6.12,-13.66 -13.65,-13.66l-111.79 0z"/>
     <path class="fil7 str3" d="M1942.19 1354.32c2.43,4.57 2.59,12.58 -2.85,21.3 -8.44,13.53 -27.83,24.03 -74.85,18.5 -34.84,-4.09 -76.63,4.04 -112.83,7.89"/>
    </g>
    <g>
     <path class="fil8 str4" d="M2787.99 807.96l-650.53 0c-16.83,0 -30.5,-10.25 -30.5,-22.88 0,-12.63 13.66,-22.88 30.5,-22.88l650.53 0c16.87,0 30.5,10.25 30.5,22.88 0,12.63 -13.63,22.88 -30.5,22.88z"/>
     <path class="fil8 str4" d="M2778.57 1287l-160.72 0c-12.65,0 -22.88,-10.23 -22.88,-22.88l0 -946.21c0,-12.63 10.23,-22.88 22.88,-22.88l160.72 0c12.65,0 22.88,10.25 22.88,22.88 0,12.63 -10.23,22.88 -22.88,22.88l-137.84 0 0 900.43 137.84 -0c12.65,0 22.88,10.25 22.88,22.88 0,12.68 -10.23,22.9 -22.88,22.9z"/>
     <circle class="fil9 str5" cx="2927.5" cy="313.2" r="152.47"/>
     <circle class="fil10 str6" cx="2927.5" cy="784.94" r="152.47"/>
     <circle class="fil11 str7" cx="2925.21" cy="1259.45" r="152.47"/>
    </g>
    <g>
     <path class="fil12" d="M1993.73 1248.2c-5.9,0 -11.78,-1.17 -17.39,-3.48 -11.21,-4.64 -19.95,-13.36 -24.57,-24.59 -14.25,-34.41 -45.41,-46.67 -69.82,-46.67 -24.41,0 -55.59,12.26 -69.85,46.67 -9.61,23.15 -36.24,34.14 -59.37,24.57l-102.52 -42.46c-11.21,-4.64 -19.95,-13.38 -24.59,-24.59 -4.65,-11.21 -4.65,-23.56 0,-34.77 14.25,-34.38 0.89,-65.11 -16.38,-82.36 -17.27,-17.27 -48,-30.66 -82.38,-16.38 -23.2,9.56 -49.76,-1.46 -59.35,-24.59l-42.46 -102.51c-4.65,-11.21 -4.65,-23.56 0,-34.77 4.64,-11.21 13.36,-19.95 24.59,-24.57 34.41,-14.25 46.67,-45.41 46.67,-69.85 0,-24.43 -12.26,-55.59 -46.67,-69.85 -11.21,-4.64 -19.93,-13.36 -24.57,-24.57 -4.65,-11.21 -4.65,-23.56 0,-34.77l42.46 -102.51c9.56,-23.13 36.22,-34.16 59.35,-24.59 34.43,14.23 65.11,0.89 82.38,-16.38 17.27,-17.25 30.63,-47.98 16.38,-82.38 -9.56,-23.15 1.46,-49.76 24.59,-59.35l102.54 -42.46c11.21,-4.64 23.54,-4.64 34.77,0 11.21,4.65 19.95,13.38 24.59,24.59 14.25,34.38 45.41,46.67 69.82,46.67 0,0 0,0 0,0 24.41,0 55.59,-12.26 69.85,-46.67 4.64,-11.21 13.36,-19.95 24.57,-24.59 11.21,-4.62 23.56,-4.64 34.77,0l102.54 42.48c11.21,4.64 19.95,13.36 24.59,24.57 4.64,11.21 4.64,23.56 0,34.77 -14.25,34.38 -0.89,65.09 16.38,82.36 17.27,17.25 48,30.63 82.38,16.38 23.13,-9.61 49.76,1.44 59.35,24.59l42.46 102.52c4.64,11.21 4.64,23.56 0,34.77 -4.65,11.21 -13.38,19.95 -24.59,24.59 -34.38,14.25 -46.65,45.41 -46.65,69.82 0,24.41 12.26,55.59 46.67,69.85l0 0c11.21,4.64 19.95,13.38 24.57,24.59 4.64,11.21 4.62,23.56 -0.02,34.77l-42.46 102.51c-4.62,11.21 -13.36,19.95 -24.57,24.59 -11.23,4.65 -23.56,4.65 -34.77,0 -34.41,-14.25 -65.09,-0.87 -82.38,16.38 -17.25,17.25 -30.63,47.98 -16.38,82.38 9.56,23.13 -1.44,49.76 -24.57,59.35l-102.54 42.46c-5.65,2.31 -11.56,3.48 -17.44,3.48zm-111.8 -120.5c50.01,0 92.95,28.71 112.1,74.9l102.1 -42.64c-19.31,-45.78 -9.24,-96.45 26.13,-131.82 35.37,-35.32 86.07,-45.43 132.24,-26.29l41.91 -102.06c-46.01,-19.2 -74.58,-62.07 -74.58,-111.99 0,-50.01 28.71,-92.98 74.9,-112.1l-42.64 -102.08c-45.82,19.26 -96.45,9.22 -131.82,-26.15 -35.35,-35.37 -45.44,-86.02 -26.29,-132.24l-102.38 -42.05c-18.69,46.03 -61.66,74.74 -111.67,74.74 0,0 0,0 0,0 -50.01,0 -92.95,-28.71 -112.1,-74.9l-102.1 42.64c19.31,45.78 9.22,96.45 -26.13,131.82 -35.35,35.35 -86.02,45.44 -132.26,26.29l-42.03 102.36c46.03,18.69 74.74,61.65 74.74,111.67 0,50.01 -28.71,92.98 -74.9,112.1l42.64 102.08c45.78,-19.26 96.45,-9.22 131.82,26.13 35.35,35.37 45.43,86.05 26.29,132.26l102.35 42.03c18.69,-45.98 61.66,-74.69 111.67,-74.69z"/>
     <circle class="fil13 str8" cx="1881.95" cy="787.83" r="350.69"/>
    </g>
    <circle class="fil14 str8" cx="1882.03" cy="788.31" r="239.38"/>
    <path class="fil15" d="M1960.96 1114.6c-4.19,0 -8.36,-0.83 -12.34,-2.47 -7.95,-3.3 -14.15,-9.48 -17.44,-17.45 -10.11,-24.42 -32.22,-33.12 -49.54,-33.12 -17.32,0 -39.45,8.7 -49.56,33.12 -6.82,16.43 -25.71,24.22 -42.12,17.44l-72.74 -30.13c-7.95,-3.3 -14.15,-9.5 -17.45,-17.45 -3.3,-7.95 -3.3,-16.72 0,-24.68 10.11,-24.4 0.63,-46.2 -11.62,-58.44 -12.25,-12.26 -34.05,-21.75 -58.45,-11.62 -16.46,6.78 -35.3,-1.04 -42.11,-17.45l-30.13 -72.74c-3.3,-7.95 -3.3,-16.72 0,-24.68 3.3,-7.95 9.48,-14.15 17.45,-17.44 24.41,-10.11 33.12,-32.22 33.12,-49.56 0,-17.34 -8.7,-39.45 -33.12,-49.56 -7.95,-3.3 -14.14,-9.48 -17.43,-17.44 -3.3,-7.95 -3.3,-16.72 0,-24.67l30.13 -72.74c6.78,-16.41 25.69,-24.24 42.11,-17.45 24.43,10.1 46.2,0.63 58.45,-11.62 12.25,-12.24 21.74,-34.04 11.62,-58.46 -6.79,-16.43 1.04,-35.31 17.45,-42.11l72.75 -30.13c7.95,-3.3 16.7,-3.3 24.67,0 7.95,3.3 14.15,9.5 17.45,17.45 10.11,24.4 32.22,33.12 49.54,33.12 0,0 0,0 0,0 17.32,0 39.44,-8.7 49.56,-33.12 3.3,-7.95 9.48,-14.15 17.44,-17.45 7.95,-3.28 16.72,-3.3 24.67,0l72.75 30.15c7.95,3.3 14.15,9.48 17.45,17.44 3.3,7.95 3.3,16.72 0,24.67 -10.11,24.4 -0.63,46.18 11.62,58.44 12.26,12.24 34.06,21.74 58.46,11.62 16.41,-6.82 35.3,1.02 42.11,17.45l30.13 72.74c3.3,7.95 3.3,16.72 0,24.67 -3.3,7.95 -9.5,14.15 -17.45,17.45 -24.4,10.11 -33.1,32.22 -33.1,49.55 0,17.32 8.7,39.45 33.11,49.56l0 0c7.95,3.3 14.15,9.5 17.44,17.45 3.3,7.95 3.28,16.72 -0.02,24.67l-30.13 72.74c-3.28,7.95 -9.48,14.15 -17.43,17.45 -7.97,3.3 -16.72,3.3 -24.67,0 -24.41,-10.11 -46.18,-0.62 -58.45,11.62 -12.24,12.24 -21.74,34.04 -11.62,58.46 6.79,16.41 -1.02,35.31 -17.43,42.11l-72.75 30.13c-4.01,1.64 -8.2,2.47 -12.37,2.47zm-79.33 -85.5c35.49,0 65.95,20.37 79.54,53.15l72.45 -30.26c-13.7,-32.48 -6.56,-68.44 18.54,-93.54 25.1,-25.06 61.07,-32.24 93.83,-18.65l29.74 -72.42c-32.64,-13.62 -52.92,-44.04 -52.92,-79.46 0,-35.49 20.37,-65.97 53.15,-79.55l-30.26 -72.43c-32.51,13.67 -68.44,6.54 -93.53,-18.56 -25.08,-25.1 -32.24,-61.04 -18.65,-93.83l-72.64 -29.84c-13.26,32.66 -43.75,53.04 -79.23,53.04 0,0 0,0 0,0 -35.49,0 -65.95,-20.37 -79.54,-53.15l-72.45 30.26c13.7,32.48 6.54,68.44 -18.54,93.54 -25.08,25.08 -61.03,32.24 -93.84,18.65l-29.82 72.63c32.66,13.27 53.03,43.75 53.03,79.24 0,35.49 -20.37,65.97 -53.15,79.54l30.26 72.44c32.48,-13.67 68.44,-6.54 93.53,18.54 25.08,25.1 32.24,61.05 18.65,93.85l72.62 29.82c13.26,-32.63 43.75,-53 79.23,-53z"/>
    <circle class="fil16" cx="1866.34" cy="787.99" r="147.45"/>
    <path class="fil8" d="M1882.05 959.84c-94.58,0 -171.52,-76.94 -171.52,-171.51 0,-94.58 76.94,-171.52 171.52,-171.52 94.58,0 171.52,76.94 171.52,171.52 0,94.58 -76.94,171.51 -171.52,171.51zm0 -297.28c-69.34,0 -125.76,56.42 -125.76,125.76 0,69.34 56.42,125.76 125.76,125.76 69.34,0 125.76,-56.42 125.76,-125.76 0,-69.34 -56.39,-125.76 -125.76,-125.76z"/>
   </g>
  </g>
 </g>
</svg>
