<?xml version="1.0" encoding="UTF-8"?>
<!DOCTYPE svg PUBLIC "-//W3C//DTD SVG 1.1//EN" "http://www.w3.org/Graphics/SVG/1.1/DTD/svg11.dtd">
<!-- Creator: CorelDRAW 2021 (64 Bit) -->
<svg xmlns="http://www.w3.org/2000/svg" xml:space="preserve" width="118.055mm" height="49.0613mm" version="1.1" style="shape-rendering:geometricPrecision; text-rendering:geometricPrecision; image-rendering:optimizeQuality; fill-rule:evenodd; clip-rule:evenodd"
viewBox="0 0 16581.72 6891.04"
 xmlns:xlink="http://www.w3.org/1999/xlink"
 xmlns:xodm="http://www.corel.com/coreldraw/odm/2003">
 <defs>
  <style type="text/css">
   <![CDATA[
    .str3 {stroke:black;stroke-width:59.46;stroke-miterlimit:22.9256}
    .str1 {stroke:#A9ABAE;stroke-width:23.78;stroke-miterlimit:22.9256}
    .str2 {stroke:red;stroke-width:23.78;stroke-miterlimit:22.9256}
    .str0 {stroke:white;stroke-width:23.78;stroke-miterlimit:22.9256}
    .fil0 {fill:#FEFEFE}
    .fil7 {fill:#727376}
    .fil8 {fill:#ED3237}
    .fil9 {fill:black}
    .fil5 {fill:#53331D}
    .fil3 {fill:#86B0C0}
    .fil2 {fill:#9D720B}
    .fil4 {fill:#B8E3E9}
    .fil6 {fill:#E2A610}
    .fil1 {fill:#FCD532}
    .fil11 {fill:red}
    .fil10 {fill:#FFAE00}
   ]]>
  </style>
 </defs>
 <g id="Camada_x0020_1">
  <metadata id="CorelCorpID_0Corel-Layer"/>
  <rect class="fil0 str0" x="11.91" y="11.88" width="16557.93" height="6867.25"/>
  <path class="fil1" d="M15021.07 3049.79c190.11,-21.5 390.88,20.83 475.9,115.16 65.19,72.38 2.49,138.95 -53.87,174.84 -292.77,186.47 -987.56,-8.43 -660.94,-220.95 61.45,-39.99 147.19,-58.67 238.9,-69.05zm-2312.62 -312.43c-152.09,21.43 -302.17,31.87 -455.76,57.15 -207.54,31.69 -463.74,86 -619.31,127.27 -134.98,29.55 -272.47,74.58 -401.5,132.99 -128.66,58.25 -94.91,59.98 -141.01,106.96 16.04,18.19 16.9,46.62 23.77,68.45 21.57,68.61 63.44,114.88 112.49,163.09 59.41,58.39 138.34,104.7 238.43,150.88 171.96,79.36 419.07,134.42 633.42,170.91 884.87,150.68 2902.94,180.01 3722.36,-165.28 184.21,-77.6 349.68,-179.42 377.3,-389.67 -12.36,-35.38 -26.39,-50.72 -53.77,-66.79 -21.59,-12.66 -48.82,-28.27 -77.08,-41.36 -55.78,-25.84 -117.03,-46.7 -179.98,-67.7 -562.81,-187.72 -1615.18,-325.96 -2223.85,-317.06 -340.53,4.99 -628.93,33.91 -955.51,70.17z"/>
  <path class="fil2" d="M15021.08 3049.79c-91.75,10.38 -177.47,29.06 -238.92,69.05 -326.62,212.53 368.15,407.43 660.95,220.95 56.35,-35.87 119.04,-102.48 53.84,-174.84 -85.01,-94.35 -285.78,-136.67 -475.87,-115.16z"/>
  <path class="fil2" d="M12158.49 3049.79c-91.75,10.38 -177.45,29.06 -238.9,69.05 -326.63,212.53 368.14,407.43 660.94,220.95 56.35,-35.87 119.04,-102.48 53.85,-174.84 -85.02,-94.35 -285.79,-136.67 -475.89,-115.16z"/>
  <path class="fil3" d="M12773.08 829.04c-35.52,164.28 -142.54,156.43 -263.84,303.78 -163.28,198.37 -274.15,514.03 -343.36,755.26 -18.71,65.24 -33.11,164.62 -96.3,184.7 -51.9,16.48 -78.5,-23.29 -88.81,-52.36 -12.73,-35.86 -9.9,-84.57 -10.28,-123.41 -4.27,-438.73 36.95,-924.18 462.2,-1177.47 209.3,-124.7 373.62,-44.19 340.39,109.5zm-938.82 1188.53l2.67 522.36c8.19,19.92 2.44,10.84 24.61,25.24 78.57,51.11 218.33,95.31 316.55,105.13 191.23,19.13 340.72,-35.92 483.47,-108.71 42.94,-21.9 33.75,-23.96 34.03,-74.15 0.37,-70.29 2.47,-140.89 3.75,-211.21 2.36,-126.97 -4.2,-282.28 9.1,-405.64 -12.02,-223.62 11.25,192.4 16.18,-72.46 2.43,-129.08 0.08,-165.67 49.43,-280.06 226.71,-525.58 852.68,-780.59 1435.07,-556.7 337.38,129.67 619.28,469.45 618.77,764.25 -0.38,213.68 0,427.39 0,641.08 108.28,45.66 241.92,83 386.74,84.34 125.36,1.17 314.04,-36.79 392.1,-87.86 0.8,-167.03 11.33,-332.44 12.88,-499.12 3.39,-365.09 -216.87,-864.71 -485.35,-1119.6 -129.98,-123.39 -160.18,-151.19 -307.27,-251.67 -101.8,-69.54 -235.18,-141.23 -371.06,-198.28 -479.26,-201.21 -984.03,-204.31 -1492.53,-29.48 -135.18,46.48 -278.19,103.26 -383.08,188.52 -125.02,101.64 -174.24,120.02 -297.64,259.69 -53.42,60.42 -72.34,76.79 -124.39,146.93 -40.17,54.16 -73.89,103.67 -109.96,165.59 -142.76,245.11 -218.55,527.39 -217.16,838.31 1.5,335.5 14.45,-180.11 3.1,153.51z"/>
  <path class="fil4" d="M12773.07 829.04c33.23,-153.69 -131.06,-234.19 -340.37,-109.5 -425.25,253.3 -466.47,738.74 -462.2,1177.47 0.38,38.84 -2.44,87.55 10.28,123.41 10.31,29.07 36.91,68.84 88.81,52.35 63.19,-20.07 77.59,-119.45 96.3,-184.69 69.22,-241.21 180.08,-556.89 343.36,-755.26 121.3,-147.35 228.31,-139.5 263.82,-303.78z"/>
  <path class="fil5" d="M13428.41 4441.36l-17.33 7.02c-50.94,47.11 -200.29,89.4 -191.33,296.83 5.41,125.22 106.47,253.23 215.08,281.01 -33.92,122.62 -286.8,585.34 -277.99,661.44 36.65,49.75 125.85,35.68 206.46,35.31l498.44 -0.94c215.46,2.67 196.26,-11.94 97.69,-221.46l-139.26 -305.79c-18.77,-40.96 -56.93,-113.94 -67.08,-153.18 78.32,-55.86 225.95,-95.95 219.42,-296.89 -4.41,-135.71 -66.32,-221.91 -189.08,-290.07 -1.47,-0.81 -3.46,-1.81 -4.9,-2.67l-18.58 -13.09c-51.76,-3.82 -100.24,-22.95 -167.13,-23.72 -70.16,-0.79 -105.96,14.2 -164.39,26.2z"/>
  <path class="fil2" d="M13759.94 4438.89l18.58 13.09c1.45,0.86 3.43,1.85 4.9,2.67 122.76,68.16 184.67,154.36 189.08,290.07 6.53,200.94 -141.1,241.03 -219.42,296.89 10.16,39.24 48.32,112.23 67.08,153.18l139.26 305.79c98.57,209.52 117.77,224.13 -97.69,221.46l-498.44 0.94c-80.61,0.37 -169.81,14.44 -206.46,-35.31 -8.81,-76.1 244.07,-538.82 277.99,-661.44 -108.62,-27.78 -209.68,-155.8 -215.08,-281.01 -8.96,-207.43 140.39,-249.72 191.33,-296.83l17.33 -7.02 -17.33 7.02c-188.71,11.59 -476.76,288.96 -232.3,542.7 80.75,83.81 110.51,84.37 205.39,124.95 -76.63,125.37 -216.67,401.93 -296.2,546.66 -25.32,46.1 -49.61,89.51 -74.3,135.79 -38.01,71.25 4.61,97.28 88.18,100.16 261.07,8.99 668.65,-2.33 957.75,0.51 77.17,0.76 153.23,-6.66 130.34,-82.73 -8.57,-28.5 -59.5,-111.43 -76.69,-140.71 -50.93,-86.8 -102.06,-181.29 -149.56,-270.79 -29.38,-55.35 -137.16,-241.31 -150.14,-279.89 159.84,-47.8 329.12,-164.83 299.5,-359.67 -27.29,-179.58 -157.79,-286.41 -353.13,-326.48z"/>
  <path class="fil6" d="M13411.08 4448.38l17.33 -7.02c58.43,-12 94.23,-26.98 164.39,-26.2 66.89,0.77 115.37,19.9 167.13,23.72 195.33,40.07 325.83,146.9 353.13,326.48 29.62,194.84 -139.66,311.87 -299.5,359.67 12.98,38.58 120.75,224.54 150.14,279.89 47.5,89.5 98.63,183.99 149.56,270.79 17.19,29.29 68.12,112.21 76.69,140.71 22.88,76.07 -53.18,83.49 -130.34,82.73 -289.1,-2.84 -696.68,8.48 -957.75,-0.51 -83.57,-2.88 -126.19,-28.91 -88.18,-100.16 24.69,-46.28 48.98,-89.7 74.3,-135.79 79.53,-144.73 219.56,-421.29 296.2,-546.66 -94.88,-40.58 -124.64,-41.14 -205.39,-124.95 -244.45,-253.74 43.6,-531.11 232.3,-542.7zm2787.55 -1288.31c-27.61,210.27 -193.1,312.07 -377.3,389.69 -819.42,345.29 -2837.49,315.96 -3722.36,165.28 -214.35,-36.49 -461.45,-91.55 -633.41,-170.9 -100.1,-46.2 -179.04,-92.51 -238.44,-150.89 -49.05,-48.22 -90.92,-94.46 -112.49,-163.09 -6.87,-21.84 -7.73,-50.26 -23.77,-68.45 -15.75,26.69 -14.17,680.38 -14.4,699.85 -2.58,235.06 -5.38,470.17 -8.02,705.39 -5.24,468.09 -10.67,936.11 -15.97,1404.18 -1.95,172.79 -37.6,154.69 108,266.42 57.29,43.96 174.6,101.55 264.55,135.68 198.66,75.38 415.78,129.57 647.17,172.19 984.82,181.37 2106.61,176.43 3091.72,-3.99 216.64,-39.67 464.72,-95.19 650.97,-168.98 102.38,-40.56 191.89,-80.29 269.51,-131.54 157.69,-104.12 121.64,-111.05 121.64,-250 0,-472.46 0,-944.92 0,-1417.37 0,-20.52 11.56,-1380.56 -7.4,-1413.47z"/>
  <polygon class="fil7 str1" points="12828.74,3135.48 13544.18,3594.13 14231.26,3160.12 13984.29,3875.19 14701.62,4331.51 13833.55,4314.81 13589.79,5030.86 13300.27,4305.45 12432.3,4291.67 13121.42,3860.05 "/>
  <polygon class="fil8 str2" points="13556.74,2555.69 13663.08,3857.7 15066.57,3546.73 13728.8,4040.44 14489.87,5150.25 13556.74,4153.37 12623.59,5150.25 13384.66,4040.42 12046.9,3546.73 13450.4,3857.7 "/>
  <polygon class="fil9" points="1734.91,6341.45 1936.67,6341.31 1936.86,5604.62 1731.06,5604.55 "/>
  <polygon class="fil9" points="5892.84,6356.53 6097.85,6354.73 6095.77,5653.99 5892.28,5653.76 "/>
  <path class="fil9" d="M3459.53 3379.46c-48.16,-28.56 -131.09,-81.47 -157.58,-118.93 56.46,-77.04 149.94,-137.03 266.83,-185.84 246.53,-102.96 563.54,-81.03 801.63,26.56 87.94,39.74 233.5,116.83 262.87,199.69 -83.28,21.38 -95.34,63.91 -147.28,96.9l-152 -101.05c-102.07,-60.4 -198.02,-103.46 -344.36,-102.62 -113.38,0.65 -226.24,8.65 -322.11,41.95 -100.57,34.92 -132.69,72.43 -183.73,123.72l-24.26 19.61z"/>
  <path class="fil9" d="M3225.32 2122.29c-311.44,61.65 -168.58,434.42 132.51,364.47 105.67,-24.57 195.11,-122.86 161.65,-241.81 -26.08,-92.7 -153.42,-150.51 -294.16,-122.66z"/>
  <path class="fil9" d="M4459.38 2122.21c-312.88,61.3 -167.09,434.3 132.56,364.46 102.89,-23.99 194.3,-124.45 161.15,-241.57 -26.14,-92.32 -152.24,-150.61 -293.71,-122.89z"/>
  <path class="fil9" d="M2795.76 387.86c-285.42,35.21 -215.93,371.52 79.99,327.03 263.5,-39.62 212.18,-363.08 -79.99,-327.03z"/>
  <path class="fil9" d="M5440.52 2235.89c45.87,8.89 255.02,55.83 282.21,77 74.16,57.7 2.43,177.15 -23.3,244.72 -30.54,80.22 -18.03,183.27 -74.7,247.46 -80.55,91.26 -161.26,52.83 -305.66,62.67 -28.98,42.99 -58.4,221.6 -257.84,410.47 -98.66,93.46 -96.19,99.42 -232.75,188.38 -230.65,150.29 -509.62,261.62 -901.89,255.45 -182.47,-2.88 -363.38,-15.32 -527.03,-60.21 -77.65,-21.29 -143.74,-46.72 -207.62,-77.5 -73.67,-35.52 -122.1,-70.36 -176.98,-109.57 -156.12,-111.54 -361.48,-332.37 -439.34,-510.73 -13.15,-30.11 -22.19,-73.56 -41.51,-97.55 -239.07,-7.84 -296.93,-0.9 -357.61,-183.2 -47.32,-142.19 -117.87,-240.72 -65.65,-399.95 70.51,-11.43 206.09,-12.63 262.4,-36.29 8.86,-88.95 -36.1,-181.46 -43.39,-270.42 -5.17,-63.02 38.11,-194.44 55.72,-262.46 24.61,-95.02 80.44,-125.33 179.59,-159.84 106.23,-36.97 198.64,-65.03 294.15,-6.69 265.32,162.09 577.82,379.52 1051.44,373.59 311.75,-3.89 593.88,-105.55 837.28,-235.67 82.79,-44.26 137.63,-87.98 217.3,-135.43 85.75,-51.08 146.39,-46.83 264.37,19.86 399.27,225.65 250.38,417.31 210.8,665.92zm-2159.23 -1995.19c9.49,38.82 45.93,147.05 67.74,171.46 484.23,-155.82 1210.4,-72.15 1577.13,237.36 100.26,84.61 60.3,15.14 232.74,188.28 32.45,32.57 63.74,72.74 94.89,112.09 99.39,125.53 232.5,371.71 246.31,559.46 -109.7,-47.11 -220.94,-131.13 -361.66,-173.3 -130.75,-39.19 -199.01,-0.83 -300.51,68.43 -30.91,21.08 -48.53,30.3 -79.18,52.49 -72.11,52.21 -242.88,140.54 -351.41,181.85 -445.69,169.66 -819.04,118.69 -1203.85,-107.63l-252.61 -152.28c-77.53,-42.92 -99.3,-60.96 -217.58,-52.31 -83.47,6.11 -153.13,22.23 -223.96,49.19 -51.34,19.55 -154.64,73.16 -195.31,81.89 11.71,-289.81 266.94,-502.87 284.48,-570.58 -42.05,-30.98 -102.52,-80.13 -187.93,-93.66l-175.85 248.01c-142.94,229.09 -146.06,426.46 -147.19,684.79 -0.59,137.58 36.41,241.46 40.63,367.16 -132.63,23.36 -186.26,55.33 -223.12,156.95 -37.42,103.18 -24.21,207.12 2.56,307.9 54.82,206.36 107.24,366.23 288.81,444.87 130.29,56.41 180.98,21.2 247.89,136.3 62.9,108.18 86.47,167.88 194.55,266.32 110.96,101.07 111.58,111.85 250.09,220.13 51.24,40.06 96.55,50.07 123.93,66.79 0.83,98.28 3.03,196.51 2.88,294.81 -0.17,104.28 26.56,202.12 -103.6,214.03 -220.17,20.17 -415.4,53.3 -629.15,84.3 -329.65,47.81 -905.71,116.93 -1191.12,220.5 -272.21,98.8 -446.59,230.51 -566.61,431.3 -179.27,299.96 -124.19,421.71 -124.19,803.45 0,95.72 -6.38,547.38 2.12,602.11 39.55,3.97 96.79,3.72 137.45,2.94 59.88,-1.15 77.32,-5.39 87.01,-50.72 9.02,-42.26 -0.27,-649.27 -0.27,-725.73 0,-374.8 17.68,-568.55 281.22,-754.74 123.79,-87.46 212.6,-128.34 374.66,-175.42 285.87,-83.02 679.17,-120.06 985.1,-167.36 157.73,-24.38 355.26,-65.1 518.26,-63.28 2.72,133.72 46.42,248.74 117.04,345.16 212.75,290.54 619.5,473.55 1036.4,476.57 58.37,-351.85 -60.52,-55.14 -574.25,-327.77 -150.12,-79.67 -387.06,-286.42 -371.9,-526.41 91.03,-59.17 210.48,-53.51 227.72,-191.4 14.12,-112.82 -2.32,-271.73 -3.08,-390.23 48.5,12.37 102.93,37.4 155.22,53.39 54.08,16.52 108.46,29.12 166.08,39.31 128.15,22.66 259.16,31.22 394.77,26.72 596.06,-19.82 1189.09,-295.72 1467.07,-734.52 24.5,-38.68 41.04,-92.67 62.5,-125.18 388.6,-8.47 385.63,-260.83 440.97,-431.22 26.41,-81.24 109.4,-165.8 50.26,-319.74 -59.01,-153.6 -198.19,-168.37 -247.32,-194.93 -24.86,-344.92 106.51,-480.11 -77.86,-918.55 -136.76,-325.26 -318.94,-538.15 -644.97,-734.97 -58.42,-35.25 -118.15,-70.06 -185.83,-102.23 -130.16,-61.87 -273.2,-116.89 -432.98,-153.23 -235.41,-53.54 -593.17,-52.66 -844.36,-16.41 -98.19,14.19 -161.89,40.85 -240.84,57.49z"/>
  <path class="fil9" d="M4797.46 3652.2c-0.83,98.28 -2.82,227.86 -2.67,326.16 0.15,104.29 -26.56,202.12 103.6,214.04 220.17,20.17 415.4,53.3 629.15,84.3 329.65,47.81 905.71,116.93 1191.12,220.49 272.21,98.8 446.57,230.51 566.62,431.32 179.25,299.96 124.16,421.7 124.16,803.43 0,95.74 6.39,547.38 -2.11,602.11 -39.55,3.99 -96.79,3.74 -137.44,2.94 -59.88,-1.15 -77.35,-5.39 -87.03,-50.71 -9.03,-42.28 0.27,-649.27 0.27,-725.75 0,-374.78 -17.67,-568.55 -281.21,-754.72 -123.8,-87.46 -212.61,-128.35 -374.69,-175.42 -285.86,-83.02 -679.16,-120.06 -985.1,-167.37 -157.71,-24.37 -355.25,-65.09 -518.25,-63.26 -2.72,133.72 -46.42,248.74 -117.03,345.16 -212.78,290.54 -619.52,473.54 -1036.41,476.56 -58.37,-351.85 60.51,-55.14 574.25,-327.76 150.12,-79.67 387.07,-286.44 371.9,-526.41 -91.03,-59.17 -210.48,-53.51 -227.72,-191.42 -14.12,-112.82 2.32,-271.72 3.08,-390.22 0,-29.29 0.06,-29.14 0.2,-39.58 0.04,-3.27 0.41,-3.51 5.07,-5.08 21.41,-7.3 158.75,-75.38 195.01,-89.2 2.72,-1.03 4.1,-3.44 5.21,0.38z"/>
  <path class="fil10" d="M8831.03 669.87c-965.69,341.42 -1250.33,737.12 -1295.43,1467.39 25.89,687.65 431.35,1074.19 1116.2,1342.19l248.47 2807.51c400.7,-56.66 690.59,-182.01 758.6,-444.79l40.16 -329.7 252.22 -612.58 -350.33 -535.76 420.8 -537.01 -144.76 -527.69c758.49,-390.16 1018.36,-960.82 809.35,-1701.24 -307.43,-690.76 -910.18,-1035.43 -1855.28,-928.33z"/>
  <path class="fil9 str3" d="M8630.23 1310.57c133.36,-189.46 400.99,-225.51 576.47,-140.39 226.73,109.98 253.6,348.27 139.17,507.83 -300.72,419.34 -1029.49,78.39 -715.63,-367.44zm-56.35 -49.06c-152.35,192.33 -125.96,465.79 118.87,607.3 211.61,122.3 540.85,76 707.95,-140.56 145.81,-188.93 117.96,-474.48 -134.52,-607.55 -212.74,-112.11 -524.09,-71.55 -692.3,140.81z"/>
  <path class="fil9" d="M7565.73 1581.37c-188.45,256.24 264.86,504.83 453.68,223.58 66.69,-99.32 51.51,-243.98 -86.73,-311.14 -113.56,-55.19 -281.06,-29.23 -366.95,87.56z"/>
  <path class="fil9" d="M7474.11 2180.05c-9.64,40.62 -5.48,99.04 -5.79,139.85 -2.56,333.25 245.34,697.18 519.86,929.14 100.92,85.29 211.73,166.19 333.74,220.36 212.27,94.23 257.98,61.14 264.5,160.46 13.55,206.43 32.77,342.45 40.41,552.36l47.91 557.83c9.99,116.33 130.96,1616.33 146.23,1654.1 95.89,-25.35 166.3,-36.29 263.6,-52.36 295.14,-48.77 600.46,-232.15 700.2,-482.5 60.99,-153.07 -46.29,-301.68 21.62,-465.07l246.95 -483.58c-4.85,-14.33 7.43,7.85 -9.38,-19.31 -8.85,-14.3 0.62,-0.38 -13.15,-17.68 -103.32,-129.92 -244.14,-366.54 -344.36,-516.42 136.08,-141.23 370.2,-354.16 394.45,-518.75 11.17,-75.73 -14.05,-157.71 -30.7,-238.53 -16.28,-79.01 -19.92,-181.02 -42.63,-229.2 265.58,-157.83 378.13,-217.93 580.92,-497.56 131.75,-181.64 230.31,-416.09 245.32,-589.57 17.21,-198.8 16.08,-369.91 -54.54,-563.53 -68.74,-188.44 -149.4,-356.83 -317.6,-540.4 -177.9,-194.14 -395.33,-334.12 -645.39,-425.42 -245.86,-89.75 -447.91,-103.07 -655.97,-103.52l-320.54 34.68c-278.85,52.18 -567.37,187.9 -780.69,370.16 -24.88,21.25 -128.58,107.79 -133.63,136.75l38.49 -21.52c79.26,65.41 78.36,104.3 178.89,142.12 197.75,-135.27 246.25,-262.05 553.97,-383.03 174.35,-68.53 394.01,-108.46 576.27,-102.23 130.06,4.45 450.76,40.11 593.03,113.78 391.61,202.78 704.31,525 779.55,926.24 27.07,144.32 52.4,368.49 6.48,512.39 -132.72,415.74 -442.53,720.8 -885.63,901.05 -4.64,34.57 8.47,94.39 16.81,132.18l76.65 400.78c2.75,47.8 -40.69,81.37 -91.76,143.98l-359.77 445.48c107.07,136.33 214.91,322.34 320.22,472.08 56.91,80.95 47.66,41.65 -35.38,250.77l-153.49 390.15c-30.13,74.18 -30.44,59.75 -10.89,124.47 7.26,24.07 25.48,232.84 16.04,252.08 -87.63,178.51 -400.99,308.35 -536.76,307.86 -13.99,-30.4 -8.67,-47.21 -9.82,-87.34 -5.93,-209.52 -28.48,-402.69 -34.89,-620.74 -1.81,-61.82 3.22,-116.61 -9.49,-178.28l-54.02 -884.65c-7.91,-51.51 -4.76,-123.27 -6.39,-178.56 -1.83,-62.42 -2.94,-116.51 -5.27,-178.77l-27.29 -355.64c-2.96,-121.65 -5.07,-236.35 -14.82,-355.15 -67.12,-32.28 -166.16,-22.63 -226.9,-33.58 -32.25,-5.83 -185.25,-70.78 -225.13,-87.63 -360.39,-152.27 -560.03,-452.41 -637.95,-779.23 -8.39,-35.18 -10.06,-64.44 -18.79,-97.04 -16.78,-62.7 -11.84,-138 -28.29,-192.78 -37.57,5.94 -69.44,6.17 -115.64,12.35 -39.79,5.31 -75.43,19.54 -119.36,-3.89z"/>
  <polygon class="fil11 str2" points="4551.21,5020.03 7904.22,3770.23 6342.98,5217.18 14455.91,695.59 10197.36,2554.9 12030.52,1156.02 "/>
 </g>
</svg>
