<?xml version="1.0" encoding="UTF-8"?>
<!DOCTYPE svg PUBLIC "-//W3C//DTD SVG 1.1//EN" "http://www.w3.org/Graphics/SVG/1.1/DTD/svg11.dtd">
<!-- Creator: CorelDRAW 2021 (64 Bit) -->
<svg xmlns="http://www.w3.org/2000/svg" xml:space="preserve" width="530px" height="530px" version="1.1" style="shape-rendering:geometricPrecision; text-rendering:geometricPrecision; image-rendering:optimizeQuality; fill-rule:evenodd; clip-rule:evenodd"
viewBox="0 0 4.99 4.99"
 xmlns:xlink="http://www.w3.org/1999/xlink"
 xmlns:xodm="http://www.corel.com/coreldraw/odm/2003">
 <defs>
  <style type="text/css">
   <![CDATA[
    .str0 {stroke:#B8B4B6;stroke-width:0.28;stroke-miterlimit:22.9256}
    .fil1 {fill:black}
    .fil0 {fill:white}
   ]]>
  </style>
 </defs>
 <g id="Camada_x0020_1">
  <metadata id="CorelCorpID_0Corel-Layer"/>
  <path class="fil0 str0" d="M0.35 0.14l4.29 0c0.12,0 0.21,0.11 0.21,0.24l0 4.23c0,0.13 -0.09,0.24 -0.21,0.24l-4.29 0c-0.11,0 -0.2,-0.11 -0.2,-0.24 0,-0.51 -0.01,-4.1 -0.01,-4.28 0,-0.11 0.13,-0.19 0.21,-0.19z"/>
  <path class="fil1" d="M3.94 3.55l0.03 -0.01c0.05,-0.02 0.06,-0.07 0.05,-0.11 0.02,-0.03 0.09,-0.07 0.08,-0.13 0,-0.04 -0.04,-0.13 -0.05,-0.18 0.02,-0.01 0.05,-0.02 0.07,-0.03 0.08,-0.04 0.16,-0.11 0.14,-0.22 -0.02,-0.08 -0.1,-0.25 -0.14,-0.32 -0.06,-0.11 -0.11,-0.21 -0.17,-0.31 -0.05,-0.09 -0.03,-0.07 -0.02,-0.19 0.04,-0.37 -0.01,-0.53 -0.2,-0.82 -0.13,-0.19 -0.36,-0.39 -0.57,-0.49 -0.49,-0.23 -1.07,-0.21 -1.54,0.03 -0.33,0.18 -0.72,0.61 -0.72,1.17 0,0.25 0.1,0.54 0.2,0.73l0.34 0.61c0.15,0.29 0.12,0.36 -0.08,0.66 -0.05,0.07 -0.11,0.14 -0.15,0.2 -0.01,0.02 -0.04,0.05 -0.05,0.07 -0.04,0.03 -0.1,0.09 -0.1,0.13 0,0.04 0.02,0.07 0.04,0.08 0.04,0.02 0.94,0.01 1.05,0.01l0.71 0c0.23,0 -0.06,-0.07 0.45,-0.25 0.14,-0.05 0.24,-0.06 0.38,-0.1 0.34,-0.07 0.43,-0.27 0.25,-0.53l0 0z"/>
 </g>
</svg>
