<?xml version="1.0" encoding="UTF-8"?>
<!DOCTYPE svg PUBLIC "-//W3C//DTD SVG 1.1//EN" "http://www.w3.org/Graphics/SVG/1.1/DTD/svg11.dtd">
<!-- Creator: CorelDRAW 2021 (64 Bit) -->
<svg xmlns="http://www.w3.org/2000/svg" xml:space="preserve" width="530px" height="530px" version="1.1" style="shape-rendering:geometricPrecision; text-rendering:geometricPrecision; image-rendering:optimizeQuality; fill-rule:evenodd; clip-rule:evenodd"
viewBox="0 0 4.99 4.99"
 xmlns:xlink="http://www.w3.org/1999/xlink"
 xmlns:xodm="http://www.corel.com/coreldraw/odm/2003">
 <defs>
  <style type="text/css">
   <![CDATA[
    .str2 {stroke:black;stroke-width:0.09;stroke-miterlimit:22.9256}
    .str0 {stroke:#B8B4B6;stroke-width:0.28;stroke-miterlimit:22.9256}
    .str1 {stroke:black;stroke-width:0.15;stroke-miterlimit:22.9256}
    .str4 {stroke:whitesmoke;stroke-width:0.01;stroke-miterlimit:22.9256}
    .str3 {stroke:#FF0505;stroke-width:0.01;stroke-miterlimit:22.9256}
    .str5 {stroke:yellow;stroke-width:0.01;stroke-miterlimit:22.9256}
    .fil2 {fill:none}
    .fil3 {fill:#003399}
    .fil4 {fill:#33CC66}
    .fil1 {fill:#E6E6E6}
    .fil0 {fill:white}
   ]]>
  </style>
 </defs>
 <g id="Camada_x0020_1">
  <metadata id="CorelCorpID_0Corel-Layer"/>
  <path class="fil0 str0" d="M0.35 0.14l4.29 0c0.11,0 0.21,0.11 0.21,0.24l0 4.23c0,0.13 -0.1,0.24 -0.21,0.24l-4.29 0c-0.11,0 -0.2,-0.11 -0.2,-0.24 0,-0.51 -0.01,-4.1 -0.01,-4.28 0,-0.11 0.13,-0.19 0.21,-0.19z"/>
  <g id="_2069821617792">
   <polygon class="fil1" points="1.32,2.51 0.71,3.4 0.91,3.52 1.5,2.61 "/>
   <ellipse class="fil2 str1" cx="2.46" cy="0.92" rx="0.52" ry="0.48"/>
   <ellipse class="fil2 str1" cx="1.89" cy="1.3" rx="0.52" ry="0.48"/>
   <ellipse class="fil2 str1" cx="3.02" cy="1.3" rx="0.52" ry="0.48"/>
   <ellipse class="fil2 str1" cx="2.8" cy="1.91" rx="0.52" ry="0.48"/>
   <ellipse class="fil2 str1" cx="2.1" cy="1.91" rx="0.52" ry="0.48"/>
   <rect class="fil2 str2" transform="matrix(0.60776 0.451517 -0.535132 0.600076 1.39149 3.33858)" width="0.38" height="0.69" rx="0.19" ry="0.19"/>
   <rect class="fil2 str2" transform="matrix(0.766251 0.569263 -0.674683 0.756563 1.71567 3.40537)" width="0.38" height="0.69" rx="0.19" ry="0.19"/>
   <rect class="fil2 str2" transform="matrix(0.60776 0.451517 -0.535132 0.600076 1.97006 3.67379)" width="0.38" height="0.69" rx="0.19" ry="0.19"/>
   <rect class="fil2 str2" transform="matrix(0.564468 0.419354 -0.497014 0.557332 2.21323 3.83459)" width="0.38" height="0.69" rx="0.19" ry="0.19"/>
   <polygon class="fil3 str3" points="4.56,3.33 4.46,3.4 3.66,2.25 4.56,1.63 "/>
   <polygon class="fil1 str4" points="4.15,3.42 3.53,2.49 3.73,2.37 4.37,3.29 "/>
   <polygon class="fil4 str5" points="0.46,3.44 0.58,3.52 1.36,2.37 0.45,1.75 "/>
   <path class="fil2 str2" d="M4.56 1.65l-0.91 0.63 0.8 1.15 0.11 -0.07m-4.09 0.09l0.12 0.08 0.79 -1.15 -0.91 -0.63m0.5 1.71l0.22 0.13m0.34 -0.98l1 0m1.56 0.76l-0.34 0.22m-0.35 0.17l0.06 0.04c0.25,0.14 0.44,-0.09 0.25,-0.24l-0.88 -0.67c-0.13,0.05 -0.26,0.09 -0.38,0.13 -0.27,0.03 -0.45,-0.16 -0.27,-0.24l0.36 -0.17 0.07 -0.03c0.04,-0.02 0.08,-0.03 0.12,-0.01l0.5 0.12 0.33 -0.11m-0.71 1.63l0.12 0.08c0.21,0.1 0.38,-0.11 0.21,-0.27l-0.54 -0.35m-0.39 0.55l0.38 0.26c0.19,0.08 0.34,-0.09 0.24,-0.24 0,-0.01 -0.01,-0.02 -0.02,-0.03 -0.03,-0.02 -0.37,-0.24 -0.38,-0.25m0.71 0.06l0.07 0.05c0.22,0.09 0.38,-0.11 0.21,-0.27l-0.67 -0.44m0.94 -0.97l-0.22 0.12 0.64 0.94 0.22 -0.13m-3.06 -0.83l-0.63 0.92 0.23 0.13 0.61 -0.93 -0.21 -0.12z"/>
  </g>
 </g>
</svg>
