<?xml version="1.0" encoding="UTF-8"?>
<!DOCTYPE svg PUBLIC "-//W3C//DTD SVG 1.1//EN" "http://www.w3.org/Graphics/SVG/1.1/DTD/svg11.dtd">
<!-- Creator: CorelDRAW 2021 (64 Bit) -->
<svg xmlns="http://www.w3.org/2000/svg" xml:space="preserve" width="530px" height="530px" version="1.1" style="shape-rendering:geometricPrecision; text-rendering:geometricPrecision; image-rendering:optimizeQuality; fill-rule:evenodd; clip-rule:evenodd"
viewBox="0 0 4.99 4.99"
 xmlns:xlink="http://www.w3.org/1999/xlink"
 xmlns:xodm="http://www.corel.com/coreldraw/odm/2003">
 <defs>
  <style type="text/css">
   <![CDATA[
    .str1 {stroke:black;stroke-width:0.09;stroke-miterlimit:22.9256}
    .str0 {stroke:#B8B4B6;stroke-width:0.28;stroke-miterlimit:22.9256}
    .str4 {stroke:black;stroke-width:0.04;stroke-miterlimit:22.9256}
    .str2 {stroke:black;stroke-width:0.06;stroke-miterlimit:22.9256}
    .str3 {stroke:black;stroke-width:0.11;stroke-miterlimit:22.9256}
    .fil1 {fill:none}
    .fil6 {fill:#00CCFF}
    .fil4 {fill:lime}
    .fil8 {fill:aqua}
    .fil7 {fill:#99FFFF}
    .fil3 {fill:red}
    .fil5 {fill:fuchsia}
    .fil2 {fill:#FF6600}
    .fil0 {fill:white}
   ]]>
  </style>
 </defs>
 <g id="Camada_x0020_1">
  <metadata id="CorelCorpID_0Corel-Layer"/>
  <g id="_2069677766672">
   <path class="fil0 str0" d="M0.35 0.14l4.3 0c0.11,0 0.2,0.11 0.2,0.24l0 4.24c0,0.13 -0.09,0.23 -0.2,0.23l-4.3 0c-0.11,0 -0.2,-0.1 -0.2,-0.23 0,-0.51 -0.01,-4.11 -0.01,-4.29 0,-0.11 0.13,-0.19 0.21,-0.19z"/>
   <g>
    <line class="fil1 str1" x1="1.35" y1="1.83" x2="3.63" y2= "1.86" />
    <rect class="fil1 str1" x="1.42" y="2.56" width="0.71" height="0.72"/>
    <line class="fil1 str2" x1="3.93" y1="2.06" x2="3.92" y2= "3.89" />
    <line class="fil1 str2" x1="1.07" y1="2.03" x2="1.06" y2= "3.87" />
    <line class="fil1 str2" x1="2.5" y1="1.75" x2="2.49" y2= "4.1" />
    <line class="fil1 str1" x1="1.78" y1="1.84" x2="1.77" y2= "2.56" />
    <line class="fil1 str2" x1="1.77" y1="3.3" x2="1.78" y2= "3.7" />
    <rect class="fil1 str3" x="0.77" y="1.65" width="0.59" height="0.39"/>
    <rect class="fil1 str3" x="3.63" y="1.67" width="0.59" height="0.39"/>
    <ellipse class="fil1 str4" transform="matrix(0.4839 0.204633 -0.199377 0.472469 1.72773 1.01644)" rx="0.45" ry="0.46"/>
    <path class="fil1 str1" d="M1.95 0.92l0.07 -0.34c-0.03,-0.04 -0.07,-0.06 -0.13,-0.06l-0.21 0.29"/>
    <path class="fil1 str1" d="M1.55 1.12l-0.08 0.34c0.03,0.04 0.07,0.06 0.13,0.06l0.21 -0.29"/>
    <path class="fil1 str1" d="M1.82 0.81l-0.19 -0.3c-0.05,0 -0.1,0.01 -0.13,0.06l0.05 0.35"/>
    <path class="fil1 str1" d="M1.67 1.23l0.19 0.3c0.05,0.01 0.1,-0.01 0.13,-0.05l-0.05 -0.35"/>
    <path class="fil1 str1" d="M1.52 0.95l-0.29 0.19c-0.01,0.05 0.01,0.1 0.05,0.14l0.36 -0.06"/>
    <path class="fil1 str1" d="M1.95 1.1l0.29 -0.19c0.01,-0.05 -0.01,-0.1 -0.05,-0.13l-0.35 0.05"/>
    <path class="fil1 str1" d="M1.63 0.83l-0.34 -0.08c-0.04,0.03 -0.06,0.08 -0.06,0.13l0.29 0.21"/>
    <path class="fil1 str1" d="M1.83 1.23l0.34 0.07c0.04,-0.03 0.06,-0.07 0.06,-0.13l-0.29 -0.21"/>
    <line class="fil1 str1" x1="2.13" y1="2.95" x2="2.83" y2= "2.95" />
    <rect class="fil1 str1" x="2.83" y="2.56" width="0.71" height="0.72"/>
    <line class="fil1 str1" x1="3.54" y1="2.95" x2="3.93" y2= "2.95" />
    <line class="fil1 str1" x1="3.19" y1="2.58" x2="3.18" y2= "1.85" />
    <line class="fil1 str2" x1="3.22" y1="3.26" x2="3.22" y2= "3.69" />
    <circle class="fil1 str2" cx="3.2" cy="4.07" r="0.17"/>
    <path class="fil1 str2" d="M3.32 3.95l-0.04 -0.25c-0.04,-0.02 -0.07,-0.02 -0.11,0l-0.05 0.25"/>
    <path class="fil1 str2" d="M3.11 4.19l0.05 0.25c0.03,0.02 0.06,0.02 0.1,0l0.06 -0.25"/>
    <path class="fil1 str2" d="M3.2 3.91l-0.2 -0.14c-0.04,0 -0.06,0.03 -0.08,0.07l0.14 0.21"/>
    <path class="fil1 str2" d="M3.23 4.23l0.21 0.14c0.03,-0.01 0.06,-0.03 0.07,-0.07l-0.14 -0.22"/>
    <path class="fil1 str2" d="M3.05 4.09l-0.14 0.2c0.01,0.04 0.03,0.06 0.07,0.08l0.22 -0.14"/>
    <path class="fil1 str2" d="M3.37 4.06l0.14 -0.21c0,-0.03 -0.03,-0.06 -0.07,-0.07l-0.22 0.14"/>
    <path class="fil1 str2" d="M3.08 3.97l-0.24 0.05c-0.02,0.03 -0.02,0.06 0,0.1l0.25 0.06"/>
    <path class="fil1 str2" d="M3.33 4.18l0.25 -0.04c0.02,-0.03 0.02,-0.07 0,-0.1l-0.25 -0.06"/>
    <rect class="fil1 str2" x="3.71" y="3.89" width="0.42" height="0.39"/>
    <line class="fil1 str2" x1="3.6" y1="4.09" x2="3.71" y2= "4.09" />
    <rect class="fil1 str2" x="0.85" y="3.87" width="0.42" height="0.39"/>
    <line class="fil1 str2" x1="1.27" y1="4.09" x2="1.38" y2= "4.08" />
    <circle class="fil1 str2" cx="1.76" cy="4.08" r="0.17"/>
    <path class="fil1 str2" d="M1.88 3.96l-0.05 -0.25c-0.03,-0.02 -0.06,-0.02 -0.1,0l-0.06 0.25"/>
    <path class="fil1 str2" d="M1.67 4.21l0.04 0.24c0.04,0.02 0.07,0.02 0.11,0l0.05 -0.25"/>
    <path class="fil1 str2" d="M1.76 3.92l-0.21 -0.14c-0.03,0.01 -0.06,0.03 -0.07,0.07l0.14 0.22"/>
    <path class="fil1 str2" d="M1.79 4.24l0.2 0.15c0.04,-0.01 0.06,-0.04 0.08,-0.07l-0.14 -0.22"/>
    <path class="fil1 str2" d="M1.61 4.1l-0.15 0.21c0.01,0.03 0.04,0.06 0.08,0.07l0.22 -0.13"/>
    <path class="fil1 str2" d="M1.93 4.08l0.14 -0.21c-0.01,-0.04 -0.03,-0.06 -0.07,-0.07l-0.22 0.13"/>
    <path class="fil1 str2" d="M1.64 3.99l-0.25 0.04c-0.01,0.03 -0.01,0.07 0,0.1l0.25 0.06"/>
    <path class="fil1 str2" d="M1.89 4.2l0.24 -0.05c0.02,-0.03 0.02,-0.06 0,-0.1l-0.24 -0.06"/>
    <line class="fil1 str1" x1="1.07" y1="2.95" x2="1.42" y2= "2.95" />
    <line class="fil1 str2" x1="2.14" y1="4.1" x2="2.84" y2= "4.1" />
    <ellipse class="fil1 str4" transform="matrix(0.4839 0.204633 -0.199377 0.472469 3.28371 1.0612)" rx="0.45" ry="0.46"/>
    <path class="fil1 str1" d="M3.5 0.97l0.08 -0.35c-0.03,-0.04 -0.08,-0.06 -0.13,-0.05l-0.21 0.29"/>
    <path class="fil1 str1" d="M3.1 1.17l-0.07 0.34c0.03,0.04 0.07,0.06 0.13,0.05l0.21 -0.28"/>
    <path class="fil1 str1" d="M3.37 0.85l-0.19 -0.29c-0.05,-0.01 -0.09,0.01 -0.13,0.05l0.06 0.35"/>
    <path class="fil1 str1" d="M3.23 1.28l0.19 0.3c0.05,0 0.09,-0.02 0.13,-0.06l-0.05 -0.35"/>
    <path class="fil1 str1" d="M3.08 1l-0.3 0.19c0,0.05 0.02,0.09 0.06,0.13l0.35 -0.05"/>
    <path class="fil1 str1" d="M3.5 1.14l0.3 -0.19c0.01,-0.05 -0.01,-0.09 -0.05,-0.13l-0.36 0.06"/>
    <path class="fil1 str1" d="M3.18 0.87l-0.34 -0.07c-0.04,0.03 -0.06,0.07 -0.05,0.13l0.28 0.21"/>
    <path class="fil1 str1" d="M3.38 1.27l0.35 0.08c0.04,-0.03 0.06,-0.08 0.05,-0.13l-0.29 -0.21"/>
    <circle class="fil1 str2" cx="2.49" cy="1.37" r="0.17"/>
    <path class="fil1 str2" d="M2.61 1.24l-0.05 -0.25c-0.03,-0.01 -0.07,-0.01 -0.1,0l-0.06 0.25"/>
    <path class="fil1 str2" d="M2.4 1.49l0.04 0.25c0.03,0.01 0.07,0.01 0.1,0l0.06 -0.25"/>
    <path class="fil1 str2" d="M2.49 1.2l-0.21 -0.14c-0.03,0.01 -0.06,0.03 -0.07,0.07l0.13 0.22"/>
    <path class="fil1 str2" d="M2.51 1.53l0.21 0.14c0.04,-0.01 0.06,-0.03 0.07,-0.07l-0.13 -0.22"/>
    <path class="fil1 str2" d="M2.33 1.38l-0.14 0.21c0.01,0.04 0.04,0.06 0.08,0.07l0.21 -0.13"/>
    <path class="fil1 str2" d="M2.66 1.36l0.14 -0.21c-0.01,-0.03 -0.04,-0.06 -0.07,-0.07l-0.22 0.13"/>
    <path class="fil1 str2" d="M2.37 1.27l-0.25 0.04c-0.02,0.04 -0.02,0.07 0,0.11l0.25 0.05"/>
    <path class="fil1 str2" d="M2.61 1.48l0.25 -0.05c0.02,-0.03 0.02,-0.06 0,-0.1l-0.25 -0.06"/>
    <line class="fil1 str1" x1="1.35" y1="1.83" x2="3.63" y2= "1.86" />
    <rect class="fil2 str1" x="1.42" y="2.56" width="0.71" height="0.72"/>
    <line class="fil1 str2" x1="3.93" y1="2.06" x2="3.92" y2= "3.89" />
    <line class="fil1 str2" x1="1.07" y1="2.03" x2="1.06" y2= "3.87" />
    <line class="fil1 str2" x1="2.5" y1="1.75" x2="2.49" y2= "4.1" />
    <line class="fil1 str1" x1="1.78" y1="1.84" x2="1.77" y2= "2.56" />
    <line class="fil1 str2" x1="1.77" y1="3.3" x2="1.78" y2= "3.7" />
    <rect class="fil3 str3" x="0.77" y="1.65" width="0.59" height="0.39"/>
    <rect class="fil3 str3" x="3.63" y="1.67" width="0.59" height="0.39"/>
    <ellipse class="fil4 str4" transform="matrix(0.4839 0.204633 -0.199377 0.472469 1.72773 1.01644)" rx="0.45" ry="0.46"/>
    <path class="fil1 str1" d="M1.95 0.92l0.07 -0.34c-0.03,-0.04 -0.07,-0.06 -0.13,-0.06l-0.21 0.29"/>
    <path class="fil1 str1" d="M1.55 1.12l-0.08 0.34c0.03,0.04 0.07,0.06 0.13,0.06l0.21 -0.29"/>
    <path class="fil1 str1" d="M1.82 0.81l-0.19 -0.3c-0.05,0 -0.1,0.01 -0.13,0.06l0.05 0.35"/>
    <path class="fil1 str1" d="M1.67 1.23l0.19 0.3c0.05,0.01 0.1,-0.01 0.13,-0.05l-0.05 -0.35"/>
    <path class="fil1 str1" d="M1.52 0.95l-0.29 0.19c-0.01,0.05 0.01,0.1 0.05,0.14l0.36 -0.06"/>
    <path class="fil1 str1" d="M1.95 1.1l0.29 -0.19c0.01,-0.05 -0.01,-0.1 -0.05,-0.13l-0.35 0.05"/>
    <path class="fil1 str1" d="M1.63 0.83l-0.34 -0.08c-0.04,0.03 -0.06,0.08 -0.06,0.13l0.29 0.21"/>
    <path class="fil1 str1" d="M1.83 1.23l0.34 0.07c0.04,-0.03 0.06,-0.07 0.06,-0.13l-0.29 -0.21"/>
    <line class="fil1 str1" x1="2.13" y1="2.95" x2="2.83" y2= "2.95" />
    <rect class="fil5 str1" x="2.83" y="2.56" width="0.71" height="0.72"/>
    <line class="fil1 str1" x1="3.54" y1="2.95" x2="3.93" y2= "2.95" />
    <line class="fil1 str1" x1="3.19" y1="2.58" x2="3.18" y2= "1.85" />
    <line class="fil1 str2" x1="3.22" y1="3.26" x2="3.22" y2= "3.69" />
    <circle class="fil3 str2" cx="3.2" cy="4.07" r="0.17"/>
    <path class="fil1 str2" d="M3.32 3.95l-0.04 -0.25c-0.04,-0.02 -0.07,-0.02 -0.11,0l-0.05 0.25"/>
    <path class="fil1 str2" d="M3.11 4.19l0.05 0.25c0.03,0.02 0.06,0.02 0.1,0l0.06 -0.25"/>
    <path class="fil1 str2" d="M3.2 3.91l-0.2 -0.14c-0.04,0 -0.06,0.03 -0.08,0.07l0.14 0.21"/>
    <path class="fil1 str2" d="M3.23 4.23l0.21 0.14c0.03,-0.01 0.06,-0.03 0.07,-0.07l-0.14 -0.22"/>
    <path class="fil1 str2" d="M3.05 4.09l-0.14 0.2c0.01,0.04 0.03,0.06 0.07,0.08l0.22 -0.14"/>
    <path class="fil1 str2" d="M3.37 4.06l0.14 -0.21c0,-0.03 -0.03,-0.06 -0.07,-0.07l-0.22 0.14"/>
    <path class="fil1 str2" d="M3.08 3.97l-0.24 0.05c-0.02,0.03 -0.02,0.06 0,0.1l0.25 0.06"/>
    <path class="fil1 str2" d="M3.33 4.18l0.25 -0.04c0.02,-0.03 0.02,-0.07 0,-0.1l-0.25 -0.06"/>
    <rect class="fil6 str2" x="3.71" y="3.89" width="0.42" height="0.39"/>
    <line class="fil1 str2" x1="3.6" y1="4.09" x2="3.71" y2= "4.09" />
    <rect class="fil7 str2" x="0.85" y="3.87" width="0.42" height="0.39"/>
    <line class="fil1 str2" x1="1.27" y1="4.09" x2="1.38" y2= "4.08" />
    <circle class="fil3 str2" cx="1.76" cy="4.08" r="0.17"/>
    <path class="fil1 str2" d="M1.88 3.96l-0.05 -0.25c-0.03,-0.02 -0.06,-0.02 -0.1,0l-0.06 0.25"/>
    <path class="fil1 str2" d="M1.67 4.21l0.04 0.24c0.04,0.02 0.07,0.02 0.11,0l0.05 -0.25"/>
    <path class="fil1 str2" d="M1.76 3.92l-0.21 -0.14c-0.03,0.01 -0.06,0.03 -0.07,0.07l0.14 0.22"/>
    <path class="fil1 str2" d="M1.79 4.24l0.2 0.15c0.04,-0.01 0.06,-0.04 0.08,-0.07l-0.14 -0.22"/>
    <path class="fil1 str2" d="M1.61 4.1l-0.15 0.21c0.01,0.03 0.04,0.06 0.08,0.07l0.22 -0.13"/>
    <path class="fil1 str2" d="M1.93 4.08l0.14 -0.21c-0.01,-0.04 -0.03,-0.06 -0.07,-0.07l-0.22 0.13"/>
    <path class="fil1 str2" d="M1.64 3.99l-0.25 0.04c-0.01,0.03 -0.01,0.07 0,0.1l0.25 0.06"/>
    <path class="fil1 str2" d="M1.89 4.2l0.24 -0.05c0.02,-0.03 0.02,-0.06 0,-0.1l-0.24 -0.06"/>
    <line class="fil1 str1" x1="1.07" y1="2.95" x2="1.42" y2= "2.95" />
    <line class="fil1 str2" x1="2.14" y1="4.1" x2="2.84" y2= "4.1" />
    <ellipse class="fil4 str4" transform="matrix(0.4839 0.204633 -0.199377 0.472469 3.28371 1.0612)" rx="0.45" ry="0.46"/>
    <path class="fil1 str1" d="M3.5 0.97l0.08 -0.35c-0.03,-0.04 -0.08,-0.06 -0.13,-0.05l-0.21 0.29"/>
    <path class="fil1 str1" d="M3.1 1.17l-0.07 0.34c0.03,0.04 0.07,0.06 0.13,0.05l0.21 -0.28"/>
    <path class="fil1 str1" d="M3.37 0.85l-0.19 -0.29c-0.05,-0.01 -0.09,0.01 -0.13,0.05l0.06 0.35"/>
    <path class="fil1 str1" d="M3.23 1.28l0.19 0.3c0.05,0 0.09,-0.02 0.13,-0.06l-0.05 -0.35"/>
    <path class="fil1 str1" d="M3.08 1l-0.3 0.19c0,0.05 0.02,0.09 0.06,0.13l0.35 -0.05"/>
    <path class="fil1 str1" d="M3.5 1.14l0.3 -0.19c0.01,-0.05 -0.01,-0.09 -0.05,-0.13l-0.36 0.06"/>
    <path class="fil1 str1" d="M3.18 0.87l-0.34 -0.07c-0.04,0.03 -0.06,0.07 -0.05,0.13l0.28 0.21"/>
    <path class="fil1 str1" d="M3.38 1.27l0.35 0.08c0.04,-0.03 0.06,-0.08 0.05,-0.13l-0.29 -0.21"/>
    <circle class="fil8 str2" cx="2.49" cy="1.37" r="0.17"/>
    <path class="fil1 str2" d="M2.61 1.24l-0.05 -0.25c-0.03,-0.01 -0.07,-0.01 -0.1,0l-0.06 0.25"/>
    <path class="fil1 str2" d="M2.4 1.49l0.04 0.25c0.03,0.01 0.07,0.01 0.1,0l0.06 -0.25"/>
    <path class="fil1 str2" d="M2.49 1.2l-0.21 -0.14c-0.03,0.01 -0.06,0.03 -0.07,0.07l0.13 0.22"/>
    <path class="fil1 str2" d="M2.51 1.53l0.21 0.14c0.04,-0.01 0.06,-0.03 0.07,-0.07l-0.13 -0.22"/>
    <path class="fil1 str2" d="M2.33 1.38l-0.14 0.21c0.01,0.04 0.04,0.06 0.08,0.07l0.21 -0.13"/>
    <path class="fil1 str2" d="M2.66 1.36l0.14 -0.21c-0.01,-0.03 -0.04,-0.06 -0.07,-0.07l-0.22 0.13"/>
    <path class="fil1 str2" d="M2.37 1.27l-0.25 0.04c-0.02,0.04 -0.02,0.07 0,0.11l0.25 0.05"/>
    <path class="fil1 str2" d="M2.61 1.48l0.25 -0.05c0.02,-0.03 0.02,-0.06 0,-0.1l-0.25 -0.06"/>
   </g>
  </g>
 </g>
</svg>
