<?xml version="1.0" encoding="UTF-8"?>
<!DOCTYPE svg PUBLIC "-//W3C//DTD SVG 1.1//EN" "http://www.w3.org/Graphics/SVG/1.1/DTD/svg11.dtd">
<!-- Creator: CorelDRAW 2021 (64 Bit) -->
<svg xmlns="http://www.w3.org/2000/svg" xml:space="preserve" width="530px" height="530px" version="1.1" style="shape-rendering:geometricPrecision; text-rendering:geometricPrecision; image-rendering:optimizeQuality; fill-rule:evenodd; clip-rule:evenodd"
viewBox="0 0 4.99 4.99"
 xmlns:xlink="http://www.w3.org/1999/xlink"
 xmlns:xodm="http://www.corel.com/coreldraw/odm/2003">
 <defs>
  <style type="text/css">
   <![CDATA[
    .str0 {stroke:#B8B4B6;stroke-width:0.28;stroke-miterlimit:22.9256}
    .str8 {stroke:black;stroke-width:0.01;stroke-miterlimit:22.9256}
    .str9 {stroke:#6B4646;stroke-width:0.01;stroke-miterlimit:22.9256}
    .str3 {stroke:blue;stroke-width:0.08;stroke-miterlimit:22.9256}
    .str1 {stroke:#006633;stroke-width:0.08;stroke-miterlimit:22.9256}
    .str2 {stroke:red;stroke-width:0.08;stroke-miterlimit:22.9256}
    .str11 {stroke:#6B4646;stroke-width:0.05;stroke-miterlimit:22.9256}
    .str5 {stroke:#00AFEF;stroke-width:0.01;stroke-miterlimit:22.9256}
    .str7 {stroke:black;stroke-width:0.01;stroke-miterlimit:22.9256}
    .str10 {stroke:#6B4646;stroke-width:0.01;stroke-miterlimit:22.9256}
    .str4 {stroke:#FAAC04;stroke-width:0.01;stroke-miterlimit:22.9256}
    .str6 {stroke:yellow;stroke-width:0.01;stroke-miterlimit:22.9256}
    .fil13 {fill:none}
    .fil12 {fill:#D7CC75}
    .fil9 {fill:#FAA954}
    .fil10 {fill:#00AFEF}
    .fil15 {fill:#00A859}
    .fil1 {fill:#33CC66}
    .fil7 {fill:#6699FF}
    .fil5 {fill:#999999}
    .fil8 {fill:#CC9933}
    .fil14 {fill:#CCCC33}
    .fil4 {fill:#CCCCCC}
    .fil2 {fill:#E6E6E6}
    .fil6 {fill:#FF6600}
    .fil11 {fill:yellow}
    .fil0 {fill:white}
    .fil3 {fill:black;fill-rule:nonzero}
   ]]>
  </style>
 </defs>
 <g id="Camada_x0020_1">
  <metadata id="CorelCorpID_0Corel-Layer"/>
  <g id="_2069752165280">
   <path class="fil0 str0" d="M0.35 0.14l4.29 0c0.12,0 0.21,0.11 0.21,0.24l0 4.23c0,0.14 -0.09,0.24 -0.21,0.24l-4.29 0c-0.11,0 -0.2,-0.1 -0.2,-0.24 0,-0.5 -0.01,-4.1 -0.01,-4.28 0,-0.11 0.13,-0.19 0.21,-0.19z"/>
   <g>
    <g>
     <path class="fil1 str1" d="M2.68 3.24l0.01 -0.01 0.7 -0.78 0.21 0.2c0,-0.03 0,-0.06 0,-0.09 0,-0.02 0,-0.02 0.02,-0.02 0.05,0 0.09,0 0.14,0 0.03,0 0.03,0 0.03,0.02l0 0.31 0.31 0.37 -0.19 0c-0.04,0.01 -0.04,0 -0.04,0.04l0.01 0.6 -0.96 0c-0.01,-0.2 -0.01,-0.4 -0.02,-0.6 0,-0.04 0,-0.04 -0.03,-0.04 -0.06,0 -0.13,0 -0.19,0z"/>
     <g>
      <g>
       <polygon class="fil2" points="3.78,3.37 3.52,3.37 3.52,3.86 3.78,3.86 "/>
       <path id="_1" class="fil3" d="M3.52 3.36l0.26 0 0 0.02 -0.26 0 -0.01 -0.01 0.01 -0.01zm-0.01 0.01l0 -0.01 0.01 0 -0.01 0.01zm0 0.49l0 -0.49 0.02 0 0 0.49 -0.01 0.01 -0.01 -0.01zm0.01 0.01l-0.01 0 0 -0.01 0.01 0.01zm0.26 0l-0.26 0 0 -0.02 0.26 0 0.01 0.01 -0.01 0.01zm0.01 -0.01l0 0.01 -0.01 0 0.01 -0.01zm0 -0.49l0 0.49 -0.02 0 0 -0.49 0.01 -0.01 0.01 0.01zm-0.01 -0.01l0.01 0 0 0.01 -0.01 -0.01z"/>
      </g>
      <g>
       <polygon class="fil4" points="3.29,3.35 3.02,3.35 3.02,3.6 3.29,3.6 "/>
       <path id="_1_0" class="fil3" d="M3.02 3.35l0.27 0 0 0.01 -0.27 0 -0.01 -0.01 0.01 0zm-0.01 0l0 0 0.01 0 -0.01 0zm0 0.25l0 -0.25 0.02 0 0 0.25 -0.01 0.01 -0.01 -0.01zm0.01 0.01l-0.01 0 0 -0.01 0.01 0.01zm0.27 0l-0.27 0 0 -0.02 0.27 0 0.01 0.01 -0.01 0.01zm0.01 -0.01l0 0.01 -0.01 0 0.01 -0.01zm0 -0.25l0 0.25 -0.02 0 0 -0.25 0.01 0 0.01 0zm-0.01 0l0.01 0 0 0 -0.01 0z"/>
      </g>
      <g>
       <polygon class="fil5" points="3.26,2.89 3.53,2.89 3.53,3 3.26,3 "/>
       <path id="_1_1" class="fil3" d="M3.53 2.9l-0.27 0 0 -0.02 0.27 0 0.01 0.01 -0.01 0.01zm0 -0.02l0.01 0 0 0.01 -0.01 -0.01zm-0.01 0.12l0 -0.11 0.02 0 0 0.11 -0.01 0.01 -0.01 -0.01zm0.02 0l0 0.01 -0.01 0 0.01 -0.01zm-0.28 -0.01l0.27 0 0 0.02 -0.27 0 -0.01 -0.01 0.01 -0.01zm0 0.02l-0.01 0 0 -0.01 0.01 0.01zm0.01 -0.12l0 0.11 -0.02 0 0 -0.11 0.01 -0.01 0.01 0.01zm-0.02 0l0 -0.01 0.01 0 -0.01 0.01z"/>
      </g>
     </g>
    </g>
    <g>
     <path class="fil6 str2" d="M0.52 3.24l0.02 -0.01 0.69 -0.78 0.21 0.2c0,-0.03 0,-0.06 0,-0.09 0,-0.02 0,-0.02 0.02,-0.02 0.05,0 0.1,0 0.15,0 0.02,0 0.02,0 0.02,0.02l0 0.31 0.31 0.37 -0.19 0c-0.03,0.01 -0.03,0 -0.03,0.04l0 0.6 -0.96 0c0,-0.2 -0.01,-0.4 -0.01,-0.6 0,-0.04 0,-0.04 -0.04,-0.04 -0.05,0 -0.12,0 -0.19,0z"/>
     <g id="_2069752195136">
      <g>
       <polygon class="fil2" points="0.87,3.37 1.14,3.37 1.14,3.86 0.87,3.86 "/>
       <path id="_1_2" class="fil3" d="M1.14 3.38l-0.27 0 0 -0.02 0.27 0 0.01 0.01 -0.01 0.01zm0 -0.02l0.01 0 0 0.01 -0.01 -0.01zm-0.01 0.5l0 -0.49 0.02 0 0 0.49 -0.01 0.01 -0.01 -0.01zm0.02 0l0 0.01 -0.01 0 0.01 -0.01zm-0.28 -0.01l0.27 0 0 0.02 -0.27 0 -0.01 -0.01 0.01 -0.01zm0 0.02l-0.01 0 0 -0.01 0.01 0.01zm0.01 -0.5l0 0.49 -0.02 0 0 -0.49 0.01 -0.01 0.01 0.01zm-0.02 0l0 -0.01 0.01 0 -0.01 0.01z"/>
      </g>
      <g>
       <polygon class="fil4" points="1.36,3.35 1.63,3.35 1.63,3.6 1.36,3.6 "/>
       <path id="_1_3" class="fil3" d="M1.63 3.36l-0.27 0 0 -0.02 0.27 0 0.01 0.01 -0.01 0.01zm0 -0.02l0.01 0 0 0.01 -0.01 -0.01zm-0.01 0.26l0 -0.25 0.02 0 0 0.25 -0.01 0.01 -0.01 -0.01zm0.02 0l0 0.01 -0.01 0 0.01 -0.01zm-0.28 -0.01l0.27 0 0 0.02 -0.27 0 -0.01 -0.01 0.01 -0.01zm0 0.02l-0.01 0 0 -0.01 0.01 0.01zm0.01 -0.26l0 0.25 -0.02 0 0 -0.25 0.01 -0.01 0.01 0.01zm-0.02 0l0 -0.01 0.01 0 -0.01 0.01z"/>
      </g>
      <g>
       <polygon class="fil5" points="1.13,2.88 1.4,2.88 1.4,2.99 1.13,2.99 "/>
       <path id="_1_4" class="fil3" d="M1.4 2.89l-0.27 0 0 -0.02 0.27 0 0.01 0.01 -0.01 0.01zm0 -0.02l0.01 0 0 0.01 -0.01 -0.01zm-0.01 0.12l0 -0.11 0.02 0 0 0.11 -0.01 0.01 -0.01 -0.01zm0.02 0l0 0.01 -0.01 0 0.01 -0.01zm-0.28 -0.01l0.27 0 0 0.02 -0.27 0 -0.01 -0.01 0.01 -0.01zm0 0.02l-0.01 0 0 -0.01 0.01 0.01zm0.01 -0.12l0 0.11 -0.02 0 0 -0.11 0.01 -0.01 0.01 0.01zm-0.02 0l0 -0.01 0.01 0 -0.01 0.01z"/>
      </g>
     </g>
    </g>
    <g>
     <path class="fil7 str3" d="M1.57 3.76l0.02 -0.01 0.69 -0.78 0.22 0.21c0,-0.04 0,-0.07 0,-0.1 0,-0.02 0,-0.02 0.01,-0.02 0.05,0 0.1,0 0.15,0 0.02,0 0.02,0 0.02,0.02l0 0.31 0.32 0.38 -0.2 0c-0.03,0 -0.03,-0.01 -0.03,0.03l0 0.6 -0.96 0c0,-0.2 0,-0.4 -0.01,-0.6 0,-0.04 0,-0.04 -0.04,-0.04 -0.05,0 -0.12,0 -0.19,0z"/>
     <g>
      <g>
       <polygon class="fil2" points="1.92,3.89 2.18,3.89 2.18,4.38 1.92,4.38 "/>
       <path id="_1_5" class="fil3" d="M2.18 3.89l-0.26 0 0 -0.01 0.26 0 0.01 0.01 -0.01 0zm0 -0.01l0.01 0 0 0.01 -0.01 -0.01zm-0.01 0.5l0 -0.49 0.02 0 0 0.49 -0.01 0.01 -0.01 -0.01zm0.02 0l0 0.01 -0.01 0 0.01 -0.01zm-0.27 -0.01l0.26 0 0 0.02 -0.26 0 -0.01 -0.01 0.01 -0.01zm0 0.02l-0.01 0 0 -0.01 0.01 0.01zm0.01 -0.5l0 0.49 -0.02 0 0 -0.49 0.01 -0.01 0.01 0.01zm-0.02 0l0 -0.01 0.01 0 -0.01 0.01z"/>
      </g>
      <g>
       <polygon class="fil4" points="2.41,3.87 2.68,3.87 2.68,4.12 2.41,4.12 "/>
       <path id="_1_6" class="fil3" d="M2.68 3.88l-0.27 0 0 -0.02 0.27 0 0.01 0.01 -0.01 0.01zm0 -0.02l0.01 0 0 0.01 -0.01 -0.01zm-0.01 0.26l0 -0.25 0.02 0 0 0.25 -0.01 0.01 -0.01 -0.01zm0.02 0l0 0.01 -0.01 0 0.01 -0.01zm-0.28 -0.01l0.27 0 0 0.02 -0.27 0 -0.01 -0.01 0.01 -0.01zm0 0.02l-0.01 0 0 -0.01 0.01 0.01zm0.01 -0.26l0 0.25 -0.02 0 0 -0.25 0.01 -0.01 0.01 0.01zm-0.02 0l0 -0.01 0.01 0 -0.01 0.01z"/>
      </g>
      <g>
       <polygon class="fil5" points="2.14,3.39 2.41,3.39 2.41,3.5 2.14,3.5 "/>
       <path id="_1_7" class="fil3" d="M2.41 3.4l-0.27 0 0 -0.02 0.27 0 0.01 0.01 -0.01 0.01zm0 -0.02l0.01 0 0 0.01 -0.01 -0.01zm-0.01 0.12l0 -0.11 0.02 0 0 0.11 -0.01 0.01 -0.01 -0.01zm0.02 0l0 0.01 -0.01 0 0.01 -0.01zm-0.28 -0.01l0.27 0 0 0.02 -0.27 0 -0.01 -0.01 0.01 -0.01zm0 0.02l-0.01 0 0 -0.01 0.01 0.01zm0.01 -0.12l0 0.11 -0.02 0 0 -0.11 0.01 -0.01 0.01 0.01zm-0.02 0l0 -0.01 0.01 0 -0.01 0.01z"/>
      </g>
     </g>
    </g>
    <g>
     <polygon class="fil8" points="1.75,1.96 2.89,1.96 2.89,2.92 1.75,2.92 "/>
     <path id="_1_8" class="fil3" d="M2.89 1.97l-1.14 0 0 -0.03 1.14 0 0.01 0.02 -0.01 0.01zm0 -0.03l0.01 0 0 0.02 -0.01 -0.02zm-0.02 0.98l0 -0.96 0.03 0 0 0.96 -0.01 0.01 -0.02 -0.01zm0.03 0l0 0.01 -0.01 0 0.01 -0.01zm-1.15 -0.02l1.14 0 0 0.03 -1.14 0 -0.01 -0.01 0.01 -0.02zm0 0.03l-0.01 0 0 -0.01 0.01 0.01zm0.02 -0.97l0 0.96 -0.03 0 0 -0.96 0.01 -0.02 0.02 0.02zm-0.03 0l0 -0.02 0.01 0 -0.01 0.02z"/>
    </g>
    <path class="fil9 str4" d="M2.19 2.36l0.11 0 0 -0.02 -0.07 -0.06c-0.02,0.02 -0.03,0.05 -0.04,0.08z"/>
    <path class="fil9 str4" d="M2.47 2.36l-0.1 0 -0.01 -0.02 0.08 -0.06c0.02,0.02 0.03,0.05 0.03,0.08z"/>
    <path class="fil10 str5" d="M2.24 2.26l0.07 0.08 0.02 -0.01 -0.01 -0.1c-0.03,0 -0.06,0.01 -0.08,0.03z"/>
    <path class="fil9 str4" d="M2.19 2.36l0.11 0 0 -0.02 -0.07 -0.06c-0.02,0.02 -0.03,0.05 -0.04,0.08z"/>
    <path class="fil11 str6" d="M2.34 2.23l0 0.1 0.01 0.01 0.07 -0.07c-0.01,-0.02 -0.04,-0.04 -0.08,-0.04z"/>
    <path class="fil12 str7" d="M2.19 2.37l0 0.39 0.28 0c0,-0.13 0,-0.24 0,-0.39l-0.28 0z"/>
    <path class="fil13 str8" d="M2.19 2.37l0 0.4 0.29 0 0 -0.4m-0.15 -0.03l0 -0.11m-0.02 0.11l-0.08 -0.07m0.12 0.07l0.09 -0.07m-0.14 0.1c0.01,-0.05 0.06,-0.05 0.06,0m-0.17 0l0.29 0m-0.29 0c0.01,-0.09 0.06,-0.14 0.14,-0.15 0.1,0.02 0.14,0.07 0.15,0.15"/>
    <line class="fil13 str7" x1="2.2" y1="2.75" x2="2.48" y2= "2.75" />
    <line class="fil13 str8" x1="2.32" y1="2.75" x2="2.33" y2= "2.37" />
    <line class="fil13 str8" x1="2.36" y1="2.75" x2="2.36" y2= "2.38" />
    <line class="fil13 str8" x1="2.29" y1="2.75" x2="2.29" y2= "2.37" />
    <path class="fil9 str4" d="M1.81 2.06l0.1 0 0.01 -0.01 -0.08 -0.04c-0.02,0.01 -0.03,0.03 -0.03,0.05z"/>
    <path class="fil9 str4" d="M2.08 2.06l-0.1 0 -0.01 -0.01 0.08 -0.04c0.02,0.01 0.03,0.03 0.03,0.05z"/>
    <path class="fil10 str5" d="M1.85 2l0.07 0.05 0.02 -0.01 -0.01 -0.05c-0.02,0 -0.06,0 -0.08,0.01z"/>
    <path class="fil9 str4" d="M1.81 2.06l0.1 0 0.01 -0.01 -0.08 -0.04c-0.02,0.01 -0.03,0.03 -0.03,0.05z"/>
    <path class="fil11 str6" d="M1.95 1.99l0 0.05 0.02 0.01 0.07 -0.04c-0.02,-0.01 -0.05,-0.02 -0.09,-0.02z"/>
    <path class="fil12 str7" d="M1.8 2.06l0 0.21 0.28 0c0,-0.07 0,-0.13 0,-0.21l-0.28 0z"/>
    <path class="fil13 str8" d="M1.8 2.06l0 0.21 0.29 0 0 -0.21m-0.15 -0.01l0 -0.06m-0.02 0.06l-0.08 -0.04m0.12 0.04l0.09 -0.04m-0.14 0.05c0.01,-0.02 0.06,-0.02 0.06,0m-0.17 0l0.29 0m-0.29 0c0.01,-0.04 0.06,-0.07 0.15,-0.07 0.09,0 0.13,0.03 0.14,0.07"/>
    <line class="fil13 str7" x1="1.81" y1="2.26" x2="2.09" y2= "2.26" />
    <line class="fil13 str8" x1="1.93" y1="2.26" x2="1.94" y2= "2.06" />
    <line class="fil13 str8" x1="1.97" y1="2.26" x2="1.97" y2= "2.07" />
    <line class="fil13 str8" x1="1.9" y1="2.26" x2="1.9" y2= "2.06" />
    <polygon class="fil14 str9" points="2.04,2.9 2.04,2.86 2.6,2.86 2.6,2.9 "/>
    <polyline class="fil13 str10" points="2.04,2.86 2.08,2.85 2.56,2.85 2.6,2.86 "/>
    <polygon class="fil14 str9" points="2.08,2.85 2.08,2.81 2.56,2.81 2.56,2.85 "/>
    <polyline class="fil13 str10" points="2.08,2.81 2.11,2.8 2.53,2.8 2.56,2.81 "/>
    <polygon class="fil14 str9" points="2.11,2.8 2.11,2.76 2.54,2.76 2.54,2.8 "/>
    <path class="fil9 str4" d="M2.54 2.06l0.11 0 0 -0.01 -0.07 -0.04c-0.03,0.01 -0.04,0.03 -0.04,0.05z"/>
    <path class="fil9 str4" d="M2.82 2.06l-0.11 0 0 -0.01 0.07 -0.04c0.02,0.01 0.04,0.03 0.04,0.05z"/>
    <path class="fil10 str5" d="M2.58 2l0.07 0.05 0.02 -0.01 0 -0.05c-0.03,0 -0.06,0 -0.09,0.01z"/>
    <path class="fil9 str4" d="M2.54 2.06l0.11 0 0 -0.01 -0.07 -0.04c-0.03,0.01 -0.04,0.03 -0.04,0.05z"/>
    <path class="fil11 str6" d="M2.69 1.99l-0.01 0.05 0.02 0.01 0.07 -0.04c-0.02,-0.01 -0.05,-0.02 -0.08,-0.02z"/>
    <path class="fil12 str7" d="M2.54 2.06l0 0.21 0.28 0c0,-0.07 -0.01,-0.13 -0.01,-0.21l-0.27 0z"/>
    <path class="fil13 str8" d="M2.53 2.06l0 0.21 0.29 0 0 -0.21m-0.14 -0.01l0 -0.06m-0.02 0.06l-0.08 -0.04m0.12 0.04l0.08 -0.04m-0.13 0.05c0,-0.02 0.06,-0.02 0.06,0m-0.18 0l0.29 0m-0.29 0c0.01,-0.04 0.06,-0.07 0.15,-0.07 0.09,0 0.14,0.03 0.14,0.07"/>
    <line class="fil13 str7" x1="2.54" y1="2.26" x2="2.82" y2= "2.26" />
    <line class="fil13 str8" x1="2.67" y1="2.26" x2="2.67" y2= "2.06" />
    <line class="fil13 str8" x1="2.7" y1="2.26" x2="2.71" y2= "2.07" />
    <line class="fil13 str8" x1="2.63" y1="2.26" x2="2.64" y2= "2.06" />
    <rect class="fil5 str11" transform="matrix(6.22672E-15 0.117678 -0.0688968 9.13314E-16 2.54705 0.520804)" width="0.47" height="6.37"/>
    <rect class="fil5 str11" x="2.3" y="0.33" width="0.05" height="0.66"/>
    <g>
     <polygon class="fil8" points="1.95,1.95 1.95,0.99 2.68,0.99 2.68,1.43 2.68,1.72 2.68,1.95 "/>
     <path id="_1_9" class="fil3" d="M1.96 0.99l0 0.96 -0.02 0 0 -0.96 0.01 -0.01 0.01 0.01zm-0.02 0l0 -0.01 0.01 0 -0.01 0.01zm0.74 0.02l-0.73 0 0 -0.03 0.73 0 0.01 0.01 -0.01 0.02zm0 -0.03l0.01 0 0 0.01 -0.01 -0.01zm-0.02 0.45l0 -0.44 0.03 0 0 0.44 0 0 -0.03 0zm0 0.29l0 -0.29 0.03 0 0 0.29 0 0 -0.03 0zm0 0.23l0 -0.23 0.03 0 0 0.23 -0.01 0.02 -0.02 -0.02zm0.03 0l0 0.02 -0.01 0 0.01 -0.02zm-0.74 -0.01l0.73 0 0 0.03 -0.73 0 -0.01 -0.02 0.01 -0.01zm0 0.03l-0.01 0 0 -0.02 0.01 0.02z"/>
    </g>
    <path class="fil9 str4" d="M2.21 1.53l0.08 0 0 -0.02 -0.06 -0.06c-0.01,0.02 -0.02,0.05 -0.02,0.08z"/>
    <path class="fil9 str4" d="M2.41 1.53l-0.08 0 0 -0.02 0.06 -0.06c0.01,0.02 0.02,0.05 0.02,0.08z"/>
    <path class="fil10 str5" d="M2.24 1.43l0.05 0.08 0.01 -0.01 0 -0.1c-0.02,0 -0.04,0.01 -0.06,0.03z"/>
    <path class="fil9 str4" d="M2.21 1.53l0.08 0 0 -0.02 -0.06 -0.06c-0.01,0.02 -0.02,0.05 -0.02,0.08z"/>
    <path class="fil11 str6" d="M2.32 1.4l-0.01 0.1 0.02 0.01 0.05 -0.07c-0.02,-0.03 -0.04,-0.04 -0.06,-0.04z"/>
    <path class="fil12 str7" d="M2.21 1.54l0 0.39 0.2 0c0,-0.13 0,-0.24 0,-0.39l-0.2 0z"/>
    <path class="fil13 str8" d="M2.2 1.54l0 0.39 0.22 0 0 -0.39m-0.11 -0.03l0 -0.11m-0.02 0.11l-0.06 -0.07m0.09 0.07l0.07 -0.07m-0.1 0.1c0,-0.05 0.04,-0.05 0.04,0m-0.13 0l0.22 0m-0.22 0c0.01,-0.09 0.05,-0.14 0.11,-0.15 0.07,0.02 0.1,0.07 0.11,0.15"/>
    <line class="fil13 str7" x1="2.21" y1="1.92" x2="2.42" y2= "1.92" />
    <line class="fil13 str8" x1="2.3" y1="1.92" x2="2.3" y2= "1.54" />
    <line class="fil13 str8" x1="2.33" y1="1.92" x2="2.33" y2= "1.54" />
    <line class="fil13 str8" x1="2.28" y1="1.92" x2="2.28" y2= "1.54" />
    <path class="fil15 str5" d="M2.46 1.19l-0.11 0 -0.01 -0.02 0.08 -0.08c0.02,0.02 0.04,0.06 0.04,0.1z"/>
    <path class="fil10 str5" d="M2.22 1.09l0.08 0.07 0.02 0 0 -0.11c-0.03,-0.01 -0.07,0.01 -0.1,0.04z"/>
    <path class="fil11 str6" d="M2.32 1.05l0 0.11 0.02 0.01 0.08 -0.08c-0.02,-0.02 -0.07,-0.05 -0.1,-0.04z"/>
    <path class="fil15 str5" d="M2.18 1.19l0.11 0 0.01 0.02 -0.08 0.08c-0.02,-0.02 -0.04,-0.07 -0.04,-0.1z"/>
    <path class="fil10 str5" d="M2.42 1.29l-0.08 -0.08 -0.02 0.01 0 0.11c0.03,0 0.07,-0.02 0.1,-0.04z"/>
    <path class="fil9 str4" d="M2.18 1.19l0.11 0 0.01 -0.03 -0.08 -0.07c-0.02,0.02 -0.04,0.06 -0.04,0.1z"/>
    <path class="fil11 str6" d="M2.32 1.33l0 -0.11 -0.02 -0.01 -0.08 0.07c0.02,0.03 0.06,0.04 0.1,0.05z"/>
    <path class="fil9 str4" d="M2.46 1.19l-0.11 0 -0.01 0.02 0.08 0.07c0.02,-0.02 0.04,-0.06 0.04,-0.09z"/>
    <path class="fil13 str9" d="M2.32 1.05c0.08,-0.01 0.14,0.06 0.14,0.13 0,0.08 -0.06,0.14 -0.13,0.15 -0.08,0 -0.15,-0.06 -0.15,-0.14 0,-0.08 0.06,-0.14 0.14,-0.14zm0 0.11c0.02,0 0.03,0.01 0.03,0.03 0,0.01 -0.01,0.02 -0.03,0.02 -0.01,0.01 -0.03,-0.01 -0.03,-0.02 0,-0.02 0.02,-0.03 0.03,-0.03zm0.02 0.01l0.08 -0.08m-0.12 0.08l-0.08 -0.08m0.1 0.07l0 -0.11m-0.03 0.14l-0.11 0m0.14 0.14l0 -0.11m0.1 0.07l-0.08 -0.08m0.12 -0.02l-0.11 0m-0.13 0.1l0.08 -0.08"/>
   </g>
  </g>
 </g>
</svg>
