<?xml version="1.0" encoding="UTF-8"?>
<!DOCTYPE svg PUBLIC "-//W3C//DTD SVG 1.1//EN" "http://www.w3.org/Graphics/SVG/1.1/DTD/svg11.dtd">
<!-- Creator: CorelDRAW 2021 (64 Bit) -->
<svg xmlns="http://www.w3.org/2000/svg" xml:space="preserve" width="530px" height="530px" version="1.1" style="shape-rendering:geometricPrecision; text-rendering:geometricPrecision; image-rendering:optimizeQuality; fill-rule:evenodd; clip-rule:evenodd"
viewBox="0 0 5.56 5.56"
 xmlns:xlink="http://www.w3.org/1999/xlink"
 xmlns:xodm="http://www.corel.com/coreldraw/odm/2003">
 <defs>
  <style type="text/css">
   <![CDATA[
    .str0 {stroke:#B8B4B6;stroke-width:0.31;stroke-miterlimit:22.9256}
    .str1 {stroke:black;stroke-width:0.02;stroke-miterlimit:22.9256}
    .str2 {stroke:black;stroke-width:0.02;stroke-miterlimit:22.9256}
    .fil2 {fill:none}
    .fil1 {fill:black}
    .fil3 {fill:aqua}
    .fil6 {fill:#999999}
    .fil4 {fill:#99FFFF}
    .fil0 {fill:white}
    .fil7 {fill:black;fill-rule:nonzero}
    .fil5 {fill:#999999;fill-rule:nonzero}
   ]]>
  </style>
 </defs>
 <g id="Camada_x0020_1">
  <metadata id="CorelCorpID_0Corel-Layer"/>
  <g id="_2787722008592">
   <path class="fil0 str0" d="M0.39 0.16l4.78 0c0.13,0 0.23,0.11 0.23,0.26l0 4.72c0,0.14 -0.1,0.26 -0.23,0.26l-4.78 0c-0.12,0 -0.23,-0.12 -0.23,-0.26 0,-0.57 -0.01,-4.57 0,-4.78 0,-0.11 0.14,-0.2 0.23,-0.2z"/>
   <g>
    <g>
     <g>
      <path class="fil1" d="M2.33 2.93l2.28 0 0 -2.26 -2.28 0 0 2.26zm0 -2.26l0.09 -0.12 0.54 0 0.08 0.12 -0.71 0z"/>
      <path id="_1" class="fil2 str1" d="M2.33 2.93l2.28 0 0 -2.26 -2.28 0 0 2.26zm0 -2.26l0.09 -0.12 0.54 0 0.08 0.12"/>
     </g>
     <rect class="fil3 str1" x="2.19" y="0.79" width="2.28" height="2.25"/>
     <polygon class="fil4 str1" points="2.33,0.79 2.19,0.79 2.33,0.67 "/>
     <polygon class="fil4 str1" points="4.47,2.93 4.61,2.93 4.47,3.05 "/>
     <polygon class="fil4 str2" points="4.47,3.05 4.47,0.79 4.61,0.67 4.61,2.93 "/>
     <g>
      <path class="fil1" d="M1.67 3.19l2.28 0 0 -2.26 -2.28 0 0 2.26zm0 -2.26l0.08 -0.12 0.55 0 0.08 0.12 -0.71 0z"/>
      <path id="_1_0" class="fil2 str1" d="M1.67 3.19l2.28 0 0 -2.26 -2.28 0 0 2.26zm0 -2.26l0.08 -0.12 0.55 0 0.08 0.12"/>
     </g>
     <rect class="fil3 str1" x="1.53" y="1.06" width="2.28" height="2.25"/>
     <polygon class="fil4 str1" points="1.67,1.06 1.53,1.06 1.67,0.93 "/>
     <polygon class="fil4 str1" points="3.81,3.19 3.95,3.19 3.81,3.31 "/>
     <polygon class="fil4 str2" points="3.81,3.31 3.81,1.06 3.95,0.93 3.95,3.19 "/>
     <g>
      <path class="fil1" d="M0.98 3.43l2.29 0 0 -2.25 -2.29 0 0 2.25zm0 -2.25l0.09 -0.13 0.55 0 0.08 0.13 -0.72 0z"/>
      <path id="_1_1" class="fil2 str1" d="M0.98 3.43l2.29 0 0 -2.25 -2.29 0 0 2.25zm0 -2.25l0.09 -0.13 0.55 0 0.08 0.13"/>
     </g>
     <rect class="fil3 str1" x="0.84" y="1.3" width="2.28" height="2.25"/>
     <polygon class="fil4 str1" points="0.98,1.3 0.84,1.3 0.98,1.18 "/>
     <polygon class="fil4 str1" points="3.13,3.43 3.27,3.43 3.13,3.55 "/>
     <polygon class="fil4 str2" points="3.13,3.55 3.12,1.3 3.27,1.18 3.27,3.43 "/>
    </g>
    <g>
     <path class="fil5" d="M0.7 3.84l0.39 0c0.09,0 0.16,0 0.2,0.02 0.06,0.01 0.12,0.05 0.16,0.1 0.05,0.04 0.08,0.1 0.1,0.17 0.03,0.07 0.04,0.15 0.04,0.25 0,0.09 -0.01,0.16 -0.03,0.23 -0.03,0.08 -0.07,0.14 -0.12,0.19 -0.03,0.03 -0.09,0.06 -0.15,0.08 -0.05,0.02 -0.11,0.03 -0.19,0.03l-0.4 0 0 -1.07zm0.21 0.18l0 0.7 0.16 0c0.06,0 0.11,0 0.13,-0.01 0.04,0 0.07,-0.02 0.09,-0.04 0.02,-0.02 0.04,-0.06 0.06,-0.1 0.01,-0.05 0.02,-0.12 0.02,-0.2 0,-0.08 -0.01,-0.14 -0.02,-0.19 -0.02,-0.04 -0.04,-0.08 -0.07,-0.1 -0.02,-0.03 -0.05,-0.04 -0.09,-0.05 -0.03,-0.01 -0.09,-0.01 -0.18,-0.01l-0.1 0z"/>
     <path id="_1_2" class="fil5" d="M2.14 4.38c0,-0.11 0.02,-0.2 0.05,-0.28 0.03,-0.05 0.06,-0.1 0.1,-0.14 0.04,-0.05 0.09,-0.08 0.14,-0.1 0.07,-0.03 0.14,-0.04 0.23,-0.04 0.16,0 0.28,0.05 0.38,0.14 0.09,0.1 0.14,0.24 0.14,0.41 0,0.18 -0.05,0.31 -0.14,0.41 -0.09,0.1 -0.22,0.15 -0.38,0.15 -0.16,0 -0.28,-0.05 -0.38,-0.15 -0.09,-0.1 -0.14,-0.23 -0.14,-0.4zm0.23 -0.01c0,0.12 0.02,0.21 0.08,0.28 0.06,0.06 0.13,0.09 0.21,0.09 0.09,0 0.16,-0.03 0.22,-0.09 0.05,-0.07 0.08,-0.16 0.08,-0.28 0,-0.13 -0.03,-0.22 -0.08,-0.28 -0.06,-0.06 -0.13,-0.09 -0.22,-0.09 -0.09,0 -0.16,0.03 -0.21,0.09 -0.06,0.06 -0.08,0.16 -0.08,0.28z"/>
     <path id="_2" class="fil5" d="M4.45 4.51l0.21 0.07c-0.04,0.11 -0.09,0.2 -0.16,0.26 -0.08,0.06 -0.17,0.08 -0.29,0.08 -0.14,0 -0.26,-0.04 -0.35,-0.14 -0.09,-0.1 -0.14,-0.23 -0.14,-0.4 0,-0.18 0.05,-0.32 0.14,-0.42 0.09,-0.09 0.22,-0.14 0.37,-0.14 0.13,0 0.23,0.04 0.31,0.11 0.05,0.05 0.09,0.11 0.11,0.2l-0.21 0.05c-0.01,-0.05 -0.04,-0.1 -0.08,-0.13 -0.04,-0.03 -0.09,-0.05 -0.15,-0.05 -0.08,0 -0.14,0.03 -0.19,0.09 -0.05,0.05 -0.07,0.15 -0.07,0.27 0,0.14 0.02,0.23 0.07,0.29 0.05,0.06 0.11,0.09 0.19,0.09 0.06,0 0.11,-0.02 0.15,-0.06 0.04,-0.03 0.07,-0.09 0.09,-0.17z"/>
     <polygon id="_3" class="fil6" points="0.59,5.04 4.73,5.04 4.73,5.11 0.59,5.11 "/>
     <path class="fil7" d="M0.84 3.76l0.4 0c0.09,0 0.15,0.01 0.2,0.02 0.06,0.02 0.12,0.05 0.16,0.1 0.05,0.05 0.08,0.11 0.1,0.17 0.03,0.07 0.04,0.16 0.04,0.26 0,0.08 -0.01,0.16 -0.03,0.22 -0.03,0.08 -0.07,0.14 -0.12,0.19 -0.04,0.04 -0.09,0.07 -0.15,0.09 -0.05,0.01 -0.11,0.02 -0.19,0.02l-0.41 0 0 -1.07zm0.22 0.18l0 0.71 0.16 0c0.06,0 0.11,0 0.13,-0.01 0.04,-0.01 0.07,-0.02 0.09,-0.04 0.02,-0.03 0.04,-0.06 0.05,-0.11 0.02,-0.05 0.03,-0.11 0.03,-0.19 0,-0.09 -0.01,-0.15 -0.03,-0.19 -0.01,-0.05 -0.03,-0.08 -0.06,-0.11 -0.02,-0.02 -0.06,-0.04 -0.1,-0.05 -0.03,0 -0.08,-0.01 -0.17,-0.01l-0.1 0z"/>
     <path id="_1_3" class="fil7" d="M2.29 4.3c0,-0.11 0.02,-0.2 0.05,-0.27 0.03,-0.06 0.06,-0.11 0.1,-0.15 0.04,-0.04 0.09,-0.07 0.14,-0.1 0.07,-0.02 0.14,-0.04 0.23,-0.04 0.16,0 0.28,0.05 0.38,0.15 0.09,0.1 0.14,0.23 0.14,0.41 0,0.17 -0.05,0.31 -0.14,0.4 -0.09,0.1 -0.22,0.15 -0.38,0.15 -0.16,0 -0.28,-0.05 -0.38,-0.15 -0.09,-0.09 -0.14,-0.23 -0.14,-0.4zm0.22 0c0,0.12 0.03,0.21 0.09,0.27 0.06,0.06 0.13,0.1 0.21,0.1 0.09,0 0.16,-0.04 0.21,-0.1 0.06,-0.06 0.09,-0.15 0.09,-0.28 0,-0.12 -0.03,-0.21 -0.08,-0.27 -0.06,-0.06 -0.13,-0.09 -0.22,-0.09 -0.09,0 -0.16,0.03 -0.21,0.09 -0.06,0.06 -0.09,0.15 -0.09,0.28z"/>
     <path id="_2_4" class="fil7" d="M4.6 4.44l0.21 0.06c-0.04,0.12 -0.09,0.21 -0.16,0.26 -0.08,0.06 -0.17,0.09 -0.29,0.09 -0.14,0 -0.26,-0.05 -0.35,-0.15 -0.09,-0.09 -0.14,-0.23 -0.14,-0.4 0,-0.17 0.05,-0.31 0.14,-0.41 0.09,-0.1 0.21,-0.15 0.36,-0.15 0.14,0 0.24,0.04 0.32,0.12 0.05,0.04 0.09,0.11 0.11,0.2l-0.21 0.05c-0.01,-0.06 -0.04,-0.1 -0.08,-0.13 -0.04,-0.04 -0.09,-0.05 -0.15,-0.05 -0.08,0 -0.14,0.03 -0.19,0.08 -0.05,0.06 -0.07,0.15 -0.07,0.28 0,0.13 0.02,0.23 0.07,0.29 0.05,0.06 0.11,0.08 0.19,0.08 0.06,0 0.11,-0.01 0.15,-0.05 0.04,-0.04 0.07,-0.09 0.09,-0.17z"/>
     <polygon id="_3_5" class="fil1" points="0.74,4.97 4.88,4.97 4.88,5.03 0.74,5.03 "/>
    </g>
   </g>
  </g>
 </g>
</svg>
