<?xml version="1.0" encoding="UTF-8"?>
<!DOCTYPE svg PUBLIC "-//W3C//DTD SVG 1.1//EN" "http://www.w3.org/Graphics/SVG/1.1/DTD/svg11.dtd">
<!-- Creator: CorelDRAW 2021 (64 Bit) -->
<svg xmlns="http://www.w3.org/2000/svg" xml:space="preserve" width="530px" height="530px" version="1.1" style="shape-rendering:geometricPrecision; text-rendering:geometricPrecision; image-rendering:optimizeQuality; fill-rule:evenodd; clip-rule:evenodd"
viewBox="0 0 4.99 4.99"
 xmlns:xlink="http://www.w3.org/1999/xlink"
 xmlns:xodm="http://www.corel.com/coreldraw/odm/2003">
 <defs>
  <style type="text/css">
   <![CDATA[
    .str0 {stroke:#B8B4B6;stroke-width:0.28;stroke-miterlimit:22.9256}
    .str1 {stroke:black;stroke-width:0.08;stroke-miterlimit:22.9256}
    .fil2 {fill:blue}
    .fil5 {fill:lime}
    .fil4 {fill:aqua}
    .fil3 {fill:red}
    .fil1 {fill:yellow}
    .fil0 {fill:white}
   ]]>
  </style>
 </defs>
 <g id="Camada_x0020_1">
  <metadata id="CorelCorpID_0Corel-Layer"/>
  <g id="_2069845701104">
   <path class="fil0 str0" d="M0.35 0.14l4.29 0c0.12,0 0.21,0.11 0.21,0.24l0 4.23c0,0.13 -0.09,0.24 -0.21,0.24l-4.29 0c-0.11,0 -0.2,-0.11 -0.2,-0.24 0,-0.51 -0.01,-4.1 -0.01,-4.28 0,-0.11 0.13,-0.19 0.21,-0.19z"/>
   <g>
    <rect class="fil1 str1" x="2.01" y="3.35" width="1.1" height="1.17"/>
    <rect class="fil2 str1" transform="matrix(0.0768135 -0.0623436 0.063646 0.0887641 1.00605 1.25376)" width="11.65" height="10.38"/>
    <rect class="fil3 str1" transform="matrix(0.0951114 -0.0314245 0.0332723 0.113009 0.55926 2.54131)" width="11.65" height="10.38"/>
    <rect class="fil4 str1" transform="matrix(0.0768876 0.0619691 -0.0656128 0.0913556 3.25 0.497016)" width="11.65" height="10.38"/>
    <rect class="fil5 str1" transform="matrix(-0.0951114 -0.0314245 -0.0332723 0.113009 4.58166 2.54131)" width="11.65" height="10.38"/>
   </g>
  </g>
 </g>
</svg>
