<?xml version="1.0" encoding="UTF-8"?>
<!DOCTYPE svg PUBLIC "-//W3C//DTD SVG 1.1//EN" "http://www.w3.org/Graphics/SVG/1.1/DTD/svg11.dtd">
<!-- Creator: CorelDRAW 2021 (64 Bit) -->
<svg xmlns="http://www.w3.org/2000/svg" xml:space="preserve" width="752px" height="752px" version="1.1" style="shape-rendering:geometricPrecision; text-rendering:geometricPrecision; image-rendering:optimizeQuality; fill-rule:evenodd; clip-rule:evenodd"
viewBox="0 0 37.43 37.39"
 xmlns:xlink="http://www.w3.org/1999/xlink"
 xmlns:xodm="http://www.corel.com/coreldraw/odm/2003">
 <defs>
  <style type="text/css">
   <![CDATA[
    .str2 {stroke:#AEA19E;stroke-width:0.8;stroke-miterlimit:22.9256;stroke-opacity:0.949020}
    .str0 {stroke:#B8B4B6;stroke-width:2.49;stroke-miterlimit:22.9256}
    .str1 {stroke:white;stroke-width:0.1;stroke-miterlimit:22.9256}
    .str3 {stroke:black;stroke-width:0.6;stroke-miterlimit:22.9256}
    .fil4 {fill:none}
    .fil1 {fill:#E6E7E8}
    .fil5 {fill:#373435}
    .fil7 {fill:#CD8E64}
    .fil10 {fill:#F8AC92}
    .fil6 {fill:#FD9833}
    .fil8 {fill:#FE0000}
    .fil0 {fill:snow}
    .fil9 {fill:white}
    .fil2 {fill:#333333;fill-rule:nonzero}
    .fil3 {fill:#FEFEFE;fill-rule:nonzero;fill-opacity:0.949020}
   ]]>
  </style>
 </defs>
 <g id="Camada_x0020_1">
  <metadata id="CorelCorpID_0Corel-Layer"/>
  <g id="_2201527523360">
   <path class="fil0 str0" d="M2.81 1.24l31.84 0c0.85,0 1.54,0.79 1.54,1.75l0 31.41c0,0.97 -0.69,1.75 -1.54,1.75l-31.84 0c-0.84,0 -1.53,-0.78 -1.53,-1.75 0,-3.77 -0.05,-30.42 -0.03,-31.79 0.01,-0.75 0.93,-1.37 1.56,-1.37z"/>
   <g>
    <rect class="fil1 str1" x="5.93" y="21.47" width="4.67" height="10.73"/>
    <path class="fil2" d="M18.34 32.89c-0.89,0 -1.78,-0.33 -2.64,-0.65 -0.94,-0.35 -1.91,-0.71 -2.88,-0.63l-2.38 0.21 0 -9.24 1.29 -0.11c0.81,-0.07 1.49,0.24 2.14,0.54 0.61,0.29 1.19,0.56 1.86,0.5l4.27 -0.77c1.52,-0.26 2.37,0.62 2.88,1.43l4.66 -2.17c1.76,-0.79 3.73,0 4.92,1.97 0.31,0.52 0.14,1.2 -0.39,1.53 -0.6,0.38 -1.2,0.75 -1.8,1.13 -5.2,3.26 -9.7,6.08 -11.62,6.24 -0.11,0.01 -0.21,0.02 -0.31,0.02zm-5.22 -1.93c0.98,0 1.9,0.35 2.81,0.68 0.93,0.35 1.81,0.67 2.66,0.6 1.77,-0.16 6.42,-3.07 11.34,-6.15 0.6,-0.38 1.2,-0.76 1.8,-1.13 0.23,-0.15 0.31,-0.44 0.18,-0.66 -1.01,-1.68 -2.66,-2.37 -4.1,-1.72l-5.19 2.41c-0.01,-0.34 -0.26,-0.73 -0.41,-0.9 -0.48,-0.57 -1.4,-0.84 -2.1,-0.72l-4.3 0.78c-0.86,0.07 -1.55,-0.25 -2.21,-0.56 -0.6,-0.28 -1.17,-0.55 -1.81,-0.49l-0.72 0.07 0 7.96 1.69 -0.15c0.12,-0.01 0.24,-0.02 0.36,-0.02z"/>
    <path class="fil3 str2" d="M9.99 32.89l-3.65 0c-0.6,0 -1.08,-0.49 -1.08,-1.09l0 -9.8c0,-0.6 0.48,-1.09 1.08,-1.09l3.65 0c0.6,0 1.09,0.49 1.09,1.09l0 9.8c0,0.6 -0.49,1.09 -1.09,1.09zm-3.65 -11.34c-0.24,0 -0.44,0.2 -0.44,0.45l0 9.8c0,0.25 0.2,0.45 0.44,0.45l3.65 0c0.25,0 0.45,-0.2 0.45,-0.45l0 -9.8c0,-0.25 -0.2,-0.45 -0.45,-0.45l-3.65 0z"/>
    <path class="fil4 str3" d="M22.87 24.83c0.08,0.15 0.09,0.41 -0.09,0.69 -0.28,0.44 -0.91,0.79 -2.44,0.61 -1.14,-0.14 -2.5,0.13 -3.68,0.25"/>
   </g>
  </g>
  <g id="_2201527467536">
   <path class="fil5" d="M5.44 16.73c0.58,0.12 1.26,0.42 2.29,0.63 0.83,0.16 1.73,0.25 2.61,0.25 0.89,0 1.77,-0.09 2.62,-0.25 0.65,-0.13 2.22,-0.61 2.29,-0.62 -0.05,1.05 -3.71,1.34 -4.86,1.35 -0.72,0.01 -4.86,-0.15 -4.95,-1.36zm0.19 -0.45c0.27,-0.29 0.6,-0.5 0.89,-0.78 0.3,-0.27 0.62,-0.52 0.93,-0.76 0.59,-0.47 0.27,-0.44 1.25,-0.44l3.33 0c0.98,0 0.62,0.02 1.21,0.43l0.92 0.77c0.18,0.18 0.3,0.24 0.46,0.38 0.22,0.2 0.35,0.25 0.43,0.4 -0.88,0.56 -3.67,0.87 -4.76,0.86 -1.11,0 -3.83,-0.35 -4.66,-0.86zm2.4 -3.4c0.65,0.13 1.39,0.37 2.04,0.54 0.35,0.09 0.68,0.18 1.02,0.27 0.27,0.08 0.76,0.24 0.98,0.28l-4.05 -0.01 0.01 -1.08zm0.04 -0.25c-0.32,-0.08 -0.39,-0.12 -0.31,-0.53l5.08 1.32c0.04,0.17 0.08,0.28 0.03,0.47 -0.33,-0.03 -4.04,-1.07 -4.8,-1.26zm0.33 -0.62c-0.32,-0.08 -0.38,-0.03 -0.37,-0.36l4.64 1.2 0 0.25 -4.27 -1.09zm-0.69 -1.05c0.47,0 4.14,1.05 5.08,1.23 0.05,0.17 0.08,0.23 0.03,0.4 -0.29,-0.02 -3.5,-0.86 -4.05,-1.01 -1.01,-0.27 -1.12,-0.15 -1.06,-0.62zm0.31 -0.53c0.27,0.01 2.99,0.79 3.63,0.97 0.92,0.25 1.02,0.14 1.01,0.51l-4.64 -1.17 0 -0.31zm4.88 0.03c0.07,-0.04 0.03,-0.07 0.32,-0.06 0.09,0.01 0.21,0.02 0.3,0.03l7.37 0.6c0.44,0.04 0.88,0 1.02,0.2 -0.41,0.06 -6.82,-0.53 -7.94,-0.62l-1.07 -0.15zm-5.13 -0.83c0.4,0.06 0.98,0.25 1.4,0.36l2.79 0.74c0.68,0.17 1.09,0.16 0.9,0.72 -0.28,-0.02 -2.32,-0.62 -2.77,-0.74l-2.11 -0.57c-0.27,-0.09 -0.29,-0.23 -0.21,-0.51zm4.88 1.02c-0.45,-0.08 -3.61,-0.91 -3.81,-1.04l0.24 -0.01 3.4 0 0.19 0.02 -0.02 1.03zm-5.17 -1.7c0.34,-0.01 1.45,0.31 2.91,0.3 1.14,-0.01 1.87,-0.2 2.89,-0.37 -0.48,0.41 -0.45,0.4 -1.25,0.4 -0.55,0 -1.09,-0.03 -1.64,-0.03 -0.55,-0.01 -1.09,0.03 -1.64,0.03 -1.3,0 -0.71,-0.05 -1.27,-0.33zm6.72 -0.99c0.38,-0.14 0.69,-0.36 0.98,-0.47 -0.23,0.51 -1.43,0.86 -2.16,1.03 -2.01,0.48 -4.96,0.44 -6.84,-0.51 -0.28,-0.15 -0.81,-0.42 -0.82,-0.73 0.3,0.1 0.68,0.32 1.03,0.46 2.01,0.77 4.52,0.87 6.62,0.52 0.42,-0.07 0.82,-0.17 1.19,-0.3zm-5.01 -2.5c1.67,-0.12 4.16,0.02 5.52,0.68 1.16,0.57 0.3,1.09 -0.54,1.39 -0.73,0.27 -1.79,0.41 -2.64,0.45 -1.97,0.11 -3.76,-0.02 -5.4,-0.77 -0.55,-0.26 -0.94,-0.38 -0.6,-0.76 0.55,-0.64 2.82,-0.92 3.66,-0.99zm3.73 4.15c0.2,-0.08 1.24,-0.84 1.54,-1.04 0.54,-0.36 1.16,-0.58 1.22,-1.39 0.04,-0.48 0.06,-0.68 -0.21,-1 -1.21,-1.38 -7.63,-1.52 -9.72,-0.36 -0.28,0.15 -0.55,0.38 -0.68,0.62 -0.09,0.18 -0.13,0.95 -0.11,1.2 0.22,0.14 0.38,0.34 0.63,0.51 0.21,0.15 0.42,0.26 0.66,0.44 0.2,0.15 0.43,0.28 0.65,0.44 0.24,0.16 0.42,0.31 0.65,0.44 -0.06,0.23 -0.12,0.36 -0.02,0.62 0.14,0.39 0.23,0.05 0.24,0.47 -0.04,0.19 -0.33,0.11 -0.32,0.55 0,0.4 0.19,0.35 0.32,0.55 -0.04,0.32 0.02,0.02 -0.18,0.28 -0.35,0.46 0.17,0.9 0.18,0.96l0 1.08c-0.47,0.31 -1.53,1.23 -2.07,1.69 -0.43,0.37 -0.41,0.44 -0.72,0.33l-0.09 0.42c0,0 0.04,0.09 0.05,0.17 0.01,0.09 0,0.16 0.01,0.24 0.05,0.79 1.08,1.15 1.77,1.34 2.2,0.57 5.11,0.56 7.3,-0.05 0.78,-0.22 1.69,-0.53 1.72,-1.34 0.03,-0.6 0.11,-0.1 0.01,-0.52 -0.02,-0.1 -0.02,-0.14 -0.02,-0.24 -0.25,0.06 -0.26,0.07 -0.43,-0.07l-1.62 -1.37c-0.24,-0.22 -0.41,-0.3 -0.61,-0.53 0.18,-0.47 0.07,-0.48 -0.11,-0.84 -0.21,-0.43 0.19,-0.42 0.14,-0.84 -0.02,-0.17 -0.15,-0.27 -0.17,-0.42 -0.08,-0.44 0.5,-0.29 0.07,-1.16 0.65,-0.02 1.63,0.12 2.31,0.18l4.68 0.38c0.4,0.04 0.8,0.07 1.2,0.1 0.47,0.04 0.68,0.13 0.99,-0.13 0.03,-0.48 -0.42,-0.47 -0.85,-0.5l-8.4 -0.68 -0.01 -0.53z"/>
   <path class="fil6" d="M5.63 16.28c0.83,0.51 3.55,0.86 4.66,0.86 1.09,0.01 3.88,-0.3 4.76,-0.86 -0.08,-0.15 -0.21,-0.2 -0.43,-0.4 -0.16,-0.14 -0.28,-0.2 -0.46,-0.38l-0.92 -0.77c-0.59,-0.41 -0.23,-0.43 -1.21,-0.43l-3.33 0c-0.98,0 -0.66,-0.03 -1.25,0.44 -0.31,0.24 -0.63,0.49 -0.93,0.76 -0.29,0.28 -0.62,0.49 -0.89,0.78z"/>
   <path class="fil7" d="M9.19 5.46c-0.84,0.07 -3.11,0.35 -3.66,0.99 -0.34,0.38 0.05,0.5 0.6,0.76 1.64,0.75 3.43,0.88 5.4,0.77 0.85,-0.04 1.91,-0.18 2.64,-0.45 0.84,-0.3 1.7,-0.82 0.54,-1.39 -1.36,-0.66 -3.85,-0.8 -5.52,-0.68z"/>
   <path class="fil8" d="M25.92 6.48l-0.89 -0.37 -4.12 9.55c-0.17,0.41 -0.45,0.97 -0.58,1.39l0.9 0.38 4.69 -10.95z"/>
   <path class="fil9" d="M5.44 16.73c0.09,1.21 4.23,1.37 4.95,1.36 1.15,-0.01 4.81,-0.3 4.86,-1.35 -0.07,0.01 -1.64,0.49 -2.29,0.62 -0.85,0.16 -1.73,0.25 -2.62,0.25 -0.88,0 -1.78,-0.09 -2.61,-0.25 -1.03,-0.21 -1.71,-0.51 -2.29,-0.63z"/>
   <path class="fil5" d="M24.93 11.36c0.01,-0.01 0.02,-0.03 0.03,-0.02l0.07 -0.02c0.01,0 0.03,0 0.04,0l6.59 0.51c0.1,0.05 0.03,0.01 0.08,0.08 -0.23,0.12 -5.29,-0.37 -6.42,-0.44 -0.23,-0.01 -0.32,0.03 -0.39,-0.11zm5.12 0.72c0.39,0.04 1.66,0.24 1.88,0.02 0.26,-0.26 -0.03,-0.51 -0.35,-0.55l-2.94 -0.21c-1.32,-0.11 -2.65,-0.22 -3.98,-0.3 0.02,0.62 -0.12,0.63 0.46,0.66l4.93 0.38z"/>
   <path class="fil9" d="M15.18 7.49c-0.29,0.11 -0.6,0.33 -0.98,0.47 -0.37,0.13 -0.77,0.23 -1.19,0.3 -2.1,0.35 -4.61,0.25 -6.62,-0.52 -0.35,-0.14 -0.73,-0.36 -1.03,-0.46 0.01,0.31 0.54,0.58 0.82,0.73 1.88,0.95 4.83,0.99 6.84,0.51 0.73,-0.17 1.93,-0.52 2.16,-1.03z"/>
   <path class="fil8" d="M20.46 7.6c0.42,0.51 0.95,1.35 1.36,1.83 0.17,0.21 0.31,0.44 0.47,0.61 0.15,-0.1 0.2,-0.13 0.38,-0.28 0.13,-0.1 0.3,-0.2 0.4,-0.28 -0.05,-0.1 -1.65,-2.32 -1.83,-2.46l-0.78 0.58z"/>
   <path class="fil8" d="M19.11 14.33c0.36,-0.19 2.41,-1.35 2.61,-1.53l-0.48 -0.81c-0.24,0.07 -1.59,0.89 -1.99,1.12 -0.18,0.11 -0.49,0.24 -0.62,0.39 0.11,0.25 0.34,0.6 0.48,0.83z"/>
   <path class="fil8" d="M24.82 12.5c-0.17,0.1 -0.66,0.48 -0.75,0.66l1.3 1.57c0.13,0.18 0.3,0.37 0.44,0.5 0.26,-0.14 0.49,-0.4 0.75,-0.57 -0.05,-0.14 -1.56,-1.99 -1.74,-2.16z"/>
   <path class="fil9" d="M12.86 11.45c0.19,-0.56 -0.22,-0.55 -0.9,-0.72l-2.79 -0.74c-0.42,-0.11 -1,-0.3 -1.4,-0.36 -0.08,0.28 -0.06,0.42 0.21,0.51l2.11 0.57c0.45,0.12 2.49,0.72 2.77,0.74z"/>
   <polygon class="fil8" points="25.61,9.38 25.99,10.29 28.29,9.27 27.91,8.37 "/>
   <path class="fil9" d="M12.87 13.89c0.05,-0.19 0.01,-0.3 -0.03,-0.47l-5.08 -1.32c-0.08,0.41 -0.01,0.45 0.31,0.53 0.76,0.19 4.47,1.23 4.8,1.26z"/>
   <path class="fil10" d="M8.02 13.96l4.05 0.01c-0.22,-0.04 -0.71,-0.2 -0.98,-0.28 -0.34,-0.09 -0.67,-0.18 -1.02,-0.27 -0.65,-0.17 -1.39,-0.41 -2.04,-0.54l-0.01 1.08z"/>
   <path class="fil10" d="M12.65 10.65l0.02 -1.03 -0.19 -0.02 -3.4 0 -0.24 0.01c0.2,0.13 3.36,0.96 3.81,1.04z"/>
   <path class="fil9" d="M12.82 12.59c0.05,-0.17 0.02,-0.23 -0.03,-0.4 -0.94,-0.18 -4.61,-1.23 -5.08,-1.23 -0.06,0.47 0.05,0.35 1.06,0.62 0.55,0.15 3.76,0.99 4.05,1.01z"/>
   <path class="fil10" d="M8.02 10.74l4.64 1.17c0.01,-0.37 -0.09,-0.26 -1.01,-0.51 -0.64,-0.18 -3.36,-0.96 -3.63,-0.97l0 0.31z"/>
   <path class="fil9" d="M12.9 10.46l1.07 0.15c1.12,0.09 7.53,0.68 7.94,0.62 -0.14,-0.2 -0.58,-0.16 -1.02,-0.2l-7.37 -0.6c-0.09,-0.01 -0.21,-0.02 -0.3,-0.03 -0.29,-0.01 -0.25,0.02 -0.32,0.06z"/>
   <path class="fil10" d="M12.67 13.1l0 -0.25 -4.64 -1.2c-0.01,0.33 0.05,0.28 0.37,0.36l4.27 1.09z"/>
   <path class="fil9" d="M24.93 11.36c0.07,0.14 0.16,0.1 0.39,0.11 1.13,0.07 6.19,0.56 6.42,0.44 -0.05,-0.07 0.02,-0.03 -0.08,-0.08l-6.59 -0.51c-0.01,0 -0.03,0 -0.04,0l-0.07 0.02c-0.01,-0.01 -0.02,0.01 -0.03,0.02z"/>
   <path class="fil6" d="M7.48 8.95c0.56,0.28 -0.03,0.33 1.27,0.33 0.55,0 1.09,-0.04 1.64,-0.03 0.55,0 1.09,0.03 1.64,0.03 0.8,0 0.77,0.01 1.25,-0.4 -1.02,0.17 -1.75,0.36 -2.89,0.37 -1.46,0.01 -2.57,-0.31 -2.91,-0.3z"/>
  </g>
 </g>
</svg>
