<?xml version="1.0" encoding="UTF-8"?>
<!DOCTYPE svg PUBLIC "-//W3C//DTD SVG 1.1//EN" "http://www.w3.org/Graphics/SVG/1.1/DTD/svg11.dtd">
<!-- Creator: CorelDRAW 2021 (64 Bit) -->
<svg xmlns="http://www.w3.org/2000/svg" xml:space="preserve" width="752px" height="752px" version="1.1" style="shape-rendering:geometricPrecision; text-rendering:geometricPrecision; image-rendering:optimizeQuality; fill-rule:evenodd; clip-rule:evenodd"
viewBox="0 0 126.52 126.39"
 xmlns:xlink="http://www.w3.org/1999/xlink"
 xmlns:xodm="http://www.corel.com/coreldraw/odm/2003">
 <defs>
  <style type="text/css">
   <![CDATA[
    .str2 {stroke:#AEA19E;stroke-width:2.69;stroke-miterlimit:22.9256;stroke-opacity:0.949020}
    .str0 {stroke:#B8B4B6;stroke-width:8.41;stroke-miterlimit:22.9256}
    .str1 {stroke:white;stroke-width:0.34;stroke-miterlimit:22.9256}
    .str3 {stroke:black;stroke-width:2.02;stroke-miterlimit:22.9256}
    .fil9 {fill:none}
    .fil6 {fill:#E6E7E8}
    .fil4 {fill:#FFF212}
    .fil5 {fill:aqua}
    .fil3 {fill:red}
    .fil0 {fill:snow}
    .fil1 {fill:#373435;fill-rule:nonzero}
    .fil2 {fill:black;fill-rule:nonzero}
    .fil7 {fill:#333333;fill-rule:nonzero}
    .fil8 {fill:#FEFEFE;fill-rule:nonzero;fill-opacity:0.949020}
   ]]>
  </style>
 </defs>
 <g id="Camada_x0020_1">
  <metadata id="CorelCorpID_0Corel-Layer"/>
  <g id="_2096031101728">
   <path class="fil0 str0" d="M9.51 4.2l107.63 0c2.86,0 5.18,2.65 5.18,5.91l0 106.17c0,3.26 -2.32,5.91 -5.18,5.91l-107.63 0c-2.86,0 -5.18,-2.65 -5.18,-5.91 0,-12.75 -0.19,-102.82 -0.1,-107.45 0.04,-2.55 3.14,-4.63 5.28,-4.63z"/>
   <g>
    <g>
     <path class="fil1" d="M43.85 47.19c0.16,-0.15 0.28,-0.34 0.36,-0.55 0.18,-0.41 0.18,-0.87 0,-1.28 -0.53,-1.28 -0.03,-2.42 0.61,-3.06 0.63,-0.63 1.77,-1.13 3.05,-0.6 0.86,0.35 1.84,-0.06 2.19,-0.92l1.57 -3.8c0.18,-0.41 0.17,-0.87 0,-1.29 -0.17,-0.41 -0.49,-0.73 -0.91,-0.91 -1.27,-0.52 -1.73,-1.68 -1.73,-2.58 0,-0.9 0.45,-2.06 1.73,-2.59 0.85,-0.36 1.26,-1.34 0.9,-2.2l-1.57 -3.79c-0.17,-0.42 -0.5,-0.74 -0.91,-0.91 -0.42,-0.17 -0.88,-0.17 -1.29,0 -1.28,0.53 -2.41,0.04 -3.05,-0.6 -0.64,-0.64 -1.14,-1.78 -0.61,-3.06 0.17,-0.41 0.17,-0.87 -0.01,-1.28 -0.17,-0.42 -0.49,-0.74 -0.91,-0.91l-3.8 -1.57c-0.85,-0.36 -1.84,0.05 -2.19,0.91 -0.53,1.28 -1.68,1.73 -2.59,1.73 -0.9,0 -2.06,-0.45 -2.59,-1.72 -0.35,-0.86 -1.34,-1.27 -2.2,-0.91l-3.79 1.58c-0.42,0.17 -0.74,0.49 -0.91,0.91 -0.17,0.41 -0.17,0.87 0,1.29 0.53,1.27 0.04,2.41 -0.6,3.05 0,0 0,0 0,0 -0.64,0.64 -1.78,1.13 -3.05,0.61 -0.42,-0.17 -0.88,-0.17 -1.29,0 -0.42,0.17 -0.74,0.49 -0.91,0.91l-1.57 3.8c-0.17,0.42 -0.17,0.87 0,1.29 0.17,0.41 0.5,0.74 0.91,0.91 1.28,0.52 1.73,1.68 1.73,2.58 0,0.91 -0.45,2.06 -1.72,2.59 -0.86,0.35 -1.27,1.34 -0.91,2.2l1.57 3.79c0.18,0.42 0.5,0.74 0.92,0.91 0.41,0.18 0.87,0.18 1.28,0 1.28,-0.53 2.42,-0.03 3.06,0.61 0.64,0.64 1.13,1.77 0.61,3.05l0 0c-0.18,0.41 -0.18,0.87 0,1.29 0.17,0.41 0.49,0.73 0.91,0.9l3.8 1.57c0.41,0.18 0.87,0.18 1.29,0 0.41,-0.17 0.73,-0.49 0.91,-0.91 0.52,-1.27 1.68,-1.73 2.58,-1.73 0.9,0 2.06,0.45 2.59,1.73 0.36,0.85 1.34,1.26 2.2,0.9l3.79 -1.57c0.21,-0.09 0.4,-0.21 0.55,-0.37zm-0.23 -6.08c-1.31,1.31 -1.68,3.19 -0.97,4.9l-3.79 1.56c-0.7,-1.71 -2.29,-2.77 -4.14,-2.77 -1.85,0.01 -3.44,1.07 -4.15,2.78l-3.77 -1.57c0.7,-1.71 0.32,-3.58 -0.99,-4.88 -1.31,-1.31 -3.19,-1.68 -4.9,-0.97l-1.56 -3.79c1.71,-0.7 2.77,-2.29 2.77,-4.14 0,-1.85 -1.07,-3.44 -2.78,-4.15l1.57 -3.79c1.7,0.72 3.58,0.34 4.89,-0.97 0,0 0,0 0,0 1.3,-1.31 1.68,-3.19 0.97,-4.9l3.78 -1.56c0.7,1.71 2.29,2.77 4.14,2.77 1.86,-0.01 3.45,-1.07 4.15,-2.78l3.79 1.57c-0.72,1.7 -0.34,3.58 0.97,4.88 1.31,1.31 3.19,1.68 4.9,0.97l1.56 3.79c-1.71,0.7 -2.77,2.29 -2.77,4.14 0.01,1.85 1.07,3.44 2.78,4.15l-1.57 3.78c-1.7,-0.71 -3.57,-0.33 -4.88,0.98z"/>
     <path class="fil1" d="M41.2 42.84c0.1,-0.11 0.19,-0.24 0.25,-0.39 0.12,-0.29 0.12,-0.61 0,-0.91 -0.37,-0.9 -0.02,-1.71 0.43,-2.16 0.45,-0.46 1.26,-0.81 2.16,-0.44 0.61,0.25 1.31,-0.04 1.56,-0.65l1.12 -2.69c0.12,-0.3 0.12,-0.62 0,-0.91 -0.13,-0.3 -0.36,-0.53 -0.65,-0.65 -0.91,-0.37 -1.23,-1.19 -1.23,-1.83 0,-0.65 0.32,-1.47 1.23,-1.84 0.6,-0.25 0.89,-0.95 0.64,-1.56l-1.12 -2.69c-0.12,-0.3 -0.35,-0.53 -0.65,-0.65 -0.29,-0.12 -0.61,-0.12 -0.91,0 -0.9,0.38 -1.71,0.03 -2.17,-0.43 -0.45,-0.45 -0.8,-1.26 -0.43,-2.16 0.12,-0.3 0.12,-0.62 0,-0.92 -0.12,-0.29 -0.35,-0.52 -0.65,-0.64l-2.69 -1.11c-0.61,-0.26 -1.31,0.04 -1.56,0.64 -0.37,0.91 -1.19,1.23 -1.83,1.23 -0.65,0 -1.47,-0.32 -1.84,-1.22 -0.25,-0.61 -0.95,-0.9 -1.56,-0.65l-2.69 1.12c-0.3,0.12 -0.53,0.35 -0.65,0.65 -0.12,0.29 -0.12,0.62 0,0.91 0.38,0.91 0.03,1.71 -0.43,2.17 0,0 0,0 0,0 -0.45,0.45 -1.26,0.8 -2.16,0.43 -0.3,-0.12 -0.62,-0.12 -0.92,0 -0.29,0.12 -0.52,0.35 -0.64,0.65l-1.11 2.69c-0.13,0.3 -0.13,0.62 0,0.92 0.12,0.29 0.35,0.52 0.64,0.64 0.91,0.38 1.23,1.2 1.23,1.84 0,0.64 -0.32,1.46 -1.22,1.83 -0.61,0.26 -0.9,0.96 -0.65,1.56l1.12 2.7c0.12,0.29 0.35,0.52 0.65,0.64 0.29,0.12 0.62,0.12 0.91,0 0.9,-0.37 1.71,-0.02 2.17,0.43 0.45,0.45 0.8,1.26 0.43,2.17l0 0c-0.12,0.29 -0.12,0.61 0,0.91 0.12,0.29 0.35,0.52 0.65,0.64l2.69 1.12c0.3,0.12 0.62,0.12 0.92,0 0.29,-0.13 0.52,-0.36 0.64,-0.65 0.38,-0.9 1.19,-1.23 1.84,-1.23 0.64,0 1.46,0.32 1.83,1.23 0.26,0.6 0.96,0.89 1.56,0.64l2.7 -1.12c0.14,-0.06 0.28,-0.15 0.39,-0.26zm-0.17 -4.31c-0.93,0.93 -1.19,2.26 -0.69,3.47l-2.69 1.11c-0.49,-1.21 -1.62,-1.96 -2.93,-1.96 -1.32,0 -2.45,0.76 -2.95,1.97l-2.67 -1.12c0.49,-1.21 0.22,-2.54 -0.7,-3.46 -0.93,-0.93 -2.27,-1.19 -3.48,-0.69l-1.11 -2.69c1.21,-0.49 1.97,-1.62 1.96,-2.94 0,-1.31 -0.75,-2.44 -1.97,-2.94l1.12 -2.68c1.2,0.5 2.53,0.24 3.46,-0.69 0,0 0,0 0,0 0.93,-0.93 1.19,-2.27 0.69,-3.48l2.69 -1.11c0.49,1.21 1.62,1.96 2.94,1.96 1.31,0 2.44,-0.75 2.94,-1.97l2.69 1.12c-0.51,1.2 -0.25,2.53 0.69,3.46 0.93,0.93 2.26,1.2 3.47,0.69l1.11 2.69c-1.21,0.49 -1.96,1.62 -1.96,2.94 0,1.31 0.75,2.44 1.97,2.94l-1.12 2.69c-1.2,-0.51 -2.53,-0.24 -3.46,0.69z"/>
     <g>
      <path class="fil2" d="M39.2 36.7c2.48,-2.47 2.47,-6.5 -0.01,-8.98 -2.48,-2.47 -6.51,-2.47 -8.98,0.01 -2.47,2.48 -2.47,6.51 0.01,8.98 2.48,2.48 6.51,2.47 8.98,-0.01zm-7.79 -7.77c1.81,-1.82 4.77,-1.82 6.59,-0.01 1.81,1.81 1.82,4.77 0,6.59 -1.81,1.82 -4.77,1.82 -6.58,0 -1.82,-1.81 -1.83,-4.76 -0.01,-6.58z"/>
      <circle class="fil3" cx="34.71" cy="32.22" r="4.62"/>
     </g>
    </g>
    <g>
     <path class="fil1" d="M82.79 45.75c-0.15,-0.15 -0.28,-0.33 -0.36,-0.54 -0.18,-0.42 -0.18,-0.87 0,-1.29 0.53,-1.27 0.03,-2.41 -0.6,-3.05 -0.64,-0.64 -1.78,-1.14 -3.06,-0.61 -0.85,0.35 -1.84,-0.06 -2.19,-0.92l-1.57 -3.79c-0.17,-0.42 -0.17,-0.88 0,-1.29 0.17,-0.42 0.5,-0.74 0.91,-0.91 1.28,-0.53 1.73,-1.68 1.73,-2.59 0,-0.9 -0.45,-2.06 -1.72,-2.58 -0.86,-0.36 -1.27,-1.35 -0.91,-2.2l1.57 -3.8c0.18,-0.41 0.5,-0.74 0.92,-0.91 0.41,-0.17 0.87,-0.17 1.28,0 1.28,0.53 2.41,0.04 3.06,-0.6 0.64,-0.64 1.13,-1.78 0.61,-3.05 -0.18,-0.42 -0.18,-0.87 0,-1.29 0.17,-0.41 0.49,-0.74 0.91,-0.91l3.8 -1.57c0.85,-0.35 1.84,0.06 2.19,0.91 0.53,1.28 1.68,1.73 2.59,1.74 0.9,0 2.06,-0.46 2.59,-1.73 0.35,-0.86 1.34,-1.26 2.2,-0.91l3.79 1.58c0.42,0.17 0.74,0.49 0.91,0.91 0.17,0.42 0.17,0.87 0,1.29 -0.53,1.27 -0.03,2.41 0.6,3.05 0,0 0,0 0,0 0.64,0.64 1.78,1.14 3.06,0.61 0.41,-0.17 0.87,-0.17 1.28,0 0.42,0.17 0.74,0.5 0.91,0.91l1.57 3.8c0.17,0.42 0.17,0.88 0,1.29 -0.17,0.42 -0.49,0.74 -0.91,0.91 -1.27,0.53 -1.73,1.68 -1.73,2.58 0,0.91 0.45,2.06 1.73,2.59 0.85,0.36 1.26,1.35 0.9,2.2l-1.57 3.8c-0.18,0.41 -0.5,0.74 -0.92,0.91 -0.41,0.17 -0.87,0.17 -1.28,0 -1.28,-0.53 -2.41,-0.04 -3.05,0.6 -0.64,0.64 -1.14,1.78 -0.61,3.05l0 0c0.17,0.42 0.17,0.87 -0.01,1.29 -0.17,0.41 -0.49,0.74 -0.91,0.91l-3.8 1.57c-0.41,0.17 -0.87,0.17 -1.28,0 -0.42,-0.18 -0.74,-0.5 -0.91,-0.92 -0.53,-1.27 -1.68,-1.72 -2.59,-1.73 -0.9,0 -2.06,0.46 -2.59,1.73 -0.35,0.86 -1.34,1.26 -2.2,0.91l-3.79 -1.58c-0.21,-0.09 -0.4,-0.21 -0.55,-0.37zm0.23 -6.08c1.31,1.31 1.68,3.19 0.97,4.9l3.79 1.56c0.7,-1.7 2.29,-2.77 4.14,-2.76 1.85,0 3.45,1.06 4.15,2.78l3.77 -1.58c-0.7,-1.7 -0.32,-3.57 0.99,-4.88 1.31,-1.31 3.19,-1.68 4.9,-0.97l1.56 -3.79c-1.71,-0.7 -2.77,-2.29 -2.77,-4.14 0.01,-1.85 1.07,-3.44 2.78,-4.15l-1.57 -3.78c-1.7,0.71 -3.58,0.34 -4.88,-0.97 0,0 0,0 0,0 -1.31,-1.32 -1.68,-3.19 -0.97,-4.9l-3.79 -1.56c-0.7,1.7 -2.29,2.76 -4.14,2.76 -1.85,0 -3.44,-1.07 -4.15,-2.78l-3.79 1.58c0.72,1.69 0.34,3.57 -0.97,4.88 -1.31,1.31 -3.19,1.68 -4.9,0.97l-1.56 3.79c1.71,0.69 2.77,2.28 2.77,4.14 0,1.85 -1.07,3.44 -2.78,4.14l1.57 3.79c1.7,-0.72 3.58,-0.34 4.88,0.97z"/>
     <path class="fil1" d="M85.45 41.41c-0.11,-0.11 -0.2,-0.25 -0.26,-0.39 -0.12,-0.3 -0.12,-0.62 0,-0.92 0.37,-0.9 0.02,-1.71 -0.43,-2.16 -0.45,-0.46 -1.26,-0.81 -2.16,-0.43 -0.61,0.25 -1.31,-0.04 -1.56,-0.65l-1.12 -2.7c-0.12,-0.29 -0.12,-0.62 0.01,-0.91 0.12,-0.3 0.35,-0.53 0.64,-0.65 0.91,-0.37 1.23,-1.19 1.23,-1.83 0,-0.64 -0.32,-1.46 -1.22,-1.84 -0.61,-0.25 -0.9,-0.95 -0.65,-1.56l1.12 -2.69c0.12,-0.3 0.35,-0.53 0.65,-0.65 0.29,-0.12 0.62,-0.12 0.91,0 0.9,0.38 1.71,0.03 2.17,-0.42 0.45,-0.46 0.8,-1.26 0.43,-2.17 -0.12,-0.29 -0.12,-0.62 0,-0.91 0.12,-0.3 0.35,-0.53 0.65,-0.65l2.69 -1.11c0.61,-0.25 1.31,0.04 1.56,0.65 0.38,0.9 1.19,1.22 1.84,1.22 0.64,0.01 1.46,-0.32 1.83,-1.22 0.26,-0.61 0.95,-0.9 1.56,-0.64l2.7 1.11c0.29,0.13 0.52,0.36 0.64,0.65 0.12,0.3 0.12,0.62 0,0.92 -0.37,0.9 -0.02,1.71 0.43,2.16 0,0 0,0 0,0 0.45,0.46 1.26,0.81 2.16,0.43 0.3,-0.12 0.62,-0.12 0.92,0 0.29,0.13 0.52,0.36 0.64,0.65l1.12 2.7c0.12,0.29 0.12,0.62 0,0.91 -0.13,0.3 -0.36,0.52 -0.65,0.65 -0.91,0.37 -1.23,1.19 -1.23,1.83 0,0.64 0.32,1.46 1.23,1.84 0.6,0.25 0.89,0.95 0.64,1.56l-1.12 2.69c-0.12,0.29 -0.35,0.52 -0.65,0.65 -0.29,0.12 -0.62,0.12 -0.91,-0.01 -0.9,-0.37 -1.71,-0.02 -2.17,0.43 -0.45,0.46 -0.8,1.26 -0.43,2.17l0 0c0.12,0.29 0.12,0.62 0,0.91 -0.12,0.3 -0.35,0.53 -0.65,0.65l-2.69 1.11c-0.3,0.12 -0.62,0.12 -0.92,0 -0.29,-0.12 -0.52,-0.35 -0.64,-0.65 -0.37,-0.9 -1.19,-1.22 -1.84,-1.23 -0.64,0 -1.46,0.33 -1.83,1.23 -0.25,0.61 -0.95,0.9 -1.56,0.64l-2.7 -1.11c-0.14,-0.07 -0.27,-0.16 -0.38,-0.26zm0.16 -4.32c0.93,0.93 1.19,2.26 0.69,3.47l2.69 1.11c0.49,-1.21 1.62,-1.96 2.94,-1.96 1.31,0 2.44,0.76 2.94,1.97l2.68 -1.11c-0.5,-1.21 -0.23,-2.54 0.69,-3.47 0.94,-0.93 2.27,-1.19 3.48,-0.69l1.11 -2.69c-1.21,-0.49 -1.96,-1.62 -1.96,-2.93 0,-1.32 0.75,-2.44 1.97,-2.95l-1.12 -2.68c-1.2,0.51 -2.53,0.24 -3.46,-0.69 0,0 0,0 0,0 -0.93,-0.93 -1.19,-2.26 -0.69,-3.48l-2.69 -1.1c-0.49,1.2 -1.62,1.96 -2.94,1.96 -1.31,0 -2.44,-0.76 -2.94,-1.98l-2.68 1.12c0.5,1.21 0.24,2.54 -0.69,3.47 -0.93,0.92 -2.27,1.19 -3.48,0.68l-1.11 2.69c1.21,0.5 1.96,1.63 1.96,2.94 0,1.31 -0.75,2.44 -1.97,2.94l1.12 2.69c1.2,-0.51 2.53,-0.24 3.46,0.69z"/>
     <path class="fil2" d="M96.43 35.27c2.48,-2.48 2.47,-6.51 -0.01,-8.99 -2.48,-2.47 -6.51,-2.47 -8.98,0.01 -2.48,2.48 -2.47,6.51 0.01,8.99 2.48,2.47 6.51,2.47 8.98,-0.01zm-7.79 -7.78c1.81,-1.82 4.77,-1.82 6.59,-0.01 1.81,1.82 1.82,4.77 0,6.59 -1.81,1.82 -4.77,1.82 -6.59,0.01 -1.81,-1.82 -1.82,-4.77 0,-6.59z"/>
     <circle class="fil4" cx="91.94" cy="30.78" r="4.62"/>
    </g>
    <g>
     <path class="fil2" d="M68.2 58.27c2.47,-2.48 2.47,-6.51 -0.01,-8.99 -2.48,-2.47 -6.51,-2.47 -8.99,0.01 -2.47,2.48 -2.47,6.51 0.01,8.99 2.48,2.47 6.51,2.47 8.99,-0.01zm-7.8 -7.78c1.82,-1.82 4.77,-1.82 6.59,-0.01 1.82,1.82 1.82,4.77 0.01,6.59 -1.82,1.82 -4.77,1.82 -6.59,0.01 -1.82,-1.82 -1.82,-4.77 -0.01,-6.59z"/>
     <g>
      <path class="fil1" d="M60.95 71.31c-0.2,-0.08 -0.38,-0.21 -0.54,-0.37 -0.32,-0.31 -0.5,-0.73 -0.5,-1.18 -0.01,-1.38 -0.9,-2.24 -1.74,-2.58 -0.84,-0.34 -2.08,-0.36 -3.05,0.62 -0.65,0.66 -1.72,0.66 -2.38,0.01l-2.92 -2.89c-0.32,-0.32 -0.5,-0.74 -0.5,-1.19 0,-0.45 0.17,-0.87 0.49,-1.19 0.97,-0.98 0.94,-2.22 0.59,-3.06 -0.35,-0.83 -1.21,-1.72 -2.59,-1.71 -0.93,0 -1.69,-0.75 -1.69,-1.68l-0.02 -4.11c0,-0.45 0.17,-0.87 0.49,-1.19 0.31,-0.32 0.73,-0.5 1.18,-0.5 1.38,0 2.24,-0.9 2.58,-1.74 0.34,-0.83 0.36,-2.08 -0.62,-3.05 -0.32,-0.31 -0.49,-0.73 -0.5,-1.18 0,-0.45 0.17,-0.88 0.49,-1.2l2.89 -2.91c0.66,-0.66 1.72,-0.67 2.38,-0.02 0.98,0.97 2.22,0.95 3.06,0.6 0.83,-0.35 1.72,-1.22 1.71,-2.6 0,-0.93 0.75,-1.68 1.68,-1.69l4.11 -0.02c0.45,0 0.87,0.17 1.19,0.49 0.32,0.32 0.5,0.74 0.5,1.19 0.01,1.38 0.9,2.24 1.74,2.58 0,0 0,0 0,0 0.84,0.34 2.08,0.36 3.05,-0.62 0.31,-0.32 0.74,-0.5 1.18,-0.5 0.45,0 0.88,0.17 1.2,0.49l2.92 2.89c0.32,0.32 0.49,0.74 0.5,1.19 0,0.45 -0.18,0.87 -0.49,1.19 -0.97,0.98 -0.94,2.22 -0.59,3.05 0.35,0.84 1.21,1.72 2.59,1.72 0.93,-0.01 1.69,0.74 1.69,1.67l0.02 4.11c0,0.45 -0.17,0.88 -0.49,1.19 -0.31,0.32 -0.74,0.5 -1.19,0.5 -1.37,0.01 -2.23,0.91 -2.57,1.74 -0.35,0.84 -0.36,2.08 0.62,3.05l0 0c0.32,0.32 0.49,0.74 0.49,1.19 0.01,0.45 -0.17,0.87 -0.48,1.19l-2.9 2.92c-0.31,0.32 -0.73,0.5 -1.18,0.5 -0.45,0 -0.88,-0.17 -1.2,-0.49 -0.98,-0.97 -2.21,-0.94 -3.05,-0.59 -0.83,0.35 -1.72,1.21 -1.72,2.59 0.01,0.93 -0.74,1.69 -1.67,1.69l-4.11 0.02c-0.23,0 -0.45,-0.04 -0.65,-0.12zm-2.14 -5.7c1.71,0.7 2.78,2.29 2.79,4.14l4.1 -0.03c-0.02,-1.84 1.04,-3.44 2.74,-4.16 1.71,-0.71 3.59,-0.35 4.91,0.96l2.86 -2.91c-1.3,-1.31 -1.68,-3.18 -0.98,-4.89 0.7,-1.71 2.28,-2.78 4.14,-2.79l-0.04 -4.1c-1.84,0.02 -3.43,-1.04 -4.15,-2.74 -0.72,-1.71 -0.35,-3.59 0.95,-4.91l-2.92 -2.87c-1.28,1.31 -3.16,1.7 -4.87,0.99 0,0 0,0 0,0 -1.72,-0.7 -2.79,-2.28 -2.8,-4.13l-4.09 0.03c0.02,1.84 -1.04,3.43 -2.75,4.15 -1.71,0.72 -3.58,0.35 -4.9,-0.95l-2.88 2.92c1.32,1.28 1.7,3.16 1,4.87 -0.7,1.72 -2.29,2.79 -4.14,2.8l0.03 4.09c1.84,-0.02 3.44,1.04 4.16,2.75 0.71,1.71 0.35,3.58 -0.96,4.9l2.92 2.88c1.29,-1.32 3.16,-1.7 4.88,-1z"/>
      <path class="fil1" d="M61.71 66.27c-0.14,-0.06 -0.27,-0.15 -0.38,-0.26 -0.23,-0.22 -0.36,-0.52 -0.36,-0.84 0,-0.98 -0.64,-1.59 -1.23,-1.83 -0.6,-0.24 -1.48,-0.26 -2.17,0.44 -0.46,0.47 -1.22,0.47 -1.68,0.01l-2.08 -2.06c-0.22,-0.22 -0.35,-0.52 -0.35,-0.84 0,-0.32 0.12,-0.62 0.35,-0.84 0.69,-0.7 0.67,-1.58 0.42,-2.17 -0.25,-0.59 -0.86,-1.22 -1.84,-1.22 -0.66,0 -1.2,-0.53 -1.2,-1.19l-0.02 -2.91c0,-0.32 0.13,-0.62 0.35,-0.85 0.22,-0.23 0.52,-0.35 0.84,-0.35 0.98,-0.01 1.59,-0.64 1.83,-1.24 0.25,-0.59 0.26,-1.47 -0.44,-2.16 -0.22,-0.23 -0.35,-0.52 -0.35,-0.84 0,-0.32 0.12,-0.62 0.34,-0.85l2.06 -2.07c0.46,-0.47 1.22,-0.47 1.69,-0.01 0.69,0.69 1.57,0.67 2.16,0.42 0.59,-0.25 1.22,-0.86 1.22,-1.84 0,-0.66 0.53,-1.19 1.19,-1.2l2.92 -0.01c0.31,0 0.61,0.12 0.84,0.34 0.23,0.23 0.35,0.53 0.35,0.85 0.01,0.98 0.65,1.58 1.24,1.83 0,0 0,0 0,0 0.59,0.24 1.47,0.25 2.16,-0.44 0.23,-0.23 0.53,-0.36 0.84,-0.36 0.32,0 0.62,0.12 0.85,0.35l2.07 2.05c0.23,0.23 0.35,0.53 0.36,0.84 0,0.32 -0.13,0.62 -0.35,0.85 -0.69,0.69 -0.67,1.57 -0.42,2.17 0.25,0.59 0.86,1.22 1.84,1.21 0.66,0 1.2,0.53 1.2,1.19l0.01 2.92c0,0.32 -0.12,0.62 -0.34,0.84 -0.23,0.23 -0.53,0.36 -0.85,0.36 -0.97,0 -1.58,0.64 -1.82,1.23 -0.25,0.6 -0.26,1.48 0.44,2.17l0 0c0.22,0.22 0.35,0.52 0.35,0.84 0,0.32 -0.12,0.62 -0.35,0.84l-2.05 2.08c-0.22,0.22 -0.52,0.35 -0.84,0.35 -0.32,0 -0.62,-0.12 -0.85,-0.35 -0.69,-0.68 -1.57,-0.66 -2.16,-0.42 -0.6,0.25 -1.23,0.87 -1.22,1.84 0,0.66 -0.53,1.2 -1.19,1.2l-2.92 0.02c-0.16,0 -0.31,-0.03 -0.46,-0.09zm-1.52 -4.04c1.22,0.49 1.98,1.62 1.98,2.93l2.91 -0.02c-0.01,-1.3 0.74,-2.44 1.95,-2.95 1.21,-0.5 2.54,-0.25 3.48,0.68l2.03 -2.07c-0.93,-0.92 -1.2,-2.25 -0.7,-3.46 0.5,-1.22 1.62,-1.98 2.94,-1.98l-0.02 -2.91c-1.31,0.01 -2.44,-0.74 -2.95,-1.95 -0.51,-1.21 -0.25,-2.54 0.68,-3.48l-2.08 -2.04c-0.91,0.93 -2.24,1.21 -3.46,0.71 0,0 0,0 0,0 -1.21,-0.5 -1.97,-1.62 -1.98,-2.94l-2.91 0.02c0.02,1.31 -0.73,2.44 -1.94,2.95 -1.21,0.51 -2.55,0.25 -3.48,-0.67l-2.04 2.07c0.93,0.91 1.2,2.24 0.71,3.46 -0.5,1.21 -1.63,1.97 -2.94,1.98l0.02 2.91c1.31,-0.02 2.44,0.73 2.95,1.94 0.51,1.22 0.25,2.55 -0.68,3.48l2.07 2.04c0.92,-0.93 2.25,-1.2 3.46,-0.7z"/>
      <circle class="fil5" cx="63.57" cy="53.96" r="4.62"/>
     </g>
    </g>
   </g>
   <g>
    <rect class="fil6 str1" x="20.57" y="74" width="15.77" height="36.28"/>
    <path class="fil7" d="M62.51 112.61c-3.03,0 -6.02,-1.11 -8.92,-2.19 -3.19,-1.18 -6.48,-2.41 -9.75,-2.12l-8.05 0.72 0 -31.25 4.38 -0.39c2.73,-0.23 5.02,0.82 7.23,1.85 2.07,0.97 4.02,1.89 6.27,1.69l14.43 -2.62c5.17,-0.88 8.02,2.1 9.75,4.83l15.75 -7.32c5.95,-2.67 12.63,0.01 16.63,6.66 1.05,1.74 0.47,4.06 -1.3,5.17 -2.05,1.27 -4.08,2.55 -6.09,3.81 -17.6,11.02 -32.79,20.55 -39.3,21.12 -0.34,0.03 -0.69,0.04 -1.03,0.04zm-17.66 -6.51c3.31,0 6.45,1.16 9.5,2.3 3.14,1.17 6.12,2.27 9,2.01 5.99,-0.52 21.7,-10.37 38.34,-20.79 2.01,-1.26 4.05,-2.54 6.09,-3.81 0.78,-0.49 1.05,-1.49 0.6,-2.23 -3.41,-5.67 -8.99,-7.99 -13.88,-5.81l-17.52 8.15c-0.04,-1.14 -0.9,-2.46 -1.38,-3.04 -1.62,-1.92 -4.75,-2.86 -7.12,-2.45l-14.53 2.63c-2.91,0.24 -5.23,-0.83 -7.47,-1.87 -2.03,-0.95 -3.96,-1.85 -6.12,-1.66l-2.41 0.22 0 26.91 5.7 -0.51c0.4,-0.04 0.8,-0.05 1.2,-0.05z"/>
    <path class="fil8 str2" d="M34.28 112.61l-12.33 0c-2.02,0 -3.66,-1.64 -3.66,-3.67l0 -33.14c0,-2.02 1.64,-3.66 3.66,-3.66l12.33 0c2.02,0 3.67,1.64 3.67,3.66l0 33.14c0,2.03 -1.65,3.67 -3.67,3.67zm-12.33 -38.31c-0.83,0 -1.5,0.67 -1.5,1.5l0 33.14c0,0.83 0.67,1.51 1.5,1.51l12.33 0c0.83,0 1.51,-0.68 1.51,-1.51l0 -33.14c0,-0.83 -0.68,-1.5 -1.51,-1.5l-12.33 0z"/>
    <path class="fil9 str3" d="M77.83 85.37c0.27,0.5 0.28,1.38 -0.32,2.35 -0.93,1.49 -3.07,2.64 -8.25,2.04 -3.84,-0.46 -8.45,0.44 -12.45,0.87"/>
   </g>
  </g>
 </g>
</svg>
