<?xml version="1.0" encoding="UTF-8"?>
<!DOCTYPE svg PUBLIC "-//W3C//DTD SVG 1.1//EN" "http://www.w3.org/Graphics/SVG/1.1/DTD/svg11.dtd">
<!-- Creator: CorelDRAW 2021 (64 Bit) -->
<svg xmlns="http://www.w3.org/2000/svg" xml:space="preserve" width="63.6986mm" height="63.6356mm" version="1.1" style="shape-rendering:geometricPrecision; text-rendering:geometricPrecision; image-rendering:optimizeQuality; fill-rule:evenodd; clip-rule:evenodd"
viewBox="0 0 280.32 280.04"
 xmlns:xlink="http://www.w3.org/1999/xlink"
 xmlns:xodm="http://www.corel.com/coreldraw/odm/2003">
 <defs>
  <style type="text/css">
   <![CDATA[
    .str2 {stroke:#AEA19E;stroke-width:5.96;stroke-miterlimit:22.9256;stroke-opacity:0.949020}
    .str0 {stroke:#B8B4B6;stroke-width:18.63;stroke-miterlimit:22.9256}
    .str1 {stroke:white;stroke-width:0.75;stroke-miterlimit:22.9256}
    .str3 {stroke:black;stroke-width:4.47;stroke-miterlimit:22.9256}
    .fil7 {fill:none}
    .fil4 {fill:#E6E7E8}
    .fil3 {fill:black}
    .fil1 {fill:#373435}
    .fil2 {fill:red}
    .fil0 {fill:white}
    .fil5 {fill:#333333;fill-rule:nonzero}
    .fil6 {fill:#FEFEFE;fill-rule:nonzero;fill-opacity:0.949020}
   ]]>
  </style>
 </defs>
 <g id="Camada_x0020_1">
  <metadata id="CorelCorpID_0Corel-Layer"/>
  <g id="_2424840655568">
   <path class="fil0 str0" d="M21.07 9.32l238.47 0c6.33,-0 11.47,5.86 11.47,13.09l0 235.23c0,7.23 -5.14,13.09 -11.47,13.09l-238.47 0c-6.33,-0 -11.47,-5.86 -11.47,-13.1 0,-28.26 -0.42,-227.82 -0.23,-238.07 0.1,-5.66 6.97,-10.25 11.71,-10.25z"/>
   <path class="fil1" d="M118.6 102.44c0.06,-0.44 0.38,-0.74 0.7,-0.52 0.81,0.55 3.65,0.77 4.95,1.13 8.22,1.85 18.02,-1.06 24.3,-2.18 4.22,-0.76 6.08,-1.44 8.02,-1.55 1.29,-0.07 3.21,1.66 5.13,3.12 -1.66,5.94 -0.77,9.74 2.81,13.25 1.44,1.41 3.16,2.66 5.77,3.28 3.27,0.77 4.64,0.1 7.57,-0.58l4.18 10.34c-11.26,4.54 -8.55,19.98 0.13,22.52l-4.41 10.29c-3.07,-0.66 -4.49,-1.42 -7.99,-0.38 -2.22,0.66 -4.4,2.09 -5.5,3.3 -1.07,1.18 -2.54,3.5 -3.05,5.76 -0.75,3.34 -0.06,4.67 0.6,7.49l-1.17 0.87c-0.73,-1.1 -5.55,-2.66 -6.84,-3.48 -4.47,0.11 -21.25,2.06 -23.9,3.07 -1.3,0.27 -6.95,0.63 -7.47,1.16l-3.78 -1.55c1.57,-6.07 0.85,-9.9 -2.76,-13.43 -1.33,-1.3 -3.16,-2.61 -5.58,-3.23 -3.42,-0.88 -4.87,-0.16 -7.8,0.51l-4.17 -10.14c1.4,-1.32 7.46,-3.34 7.49,-11.4 0.01,-2.89 -0.92,-5.39 -2.3,-7.2 -0.87,-1.13 -1.34,-1.62 -2.34,-2.43 -0.97,-0.79 -1.98,-1.09 -2.9,-1.83l4.22 -10.21c8.06,2.35 14.71,-1.23 16.59,-8.22 0.85,-3.16 0.25,-4.9 -0.48,-7.76zm8.43 -0.76c-4.06,-0.7 -5.56,-1.26 -9.1,-4.06 -1.85,0.78 -3.11,1.31 -3.76,3.14 -0.89,2.51 0.62,3.75 0.67,6.21 0.07,3.93 -2.99,7.09 -6.38,7.65 -2.97,0.5 -3.96,-0.92 -6.18,-0.82 -2.19,0.09 -3.43,1.42 -4.13,3.1 -1.38,3.32 -2.69,6.48 -4.04,9.78 -2.23,5.46 3.73,6.56 5.11,8.13 2.49,2.81 2.62,7.17 0.17,10.26 -1.58,2 -7.31,2.77 -5.39,8.07 1.15,3.18 2.7,6.67 4.05,9.76 2.57,5.91 6.4,2.32 9.67,2.5 3.67,0.2 6.71,3.16 7.13,6.66 0.33,2.79 -0.96,3.78 -0.87,5.9 0.1,2.25 1.42,3.39 3.02,4.09 1.19,0.44 4.05,0.35 7.46,-0.32 2.37,-0.39 17.82,-3.48 19.94,-3.96 3.87,-1.48 12.86,0.21 18.7,4.36 5.74,-2.45 2.26,-6.65 2.44,-9.66 0.22,-3.71 3.18,-6.74 6.75,-7.12 3.12,-0.33 7.54,3.16 9.93,-2.21 1.41,-3.16 2.75,-6.52 4.04,-9.79 2.15,-5.45 -3.66,-6.62 -4.98,-7.99 -2.47,-2.57 -2.75,-6.9 -0.52,-10.14 1.69,-2.45 7.37,-2.85 5.68,-8.13l-4.04 -9.78c-2.51,-6.06 -6.33,-2.64 -9.41,-2.67 -3.87,-0.05 -6.89,-2.99 -7.43,-6.44 -0.55,-3.46 3.17,-7.81 -2,-10.15 -3.18,-1.44 -1.62,-0.73 -4.86,-2.07 -4.55,1.18 -13.78,3.08 -23.31,4.93 -1.7,0.29 -3.13,0.65 -8.35,0.75z"/>
   <path class="fil2" d="M122.44 142.46c1.35,8.95 9.37,16.81 20.17,15.3 8.91,-1.24 16.78,-9.55 15.32,-20.25 -1.22,-8.93 -9.56,-16.71 -20.15,-15.26 -8.85,1.21 -16.93,9.61 -15.33,20.21z"/>
   <path class="fil3" d="M122.44 142.46c-1.6,-10.59 6.48,-18.99 15.33,-20.21 10.6,-1.45 18.93,6.33 20.15,15.26 1.47,10.71 -6.41,19.01 -15.32,20.25 -10.8,1.51 -18.82,-6.35 -20.17,-15.3zm15.38 -26.76c-13.72,1.47 -23.35,13.44 -21.92,26.95 1.33,12.59 12.65,23.25 27.05,21.64 12.42,-1.39 23.06,-12.58 21.53,-26.84 -1.35,-12.55 -12.38,-23.28 -26.65,-21.75z"/>
   <g>
    <rect class="fil4 str1" x="40.71" y="164.49" width="34.94" height="80.39"/>
    <path class="fil5" d="M133.62 250.03c-6.7,0 -13.32,-2.46 -19.75,-4.85 -7.06,-2.62 -14.35,-5.35 -21.6,-4.7l-17.85 1.58 0 -69.23 9.71 -0.86c6.05,-0.52 11.12,1.82 16,4.1 4.59,2.14 8.93,4.18 13.91,3.75l31.97 -5.8c11.45,-1.96 17.76,4.65 21.6,10.7l34.91 -16.23c13.17,-5.91 27.97,0.01 36.84,14.75 2.33,3.87 1.03,9.01 -2.89,11.46 -4.53,2.82 -9.03,5.65 -13.49,8.44 -38.98,24.43 -72.65,45.53 -87.06,46.79 -0.77,0.07 -1.53,0.1 -2.3,0.1zm-39.12 -14.43c7.33,0 14.29,2.59 21.04,5.09 6.97,2.59 13.56,5.03 19.96,4.47 13.26,-1.16 48.08,-22.98 84.94,-46.07 4.46,-2.8 8.97,-5.62 13.5,-8.45 1.72,-1.07 2.31,-3.28 1.32,-4.93 -7.56,-12.55 -19.93,-17.71 -30.75,-12.86l-38.82 18.05c-0.08,-2.52 -2,-5.45 -3.07,-6.73 -3.58,-4.27 -10.53,-6.35 -15.77,-5.43l-32.18 5.83c-6.46,0.53 -11.6,-1.85 -16.55,-4.15 -4.51,-2.11 -8.78,-4.1 -13.56,-3.67l-5.35 0.47 0 59.62 12.63 -1.12c0.89,-0.08 1.78,-0.11 2.66,-0.11z"/>
    <path class="fil6 str2" d="M71.09 250.03l-27.32 0c-4.48,0 -8.12,-3.64 -8.12,-8.12l-0 -73.43c0,-4.48 3.64,-8.12 8.12,-8.12l27.32 -0c4.48,0 8.12,3.64 8.12,8.12l0 73.43c0,4.48 -3.65,8.12 -8.12,8.12zm-27.32 -84.89c-1.84,0 -3.34,1.5 -3.34,3.34l0 73.43c0,1.84 1.5,3.33 3.34,3.33l27.32 0c1.84,0 3.34,-1.5 3.34,-3.34l0 -73.43c0,-1.84 -1.5,-3.34 -3.34,-3.34l-27.32 0z"/>
    <path class="fil7 str3" d="M167.57 189.66c0.59,1.12 0.63,3.07 -0.7,5.2 -2.06,3.31 -6.8,5.87 -18.29,4.52 -8.52,-1 -18.73,0.99 -27.57,1.93"/>
   </g>
   <g>
    <rect class="fil4 str1" x="202.85" y="34.04" width="34.94" height="80.39"/>
    <path class="fil5" d="M144.88 28.89c6.7,0 13.32,2.46 19.75,4.85 7.06,2.62 14.35,5.35 21.6,4.7l17.85 -1.58 0 69.23 -9.71 0.86c-6.05,0.52 -11.12,-1.82 -16,-4.1 -4.59,-2.14 -8.93,-4.18 -13.91,-3.75l-31.97 5.8c-11.45,1.96 -17.76,-4.65 -21.6,-10.7l-34.91 16.23c-13.17,5.91 -27.97,-0.01 -36.84,-14.75 -2.33,-3.87 -1.03,-9.01 2.89,-11.46 4.53,-2.82 9.03,-5.65 13.49,-8.44 38.98,-24.43 72.65,-45.53 87.06,-46.79 0.77,-0.07 1.53,-0.1 2.3,-0.1zm39.12 14.43c-7.33,0 -14.29,-2.59 -21.04,-5.09 -6.97,-2.59 -13.56,-5.03 -19.96,-4.47 -13.26,1.16 -48.08,22.98 -84.94,46.07 -4.46,2.8 -8.97,5.62 -13.5,8.45 -1.72,1.07 -2.31,3.28 -1.32,4.93 7.56,12.55 19.93,17.71 30.75,12.86l38.82 -18.05c0.08,2.52 2,5.45 3.07,6.73 3.58,4.27 10.53,6.35 15.77,5.43l32.18 -5.83c6.46,-0.53 11.6,1.85 16.55,4.15 4.51,2.11 8.78,4.1 13.56,3.67l5.35 -0.47 0 -59.62 -12.63 1.12c-0.89,0.08 -1.78,0.11 -2.66,0.11z"/>
    <path class="fil6 str2" d="M207.41 28.89l27.32 0c4.48,0 8.12,3.64 8.12,8.12l0 73.43c0,4.48 -3.64,8.12 -8.12,8.12l-27.32 0c-4.48,0 -8.12,-3.64 -8.12,-8.12l0 -73.43c-0,-4.48 3.65,-8.12 8.12,-8.12zm27.32 84.89c1.84,0 3.34,-1.5 3.34,-3.34l0 -73.43c-0,-1.84 -1.5,-3.33 -3.34,-3.33l-27.32 0c-1.84,0 -3.34,1.5 -3.34,3.34l0 73.43c0,1.84 1.5,3.34 3.34,3.34l27.32 0z"/>
    <path class="fil7 str3" d="M110.93 89.25c-0.59,-1.12 -0.63,-3.07 0.7,-5.2 2.06,-3.31 6.8,-5.87 18.29,-4.52 8.52,1 18.73,-0.99 27.57,-1.93"/>
   </g>
  </g>
 </g>
</svg>
