<?xml version="1.0" encoding="UTF-8"?>
<!DOCTYPE svg PUBLIC "-//W3C//DTD SVG 1.1//EN" "http://www.w3.org/Graphics/SVG/1.1/DTD/svg11.dtd">
<!-- Creator: CorelDRAW 2021 (64 Bit) -->
<svg xmlns="http://www.w3.org/2000/svg" xml:space="preserve" width="2353px" height="2353px" version="1.1" style="shape-rendering:geometricPrecision; text-rendering:geometricPrecision; image-rendering:optimizeQuality; fill-rule:evenodd; clip-rule:evenodd"
viewBox="0 0 1657.1 1657.1"
 xmlns:xlink="http://www.w3.org/1999/xlink"
 xmlns:xodm="http://www.corel.com/coreldraw/odm/2003">
 <defs>
  <style type="text/css">
   <![CDATA[
    .str0 {stroke:#373435;stroke-width:35.25;stroke-miterlimit:22.9256}
    .fil5 {fill:none}
    .fil9 {fill:black}
    .fil2 {fill:#00A859}
    .fil8 {fill:#333333}
    .fil1 {fill:#B8B4B6}
    .fil7 {fill:#D2D3D5}
    .fil4 {fill:#ED3237}
    .fil6 {fill:#FDFDFD}
    .fil3 {fill:#FFF212}
    .fil0 {fill:white}
   ]]>
  </style>
 </defs>
 <g id="Camada_x0020_1">
  <metadata id="CorelCorpID_0Corel-Layer"/>
  <path class="fil0" d="M145.89 80.22l1365.32 0c36.27,-0.01 65.68,33.56 65.68,74.96l0 1346.74c0,41.4 -29.41,74.97 -65.68,74.97l-1365.32 0c-36.26,0 -65.67,-33.57 -65.67,-74.97l-0.01 -1346.74c0.01,-41.4 29.42,-74.97 65.69,-74.97z"/>
 </g>
 <g id="Camada_x0020_1_0">
  <metadata id="CorelCorpID_1Corel-Layer"/>
  <path class="fil1" d="M120.72 1543.33c-13.22,-9.75 -8.95,-40.33 -8.95,-60.1 -0.53,-448.83 0.67,-900.86 -1.6,-1349.15 0,-13.09 -0.8,-18.17 11.35,-21.5 13.62,-3.88 1233.51,-1.21 1381.61,-1.34 30.85,0 42.2,-6.94 42.87,27.38 0.4,21.76 -0.14,44.2 -0.14,66.1l0 1280.78c0,18.83 4.01,49.41 -8.81,58.23 -14.42,5.21 -311.95,1.6 -355.22,1.6 -142.62,0 -1050.56,3.2 -1061.11,-2l0 0zm145.56 113.77l-124.06 0c-24.44,-1.2 -45.94,-3.74 -58.62,-8.68 -28.85,-11.48 -52.89,-33.65 -66.77,-60.89 -6.41,-12.42 -13.89,-32.45 -14.69,-49.15l-2.14 -1426.21c0,-33.25 24.04,-64.36 43.27,-79.85 23.23,-18.83 49.81,-32.32 90.94,-32.32l1390.95 0c81.33,0 131.94,61.03 131.94,143.02l0 1373.33c0,40.06 -13.22,73.58 -32.32,95.21 -11.75,13.09 -18.16,19.37 -34.58,29.25 -12.42,7.61 -30.32,14.29 -49.54,14.16l-638.33 0c-44.6,0 -81.86,2.13 -125.53,2.13 -170.13,0 -340.26,0 -510.52,0z"/>
 </g>
 <g id="Camada_x0020_1_0_1">
  <metadata id="CorelCorpID_2Corel-Layer"/>
  <g id="_2096276357680">
   <rect class="fil2 str0" x="609.15" y="534.27" width="113.91" height="185.22"/>
   <rect class="fil3 str0" x="810.26" y="537.2" width="113.91" height="185.22"/>
   <rect class="fil4 str0" x="1007.9" y="534.27" width="113.91" height="185.22"/>
   <polygon class="fil5 str0" points="411.91,392.58 411.37,847.95 1312.9,847.95 1312.9,381.76 1292.07,155.41 1122.74,153.68 1026.33,387.77 917.49,387.77 917.49,286.15 679.79,377.89 681.13,292.16 "/>
   <line class="fil5 str0" x1="1026.33" y1="387.77" x2="1312.9" y2= "387.77" />
  </g>
  <g id="_2096276358112">
   <path class="fil6" d="M1030.36 1132.53c9.35,28.44 -14.42,51.28 -30.18,59.83 -45.8,24.7 -101.62,4.67 -172.53,12.02 -24.7,2.53 -61.7,9.88 -84.66,9.34l-2.01 -25.37c45.27,-6.14 96.42,-14.15 142.36,-12.95 25.77,0.66 47.8,5.47 74.38,2.53 26.31,-2.93 36.86,-9.34 47.27,-27.77 2.81,-46.47 -40.33,-78.66 -84.93,-82.93 -28.71,-2.8 -109.37,16.02 -141.82,21.77 -53.95,9.48 -89.21,22.83 -141.69,2 -44.2,-17.49 -67.03,-38.86 -123.92,-33.52l0 352.41c92.67,-12.42 121.12,-3.33 200.04,25.38 83.33,30.31 105.23,36.59 188.96,1.73 26.84,-11.22 55.42,-26.17 79.73,-39.26 26.04,-14.02 51.41,-28.18 75.85,-42.86 50.07,-30.18 99.48,-58.63 148.23,-89.48l182.81 -114.17c12.56,-7.88 29.65,-14.29 30.85,-29.78 1.47,-20.17 -40.19,-59.7 -51.41,-68.38 -71.58,-54.48 -118.18,-25.64 -176.14,0.4l-121.52 56.62c-7.62,3.48 -13.89,6.01 -21.37,9.62 -23.37,11.08 -14.69,5.74 -18.3,12.82l0 0z"/>
   <path class="fil1" d="M284.14 1007.54c0.27,-0.4 1.2,-1.21 1.47,-0.67l16.69 -1.6c26.84,0.26 136.21,-2.41 145.29,1.87l0.94 435.47c-13.62,3.2 -152.24,3.07 -163.86,-0.27l-0.53 -434.8zm217.27 -42.87c-3.47,-3.61 -4.94,-4.01 -8.55,-7.21 -3.6,-3.34 -4,-4.54 -8.01,-7.75 -4,2.54 -0.93,1.87 -6.27,0.14 -4.94,-1.6 -8.02,-5.88 -21.37,-7.61 -16.43,-2.14 -173.6,-1.47 -183.89,0.4 -71.17,11.88 -53.95,107.36 -53.95,172.26l0 301.54c0,27.24 0.14,42.86 12.82,63.43 8.15,13.09 24.71,24.7 48.08,26.84 43.4,3.87 104.29,0.27 149.7,0.4 45.67,0.14 84.26,-16.42 82.79,-69.04l-0.13 -28.18 0 -352.41 -0.14 -28.18c2.27,-24.03 -1.73,-55.55 -21.23,-70.37 -6.68,-5.08 -10.68,-2.67 -4.27,-6.81 3.87,7.34 7.07,9.08 14.42,12.55l0 0z"/>
   <path class="fil7" d="M284.67 1442.34c11.62,3.34 150.24,3.48 163.86,0.27l-0.94 -435.47c-9.08,-4.28 -118.45,-1.61 -145.29,-1.87l-16.69 1.6c-0.27,-0.53 -1.2,0.27 -1.47,0.67l0.53 434.8z"/>
   <path class="fil8" d="M512.49 1029.3l0.14 28.18c56.89,-5.34 79.72,16.03 123.92,33.52 52.49,20.83 87.74,7.48 141.69,-2 32.45,-5.75 113.11,-24.57 141.82,-21.77 44.6,4.27 87.74,36.46 84.93,82.93l3.74 -13.22 18.43 -9.75c-0.13,0.4 0.4,1.74 0.53,2.14l2.67 3.2c3.61,-7.08 -5.07,-1.73 18.3,-12.82 7.48,-3.6 13.75,-6.14 21.37,-9.61l121.52 -56.62c57.95,-26.05 104.56,-54.89 176.14,-0.41 11.22,8.68 52.88,48.21 51.41,68.38 -1.2,15.49 -18.29,21.9 -30.85,29.78l-182.81 114.17c-48.75,30.85 -98.16,59.3 -148.23,89.48 -24.44,14.69 -49.81,28.84 -75.85,42.86 -24.31,13.09 -52.89,28.05 -79.73,39.26 -83.73,34.86 -105.63,28.58 -188.96,-1.73 -78.92,-28.71 -107.36,-37.79 -200.04,-25.37l0.13 28.17c104.96,-11.88 122.32,-0.93 210.19,30.85 89.48,32.45 121.26,23.37 201.65,-11.22 80.52,-34.85 250.12,-139.68 323.03,-185.35 51.95,-32.58 104.97,-64.9 157.05,-98.15 15.09,-9.75 27.11,-14.29 35.39,-28.45 9.61,-16.02 10.41,-34.18 0.53,-51.14 -30.98,-53.42 -87.07,-98.69 -152.24,-100.42 -40.06,-0.94 -67.17,14.55 -97.21,28.04 -28.98,13.08 -156.65,75.45 -173.61,80.26 -7.21,-7.48 -11.48,-16.03 -19.09,-23.51 -5.61,-5.61 -13.49,-14.42 -21.23,-20.43 -50.48,-39.53 -133.54,-10.01 -201.12,2.27 -53.28,9.62 -84.13,23.1 -135.01,1.47 -40.73,-17.23 -74.51,-39.53 -128.59,-32.98l-0.01 -0.01z"/>
   <path class="fil9" d="M1004.99 1150.16c-10.41,18.43 -20.96,24.84 -47.27,27.77 -26.58,2.94 -48.61,-1.87 -74.38,-2.53 -45.94,-1.21 -97.09,6.81 -142.36,12.95l2.01 25.37c22.97,0.54 59.96,-6.81 84.66,-9.35 70.91,-7.34 126.73,12.69 172.54,-12.01 15.75,-8.55 39.52,-31.39 30.18,-59.83l-2.68 -3.21c-0.13,-0.4 -0.66,-1.73 -0.53,-2.13l-18.43 9.75 -3.74 13.22 0 0z"/>
  </g>
 </g>
</svg>
