<?xml version="1.0" encoding="UTF-8"?>
<!DOCTYPE svg PUBLIC "-//W3C//DTD SVG 1.1//EN" "http://www.w3.org/Graphics/SVG/1.1/DTD/svg11.dtd">
<!-- Creator: CorelDRAW 2021 (64 Bit) -->
<svg xmlns="http://www.w3.org/2000/svg" xml:space="preserve" width="753px" height="753px" version="1.1" style="shape-rendering:geometricPrecision; text-rendering:geometricPrecision; image-rendering:optimizeQuality; fill-rule:evenodd; clip-rule:evenodd"
viewBox="0 0 124.09 124.09"
 xmlns:xlink="http://www.w3.org/1999/xlink"
 xmlns:xodm="http://www.corel.com/coreldraw/odm/2003">
 <defs>
  <style type="text/css">
   <![CDATA[
    .str0 {stroke:#373435;stroke-width:2.64;stroke-miterlimit:22.9256}
    .fil4 {fill:none}
    .fil2 {fill:#FFF212}
    .fil3 {fill:#ED3237}
    .fil1 {fill:#00A859}
    .fil8 {fill:black}
    .fil7 {fill:#333333}
    .fil0 {fill:#B8B4B6}
    .fil6 {fill:#D2D3D5}
    .fil5 {fill:#FDFDFD}
   ]]>
  </style>
 </defs>
 <g id="Camada_x0020_1">
  <metadata id="CorelCorpID_0Corel-Layer"/>
  <path class="fil0" d="M9.04 115.57c-0.99,-0.73 -0.67,-3.02 -0.67,-4.5 -0.04,-33.61 0.05,-67.46 -0.12,-101.03 0,-0.98 -0.06,-1.36 0.85,-1.61 1.02,-0.29 92.37,-0.09 103.46,-0.1 2.31,0 3.16,-0.52 3.21,2.05 0.03,1.63 -0.01,3.31 -0.01,4.95l0 95.91c0,1.41 0.3,3.7 -0.66,4.36 -1.08,0.39 -23.36,0.12 -26.6,0.12 -10.68,0 -78.67,0.24 -79.46,-0.15zm10.9 8.52l-9.29 0c-1.83,-0.09 -3.44,-0.28 -4.39,-0.65 -2.16,-0.86 -3.96,-2.52 -5,-4.56 -0.48,-0.93 -1.04,-2.43 -1.1,-3.68l-0.16 -106.8c0,-2.49 1.8,-4.82 3.24,-5.98 1.74,-1.41 3.73,-2.42 6.81,-2.42l104.16 0c6.09,0 9.88,4.57 9.88,10.71l0 102.84c0,3 -0.99,5.51 -2.42,7.13 -0.88,0.98 -1.36,1.45 -2.59,2.19 -0.93,0.57 -2.27,1.07 -3.71,1.06l-47.8 0c-3.34,0 -6.13,0.16 -9.4,0.16 -12.74,0 -25.48,0 -38.23,0z"/>
 </g>
 <g id="Camada_x0020_1_0">
  <metadata id="CorelCorpID_1Corel-Layer"/>
  <g id="_2096276357680">
   <rect class="fil1 str0" x="41.94" y="40.83" width="8.53" height="13.87"/>
   <rect class="fil2 str0" x="57" y="41.05" width="8.53" height="13.87"/>
   <rect class="fil3 str0" x="71.8" y="40.83" width="8.53" height="13.87"/>
   <polygon class="fil4 str0" points="27.17,30.22 27.13,64.32 94.64,64.32 94.64,29.41 93.08,12.46 80.4,12.33 73.18,29.86 65.03,29.86 65.03,22.25 47.23,29.12 47.33,22.7 "/>
   <line class="fil4 str0" x1="73.18" y1="29.86" x2="94.64" y2= "29.86" />
  </g>
  <g id="_2096276358112">
   <path class="fil5" d="M76.07 83.24c0.7,2.13 -1.08,3.84 -2.26,4.48 -3.43,1.85 -7.61,0.35 -12.92,0.9 -1.85,0.19 -4.62,0.74 -6.34,0.7l-0.15 -1.9c3.39,-0.46 7.22,-1.06 10.66,-0.97 1.93,0.05 3.58,0.41 5.57,0.19 1.97,-0.22 2.76,-0.7 3.54,-2.08 0.21,-3.48 -3.02,-5.89 -6.36,-6.21 -2.15,-0.21 -8.19,1.2 -10.62,1.63 -4.04,0.71 -6.68,1.71 -10.61,0.15 -3.31,-1.31 -5.02,-2.91 -9.28,-2.51l0 26.39c6.94,-0.93 9.07,-0.25 14.98,1.9 6.24,2.27 7.88,2.74 14.15,0.13 2.01,-0.84 4.15,-1.96 5.97,-2.94 1.95,-1.05 3.85,-2.11 5.68,-3.21 3.75,-2.26 7.45,-4.39 11.1,-6.7l13.69 -8.55c0.94,-0.59 2.22,-1.07 2.31,-2.23 0.11,-1.51 -3.01,-4.47 -3.85,-5.12 -5.36,-4.08 -8.85,-1.92 -13.19,0.03l-9.1 4.24c-0.57,0.26 -1.04,0.45 -1.6,0.72 -1.75,0.83 -1.1,0.43 -1.37,0.96z"/>
   <path class="fil0" d="M20.19 73.88c0.02,-0.03 0.09,-0.09 0.11,-0.05l1.25 -0.12c2.01,0.02 10.2,-0.18 10.88,0.14l0.07 32.61c-1.02,0.24 -11.4,0.23 -12.27,-0.02l-0.04 -32.56zm16.27 -3.21c-0.26,-0.27 -0.37,-0.3 -0.64,-0.54 -0.27,-0.25 -0.3,-0.34 -0.6,-0.58 -0.3,0.19 -0.07,0.14 -0.47,0.01 -0.37,-0.12 -0.6,-0.44 -1.6,-0.57 -1.23,-0.16 -13,-0.11 -13.77,0.03 -5.33,0.89 -4.04,8.04 -4.04,12.9l0 22.58c0,2.04 0.01,3.21 0.96,4.75 0.61,0.98 1.85,1.85 3.6,2.01 3.25,0.29 7.81,0.02 11.21,0.03 3.42,0.01 6.31,-1.23 6.2,-5.17l-0.01 -2.11 0 -26.39 -0.01 -2.11c0.17,-1.8 -0.13,-4.16 -1.59,-5.27 -0.5,-0.38 -0.8,-0.2 -0.32,-0.51 0.29,0.55 0.53,0.68 1.08,0.94z"/>
   <path class="fil6" d="M20.23 106.44c0.87,0.25 11.25,0.26 12.27,0.02l-0.07 -32.61c-0.68,-0.32 -8.87,-0.12 -10.88,-0.14l-1.25 0.12c-0.02,-0.04 -0.09,0.02 -0.11,0.05l0.04 32.56z"/>
   <path class="fil7" d="M37.29 75.51l0.01 2.11c4.26,-0.4 5.97,1.2 9.28,2.51 3.93,1.56 6.57,0.56 10.61,-0.15 2.43,-0.43 8.47,-1.84 10.62,-1.63 3.34,0.32 6.57,2.73 6.36,6.21l0.28 -0.99 1.38 -0.73c-0.01,0.03 0.03,0.13 0.04,0.16l0.2 0.24c0.27,-0.53 -0.38,-0.13 1.37,-0.96 0.56,-0.27 1.03,-0.46 1.6,-0.72l9.1 -4.24c4.34,-1.95 7.83,-4.11 13.19,-0.03 0.84,0.65 3.96,3.61 3.85,5.12 -0.09,1.16 -1.37,1.64 -2.31,2.23l-13.69 8.55c-3.65,2.31 -7.35,4.44 -11.1,6.7 -1.83,1.1 -3.73,2.16 -5.68,3.21 -1.82,0.98 -3.96,2.1 -5.97,2.94 -6.27,2.61 -7.91,2.14 -14.15,-0.13 -5.91,-2.15 -8.04,-2.83 -14.98,-1.9l0.01 2.11c7.86,-0.89 9.16,-0.07 15.74,2.31 6.7,2.43 9.08,1.75 15.1,-0.84 6.03,-2.61 18.73,-10.46 24.19,-13.88 3.89,-2.44 7.86,-4.86 11.76,-7.35 1.13,-0.73 2.03,-1.07 2.65,-2.13 0.72,-1.2 0.78,-2.56 0.04,-3.83 -2.32,-4 -6.52,-7.39 -11.4,-7.52 -3,-0.07 -5.03,1.09 -7.28,2.1 -2.17,0.98 -11.73,5.65 -13,6.01 -0.54,-0.56 -0.86,-1.2 -1.43,-1.76 -0.42,-0.42 -1.01,-1.08 -1.59,-1.53 -3.78,-2.96 -10,-0.75 -15.06,0.17 -3.99,0.72 -6.3,1.73 -10.11,0.11 -3.05,-1.29 -5.58,-2.96 -9.63,-2.47z"/>
   <path class="fil8" d="M74.17 84.56c-0.78,1.38 -1.57,1.86 -3.54,2.08 -1.99,0.22 -3.64,-0.14 -5.57,-0.19 -3.44,-0.09 -7.27,0.51 -10.66,0.97l0.15 1.9c1.72,0.04 4.49,-0.51 6.34,-0.7 5.31,-0.55 9.49,0.95 12.92,-0.9 1.18,-0.64 2.96,-2.35 2.26,-4.48l-0.2 -0.24c-0.01,-0.03 -0.05,-0.13 -0.04,-0.16l-1.38 0.73 -0.28 0.99z"/>
  </g>
 </g>
</svg>
