<?xml version="1.0" encoding="UTF-8"?>
<!DOCTYPE svg PUBLIC "-//W3C//DTD SVG 1.1//EN" "http://www.w3.org/Graphics/SVG/1.1/DTD/svg11.dtd">
<!-- Creator: CorelDRAW 2021 (64 Bit) -->
<svg xmlns="http://www.w3.org/2000/svg" xml:space="preserve" width="752px" height="752px" version="1.1" style="shape-rendering:geometricPrecision; text-rendering:geometricPrecision; image-rendering:optimizeQuality; fill-rule:evenodd; clip-rule:evenodd"
viewBox="0 0 33.15 33.12"
 xmlns:xlink="http://www.w3.org/1999/xlink"
 xmlns:xodm="http://www.corel.com/coreldraw/odm/2003">
 <defs>
  <style type="text/css">
   <![CDATA[
    .str2 {stroke:#AEA19E;stroke-width:0.71;stroke-miterlimit:22.9256;stroke-opacity:0.949020}
    .str0 {stroke:#B8B4B6;stroke-width:2.2;stroke-miterlimit:22.9256}
    .str5 {stroke:blue;stroke-width:0.09;stroke-miterlimit:22.9256}
    .str4 {stroke:lime;stroke-width:0.09;stroke-miterlimit:22.9256}
    .str3 {stroke:red;stroke-width:0.09;stroke-miterlimit:22.9256}
    .str1 {stroke:white;stroke-width:0.09;stroke-miterlimit:22.9256}
    .fil2 {fill:#E6E7E8}
    .fil8 {fill:blue}
    .fil7 {fill:lime}
    .fil6 {fill:red}
    .fil9 {fill:yellow}
    .fil1 {fill:white}
    .fil0 {fill:white}
    .fil5 {fill:black;fill-rule:nonzero}
    .fil3 {fill:black;fill-rule:nonzero}
    .fil4 {fill:#FEFEFE;fill-rule:nonzero;fill-opacity:0.949020}
   ]]>
  </style>
 </defs>
 <g id="Camada_x0020_1">
  <metadata id="CorelCorpID_0Corel-Layer"/>
  <g id="_2201366983008">
   <rect class="fil0" x="1.05" y="1.09" width="31.04" height="30.93"/>
   <path class="fil1 str0" d="M2.49 1.1l28.2 0c0.75,0 1.36,0.69 1.36,1.55l0 27.82c0,0.85 -0.61,1.55 -1.36,1.55l-28.2 0c-0.75,0 -1.36,-0.7 -1.36,-1.55 0,-3.34 -0.04,-26.94 -0.02,-28.16 0.01,-0.67 0.82,-1.21 1.38,-1.21z"/>
   <g>
    <g>
     <rect class="fil2 str1" x="6.44" y="19.3" width="3.99" height="9.18"/>
     <path class="fil3" d="M17.06 29.07c-0.77,0 -1.52,-0.28 -2.26,-0.55 -0.8,-0.3 -1.64,-0.61 -2.46,-0.54l-2.04 0.19 0 -7.91 1.11 -0.1c0.69,-0.06 1.27,0.21 1.82,0.47 0.53,0.24 1.02,0.47 1.59,0.42l3.66 -0.66c1.3,-0.22 2.02,0.53 2.46,1.22l3.99 -1.85c1.5,-0.68 3.2,0 4.21,1.68 0.27,0.45 0.12,1.03 -0.33,1.31 -0.52,0.33 -1.03,0.65 -1.54,0.97 -4.46,2.79 -8.3,5.2 -9.95,5.34 -0.09,0.01 -0.17,0.01 -0.26,0.01zm-4.47 -1.64c0.84,0 1.63,0.29 2.4,0.58 0.8,0.29 1.55,0.57 2.28,0.51 1.52,-0.13 5.5,-2.63 9.71,-5.26 0.51,-0.32 1.02,-0.65 1.54,-0.97 0.2,-0.12 0.26,-0.38 0.15,-0.56 -0.86,-1.44 -2.28,-2.03 -3.51,-1.47l-4.44 2.06 -0.12 -0.22c-0.39,-0.68 -0.94,-1.36 -2.03,-1.17l-3.68 0.67c-0.73,0.06 -1.32,-0.22 -1.89,-0.48 -0.51,-0.24 -1,-0.47 -1.55,-0.42l-0.61 0.06 0 6.81 1.45 -0.13c0.1,-0.01 0.2,-0.01 0.3,-0.01z"/>
     <path class="fil3" d="M16.03 25.24c-0.12,0 -0.24,-0.09 -0.26,-0.22 -0.03,-0.15 0.06,-0.29 0.21,-0.32 1.44,-0.29 3.07,-0.95 4.95,-2.01l-0.33 -0.59c-0.08,-0.13 -0.03,-0.3 0.1,-0.37 0.13,-0.08 0.3,-0.03 0.37,0.1l0.47 0.82c0.08,0.13 0.03,0.3 -0.1,0.37 -2.04,1.18 -3.79,1.9 -5.35,2.21 -0.02,0.01 -0.04,0.01 -0.06,0.01z"/>
     <path class="fil4 str2" d="M9.92 29.07l-3.13 0c-0.51,0 -0.92,-0.41 -0.92,-0.92l0 -8.39c0,-0.51 0.41,-0.93 0.92,-0.93l3.13 0c0.51,0 0.92,0.42 0.92,0.93l0 8.39c0,0.51 -0.41,0.92 -0.92,0.92zm-3.13 -9.69c-0.21,0 -0.38,0.17 -0.38,0.38l0 8.39c0,0.21 0.17,0.38 0.38,0.38l3.13 0c0.21,0 0.38,-0.17 0.38,-0.38l0 -8.39c0,-0.21 -0.17,-0.38 -0.38,-0.38l-3.13 0z"/>
    </g>
    <g>
     <path class="fil5" d="M23.24 11.66l-5.83 0c-0.15,0 -0.27,-0.12 -0.27,-0.27 0,-0.15 0.12,-0.28 0.27,-0.28l5.83 0c0.16,0 0.28,0.13 0.28,0.28 0,0.15 -0.12,0.27 -0.28,0.27z"/>
     <path class="fil5" d="M25.17 17.39l-1.93 0c-0.15,0 -0.27,-0.13 -0.27,-0.28l0 -11.31c0,-0.15 0.12,-0.27 0.27,-0.27l1.93 0c0.15,0 0.27,0.12 0.27,0.27 0,0.15 -0.12,0.28 -0.27,0.28l-1.65 0 0 10.76 1.65 0c0.15,0 0.27,0.12 0.27,0.27 0,0.15 -0.12,0.28 -0.27,0.28z"/>
     <path class="fil5" d="M25.17 11.66l-1.93 0c-0.15,0 -0.27,-0.12 -0.27,-0.27 0,-0.15 0.12,-0.28 0.27,-0.28l1.93 0c0.15,0 0.27,0.13 0.27,0.28 0,0.15 -0.12,0.27 -0.27,0.27z"/>
     <circle class="fil6 str3" cx="26.22" cy="5.75" r="1.63"/>
     <circle class="fil7 str4" cx="26.22" cy="11.39" r="1.63"/>
     <circle class="fil8 str5" cx="26.19" cy="17.06" r="1.63"/>
    </g>
    <g>
     <circle class="fil9" cx="13.07" cy="11.46" r="1.76"/>
     <path class="fil3" d="M14.41 16.96c-0.07,0 -0.14,-0.01 -0.21,-0.04 -0.13,-0.06 -0.24,-0.16 -0.29,-0.29 -0.18,-0.42 -0.55,-0.56 -0.84,-0.56 -0.29,0 -0.66,0.14 -0.83,0.56 -0.12,0.27 -0.44,0.4 -0.71,0.29l-1.23 -0.51c-0.13,-0.05 -0.24,-0.16 -0.29,-0.29 -0.06,-0.14 -0.06,-0.28 0,-0.42 0.17,-0.41 0.01,-0.78 -0.2,-0.98 -0.21,-0.21 -0.57,-0.37 -0.98,-0.2 -0.28,0.12 -0.6,-0.02 -0.71,-0.29l-0.51 -1.23c-0.06,-0.13 -0.06,-0.28 0,-0.41 0.06,-0.14 0.16,-0.24 0.29,-0.3 0.41,-0.17 0.56,-0.54 0.56,-0.83 0,-0.29 -0.15,-0.67 -0.56,-0.84 -0.13,-0.05 -0.23,-0.16 -0.29,-0.29 -0.06,-0.13 -0.06,-0.28 0,-0.42l0.51 -1.22c0.11,-0.28 0.43,-0.41 0.71,-0.3 0.41,0.17 0.77,0.02 0.98,-0.19 0.21,-0.21 0.37,-0.57 0.2,-0.99 -0.12,-0.27 0.01,-0.59 0.29,-0.71l1.23 -0.5c0.13,-0.06 0.28,-0.06 0.41,0 0.14,0.05 0.24,0.16 0.3,0.29 0.17,0.41 0.54,0.56 0.83,0.56 0,0 0,0 0,0 0.29,0 0.67,-0.15 0.84,-0.56 0.05,-0.13 0.16,-0.24 0.29,-0.29 0.13,-0.06 0.28,-0.06 0.42,0l1.22 0.51c0.13,0.05 0.24,0.15 0.29,0.29 0.06,0.13 0.06,0.28 0,0.41 -0.17,0.42 -0.01,0.78 0.2,0.99 0.21,0.21 0.57,0.37 0.99,0.19 0.27,-0.11 0.59,0.02 0.7,0.3l0.51 1.22c0.06,0.14 0.06,0.29 0,0.42 -0.05,0.13 -0.16,0.24 -0.29,0.29 -0.41,0.17 -0.56,0.55 -0.56,0.84 0,0.29 0.15,0.66 0.56,0.83l0 0c0.13,0.06 0.24,0.16 0.29,0.3 0.06,0.13 0.06,0.28 0,0.41l-0.51 1.23c-0.05,0.13 -0.16,0.24 -0.29,0.29 -0.13,0.06 -0.28,0.06 -0.41,0 -0.42,-0.17 -0.78,-0.01 -0.99,0.2 -0.21,0.2 -0.37,0.57 -0.2,0.98 0.12,0.28 -0.01,0.6 -0.29,0.71l-1.22 0.51c-0.07,0.03 -0.14,0.04 -0.21,0.04zm-1.34 -1.44c0.6,0 1.11,0.34 1.34,0.9l1.22 -0.51c-0.23,-0.55 -0.11,-1.16 0.31,-1.58 0.43,-0.42 1.03,-0.54 1.58,-0.31l0.5 -1.22c-0.55,-0.23 -0.89,-0.75 -0.89,-1.34 0,-0.6 0.35,-1.11 0.9,-1.34l-0.51 -1.22c-0.55,0.23 -1.15,0.11 -1.58,-0.31 -0.42,-0.43 -0.54,-1.03 -0.31,-1.59l-1.22 -0.5c-0.23,0.55 -0.74,0.9 -1.34,0.9 0,0 0,0 0,0 -0.6,0 -1.11,-0.35 -1.34,-0.9l-1.22 0.51c0.23,0.55 0.11,1.15 -0.31,1.58 -0.42,0.42 -1.03,0.54 -1.58,0.31l-0.51 1.22c0.55,0.23 0.9,0.74 0.9,1.34 0,0.6 -0.35,1.11 -0.9,1.34l0.51 1.22c0.55,-0.23 1.16,-0.11 1.58,0.31 0.42,0.42 0.54,1.03 0.31,1.58l1.23 0.5c0.22,-0.55 0.73,-0.89 1.33,-0.89z"/>
     <path class="fil5" d="M13.07 13.51c-1.13,0 -2.05,-0.92 -2.05,-2.05 0,-1.13 0.92,-2.05 2.05,-2.05 1.13,0 2.05,0.92 2.05,2.05 0,1.13 -0.92,2.05 -2.05,2.05zm0 -3.55c-0.83,0 -1.5,0.67 -1.5,1.5 0,0.83 0.67,1.5 1.5,1.5 0.83,0 1.5,-0.67 1.5,-1.5 0,-0.83 -0.67,-1.5 -1.5,-1.5z"/>
     <path class="fil3" d="M14.02 15.36c-0.05,0 -0.1,-0.01 -0.15,-0.03 -0.09,-0.04 -0.17,-0.11 -0.21,-0.21 -0.12,-0.29 -0.38,-0.39 -0.59,-0.39 -0.21,0 -0.47,0.1 -0.59,0.39 -0.08,0.2 -0.31,0.29 -0.51,0.21l-0.86 -0.36c-0.1,-0.04 -0.17,-0.11 -0.21,-0.21 -0.04,-0.09 -0.04,-0.2 0,-0.29 0.12,-0.29 0,-0.55 -0.14,-0.7 -0.15,-0.15 -0.41,-0.26 -0.7,-0.14 -0.2,0.08 -0.42,-0.01 -0.5,-0.21l-0.36 -0.87c-0.04,-0.09 -0.04,-0.2 0,-0.29 0.04,-0.1 0.11,-0.17 0.2,-0.21 0.3,-0.12 0.4,-0.38 0.4,-0.59 0,-0.21 -0.1,-0.47 -0.4,-0.59 -0.09,-0.04 -0.16,-0.12 -0.2,-0.21 -0.04,-0.1 -0.04,-0.2 0,-0.3l0.36 -0.87c0.08,-0.19 0.3,-0.29 0.5,-0.21 0.29,0.13 0.55,0.01 0.7,-0.13 0.14,-0.15 0.26,-0.41 0.14,-0.7 -0.08,-0.2 0.01,-0.43 0.21,-0.51l0.87 -0.36c0.09,-0.04 0.19,-0.04 0.29,0 0.1,0.04 0.17,0.12 0.21,0.21 0.12,0.29 0.38,0.4 0.59,0.4 0,0 0,0 0,0 0.21,0 0.47,-0.11 0.59,-0.4 0.04,-0.09 0.12,-0.17 0.21,-0.21 0.1,-0.04 0.2,-0.04 0.3,0l0.87 0.36c0.09,0.04 0.17,0.12 0.2,0.21 0.04,0.1 0.04,0.2 0,0.3 -0.12,0.29 0,0.55 0.14,0.7 0.15,0.14 0.41,0.26 0.7,0.13 0.2,-0.08 0.42,0.02 0.51,0.21l0.36 0.87c0.04,0.1 0.04,0.2 0,0.3 -0.04,0.09 -0.12,0.17 -0.21,0.21 -0.29,0.12 -0.4,0.38 -0.4,0.59 0,0.21 0.11,0.47 0.4,0.59l0 0c0.09,0.04 0.17,0.11 0.21,0.21 0.04,0.09 0.04,0.2 0,0.29l-0.36 0.87c-0.04,0.1 -0.12,0.17 -0.21,0.21 -0.1,0.04 -0.2,0.04 -0.3,0 -0.29,-0.12 -0.55,-0.01 -0.7,0.14 -0.14,0.15 -0.26,0.41 -0.14,0.7 0.09,0.2 -0.01,0.42 -0.2,0.5l-0.87 0.36c-0.05,0.02 -0.1,0.03 -0.15,0.03zm-0.95 -1.02c0.42,0 0.79,0.24 0.95,0.64l0.87 -0.37c-0.17,-0.38 -0.08,-0.81 0.22,-1.11 0.3,-0.3 0.73,-0.39 1.12,-0.23l0.36 -0.86c-0.39,-0.16 -0.64,-0.53 -0.64,-0.95 0,-0.43 0.25,-0.79 0.64,-0.95l-0.36 -0.87c-0.39,0.16 -0.82,0.08 -1.12,-0.22 -0.3,-0.3 -0.39,-0.73 -0.22,-1.12l-0.87 -0.36c-0.16,0.39 -0.53,0.64 -0.95,0.64 0,0 0,0 0,0 -0.42,0 -0.79,-0.25 -0.95,-0.64l-0.87 0.36c0.17,0.39 0.08,0.82 -0.22,1.12 -0.3,0.3 -0.73,0.39 -1.12,0.22l-0.36 0.87c0.39,0.16 0.64,0.52 0.64,0.95 0,0.42 -0.25,0.79 -0.64,0.95l0.36 0.86c0.39,-0.16 0.82,-0.07 1.12,0.23 0.3,0.3 0.39,0.73 0.23,1.12l0.86 0.35c0.16,-0.39 0.53,-0.63 0.95,-0.63z"/>
    </g>
   </g>
  </g>
 </g>
</svg>
