<?xml version="1.0" encoding="UTF-8"?>
<!DOCTYPE svg PUBLIC "-//W3C//DTD SVG 1.1//EN" "http://www.w3.org/Graphics/SVG/1.1/DTD/svg11.dtd">
<!-- Creator: CorelDRAW 2021 (64 Bit) -->
<svg xmlns="http://www.w3.org/2000/svg" xml:space="preserve" width="550px" height="550px" version="1.1" style="shape-rendering:geometricPrecision; text-rendering:geometricPrecision; image-rendering:optimizeQuality; fill-rule:evenodd; clip-rule:evenodd"
viewBox="0 0 48.05 48.05"
 xmlns:xlink="http://www.w3.org/1999/xlink"
 xmlns:xodm="http://www.corel.com/coreldraw/odm/2003">
 <defs>
  <style type="text/css">
   <![CDATA[
    .str5 {stroke:#AEA19E;stroke-width:1.4;stroke-miterlimit:22.9256;stroke-opacity:0.949020}
    .str0 {stroke:#B8B4B6;stroke-width:4.37;stroke-miterlimit:22.9256}
    .str1 {stroke:black;stroke-width:0.17;stroke-miterlimit:22.9256}
    .str3 {stroke:black;stroke-width:0.17;stroke-miterlimit:22.9256}
    .str2 {stroke:#080808;stroke-width:0.17;stroke-miterlimit:22.9256}
    .str4 {stroke:white;stroke-width:0.17;stroke-miterlimit:22.9256}
    .fil7 {fill:#E6E7E8}
    .fil5 {fill:aqua}
    .fil4 {fill:red}
    .fil3 {fill:#FF6600}
    .fil2 {fill:yellow}
    .fil0 {fill:white}
    .fil1 {fill:black;fill-rule:nonzero}
    .fil6 {fill:black;fill-rule:nonzero}
    .fil8 {fill:#FEFEFE;fill-rule:nonzero;fill-opacity:0.949020}
   ]]>
  </style>
 </defs>
 <g id="Camada_x0020_1">
  <metadata id="CorelCorpID_0Corel-Layer"/>
  <g id="_2069382056352">
   <path class="fil0 str0" d="M4.15 2.18l39.8 0c1.05,0 1.91,0.98 1.91,2.19l0 39.3c0,1.21 -0.86,2.19 -1.91,2.19l-39.8 0c-1.06,0 -1.92,-0.98 -1.92,-2.19 0,-4.72 -0.07,-38.06 -0.04,-39.77 0.02,-0.95 1.17,-1.72 1.96,-1.72z"/>
   <g>
    <g>
     <path class="fil1" d="M34.06 17.73l-8.23 0c-0.22,0 -0.39,-0.18 -0.39,-0.39 0,-0.21 0.17,-0.39 0.39,-0.39l8.23 0c0.21,0 0.38,0.18 0.38,0.39 0,0.21 -0.17,0.39 -0.38,0.39z"/>
     <path class="fil1" d="M36.77 25.82l-2.71 0c-0.22,0 -0.39,-0.18 -0.39,-0.39l0 -15.98c0,-0.21 0.17,-0.39 0.39,-0.39l2.71 0c0.21,0 0.39,0.18 0.39,0.39 0,0.21 -0.18,0.39 -0.39,0.39l-2.33 0 0 15.2 2.33 0c0.21,0 0.39,0.18 0.39,0.39 0,0.21 -0.18,0.39 -0.39,0.39z"/>
     <path class="fil1" d="M36.77 17.73l-2.71 0c-0.22,0 -0.39,-0.18 -0.39,-0.39 0,-0.21 0.17,-0.39 0.39,-0.39l2.71 0c0.21,0 0.39,0.18 0.39,0.39 0,0.21 -0.18,0.39 -0.39,0.39z"/>
     <circle class="fil2 str1" cx="38.25" cy="9.37" r="2.3"/>
     <circle class="fil3 str2" cx="38.25" cy="17.34" r="2.3"/>
     <circle class="fil4 str3" cx="38.21" cy="25.35" r="2.3"/>
     <circle class="fil5" cx="19.7" cy="17.44" r="2.49"/>
     <path class="fil6" d="M21.58 25.21c-0.1,0 -0.19,-0.02 -0.29,-0.05 -0.19,-0.08 -0.34,-0.23 -0.41,-0.42 -0.24,-0.58 -0.77,-0.79 -1.18,-0.79 -0.41,0 -0.94,0.21 -1.18,0.79 -0.16,0.39 -0.61,0.58 -1,0.41l-1.73 -0.71c-0.19,-0.08 -0.34,-0.23 -0.42,-0.42 -0.07,-0.19 -0.07,-0.4 0,-0.58 0.25,-0.59 0.02,-1.1 -0.27,-1.4 -0.29,-0.29 -0.81,-0.51 -1.39,-0.27 -0.39,0.16 -0.84,-0.03 -1,-0.42l-0.72 -1.73c-0.08,-0.19 -0.08,-0.4 0,-0.59 0.08,-0.19 0.23,-0.33 0.42,-0.41 0.58,-0.24 0.78,-0.77 0.78,-1.18 0,-0.41 -0.2,-0.94 -0.78,-1.18 -0.19,-0.08 -0.34,-0.23 -0.42,-0.42 -0.08,-0.18 -0.08,-0.39 0,-0.58l0.72 -1.73c0.16,-0.39 0.61,-0.58 1,-0.42 0.58,0.24 1.1,0.02 1.39,-0.28 0.29,-0.29 0.52,-0.81 0.27,-1.39 -0.16,-0.39 0.03,-0.84 0.42,-1l1.73 -0.72c0.19,-0.07 0.4,-0.07 0.59,0 0.19,0.08 0.33,0.23 0.41,0.42 0.24,0.58 0.77,0.79 1.18,0.79 0,0 0,0 0,0 0.41,0 0.94,-0.21 1.18,-0.79 0.08,-0.19 0.22,-0.34 0.41,-0.42 0.19,-0.07 0.4,-0.07 0.59,0l1.73 0.72c0.19,0.08 0.34,0.23 0.41,0.42 0.08,0.19 0.08,0.39 0,0.58 -0.24,0.58 -0.01,1.1 0.28,1.39 0.29,0.3 0.81,0.52 1.39,0.28 0.39,-0.16 0.84,0.03 1,0.42l0.72 1.73c0.08,0.19 0.08,0.4 0,0.58 -0.08,0.19 -0.23,0.34 -0.42,0.42 -0.58,0.24 -0.78,0.77 -0.78,1.18 0,0.41 0.2,0.94 0.78,1.18l0 0c0.19,0.08 0.34,0.22 0.42,0.41 0.08,0.19 0.07,0.4 0,0.59l-0.72 1.73c-0.08,0.19 -0.23,0.34 -0.41,0.42 -0.19,0.08 -0.4,0.08 -0.59,0 -0.58,-0.24 -1.1,-0.02 -1.39,0.27 -0.29,0.3 -0.52,0.81 -0.28,1.4 0.16,0.39 -0.02,0.84 -0.41,1l-1.73 0.72c-0.1,0.03 -0.2,0.05 -0.3,0.05zm-1.88 -2.03c0.84,0 1.57,0.48 1.89,1.26l1.72 -0.72c-0.32,-0.77 -0.15,-1.63 0.44,-2.22 0.6,-0.6 1.45,-0.77 2.23,-0.45l0.71 -1.72c-0.78,-0.32 -1.26,-1.05 -1.26,-1.89 0,-0.85 0.49,-1.57 1.27,-1.89l-0.72 -1.73c-0.78,0.33 -1.63,0.16 -2.23,-0.44 -0.59,-0.6 -0.76,-1.45 -0.44,-2.23l-1.73 -0.71c-0.31,0.77 -1.04,1.26 -1.88,1.26 0,0 0,0 0,0 -0.85,0 -1.57,-0.49 -1.89,-1.27l-1.73 0.72c0.33,0.78 0.16,1.63 -0.44,2.23 -0.59,0.6 -1.45,0.77 -2.23,0.44l-0.71 1.73c0.78,0.32 1.26,1.04 1.26,1.89 0,0.84 -0.48,1.57 -1.26,1.89l0.72 1.73c0.77,-0.33 1.63,-0.16 2.22,0.44 0.6,0.59 0.77,1.45 0.45,2.23l1.72 0.71c0.32,-0.78 1.04,-1.26 1.89,-1.26z"/>
     <path class="fil1" d="M19.7 20.34c-1.6,0 -2.89,-1.3 -2.89,-2.9 0,-1.6 1.29,-2.9 2.89,-2.9 1.59,0 2.89,1.3 2.89,2.9 0,1.6 -1.3,2.9 -2.89,2.9zm0 -5.02c-1.17,0 -2.12,0.95 -2.12,2.12 0,1.17 0.95,2.12 2.12,2.12 1.17,0 2.12,-0.95 2.12,-2.12 0,-1.17 -0.95,-2.12 -2.12,-2.12z"/>
     <path class="fil6" d="M21.04 22.96c-0.07,0 -0.14,-0.02 -0.21,-0.05 -0.14,-0.05 -0.24,-0.16 -0.3,-0.29 -0.17,-0.41 -0.54,-0.56 -0.83,-0.56 -0.29,0 -0.67,0.15 -0.84,0.56 -0.11,0.28 -0.43,0.41 -0.71,0.29l-1.22 -0.5c-0.14,-0.06 -0.24,-0.17 -0.3,-0.3 -0.05,-0.13 -0.05,-0.28 0,-0.42 0.17,-0.41 0.01,-0.78 -0.2,-0.98 -0.2,-0.21 -0.57,-0.37 -0.98,-0.2 -0.28,0.12 -0.6,-0.02 -0.71,-0.29l-0.51 -1.23c-0.06,-0.14 -0.06,-0.28 0,-0.42 0.06,-0.13 0.16,-0.24 0.29,-0.29 0.42,-0.17 0.56,-0.55 0.56,-0.84 0,-0.29 -0.14,-0.67 -0.56,-0.84 -0.13,-0.05 -0.23,-0.16 -0.29,-0.29 -0.06,-0.14 -0.06,-0.28 0,-0.42l0.51 -1.23c0.11,-0.27 0.43,-0.41 0.71,-0.29 0.41,0.17 0.78,0.01 0.98,-0.2 0.21,-0.21 0.37,-0.57 0.2,-0.99 -0.11,-0.27 0.02,-0.59 0.3,-0.71l1.22 -0.51c0.14,-0.05 0.28,-0.05 0.42,0 0.13,0.06 0.24,0.16 0.29,0.3 0.17,0.41 0.55,0.56 0.84,0.56 0,0 0,0 0,0 0.29,0 0.66,-0.15 0.84,-0.56 0.05,-0.14 0.16,-0.24 0.29,-0.3 0.13,-0.05 0.28,-0.05 0.42,0l1.22 0.51c0.14,0.06 0.24,0.16 0.3,0.3 0.05,0.13 0.05,0.28 0,0.41 -0.17,0.42 -0.01,0.78 0.19,0.99 0.21,0.21 0.58,0.37 0.99,0.2 0.28,-0.12 0.6,0.02 0.71,0.29l0.51 1.23c0.05,0.14 0.05,0.28 0,0.42 -0.06,0.13 -0.16,0.24 -0.3,0.29 -0.41,0.17 -0.55,0.55 -0.55,0.84 0,0.29 0.14,0.67 0.55,0.84l0 0c0.14,0.05 0.24,0.16 0.3,0.29 0.05,0.14 0.05,0.28 0,0.42l-0.51 1.23c-0.06,0.13 -0.16,0.24 -0.29,0.29 -0.14,0.06 -0.29,0.06 -0.42,0 -0.41,-0.17 -0.78,-0.01 -0.99,0.2 -0.2,0.2 -0.36,0.57 -0.19,0.98 0.11,0.28 -0.02,0.6 -0.3,0.72l-1.22 0.5c-0.07,0.03 -0.14,0.05 -0.21,0.05zm-1.34 -1.45c0.6,0 1.11,0.35 1.34,0.9l1.22 -0.51c-0.23,-0.55 -0.11,-1.16 0.32,-1.58 0.42,-0.42 1.03,-0.55 1.58,-0.32l0.5 -1.22c-0.55,-0.23 -0.89,-0.74 -0.89,-1.34 0,-0.6 0.34,-1.12 0.89,-1.34l-0.51 -1.23c-0.55,0.23 -1.15,0.11 -1.57,-0.31 -0.43,-0.42 -0.55,-1.03 -0.32,-1.59l-1.22 -0.5c-0.23,0.55 -0.74,0.9 -1.34,0.9 0,0 0,0 0,0 -0.6,0 -1.11,-0.35 -1.34,-0.9l-1.23 0.51c0.24,0.55 0.12,1.16 -0.31,1.58 -0.42,0.42 -1.03,0.54 -1.58,0.31l-0.5 1.23c0.55,0.22 0.89,0.74 0.89,1.34 0,0.6 -0.34,1.11 -0.9,1.34l0.51 1.23c0.55,-0.24 1.16,-0.11 1.58,0.31 0.43,0.42 0.55,1.03 0.32,1.58l1.22 0.51c0.23,-0.55 0.74,-0.9 1.34,-0.9z"/>
    </g>
    <g>
     <rect class="fil7 str4" x="10.35" y="28.52" width="5.63" height="12.97"/>
     <path class="fil6" d="M25.33 42.33c-1.08,0 -2.15,-0.4 -3.19,-0.78 -1.14,-0.43 -2.31,-0.87 -3.48,-0.76l-2.88 0.25 0 -11.17 1.57 -0.14c0.98,-0.08 1.79,0.29 2.58,0.66 0.74,0.35 1.44,0.68 2.24,0.61l5.16 -0.94c1.84,-0.32 2.86,0.75 3.48,1.73l5.63 -2.62c2.12,-0.96 4.51,0 5.94,2.38 0.37,0.62 0.16,1.45 -0.47,1.85 -0.73,0.45 -1.45,0.91 -2.17,1.36 -6.29,3.94 -11.72,7.35 -14.04,7.55 -0.13,0.01 -0.25,0.02 -0.37,0.02zm-6.31 -2.33c1.18,0 2.3,0.42 3.39,0.82 1.13,0.42 2.19,0.81 3.22,0.72 2.14,-0.18 7.75,-3.71 13.7,-7.43 0.72,-0.45 1.44,-0.91 2.17,-1.37 0.28,-0.17 0.38,-0.53 0.22,-0.79 -1.22,-2.03 -3.22,-2.86 -4.96,-2.08l-6.26 2.91 -0.18 -0.3c-0.55,-0.97 -1.32,-1.92 -2.86,-1.66l-5.19 0.94c-1.04,0.09 -1.87,-0.3 -2.67,-0.67 -0.72,-0.34 -1.41,-0.66 -2.18,-0.59l-0.86 0.08 0 9.62 2.03 -0.18c0.15,-0.01 0.29,-0.02 0.43,-0.02z"/>
     <path class="fil6" d="M23.88 36.91c-0.18,0 -0.34,-0.13 -0.38,-0.31 -0.04,-0.21 0.1,-0.41 0.31,-0.45 2.03,-0.41 4.32,-1.34 6.99,-2.85l-0.48 -0.82c-0.1,-0.19 -0.04,-0.42 0.15,-0.53 0.18,-0.11 0.42,-0.04 0.52,0.14l0.67 1.16c0.1,0.19 0.04,0.42 -0.14,0.53 -2.89,1.66 -5.36,2.68 -7.56,3.12 -0.03,0.01 -0.05,0.01 -0.08,0.01z"/>
     <path class="fil8 str5" d="M15.25 42.33l-4.41 0c-0.72,0 -1.31,-0.59 -1.31,-1.31l0 -11.85c0,-0.73 0.59,-1.32 1.31,-1.32l4.41 0c0.72,0 1.31,0.59 1.31,1.32l0 11.85c0,0.72 -0.59,1.31 -1.31,1.31zm-4.41 -13.7c-0.3,0 -0.54,0.24 -0.54,0.54l0 11.85c0,0.29 0.24,0.54 0.54,0.54l4.41 0c0.29,0 0.53,-0.25 0.53,-0.54l0 -11.85c0,-0.3 -0.24,-0.54 -0.53,-0.54l-4.41 0z"/>
    </g>
   </g>
  </g>
 </g>
</svg>
