<?xml version="1.0" encoding="UTF-8"?>
<!DOCTYPE svg PUBLIC "-//W3C//DTD SVG 1.1//EN" "http://www.w3.org/Graphics/SVG/1.1/DTD/svg11.dtd">
<!-- Creator: CorelDRAW 2021 (64 Bit) -->
<svg xmlns="http://www.w3.org/2000/svg" xml:space="preserve" width="530px" height="530px" version="1.1" style="shape-rendering:geometricPrecision; text-rendering:geometricPrecision; image-rendering:optimizeQuality; fill-rule:evenodd; clip-rule:evenodd"
viewBox="0 0 68.92 68.92"
 xmlns:xlink="http://www.w3.org/1999/xlink"
 xmlns:xodm="http://www.corel.com/coreldraw/odm/2003">
 <defs>
  <style type="text/css">
   <![CDATA[
    .str1 {stroke:black;stroke-width:1.19;stroke-miterlimit:22.9256}
    .str0 {stroke:#B8B4B6;stroke-width:3.9;stroke-miterlimit:22.9256}
    .str4 {stroke:black;stroke-width:0.53;stroke-miterlimit:22.9256}
    .str2 {stroke:black;stroke-width:0.89;stroke-miterlimit:22.9256}
    .str3 {stroke:black;stroke-width:1.48;stroke-miterlimit:22.9256}
    .fil1 {fill:none}
    .fil6 {fill:#00CCFF}
    .fil4 {fill:lime}
    .fil8 {fill:aqua}
    .fil7 {fill:#99FFFF}
    .fil3 {fill:red}
    .fil5 {fill:fuchsia}
    .fil2 {fill:#FF6600}
    .fil0 {fill:white}
   ]]>
  </style>
 </defs>
 <g id="Camada_x0020_1">
  <metadata id="CorelCorpID_0Corel-Layer"/>
  <g id="_2787847321424">
   <path class="fil0 str0" d="M4.87 1.95l59.25 0c1.57,0 2.85,1.46 2.85,3.26l0 58.5c0,1.8 -1.28,3.26 -2.85,3.26l-59.25 0c-1.57,0 -2.85,-1.46 -2.85,-3.26 0,-7.02 -0.1,-56.66 -0.06,-59.21 0.03,-1.41 1.73,-2.55 2.91,-2.55z"/>
   <g>
    <line class="fil1 str1" x1="18.68" y1="25.23" x2="50.17" y2= "25.71" />
    <rect class="fil1 str1" x="19.58" y="35.27" width="9.86" height="9.88"/>
    <line class="fil1 str2" x1="54.21" y1="28.45" x2="54.06" y2= "53.72" />
    <line class="fil1 str2" x1="14.71" y1="28.09" x2="14.56" y2= "53.41" />
    <line class="fil1 str2" x1="34.51" y1="24.11" x2="34.36" y2= "56.6" />
    <line class="fil1 str1" x1="24.55" y1="25.35" x2="24.4" y2= "35.27" />
    <line class="fil1 str2" x1="24.46" y1="45.55" x2="24.53" y2= "51.08" />
    <rect class="fil1 str3" x="10.59" y="22.75" width="8.09" height="5.35"/>
    <rect class="fil1 str3" x="50.17" y="23.11" width="8.09" height="5.35"/>
    <ellipse class="fil1 str4" transform="matrix(0.4839 0.204633 -0.199377 0.472469 23.8469 14.0293)" rx="6.2" ry="6.36"/>
    <path class="fil1 str1" d="M26.86 12.72l1.05 -4.73c-0.42,-0.55 -1.03,-0.82 -1.8,-0.76l-2.89 3.97"/>
    <path class="fil1 str1" d="M21.33 15.49l-1.05 4.73c0.42,0.55 1.02,0.82 1.8,0.76l2.89 -3.97"/>
    <path class="fil1 str1" d="M25.07 11.17l-2.6 -4.09c-0.68,-0.1 -1.3,0.15 -1.81,0.74l0.76 4.85"/>
    <path class="fil1 str1" d="M23.12 17.04l2.6 4.09c0.68,0.1 1.3,-0.15 1.8,-0.74l-0.76 -4.85"/>
    <path class="fil1 str1" d="M21.01 13.17l-4.08 2.61c-0.1,0.68 0.21,1.33 0.8,1.83l4.86 -0.76"/>
    <path class="fil1 str1" d="M26.88 15.13l4.08 -2.6c0.1,-0.69 -0.15,-1.31 -0.73,-1.82l-4.86 0.77"/>
    <path class="fil1 str1" d="M22.47 11.42l-4.73 -1.05c-0.55,0.42 -0.82,1.03 -0.76,1.8l3.97 2.9"/>
    <path class="fil1 str1" d="M25.23 16.96l4.73 1.05c0.55,-0.42 0.82,-1.03 0.76,-1.8l-3.97 -2.9"/>
    <line class="fil1 str1" x1="29.44" y1="40.76" x2="39.06" y2= "40.74" />
    <rect class="fil1 str1" x="39.06" y="35.28" width="9.86" height="9.88"/>
    <line class="fil1 str1" x1="48.92" y1="40.77" x2="54.17" y2= "40.75" />
    <line class="fil1 str1" x1="43.99" y1="35.62" x2="43.84" y2= "25.49" />
    <line class="fil1 str2" x1="44.45" y1="45.05" x2="44.47" y2= "50.87" />
    <circle class="fil1 str2" cx="44.21" cy="56.18" r="2.34"/>
    <path class="fil1 str2" d="M45.84 54.47l-0.63 -3.43c-0.42,-0.24 -0.9,-0.25 -1.4,0l-0.8 3.45"/>
    <path class="fil1 str2" d="M42.95 57.86l0.63 3.42c0.43,0.25 0.91,0.25 1.4,0l0.81 -3.44"/>
    <path class="fil1 str2" d="M44.22 53.95l-2.86 -1.98c-0.48,0.12 -0.83,0.46 -0.99,0.99l1.86 3"/>
    <path class="fil1 str2" d="M44.57 58.38l2.86 1.98c0.48,-0.13 0.82,-0.46 1,-0.99l-1.86 -3.01"/>
    <path class="fil1 str2" d="M42.09 56.41l-1.97 2.87c0.13,0.47 0.52,0.82 1.04,0.99l3.01 -1.87"/>
    <path class="fil1 str2" d="M46.53 56.06l1.97 -2.87c-0.12,-0.47 -0.46,-0.82 -0.99,-0.99l-3 1.87"/>
    <path class="fil1 str2" d="M42.57 54.84l-3.43 0.63c-0.24,0.43 -0.25,0.91 0,1.41l3.44 0.8"/>
    <path class="fil1 str2" d="M45.95 57.74l3.42 -0.63c0.25,-0.43 0.26,-0.92 0,-1.41l-3.44 -0.8"/>
    <rect class="fil1 str2" x="51.17" y="53.72" width="5.77" height="5.35"/>
    <line class="fil1 str2" x1="49.75" y1="56.4" x2="51.17" y2= "56.39" />
    <rect class="fil1 str2" x="11.74" y="53.41" width="5.77" height="5.35"/>
    <line class="fil1 str2" x1="17.58" y1="56.4" x2="19" y2= "56.38" />
    <circle class="fil1 str2" cx="24.3" cy="56.38" r="2.34"/>
    <path class="fil1 str2" d="M25.93 54.67l-0.62 -3.43c-0.44,-0.25 -0.92,-0.25 -1.41,0l-0.81 3.45"/>
    <path class="fil1 str2" d="M23.04 58.05l0.63 3.43c0.43,0.25 0.91,0.25 1.41,0l0.8 -3.44"/>
    <path class="fil1 str2" d="M24.31 54.14l-2.86 -1.98c-0.48,0.13 -0.82,0.47 -0.99,1l1.86 3"/>
    <path class="fil1 str2" d="M24.66 58.58l2.87 1.98c0.47,-0.13 0.82,-0.47 0.99,-0.99l-1.87 -3.01"/>
    <path class="fil1 str2" d="M22.19 56.61l-1.98 2.86c0.13,0.48 0.51,0.83 1.05,1l3 -1.87"/>
    <path class="fil1 str2" d="M26.62 56.26l1.97 -2.87c-0.12,-0.48 -0.46,-0.82 -0.99,-0.99l-3 1.86"/>
    <path class="fil1 str2" d="M22.66 55.04l-3.42 0.63c-0.25,0.43 -0.26,0.91 0,1.4l3.44 0.81"/>
    <path class="fil1 str2" d="M26.04 57.93l3.42 -0.63c0.25,-0.42 0.26,-0.91 0,-1.4l-3.44 -0.81"/>
    <line class="fil1 str1" x1="14.76" y1="40.77" x2="19.58" y2= "40.75" />
    <line class="fil1 str2" x1="29.6" y1="56.6" x2="39.22" y2= "56.59" />
    <ellipse class="fil1 str4" transform="matrix(0.4839 0.204633 -0.199377 0.472469 45.3231 14.6471)" rx="6.2" ry="6.36"/>
    <path class="fil1 str1" d="M48.34 13.34l1.04 -4.73c-0.41,-0.55 -1.02,-0.82 -1.79,-0.76l-2.9 3.97"/>
    <path class="fil1 str1" d="M42.8 16.11l-1.04 4.73c0.41,0.55 1.02,0.82 1.79,0.76l2.9 -3.98"/>
    <path class="fil1 str1" d="M46.55 11.79l-2.6 -4.09c-0.69,-0.1 -1.31,0.15 -1.81,0.73l0.76 4.86"/>
    <path class="fil1 str1" d="M44.59 17.66l2.6 4.09c0.69,0.09 1.31,-0.15 1.81,-0.74l-0.76 -4.86"/>
    <path class="fil1 str1" d="M42.49 13.79l-4.09 2.6c-0.09,0.68 0.22,1.34 0.81,1.84l4.85 -0.76"/>
    <path class="fil1 str1" d="M48.36 15.75l4.08 -2.61c0.09,-0.68 -0.15,-1.3 -0.74,-1.81l-4.85 0.77"/>
    <path class="fil1 str1" d="M43.94 12.04l-4.72 -1.05c-0.55,0.41 -0.82,1.03 -0.76,1.8l3.97 2.9"/>
    <path class="fil1 str1" d="M46.71 17.57l4.72 1.05c0.56,-0.41 0.82,-1.02 0.76,-1.8l-3.97 -2.89"/>
    <circle class="fil1 str2" cx="34.33" cy="18.86" r="2.34"/>
    <path class="fil1 str2" d="M35.96 17.15l-0.63 -3.43c-0.42,-0.25 -0.9,-0.25 -1.4,0l-0.8 3.44"/>
    <path class="fil1 str2" d="M33.07 20.53l0.63 3.43c0.43,0.25 0.91,0.25 1.4,0l0.81 -3.45"/>
    <path class="fil1 str2" d="M34.35 16.62l-2.87 -1.98c-0.48,0.13 -0.82,0.46 -0.99,0.99l1.86 3.01"/>
    <path class="fil1 str2" d="M34.69 21.06l2.86 1.97c0.48,-0.12 0.83,-0.46 1,-0.99l-1.87 -3"/>
    <path class="fil1 str2" d="M32.21 19.08l-1.97 2.87c0.12,0.48 0.52,0.82 1.04,0.99l3 -1.86"/>
    <path class="fil1 str2" d="M36.65 18.74l1.97 -2.87c-0.12,-0.48 -0.46,-0.82 -0.99,-0.99l-3 1.86"/>
    <path class="fil1 str2" d="M32.69 17.52l-3.43 0.62c-0.25,0.43 -0.25,0.92 0,1.41l3.44 0.8"/>
    <path class="fil1 str2" d="M36.07 20.41l3.42 -0.63c0.25,-0.42 0.25,-0.91 0,-1.4l-3.44 -0.81"/>
    <line class="fil1 str1" x1="18.68" y1="25.23" x2="50.17" y2= "25.71" />
    <rect class="fil2 str1" x="19.58" y="35.27" width="9.86" height="9.88"/>
    <line class="fil1 str2" x1="54.21" y1="28.45" x2="54.06" y2= "53.72" />
    <line class="fil1 str2" x1="14.71" y1="28.09" x2="14.56" y2= "53.41" />
    <line class="fil1 str2" x1="34.51" y1="24.11" x2="34.36" y2= "56.6" />
    <line class="fil1 str1" x1="24.55" y1="25.35" x2="24.4" y2= "35.27" />
    <line class="fil1 str2" x1="24.46" y1="45.55" x2="24.53" y2= "51.08" />
    <rect class="fil3 str3" x="10.59" y="22.75" width="8.09" height="5.35"/>
    <rect class="fil3 str3" x="50.17" y="23.11" width="8.09" height="5.35"/>
    <ellipse class="fil4 str4" transform="matrix(0.4839 0.204633 -0.199377 0.472469 23.8469 14.0293)" rx="6.2" ry="6.36"/>
    <path class="fil1 str1" d="M26.86 12.72l1.05 -4.73c-0.42,-0.55 -1.03,-0.82 -1.8,-0.76l-2.89 3.97"/>
    <path class="fil1 str1" d="M21.33 15.49l-1.05 4.73c0.42,0.55 1.02,0.82 1.8,0.76l2.89 -3.97"/>
    <path class="fil1 str1" d="M25.07 11.17l-2.6 -4.09c-0.68,-0.1 -1.3,0.15 -1.81,0.74l0.76 4.85"/>
    <path class="fil1 str1" d="M23.12 17.04l2.6 4.09c0.68,0.1 1.3,-0.15 1.8,-0.74l-0.76 -4.85"/>
    <path class="fil1 str1" d="M21.01 13.17l-4.08 2.61c-0.1,0.68 0.21,1.33 0.8,1.83l4.86 -0.76"/>
    <path class="fil1 str1" d="M26.88 15.13l4.08 -2.6c0.1,-0.69 -0.15,-1.31 -0.73,-1.82l-4.86 0.77"/>
    <path class="fil1 str1" d="M22.47 11.42l-4.73 -1.05c-0.55,0.42 -0.82,1.03 -0.76,1.8l3.97 2.9"/>
    <path class="fil1 str1" d="M25.23 16.96l4.73 1.05c0.55,-0.42 0.82,-1.03 0.76,-1.8l-3.97 -2.9"/>
    <line class="fil1 str1" x1="29.44" y1="40.76" x2="39.06" y2= "40.74" />
    <rect class="fil5 str1" x="39.06" y="35.28" width="9.86" height="9.88"/>
    <line class="fil1 str1" x1="48.92" y1="40.77" x2="54.17" y2= "40.75" />
    <line class="fil1 str1" x1="43.99" y1="35.62" x2="43.84" y2= "25.49" />
    <line class="fil1 str2" x1="44.45" y1="45.05" x2="44.47" y2= "50.87" />
    <circle class="fil3 str2" cx="44.21" cy="56.18" r="2.34"/>
    <path class="fil1 str2" d="M45.84 54.47l-0.63 -3.43c-0.42,-0.24 -0.9,-0.25 -1.4,0l-0.8 3.45"/>
    <path class="fil1 str2" d="M42.95 57.86l0.63 3.42c0.43,0.25 0.91,0.25 1.4,0l0.81 -3.44"/>
    <path class="fil1 str2" d="M44.22 53.95l-2.86 -1.98c-0.48,0.12 -0.83,0.46 -0.99,0.99l1.86 3"/>
    <path class="fil1 str2" d="M44.57 58.38l2.86 1.98c0.48,-0.13 0.82,-0.46 1,-0.99l-1.86 -3.01"/>
    <path class="fil1 str2" d="M42.09 56.41l-1.97 2.87c0.13,0.47 0.52,0.82 1.04,0.99l3.01 -1.87"/>
    <path class="fil1 str2" d="M46.53 56.06l1.97 -2.87c-0.12,-0.47 -0.46,-0.82 -0.99,-0.99l-3 1.87"/>
    <path class="fil1 str2" d="M42.57 54.84l-3.43 0.63c-0.24,0.43 -0.25,0.91 0,1.41l3.44 0.8"/>
    <path class="fil1 str2" d="M45.95 57.74l3.42 -0.63c0.25,-0.43 0.26,-0.92 0,-1.41l-3.44 -0.8"/>
    <rect class="fil6 str2" x="51.17" y="53.72" width="5.77" height="5.35"/>
    <line class="fil1 str2" x1="49.75" y1="56.4" x2="51.17" y2= "56.39" />
    <rect class="fil7 str2" x="11.74" y="53.41" width="5.77" height="5.35"/>
    <line class="fil1 str2" x1="17.58" y1="56.4" x2="19" y2= "56.38" />
    <circle class="fil3 str2" cx="24.3" cy="56.38" r="2.34"/>
    <path class="fil1 str2" d="M25.93 54.67l-0.62 -3.43c-0.44,-0.25 -0.92,-0.25 -1.41,0l-0.81 3.45"/>
    <path class="fil1 str2" d="M23.04 58.05l0.63 3.43c0.43,0.25 0.91,0.25 1.41,0l0.8 -3.44"/>
    <path class="fil1 str2" d="M24.31 54.14l-2.86 -1.98c-0.48,0.13 -0.82,0.47 -0.99,1l1.86 3"/>
    <path class="fil1 str2" d="M24.66 58.58l2.87 1.98c0.47,-0.13 0.82,-0.47 0.99,-0.99l-1.87 -3.01"/>
    <path class="fil1 str2" d="M22.19 56.61l-1.98 2.86c0.13,0.48 0.51,0.83 1.05,1l3 -1.87"/>
    <path class="fil1 str2" d="M26.62 56.26l1.97 -2.87c-0.12,-0.48 -0.46,-0.82 -0.99,-0.99l-3 1.86"/>
    <path class="fil1 str2" d="M22.66 55.04l-3.42 0.63c-0.25,0.43 -0.26,0.91 0,1.4l3.44 0.81"/>
    <path class="fil1 str2" d="M26.04 57.93l3.42 -0.63c0.25,-0.42 0.26,-0.91 0,-1.4l-3.44 -0.81"/>
    <line class="fil1 str1" x1="14.76" y1="40.77" x2="19.58" y2= "40.75" />
    <line class="fil1 str2" x1="29.6" y1="56.6" x2="39.22" y2= "56.59" />
    <ellipse class="fil4 str4" transform="matrix(0.4839 0.204633 -0.199377 0.472469 45.3231 14.6471)" rx="6.2" ry="6.36"/>
    <path class="fil1 str1" d="M48.34 13.34l1.04 -4.73c-0.41,-0.55 -1.02,-0.82 -1.79,-0.76l-2.9 3.97"/>
    <path class="fil1 str1" d="M42.8 16.11l-1.04 4.73c0.41,0.55 1.02,0.82 1.79,0.76l2.9 -3.98"/>
    <path class="fil1 str1" d="M46.55 11.79l-2.6 -4.09c-0.69,-0.1 -1.31,0.15 -1.81,0.73l0.76 4.86"/>
    <path class="fil1 str1" d="M44.59 17.66l2.6 4.09c0.69,0.09 1.31,-0.15 1.81,-0.74l-0.76 -4.86"/>
    <path class="fil1 str1" d="M42.49 13.79l-4.09 2.6c-0.09,0.68 0.22,1.34 0.81,1.84l4.85 -0.76"/>
    <path class="fil1 str1" d="M48.36 15.75l4.08 -2.61c0.09,-0.68 -0.15,-1.3 -0.74,-1.81l-4.85 0.77"/>
    <path class="fil1 str1" d="M43.94 12.04l-4.72 -1.05c-0.55,0.41 -0.82,1.03 -0.76,1.8l3.97 2.9"/>
    <path class="fil1 str1" d="M46.71 17.57l4.72 1.05c0.56,-0.41 0.82,-1.02 0.76,-1.8l-3.97 -2.89"/>
    <circle class="fil8 str2" cx="34.33" cy="18.86" r="2.34"/>
    <path class="fil1 str2" d="M35.96 17.15l-0.63 -3.43c-0.42,-0.25 -0.9,-0.25 -1.4,0l-0.8 3.44"/>
    <path class="fil1 str2" d="M33.07 20.53l0.63 3.43c0.43,0.25 0.91,0.25 1.4,0l0.81 -3.45"/>
    <path class="fil1 str2" d="M34.35 16.62l-2.87 -1.98c-0.48,0.13 -0.82,0.46 -0.99,0.99l1.86 3.01"/>
    <path class="fil1 str2" d="M34.69 21.06l2.86 1.97c0.48,-0.12 0.83,-0.46 1,-0.99l-1.87 -3"/>
    <path class="fil1 str2" d="M32.21 19.08l-1.97 2.87c0.12,0.48 0.52,0.82 1.04,0.99l3 -1.86"/>
    <path class="fil1 str2" d="M36.65 18.74l1.97 -2.87c-0.12,-0.48 -0.46,-0.82 -0.99,-0.99l-3 1.86"/>
    <path class="fil1 str2" d="M32.69 17.52l-3.43 0.62c-0.25,0.43 -0.25,0.92 0,1.41l3.44 0.8"/>
    <path class="fil1 str2" d="M36.07 20.41l3.42 -0.63c0.25,-0.42 0.25,-0.91 0,-1.4l-3.44 -0.81"/>
   </g>
  </g>
 </g>
</svg>
