<?xml version="1.0" encoding="UTF-8"?>
<!DOCTYPE svg PUBLIC "-//W3C//DTD SVG 1.1//EN" "http://www.w3.org/Graphics/SVG/1.1/DTD/svg11.dtd">
<!-- Creator: CorelDRAW 2021 (64 Bit) -->
<svg xmlns="http://www.w3.org/2000/svg" xml:space="preserve" width="550px" height="550px" version="1.1" style="shape-rendering:geometricPrecision; text-rendering:geometricPrecision; image-rendering:optimizeQuality; fill-rule:evenodd; clip-rule:evenodd"
viewBox="0 0 47.93 47.93"
 xmlns:xlink="http://www.w3.org/1999/xlink"
 xmlns:xodm="http://www.corel.com/coreldraw/odm/2003">
 <defs>
  <style type="text/css">
   <![CDATA[
    .str2 {stroke:#AEA19E;stroke-width:1.39;stroke-miterlimit:22.9256;stroke-opacity:0.949020}
    .str0 {stroke:#B8B4B6;stroke-width:4.36;stroke-miterlimit:22.9256}
    .str1 {stroke:white;stroke-width:0.17;stroke-miterlimit:22.9256}
    .str3 {stroke:black;stroke-width:1.05;stroke-miterlimit:22.9256}
    .fil4 {fill:none}
    .fil1 {fill:#E6E7E8}
    .fil8 {fill:#FFF212}
    .fil9 {fill:aqua}
    .fil7 {fill:red}
    .fil0 {fill:white}
    .fil5 {fill:#373435;fill-rule:nonzero}
    .fil6 {fill:black;fill-rule:nonzero}
    .fil2 {fill:#333333;fill-rule:nonzero}
    .fil3 {fill:#FEFEFE;fill-rule:nonzero;fill-opacity:0.949020}
   ]]>
  </style>
 </defs>
 <g id="Camada_x0020_1">
  <metadata id="CorelCorpID_0Corel-Layer"/>
  <g id="_2069653049120">
   <path class="fil0 str0" d="M4.14 2.18l39.7 0c1.06,0 1.91,0.98 1.91,2.18l0 39.21c0,1.21 -0.85,2.18 -1.91,2.18l-39.7 0c-1.06,0 -1.91,-0.97 -1.91,-2.18 0,-4.71 -0.07,-37.97 -0.04,-39.68 0.01,-0.95 1.16,-1.71 1.95,-1.71z"/>
   <g>
    <g>
     <rect class="fil1 str1" x="8.66" y="27.26" width="5.82" height="13.4"/>
     <path class="fil2" d="M24.13 41.52c-1.11,0 -2.22,-0.41 -3.29,-0.81 -1.17,-0.44 -2.39,-0.89 -3.59,-0.78l-2.97 0.26 0 -11.54 1.61 -0.14c1.01,-0.09 1.85,0.3 2.67,0.68 0.76,0.36 1.48,0.7 2.31,0.63l5.33 -0.97c1.9,-0.33 2.95,0.77 3.59,1.78l5.82 -2.7c2.19,-0.99 4.65,0 6.13,2.46 0.39,0.64 0.17,1.5 -0.48,1.91 -0.76,0.47 -1.51,0.94 -2.25,1.4 -6.49,4.08 -12.1,7.59 -14.5,7.8 -0.12,0.01 -0.25,0.02 -0.38,0.02zm-6.51 -2.41c1.22,0 2.38,0.43 3.5,0.85 1.16,0.43 2.26,0.84 3.32,0.75 2.21,-0.2 8.01,-3.83 14.15,-7.68 0.74,-0.47 1.49,-0.94 2.25,-1.41 0.28,-0.18 0.38,-0.55 0.22,-0.82 -1.26,-2.1 -3.32,-2.96 -5.12,-2.15l-6.47 3.01c-0.01,-0.42 -0.33,-0.91 -0.51,-1.12 -0.59,-0.71 -1.75,-1.06 -2.62,-0.91l-5.36 0.98c-1.08,0.08 -1.93,-0.31 -2.76,-0.7 -0.75,-0.35 -1.46,-0.68 -2.26,-0.61l-0.89 0.08 0 9.94 2.11 -0.19c0.14,-0.01 0.29,-0.02 0.44,-0.02z"/>
     <path class="fil3 str2" d="M13.72 41.52l-4.55 0c-0.74,0 -1.35,-0.61 -1.35,-1.36l0 -12.24c0,-0.74 0.61,-1.35 1.35,-1.35l4.55 0c0.75,0 1.35,0.61 1.35,1.35l0 12.24c0,0.75 -0.6,1.36 -1.35,1.36zm-4.55 -14.15c-0.3,0 -0.55,0.25 -0.55,0.55l0 12.24c0,0.31 0.25,0.56 0.55,0.56l4.55 0c0.31,0 0.56,-0.25 0.56,-0.56l0 -12.24c0,-0.3 -0.25,-0.55 -0.56,-0.55l-4.55 0z"/>
     <path class="fil4 str3" d="M29.79 31.46c0.09,0.18 0.1,0.51 -0.12,0.86 -0.34,0.56 -1.13,0.98 -3.05,0.76 -1.41,-0.17 -3.11,0.16 -4.59,0.32"/>
    </g>
    <g>
     <g>
      <path class="fil5" d="M16.86 18c0.06,-0.05 0.11,-0.12 0.14,-0.2 0.06,-0.15 0.06,-0.32 0,-0.48 -0.2,-0.47 -0.02,-0.89 0.22,-1.12 0.24,-0.24 0.66,-0.42 1.13,-0.23 0.31,0.13 0.68,-0.02 0.81,-0.33l0.58 -1.41c0.06,-0.15 0.06,-0.32 -0.01,-0.47 -0.06,-0.16 -0.18,-0.28 -0.33,-0.34 -0.47,-0.19 -0.64,-0.62 -0.64,-0.95 0,-0.34 0.17,-0.76 0.64,-0.96 0.31,-0.13 0.46,-0.5 0.33,-0.81l-0.58 -1.4c-0.06,-0.16 -0.18,-0.28 -0.34,-0.34 -0.15,-0.06 -0.32,-0.06 -0.47,0 -0.47,0.2 -0.89,0.01 -1.13,-0.22 -0.23,-0.24 -0.42,-0.66 -0.22,-1.13 0.06,-0.15 0.06,-0.32 0,-0.47 -0.07,-0.16 -0.19,-0.28 -0.34,-0.34l-1.4 -0.58c-0.32,-0.13 -0.68,0.02 -0.81,0.34 -0.2,0.47 -0.62,0.64 -0.96,0.64 -0.33,0 -0.75,-0.17 -0.95,-0.64 -0.13,-0.32 -0.5,-0.47 -0.81,-0.34l-1.4 0.59c-0.16,0.06 -0.27,0.18 -0.34,0.33 -0.06,0.16 -0.06,0.33 0,0.48 0.2,0.47 0.02,0.89 -0.22,1.13 0,0 0,0 0,0 -0.24,0.23 -0.65,0.42 -1.13,0.22 -0.15,-0.06 -0.32,-0.06 -0.47,0 -0.15,0.07 -0.27,0.18 -0.34,0.34l-0.57 1.4c-0.07,0.15 -0.07,0.32 0,0.48 0.06,0.15 0.18,0.27 0.33,0.33 0.47,0.2 0.64,0.62 0.64,0.96 0,0.33 -0.17,0.76 -0.64,0.95 -0.31,0.13 -0.46,0.5 -0.33,0.82l0.58 1.4c0.06,0.15 0.18,0.27 0.34,0.33 0.15,0.07 0.32,0.07 0.47,0 0.47,-0.19 0.89,-0.01 1.13,0.23 0.23,0.23 0.42,0.65 0.22,1.12l0 0c-0.06,0.16 -0.06,0.33 0,0.48 0.07,0.15 0.19,0.27 0.34,0.33l1.4 0.58c0.15,0.07 0.32,0.07 0.48,0 0.15,-0.06 0.27,-0.18 0.33,-0.33 0.2,-0.47 0.62,-0.64 0.96,-0.64 0.33,0 0.76,0.16 0.95,0.63 0.13,0.32 0.5,0.47 0.81,0.34l1.4 -0.58c0.08,-0.03 0.15,-0.08 0.2,-0.14zm-0.08 -2.24c-0.49,0.48 -0.62,1.17 -0.36,1.8l-1.4 0.58c-0.25,-0.63 -0.84,-1.02 -1.53,-1.02 -0.68,0 -1.27,0.39 -1.53,1.03l-1.39 -0.58c0.26,-0.63 0.12,-1.33 -0.36,-1.81 -0.48,-0.48 -1.18,-0.62 -1.81,-0.36l-0.57 -1.39c0.62,-0.26 1.02,-0.85 1.02,-1.53 -0.01,-0.69 -0.4,-1.28 -1.03,-1.54l0.58 -1.39c0.63,0.26 1.32,0.12 1.8,-0.36 0,0 0,0 0,0 0.49,-0.49 0.62,-1.18 0.36,-1.81l1.4 -0.58c0.25,0.63 0.84,1.02 1.53,1.02 0.68,0 1.27,-0.39 1.53,-1.02l1.39 0.58c-0.26,0.62 -0.12,1.32 0.36,1.8 0.48,0.48 1.18,0.62 1.81,0.36l0.57 1.4c-0.62,0.25 -1.02,0.84 -1.02,1.53 0,0.68 0.4,1.27 1.03,1.53l-0.58 1.4c-0.63,-0.27 -1.32,-0.13 -1.8,0.36z"/>
      <path class="fil5" d="M15.88 16.4c0.04,-0.04 0.08,-0.09 0.1,-0.15 0.04,-0.11 0.04,-0.23 0,-0.33 -0.14,-0.34 -0.01,-0.64 0.16,-0.8 0.16,-0.17 0.46,-0.3 0.8,-0.16 0.22,0.09 0.48,-0.02 0.57,-0.24l0.41 -1c0.05,-0.11 0.05,-0.23 0,-0.34 -0.04,-0.11 -0.13,-0.19 -0.24,-0.23 -0.33,-0.14 -0.45,-0.45 -0.45,-0.68 0,-0.24 0.12,-0.54 0.45,-0.68 0.23,-0.09 0.33,-0.35 0.24,-0.58l-0.41 -0.99c-0.05,-0.11 -0.13,-0.19 -0.24,-0.24 -0.11,-0.04 -0.23,-0.04 -0.34,0 -0.33,0.14 -0.63,0.01 -0.8,-0.16 -0.17,-0.16 -0.3,-0.46 -0.16,-0.8 0.05,-0.11 0.05,-0.23 0,-0.33 -0.04,-0.11 -0.13,-0.2 -0.24,-0.24l-0.99 -0.41c-0.23,-0.1 -0.48,0.01 -0.58,0.24 -0.14,0.33 -0.44,0.45 -0.67,0.45 -0.24,0 -0.54,-0.12 -0.68,-0.45 -0.09,-0.23 -0.35,-0.33 -0.58,-0.24l-0.99 0.41c-0.11,0.05 -0.19,0.13 -0.24,0.24 -0.04,0.11 -0.04,0.23 0,0.34 0.14,0.33 0.01,0.63 -0.16,0.8 0,0 0,0 0,0 -0.16,0.17 -0.46,0.3 -0.8,0.16 -0.1,-0.05 -0.22,-0.05 -0.33,0 -0.11,0.04 -0.2,0.13 -0.24,0.24l-0.41 0.99c-0.05,0.11 -0.05,0.23 0,0.34 0.04,0.11 0.13,0.19 0.24,0.24 0.33,0.14 0.45,0.44 0.45,0.68 0,0.23 -0.12,0.54 -0.45,0.67 -0.23,0.1 -0.33,0.36 -0.24,0.58l0.41 1c0.05,0.1 0.13,0.19 0.24,0.23 0.11,0.05 0.23,0.05 0.34,0 0.33,-0.14 0.63,-0.01 0.8,0.16 0.17,0.17 0.3,0.47 0.16,0.8l0 0c-0.05,0.11 -0.05,0.23 0,0.34 0.04,0.11 0.13,0.19 0.24,0.24l0.99 0.41c0.11,0.04 0.23,0.04 0.34,0 0.11,-0.05 0.19,-0.13 0.24,-0.24 0.14,-0.34 0.44,-0.45 0.67,-0.45 0.24,-0.01 0.54,0.11 0.68,0.45 0.09,0.22 0.35,0.33 0.58,0.24l0.99 -0.42c0.06,-0.02 0.1,-0.05 0.14,-0.09zm-0.06 -1.6c-0.34,0.35 -0.44,0.84 -0.25,1.29l-0.99 0.4c-0.18,-0.44 -0.6,-0.72 -1.09,-0.72 -0.48,0 -0.9,0.28 -1.08,0.73l-0.99 -0.41c0.18,-0.45 0.08,-0.94 -0.26,-1.28 -0.34,-0.35 -0.83,-0.44 -1.28,-0.26l-0.41 -0.99c0.45,-0.18 0.73,-0.6 0.72,-1.09 0,-0.48 -0.27,-0.9 -0.72,-1.08l0.41 -0.99c0.44,0.18 0.93,0.08 1.28,-0.26 0,0 0,0 0,0 0.34,-0.34 0.44,-0.83 0.25,-1.28l0.99 -0.41c0.18,0.45 0.6,0.72 1.09,0.72 0.48,0 0.9,-0.28 1.08,-0.73l0.99 0.42c-0.18,0.44 -0.09,0.93 0.26,1.28 0.34,0.34 0.83,0.44 1.28,0.25l0.41 0.99c-0.45,0.19 -0.73,0.6 -0.73,1.09 0.01,0.48 0.28,0.9 0.73,1.09l-0.41 0.99c-0.44,-0.19 -0.93,-0.09 -1.28,0.25z"/>
      <g>
       <path class="fil6" d="M15.15 14.13c0.91,-0.92 0.91,-2.4 0,-3.32 -0.92,-0.91 -2.41,-0.91 -3.32,0 -0.91,0.92 -0.91,2.41 0,3.32 0.92,0.92 2.41,0.92 3.32,0zm-2.88 -2.87c0.67,-0.67 1.76,-0.68 2.43,-0.01 0.67,0.67 0.68,1.77 0.01,2.44 -0.67,0.67 -1.76,0.67 -2.43,0 -0.67,-0.67 -0.68,-1.76 -0.01,-2.43z"/>
       <circle class="fil7" cx="13.49" cy="12.47" r="1.71"/>
      </g>
     </g>
     <g>
      <path class="fil5" d="M31.23 17.47c-0.06,-0.06 -0.1,-0.12 -0.13,-0.2 -0.07,-0.15 -0.07,-0.32 0,-0.48 0.19,-0.47 0.01,-0.89 -0.23,-1.12 -0.23,-0.24 -0.65,-0.42 -1.12,-0.23 -0.32,0.13 -0.68,-0.02 -0.81,-0.34l-0.58 -1.4c-0.06,-0.15 -0.06,-0.32 0,-0.47 0.06,-0.16 0.18,-0.28 0.34,-0.34 0.47,-0.19 0.63,-0.62 0.63,-0.95 0,-0.34 -0.16,-0.77 -0.63,-0.96 -0.32,-0.13 -0.47,-0.5 -0.34,-0.81l0.58 -1.4c0.07,-0.16 0.19,-0.28 0.34,-0.34 0.15,-0.06 0.32,-0.06 0.47,0 0.47,0.2 0.89,0.01 1.13,-0.22 0.24,-0.24 0.42,-0.66 0.23,-1.13 -0.07,-0.15 -0.07,-0.32 0,-0.47 0.06,-0.16 0.18,-0.28 0.33,-0.34l1.4 -0.58c0.32,-0.13 0.68,0.02 0.81,0.34 0.2,0.47 0.62,0.64 0.96,0.64 0.33,0 0.76,-0.17 0.95,-0.64 0.14,-0.32 0.5,-0.47 0.81,-0.34l1.41 0.59c0.15,0.06 0.27,0.18 0.33,0.33 0.06,0.16 0.06,0.33 0,0.48 -0.19,0.47 -0.01,0.89 0.22,1.13 0,0 0,0 0,0 0.24,0.23 0.66,0.42 1.13,0.22 0.15,-0.06 0.32,-0.06 0.47,0 0.16,0.06 0.28,0.18 0.34,0.34l0.58 1.4c0.06,0.15 0.06,0.32 0,0.48 -0.07,0.15 -0.19,0.27 -0.34,0.33 -0.47,0.2 -0.64,0.62 -0.64,0.96 0,0.33 0.17,0.76 0.64,0.95 0.32,0.13 0.47,0.5 0.33,0.82l-0.58 1.4c-0.06,0.15 -0.18,0.27 -0.33,0.33 -0.16,0.07 -0.33,0.07 -0.48,0 -0.47,-0.19 -0.89,-0.01 -1.12,0.23 -0.24,0.23 -0.42,0.65 -0.23,1.12l0 0c0.06,0.16 0.06,0.32 0,0.48 -0.06,0.15 -0.18,0.27 -0.34,0.33l-1.4 0.58c-0.15,0.07 -0.32,0.07 -0.47,0 -0.16,-0.06 -0.28,-0.18 -0.34,-0.33 -0.19,-0.47 -0.62,-0.64 -0.95,-0.64 -0.34,0 -0.76,0.16 -0.96,0.63 -0.13,0.32 -0.49,0.47 -0.81,0.34l-1.4 -0.58c-0.08,-0.04 -0.14,-0.08 -0.2,-0.14zm0.09 -2.25c0.48,0.49 0.62,1.18 0.35,1.81l1.4 0.58c0.26,-0.63 0.85,-1.02 1.53,-1.02 0.68,0 1.27,0.39 1.53,1.03l1.39 -0.58c-0.26,-0.64 -0.12,-1.33 0.36,-1.81 0.49,-0.48 1.18,-0.62 1.81,-0.36l0.58 -1.4c-0.63,-0.25 -1.02,-0.84 -1.02,-1.52 0,-0.69 0.39,-1.28 1.02,-1.54l-0.58 -1.39c-0.62,0.26 -1.32,0.12 -1.8,-0.36 0,0 0,0 0,0 -0.48,-0.49 -0.62,-1.18 -0.36,-1.81l-1.4 -0.58c-0.25,0.63 -0.84,1.02 -1.52,1.02 -0.69,0 -1.27,-0.39 -1.53,-1.02l-1.4 0.58c0.26,0.62 0.13,1.32 -0.36,1.8 -0.48,0.48 -1.17,0.62 -1.8,0.36l-0.58 1.4c0.63,0.25 1.02,0.84 1.02,1.53 0,0.68 -0.39,1.27 -1.03,1.53l0.59 1.4c0.62,-0.27 1.31,-0.13 1.8,0.35z"/>
      <path class="fil5" d="M32.21 15.87c-0.04,-0.04 -0.07,-0.09 -0.1,-0.15 -0.04,-0.11 -0.04,-0.23 0,-0.34 0.14,-0.33 0.01,-0.63 -0.15,-0.79 -0.17,-0.17 -0.47,-0.3 -0.8,-0.16 -0.23,0.09 -0.48,-0.02 -0.58,-0.24l-0.41 -1c-0.04,-0.11 -0.04,-0.23 0,-0.34 0.05,-0.11 0.13,-0.19 0.24,-0.24 0.33,-0.13 0.45,-0.44 0.45,-0.67 0,-0.24 -0.11,-0.54 -0.45,-0.68 -0.22,-0.09 -0.33,-0.35 -0.24,-0.58l0.42 -0.99c0.04,-0.11 0.13,-0.2 0.24,-0.24 0.1,-0.05 0.22,-0.05 0.33,0 0.34,0.14 0.63,0.01 0.8,-0.16 0.17,-0.17 0.3,-0.46 0.16,-0.8 -0.04,-0.11 -0.04,-0.23 0,-0.33 0.05,-0.11 0.13,-0.2 0.24,-0.24l1 -0.41c0.22,-0.1 0.48,0.01 0.57,0.23 0.14,0.34 0.44,0.46 0.68,0.46 0.23,0 0.54,-0.12 0.67,-0.45 0.1,-0.23 0.36,-0.34 0.58,-0.24l0.99 0.41c0.11,0.05 0.2,0.13 0.24,0.24 0.05,0.11 0.05,0.23 0,0.34 -0.14,0.33 -0.01,0.63 0.16,0.8 0,0 0,0 0,0 0.17,0.17 0.46,0.3 0.8,0.16 0.11,-0.05 0.23,-0.05 0.34,0 0.1,0.04 0.19,0.13 0.23,0.24l0.41 0.99c0.05,0.11 0.05,0.23 0,0.34 -0.04,0.11 -0.13,0.19 -0.23,0.24 -0.34,0.14 -0.46,0.44 -0.46,0.68 0,0.23 0.12,0.53 0.45,0.67 0.23,0.1 0.34,0.36 0.24,0.58l-0.41 0.99c-0.05,0.11 -0.13,0.2 -0.24,0.24 -0.11,0.05 -0.23,0.05 -0.34,0 -0.33,-0.14 -0.63,-0.01 -0.8,0.16 -0.16,0.17 -0.29,0.47 -0.16,0.8l0 0c0.05,0.11 0.05,0.23 0,0.34 -0.04,0.11 -0.13,0.19 -0.23,0.24l-1 0.41c-0.11,0.04 -0.23,0.04 -0.34,0 -0.1,-0.05 -0.19,-0.13 -0.23,-0.24 -0.14,-0.34 -0.44,-0.46 -0.68,-0.46 -0.24,0 -0.54,0.12 -0.68,0.46 -0.09,0.22 -0.35,0.33 -0.57,0.23l-1 -0.41c-0.05,-0.02 -0.1,-0.05 -0.14,-0.09zm0.06 -1.6c0.34,0.34 0.44,0.84 0.25,1.28l1 0.41c0.18,-0.44 0.59,-0.72 1.08,-0.72 0.48,0 0.9,0.28 1.09,0.73l0.98 -0.41c-0.18,-0.45 -0.08,-0.94 0.26,-1.28 0.34,-0.35 0.84,-0.44 1.28,-0.26l0.41 -0.99c-0.44,-0.18 -0.72,-0.6 -0.72,-1.09 0,-0.48 0.28,-0.9 0.73,-1.08l-0.42 -0.99c-0.44,0.18 -0.93,0.08 -1.27,-0.26 0,0 0,0 0,0 -0.35,-0.34 -0.44,-0.83 -0.26,-1.28l-0.99 -0.41c-0.18,0.44 -0.6,0.72 -1.08,0.72 -0.49,0 -0.9,-0.28 -1.09,-0.73l-0.99 0.42c0.19,0.44 0.09,0.93 -0.25,1.28 -0.35,0.34 -0.84,0.44 -1.29,0.25l-0.41 0.99c0.45,0.19 0.73,0.6 0.73,1.09 0,0.48 -0.28,0.9 -0.73,1.08l0.41 1c0.45,-0.19 0.94,-0.09 1.28,0.25z"/>
      <path class="fil6" d="M36.26 13.6c0.92,-0.92 0.91,-2.41 0,-3.32 -0.92,-0.91 -2.4,-0.91 -3.32,0 -0.91,0.92 -0.91,2.41 0.01,3.32 0.91,0.92 2.4,0.91 3.31,0zm-2.87 -2.87c0.67,-0.67 1.76,-0.68 2.43,-0.01 0.67,0.67 0.67,1.77 0,2.44 -0.67,0.67 -1.76,0.67 -2.43,0 -0.67,-0.67 -0.67,-1.76 0,-2.43z"/>
      <circle class="fil8" cx="34.6" cy="11.94" r="1.71"/>
     </g>
     <g>
      <path class="fil6" d="M25.85 22.09c0.91,-0.91 0.91,-2.4 -0.01,-3.32 -0.91,-0.91 -2.4,-0.91 -3.31,0.01 -0.92,0.91 -0.91,2.4 0,3.32 0.92,0.91 2.4,0.91 3.32,-0.01zm-2.88 -2.87c0.67,-0.67 1.76,-0.67 2.43,0 0.67,0.67 0.67,1.76 0,2.43 -0.67,0.67 -1.76,0.67 -2.43,0 -0.67,-0.67 -0.67,-1.76 0,-2.43z"/>
      <g>
       <path class="fil5" d="M23.17 26.91c-0.07,-0.03 -0.14,-0.08 -0.2,-0.14 -0.12,-0.11 -0.18,-0.27 -0.18,-0.43 0,-0.51 -0.34,-0.83 -0.64,-0.96 -0.31,-0.12 -0.77,-0.13 -1.13,0.23 -0.24,0.25 -0.63,0.25 -0.88,0.01l-1.07 -1.07c-0.12,-0.12 -0.19,-0.27 -0.19,-0.44 0,-0.17 0.07,-0.32 0.18,-0.44 0.36,-0.36 0.35,-0.82 0.22,-1.13 -0.13,-0.31 -0.45,-0.63 -0.96,-0.63 -0.34,0 -0.62,-0.28 -0.62,-0.62l-0.01 -1.52c0,-0.16 0.07,-0.32 0.18,-0.44 0.12,-0.12 0.27,-0.18 0.44,-0.18 0.51,0 0.83,-0.34 0.95,-0.64 0.13,-0.31 0.13,-0.77 -0.23,-1.13 -0.11,-0.12 -0.18,-0.27 -0.18,-0.44 0,-0.17 0.06,-0.32 0.18,-0.44l1.07 -1.08c0.24,-0.24 0.63,-0.24 0.87,0 0.37,0.36 0.82,0.35 1.13,0.22 0.31,-0.13 0.64,-0.45 0.63,-0.96 0,-0.34 0.28,-0.62 0.62,-0.63l1.52 0c0.16,0 0.32,0.06 0.44,0.18 0.12,0.11 0.18,0.27 0.18,0.44 0,0.51 0.34,0.82 0.64,0.95 0,0 0,0 0,0 0.31,0.13 0.77,0.13 1.13,-0.23 0.12,-0.12 0.27,-0.18 0.44,-0.18 0.16,-0.01 0.32,0.06 0.44,0.18l1.07 1.06c0.12,0.12 0.19,0.28 0.19,0.44 0,0.17 -0.07,0.32 -0.18,0.44 -0.36,0.36 -0.35,0.82 -0.22,1.13 0.13,0.31 0.45,0.64 0.96,0.63 0.34,0 0.62,0.28 0.62,0.62l0.01 1.52c0,0.17 -0.07,0.32 -0.18,0.44 -0.12,0.12 -0.28,0.18 -0.44,0.19 -0.51,0 -0.83,0.33 -0.95,0.64 -0.13,0.31 -0.13,0.77 0.23,1.12l0 0c0.12,0.12 0.18,0.28 0.18,0.44 0,0.17 -0.06,0.32 -0.18,0.44l-1.07 1.08c-0.11,0.12 -0.27,0.18 -0.43,0.18 -0.17,0.01 -0.33,-0.06 -0.44,-0.18 -0.37,-0.35 -0.82,-0.34 -1.13,-0.21 -0.31,0.12 -0.64,0.44 -0.63,0.95 0,0.35 -0.28,0.63 -0.62,0.63l-1.52 0.01c-0.08,0 -0.16,-0.02 -0.24,-0.05zm-0.79 -2.11c0.63,0.26 1.03,0.85 1.03,1.53l1.51 -0.01c0,-0.68 0.39,-1.27 1.02,-1.53 0.63,-0.27 1.32,-0.13 1.81,0.35l1.05 -1.08c-0.48,-0.48 -0.62,-1.17 -0.36,-1.8 0.26,-0.63 0.84,-1.03 1.53,-1.03l-0.02 -1.51c-0.67,0 -1.26,-0.39 -1.53,-1.02 -0.26,-0.63 -0.13,-1.32 0.35,-1.81l-1.07 -1.06c-0.48,0.49 -1.17,0.63 -1.8,0.37 0,0 0,0 0,0 -0.64,-0.26 -1.03,-0.85 -1.03,-1.53l-1.52 0.01c0.01,0.68 -0.38,1.27 -1.01,1.53 -0.63,0.27 -1.32,0.13 -1.81,-0.35l-1.06 1.08c0.49,0.48 0.63,1.17 0.37,1.8 -0.26,0.63 -0.84,1.03 -1.53,1.03l0.02 1.52c0.67,-0.01 1.26,0.38 1.53,1.01 0.26,0.63 0.13,1.32 -0.35,1.81l1.07 1.06c0.48,-0.48 1.17,-0.62 1.8,-0.37z"/>
       <path class="fil5" d="M23.45 25.05c-0.05,-0.02 -0.1,-0.06 -0.14,-0.1 -0.08,-0.08 -0.13,-0.19 -0.13,-0.31 0,-0.36 -0.24,-0.58 -0.46,-0.67 -0.21,-0.09 -0.54,-0.1 -0.79,0.16 -0.17,0.17 -0.45,0.17 -0.63,0l-0.76 -0.76c-0.08,-0.08 -0.13,-0.19 -0.13,-0.31 0,-0.12 0.04,-0.23 0.13,-0.31 0.25,-0.26 0.24,-0.58 0.15,-0.8 -0.09,-0.22 -0.32,-0.45 -0.68,-0.45 -0.24,0 -0.44,-0.2 -0.44,-0.44l0 -1.08c-0.01,-0.11 0.04,-0.22 0.12,-0.31 0.09,-0.08 0.2,-0.13 0.31,-0.13 0.37,0 0.59,-0.24 0.68,-0.45 0.09,-0.22 0.09,-0.55 -0.16,-0.8 -0.09,-0.09 -0.13,-0.2 -0.13,-0.31 0,-0.12 0.04,-0.23 0.12,-0.32l0.76 -0.76c0.17,-0.18 0.45,-0.18 0.62,-0.01 0.26,0.26 0.58,0.25 0.8,0.16 0.22,-0.09 0.45,-0.32 0.45,-0.68 0,-0.24 0.2,-0.44 0.44,-0.44l1.08 -0.01c0.11,0 0.23,0.05 0.31,0.13 0.08,0.08 0.13,0.19 0.13,0.31 0,0.36 0.24,0.59 0.45,0.68 0,0 0,0 0,0 0.22,0.09 0.55,0.09 0.8,-0.17 0.09,-0.08 0.2,-0.13 0.31,-0.13 0.12,0 0.23,0.05 0.32,0.13l0.76 0.76c0.08,0.08 0.13,0.19 0.13,0.31 0,0.12 -0.04,0.23 -0.13,0.31 -0.25,0.26 -0.24,0.58 -0.15,0.8 0.09,0.22 0.32,0.45 0.68,0.45 0.24,0 0.44,0.2 0.44,0.44l0 1.08c0.01,0.12 -0.04,0.23 -0.12,0.31 -0.09,0.08 -0.2,0.13 -0.31,0.13 -0.36,0 -0.59,0.24 -0.68,0.46 -0.09,0.22 -0.09,0.54 0.16,0.8l0 0c0.09,0.08 0.13,0.19 0.13,0.31 0,0.12 -0.04,0.23 -0.12,0.31l-0.76 0.77c-0.08,0.08 -0.19,0.13 -0.31,0.13 -0.12,0 -0.23,-0.05 -0.31,-0.13 -0.26,-0.26 -0.58,-0.25 -0.8,-0.16 -0.22,0.09 -0.45,0.32 -0.45,0.68 0,0.25 -0.2,0.44 -0.44,0.45l-1.08 0c-0.06,0 -0.11,-0.01 -0.17,-0.03zm-0.56 -1.5c0.45,0.19 0.73,0.6 0.73,1.09l1.08 -0.01c-0.01,-0.48 0.27,-0.9 0.71,-1.09 0.45,-0.18 0.94,-0.09 1.29,0.25l0.75 -0.76c-0.34,-0.34 -0.44,-0.83 -0.26,-1.28 0.18,-0.45 0.6,-0.73 1.08,-0.73l0 -1.08c-0.49,0.01 -0.9,-0.27 -1.09,-0.72 -0.19,-0.44 -0.09,-0.94 0.25,-1.28l-0.77 -0.75c-0.33,0.34 -0.82,0.44 -1.27,0.26 0,0 0,0 0,0 -0.45,-0.19 -0.73,-0.6 -0.73,-1.09l-1.08 0.01c0.01,0.48 -0.27,0.9 -0.72,1.09 -0.44,0.19 -0.93,0.09 -1.28,-0.25l-0.75 0.77c0.34,0.33 0.44,0.82 0.26,1.27 -0.18,0.45 -0.6,0.73 -1.08,0.73l0 1.08c0.49,-0.01 0.9,0.27 1.09,0.72 0.19,0.45 0.09,0.94 -0.25,1.28l0.77 0.76c0.33,-0.35 0.82,-0.45 1.27,-0.27z"/>
       <circle class="fil9" cx="24.14" cy="20.5" r="1.71"/>
      </g>
     </g>
    </g>
   </g>
  </g>
 </g>
</svg>
