<?xml version="1.0" encoding="UTF-8"?>
<!DOCTYPE svg PUBLIC "-//W3C//DTD SVG 1.1//EN" "http://www.w3.org/Graphics/SVG/1.1/DTD/svg11.dtd">
<!-- Creator: CorelDRAW 2021 (64 Bit) -->
<svg xmlns="http://www.w3.org/2000/svg" xml:space="preserve" width="530px" height="530px" version="1.1" style="shape-rendering:geometricPrecision; text-rendering:geometricPrecision; image-rendering:optimizeQuality; fill-rule:evenodd; clip-rule:evenodd"
viewBox="0 0 68.29 68.29"
 xmlns:xlink="http://www.w3.org/1999/xlink"
 xmlns:xodm="http://www.corel.com/coreldraw/odm/2003">
 <defs>
  <style type="text/css">
   <![CDATA[
    .str0 {stroke:#B8B4B6;stroke-width:3.87;stroke-miterlimit:22.9256}
    .fil1 {fill:black}
    .fil0 {fill:white}
   ]]>
  </style>
 </defs>
 <g id="Camada_x0020_1">
  <metadata id="CorelCorpID_0Corel-Layer"/>
  <path class="fil0 str0" d="M4.83 1.93l58.7 0c1.56,0 2.82,1.45 2.82,3.23l0 57.97c0,1.78 -1.26,3.22 -2.82,3.22l-58.7 0c-1.56,0 -2.83,-1.44 -2.83,-3.22 0,-6.97 -0.1,-56.15 -0.06,-58.67 0.03,-1.4 1.72,-2.53 2.89,-2.53z"/>
  <path class="fil1" d="M53.89 48.62l0.48 -0.17c0.65,-0.26 0.78,-0.94 0.61,-1.54 0.36,-0.38 1.22,-0.99 1.18,-1.78 -0.05,-0.53 -0.58,-1.76 -0.75,-2.39 0.29,-0.24 0.7,-0.31 1.04,-0.48 1.01,-0.56 2.12,-1.47 1.85,-2.92 -0.22,-1.2 -1.37,-3.45 -1.93,-4.51 -0.77,-1.44 -1.47,-2.77 -2.28,-4.17 -0.75,-1.28 -0.49,-0.96 -0.32,-2.55 0.53,-5.07 -0.09,-7.26 -2.74,-11.29 -1.74,-2.65 -4.89,-5.3 -7.85,-6.68 -6.68,-3.18 -14.62,-2.89 -20.98,0.41 -4.58,2.39 -9.83,8.39 -9.88,15.94 0,3.42 1.4,7.5 2.77,10.05l4.55 8.35c2.17,3.9 1.69,4.87 -1.01,9.01 -0.67,1.04 -1.51,1.98 -2.07,2.78 -0.19,0.29 -0.5,0.65 -0.72,0.89 -0.46,0.48 -1.32,1.28 -1.32,1.88 0,0.43 0.28,0.87 0.6,1.01 0.5,0.29 12.79,0.12 14.28,0.12l9.68 0c3.16,0.03 -0.72,-0.89 6.21,-3.45 1.86,-0.67 3.26,-0.82 5.21,-1.25 4.62,-1.01 5.83,-3.81 3.39,-7.26l0 0z"/>
 </g>
</svg>
