<?xml version="1.0" encoding="UTF-8"?>
<!DOCTYPE svg PUBLIC "-//W3C//DTD SVG 1.1//EN" "http://www.w3.org/Graphics/SVG/1.1/DTD/svg11.dtd">
<!-- Creator: CorelDRAW 2021 (64 Bit) -->
<svg xmlns="http://www.w3.org/2000/svg" xml:space="preserve" width="550px" height="550px" version="1.1" style="shape-rendering:geometricPrecision; text-rendering:geometricPrecision; image-rendering:optimizeQuality; fill-rule:evenodd; clip-rule:evenodd"
viewBox="0 0 10.95 10.95"
 xmlns:xlink="http://www.w3.org/1999/xlink"
 xmlns:xodm="http://www.corel.com/coreldraw/odm/2003">
 <defs>
  <style type="text/css">
   <![CDATA[
    .str0 {stroke:#B8B4B6;stroke-miterlimit:22.9256}
    .str3 {stroke:black;stroke-width:0.04;stroke-miterlimit:22.9256}
    .str1 {stroke:black;stroke-width:0.02;stroke-miterlimit:22.9256}
    .str2 {stroke:#FF99CC;stroke-width:0.02;stroke-miterlimit:22.9256}
    .fil1 {fill:black}
    .fil3 {fill:#E6E6E6}
    .fil2 {fill:#FF99CC}
    .fil4 {fill:#FFFF99}
    .fil0 {fill:white}
    .fil5 {fill:black;fill-rule:nonzero}
   ]]>
  </style>
 </defs>
 <g id="Camada_x0020_1">
  <metadata id="CorelCorpID_0Corel-Layer"/>
  <g id="_2069673178320">
   <path class="fil0 str0" d="M0.94 0.5l9.08 0c0.24,0 0.43,0.22 0.43,0.5l0 8.95c0,0.28 -0.19,0.5 -0.43,0.5l-9.08 0c-0.24,0 -0.43,-0.22 -0.43,-0.5 0,-1.07 -0.02,-8.67 -0.01,-9.06 0,-0.22 0.26,-0.39 0.44,-0.39z"/>
   <g>
    <g>
     <path class="fil1 str1" d="M6.24 2.61c0.04,0.03 0.15,0.03 0.19,0.06 0.06,0.03 0,0.13 -0.01,0.18 -0.03,0.06 -0.01,0.12 -0.06,0.18 -0.04,0.06 -0.11,0.04 -0.2,0.04 -0.06,0.11 -0.04,0.12 -0.14,0.25 -0.04,0.05 -0.14,0.15 -0.2,0.18 -0.17,0.11 -0.33,0.2 -0.62,0.19 -0.12,0 -0.25,-0.01 -0.36,-0.04 -0.11,-0.03 -0.18,-0.07 -0.27,-0.14 -0.05,-0.03 -0.15,-0.14 -0.19,-0.19 -0.06,-0.08 -0.09,-0.14 -0.13,-0.25 -0.06,0 -0.13,0 -0.18,-0.02 -0.04,-0.02 -0.06,-0.06 -0.07,-0.11 -0.03,-0.08 -0.09,-0.21 -0.04,-0.29l0.17 -0.02c0.01,-0.08 -0.02,-0.13 -0.03,-0.2 0,-0.05 0.03,-0.15 0.04,-0.2 0.02,-0.07 0.06,-0.09 0.13,-0.11 0.07,-0.03 0.13,-0.05 0.2,-0.01 0.18,0.12 0.39,0.28 0.72,0.27 0.23,0 0.47,-0.09 0.65,-0.22 0.11,-0.07 0.13,-0.1 0.25,-0.03 0.04,0.02 0.11,0.08 0.14,0.11 0.08,0.1 0.05,0.24 0.01,0.37zm-1.55 -1.43c-0.22,0.09 -0.42,0.25 -0.53,0.39 -0.09,0.11 -0.17,0.2 -0.2,0.39 -0.02,0.09 -0.02,0.19 -0.02,0.28 0,0.1 0.02,0.18 0.03,0.27 -0.09,0.01 -0.13,0.04 -0.16,0.11 -0.02,0.08 -0.01,0.15 0,0.22 0.11,0.46 0.28,0.27 0.37,0.43 0.04,0.07 0.03,0.08 0.1,0.16l0.13 0.13c0.04,0.04 0.09,0.08 0.16,0.11 0,0.05 0.01,0.28 0,0.32 0,0.04 -0.02,0.05 -0.07,0.05 -0.2,0.02 -0.62,0.09 -0.85,0.13 -0.14,0.02 -0.26,0.04 -0.39,0.09 -0.06,0.02 -0.11,0.04 -0.16,0.07 -0.15,0.1 -0.26,0.24 -0.3,0.4 -0.03,0.09 -0.02,0.31 -0.02,0.42 0,0.15 0,0.3 0,0.44 0.1,0.01 0.15,0.02 0.16,-0.04l0 -0.52c0,-0.21 -0.01,-0.41 0.19,-0.55 0.09,-0.06 0.14,-0.09 0.26,-0.12 0.21,-0.07 0.45,-0.09 0.67,-0.12 0.11,-0.02 0.24,-0.05 0.36,-0.05 0.01,0.11 0.02,0.16 0.08,0.25 0.09,0.14 0.24,0.23 0.4,0.29 0.08,0.03 0.21,0.06 0.31,0.06 0.35,-0.01 0.8,-0.27 0.81,-0.6l0.87 0.13c0.3,0.03 0.58,0.22 0.6,0.49 0.01,0.26 0.01,0.52 0.02,0.77l0.14 0.01 0 -0.77c-0.06,-0.32 -0.24,-0.56 -0.79,-0.64 -0.3,-0.05 -0.59,-0.09 -0.88,-0.14 -0.1,-0.01 -0.13,-0.02 -0.12,-0.11 0,-0.09 0,-0.2 0,-0.29 0.06,-0.04 0.11,-0.08 0.16,-0.12 0.06,-0.05 0.21,-0.2 0.23,-0.31 0.26,-0.01 0.27,-0.18 0.31,-0.31 0.01,-0.04 0.03,-0.07 0.04,-0.11 0.01,-0.04 0.01,-0.09 -0.01,-0.13 -0.02,-0.07 -0.08,-0.11 -0.17,-0.14 0,-0.27 0.05,-0.4 -0.05,-0.66 -0.07,-0.19 -0.13,-0.28 -0.27,-0.41 -0.06,-0.06 -0.06,-0.05 -0.11,-0.09 -0.05,-0.04 -0.13,-0.08 -0.19,-0.11 -0.23,-0.12 -0.42,-0.15 -0.69,-0.14 -0.09,0 -0.26,0.01 -0.42,0.07zm-0.39 0.46c0.12,-0.12 0.24,-0.25 0.5,-0.35 0.09,-0.04 0.13,-0.05 0.25,-0.05 0.18,-0.02 0.39,0.01 0.55,0.06 0.13,0.05 0.2,0.1 0.29,0.16 0.11,0.08 0.13,0.1 0.22,0.22 0.05,0.07 0.18,0.3 0.17,0.41 -0.06,-0.04 -0.17,-0.1 -0.24,-0.13 -0.06,-0.02 -0.11,-0.02 -0.16,0.01 -0.04,0.03 -0.07,0.05 -0.11,0.08 -0.38,0.24 -0.7,0.3 -1.12,0.02 -0.04,-0.03 -0.07,-0.05 -0.12,-0.08 -0.04,-0.03 -0.07,-0.04 -0.15,-0.04 -0.16,0.01 -0.21,0.08 -0.29,0.1 0.01,-0.18 0.15,-0.34 0.21,-0.41zm0.9 3.01c0.02,0 0.05,0 0.08,0 0.03,0 0.07,-0.01 0.09,-0.01 0.27,-0.04 0.5,-0.26 0.5,-0.48 -0.11,-0.03 -0.16,-0.09 -0.16,-0.18l0.01 -0.27 0 0c-0.02,0.01 -0.03,0.01 -0.05,0.02 -0.13,0.06 -0.3,0.1 -0.47,0.1 -0.13,0.01 -0.26,-0.01 -0.39,-0.05 -0.03,-0.01 -0.07,-0.03 -0.1,-0.04 0,0.09 0.02,0.2 0.01,0.29 -0.01,0.08 -0.09,0.11 -0.16,0.13 0,0.26 0.27,0.45 0.5,0.48 0.07,0.01 0.11,0.01 0.14,0.01z"/>
     <path class="fil2 str2" d="M2.93 4.89l0 0.7 0.67 0 0 -0.53 0.14 0 0 0.53 3.01 -0.01 0 -0.51 0.14 0 0 0.51 0.62 0 -0.02 -0.77c-0.03,-0.27 -0.24,-0.41 -0.55,-0.49l-0.93 -0.13c-0.06,0.35 -0.34,0.54 -0.8,0.59 -0.44,-0.02 -0.71,-0.2 -0.8,-0.59l-0.91 0.13c-0.38,0.09 -0.56,0.28 -0.57,0.57z"/>
     <path class="fil1" d="M5.23 3.28c-0.16,0 -0.29,-0.02 -0.37,-0.13 -0.04,0.01 -0.1,0.06 -0.12,0.08 0.02,0.05 0.13,0.12 0.18,0.14 0.18,0.07 0.38,0.06 0.56,-0.02 0.05,-0.02 0.16,-0.09 0.18,-0.14 -0.03,-0.02 -0.07,-0.03 -0.09,-0.08 -0.03,0.01 -0.06,0.04 -0.08,0.05 -0.03,0.02 -0.05,0.03 -0.07,0.05 -0.05,0.03 -0.12,0.05 -0.19,0.05z"/>
     <path class="fil1" d="M5.55 2.49c-0.09,0.01 -0.15,0.07 -0.12,0.16 0.01,0.07 0.09,0.13 0.19,0.11 0.19,-0.04 0.16,-0.31 -0.07,-0.27z"/>
     <path class="fil1" d="M4.7 2.49c-0.22,0.04 -0.13,0.3 0.07,0.27 0.08,-0.02 0.14,-0.08 0.13,-0.17 -0.02,-0.07 -0.1,-0.12 -0.2,-0.1z"/>
     <polygon class="fil1" points="3.61,5.59 3.75,5.59 3.75,5.06 3.61,5.06 "/>
     <polygon class="fil1" points="6.76,5.58 6.88,5.58 6.9,5.58 6.9,5.07 6.88,5.07 6.76,5.07 "/>
    </g>
    <g>
     <polygon class="fil3 str3" points="8.87,5.9 7.52,5.91 7.84,5.59 8.59,5.59 "/>
     <rect class="fil4 str3" x="1.96" y="5.9" width="6.94" height="3.87"/>
     <polygon class="fil5" points="4.15,9.21 4.15,6.46 6.71,6.46 6.71,6.93 4.9,6.93 4.9,7.58 6.47,7.58 6.47,8.04 4.9,8.04 4.9,9.21 "/>
    </g>
   </g>
  </g>
 </g>
</svg>
