<?xml version="1.0" encoding="UTF-8"?>
<!DOCTYPE svg PUBLIC "-//W3C//DTD SVG 1.1//EN" "http://www.w3.org/Graphics/SVG/1.1/DTD/svg11.dtd">
<!-- Creator: CorelDRAW 2021 (64 Bit) -->
<svg xmlns="http://www.w3.org/2000/svg" xml:space="preserve" width="530px" height="530px" version="1.1" style="shape-rendering:geometricPrecision; text-rendering:geometricPrecision; image-rendering:optimizeQuality; fill-rule:evenodd; clip-rule:evenodd"
viewBox="0 0 10.18 10.18"
 xmlns:xlink="http://www.w3.org/1999/xlink"
 xmlns:xodm="http://www.corel.com/coreldraw/odm/2003">
 <defs>
  <style type="text/css">
   <![CDATA[
    .str0 {stroke:#B8B4B6;stroke-width:0.58;stroke-miterlimit:22.9256}
    .str8 {stroke:#52331E;stroke-width:0.02;stroke-miterlimit:22.9256}
    .str7 {stroke:#9F740B;stroke-width:0.02;stroke-miterlimit:22.9256}
    .str2 {stroke:black;stroke-width:0.15;stroke-miterlimit:22.9256}
    .str1 {stroke:black;stroke-width:0.1;stroke-miterlimit:22.9256}
    .str3 {stroke:#86B0C0;stroke-width:0.1;stroke-miterlimit:22.9256}
    .str5 {stroke:#E2A610;stroke-width:0.1;stroke-miterlimit:22.9256}
    .str9 {stroke:#9F740E;stroke-width:0.04;stroke-miterlimit:22.9256}
    .str6 {stroke:#FDD734;stroke-width:0.04;stroke-miterlimit:22.9256}
    .str4 {stroke:#B9E4EA;stroke-width:0.02;stroke-miterlimit:22.9256}
    .fil3 {fill:none}
    .fil10 {fill:#52331E}
    .fil5 {fill:#86B0C0}
    .fil9 {fill:#9F740B}
    .fil11 {fill:#9F7507}
    .fil6 {fill:#B9E4EA}
    .fil7 {fill:#E2A610}
    .fil2 {fill:#EAFF00}
    .fil8 {fill:#FDD734}
    .fil1 {fill:red}
    .fil0 {fill:white}
    .fil4 {fill:white}
   ]]>
  </style>
 </defs>
 <g id="Camada_x0020_1">
  <metadata id="CorelCorpID_0Corel-Layer"/>
  <path class="fil0 str0" d="M0.72 0.29l8.75 0c0.23,0 0.42,0.21 0.42,0.48l0 8.64c0,0.27 -0.19,0.48 -0.42,0.48l-8.75 0c-0.23,0 -0.42,-0.21 -0.42,-0.48 0,-1.04 -0.02,-8.37 -0.01,-8.75 0,-0.2 0.26,-0.37 0.43,-0.37z"/>
  <g id="_2069582137536">
   <g>
    <path class="fil1" d="M2.53 1.96c-0.9,0.42 -1.17,0.9 -1.21,1.79 0.02,0.84 0.4,1.31 1.04,1.63l0.24 3.42c0.37,-0.06 0.65,-0.22 0.71,-0.54l0.04 -0.4 0.23 -0.75 -0.32 -0.65 0.39 -0.65 -0.14 -0.65c0.72,-0.47 0.96,-1.17 0.76,-2.07 -0.28,-0.84 -0.85,-1.26 -1.74,-1.13z"/>
    <path class="fil2 str1" d="M1.25 3.74c-0.01,0.05 -0.01,0.11 -0.01,0.17 0,0.4 0.23,0.85 0.49,1.13 0.1,0.1 0.2,0.2 0.32,0.27 0.19,0.11 0.24,0.07 0.24,0.19 0.02,0.25 0.03,0.42 0.04,0.67l0.05 0.68c0.01,0.15 0.12,1.97 0.13,2.02 0.09,-0.03 0.16,-0.04 0.25,-0.06 0.28,-0.06 0.57,-0.29 0.66,-0.59 0.06,-0.19 -0.04,-0.37 0.02,-0.57l0.23 -0.59c0,-0.02 0.01,0.01 -0.01,-0.02 -0.01,-0.02 0,0 -0.01,-0.02 -0.1,-0.16 -0.23,-0.45 -0.32,-0.63 0.12,-0.17 0.34,-0.43 0.37,-0.63 0.01,-0.1 -0.02,-0.2 -0.03,-0.29 -0.02,-0.1 -0.02,-0.23 -0.04,-0.28 0.25,-0.2 0.35,-0.27 0.54,-0.61 0.13,-0.22 0.22,-0.51 0.23,-0.72 0.02,-0.24 0.02,-0.45 -0.05,-0.69 -0.06,-0.22 -0.14,-0.43 -0.3,-0.65 -0.16,-0.24 -0.37,-0.41 -0.6,-0.52 -0.23,-0.11 -0.42,-0.13 -0.62,-0.13l-0.3 0.04c-0.26,0.07 -0.53,0.23 -0.73,0.46 -0.02,0.02 -0.09,0.08 -0.1,0.12l0.01 0.02c0.07,0.08 0.1,0.11 0.17,0.17 0.18,-0.17 0.23,-0.32 0.52,-0.47 0.16,-0.08 0.37,-0.13 0.54,-0.12 0.12,0 0.42,0.05 0.56,0.14 0.36,0.24 0.66,0.64 0.73,1.12 0.02,0.18 0.05,0.45 0,0.63 -0.12,0.51 -0.41,0.88 -0.83,1.1 0,0.04 0.01,0.11 0.02,0.16l0.07 0.49c0,0.05 -0.04,0.1 -0.09,0.17l-0.33 0.54c0.1,0.17 0.2,0.4 0.3,0.58 0.05,0.1 0.04,0.05 -0.04,0.31l-0.14 0.47c-0.03,0.09 -0.03,0.07 -0.01,0.15 0.01,0.03 0.02,0.29 0.01,0.31 -0.08,0.22 -0.37,0.38 -0.5,0.37 -0.01,-0.03 -0.01,-0.05 -0.01,-0.1 -0.01,-0.26 -0.03,-0.49 -0.03,-0.76 0,-0.07 0,-0.14 -0.01,-0.22l-0.05 -1.07c-0.01,-0.07 -0.01,-0.15 -0.01,-0.22 0,-0.08 0,-0.14 0,-0.22l-0.03 -0.43c0,-0.15 0,-0.29 -0.01,-0.43 -0.07,-0.04 -0.16,-0.03 -0.22,-0.05 -0.03,0 -0.17,-0.08 -0.21,-0.1 -0.34,-0.19 -0.52,-0.55 -0.6,-0.95 0,-0.04 -0.01,-0.13 -0.02,-0.18 -0.01,-0.04 -0.01,-0.1 -0.02,-0.18 -0.04,0.01 -0.06,0.01 -0.11,0.02 -0.04,0 -0.06,0 -0.11,0z"/>
    <line class="fil3 str2" x1="2.76" y1="5.12" x2="2.9" y2= "8.59" />
    <line class="fil3 str2" x1="3.16" y1="5.09" x2="3.21" y2= "6.23" />
    <path class="fil1 str1" d="M1.23 2.97c-0.18,0.31 0.25,0.61 0.43,0.27 0.06,-0.12 0.04,-0.3 -0.09,-0.38 -0.1,-0.06 -0.26,-0.03 -0.34,0.11z"/>
    <ellipse class="fil4 str1" cx="2.54" cy="3.03" rx="0.34" ry="0.37"/>
   </g>
   <g>
    <path class="fil5 str3" d="M5.66 2.99c0,0.58 0,0.65 0,1.23 0.2,0.17 0.41,0.18 0.62,0 0.01,-0.63 0.01,-0.76 0.02,-1.4 0.22,-1.14 1.4,-1.13 1.6,0 0,0.26 0,1.17 0,1.42 0.19,0.11 0.37,0.13 0.56,0.01 0,-0.21 0,-1.03 0,-1.24 -0.04,-0.63 -0.24,-1.16 -0.68,-1.52 -0.47,-0.38 -0.97,-0.39 -1.48,-0.04 -0.42,0.39 -0.62,0.9 -0.64,1.54z"/>
    <path class="fil6 str4" d="M6.35 1.89c-0.01,-0.13 -0.07,-0.16 -0.17,-0.13 -0.31,0.16 -0.45,0.64 -0.43,1.4 0,0.16 0.09,0.15 0.12,0.05 0.1,-0.53 0.22,-0.92 0.37,-1.07 0.08,-0.07 0.11,-0.16 0.11,-0.25z"/>
    <path class="fil7 str5" d="M5.14 8.29c0.01,-1.07 0.02,-2.14 0.03,-3.21 1.32,-0.71 2.59,-0.7 3.8,0 0,1.07 0,2.14 0,3.21 -0.25,0.41 -1.29,0.58 -1.91,0.58 -0.66,0.01 -1.69,-0.17 -1.92,-0.58z"/>
    <path class="fil8 str6" d="M7.06 5.78c-0.93,-0.01 -1.85,-0.16 -1.89,-0.71 0.01,-0.21 1.2,-0.53 1.9,-0.53 0.69,-0.03 1.89,0.32 1.9,0.53 -0.02,0.59 -1.12,0.69 -1.91,0.71z"/>
    <path class="fil9 str7" d="M6.87 7.45c-0.09,0.25 -0.18,0.5 -0.28,0.75 -0.02,0.07 0,0.1 0.07,0.1 0.1,0.01 0.48,0 0.73,0.01 0.07,0 0.1,-0.05 0.07,-0.11 -0.09,-0.25 -0.18,-0.48 -0.28,-0.73 0.15,-0.08 0.24,-0.19 0.23,-0.38 -0.03,-0.26 -0.16,-0.38 -0.39,-0.38 -0.24,0 -0.38,0.19 -0.37,0.38 0,0.16 0.1,0.33 0.22,0.36z"/>
    <path class="fil10 str8" d="M6.91 7.36c-0.07,0.22 -0.13,0.44 -0.2,0.66 -0.02,0.06 0,0.09 0.05,0.09 0.07,0.01 0.34,0 0.53,0 0.05,0.01 0.07,-0.03 0.05,-0.09 -0.07,-0.22 -0.13,-0.43 -0.2,-0.65 0.11,-0.06 0.17,-0.16 0.16,-0.33 -0.02,-0.23 -0.11,-0.34 -0.28,-0.34 -0.17,0.01 -0.28,0.17 -0.27,0.34 0,0.14 0.07,0.29 0.16,0.32z"/>
    <ellipse class="fil11 str9" cx="8.14" cy="5.01" rx="0.35" ry="0.19"/>
    <ellipse class="fil11 str9" cx="5.89" cy="5.01" rx="0.35" ry="0.19"/>
   </g>
  </g>
 </g>
</svg>
