<?xml version="1.0" encoding="UTF-8"?>
<!DOCTYPE svg PUBLIC "-//W3C//DTD SVG 1.1//EN" "http://www.w3.org/Graphics/SVG/1.1/DTD/svg11.dtd">
<!-- Creator: CorelDRAW 2021 (64 Bit) -->
<svg xmlns="http://www.w3.org/2000/svg" xml:space="preserve" width="550px" height="550px" version="1.1" style="shape-rendering:geometricPrecision; text-rendering:geometricPrecision; image-rendering:optimizeQuality; fill-rule:evenodd; clip-rule:evenodd"
viewBox="0 0 10.96 10.96"
 xmlns:xlink="http://www.w3.org/1999/xlink"
 xmlns:xodm="http://www.corel.com/coreldraw/odm/2003">
 <defs>
  <style type="text/css">
   <![CDATA[
    .str0 {stroke:#B8B4B6;stroke-miterlimit:22.9256}
    .str1 {stroke:#FA0505;stroke-width:0.8;stroke-linejoin:round;stroke-miterlimit:22.9256}
    .fil1 {fill:none}
    .fil0 {fill:white}
    .fil2 {fill:black;fill-rule:nonzero}
   ]]>
  </style>
 </defs>
 <g id="Camada_x0020_1">
  <metadata id="CorelCorpID_0Corel-Layer"/>
  <g id="_2069472752224">
   <path class="fil0 str0" d="M0.95 0.5l9.07 0c0.24,0 0.44,0.22 0.44,0.5l0 8.96c0,0.28 -0.2,0.5 -0.44,0.5l-9.07 0c-0.25,0 -0.44,-0.22 -0.44,-0.5 0,-1.08 -0.02,-8.68 -0.01,-9.07 0,-0.22 0.27,-0.39 0.45,-0.39z"/>
   <g>
    <polygon class="fil1 str1" points="2.72,6.06 2.77,9.49 7.8,9.49 7.8,6.13 8.96,6.13 7.32,4.1 7.32,2.41 6.41,2.41 6.41,3.04 5.26,1.85 1.56,6.06 "/>
    <path class="fil2" d="M4.98 7.49c0,-0.09 0,-0.15 0,-0.19 0,-0.24 0.03,-0.45 0.1,-0.62 0.05,-0.13 0.12,-0.26 0.23,-0.4 0.08,-0.1 0.22,-0.24 0.42,-0.42 0.21,-0.19 0.34,-0.34 0.4,-0.45 0.06,-0.11 0.09,-0.23 0.09,-0.37 0,-0.24 -0.09,-0.45 -0.27,-0.63 -0.18,-0.18 -0.39,-0.27 -0.65,-0.27 -0.25,0 -0.46,0.08 -0.63,0.25 -0.16,0.16 -0.27,0.42 -0.33,0.77l-0.6 -0.08c0.06,-0.46 0.22,-0.82 0.49,-1.07 0.26,-0.25 0.62,-0.37 1.06,-0.37 0.46,0 0.84,0.13 1.11,0.4 0.28,0.26 0.42,0.59 0.42,0.96 0,0.22 -0.05,0.42 -0.15,0.61 -0.09,0.18 -0.29,0.4 -0.57,0.67 -0.19,0.17 -0.32,0.3 -0.38,0.39 -0.05,0.08 -0.1,0.18 -0.13,0.29 -0.02,0.1 -0.04,0.28 -0.04,0.53l-0.57 0 0 0 0 0zm-0.1 1.22l0 -0.69 0.67 0 0 0.69 -0.67 0z"/>
   </g>
  </g>
 </g>
</svg>
