<?xml version="1.0" encoding="UTF-8"?>
<!DOCTYPE svg PUBLIC "-//W3C//DTD SVG 1.1//EN" "http://www.w3.org/Graphics/SVG/1.1/DTD/svg11.dtd">
<!-- Creator: CorelDRAW 2021 (64 Bit) -->
<svg xmlns="http://www.w3.org/2000/svg" xml:space="preserve" width="550px" height="550px" version="1.1" style="shape-rendering:geometricPrecision; text-rendering:geometricPrecision; image-rendering:optimizeQuality; fill-rule:evenodd; clip-rule:evenodd"
viewBox="0 0 10.95 10.95"
 xmlns:xlink="http://www.w3.org/1999/xlink"
 xmlns:xodm="http://www.corel.com/coreldraw/odm/2003">
 <defs>
  <style type="text/css">
   <![CDATA[
    .str0 {stroke:#B8B4B6;stroke-miterlimit:22.9256}
    .str3 {stroke:black;stroke-width:0.04;stroke-miterlimit:22.9256}
    .str1 {stroke:black;stroke-width:0.02;stroke-miterlimit:22.9256}
    .str2 {stroke:yellow;stroke-width:0.02;stroke-miterlimit:22.9256}
    .fil1 {fill:black}
    .fil2 {fill:lime}
    .fil3 {fill:#E6E6E6}
    .fil4 {fill:#FFFF99}
    .fil0 {fill:white}
   ]]>
  </style>
 </defs>
 <g id="Camada_x0020_1">
  <metadata id="CorelCorpID_0Corel-Layer"/>
  <path class="fil0 str0" d="M0.94 0.5l9.08 0c0.24,0 0.43,0.22 0.43,0.5l0 8.95c0,0.28 -0.19,0.5 -0.43,0.5l-9.08 0c-0.24,0 -0.43,-0.22 -0.43,-0.5 0,-1.07 -0.02,-8.67 -0.01,-9.06 0,-0.22 0.26,-0.39 0.44,-0.39z"/>
 </g>
 <g id="Camada_x0020_1_0">
  <metadata id="CorelCorpID_1Corel-Layer"/>
  <g id="_2069524426480">
   <g>
    <path class="fil0" d="M5.2 3.35c0.08,0 0.14,-0.02 0.19,-0.05 0.03,-0.01 0.05,-0.03 0.08,-0.04 0.01,-0.02 0.05,-0.04 0.07,-0.05 0.02,0.04 0.07,0.06 0.1,0.07 -0.02,0.05 -0.13,0.11 -0.19,0.13 -0.17,0.08 -0.37,0.09 -0.56,0.02 -0.05,-0.02 -0.16,-0.09 -0.18,-0.13 0.02,-0.02 0.08,-0.06 0.12,-0.08 0.08,0.11 0.22,0.13 0.37,0.13zm0.33 -0.74c0.23,-0.03 0.26,0.22 0.07,0.25 -0.11,0.02 -0.18,-0.03 -0.2,-0.09 -0.03,-0.09 0.04,-0.14 0.13,-0.16zm-0.86 0c0.1,-0.01 0.18,0.03 0.19,0.1 0.02,0.08 -0.04,0.14 -0.12,0.15 -0.21,0.04 -0.3,-0.21 -0.07,-0.25zm1.56 0.11c0.03,-0.12 0.07,-0.25 -0.02,-0.34 -0.02,-0.03 -0.09,-0.08 -0.13,-0.1 -0.13,-0.07 -0.15,-0.04 -0.26,0.03 -0.18,0.11 -0.42,0.2 -0.66,0.2 -0.33,0.01 -0.55,-0.14 -0.73,-0.25 -0.07,-0.04 -0.13,-0.02 -0.2,0.01 -0.07,0.02 -0.11,0.04 -0.13,0.1 -0.01,0.05 -0.04,0.14 -0.04,0.18 0.01,0.07 0.04,0.12 0.03,0.19l-0.18 0.02c-0.04,0.07 0.02,0.2 0.05,0.27 0.01,0.04 0.02,0.08 0.07,0.1 0.04,0.02 0.12,0.02 0.18,0.02 0.04,0.1 0.07,0.16 0.13,0.23 0.05,0.05 0.15,0.15 0.2,0.18 0.09,0.06 0.15,0.1 0.27,0.13 0.11,0.03 0.24,0.04 0.37,0.04 0.28,0 0.45,-0.07 0.62,-0.17 0.06,-0.04 0.16,-0.13 0.21,-0.18 0.1,-0.11 0.08,-0.12 0.13,-0.23 0.1,0 0.17,0.02 0.21,-0.04 0.04,-0.05 0.03,-0.11 0.06,-0.17 0.01,-0.04 0.06,-0.13 0.01,-0.16 -0.04,-0.03 -0.15,-0.03 -0.19,-0.06z"/>
    <path class="fil1" d="M5.2 3.35c-0.15,0 -0.29,-0.02 -0.37,-0.13 -0.04,0.02 -0.1,0.06 -0.12,0.08 0.02,0.04 0.13,0.11 0.18,0.13 0.19,0.07 0.39,0.06 0.56,-0.02 0.06,-0.02 0.17,-0.08 0.19,-0.13 -0.03,-0.01 -0.08,-0.03 -0.1,-0.07 -0.02,0.01 -0.06,0.03 -0.07,0.05 -0.03,0.01 -0.05,0.03 -0.08,0.04 -0.05,0.03 -0.11,0.05 -0.19,0.05z"/>
    <polygon class="fil1" points="3.56,5.5 3.7,5.5 3.7,5 3.56,5 "/>
    <polygon class="fil1" points="6.75,5.49 6.87,5.49 6.89,5.49 6.89,5.02 6.87,5.01 6.75,5.01 "/>
    <path class="fil1" d="M5.53 2.61c-0.09,0.02 -0.16,0.07 -0.13,0.16 0.02,0.06 0.09,0.11 0.2,0.09 0.19,-0.03 0.16,-0.28 -0.07,-0.25z"/>
    <path class="fil1" d="M4.67 2.61c-0.23,0.04 -0.14,0.29 0.07,0.25 0.08,-0.01 0.14,-0.07 0.12,-0.15 -0.01,-0.07 -0.09,-0.11 -0.19,-0.1z"/>
    <path class="fil1 str1" d="M6.23 2.72c0.04,0.03 0.15,0.03 0.19,0.06 0.05,0.03 0,0.12 -0.01,0.16 -0.03,0.06 -0.02,0.12 -0.06,0.17 -0.04,0.06 -0.11,0.04 -0.21,0.04 -0.05,0.11 -0.03,0.12 -0.13,0.23 -0.05,0.05 -0.15,0.14 -0.21,0.18 -0.17,0.1 -0.34,0.17 -0.62,0.17 -0.13,0 -0.26,-0.01 -0.37,-0.04 -0.12,-0.03 -0.18,-0.07 -0.27,-0.13 -0.05,-0.03 -0.15,-0.13 -0.2,-0.18 -0.06,-0.07 -0.09,-0.13 -0.13,-0.23 -0.06,0 -0.14,0 -0.18,-0.02 -0.05,-0.02 -0.06,-0.06 -0.07,-0.1 -0.03,-0.07 -0.09,-0.2 -0.05,-0.27l0.18 -0.02c0.01,-0.07 -0.02,-0.12 -0.03,-0.19 0,-0.04 0.03,-0.13 0.04,-0.18 0.02,-0.06 0.06,-0.08 0.13,-0.1 0.07,-0.03 0.13,-0.05 0.2,-0.01 0.18,0.11 0.4,0.26 0.73,0.25 0.24,0 0.48,-0.09 0.66,-0.2 0.11,-0.07 0.13,-0.1 0.26,-0.03 0.04,0.02 0.11,0.07 0.13,0.1 0.09,0.09 0.05,0.22 0.02,0.34zm-1.58 -1.32c-0.22,0.07 -0.42,0.23 -0.53,0.35 -0.09,0.11 -0.17,0.2 -0.21,0.37 -0.01,0.08 -0.01,0.18 -0.01,0.26 -0.01,0.1 0.02,0.17 0.02,0.25 -0.09,0.01 -0.13,0.04 -0.15,0.11 -0.03,0.07 -0.02,0.13 0,0.2 0.11,0.43 0.28,0.25 0.37,0.4 0.05,0.07 0.03,0.07 0.11,0.14l0.13 0.13c0.04,0.03 0.09,0.07 0.16,0.1 0,0.05 0,0.26 0,0.3 -0.01,0.03 -0.03,0.04 -0.07,0.04 -0.21,0.02 -0.63,0.09 -0.86,0.12 -0.15,0.02 -0.27,0.04 -0.4,0.09 -0.07,0.02 -0.11,0.04 -0.16,0.07 -0.15,0.08 -0.27,0.22 -0.31,0.36 -0.03,0.09 -0.02,0.3 -0.02,0.4 0,0.14 0,0.27 0,0.41 0.1,0 0.15,0.02 0.16,-0.04l0 -0.49c0,-0.19 0,-0.38 0.2,-0.5 0.09,-0.06 0.14,-0.09 0.26,-0.12 0.21,-0.06 0.46,-0.08 0.68,-0.11 0.12,-0.02 0.24,-0.04 0.36,-0.05 0.02,0.11 0.02,0.15 0.08,0.24 0.09,0.12 0.24,0.22 0.41,0.27 0.08,0.03 0.21,0.05 0.31,0.05 0.36,-0.01 0.81,-0.24 0.82,-0.56l0.88 0.12c0.31,0.04 0.59,0.21 0.61,0.46 0.01,0.24 0.01,0.48 0.02,0.72l0.15 0.01 0 -0.72c-0.06,-0.29 -0.25,-0.52 -0.81,-0.6 -0.3,-0.04 -0.59,-0.08 -0.89,-0.12 -0.1,-0.02 -0.13,-0.02 -0.12,-0.11 0,-0.08 0,-0.19 0,-0.27 0.06,-0.03 0.11,-0.07 0.17,-0.11 0.06,-0.05 0.21,-0.19 0.23,-0.29 0.26,0 0.27,-0.16 0.31,-0.29 0.01,-0.03 0.03,-0.06 0.04,-0.1 0.01,-0.04 0.01,-0.08 -0.01,-0.12 -0.02,-0.07 -0.08,-0.1 -0.17,-0.13 0,-0.25 0.05,-0.38 -0.05,-0.62 -0.08,-0.17 -0.14,-0.25 -0.28,-0.37 -0.06,-0.06 -0.06,-0.05 -0.11,-0.09 -0.05,-0.03 -0.13,-0.08 -0.19,-0.1 -0.23,-0.12 -0.42,-0.14 -0.7,-0.13 -0.09,0 -0.26,0.01 -0.43,0.07zm-0.39 0.43c0.12,-0.12 0.25,-0.24 0.51,-0.33 0.09,-0.04 0.13,-0.05 0.25,-0.05 0.18,-0.01 0.39,0.01 0.56,0.06 0.13,0.04 0.2,0.09 0.29,0.15 0.11,0.07 0.13,0.09 0.23,0.2 0.05,0.06 0.18,0.28 0.16,0.38 -0.05,-0.04 -0.17,-0.1 -0.24,-0.12 -0.06,-0.02 -0.11,-0.02 -0.16,0.01 -0.04,0.02 -0.07,0.05 -0.11,0.07 -0.38,0.23 -0.71,0.28 -1.14,0.02 -0.04,-0.03 -0.07,-0.04 -0.11,-0.07 -0.05,-0.03 -0.07,-0.04 -0.15,-0.04 -0.16,0.01 -0.22,0.07 -0.3,0.09 0.01,-0.17 0.15,-0.32 0.21,-0.37zm0.91 2.8c0.03,-0.01 0.06,-0.01 0.08,-0.01 0.03,0 0.07,-0.01 0.1,-0.01 0.27,-0.04 0.5,-0.24 0.51,-0.44 -0.12,-0.03 -0.18,-0.09 -0.17,-0.17l0.01 -0.25 0 0c-0.02,0.01 -0.03,0.01 -0.05,0.02 -0.13,0.05 -0.31,0.09 -0.48,0.09 -0.13,0 -0.26,-0.01 -0.39,-0.05 -0.03,-0.01 -0.07,-0.02 -0.1,-0.03 0,0.08 0.01,0.18 0,0.26 -0.01,0.08 -0.08,0.11 -0.16,0.13 0.01,0.24 0.28,0.41 0.51,0.44 0.07,0.01 0.11,0.01 0.14,0.02z"/>
    <path class="fil2 str2" d="M2.88 4.84l0 0.66 0.67 0 0 -0.5 0.15 0 0 0.5 3.05 -0.01 0 -0.48 0.14 0 0 0.48 0.62 0 -0.02 -0.72c-0.03,-0.25 -0.24,-0.38 -0.55,-0.45l-0.94 -0.13c-0.07,0.33 -0.35,0.51 -0.82,0.56 -0.44,-0.02 -0.72,-0.2 -0.8,-0.56l-0.93 0.13c-0.38,0.08 -0.57,0.25 -0.57,0.52z"/>
   </g>
   <g>
    <polygon class="fil3 str3" points="8.6,5.79 7.31,5.8 7.62,5.47 8.33,5.47 "/>
    <rect class="fil4 str3" x="2.18" y="5.79" width="6.65" height="3.88"/>
    <g id="_2171365958832">
     <path class="fil1" d="M2.93 7.71c0.18,-0.19 0.77,-0.47 1.09,-0.6l0.44 -0.16c0.15,0.08 -0.07,-0.01 -0.3,0.32 -0.33,0.48 -0.08,0.99 0.3,1.17l-0.04 0.04c-0.01,0 -0.03,-0.03 -0.03,-0.02l-0.15 -0.06c-0.42,-0.16 -1.06,-0.42 -1.31,-0.69l0 0 0 0zm2.69 0.83l-0.28 0c-0.51,0 -1.07,-0.35 -1.07,-0.83 0,-1.03 2.28,-1.14 2.45,-0.05 0.06,0.43 -0.52,0.88 -1.1,0.88l0 0zm0.98 -1.52c0.37,0.06 1.25,0.52 1.44,0.73 -0.19,0.19 -1.15,0.66 -1.54,0.72 0.23,-0.24 0.47,-0.26 0.47,-0.79 0,-0.31 -0.2,-0.48 -0.37,-0.66l0 0 0 0zm-1.12 1.78c1.22,0 1.86,-0.42 2.6,-0.82 0.12,-0.07 0.19,-0.11 0.28,-0.2 -0.13,-0.2 -0.14,-0.22 -0.49,-0.41 -0.23,-0.13 -0.39,-0.23 -0.64,-0.34 -1.41,-0.6 -2.92,-0.46 -4.13,0.31 -0.32,0.2 -0.5,0.23 -0.45,0.38 0,0.01 0,0.02 0,0.02 0,0.01 0.01,0.01 0.01,0.02 0.02,0.06 0,0.01 0.03,0.06 0.12,0.15 0.89,0.53 1.08,0.61 0.44,0.18 1.03,0.37 1.71,0.37l0 0z"/>
     <path class="fil1" d="M5.57 7.94c-0.23,0 -0.41,0.01 -0.41,-0.23 0,-0.36 0.69,-0.26 0.69,0 0,0.1 -0.14,0.23 -0.28,0.23l0 0zm-0.69 -0.19c0,0.53 1.2,0.5 1.2,0.03 0,-0.15 0.03,-0.27 -0.23,-0.4 -0.44,-0.22 -0.97,0.01 -0.97,0.37l0 0z"/>
     <path class="fil1" d="M5.34 6.06c0,0.3 -0.06,0.43 0.14,0.43 0.19,0 0.14,-0.1 0.14,-0.36 0,-0.13 -0.04,-0.15 -0.14,-0.2 -0.07,0.03 -0.14,0.04 -0.14,0.13z"/>
     <path class="fil1" d="M4.09 9.3c0,0.14 0.13,0.18 0.35,-0.11 0.15,-0.19 0.15,-0.13 0.16,-0.29 -0.23,-0.04 -0.2,-0.04 -0.32,0.11 -0.05,0.07 -0.19,0.21 -0.19,0.29l0 0 0 0z"/>
     <path class="fil1" d="M6.5 6.65c0.14,-0.06 0.59,-0.52 0.28,-0.52 -0.14,0 -0.16,0.08 -0.29,0.25 -0.12,0.15 -0.19,0.18 0.01,0.27l0 0z"/>
     <path class="fil1" d="M6.41 8.93c0,0.08 0.13,0.2 0.18,0.27 0.1,0.13 0.07,0.16 0.33,0.16 0,-0.35 -0.51,-0.64 -0.51,-0.43l0 0z"/>
     <path class="fil1" d="M4.04 6.23c0,0.21 0.51,0.59 0.51,0.36 0,-0.09 -0.27,-0.4 -0.31,-0.41 -0.1,-0.04 -0.2,-0.01 -0.2,0.05l0 0 0 0z"/>
     <path class="fil1" d="M5.53 9c-0.24,0.09 -0.19,0.07 -0.15,0.43 0,0 -0.03,0.22 0.17,0.15 0.12,-0.05 0.12,-0.43 -0.02,-0.58z"/>
    </g>
   </g>
  </g>
 </g>
</svg>
