<?xml version="1.0" encoding="UTF-8"?>
<!DOCTYPE svg PUBLIC "-//W3C//DTD SVG 1.1//EN" "http://www.w3.org/Graphics/SVG/1.1/DTD/svg11.dtd">
<!-- Creator: CorelDRAW 2021 (64 Bit) -->
<svg xmlns="http://www.w3.org/2000/svg" xml:space="preserve" width="550px" height="550px" version="1.1" style="shape-rendering:geometricPrecision; text-rendering:geometricPrecision; image-rendering:optimizeQuality; fill-rule:evenodd; clip-rule:evenodd"
viewBox="0 0 48.08 48.08"
 xmlns:xlink="http://www.w3.org/1999/xlink"
 xmlns:xodm="http://www.corel.com/coreldraw/odm/2003">
 <defs>
  <style type="text/css">
   <![CDATA[
    .str3 {stroke:#AEA19E;stroke-width:1.4;stroke-miterlimit:22.9256;stroke-opacity:0.949020}
    .str0 {stroke:#B8B4B6;stroke-width:4.37;stroke-miterlimit:22.9256}
    .str2 {stroke:white;stroke-width:0.17;stroke-miterlimit:22.9256}
    .str4 {stroke:black;stroke-width:1.05;stroke-miterlimit:22.9256}
    .str1 {stroke:black;stroke-width:1.4;stroke-miterlimit:22.9256}
    .fil6 {fill:none}
    .fil3 {fill:#E6E7E8}
    .fil2 {fill:#373435}
    .fil1 {fill:red}
    .fil0 {fill:white}
    .fil4 {fill:#333333;fill-rule:nonzero}
    .fil5 {fill:#FEFEFE;fill-rule:nonzero;fill-opacity:0.949020}
   ]]>
  </style>
 </defs>
 <g id="Camada_x0020_1">
  <metadata id="CorelCorpID_0Corel-Layer"/>
  <g id="_2069382034896">
   <path class="fil0 str0" d="M4.15 2.19l39.83 0c1.06,0 1.91,0.98 1.91,2.18l0 39.33c0,1.21 -0.85,2.19 -1.91,2.19l-39.83 0c-1.06,0 -1.92,-0.98 -1.92,-2.19 0,-4.72 -0.07,-38.09 -0.04,-39.8 0.02,-0.95 1.17,-1.71 1.96,-1.71z"/>
   <g>
    <circle class="fil1 str1" cx="24.04" cy="24.04" r="4.05"/>
    <path class="fil2" d="M20.43 17.9c0.01,-0.07 0.07,-0.12 0.12,-0.09 0.14,0.09 0.61,0.13 0.83,0.19 1.37,0.31 3.01,-0.17 4.06,-0.36 0.7,-0.13 1.01,-0.24 1.34,-0.26 0.21,-0.01 0.53,0.28 0.85,0.52 -0.27,0.99 -0.12,1.63 0.47,2.21 0.24,0.24 0.53,0.45 0.97,0.55 0.54,0.13 0.77,0.02 1.26,-0.09l0.7 1.72c-1.88,0.76 -1.43,3.35 0.02,3.77l-0.74 1.72c-0.51,-0.11 -0.75,-0.24 -1.33,-0.06 -0.37,0.11 -0.74,0.35 -0.92,0.55 -0.18,0.2 -0.43,0.58 -0.51,0.96 -0.13,0.56 -0.01,0.78 0.1,1.26l-0.2 0.14c-0.12,-0.18 -0.92,-0.44 -1.14,-0.58 -0.74,0.02 -3.55,0.34 -3.99,0.51 -0.22,0.05 -1.16,0.11 -1.25,0.2l-0.63 -0.26c0.26,-1.02 0.14,-1.66 -0.46,-2.25 -0.22,-0.22 -0.53,-0.43 -0.93,-0.54 -0.57,-0.15 -0.82,-0.03 -1.3,0.09l-0.7 -1.7c0.23,-0.22 1.24,-0.56 1.25,-1.91 0,-0.48 -0.15,-0.9 -0.39,-1.2 -0.14,-0.19 -0.22,-0.27 -0.39,-0.41 -0.16,-0.13 -0.33,-0.18 -0.48,-0.3l0.7 -1.71c1.35,0.39 2.46,-0.2 2.77,-1.37 0.15,-0.53 0.05,-0.82 -0.08,-1.3zm1.41 -0.13c-0.68,-0.12 -0.93,-0.21 -1.52,-0.68 -0.31,0.13 -0.52,0.22 -0.63,0.53 -0.14,0.42 0.11,0.62 0.12,1.04 0.01,0.65 -0.5,1.18 -1.07,1.28 -0.5,0.08 -0.66,-0.16 -1.03,-0.14 -0.37,0.01 -0.58,0.24 -0.69,0.52 -0.23,0.55 -0.45,1.08 -0.68,1.63 -0.37,0.92 0.63,1.1 0.86,1.36 0.41,0.47 0.43,1.2 0.03,1.72 -0.27,0.33 -1.23,0.46 -0.9,1.35 0.19,0.53 0.45,1.11 0.67,1.63 0.43,0.98 1.07,0.39 1.62,0.42 0.61,0.03 1.12,0.52 1.19,1.11 0.05,0.46 -0.16,0.63 -0.15,0.99 0.02,0.37 0.24,0.56 0.51,0.68 0.2,0.07 0.67,0.06 1.24,-0.05 0.4,-0.07 2.98,-0.58 3.33,-0.66 0.65,-0.25 2.15,0.03 3.13,0.73 0.96,-0.41 0.38,-1.12 0.41,-1.62 0.03,-0.62 0.53,-1.13 1.12,-1.19 0.52,-0.06 1.26,0.53 1.66,-0.37 0.24,-0.53 0.46,-1.09 0.68,-1.64 0.35,-0.91 -0.62,-1.1 -0.84,-1.33 -0.41,-0.43 -0.46,-1.16 -0.08,-1.7 0.28,-0.41 1.23,-0.47 0.95,-1.36l-0.68 -1.63c-0.42,-1.01 -1.06,-0.44 -1.57,-0.45 -0.65,-0.01 -1.15,-0.5 -1.24,-1.08 -0.09,-0.57 0.53,-1.3 -0.34,-1.69 -0.53,-0.24 -0.27,-0.12 -0.81,-0.35 -0.76,0.2 -2.3,0.52 -3.89,0.83 -0.29,0.05 -0.53,0.11 -1.4,0.12z"/>
    <g>
     <rect class="fil3 str2" x="7.43" y="28.27" width="5.84" height="13.44"/>
     <path class="fil4" d="M22.94 42.58c-1.11,0 -2.22,-0.41 -3.29,-0.81 -1.18,-0.44 -2.4,-0.9 -3.61,-0.79l-2.98 0.27 0 -11.58 1.62 -0.14c1.01,-0.09 1.86,0.3 2.67,0.68 0.77,0.36 1.49,0.7 2.33,0.63l5.34 -0.97c1.91,-0.33 2.96,0.78 3.6,1.79l5.83 -2.72c2.2,-0.98 4.67,0.01 6.16,2.47 0.38,0.65 0.17,1.51 -0.49,1.92 -0.75,0.47 -1.51,0.94 -2.25,1.41 -6.51,4.08 -12.14,7.61 -14.54,7.82 -0.13,0.01 -0.26,0.02 -0.39,0.02zm-6.53 -2.42c1.23,0 2.39,0.44 3.51,0.86 1.17,0.43 2.27,0.84 3.34,0.74 2.21,-0.19 8.03,-3.84 14.18,-7.7 0.75,-0.47 1.5,-0.94 2.26,-1.41 0.29,-0.18 0.39,-0.55 0.22,-0.83 -1.26,-2.1 -3.33,-2.96 -5.13,-2.15l-6.49 3.02c-0.01,-0.42 -0.33,-0.91 -0.51,-1.13 -0.6,-0.71 -1.76,-1.06 -2.64,-0.9l-5.37 0.97c-1.08,0.09 -1.94,-0.31 -2.77,-0.69 -0.75,-0.36 -1.46,-0.69 -2.26,-0.62l-0.89 0.08 0 9.97 2.11 -0.19c0.15,-0.01 0.29,-0.02 0.44,-0.02z"/>
     <path class="fil5 str3" d="M12.5 42.58l-4.56 0c-0.75,0 -1.36,-0.61 -1.36,-1.36l0 -12.28c0,-0.75 0.61,-1.36 1.36,-1.36l4.56 0c0.75,0 1.36,0.61 1.36,1.36l0 12.28c0,0.75 -0.61,1.36 -1.36,1.36zm-4.56 -14.2c-0.31,0 -0.56,0.25 -0.56,0.56l0 12.28c0,0.31 0.25,0.56 0.56,0.56l4.56 0c0.31,0 0.56,-0.25 0.56,-0.56l0 -12.28c0,-0.31 -0.25,-0.56 -0.56,-0.56l-4.56 0z"/>
     <path class="fil6 str4" d="M28.61 32.48c0.1,0.19 0.11,0.52 -0.11,0.87 -0.35,0.56 -1.14,0.99 -3.06,0.76 -1.42,-0.17 -3.12,0.17 -4.6,0.32"/>
    </g>
    <g>
     <rect class="fil3 str2" x="34.51" y="6.46" width="5.84" height="13.44"/>
     <path class="fil4" d="M24.82 5.6c1.12,0 2.23,0.41 3.3,0.81 1.18,0.44 2.4,0.9 3.61,0.79l2.98 -0.27 0 11.58 -1.62 0.14c-1.01,0.09 -1.86,-0.3 -2.67,-0.68 -0.77,-0.36 -1.5,-0.7 -2.33,-0.63l-5.34 0.97c-1.91,0.33 -2.96,-0.78 -3.6,-1.79l-5.83 2.72c-2.2,0.98 -4.67,-0.01 -6.16,-2.47 -0.39,-0.65 -0.17,-1.51 0.49,-1.92 0.75,-0.47 1.5,-0.94 2.25,-1.41 6.51,-4.08 12.13,-7.61 14.54,-7.82 0.13,-0.01 0.26,-0.02 0.38,-0.02zm6.54 2.42c-1.23,0 -2.39,-0.44 -3.52,-0.86 -1.16,-0.43 -2.26,-0.84 -3.33,-0.74 -2.22,0.19 -8.03,3.84 -14.19,7.7 -0.74,0.47 -1.5,0.94 -2.25,1.41 -0.29,0.18 -0.39,0.55 -0.22,0.83 1.26,2.1 3.33,2.96 5.13,2.15l6.49 -3.02c0.01,0.42 0.33,0.91 0.51,1.12 0.6,0.72 1.76,1.07 2.63,0.91l5.38 -0.97c1.08,-0.09 1.94,0.31 2.76,0.69 0.76,0.36 1.47,0.69 2.27,0.62l0.89 -0.08 0 -9.97 -2.11 0.19c-0.15,0.01 -0.3,0.02 -0.44,0.02z"/>
     <path class="fil5 str3" d="M35.27 5.6l4.56 0c0.75,0 1.36,0.61 1.36,1.36l0 12.28c0,0.75 -0.61,1.36 -1.36,1.36l-4.56 0c-0.75,0 -1.36,-0.61 -1.36,-1.36l0 -12.28c0,-0.75 0.61,-1.36 1.36,-1.36zm4.56 14.2c0.31,0 0.56,-0.25 0.56,-0.56l0 -12.28c0,-0.31 -0.25,-0.56 -0.56,-0.56l-4.56 0c-0.31,0 -0.56,0.25 -0.56,0.56l0 12.28c0,0.31 0.25,0.56 0.56,0.56l4.56 0z"/>
     <path class="fil6 str4" d="M19.15 15.7c-0.1,-0.19 -0.1,-0.52 0.12,-0.87 0.34,-0.56 1.14,-0.99 3.05,-0.76 1.43,0.17 3.13,-0.17 4.61,-0.32"/>
    </g>
   </g>
  </g>
 </g>
</svg>
