<?xml version="1.0" encoding="UTF-8"?>
<!DOCTYPE svg PUBLIC "-//W3C//DTD SVG 1.1//EN" "http://www.w3.org/Graphics/SVG/1.1/DTD/svg11.dtd">
<!-- Creator: CorelDRAW 2021 (64 Bit) -->
<svg xmlns="http://www.w3.org/2000/svg" xml:space="preserve" width="550px" height="550px" version="1.1" style="shape-rendering:geometricPrecision; text-rendering:geometricPrecision; image-rendering:optimizeQuality; fill-rule:evenodd; clip-rule:evenodd"
viewBox="0 0 10.97 10.97"
 xmlns:xlink="http://www.w3.org/1999/xlink"
 xmlns:xodm="http://www.corel.com/coreldraw/odm/2003">
 <defs>
  <style type="text/css">
   <![CDATA[
    .str0 {stroke:#B8B4B6;stroke-miterlimit:22.9256}
    .str1 {stroke:black;stroke-width:0.04;stroke-miterlimit:22.9256}
    .str2 {stroke:black;stroke-width:0.02;stroke-miterlimit:22.9256}
    .str3 {stroke:red;stroke-width:0.02;stroke-miterlimit:22.9256}
    .fil5 {fill:none}
    .fil6 {fill:black}
    .fil4 {fill:#CCCCCC}
    .fil1 {fill:#E6E6E6}
    .fil2 {fill:red}
    .fil3 {fill:#FFFF99}
    .fil0 {fill:white}
   ]]>
  </style>
 </defs>
 <g id="Camada_x0020_1">
  <metadata id="CorelCorpID_0Corel-Layer"/>
  <path class="fil0 str0" d="M0.95 0.5l9.08 0c0.24,0 0.44,0.22 0.44,0.5l0 8.97c0,0.27 -0.2,0.5 -0.44,0.5l-9.08 0c-0.25,0 -0.44,-0.23 -0.44,-0.5 0,-1.08 -0.02,-8.69 -0.01,-9.08 0,-0.22 0.27,-0.39 0.45,-0.39z"/>
 </g>
 <g id="Camada_x0020_1_0">
  <metadata id="CorelCorpID_1Corel-Layer"/>
  <g id="_2069890237680">
   <polygon class="fil1 str1" points="9.7,5.7 8.75,5.71 8.97,5.53 9.5,5.53 "/>
   <rect class="fil2 str1" x="4.97" y="5.7" width="4.9" height="2.1"/>
   <g>
    <g>
     <rect class="fil3 str1" x="1.95" y="7.46" width="4.9" height="1.74"/>
     <polygon class="fil4 str1" points="5.86,7.45 4.9,7.46 5.13,7.38 5.65,7.38 "/>
    </g>
    <g>
     <polygon class="fil4 str1" points="4.97,7.65 4.01,7.65 4.24,7.58 4.77,7.58 "/>
     <rect class="fil3 str1" x="1.75" y="7.66" width="4.9" height="1.74"/>
    </g>
    <g>
     <rect class="fil3 str1" x="1.55" y="7.85" width="4.9" height="1.76"/>
     <polygon class="fil5 str1" points="3.81,7.85 2.86,7.85 3.09,7.77 3.61,7.77 "/>
     <polygon class="fil4 str1" points="3.81,7.85 2.86,7.85 3.09,7.77 3.61,7.77 "/>
    </g>
    <g>
     <rect class="fil3 str1" x="1.37" y="8.05" width="4.9" height="1.74"/>
     <polygon class="fil4 str1" points="2.63,8.04 1.67,8.04 1.9,7.97 2.43,7.97 "/>
    </g>
   </g>
   <g>
    <path class="fil0" d="M5.47 3.24c0.06,0 0.11,-0.03 0.15,-0.05 0.02,-0.02 0.04,-0.03 0.06,-0.05 0.01,-0.01 0.05,-0.03 0.06,-0.04 0.02,0.04 0.06,0.05 0.08,0.07 -0.02,0.05 -0.11,0.11 -0.15,0.13 -0.14,0.07 -0.3,0.08 -0.45,0.01 -0.04,-0.02 -0.13,-0.08 -0.15,-0.12 0.02,-0.02 0.07,-0.07 0.09,-0.08 0.07,0.11 0.18,0.12 0.31,0.13zm0.26 -0.73c0.19,-0.03 0.21,0.22 0.06,0.25 -0.09,0.01 -0.15,-0.03 -0.16,-0.1 -0.02,-0.09 0.03,-0.13 0.1,-0.15zm-0.69 0c0.08,-0.01 0.15,0.03 0.16,0.09 0.01,0.08 -0.04,0.14 -0.11,0.16 -0.16,0.03 -0.23,-0.21 -0.05,-0.25zm1.25 0.11c0.03,-0.12 0.06,-0.24 -0.01,-0.34 -0.02,-0.03 -0.08,-0.08 -0.11,-0.1 -0.1,-0.06 -0.11,-0.03 -0.2,0.03 -0.15,0.12 -0.35,0.2 -0.53,0.21 -0.27,0 -0.45,-0.15 -0.59,-0.25 -0.06,-0.04 -0.11,-0.02 -0.17,0 -0.05,0.03 -0.08,0.04 -0.1,0.11 -0.01,0.04 -0.03,0.13 -0.03,0.17 0.01,0.07 0.03,0.12 0.03,0.19l-0.15 0.02c-0.04,0.07 0.02,0.19 0.03,0.26 0.02,0.04 0.03,0.08 0.06,0.1 0.04,0.02 0.1,0.02 0.15,0.02 0.03,0.1 0.06,0.16 0.11,0.23 0.03,0.05 0.11,0.14 0.15,0.18 0.07,0.05 0.13,0.09 0.22,0.12 0.09,0.03 0.2,0.04 0.3,0.04 0.23,0 0.36,-0.07 0.5,-0.17 0.05,-0.04 0.13,-0.12 0.17,-0.17 0.08,-0.12 0.06,-0.12 0.1,-0.23 0.08,0 0.14,0.02 0.17,-0.04 0.04,-0.05 0.03,-0.1 0.05,-0.16 0.01,-0.04 0.05,-0.14 0.01,-0.17 -0.04,-0.02 -0.12,-0.02 -0.16,-0.05z"/>
    <path class="fil0" d="M7.06 3.48c-0.26,0.05 -0.16,0.41 0.08,0.36 0.09,-0.02 0.17,-0.1 0.15,-0.22 -0.02,-0.09 -0.11,-0.17 -0.23,-0.14z"/>
    <path class="fil6" d="M5.47 3.24c-0.13,-0.01 -0.24,-0.02 -0.31,-0.13 -0.02,0.01 -0.07,0.06 -0.09,0.08 0.02,0.04 0.11,0.1 0.15,0.12 0.15,0.07 0.31,0.06 0.45,-0.01 0.04,-0.02 0.13,-0.08 0.15,-0.13 -0.02,-0.02 -0.06,-0.03 -0.08,-0.07 -0.01,0.01 -0.05,0.03 -0.06,0.04 -0.02,0.02 -0.04,0.03 -0.06,0.05 -0.04,0.02 -0.09,0.05 -0.15,0.05z"/>
    <polygon class="fil6" points="4.14,5.35 4.26,5.35 4.26,4.86 4.14,4.86 "/>
    <polygon class="fil6" points="6.72,5.34 6.81,5.34 6.83,5.34 6.83,4.87 6.81,4.87 6.72,4.87 "/>
    <path class="fil6" d="M5.73 2.51c-0.07,0.02 -0.12,0.06 -0.1,0.15 0.01,0.07 0.07,0.11 0.16,0.1 0.15,-0.03 0.13,-0.28 -0.06,-0.25z"/>
    <path class="fil6" d="M5.04 2.51c-0.18,0.04 -0.11,0.28 0.05,0.25 0.07,-0.02 0.12,-0.08 0.11,-0.16 -0.01,-0.06 -0.08,-0.1 -0.16,-0.09z"/>
    <path class="fil6 str2" d="M6.29 2.62c0.04,0.03 0.12,0.03 0.16,0.05 0.04,0.03 0,0.13 -0.01,0.17 -0.02,0.06 -0.01,0.11 -0.05,0.16 -0.03,0.06 -0.09,0.04 -0.17,0.04 -0.04,0.11 -0.02,0.11 -0.1,0.23 -0.04,0.05 -0.12,0.13 -0.17,0.17 -0.14,0.1 -0.27,0.17 -0.5,0.17 -0.1,0 -0.21,-0.01 -0.3,-0.04 -0.09,-0.03 -0.15,-0.07 -0.22,-0.12 -0.04,-0.04 -0.12,-0.13 -0.15,-0.18 -0.05,-0.07 -0.08,-0.13 -0.11,-0.23 -0.05,0 -0.11,0 -0.15,-0.02 -0.03,-0.02 -0.04,-0.06 -0.06,-0.1 -0.01,-0.07 -0.07,-0.19 -0.03,-0.26l0.15 -0.02c0,-0.07 -0.02,-0.12 -0.03,-0.19 0,-0.04 0.02,-0.13 0.03,-0.17 0.02,-0.07 0.05,-0.08 0.1,-0.11 0.06,-0.02 0.11,-0.04 0.17,0 0.14,0.1 0.32,0.25 0.59,0.25 0.18,-0.01 0.38,-0.09 0.53,-0.21 0.09,-0.06 0.1,-0.09 0.2,-0.03 0.03,0.02 0.09,0.07 0.11,0.1 0.07,0.1 0.04,0.22 0.01,0.34zm-1.26 -1.3c-0.18,0.07 -0.34,0.22 -0.43,0.35 -0.08,0.1 -0.14,0.19 -0.17,0.36 -0.01,0.08 -0.01,0.17 -0.02,0.25 0,0.1 0.03,0.17 0.03,0.25 -0.08,0.01 -0.11,0.04 -0.13,0.1 -0.02,0.07 -0.01,0.14 0,0.21 0.09,0.41 0.23,0.24 0.3,0.38 0.04,0.07 0.03,0.08 0.09,0.15l0.1 0.12c0.04,0.03 0.08,0.07 0.13,0.1 0,0.05 0.01,0.25 0,0.29 0,0.04 -0.02,0.04 -0.05,0.05 -0.17,0.01 -0.51,0.08 -0.7,0.11 -0.12,0.02 -0.21,0.04 -0.32,0.09 -0.05,0.02 -0.08,0.04 -0.13,0.07 -0.12,0.08 -0.21,0.21 -0.25,0.36 -0.02,0.08 -0.01,0.28 -0.01,0.39 0,0.13 0,0.27 0,0.4 0.08,0 0.12,0.01 0.13,-0.04l0 -0.48c0,-0.19 0,-0.38 0.15,-0.5 0.08,-0.05 0.12,-0.08 0.22,-0.11 0.17,-0.06 0.37,-0.08 0.55,-0.11 0.09,-0.02 0.19,-0.04 0.29,-0.05 0.01,0.11 0.01,0.15 0.06,0.23 0.08,0.13 0.2,0.22 0.33,0.27 0.07,0.03 0.17,0.06 0.25,0.05 0.29,-0.01 0.66,-0.24 0.66,-0.55l0.71 0.12c0.25,0.04 0.48,0.21 0.49,0.45 0.01,0.24 0.01,0.47 0.02,0.71l0.12 0.01 0 -0.71c-0.05,-0.29 -0.2,-0.51 -0.65,-0.59 -0.24,-0.04 -0.48,-0.08 -0.72,-0.12 -0.08,-0.01 -0.11,-0.02 -0.1,-0.1 0,-0.08 0,-0.19 0,-0.27 0.05,-0.03 0.1,-0.07 0.14,-0.11 0.05,-0.04 0.17,-0.18 0.18,-0.28 0.22,-0.01 0.22,-0.16 0.25,-0.29 0.01,-0.03 0.03,-0.06 0.04,-0.09 0.01,-0.04 0,-0.08 -0.01,-0.12 -0.02,-0.07 -0.07,-0.11 -0.14,-0.13 0,-0.25 0.04,-0.37 -0.04,-0.61 -0.06,-0.17 -0.11,-0.25 -0.22,-0.37 -0.05,-0.05 -0.05,-0.04 -0.09,-0.08 -0.04,-0.03 -0.11,-0.08 -0.15,-0.1 -0.19,-0.11 -0.35,-0.14 -0.57,-0.13 -0.07,0 -0.21,0.01 -0.34,0.07zm-0.32 0.42c0.1,-0.11 0.2,-0.23 0.41,-0.32 0.07,-0.04 0.1,-0.05 0.2,-0.05 0.15,-0.01 0.32,0.01 0.45,0.06 0.11,0.04 0.16,0.08 0.24,0.14 0.09,0.08 0.1,0.09 0.18,0.2 0.04,0.06 0.15,0.28 0.13,0.37 -0.04,-0.03 -0.13,-0.09 -0.19,-0.11 -0.05,-0.02 -0.09,-0.02 -0.13,0.01 -0.03,0.02 -0.06,0.05 -0.09,0.07 -0.31,0.22 -0.57,0.27 -0.92,0.02 -0.03,-0.03 -0.06,-0.05 -0.09,-0.07 -0.04,-0.03 -0.06,-0.04 -0.12,-0.04 -0.13,0.01 -0.18,0.07 -0.24,0.09 0.01,-0.17 0.12,-0.31 0.17,-0.37zm0.73 2.75c0.02,0 0.05,0 0.07,-0.01 0.02,0 0.05,0 0.08,-0.01 0.22,-0.03 0.4,-0.23 0.4,-0.43 -0.09,-0.03 -0.13,-0.09 -0.13,-0.17l0.01 -0.24 0 0c-0.01,0 -0.03,0.01 -0.04,0.02 -0.11,0.05 -0.25,0.08 -0.39,0.09 -0.11,0 -0.21,-0.01 -0.31,-0.05 -0.03,-0.01 -0.06,-0.03 -0.08,-0.03 0,0.08 0.01,0.17 0,0.26 -0.01,0.07 -0.07,0.1 -0.13,0.12 0.01,0.23 0.22,0.41 0.41,0.44 0.06,0.01 0.09,0.01 0.11,0.01z"/>
   </g>
   <path class="fil2 str3" d="M3.6 4.7l0 0.65 0.54 0 0 -0.49 0.11 0 0 0.49 2.46 -0.01 0 -0.47 0.12 0 0 0.47 0.5 0 -0.02 -0.71c-0.02,-0.24 -0.19,-0.38 -0.44,-0.44l-0.76 -0.13c-0.05,0.33 -0.28,0.5 -0.66,0.55 -0.35,-0.02 -0.58,-0.19 -0.65,-0.55l-0.74 0.13c-0.31,0.07 -0.46,0.25 -0.46,0.51z"/>
  </g>
 </g>
</svg>
