<?xml version="1.0" encoding="UTF-8"?>
<!DOCTYPE svg PUBLIC "-//W3C//DTD SVG 1.1//EN" "http://www.w3.org/Graphics/SVG/1.1/DTD/svg11.dtd">
<!-- Creator: CorelDRAW 2021 (64 Bit) -->
<svg xmlns="http://www.w3.org/2000/svg" xml:space="preserve" width="550px" height="550px" version="1.1" style="shape-rendering:geometricPrecision; text-rendering:geometricPrecision; image-rendering:optimizeQuality; fill-rule:evenodd; clip-rule:evenodd"
viewBox="0 0 48.03 48.03"
 xmlns:xlink="http://www.w3.org/1999/xlink"
 xmlns:xodm="http://www.corel.com/coreldraw/odm/2003">
 <defs>
  <style type="text/css">
   <![CDATA[
    .str2 {stroke:#AEA19E;stroke-width:1.4;stroke-miterlimit:22.9256;stroke-opacity:0.949020}
    .str0 {stroke:#B8B4B6;stroke-width:4.37;stroke-miterlimit:22.9256}
    .str1 {stroke:white;stroke-width:0.17;stroke-miterlimit:22.9256}
    .str3 {stroke:black;stroke-width:1.05;stroke-miterlimit:22.9256}
    .fil4 {fill:none}
    .fil1 {fill:#E6E7E8}
    .fil5 {fill:#373435}
    .fil7 {fill:#CD8E64}
    .fil9 {fill:#F8AC92}
    .fil6 {fill:#FD9833}
    .fil8 {fill:#FE0000}
    .fil0 {fill:white}
    .fil2 {fill:#333333;fill-rule:nonzero}
    .fil3 {fill:#FEFEFE;fill-rule:nonzero;fill-opacity:0.949020}
   ]]>
  </style>
 </defs>
 <g id="Camada_x0020_1">
  <metadata id="CorelCorpID_0Corel-Layer"/>
  <g id="_2069384954528">
   <path class="fil0 str0" d="M4.14 2.18l39.79 0c1.06,0 1.91,0.98 1.91,2.19l0 39.29c0,1.21 -0.85,2.18 -1.91,2.18l-39.79 0c-1.05,0 -1.91,-0.97 -1.91,-2.18 0,-4.72 -0.07,-38.05 -0.04,-39.76 0.02,-0.95 1.16,-1.72 1.95,-1.72z"/>
   <g>
    <g>
     <rect class="fil1 str1" x="7.42" y="27.2" width="5.83" height="13.43"/>
     <path class="fil2" d="M22.93 41.48c-1.12,0 -2.23,-0.41 -3.3,-0.81 -1.18,-0.44 -2.39,-0.89 -3.6,-0.78l-2.98 0.26 0 -11.56 1.62 -0.14c1.01,-0.09 1.86,0.3 2.67,0.68 0.77,0.36 1.49,0.7 2.32,0.63l5.34 -0.97c1.91,-0.33 2.96,0.77 3.6,1.78l5.82 -2.71c2.2,-0.98 4.67,0.01 6.15,2.47 0.39,0.64 0.17,1.5 -0.48,1.91 -0.76,0.47 -1.51,0.94 -2.25,1.41 -6.51,4.08 -12.13,7.61 -14.53,7.82 -0.13,0.01 -0.26,0.01 -0.38,0.01zm-6.53 -2.41c1.22,0 2.38,0.43 3.51,0.85 1.16,0.44 2.26,0.84 3.33,0.75 2.21,-0.19 8.02,-3.84 14.17,-7.7 0.75,-0.46 1.5,-0.93 2.25,-1.41 0.29,-0.18 0.39,-0.55 0.23,-0.82 -1.27,-2.1 -3.33,-2.96 -5.13,-2.15l-6.48 3.02c-0.02,-0.43 -0.34,-0.91 -0.51,-1.13 -0.6,-0.71 -1.76,-1.06 -2.64,-0.91l-5.36 0.98c-1.08,0.09 -1.94,-0.31 -2.77,-0.7 -0.75,-0.35 -1.46,-0.68 -2.26,-0.61l-0.89 0.08 0 9.96 2.11 -0.19c0.15,-0.01 0.29,-0.02 0.44,-0.02z"/>
     <path class="fil3 str2" d="M12.49 41.48l-4.55 0c-0.75,0 -1.36,-0.61 -1.36,-1.35l0 -12.27c0,-0.75 0.61,-1.36 1.36,-1.36l4.55 0c0.75,0 1.36,0.61 1.36,1.36l0 12.27c0,0.74 -0.61,1.35 -1.36,1.35zm-4.55 -14.18c-0.31,0 -0.56,0.25 -0.56,0.56l0 12.27c0,0.3 0.25,0.55 0.56,0.55l4.55 0c0.31,0 0.56,-0.25 0.56,-0.55l0 -12.27c0,-0.31 -0.25,-0.56 -0.56,-0.56l-4.55 0z"/>
     <path class="fil4 str3" d="M28.59 31.4c0.1,0.19 0.11,0.51 -0.11,0.87 -0.35,0.55 -1.14,0.98 -3.06,0.76 -1.42,-0.17 -3.12,0.16 -4.6,0.32"/>
    </g>
    <g>
     <path class="fil5" d="M8.22 21.97c0.7,0.15 1.51,0.53 2.75,0.78 1,0.21 2.08,0.32 3.14,0.32 1.07,0.01 2.12,-0.11 3.14,-0.31 0.79,-0.16 2.68,-0.76 2.76,-0.77 -0.06,1.31 -4.46,1.67 -5.84,1.69 -0.87,0.01 -5.84,-0.19 -5.95,-1.71zm0.23 -0.56c0.32,-0.36 0.71,-0.63 1.07,-0.98 0.36,-0.34 0.74,-0.64 1.11,-0.95 0.71,-0.59 0.33,-0.55 1.5,-0.55l4.01 0c1.18,0 0.74,0.03 1.45,0.54l1.1 0.97c0.23,0.21 0.37,0.29 0.56,0.47 0.27,0.24 0.42,0.31 0.52,0.5 -1.06,0.71 -4.41,1.09 -5.72,1.08 -1.34,-0.01 -4.6,-0.45 -5.6,-1.08zm2.89 -4.25c0.77,0.16 1.66,0.45 2.44,0.67 0.43,0.12 0.82,0.23 1.23,0.34 0.33,0.1 0.91,0.3 1.18,0.35l-4.87 -0.01 0.02 -1.35zm0.04 -0.32c-0.39,-0.1 -0.47,-0.15 -0.37,-0.67l6.11 1.66c0.04,0.21 0.09,0.35 0.02,0.59 -0.39,-0.04 -4.85,-1.34 -5.76,-1.58zm0.4 -0.78c-0.39,-0.1 -0.46,-0.02 -0.45,-0.44l5.58 1.49 0 0.32 -5.13 -1.37zm-0.83 -1.31c0.56,0 4.97,1.32 6.1,1.55 0.06,0.2 0.09,0.28 0.03,0.5 -0.33,-0.03 -4.2,-1.09 -4.86,-1.27 -1.21,-0.33 -1.34,-0.19 -1.27,-0.78zm0.37 -0.66c0.32,0.01 3.59,0.99 4.36,1.21 1.11,0.32 1.22,0.18 1.22,0.65l-5.58 -1.48 0 -0.38zm5.87 0.04c0.08,-0.06 0.03,-0.09 0.38,-0.07 0.11,0 0.25,0.02 0.36,0.03l8.85 0.75c0.54,0.05 1.06,0 1.24,0.25 -0.5,0.07 -8.2,-0.67 -9.55,-0.78l-1.28 -0.18zm-6.18 -1.04c0.49,0.08 1.19,0.31 1.69,0.45l3.36 0.93c0.81,0.21 1.3,0.2 1.08,0.89 -0.34,-0.02 -2.79,-0.76 -3.33,-0.92l-2.54 -0.71c-0.33,-0.11 -0.35,-0.29 -0.26,-0.64zm5.88 1.27c-0.54,-0.09 -4.34,-1.13 -4.59,-1.29l0.3 -0.02 4.08 0 0.23 0.02 -0.02 1.29zm-6.22 -2.12c0.41,-0.01 1.74,0.39 3.5,0.37 1.36,-0.01 2.24,-0.25 3.48,-0.46 -0.59,0.51 -0.54,0.5 -1.51,0.5 -0.66,0 -1.31,-0.03 -1.97,-0.04 -0.66,0 -1.32,0.04 -1.98,0.04 -1.55,0 -0.85,-0.06 -1.52,-0.41zm8.08 -1.24c0.45,-0.17 0.83,-0.45 1.17,-0.58 -0.27,0.63 -1.72,1.07 -2.59,1.28 -2.41,0.6 -5.97,0.55 -8.22,-0.64 -0.34,-0.18 -0.98,-0.52 -0.99,-0.91 0.36,0.12 0.81,0.41 1.25,0.58 2.41,0.96 5.43,1.08 7.95,0.65 0.5,-0.09 0.98,-0.22 1.43,-0.38zm-6.02 -3.12c2,-0.15 5,0.01 6.63,0.85 1.39,0.71 0.36,1.35 -0.65,1.73 -0.87,0.34 -2.15,0.51 -3.17,0.57 -2.37,0.13 -4.53,-0.03 -6.49,-0.97 -0.66,-0.32 -1.13,-0.47 -0.73,-0.95 0.67,-0.8 3.39,-1.15 4.41,-1.23zm4.48 5.18c0.24,-0.1 1.49,-1.04 1.85,-1.3 0.65,-0.45 1.4,-0.72 1.47,-1.73 0.04,-0.61 0.07,-0.86 -0.26,-1.25 -1.45,-1.73 -9.16,-1.91 -11.68,-0.45 -0.33,0.19 -0.66,0.46 -0.81,0.77 -0.11,0.23 -0.16,1.18 -0.14,1.5 0.26,0.18 0.46,0.42 0.76,0.64 0.25,0.19 0.5,0.33 0.79,0.54 0.25,0.2 0.52,0.36 0.78,0.56 0.29,0.2 0.51,0.39 0.79,0.54 -0.08,0.3 -0.15,0.46 -0.03,0.79 0.17,0.49 0.28,0.06 0.29,0.59 -0.05,0.24 -0.4,0.13 -0.39,0.68 0.01,0.51 0.24,0.44 0.39,0.69 -0.05,0.4 0.02,0.03 -0.22,0.35 -0.42,0.57 0.21,1.12 0.22,1.2l0 1.35c-0.56,0.4 -1.84,1.54 -2.49,2.12 -0.52,0.46 -0.49,0.55 -0.86,0.41l-0.11 0.52c0,0 0.04,0.11 0.05,0.22 0.02,0.1 0.01,0.19 0.02,0.3 0.06,0.98 1.29,1.44 2.12,1.67 2.65,0.72 6.15,0.71 8.78,-0.06 0.94,-0.27 2.03,-0.67 2.07,-1.68 0.04,-0.74 0.13,-0.12 0.01,-0.64 -0.03,-0.13 -0.02,-0.18 -0.02,-0.31 -0.3,0.08 -0.31,0.09 -0.52,-0.09l-1.94 -1.7c-0.3,-0.29 -0.5,-0.38 -0.74,-0.68 0.22,-0.57 0.08,-0.59 -0.13,-1.04 -0.25,-0.54 0.23,-0.53 0.16,-1.05 -0.02,-0.22 -0.17,-0.34 -0.2,-0.53 -0.1,-0.55 0.6,-0.36 0.09,-1.45 0.77,-0.02 1.95,0.15 2.78,0.22l5.62 0.49c0.47,0.04 0.96,0.08 1.43,0.12 0.58,0.05 0.83,0.16 1.2,-0.16 0.04,-0.61 -0.5,-0.59 -1.02,-0.63l-10.1 -0.85 -0.01 -0.67z"/>
     <path class="fil6" d="M8.45 21.41c1,0.63 4.26,1.07 5.6,1.08 1.31,0.01 4.66,-0.37 5.72,-1.08 -0.1,-0.19 -0.25,-0.26 -0.52,-0.5 -0.19,-0.18 -0.33,-0.26 -0.56,-0.47l-1.1 -0.97c-0.71,-0.51 -0.27,-0.54 -1.45,-0.54l-4.01 0c-1.17,0 -0.79,-0.04 -1.5,0.55 -0.37,0.31 -0.75,0.61 -1.11,0.95 -0.36,0.35 -0.75,0.62 -1.07,0.98z"/>
     <path class="fil7" d="M12.73 7.88c-1.02,0.08 -3.74,0.43 -4.41,1.23 -0.4,0.48 0.07,0.63 0.73,0.95 1.96,0.94 4.12,1.1 6.49,0.97 1.02,-0.06 2.3,-0.23 3.17,-0.57 1.01,-0.38 2.04,-1.02 0.65,-1.73 -1.63,-0.84 -4.63,-1 -6.63,-0.85z"/>
     <path class="fil8" d="M32.83 9.15l-1.06 -0.47 -4.96 11.96c-0.21,0.51 -0.54,1.21 -0.7,1.74l1.09 0.47 5.63 -13.7z"/>
     <path class="fil0" d="M8.22 21.97c0.11,1.52 5.08,1.72 5.95,1.71 1.38,-0.02 5.78,-0.38 5.84,-1.69 -0.08,0.01 -1.97,0.61 -2.76,0.77 -1.02,0.2 -2.07,0.32 -3.14,0.31 -1.06,0 -2.14,-0.11 -3.14,-0.32 -1.24,-0.25 -2.05,-0.63 -2.75,-0.78z"/>
     <path class="fil5" d="M31.64 15.25c0.01,0 0.03,-0.03 0.03,-0.01l0.09 -0.03c0.01,0 0.03,-0.01 0.05,-0.01l7.92 0.64c0.12,0.07 0.04,0.01 0.1,0.1 -0.27,0.15 -6.36,-0.46 -7.72,-0.55 -0.28,-0.02 -0.38,0.04 -0.47,-0.14zm6.15 0.91c0.48,0.04 2,0.3 2.27,0.02 0.31,-0.33 -0.04,-0.63 -0.42,-0.68l-3.54 -0.28c-1.59,-0.12 -3.18,-0.27 -4.78,-0.37 0.03,0.78 -0.14,0.79 0.55,0.83l5.92 0.48z"/>
     <path class="fil0" d="M19.92 10.42c-0.34,0.13 -0.72,0.41 -1.17,0.58 -0.45,0.16 -0.93,0.29 -1.43,0.38 -2.52,0.43 -5.54,0.31 -7.95,-0.65 -0.44,-0.17 -0.89,-0.46 -1.25,-0.58 0.01,0.39 0.65,0.73 0.99,0.91 2.25,1.19 5.81,1.24 8.22,0.64 0.87,-0.21 2.32,-0.65 2.59,-1.28z"/>
     <path class="fil8" d="M26.27 10.55c0.5,0.64 1.14,1.69 1.63,2.29 0.21,0.26 0.38,0.56 0.57,0.77 0.18,-0.13 0.24,-0.17 0.46,-0.35 0.15,-0.13 0.35,-0.25 0.47,-0.36 -0.05,-0.12 -1.97,-2.89 -2.2,-3.07l-0.93 0.72z"/>
     <path class="fil8" d="M24.65 18.97c0.43,-0.24 2.9,-1.69 3.13,-1.92l-0.58 -1.01c-0.28,0.09 -1.9,1.11 -2.38,1.4 -0.22,0.14 -0.59,0.31 -0.75,0.49 0.13,0.31 0.41,0.75 0.58,1.04z"/>
     <path class="fil8" d="M31.51 16.68c-0.2,0.13 -0.79,0.6 -0.9,0.83l1.57 1.97c0.15,0.22 0.35,0.45 0.52,0.62 0.31,-0.18 0.59,-0.5 0.9,-0.72 -0.06,-0.18 -1.88,-2.49 -2.09,-2.7z"/>
     <path class="fil0" d="M17.14 15.36c0.22,-0.69 -0.27,-0.68 -1.08,-0.89l-3.36 -0.93c-0.5,-0.14 -1.2,-0.37 -1.69,-0.45 -0.09,0.35 -0.07,0.53 0.26,0.64l2.54 0.71c0.54,0.16 2.99,0.9 3.33,0.92z"/>
     <polygon class="fil8" points="32.46,12.78 32.92,13.91 35.69,12.64 35.22,11.51 "/>
     <path class="fil0" d="M17.14 18.42c0.07,-0.24 0.02,-0.38 -0.02,-0.59l-6.11 -1.66c-0.1,0.52 -0.02,0.57 0.37,0.67 0.91,0.24 5.37,1.54 5.76,1.58z"/>
     <path class="fil9" d="M11.32 18.51l4.87 0.01c-0.27,-0.05 -0.85,-0.25 -1.18,-0.35 -0.41,-0.11 -0.8,-0.22 -1.23,-0.34 -0.78,-0.22 -1.67,-0.51 -2.44,-0.67l-0.02 1.35z"/>
     <path class="fil9" d="M16.89 14.36l0.02 -1.29 -0.23 -0.02 -4.08 0 -0.3 0.02c0.25,0.16 4.05,1.2 4.59,1.29z"/>
     <path class="fil0" d="M17.08 16.8c0.06,-0.22 0.03,-0.3 -0.03,-0.5 -1.13,-0.23 -5.54,-1.55 -6.1,-1.55 -0.07,0.59 0.06,0.45 1.27,0.78 0.66,0.18 4.53,1.24 4.86,1.27z"/>
     <path class="fil9" d="M11.32 14.47l5.58 1.48c0,-0.47 -0.11,-0.33 -1.22,-0.65 -0.77,-0.22 -4.04,-1.2 -4.36,-1.21l0 0.38z"/>
     <path class="fil0" d="M17.19 14.13l1.28 0.18c1.35,0.11 9.05,0.85 9.55,0.78 -0.18,-0.25 -0.7,-0.2 -1.24,-0.25l-8.85 -0.75c-0.11,-0.01 -0.25,-0.03 -0.36,-0.03 -0.35,-0.02 -0.3,0.01 -0.38,0.07z"/>
     <path class="fil9" d="M16.91 17.43l0 -0.32 -5.58 -1.49c-0.01,0.42 0.06,0.34 0.45,0.44l5.13 1.37z"/>
     <path class="fil0" d="M31.64 15.25c0.09,0.18 0.19,0.12 0.47,0.14 1.36,0.09 7.45,0.7 7.72,0.55 -0.06,-0.09 0.02,-0.03 -0.1,-0.1l-7.92 -0.64c-0.02,0 -0.04,0.01 -0.05,0.01l-0.09 0.03c0,-0.02 -0.02,0.01 -0.03,0.01z"/>
     <path class="fil6" d="M10.67 12.24c0.67,0.35 -0.03,0.41 1.52,0.41 0.66,0 1.32,-0.04 1.98,-0.04 0.66,0.01 1.31,0.04 1.97,0.04 0.97,0 0.92,0.01 1.51,-0.5 -1.24,0.21 -2.12,0.45 -3.48,0.46 -1.76,0.02 -3.09,-0.38 -3.5,-0.37z"/>
    </g>
   </g>
  </g>
 </g>
</svg>
