<?xml version="1.0" encoding="UTF-8"?>
<!DOCTYPE svg PUBLIC "-//W3C//DTD SVG 1.1//EN" "http://www.w3.org/Graphics/SVG/1.1/DTD/svg11.dtd">
<!-- Creator: CorelDRAW 2021 (64 Bit) -->
<svg xmlns="http://www.w3.org/2000/svg" xml:space="preserve" width="530px" height="530px" version="1.1" style="shape-rendering:geometricPrecision; text-rendering:geometricPrecision; image-rendering:optimizeQuality; fill-rule:evenodd; clip-rule:evenodd"
viewBox="0 0 67.96 67.96"
 xmlns:xlink="http://www.w3.org/1999/xlink"
 xmlns:xodm="http://www.corel.com/coreldraw/odm/2003">
 <defs>
  <style type="text/css">
   <![CDATA[
    .str0 {stroke:#B8B4B6;stroke-width:3.85;stroke-miterlimit:22.9256}
    .str1 {stroke:black;stroke-width:0.64;stroke-miterlimit:22.9256}
    .fil2 {fill:gray}
    .fil1 {fill:#B3B3B3}
    .fil3 {fill:#CCCCCC}
    .fil4 {fill:#E6E6E6}
    .fil0 {fill:white}
   ]]>
  </style>
 </defs>
 <g id="Camada_x0020_1">
  <metadata id="CorelCorpID_0Corel-Layer"/>
  <g id="_2787494292528">
   <path class="fil0 str0" d="M4.8 1.92l58.42 0c1.56,0 2.81,1.44 2.81,3.21l0 57.69c0,1.78 -1.25,3.21 -2.81,3.21l-58.42 0c-1.55,0 -2.81,-1.43 -2.81,-3.21 0,-6.93 -0.1,-55.87 -0.06,-58.38 0.03,-1.39 1.71,-2.52 2.87,-2.52z"/>
   <g>
    <path class="fil1 str1" d="M42.48 23.08l0.2 -0.06c0.27,-0.1 0.31,-0.35 0.25,-0.57 0.14,-0.14 0.5,-0.36 0.48,-0.65 -0.02,-0.2 -0.24,-0.65 -0.31,-0.88 0.12,-0.09 0.29,-0.11 0.43,-0.17 0.41,-0.21 0.86,-0.54 0.75,-1.07 -0.08,-0.44 -0.56,-1.26 -0.78,-1.65 -0.32,-0.53 -0.6,-1.02 -0.94,-1.53 -0.3,-0.47 -0.2,-0.35 -0.13,-0.94 0.22,-1.85 -0.04,-2.65 -1.12,-4.13 -0.71,-0.97 -2,-1.94 -3.21,-2.44 -2.73,-1.17 -5.97,-1.06 -8.57,0.15 -1.87,0.87 -4.02,3.07 -4.04,5.83 0,1.26 0.57,2.75 1.13,3.68l1.86 3.06c0.89,1.43 0.69,1.78 -0.41,3.3 -0.28,0.38 -0.62,0.72 -0.85,1.02 -0.08,0.1 -0.2,0.23 -0.29,0.32 -0.19,0.18 -0.54,0.47 -0.54,0.69 0,0.16 0.11,0.32 0.24,0.37 0.21,0.11 5.23,0.05 5.84,0.05l3.96 0c1.29,0 -0.3,-0.33 2.54,-1.27 0.76,-0.24 1.33,-0.3 2.12,-0.46 1.9,-0.37 2.39,-1.39 1.39,-2.65l0 0z"/>
    <path class="fil2 str1" d="M25.71 39.35l0.2 -0.06c0.27,-0.1 0.32,-0.34 0.25,-0.56 0.15,-0.14 0.5,-0.37 0.48,-0.66 -0.02,-0.19 -0.24,-0.64 -0.3,-0.87 0.11,-0.09 0.28,-0.12 0.42,-0.18 0.41,-0.2 0.87,-0.54 0.76,-1.07 -0.09,-0.44 -0.56,-1.26 -0.79,-1.65 -0.32,-0.53 -0.6,-1.01 -0.94,-1.52 -0.3,-0.47 -0.19,-0.36 -0.12,-0.94 0.21,-1.85 -0.04,-2.66 -1.13,-4.13 -0.71,-0.97 -2,-1.94 -3.21,-2.45 -2.72,-1.16 -5.97,-1.06 -8.57,0.15 -1.87,0.88 -4.02,3.07 -4.04,5.84 0,1.25 0.57,2.74 1.13,3.68l1.86 3.05c0.89,1.44 0.69,1.79 -0.41,3.31 -0.27,0.38 -0.62,0.72 -0.85,1.01 -0.07,0.11 -0.2,0.24 -0.29,0.33 -0.19,0.18 -0.54,0.47 -0.54,0.69 0,0.16 0.12,0.32 0.24,0.37 0.21,0.1 5.23,0.04 5.84,0.04l3.96 0c1.29,0.01 -0.3,-0.32 2.54,-1.26 0.76,-0.25 1.33,-0.3 2.13,-0.46 1.89,-0.37 2.38,-1.39 1.38,-2.66l0 0z"/>
    <path class="fil3 str1" d="M42.33 55.68l0.2 -0.06c0.27,-0.1 0.31,-0.35 0.25,-0.57 0.14,-0.14 0.5,-0.36 0.48,-0.65 -0.02,-0.19 -0.24,-0.65 -0.31,-0.87 0.12,-0.09 0.29,-0.12 0.43,-0.18 0.41,-0.2 0.86,-0.54 0.75,-1.07 -0.08,-0.44 -0.56,-1.26 -0.78,-1.65 -0.32,-0.53 -0.6,-1.02 -0.94,-1.53 -0.3,-0.47 -0.2,-0.35 -0.13,-0.93 0.22,-1.86 -0.04,-2.66 -1.12,-4.14 -0.71,-0.97 -2,-1.94 -3.21,-2.44 -2.73,-1.17 -5.97,-1.06 -8.57,0.15 -1.87,0.87 -4.02,3.07 -4.04,5.83 0,1.26 0.57,2.75 1.13,3.69l1.86 3.05c0.89,1.43 0.69,1.78 -0.41,3.3 -0.28,0.38 -0.62,0.73 -0.85,1.02 -0.08,0.1 -0.2,0.24 -0.29,0.33 -0.19,0.17 -0.54,0.46 -0.54,0.68 0,0.16 0.11,0.32 0.24,0.37 0.21,0.11 5.23,0.05 5.84,0.05l3.96 0c1.29,0.01 -0.3,-0.33 2.54,-1.26 0.76,-0.25 1.33,-0.3 2.12,-0.46 1.89,-0.37 2.39,-1.4 1.39,-2.66l0 0z"/>
    <path class="fil4 str1" d="M58.46 40.17l0.2 -0.06c0.27,-0.1 0.32,-0.35 0.25,-0.57 0.14,-0.14 0.5,-0.36 0.48,-0.65 -0.02,-0.19 -0.24,-0.65 -0.31,-0.87 0.12,-0.09 0.29,-0.12 0.43,-0.18 0.41,-0.2 0.86,-0.54 0.76,-1.07 -0.09,-0.44 -0.57,-1.26 -0.79,-1.65 -0.32,-0.53 -0.6,-1.02 -0.94,-1.53 -0.3,-0.47 -0.19,-0.35 -0.13,-0.93 0.22,-1.86 -0.04,-2.66 -1.12,-4.14 -0.71,-0.97 -2,-1.94 -3.21,-2.44 -2.72,-1.17 -5.97,-1.06 -8.57,0.15 -1.87,0.87 -4.02,3.07 -4.04,5.83 0,1.26 0.57,2.75 1.13,3.69l1.86 3.05c0.89,1.43 0.69,1.78 -0.41,3.3 -0.28,0.38 -0.62,0.73 -0.85,1.02 -0.08,0.1 -0.2,0.24 -0.29,0.33 -0.19,0.17 -0.54,0.46 -0.54,0.68 0,0.16 0.11,0.32 0.24,0.37 0.21,0.11 5.23,0.05 5.84,0.05l3.96 0c1.29,0.01 -0.3,-0.33 2.54,-1.26 0.76,-0.25 1.33,-0.3 2.13,-0.46 1.89,-0.37 2.38,-1.4 1.38,-2.66l0 0z"/>
   </g>
  </g>
 </g>
</svg>
