<?xml version="1.0" encoding="UTF-8"?>
<!DOCTYPE svg PUBLIC "-//W3C//DTD SVG 1.1//EN" "http://www.w3.org/Graphics/SVG/1.1/DTD/svg11.dtd">
<!-- Creator: CorelDRAW 2021 (64 Bit) -->
<svg xmlns="http://www.w3.org/2000/svg" xml:space="preserve" width="530px" height="530px" version="1.1" style="shape-rendering:geometricPrecision; text-rendering:geometricPrecision; image-rendering:optimizeQuality; fill-rule:evenodd; clip-rule:evenodd"
viewBox="0 0 67.96 67.96"
 xmlns:xlink="http://www.w3.org/1999/xlink"
 xmlns:xodm="http://www.corel.com/coreldraw/odm/2003">
 <defs>
  <style type="text/css">
   <![CDATA[
    .str2 {stroke:black;stroke-width:1.28;stroke-miterlimit:22.9256}
    .str0 {stroke:#B8B4B6;stroke-width:3.85;stroke-miterlimit:22.9256}
    .str1 {stroke:black;stroke-width:2.05;stroke-miterlimit:22.9256}
    .str4 {stroke:whitesmoke;stroke-width:0.12;stroke-miterlimit:22.9256}
    .str3 {stroke:#FF0505;stroke-width:0.12;stroke-miterlimit:22.9256}
    .str5 {stroke:yellow;stroke-width:0.12;stroke-miterlimit:22.9256}
    .fil2 {fill:none}
    .fil3 {fill:#003399}
    .fil4 {fill:#33CC66}
    .fil1 {fill:#E6E6E6}
    .fil0 {fill:white}
   ]]>
  </style>
 </defs>
 <g id="Camada_x0020_1">
  <metadata id="CorelCorpID_0Corel-Layer"/>
  <path class="fil0 str0" d="M4.8 1.92l58.42 0c1.56,0 2.81,1.44 2.81,3.21l0 57.69c0,1.78 -1.25,3.21 -2.81,3.21l-58.42 0c-1.55,0 -2.81,-1.43 -2.81,-3.21 0,-6.93 -0.1,-55.87 -0.06,-58.38 0.03,-1.39 1.71,-2.52 2.87,-2.52z"/>
  <g id="_2787494259168">
   <polygon class="fil1" points="17.94,34.23 9.61,46.35 12.34,48.01 20.37,35.61 "/>
   <ellipse class="fil2 str1" cx="33.56" cy="12.56" rx="7.09" ry="6.47"/>
   <ellipse class="fil2 str1" cx="25.77" cy="17.66" rx="7.09" ry="6.47"/>
   <ellipse class="fil2 str1" cx="41.2" cy="17.71" rx="7.09" ry="6.47"/>
   <ellipse class="fil2 str1" cx="38.2" cy="26.06" rx="7.09" ry="6.47"/>
   <ellipse class="fil2 str1" cx="28.64" cy="25.99" rx="7.09" ry="6.47"/>
   <rect class="fil2 str2" transform="matrix(0.60776 0.451517 -0.535132 0.600076 18.9566 45.482)" width="5.19" height="9.44" rx="2.56" ry="2.56"/>
   <rect class="fil2 str2" transform="matrix(0.766251 0.569263 -0.674683 0.756563 23.3728 46.3919)" width="5.19" height="9.44" rx="2.56" ry="2.56"/>
   <rect class="fil2 str2" transform="matrix(0.60776 0.451517 -0.535132 0.600076 26.8385 50.0486)" width="5.19" height="9.44" rx="2.56" ry="2.56"/>
   <rect class="fil2 str2" transform="matrix(0.564468 0.419354 -0.497014 0.557332 30.1512 52.2393)" width="5.19" height="9.44" rx="2.56" ry="2.56"/>
   <polygon class="fil3 str3" points="62.07,45.36 60.69,46.3 49.88,30.66 62.12,22.26 "/>
   <polygon class="fil1 str4" points="56.59,46.56 48.05,33.9 50.84,32.3 59.47,44.78 "/>
   <polygon class="fil4 str5" points="6.23,46.9 7.84,47.96 18.54,32.33 6.19,23.9 "/>
   <path class="fil2 str2" d="M62.06 22.54l-12.35 8.47 10.89 15.76 1.46 -1m-55.59 1.24l1.61 1.06 10.75 -15.7 -12.41 -8.52m6.76 23.33l3.03 1.76m4.58 -13.39l13.63 0.02m21.32 10.34l-4.63 3.06m-4.81 2.26l0.81 0.53c3.48,1.98 6.04,-1.26 3.46,-3.32l-12.06 -9c-1.73,0.54 -3.46,1.09 -5.18,1.64 -3.57,0.5 -6.13,-2.14 -3.59,-3.21l4.82 -2.3 0.94 -0.45c0.61,-0.29 1.18,-0.33 1.73,-0.15l6.82 1.73 4.43 -1.56m-9.66 22.25l1.64 1.06c2.92,1.31 5.17,-1.49 2.83,-3.64l-7.39 -4.87m-5.19 7.5l5.17 3.54c2.57,1.15 4.58,-1.18 3.28,-3.28 -0.06,-0.08 -0.18,-0.19 -0.34,-0.31 -0.34,-0.26 -5.02,-3.27 -5.22,-3.45m9.69 0.87l0.99 0.6c2.93,1.31 5.17,-1.5 2.83,-3.65l-9.11 -5.93m12.79 -13.25l-2.91 1.67 8.61 12.78 3.01 -1.86m-41.64 -11.26l-8.54 12.48 3.08 1.86 8.29 -12.68 -2.83 -1.66z"/>
  </g>
 </g>
</svg>
