<?xml version="1.0" encoding="UTF-8"?>
<!DOCTYPE svg PUBLIC "-//W3C//DTD SVG 1.1//EN" "http://www.w3.org/Graphics/SVG/1.1/DTD/svg11.dtd">
<!-- Creator: CorelDRAW 2021 (64 Bit) -->
<svg xmlns="http://www.w3.org/2000/svg" xml:space="preserve" width="550px" height="550px" version="1.1" style="shape-rendering:geometricPrecision; text-rendering:geometricPrecision; image-rendering:optimizeQuality; fill-rule:evenodd; clip-rule:evenodd"
viewBox="0 0 10.96 10.96"
 xmlns:xlink="http://www.w3.org/1999/xlink"
 xmlns:xodm="http://www.corel.com/coreldraw/odm/2003">
 <defs>
  <style type="text/css">
   <![CDATA[
    .str0 {stroke:#B8B4B6;stroke-miterlimit:22.9256}
    .str3 {stroke:black;stroke-width:0.04;stroke-miterlimit:22.9256}
    .str5 {stroke:#030303;stroke-width:0.04;stroke-miterlimit:22.9256}
    .str4 {stroke:black;stroke-width:0.32;stroke-miterlimit:22.9256}
    .str1 {stroke:black;stroke-width:0.02;stroke-miterlimit:22.9256}
    .str2 {stroke:#FF9933;stroke-width:0.02;stroke-miterlimit:22.9256}
    .str6 {stroke:#030303;stroke-width:0.32;stroke-linecap:round;stroke-miterlimit:22.9256}
    .fil4 {fill:none}
    .fil1 {fill:black}
    .fil2 {fill:aqua}
    .fil3 {fill:#FFFF99}
    .fil0 {fill:white}
   ]]>
  </style>
 </defs>
 <g id="Camada_x0020_1">
  <metadata id="CorelCorpID_0Corel-Layer"/>
  <path class="fil0 str0" d="M0.95 0.5l9.07 0c0.24,0 0.44,0.22 0.44,0.5l0 8.96c0,0.27 -0.2,0.5 -0.44,0.5l-9.07 0c-0.25,0 -0.44,-0.23 -0.44,-0.5 0,-1.08 -0.02,-8.68 -0.01,-9.07 0,-0.22 0.27,-0.39 0.45,-0.39z"/>
 </g>
 <g id="Camada_x0020_1_0">
  <metadata id="CorelCorpID_1Corel-Layer"/>
  <g id="_2069757453296">
   <g>
    <g>
     <path class="fil0" d="M5.35 2.83c0.07,0 0.13,-0.03 0.19,-0.05 0.02,-0.02 0.04,-0.03 0.06,-0.05 0.02,-0.01 0.06,-0.03 0.08,-0.04 0.02,0.04 0.07,0.05 0.09,0.07 -0.02,0.05 -0.12,0.11 -0.18,0.13 -0.17,0.07 -0.36,0.08 -0.54,0.02 -0.05,-0.02 -0.15,-0.09 -0.17,-0.13 0.01,-0.02 0.08,-0.07 0.11,-0.08 0.08,0.11 0.21,0.13 0.36,0.13zm0.31 -0.74c0.23,-0.03 0.26,0.22 0.07,0.25 -0.1,0.02 -0.17,-0.03 -0.19,-0.09 -0.02,-0.09 0.04,-0.14 0.12,-0.16zm-0.82 0c0.09,-0.01 0.17,0.03 0.19,0.1 0.01,0.08 -0.05,0.14 -0.13,0.15 -0.2,0.04 -0.28,-0.21 -0.06,-0.25zm1.5 0.11c0.03,-0.12 0.07,-0.25 -0.01,-0.34 -0.03,-0.03 -0.1,-0.08 -0.14,-0.1 -0.11,-0.07 -0.14,-0.04 -0.24,0.03 -0.17,0.11 -0.41,0.2 -0.64,0.21 -0.32,0 -0.53,-0.15 -0.7,-0.26 -0.07,-0.03 -0.13,-0.02 -0.2,0.01 -0.07,0.02 -0.1,0.04 -0.12,0.11 -0.01,0.04 -0.04,0.13 -0.04,0.17 0.01,0.07 0.04,0.12 0.03,0.19l-0.17 0.02c-0.05,0.07 0.02,0.19 0.04,0.27 0.02,0.04 0.03,0.08 0.07,0.1 0.04,0.02 0.12,0.02 0.17,0.02 0.04,0.1 0.07,0.16 0.13,0.23 0.05,0.05 0.14,0.15 0.19,0.18 0.09,0.06 0.15,0.1 0.26,0.13 0.11,0.03 0.24,0.03 0.36,0.04 0.27,0 0.43,-0.08 0.6,-0.18 0.06,-0.03 0.16,-0.12 0.2,-0.17 0.09,-0.12 0.07,-0.12 0.13,-0.23 0.09,0 0.16,0.02 0.2,-0.04 0.04,-0.05 0.03,-0.11 0.05,-0.17 0.02,-0.04 0.07,-0.13 0.02,-0.16 -0.05,-0.03 -0.15,-0.03 -0.19,-0.06z"/>
     <path class="fil0" d="M7.26 3.07c-0.31,0.06 -0.2,0.42 0.09,0.37 0.11,-0.02 0.21,-0.1 0.18,-0.22 -0.02,-0.09 -0.13,-0.17 -0.27,-0.15z"/>
     <path class="fil1" d="M5.35 2.83c-0.15,0 -0.28,-0.02 -0.36,-0.13 -0.03,0.01 -0.1,0.06 -0.11,0.08 0.02,0.04 0.12,0.11 0.17,0.13 0.18,0.06 0.37,0.05 0.54,-0.02 0.06,-0.02 0.16,-0.08 0.18,-0.13 -0.02,-0.02 -0.07,-0.03 -0.09,-0.07 -0.02,0.01 -0.06,0.03 -0.08,0.04 -0.02,0.02 -0.04,0.03 -0.06,0.05 -0.06,0.02 -0.12,0.05 -0.19,0.05z"/>
     <polygon class="fil1" points="3.76,4.97 3.9,4.97 3.9,4.47 3.76,4.47 "/>
     <polygon class="fil1" points="6.84,4.96 6.96,4.96 6.98,4.96 6.98,4.49 6.96,4.49 6.84,4.49 "/>
     <path class="fil1" d="M5.66 2.09c-0.08,0.02 -0.14,0.07 -0.12,0.16 0.02,0.06 0.09,0.11 0.19,0.09 0.19,-0.03 0.16,-0.28 -0.07,-0.25z"/>
     <path class="fil1" d="M4.84 2.09c-0.22,0.04 -0.14,0.29 0.06,0.25 0.08,-0.01 0.14,-0.07 0.13,-0.15 -0.02,-0.07 -0.1,-0.11 -0.19,-0.1z"/>
     <path class="fil1 str1" d="M6.34 2.2c0.04,0.03 0.14,0.03 0.19,0.06 0.05,0.03 0,0.12 -0.02,0.16 -0.02,0.06 -0.01,0.12 -0.05,0.17 -0.04,0.06 -0.11,0.04 -0.2,0.04 -0.06,0.11 -0.04,0.11 -0.13,0.23 -0.04,0.05 -0.14,0.14 -0.2,0.17 -0.17,0.1 -0.33,0.18 -0.6,0.18 -0.12,-0.01 -0.25,-0.01 -0.36,-0.04 -0.11,-0.03 -0.17,-0.07 -0.26,-0.13 -0.05,-0.03 -0.14,-0.13 -0.19,-0.18 -0.06,-0.07 -0.09,-0.13 -0.13,-0.23 -0.05,0 -0.13,0 -0.17,-0.02 -0.04,-0.02 -0.05,-0.06 -0.07,-0.1 -0.02,-0.08 -0.09,-0.2 -0.04,-0.27l0.17 -0.02c0.01,-0.07 -0.02,-0.12 -0.03,-0.19 0,-0.04 0.03,-0.13 0.04,-0.17 0.02,-0.07 0.05,-0.09 0.12,-0.11 0.07,-0.03 0.13,-0.04 0.2,-0.01 0.17,0.11 0.38,0.26 0.7,0.26 0.23,-0.01 0.47,-0.1 0.64,-0.21 0.1,-0.07 0.13,-0.1 0.24,-0.03 0.04,0.02 0.11,0.07 0.14,0.1 0.08,0.09 0.04,0.22 0.01,0.34zm-1.52 -1.32c-0.21,0.08 -0.4,0.23 -0.51,0.36 -0.09,0.1 -0.17,0.19 -0.2,0.37 -0.02,0.08 -0.02,0.17 -0.02,0.25 0,0.1 0.03,0.17 0.03,0.25 -0.09,0.01 -0.13,0.04 -0.15,0.11 -0.03,0.07 -0.02,0.13 0,0.2 0.11,0.42 0.27,0.25 0.36,0.39 0.04,0.07 0.03,0.08 0.1,0.15l0.13 0.12c0.04,0.04 0.08,0.08 0.15,0.1 0,0.05 0.01,0.26 0,0.3 -0.01,0.04 -0.03,0.04 -0.07,0.05 -0.2,0.02 -0.61,0.08 -0.83,0.12 -0.14,0.02 -0.26,0.04 -0.38,0.08 -0.06,0.02 -0.1,0.04 -0.16,0.07 -0.14,0.09 -0.25,0.22 -0.29,0.36 -0.03,0.1 -0.02,0.3 -0.02,0.4 0,0.14 0,0.27 0,0.41 0.1,0 0.14,0.01 0.15,-0.04l0 -0.49c0,-0.19 0,-0.38 0.19,-0.5 0.09,-0.06 0.14,-0.08 0.25,-0.12 0.21,-0.06 0.45,-0.08 0.66,-0.11 0.11,-0.02 0.23,-0.04 0.35,-0.04 0.01,0.1 0.02,0.15 0.08,0.23 0.09,0.13 0.23,0.22 0.39,0.27 0.08,0.03 0.21,0.06 0.3,0.05 0.35,-0.01 0.78,-0.24 0.79,-0.55l0.85 0.12c0.3,0.03 0.57,0.2 0.59,0.46 0,0.23 0.01,0.47 0.02,0.71l0.14 0.01 0 -0.72c-0.06,-0.29 -0.24,-0.52 -0.78,-0.59 -0.29,-0.04 -0.57,-0.09 -0.86,-0.13 -0.09,-0.01 -0.13,-0.02 -0.12,-0.11 0.01,-0.07 0.01,-0.18 0.01,-0.26 0.06,-0.04 0.11,-0.07 0.16,-0.11 0.06,-0.05 0.2,-0.19 0.22,-0.29 0.26,-0.01 0.26,-0.16 0.3,-0.29 0.01,-0.04 0.03,-0.06 0.04,-0.1 0.01,-0.04 0.01,-0.08 -0.01,-0.12 -0.02,-0.07 -0.08,-0.1 -0.16,-0.13 0,-0.25 0.05,-0.37 -0.06,-0.61 -0.07,-0.18 -0.12,-0.26 -0.26,-0.38 -0.06,-0.05 -0.06,-0.04 -0.11,-0.08 -0.05,-0.04 -0.13,-0.08 -0.18,-0.11 -0.22,-0.11 -0.41,-0.14 -0.67,-0.13 -0.1,0 -0.26,0.02 -0.42,0.07zm-0.38 0.43c0.12,-0.11 0.24,-0.23 0.49,-0.33 0.09,-0.03 0.13,-0.04 0.25,-0.05 0.17,-0.01 0.37,0.01 0.53,0.06 0.13,0.04 0.2,0.09 0.28,0.15 0.11,0.08 0.13,0.09 0.22,0.2 0.05,0.06 0.18,0.28 0.16,0.38 -0.05,-0.03 -0.16,-0.09 -0.23,-0.12 -0.06,-0.02 -0.1,-0.01 -0.15,0.01 -0.04,0.03 -0.07,0.05 -0.11,0.07 -0.37,0.23 -0.69,0.28 -1.1,0.02 -0.03,-0.02 -0.07,-0.04 -0.11,-0.07 -0.04,-0.02 -0.07,-0.04 -0.14,-0.03 -0.16,0.01 -0.22,0.07 -0.29,0.08 0.01,-0.17 0.15,-0.31 0.2,-0.37zm0.88 2.79c0.03,0 0.06,0 0.08,-0.01 0.03,0 0.07,-0.01 0.09,-0.01 0.26,-0.03 0.49,-0.23 0.49,-0.44 -0.11,-0.03 -0.16,-0.08 -0.16,-0.17l0.01 -0.25 0 0c-0.01,0.01 -0.03,0.02 -0.04,0.02 -0.13,0.05 -0.31,0.09 -0.47,0.1 -0.13,0 -0.25,-0.01 -0.37,-0.05 -0.04,-0.01 -0.07,-0.03 -0.1,-0.04 0,0.09 0.01,0.18 0,0.27 -0.01,0.07 -0.08,0.1 -0.15,0.12 0,0.24 0.26,0.42 0.48,0.44 0.07,0.01 0.11,0.02 0.14,0.02z"/>
    </g>
    <path class="fil2 str2" d="M3.11 4.31l0 0.66 0.65 0 0 -0.5 0.14 0 0 0.5 2.94 -0.01 0 -0.48 0.14 0 0 0.48 0.59 0 -0.02 -0.72c-0.03,-0.24 -0.22,-0.38 -0.53,-0.45l-0.9 -0.12c-0.06,0.32 -0.34,0.5 -0.79,0.55 -0.43,-0.02 -0.69,-0.19 -0.78,-0.55l-0.89 0.12c-0.36,0.08 -0.54,0.25 -0.55,0.52z"/>
   </g>
   <g>
    <rect class="fil3 str3" x="1.8" y="5.31" width="7.31" height="4.36"/>
    <g>
     <rect class="fil4 str4" x="3.62" y="5.57" width="3.67" height="2.76" rx="0.05" ry="0.04"/>
     <rect class="fil1 str3" x="3.01" y="7.11" width="1.47" height="2.39" rx="0.3" ry="0.23"/>
     <rect class="fil1 str3" x="6.46" y="7.1" width="1.47" height="2.41" rx="0.3" ry="0.24"/>
     <rect class="fil1 str5" x="4.39" y="7.85" width="2.14" height="0.38" rx="0.09" ry="0.08"/>
     <rect class="fil1 str5" x="4.19" y="8.89" width="2.62" height="0.62"/>
     <line class="fil4 str6" x1="4.34" y1="5.95" x2="6.57" y2= "5.95" />
     <line class="fil4 str6" x1="4.34" y1="6.41" x2="6.57" y2= "6.41" />
     <line class="fil4 str6" x1="4.34" y1="6.87" x2="6.57" y2= "6.87" />
    </g>
   </g>
  </g>
 </g>
</svg>
