<?xml version="1.0" encoding="UTF-8"?>
<!DOCTYPE svg PUBLIC "-//W3C//DTD SVG 1.1//EN" "http://www.w3.org/Graphics/SVG/1.1/DTD/svg11.dtd">
<!-- Creator: CorelDRAW 2021 (64 Bit) -->
<svg xmlns="http://www.w3.org/2000/svg" xml:space="preserve" width="530px" height="530px" version="1.1" style="shape-rendering:geometricPrecision; text-rendering:geometricPrecision; image-rendering:optimizeQuality; fill-rule:evenodd; clip-rule:evenodd"
viewBox="0 0 68.31 68.31"
 xmlns:xlink="http://www.w3.org/1999/xlink"
 xmlns:xodm="http://www.corel.com/coreldraw/odm/2003">
 <defs>
  <style type="text/css">
   <![CDATA[
    .str0 {stroke:#B8B4B6;stroke-width:3.87;stroke-miterlimit:22.9256}
    .fil0 {fill:white}
    .fil2 {fill:black;fill-rule:nonzero}
    .fil1 {fill:#8F8F8F;fill-rule:nonzero}
   ]]>
  </style>
 </defs>
 <g id="Camada_x0020_1">
  <metadata id="CorelCorpID_0Corel-Layer"/>
  <g id="_2789542792768">
   <path class="fil0 str0" d="M4.83 1.93l58.72 0c1.56,0 2.82,1.45 2.82,3.23l0 57.99c0,1.78 -1.26,3.22 -2.82,3.22l-58.72 0c-1.56,0 -2.83,-1.44 -2.83,-3.22 0,-6.97 -0.1,-56.16 -0.06,-58.69 0.03,-1.39 1.72,-2.53 2.89,-2.53z"/>
   <g>
    <polygon class="fil1" points="8.5,46.05 8.5,25.88 12.58,25.88 12.58,46.05 "/>
    <polygon id="_1" class="fil1" points="16.4,46.05 16.4,25.88 22.51,25.88 26.12,39.64 29.69,25.88 35.81,25.88 35.81,46.05 32.04,46.05 32.03,30.17 28.06,46.05 24.14,46.05 20.19,30.17 20.17,46.05 "/>
    <path id="_2" class="fil1" d="M49.26 38.64l0 -3.41 8.74 0 0 8.05c-0.84,0.83 -2.08,1.56 -3.69,2.19 -1.62,0.63 -3.25,0.94 -4.91,0.94 -2.11,0 -3.94,-0.44 -5.51,-1.33 -1.56,-0.88 -2.73,-2.15 -3.52,-3.8 -0.79,-1.65 -1.18,-3.45 -1.18,-5.39 0,-2.1 0.44,-3.97 1.31,-5.6 0.89,-1.64 2.17,-2.89 3.86,-3.77 1.3,-0.67 2.9,-1 4.82,-1 2.5,0 4.46,0.52 5.86,1.58 1.4,1.05 2.31,2.5 2.71,4.36l-4.05 0.76c-0.28,-0.99 -0.81,-1.77 -1.6,-2.35 -0.78,-0.57 -1.75,-0.86 -2.92,-0.86 -1.78,0 -3.19,0.56 -4.23,1.69 -1.05,1.14 -1.57,2.81 -1.57,5.03 0,2.4 0.53,4.2 1.59,5.39 1.06,1.2 2.45,1.8 4.17,1.8 0.85,0 1.7,-0.17 2.55,-0.5 0.86,-0.33 1.59,-0.74 2.21,-1.22l0 -2.56 -4.64 0z"/>
    <polygon class="fil2" points="10.32,44.23 10.32,24.07 14.4,24.07 14.4,44.23 "/>
    <polygon id="_1_0" class="fil2" points="18.22,44.23 18.22,24.07 24.33,24.07 27.94,37.82 31.51,24.07 37.63,24.07 37.63,44.23 33.86,44.23 33.85,28.36 29.87,44.23 25.95,44.23 22,28.36 21.99,44.23 "/>
    <path id="_2_1" class="fil2" d="M51.07 36.83l0 -3.41 8.75 0 0 8.05c-0.85,0.83 -2.08,1.55 -3.7,2.19 -1.61,0.63 -3.25,0.94 -4.91,0.94 -2.1,0 -3.93,-0.44 -5.5,-1.33 -1.56,-0.88 -2.74,-2.16 -3.52,-3.8 -0.79,-1.65 -1.19,-3.45 -1.19,-5.39 0,-2.1 0.44,-3.97 1.32,-5.61 0.88,-1.63 2.17,-2.89 3.86,-3.76 1.29,-0.67 2.9,-1 4.82,-1 2.5,0 4.45,0.52 5.86,1.57 1.4,1.06 2.31,2.51 2.71,4.37l-4.05 0.76c-0.28,-0.99 -0.82,-1.78 -1.6,-2.35 -0.78,-0.58 -1.75,-0.86 -2.93,-0.86 -1.77,0 -3.18,0.56 -4.22,1.69 -1.05,1.13 -1.57,2.81 -1.57,5.03 0,2.4 0.52,4.19 1.58,5.39 1.07,1.2 2.46,1.8 4.18,1.8 0.85,0 1.7,-0.17 2.55,-0.5 0.86,-0.34 1.59,-0.74 2.21,-1.22l0 -2.56 -4.65 0z"/>
   </g>
  </g>
 </g>
</svg>
