<?xml version="1.0" encoding="UTF-8"?>
<!DOCTYPE svg PUBLIC "-//W3C//DTD SVG 1.1//EN" "http://www.w3.org/Graphics/SVG/1.1/DTD/svg11.dtd">
<!-- Creator: CorelDRAW 2021 (64 Bit) -->
<svg xmlns="http://www.w3.org/2000/svg" xml:space="preserve" width="730px" height="730px" version="1.1" style="shape-rendering:geometricPrecision; text-rendering:geometricPrecision; image-rendering:optimizeQuality; fill-rule:evenodd; clip-rule:evenodd"
viewBox="0 0 694.3 694.3"
 xmlns:xlink="http://www.w3.org/1999/xlink"
 xmlns:xodm="http://www.corel.com/coreldraw/odm/2003">
 <defs>
  <style type="text/css">
   <![CDATA[
    .str2 {stroke:red;stroke-width:19.02;stroke-miterlimit:22.9256}
    .str1 {stroke:black;stroke-width:28.53;stroke-miterlimit:22.9256}
    .str0 {stroke:#C4C4C4;stroke-width:28.53;stroke-miterlimit:22.9256}
    .fil0 {fill:none}
    .fil1 {fill:white}
    .fil2 {fill:black;fill-rule:nonzero}
   ]]>
  </style>
 </defs>
 <g id="Camada_x0020_1">
  <metadata id="CorelCorpID_0Corel-Layer"/>
  <circle class="fil0 str0" cx="347.15" cy="347.15" r="332.89"/>
  <circle class="fil0 str1" cx="347.15" cy="347.15" r="304.12"/>
  <circle class="fil1 str2" cx="347.15" cy="347.15" r="287.06"/>
  <path class="fil2" d="M170.42 329.42l0 -39.56 4 0c1.31,9.42 5.61,17.27 12.92,23.49 7.32,6.22 15.7,9.34 25.2,9.34 6.11,0 11.05,-1.42 14.82,-4.27 3.79,-2.83 5.68,-6.49 5.68,-10.97 0,-6.89 -8.91,-14.2 -26.75,-21.97 -0.15,-0.05 -0.23,-0.08 -0.23,-0.08 -1.1,-0.46 -2.73,-1.18 -4.94,-2.11 -12.31,-5.21 -20.53,-10.62 -24.67,-16.2 -1.81,-2.49 -3.2,-5.18 -4.14,-8.01 -0.93,-2.86 -1.41,-5.82 -1.41,-8.97 0,-10.01 3.79,-18.26 11.37,-24.8 7.61,-6.51 17.33,-9.77 29.15,-9.77 6.41,0 13.11,1.28 20.1,3.85 6.99,2.56 10.81,3.81 11.43,3.81 1.78,0 3.01,-0.53 3.76,-1.6 0.72,-1.07 1.2,-3.04 1.41,-5.9l4.3 0 0 34.92 -3.68 0c-1.52,-8.3 -5.47,-15.06 -11.93,-20.24 -6.44,-5.2 -13.97,-7.79 -22.61,-7.79 -5.42,0 -9.77,1.23 -13.06,3.71 -3.28,2.48 -4.94,5.74 -4.94,9.74 0,5.85 6.92,11.64 20.72,17.38 0.75,0.32 1.31,0.56 1.73,0.72 9.91,4.16 16.79,7.37 20.75,9.58 3.92,2.22 6.88,4.41 8.86,6.6 3.01,3.28 5.28,6.86 6.83,10.75 1.52,3.87 2.3,8.04 2.3,12.47 0,10.62 -3.87,19.3 -11.62,26 -7.74,6.7 -17.8,10.04 -30.21,10.04 -7.05,0 -14.36,-1.23 -21.94,-3.69 -7.58,-2.45 -11.7,-3.68 -12.31,-3.68 -1.81,0 -3.31,0.64 -4.48,1.89 -1.18,1.26 -1.87,3.02 -2.09,5.32l-4.32 0z"/>
  <path id="_1" class="fil2" d="M266.01 326.85l0 -4c5.07,-0.16 8.65,-1.42 10.76,-3.79 2.1,-2.38 3.17,-6.33 3.17,-11.91l0 -69.24c0,-5.55 -1.07,-9.5 -3.17,-11.82 -2.11,-2.35 -5.69,-3.61 -10.76,-3.82l0 -4 95.29 0 0 29.62 -3.84 0c-1.2,-8.4 -3.87,-14.3 -7.98,-17.67 -4.11,-3.39 -10.89,-5.07 -20.32,-5.07l-15.42 0 0 42.44 1.78 0c5.96,0 10.39,-1.73 13.32,-5.17 2.91,-3.45 4.78,-9.19 5.56,-17.25l4 0 0 52.21 -4 0c-0.78,-8.16 -2.67,-13.98 -5.64,-17.43 -2.96,-3.44 -7.52,-5.15 -13.69,-5.15l-1.33 0 0 33.61c0,5.26 0.8,8.46 2.42,9.63 1.61,1.18 5.66,1.77 12.12,1.77 10.12,0 17.86,-2.11 23.25,-6.33 5.4,-4.24 9.35,-11.26 11.86,-21.06l4.48 0 -6.25 34.43 -95.61 0z"/>
  <path id="_2" class="fil2" d="M525.47 218.27l-0.08 4c-5.02,0.16 -8.6,1.39 -10.71,3.71 -2.11,2.32 -3.15,6.3 -3.15,11.93l0 69.22c0,5.58 1.07,9.55 3.21,11.93 2.1,2.37 5.65,3.63 10.65,3.79l0.08 4 -61.5 0 0 -4c5.17,-0.27 8.78,-1.55 10.83,-3.87 2.06,-2.32 3.1,-6.27 3.1,-11.85l0 -68.9 -37.48 88.62 -4.75 0 -38.33 -91.61 0 71.89c0,5.58 1.04,9.53 3.12,11.85 2.08,2.32 5.69,3.6 10.81,3.87l0 4 -35.23 0 0 -4c5.07,-0.16 8.65,-1.42 10.76,-3.79 2.1,-2.38 3.17,-6.35 3.17,-11.93l0 -69.22c0,-5.58 -1.07,-9.55 -3.17,-11.88 -2.11,-2.35 -5.69,-3.63 -10.76,-3.84l0 -3.92 47.27 0 27.2 65.31 28.08 -65.31 46.88 0z"/>
  <path class="fil2" d="M227.13 466.55c0,5.56 1.04,9.51 3.12,11.83 2.09,2.32 5.69,3.6 10.82,3.87l0 4 -61.67 0 0 -4c5.13,-0.21 8.73,-1.5 10.82,-3.82 2.08,-2.35 3.12,-6.32 3.12,-11.88l0 -69.19c0,-5.55 -1.07,-9.53 -3.18,-11.87 -2.11,-2.33 -5.68,-3.61 -10.76,-3.82l0 -4.01 61.67 0 0 4.09c-5.18,0.27 -8.79,1.55 -10.84,3.82 -2.06,2.29 -3.1,6.24 -3.1,11.79l0 69.19z"/>
  <path id="_1_0" class="fil2" d="M396.39 377.66l-0.08 4.01c-5.01,0.16 -8.59,1.39 -10.7,3.71 -2.11,2.32 -3.15,6.3 -3.15,11.93l0 69.22c0,5.58 1.07,9.55 3.2,11.93 2.11,2.37 5.66,3.63 10.65,3.79l0.08 4 -61.5 0 0 -4c5.18,-0.27 8.79,-1.55 10.84,-3.87 2.06,-2.32 3.1,-6.27 3.1,-11.85l0 -68.9 -37.48 88.62 -4.75 0 -38.33 -91.61 0 71.89c0,5.58 1.04,9.53 3.12,11.85 2.08,2.32 5.69,3.6 10.81,3.87l0 4 -35.23 0 0 -4c5.07,-0.16 8.64,-1.42 10.75,-3.79 2.11,-2.38 3.18,-6.35 3.18,-11.93l0 -69.22c0,-5.58 -1.07,-9.56 -3.18,-11.88 -2.11,-2.35 -5.68,-3.63 -10.75,-3.84l0 -3.93 47.27 0 27.2 65.32 28.08 -65.32 46.87 0z"/>
  <path id="_2_1" class="fil2" d="M476.61 478.86l0 -25.63c0,-5.2 -0.94,-8.83 -2.83,-10.83 -1.9,-2.01 -5.31,-3.18 -10.31,-3.55l-0.07 -4.17 55.17 0 0 4.17c-4.06,0.48 -6.94,1.81 -8.65,4.03 -1.71,2.21 -2.56,5.81 -2.56,10.81l0 23.99c-8.46,3.77 -16.28,6.57 -23.52,8.39 -7.23,1.84 -14.01,2.75 -20.39,2.75 -17.99,0 -32.3,-5.26 -42.95,-15.75 -10.65,-10.52 -15.96,-24.67 -15.96,-42.45 0,-9.53 1.76,-18.09 5.28,-25.67 3.53,-7.61 8.65,-13.83 15.38,-18.66 5.31,-3.77 11.05,-6.6 17.19,-8.49 6.16,-1.9 12.7,-2.86 19.64,-2.86 3.69,0 7.34,0.32 10.97,0.99 3.63,0.64 7.61,1.76 11.94,3.34 0.93,0.32 2.27,0.85 3.97,1.62 3.15,1.37 5.45,2.06 6.89,2.06 1.74,0 3.1,-0.59 4.16,-1.76 1.05,-1.18 1.63,-2.78 1.79,-4.81l3.53 0 0 34.76 -3.69 0c-1.87,-8.68 -5.63,-15.54 -11.26,-20.58 -5.61,-5.07 -12.28,-7.61 -19.99,-7.61 -9.64,0 -17.12,4.3 -22.43,12.89 -5.31,8.6 -7.98,20.74 -7.98,36.44 0,16.31 2.16,28.56 6.49,36.73 4.32,8.19 10.81,12.28 19.48,12.28 1.77,-0.06 3.53,-0.27 5.32,-0.67 1.76,-0.4 3.57,-0.99 5.39,-1.76z"/>
 </g>
</svg>
