<?xml version="1.0" encoding="UTF-8"?>
<!DOCTYPE svg PUBLIC "-//W3C//DTD SVG 1.1//EN" "http://www.w3.org/Graphics/SVG/1.1/DTD/svg11.dtd">
<!-- Creator: CorelDRAW 2021 (64 Bit) -->
<svg xmlns="http://www.w3.org/2000/svg" xml:space="preserve" width="725px" height="375px" version="1.1" style="shape-rendering:geometricPrecision; text-rendering:geometricPrecision; image-rendering:optimizeQuality; fill-rule:evenodd; clip-rule:evenodd"
viewBox="0 0 10.01 5.18"
 xmlns:xlink="http://www.w3.org/1999/xlink"
 xmlns:xodm="http://www.corel.com/coreldraw/odm/2003">
 <defs>
  <style type="text/css">
   <![CDATA[
    .str18 {stroke:#FF0505;stroke-width:0.14;stroke-miterlimit:22.9256}
    .str6 {stroke:#F5A980;stroke-width:0.06;stroke-miterlimit:22.9256}
    .str5 {stroke:black;stroke-width:0.01;stroke-miterlimit:22.9256}
    .str13 {stroke:#595656;stroke-width:0.01;stroke-miterlimit:22.9256}
    .str11 {stroke:#DBDBDB;stroke-width:0.01;stroke-miterlimit:22.9256}
    .str3 {stroke:#F5A980;stroke-width:0.01;stroke-miterlimit:22.9256}
    .str2 {stroke:#030303;stroke-width:0.11;stroke-miterlimit:22.9256}
    .str9 {stroke:#F5A980;stroke-width:0.03;stroke-miterlimit:22.9256}
    .str17 {stroke:#FF0505;stroke-width:0.03;stroke-miterlimit:22.9256}
    .str0 {stroke:#B8B4B6;stroke-width:0.35;stroke-miterlimit:22.9256}
    .str10 {stroke:#F5A980;stroke-width:0.04;stroke-miterlimit:22.9256}
    .str16 {stroke:#FF0505;stroke-width:0.04;stroke-miterlimit:22.9256}
    .str1 {stroke:black;stroke-width:0.01;stroke-miterlimit:22.9256}
    .str7 {stroke:#DBDBDB;stroke-width:0.01;stroke-miterlimit:22.9256}
    .str12 {stroke:#F5A980;stroke-width:0.01;stroke-miterlimit:22.9256}
    .str14 {stroke:#FF0505;stroke-width:0.01;stroke-miterlimit:22.9256}
    .str8 {stroke:#E1E1E1;stroke-width:0.01;stroke-miterlimit:22.9256}
    .str4 {stroke:#454545;stroke-width:0.04;stroke-linecap:round;stroke-miterlimit:22.9256}
    .str15 {stroke:#FF0505;stroke-width:0.06;stroke-miterlimit:22.9256;stroke-dasharray:0.060000 0.060000}
    .fil6 {fill:none}
    .fil3 {fill:black}
    .fil7 {fill:black}
    .fil0 {fill:aqua}
    .fil12 {fill:#336666}
    .fil4 {fill:#33CC66}
    .fil9 {fill:#666666}
    .fil13 {fill:#66FFCC}
    .fil8 {fill:#999999}
    .fil11 {fill:#CCCCCC}
    .fil10 {fill:#F5A980}
    .fil5 {fill:#F5B796}
    .fil2 {fill:white}
    .fil1 {fill:white}
   ]]>
  </style>
 </defs>
 <g id="Camada_x0020_1">
  <metadata id="CorelCorpID_0Corel-Layer"/>
  <g id="_2713847738608">
   <rect class="fil0" x="0.32" y="0.27" width="9.38" height="4.63"/>
   <rect class="fil1 str0" x="0.17" y="0.17" width="9.67" height="4.83" rx="0.45" ry="0.41"/>
   <g>
    <path class="fil2" d="M2.71 2.48c0.06,0 0.11,-0.02 0.15,-0.05 0.02,-0.01 0.04,-0.03 0.06,-0.04 0.01,-0.01 0.04,-0.04 0.06,-0.05 0.01,0.04 0.05,0.06 0.07,0.07 -0.01,0.05 -0.1,0.11 -0.14,0.13 -0.14,0.07 -0.3,0.08 -0.44,0.02 -0.04,-0.02 -0.13,-0.09 -0.14,-0.13 0.01,-0.02 0.06,-0.06 0.08,-0.07 0.07,0.1 0.18,0.12 0.3,0.12zm0.25 -0.72c0.19,-0.03 0.21,0.22 0.06,0.25 -0.08,0.01 -0.14,-0.04 -0.15,-0.1 -0.03,-0.08 0.02,-0.13 0.09,-0.15zm-0.67 0c0.08,-0.01 0.15,0.03 0.16,0.1 0.01,0.08 -0.04,0.13 -0.1,0.15 -0.17,0.03 -0.23,-0.21 -0.06,-0.25zm1.22 0.11c0.03,-0.11 0.06,-0.24 -0.01,-0.33 -0.02,-0.03 -0.07,-0.08 -0.1,-0.1 -0.1,-0.06 -0.12,-0.04 -0.2,0.03 -0.14,0.11 -0.34,0.2 -0.52,0.2 -0.26,0 -0.43,-0.14 -0.58,-0.25 -0.05,-0.03 -0.1,-0.01 -0.15,0.01 -0.06,0.02 -0.09,0.04 -0.1,0.1 -0.01,0.05 -0.04,0.14 -0.03,0.18 0,0.06 0.02,0.11 0.02,0.18l-0.14 0.02c-0.04,0.07 0.01,0.19 0.03,0.26 0.02,0.04 0.03,0.08 0.06,0.1 0.04,0.02 0.1,0.02 0.14,0.02 0.03,0.09 0.06,0.15 0.11,0.22 0.03,0.05 0.11,0.14 0.15,0.18 0.07,0.05 0.12,0.09 0.21,0.12 0.09,0.03 0.19,0.04 0.29,0.04 0.23,0 0.36,-0.07 0.49,-0.17 0.05,-0.04 0.13,-0.12 0.16,-0.17 0.08,-0.11 0.06,-0.12 0.11,-0.22 0.07,0 0.13,0.01 0.16,-0.04 0.04,-0.05 0.03,-0.11 0.04,-0.16 0.02,-0.05 0.06,-0.14 0.02,-0.17 -0.04,-0.02 -0.12,-0.02 -0.16,-0.05z"/>
    <path class="fil3" d="M2.71 2.48c-0.12,0 -0.23,-0.02 -0.3,-0.12 -0.02,0.01 -0.07,0.05 -0.08,0.07 0.01,0.04 0.1,0.11 0.14,0.13 0.14,0.06 0.3,0.05 0.44,-0.02 0.04,-0.02 0.13,-0.08 0.14,-0.13 -0.02,-0.01 -0.06,-0.03 -0.07,-0.07 -0.02,0.01 -0.05,0.04 -0.06,0.05 -0.02,0.01 -0.04,0.03 -0.06,0.04 -0.04,0.03 -0.09,0.05 -0.15,0.05z"/>
    <polygon class="fil3" points="1.42,4.56 1.53,4.56 1.53,4.08 1.42,4.08 "/>
    <polygon class="fil3" points="3.92,4.55 4.02,4.55 4.04,4.55 4.04,4.09 4.02,4.09 3.92,4.09 "/>
    <path class="fil3" d="M2.96 1.76c-0.07,0.02 -0.12,0.07 -0.09,0.15 0.01,0.06 0.07,0.11 0.15,0.1 0.15,-0.03 0.13,-0.28 -0.06,-0.25z"/>
    <path class="fil3" d="M2.29 1.76c-0.17,0.04 -0.11,0.28 0.06,0.25 0.06,-0.02 0.11,-0.07 0.1,-0.15 -0.01,-0.07 -0.08,-0.11 -0.16,-0.1z"/>
    <path class="fil3 str1" d="M3.51 1.87c0.04,0.03 0.12,0.03 0.16,0.05 0.04,0.03 0,0.12 -0.02,0.17 -0.01,0.05 0,0.11 -0.04,0.16 -0.03,0.05 -0.09,0.04 -0.16,0.04 -0.05,0.1 -0.03,0.11 -0.11,0.22 -0.03,0.05 -0.11,0.13 -0.16,0.17 -0.13,0.1 -0.26,0.17 -0.49,0.17 -0.1,0 -0.2,-0.01 -0.29,-0.04 -0.09,-0.03 -0.14,-0.07 -0.21,-0.12 -0.04,-0.04 -0.12,-0.13 -0.15,-0.18 -0.05,-0.07 -0.08,-0.13 -0.11,-0.22 -0.04,0 -0.1,0 -0.14,-0.02 -0.03,-0.02 -0.04,-0.06 -0.06,-0.1 -0.02,-0.07 -0.07,-0.19 -0.03,-0.26l0.14 -0.02c0,-0.07 -0.02,-0.12 -0.02,-0.18 -0.01,-0.04 0.02,-0.13 0.03,-0.18 0.01,-0.06 0.04,-0.08 0.1,-0.1 0.05,-0.02 0.1,-0.04 0.15,-0.01 0.15,0.11 0.32,0.25 0.58,0.25 0.18,0 0.38,-0.09 0.52,-0.2 0.08,-0.07 0.1,-0.09 0.2,-0.03 0.03,0.02 0.08,0.07 0.1,0.1 0.07,0.09 0.04,0.22 0.01,0.33zm-1.23 -1.28c-0.18,0.07 -0.33,0.22 -0.42,0.34 -0.07,0.1 -0.13,0.19 -0.16,0.36 -0.01,0.08 -0.01,0.17 -0.02,0.25 0,0.09 0.02,0.16 0.03,0.24 -0.07,0.01 -0.11,0.04 -0.12,0.1 -0.02,0.07 -0.02,0.14 0,0.2 0.08,0.42 0.22,0.24 0.29,0.38 0.03,0.07 0.02,0.08 0.08,0.15l0.1 0.12c0.04,0.03 0.07,0.07 0.13,0.1 0,0.04 0,0.25 0,0.29 -0.01,0.03 -0.02,0.04 -0.06,0.04 -0.16,0.02 -0.49,0.08 -0.67,0.12 -0.12,0.02 -0.21,0.04 -0.31,0.08 -0.05,0.02 -0.09,0.04 -0.13,0.07 -0.12,0.08 -0.21,0.21 -0.24,0.35 -0.03,0.09 -0.01,0.28 -0.01,0.39 0,0.13 -0.01,0.26 0,0.39 0.07,0 0.11,0.02 0.12,-0.03l0 -0.48c0,-0.19 0,-0.37 0.15,-0.49 0.07,-0.05 0.11,-0.08 0.21,-0.11 0.17,-0.06 0.36,-0.08 0.53,-0.11 0.09,-0.02 0.19,-0.04 0.28,-0.04 0.02,0.1 0.02,0.14 0.07,0.22 0.07,0.12 0.19,0.21 0.32,0.27 0.06,0.02 0.17,0.05 0.24,0.04 0.28,0 0.64,-0.23 0.65,-0.53l0.69 0.11c0.24,0.04 0.46,0.2 0.48,0.45 0,0.23 0.01,0.46 0.01,0.69l0.11 0.01 0 -0.7c-0.04,-0.28 -0.19,-0.5 -0.63,-0.57 -0.23,-0.04 -0.46,-0.08 -0.69,-0.12 -0.08,-0.02 -0.11,-0.02 -0.1,-0.11 0,-0.08 0,-0.18 0,-0.26 0.05,-0.03 0.09,-0.07 0.13,-0.11 0.05,-0.04 0.16,-0.18 0.18,-0.28 0.21,0 0.21,-0.16 0.24,-0.28 0.01,-0.03 0.03,-0.06 0.04,-0.09 0.01,-0.04 0.01,-0.08 -0.01,-0.12 -0.02,-0.07 -0.06,-0.1 -0.13,-0.13 0,-0.24 0.04,-0.36 -0.04,-0.6 -0.06,-0.16 -0.11,-0.24 -0.22,-0.36 -0.05,-0.05 -0.05,-0.05 -0.09,-0.08 -0.04,-0.04 -0.1,-0.08 -0.15,-0.11 -0.18,-0.1 -0.33,-0.13 -0.54,-0.12 -0.08,0 -0.21,0.01 -0.34,0.07zm-0.31 0.41c0.1,-0.11 0.19,-0.23 0.4,-0.32 0.07,-0.03 0.1,-0.04 0.2,-0.04 0.14,-0.02 0.3,0.01 0.44,0.06 0.1,0.03 0.15,0.08 0.22,0.14 0.09,0.07 0.11,0.08 0.18,0.2 0.04,0.05 0.14,0.27 0.13,0.36 -0.04,-0.03 -0.13,-0.09 -0.19,-0.11 -0.05,-0.02 -0.08,-0.02 -0.12,0.01 -0.03,0.02 -0.06,0.04 -0.09,0.07 -0.3,0.22 -0.56,0.27 -0.89,0.01 -0.03,-0.02 -0.06,-0.04 -0.09,-0.06 -0.04,-0.03 -0.06,-0.04 -0.12,-0.04 -0.13,0.01 -0.17,0.07 -0.23,0.09 0,-0.17 0.11,-0.31 0.16,-0.37zm0.71 2.72c0.03,-0.01 0.05,-0.01 0.07,-0.01 0.02,0 0.05,-0.01 0.07,-0.01 0.22,-0.04 0.4,-0.23 0.4,-0.43 -0.09,-0.03 -0.13,-0.08 -0.13,-0.16l0.01 -0.24 0 0c-0.01,0 -0.02,0.01 -0.04,0.01 -0.1,0.05 -0.24,0.09 -0.37,0.09 -0.11,0.01 -0.21,-0.01 -0.31,-0.04 -0.03,-0.01 -0.05,-0.03 -0.08,-0.04 0,0.09 0.01,0.18 0,0.26 0,0.07 -0.06,0.1 -0.12,0.12 0,0.23 0.21,0.4 0.39,0.43 0.06,0.01 0.09,0.01 0.11,0.02z"/>
   </g>
   <g>
    <path class="fil4 str2" d="M9.24 3.4l-2.1 0c-0.05,0.01 -0.09,-0.04 -0.09,-0.12 0.02,-0.21 0.03,-0.37 0.05,-0.59 0.01,-0.06 -0.02,-0.16 0.08,-0.19 0.29,-0.11 0.69,-0.2 0.7,-0.33l0.02 -0.13c0.2,0.53 0.43,0.47 0.55,-0.03 0,0.08 0.02,0.19 0.12,0.26l0.65 0.28c0.04,0.02 0.06,0.05 0.06,0.1 0.02,0.22 0.04,0.44 0.06,0.65 0.01,0.06 -0.04,0.1 -0.1,0.1z"/>
    <path class="fil5 str3" d="M7.88 2.19c0.07,0.13 0.17,0.21 0.31,0.25 0.13,-0.02 0.27,-0.21 0.27,-0.26l0 -0.17c-0.06,0.06 -0.13,0.13 -0.19,0.19 -0.03,0.04 -0.14,0.04 -0.19,0l-0.21 -0.17 0.01 0.16z"/>
    <path class="fil5 str3" d="M8.72 1.33c-0.02,0 -0.03,0.02 -0.04,0.04l0.01 -0.05 -0.15 -0.11 0 -0.23 -0.2 0 -0.16 0.05 -0.18 -0.05 -0.22 0 -0.01 0.19 -0.1 0.13c-0.01,-0.01 -0.02,-0.03 -0.03,-0.05 -0.01,-0.02 -0.03,-0.01 -0.04,-0.01 -0.02,0.01 -0.02,0.02 -0.03,0.05 -0.01,0.03 -0.01,0.06 0,0.09l0.02 0.12c0.01,0.02 0.02,0.03 0.04,0.03 0.01,0 0.02,-0.01 0.04,-0.03 0,0.09 0.02,0.17 0.05,0.24 0.03,0.1 0.08,0.2 0.15,0.28 0.07,0.06 0.14,0.12 0.21,0.18 0.06,0.05 0.12,0.06 0.19,0 0.09,-0.08 0.18,-0.17 0.27,-0.26 0.04,-0.06 0.07,-0.11 0.09,-0.17 0.01,-0.07 0.03,-0.14 0.04,-0.21 0.01,0.01 0.01,0.02 0.02,0.02 0.01,0 0.04,-0.01 0.05,-0.02 0.03,-0.06 0.04,-0.12 0.05,-0.18 0.01,-0.01 -0.01,-0.03 -0.02,-0.04 -0.02,-0.01 -0.04,-0.02 -0.05,-0.01z"/>
    <path class="fil3" d="M8.4 1.4c-0.03,0.01 -0.05,0.03 -0.04,0.07 0.01,0.02 0.03,0.04 0.07,0.03 0.06,-0.01 0.05,-0.11 -0.03,-0.1z"/>
    <path class="fil3" d="M7.94 1.4c-0.07,0.02 -0.05,0.12 0.02,0.11 0.03,-0.01 0.04,-0.04 0.04,-0.07 0,-0.03 -0.03,-0.04 -0.06,-0.04z"/>
    <line class="fil6 str4" x1="7.82" y1="1.27" x2="8.09" y2= "1.29" />
    <path class="fil7 str5" d="M7.78 1.17l-0.11 0.15c-0.01,-0.04 -0.02,-0.06 -0.03,-0.1 -0.01,-0.1 -0.02,-0.23 0,-0.37 0.03,-0.18 0.13,-0.25 0.25,-0.27 0.21,-0.03 0.4,-0.03 0.56,0 0.13,0.05 0.23,0.17 0.24,0.27 0.05,0.18 0.02,0.29 0,0.47 -0.05,-0.04 -0.1,-0.08 -0.15,-0.11 -0.02,-0.08 -0.02,-0.15 0,-0.23 -0.08,0.02 -0.12,0.02 -0.19,0 -0.09,0.07 -0.24,0.07 -0.35,0 -0.06,0.01 -0.13,0.02 -0.21,0 0.01,0.07 0.01,0.13 -0.01,0.19z"/>
    <line class="fil6 str4" x1="8.51" y1="1.27" x2="8.24" y2= "1.29" />
    <path class="fil8" d="M8.39 1.4c-0.01,-0.02 0.04,-0.04 0.09,-0.04 0.04,0 0.07,0.02 0.08,0.04 0,0.01 0.01,0.02 0,0.02l-0.02 0.02c-0.04,-0.03 -0.09,-0.04 -0.15,-0.04z"/>
    <path class="fil8" d="M7.99 1.4c0.01,-0.02 -0.04,-0.04 -0.09,-0.04 -0.04,0 -0.07,0.02 -0.08,0.04 0,0.01 -0.01,0.02 0,0.02l0.02 0.02c0.04,-0.03 0.09,-0.04 0.15,-0.04z"/>
    <path class="fil6 str6" d="M8.29 1.34l-0.04 0.04 -0.02 0.07 -0.01 0.12 0.01 0.07 0.05 0.07c0.01,0.01 0,0.02 0,0.02l-0.08 0.06c-0.02,0.01 -0.03,0.01 -0.05,0l-0.09 -0.06 0 -0.02 0.04 -0.08 0.01 -0.06 -0.02 -0.11 -0.03 -0.08 -0.05 -0.04"/>
    <path class="fil9" d="M8.33 1.88l-0.31 0c-0.01,0 -0.01,0 -0.01,0.01l0.07 0.06c0.03,0.01 0.06,0.02 0.09,0.02 0.04,0 0.07,0 0.09,-0.02l0.08 -0.06c0,-0.01 0,-0.01 -0.01,-0.01z"/>
    <path class="fil1 str7" d="M8.07 1.86l0 0.03c0,0.01 0,0.01 0.02,0.01 0,0.01 0.01,0.01 0.02,0 0.01,0.01 0.02,0.01 0.02,0 0.02,0.01 0.03,0.01 0.05,0 0.01,0.01 0.02,0.01 0.04,0 0.01,0.01 0.02,0.01 0.03,0 0,0.01 0.01,0.01 0.02,0l0.01 0c0.01,0 0.02,0 0.02,-0.01l0 -0.03c-0.08,0.01 -0.16,0.01 -0.23,0z"/>
    <line class="fil6 str8" x1="8.22" y1="1.87" x2="8.22" y2= "1.9" />
    <line class="fil6 str8" x1="8.24" y1="1.87" x2="8.25" y2= "1.9" />
    <line class="fil6 str8" x1="8.27" y1="1.87" x2="8.27" y2= "1.9" />
    <line class="fil6 str8" x1="8.09" y1="1.88" x2="8.09" y2= "1.9" />
    <line class="fil6 str8" x1="8.11" y1="1.88" x2="8.11" y2= "1.9" />
    <line class="fil6 str8" x1="8.13" y1="1.88" x2="8.13" y2= "1.9" />
    <line class="fil6 str8" x1="8.18" y1="1.88" x2="8.18" y2= "1.9" />
    <path class="fil6 str9" d="M8.09 1.98l-0.1 -0.1c-0.01,-0.02 0.02,-0.03 0.03,-0.02 0.12,0.01 0.2,0.01 0.31,0 0.04,0 0.04,0.01 0.02,0.03l-0.08 0.09c-0.06,0.04 -0.12,0.04 -0.18,0z"/>
    <polyline class="fil6 str3" points="8.04,2.1 8.1,2.08 8.17,2.06 8.25,2.07 8.33,2.11 "/>
    <path class="fil6 str10" d="M7.63 1.46c-0.02,-0.03 -0.03,-0.09 -0.03,-0.16 0.01,-0.05 0.03,-0.02 0.03,0 0.02,0.04 0.02,0.06 0,0.09"/>
    <path class="fil6 str10" d="M8.7 1.39c0,-0.03 0.02,-0.05 0.04,-0.05 0.02,0 0.04,0.02 0.04,0.05 -0.01,0.07 -0.04,0.1 -0.06,0.11"/>
    <path class="fil6 str9" d="M8.3 1.46c0.01,0.02 0.03,0.02 0.05,0.03 0.04,0.02 0.06,0.05 0.15,-0.01 0.04,-0.03 0.04,-0.01 0.08,-0.02"/>
    <path class="fil6 str9" d="M8.05 1.46c-0.01,0.02 -0.02,0.02 -0.04,0.03 -0.03,0.02 -0.06,0.05 -0.14,-0.01 -0.04,-0.03 -0.04,-0.01 -0.07,-0.02"/>
    <path class="fil6 str9" d="M7.81 1.46c0.01,0 0.03,0 0.04,-0.01 0.07,-0.07 0.13,-0.06 0.17,-0.03 0.01,0.01 0.02,0.03 0.03,0.03"/>
    <path class="fil6 str9" d="M8.58 1.46c-0.02,0 -0.03,0 -0.04,-0.01 -0.09,-0.07 -0.15,-0.06 -0.2,-0.03 -0.01,0.01 -0.02,0.03 -0.04,0.03"/>
    <path class="fil10 str3" d="M8.34 1.9c-0.13,0.1 -0.24,0.07 -0.35,-0.03 0.09,0.16 0.24,0.19 0.35,0.03z"/>
    <path class="fil11 str3" d="M8.06 1.87c0,-0.01 -0.05,-0.01 -0.07,0 0,0 0.01,0 0.01,0.01 0.02,0.02 0.05,0.04 0.07,0.05l-0.01 -0.06z"/>
    <path class="fil11 str3" d="M8.31 1.87c-0.01,-0.01 0.05,-0.01 0.05,0 0,0.01 -0.03,0.04 -0.06,0.06l0.01 -0.06z"/>
    <path class="fil1" d="M8.14 1.96c-0.02,0 -0.04,-0.01 -0.06,-0.02 0.03,-0.01 0.02,0 0.03,0 0.03,-0.01 0.02,0 0.02,0 0.03,-0.01 0.04,0 0.04,0 0.01,0.01 0,-0.01 0.05,0 0.01,0 -0.01,-0.01 0.03,0 0.01,0 -0.01,-0.01 0.03,0 -0.02,0.01 -0.04,0.02 -0.07,0.02 -0.02,0.01 -0.04,0.01 -0.07,0z"/>
    <path class="fil6 str11" d="M8.08 1.94c0.01,-0.01 0.02,-0.01 0.03,0 0.01,-0.01 0.02,-0.01 0.02,0 0.02,-0.01 0.03,-0.01 0.04,0 0.02,-0.01 0.04,-0.01 0.05,0 0,-0.01 0.01,-0.01 0.03,0 0.01,-0.01 0.02,-0.01 0.02,0"/>
    <line class="fil6 str7" x1="8.11" y1="1.94" x2="8.11" y2= "1.95" />
    <line class="fil6 str7" x1="8.13" y1="1.94" x2="8.13" y2= "1.96" />
    <line class="fil6 str7" x1="8.18" y1="1.94" x2="8.17" y2= "1.97" />
    <line class="fil6 str7" x1="8.22" y1="1.94" x2="8.22" y2= "1.96" />
    <line class="fil6 str7" x1="8.25" y1="1.94" x2="8.25" y2= "1.95" />
    <path class="fil10 str12" d="M8.16 1.83c-0.01,-0.01 -0.02,-0.01 -0.04,0 -0.03,0.01 -0.07,0.02 -0.1,0.03 -0.02,0 -0.04,0.01 -0.01,0.01 0.01,0 0.04,-0.01 0.06,0 0.07,0.02 0.15,0.02 0.23,0 0.02,-0.01 0.04,0 0.05,0 0.02,0 0.01,-0.01 0,-0.01 -0.05,-0.01 -0.1,-0.02 -0.12,-0.03 -0.01,0 -0.02,-0.01 -0.03,0 -0.02,0 -0.03,0 -0.04,0z"/>
    <path class="fil12 str13" d="M7.85 2.15c0.18,0.44 0.52,0.46 0.65,-0.01 -0.01,-0.05 -0.02,-0.1 -0.02,-0.15 -0.19,0.41 -0.33,0.47 -0.62,0.02l-0.01 0.14z"/>
    <ellipse class="fil13 str14" cx="8.61" cy="2.88" rx="0.19" ry="0.2"/>
    <line class="fil6 str15" x1="8.44" y1="2.29" x2="9.24" y2= "2.63" />
    <line class="fil6 str15" x1="7.93" y1="2.29" x2="7.13" y2= "2.63" />
    <line class="fil6 str16" x1="8.57" y1="2.7" x2="8.43" y2= "2.84" />
    <line class="fil6 str17" x1="8.64" y1="2.69" x2="8.43" y2= "2.91" />
    <line class="fil6 str16" x1="8.71" y1="2.73" x2="8.46" y2= "2.98" />
    <line class="fil6 str17" x1="8.76" y1="2.77" x2="8.5" y2= "3.03" />
    <line class="fil6 str16" x1="8.78" y1="2.85" x2="8.58" y2= "3.06" />
    <line class="fil6 str17" x1="8.78" y1="2.93" x2="8.65" y2= "3.06" />
    <line class="fil6 str18" x1="7.1" y1="3.23" x2="9.29" y2= "3.23" />
    <path class="fil4 str2" d="M6.71 3.4l-2.11 0c-0.05,0.01 -0.09,-0.04 -0.08,-0.12 0.01,-0.21 0.02,-0.37 0.04,-0.59 0.01,-0.06 -0.01,-0.16 0.09,-0.19 0.28,-0.11 0.68,-0.2 0.69,-0.33l0.02 -0.13c0.2,0.53 0.43,0.47 0.56,-0.03 -0.01,0.08 0.02,0.19 0.12,0.26l0.65 0.28c0.03,0.02 0.05,0.05 0.05,0.1 0.03,0.22 0.05,0.44 0.07,0.65 0,0.06 -0.04,0.1 -0.1,0.1z"/>
    <path class="fil5 str3" d="M5.34 2.19c0.07,0.13 0.17,0.21 0.32,0.25 0.13,-0.02 0.27,-0.21 0.26,-0.26l0.01 -0.17c-0.06,0.06 -0.14,0.13 -0.2,0.19 -0.03,0.04 -0.13,0.04 -0.18,0l-0.21 -0.17 0 0.16z"/>
    <path class="fil5 str3" d="M6.18 1.33c-0.02,0 -0.03,0.02 -0.04,0.04l0.02 -0.05 -0.15 -0.11 0 -0.23 -0.2 0 -0.17 0.05 -0.18 -0.05 -0.21 0 -0.01 0.19 -0.1 0.13c-0.02,-0.01 -0.03,-0.03 -0.04,-0.05 -0.01,-0.02 -0.03,-0.01 -0.04,-0.01 -0.01,0.01 -0.02,0.02 -0.03,0.05 -0.01,0.03 0,0.06 0,0.09l0.02 0.12c0.01,0.02 0.02,0.03 0.04,0.03 0.01,0 0.02,-0.01 0.04,-0.03 0.01,0.09 0.02,0.17 0.05,0.24 0.04,0.1 0.09,0.2 0.15,0.28 0.07,0.06 0.14,0.12 0.21,0.18 0.06,0.05 0.13,0.06 0.19,0 0.09,-0.08 0.19,-0.17 0.27,-0.26 0.04,-0.06 0.07,-0.11 0.09,-0.17 0.02,-0.07 0.03,-0.14 0.04,-0.21 0.01,0.01 0.02,0.02 0.02,0.02 0.01,0 0.04,-0.01 0.05,-0.02 0.03,-0.06 0.05,-0.12 0.06,-0.18 0,-0.01 -0.01,-0.03 -0.03,-0.04 -0.01,-0.01 -0.04,-0.02 -0.05,-0.01z"/>
    <path class="fil3" d="M5.87 1.4c-0.03,0.01 -0.05,0.03 -0.04,0.07 0,0.02 0.03,0.04 0.06,0.03 0.06,-0.01 0.05,-0.11 -0.02,-0.1z"/>
    <path class="fil3" d="M5.4 1.4c-0.07,0.02 -0.04,0.12 0.02,0.11 0.03,-0.01 0.05,-0.04 0.04,-0.07 0,-0.03 -0.03,-0.04 -0.06,-0.04z"/>
    <line class="fil6 str4" x1="5.28" y1="1.27" x2="5.55" y2= "1.29" />
    <path class="fil7 str5" d="M5.24 1.17l-0.11 0.15c-0.01,-0.04 -0.02,-0.06 -0.02,-0.1 -0.02,-0.1 -0.03,-0.23 -0.01,-0.37 0.03,-0.18 0.13,-0.25 0.25,-0.27 0.21,-0.03 0.4,-0.03 0.57,0 0.13,0.05 0.22,0.17 0.24,0.27 0.04,0.18 0.02,0.29 -0.01,0.47 -0.05,-0.04 -0.1,-0.08 -0.15,-0.11 -0.01,-0.08 -0.02,-0.15 0,-0.23 -0.07,0.02 -0.12,0.02 -0.19,0 -0.09,0.07 -0.24,0.07 -0.35,0 -0.06,0.01 -0.13,0.02 -0.21,0 0.01,0.07 0.01,0.13 -0.01,0.19z"/>
    <line class="fil6 str4" x1="5.97" y1="1.27" x2="5.7" y2= "1.29" />
    <path class="fil8" d="M5.86 1.4c-0.01,-0.02 0.03,-0.04 0.09,-0.04 0.03,0 0.06,0.02 0.08,0.04 0,0.01 0,0.02 0,0.02l-0.03 0.02c-0.04,-0.03 -0.08,-0.04 -0.14,-0.04z"/>
    <path class="fil8" d="M5.45 1.4c0.01,-0.02 -0.03,-0.04 -0.09,-0.04 -0.04,0 -0.07,0.02 -0.08,0.04 0,0.01 0,0.02 0,0.02l0.03 0.02c0.03,-0.03 0.08,-0.04 0.14,-0.04z"/>
    <path class="fil6 str6" d="M5.75 1.34l-0.04 0.04 -0.01 0.07 -0.02 0.12 0.02 0.07 0.05 0.07c0,0.01 0,0.02 -0.01,0.02l-0.08 0.06c-0.01,0.01 -0.03,0.01 -0.04,0l-0.1 -0.06 0 -0.02 0.04 -0.08 0.01 -0.06 -0.02 -0.11 -0.02 -0.08 -0.06 -0.04"/>
    <path class="fil9" d="M5.8 1.88l-0.32 0c-0.01,0 -0.01,0 0,0.01l0.07 0.06c0.02,0.01 0.05,0.02 0.08,0.02 0.04,0 0.07,0 0.1,-0.02l0.07 -0.06c0.01,-0.01 0,-0.01 0,-0.01z"/>
    <path class="fil1 str7" d="M5.53 1.86l0 0.03c0,0.01 0.01,0.01 0.02,0.01 0.01,0.01 0.01,0.01 0.02,0 0.01,0.01 0.02,0.01 0.03,0 0.01,0.01 0.02,0.01 0.04,0 0.01,0.01 0.03,0.01 0.04,0 0.01,0.01 0.02,0.01 0.03,0 0.01,0.01 0.02,0.01 0.03,0l0 0c0.01,0 0.02,0 0.02,-0.01l0 -0.03c-0.08,0.01 -0.15,0.01 -0.23,0z"/>
    <line class="fil6 str8" x1="5.68" y1="1.87" x2="5.68" y2= "1.9" />
    <line class="fil6 str8" x1="5.71" y1="1.87" x2="5.71" y2= "1.9" />
    <line class="fil6 str8" x1="5.74" y1="1.87" x2="5.74" y2= "1.9" />
    <line class="fil6 str8" x1="5.55" y1="1.88" x2="5.55" y2= "1.9" />
    <line class="fil6 str8" x1="5.57" y1="1.88" x2="5.57" y2= "1.9" />
    <line class="fil6 str8" x1="5.6" y1="1.88" x2="5.6" y2= "1.9" />
    <line class="fil6 str8" x1="5.64" y1="1.88" x2="5.64" y2= "1.9" />
    <path class="fil6 str9" d="M5.55 1.98l-0.1 -0.1c-0.01,-0.02 0.02,-0.03 0.04,-0.02 0.11,0.01 0.19,0.01 0.3,0 0.04,0 0.05,0.01 0.03,0.03l-0.08 0.09c-0.07,0.04 -0.13,0.04 -0.19,0z"/>
    <polyline class="fil6 str3" points="5.5,2.1 5.57,2.08 5.63,2.06 5.71,2.07 5.79,2.11 "/>
    <path class="fil6 str10" d="M5.09 1.46c-0.02,-0.03 -0.03,-0.09 -0.03,-0.16 0.02,-0.05 0.03,-0.02 0.04,0 0.01,0.04 0.01,0.06 0,0.09"/>
    <path class="fil6 str10" d="M6.16 1.39c0.01,-0.03 0.02,-0.05 0.04,-0.05 0.03,0 0.05,0.02 0.04,0.05 -0.01,0.07 -0.04,0.1 -0.06,0.11"/>
    <path class="fil6 str9" d="M5.76 1.46c0.02,0.02 0.03,0.02 0.05,0.03 0.04,0.02 0.06,0.05 0.16,-0.01 0.03,-0.03 0.04,-0.01 0.07,-0.02"/>
    <path class="fil6 str9" d="M5.52 1.46c-0.01,0.02 -0.03,0.02 -0.05,0.03 -0.03,0.02 -0.06,0.05 -0.14,-0.01 -0.03,-0.03 -0.04,-0.01 -0.07,-0.02"/>
    <path class="fil6 str9" d="M5.27 1.46c0.01,0 0.03,0 0.04,-0.01 0.08,-0.07 0.13,-0.06 0.17,-0.03 0.01,0.01 0.02,0.03 0.04,0.03"/>
    <path class="fil6 str9" d="M6.04 1.46c-0.01,0 -0.03,0 -0.04,-0.01 -0.09,-0.07 -0.15,-0.06 -0.19,-0.03 -0.02,0.01 -0.03,0.03 -0.05,0.03"/>
    <path class="fil10 str3" d="M5.8 1.9c-0.13,0.1 -0.24,0.07 -0.34,-0.03 0.09,0.16 0.24,0.19 0.34,0.03z"/>
    <path class="fil11 str3" d="M5.52 1.87c0.01,-0.01 -0.05,-0.01 -0.06,0 -0.01,0 0,0 0.01,0.01 0.02,0.02 0.04,0.04 0.06,0.05l-0.01 -0.06z"/>
    <path class="fil11 str3" d="M5.77 1.87c0,-0.01 0.05,-0.01 0.05,0 0.01,0.01 -0.03,0.04 -0.06,0.06l0.01 -0.06z"/>
    <path class="fil1" d="M5.61 1.96c-0.03,0 -0.05,-0.01 -0.06,-0.02 0.02,-0.01 0.01,0 0.02,0 0.03,-0.01 0.02,0 0.03,0 0.02,-0.01 0.03,0 0.04,0 0.01,0.01 -0.01,-0.01 0.04,0 0.01,0 -0.01,-0.01 0.03,0 0.01,0 -0.01,-0.01 0.03,0 -0.02,0.01 -0.04,0.02 -0.06,0.02 -0.03,0.01 -0.05,0.01 -0.07,0z"/>
    <path class="fil6 str11" d="M5.54 1.94c0.02,-0.01 0.02,-0.01 0.03,0 0.01,-0.01 0.02,-0.01 0.03,0 0.01,-0.01 0.02,-0.01 0.04,0 0.01,-0.01 0.03,-0.01 0.04,0 0.01,-0.01 0.02,-0.01 0.03,0 0.01,-0.01 0.02,-0.01 0.03,0"/>
    <line class="fil6 str7" x1="5.57" y1="1.94" x2="5.57" y2= "1.95" />
    <line class="fil6 str7" x1="5.6" y1="1.94" x2="5.6" y2= "1.96" />
    <line class="fil6 str7" x1="5.64" y1="1.94" x2="5.64" y2= "1.97" />
    <line class="fil6 str7" x1="5.68" y1="1.94" x2="5.68" y2= "1.96" />
    <line class="fil6 str7" x1="5.71" y1="1.94" x2="5.71" y2= "1.95" />
    <path class="fil10 str12" d="M5.62 1.83c-0.01,-0.01 -0.02,-0.01 -0.03,0 -0.04,0.01 -0.07,0.02 -0.11,0.03 -0.02,0 -0.04,0.01 -0.01,0.01 0.01,0 0.04,-0.01 0.07,0 0.06,0.02 0.14,0.02 0.22,0 0.02,-0.01 0.04,0 0.05,0 0.02,0 0.01,-0.01 0,-0.01 -0.05,-0.01 -0.1,-0.02 -0.12,-0.03 -0.01,0 -0.02,-0.01 -0.03,0 -0.01,0 -0.03,0 -0.04,0z"/>
    <path class="fil12 str13" d="M5.31 2.15c0.18,0.44 0.52,0.46 0.65,-0.01 -0.01,-0.05 -0.01,-0.1 -0.02,-0.15 -0.19,0.41 -0.33,0.47 -0.62,0.02l-0.01 0.14z"/>
    <ellipse class="fil13 str14" cx="6.07" cy="2.88" rx="0.19" ry="0.2"/>
    <line class="fil6 str15" x1="5.9" y1="2.29" x2="6.7" y2= "2.63" />
    <line class="fil6 str15" x1="5.39" y1="2.29" x2="4.6" y2= "2.63" />
    <line class="fil6 str16" x1="6.03" y1="2.7" x2="5.89" y2= "2.84" />
    <line class="fil6 str17" x1="6.1" y1="2.69" x2="5.89" y2= "2.91" />
    <line class="fil6 str16" x1="6.17" y1="2.73" x2="5.92" y2= "2.98" />
    <line class="fil6 str17" x1="6.22" y1="2.77" x2="5.97" y2= "3.03" />
    <line class="fil6 str16" x1="6.24" y1="2.85" x2="6.04" y2= "3.06" />
    <line class="fil6 str17" x1="6.24" y1="2.93" x2="6.12" y2= "3.06" />
    <line class="fil6 str18" x1="4.56" y1="3.23" x2="6.75" y2= "3.23" />
    <path class="fil4 str2" d="M8.01 4.56l-2.1 0c-0.05,0 -0.09,-0.05 -0.09,-0.12 0.02,-0.22 0.03,-0.38 0.05,-0.6 0.01,-0.05 -0.02,-0.15 0.08,-0.19 0.29,-0.11 0.69,-0.19 0.7,-0.33l0.02 -0.13c0.2,0.53 0.43,0.48 0.55,-0.03 0,0.08 0.02,0.2 0.12,0.26l0.65 0.28c0.04,0.02 0.06,0.06 0.06,0.11 0.02,0.21 0.04,0.43 0.06,0.65 0.01,0.05 -0.04,0.1 -0.1,0.1z"/>
    <path class="fil5 str3" d="M6.65 3.34c0.07,0.13 0.17,0.22 0.31,0.25 0.13,-0.01 0.27,-0.21 0.27,-0.26l0 -0.17c-0.06,0.06 -0.13,0.14 -0.19,0.2 -0.03,0.03 -0.14,0.04 -0.19,0l-0.21 -0.18 0.01 0.16z"/>
    <path class="fil5 str3" d="M7.49 2.48c-0.02,0 -0.03,0.03 -0.04,0.04l0.01 -0.05 -0.15 -0.11 0 -0.23 -0.2 0 -0.16 0.05 -0.18 -0.05 -0.22 0 -0.01 0.19 -0.1 0.14c-0.01,-0.02 -0.02,-0.04 -0.03,-0.06 -0.01,-0.01 -0.03,-0.01 -0.04,0 -0.02,0 -0.02,0.01 -0.03,0.04 -0.01,0.03 -0.01,0.06 0,0.09l0.02 0.12c0.01,0.02 0.02,0.03 0.04,0.03 0.01,0 0.02,-0.01 0.04,-0.03 0,0.09 0.02,0.17 0.05,0.24 0.03,0.1 0.08,0.2 0.15,0.29 0.07,0.06 0.14,0.12 0.21,0.17 0.06,0.06 0.12,0.06 0.19,0.01 0.09,-0.09 0.18,-0.18 0.27,-0.27 0.04,-0.05 0.07,-0.11 0.09,-0.17 0.01,-0.06 0.03,-0.13 0.04,-0.2 0.01,0.01 0.01,0.01 0.02,0.01 0.01,0 0.04,0 0.05,-0.02 0.03,-0.06 0.04,-0.12 0.05,-0.17 0.01,-0.02 -0.01,-0.04 -0.02,-0.05 -0.02,-0.01 -0.04,-0.02 -0.05,-0.01z"/>
    <path class="fil3" d="M7.17 2.56c-0.03,0 -0.05,0.02 -0.04,0.06 0.01,0.02 0.03,0.04 0.07,0.04 0.06,-0.01 0.05,-0.12 -0.03,-0.1z"/>
    <path class="fil3" d="M6.71 2.56c-0.07,0.01 -0.05,0.11 0.02,0.1 0.03,-0.01 0.04,-0.03 0.04,-0.07 0,-0.02 -0.03,-0.04 -0.06,-0.03z"/>
    <line class="fil6 str4" x1="6.59" y1="2.42" x2="6.86" y2= "2.44" />
    <path class="fil7 str5" d="M6.55 2.32l-0.11 0.15c-0.01,-0.04 -0.02,-0.05 -0.03,-0.1 -0.01,-0.09 -0.02,-0.23 0,-0.36 0.03,-0.19 0.13,-0.26 0.25,-0.28 0.21,-0.03 0.4,-0.03 0.56,0.01 0.13,0.04 0.23,0.16 0.24,0.26 0.05,0.18 0.02,0.29 0,0.47 -0.05,-0.04 -0.1,-0.07 -0.15,-0.11 -0.02,-0.07 -0.02,-0.15 0,-0.23 -0.08,0.02 -0.12,0.02 -0.19,0 -0.09,0.08 -0.24,0.07 -0.35,0 -0.06,0.02 -0.13,0.02 -0.21,0 0.01,0.07 0.01,0.13 -0.01,0.19z"/>
    <line class="fil6 str4" x1="7.28" y1="2.42" x2="7.01" y2= "2.44" />
    <path class="fil8" d="M7.16 2.55c-0.01,-0.02 0.04,-0.04 0.09,-0.04 0.04,0.01 0.07,0.02 0.08,0.05 0,0 0.01,0.01 0,0.02l-0.02 0.01c-0.04,-0.03 -0.09,-0.04 -0.15,-0.04z"/>
    <path class="fil8" d="M6.76 2.55c0.01,-0.02 -0.04,-0.04 -0.09,-0.04 -0.04,0.01 -0.07,0.02 -0.08,0.05 0,0 -0.01,0.01 0,0.02l0.02 0.01c0.04,-0.03 0.09,-0.04 0.15,-0.04z"/>
    <path class="fil6 str6" d="M7.06 2.5l-0.04 0.03 -0.02 0.08 -0.01 0.12 0.01 0.06 0.05 0.08c0.01,0 0,0.01 0,0.02l-0.08 0.05c-0.02,0.01 -0.03,0.01 -0.05,0l-0.09 -0.06 0 -0.02 0.04 -0.08 0.01 -0.05 -0.02 -0.12 -0.03 -0.08 -0.05 -0.04"/>
    <path class="fil9" d="M7.1 3.03l-0.31 0c-0.01,0 -0.01,0 -0.01,0.01l0.07 0.06c0.03,0.02 0.06,0.02 0.09,0.02 0.04,0.01 0.07,0 0.09,-0.01l0.08 -0.06c0,-0.02 -0.01,-0.01 -0.01,-0.02z"/>
    <path class="fil1 str7" d="M6.83 3.01l0.01 0.03c0,0.01 0,0.02 0.02,0.02 0,0 0.01,0 0.02,0 0.01,0 0.02,0 0.02,0 0.02,0 0.03,0 0.05,0 0.01,0 0.02,0 0.04,0 0.01,0 0.02,0 0.03,0 0,0 0.01,0 0.02,0l0.01 0c0.01,-0.01 0.02,-0.01 0.02,-0.02l0 -0.03c-0.08,0.01 -0.16,0.01 -0.24,0z"/>
    <line class="fil6 str8" x1="6.99" y1="3.03" x2="6.99" y2= "3.06" />
    <line class="fil6 str8" x1="7.01" y1="3.03" x2="7.02" y2= "3.06" />
    <line class="fil6 str8" x1="7.04" y1="3.03" x2="7.04" y2= "3.06" />
    <line class="fil6 str8" x1="6.86" y1="3.03" x2="6.86" y2= "3.06" />
    <line class="fil6 str8" x1="6.88" y1="3.03" x2="6.88" y2= "3.06" />
    <line class="fil6 str8" x1="6.9" y1="3.03" x2="6.9" y2= "3.06" />
    <line class="fil6 str8" x1="6.95" y1="3.03" x2="6.95" y2= "3.06" />
    <path class="fil6 str9" d="M6.86 3.13l-0.1 -0.1c-0.01,-0.02 0.02,-0.02 0.03,-0.02 0.12,0.01 0.2,0.01 0.31,0 0.04,0 0.04,0.01 0.02,0.04l-0.08 0.08c-0.06,0.04 -0.12,0.04 -0.18,0z"/>
    <polyline class="fil6 str3" points="6.81,3.26 6.87,3.23 6.94,3.21 7.02,3.22 7.1,3.26 "/>
    <path class="fil6 str10" d="M6.4 2.61c-0.02,-0.03 -0.03,-0.08 -0.03,-0.15 0.01,-0.05 0.03,-0.03 0.03,-0.01 0.02,0.04 0.02,0.07 0,0.1"/>
    <path class="fil6 str10" d="M7.47 2.54c0,-0.03 0.02,-0.05 0.04,-0.05 0.02,0 0.04,0.02 0.04,0.05 -0.01,0.07 -0.04,0.1 -0.06,0.11"/>
    <path class="fil6 str9" d="M7.07 2.62c0.01,0.01 0.03,0.01 0.05,0.02 0.04,0.02 0.06,0.06 0.15,-0.01 0.04,-0.03 0.04,-0.01 0.08,-0.02"/>
    <path class="fil6 str9" d="M6.82 2.62c-0.01,0.01 -0.02,0.01 -0.04,0.02 -0.03,0.02 -0.06,0.06 -0.14,-0.01 -0.04,-0.03 -0.04,-0.01 -0.07,-0.02"/>
    <path class="fil6 str9" d="M6.58 2.61c0.01,0 0.03,0 0.04,0 0.07,-0.07 0.12,-0.07 0.17,-0.03 0.01,0.01 0.02,0.03 0.03,0.03"/>
    <path class="fil6 str9" d="M7.35 2.61c-0.02,0 -0.03,0 -0.04,0 -0.09,-0.07 -0.15,-0.07 -0.2,-0.03 -0.01,0.01 -0.02,0.03 -0.04,0.03"/>
    <path class="fil10 str3" d="M7.11 3.05c-0.13,0.1 -0.24,0.08 -0.35,-0.02 0.09,0.15 0.24,0.18 0.35,0.02z"/>
    <path class="fil11 str3" d="M6.83 3.02c0,0 -0.05,-0.01 -0.07,0 0,0 0.01,0 0.01,0.01 0.02,0.02 0.05,0.04 0.07,0.06l-0.01 -0.07z"/>
    <path class="fil11 str3" d="M7.08 3.02c-0.01,-0.01 0.05,-0.01 0.05,0 0,0.02 -0.03,0.04 -0.06,0.06l0.01 -0.06z"/>
    <path class="fil1" d="M6.91 3.11c-0.02,0 -0.04,-0.01 -0.06,-0.02 0.03,-0.01 0.02,0 0.03,0 0.03,-0.01 0.02,0 0.02,0 0.03,-0.01 0.04,0 0.04,0.01 0.01,0.01 0,-0.02 0.05,-0.01 0.01,0.01 -0.01,0 0.03,0 0.01,0.01 -0.01,0 0.03,0 -0.02,0.01 -0.04,0.02 -0.07,0.02 -0.02,0.01 -0.04,0.01 -0.07,0z"/>
    <path class="fil6 str11" d="M6.85 3.09c0.01,0 0.02,0 0.03,0 0.01,-0.01 0.01,-0.01 0.02,0 0.02,-0.01 0.03,0 0.04,0.01 0.02,-0.01 0.04,-0.01 0.05,-0.01 0,0 0.01,0 0.03,0 0.01,0 0.02,0 0.02,0"/>
    <line class="fil6 str7" x1="6.88" y1="3.09" x2="6.88" y2= "3.1" />
    <line class="fil6 str7" x1="6.9" y1="3.09" x2="6.9" y2= "3.11" />
    <line class="fil6 str7" x1="6.95" y1="3.09" x2="6.94" y2= "3.12" />
    <line class="fil6 str7" x1="6.99" y1="3.09" x2="6.99" y2= "3.12" />
    <line class="fil6 str7" x1="7.02" y1="3.09" x2="7.02" y2= "3.11" />
    <path class="fil10 str12" d="M6.93 2.98c-0.01,-0.01 -0.02,-0.01 -0.04,0 -0.03,0.01 -0.07,0.02 -0.11,0.03 -0.01,0 -0.03,0.02 0,0.01 0.01,0 0.04,0 0.06,0 0.07,0.02 0.15,0.02 0.23,0 0.02,0 0.04,0 0.05,0 0.02,0 0.01,0 0,-0.01 -0.05,-0.01 -0.1,-0.01 -0.12,-0.02 -0.01,-0.01 -0.02,-0.02 -0.03,-0.01 -0.02,0 -0.03,0 -0.04,0z"/>
    <path class="fil12 str13" d="M6.62 3.3c0.18,0.44 0.52,0.46 0.65,-0.01 -0.01,-0.05 -0.02,-0.1 -0.02,-0.14 -0.19,0.41 -0.33,0.46 -0.62,0.02l-0.01 0.13z"/>
    <ellipse class="fil13 str14" cx="7.38" cy="4.03" rx="0.19" ry="0.2"/>
    <line class="fil6 str15" x1="7.21" y1="3.44" x2="8.01" y2= "3.79" />
    <line class="fil6 str15" x1="6.7" y1="3.44" x2="5.9" y2= "3.79" />
    <line class="fil6 str16" x1="7.34" y1="3.85" x2="7.2" y2= "3.99" />
    <line class="fil6 str17" x1="7.41" y1="3.85" x2="7.2" y2= "4.06" />
    <line class="fil6 str16" x1="7.48" y1="3.88" x2="7.23" y2= "4.14" />
    <line class="fil6 str17" x1="7.53" y1="3.93" x2="7.27" y2= "4.19" />
    <line class="fil6 str16" x1="7.55" y1="4" x2="7.35" y2= "4.21" />
    <line class="fil6 str17" x1="7.55" y1="4.08" x2="7.42" y2= "4.21" />
    <line class="fil6 str18" x1="5.87" y1="4.39" x2="8.06" y2= "4.38" />
   </g>
  </g>
 </g>
</svg>
