<?xml version="1.0" encoding="UTF-8"?>
<!DOCTYPE svg PUBLIC "-//W3C//DTD SVG 1.1//EN" "http://www.w3.org/Graphics/SVG/1.1/DTD/svg11.dtd">
<!-- Creator: CorelDRAW 2021 (64 Bit) -->
<svg xmlns="http://www.w3.org/2000/svg" xml:space="preserve" width="725px" height="375px" version="1.1" style="shape-rendering:geometricPrecision; text-rendering:geometricPrecision; image-rendering:optimizeQuality; fill-rule:evenodd; clip-rule:evenodd"
viewBox="0 0 37.54 19.42"
 xmlns:xlink="http://www.w3.org/1999/xlink"
 xmlns:xodm="http://www.corel.com/coreldraw/odm/2003">
 <defs>
  <style type="text/css">
   <![CDATA[
    .str4 {stroke:#B8B4B6;stroke-width:0.52;stroke-miterlimit:22.9256}
    .str2 {stroke:white;stroke-width:0.1;stroke-miterlimit:22.9256}
    .str0 {stroke:#B8B4B6;stroke-width:1.29;stroke-miterlimit:22.9256}
    .str3 {stroke:black;stroke-width:0.31;stroke-miterlimit:22.9256}
    .str1 {stroke:black;stroke-width:0.05;stroke-miterlimit:22.9256}
    .fil5 {fill:none}
    .fil3 {fill:#E6E7E8}
    .fil2 {fill:black}
    .fil6 {fill:#373435}
    .fil8 {fill:#CD8E64}
    .fil10 {fill:#F8AC92}
    .fil7 {fill:#FD9833}
    .fil9 {fill:#FE0000}
    .fil1 {fill:white}
    .fil0 {fill:white}
    .fil4 {fill:black;fill-rule:nonzero}
   ]]>
  </style>
 </defs>
 <g id="Camada_x0020_1">
  <metadata id="CorelCorpID_0Corel-Layer"/>
  <g id="_2713602801488">
   <g>
    <g>
     <rect class="fil0 str0" x="0.65" y="0.65" width="36.25" height="18.12" rx="1.68" ry="1.55"/>
     <g>
      <path class="fil1" d="M9.42 9.53c0.23,0 0.42,-0.08 0.57,-0.18 0.08,-0.06 0.14,-0.11 0.21,-0.16 0.05,-0.04 0.17,-0.14 0.23,-0.16 0.06,0.15 0.21,0.19 0.27,0.25 -0.04,0.18 -0.37,0.4 -0.54,0.48 -0.51,0.27 -1.1,0.31 -1.63,0.06 -0.16,-0.07 -0.48,-0.31 -0.54,-0.46 0.05,-0.08 0.24,-0.25 0.33,-0.29 0.25,0.39 0.65,0.45 1.1,0.46zm0.97 -2.68c0.69,-0.13 0.76,0.79 0.2,0.91 -0.3,0.06 -0.52,-0.12 -0.57,-0.35 -0.08,-0.33 0.1,-0.51 0.37,-0.56zm-2.53 0c0.29,-0.06 0.54,0.1 0.58,0.34 0.04,0.3 -0.14,0.52 -0.37,0.57 -0.61,0.12 -0.87,-0.78 -0.21,-0.91zm4.58 0.4c0.11,-0.43 0.22,-0.9 -0.03,-1.25 -0.09,-0.11 -0.29,-0.29 -0.41,-0.37 -0.36,-0.23 -0.43,-0.13 -0.75,0.12 -0.52,0.42 -1.25,0.74 -1.94,0.75 -0.97,0.01 -1.61,-0.53 -2.15,-0.92 -0.19,-0.14 -0.38,-0.08 -0.59,0.01 -0.22,0.09 -0.32,0.16 -0.37,0.4 -0.04,0.16 -0.13,0.5 -0.12,0.65 0.02,0.23 0.1,0.42 0.09,0.67l-0.53 0.07c-0.14,0.27 0.06,0.72 0.13,0.98 0.04,0.17 0.08,0.31 0.21,0.38 0.14,0.07 0.36,0.07 0.53,0.07 0.11,0.37 0.21,0.58 0.4,0.85 0.13,0.18 0.42,0.52 0.57,0.65 0.26,0.21 0.45,0.34 0.79,0.46 0.33,0.11 0.72,0.14 1.09,0.14 0.84,0.02 1.33,-0.26 1.84,-0.63 0.17,-0.13 0.47,-0.44 0.6,-0.63 0.29,-0.43 0.23,-0.45 0.39,-0.84 0.28,0.01 0.49,0.06 0.62,-0.14 0.13,-0.19 0.09,-0.4 0.16,-0.62 0.05,-0.15 0.2,-0.49 0.04,-0.6 -0.13,-0.1 -0.44,-0.1 -0.57,-0.2z"/>
      <path class="fil2" d="M9.42 9.53c-0.45,-0.01 -0.85,-0.07 -1.1,-0.46 -0.09,0.04 -0.28,0.21 -0.33,0.29 0.06,0.15 0.38,0.39 0.54,0.46 0.53,0.25 1.12,0.21 1.63,-0.06 0.17,-0.08 0.5,-0.3 0.54,-0.48 -0.06,-0.06 -0.21,-0.1 -0.27,-0.25 -0.06,0.02 -0.18,0.12 -0.23,0.16 -0.07,0.05 -0.13,0.1 -0.21,0.16 -0.15,0.1 -0.34,0.18 -0.57,0.18z"/>
      <polygon class="fil2" points="4.59,17.34 5.01,17.34 5.01,15.54 4.59,15.54 "/>
      <polygon class="fil2" points="13.98,17.3 14.34,17.3 14.4,17.3 14.4,15.58 14.34,15.58 13.98,15.58 "/>
      <path class="fil2" d="M10.39 6.85c-0.27,0.05 -0.45,0.23 -0.37,0.56 0.05,0.23 0.27,0.41 0.57,0.35 0.56,-0.12 0.49,-1.04 -0.2,-0.91z"/>
      <path class="fil2" d="M7.86 6.85c-0.66,0.13 -0.4,1.03 0.21,0.91 0.23,-0.05 0.41,-0.27 0.37,-0.57 -0.04,-0.24 -0.29,-0.4 -0.58,-0.34z"/>
      <path class="fil2 str1" d="M12.44 7.25c0.13,0.1 0.44,0.1 0.57,0.2 0.16,0.11 0.01,0.45 -0.04,0.6 -0.07,0.22 -0.03,0.43 -0.16,0.62 -0.13,0.2 -0.34,0.15 -0.62,0.14 -0.16,0.39 -0.1,0.41 -0.39,0.84 -0.13,0.19 -0.43,0.5 -0.6,0.63 -0.51,0.37 -1,0.65 -1.84,0.63 -0.37,0 -0.76,-0.03 -1.09,-0.14 -0.34,-0.12 -0.53,-0.25 -0.79,-0.46 -0.15,-0.13 -0.44,-0.47 -0.57,-0.65 -0.19,-0.27 -0.29,-0.48 -0.4,-0.85 -0.17,0 -0.39,0 -0.53,-0.07 -0.13,-0.07 -0.17,-0.21 -0.21,-0.38 -0.07,-0.26 -0.27,-0.71 -0.13,-0.98l0.53 -0.07c0.01,-0.25 -0.07,-0.44 -0.09,-0.67 -0.01,-0.15 0.08,-0.49 0.12,-0.65 0.05,-0.24 0.15,-0.31 0.37,-0.4 0.21,-0.09 0.4,-0.15 0.59,-0.01 0.54,0.39 1.18,0.93 2.15,0.92 0.69,-0.01 1.42,-0.33 1.94,-0.75 0.32,-0.25 0.39,-0.35 0.75,-0.12 0.12,0.08 0.32,0.26 0.41,0.37 0.25,0.35 0.14,0.82 0.03,1.25zm-4.63 -4.82c-0.65,0.29 -1.23,0.84 -1.56,1.3 -0.28,0.39 -0.5,0.7 -0.61,1.34 -0.05,0.3 -0.05,0.63 -0.05,0.94 0,0.34 0.07,0.6 0.08,0.91 -0.27,0.04 -0.38,0.14 -0.45,0.38 -0.08,0.26 -0.06,0.5 0,0.75 0.33,1.54 0.83,0.89 1.09,1.43 0.13,0.26 0.1,0.27 0.31,0.53l0.38 0.46c0.13,0.13 0.27,0.27 0.48,0.36 0,0.18 0.02,0.94 -0.01,1.09 -0.01,0.12 -0.07,0.15 -0.2,0.17 -0.61,0.06 -1.85,0.31 -2.53,0.43 -0.43,0.07 -0.79,0.15 -1.17,0.31 -0.19,0.08 -0.32,0.15 -0.47,0.26 -0.45,0.3 -0.78,0.8 -0.91,1.32 -0.09,0.33 -0.05,1.06 -0.05,1.45 0,0.49 0,0.99 0,1.48 0.3,0.01 0.44,0.06 0.47,-0.13l-0.01 -1.79c0,-0.7 0,-1.38 0.58,-1.83 0.27,-0.21 0.41,-0.31 0.77,-0.43 0.63,-0.21 1.35,-0.28 2.01,-0.41 0.33,-0.06 0.7,-0.15 1.05,-0.15 0.05,0.37 0.06,0.54 0.24,0.84 0.28,0.46 0.71,0.8 1.21,0.99 0.23,0.1 0.62,0.2 0.91,0.18 1.05,-0.03 2.39,-0.88 2.41,-2.01l2.6 0.43c0.9,0.12 1.72,0.75 1.78,1.67 0.02,0.87 0.04,1.74 0.06,2.61l0.42 0.03 0 -2.62c-0.17,-1.06 -0.71,-1.88 -2.37,-2.16 -0.87,-0.15 -1.74,-0.3 -2.61,-0.45 -0.28,-0.06 -0.39,-0.08 -0.36,-0.4 0,-0.29 0,-0.68 0.01,-0.97 0.18,-0.12 0.33,-0.26 0.48,-0.4 0.19,-0.18 0.62,-0.69 0.69,-1.06 0.78,-0.02 0.78,-0.59 0.9,-1.05 0.04,-0.13 0.11,-0.22 0.13,-0.36 0.03,-0.14 0.03,-0.3 -0.02,-0.43 -0.08,-0.26 -0.25,-0.39 -0.51,-0.48 0.01,-0.92 0.16,-1.37 -0.15,-2.25 -0.22,-0.63 -0.39,-0.93 -0.82,-1.37 -0.18,-0.19 -0.17,-0.16 -0.33,-0.3 -0.14,-0.13 -0.38,-0.29 -0.55,-0.39 -0.67,-0.41 -1.25,-0.5 -2.05,-0.47 -0.28,0.01 -0.77,0.05 -1.27,0.25zm-1.15 1.56c0.36,-0.4 0.72,-0.85 1.49,-1.19 0.27,-0.12 0.39,-0.16 0.76,-0.18 0.53,-0.05 1.14,0.04 1.63,0.22 0.38,0.15 0.58,0.32 0.85,0.54 0.34,0.28 0.4,0.32 0.67,0.74 0.14,0.22 0.53,1.02 0.49,1.37 -0.16,-0.12 -0.5,-0.34 -0.71,-0.42 -0.19,-0.07 -0.32,-0.06 -0.46,0.03 -0.12,0.09 -0.23,0.17 -0.34,0.25 -1.12,0.83 -2.09,1.02 -3.34,0.07 -0.11,-0.09 -0.22,-0.16 -0.34,-0.24 -0.14,-0.11 -0.21,-0.16 -0.44,-0.14 -0.48,0.04 -0.65,0.26 -0.87,0.32 0.02,-0.62 0.44,-1.15 0.61,-1.37zm2.68 10.17c0.08,0 0.16,0 0.23,-0.01 0.1,-0.01 0.21,-0.03 0.29,-0.04 0.8,-0.14 1.49,-0.86 1.49,-1.6 -0.34,-0.12 -0.5,-0.32 -0.48,-0.63l0.02 -0.9 0 0c-0.04,0.02 -0.09,0.04 -0.13,0.07 -0.4,0.18 -0.92,0.32 -1.42,0.33 -0.4,0.02 -0.78,-0.03 -1.14,-0.17 -0.1,-0.03 -0.21,-0.09 -0.3,-0.12 -0.01,0.31 0.03,0.65 0.01,0.95 -0.03,0.28 -0.25,0.38 -0.47,0.47 0.01,0.86 0.79,1.5 1.48,1.61 0.21,0.03 0.33,0.04 0.42,0.04z"/>
     </g>
    </g>
    <g>
     <rect class="fil3 str2" x="20.6" y="10.47" width="2.52" height="6.32"/>
     <g>
      <path class="fil4" d="M27.37 16.85c-0.49,0 -0.96,-0.17 -1.43,-0.35 -0.51,-0.19 -1.03,-0.38 -1.56,-0.34l-1.29 0.12 0 -5 0.7 -0.06c0.44,-0.04 0.81,0.13 1.16,0.29 0.33,0.16 0.64,0.31 1,0.28l2.31 -0.42c0.83,-0.15 1.28,0.33 1.56,0.77l2.52 -1.17c0.95,-0.43 2.02,0 2.66,1.06 0.17,0.28 0.08,0.65 -0.21,0.83 -0.32,0.2 -0.65,0.41 -0.97,0.61 -2.82,1.76 -5.25,3.29 -6.29,3.38 -0.05,0 -0.11,0 -0.16,0zm-2.83 -1.04c0.53,0 1.03,0.19 1.52,0.37 0.5,0.19 0.98,0.36 1.44,0.32 0.96,-0.08 3.47,-1.66 6.14,-3.32 0.32,-0.21 0.64,-0.41 0.97,-0.61 0.12,-0.08 0.17,-0.24 0.1,-0.36 -0.55,-0.91 -1.44,-1.28 -2.22,-0.93l-2.81 1.3c0,-0.18 -0.14,-0.39 -0.22,-0.48 -0.26,-0.31 -0.76,-0.46 -1.14,-0.39l-2.32 0.42c-0.47,0.04 -0.84,-0.14 -1.2,-0.3 -0.32,-0.15 -0.63,-0.3 -0.97,-0.27l-0.39 0.04 0 4.3 0.91 -0.08c0.07,-0.01 0.13,-0.01 0.19,-0.01z"/>
      <path class="fil5 str3" d="M29.82 12.5c0.04,0.08 0.04,0.22 -0.05,0.37 -0.15,0.24 -0.49,0.43 -1.32,0.33 -0.62,-0.07 -1.35,0.07 -1.99,0.14"/>
      <rect class="fil5 str4" x="20.38" y="10.47" width="2.96" height="6.32" rx="0.55" ry="0.55"/>
     </g>
    </g>
   </g>
   <g>
    <path class="fil6" d="M19.91 8.53c0.31,0.06 0.66,0.22 1.21,0.33 0.44,0.09 0.91,0.14 1.38,0.14 0.47,0 0.93,-0.05 1.38,-0.14 0.35,-0.07 1.18,-0.32 1.21,-0.33 -0.02,0.56 -1.96,0.72 -2.56,0.72 -0.39,0.01 -2.57,-0.08 -2.62,-0.72zm0.1 -0.24c0.14,-0.16 0.31,-0.27 0.47,-0.42 0.16,-0.14 0.33,-0.27 0.49,-0.4 0.31,-0.25 0.14,-0.24 0.66,-0.24l1.76 0c0.52,0 0.33,0.02 0.64,0.23l0.49 0.41c0.09,0.1 0.16,0.13 0.24,0.21 0.12,0.1 0.19,0.13 0.23,0.21 -0.47,0.3 -1.94,0.46 -2.52,0.46 -0.59,0 -2.02,-0.19 -2.46,-0.46zm1.27 -1.81c0.34,0.07 0.73,0.19 1.08,0.29 0.18,0.05 0.36,0.09 0.54,0.14 0.14,0.04 0.4,0.13 0.51,0.15l-2.14 -0.01 0.01 -0.57zm0.02 -0.13c-0.17,-0.05 -0.21,-0.07 -0.16,-0.29l2.68 0.7c0.02,0.09 0.05,0.16 0.01,0.25 -0.17,-0.01 -2.13,-0.56 -2.53,-0.66zm0.17 -0.34c-0.17,-0.04 -0.2,-0.01 -0.19,-0.19l2.45 0.64 0 0.14 -2.26 -0.59zm-0.36 -0.55c0.25,0 2.18,0.56 2.68,0.65 0.03,0.09 0.04,0.12 0.02,0.22 -0.15,-0.01 -1.85,-0.47 -2.14,-0.54 -0.53,-0.15 -0.59,-0.09 -0.56,-0.33zm0.16 -0.29c0.15,0.01 1.58,0.42 1.92,0.52 0.49,0.13 0.54,0.08 0.54,0.27l-2.45 -0.62 -0.01 -0.17zm2.58 0.02c0.04,-0.02 0.02,-0.04 0.17,-0.03 0.05,0 0.11,0.01 0.16,0.01l3.89 0.32c0.24,0.02 0.47,0 0.55,0.11 -0.22,0.03 -3.61,-0.28 -4.2,-0.33l-0.57 -0.08zm-2.71 -0.44c0.21,0.03 0.52,0.13 0.74,0.19l1.48 0.39c0.35,0.1 0.57,0.09 0.47,0.38 -0.14,-0.01 -1.22,-0.32 -1.46,-0.39l-1.12 -0.3c-0.14,-0.05 -0.15,-0.12 -0.11,-0.27zm2.58 0.54c-0.24,-0.04 -1.91,-0.48 -2.01,-0.55l0.13 -0.01 1.79 0 0.1 0.01 -0.01 0.55zm-2.73 -0.91c0.18,0 0.76,0.17 1.54,0.16 0.6,0 0.98,-0.1 1.53,-0.19 -0.26,0.22 -0.24,0.21 -0.67,0.21 -0.29,0 -0.57,-0.01 -0.86,-0.02 -0.29,0 -0.58,0.02 -0.87,0.02 -0.69,0 -0.38,-0.03 -0.67,-0.18zm3.55 -0.52c0.2,-0.08 0.37,-0.19 0.51,-0.25 -0.12,0.27 -0.75,0.46 -1.13,0.55 -1.06,0.25 -2.63,0.23 -3.62,-0.28 -0.15,-0.07 -0.43,-0.22 -0.43,-0.39 0.16,0.06 0.35,0.18 0.54,0.25 1.06,0.41 2.39,0.46 3.5,0.28 0.22,-0.04 0.43,-0.09 0.63,-0.16zm-2.65 -1.33c0.88,-0.07 2.2,0.01 2.92,0.36 0.61,0.3 0.16,0.58 -0.29,0.74 -0.38,0.14 -0.94,0.21 -1.39,0.24 -1.04,0.06 -1.99,-0.01 -2.85,-0.41 -0.3,-0.14 -0.5,-0.2 -0.33,-0.41 0.3,-0.34 1.5,-0.49 1.94,-0.52zm1.97 2.21c0.11,-0.05 0.66,-0.45 0.82,-0.56 0.28,-0.19 0.61,-0.3 0.64,-0.74 0.02,-0.25 0.03,-0.36 -0.11,-0.53 -0.64,-0.73 -4.03,-0.81 -5.14,-0.19 -0.14,0.08 -0.29,0.2 -0.35,0.33 -0.05,0.09 -0.07,0.5 -0.07,0.64 0.12,0.07 0.21,0.18 0.34,0.27 0.11,0.08 0.22,0.14 0.35,0.23 0.11,0.08 0.22,0.15 0.34,0.24 0.13,0.08 0.23,0.17 0.35,0.23 -0.04,0.12 -0.07,0.19 -0.02,0.33 0.08,0.21 0.13,0.03 0.13,0.25 -0.02,0.11 -0.17,0.06 -0.17,0.3 0,0.21 0.1,0.18 0.17,0.29 -0.02,0.17 0.01,0.01 -0.1,0.15 -0.18,0.24 0.1,0.48 0.1,0.51l0 0.57c-0.25,0.17 -0.81,0.66 -1.09,0.91 -0.23,0.19 -0.22,0.23 -0.38,0.17l-0.05 0.22c0,0 0.02,0.05 0.02,0.09 0.01,0.05 0.01,0.09 0.01,0.13 0.03,0.42 0.57,0.62 0.93,0.71 1.17,0.31 2.71,0.31 3.86,-0.02 0.42,-0.12 0.9,-0.29 0.92,-0.72 0.01,-0.31 0.05,-0.05 0,-0.27 -0.01,-0.05 -0.01,-0.08 -0.01,-0.13 -0.13,0.03 -0.14,0.04 -0.23,-0.04l-0.85 -0.73c-0.13,-0.12 -0.22,-0.15 -0.33,-0.28 0.1,-0.25 0.04,-0.26 -0.05,-0.45 -0.12,-0.23 0.1,-0.22 0.07,-0.44 -0.01,-0.09 -0.08,-0.15 -0.09,-0.23 -0.05,-0.23 0.26,-0.15 0.04,-0.62 0.34,-0.01 0.86,0.07 1.22,0.1l2.47 0.21c0.21,0.01 0.42,0.03 0.63,0.05 0.25,0.02 0.36,0.06 0.53,-0.07 0.01,-0.26 -0.22,-0.25 -0.45,-0.27l-4.44 -0.36 -0.01 -0.28z"/>
    <path class="fil7" d="M20.01 8.29c0.44,0.27 1.87,0.46 2.46,0.46 0.58,0 2.05,-0.16 2.52,-0.46 -0.04,-0.08 -0.11,-0.11 -0.23,-0.21 -0.08,-0.08 -0.15,-0.11 -0.24,-0.21l-0.49 -0.41c-0.31,-0.21 -0.12,-0.23 -0.64,-0.23l-1.76 0c-0.52,0 -0.35,-0.01 -0.66,0.24 -0.16,0.13 -0.33,0.26 -0.49,0.4 -0.16,0.15 -0.33,0.26 -0.47,0.42z"/>
    <path class="fil8" d="M21.89 2.53c-0.44,0.03 -1.64,0.18 -1.94,0.52 -0.17,0.21 0.03,0.27 0.33,0.41 0.86,0.4 1.81,0.47 2.85,0.41 0.45,-0.03 1.01,-0.1 1.39,-0.24 0.45,-0.16 0.9,-0.44 0.29,-0.74 -0.72,-0.35 -2.04,-0.43 -2.92,-0.36z"/>
    <path class="fil9" d="M30.73 3.07l-0.47 -0.2 -2.17 5.09c-0.1,0.22 -0.24,0.51 -0.31,0.74l0.48 0.2 2.47 -5.83z"/>
    <path class="fil1" d="M19.91 8.53c0.05,0.64 2.23,0.73 2.62,0.72 0.6,0 2.54,-0.16 2.56,-0.72 -0.03,0.01 -0.86,0.26 -1.21,0.33 -0.45,0.09 -0.91,0.14 -1.38,0.14 -0.47,0 -0.94,-0.05 -1.38,-0.14 -0.55,-0.11 -0.9,-0.27 -1.21,-0.33z"/>
    <path class="fil6" d="M30.21 5.67c0,-0.01 0.01,-0.01 0.01,-0.01l0.04 -0.01c0.01,0 0.02,0 0.02,0l3.49 0.27c0.05,0.03 0.01,0 0.04,0.04 -0.12,0.06 -2.8,-0.19 -3.4,-0.23 -0.12,-0.01 -0.16,0.01 -0.2,-0.06zm2.7 0.38c0.21,0.02 0.88,0.13 1,0.01 0.14,-0.14 -0.02,-0.27 -0.18,-0.29l-1.56 -0.11c-0.7,-0.06 -1.4,-0.12 -2.1,-0.16 0.01,0.33 -0.06,0.33 0.24,0.35l2.6 0.2z"/>
    <path class="fil1" d="M25.05 3.61c-0.14,0.06 -0.31,0.17 -0.51,0.25 -0.2,0.07 -0.41,0.12 -0.63,0.16 -1.11,0.18 -2.44,0.13 -3.5,-0.28 -0.19,-0.07 -0.38,-0.19 -0.54,-0.25 0,0.17 0.28,0.32 0.43,0.39 0.99,0.51 2.56,0.53 3.62,0.28 0.38,-0.09 1.01,-0.28 1.13,-0.55z"/>
    <path class="fil9" d="M27.85 3.67c0.22,0.27 0.5,0.71 0.72,0.97 0.09,0.11 0.16,0.24 0.24,0.33 0.09,-0.06 0.11,-0.07 0.21,-0.15 0.06,-0.06 0.15,-0.11 0.2,-0.15 -0.02,-0.06 -0.86,-1.24 -0.96,-1.31l-0.41 0.31z"/>
    <path class="fil9" d="M27.13 7.25c0.2,-0.1 1.28,-0.72 1.38,-0.81l-0.25 -0.44c-0.13,0.04 -0.84,0.48 -1.05,0.6 -0.1,0.06 -0.26,0.13 -0.33,0.21 0.06,0.13 0.18,0.32 0.25,0.44z"/>
    <path class="fil9" d="M30.15 6.28c-0.09,0.05 -0.34,0.25 -0.4,0.35l0.69 0.84c0.07,0.09 0.16,0.19 0.24,0.26 0.13,-0.08 0.26,-0.21 0.39,-0.3 -0.02,-0.08 -0.82,-1.06 -0.92,-1.15z"/>
    <path class="fil1" d="M23.83 5.71c0.1,-0.29 -0.12,-0.28 -0.47,-0.38l-1.48 -0.39c-0.22,-0.06 -0.53,-0.16 -0.74,-0.19 -0.04,0.15 -0.03,0.22 0.11,0.27l1.12 0.3c0.24,0.07 1.32,0.38 1.46,0.39z"/>
    <polygon class="fil9" points="30.57,4.61 30.77,5.1 31.99,4.55 31.79,4.08 "/>
    <path class="fil1" d="M23.83 7.01c0.04,-0.09 0.01,-0.16 -0.01,-0.25l-2.68 -0.7c-0.05,0.22 -0.01,0.24 0.16,0.29 0.4,0.1 2.36,0.65 2.53,0.66z"/>
    <path class="fil10" d="M21.27 7.05l2.14 0.01c-0.11,-0.02 -0.37,-0.11 -0.51,-0.15 -0.18,-0.05 -0.36,-0.09 -0.54,-0.14 -0.35,-0.1 -0.74,-0.22 -1.08,-0.29l-0.01 0.57z"/>
    <path class="fil10" d="M23.72 5.29l0.01 -0.55 -0.1 -0.01 -1.79 0 -0.13 0.01c0.1,0.07 1.77,0.51 2.01,0.55z"/>
    <path class="fil1" d="M23.81 6.33c0.02,-0.1 0.01,-0.13 -0.02,-0.22 -0.5,-0.09 -2.43,-0.65 -2.68,-0.65 -0.03,0.24 0.03,0.18 0.56,0.33 0.29,0.07 1.99,0.53 2.14,0.54z"/>
    <path class="fil10" d="M21.28 5.34l2.45 0.62c0,-0.19 -0.05,-0.14 -0.54,-0.27 -0.34,-0.1 -1.77,-0.51 -1.92,-0.52l0.01 0.17z"/>
    <path class="fil1" d="M23.85 5.19l0.57 0.08c0.59,0.05 3.98,0.36 4.2,0.33 -0.08,-0.11 -0.31,-0.09 -0.55,-0.11l-3.89 -0.32c-0.05,0 -0.11,-0.01 -0.16,-0.01 -0.15,-0.01 -0.13,0.01 -0.17,0.03z"/>
    <path class="fil10" d="M23.73 6.6l0 -0.14 -2.45 -0.64c-0.01,0.18 0.02,0.15 0.19,0.19l2.26 0.59z"/>
    <path class="fil1" d="M30.21 5.67c0.04,0.07 0.08,0.05 0.2,0.06 0.6,0.04 3.28,0.29 3.4,0.23 -0.03,-0.04 0.01,-0.01 -0.04,-0.04l-3.49 -0.27c0,0 -0.01,0 -0.02,0l-0.04 0.01c0,0 -0.01,0 -0.01,0.01z"/>
    <path class="fil7" d="M20.99 4.38c0.29,0.15 -0.02,0.18 0.67,0.18 0.29,0 0.58,-0.02 0.87,-0.02 0.29,0.01 0.57,0.02 0.86,0.02 0.43,0 0.41,0.01 0.67,-0.21 -0.55,0.09 -0.93,0.19 -1.53,0.19 -0.78,0.01 -1.36,-0.16 -1.54,-0.16z"/>
   </g>
  </g>
 </g>
</svg>
