<?xml version="1.0" encoding="UTF-8"?>
<!DOCTYPE svg PUBLIC "-//W3C//DTD SVG 1.1//EN" "http://www.w3.org/Graphics/SVG/1.1/DTD/svg11.dtd">
<!-- Creator: CorelDRAW 2021 (64 Bit) -->
<svg xmlns="http://www.w3.org/2000/svg" xml:space="preserve" width="725px" height="375px" version="1.1" style="shape-rendering:geometricPrecision; text-rendering:geometricPrecision; image-rendering:optimizeQuality; fill-rule:evenodd; clip-rule:evenodd"
viewBox="0 0 25 12.93"
 xmlns:xlink="http://www.w3.org/1999/xlink"
 xmlns:xodm="http://www.corel.com/coreldraw/odm/2003">
 <defs>
  <style type="text/css">
   <![CDATA[
    .str0 {stroke:#B8B4B6;stroke-width:0.86;stroke-miterlimit:22.9256}
    .str1 {stroke:black;stroke-width:0.03;stroke-miterlimit:22.9256}
    .fil2 {fill:black}
    .fil3 {fill:#FA0505}
    .fil1 {fill:white}
    .fil0 {fill:white}
   ]]>
  </style>
 </defs>
 <g id="Camada_x0020_1">
  <metadata id="CorelCorpID_0Corel-Layer"/>
  <g id="_2713704615040">
   <g>
    <rect class="fil0 str0" x="0.43" y="0.43" width="24.13" height="12.07" rx="1.12" ry="1.03"/>
    <g>
     <path class="fil1" d="M6.27 6.34c0.16,0 0.28,-0.05 0.38,-0.12 0.06,-0.03 0.1,-0.07 0.14,-0.1 0.04,-0.03 0.11,-0.09 0.16,-0.11 0.04,0.1 0.13,0.13 0.18,0.17 -0.03,0.12 -0.25,0.26 -0.36,0.32 -0.35,0.18 -0.74,0.2 -1.09,0.04 -0.1,-0.05 -0.32,-0.21 -0.36,-0.31 0.03,-0.05 0.16,-0.16 0.22,-0.19 0.17,0.26 0.43,0.3 0.73,0.3zm0.64 -1.78c0.47,-0.09 0.52,0.53 0.14,0.61 -0.2,0.04 -0.34,-0.08 -0.38,-0.24 -0.05,-0.22 0.07,-0.34 0.24,-0.37zm-1.67 0c0.19,-0.04 0.36,0.07 0.38,0.23 0.03,0.2 -0.09,0.34 -0.25,0.38 -0.4,0.08 -0.58,-0.52 -0.13,-0.61zm3.04 0.27c0.08,-0.29 0.15,-0.6 -0.02,-0.83 -0.05,-0.08 -0.19,-0.2 -0.27,-0.25 -0.24,-0.16 -0.29,-0.09 -0.5,0.08 -0.35,0.28 -0.83,0.49 -1.29,0.5 -0.65,0 -1.07,-0.36 -1.43,-0.62 -0.13,-0.09 -0.26,-0.04 -0.4,0.02 -0.14,0.05 -0.21,0.1 -0.24,0.26 -0.03,0.1 -0.09,0.33 -0.08,0.43 0.01,0.15 0.07,0.28 0.06,0.45l-0.35 0.05c-0.1,0.17 0.03,0.47 0.08,0.64 0.03,0.12 0.06,0.22 0.14,0.26 0.09,0.05 0.24,0.05 0.35,0.05 0.08,0.24 0.15,0.38 0.27,0.56 0.08,0.12 0.28,0.35 0.38,0.44 0.17,0.13 0.3,0.22 0.53,0.3 0.22,0.07 0.47,0.09 0.72,0.1 0.56,0.01 0.89,-0.18 1.23,-0.43 0.11,-0.08 0.31,-0.29 0.4,-0.42 0.19,-0.28 0.15,-0.3 0.26,-0.55 0.18,0 0.32,0.04 0.41,-0.1 0.08,-0.13 0.06,-0.26 0.11,-0.41 0.03,-0.1 0.13,-0.32 0.03,-0.4 -0.09,-0.06 -0.3,-0.06 -0.39,-0.13z"/>
     <path class="fil2" d="M6.27 6.34c-0.3,0 -0.56,-0.04 -0.73,-0.3 -0.06,0.03 -0.19,0.14 -0.22,0.19 0.04,0.1 0.26,0.26 0.36,0.31 0.35,0.16 0.74,0.14 1.09,-0.04 0.11,-0.06 0.33,-0.2 0.36,-0.32 -0.05,-0.04 -0.14,-0.07 -0.18,-0.17 -0.05,0.02 -0.12,0.08 -0.16,0.11 -0.04,0.03 -0.08,0.07 -0.14,0.1 -0.1,0.07 -0.22,0.12 -0.38,0.12z"/>
     <polygon class="fil2" points="3.06,11.55 3.34,11.55 3.34,10.34 3.06,10.35 "/>
     <polygon class="fil2" points="9.31,11.52 9.55,11.52 9.59,11.52 9.59,10.37 9.55,10.37 9.31,10.37 "/>
     <path class="fil2" d="M6.91 4.56c-0.17,0.03 -0.29,0.15 -0.24,0.37 0.04,0.16 0.18,0.28 0.38,0.24 0.38,-0.08 0.33,-0.7 -0.14,-0.61z"/>
     <path class="fil2" d="M5.24 4.56c-0.45,0.09 -0.27,0.69 0.13,0.61 0.16,-0.04 0.28,-0.18 0.25,-0.38 -0.02,-0.16 -0.19,-0.27 -0.38,-0.23z"/>
     <path class="fil2 str1" d="M8.28 4.83c0.09,0.07 0.3,0.07 0.39,0.13 0.1,0.08 0,0.3 -0.03,0.4 -0.05,0.15 -0.03,0.28 -0.11,0.41 -0.09,0.14 -0.23,0.1 -0.41,0.1 -0.11,0.25 -0.07,0.27 -0.26,0.55 -0.09,0.13 -0.29,0.34 -0.4,0.42 -0.34,0.25 -0.67,0.44 -1.23,0.43 -0.25,-0.01 -0.5,-0.03 -0.72,-0.1 -0.23,-0.08 -0.36,-0.17 -0.53,-0.3 -0.1,-0.09 -0.3,-0.32 -0.38,-0.44 -0.12,-0.18 -0.19,-0.32 -0.27,-0.56 -0.11,0 -0.26,0 -0.35,-0.05 -0.08,-0.04 -0.11,-0.14 -0.14,-0.26 -0.05,-0.17 -0.18,-0.47 -0.08,-0.64l0.35 -0.05c0.01,-0.17 -0.05,-0.3 -0.06,-0.45 -0.01,-0.1 0.05,-0.33 0.08,-0.43 0.03,-0.16 0.1,-0.21 0.24,-0.26 0.14,-0.06 0.27,-0.11 0.4,-0.02 0.36,0.26 0.78,0.62 1.43,0.62 0.46,-0.01 0.94,-0.22 1.29,-0.5 0.21,-0.17 0.26,-0.24 0.5,-0.08 0.08,0.05 0.22,0.17 0.27,0.25 0.17,0.23 0.1,0.54 0.02,0.83zm-3.08 -3.21c-0.43,0.19 -0.82,0.56 -1.04,0.86 -0.18,0.26 -0.33,0.47 -0.4,0.9 -0.04,0.2 -0.04,0.42 -0.04,0.62 0,0.23 0.05,0.4 0.06,0.61 -0.18,0.03 -0.26,0.09 -0.31,0.25 -0.05,0.17 -0.03,0.33 0,0.5 0.22,1.03 0.56,0.6 0.73,0.95 0.09,0.17 0.07,0.18 0.21,0.36l0.25 0.3c0.08,0.09 0.18,0.18 0.32,0.24 0,0.12 0.01,0.63 0,0.73 -0.01,0.08 -0.05,0.1 -0.14,0.11 -0.41,0.04 -1.23,0.2 -1.68,0.28 -0.29,0.06 -0.53,0.1 -0.78,0.21 -0.13,0.06 -0.21,0.1 -0.32,0.17 -0.3,0.21 -0.51,0.54 -0.6,0.88 -0.06,0.22 -0.03,0.71 -0.03,0.97 0,0.33 -0.01,0.66 0,0.99 0.19,0 0.29,0.03 0.31,-0.09l-0.01 -1.19c0,-0.47 0,-0.92 0.39,-1.22 0.17,-0.14 0.27,-0.21 0.51,-0.29 0.42,-0.14 0.9,-0.19 1.34,-0.27 0.22,-0.04 0.47,-0.1 0.7,-0.1 0.03,0.25 0.04,0.36 0.16,0.56 0.18,0.31 0.47,0.53 0.8,0.66 0.16,0.06 0.42,0.13 0.61,0.12 0.7,-0.02 1.59,-0.59 1.6,-1.34l1.73 0.29c0.6,0.08 1.15,0.5 1.19,1.11 0.01,0.58 0.03,1.16 0.04,1.73l0.28 0.03 0 -1.75c-0.12,-0.7 -0.48,-1.25 -1.58,-1.44 -0.58,-0.1 -1.15,-0.2 -1.73,-0.3 -0.2,-0.04 -0.26,-0.05 -0.24,-0.26 0,-0.2 0,-0.46 0,-0.65 0.12,-0.08 0.22,-0.17 0.32,-0.27 0.12,-0.12 0.41,-0.46 0.46,-0.7 0.52,-0.01 0.52,-0.4 0.6,-0.7 0.03,-0.09 0.07,-0.15 0.09,-0.24 0.02,-0.09 0.01,-0.2 -0.02,-0.29 -0.05,-0.17 -0.16,-0.26 -0.34,-0.31 0.01,-0.62 0.11,-0.92 -0.1,-1.51 -0.14,-0.41 -0.26,-0.61 -0.54,-0.91 -0.12,-0.12 -0.12,-0.11 -0.22,-0.2 -0.1,-0.08 -0.25,-0.19 -0.37,-0.25 -0.45,-0.28 -0.83,-0.34 -1.36,-0.32 -0.19,0.01 -0.52,0.03 -0.85,0.17zm-0.77 1.04c0.24,-0.27 0.48,-0.57 1,-0.8 0.18,-0.08 0.26,-0.11 0.5,-0.12 0.35,-0.03 0.76,0.03 1.09,0.15 0.25,0.1 0.39,0.21 0.57,0.36 0.22,0.18 0.26,0.22 0.44,0.49 0.1,0.15 0.36,0.68 0.33,0.91 -0.11,-0.07 -0.34,-0.22 -0.48,-0.28 -0.12,-0.04 -0.21,-0.04 -0.3,0.03 -0.08,0.05 -0.15,0.11 -0.23,0.16 -0.75,0.56 -1.39,0.68 -2.22,0.05 -0.08,-0.06 -0.15,-0.11 -0.23,-0.16 -0.09,-0.07 -0.14,-0.11 -0.29,-0.1 -0.32,0.03 -0.44,0.18 -0.58,0.22 0.01,-0.41 0.29,-0.77 0.4,-0.91zm1.79 6.77c0.05,0 0.11,0 0.15,-0.01 0.07,0 0.14,-0.02 0.2,-0.03 0.53,-0.08 0.98,-0.57 0.99,-1.06 -0.23,-0.08 -0.34,-0.21 -0.32,-0.42l0.01 -0.6 0 0c-0.03,0.02 -0.06,0.03 -0.09,0.05 -0.26,0.12 -0.61,0.21 -0.94,0.22 -0.27,0.01 -0.52,-0.02 -0.76,-0.11 -0.07,-0.03 -0.14,-0.07 -0.2,-0.09 -0.01,0.21 0.02,0.44 0,0.64 -0.01,0.18 -0.16,0.25 -0.31,0.31 0.01,0.57 0.53,1 0.99,1.07 0.14,0.02 0.22,0.03 0.28,0.03z"/>
    </g>
   </g>
   <g>
    <path class="fil3" d="M14.19 6.45c0.02,-0.01 0.03,-0.02 0.04,-0.03l0.26 -0.3c0.12,-0.15 0.43,-0.47 0.53,-0.61l0.27 -0.3c0.03,-0.03 0.04,-0.05 0.06,-0.07l0.47 -0.53c0.02,-0.03 0.04,-0.05 0.06,-0.08 0.03,-0.03 0.04,-0.05 0.07,-0.07l1.72 -1.96c0.03,-0.04 0.04,-0.05 0.07,-0.08l0.6 -0.67 0.86 0.88c0.04,0.04 0.08,0.08 0.12,0.13l0.12 0.12c0.14,0.15 0.26,0.33 0.46,0.27 0.13,-0.04 0.17,-0.14 0.17,-0.31 0,-0.16 -0.01,-0.35 0,-0.49l0.68 0c0.02,0.23 0,0.53 0,0.77 0,0.25 0,0.51 0,0.77 0,0.12 0,0.26 0,0.39 0,0.12 0.08,0.18 0.13,0.25 0.12,0.14 0.23,0.29 0.34,0.43l1.03 1.27c0.08,0.09 0.3,0.36 0.34,0.43 -0.23,0 -0.46,0 -0.7,0 -0.23,0 -0.45,-0.03 -0.51,0.18 -0.02,0.1 0,0.56 0,0.7l0 3.47 -6.02 0 -0.06 -3.51c-0.01,-0.22 0,-0.48 -0.02,-0.7 0,-0.1 -0.07,-0.18 -0.14,-0.21 -0.13,-0.05 -0.9,0.01 -1.04,-0.02l0.09 -0.12 0 0zm0.6 0.62c0.01,0.32 0.01,0.65 0.01,0.97l0.05 2.94c0.01,0.13 -0.02,0.33 0.06,0.43 0.1,0.13 0.21,0.1 0.4,0.1l5.95 0c0.44,0 0.62,0.07 0.62,-0.37 0,-1.33 0,-2.66 0,-3.98 0.22,0 0.45,0 0.68,0 0.13,0 0.58,0.02 0.67,-0.03 0.07,-0.03 0.13,-0.09 0.14,-0.19 0.01,-0.14 -0.08,-0.23 -0.18,-0.34 -0.02,-0.03 -0.05,-0.06 -0.08,-0.1l-1.81 -2.25c-0.01,-0.01 -0.04,-0.04 -0.04,-0.05 -0.02,-0.04 -0.01,-1.79 -0.01,-2.07 0,-0.3 -0.22,-0.29 -0.4,-0.29 -0.31,0 -0.76,-0.01 -1.04,0.01 -0.1,0 -0.18,0.06 -0.21,0.12 -0.05,0.1 -0.02,0.21 -0.03,0.32l-0.8 -0.82c-0.04,-0.04 -0.08,-0.08 -0.12,-0.12 -0.11,-0.12 -0.25,-0.3 -0.44,-0.2 -0.06,0.03 -0.18,0.17 -0.23,0.24 -0.02,0.02 -0.04,0.03 -0.05,0.06l-0.93 1.05c-0.07,0.08 -0.3,0.35 -0.38,0.44 -0.02,0.02 -0.03,0.03 -0.06,0.06l-0.27 0.31c-0.02,0.02 -0.03,0.04 -0.05,0.06l-0.38 0.43c-0.08,0.08 -0.31,0.36 -0.38,0.44 -0.04,0.03 -0.07,0.08 -0.11,0.12l-1.79 2.04c-0.02,0.03 -0.04,0.04 -0.06,0.06 -0.03,0.05 -0.07,0.08 -0.11,0.13 -0.03,0.04 -0.07,0.07 -0.1,0.13 -0.06,0.14 0.02,0.27 0.11,0.32 0.1,0.05 0.32,0.03 0.44,0.03 0.12,0 0.88,-0.01 0.93,0l0 0z"/>
    <g>
     <polygon class="fil2" points="18.01,10.06 18.79,10.06 18.79,9.18 18.79,9.15 18.01,9.15 "/>
     <path class="fil2" d="M16.61 5.45l0.7 0.1c0.03,-0.31 0.15,-0.67 0.29,-0.88 0.38,-0.58 1.16,-0.58 1.57,-0.13 0.21,0.24 0.34,0.48 0.34,0.83 0.01,0.33 -0.12,0.6 -0.33,0.83 -0.05,0.05 -0.09,0.11 -0.14,0.15 -0.05,0.06 -0.09,0.1 -0.14,0.15 -0.05,0.05 -0.09,0.09 -0.14,0.15 -0.05,0.05 -0.1,0.11 -0.14,0.15 -0.03,0.03 -0.04,0.05 -0.07,0.08l-0.06 0.08c-0.4,0.51 -0.44,0.97 -0.43,1.62l0.66 0c0.01,-0.57 0.05,-0.94 0.39,-1.29 0.04,-0.04 0.06,-0.07 0.09,-0.11l0.54 -0.58c0.21,-0.27 0.42,-0.57 0.47,-1.03 0.05,-0.45 -0.06,-0.91 -0.27,-1.22 -0.19,-0.28 -0.43,-0.52 -0.83,-0.67 -0.38,-0.14 -0.9,-0.14 -1.3,-0.02 -0.28,0.08 -0.6,0.3 -0.76,0.54 -0.02,0.02 -0.03,0.03 -0.04,0.05 -0.02,0.02 -0.03,0.04 -0.04,0.06 -0.1,0.15 -0.18,0.32 -0.24,0.51 -0.04,0.12 -0.13,0.5 -0.12,0.63l0 0z"/>
    </g>
   </g>
  </g>
 </g>
</svg>
