<?xml version="1.0" encoding="UTF-8"?>
<!DOCTYPE svg PUBLIC "-//W3C//DTD SVG 1.1//EN" "http://www.w3.org/Graphics/SVG/1.1/DTD/svg11.dtd">
<!-- Creator: CorelDRAW 2021 (64 Bit) -->
<svg xmlns="http://www.w3.org/2000/svg" xml:space="preserve" width="725px" height="375px" version="1.1" style="shape-rendering:geometricPrecision; text-rendering:geometricPrecision; image-rendering:optimizeQuality; fill-rule:evenodd; clip-rule:evenodd"
viewBox="0 0 31.83 16.46"
 xmlns:xlink="http://www.w3.org/1999/xlink"
 xmlns:xodm="http://www.corel.com/coreldraw/odm/2003">
 <defs>
  <style type="text/css">
   <![CDATA[
    .str2 {stroke:black;stroke-width:0.35;stroke-miterlimit:22.9256}
    .str3 {stroke:black;stroke-width:0.22;stroke-miterlimit:22.9256}
    .str0 {stroke:#B8B4B6;stroke-width:1.1;stroke-miterlimit:22.9256}
    .str1 {stroke:black;stroke-width:0.04;stroke-miterlimit:22.9256}
    .fil1 {fill:none}
    .fil3 {fill:black}
    .fil10 {fill:#00FF95}
    .fil7 {fill:#52331D}
    .fil5 {fill:#86B0C0}
    .fil9 {fill:#9F740B}
    .fil8 {fill:#B8E3EA}
    .fil4 {fill:#E2A610}
    .fil6 {fill:#FDD734}
    .fil2 {fill:white}
    .fil0 {fill:white}
   ]]>
  </style>
 </defs>
 <g id="Camada_x0020_1">
  <metadata id="CorelCorpID_0Corel-Layer"/>
  <g id="_2069750398176">
   <rect class="fil0" x="1" y="0.87" width="29.82" height="14.72"/>
   <rect class="fil1 str0" x="0.55" y="0.55" width="30.73" height="15.37" rx="1.43" ry="1.32"/>
   <g>
    <path class="fil2" d="M8.53 7.8c0.19,0 0.35,-0.07 0.48,-0.16 0.07,-0.04 0.12,-0.09 0.18,-0.13 0.04,-0.03 0.14,-0.12 0.19,-0.14 0.06,0.13 0.18,0.17 0.24,0.22 -0.04,0.15 -0.32,0.33 -0.46,0.41 -0.44,0.22 -0.94,0.25 -1.39,0.04 -0.13,-0.06 -0.41,-0.26 -0.46,-0.39 0.04,-0.06 0.21,-0.2 0.29,-0.24 0.21,0.33 0.54,0.39 0.93,0.39zm0.81 -2.27c0.59,-0.11 0.65,0.67 0.18,0.77 -0.26,0.05 -0.44,-0.1 -0.49,-0.3 -0.07,-0.28 0.09,-0.43 0.31,-0.47zm-2.13 0c0.24,-0.05 0.45,0.08 0.48,0.29 0.04,0.25 -0.11,0.44 -0.31,0.48 -0.52,0.1 -0.73,-0.67 -0.17,-0.77zm3.88 0.34c0.09,-0.37 0.18,-0.77 -0.03,-1.06 -0.07,-0.1 -0.25,-0.25 -0.35,-0.31 -0.3,-0.21 -0.36,-0.12 -0.63,0.1 -0.44,0.35 -1.06,0.62 -1.65,0.63 -0.82,0.01 -1.36,-0.45 -1.82,-0.78 -0.16,-0.12 -0.32,-0.06 -0.5,0.01 -0.18,0.08 -0.27,0.13 -0.32,0.34 -0.03,0.13 -0.1,0.42 -0.09,0.55 0.01,0.19 0.08,0.36 0.07,0.57l-0.45 0.06c-0.12,0.23 0.05,0.61 0.11,0.83 0.04,0.14 0.07,0.26 0.18,0.32 0.11,0.06 0.31,0.06 0.45,0.06 0.1,0.31 0.18,0.49 0.34,0.72 0.1,0.15 0.35,0.44 0.48,0.55 0.22,0.18 0.39,0.29 0.67,0.39 0.28,0.09 0.61,0.12 0.92,0.12 0.72,0.01 1.14,-0.22 1.57,-0.54 0.14,-0.1 0.39,-0.37 0.5,-0.53 0.25,-0.36 0.2,-0.38 0.33,-0.71 0.24,0.01 0.42,0.05 0.53,-0.12 0.11,-0.16 0.08,-0.34 0.14,-0.52 0.04,-0.13 0.17,-0.42 0.03,-0.51 -0.11,-0.09 -0.37,-0.08 -0.48,-0.17z"/>
    <path class="fil3" d="M8.53 7.8c-0.39,0 -0.72,-0.06 -0.93,-0.39 -0.08,0.04 -0.25,0.18 -0.29,0.24 0.05,0.13 0.33,0.33 0.46,0.39 0.45,0.21 0.95,0.18 1.39,-0.04 0.14,-0.08 0.42,-0.26 0.46,-0.41 -0.06,-0.05 -0.18,-0.09 -0.24,-0.22 -0.05,0.02 -0.15,0.11 -0.19,0.14 -0.06,0.04 -0.11,0.09 -0.18,0.13 -0.13,0.09 -0.29,0.16 -0.48,0.16z"/>
    <polygon class="fil3" points="4.43,14.42 4.79,14.42 4.79,12.89 4.43,12.89 "/>
    <polygon class="fil3" points="12.39,14.39 12.69,14.39 12.75,14.39 12.75,12.93 12.69,12.93 12.39,12.93 "/>
    <path class="fil3" d="M9.34 5.53c-0.22,0.04 -0.38,0.19 -0.31,0.47 0.05,0.2 0.23,0.35 0.49,0.3 0.47,-0.1 0.41,-0.88 -0.18,-0.77z"/>
    <path class="fil3" d="M7.21 5.53c-0.56,0.1 -0.35,0.87 0.17,0.77 0.2,-0.04 0.35,-0.23 0.31,-0.48 -0.03,-0.21 -0.24,-0.34 -0.48,-0.29z"/>
    <path class="fil3 str1" d="M11.09 5.87c0.11,0.09 0.37,0.08 0.48,0.17 0.14,0.09 0.01,0.38 -0.03,0.51 -0.06,0.18 -0.03,0.36 -0.14,0.52 -0.11,0.17 -0.29,0.13 -0.53,0.12 -0.13,0.33 -0.08,0.35 -0.33,0.71 -0.11,0.16 -0.36,0.43 -0.5,0.53 -0.43,0.32 -0.85,0.55 -1.57,0.54 -0.31,0 -0.64,-0.03 -0.92,-0.12 -0.28,-0.1 -0.45,-0.21 -0.67,-0.39 -0.13,-0.11 -0.38,-0.4 -0.48,-0.55 -0.16,-0.23 -0.24,-0.41 -0.34,-0.72 -0.14,0 -0.34,0 -0.45,-0.06 -0.11,-0.06 -0.14,-0.18 -0.18,-0.32 -0.06,-0.22 -0.23,-0.6 -0.11,-0.83l0.45 -0.06c0.01,-0.21 -0.06,-0.38 -0.07,-0.57 -0.01,-0.13 0.06,-0.42 0.09,-0.55 0.05,-0.21 0.14,-0.26 0.32,-0.34 0.18,-0.07 0.34,-0.13 0.5,-0.01 0.46,0.33 1,0.79 1.82,0.78 0.59,-0.01 1.21,-0.28 1.65,-0.63 0.27,-0.22 0.33,-0.31 0.63,-0.1 0.1,0.06 0.28,0.21 0.35,0.31 0.21,0.29 0.12,0.69 0.03,1.06zm-3.92 -4.09c-0.56,0.24 -1.05,0.71 -1.33,1.1 -0.24,0.33 -0.43,0.6 -0.52,1.14 -0.04,0.25 -0.04,0.54 -0.04,0.8 0,0.29 0.06,0.5 0.07,0.77 -0.23,0.03 -0.33,0.12 -0.39,0.32 -0.06,0.22 -0.04,0.42 0,0.64 0.28,1.3 0.71,0.75 0.93,1.21 0.11,0.22 0.08,0.23 0.26,0.45l0.33 0.38c0.1,0.11 0.22,0.24 0.4,0.32 0,0.15 0.01,0.79 0,0.92 -0.02,0.1 -0.07,0.13 -0.17,0.14 -0.52,0.05 -1.58,0.26 -2.15,0.36 -0.37,0.07 -0.67,0.13 -1,0.27 -0.16,0.07 -0.26,0.13 -0.39,0.22 -0.39,0.25 -0.66,0.67 -0.78,1.12 -0.07,0.28 -0.04,0.9 -0.04,1.22 0,0.42 0,0.85 0.01,1.27 0.25,0 0.37,0.04 0.39,-0.12l0 -1.52c0,-0.59 -0.01,-1.17 0.48,-1.55 0.23,-0.18 0.36,-0.26 0.66,-0.36 0.53,-0.18 1.14,-0.24 1.7,-0.35 0.28,-0.05 0.6,-0.13 0.89,-0.13 0.05,0.32 0.06,0.46 0.21,0.71 0.23,0.4 0.6,0.68 1.02,0.85 0.2,0.08 0.53,0.17 0.77,0.15 0.89,-0.03 2.03,-0.75 2.04,-1.71l2.21 0.37c0.76,0.1 1.46,0.63 1.51,1.42 0.02,0.73 0.04,1.47 0.05,2.2l0.36 0.04 0 -2.23c-0.15,-0.9 -0.61,-1.59 -2.01,-1.83 -0.74,-0.13 -1.47,-0.26 -2.21,-0.39 -0.25,-0.04 -0.33,-0.06 -0.31,-0.33 0,-0.25 0,-0.58 0.01,-0.83 0.15,-0.1 0.28,-0.21 0.41,-0.34 0.15,-0.15 0.52,-0.58 0.58,-0.9 0.66,-0.01 0.67,-0.49 0.77,-0.88 0.03,-0.12 0.08,-0.19 0.11,-0.31 0.02,-0.12 0.02,-0.25 -0.02,-0.36 -0.07,-0.22 -0.21,-0.34 -0.43,-0.41 0,-0.78 0.13,-1.16 -0.13,-1.91 -0.19,-0.53 -0.34,-0.78 -0.69,-1.16 -0.16,-0.16 -0.15,-0.14 -0.28,-0.25 -0.13,-0.11 -0.33,-0.25 -0.47,-0.33 -0.57,-0.35 -1.06,-0.43 -1.74,-0.4 -0.24,0.01 -0.66,0.04 -1.07,0.21zm-0.99 1.32c0.31,-0.34 0.62,-0.72 1.27,-1.01 0.23,-0.1 0.33,-0.14 0.64,-0.15 0.45,-0.04 0.97,0.03 1.38,0.19 0.33,0.12 0.5,0.27 0.73,0.46 0.28,0.23 0.33,0.27 0.56,0.62 0.13,0.19 0.46,0.87 0.42,1.16 -0.13,-0.1 -0.42,-0.28 -0.6,-0.35 -0.16,-0.06 -0.27,-0.06 -0.39,0.03 -0.11,0.07 -0.19,0.14 -0.29,0.21 -0.95,0.7 -1.77,0.86 -2.83,0.06 -0.1,-0.08 -0.18,-0.14 -0.29,-0.21 -0.12,-0.09 -0.18,-0.14 -0.38,-0.12 -0.4,0.03 -0.55,0.22 -0.73,0.27 0.02,-0.52 0.37,-0.97 0.51,-1.16zm2.27 8.63c0.07,0 0.15,-0.01 0.21,-0.01 0.07,-0.01 0.17,-0.03 0.24,-0.04 0.68,-0.11 1.26,-0.73 1.26,-1.35 -0.28,-0.1 -0.42,-0.28 -0.4,-0.53l0.01 -0.77 0 0c-0.03,0.02 -0.07,0.04 -0.11,0.06 -0.33,0.15 -0.78,0.27 -1.2,0.28 -0.34,0.01 -0.66,-0.03 -0.97,-0.14 -0.09,-0.03 -0.18,-0.09 -0.25,-0.11 -0.01,0.26 0.03,0.56 0,0.81 -0.02,0.23 -0.21,0.32 -0.4,0.4 0.02,0.72 0.68,1.27 1.26,1.36 0.18,0.03 0.28,0.04 0.35,0.04z"/>
   </g>
   <g>
    <g>
     <path class="fil4" d="M25.72 9.93l0.03 -0.01c0.07,-0.02 0.12,-0.05 0.21,-0.05 0.09,0 0.15,0.03 0.23,0.04l0.02 0.02c0.12,0 0.28,0.14 0.33,0.21 0.17,0.25 0.22,0.6 0.03,0.87 -0.1,0.15 -0.26,0.2 -0.3,0.25l0.52 1.31c0.04,0.15 -0.06,0.18 -0.17,0.18 -0.22,0 -0.44,0 -0.67,0 -0.21,0 -0.44,0.01 -0.66,0 -0.24,-0.01 -0.13,-0.18 -0.03,-0.45 0.11,-0.28 0.31,-0.83 0.41,-1.07 -0.01,-0.01 -0.41,-0.18 -0.41,-0.67 0.01,-0.34 0.27,-0.62 0.46,-0.63zm3.85 3.28l0 -5.77c0.02,0.17 -0.11,0.39 -0.17,0.46 -0.24,0.32 -0.86,0.53 -1.22,0.61 -1.23,0.27 -3.05,0.29 -4.28,0 -0.53,-0.12 -1.29,-0.35 -1.39,-1.08 -0.03,0.02 -0.02,0.06 -0.02,0.11l-0.04 5.43c0,0.25 -0.02,0.25 0.1,0.38 0.27,0.31 0.74,0.49 1.21,0.63 0.96,0.28 2.16,0.34 3.18,0.23 0.72,-0.08 1.97,-0.27 2.54,-0.87 0.02,-0.02 0.03,-0.03 0.05,-0.06 0.02,-0.03 0.03,-0.03 0.04,-0.07z"/>
     <path class="fil5" d="M24.54 2.59c0.37,-0.1 0.38,0.43 0.1,0.69 -0.47,0.42 -0.63,1.76 -0.71,1.95 -0.06,0.16 -0.18,0.14 -0.2,-0.06 -0.05,-0.37 0.01,-1.06 0.08,-1.41 0.05,-0.26 0.14,-0.53 0.25,-0.71 0.08,-0.13 0.12,-0.18 0.21,-0.27 0.06,-0.06 0.17,-0.16 0.27,-0.19zm-1.01 4.31l0 1.03c0.4,0.33 0.8,0.32 1.19,-0.01l0.02 -1.31 0.03 -1.97c0,-0.22 0.04,-0.35 0.11,-0.53 0.19,-0.55 0.67,-1.1 1.35,-1.1 0.68,0 1.14,0.54 1.34,1.1 0.06,0.19 0.11,0.32 0.11,0.55 -0.01,0.63 0.01,1.39 -0.01,1.99l0 0.71 0 0.4c0.07,0.06 0.26,0.12 0.35,0.14 0.17,0.04 0.29,0.03 0.46,-0.01 0.1,-0.05 0.17,-0.06 0.27,-0.13l0.01 -0.42 0 -0.4c-0.01,-0.68 0.03,-1.41 0.01,-2.09 -0.02,-0.55 -0.2,-1.24 -0.4,-1.64 -0.17,-0.34 -0.36,-0.63 -0.61,-0.87 -0.05,-0.04 -0.08,-0.08 -0.13,-0.12 -0.39,-0.34 -0.86,-0.63 -1.46,-0.65 -0.5,-0.02 -1.08,0.19 -1.43,0.45 -0.04,0.03 -0.09,0.08 -0.13,0.11 -0.1,0.11 -0.25,0.27 -0.34,0.38 -0.12,0.17 -0.27,0.39 -0.37,0.62 -0.22,0.47 -0.36,1.03 -0.37,1.67 -0.01,0.69 0.01,1.4 0,2.1z"/>
     <path class="fil6" d="M24.74 6.61l-0.02 1.31c-0.39,0.33 -0.79,0.34 -1.19,0.01l0 -1.03c-0.17,0.03 -0.41,0.13 -0.57,0.2 -0.15,0.06 -0.41,0.18 -0.45,0.33 0.1,0.73 0.86,0.96 1.39,1.08 1.23,0.29 3.05,0.27 4.28,0 0.36,-0.08 0.98,-0.29 1.22,-0.61 0.06,-0.07 0.19,-0.29 0.17,-0.46l0 5.77c0.01,-0.01 0.01,0 0.01,-0.03 0,-0.01 0,-0.04 0,-0.05l0 -5.53c0,-0.08 0.02,-0.15 -0.01,-0.16 -0.01,-0.15 -0.22,-0.25 -0.35,-0.31 -0.13,-0.06 -0.33,-0.15 -0.46,-0.19l0 0.4c0.11,0.06 0.19,0.24 0.07,0.38 -0.06,0.07 -0.23,0.15 -0.35,0.17 -0.17,0.04 -0.29,0.05 -0.46,0.01 -0.09,-0.02 -0.28,-0.08 -0.35,-0.14 -0.11,-0.06 -0.18,-0.27 0,-0.4l0 -0.71c-0.23,-0.04 -0.46,-0.09 -0.71,-0.12 -0.24,-0.03 -0.49,-0.05 -0.75,-0.05 -0.51,-0.01 -0.98,0.05 -1.47,0.13z"/>
     <path class="fil2" d="M24.74 6.61c0.49,-0.08 0.96,-0.14 1.47,-0.13 0.26,0 0.51,0.02 0.75,0.05 0.25,0.03 0.48,0.08 0.71,0.12 0.02,-0.6 0,-1.36 0.01,-1.99 0,-0.23 -0.05,-0.36 -0.11,-0.55 -0.2,-0.56 -0.66,-1.1 -1.34,-1.1 -0.68,0 -1.16,0.55 -1.35,1.1 -0.07,0.18 -0.11,0.31 -0.11,0.53l-0.03 1.97z"/>
     <path class="fil7" d="M25.75 9.92l-0.03 0.01c-0.08,0.09 -0.11,0.06 -0.19,0.22 -0.12,0.2 -0.1,0.48 0.01,0.7 0.03,0.07 0.09,0.14 0.14,0.17l0.07 0.05c-0.09,0.3 -0.2,0.6 -0.29,0.9 -0.06,0.19 -0.16,0.39 -0.04,0.43l1.06 0.01c0.18,-0.02 0.04,-0.3 0,-0.42 -0.1,-0.29 -0.21,-0.61 -0.3,-0.91 0.33,-0.19 0.39,-0.57 0.23,-0.92 -0.03,-0.06 -0.04,-0.09 -0.08,-0.13 -0.02,-0.02 -0.04,-0.03 -0.06,-0.05l-0.06 -0.05c-0.03,0 -0.02,0 -0.02,-0.02 -0.08,-0.01 -0.14,-0.04 -0.23,-0.04 -0.09,0 -0.14,0.03 -0.21,0.05z"/>
     <path class="fil8" d="M24.54 2.59c-0.1,0.03 -0.21,0.13 -0.27,0.19 -0.09,0.09 -0.13,0.14 -0.21,0.27 -0.11,0.18 -0.2,0.45 -0.25,0.71 -0.07,0.35 -0.13,1.04 -0.08,1.41 0.02,0.2 0.14,0.22 0.2,0.06 0.08,-0.19 0.24,-1.53 0.71,-1.95 0.28,-0.26 0.27,-0.79 -0.1,-0.69z"/>
     <path class="fil9" d="M26.21 9.93l-0.02 -0.02c0,0.02 -0.01,0.02 0.02,0.02l0.06 0.05c0.02,0.02 0.04,0.03 0.06,0.05 0.04,0.04 0.05,0.07 0.08,0.13 0.16,0.35 0.1,0.73 -0.23,0.92 0.09,0.3 0.2,0.62 0.3,0.91 0.04,0.12 0.18,0.4 0,0.42l-1.06 -0.01c-0.12,-0.04 -0.02,-0.24 0.04,-0.43 0.09,-0.3 0.2,-0.6 0.29,-0.9l-0.07 -0.05c-0.05,-0.03 -0.11,-0.1 -0.14,-0.17 -0.11,-0.22 -0.13,-0.5 -0.01,-0.7 0.08,-0.16 0.11,-0.13 0.19,-0.22l0.03 -0.01 -0.03 0.01c-0.19,0.01 -0.45,0.29 -0.46,0.63 0,0.49 0.4,0.66 0.41,0.67 -0.1,0.24 -0.3,0.79 -0.41,1.07 -0.1,0.27 -0.21,0.44 0.03,0.45 0.22,0.01 0.45,0 0.66,0 0.23,0 0.45,0 0.67,0 0.11,0 0.21,-0.03 0.17,-0.18l-0.52 -1.31c0.04,-0.05 0.2,-0.1 0.3,-0.25 0.19,-0.27 0.14,-0.62 -0.03,-0.87 -0.05,-0.07 -0.21,-0.21 -0.33,-0.21z"/>
     <path class="fil9" d="M28.48 7.89c0.12,-0.02 0.29,-0.1 0.35,-0.17 0.12,-0.14 0.04,-0.32 -0.07,-0.38l-0.01 0.42c-0.1,0.07 -0.17,0.08 -0.27,0.13z"/>
     <path class="fil9" d="M27.67 7.76l0 -0.4c-0.18,0.13 -0.11,0.34 0,0.4z"/>
    </g>
    <path class="fil10" d="M18.45 1.97c-1.65,0.76 -2.14,1.64 -2.21,3.25 0.04,1.52 0.73,2.38 1.9,2.97l0.42 6.21c0.69,-0.12 1.18,-0.4 1.3,-0.98l0.07 -0.73 0.43 -1.36 -0.6 -1.18 0.72 -1.19 -0.25 -1.17c1.29,-0.86 1.73,-2.12 1.38,-3.76 -0.53,-1.53 -1.55,-2.29 -3.16,-2.06z"/>
    <line class="fil1 str2" x1="18.75" y1="7.87" x2="18.99" y2= "13.99" />
    <line class="fil1 str2" x1="19.48" y1="7.8" x2="19.56" y2= "9.88" />
    <path class="fil10 str3" d="M16.12 5.2c-0.01,0.09 -0.01,0.21 -0.01,0.31 -0.01,0.73 0.41,1.54 0.88,2.05 0.17,0.19 0.36,0.37 0.57,0.49 0.36,0.21 0.44,0.13 0.45,0.35 0.03,0.46 0.06,0.76 0.07,1.23l0.08 1.23c0.02,0.26 0.23,3.58 0.25,3.66 0.17,-0.06 0.29,-0.08 0.45,-0.12 0.5,-0.1 1.02,-0.51 1.19,-1.06 0.11,-0.34 -0.07,-0.67 0.04,-1.03l0.42 -1.07c-0.01,-0.03 0.01,0.01 -0.01,-0.05 -0.02,-0.03 0,0 -0.03,-0.03 -0.17,-0.29 -0.41,-0.82 -0.58,-1.15 0.23,-0.31 0.63,-0.78 0.67,-1.14 0.02,-0.17 -0.02,-0.35 -0.05,-0.53 -0.03,-0.18 -0.04,-0.4 -0.08,-0.51 0.46,-0.35 0.65,-0.48 0.99,-1.1 0.23,-0.4 0.4,-0.92 0.42,-1.3 0.03,-0.44 0.03,-0.82 -0.09,-1.25 -0.12,-0.42 -0.26,-0.79 -0.54,-1.2 -0.3,-0.43 -0.68,-0.74 -1.1,-0.94 -0.42,-0.2 -0.77,-0.23 -1.12,-0.23l-0.55 0.08c-0.47,0.12 -0.96,0.42 -1.33,0.82 -0.04,0.05 -0.15,0.16 -0.18,0.22l0.02 0.03c0.13,0.15 0.18,0.21 0.31,0.32 0.33,-0.3 0.42,-0.58 0.94,-0.85 0.3,-0.15 0.67,-0.24 0.98,-0.22 0.22,0 0.77,0.08 1.01,0.25 0.67,0.45 1.2,1.16 1.33,2.05 0.05,0.32 0.09,0.81 0.01,1.13 -0.22,0.92 -0.75,1.59 -1.51,1.99 0,0.08 0.02,0.21 0.03,0.3l0.13 0.88c0.01,0.11 -0.07,0.18 -0.15,0.32l-0.62 0.99c0.19,0.3 0.37,0.71 0.55,1.04 0.1,0.18 0.08,0.09 -0.06,0.55l-0.26 0.87c-0.05,0.16 -0.05,0.13 -0.02,0.27 0.01,0.06 0.04,0.52 0.03,0.56 -0.15,0.4 -0.69,0.68 -0.92,0.68 -0.02,-0.07 -0.01,-0.1 -0.02,-0.19 -0.01,-0.46 -0.04,-0.89 -0.06,-1.37 0,-0.14 0.01,-0.26 -0.01,-0.4l-0.09 -1.96c-0.02,-0.11 -0.01,-0.27 -0.01,-0.39 -0.01,-0.14 -0.01,-0.26 -0.01,-0.4l-0.05 -0.78c0,-0.27 -0.01,-0.53 -0.03,-0.79 -0.11,-0.07 -0.28,-0.05 -0.38,-0.07 -0.06,-0.02 -0.32,-0.16 -0.39,-0.2 -0.61,-0.33 -0.95,-1 -1.08,-1.72 -0.02,-0.08 -0.04,-0.24 -0.05,-0.32 -0.01,-0.08 -0.02,-0.19 -0.03,-0.32 -0.07,0.01 -0.12,0.01 -0.2,0.03 -0.07,0 -0.11,0 -0.2,-0.01z"/>
    <path class="fil10 str3" d="M16.28 3.89c-0.32,0.57 0.45,1.12 0.77,0.49 0.11,-0.22 0.09,-0.54 -0.15,-0.68 -0.19,-0.13 -0.48,-0.07 -0.62,0.19z"/>
    <ellipse class="fil0 str3" cx="18.3" cy="3.64" rx="0.61" ry="0.68"/>
   </g>
  </g>
 </g>
</svg>
