<?xml version="1.0" encoding="UTF-8"?>
<!DOCTYPE svg PUBLIC "-//W3C//DTD SVG 1.1//EN" "http://www.w3.org/Graphics/SVG/1.1/DTD/svg11.dtd">
<!-- Creator: CorelDRAW 2021 (64 Bit) -->
<svg xmlns="http://www.w3.org/2000/svg" xml:space="preserve" width="725px" height="375px" version="1.1" style="shape-rendering:geometricPrecision; text-rendering:geometricPrecision; image-rendering:optimizeQuality; fill-rule:evenodd; clip-rule:evenodd"
viewBox="0 0 9.67 5"
 xmlns:xlink="http://www.w3.org/1999/xlink"
 xmlns:xodm="http://www.corel.com/coreldraw/odm/2003">
 <defs>
  <style type="text/css">
   <![CDATA[
    .str2 {stroke:black;stroke-width:0.12;stroke-miterlimit:22.9256}
    .str5 {stroke:black;stroke-width:0.05;stroke-miterlimit:22.9256}
    .str3 {stroke:black;stroke-width:0.09;stroke-miterlimit:22.9256}
    .str4 {stroke:black;stroke-width:0.15;stroke-miterlimit:22.9256}
    .str0 {stroke:#B8B4B6;stroke-width:0.33;stroke-miterlimit:22.9256}
    .str1 {stroke:black;stroke-width:0.01;stroke-miterlimit:22.9256}
    .fil4 {fill:none}
    .fil3 {fill:black}
    .fil9 {fill:#00CCFF}
    .fil7 {fill:lime}
    .fil0 {fill:aqua}
    .fil10 {fill:#99FFFF}
    .fil6 {fill:red}
    .fil8 {fill:fuchsia}
    .fil5 {fill:#FF6600}
    .fil2 {fill:white}
    .fil1 {fill:white}
   ]]>
  </style>
 </defs>
 <g id="Camada_x0020_1">
  <metadata id="CorelCorpID_0Corel-Layer"/>
  <g id="_2713714124944">
   <rect class="fil0" x="0.3" y="0.27" width="9.06" height="4.47"/>
   <rect class="fil1 str0" x="0.17" y="0.17" width="9.33" height="4.67" rx="0.43" ry="0.4"/>
   <g>
    <path class="fil2" d="M2.55 2.39c0.06,0 0.1,-0.02 0.14,-0.04 0.02,-0.02 0.04,-0.03 0.06,-0.05 0.01,0 0.04,-0.03 0.06,-0.04 0.01,0.04 0.05,0.05 0.07,0.07 -0.02,0.05 -0.1,0.1 -0.14,0.12 -0.14,0.07 -0.29,0.08 -0.42,0.02 -0.04,-0.02 -0.13,-0.08 -0.14,-0.12 0.01,-0.02 0.06,-0.06 0.08,-0.08 0.07,0.11 0.17,0.12 0.29,0.12zm0.24 -0.69c0.18,-0.03 0.2,0.21 0.06,0.24 -0.08,0.01 -0.14,-0.03 -0.15,-0.09 -0.02,-0.09 0.03,-0.13 0.09,-0.15zm-0.64 0c0.07,-0.01 0.13,0.03 0.14,0.09 0.01,0.08 -0.03,0.14 -0.09,0.15 -0.16,0.03 -0.23,-0.2 -0.05,-0.24zm1.17 0.11c0.03,-0.11 0.06,-0.24 -0.01,-0.32 -0.02,-0.03 -0.07,-0.08 -0.1,-0.1 -0.09,-0.06 -0.11,-0.03 -0.19,0.03 -0.14,0.11 -0.32,0.19 -0.5,0.19 -0.25,0.01 -0.42,-0.13 -0.56,-0.23 -0.05,-0.04 -0.09,-0.02 -0.15,0 -0.05,0.02 -0.08,0.04 -0.09,0.1 -0.01,0.04 -0.04,0.13 -0.03,0.17 0,0.06 0.02,0.11 0.02,0.17l-0.14 0.02c-0.03,0.07 0.02,0.18 0.04,0.25 0.01,0.05 0.02,0.08 0.05,0.1 0.04,0.02 0.09,0.02 0.14,0.02 0.03,0.09 0.05,0.15 0.1,0.22 0.03,0.04 0.11,0.13 0.15,0.16 0.06,0.06 0.11,0.09 0.2,0.12 0.09,0.03 0.18,0.04 0.28,0.04 0.22,0 0.34,-0.07 0.47,-0.16 0.05,-0.04 0.13,-0.12 0.16,-0.17 0.07,-0.11 0.06,-0.11 0.1,-0.21 0.07,0 0.13,0.01 0.16,-0.04 0.03,-0.05 0.02,-0.1 0.04,-0.16 0.01,-0.04 0.05,-0.12 0.01,-0.15 -0.03,-0.03 -0.11,-0.03 -0.15,-0.05z"/>
    <path class="fil3" d="M2.55 2.39c-0.12,0 -0.22,-0.01 -0.29,-0.12 -0.02,0.02 -0.07,0.06 -0.08,0.08 0.01,0.04 0.1,0.1 0.14,0.12 0.13,0.06 0.28,0.05 0.42,-0.02 0.04,-0.02 0.12,-0.07 0.14,-0.12 -0.02,-0.02 -0.06,-0.03 -0.07,-0.07 -0.02,0.01 -0.05,0.04 -0.06,0.04 -0.02,0.02 -0.04,0.03 -0.06,0.05 -0.04,0.02 -0.08,0.04 -0.14,0.04z"/>
    <polygon class="fil3" points="1.3,4.41 1.41,4.41 1.41,3.94 1.3,3.94 "/>
    <polygon class="fil3" points="3.72,4.39 3.81,4.39 3.83,4.39 3.83,3.95 3.81,3.95 3.72,3.95 "/>
    <path class="fil3" d="M2.79 1.7c-0.06,0.02 -0.11,0.06 -0.09,0.15 0.01,0.06 0.07,0.1 0.15,0.09 0.14,-0.03 0.12,-0.27 -0.06,-0.24z"/>
    <path class="fil3" d="M2.15 1.7c-0.18,0.04 -0.11,0.27 0.05,0.24 0.06,-0.01 0.1,-0.07 0.09,-0.15 -0.01,-0.06 -0.07,-0.1 -0.14,-0.09z"/>
    <path class="fil3 str1" d="M3.32 1.81c0.04,0.02 0.12,0.02 0.15,0.05 0.04,0.03 0,0.11 -0.01,0.15 -0.02,0.06 -0.01,0.11 -0.04,0.16 -0.03,0.05 -0.09,0.04 -0.16,0.04 -0.04,0.1 -0.03,0.1 -0.1,0.21 -0.03,0.05 -0.11,0.13 -0.16,0.17 -0.13,0.09 -0.25,0.16 -0.47,0.16 -0.1,0 -0.19,-0.01 -0.28,-0.04 -0.09,-0.03 -0.14,-0.06 -0.2,-0.12 -0.04,-0.03 -0.12,-0.12 -0.15,-0.16 -0.05,-0.07 -0.07,-0.13 -0.1,-0.22 -0.05,0 -0.1,0 -0.14,-0.02 -0.03,-0.02 -0.04,-0.05 -0.05,-0.1 -0.02,-0.07 -0.07,-0.18 -0.04,-0.25l0.14 -0.02c0,-0.06 -0.02,-0.11 -0.02,-0.17 -0.01,-0.04 0.02,-0.13 0.03,-0.17 0.01,-0.06 0.04,-0.08 0.09,-0.1 0.06,-0.02 0.1,-0.04 0.15,0 0.14,0.1 0.31,0.24 0.56,0.23 0.18,0 0.36,-0.08 0.5,-0.19 0.08,-0.06 0.1,-0.09 0.19,-0.03 0.03,0.02 0.08,0.07 0.1,0.1 0.07,0.08 0.04,0.21 0.01,0.32zm-1.19 -1.24c-0.17,0.07 -0.31,0.21 -0.4,0.33 -0.07,0.1 -0.13,0.18 -0.16,0.35 -0.01,0.07 -0.01,0.16 -0.01,0.24 0,0.09 0.02,0.15 0.02,0.23 -0.07,0.01 -0.1,0.04 -0.12,0.1 -0.02,0.07 -0.01,0.13 0,0.19 0.09,0.4 0.22,0.23 0.29,0.37 0.03,0.07 0.02,0.07 0.07,0.14l0.1 0.11c0.04,0.04 0.07,0.08 0.13,0.1 0,0.05 0,0.24 0,0.28 -0.01,0.03 -0.02,0.04 -0.06,0.04 -0.15,0.02 -0.47,0.08 -0.65,0.11 -0.11,0.02 -0.2,0.04 -0.3,0.08 -0.05,0.02 -0.08,0.04 -0.12,0.07 -0.12,0.08 -0.2,0.21 -0.24,0.34 -0.02,0.09 -0.01,0.27 -0.01,0.37 0,0.13 0,0.26 0,0.39 0.08,0 0.11,0.01 0.12,-0.04l0 -0.46c0,-0.18 0,-0.36 0.15,-0.47 0.07,-0.06 0.11,-0.08 0.2,-0.11 0.16,-0.06 0.34,-0.07 0.52,-0.11 0.08,-0.01 0.18,-0.04 0.27,-0.04 0.01,0.1 0.01,0.14 0.06,0.22 0.07,0.12 0.18,0.21 0.31,0.26 0.06,0.02 0.16,0.05 0.23,0.04 0.27,-0.01 0.62,-0.23 0.62,-0.52l0.67 0.11c0.23,0.04 0.45,0.2 0.46,0.44 0.01,0.22 0.01,0.44 0.02,0.67l0.11 0.01 0 -0.68c-0.05,-0.27 -0.19,-0.48 -0.61,-0.56 -0.23,-0.04 -0.45,-0.07 -0.68,-0.11 -0.07,-0.02 -0.1,-0.02 -0.09,-0.11 0,-0.07 0,-0.17 0,-0.25 0.05,-0.03 0.09,-0.06 0.13,-0.1 0.04,-0.04 0.16,-0.18 0.17,-0.27 0.2,-0.01 0.21,-0.15 0.24,-0.27 0.01,-0.04 0.02,-0.06 0.03,-0.09 0.01,-0.04 0.01,-0.08 -0.01,-0.11 -0.02,-0.07 -0.06,-0.11 -0.13,-0.13 0,-0.24 0.04,-0.35 -0.04,-0.58 -0.05,-0.16 -0.1,-0.24 -0.21,-0.35 -0.04,-0.05 -0.04,-0.04 -0.08,-0.08 -0.04,-0.03 -0.1,-0.07 -0.14,-0.1 -0.18,-0.1 -0.33,-0.13 -0.53,-0.12 -0.07,0 -0.2,0.01 -0.33,0.07zm-0.3 0.4c0.1,-0.11 0.19,-0.22 0.39,-0.31 0.07,-0.03 0.1,-0.04 0.19,-0.05 0.14,-0.01 0.3,0.01 0.42,0.06 0.1,0.04 0.15,0.08 0.22,0.14 0.09,0.07 0.11,0.08 0.18,0.19 0.03,0.06 0.13,0.26 0.12,0.35 -0.04,-0.03 -0.13,-0.08 -0.18,-0.11 -0.05,-0.01 -0.08,-0.01 -0.12,0.01 -0.03,0.03 -0.06,0.05 -0.09,0.07 -0.29,0.21 -0.54,0.26 -0.86,0.02 -0.03,-0.03 -0.05,-0.05 -0.08,-0.07 -0.04,-0.02 -0.06,-0.04 -0.12,-0.03 -0.12,0.01 -0.17,0.06 -0.22,0.08 0,-0.16 0.11,-0.3 0.15,-0.35zm0.69 2.62c0.03,0 0.05,0 0.07,-0.01 0.02,0 0.05,-0.01 0.07,-0.01 0.21,-0.03 0.38,-0.22 0.38,-0.41 -0.08,-0.03 -0.13,-0.08 -0.12,-0.16l0 -0.23 0 0c-0.01,0 -0.02,0.01 -0.03,0.01 -0.1,0.05 -0.24,0.09 -0.36,0.09 -0.11,0 -0.2,-0.01 -0.3,-0.04 -0.02,-0.01 -0.05,-0.03 -0.08,-0.03 0,0.07 0.01,0.16 0.01,0.24 -0.01,0.07 -0.07,0.1 -0.12,0.12 0,0.22 0.2,0.39 0.38,0.41 0.05,0.01 0.08,0.02 0.1,0.02z"/>
   </g>
   <g>
    <line class="fil4 str2" x1="5.27" y1="1.91" x2="8.26" y2= "1.94" />
    <rect class="fil4 str2" x="5.36" y="2.64" width="0.94" height="0.72"/>
    <line class="fil4 str3" x1="8.65" y1="2.14" x2="8.63" y2= "4" />
    <line class="fil4 str3" x1="4.89" y1="2.12" x2="4.88" y2= "3.97" />
    <line class="fil4 str3" x1="6.77" y1="1.83" x2="6.76" y2= "4.21" />
    <line class="fil4 str2" x1="5.83" y1="1.92" x2="5.81" y2= "2.64" />
    <line class="fil4 str3" x1="5.82" y1="3.4" x2="5.83" y2= "3.8" />
    <rect class="fil4 str4" x="4.5" y="1.73" width="0.77" height="0.39"/>
    <rect class="fil4 str4" x="8.26" y="1.75" width="0.77" height="0.39"/>
    <ellipse class="fil4 str5" transform="matrix(0.4486 0.1462 -0.184832 0.337554 5.7613 1.08858)" rx="0.64" ry="0.65"/>
    <path class="fil4 str2" d="M6.05 0.99l0.1 -0.34c-0.04,-0.04 -0.1,-0.06 -0.17,-0.06l-0.28 0.29"/>
    <path class="fil4 str2" d="M5.52 1.2l-0.1 0.34c0.04,0.04 0.1,0.06 0.17,0.06l0.28 -0.29"/>
    <path class="fil4 str2" d="M5.88 0.88l-0.25 -0.3c-0.06,-0.01 -0.12,0.01 -0.17,0.05l0.07 0.36"/>
    <path class="fil4 str2" d="M5.69 1.31l0.25 0.3c0.06,0.01 0.12,-0.01 0.17,-0.06l-0.07 -0.35"/>
    <path class="fil4 str2" d="M5.49 1.03l-0.39 0.19c-0.01,0.05 0.02,0.09 0.08,0.13l0.46 -0.05"/>
    <path class="fil4 str2" d="M6.05 1.17l0.39 -0.19c0.01,-0.05 -0.02,-0.1 -0.07,-0.13l-0.46 0.05"/>
    <path class="fil4 str2" d="M5.63 0.9l-0.45 -0.08c-0.05,0.03 -0.08,0.08 -0.07,0.13l0.38 0.21"/>
    <path class="fil4 str2" d="M5.89 1.3l0.45 0.08c0.05,-0.03 0.08,-0.08 0.07,-0.13l-0.37 -0.21"/>
    <line class="fil4 str2" x1="6.29" y1="3.05" x2="7.21" y2= "3.04" />
    <rect class="fil4 str2" x="7.21" y="2.64" width="0.94" height="0.72"/>
    <line class="fil4 str2" x1="8.14" y1="3.05" x2="8.64" y2= "3.05" />
    <line class="fil4 str2" x1="7.68" y1="2.67" x2="7.66" y2= "1.93" />
    <line class="fil4 str3" x1="7.72" y1="3.36" x2="7.72" y2= "3.79" />
    <ellipse class="fil4 str3" cx="7.7" cy="4.18" rx="0.22" ry="0.17"/>
    <path class="fil4 str3" d="M7.85 4.05l-0.06 -0.25c-0.04,-0.02 -0.08,-0.02 -0.13,0l-0.08 0.25"/>
    <path class="fil4 str3" d="M7.58 4.3l0.06 0.25c0.04,0.02 0.08,0.02 0.13,0l0.08 -0.25"/>
    <path class="fil4 str3" d="M7.7 4.01l-0.27 -0.14c-0.05,0.01 -0.08,0.03 -0.1,0.07l0.18 0.22"/>
    <path class="fil4 str3" d="M7.73 4.34l0.27 0.14c0.05,-0.01 0.08,-0.03 0.1,-0.07l-0.18 -0.22"/>
    <path class="fil4 str3" d="M7.5 4.19l-0.19 0.21c0.01,0.04 0.05,0.06 0.1,0.08l0.28 -0.14"/>
    <path class="fil4 str3" d="M7.92 4.17l0.18 -0.21c-0.01,-0.04 -0.04,-0.06 -0.09,-0.08l-0.28 0.14"/>
    <path class="fil4 str3" d="M7.54 4.08l-0.32 0.04c-0.03,0.04 -0.03,0.07 0,0.11l0.32 0.06"/>
    <path class="fil4 str3" d="M7.86 4.29l0.33 -0.05c0.02,-0.03 0.02,-0.06 0,-0.1l-0.33 -0.06"/>
    <rect class="fil4 str3" x="8.36" y="4" width="0.55" height="0.39"/>
    <line class="fil4 str3" x1="8.22" y1="4.19" x2="8.36" y2= "4.19" />
    <rect class="fil4 str3" x="4.61" y="3.97" width="0.55" height="0.39"/>
    <line class="fil4 str3" x1="5.17" y1="4.19" x2="5.3" y2= "4.19" />
    <ellipse class="fil4 str3" cx="5.8" cy="4.19" rx="0.22" ry="0.17"/>
    <path class="fil4 str3" d="M5.96 4.07l-0.06 -0.26c-0.04,-0.01 -0.09,-0.01 -0.13,0l-0.08 0.26"/>
    <path class="fil4 str3" d="M5.68 4.31l0.06 0.25c0.05,0.02 0.09,0.02 0.14,0l0.07 -0.25"/>
    <path class="fil4 str3" d="M5.81 4.03l-0.28 -0.15c-0.04,0.01 -0.07,0.04 -0.09,0.07l0.18 0.22"/>
    <path class="fil4 str3" d="M5.84 4.35l0.27 0.15c0.05,-0.01 0.08,-0.04 0.1,-0.08l-0.18 -0.22"/>
    <path class="fil4 str3" d="M5.6 4.21l-0.18 0.21c0.01,0.03 0.04,0.06 0.1,0.07l0.28 -0.14"/>
    <path class="fil4 str3" d="M6.02 4.18l0.19 -0.21c-0.01,-0.03 -0.04,-0.06 -0.09,-0.07l-0.29 0.14"/>
    <path class="fil4 str3" d="M5.65 4.09l-0.33 0.05c-0.02,0.03 -0.02,0.07 0,0.1l0.33 0.06"/>
    <path class="fil4 str3" d="M5.97 4.3l0.32 -0.04c0.03,-0.03 0.03,-0.07 0,-0.1l-0.32 -0.06"/>
    <line class="fil4 str2" x1="4.9" y1="3.05" x2="5.36" y2= "3.05" />
    <line class="fil4 str3" x1="6.31" y1="4.21" x2="7.22" y2= "4.21" />
    <ellipse class="fil4 str5" transform="matrix(0.4486 0.1462 -0.184832 0.337554 7.80256 1.13383)" rx="0.64" ry="0.65"/>
    <path class="fil4 str2" d="M8.09 1.04l0.1 -0.35c-0.04,-0.04 -0.1,-0.06 -0.17,-0.05l-0.28 0.29"/>
    <path class="fil4 str2" d="M7.56 1.24l-0.1 0.35c0.04,0.04 0.1,0.06 0.17,0.05l0.28 -0.29"/>
    <path class="fil4 str2" d="M7.92 0.92l-0.25 -0.3c-0.06,0 -0.12,0.02 -0.17,0.06l0.07 0.35"/>
    <path class="fil4 str2" d="M7.73 1.35l0.25 0.3c0.07,0.01 0.12,-0.01 0.17,-0.05l-0.07 -0.36"/>
    <path class="fil4 str2" d="M7.53 1.07l-0.39 0.19c0,0.05 0.03,0.1 0.08,0.14l0.46 -0.06"/>
    <path class="fil4 str2" d="M8.09 1.21l0.39 -0.19c0.01,-0.05 -0.02,-0.09 -0.07,-0.13l-0.46 0.06"/>
    <path class="fil4 str2" d="M7.67 0.94l-0.45 -0.07c-0.05,0.03 -0.08,0.07 -0.07,0.13l0.38 0.21"/>
    <path class="fil4 str2" d="M7.93 1.35l0.45 0.08c0.06,-0.04 0.08,-0.08 0.08,-0.14l-0.38 -0.21"/>
    <ellipse class="fil4 str3" cx="6.76" cy="1.44" rx="0.22" ry="0.17"/>
    <path class="fil4 str3" d="M6.91 1.32l-0.06 -0.25c-0.04,-0.02 -0.08,-0.02 -0.13,0l-0.08 0.25"/>
    <path class="fil4 str3" d="M6.64 1.56l0.06 0.26c0.04,0.01 0.08,0.01 0.13,0l0.08 -0.26"/>
    <path class="fil4 str3" d="M6.76 1.28l-0.27 -0.15c-0.05,0.01 -0.08,0.04 -0.1,0.08l0.18 0.22"/>
    <path class="fil4 str3" d="M6.79 1.6l0.27 0.15c0.05,-0.01 0.08,-0.04 0.1,-0.07l-0.18 -0.22"/>
    <path class="fil4 str3" d="M6.56 1.46l-0.19 0.21c0.01,0.03 0.05,0.06 0.1,0.07l0.28 -0.14"/>
    <path class="fil4 str3" d="M6.98 1.43l0.19 -0.21c-0.02,-0.03 -0.05,-0.06 -0.1,-0.07l-0.28 0.14"/>
    <path class="fil4 str3" d="M6.6 1.34l-0.32 0.05c-0.03,0.03 -0.03,0.07 0,0.1l0.32 0.06"/>
    <path class="fil4 str3" d="M6.92 1.56l0.33 -0.05c0.02,-0.03 0.02,-0.07 0,-0.1l-0.33 -0.06"/>
    <line class="fil4 str2" x1="5.27" y1="1.91" x2="8.26" y2= "1.94" />
    <rect class="fil5 str2" x="5.36" y="2.64" width="0.94" height="0.72"/>
    <line class="fil4 str3" x1="8.65" y1="2.14" x2="8.63" y2= "4" />
    <line class="fil4 str3" x1="4.89" y1="2.12" x2="4.88" y2= "3.97" />
    <line class="fil4 str3" x1="6.77" y1="1.83" x2="6.76" y2= "4.21" />
    <line class="fil4 str2" x1="5.83" y1="1.92" x2="5.81" y2= "2.64" />
    <line class="fil4 str3" x1="5.82" y1="3.4" x2="5.83" y2= "3.8" />
    <rect class="fil6 str4" x="4.5" y="1.73" width="0.77" height="0.39"/>
    <rect class="fil6 str4" x="8.26" y="1.75" width="0.77" height="0.39"/>
    <ellipse class="fil7 str5" transform="matrix(0.4486 0.1462 -0.184832 0.337554 5.7613 1.08858)" rx="0.64" ry="0.65"/>
    <path class="fil4 str2" d="M6.05 0.99l0.1 -0.34c-0.04,-0.04 -0.1,-0.06 -0.17,-0.06l-0.28 0.29"/>
    <path class="fil4 str2" d="M5.52 1.2l-0.1 0.34c0.04,0.04 0.1,0.06 0.17,0.06l0.28 -0.29"/>
    <path class="fil4 str2" d="M5.88 0.88l-0.25 -0.3c-0.06,-0.01 -0.12,0.01 -0.17,0.05l0.07 0.36"/>
    <path class="fil4 str2" d="M5.69 1.31l0.25 0.3c0.06,0.01 0.12,-0.01 0.17,-0.06l-0.07 -0.35"/>
    <path class="fil4 str2" d="M5.49 1.03l-0.39 0.19c-0.01,0.05 0.02,0.09 0.08,0.13l0.46 -0.05"/>
    <path class="fil4 str2" d="M6.05 1.17l0.39 -0.19c0.01,-0.05 -0.02,-0.1 -0.07,-0.13l-0.46 0.05"/>
    <path class="fil4 str2" d="M5.63 0.9l-0.45 -0.08c-0.05,0.03 -0.08,0.08 -0.07,0.13l0.38 0.21"/>
    <path class="fil4 str2" d="M5.89 1.3l0.45 0.08c0.05,-0.03 0.08,-0.08 0.07,-0.13l-0.37 -0.21"/>
    <line class="fil4 str2" x1="6.29" y1="3.05" x2="7.21" y2= "3.04" />
    <rect class="fil8 str2" x="7.21" y="2.64" width="0.94" height="0.72"/>
    <line class="fil4 str2" x1="8.14" y1="3.05" x2="8.64" y2= "3.05" />
    <line class="fil4 str2" x1="7.68" y1="2.67" x2="7.66" y2= "1.93" />
    <line class="fil4 str3" x1="7.72" y1="3.36" x2="7.72" y2= "3.79" />
    <ellipse class="fil6 str3" cx="7.7" cy="4.18" rx="0.22" ry="0.17"/>
    <path class="fil4 str3" d="M7.85 4.05l-0.06 -0.25c-0.04,-0.02 -0.08,-0.02 -0.13,0l-0.08 0.25"/>
    <path class="fil4 str3" d="M7.58 4.3l0.06 0.25c0.04,0.02 0.08,0.02 0.13,0l0.08 -0.25"/>
    <path class="fil4 str3" d="M7.7 4.01l-0.27 -0.14c-0.05,0.01 -0.08,0.03 -0.1,0.07l0.18 0.22"/>
    <path class="fil4 str3" d="M7.73 4.34l0.27 0.14c0.05,-0.01 0.08,-0.03 0.1,-0.07l-0.18 -0.22"/>
    <path class="fil4 str3" d="M7.5 4.19l-0.19 0.21c0.01,0.04 0.05,0.06 0.1,0.08l0.28 -0.14"/>
    <path class="fil4 str3" d="M7.92 4.17l0.18 -0.21c-0.01,-0.04 -0.04,-0.06 -0.09,-0.08l-0.28 0.14"/>
    <path class="fil4 str3" d="M7.54 4.08l-0.32 0.04c-0.03,0.04 -0.03,0.07 0,0.11l0.32 0.06"/>
    <path class="fil4 str3" d="M7.86 4.29l0.33 -0.05c0.02,-0.03 0.02,-0.06 0,-0.1l-0.33 -0.06"/>
    <rect class="fil9 str3" x="8.36" y="4" width="0.55" height="0.39"/>
    <line class="fil4 str3" x1="8.22" y1="4.19" x2="8.36" y2= "4.19" />
    <rect class="fil10 str3" x="4.61" y="3.97" width="0.55" height="0.39"/>
    <line class="fil4 str3" x1="5.17" y1="4.19" x2="5.3" y2= "4.19" />
    <ellipse class="fil6 str3" cx="5.8" cy="4.19" rx="0.22" ry="0.17"/>
    <path class="fil4 str3" d="M5.96 4.07l-0.06 -0.26c-0.04,-0.01 -0.09,-0.01 -0.13,0l-0.08 0.26"/>
    <path class="fil4 str3" d="M5.68 4.31l0.06 0.25c0.05,0.02 0.09,0.02 0.14,0l0.07 -0.25"/>
    <path class="fil4 str3" d="M5.81 4.03l-0.28 -0.15c-0.04,0.01 -0.07,0.04 -0.09,0.07l0.18 0.22"/>
    <path class="fil4 str3" d="M5.84 4.35l0.27 0.15c0.05,-0.01 0.08,-0.04 0.1,-0.08l-0.18 -0.22"/>
    <path class="fil4 str3" d="M5.6 4.21l-0.18 0.21c0.01,0.03 0.04,0.06 0.1,0.07l0.28 -0.14"/>
    <path class="fil4 str3" d="M6.02 4.18l0.19 -0.21c-0.01,-0.03 -0.04,-0.06 -0.09,-0.07l-0.29 0.14"/>
    <path class="fil4 str3" d="M5.65 4.09l-0.33 0.05c-0.02,0.03 -0.02,0.07 0,0.1l0.33 0.06"/>
    <path class="fil4 str3" d="M5.97 4.3l0.32 -0.04c0.03,-0.03 0.03,-0.07 0,-0.1l-0.32 -0.06"/>
    <line class="fil4 str2" x1="4.9" y1="3.05" x2="5.36" y2= "3.05" />
    <line class="fil4 str3" x1="6.31" y1="4.21" x2="7.22" y2= "4.21" />
    <ellipse class="fil7 str5" transform="matrix(0.4486 0.1462 -0.184832 0.337554 7.80256 1.13383)" rx="0.64" ry="0.65"/>
    <path class="fil4 str2" d="M8.09 1.04l0.1 -0.35c-0.04,-0.04 -0.1,-0.06 -0.17,-0.05l-0.28 0.29"/>
    <path class="fil4 str2" d="M7.56 1.24l-0.1 0.35c0.04,0.04 0.1,0.06 0.17,0.05l0.28 -0.29"/>
    <path class="fil4 str2" d="M7.92 0.92l-0.25 -0.3c-0.06,0 -0.12,0.02 -0.17,0.06l0.07 0.35"/>
    <path class="fil4 str2" d="M7.73 1.35l0.25 0.3c0.07,0.01 0.12,-0.01 0.17,-0.05l-0.07 -0.36"/>
    <path class="fil4 str2" d="M7.53 1.07l-0.39 0.19c0,0.05 0.03,0.1 0.08,0.14l0.46 -0.06"/>
    <path class="fil4 str2" d="M8.09 1.21l0.39 -0.19c0.01,-0.05 -0.02,-0.09 -0.07,-0.13l-0.46 0.06"/>
    <path class="fil4 str2" d="M7.67 0.94l-0.45 -0.07c-0.05,0.03 -0.08,0.07 -0.07,0.13l0.38 0.21"/>
    <path class="fil4 str2" d="M7.93 1.35l0.45 0.08c0.06,-0.04 0.08,-0.08 0.08,-0.14l-0.38 -0.21"/>
    <ellipse class="fil0 str3" cx="6.76" cy="1.44" rx="0.22" ry="0.17"/>
    <path class="fil4 str3" d="M6.91 1.32l-0.06 -0.25c-0.04,-0.02 -0.08,-0.02 -0.13,0l-0.08 0.25"/>
    <path class="fil4 str3" d="M6.64 1.56l0.06 0.26c0.04,0.01 0.08,0.01 0.13,0l0.08 -0.26"/>
    <path class="fil4 str3" d="M6.76 1.28l-0.27 -0.15c-0.05,0.01 -0.08,0.04 -0.1,0.08l0.18 0.22"/>
    <path class="fil4 str3" d="M6.79 1.6l0.27 0.15c0.05,-0.01 0.08,-0.04 0.1,-0.07l-0.18 -0.22"/>
    <path class="fil4 str3" d="M6.56 1.46l-0.19 0.21c0.01,0.03 0.05,0.06 0.1,0.07l0.28 -0.14"/>
    <path class="fil4 str3" d="M6.98 1.43l0.19 -0.21c-0.02,-0.03 -0.05,-0.06 -0.1,-0.07l-0.28 0.14"/>
    <path class="fil4 str3" d="M6.6 1.34l-0.32 0.05c-0.03,0.03 -0.03,0.07 0,0.1l0.32 0.06"/>
    <path class="fil4 str3" d="M6.92 1.56l0.33 -0.05c0.02,-0.03 0.02,-0.07 0,-0.1l-0.33 -0.06"/>
   </g>
  </g>
 </g>
</svg>
