<?xml version="1.0" encoding="UTF-8"?>
<!DOCTYPE svg PUBLIC "-//W3C//DTD SVG 1.1//EN" "http://www.w3.org/Graphics/SVG/1.1/DTD/svg11.dtd">
<!-- Creator: CorelDRAW 2021 (64 Bit) -->
<svg xmlns="http://www.w3.org/2000/svg" xml:space="preserve" width="725px" height="375px" version="1.1" style="shape-rendering:geometricPrecision; text-rendering:geometricPrecision; image-rendering:optimizeQuality; fill-rule:evenodd; clip-rule:evenodd"
viewBox="0 0 25.01 12.94"
 xmlns:xlink="http://www.w3.org/1999/xlink"
 xmlns:xodm="http://www.corel.com/coreldraw/odm/2003">
 <defs>
  <style type="text/css">
   <![CDATA[
    .str3 {stroke:black;stroke-width:0.07;stroke-miterlimit:22.9256}
    .str0 {stroke:#B8B4B6;stroke-width:0.86;stroke-miterlimit:22.9256}
    .str2 {stroke:black;stroke-width:0.03;stroke-miterlimit:22.9256}
    .str1 {stroke:#FF0303;stroke-width:0.03;stroke-miterlimit:22.9256}
    .fil7 {fill:none}
    .fil3 {fill:black}
    .fil6 {fill:#CCCCCC}
    .fil4 {fill:#E6E6E6}
    .fil1 {fill:red}
    .fil5 {fill:#FFFF99}
    .fil2 {fill:white}
    .fil0 {fill:white}
   ]]>
  </style>
 </defs>
 <g id="Camada_x0020_1">
  <metadata id="CorelCorpID_0Corel-Layer"/>
  <g id="_2713720413664">
   <g>
    <rect class="fil0 str0" x="0.43" y="0.43" width="24.15" height="12.07" rx="1.12" ry="1.03"/>
    <path class="fil1 str1" d="M2.19 9.61l0 1.59 1.32 0 0 -1.2 0.28 0 0 1.2 5.97 -0.03 0 -1.15 0.28 0.01 0 1.14 1.22 0.01 -0.05 -1.74c-0.05,-0.6 -0.46,-0.93 -1.08,-1.1l-1.84 -0.3c-0.12,0.79 -0.67,1.22 -1.6,1.34 -0.86,-0.05 -1.4,-0.47 -1.57,-1.34l-1.81 0.31c-0.74,0.18 -1.11,0.6 -1.12,1.26z"/>
    <g>
     <path class="fil2" d="M6.73 5.99c0.15,0 0.27,-0.05 0.38,-0.12 0.05,-0.03 0.09,-0.07 0.14,-0.1 0.03,-0.03 0.11,-0.09 0.15,-0.11 0.04,0.1 0.14,0.13 0.18,0.17 -0.03,0.12 -0.25,0.26 -0.36,0.32 -0.34,0.18 -0.74,0.2 -1.09,0.04 -0.1,-0.05 -0.32,-0.21 -0.36,-0.31 0.03,-0.05 0.16,-0.16 0.22,-0.19 0.17,0.26 0.43,0.3 0.74,0.3zm0.64 -1.78c0.46,-0.09 0.51,0.53 0.13,0.6 -0.2,0.05 -0.34,-0.07 -0.38,-0.23 -0.05,-0.22 0.07,-0.34 0.25,-0.37zm-1.68 0c0.19,-0.04 0.36,0.07 0.38,0.23 0.03,0.2 -0.09,0.34 -0.25,0.37 -0.4,0.09 -0.57,-0.52 -0.13,-0.6zm3.04 0.27c0.08,-0.29 0.15,-0.61 -0.02,-0.84 -0.05,-0.07 -0.19,-0.19 -0.27,-0.24 -0.24,-0.16 -0.28,-0.09 -0.5,0.08 -0.34,0.27 -0.83,0.49 -1.29,0.49 -0.65,0.01 -1.07,-0.35 -1.43,-0.61 -0.13,-0.09 -0.26,-0.05 -0.4,0.01 -0.14,0.06 -0.21,0.1 -0.24,0.26 -0.03,0.11 -0.09,0.34 -0.08,0.44 0.01,0.15 0.07,0.28 0.06,0.44l-0.35 0.06c-0.1,0.17 0.03,0.47 0.08,0.64 0.03,0.12 0.06,0.21 0.14,0.26 0.09,0.05 0.24,0.05 0.35,0.05 0.08,0.24 0.15,0.38 0.27,0.56 0.09,0.12 0.28,0.35 0.38,0.43 0.17,0.14 0.3,0.23 0.53,0.31 0.22,0.07 0.48,0.09 0.72,0.1 0.57,0.01 0.89,-0.18 1.23,-0.43 0.12,-0.08 0.31,-0.29 0.4,-0.42 0.19,-0.28 0.15,-0.3 0.26,-0.55 0.19,0 0.33,0.03 0.41,-0.1 0.09,-0.13 0.06,-0.26 0.11,-0.41 0.03,-0.1 0.13,-0.33 0.03,-0.4 -0.09,-0.07 -0.3,-0.06 -0.39,-0.13z"/>
     <path class="fil2" d="M10.61 6.59c-0.63,0.14 -0.41,1.02 0.19,0.9 0.22,-0.05 0.42,-0.26 0.36,-0.54 -0.04,-0.22 -0.27,-0.42 -0.55,-0.36z"/>
     <path class="fil3" d="M6.73 5.99c-0.31,0 -0.57,-0.04 -0.74,-0.3 -0.06,0.03 -0.19,0.14 -0.22,0.19 0.04,0.1 0.26,0.26 0.36,0.31 0.35,0.16 0.75,0.14 1.09,-0.04 0.11,-0.06 0.33,-0.2 0.36,-0.32 -0.04,-0.04 -0.14,-0.07 -0.18,-0.17 -0.04,0.02 -0.12,0.08 -0.15,0.11 -0.05,0.03 -0.09,0.07 -0.14,0.1 -0.11,0.07 -0.23,0.12 -0.38,0.12z"/>
     <polygon class="fil3" points="3.51,11.2 3.79,11.2 3.79,10 3.51,10 "/>
     <polygon class="fil3" points="9.76,11.17 10,11.17 10.04,11.17 10.04,10.03 10,10.02 9.76,10.02 "/>
     <path class="fil3" d="M7.37 4.21c-0.18,0.03 -0.3,0.15 -0.25,0.37 0.04,0.16 0.18,0.28 0.38,0.23 0.38,-0.07 0.33,-0.69 -0.13,-0.6z"/>
     <path class="fil3" d="M5.69 4.21c-0.44,0.08 -0.27,0.69 0.13,0.6 0.16,-0.03 0.28,-0.17 0.25,-0.37 -0.02,-0.16 -0.19,-0.27 -0.38,-0.23z"/>
     <path class="fil3 str2" d="M8.73 4.48c0.09,0.07 0.3,0.06 0.39,0.13 0.1,0.07 0,0.3 -0.03,0.4 -0.05,0.15 -0.02,0.28 -0.11,0.41 -0.08,0.13 -0.22,0.1 -0.41,0.1 -0.11,0.25 -0.07,0.27 -0.26,0.55 -0.09,0.13 -0.28,0.34 -0.4,0.42 -0.34,0.25 -0.66,0.44 -1.23,0.43 -0.24,-0.01 -0.5,-0.03 -0.72,-0.1 -0.23,-0.08 -0.36,-0.17 -0.53,-0.31 -0.1,-0.08 -0.29,-0.31 -0.38,-0.43 -0.12,-0.18 -0.19,-0.32 -0.27,-0.56 -0.11,0 -0.26,0 -0.35,-0.05 -0.08,-0.05 -0.11,-0.14 -0.14,-0.26 -0.05,-0.17 -0.18,-0.47 -0.08,-0.64l0.35 -0.06c0.01,-0.16 -0.05,-0.29 -0.06,-0.44 -0.01,-0.1 0.05,-0.33 0.08,-0.44 0.03,-0.16 0.1,-0.2 0.24,-0.26 0.14,-0.06 0.27,-0.1 0.4,-0.01 0.36,0.26 0.78,0.62 1.43,0.61 0.46,0 0.95,-0.22 1.29,-0.49 0.22,-0.17 0.26,-0.24 0.5,-0.08 0.08,0.05 0.22,0.17 0.27,0.24 0.17,0.23 0.1,0.55 0.02,0.84zm-3.08 -3.21c-0.43,0.19 -0.82,0.55 -1.04,0.86 -0.18,0.26 -0.33,0.47 -0.4,0.9 -0.04,0.19 -0.04,0.42 -0.04,0.62 0,0.23 0.05,0.4 0.06,0.61 -0.18,0.03 -0.26,0.09 -0.31,0.25 -0.05,0.17 -0.03,0.33 0,0.5 0.22,1.03 0.56,0.59 0.73,0.95 0.09,0.17 0.07,0.18 0.21,0.36l0.25 0.3c0.09,0.09 0.18,0.18 0.32,0.24 0,0.12 0.01,0.63 0,0.73 -0.01,0.08 -0.05,0.1 -0.14,0.11 -0.4,0.04 -1.23,0.21 -1.68,0.28 -0.29,0.06 -0.53,0.11 -0.79,0.21 -0.12,0.06 -0.2,0.1 -0.31,0.17 -0.3,0.21 -0.52,0.54 -0.61,0.88 -0.05,0.23 -0.03,0.71 -0.03,0.97 0,0.33 0,0.66 0.01,0.99 0.19,0 0.29,0.04 0.31,-0.09l-0.01 -1.19c0,-0.47 0,-0.92 0.38,-1.22 0.18,-0.14 0.28,-0.21 0.52,-0.29 0.42,-0.14 0.9,-0.19 1.34,-0.27 0.22,-0.04 0.47,-0.1 0.7,-0.1 0.03,0.25 0.04,0.36 0.16,0.56 0.18,0.31 0.47,0.53 0.8,0.66 0.16,0.06 0.42,0.13 0.61,0.12 0.7,-0.02 1.59,-0.59 1.6,-1.34l1.74 0.29c0.6,0.08 1.14,0.5 1.18,1.11 0.02,0.58 0.03,1.16 0.05,1.74l0.28 0.02 0 -1.75c-0.12,-0.7 -0.48,-1.25 -1.58,-1.44 -0.58,-0.1 -1.16,-0.2 -1.74,-0.3 -0.19,-0.04 -0.26,-0.05 -0.24,-0.26 0,-0.2 0,-0.46 0,-0.65 0.12,-0.08 0.23,-0.17 0.32,-0.27 0.13,-0.12 0.42,-0.46 0.46,-0.7 0.52,-0.01 0.53,-0.4 0.61,-0.7 0.02,-0.09 0.06,-0.15 0.08,-0.24 0.02,-0.1 0.02,-0.2 -0.01,-0.29 -0.06,-0.17 -0.17,-0.26 -0.34,-0.32 0,-0.61 0.1,-0.91 -0.11,-1.5 -0.14,-0.41 -0.26,-0.61 -0.54,-0.91 -0.12,-0.13 -0.11,-0.11 -0.22,-0.2 -0.09,-0.08 -0.25,-0.19 -0.36,-0.26 -0.45,-0.27 -0.84,-0.33 -1.37,-0.31 -0.19,0 -0.52,0.03 -0.85,0.17zm-0.77 1.03c0.24,-0.26 0.49,-0.56 1,-0.79 0.18,-0.08 0.26,-0.11 0.5,-0.12 0.36,-0.03 0.76,0.02 1.09,0.15 0.25,0.1 0.39,0.21 0.57,0.36 0.22,0.18 0.26,0.21 0.44,0.49 0.1,0.15 0.36,0.68 0.33,0.91 -0.1,-0.08 -0.33,-0.22 -0.47,-0.28 -0.13,-0.05 -0.22,-0.04 -0.31,0.03 -0.08,0.05 -0.15,0.11 -0.22,0.16 -0.75,0.55 -1.4,0.68 -2.23,0.05 -0.08,-0.06 -0.15,-0.11 -0.23,-0.17 -0.09,-0.06 -0.14,-0.1 -0.29,-0.09 -0.32,0.03 -0.44,0.17 -0.58,0.21 0.01,-0.41 0.29,-0.76 0.4,-0.91zm1.79 6.78c0.05,0 0.11,0 0.16,-0.01 0.06,0 0.13,-0.02 0.19,-0.03 0.53,-0.08 0.99,-0.57 0.99,-1.06 -0.22,-0.08 -0.33,-0.21 -0.32,-0.42l0.01 -0.6 0 0c-0.03,0.02 -0.06,0.03 -0.09,0.04 -0.26,0.13 -0.61,0.22 -0.94,0.23 -0.26,0.01 -0.52,-0.02 -0.76,-0.11 -0.07,-0.03 -0.14,-0.07 -0.2,-0.09 -0.01,0.21 0.02,0.44 0,0.64 -0.01,0.18 -0.16,0.25 -0.31,0.31 0.01,0.57 0.53,1 0.99,1.07 0.14,0.02 0.22,0.03 0.28,0.03z"/>
    </g>
   </g>
   <polygon class="fil4 str3" points="22.92,1.54 21.73,1.55 22.01,1.13 22.67,1.13 "/>
   <rect class="fil1 str3" x="17.01" y="1.55" width="6.11" height="4.94"/>
   <g>
    <g>
     <rect class="fil5 str3" x="13.25" y="5.68" width="6.11" height="4.1"/>
     <polygon class="fil6 str3" points="18.12,5.66 16.93,5.67 17.22,5.49 17.87,5.49 "/>
    </g>
    <g>
     <polygon class="fil6 str3" points="17.01,6.12 15.82,6.13 16.11,5.95 16.76,5.95 "/>
     <rect class="fil5 str3" x="12.99" y="6.14" width="6.11" height="4.09"/>
    </g>
    <g>
     <rect class="fil5 str3" x="12.75" y="6.6" width="6.11" height="4.15"/>
     <polygon class="fil7 str3" points="15.57,6.59 14.38,6.59 14.67,6.41 15.32,6.41 "/>
     <polygon class="fil6 str3" points="15.57,6.59 14.38,6.59 14.67,6.41 15.32,6.41 "/>
    </g>
    <g>
     <rect class="fil5 str3" x="12.52" y="7.06" width="6.11" height="4.1"/>
     <polygon class="fil6 str3" points="14.09,7.05 12.9,7.05 13.19,6.88 13.84,6.88 "/>
    </g>
   </g>
  </g>
 </g>
</svg>
