<?xml version="1.0" encoding="UTF-8"?>
<!DOCTYPE svg PUBLIC "-//W3C//DTD SVG 1.1//EN" "http://www.w3.org/Graphics/SVG/1.1/DTD/svg11.dtd">
<!-- Creator: CorelDRAW 2021 (64 Bit) -->
<svg xmlns="http://www.w3.org/2000/svg" xml:space="preserve" width="725px" height="375px" version="1.1" style="shape-rendering:geometricPrecision; text-rendering:geometricPrecision; image-rendering:optimizeQuality; fill-rule:evenodd; clip-rule:evenodd"
viewBox="0 0 24.99 12.93"
 xmlns:xlink="http://www.w3.org/1999/xlink"
 xmlns:xodm="http://www.corel.com/coreldraw/odm/2003">
 <defs>
  <style type="text/css">
   <![CDATA[
    .str3 {stroke:black;stroke-width:0.07;stroke-miterlimit:22.9256}
    .str0 {stroke:#B8B4B6;stroke-width:0.86;stroke-miterlimit:22.9256}
    .str2 {stroke:black;stroke-width:0.03;stroke-miterlimit:22.9256}
    .str1 {stroke:#FF9933;stroke-width:0.03;stroke-miterlimit:22.9256}
    .str4 {stroke:#030303;stroke-width:0.17;stroke-miterlimit:22.9256;stroke-dasharray:0.340000 0.860000}
    .fil6 {fill:none}
    .fil3 {fill:black}
    .fil4 {fill:#E6E6E6}
    .fil1 {fill:fuchsia}
    .fil5 {fill:#FFFF66}
    .fil2 {fill:white}
    .fil0 {fill:white}
   ]]>
  </style>
 </defs>
 <g id="Camada_x0020_1">
  <metadata id="CorelCorpID_0Corel-Layer"/>
  <rect class="fil0 str0" x="0.43" y="0.43" width="24.13" height="12.06" rx="1.12" ry="1.03"/>
 </g>
 <g id="Camada_x0020_1_0">
  <metadata id="CorelCorpID_1Corel-Layer"/>
  <g id="_2713837073216">
   <path class="fil1 str1" d="M1.73 9.73l0 1.59 1.33 0 -0.01 -1.2 0.28 0 0 1.2 5.97 -0.02 0 -1.15 0.28 0 0 1.15 1.22 0 -0.04 -1.73c-0.06,-0.6 -0.47,-0.93 -1.08,-1.1l-1.84 -0.31c-0.13,0.8 -0.68,1.23 -1.6,1.34 -0.86,-0.04 -1.41,-0.46 -1.57,-1.34l-1.81 0.31c-0.75,0.19 -1.12,0.61 -1.13,1.26z"/>
   <g>
    <path class="fil2" d="M6.29 6.14c0.15,0 0.27,-0.06 0.38,-0.13 0.05,-0.03 0.09,-0.07 0.14,-0.1 0.03,-0.03 0.11,-0.09 0.15,-0.11 0.04,0.1 0.13,0.13 0.18,0.17 -0.03,0.12 -0.25,0.26 -0.36,0.32 -0.34,0.18 -0.74,0.2 -1.09,0.04 -0.1,-0.05 -0.32,-0.21 -0.36,-0.31 0.03,-0.05 0.16,-0.16 0.22,-0.19 0.17,0.26 0.43,0.3 0.74,0.31zm0.64 -1.79c0.46,-0.09 0.51,0.53 0.13,0.61 -0.2,0.04 -0.34,-0.08 -0.38,-0.24 -0.05,-0.22 0.07,-0.33 0.25,-0.37zm-1.68 0c0.19,-0.03 0.36,0.07 0.38,0.23 0.03,0.2 -0.09,0.35 -0.25,0.38 -0.4,0.08 -0.57,-0.52 -0.13,-0.61zm3.04 0.27c0.08,-0.29 0.15,-0.6 -0.02,-0.83 -0.05,-0.08 -0.19,-0.2 -0.27,-0.25 -0.24,-0.16 -0.28,-0.09 -0.5,0.08 -0.34,0.28 -0.83,0.49 -1.29,0.5 -0.65,0.01 -1.07,-0.35 -1.43,-0.61 -0.13,-0.1 -0.25,-0.05 -0.4,0.01 -0.14,0.06 -0.21,0.1 -0.24,0.26 -0.03,0.1 -0.09,0.33 -0.08,0.43 0.01,0.16 0.07,0.28 0.06,0.45l-0.35 0.05c-0.1,0.18 0.04,0.47 0.08,0.65 0.03,0.11 0.06,0.21 0.14,0.25 0.09,0.05 0.24,0.05 0.36,0.05 0.07,0.24 0.14,0.38 0.26,0.56 0.09,0.12 0.28,0.35 0.39,0.44 0.16,0.14 0.29,0.23 0.52,0.3 0.22,0.07 0.48,0.09 0.72,0.1 0.56,0.01 0.89,-0.18 1.23,-0.42 0.12,-0.09 0.31,-0.3 0.4,-0.42 0.19,-0.29 0.15,-0.31 0.26,-0.56 0.19,0 0.32,0.04 0.41,-0.1 0.09,-0.12 0.06,-0.26 0.11,-0.41 0.03,-0.1 0.13,-0.32 0.03,-0.4 -0.09,-0.06 -0.3,-0.06 -0.39,-0.13z"/>
    <path class="fil2" d="M10.16 6.73c-0.62,0.14 -0.4,1.02 0.19,0.9 0.23,-0.05 0.43,-0.26 0.37,-0.54 -0.04,-0.22 -0.28,-0.42 -0.56,-0.36z"/>
    <path class="fil3" d="M6.29 6.14c-0.31,-0.01 -0.57,-0.05 -0.74,-0.31 -0.06,0.03 -0.19,0.14 -0.22,0.19 0.04,0.1 0.26,0.26 0.36,0.31 0.35,0.16 0.75,0.14 1.09,-0.04 0.11,-0.06 0.33,-0.2 0.36,-0.32 -0.05,-0.04 -0.14,-0.07 -0.18,-0.17 -0.04,0.02 -0.12,0.08 -0.15,0.11 -0.05,0.03 -0.09,0.07 -0.14,0.1 -0.11,0.07 -0.23,0.13 -0.38,0.13z"/>
    <polygon class="fil3" points="3.07,11.34 3.35,11.34 3.35,10.14 3.07,10.14 "/>
    <polygon class="fil3" points="9.32,11.31 9.56,11.31 9.6,11.31 9.6,10.16 9.56,10.16 9.32,10.16 "/>
    <path class="fil3" d="M6.93 4.35c-0.18,0.04 -0.3,0.15 -0.25,0.37 0.04,0.16 0.18,0.28 0.38,0.24 0.38,-0.08 0.33,-0.7 -0.13,-0.61z"/>
    <path class="fil3" d="M5.25 4.35c-0.44,0.09 -0.27,0.69 0.13,0.61 0.16,-0.03 0.28,-0.18 0.25,-0.38 -0.02,-0.16 -0.19,-0.26 -0.38,-0.23z"/>
    <path class="fil3 str2" d="M8.29 4.62c0.09,0.07 0.3,0.07 0.39,0.13 0.1,0.08 0,0.3 -0.03,0.4 -0.05,0.15 -0.02,0.29 -0.11,0.41 -0.09,0.14 -0.22,0.1 -0.41,0.1 -0.11,0.25 -0.07,0.27 -0.26,0.56 -0.09,0.12 -0.28,0.33 -0.4,0.42 -0.34,0.24 -0.67,0.43 -1.23,0.42 -0.24,-0.01 -0.5,-0.03 -0.72,-0.1 -0.23,-0.07 -0.36,-0.16 -0.52,-0.3 -0.11,-0.09 -0.3,-0.32 -0.39,-0.44 -0.12,-0.18 -0.19,-0.32 -0.26,-0.56 -0.12,0 -0.27,0 -0.36,-0.05 -0.08,-0.04 -0.11,-0.14 -0.14,-0.25 -0.04,-0.18 -0.18,-0.47 -0.08,-0.65l0.35 -0.05c0.01,-0.17 -0.05,-0.29 -0.06,-0.45 -0.01,-0.1 0.05,-0.33 0.08,-0.43 0.03,-0.16 0.1,-0.2 0.24,-0.26 0.15,-0.06 0.27,-0.11 0.4,-0.01 0.36,0.26 0.78,0.62 1.43,0.61 0.46,-0.01 0.95,-0.22 1.29,-0.5 0.22,-0.17 0.26,-0.24 0.5,-0.08 0.08,0.05 0.22,0.17 0.27,0.25 0.17,0.23 0.1,0.54 0.02,0.83zm-3.07 -3.21c-0.44,0.19 -0.82,0.56 -1.04,0.87 -0.19,0.25 -0.34,0.46 -0.41,0.89 -0.04,0.2 -0.04,0.42 -0.04,0.62 0,0.23 0.05,0.4 0.06,0.61 -0.18,0.03 -0.26,0.09 -0.3,0.25 -0.06,0.17 -0.04,0.33 0,0.5 0.22,1.03 0.55,0.6 0.73,0.95 0.08,0.18 0.06,0.18 0.2,0.36l0.26 0.3c0.08,0.09 0.17,0.19 0.31,0.24 0,0.12 0.01,0.63 0,0.73 -0.01,0.08 -0.05,0.1 -0.14,0.11 -0.4,0.04 -1.23,0.21 -1.68,0.29 -0.29,0.05 -0.53,0.1 -0.78,0.2 -0.13,0.06 -0.21,0.1 -0.32,0.17 -0.29,0.21 -0.51,0.54 -0.6,0.88 -0.06,0.23 -0.03,0.71 -0.03,0.97 0,0.33 -0.01,0.66 0,0.99 0.2,0 0.29,0.03 0.31,-0.09l0 -1.19c0,-0.47 -0.01,-0.92 0.38,-1.22 0.18,-0.14 0.28,-0.21 0.51,-0.29 0.42,-0.14 0.9,-0.19 1.34,-0.27 0.22,-0.04 0.47,-0.1 0.7,-0.1 0.03,0.25 0.04,0.36 0.16,0.56 0.18,0.31 0.48,0.53 0.8,0.66 0.16,0.06 0.42,0.13 0.61,0.12 0.7,-0.02 1.59,-0.59 1.6,-1.34l1.73 0.29c0.6,0.08 1.15,0.5 1.19,1.11 0.01,0.58 0.03,1.16 0.04,1.73l0.28 0.03 0 -1.75c-0.11,-0.7 -0.47,-1.25 -1.58,-1.44 -0.57,-0.1 -1.15,-0.2 -1.73,-0.3 -0.19,-0.04 -0.26,-0.05 -0.24,-0.26 0,-0.2 0,-0.46 0,-0.65 0.12,-0.08 0.22,-0.17 0.32,-0.27 0.13,-0.11 0.41,-0.45 0.46,-0.7 0.52,-0.01 0.52,-0.39 0.6,-0.7 0.03,-0.09 0.07,-0.15 0.09,-0.24 0.02,-0.09 0.01,-0.2 -0.01,-0.29 -0.06,-0.17 -0.17,-0.26 -0.34,-0.31 0,-0.62 0.1,-0.92 -0.11,-1.5 -0.14,-0.42 -0.26,-0.62 -0.54,-0.91 -0.12,-0.13 -0.12,-0.11 -0.22,-0.2 -0.09,-0.09 -0.25,-0.19 -0.37,-0.26 -0.44,-0.27 -0.83,-0.34 -1.36,-0.32 -0.19,0.01 -0.51,0.04 -0.84,0.17zm-0.78 1.04c0.25,-0.27 0.49,-0.57 1,-0.8 0.18,-0.08 0.26,-0.1 0.5,-0.11 0.36,-0.03 0.76,0.02 1.09,0.15 0.25,0.09 0.39,0.2 0.57,0.35 0.22,0.19 0.26,0.22 0.44,0.49 0.1,0.15 0.36,0.68 0.33,0.91 -0.11,-0.07 -0.33,-0.22 -0.48,-0.27 -0.12,-0.05 -0.21,-0.04 -0.3,0.02 -0.08,0.06 -0.15,0.11 -0.22,0.17 -0.75,0.55 -1.4,0.67 -2.23,0.04 -0.08,-0.06 -0.14,-0.1 -0.22,-0.16 -0.1,-0.07 -0.15,-0.11 -0.3,-0.09 -0.32,0.02 -0.43,0.17 -0.58,0.21 0.02,-0.41 0.29,-0.77 0.4,-0.91zm1.79 6.77c0.05,0 0.11,0 0.16,-0.01 0.06,0 0.13,-0.02 0.19,-0.03 0.53,-0.08 0.99,-0.57 0.99,-1.06 -0.23,-0.08 -0.33,-0.21 -0.32,-0.42l0.01 -0.6 0 0c-0.03,0.02 -0.06,0.03 -0.09,0.05 -0.26,0.12 -0.61,0.21 -0.94,0.22 -0.26,0.01 -0.52,-0.02 -0.76,-0.11 -0.07,-0.03 -0.14,-0.07 -0.2,-0.09 -0.01,0.21 0.03,0.44 0.01,0.64 -0.02,0.18 -0.17,0.25 -0.32,0.31 0.01,0.57 0.53,1 0.99,1.07 0.14,0.02 0.22,0.03 0.28,0.03z"/>
   </g>
   <g>
    <polygon class="fil4 str3" points="22.72,2.04 20.4,2.06 20.96,1.27 22.23,1.28 "/>
    <rect class="fil5 str3" x="13.51" y="2.05" width="9.61" height="9.21"/>
    <line class="fil6 str4" x1="14.14" y1="3.38" x2="22.11" y2= "3.32" />
    <line class="fil6 str4" x1="14.14" y1="5.1" x2="22.11" y2= "5.04" />
    <line class="fil6 str4" x1="14.14" y1="6.82" x2="22.11" y2= "6.77" />
    <line class="fil6 str4" x1="14.14" y1="8.55" x2="22.11" y2= "8.49" />
    <line class="fil6 str4" x1="14.14" y1="10.27" x2="22.11" y2= "10.22" />
   </g>
  </g>
 </g>
</svg>
