<?xml version="1.0" encoding="UTF-8"?>
<!DOCTYPE svg PUBLIC "-//W3C//DTD SVG 1.1//EN" "http://www.w3.org/Graphics/SVG/1.1/DTD/svg11.dtd">
<!-- Creator: CorelDRAW 2021 (64 Bit) -->
<svg xmlns="http://www.w3.org/2000/svg" xml:space="preserve" width="725px" height="375px" version="1.1" style="shape-rendering:geometricPrecision; text-rendering:geometricPrecision; image-rendering:optimizeQuality; fill-rule:evenodd; clip-rule:evenodd"
viewBox="0 0 25 12.93"
 xmlns:xlink="http://www.w3.org/1999/xlink"
 xmlns:xodm="http://www.corel.com/coreldraw/odm/2003">
 <defs>
  <style type="text/css">
   <![CDATA[
    .str3 {stroke:black;stroke-width:0.07;stroke-miterlimit:22.9256}
    .str1 {stroke:#B8B4B6;stroke-width:0.86;stroke-miterlimit:22.9256}
    .str0 {stroke:black;stroke-width:0.03;stroke-miterlimit:22.9256}
    .str2 {stroke:#FF9933;stroke-width:0.03;stroke-miterlimit:22.9256}
    .fil7 {fill:none}
    .fil1 {fill:black}
    .fil6 {fill:#CCCCCC}
    .fil4 {fill:#E6E6E6}
    .fil3 {fill:#FF9933}
    .fil5 {fill:#FFFF99}
    .fil0 {fill:white}
    .fil2 {fill:white}
   ]]>
  </style>
 </defs>
 <g id="Camada_x0020_1">
  <metadata id="CorelCorpID_0Corel-Layer"/>
  <g id="_2713740500800">
   <g>
    <path class="fil0" d="M6.57 5.93c0.15,0 0.28,-0.05 0.38,-0.12 0.05,-0.03 0.09,-0.07 0.14,-0.11 0.03,-0.02 0.11,-0.09 0.15,-0.1 0.04,0.1 0.14,0.13 0.18,0.16 -0.03,0.13 -0.25,0.27 -0.36,0.33 -0.34,0.18 -0.73,0.2 -1.09,0.03 -0.1,-0.04 -0.32,-0.2 -0.36,-0.3 0.04,-0.05 0.16,-0.16 0.23,-0.19 0.16,0.26 0.43,0.3 0.73,0.3zm0.64 -1.78c0.46,-0.09 0.51,0.53 0.14,0.6 -0.2,0.04 -0.35,-0.08 -0.38,-0.23 -0.06,-0.22 0.06,-0.34 0.24,-0.37zm-1.68 0c0.19,-0.04 0.36,0.06 0.38,0.23 0.03,0.2 -0.09,0.34 -0.24,0.37 -0.41,0.08 -0.58,-0.52 -0.14,-0.6zm3.05 0.26c0.07,-0.28 0.14,-0.6 -0.02,-0.83 -0.06,-0.07 -0.2,-0.19 -0.27,-0.24 -0.24,-0.16 -0.29,-0.09 -0.5,0.08 -0.35,0.27 -0.84,0.49 -1.3,0.49 -0.64,0.01 -1.07,-0.35 -1.43,-0.61 -0.13,-0.09 -0.25,-0.05 -0.39,0.01 -0.14,0.06 -0.21,0.1 -0.25,0.26 -0.02,0.11 -0.08,0.34 -0.07,0.44 0.01,0.15 0.06,0.28 0.06,0.44l-0.36 0.05c-0.09,0.18 0.04,0.48 0.09,0.65 0.03,0.11 0.05,0.21 0.14,0.26 0.09,0.04 0.24,0.04 0.35,0.05 0.08,0.24 0.14,0.38 0.27,0.56 0.08,0.12 0.28,0.35 0.38,0.43 0.17,0.14 0.3,0.23 0.52,0.31 0.22,0.07 0.48,0.09 0.73,0.09 0.56,0.01 0.89,-0.17 1.22,-0.42 0.12,-0.08 0.32,-0.29 0.4,-0.42 0.2,-0.28 0.16,-0.3 0.26,-0.55 0.19,0 0.33,0.03 0.42,-0.1 0.08,-0.13 0.05,-0.26 0.1,-0.41 0.03,-0.1 0.14,-0.33 0.03,-0.4 -0.09,-0.07 -0.29,-0.07 -0.38,-0.14z"/>
    <path class="fil0" d="M10.45 6.53c-0.63,0.13 -0.41,1.02 0.19,0.89 0.22,-0.04 0.42,-0.25 0.36,-0.53 -0.04,-0.23 -0.27,-0.43 -0.55,-0.36z"/>
    <path class="fil1" d="M6.57 5.93c-0.3,0 -0.57,-0.04 -0.73,-0.3 -0.07,0.03 -0.19,0.14 -0.23,0.19 0.04,0.1 0.26,0.26 0.36,0.3 0.36,0.17 0.75,0.15 1.09,-0.03 0.11,-0.06 0.33,-0.2 0.36,-0.33 -0.04,-0.03 -0.14,-0.06 -0.18,-0.16 -0.04,0.01 -0.12,0.08 -0.15,0.1 -0.05,0.04 -0.09,0.08 -0.14,0.11 -0.1,0.07 -0.23,0.12 -0.38,0.12z"/>
    <polygon class="fil1" points="3.35,11.14 3.63,11.14 3.63,9.93 3.35,9.93 "/>
    <polygon class="fil1" points="9.6,11.11 9.84,11.11 9.88,11.11 9.88,9.96 9.84,9.96 9.6,9.96 "/>
    <path class="fil1" d="M7.21 4.15c-0.18,0.03 -0.3,0.15 -0.24,0.37 0.03,0.15 0.18,0.27 0.38,0.23 0.37,-0.07 0.32,-0.69 -0.14,-0.6z"/>
    <path class="fil1" d="M5.53 4.15c-0.44,0.08 -0.27,0.68 0.14,0.6 0.15,-0.03 0.27,-0.17 0.24,-0.37 -0.02,-0.17 -0.19,-0.27 -0.38,-0.23z"/>
    <path class="fil1 str0" d="M8.58 4.41c0.09,0.07 0.29,0.07 0.38,0.14 0.11,0.07 0,0.3 -0.03,0.4 -0.05,0.15 -0.02,0.28 -0.1,0.41 -0.09,0.13 -0.23,0.1 -0.42,0.1 -0.1,0.25 -0.06,0.27 -0.26,0.55 -0.08,0.13 -0.28,0.34 -0.4,0.42 -0.33,0.25 -0.66,0.43 -1.22,0.42 -0.25,0 -0.51,-0.02 -0.73,-0.09 -0.22,-0.08 -0.35,-0.17 -0.52,-0.31 -0.1,-0.08 -0.3,-0.31 -0.38,-0.43 -0.13,-0.18 -0.19,-0.32 -0.27,-0.56 -0.11,-0.01 -0.26,-0.01 -0.35,-0.05 -0.09,-0.05 -0.11,-0.15 -0.14,-0.26 -0.05,-0.17 -0.18,-0.47 -0.09,-0.65l0.36 -0.05c0,-0.16 -0.05,-0.29 -0.06,-0.44 -0.01,-0.1 0.05,-0.33 0.07,-0.44 0.04,-0.16 0.11,-0.2 0.25,-0.26 0.14,-0.06 0.26,-0.1 0.39,-0.01 0.36,0.26 0.79,0.62 1.43,0.61 0.46,0 0.95,-0.22 1.3,-0.49 0.21,-0.17 0.26,-0.24 0.5,-0.08 0.07,0.05 0.21,0.17 0.27,0.24 0.16,0.23 0.09,0.55 0.02,0.83zm-3.08 -3.2c-0.44,0.19 -0.82,0.55 -1.04,0.86 -0.19,0.26 -0.34,0.47 -0.41,0.9 -0.03,0.19 -0.03,0.41 -0.03,0.62 -0.01,0.23 0.05,0.4 0.05,0.61 -0.18,0.02 -0.25,0.09 -0.3,0.25 -0.05,0.17 -0.04,0.33 0,0.5 0.22,1.02 0.55,0.59 0.73,0.95 0.08,0.17 0.06,0.18 0.2,0.36l0.26 0.3c0.08,0.08 0.17,0.18 0.31,0.24 0.01,0.12 0.02,0.63 0,0.73 -0.01,0.08 -0.05,0.1 -0.13,0.11 -0.41,0.04 -1.24,0.2 -1.69,0.28 -0.29,0.05 -0.53,0.1 -0.78,0.21 -0.12,0.05 -0.21,0.1 -0.31,0.17 -0.3,0.2 -0.52,0.53 -0.61,0.88 -0.06,0.22 -0.03,0.71 -0.03,0.97 0,0.33 0,0.66 0,0.99 0.2,0 0.29,0.03 0.31,-0.1l0 -1.18c0,-0.47 -0.01,-0.93 0.38,-1.22 0.18,-0.14 0.28,-0.21 0.51,-0.29 0.43,-0.14 0.9,-0.19 1.34,-0.27 0.23,-0.04 0.47,-0.1 0.7,-0.11 0.04,0.26 0.05,0.37 0.16,0.57 0.19,0.3 0.48,0.53 0.81,0.66 0.15,0.06 0.41,0.13 0.61,0.11 0.69,-0.01 1.59,-0.58 1.6,-1.34l1.73 0.29c0.6,0.09 1.14,0.5 1.19,1.12 0.01,0.58 0.02,1.15 0.04,1.73l0.28 0.03 0 -1.75c-0.12,-0.71 -0.48,-1.25 -1.58,-1.44 -0.58,-0.1 -1.16,-0.2 -1.74,-0.3 -0.19,-0.04 -0.26,-0.05 -0.24,-0.27 0,-0.19 0,-0.45 0,-0.64 0.12,-0.08 0.23,-0.17 0.33,-0.27 0.12,-0.12 0.41,-0.46 0.45,-0.71 0.52,-0.01 0.53,-0.39 0.61,-0.69 0.02,-0.09 0.07,-0.15 0.08,-0.24 0.02,-0.1 0.02,-0.2 -0.01,-0.29 -0.05,-0.17 -0.17,-0.26 -0.34,-0.32 0,-0.61 0.1,-0.91 -0.1,-1.5 -0.15,-0.41 -0.26,-0.61 -0.54,-0.91 -0.12,-0.13 -0.12,-0.11 -0.22,-0.2 -0.1,-0.08 -0.26,-0.19 -0.37,-0.26 -0.45,-0.27 -0.84,-0.33 -1.37,-0.31 -0.18,0 -0.51,0.03 -0.84,0.17zm-0.77 1.03c0.24,-0.26 0.48,-0.56 1,-0.79 0.17,-0.08 0.25,-0.11 0.5,-0.12 0.35,-0.03 0.76,0.02 1.08,0.15 0.26,0.1 0.39,0.21 0.57,0.36 0.22,0.18 0.26,0.21 0.45,0.49 0.09,0.15 0.35,0.68 0.32,0.91 -0.1,-0.08 -0.33,-0.22 -0.47,-0.28 -0.12,-0.05 -0.21,-0.04 -0.31,0.03 -0.08,0.05 -0.15,0.11 -0.22,0.16 -0.75,0.55 -1.4,0.68 -2.23,0.05 -0.07,-0.06 -0.14,-0.11 -0.22,-0.17 -0.1,-0.06 -0.15,-0.1 -0.3,-0.09 -0.32,0.03 -0.43,0.17 -0.58,0.21 0.02,-0.41 0.29,-0.76 0.41,-0.91zm1.78 6.78c0.06,0 0.11,-0.01 0.16,-0.01 0.06,0 0.14,-0.02 0.19,-0.03 0.53,-0.09 0.99,-0.57 0.99,-1.06 -0.22,-0.08 -0.33,-0.22 -0.32,-0.42l0.02 -0.6 0 0c-0.03,0.01 -0.06,0.03 -0.09,0.04 -0.26,0.13 -0.61,0.22 -0.94,0.23 -0.27,0.01 -0.52,-0.03 -0.77,-0.12 -0.06,-0.02 -0.14,-0.06 -0.19,-0.08 -0.01,0.21 0.02,0.44 0,0.64 -0.02,0.18 -0.17,0.25 -0.31,0.31 0.01,0.57 0.53,1 0.99,1.07 0.14,0.02 0.21,0.03 0.27,0.03z"/>
   </g>
   <rect class="fil2 str1" x="0.43" y="0.43" width="24.14" height="12.07" rx="1.12" ry="1.03"/>
   <g>
    <path class="fil3 str2" d="M2.2 9.97l0 1.6 1.32 0 0 -1.21 0.27 0 0.01 1.21 5.97 -0.03 0 -1.15 0.28 0 0 1.15 1.21 0 -0.04 -1.73c-0.06,-0.6 -0.46,-0.93 -1.08,-1.1l-1.84 -0.31c-0.12,0.8 -0.67,1.23 -1.6,1.34 -0.86,-0.04 -1.4,-0.46 -1.57,-1.34l-1.81 0.31c-0.75,0.19 -1.11,0.61 -1.12,1.26z"/>
    <g>
     <path class="fil0" d="M6.73 6.37c0.15,0 0.28,-0.06 0.38,-0.12 0.05,-0.04 0.09,-0.08 0.14,-0.11 0.03,-0.03 0.11,-0.09 0.15,-0.11 0.04,0.1 0.14,0.13 0.18,0.17 -0.03,0.12 -0.25,0.27 -0.36,0.32 -0.34,0.18 -0.73,0.21 -1.09,0.04 -0.1,-0.05 -0.32,-0.2 -0.36,-0.31 0.04,-0.04 0.16,-0.16 0.23,-0.19 0.16,0.26 0.43,0.3 0.73,0.31zm0.64 -1.79c0.46,-0.08 0.51,0.53 0.14,0.61 -0.2,0.04 -0.35,-0.08 -0.38,-0.24 -0.06,-0.21 0.06,-0.33 0.24,-0.37zm-1.68 0c0.19,-0.03 0.36,0.07 0.38,0.23 0.03,0.2 -0.09,0.35 -0.24,0.38 -0.41,0.08 -0.58,-0.52 -0.14,-0.61zm3.05 0.27c0.07,-0.29 0.14,-0.6 -0.02,-0.83 -0.06,-0.08 -0.2,-0.2 -0.27,-0.25 -0.24,-0.16 -0.29,-0.09 -0.5,0.08 -0.35,0.28 -0.84,0.49 -1.3,0.5 -0.64,0.01 -1.07,-0.35 -1.43,-0.61 -0.13,-0.1 -0.25,-0.05 -0.39,0.01 -0.14,0.06 -0.21,0.1 -0.25,0.26 -0.02,0.1 -0.08,0.33 -0.07,0.43 0.01,0.16 0.06,0.28 0.06,0.45l-0.36 0.05c-0.09,0.18 0.04,0.47 0.09,0.65 0.03,0.11 0.05,0.21 0.14,0.25 0.09,0.05 0.24,0.05 0.35,0.05 0.08,0.24 0.14,0.39 0.27,0.56 0.08,0.12 0.28,0.35 0.38,0.44 0.17,0.14 0.3,0.23 0.52,0.3 0.22,0.07 0.48,0.09 0.73,0.1 0.56,0.01 0.89,-0.18 1.22,-0.42 0.12,-0.09 0.32,-0.3 0.4,-0.42 0.2,-0.29 0.16,-0.3 0.26,-0.56 0.19,0 0.33,0.04 0.42,-0.09 0.08,-0.13 0.05,-0.27 0.1,-0.41 0.03,-0.11 0.14,-0.33 0.03,-0.41 -0.09,-0.06 -0.29,-0.06 -0.38,-0.13z"/>
     <path class="fil0" d="M10.61 6.96c-0.63,0.14 -0.41,1.02 0.19,0.9 0.22,-0.05 0.42,-0.26 0.36,-0.54 -0.04,-0.22 -0.27,-0.42 -0.55,-0.36z"/>
     <path class="fil1" d="M6.73 6.37c-0.3,-0.01 -0.57,-0.05 -0.73,-0.31 -0.07,0.03 -0.19,0.15 -0.23,0.19 0.04,0.11 0.26,0.26 0.36,0.31 0.36,0.17 0.75,0.14 1.09,-0.04 0.11,-0.05 0.33,-0.2 0.36,-0.32 -0.04,-0.04 -0.14,-0.07 -0.18,-0.17 -0.04,0.02 -0.12,0.08 -0.15,0.11 -0.05,0.03 -0.09,0.07 -0.14,0.11 -0.1,0.06 -0.23,0.12 -0.38,0.12z"/>
     <polygon class="fil1" points="3.51,11.57 3.79,11.57 3.79,10.37 3.51,10.37 "/>
     <polygon class="fil1" points="9.76,11.54 10,11.54 10.04,11.54 10.04,10.4 10,10.4 9.76,10.4 "/>
     <path class="fil1" d="M7.37 4.58c-0.18,0.04 -0.3,0.16 -0.24,0.37 0.03,0.16 0.18,0.28 0.38,0.24 0.37,-0.08 0.32,-0.69 -0.14,-0.61z"/>
     <path class="fil1" d="M5.69 4.58c-0.44,0.09 -0.27,0.69 0.14,0.61 0.15,-0.03 0.27,-0.18 0.24,-0.38 -0.02,-0.16 -0.19,-0.26 -0.38,-0.23z"/>
     <path class="fil1 str0" d="M8.74 4.85c0.09,0.07 0.29,0.07 0.38,0.13 0.11,0.08 0,0.3 -0.03,0.41 -0.05,0.14 -0.02,0.28 -0.1,0.41 -0.09,0.13 -0.23,0.09 -0.42,0.09 -0.1,0.26 -0.06,0.27 -0.26,0.56 -0.08,0.12 -0.28,0.33 -0.4,0.42 -0.33,0.24 -0.66,0.43 -1.22,0.42 -0.25,-0.01 -0.51,-0.03 -0.73,-0.1 -0.22,-0.07 -0.35,-0.16 -0.52,-0.3 -0.1,-0.09 -0.3,-0.32 -0.38,-0.44 -0.13,-0.17 -0.19,-0.32 -0.27,-0.56 -0.11,0 -0.26,0 -0.35,-0.05 -0.09,-0.04 -0.11,-0.14 -0.14,-0.25 -0.05,-0.18 -0.18,-0.47 -0.09,-0.65l0.36 -0.05c0,-0.17 -0.05,-0.29 -0.06,-0.45 -0.01,-0.1 0.05,-0.33 0.07,-0.43 0.04,-0.16 0.11,-0.2 0.25,-0.26 0.14,-0.06 0.26,-0.11 0.39,-0.01 0.36,0.26 0.79,0.62 1.43,0.61 0.46,-0.01 0.95,-0.22 1.3,-0.5 0.21,-0.17 0.26,-0.24 0.5,-0.08 0.07,0.05 0.21,0.17 0.27,0.25 0.16,0.23 0.09,0.54 0.02,0.83zm-3.08 -3.21c-0.44,0.19 -0.82,0.56 -1.04,0.87 -0.19,0.25 -0.34,0.46 -0.41,0.89 -0.03,0.2 -0.03,0.42 -0.03,0.62 -0.01,0.23 0.05,0.4 0.05,0.61 -0.18,0.03 -0.25,0.09 -0.3,0.25 -0.05,0.17 -0.04,0.34 0,0.5 0.22,1.03 0.55,0.6 0.73,0.95 0.08,0.18 0.06,0.18 0.2,0.36l0.26 0.3c0.08,0.09 0.17,0.19 0.31,0.25 0.01,0.12 0.02,0.62 0,0.72 -0.01,0.08 -0.05,0.1 -0.13,0.11 -0.41,0.04 -1.24,0.21 -1.69,0.29 -0.29,0.05 -0.53,0.1 -0.78,0.21 -0.13,0.05 -0.21,0.1 -0.31,0.17 -0.3,0.2 -0.52,0.53 -0.61,0.88 -0.06,0.22 -0.03,0.71 -0.03,0.96 0,0.33 0,0.66 0,0.99 0.2,0 0.29,0.04 0.31,-0.09l0 -1.19c0,-0.46 -0.01,-0.92 0.38,-1.22 0.18,-0.14 0.28,-0.2 0.51,-0.28 0.43,-0.15 0.9,-0.19 1.34,-0.28 0.23,-0.04 0.47,-0.1 0.7,-0.1 0.04,0.25 0.05,0.36 0.16,0.56 0.19,0.31 0.48,0.53 0.81,0.66 0.15,0.07 0.41,0.14 0.61,0.12 0.69,-0.02 1.59,-0.59 1.6,-1.34l1.73 0.29c0.6,0.08 1.14,0.5 1.19,1.11 0.01,0.58 0.02,1.16 0.04,1.74l0.28 0.02 0 -1.74c-0.12,-0.71 -0.48,-1.26 -1.58,-1.44 -0.58,-0.11 -1.16,-0.21 -1.74,-0.31 -0.19,-0.03 -0.26,-0.05 -0.24,-0.26 0,-0.19 0,-0.46 0,-0.65 0.12,-0.08 0.23,-0.17 0.33,-0.26 0.12,-0.12 0.41,-0.46 0.45,-0.71 0.52,-0.01 0.53,-0.39 0.61,-0.7 0.02,-0.09 0.07,-0.15 0.08,-0.24 0.02,-0.09 0.02,-0.2 -0.01,-0.28 -0.05,-0.18 -0.17,-0.27 -0.34,-0.32 0,-0.62 0.1,-0.92 -0.1,-1.5 -0.15,-0.42 -0.26,-0.62 -0.54,-0.91 -0.12,-0.13 -0.12,-0.11 -0.22,-0.2 -0.1,-0.09 -0.26,-0.19 -0.37,-0.26 -0.45,-0.27 -0.84,-0.34 -1.37,-0.32 -0.18,0.01 -0.51,0.04 -0.84,0.17zm-0.77 1.04c0.24,-0.27 0.48,-0.57 1,-0.8 0.17,-0.08 0.25,-0.1 0.5,-0.12 0.35,-0.02 0.76,0.03 1.08,0.16 0.26,0.09 0.39,0.2 0.57,0.35 0.22,0.19 0.26,0.22 0.45,0.49 0.09,0.15 0.35,0.68 0.32,0.92 -0.1,-0.08 -0.33,-0.23 -0.47,-0.28 -0.12,-0.05 -0.21,-0.04 -0.31,0.02 -0.08,0.06 -0.15,0.11 -0.22,0.17 -0.75,0.55 -1.4,0.67 -2.23,0.04 -0.07,-0.06 -0.14,-0.1 -0.22,-0.16 -0.1,-0.07 -0.15,-0.11 -0.3,-0.09 -0.32,0.02 -0.43,0.17 -0.58,0.21 0.02,-0.41 0.29,-0.77 0.41,-0.91zm1.78 6.77c0.06,0 0.11,0 0.16,-0.01 0.06,0 0.14,-0.02 0.19,-0.02 0.53,-0.09 0.99,-0.57 0.99,-1.07 -0.22,-0.07 -0.33,-0.21 -0.32,-0.41l0.02 -0.61 0 0c-0.03,0.02 -0.06,0.03 -0.09,0.05 -0.26,0.12 -0.61,0.21 -0.94,0.22 -0.27,0.01 -0.52,-0.02 -0.77,-0.11 -0.06,-0.02 -0.14,-0.07 -0.19,-0.08 -0.01,0.2 0.02,0.43 0,0.63 -0.02,0.18 -0.17,0.25 -0.31,0.31 0.01,0.57 0.53,1 0.99,1.07 0.14,0.02 0.21,0.03 0.27,0.03z"/>
    </g>
   </g>
   <g>
    <polygon class="fil4 str3" points="22.76,1.83 21.57,1.84 21.85,1.42 22.51,1.42 "/>
    <rect class="fil3 str3" x="16.85" y="1.83" width="6.11" height="4.94"/>
    <g>
     <g>
      <rect class="fil5 str3" x="13.09" y="5.96" width="6.11" height="4.1"/>
      <polygon class="fil6 str3" points="17.96,5.95 16.77,5.95 17.06,5.77 17.71,5.78 "/>
     </g>
     <g>
      <polygon class="fil6 str3" points="16.85,6.41 15.66,6.41 15.95,6.24 16.6,6.24 "/>
      <rect class="fil5 str3" x="12.83" y="6.42" width="6.11" height="4.08"/>
     </g>
     <g>
      <rect class="fil5 str3" x="12.59" y="6.89" width="6.11" height="4.15"/>
      <polygon class="fil7 str3" points="15.41,6.87 14.22,6.87 14.51,6.7 15.16,6.7 "/>
      <polygon class="fil6 str3" points="15.41,6.87 14.22,6.87 14.51,6.7 15.16,6.7 "/>
     </g>
     <g>
      <rect class="fil5 str3" x="12.36" y="7.34" width="6.11" height="4.09"/>
      <polygon class="fil6 str3" points="13.94,7.33 12.74,7.33 13.03,7.16 13.68,7.16 "/>
     </g>
    </g>
   </g>
  </g>
 </g>
</svg>
