<?xml version="1.0" encoding="UTF-8"?>
<!DOCTYPE svg PUBLIC "-//W3C//DTD SVG 1.1//EN" "http://www.w3.org/Graphics/SVG/1.1/DTD/svg11.dtd">
<!-- Creator: CorelDRAW 2021 (64 Bit) -->
<svg xmlns="http://www.w3.org/2000/svg" xml:space="preserve" width="725px" height="375px" version="1.1" style="shape-rendering:geometricPrecision; text-rendering:geometricPrecision; image-rendering:optimizeQuality; fill-rule:evenodd; clip-rule:evenodd"
viewBox="0 0 25.01 12.94"
 xmlns:xlink="http://www.w3.org/1999/xlink"
 xmlns:xodm="http://www.corel.com/coreldraw/odm/2003">
 <defs>
  <style type="text/css">
   <![CDATA[
    .str5 {stroke:black;stroke-width:1.03;stroke-miterlimit:22.9256}
    .str3 {stroke:black;stroke-width:0.52;stroke-miterlimit:22.9256}
    .str4 {stroke:black;stroke-width:0.07;stroke-miterlimit:22.9256}
    .str6 {stroke:#030303;stroke-width:0.07;stroke-miterlimit:22.9256}
    .str0 {stroke:#B8B4B6;stroke-width:0.86;stroke-miterlimit:22.9256}
    .str2 {stroke:black;stroke-width:0.03;stroke-miterlimit:22.9256}
    .str1 {stroke:yellow;stroke-width:0.03;stroke-miterlimit:22.9256}
    .str7 {stroke:#030303;stroke-width:0.52;stroke-linecap:round;stroke-miterlimit:22.9256}
    .fil4 {fill:none}
    .fil3 {fill:black}
    .fil1 {fill:#99FFFF}
    .fil2 {fill:white}
    .fil0 {fill:white}
   ]]>
  </style>
 </defs>
 <g id="Camada_x0020_1">
  <metadata id="CorelCorpID_0Corel-Layer"/>
  <g id="_2713765094432">
   <g>
    <rect class="fil0 str0" x="0.43" y="0.43" width="24.15" height="12.07" rx="1.12" ry="1.03"/>
    <path class="fil1 str1" d="M1.99 9.85l0 1.6 1.32 0 0 -1.21 0.28 0 0 1.21 5.97 -0.03 0 -1.15 0.28 0 0 1.15 1.22 0 -0.05 -1.73c-0.05,-0.6 -0.46,-0.94 -1.08,-1.1l-1.84 -0.31c-0.12,0.8 -0.67,1.23 -1.6,1.34 -0.86,-0.04 -1.4,-0.46 -1.57,-1.34l-1.81 0.31c-0.74,0.19 -1.11,0.61 -1.12,1.26z"/>
    <g>
     <path class="fil2" d="M6.54 6.25c0.16,0 0.28,-0.05 0.38,-0.12 0.06,-0.03 0.1,-0.07 0.14,-0.1 0.03,-0.03 0.11,-0.09 0.15,-0.11 0.05,0.1 0.14,0.13 0.19,0.17 -0.04,0.12 -0.26,0.26 -0.36,0.32 -0.35,0.18 -0.74,0.2 -1.1,0.04 -0.1,-0.05 -0.31,-0.21 -0.35,-0.31 0.03,-0.05 0.16,-0.16 0.22,-0.19 0.17,0.26 0.43,0.3 0.73,0.3zm0.64 -1.78c0.46,-0.09 0.51,0.53 0.14,0.6 -0.2,0.05 -0.34,-0.07 -0.38,-0.23 -0.06,-0.22 0.07,-0.34 0.24,-0.37zm-1.68 0c0.19,-0.04 0.36,0.07 0.39,0.23 0.03,0.2 -0.1,0.34 -0.25,0.37 -0.41,0.09 -0.58,-0.52 -0.14,-0.6zm3.05 0.27c0.08,-0.29 0.15,-0.61 -0.02,-0.83 -0.06,-0.08 -0.19,-0.2 -0.27,-0.25 -0.24,-0.16 -0.29,-0.09 -0.5,0.08 -0.35,0.27 -0.83,0.49 -1.29,0.49 -0.65,0.01 -1.07,-0.35 -1.44,-0.61 -0.12,-0.09 -0.25,-0.05 -0.39,0.01 -0.14,0.06 -0.21,0.1 -0.25,0.26 -0.02,0.11 -0.08,0.34 -0.07,0.44 0.01,0.15 0.06,0.28 0.06,0.45l-0.36 0.05c-0.09,0.17 0.04,0.47 0.09,0.64 0.03,0.12 0.05,0.21 0.14,0.26 0.09,0.05 0.24,0.05 0.35,0.05 0.08,0.24 0.14,0.38 0.27,0.56 0.08,0.12 0.28,0.35 0.38,0.43 0.17,0.14 0.3,0.23 0.53,0.31 0.22,0.07 0.47,0.09 0.72,0.1 0.56,0.01 0.89,-0.18 1.23,-0.43 0.11,-0.08 0.31,-0.29 0.4,-0.42 0.19,-0.28 0.15,-0.3 0.26,-0.55 0.18,0 0.32,0.03 0.41,-0.1 0.08,-0.13 0.06,-0.26 0.1,-0.41 0.04,-0.1 0.14,-0.33 0.03,-0.4 -0.08,-0.07 -0.29,-0.06 -0.38,-0.13z"/>
     <path class="fil2" d="M10.42 6.85c-0.63,0.14 -0.4,1.02 0.19,0.9 0.23,-0.05 0.42,-0.26 0.37,-0.54 -0.04,-0.22 -0.28,-0.42 -0.56,-0.36z"/>
     <path class="fil3" d="M6.54 6.25c-0.3,0 -0.56,-0.04 -0.73,-0.3 -0.06,0.03 -0.19,0.14 -0.22,0.19 0.04,0.1 0.25,0.26 0.35,0.31 0.36,0.16 0.75,0.14 1.1,-0.04 0.1,-0.06 0.32,-0.2 0.36,-0.32 -0.05,-0.04 -0.14,-0.07 -0.19,-0.17 -0.04,0.02 -0.12,0.08 -0.15,0.11 -0.04,0.03 -0.08,0.07 -0.14,0.1 -0.1,0.07 -0.22,0.12 -0.38,0.12z"/>
     <polygon class="fil3" points="3.32,11.46 3.6,11.46 3.6,10.26 3.32,10.26 "/>
     <polygon class="fil3" points="9.58,11.43 9.81,11.43 9.86,11.43 9.86,10.28 9.81,10.28 9.58,10.28 "/>
     <path class="fil3" d="M7.18 4.47c-0.17,0.03 -0.3,0.15 -0.24,0.37 0.04,0.16 0.18,0.28 0.38,0.23 0.37,-0.07 0.32,-0.69 -0.14,-0.6z"/>
     <path class="fil3" d="M5.5 4.47c-0.44,0.08 -0.27,0.69 0.14,0.6 0.15,-0.03 0.28,-0.17 0.25,-0.37 -0.03,-0.16 -0.2,-0.27 -0.39,-0.23z"/>
     <path class="fil3 str2" d="M8.55 4.74c0.09,0.07 0.3,0.06 0.38,0.13 0.11,0.07 0.01,0.3 -0.03,0.4 -0.04,0.15 -0.02,0.28 -0.1,0.41 -0.09,0.13 -0.23,0.1 -0.41,0.1 -0.11,0.25 -0.07,0.27 -0.26,0.55 -0.09,0.13 -0.29,0.34 -0.4,0.42 -0.34,0.25 -0.67,0.44 -1.23,0.43 -0.25,-0.01 -0.5,-0.03 -0.72,-0.1 -0.23,-0.08 -0.36,-0.17 -0.53,-0.31 -0.1,-0.08 -0.3,-0.31 -0.38,-0.43 -0.13,-0.18 -0.19,-0.32 -0.27,-0.56 -0.11,0 -0.26,0 -0.35,-0.05 -0.09,-0.05 -0.11,-0.14 -0.14,-0.26 -0.05,-0.17 -0.18,-0.47 -0.09,-0.64l0.36 -0.05c0,-0.17 -0.05,-0.3 -0.06,-0.45 -0.01,-0.1 0.05,-0.33 0.07,-0.44 0.04,-0.16 0.11,-0.2 0.25,-0.26 0.14,-0.06 0.27,-0.1 0.39,-0.01 0.37,0.26 0.79,0.62 1.44,0.61 0.46,0 0.94,-0.22 1.29,-0.49 0.21,-0.17 0.26,-0.24 0.5,-0.08 0.08,0.05 0.21,0.17 0.27,0.25 0.17,0.22 0.1,0.54 0.02,0.83zm-3.08 -3.21c-0.44,0.19 -0.82,0.55 -1.04,0.86 -0.19,0.26 -0.33,0.47 -0.41,0.9 -0.03,0.19 -0.03,0.42 -0.03,0.62 0,0.23 0.05,0.4 0.05,0.61 -0.18,0.03 -0.25,0.09 -0.3,0.25 -0.05,0.17 -0.04,0.33 0,0.5 0.22,1.03 0.55,0.59 0.73,0.95 0.09,0.17 0.06,0.18 0.2,0.36l0.26 0.3c0.08,0.09 0.18,0.18 0.32,0.24 0,0.12 0.01,0.63 -0.01,0.73 -0.01,0.08 -0.05,0.1 -0.13,0.11 -0.41,0.04 -1.24,0.21 -1.69,0.28 -0.29,0.06 -0.53,0.11 -0.78,0.21 -0.12,0.06 -0.21,0.1 -0.31,0.17 -0.3,0.21 -0.52,0.54 -0.61,0.88 -0.06,0.23 -0.03,0.71 -0.03,0.97 0,0.33 0,0.66 0,0.99 0.2,0 0.29,0.03 0.31,-0.09l0 -1.19c0,-0.47 0,-0.92 0.38,-1.22 0.18,-0.14 0.28,-0.21 0.51,-0.29 0.43,-0.14 0.9,-0.19 1.35,-0.27 0.22,-0.04 0.46,-0.1 0.7,-0.1 0.03,0.25 0.04,0.36 0.16,0.56 0.18,0.31 0.47,0.53 0.8,0.66 0.16,0.06 0.41,0.13 0.61,0.12 0.7,-0.02 1.59,-0.59 1.6,-1.34l1.73 0.29c0.6,0.08 1.15,0.5 1.19,1.11 0.01,0.58 0.03,1.16 0.04,1.74l0.28 0.02 0 -1.75c-0.12,-0.7 -0.48,-1.25 -1.58,-1.44 -0.58,-0.1 -1.16,-0.2 -1.74,-0.3 -0.19,-0.04 -0.26,-0.05 -0.24,-0.26 0.01,-0.2 0.01,-0.46 0.01,-0.65 0.12,-0.08 0.22,-0.17 0.32,-0.27 0.12,-0.12 0.41,-0.46 0.46,-0.7 0.52,-0.01 0.52,-0.4 0.6,-0.7 0.02,-0.09 0.07,-0.15 0.09,-0.24 0.02,-0.1 0.01,-0.2 -0.02,-0.29 -0.05,-0.17 -0.16,-0.26 -0.34,-0.32 0.01,-0.61 0.1,-0.91 -0.1,-1.5 -0.14,-0.41 -0.26,-0.61 -0.54,-0.91 -0.12,-0.13 -0.12,-0.11 -0.22,-0.2 -0.1,-0.08 -0.26,-0.19 -0.37,-0.26 -0.45,-0.27 -0.83,-0.33 -1.36,-0.31 -0.19,0.01 -0.52,0.03 -0.85,0.17zm-0.77 1.04c0.24,-0.27 0.48,-0.57 1,-0.8 0.18,-0.08 0.26,-0.11 0.5,-0.12 0.35,-0.03 0.76,0.03 1.08,0.15 0.26,0.1 0.39,0.21 0.57,0.36 0.23,0.18 0.27,0.21 0.45,0.49 0.09,0.15 0.35,0.68 0.33,0.91 -0.11,-0.08 -0.34,-0.22 -0.48,-0.28 -0.12,-0.05 -0.21,-0.04 -0.31,0.03 -0.08,0.05 -0.15,0.11 -0.22,0.16 -0.75,0.55 -1.39,0.68 -2.22,0.05 -0.08,-0.06 -0.15,-0.11 -0.23,-0.17 -0.1,-0.06 -0.15,-0.1 -0.3,-0.09 -0.31,0.03 -0.43,0.17 -0.57,0.21 0.01,-0.4 0.29,-0.76 0.4,-0.9zm1.78 6.77c0.06,0 0.12,0 0.16,-0.01 0.06,0 0.14,-0.02 0.19,-0.03 0.54,-0.08 0.99,-0.57 1,-1.06 -0.23,-0.08 -0.34,-0.21 -0.32,-0.42l0.01 -0.6 0 0c-0.03,0.02 -0.06,0.03 -0.09,0.05 -0.26,0.12 -0.61,0.21 -0.94,0.22 -0.27,0.01 -0.52,-0.02 -0.77,-0.11 -0.06,-0.03 -0.13,-0.07 -0.19,-0.09 -0.01,0.21 0.02,0.44 0,0.64 -0.02,0.18 -0.16,0.25 -0.31,0.31 0.01,0.57 0.53,1 0.99,1.07 0.14,0.02 0.21,0.03 0.27,0.03z"/>
    </g>
   </g>
   <g>
    <rect class="fil4 str3" x="14.28" y="2.16" width="6.98" height="6.26" rx="0.09" ry="0.09"/>
    <rect class="fil3 str4" x="13.11" y="5.66" width="2.79" height="5.43" rx="0.56" ry="0.53"/>
    <line class="fil4 str5" x1="14.44" y1="10.32" x2="21.11" y2= "10.33" />
    <rect class="fil3 str4" x="19.67" y="5.63" width="2.79" height="5.48" rx="0.56" ry="0.54"/>
    <rect class="fil3 str6" x="15.75" y="7.34" width="4.07" height="1.08" rx="0.17" ry="0.22"/>
    <rect class="fil3 str6" x="15.36" y="9.71" width="4.98" height="1.41"/>
    <line class="fil4 str7" x1="15.64" y1="3.02" x2="19.89" y2= "3.02" />
    <line class="fil4 str7" x1="15.64" y1="4.07" x2="19.89" y2= "4.07" />
    <line class="fil4 str7" x1="15.64" y1="5.12" x2="19.89" y2= "5.12" />
   </g>
  </g>
 </g>
</svg>
