<?xml version="1.0" encoding="UTF-8"?>
<!DOCTYPE svg PUBLIC "-//W3C//DTD SVG 1.1//EN" "http://www.w3.org/Graphics/SVG/1.1/DTD/svg11.dtd">
<!-- Creator: CorelDRAW 2021 (64 Bit) -->
<svg xmlns="http://www.w3.org/2000/svg" xml:space="preserve" width="530px" height="530px" version="1.1" style="shape-rendering:geometricPrecision; text-rendering:geometricPrecision; image-rendering:optimizeQuality; fill-rule:evenodd; clip-rule:evenodd"
viewBox="0 0 4.99 4.99"
 xmlns:xlink="http://www.w3.org/1999/xlink"
 xmlns:xodm="http://www.corel.com/coreldraw/odm/2003">
 <defs>
  <style type="text/css">
   <![CDATA[
    .str0 {stroke:#B8B4B6;stroke-width:0.28;stroke-miterlimit:22.9256}
    .str1 {stroke:red;stroke-width:0.33;stroke-miterlimit:22.9256}
    .fil1 {fill:none}
    .fil5 {fill:black}
    .fil3 {fill:#999999}
    .fil0 {fill:white}
    .fil4 {fill:black;fill-rule:nonzero}
    .fil2 {fill:#999999;fill-rule:nonzero}
   ]]>
  </style>
 </defs>
 <g id="Camada_x0020_1">
  <metadata id="CorelCorpID_0Corel-Layer"/>
  <g id="_2069584350752">
   <path class="fil0 str0" d="M0.35 0.14l4.29 0c0.12,0 0.21,0.11 0.21,0.24l0 4.23c0,0.13 -0.09,0.24 -0.21,0.24l-4.29 0c-0.11,0 -0.2,-0.11 -0.2,-0.24 0,-0.5 -0.01,-4.1 -0.01,-4.28 0,-0.11 0.13,-0.19 0.21,-0.19z"/>
   <g>
    <path class="fil1 str1" d="M1.04 0.66l2.91 0c0.08,0 0.15,0.07 0.15,0.15l0 1.88c0,0.08 -0.07,0.14 -0.15,0.14l-2.91 0c-0.08,0 -0.14,-0.06 -0.14,-0.14l0 -1.88c0,-0.08 0.06,-0.15 0.14,-0.15zm-0.12 0.07l1.57 0.98 1.58 -0.98"/>
    <path class="fil2" d="M1.62 4.33l0.14 0c-0.04,0.09 -0.11,0.16 -0.2,0.21 -0.1,0.05 -0.23,0.08 -0.38,0.08 -0.14,0 -0.26,-0.02 -0.37,-0.07 -0.1,-0.05 -0.18,-0.12 -0.23,-0.22 -0.05,-0.09 -0.08,-0.19 -0.08,-0.31 0,-0.12 0.03,-0.23 0.09,-0.34 0.06,-0.11 0.14,-0.19 0.24,-0.24 0.1,-0.05 0.21,-0.08 0.34,-0.08 0.11,0 0.21,0.02 0.29,0.06 0.09,0.05 0.16,0.11 0.2,0.19 0.05,0.08 0.07,0.16 0.07,0.26 0,0.11 -0.04,0.21 -0.1,0.3 -0.09,0.11 -0.2,0.17 -0.33,0.17 -0.04,0 -0.07,-0.01 -0.09,-0.02 -0.01,-0.01 -0.03,-0.03 -0.03,-0.06 -0.05,0.05 -0.11,0.08 -0.18,0.08 -0.07,0 -0.13,-0.03 -0.18,-0.08 -0.05,-0.05 -0.07,-0.11 -0.07,-0.2 0,-0.1 0.03,-0.19 0.08,-0.28 0.07,-0.1 0.16,-0.15 0.27,-0.15 0.08,0 0.14,0.03 0.17,0.09l0.02 -0.08 0.17 0 -0.1 0.47c0,0.03 -0.01,0.05 -0.01,0.06 0,0.01 0.01,0.02 0.01,0.03 0.01,0 0.01,0 0.02,0 0.02,0 0.05,-0.01 0.08,-0.03 0.05,-0.04 0.08,-0.08 0.11,-0.14 0.03,-0.05 0.04,-0.11 0.04,-0.17 0,-0.11 -0.04,-0.2 -0.12,-0.27 -0.07,-0.07 -0.18,-0.11 -0.32,-0.11 -0.12,0 -0.22,0.03 -0.3,0.07 -0.08,0.05 -0.15,0.12 -0.19,0.21 -0.04,0.09 -0.06,0.18 -0.06,0.27 0,0.09 0.02,0.18 0.07,0.25 0.05,0.08 0.11,0.14 0.2,0.17 0.08,0.03 0.18,0.05 0.28,0.05 0.11,0 0.2,-0.01 0.27,-0.04 0.08,-0.03 0.14,-0.07 0.18,-0.13zm-0.7 -0.27c0,0.05 0.01,0.09 0.03,0.12 0.02,0.03 0.05,0.04 0.08,0.04 0.03,0 0.05,-0.01 0.07,-0.02 0.02,-0.01 0.04,-0.02 0.05,-0.04 0.03,-0.03 0.05,-0.07 0.06,-0.12 0.02,-0.05 0.03,-0.1 0.03,-0.14 0,-0.05 -0.01,-0.09 -0.04,-0.11 -0.02,-0.03 -0.05,-0.04 -0.08,-0.04 -0.04,0 -0.07,0.01 -0.11,0.04 -0.03,0.03 -0.05,0.07 -0.07,0.12 -0.01,0.06 -0.02,0.11 -0.02,0.15z"/>
    <path id="_1" class="fil2" d="M1.85 3.64l0.17 0 0 0.1c0.06,-0.08 0.13,-0.11 0.22,-0.11 0.04,0 0.08,0.01 0.11,0.02 0.04,0.02 0.06,0.05 0.08,0.09 0.03,-0.04 0.07,-0.07 0.1,-0.09 0.04,-0.01 0.07,-0.02 0.11,-0.02 0.06,0 0.1,0.01 0.13,0.03 0.04,0.02 0.07,0.05 0.08,0.09 0.02,0.03 0.02,0.08 0.02,0.14l0 0.45 -0.18 0 0 -0.4c0,-0.07 -0.01,-0.11 -0.02,-0.13 -0.02,-0.03 -0.04,-0.04 -0.08,-0.04 -0.02,0 -0.05,0.01 -0.07,0.02 -0.02,0.02 -0.04,0.04 -0.05,0.07 -0.01,0.03 -0.02,0.08 -0.02,0.14l0 0.34 -0.18 0 0 -0.38c0,-0.07 0,-0.11 -0.01,-0.13 -0.01,-0.02 -0.02,-0.04 -0.03,-0.05 -0.01,-0.01 -0.03,-0.01 -0.06,-0.01 -0.02,0 -0.05,0.01 -0.07,0.02 -0.02,0.02 -0.04,0.04 -0.05,0.07 -0.01,0.03 -0.02,0.07 -0.02,0.14l0 0.34 -0.18 0 0 -0.7z"/>
    <path id="_2" class="fil2" d="M3.19 3.86l-0.16 -0.03c0.02,-0.07 0.05,-0.12 0.09,-0.15 0.05,-0.04 0.12,-0.05 0.21,-0.05 0.08,0 0.14,0.01 0.18,0.03 0.04,0.02 0.07,0.04 0.09,0.07 0.01,0.03 0.02,0.09 0.02,0.17l0 0.21c0,0.06 0,0.11 0.01,0.14 0,0.02 0.01,0.06 0.03,0.09l-0.18 0c-0.01,-0.01 -0.01,-0.03 -0.02,-0.06 0,-0.01 -0.01,-0.01 -0.01,-0.02 -0.03,0.03 -0.06,0.06 -0.1,0.07 -0.03,0.02 -0.07,0.03 -0.11,0.03 -0.07,0 -0.13,-0.02 -0.17,-0.06 -0.04,-0.04 -0.06,-0.09 -0.06,-0.15 0,-0.04 0.01,-0.07 0.03,-0.1 0.02,-0.04 0.04,-0.06 0.08,-0.08 0.03,-0.01 0.08,-0.03 0.14,-0.04 0.09,-0.01 0.15,-0.03 0.18,-0.04l0 -0.02c0,-0.04 -0.01,-0.06 -0.03,-0.08 -0.01,-0.01 -0.05,-0.02 -0.1,-0.02 -0.03,0 -0.05,0 -0.07,0.02 -0.02,0.01 -0.04,0.03 -0.05,0.07zm0.25 0.15c-0.02,0 -0.06,0.01 -0.11,0.02 -0.05,0.01 -0.09,0.03 -0.1,0.04 -0.03,0.01 -0.04,0.03 -0.04,0.06 0,0.03 0.01,0.05 0.03,0.07 0.02,0.02 0.04,0.03 0.07,0.03 0.04,0 0.07,-0.02 0.1,-0.04 0.02,-0.01 0.04,-0.03 0.04,-0.06 0.01,-0.01 0.01,-0.04 0.01,-0.09l0 -0.03z"/>
    <path id="_3" class="fil2" d="M3.8 3.55l0 -0.17 0.19 0 0 0.17 -0.19 0zm0 0.79l0 -0.7 0.19 0 0 0.7 -0.19 0z"/>
    <polygon id="_4" class="fil2" points="4.17,4.34 4.17,3.38 4.36,3.38 4.36,4.34 "/>
    <polygon id="_5" class="fil3" points="0.46,4.46 4.45,4.46 4.45,4.52 0.46,4.52 "/>
    <path class="fil4" d="M1.69 4.24l0.14 0c-0.04,0.09 -0.11,0.16 -0.2,0.21 -0.1,0.06 -0.23,0.09 -0.38,0.09 -0.14,0 -0.27,-0.03 -0.37,-0.08 -0.11,-0.05 -0.18,-0.12 -0.23,-0.21 -0.06,-0.1 -0.08,-0.2 -0.08,-0.32 0,-0.12 0.03,-0.23 0.09,-0.34 0.05,-0.11 0.13,-0.18 0.23,-0.24 0.11,-0.05 0.22,-0.08 0.35,-0.08 0.11,0 0.21,0.02 0.29,0.07 0.09,0.04 0.15,0.1 0.2,0.18 0.04,0.08 0.07,0.16 0.07,0.26 0,0.11 -0.04,0.21 -0.11,0.3 -0.08,0.11 -0.19,0.17 -0.33,0.17 -0.03,0 -0.06,-0.01 -0.08,-0.02 -0.02,-0.01 -0.03,-0.03 -0.03,-0.05 -0.06,0.05 -0.11,0.07 -0.18,0.07 -0.07,0 -0.13,-0.02 -0.18,-0.07 -0.05,-0.05 -0.07,-0.12 -0.07,-0.2 0,-0.11 0.02,-0.2 0.08,-0.28 0.07,-0.11 0.16,-0.16 0.27,-0.16 0.08,0 0.14,0.03 0.17,0.09l0.02 -0.07 0.17 0 -0.1 0.47c0,0.03 -0.01,0.05 -0.01,0.05 0,0.01 0.01,0.02 0.01,0.03 0.01,0 0.01,0.01 0.02,0.01 0.02,0 0.05,-0.02 0.08,-0.04 0.04,-0.03 0.08,-0.08 0.11,-0.14 0.03,-0.05 0.04,-0.11 0.04,-0.17 0,-0.11 -0.04,-0.2 -0.12,-0.27 -0.07,-0.07 -0.18,-0.11 -0.32,-0.11 -0.12,0 -0.22,0.03 -0.3,0.08 -0.09,0.04 -0.15,0.11 -0.19,0.2 -0.04,0.09 -0.06,0.18 -0.06,0.27 0,0.1 0.02,0.18 0.07,0.26 0.04,0.07 0.11,0.13 0.19,0.16 0.09,0.04 0.18,0.05 0.29,0.05 0.11,0 0.2,-0.01 0.27,-0.04 0.08,-0.03 0.14,-0.07 0.18,-0.13zm-0.7 -0.27c0,0.05 0.01,0.1 0.03,0.12 0.02,0.03 0.05,0.04 0.08,0.04 0.03,0 0.05,0 0.07,-0.02 0.02,-0.01 0.04,-0.02 0.05,-0.04 0.02,-0.03 0.04,-0.06 0.06,-0.12 0.02,-0.05 0.03,-0.09 0.03,-0.14 0,-0.05 -0.01,-0.09 -0.04,-0.11 -0.02,-0.03 -0.05,-0.04 -0.08,-0.04 -0.04,0 -0.08,0.01 -0.11,0.04 -0.03,0.03 -0.05,0.07 -0.07,0.13 -0.02,0.05 -0.02,0.1 -0.02,0.14z"/>
    <path id="_1_0" class="fil4" d="M1.92 3.55l0.17 0 0 0.1c0.06,-0.07 0.13,-0.11 0.22,-0.11 0.04,0 0.08,0.01 0.11,0.03 0.03,0.02 0.06,0.04 0.08,0.08 0.03,-0.04 0.07,-0.06 0.1,-0.08 0.04,-0.02 0.07,-0.03 0.11,-0.03 0.05,0 0.1,0.01 0.13,0.03 0.04,0.02 0.06,0.05 0.08,0.09 0.02,0.03 0.02,0.08 0.02,0.15l0 0.44 -0.18 0 0 -0.4c0,-0.07 -0.01,-0.11 -0.02,-0.13 -0.02,-0.03 -0.04,-0.04 -0.08,-0.04 -0.03,0 -0.05,0.01 -0.07,0.02 -0.03,0.02 -0.04,0.04 -0.05,0.07 -0.01,0.03 -0.02,0.08 -0.02,0.15l0 0.33 -0.18 0 0 -0.38c0,-0.07 0,-0.11 -0.01,-0.13 -0.01,-0.02 -0.02,-0.04 -0.03,-0.05 -0.01,-0.01 -0.03,-0.01 -0.06,-0.01 -0.03,0 -0.05,0.01 -0.07,0.02 -0.03,0.02 -0.04,0.04 -0.05,0.07 -0.01,0.03 -0.02,0.08 -0.02,0.14l0 0.34 -0.18 0 0 -0.7z"/>
    <path id="_2_1" class="fil4" d="M3.26 3.77l-0.16 -0.03c0.01,-0.07 0.05,-0.12 0.09,-0.15 0.05,-0.03 0.12,-0.05 0.21,-0.05 0.08,0 0.14,0.01 0.18,0.03 0.04,0.02 0.07,0.04 0.09,0.07 0.01,0.03 0.02,0.09 0.02,0.17l0 0.21c0,0.06 0,0.11 0.01,0.14 0,0.03 0.01,0.06 0.03,0.09l-0.18 0c-0.01,-0.01 -0.01,-0.03 -0.02,-0.05 0,-0.01 -0.01,-0.02 -0.01,-0.02 -0.03,0.03 -0.06,0.05 -0.1,0.06 -0.03,0.02 -0.07,0.03 -0.11,0.03 -0.07,0 -0.13,-0.02 -0.17,-0.06 -0.04,-0.04 -0.06,-0.09 -0.06,-0.15 0,-0.04 0.01,-0.07 0.03,-0.1 0.01,-0.03 0.04,-0.06 0.07,-0.07 0.04,-0.02 0.09,-0.03 0.15,-0.05 0.09,-0.01 0.15,-0.03 0.18,-0.04l0 -0.02c0,-0.04 -0.01,-0.06 -0.03,-0.08 -0.02,-0.01 -0.05,-0.02 -0.1,-0.02 -0.03,0 -0.05,0.01 -0.07,0.02 -0.02,0.01 -0.04,0.04 -0.05,0.07zm0.25 0.15c-0.02,0.01 -0.06,0.02 -0.11,0.03 -0.05,0.01 -0.09,0.02 -0.1,0.03 -0.03,0.02 -0.04,0.04 -0.04,0.06 0,0.03 0.01,0.05 0.03,0.07 0.02,0.02 0.04,0.03 0.07,0.03 0.04,0 0.07,-0.01 0.1,-0.03 0.02,-0.02 0.03,-0.04 0.04,-0.07 0.01,-0.01 0.01,-0.04 0.01,-0.09l0 -0.03z"/>
    <path id="_3_2" class="fil4" d="M3.87 3.46l0 -0.17 0.18 0 0 0.17 -0.18 0zm0 0.79l0 -0.7 0.18 0 0 0.7 -0.18 0z"/>
    <polygon id="_4_3" class="fil4" points="4.24,4.25 4.24,3.29 4.43,3.29 4.43,4.25 "/>
    <polygon id="_5_4" class="fil5" points="0.53,4.37 4.52,4.37 4.52,4.43 0.53,4.43 "/>
   </g>
  </g>
 </g>
</svg>
