<?xml version="1.0" encoding="UTF-8"?>
<!DOCTYPE svg PUBLIC "-//W3C//DTD SVG 1.1//EN" "http://www.w3.org/Graphics/SVG/1.1/DTD/svg11.dtd">
<!-- Creator: CorelDRAW 2021 (64 Bit) -->
<svg xmlns="http://www.w3.org/2000/svg" xml:space="preserve" width="725px" height="375px" version="1.1" style="shape-rendering:geometricPrecision; text-rendering:geometricPrecision; image-rendering:optimizeQuality; fill-rule:evenodd; clip-rule:evenodd"
viewBox="0 0 10.01 5.18"
 xmlns:xlink="http://www.w3.org/1999/xlink"
 xmlns:xodm="http://www.corel.com/coreldraw/odm/2003">
 <defs>
  <style type="text/css">
   <![CDATA[
    .str4 {stroke:black;stroke-width:0.07;stroke-miterlimit:22.9256}
    .str2 {stroke:lime;stroke-width:0.07;stroke-miterlimit:22.9256}
    .str3 {stroke:#030303;stroke-width:0.07;stroke-miterlimit:22.9256}
    .str0 {stroke:#B8B4B6;stroke-width:0.35;stroke-miterlimit:22.9256}
    .str1 {stroke:black;stroke-width:0.01;stroke-miterlimit:22.9256}
    .fil5 {fill:none}
    .fil3 {fill:black}
    .fil6 {fill:black}
    .fil4 {fill:lime}
    .fil0 {fill:aqua}
    .fil2 {fill:white}
    .fil1 {fill:white}
   ]]>
  </style>
 </defs>
 <g id="Camada_x0020_1">
  <metadata id="CorelCorpID_0Corel-Layer"/>
  <g id="_2713770632080">
   <rect class="fil0" x="0.32" y="0.27" width="9.38" height="4.63"/>
   <rect class="fil1 str0" x="0.17" y="0.17" width="9.67" height="4.83" rx="0.45" ry="0.41"/>
   <g>
    <g>
     <path class="fil2" d="M2.72 2.47c0.06,0 0.11,-0.02 0.15,-0.05 0.02,-0.01 0.04,-0.03 0.05,-0.04 0.02,-0.01 0.05,-0.04 0.07,-0.04 0.01,0.04 0.05,0.05 0.07,0.06 -0.01,0.05 -0.1,0.11 -0.15,0.13 -0.13,0.07 -0.29,0.08 -0.43,0.02 -0.04,-0.02 -0.13,-0.08 -0.15,-0.12 0.02,-0.02 0.07,-0.07 0.09,-0.08 0.07,0.1 0.18,0.12 0.3,0.12zm0.25 -0.71c0.19,-0.04 0.21,0.21 0.06,0.24 -0.08,0.02 -0.14,-0.03 -0.16,-0.09 -0.02,-0.09 0.03,-0.14 0.1,-0.15zm-0.67 0c0.08,-0.02 0.14,0.02 0.15,0.09 0.02,0.08 -0.03,0.14 -0.1,0.15 -0.16,0.03 -0.23,-0.21 -0.05,-0.24zm1.22 0.1c0.03,-0.11 0.06,-0.24 -0.01,-0.33 -0.02,-0.03 -0.08,-0.08 -0.11,-0.1 -0.09,-0.06 -0.11,-0.03 -0.2,0.03 -0.14,0.11 -0.33,0.2 -0.51,0.2 -0.26,0.01 -0.43,-0.14 -0.58,-0.24 -0.05,-0.04 -0.1,-0.02 -0.16,0 -0.05,0.03 -0.08,0.04 -0.09,0.11 -0.01,0.04 -0.04,0.13 -0.04,0.17 0.01,0.06 0.03,0.11 0.03,0.18l-0.14 0.02c-0.04,0.07 0.01,0.19 0.03,0.26 0.01,0.04 0.02,0.08 0.06,0.1 0.03,0.02 0.09,0.02 0.14,0.02 0.03,0.1 0.06,0.15 0.11,0.23 0.03,0.04 0.11,0.14 0.15,0.17 0.07,0.06 0.12,0.09 0.21,0.12 0.09,0.03 0.19,0.04 0.29,0.04 0.22,0 0.35,-0.07 0.49,-0.17 0.05,-0.03 0.13,-0.12 0.16,-0.17 0.08,-0.11 0.06,-0.12 0.1,-0.22 0.08,0 0.13,0.02 0.17,-0.04 0.03,-0.05 0.02,-0.1 0.04,-0.16 0.01,-0.04 0.06,-0.13 0.01,-0.16 -0.03,-0.03 -0.11,-0.03 -0.15,-0.06z"/>
     <path class="fil3" d="M2.72 2.47c-0.12,0 -0.23,-0.02 -0.3,-0.12 -0.02,0.01 -0.07,0.06 -0.09,0.08 0.02,0.04 0.11,0.1 0.15,0.12 0.14,0.06 0.3,0.05 0.43,-0.02 0.05,-0.02 0.14,-0.08 0.15,-0.13 -0.02,-0.01 -0.06,-0.02 -0.07,-0.06 -0.02,0 -0.05,0.03 -0.07,0.04 -0.01,0.01 -0.03,0.03 -0.05,0.04 -0.04,0.03 -0.09,0.05 -0.15,0.05z"/>
     <polygon class="fil3" points="1.43,4.56 1.54,4.56 1.54,4.07 1.43,4.07 "/>
     <polygon class="fil3" points="3.93,4.54 4.03,4.55 4.04,4.54 4.04,4.09 4.03,4.09 3.93,4.09 "/>
     <path class="fil3" d="M2.97 1.76c-0.07,0.01 -0.12,0.06 -0.1,0.15 0.02,0.06 0.08,0.11 0.16,0.09 0.15,-0.03 0.13,-0.28 -0.06,-0.24z"/>
     <path class="fil3" d="M2.3 1.76c-0.18,0.03 -0.11,0.27 0.05,0.24 0.07,-0.01 0.12,-0.07 0.1,-0.15 -0.01,-0.07 -0.07,-0.11 -0.15,-0.09z"/>
     <path class="fil3 str1" d="M3.52 1.86c0.04,0.03 0.12,0.03 0.15,0.06 0.05,0.03 0,0.12 -0.01,0.16 -0.02,0.06 -0.01,0.11 -0.04,0.16 -0.04,0.06 -0.09,0.04 -0.17,0.04 -0.04,0.1 -0.02,0.11 -0.1,0.22 -0.03,0.05 -0.11,0.14 -0.16,0.17 -0.14,0.1 -0.27,0.17 -0.49,0.17 -0.1,0 -0.2,-0.01 -0.29,-0.04 -0.09,-0.03 -0.14,-0.06 -0.21,-0.12 -0.04,-0.03 -0.12,-0.13 -0.15,-0.17 -0.05,-0.08 -0.08,-0.13 -0.11,-0.23 -0.05,0 -0.11,0 -0.14,-0.02 -0.04,-0.02 -0.05,-0.06 -0.06,-0.1 -0.02,-0.07 -0.07,-0.19 -0.03,-0.26l0.14 -0.02c0,-0.07 -0.02,-0.12 -0.03,-0.18 0,-0.04 0.03,-0.13 0.04,-0.17 0.01,-0.07 0.04,-0.08 0.09,-0.11 0.06,-0.02 0.11,-0.04 0.16,0 0.15,0.1 0.32,0.25 0.58,0.24 0.18,0 0.37,-0.09 0.51,-0.2 0.09,-0.06 0.11,-0.09 0.2,-0.03 0.03,0.02 0.09,0.07 0.11,0.1 0.07,0.09 0.04,0.22 0.01,0.33zm-1.23 -1.28c-0.18,0.07 -0.33,0.22 -0.42,0.34 -0.07,0.11 -0.13,0.19 -0.16,0.36 -0.02,0.08 -0.02,0.17 -0.02,0.25 0,0.09 0.02,0.16 0.02,0.25 -0.07,0.01 -0.1,0.03 -0.12,0.1 -0.02,0.07 -0.01,0.13 0,0.2 0.09,0.41 0.23,0.24 0.3,0.38 0.03,0.07 0.02,0.07 0.08,0.14l0.1 0.12c0.03,0.04 0.07,0.08 0.13,0.1 0,0.05 0,0.25 0,0.29 -0.01,0.03 -0.02,0.04 -0.06,0.04 -0.16,0.02 -0.49,0.09 -0.67,0.12 -0.12,0.02 -0.22,0.04 -0.32,0.08 -0.05,0.02 -0.08,0.04 -0.12,0.07 -0.12,0.08 -0.21,0.21 -0.24,0.35 -0.03,0.09 -0.02,0.29 -0.02,0.39 0,0.13 0,0.26 0,0.4 0.08,0 0.12,0.01 0.13,-0.04l0 -0.48c0,-0.18 0,-0.37 0.15,-0.49 0.07,-0.05 0.11,-0.08 0.2,-0.11 0.17,-0.06 0.37,-0.08 0.54,-0.11 0.09,-0.02 0.19,-0.04 0.28,-0.04 0.02,0.1 0.02,0.14 0.07,0.22 0.07,0.13 0.19,0.22 0.32,0.27 0.06,0.02 0.16,0.05 0.24,0.05 0.28,-0.01 0.64,-0.24 0.64,-0.54l0.7 0.12c0.24,0.03 0.46,0.2 0.47,0.44 0.01,0.23 0.01,0.46 0.02,0.7l0.11 0.01 0 -0.7c-0.04,-0.29 -0.19,-0.51 -0.63,-0.58 -0.23,-0.04 -0.46,-0.08 -0.7,-0.12 -0.07,-0.02 -0.1,-0.02 -0.09,-0.11 0,-0.07 0,-0.18 0,-0.26 0.05,-0.03 0.09,-0.06 0.13,-0.1 0.05,-0.05 0.16,-0.19 0.18,-0.29 0.21,0 0.21,-0.15 0.24,-0.28 0.01,-0.03 0.03,-0.05 0.04,-0.09 0,-0.04 0,-0.08 -0.01,-0.12 -0.02,-0.06 -0.07,-0.1 -0.13,-0.12 0,-0.25 0.04,-0.37 -0.05,-0.6 -0.05,-0.17 -0.1,-0.25 -0.21,-0.37 -0.05,-0.05 -0.05,-0.04 -0.09,-0.08 -0.04,-0.03 -0.1,-0.08 -0.15,-0.1 -0.18,-0.11 -0.33,-0.14 -0.54,-0.13 -0.08,0 -0.21,0.01 -0.34,0.07zm-0.31 0.41c0.09,-0.1 0.19,-0.22 0.4,-0.31 0.07,-0.04 0.1,-0.05 0.2,-0.05 0.14,-0.01 0.3,0.01 0.43,0.06 0.1,0.04 0.16,0.08 0.23,0.14 0.09,0.07 0.11,0.09 0.18,0.2 0.04,0.06 0.14,0.27 0.13,0.36 -0.04,-0.03 -0.13,-0.09 -0.19,-0.11 -0.05,-0.02 -0.08,-0.02 -0.12,0.01 -0.03,0.02 -0.06,0.05 -0.09,0.07 -0.3,0.22 -0.56,0.27 -0.89,0.02 -0.03,-0.03 -0.06,-0.05 -0.09,-0.07 -0.04,-0.03 -0.06,-0.04 -0.12,-0.04 -0.13,0.01 -0.18,0.07 -0.23,0.09 0,-0.17 0.11,-0.31 0.16,-0.37zm0.71 2.72c0.02,0 0.05,0 0.07,-0.01 0.02,0 0.05,0 0.07,-0.01 0.22,-0.03 0.4,-0.23 0.4,-0.42 -0.09,-0.03 -0.13,-0.09 -0.13,-0.17l0.01 -0.24 0 0c-0.01,0 -0.03,0.01 -0.04,0.02 -0.1,0.05 -0.24,0.08 -0.38,0.09 -0.1,0 -0.2,-0.01 -0.3,-0.05 -0.03,-0.01 -0.06,-0.03 -0.08,-0.03 0,0.08 0.01,0.17 0,0.25 -0.01,0.07 -0.06,0.1 -0.12,0.13 0,0.23 0.21,0.4 0.39,0.43 0.06,0 0.09,0.01 0.11,0.01z"/>
    </g>
    <g>
     <path class="fil4 str2" d="M6.38 1.73c0.02,0.43 0.23,0.67 0.55,0.79l0.12 1.85c0.25,-0.06 0.39,-0.2 0.33,-0.47l0.14 -0.42 -0.18 -0.35c0.2,-0.22 0.26,-0.46 0.17,-0.71 0.15,-0.1 0.27,-0.25 0.37,-0.47 0.1,-0.36 0.05,-0.69 -0.21,-1 -0.34,-0.32 -0.69,-0.28 -1.04,0.07 -0.17,0.19 -0.25,0.43 -0.25,0.71z"/>
     <path class="fil5" d="M6.99 0.69c-0.47,0.22 -0.61,0.48 -0.63,0.96 0.01,0.45 0.21,0.71 0.55,0.88l0.12 1.85c0.19,-0.04 0.34,-0.12 0.37,-0.29l0.02 -0.22 0.12 -0.4 -0.17 -0.36 0.21 -0.35 -0.07 -0.34c0.37,-0.26 0.5,-0.64 0.39,-1.12 -0.15,-0.46 -0.44,-0.68 -0.91,-0.61z"/>
     <path class="fil6" d="M6.33 1.68c-0.01,0.03 0,0.06 0,0.09 0,0.22 0.12,0.46 0.25,0.61 0.05,0.06 0.11,0.11 0.16,0.15 0.11,0.06 0.13,0.04 0.13,0.1 0.01,0.14 0.02,0.23 0.02,0.36l0.03 0.37c0,0.08 0.06,1.06 0.07,1.09 0.05,-0.02 0.08,-0.03 0.13,-0.04 0.14,-0.03 0.29,-0.15 0.34,-0.31 0.03,-0.1 -0.02,-0.2 0.01,-0.31l0.12 -0.32c0,-0.01 0.01,0.01 0,-0.01 -0.01,-0.01 0,0 -0.01,-0.01 -0.05,-0.09 -0.12,-0.24 -0.17,-0.34 0.07,-0.09 0.18,-0.23 0.2,-0.34 0,-0.05 -0.01,-0.1 -0.02,-0.16 -0.01,-0.05 -0.01,-0.12 -0.02,-0.15 0.13,-0.1 0.19,-0.14 0.29,-0.32 0.06,-0.12 0.11,-0.28 0.12,-0.39 0,-0.13 0,-0.25 -0.03,-0.37 -0.04,-0.13 -0.07,-0.24 -0.16,-0.36 -0.08,-0.12 -0.19,-0.22 -0.31,-0.28 -0.12,-0.06 -0.22,-0.06 -0.32,-0.06l-0.16 0.02c-0.14,0.03 -0.28,0.12 -0.38,0.24 -0.02,0.02 -0.07,0.07 -0.07,0.09l0.02 -0.01c0.04,0.04 0.04,0.07 0.09,0.09 0.09,-0.09 0.12,-0.17 0.27,-0.25 0.08,-0.05 0.19,-0.07 0.28,-0.07 0.06,0 0.22,0.03 0.29,0.08 0.19,0.13 0.35,0.34 0.38,0.6 0.02,0.1 0.03,0.25 0.01,0.34 -0.07,0.27 -0.22,0.47 -0.44,0.59 0,0.03 0.01,0.06 0.01,0.09l0.04 0.26c0,0.03 -0.02,0.06 -0.05,0.1l-0.17 0.29c0.05,0.09 0.1,0.21 0.15,0.31 0.03,0.05 0.03,0.03 -0.01,0.17l-0.08 0.25c-0.01,0.05 -0.01,0.04 0,0.08 0,0.02 0.01,0.16 0,0.17 -0.04,0.12 -0.19,0.2 -0.26,0.2 -0.01,-0.02 0,-0.03 0,-0.06 -0.01,-0.13 -0.02,-0.26 -0.02,-0.4 0,-0.04 0,-0.08 -0.01,-0.12l-0.02 -0.58c-0.01,-0.04 0,-0.08 -0.01,-0.12 0,-0.04 0,-0.08 0,-0.12l-0.01 -0.23c0,-0.08 0,-0.16 -0.01,-0.23 -0.03,-0.03 -0.08,-0.02 -0.11,-0.03 -0.02,0 -0.09,-0.04 -0.11,-0.05 -0.18,-0.1 -0.27,-0.3 -0.31,-0.52 -0.01,-0.02 -0.01,-0.04 -0.01,-0.06 -0.01,-0.04 -0.01,-0.09 -0.02,-0.13 -0.01,0.01 -0.03,0.01 -0.05,0.01 -0.02,0.01 -0.04,0.02 -0.06,0z"/>
     <ellipse class="fil4 str3" cx="7.04" cy="1.2" rx="0.2" ry="0.24"/>
     <ellipse class="fil4 str4" cx="6.46" cy="1.33" rx="0.13" ry="0.15"/>
    </g>
   </g>
  </g>
 </g>
</svg>
