<?xml version="1.0" encoding="UTF-8"?>
<!DOCTYPE svg PUBLIC "-//W3C//DTD SVG 1.1//EN" "http://www.w3.org/Graphics/SVG/1.1/DTD/svg11.dtd">
<!-- Creator: CorelDRAW 2021 (64 Bit) -->
<svg xmlns="http://www.w3.org/2000/svg" xml:space="preserve" width="725px" height="375px" version="1.1" style="shape-rendering:geometricPrecision; text-rendering:geometricPrecision; image-rendering:optimizeQuality; fill-rule:evenodd; clip-rule:evenodd"
viewBox="0 0 10.01 5.18"
 xmlns:xlink="http://www.w3.org/1999/xlink"
 xmlns:xodm="http://www.corel.com/coreldraw/odm/2003">
 <defs>
  <style type="text/css">
   <![CDATA[
    .str3 {stroke:black;stroke-width:0.01;stroke-miterlimit:22.9256}
    .str2 {stroke:black;stroke-width:0.07;stroke-miterlimit:22.9256}
    .str0 {stroke:#B8B4B6;stroke-width:0.35;stroke-miterlimit:22.9256}
    .str4 {stroke:black;stroke-width:0.04;stroke-miterlimit:22.9256}
    .str1 {stroke:black;stroke-width:0.01;stroke-miterlimit:22.9256}
    .fil3 {fill:black}
    .fil6 {fill:#00CCFF}
    .fil7 {fill:lime}
    .fil0 {fill:aqua}
    .fil4 {fill:#B3B3B3}
    .fil5 {fill:#E0DDDD}
    .fil9 {fill:fuchsia}
    .fil10 {fill:#FFCC00}
    .fil8 {fill:yellow}
    .fil2 {fill:white}
    .fil1 {fill:white}
   ]]>
  </style>
 </defs>
 <g id="Camada_x0020_1">
  <metadata id="CorelCorpID_0Corel-Layer"/>
  <g id="_2713691808944">
   <rect class="fil0" x="0.32" y="0.27" width="9.38" height="4.63"/>
   <rect class="fil1 str0" x="0.17" y="0.17" width="9.67" height="4.83" rx="0.45" ry="0.41"/>
   <g>
    <g>
     <path class="fil2" d="M2.63 2.48c0.06,0 0.11,-0.02 0.15,-0.04 0.03,-0.02 0.04,-0.03 0.06,-0.05 0.01,-0.01 0.04,-0.03 0.06,-0.04 0.02,0.04 0.06,0.05 0.07,0.07 -0.01,0.05 -0.1,0.1 -0.14,0.13 -0.14,0.07 -0.29,0.08 -0.44,0.01 -0.04,-0.02 -0.12,-0.08 -0.14,-0.12 0.01,-0.02 0.06,-0.07 0.09,-0.08 0.07,0.11 0.17,0.12 0.29,0.12zm0.26 -0.71c0.18,-0.04 0.2,0.21 0.05,0.24 -0.08,0.02 -0.13,-0.03 -0.15,-0.09 -0.02,-0.09 0.03,-0.14 0.1,-0.15zm-0.67 0c0.07,-0.01 0.14,0.03 0.15,0.09 0.01,0.08 -0.04,0.14 -0.1,0.15 -0.16,0.04 -0.23,-0.21 -0.05,-0.24zm1.22 0.11c0.03,-0.12 0.05,-0.24 -0.01,-0.34 -0.02,-0.03 -0.08,-0.07 -0.11,-0.09 -0.1,-0.07 -0.12,-0.04 -0.2,0.03 -0.14,0.11 -0.33,0.19 -0.52,0.2 -0.26,0 -0.43,-0.14 -0.57,-0.25 -0.05,-0.04 -0.1,-0.02 -0.16,0.01 -0.06,0.02 -0.08,0.04 -0.1,0.1 -0.01,0.04 -0.03,0.13 -0.03,0.17 0.01,0.07 0.03,0.12 0.03,0.18l-0.15 0.02c-0.03,0.07 0.02,0.19 0.04,0.26 0.01,0.05 0.02,0.09 0.05,0.1 0.04,0.02 0.1,0.02 0.14,0.02 0.04,0.1 0.06,0.16 0.11,0.23 0.04,0.05 0.11,0.14 0.15,0.17 0.07,0.06 0.12,0.09 0.22,0.12 0.08,0.03 0.19,0.04 0.28,0.04 0.23,0.01 0.36,-0.07 0.5,-0.17 0.04,-0.03 0.12,-0.11 0.16,-0.16 0.07,-0.12 0.06,-0.12 0.1,-0.23 0.08,0.01 0.13,0.02 0.17,-0.03 0.03,-0.06 0.02,-0.11 0.04,-0.17 0.01,-0.04 0.05,-0.13 0.01,-0.16 -0.04,-0.03 -0.12,-0.03 -0.15,-0.05z"/>
     <path class="fil3" d="M2.63 2.48c-0.12,0 -0.22,-0.01 -0.29,-0.12 -0.03,0.01 -0.08,0.06 -0.09,0.08 0.02,0.04 0.1,0.1 0.14,0.12 0.15,0.07 0.3,0.06 0.44,-0.01 0.04,-0.03 0.13,-0.08 0.14,-0.13 -0.01,-0.02 -0.05,-0.03 -0.07,-0.07 -0.02,0.01 -0.05,0.03 -0.06,0.04 -0.02,0.02 -0.03,0.03 -0.06,0.05 -0.04,0.02 -0.09,0.04 -0.15,0.04z"/>
     <polygon class="fil3" points="1.34,4.57 1.46,4.57 1.45,4.09 1.34,4.09 "/>
     <polygon class="fil3" points="3.85,4.56 3.94,4.56 3.96,4.56 3.96,4.1 3.94,4.1 3.85,4.1 "/>
     <path class="fil3" d="M2.89 1.77c-0.07,0.01 -0.12,0.06 -0.1,0.15 0.02,0.06 0.07,0.11 0.15,0.09 0.15,-0.03 0.13,-0.28 -0.05,-0.24z"/>
     <path class="fil3" d="M2.22 1.77c-0.18,0.03 -0.11,0.28 0.05,0.24 0.06,-0.01 0.11,-0.07 0.1,-0.15 -0.01,-0.06 -0.08,-0.1 -0.15,-0.09z"/>
     <path class="fil3 str1" d="M3.44 1.88c0.03,0.02 0.11,0.02 0.15,0.05 0.04,0.03 0,0.12 -0.01,0.16 -0.02,0.06 -0.01,0.11 -0.04,0.17 -0.04,0.05 -0.09,0.04 -0.17,0.03 -0.04,0.11 -0.03,0.11 -0.1,0.23 -0.04,0.05 -0.12,0.13 -0.16,0.16 -0.14,0.1 -0.27,0.18 -0.5,0.17 -0.09,0 -0.2,-0.01 -0.28,-0.04 -0.1,-0.03 -0.15,-0.06 -0.22,-0.12 -0.04,-0.03 -0.11,-0.12 -0.15,-0.17 -0.05,-0.07 -0.07,-0.13 -0.11,-0.23 -0.04,0 -0.1,0 -0.14,-0.02 -0.03,-0.01 -0.04,-0.05 -0.05,-0.1 -0.02,-0.07 -0.07,-0.19 -0.04,-0.26l0.15 -0.02c0,-0.06 -0.02,-0.11 -0.03,-0.18 0,-0.04 0.02,-0.13 0.03,-0.17 0.02,-0.06 0.04,-0.08 0.1,-0.1 0.06,-0.03 0.11,-0.05 0.16,-0.01 0.14,0.11 0.31,0.25 0.57,0.25 0.19,-0.01 0.38,-0.09 0.52,-0.2 0.08,-0.07 0.1,-0.1 0.2,-0.03 0.03,0.02 0.09,0.06 0.11,0.09 0.06,0.1 0.04,0.22 0.01,0.34zm-1.24 -1.29c-0.17,0.08 -0.33,0.23 -0.41,0.35 -0.08,0.1 -0.14,0.19 -0.17,0.36 -0.01,0.08 -0.01,0.16 -0.01,0.25 0,0.09 0.02,0.16 0.02,0.24 -0.07,0.01 -0.1,0.04 -0.12,0.1 -0.02,0.07 -0.01,0.13 0,0.2 0.09,0.41 0.22,0.24 0.29,0.38 0.04,0.07 0.03,0.07 0.08,0.14l0.11 0.12c0.03,0.04 0.07,0.08 0.12,0.1 0,0.05 0.01,0.25 0,0.29 0,0.04 -0.02,0.04 -0.05,0.05 -0.16,0.01 -0.5,0.08 -0.68,0.11 -0.11,0.02 -0.21,0.04 -0.31,0.09 -0.05,0.02 -0.08,0.04 -0.13,0.06 -0.11,0.08 -0.2,0.22 -0.24,0.36 -0.02,0.08 -0.01,0.28 -0.01,0.38 0,0.13 0,0.27 0,0.4 0.08,0 0.12,0.01 0.12,-0.04l0 -0.47c0,-0.19 0,-0.37 0.16,-0.49 0.07,-0.06 0.11,-0.08 0.2,-0.12 0.17,-0.05 0.36,-0.07 0.54,-0.11 0.09,-0.01 0.19,-0.04 0.28,-0.04 0.01,0.1 0.02,0.15 0.06,0.23 0.08,0.12 0.19,0.21 0.32,0.26 0.07,0.03 0.17,0.06 0.25,0.05 0.28,-0.01 0.64,-0.24 0.64,-0.54l0.69 0.12c0.24,0.03 0.46,0.2 0.48,0.44 0,0.24 0.01,0.47 0.02,0.7l0.11 0.01 0 -0.7c-0.05,-0.28 -0.19,-0.5 -0.63,-0.58 -0.24,-0.04 -0.47,-0.08 -0.7,-0.12 -0.08,-0.01 -0.1,-0.02 -0.1,-0.1 0,-0.08 0,-0.19 0,-0.26 0.05,-0.04 0.09,-0.07 0.13,-0.11 0.05,-0.05 0.17,-0.18 0.19,-0.28 0.21,-0.01 0.21,-0.16 0.24,-0.28 0.01,-0.04 0.03,-0.06 0.03,-0.1 0.01,-0.04 0.01,-0.08 0,-0.11 -0.02,-0.07 -0.07,-0.11 -0.14,-0.13 0,-0.25 0.04,-0.37 -0.04,-0.6 -0.06,-0.17 -0.1,-0.25 -0.22,-0.37 -0.04,-0.05 -0.04,-0.04 -0.09,-0.08 -0.03,-0.03 -0.1,-0.07 -0.14,-0.1 -0.18,-0.11 -0.34,-0.13 -0.55,-0.13 -0.07,0.01 -0.2,0.02 -0.34,0.07zm-0.31 0.42c0.1,-0.11 0.2,-0.23 0.4,-0.32 0.08,-0.03 0.11,-0.04 0.2,-0.05 0.15,-0.01 0.31,0.01 0.44,0.06 0.1,0.04 0.16,0.08 0.23,0.14 0.09,0.08 0.1,0.09 0.18,0.2 0.03,0.06 0.14,0.27 0.13,0.37 -0.05,-0.03 -0.14,-0.09 -0.19,-0.12 -0.05,-0.01 -0.09,-0.01 -0.13,0.01 -0.03,0.03 -0.06,0.05 -0.09,0.07 -0.3,0.22 -0.55,0.27 -0.89,0.02 -0.03,-0.02 -0.05,-0.04 -0.09,-0.07 -0.04,-0.02 -0.06,-0.04 -0.12,-0.03 -0.12,0.01 -0.17,0.07 -0.23,0.08 0.01,-0.16 0.12,-0.31 0.16,-0.36zm0.72 2.71c0.02,0 0.04,0 0.06,0 0.03,0 0.06,-0.01 0.08,-0.01 0.21,-0.04 0.39,-0.23 0.4,-0.43 -0.09,-0.03 -0.14,-0.09 -0.13,-0.17l0 -0.24 0 0c-0.01,0.01 -0.02,0.01 -0.03,0.02 -0.11,0.05 -0.25,0.08 -0.38,0.09 -0.11,0 -0.21,-0.01 -0.31,-0.05 -0.02,-0.01 -0.05,-0.02 -0.07,-0.03 -0.01,0.08 0,0.18 0,0.25 -0.01,0.08 -0.07,0.11 -0.13,0.13 0.01,0.23 0.22,0.4 0.4,0.43 0.05,0.01 0.08,0.01 0.11,0.01z"/>
    </g>
    <g>
     <polygon class="fil4 str2" points="5.44,1.72 5.06,1.98 5.06,1.61 5.44,1.36 "/>
     <polygon class="fil5 str3" points="6.69,0.88 3.88,2.77 6.69,4.66 9.49,2.77 "/>
     <polygon class="fil6 str2" points="5.06,1.98 5.97,2.59 5.97,2.23 5.06,1.61 "/>
     <polygon class="fil6 str2" points="3.88,2.41 3.88,2.77 5.06,1.98 5.06,1.61 "/>
     <polygon class="fil6 str2" points="3.88,2.41 3.88,2.77 4.79,3.38 4.79,3.02 "/>
     <polygon class="fil6 str2" points="4.79,3.02 4.79,3.38 5.7,2.77 5.7,2.48 5.83,2.41 5.83,2.69 5.97,2.59 5.97,2.23 "/>
     <polygon class="fil7 str2" points="6.68,0.89 7.6,1.49 7.6,1.13 6.68,0.52 "/>
     <polygon class="fil7 str2" points="5.44,1.36 5.44,1.72 6.68,0.89 6.68,0.52 "/>
     <polygon class="fil7 str2" points="5.44,1.36 5.44,1.72 6.35,2.34 6.35,1.97 "/>
     <polygon class="fil7 str2" points="6.35,1.97 6.35,2.34 7.33,1.68 7.33,1.38 7.46,1.31 7.46,1.59 7.6,1.49 7.6,1.13 "/>
     <polygon class="fil8 str2" points="7.79,2.69 7.37,2.97 7.38,2.69 7.28,2.75 7.27,3.04 6.95,3.25 6.96,2.89 7.79,2.33 "/>
     <polygon class="fil9 str2" points="6.95,3.25 7.87,3.86 7.87,3.5 6.95,2.89 "/>
     <polygon class="fil9 str2" points="5.77,3.68 5.77,4.05 6.53,3.53 6.53,3.25 6.68,3.15 6.68,3.44 6.95,3.25 6.95,2.89 "/>
     <polygon class="fil9 str2" points="5.78,3.68 5.78,4.05 6.68,4.66 6.68,4.29 "/>
     <polygon class="fil9 str2" points="6.69,4.3 6.68,4.66 7.87,3.87 7.87,3.5 "/>
     <polygon class="fil4 str2" points="5.77,4.05 5.44,3.82 5.44,3.54 5.12,3.33 5.11,3.6 4.79,3.38 4.79,3.02 5.78,3.68 "/>
     <polygon class="fil4 str3" points="8.58,2.16 7.6,1.49 7.6,1.13 8.58,1.79 "/>
     <polygon class="fil10 str2" points="8.58,1.79 8.58,2.16 9.49,2.77 9.49,2.41 "/>
     <polygon class="fil10 str2" points="7.79,2.33 7.79,2.69 8.36,2.31 8.36,2.02 8.48,1.94 8.48,2.23 8.58,2.16 8.58,1.79 "/>
     <polygon class="fil8 str2" points="7.79,2.33 7.79,2.69 8.7,3.3 8.7,2.94 "/>
     <polygon class="fil10 str2" points="8.7,2.94 8.7,3.3 9.49,2.77 9.49,2.41 "/>
     <polygon class="fil8 str4" points="7.87,3.87 8.7,3.3 8.7,2.94 7.87,3.5 "/>
    </g>
   </g>
  </g>
 </g>
</svg>
