<?xml version="1.0" encoding="UTF-8"?>
<!DOCTYPE svg PUBLIC "-//W3C//DTD SVG 1.1//EN" "http://www.w3.org/Graphics/SVG/1.1/DTD/svg11.dtd">
<!-- Creator: CorelDRAW 2021 (64 Bit) -->
<svg xmlns="http://www.w3.org/2000/svg" xml:space="preserve" width="725px" height="375px" version="1.1" style="shape-rendering:geometricPrecision; text-rendering:geometricPrecision; image-rendering:optimizeQuality; fill-rule:evenodd; clip-rule:evenodd"
viewBox="0 0 37.51 19.4"
 xmlns:xlink="http://www.w3.org/1999/xlink"
 xmlns:xodm="http://www.corel.com/coreldraw/odm/2003">
 <defs>
  <style type="text/css">
   <![CDATA[
    .str4 {stroke:#B8B4B6;stroke-width:0.52;stroke-miterlimit:22.9256}
    .str2 {stroke:white;stroke-width:0.1;stroke-miterlimit:22.9256}
    .str0 {stroke:#B8B4B6;stroke-width:1.29;stroke-miterlimit:22.9256}
    .str3 {stroke:black;stroke-width:0.31;stroke-miterlimit:22.9256}
    .str1 {stroke:black;stroke-width:0.05;stroke-miterlimit:22.9256}
    .fil5 {fill:none}
    .fil3 {fill:#E6E7E8}
    .fil2 {fill:black}
    .fil12 {fill:#333333}
    .fil11 {fill:#344E82}
    .fil10 {fill:#525355}
    .fil7 {fill:#6598FE}
    .fil9 {fill:#717275}
    .fil6 {fill:#D2D3D5}
    .fil8 {fill:#FDFDFD}
    .fil1 {fill:white}
    .fil0 {fill:white}
    .fil4 {fill:black;fill-rule:nonzero}
   ]]>
  </style>
 </defs>
 <g id="Camada_x0020_1">
  <metadata id="CorelCorpID_0Corel-Layer"/>
  <g id="_2713813736320">
   <g>
    <g>
     <rect class="fil0 str0" x="0.65" y="0.65" width="36.22" height="18.11" rx="1.68" ry="1.55"/>
     <g>
      <path class="fil1" d="M9.42 9.52c0.23,0 0.41,-0.08 0.57,-0.18 0.08,-0.05 0.14,-0.11 0.21,-0.16 0.04,-0.04 0.16,-0.14 0.22,-0.16 0.06,0.15 0.21,0.19 0.28,0.25 -0.05,0.18 -0.38,0.4 -0.54,0.48 -0.52,0.27 -1.11,0.31 -1.64,0.06 -0.15,-0.07 -0.48,-0.31 -0.54,-0.46 0.05,-0.07 0.24,-0.24 0.34,-0.29 0.25,0.39 0.64,0.46 1.1,0.46zm0.96 -2.68c0.69,-0.13 0.76,0.8 0.2,0.91 -0.3,0.06 -0.51,-0.12 -0.57,-0.35 -0.08,-0.33 0.1,-0.51 0.37,-0.56zm-2.52 0c0.28,-0.05 0.54,0.1 0.57,0.35 0.05,0.29 -0.14,0.52 -0.37,0.56 -0.61,0.12 -0.86,-0.78 -0.2,-0.91zm4.57 0.4c0.11,-0.42 0.22,-0.9 -0.03,-1.24 -0.09,-0.12 -0.29,-0.3 -0.41,-0.37 -0.36,-0.24 -0.43,-0.14 -0.75,0.12 -0.52,0.41 -1.25,0.73 -1.94,0.74 -0.97,0.01 -1.6,-0.53 -2.15,-0.92 -0.19,-0.13 -0.38,-0.07 -0.59,0.02 -0.21,0.09 -0.32,0.15 -0.37,0.39 -0.03,0.16 -0.12,0.5 -0.11,0.65 0.01,0.23 0.1,0.42 0.09,0.67l-0.53 0.08c-0.15,0.26 0.05,0.71 0.12,0.97 0.05,0.17 0.09,0.32 0.22,0.38 0.13,0.07 0.36,0.07 0.52,0.08 0.12,0.36 0.22,0.57 0.4,0.84 0.13,0.18 0.42,0.53 0.58,0.65 0.25,0.21 0.45,0.35 0.79,0.46 0.32,0.11 0.71,0.14 1.08,0.14 0.84,0.02 1.33,-0.26 1.84,-0.63 0.18,-0.13 0.47,-0.44 0.6,-0.63 0.29,-0.42 0.23,-0.45 0.39,-0.83 0.28,0 0.49,0.05 0.62,-0.15 0.13,-0.19 0.09,-0.39 0.16,-0.61 0.05,-0.16 0.2,-0.49 0.04,-0.61 -0.13,-0.09 -0.44,-0.09 -0.57,-0.2z"/>
      <path class="fil2" d="M9.42 9.52c-0.46,0 -0.85,-0.07 -1.1,-0.46 -0.1,0.05 -0.29,0.22 -0.34,0.29 0.06,0.15 0.39,0.39 0.54,0.46 0.53,0.25 1.12,0.21 1.64,-0.06 0.16,-0.08 0.49,-0.3 0.54,-0.48 -0.07,-0.06 -0.22,-0.1 -0.28,-0.25 -0.06,0.02 -0.18,0.12 -0.22,0.16 -0.07,0.05 -0.13,0.11 -0.21,0.16 -0.16,0.1 -0.34,0.18 -0.57,0.18z"/>
      <polygon class="fil2" points="4.59,17.33 5.01,17.33 5,15.52 4.59,15.53 "/>
      <polygon class="fil2" points="13.97,17.29 14.32,17.29 14.39,17.29 14.39,15.57 14.32,15.57 13.97,15.57 "/>
      <path class="fil2" d="M10.38 6.84c-0.27,0.05 -0.45,0.23 -0.37,0.56 0.06,0.23 0.27,0.41 0.57,0.35 0.56,-0.11 0.49,-1.04 -0.2,-0.91z"/>
      <path class="fil2" d="M7.86 6.84c-0.66,0.13 -0.41,1.03 0.2,0.91 0.23,-0.04 0.42,-0.27 0.37,-0.56 -0.03,-0.25 -0.29,-0.4 -0.57,-0.35z"/>
      <path class="fil2 str1" d="M12.43 7.24c0.13,0.11 0.44,0.11 0.57,0.2 0.16,0.12 0.01,0.45 -0.04,0.61 -0.07,0.22 -0.03,0.42 -0.16,0.61 -0.13,0.2 -0.34,0.15 -0.62,0.15 -0.16,0.38 -0.1,0.41 -0.39,0.83 -0.13,0.19 -0.42,0.5 -0.6,0.63 -0.51,0.37 -1,0.65 -1.84,0.63 -0.37,0 -0.76,-0.03 -1.08,-0.14 -0.34,-0.11 -0.54,-0.25 -0.79,-0.46 -0.16,-0.12 -0.45,-0.47 -0.58,-0.65 -0.18,-0.27 -0.28,-0.48 -0.4,-0.84 -0.16,-0.01 -0.39,-0.01 -0.52,-0.08 -0.13,-0.06 -0.17,-0.21 -0.22,-0.38 -0.07,-0.26 -0.27,-0.71 -0.12,-0.97l0.53 -0.08c0.01,-0.25 -0.08,-0.44 -0.09,-0.67 -0.01,-0.15 0.08,-0.49 0.11,-0.65 0.05,-0.24 0.16,-0.3 0.37,-0.39 0.21,-0.09 0.4,-0.15 0.59,-0.02 0.55,0.39 1.18,0.93 2.15,0.92 0.69,-0.01 1.42,-0.33 1.94,-0.74 0.32,-0.26 0.39,-0.36 0.75,-0.12 0.12,0.07 0.32,0.25 0.41,0.37 0.25,0.34 0.14,0.82 0.03,1.24zm-4.62 -4.81c-0.66,0.28 -1.23,0.84 -1.56,1.3 -0.28,0.38 -0.51,0.7 -0.61,1.34 -0.05,0.3 -0.06,0.63 -0.06,0.94 0,0.34 0.08,0.59 0.09,0.9 -0.27,0.05 -0.39,0.14 -0.46,0.38 -0.08,0.26 -0.05,0.5 0,0.75 0.33,1.55 0.83,0.9 1.1,1.43 0.13,0.26 0.09,0.27 0.3,0.54l0.39 0.45c0.12,0.13 0.26,0.28 0.47,0.36 0,0.18 0.02,0.94 0,1.09 -0.02,0.12 -0.08,0.16 -0.2,0.17 -0.61,0.06 -1.86,0.31 -2.53,0.43 -0.44,0.07 -0.8,0.15 -1.18,0.31 -0.18,0.08 -0.31,0.15 -0.47,0.26 -0.44,0.3 -0.77,0.79 -0.91,1.32 -0.08,0.33 -0.04,1.06 -0.04,1.44 0,0.5 -0.01,1 0,1.49 0.29,0 0.44,0.05 0.46,-0.14l0 -1.78c0,-0.7 0,-1.38 0.57,-1.83 0.27,-0.21 0.42,-0.31 0.77,-0.43 0.64,-0.21 1.35,-0.28 2.02,-0.41 0.33,-0.06 0.7,-0.15 1.05,-0.16 0.04,0.38 0.06,0.55 0.23,0.85 0.28,0.46 0.72,0.79 1.21,0.99 0.24,0.09 0.62,0.2 0.91,0.18 1.05,-0.03 2.39,-0.88 2.41,-2.02l2.59 0.44c0.91,0.12 1.72,0.75 1.79,1.67 0.02,0.87 0.04,1.74 0.06,2.6l0.42 0.04 0 -2.62c-0.18,-1.06 -0.72,-1.88 -2.37,-2.16 -0.87,-0.15 -1.74,-0.3 -2.61,-0.45 -0.28,-0.06 -0.39,-0.08 -0.36,-0.4 0.01,-0.29 0,-0.68 0.01,-0.97 0.18,-0.12 0.33,-0.25 0.48,-0.4 0.19,-0.18 0.62,-0.69 0.69,-1.06 0.78,-0.02 0.78,-0.59 0.9,-1.05 0.04,-0.13 0.1,-0.22 0.13,-0.36 0.03,-0.14 0.02,-0.29 -0.02,-0.43 -0.08,-0.25 -0.25,-0.39 -0.51,-0.47 0.01,-0.93 0.15,-1.38 -0.15,-2.26 -0.22,-0.62 -0.39,-0.92 -0.82,-1.36 -0.17,-0.19 -0.17,-0.17 -0.33,-0.3 -0.14,-0.13 -0.38,-0.29 -0.55,-0.39 -0.67,-0.41 -1.25,-0.5 -2.04,-0.47 -0.29,0.01 -0.78,0.05 -1.27,0.25zm-1.16 1.56c0.36,-0.41 0.72,-0.85 1.5,-1.2 0.27,-0.12 0.38,-0.16 0.75,-0.18 0.53,-0.04 1.14,0.04 1.63,0.23 0.38,0.15 0.58,0.31 0.85,0.54 0.34,0.27 0.4,0.32 0.67,0.73 0.14,0.22 0.53,1.03 0.49,1.37 -0.16,-0.11 -0.5,-0.33 -0.71,-0.42 -0.19,-0.07 -0.32,-0.06 -0.46,0.04 -0.12,0.08 -0.23,0.17 -0.33,0.25 -1.13,0.83 -2.1,1.01 -3.34,0.07 -0.12,-0.09 -0.22,-0.16 -0.34,-0.25 -0.15,-0.1 -0.22,-0.16 -0.45,-0.14 -0.47,0.04 -0.65,0.26 -0.86,0.32 0.02,-0.61 0.43,-1.15 0.6,-1.36zm2.68 10.16c0.08,0 0.17,0 0.23,-0.01 0.1,-0.01 0.21,-0.03 0.29,-0.05 0.8,-0.13 1.49,-0.85 1.49,-1.59 -0.34,-0.12 -0.5,-0.32 -0.48,-0.63l0.02 -0.9 0 0c-0.04,0.02 -0.09,0.05 -0.13,0.07 -0.4,0.18 -0.92,0.32 -1.42,0.33 -0.39,0.02 -0.78,-0.03 -1.14,-0.16 -0.1,-0.04 -0.21,-0.1 -0.3,-0.13 -0.01,0.31 0.04,0.65 0.01,0.95 -0.03,0.28 -0.25,0.38 -0.47,0.47 0.02,0.86 0.8,1.5 1.48,1.61 0.21,0.03 0.33,0.04 0.42,0.04z"/>
     </g>
    </g>
    <g>
     <rect class="fil3 str2" x="20.58" y="10.98" width="2.52" height="6.32"/>
     <g>
      <path class="fil4" d="M27.35 17.36c-0.49,0 -0.97,-0.18 -1.43,-0.35 -0.51,-0.19 -1.03,-0.39 -1.56,-0.34l-1.29 0.11 0 -4.99 0.71 -0.06c0.43,-0.04 0.8,0.13 1.15,0.29 0.33,0.16 0.64,0.3 1,0.27l2.31 -0.42c0.83,-0.14 1.28,0.34 1.56,0.78l2.52 -1.17c0.95,-0.43 2.01,0 2.65,1.06 0.17,0.28 0.08,0.65 -0.21,0.83 -0.32,0.2 -0.65,0.4 -0.97,0.61 -2.81,1.76 -5.24,3.28 -6.28,3.37 -0.05,0.01 -0.11,0.01 -0.16,0.01zm-2.83 -1.04c0.53,0 1.03,0.18 1.52,0.36 0.5,0.19 0.98,0.37 1.44,0.33 0.96,-0.09 3.47,-1.66 6.13,-3.33 0.32,-0.2 0.65,-0.4 0.97,-0.61 0.13,-0.07 0.17,-0.23 0.1,-0.35 -0.55,-0.91 -1.44,-1.28 -2.22,-0.93l-2.8 1.3c-0.01,-0.18 -0.15,-0.39 -0.22,-0.48 -0.26,-0.31 -0.76,-0.46 -1.14,-0.4l-2.32 0.43c-0.47,0.03 -0.84,-0.14 -1.2,-0.3 -0.32,-0.16 -0.63,-0.3 -0.97,-0.27l-0.39 0.04 0 4.3 0.91 -0.08c0.07,-0.01 0.13,-0.01 0.19,-0.01z"/>
      <path class="fil5 str3" d="M29.79 13c0.05,0.08 0.05,0.23 -0.05,0.38 -0.14,0.24 -0.49,0.42 -1.32,0.32 -0.61,-0.07 -1.35,0.08 -1.98,0.14"/>
      <rect class="fil5 str4" x="20.36" y="10.98" width="2.96" height="6.32" rx="0.55" ry="0.55"/>
     </g>
    </g>
   </g>
   <g>
    <path class="fil2" d="M30.02 9.43c-0.17,-0.84 1.08,-1 1.2,-0.23 0.06,0.36 -0.2,0.65 -0.5,0.7 -0.36,0.06 -0.65,-0.19 -0.7,-0.47zm-5.53 0c-0.16,-0.83 1.07,-1.01 1.2,-0.23 0.13,0.8 -1.05,0.98 -1.2,0.23zm6.35 -0.96c0.47,0 0.41,-0.03 0.63,0.29 0.29,0.43 0.16,0.96 -0.22,1.3 -0.76,0.68 -2.15,-0.25 -1.47,-1.33 0.16,-0.26 0.22,-0.29 0.64,-0.24 -0.15,-0.03 -0.7,0.31 -0.64,0.89 0.08,0.98 1.51,1.03 1.67,0.06 0.04,-0.24 -0.04,-0.48 -0.15,-0.63 -0.14,-0.2 -0.24,-0.21 -0.46,-0.34zm-5.53 0l0.41 0c0.1,0.17 0.23,0.24 0.33,0.51 0.23,0.61 -0.37,1.48 -1.17,1.28 -0.69,-0.16 -1.06,-0.87 -0.61,-1.56 0.15,-0.23 0.21,-0.26 0.62,-0.21 -0.15,-0.02 -0.69,0.31 -0.64,0.89 0.03,0.41 0.38,0.76 0.82,0.76 0.79,0.02 1.21,-0.99 0.5,-1.53 -0.09,-0.07 -0.17,-0.08 -0.26,-0.14zm-2.1 -1.16l0.03 -0.44c0.08,-0.05 0.65,-0.02 0.75,-0.02 0.27,0.01 0.53,0.01 0.8,0.01 0.25,0 1.43,-0.03 1.56,0.03l3.14 -0.01 0.01 -1.04 0.02 -1.19c0.03,-0.04 -0.02,-0.02 0.05,-0.03 0.01,-0.01 0.93,0.01 0.94,0.03l0.49 0c0.26,0.47 0.54,0.97 0.79,1.46 0.21,0.42 0.25,0.32 0.24,0.89 0,0.19 0.02,0.95 -0.03,1.08l-8.1 0.06c-0.31,0.01 -0.26,-0.01 -0.4,-0.18l-0.28 -0.3 -0.01 -0.35zm-0.06 -4.3c1.36,0 2.71,0 4.06,0.01 0.34,0 0.69,0 1.03,0 0.29,0 0.24,-0.05 0.24,0.25l0.01 2.52 -5.37 0 0.03 -2.78zm5.8 1.44c0.11,0.06 0.11,0.05 0.1,0.19l-0.02 1.78 -5.79 -0.02 0.01 -0.14 5.71 -0.01 -0.01 -1.7 0 -0.1zm-4.75 5.53c0.04,0.04 0.05,0.05 0.09,0.09 0.03,0.03 0.05,0.03 0.09,0.07 0.44,0.36 1.13,0.35 1.48,-0.06 0.15,-0.17 0.32,-0.39 0.35,-0.7 0.05,-0.39 -0.12,-0.54 -0.23,-0.79l3.77 -0.02c-0.24,0.35 -0.39,0.78 -0.13,1.25 0.16,0.28 0.54,0.59 1.02,0.59 0.72,0 1.22,-0.77 1.08,-1.35 -0.07,-0.29 -0.17,-0.36 -0.25,-0.51l1.01 -0.01c0,-0.32 0.04,-1.86 0.01,-2.04 -0.03,-0.19 -0.55,-1.08 -0.69,-1.36 -0.55,-1.08 -0.47,-0.96 -1.11,-0.96 -0.34,-0.01 -0.69,-0.01 -1.03,-0.02 -0.23,0 -0.25,0.03 -0.41,-0.09 -0.09,-0.07 -0.21,-0.14 -0.29,-0.21 -0.06,-0.08 -0.03,-0.54 -0.03,-0.64 -0.01,-0.19 -0.03,-0.48 0,-0.65l-4.21 -0.03 -2.03 0.01 -0.04 3.71c0.12,0 0.1,-0.03 0.13,0.04 0,0.31 -0.01,0.62 -0.02,0.93 -0.01,0.42 -0.07,0.5 0.16,0.77 0.55,0.67 0.53,0.61 1.26,0.61 -0.11,0.22 -0.23,0.38 -0.23,0.7 0,0.35 0.13,0.46 0.25,0.67z"/>
    <path class="fil6" d="M23.12 5.79l5.37 0 -0.01 -2.52c0,-0.3 0.05,-0.25 -0.24,-0.25 -0.34,0 -0.69,0 -1.03,0 -1.35,-0.01 -2.7,-0.01 -4.06,-0.01l-0.03 2.78z"/>
    <path class="fil7" d="M29.62 6.17l0.02 -1.15 0 -0.25c0.15,-0.03 0.45,-0.03 0.56,0.02 0.16,-0.04 0.64,-0.01 0.83,0 0.15,0.29 0.87,1.72 0.94,1.91l-1.93 -0.03 -0.44 -0.01c-0.02,-0.07 -0.02,-0.43 0.02,-0.49zm-0.12 -0.33l-0.01 1.04 -3.14 0.01 -3.11 -0.02c0.01,0.09 0.01,0.39 -0.03,0.44l0.01 0.35 0.28 0.3c0.14,0.17 0.09,0.19 0.4,0.18l8.1 -0.06c0.05,-0.13 0.03,-0.89 0.03,-1.08 0.01,-0.57 -0.03,-0.47 -0.24,-0.89 -0.25,-0.49 -0.53,-0.99 -0.79,-1.46l-0.49 0 -0.99 0c0.03,0.13 0.01,1.09 -0.02,1.19z"/>
    <path class="fil8" d="M29.8 6.27l0 0.19c0.09,0.01 0.2,0 0.26,0.03l1.61 0.02 -0.75 -1.54 -1.09 -0.02 -0.03 1.32z"/>
    <path class="fil2" d="M29.8 6.27l0.03 -1.32 1.09 0.02 0.75 1.54 -1.61 -0.02 -0.27 -0.02c-0.02,-0.08 -0.01,-0.14 0.01,-0.2zm-0.16 -1.25l-0.02 1.15 -0.01 0.47c0.13,0.01 0.33,-0.01 0.43,0.03l1.93 0.03c-0.07,-0.19 -0.79,-1.62 -0.94,-1.91 -0.19,-0.01 -0.67,-0.04 -0.83,0 -0.16,0.02 -0.35,-0.01 -0.52,-0.02l-0.04 0.25z"/>
    <path class="fil8" d="M28.95 4.55l0.01 1.7 -5.71 0.01 -0.01 0.14 5.79 0.02 0.02 -1.78c0.01,-0.14 0.01,-0.13 -0.1,-0.19l0 0.1z"/>
    <path class="fil8" d="M24.83 9.38c-0.09,-0.36 0.42,-0.47 0.51,-0.16 0.1,0.36 -0.42,0.47 -0.51,0.16zm-0.34 0.05c0.15,0.75 1.33,0.57 1.2,-0.23 -0.13,-0.78 -1.36,-0.6 -1.2,0.23z"/>
    <path class="fil8" d="M30.56 9.05c0.32,-0.09 0.46,0.41 0.14,0.5 -0.34,0.1 -0.5,-0.4 -0.14,-0.5zm-0.54 0.38c0.05,0.28 0.34,0.53 0.7,0.47 0.3,-0.05 0.56,-0.34 0.5,-0.7 -0.12,-0.77 -1.37,-0.61 -1.2,0.23z"/>
    <path class="fil9" d="M25.31 8.47c0.09,0.06 0.17,0.07 0.26,0.14 0.71,0.54 0.29,1.55 -0.5,1.53 -0.44,0 -0.79,-0.35 -0.82,-0.76 -0.05,-0.58 0.49,-0.91 0.64,-0.89 -0.41,-0.05 -0.47,-0.02 -0.62,0.21 -0.45,0.69 -0.08,1.4 0.61,1.56 0.8,0.2 1.4,-0.67 1.17,-1.28 -0.1,-0.27 -0.23,-0.34 -0.33,-0.51l-0.41 0z"/>
    <path class="fil9" d="M30.84 8.47c0.22,0.13 0.32,0.14 0.46,0.34 0.11,0.15 0.19,0.39 0.15,0.63 -0.16,0.97 -1.59,0.92 -1.67,-0.06 -0.06,-0.58 0.49,-0.92 0.64,-0.89 -0.42,-0.05 -0.48,-0.02 -0.64,0.24 -0.68,1.08 0.71,2.01 1.47,1.33 0.38,-0.34 0.51,-0.87 0.22,-1.3 -0.22,-0.32 -0.16,-0.29 -0.63,-0.29z"/>
    <path class="fil2" d="M24.83 9.38c0.09,0.31 0.61,0.2 0.51,-0.16 -0.09,-0.31 -0.6,-0.2 -0.51,0.16z"/>
    <path class="fil2" d="M30.56 9.05c-0.36,0.1 -0.2,0.6 0.14,0.5 0.32,-0.09 0.18,-0.59 -0.14,-0.5z"/>
    <path class="fil10" d="M28.93 2.57c-0.03,0.17 -0.01,0.46 0,0.65 0,0.1 -0.03,0.56 0.03,0.64l-0.01 -1.2c0,-0.01 0,-0.04 0,-0.04 -0.01,-0.04 -0.01,-0.03 -0.02,-0.05 -0.02,-0.05 -0.97,-0.03 -1.02,-0.03 -0.36,0 -0.71,0 -1.07,0 -0.43,0 -1.81,-0.02 -2.12,0l4.21 0.03z"/>
    <path class="fil11" d="M23.21 7.31c0.04,-0.05 0.04,-0.35 0.03,-0.44l3.11 0.02c-0.13,-0.06 -1.31,-0.03 -1.56,-0.03 -0.27,0 -0.53,0 -0.8,-0.01 -0.1,0 -0.67,-0.03 -0.75,0.02l-0.03 0.44z"/>
    <path class="fil11" d="M29.5 5.84c0.03,-0.1 0.05,-1.06 0.02,-1.19l0.99 0c-0.01,-0.02 -0.93,-0.04 -0.94,-0.03 -0.07,0.01 -0.02,-0.01 -0.05,0.03l-0.02 1.19z"/>
    <path class="fil12" d="M29.64 5.02l0.04 -0.25c0.17,0.01 0.36,0.04 0.52,0.02 -0.11,-0.05 -0.41,-0.05 -0.56,-0.02l0 0.25z"/>
    <path class="fil11" d="M30.04 6.67c-0.1,-0.04 -0.3,-0.02 -0.43,-0.03l0.01 -0.47c-0.04,0.06 -0.04,0.42 -0.02,0.49l0.44 0.01z"/>
    <path class="fil9" d="M30.06 6.49c-0.06,-0.03 -0.17,-0.02 -0.26,-0.03l0 -0.19c-0.02,0.06 -0.03,0.12 -0.01,0.2l0.27 0.02z"/>
   </g>
  </g>
 </g>
</svg>
