<?xml version="1.0" encoding="UTF-8"?>
<!DOCTYPE svg PUBLIC "-//W3C//DTD SVG 1.1//EN" "http://www.w3.org/Graphics/SVG/1.1/DTD/svg11.dtd">
<!-- Creator: CorelDRAW 2021 (64 Bit) -->
<svg xmlns="http://www.w3.org/2000/svg" xml:space="preserve" width="725px" height="375px" version="1.1" style="shape-rendering:geometricPrecision; text-rendering:geometricPrecision; image-rendering:optimizeQuality; fill-rule:evenodd; clip-rule:evenodd"
viewBox="0 0 10.01 5.18"
 xmlns:xlink="http://www.w3.org/1999/xlink"
 xmlns:xodm="http://www.corel.com/coreldraw/odm/2003">
 <defs>
  <style type="text/css">
   <![CDATA[
    .str8 {stroke:#F5A980;stroke-width:0.06;stroke-miterlimit:22.9256}
    .str7 {stroke:black;stroke-width:0.01;stroke-miterlimit:22.9256}
    .str13 {stroke:#DBDBDB;stroke-width:0.01;stroke-miterlimit:22.9256}
    .str5 {stroke:#F5A980;stroke-width:0.01;stroke-miterlimit:22.9256}
    .str2 {stroke:#FA0505;stroke-width:0.01;stroke-miterlimit:22.9256}
    .str3 {stroke:#030303;stroke-width:0.11;stroke-miterlimit:22.9256}
    .str4 {stroke:#030303;stroke-width:0.03;stroke-miterlimit:22.9256}
    .str11 {stroke:#F5A980;stroke-width:0.03;stroke-miterlimit:22.9256}
    .str0 {stroke:#B8B4B6;stroke-width:0.35;stroke-miterlimit:22.9256}
    .str12 {stroke:#F5A980;stroke-width:0.04;stroke-miterlimit:22.9256}
    .str1 {stroke:black;stroke-width:0.01;stroke-miterlimit:22.9256}
    .str9 {stroke:#DBDBDB;stroke-width:0.01;stroke-miterlimit:22.9256}
    .str14 {stroke:#F5A980;stroke-width:0.01;stroke-miterlimit:22.9256}
    .str10 {stroke:#E1E1E1;stroke-width:0.01;stroke-miterlimit:22.9256}
    .str6 {stroke:#454545;stroke-width:0.04;stroke-linecap:round;stroke-miterlimit:22.9256}
    .fil4 {fill:none}
    .fil3 {fill:black}
    .fil5 {fill:black}
    .fil0 {fill:aqua}
    .fil8 {fill:#666666}
    .fil7 {fill:#999999}
    .fil10 {fill:#CCCCCC}
    .fil9 {fill:#F5A980}
    .fil6 {fill:#F5B796}
    .fil2 {fill:white}
    .fil1 {fill:white}
   ]]>
  </style>
 </defs>
 <g id="Camada_x0020_1">
  <metadata id="CorelCorpID_0Corel-Layer"/>
  <g id="_2713560946336">
   <rect class="fil0" x="0.32" y="0.27" width="9.38" height="4.63"/>
   <rect class="fil1 str0" x="0.17" y="0.17" width="9.67" height="4.83" rx="0.45" ry="0.41"/>
   <g>
    <path class="fil2" d="M2.64 2.45c0.06,0 0.11,-0.02 0.15,-0.05 0.02,-0.01 0.04,-0.03 0.06,-0.04 0.01,-0.01 0.04,-0.04 0.06,-0.04 0.01,0.04 0.05,0.05 0.07,0.06 -0.01,0.05 -0.1,0.11 -0.14,0.13 -0.14,0.07 -0.3,0.08 -0.44,0.02 -0.04,-0.02 -0.13,-0.08 -0.14,-0.12 0.01,-0.02 0.06,-0.07 0.08,-0.08 0.07,0.1 0.18,0.12 0.3,0.12zm0.25 -0.71c0.19,-0.04 0.21,0.21 0.06,0.24 -0.08,0.02 -0.14,-0.03 -0.15,-0.09 -0.03,-0.09 0.02,-0.14 0.09,-0.15zm-0.67 0c0.08,-0.02 0.15,0.02 0.16,0.09 0.01,0.08 -0.04,0.14 -0.1,0.15 -0.17,0.03 -0.23,-0.21 -0.06,-0.24zm1.22 0.1c0.03,-0.11 0.06,-0.24 -0.01,-0.33 -0.02,-0.03 -0.07,-0.08 -0.1,-0.1 -0.1,-0.06 -0.12,-0.03 -0.2,0.03 -0.14,0.11 -0.34,0.2 -0.52,0.2 -0.26,0.01 -0.43,-0.14 -0.58,-0.24 -0.05,-0.04 -0.1,-0.02 -0.15,0 -0.06,0.03 -0.09,0.04 -0.1,0.11 -0.01,0.04 -0.04,0.13 -0.03,0.17 0,0.06 0.02,0.11 0.02,0.18l-0.14 0.02c-0.04,0.07 0.01,0.19 0.03,0.26 0.02,0.04 0.03,0.08 0.06,0.1 0.04,0.02 0.1,0.02 0.14,0.02 0.03,0.1 0.06,0.15 0.11,0.23 0.03,0.04 0.11,0.14 0.15,0.17 0.07,0.06 0.12,0.09 0.21,0.12 0.09,0.03 0.19,0.04 0.29,0.04 0.23,0 0.36,-0.07 0.49,-0.17 0.05,-0.03 0.13,-0.12 0.16,-0.17 0.08,-0.11 0.06,-0.12 0.11,-0.22 0.07,0 0.13,0.02 0.16,-0.04 0.03,-0.05 0.02,-0.1 0.04,-0.16 0.02,-0.04 0.06,-0.13 0.02,-0.16 -0.04,-0.03 -0.12,-0.03 -0.16,-0.06z"/>
    <path class="fil3" d="M2.64 2.45c-0.12,0 -0.23,-0.02 -0.3,-0.12 -0.02,0.01 -0.07,0.06 -0.08,0.08 0.01,0.04 0.1,0.1 0.14,0.12 0.14,0.06 0.3,0.05 0.44,-0.02 0.04,-0.02 0.13,-0.08 0.14,-0.13 -0.02,-0.01 -0.06,-0.02 -0.07,-0.06 -0.02,0 -0.05,0.03 -0.06,0.04 -0.02,0.01 -0.04,0.03 -0.06,0.04 -0.04,0.03 -0.09,0.05 -0.15,0.05z"/>
    <polygon class="fil3" points="1.35,4.54 1.46,4.54 1.46,4.05 1.35,4.05 "/>
    <polygon class="fil3" points="3.85,4.52 3.95,4.52 3.96,4.52 3.96,4.06 3.95,4.06 3.85,4.06 "/>
    <path class="fil3" d="M2.89 1.74c-0.07,0.01 -0.12,0.06 -0.09,0.15 0.01,0.06 0.07,0.11 0.15,0.09 0.15,-0.03 0.13,-0.28 -0.06,-0.24z"/>
    <path class="fil3" d="M2.22 1.74c-0.17,0.03 -0.11,0.27 0.06,0.24 0.06,-0.01 0.11,-0.07 0.1,-0.15 -0.01,-0.07 -0.08,-0.11 -0.16,-0.09z"/>
    <path class="fil3 str1" d="M3.44 1.84c0.04,0.03 0.12,0.03 0.16,0.06 0.04,0.03 0,0.12 -0.02,0.16 -0.02,0.06 -0.01,0.11 -0.04,0.16 -0.03,0.06 -0.09,0.04 -0.16,0.04 -0.05,0.1 -0.03,0.11 -0.11,0.22 -0.03,0.05 -0.11,0.14 -0.16,0.17 -0.13,0.1 -0.26,0.17 -0.49,0.17 -0.1,0 -0.2,-0.01 -0.29,-0.04 -0.09,-0.03 -0.14,-0.06 -0.21,-0.12 -0.04,-0.03 -0.12,-0.13 -0.15,-0.17 -0.05,-0.08 -0.08,-0.13 -0.11,-0.23 -0.04,0 -0.1,0 -0.14,-0.02 -0.03,-0.02 -0.04,-0.06 -0.06,-0.1 -0.02,-0.07 -0.07,-0.19 -0.03,-0.26l0.14 -0.02c0,-0.07 -0.02,-0.12 -0.02,-0.18 -0.01,-0.04 0.02,-0.13 0.03,-0.17 0.01,-0.07 0.04,-0.08 0.1,-0.11 0.05,-0.02 0.1,-0.04 0.15,0 0.15,0.1 0.32,0.25 0.58,0.24 0.18,0 0.38,-0.09 0.52,-0.2 0.08,-0.06 0.1,-0.09 0.2,-0.03 0.03,0.02 0.08,0.07 0.1,0.1 0.07,0.09 0.04,0.22 0.01,0.33zm-1.23 -1.28c-0.18,0.07 -0.33,0.22 -0.42,0.35 -0.07,0.1 -0.13,0.18 -0.16,0.35 -0.01,0.08 -0.01,0.17 -0.01,0.25 -0.01,0.09 0.02,0.16 0.02,0.25 -0.07,0.01 -0.1,0.03 -0.12,0.1 -0.02,0.07 -0.02,0.13 0,0.2 0.08,0.41 0.22,0.24 0.29,0.38 0.03,0.07 0.02,0.07 0.08,0.14l0.1 0.12c0.04,0.04 0.07,0.08 0.13,0.1 0,0.05 0,0.25 0,0.29 -0.01,0.03 -0.02,0.04 -0.06,0.04 -0.16,0.02 -0.49,0.09 -0.67,0.12 -0.12,0.02 -0.21,0.04 -0.31,0.08 -0.05,0.02 -0.09,0.04 -0.13,0.07 -0.12,0.08 -0.21,0.21 -0.24,0.35 -0.02,0.09 -0.01,0.29 -0.01,0.39 0,0.13 -0.01,0.26 0,0.4 0.07,0 0.11,0.01 0.12,-0.04l0 -0.48c0,-0.18 0,-0.37 0.15,-0.49 0.07,-0.05 0.11,-0.08 0.21,-0.11 0.17,-0.06 0.36,-0.08 0.53,-0.11 0.09,-0.02 0.19,-0.04 0.28,-0.04 0.02,0.1 0.02,0.14 0.07,0.22 0.07,0.13 0.19,0.22 0.32,0.27 0.06,0.02 0.17,0.05 0.24,0.05 0.28,-0.01 0.64,-0.24 0.65,-0.54l0.69 0.12c0.24,0.03 0.46,0.2 0.47,0.44 0.01,0.23 0.02,0.46 0.02,0.7l0.11 0.01 0 -0.7c-0.04,-0.29 -0.19,-0.51 -0.63,-0.58 -0.23,-0.04 -0.46,-0.08 -0.69,-0.12 -0.08,-0.02 -0.11,-0.02 -0.1,-0.11 0,-0.07 0,-0.18 0,-0.26 0.05,-0.03 0.09,-0.06 0.13,-0.1 0.05,-0.05 0.16,-0.19 0.18,-0.29 0.21,0 0.21,-0.15 0.24,-0.28 0.01,-0.03 0.03,-0.05 0.04,-0.09 0.01,-0.04 0,-0.08 -0.01,-0.12 -0.02,-0.06 -0.06,-0.1 -0.13,-0.12 0,-0.25 0.04,-0.37 -0.04,-0.6 -0.06,-0.17 -0.11,-0.25 -0.22,-0.37 -0.05,-0.05 -0.05,-0.04 -0.09,-0.08 -0.04,-0.03 -0.1,-0.08 -0.15,-0.1 -0.18,-0.11 -0.33,-0.14 -0.54,-0.13 -0.08,0 -0.21,0.01 -0.34,0.07zm-0.31 0.41c0.1,-0.1 0.19,-0.22 0.4,-0.31 0.07,-0.04 0.1,-0.05 0.2,-0.05 0.14,-0.01 0.3,0.01 0.44,0.06 0.1,0.04 0.15,0.08 0.22,0.14 0.09,0.08 0.11,0.09 0.18,0.2 0.04,0.06 0.14,0.27 0.13,0.36 -0.04,-0.03 -0.13,-0.09 -0.19,-0.11 -0.05,-0.02 -0.08,-0.01 -0.12,0.01 -0.03,0.02 -0.06,0.05 -0.09,0.07 -0.3,0.22 -0.56,0.27 -0.89,0.02 -0.03,-0.03 -0.06,-0.05 -0.09,-0.07 -0.04,-0.03 -0.06,-0.04 -0.12,-0.04 -0.13,0.01 -0.17,0.07 -0.23,0.09 0,-0.17 0.11,-0.31 0.16,-0.37zm0.71 2.72c0.03,0 0.05,0 0.07,-0.01 0.02,0 0.05,-0.01 0.07,-0.01 0.22,-0.03 0.4,-0.23 0.4,-0.42 -0.09,-0.03 -0.13,-0.09 -0.13,-0.17l0.01 -0.24 0 0c-0.01,0 -0.02,0.01 -0.04,0.02 -0.1,0.05 -0.24,0.08 -0.37,0.09 -0.11,0 -0.21,-0.01 -0.31,-0.05 -0.03,-0.01 -0.05,-0.03 -0.08,-0.03 0,0.08 0.01,0.17 0,0.25 0,0.07 -0.06,0.1 -0.12,0.13 0,0.22 0.21,0.4 0.39,0.42 0.06,0.01 0.09,0.02 0.11,0.02z"/>
   </g>
   <g>
    <polygon class="fil1 str2" points="6.26,2.53 6,2.96 5.84,2.69 6.18,2.35 "/>
    <polygon class="fil1 str2" points="5.39,2.54 5.67,2.95 5.82,2.7 5.45,2.35 "/>
    <path class="fil1 str2" d="M5.39 2.54l0.28 0.43 0.04 -0.07 0.05 0.04 -0.01 0.68c-0.35,0 -0.71,0 -1.06,0 -0.05,0.01 -0.09,-0.05 -0.09,-0.09 0.01,-0.09 0.03,-0.37 0.06,-0.62 0,-0.11 0.03,-0.12 0.11,-0.14 0.12,-0.04 0.59,-0.22 0.62,-0.23z"/>
    <path class="fil1 str2" d="M6.26 2.53l-0.26 0.44 -0.04 -0.08 -0.05 0.05 0.02 0.69c0.35,0 0.56,0 0.91,0 0.1,0 0.12,-0.02 0.12,-0.1 0,-0.09 -0.02,-0.37 -0.05,-0.63 0,-0.07 0,-0.1 -0.08,-0.13 -0.12,-0.04 -0.54,-0.23 -0.57,-0.24z"/>
    <path class="fil4 str3" d="M6.88 3.63l-2.2 0c-0.05,0 -0.09,-0.03 -0.08,-0.1 0.01,-0.22 0.03,-0.43 0.05,-0.65 0.01,-0.05 0.03,-0.09 0.08,-0.1l0.67 -0.25 0.05 -0.19 0.38 0.36 0.34 -0.36 0.09 0.19 0.6 0.25c0.03,0.03 0.05,0.06 0.06,0.11 0.02,0.21 0.04,0.43 0.06,0.64 0.01,0.06 -0.04,0.1 -0.1,0.1z"/>
    <polyline class="fil4 str3" points="5.39,2.54 5.67,2.96 5.82,2.71 6,2.96 6.25,2.54 "/>
    <polygon class="fil5 str4" points="5.95,2.9 5.82,2.72 5.72,2.9 5.77,2.95 5.76,3.63 5.95,3.63 5.91,2.95 "/>
    <path class="fil6 str5" d="M5.53 2.39l0.3 0.28 0.27 -0.28 -0.01 -0.12c-0.06,0.06 -0.11,0.12 -0.17,0.18 -0.03,0.03 -0.13,0.04 -0.18,0l-0.21 -0.18 0 0.12z"/>
    <path class="fil6 str5" d="M6.36 1.58c-0.02,0 -0.03,0.03 -0.04,0.04l0.02 -0.05 -0.15 -0.11 0 -0.22 -0.2 -0.01 -0.16 0.06 -0.18 -0.06 -0.21 0 -0.01 0.19 -0.1 0.14c-0.01,-0.02 -0.02,-0.04 -0.04,-0.05 0,-0.02 -0.02,-0.02 -0.03,-0.01 -0.02,0 -0.03,0.01 -0.03,0.04 -0.01,0.03 -0.01,0.06 0,0.09l0.02 0.12c0,0.02 0.02,0.03 0.04,0.03 0,0 0.01,-0.01 0.03,-0.03 0.01,0.09 0.03,0.17 0.05,0.24 0.04,0.1 0.09,0.19 0.15,0.28 0.07,0.06 0.14,0.11 0.21,0.17 0.06,0.05 0.12,0.06 0.19,0.01 0.09,-0.09 0.18,-0.18 0.27,-0.27 0.03,-0.05 0.06,-0.1 0.09,-0.16 0.01,-0.07 0.02,-0.14 0.03,-0.21 0.01,0.01 0.02,0.02 0.03,0.02 0,0 0.03,-0.01 0.04,-0.02 0.03,-0.06 0.05,-0.12 0.06,-0.17 0,-0.02 -0.01,-0.04 -0.03,-0.05 -0.01,-0.01 -0.04,-0.02 -0.05,-0.01z"/>
    <path class="fil3" d="M6.05 1.65c-0.03,0.01 -0.05,0.03 -0.04,0.07 0.01,0.02 0.03,0.04 0.06,0.04 0.06,-0.02 0.05,-0.12 -0.02,-0.11z"/>
    <path class="fil3" d="M5.59 1.65c-0.07,0.02 -0.04,0.12 0.02,0.11 0.03,-0.01 0.05,-0.03 0.04,-0.07 0,-0.02 -0.03,-0.04 -0.06,-0.04z"/>
    <line class="fil4 str6" x1="5.48" y1="1.52" x2="5.74" y2= "1.54" />
    <path class="fil5 str7" d="M5.44 1.42l-0.11 0.15c-0.04,-0.12 -0.07,-0.27 -0.03,-0.46 0.03,-0.18 0.12,-0.25 0.24,-0.27 0.21,-0.03 0.39,-0.03 0.56,0 0.13,0.05 0.22,0.17 0.24,0.27 0.04,0.17 0.02,0.28 0,0.46 -0.05,-0.04 -0.1,-0.07 -0.15,-0.11 -0.02,-0.07 -0.02,-0.15 -0.01,-0.22 -0.07,0.02 -0.12,0.02 -0.19,0 -0.08,0.07 -0.23,0.07 -0.34,0 -0.06,0.01 -0.13,0.01 -0.21,0 0.01,0.06 0.01,0.12 0,0.18z"/>
    <line class="fil4 str6" x1="6.15" y1="1.52" x2="5.89" y2= "1.54" />
    <path class="fil7" d="M6.04 1.65c-0.01,-0.02 0.03,-0.04 0.09,-0.04 0.04,0.01 0.07,0.02 0.08,0.05 0,0 0.01,0.01 0,0.02l-0.03 0.01c-0.03,-0.03 -0.08,-0.04 -0.14,-0.04z"/>
    <path class="fil7" d="M5.64 1.65c0.01,-0.02 -0.03,-0.04 -0.09,-0.04 -0.04,0.01 -0.06,0.02 -0.08,0.05 0,0 0,0.01 0,0.02l0.03 0.01c0.03,-0.03 0.08,-0.04 0.14,-0.04z"/>
    <path class="fil4 str8" d="M5.94 1.6l-0.04 0.03 -0.02 0.07 -0.01 0.12 0.01 0.07 0.05 0.07c0.01,0.01 0,0.02 0,0.02l-0.08 0.06c-0.02,0.01 -0.03,0.01 -0.04,0l-0.1 -0.06 0 -0.03 0.04 -0.07 0.01 -0.06 -0.02 -0.11 -0.03 -0.08 -0.05 -0.04"/>
    <path class="fil8" d="M5.98 2.13l-0.31 -0.01c-0.01,0 -0.01,0.01 0,0.01l0.06 0.06c0.03,0.02 0.06,0.03 0.09,0.03 0.04,0 0.07,-0.01 0.09,-0.02l0.08 -0.06c0,-0.01 -0.01,-0.01 -0.01,-0.01z"/>
    <path class="fil1 str9" d="M5.72 2.11l0 0.03c0,0.01 0.01,0.01 0.02,0.01 0,0 0.01,0 0.02,0 0.01,0 0.02,0 0.02,0 0.02,0.01 0.03,0.01 0.05,0 0.01,0.01 0.02,0.01 0.04,0 0.01,0 0.02,0 0.02,0 0.01,0 0.02,0 0.03,0l0.01 0c0.01,0 0.01,-0.01 0.02,-0.01l0 -0.03c-0.08,0 -0.16,0 -0.23,0z"/>
    <line class="fil4 str10" x1="5.87" y1="2.12" x2="5.87" y2= "2.15" />
    <line class="fil4 str10" x1="5.89" y1="2.12" x2="5.89" y2= "2.15" />
    <line class="fil4 str10" x1="5.92" y1="2.12" x2="5.92" y2= "2.15" />
    <line class="fil4 str10" x1="5.74" y1="2.12" x2="5.74" y2= "2.15" />
    <line class="fil4 str10" x1="5.76" y1="2.12" x2="5.76" y2= "2.15" />
    <line class="fil4 str10" x1="5.78" y1="2.12" x2="5.79" y2= "2.15" />
    <line class="fil4 str10" x1="5.83" y1="2.12" x2="5.83" y2= "2.15" />
    <path class="fil4 str11" d="M5.74 2.22l-0.1 -0.09c-0.01,-0.02 0.02,-0.03 0.04,-0.03 0.11,0.02 0.19,0.01 0.3,0 0.04,0.01 0.04,0.01 0.02,0.04l-0.08 0.08c-0.06,0.04 -0.12,0.04 -0.18,0z"/>
    <polyline class="fil4 str5" points="5.69,2.35 5.75,2.32 5.82,2.3 5.9,2.31 5.98,2.35 "/>
    <path class="fil4 str12" d="M5.29 1.71c-0.03,-0.03 -0.03,-0.09 -0.03,-0.15 0.01,-0.05 0.02,-0.03 0.03,-0.01 0.02,0.04 0.02,0.07 0,0.1"/>
    <path class="fil4 str12" d="M6.34 1.64c0.01,-0.03 0.02,-0.05 0.04,-0.05 0.03,0 0.05,0.02 0.04,0.05 -0.01,0.07 -0.04,0.1 -0.06,0.11"/>
    <path class="fil4 str11" d="M5.95 1.71c0.01,0.02 0.03,0.02 0.04,0.03 0.04,0.02 0.07,0.05 0.16,-0.01 0.03,-0.03 0.04,-0.01 0.07,-0.02"/>
    <path class="fil4 str11" d="M5.7 1.71c-0.01,0.02 -0.02,0.02 -0.04,0.03 -0.03,0.02 -0.06,0.05 -0.14,-0.01 -0.03,-0.03 -0.03,-0.01 -0.06,-0.02"/>
    <path class="fil4 str11" d="M5.46 1.71c0.02,0 0.03,0 0.04,-0.01 0.08,-0.06 0.13,-0.06 0.17,-0.02 0.01,0 0.02,0.02 0.04,0.02"/>
    <path class="fil4 str11" d="M6.22 1.71c-0.01,0 -0.03,0 -0.04,-0.01 -0.08,-0.06 -0.14,-0.06 -0.19,-0.02 -0.01,0 -0.03,0.02 -0.04,0.02"/>
    <path class="fil9 str5" d="M5.99 2.14c-0.13,0.11 -0.24,0.08 -0.34,-0.02 0.08,0.15 0.23,0.18 0.34,0.02z"/>
    <path class="fil10 str5" d="M5.71 2.11c0.01,0 -0.05,0 -0.06,0 -0.01,0.01 0,0.01 0.01,0.01 0.01,0.03 0.04,0.05 0.06,0.06l-0.01 -0.07z"/>
    <path class="fil10 str5" d="M5.95 2.12c0,-0.02 0.05,-0.01 0.06,0 0,0.01 -0.03,0.03 -0.06,0.05l0 -0.05z"/>
    <path class="fil1" d="M5.79 2.21c-0.02,-0.01 -0.04,-0.02 -0.05,-0.03 0.02,-0.01 0.01,0.01 0.02,0 0.03,-0.01 0.02,0.01 0.02,0 0.03,-0.01 0.04,0 0.05,0.01 0,0.01 -0.01,-0.02 0.04,0 0.01,0 -0.01,-0.01 0.02,0 0.02,0 0,-0.01 0.03,-0.01 -0.01,0.01 -0.03,0.02 -0.06,0.03 -0.02,0 -0.04,0 -0.07,0z"/>
    <path class="fil4 str13" d="M5.73 2.18c0.01,0 0.02,0 0.03,0 0.01,0 0.02,0 0.02,0 0.02,0 0.03,0 0.05,0.01 0.01,-0.01 0.03,-0.01 0.04,0 0,-0.01 0.01,-0.01 0.03,0 0.01,-0.01 0.02,-0.01 0.02,0"/>
    <line class="fil4 str9" x1="5.76" y1="2.19" x2="5.76" y2= "2.2" />
    <line class="fil4 str9" x1="5.78" y1="2.18" x2="5.78" y2= "2.2" />
    <line class="fil4 str9" x1="5.83" y1="2.18" x2="5.83" y2= "2.21" />
    <line class="fil4 str9" x1="5.87" y1="2.18" x2="5.87" y2= "2.21" />
    <line class="fil4 str9" x1="5.89" y1="2.18" x2="5.9" y2= "2.2" />
    <path class="fil9 str14" d="M5.81 2.07c-0.01,0 -0.02,0 -0.03,0 -0.04,0.02 -0.08,0.03 -0.11,0.03 -0.02,0 -0.04,0.02 -0.01,0.01 0.01,0 0.04,0 0.06,0.01 0.07,0.01 0.15,0.02 0.23,-0.01 0.02,0 0.04,0 0.05,0 0.01,0 0.01,0 0,0 -0.05,-0.02 -0.1,-0.02 -0.12,-0.03 -0.01,0 -0.02,-0.01 -0.03,-0.01 -0.02,0.01 -0.03,0.01 -0.04,0z"/>
    <polygon class="fil1 str2" points="8.64,2.51 8.39,2.94 8.22,2.67 8.56,2.33 "/>
    <polygon class="fil1 str2" points="7.78,2.52 8.06,2.93 8.21,2.68 7.83,2.33 "/>
    <path class="fil1 str2" d="M7.77 2.52l0.29 0.43 0.04 -0.07 0.05 0.04 -0.01 0.68c-0.35,0 -0.71,0 -1.06,0 -0.06,0.01 -0.09,-0.05 -0.09,-0.09 0,-0.09 0.03,-0.37 0.05,-0.62 0.01,-0.11 0.03,-0.12 0.11,-0.14 0.13,-0.04 0.59,-0.22 0.62,-0.23z"/>
    <path class="fil1 str2" d="M8.65 2.51l-0.26 0.44 -0.05 -0.08 -0.05 0.05 0.02 0.69c0.36,0 0.56,0 0.92,0 0.09,0 0.12,-0.02 0.12,-0.1 0,-0.09 -0.02,-0.37 -0.05,-0.63 -0.01,-0.07 -0.01,-0.1 -0.08,-0.13 -0.12,-0.04 -0.54,-0.22 -0.57,-0.24z"/>
    <path class="fil4 str3" d="M9.27 3.61l-2.2 0c-0.05,0 -0.09,-0.03 -0.09,-0.1 0.02,-0.22 0.04,-0.43 0.06,-0.65 0,-0.05 0.03,-0.09 0.07,-0.1l0.68 -0.25 0.05 -0.19 0.37 0.36 0.35 -0.36 0.08 0.19 0.61 0.26c0.03,0.02 0.05,0.05 0.06,0.1 0.02,0.21 0.04,0.43 0.06,0.64 0,0.06 -0.04,0.1 -0.1,0.1z"/>
    <polyline class="fil4 str3" points="7.78,2.52 8.06,2.94 8.21,2.69 8.39,2.94 8.64,2.52 "/>
    <polygon class="fil5 str4" points="8.33,2.88 8.21,2.7 8.1,2.88 8.16,2.93 8.14,3.61 8.34,3.61 8.3,2.93 "/>
    <path class="fil6 str5" d="M7.92 2.37l0.29 0.28 0.28 -0.28 -0.01 -0.12c-0.06,0.06 -0.12,0.12 -0.17,0.18 -0.04,0.03 -0.14,0.04 -0.19,0l-0.2 -0.18 0 0.12z"/>
    <path class="fil6 str5" d="M8.75 1.56c-0.02,0 -0.03,0.03 -0.04,0.04l0.01 -0.05 -0.14 -0.11 0 -0.22 -0.2 0 -0.17 0.05 -0.17 -0.06 -0.21 0.01 -0.02 0.19 -0.09 0.13c-0.02,-0.02 -0.03,-0.04 -0.04,-0.05 0,-0.02 -0.03,-0.02 -0.04,-0.01 -0.01,0 -0.02,0.02 -0.03,0.04 0,0.03 0,0.06 0,0.09l0.03 0.12c0,0.02 0.01,0.03 0.03,0.03 0.01,0 0.02,-0.01 0.04,-0.03 0.01,0.09 0.02,0.17 0.05,0.24 0.04,0.1 0.09,0.19 0.15,0.28 0.07,0.06 0.14,0.11 0.21,0.17 0.06,0.05 0.12,0.06 0.18,0.01 0.1,-0.09 0.19,-0.18 0.27,-0.27 0.04,-0.05 0.07,-0.1 0.09,-0.16 0.02,-0.07 0.03,-0.14 0.04,-0.21 0.01,0.01 0.01,0.02 0.02,0.02 0.01,0 0.04,-0.01 0.05,-0.02 0.03,-0.06 0.04,-0.12 0.05,-0.17 0.01,-0.02 -0.01,-0.04 -0.02,-0.05 -0.02,-0.01 -0.04,-0.02 -0.05,-0.01z"/>
    <path class="fil3" d="M8.44 1.64c-0.03,0 -0.05,0.02 -0.04,0.06 0,0.02 0.03,0.04 0.06,0.04 0.06,-0.02 0.05,-0.12 -0.02,-0.1z"/>
    <path class="fil3" d="M7.98 1.63c-0.07,0.02 -0.04,0.12 0.02,0.11 0.02,-0.01 0.04,-0.03 0.04,-0.07 0,-0.02 -0.03,-0.04 -0.06,-0.04z"/>
    <line class="fil4 str6" x1="7.86" y1="1.5" x2="8.13" y2= "1.53" />
    <path class="fil5 str7" d="M7.82 1.4l-0.11 0.15c-0.04,-0.12 -0.06,-0.27 -0.03,-0.46 0.03,-0.18 0.13,-0.25 0.25,-0.27 0.21,-0.03 0.39,-0.03 0.56,0.01 0.13,0.04 0.22,0.16 0.24,0.26 0.04,0.17 0.01,0.28 -0.01,0.46 -0.05,-0.04 -0.1,-0.07 -0.15,-0.11 -0.01,-0.07 -0.02,-0.15 0,-0.22 -0.07,0.02 -0.12,0.02 -0.19,0 -0.08,0.07 -0.24,0.07 -0.34,0 -0.06,0.01 -0.13,0.01 -0.21,0 0.01,0.06 0.01,0.13 -0.01,0.18z"/>
    <line class="fil4 str6" x1="8.54" y1="1.5" x2="8.28" y2= "1.53" />
    <path class="fil7" d="M8.43 1.63c-0.01,-0.02 0.03,-0.04 0.09,-0.04 0.03,0.01 0.06,0.02 0.07,0.05 0.01,0 0.01,0.01 0.01,0.02l-0.03 0.01c-0.04,-0.03 -0.08,-0.04 -0.14,-0.04z"/>
    <path class="fil7" d="M8.03 1.63c0.01,-0.02 -0.04,-0.04 -0.09,-0.04 -0.04,0.01 -0.07,0.02 -0.08,0.05 0,0 -0.01,0.01 0,0.02l0.03 0.01c0.03,-0.03 0.08,-0.04 0.14,-0.04z"/>
    <path class="fil4 str8" d="M8.32 1.58l-0.04 0.03 -0.01 0.07 -0.01 0.12 0.01 0.07 0.05 0.07c0,0.01 0,0.02 0,0.02l-0.08 0.06c-0.02,0.01 -0.03,0.01 -0.05,0l-0.09 -0.06 0 -0.03 0.04 -0.07 0 -0.06 -0.02 -0.11 -0.02 -0.08 -0.05 -0.04"/>
    <path class="fil8" d="M8.37 2.11l-0.31 -0.01c-0.01,0 -0.01,0.01 -0.01,0.01l0.07 0.06c0.03,0.02 0.06,0.03 0.09,0.03 0.03,0 0.06,-0.01 0.09,-0.02l0.07 -0.06c0.01,-0.01 0,-0.01 0,-0.01z"/>
    <path class="fil1 str9" d="M8.1 2.09l0 0.03c0,0.01 0.01,0.01 0.02,0.01 0.01,0 0.02,0 0.03,0 0.01,0 0.01,0 0.02,0 0.02,0.01 0.03,0.01 0.04,0 0.02,0.01 0.03,0.01 0.04,0 0.01,0 0.02,0 0.03,0 0.01,0 0.02,0 0.03,0l0.01 0c0.01,0 0.01,-0.01 0.01,-0.01l0.01 -0.03c-0.08,0 -0.16,0 -0.24,0z"/>
    <line class="fil4 str10" x1="8.25" y1="2.1" x2="8.25" y2= "2.13" />
    <line class="fil4 str10" x1="8.28" y1="2.1" x2="8.28" y2= "2.13" />
    <line class="fil4 str10" x1="8.31" y1="2.1" x2="8.31" y2= "2.13" />
    <line class="fil4 str10" x1="8.12" y1="2.1" x2="8.12" y2= "2.13" />
    <line class="fil4 str10" x1="8.15" y1="2.1" x2="8.15" y2= "2.13" />
    <line class="fil4 str10" x1="8.17" y1="2.1" x2="8.17" y2= "2.13" />
    <line class="fil4 str10" x1="8.21" y1="2.1" x2="8.21" y2= "2.13" />
    <path class="fil4 str11" d="M8.12 2.2l-0.09 -0.09c-0.01,-0.02 0.02,-0.03 0.03,-0.03 0.12,0.02 0.19,0.01 0.31,0 0.03,0.01 0.04,0.01 0.02,0.04l-0.08 0.08c-0.06,0.04 -0.12,0.04 -0.19,0z"/>
    <polyline class="fil4 str5" points="8.07,2.33 8.14,2.3 8.21,2.28 8.29,2.29 8.36,2.33 "/>
    <path class="fil4 str12" d="M7.67 1.69c-0.02,-0.03 -0.03,-0.09 -0.03,-0.15 0.02,-0.05 0.03,-0.03 0.04,-0.01 0.01,0.04 0.01,0.07 0,0.1"/>
    <path class="fil4 str12" d="M8.73 1.62c0,-0.03 0.02,-0.05 0.04,-0.05 0.02,0 0.04,0.02 0.04,0.05 -0.01,0.07 -0.04,0.1 -0.06,0.11"/>
    <path class="fil4 str11" d="M8.34 1.69c0.01,0.02 0.02,0.02 0.04,0.03 0.04,0.02 0.07,0.05 0.16,-0.01 0.03,-0.03 0.03,-0.01 0.07,-0.02"/>
    <path class="fil4 str11" d="M8.09 1.69c-0.01,0.02 -0.02,0.02 -0.04,0.03 -0.03,0.02 -0.06,0.05 -0.14,-0.01 -0.03,-0.03 -0.04,-0.01 -0.07,-0.02"/>
    <path class="fil4 str11" d="M7.85 1.69c0.01,0 0.03,0 0.04,-0.01 0.07,-0.06 0.12,-0.06 0.17,-0.02 0.01,0 0.02,0.02 0.03,0.02"/>
    <path class="fil4 str11" d="M8.61 1.69c-0.01,0 -0.03,0 -0.04,-0.01 -0.09,-0.06 -0.15,-0.06 -0.19,-0.02 -0.01,0 -0.03,0.02 -0.04,0.02"/>
    <path class="fil9 str5" d="M8.37 2.12c-0.13,0.11 -0.23,0.08 -0.34,-0.02 0.09,0.15 0.24,0.18 0.34,0.02z"/>
    <path class="fil10 str5" d="M8.1 2.09c0,0 -0.05,0 -0.07,0 0,0.01 0.01,0.01 0.01,0.01 0.02,0.03 0.05,0.05 0.07,0.06l-0.01 -0.07z"/>
    <path class="fil10 str5" d="M8.34 2.1c0,-0.02 0.05,-0.01 0.05,0 0.01,0.01 -0.03,0.03 -0.06,0.05l0.01 -0.05z"/>
    <path class="fil1" d="M8.18 2.19c-0.02,-0.01 -0.04,-0.02 -0.06,-0.03 0.03,0 0.01,0.01 0.03,0 0.02,-0.01 0.02,0.01 0.02,0 0.02,-0.01 0.04,0 0.04,0.01 0.01,0.01 -0.01,-0.02 0.04,0 0.01,0 0,-0.01 0.03,0 0.02,0 -0.01,-0.01 0.03,-0.01 -0.02,0.01 -0.04,0.02 -0.06,0.03 -0.02,0 -0.05,0 -0.07,0z"/>
    <path class="fil4 str13" d="M8.12 2.16c0.01,0 0.02,0 0.03,0 0,0 0.01,0 0.02,0 0.01,0 0.03,0 0.04,0.01 0.02,-0.01 0.03,-0.01 0.04,0 0.01,-0.01 0.02,-0.01 0.03,0 0.01,-0.01 0.02,-0.01 0.03,0"/>
    <line class="fil4 str9" x1="8.15" y1="2.17" x2="8.15" y2= "2.18" />
    <line class="fil4 str9" x1="8.17" y1="2.17" x2="8.17" y2= "2.18" />
    <line class="fil4 str9" x1="8.21" y1="2.17" x2="8.21" y2= "2.19" />
    <line class="fil4 str9" x1="8.25" y1="2.16" x2="8.25" y2= "2.19" />
    <line class="fil4 str9" x1="8.28" y1="2.16" x2="8.28" y2= "2.18" />
    <path class="fil9 str14" d="M8.19 2.05c0,0 -0.01,0 -0.03,0 -0.03,0.02 -0.07,0.03 -0.11,0.03 -0.01,0 -0.03,0.02 0,0.02 0.01,-0.01 0.04,-0.01 0.06,0 0.07,0.01 0.15,0.02 0.23,-0.01 0.01,0 0.03,0 0.05,0 0.01,0 0.01,0 -0.01,0 -0.05,-0.02 -0.1,-0.02 -0.12,-0.03 -0.01,0 -0.02,-0.01 -0.03,-0.01 -0.01,0.01 -0.02,0.01 -0.04,0z"/>
    <polygon class="fil1 str2" points="7.49,3.32 7.23,3.75 7.07,3.48 7.41,3.14 "/>
    <polygon class="fil1 str2" points="6.62,3.33 6.9,3.74 7.05,3.49 6.68,3.14 "/>
    <path class="fil1 str2" d="M6.62 3.33l0.28 0.44 0.05 -0.08 0.04 0.04 -0.01 0.68c-0.35,0 -0.71,0 -1.06,0.01 -0.05,0 -0.09,-0.06 -0.08,-0.09 0,-0.1 0.02,-0.37 0.05,-0.63 0,-0.11 0.03,-0.11 0.11,-0.14 0.12,-0.03 0.59,-0.22 0.62,-0.23z"/>
    <path class="fil1 str2" d="M7.49 3.32l-0.26 0.44 -0.04 -0.07 -0.05 0.04 0.02 0.69c0.35,0 0.56,0 0.91,0 0.1,0 0.12,-0.02 0.12,-0.09 0,-0.1 -0.02,-0.38 -0.05,-0.63 0,-0.07 0,-0.11 -0.08,-0.14 -0.12,-0.04 -0.54,-0.22 -0.57,-0.24z"/>
    <path class="fil4 str3" d="M8.11 4.42l-2.2 0c-0.05,0 -0.09,-0.03 -0.08,-0.1 0.01,-0.21 0.03,-0.43 0.05,-0.64 0.01,-0.06 0.03,-0.09 0.08,-0.11l0.67 -0.24 0.05 -0.19 0.38 0.35 0.34 -0.36 0.09 0.19 0.6 0.26c0.03,0.02 0.05,0.05 0.06,0.1 0.02,0.22 0.04,0.43 0.06,0.64 0.01,0.06 -0.04,0.1 -0.1,0.1z"/>
    <polyline class="fil4 str3" points="6.62,3.34 6.9,3.75 7.05,3.5 7.23,3.75 7.48,3.33 "/>
    <polygon class="fil5 str4" points="7.18,3.69 7.05,3.51 6.95,3.69 7,3.74 6.99,4.42 7.18,4.42 7.14,3.74 "/>
    <path class="fil6 str5" d="M6.76 3.18l0.3 0.28 0.27 -0.28 -0.01 -0.12c-0.06,0.06 -0.11,0.12 -0.17,0.18 -0.03,0.03 -0.13,0.04 -0.18,0l-0.21 -0.18 0 0.12z"/>
    <path class="fil6 str5" d="M7.59 2.37c-0.02,0 -0.03,0.03 -0.04,0.04l0.02 -0.05 -0.15 -0.11 0 -0.22 -0.2 0 -0.16 0.05 -0.18 -0.06 -0.21 0.01 -0.01 0.19 -0.1 0.13c-0.01,-0.02 -0.02,-0.04 -0.04,-0.05 0,-0.02 -0.02,-0.02 -0.03,-0.01 -0.02,0 -0.03,0.02 -0.03,0.04 -0.01,0.03 -0.01,0.07 0,0.09l0.02 0.12c0,0.02 0.02,0.03 0.04,0.03 0,0 0.01,-0.01 0.03,-0.03 0.01,0.09 0.03,0.17 0.05,0.24 0.04,0.1 0.09,0.19 0.15,0.28 0.07,0.06 0.14,0.12 0.21,0.17 0.06,0.06 0.12,0.06 0.19,0.01 0.09,-0.09 0.18,-0.18 0.27,-0.27 0.03,-0.05 0.06,-0.1 0.09,-0.16 0.01,-0.07 0.02,-0.14 0.03,-0.21 0.01,0.01 0.02,0.02 0.03,0.02 0,0 0.03,-0.01 0.04,-0.02 0.03,-0.06 0.05,-0.12 0.06,-0.17 0,-0.02 -0.01,-0.04 -0.03,-0.05 -0.01,-0.01 -0.04,-0.02 -0.05,-0.01z"/>
    <path class="fil3" d="M7.28 2.45c-0.03,0 -0.05,0.02 -0.04,0.06 0.01,0.02 0.03,0.04 0.06,0.04 0.06,-0.02 0.05,-0.12 -0.02,-0.1z"/>
    <path class="fil3" d="M6.82 2.45c-0.07,0.01 -0.04,0.11 0.02,0.1 0.03,-0.01 0.05,-0.03 0.04,-0.07 0,-0.02 -0.03,-0.04 -0.06,-0.03z"/>
    <line class="fil4 str6" x1="6.71" y1="2.31" x2="6.97" y2= "2.34" />
    <path class="fil5 str7" d="M6.67 2.21l-0.11 0.15c-0.04,-0.12 -0.07,-0.26 -0.03,-0.46 0.03,-0.18 0.12,-0.25 0.24,-0.27 0.21,-0.03 0.39,-0.03 0.56,0.01 0.13,0.04 0.22,0.16 0.24,0.26 0.04,0.17 0.02,0.28 0,0.46 -0.05,-0.04 -0.1,-0.07 -0.15,-0.11 -0.02,-0.07 -0.02,-0.15 -0.01,-0.22 -0.07,0.02 -0.12,0.02 -0.19,0 -0.08,0.07 -0.23,0.07 -0.34,0 -0.06,0.01 -0.13,0.01 -0.21,0 0.01,0.06 0.01,0.13 0,0.18z"/>
    <line class="fil4 str6" x1="7.38" y1="2.31" x2="7.12" y2= "2.34" />
    <path class="fil7" d="M7.27 2.44c-0.01,-0.02 0.03,-0.04 0.09,-0.04 0.04,0.01 0.07,0.02 0.08,0.05 0,0 0.01,0.01 0,0.02l-0.03 0.01c-0.03,-0.03 -0.08,-0.04 -0.14,-0.04z"/>
    <path class="fil7" d="M6.87 2.44c0.01,-0.02 -0.03,-0.04 -0.09,-0.04 -0.04,0.01 -0.06,0.02 -0.08,0.05 0,0 0,0.01 0,0.02l0.03 0.01c0.03,-0.03 0.08,-0.04 0.14,-0.04z"/>
    <path class="fil4 str8" d="M7.17 2.39l-0.04 0.03 -0.02 0.08 -0.01 0.12 0.01 0.06 0.05 0.07c0.01,0.01 0,0.02 0,0.02l-0.08 0.06c-0.02,0.01 -0.03,0.01 -0.04,0l-0.1 -0.06 0 -0.03 0.04 -0.07 0.01 -0.05 -0.02 -0.12 -0.03 -0.08 -0.05 -0.04"/>
    <path class="fil8" d="M7.21 2.92l-0.31 -0.01c-0.01,0 -0.01,0.01 0,0.01l0.06 0.06c0.03,0.02 0.06,0.03 0.09,0.03 0.04,0 0.07,-0.01 0.09,-0.02l0.08 -0.06c0,-0.01 -0.01,-0.01 -0.01,-0.01z"/>
    <path class="fil1 str9" d="M6.95 2.9l0 0.03c0,0.01 0.01,0.01 0.02,0.01 0,0 0.01,0 0.02,0 0.01,0.01 0.02,0.01 0.03,0 0.01,0.01 0.02,0.01 0.04,0 0.01,0.01 0.02,0.01 0.04,0 0.01,0 0.02,0 0.02,0 0.01,0 0.02,0 0.03,0l0.01 0c0.01,0 0.01,-0.01 0.02,-0.01l0 -0.03c-0.08,0 -0.16,0 -0.23,0z"/>
    <line class="fil4 str10" x1="7.1" y1="2.91" x2="7.1" y2= "2.94" />
    <line class="fil4 str10" x1="7.12" y1="2.91" x2="7.12" y2= "2.94" />
    <line class="fil4 str10" x1="7.15" y1="2.91" x2="7.15" y2= "2.94" />
    <line class="fil4 str10" x1="6.97" y1="2.91" x2="6.97" y2= "2.94" />
    <line class="fil4 str10" x1="6.99" y1="2.91" x2="6.99" y2= "2.94" />
    <line class="fil4 str10" x1="7.02" y1="2.91" x2="7.02" y2= "2.94" />
    <line class="fil4 str10" x1="7.06" y1="2.91" x2="7.06" y2= "2.94" />
    <path class="fil4 str11" d="M6.97 3.01l-0.1 -0.09c-0.01,-0.02 0.02,-0.03 0.04,-0.03 0.11,0.02 0.19,0.01 0.3,0.01 0.04,0 0.04,0.01 0.02,0.03l-0.08 0.08c-0.06,0.04 -0.12,0.04 -0.18,0z"/>
    <polyline class="fil4 str5" points="6.92,3.14 6.98,3.11 7.05,3.09 7.13,3.1 7.21,3.14 "/>
    <path class="fil4 str12" d="M6.52 2.5c-0.03,-0.03 -0.03,-0.08 -0.03,-0.15 0.01,-0.05 0.02,-0.03 0.03,-0.01 0.02,0.05 0.02,0.07 0,0.1"/>
    <path class="fil4 str12" d="M7.57 2.43c0.01,-0.03 0.02,-0.05 0.04,-0.05 0.03,0 0.05,0.02 0.04,0.05 -0.01,0.07 -0.04,0.1 -0.06,0.11"/>
    <path class="fil4 str11" d="M7.18 2.51c0.01,0.01 0.03,0.01 0.04,0.02 0.04,0.02 0.07,0.05 0.16,-0.01 0.03,-0.03 0.04,-0.01 0.07,-0.02"/>
    <path class="fil4 str11" d="M6.93 2.51c-0.01,0.01 -0.02,0.01 -0.04,0.02 -0.03,0.02 -0.06,0.05 -0.14,-0.01 -0.03,-0.03 -0.03,-0.01 -0.06,-0.02"/>
    <path class="fil4 str11" d="M6.69 2.5c0.02,0 0.03,0 0.04,0 0.08,-0.07 0.13,-0.07 0.17,-0.03 0.01,0.01 0.02,0.02 0.04,0.02"/>
    <path class="fil4 str11" d="M7.45 2.5c-0.01,0 -0.03,0 -0.04,0 -0.08,-0.07 -0.14,-0.07 -0.19,-0.03 -0.01,0.01 -0.03,0.02 -0.04,0.02"/>
    <path class="fil9 str5" d="M7.22 2.93c-0.13,0.11 -0.24,0.08 -0.34,-0.02 0.08,0.16 0.23,0.18 0.34,0.02z"/>
    <path class="fil10 str5" d="M6.94 2.91c0.01,-0.01 -0.05,-0.01 -0.06,0 -0.01,0 0,0 0.01,0 0.01,0.03 0.04,0.05 0.06,0.06l-0.01 -0.06z"/>
    <path class="fil10 str5" d="M7.18 2.91c0,-0.02 0.05,-0.01 0.06,0 0,0.01 -0.03,0.04 -0.06,0.05l0 -0.05z"/>
    <path class="fil1" d="M7.02 3c-0.02,-0.01 -0.04,-0.02 -0.05,-0.03 0.02,0 0.01,0.01 0.02,0 0.03,0 0.02,0.01 0.02,0.01 0.03,-0.02 0.04,-0.01 0.05,0 0,0.01 -0.01,-0.02 0.04,0 0.01,0 -0.01,-0.01 0.02,0 0.02,0 0,-0.01 0.03,-0.01 -0.01,0.01 -0.03,0.02 -0.06,0.03 -0.02,0 -0.04,0 -0.07,0z"/>
    <path class="fil4 str13" d="M6.96 2.97c0.01,0 0.02,0 0.03,0 0.01,0 0.02,0 0.02,0 0.02,0 0.03,0 0.05,0.01 0.01,-0.01 0.03,-0.01 0.04,0 0,-0.01 0.01,-0.01 0.03,0 0.01,-0.01 0.02,-0.01 0.02,0"/>
    <line class="fil4 str9" x1="6.99" y1="2.98" x2="6.99" y2= "2.99" />
    <line class="fil4 str9" x1="7.01" y1="2.98" x2="7.01" y2= "3" />
    <line class="fil4 str9" x1="7.06" y1="2.98" x2="7.06" y2= "3" />
    <line class="fil4 str9" x1="7.1" y1="2.97" x2="7.1" y2= "3" />
    <line class="fil4 str9" x1="7.13" y1="2.97" x2="7.13" y2= "2.99" />
    <path class="fil9 str14" d="M7.04 2.86c-0.01,0 -0.02,0 -0.03,0 -0.04,0.02 -0.08,0.03 -0.11,0.03 -0.02,0 -0.04,0.02 -0.01,0.02 0.01,0 0.04,-0.01 0.06,0 0.07,0.02 0.15,0.02 0.23,0 0.02,-0.01 0.04,-0.01 0.05,-0.01 0.01,0 0.01,0 0,0 -0.05,-0.01 -0.1,-0.02 -0.12,-0.03 -0.01,0 -0.02,-0.01 -0.03,-0.01 -0.02,0.01 -0.03,0.01 -0.04,0z"/>
   </g>
  </g>
 </g>
</svg>
