<?xml version="1.0" encoding="UTF-8"?>
<!DOCTYPE svg PUBLIC "-//W3C//DTD SVG 1.1//EN" "http://www.w3.org/Graphics/SVG/1.1/DTD/svg11.dtd">
<!-- Creator: CorelDRAW 2021 (64 Bit) -->
<svg xmlns="http://www.w3.org/2000/svg" xml:space="preserve" width="301px" height="300px" version="1.1" style="shape-rendering:geometricPrecision; text-rendering:geometricPrecision; image-rendering:optimizeQuality; fill-rule:evenodd; clip-rule:evenodd"
viewBox="0 0 40.49 40.36"
 xmlns:xlink="http://www.w3.org/1999/xlink"
 xmlns:xodm="http://www.corel.com/coreldraw/odm/2003">
 <defs>
  <style type="text/css">
   <![CDATA[
    .str7 {stroke:#52331E;stroke-width:0.13;stroke-miterlimit:22.9256}
    .str6 {stroke:#9F740B;stroke-width:0.13;stroke-miterlimit:22.9256}
    .str1 {stroke:black;stroke-width:1.08;stroke-miterlimit:22.9256}
    .str0 {stroke:black;stroke-width:0.67;stroke-miterlimit:22.9256}
    .str2 {stroke:#86B0C0;stroke-width:0.67;stroke-miterlimit:22.9256}
    .str4 {stroke:#E2A610;stroke-width:0.67;stroke-miterlimit:22.9256}
    .str8 {stroke:#9F740E;stroke-width:0.27;stroke-miterlimit:22.9256}
    .str5 {stroke:#FDD734;stroke-width:0.27;stroke-miterlimit:22.9256}
    .str3 {stroke:#B9E4EA;stroke-width:0.12;stroke-miterlimit:22.9256}
    .fil5 {fill:none}
    .fil12 {fill:#52331E}
    .fil7 {fill:#86B0C0}
    .fil2 {fill:#8A8A8A}
    .fil11 {fill:#9F740B}
    .fil13 {fill:#9F7507}
    .fil1 {fill:#B7B3B5}
    .fil8 {fill:#B9E4EA}
    .fil9 {fill:#E2A610}
    .fil4 {fill:#EAFF00}
    .fil10 {fill:#FDD734}
    .fil0 {fill:#FDFDFD}
    .fil3 {fill:red}
    .fil6 {fill:white}
   ]]>
  </style>
 </defs>
 <g id="Camada_x0020_1">
  <metadata id="CorelCorpID_0Corel-Layer"/>
  <g id="_2499997384592">
   <path class="fil0" d="M8.69 25.96c1.72,-0.13 3.45,-0.36 5.17,-0.55 2.99,-0.31 2.11,-0.54 3.65,1.34l4.96 6.21c-0.31,0.41 -1.07,0.98 -1.51,1.3 -0.79,-0.73 -1.76,-2.1 -2.48,-2.97 -0.86,-1.05 -1.58,-1.95 -2.46,-3.05 -0.57,-0.72 -0.47,-1.13 -1.63,-0.96l-3.61 0.49c-0.88,0.11 -1.29,-0.5 -2.09,-1.81zm7.62 -2.65c-0.24,0.32 -0.26,0.34 -0.74,0.37l-8.08 0.99c-0.17,-0.35 -0.5,-0.77 -0.8,-1.02 -0.18,-0.16 -0.1,-0.02 -0.3,-0.34 -0.03,-0.05 -0.09,-0.19 -0.09,-0.22 0,-0.17 0.29,-0.2 0.59,-0.22l6.57 -0.78c-0.34,-0.74 -0.93,-1.5 -1.37,-2.43 -3.12,-6.55 3.31,-14.45 10.94,-12.29 3.57,1.01 6.24,3.82 6.61,8.04 0.31,3.47 -1.11,5.59 -2.98,7.75 -0.53,0.62 -1.31,1.38 -0.56,2.24 0.46,-0.26 0.93,-1.12 1.55,-1.47l-0.14 4.29 -3.03 0.42c-0.06,0.35 0.05,0.43 0.23,0.78 0.43,0.42 0.62,0.59 0.89,1.18 -0.66,0.36 -0.99,0.81 -1.69,1.17 -0.3,-0.58 -1.08,-1.45 -1.51,-1.97l-4.7 -5.86 2.61 -7.25 1.14 1.29c0.47,0.68 -0.99,3.32 -1.43,5.02 -0.15,0.58 0.29,0.91 0.67,1.37 0.52,0.63 2.67,3.45 3.14,3.74l0.73 -0.93c-0.35,-0.55 -1.09,-0.99 -1.18,-2.02 -0.13,-1.5 1.18,-2.99 2.1,-4.12 3.36,-4.14 1.9,-8.73 -1.16,-10.65 -6.21,-3.9 -14.12,3.1 -9.08,10.15 0.83,-1.24 1.76,-6.17 2.52,-7.05 0.41,0.34 1.37,1.38 1.22,1.98 -0.39,1.58 -2.45,6.21 -2.67,7.84zm-12.53 -19.58c0,1.88 -0.22,31.9 0.03,32.94l32.9 -0.01 0.02 -32.94 -32.95 0.01z"/>
   <path class="fil1" d="M3.78 3.73l32.95 -0.01 -0.02 32.94 -32.9 0.01c-0.25,-1.04 -0.03,-31.06 -0.03,-32.94zm-3.78 0.44l0 32.96c0,1.62 1.74,3.23 3.36,3.23l33.9 0c1.86,0 3.23,-1.87 3.23,-4.04l0 -32.28c0,-2.1 -1.4,-4.04 -3.23,-4.04l-34.03 0c-1.91,0 -3.23,2.07 -3.23,4.17z"/>
   <path class="fil2" d="M6.69 23.65l-0.3 -0.57 0.5 -0.21c-0.3,0.02 -0.59,0.05 -0.59,0.22 0,0.03 0.06,0.17 0.09,0.22 0.2,0.32 0.12,0.18 0.3,0.34z"/>
   <path class="fil2" d="M15.57 23.68c0.48,-0.03 0.5,-0.05 0.74,-0.37l-0.74 0.37z"/>
   <path class="fil2" d="M24.71 29.42c-0.18,-0.35 -0.29,-0.43 -0.23,-0.78l0.02 0.54c0.02,0.02 0.05,0.06 0.07,0.08l0.14 0.16z"/>
   <g>
    <g>
     <path class="fil3" d="M10.62 8.81c-3.35,1.53 -4.34,3.31 -4.49,6.59 0.09,3.1 1.49,4.83 3.87,6.04l0.86 12.62c1.39,-0.25 2.4,-0.81 2.63,-2l0.14 -1.48 0.88 -2.75 -1.22 -2.41 1.46 -2.42 -0.5 -2.37c2.63,-1.75 3.53,-4.32 2.81,-7.65 -1.07,-3.11 -3.16,-4.66 -6.44,-4.17z"/>
     <path class="fil4 str0" d="M5.88 15.36c-0.02,0.18 -0.02,0.44 -0.02,0.62 -0.01,1.5 0.85,3.14 1.8,4.18 0.35,0.39 0.74,0.75 1.16,0.99 0.74,0.43 0.9,0.28 0.92,0.72 0.05,0.93 0.11,1.54 0.14,2.49l0.16 2.51c0.04,0.52 0.46,7.26 0.51,7.43 0.33,-0.11 0.58,-0.16 0.92,-0.23 1.02,-0.22 2.08,-1.04 2.42,-2.17 0.22,-0.69 -0.16,-1.36 0.08,-2.09l0.86 -2.18c-0.02,-0.06 0.02,0.04 -0.04,-0.08 -0.03,-0.07 0.01,0 -0.04,-0.08 -0.36,-0.59 -0.85,-1.65 -1.2,-2.32 0.48,-0.64 1.29,-1.6 1.37,-2.34 0.04,-0.34 -0.05,-0.71 -0.11,-1.07 -0.05,-0.36 -0.06,-0.81 -0.14,-1.03 0.92,-0.71 1.31,-0.98 2.01,-2.24 0.46,-0.81 0.8,-1.87 0.85,-2.65 0.06,-0.89 0.06,-1.66 -0.19,-2.53 -0.24,-0.85 -0.52,-1.61 -1.1,-2.43 -0.62,-0.88 -1.37,-1.51 -2.24,-1.92 -0.85,-0.4 -1.55,-0.46 -2.27,-0.46l-1.11 0.15c-0.97,0.24 -1.97,0.85 -2.71,1.67 -0.09,0.09 -0.31,0.33 -0.38,0.45l0.05 0.07c0.26,0.29 0.36,0.41 0.62,0.64 0.69,-0.61 0.85,-1.18 1.92,-1.73 0.61,-0.3 1.37,-0.48 2,-0.46 0.45,0.02 1.56,0.18 2.06,0.52 1.35,0.91 2.44,2.36 2.7,4.16 0.09,0.65 0.18,1.66 0.02,2.3 -0.46,1.87 -1.53,3.25 -3.07,4.06 -0.02,0.15 0.03,0.42 0.06,0.59l0.26 1.8c0.01,0.22 -0.14,0.37 -0.31,0.65l-1.25 2c0.37,0.62 0.74,1.45 1.11,2.13 0.2,0.36 0.16,0.18 -0.12,1.12l-0.54 1.76c-0.1,0.33 -0.1,0.27 -0.03,0.56 0.02,0.11 0.08,1.05 0.05,1.13 -0.3,0.8 -1.39,1.39 -1.86,1.39 -0.05,-0.14 -0.03,-0.22 -0.03,-0.4 -0.02,-0.94 -0.1,-1.81 -0.12,-2.79 -0.01,-0.28 0.01,-0.52 -0.04,-0.8l-0.18 -3.98c-0.03,-0.23 -0.02,-0.55 -0.03,-0.8 0,-0.28 -0.01,-0.52 -0.02,-0.8l-0.09 -1.6c-0.01,-0.55 -0.02,-1.07 -0.05,-1.6 -0.23,-0.15 -0.58,-0.1 -0.79,-0.15 -0.11,-0.03 -0.64,-0.32 -0.78,-0.4 -1.25,-0.68 -1.94,-2.03 -2.21,-3.5 -0.03,-0.16 -0.07,-0.49 -0.1,-0.64 -0.02,-0.18 -0.03,-0.4 -0.06,-0.66 -0.13,0.02 -0.24,0.03 -0.41,0.05 -0.14,0.01 -0.23,0.01 -0.41,-0.01z"/>
     <line class="fil5 str1" x1="11.47" y1="20.47" x2="11.97" y2= "33.28" />
     <line class="fil5 str1" x1="12.95" y1="20.34" x2="13.12" y2= "24.56" />
     <path class="fil3 str0" d="M5.81 12.53c-0.65,1.15 0.92,2.27 1.57,1 0.23,-0.44 0.18,-1.09 -0.3,-1.4 -0.39,-0.24 -0.97,-0.13 -1.27,0.4z"/>
     <ellipse class="fil6 str0" cx="10.66" cy="12.76" rx="1.24" ry="1.38"/>
    </g>
    <g>
     <path class="fil7 str2" d="M22.18 12.59c0,2.15 0,2.4 0.01,4.55 0.72,0.62 1.5,0.66 2.29,0 0.03,-2.34 0.03,-2.82 0.06,-5.16 0.81,-4.22 5.15,-4.17 5.92,0 0,0.95 0,4.31 0,5.26 0.68,0.4 1.36,0.45 2.04,0.02 0,-0.76 0.03,-3.82 0.03,-4.58 -0.16,-2.32 -0.89,-4.27 -2.54,-5.62 -1.73,-1.41 -3.58,-1.41 -5.45,-0.14 -1.54,1.44 -2.3,3.34 -2.36,5.67z"/>
     <path class="fil8 str3" d="M24.73 8.53c-0.03,-0.45 -0.26,-0.58 -0.63,-0.47 -1.16,0.61 -1.67,2.38 -1.58,5.18 0,0.57 0.32,0.56 0.43,0.17 0.35,-1.95 0.81,-3.39 1.36,-3.95 0.29,-0.25 0.41,-0.57 0.42,-0.93z"/>
     <path class="fil9 str4" d="M20.26 32.18c0.03,-3.96 0.06,-7.91 0.09,-11.86 4.89,-2.61 9.57,-2.6 14.04,0 0,3.95 0,7.9 0,11.86 -0.92,1.51 -4.76,2.11 -7.04,2.13 -2.43,0.02 -6.26,-0.62 -7.09,-2.13z"/>
     <path class="fil10 str5" d="M27.35 22.9c-3.46,-0.05 -6.83,-0.59 -6.99,-2.64 0.04,-0.74 4.45,-1.93 7.03,-1.95 2.53,-0.09 6.96,1.18 7.01,1.95 -0.07,2.19 -4.12,2.58 -7.05,2.64z"/>
     <path class="fil11 str6" d="M26.66 29.07c-0.35,0.92 -0.69,1.84 -1.03,2.76 -0.11,0.25 -0.01,0.38 0.24,0.39 0.37,0.01 1.76,-0.02 2.71,0 0.26,0.01 0.34,-0.16 0.25,-0.39 -0.35,-0.92 -0.68,-1.78 -1.03,-2.7 0.55,-0.28 0.89,-0.7 0.85,-1.4 -0.11,-0.94 -0.61,-1.39 -1.46,-1.41 -0.86,0.03 -1.38,0.7 -1.36,1.42 0,0.57 0.38,1.21 0.83,1.33z"/>
     <path class="fil12 str7" d="M26.8 28.73c-0.25,0.81 -0.5,1.62 -0.76,2.44 -0.07,0.22 0,0.33 0.18,0.34 0.27,0.01 1.29,-0.01 1.98,0 0.19,0.01 0.25,-0.14 0.19,-0.34 -0.26,-0.81 -0.5,-1.58 -0.75,-2.39 0.39,-0.24 0.64,-0.62 0.61,-1.24 -0.08,-0.83 -0.44,-1.23 -1.06,-1.25 -0.63,0.03 -1.01,0.63 -1,1.26 0,0.51 0.28,1.07 0.61,1.18z"/>
     <ellipse class="fil13 str8" cx="31.34" cy="20.05" rx="1.31" ry="0.72"/>
     <ellipse class="fil13 str8" cx="23.04" cy="20.05" rx="1.31" ry="0.72"/>
    </g>
   </g>
  </g>
 </g>
</svg>
