<?xml version="1.0" encoding="UTF-8"?>
<!DOCTYPE svg PUBLIC "-//W3C//DTD SVG 1.1//EN" "http://www.w3.org/Graphics/SVG/1.1/DTD/svg11.dtd">
<!-- Creator: CorelDRAW 2021 (64 Bit) -->
<svg xmlns="http://www.w3.org/2000/svg" xml:space="preserve" width="337px" height="330px" version="1.1" style="shape-rendering:geometricPrecision; text-rendering:geometricPrecision; image-rendering:optimizeQuality; fill-rule:evenodd; clip-rule:evenodd"
viewBox="0 0 201 196.79"
 xmlns:xlink="http://www.w3.org/1999/xlink"
 xmlns:xodm="http://www.corel.com/coreldraw/odm/2003">
 <defs>
  <style type="text/css">
   <![CDATA[
    .str0 {stroke:#C4C4C4;stroke-width:17.89;stroke-miterlimit:22.9256}
    .fil0 {fill:white}
    .fil1 {fill:#373435;fill-rule:nonzero}
   ]]>
  </style>
 </defs>
 <g id="Camada_x0020_1">
  <metadata id="CorelCorpID_0Corel-Layer"/>
  <g id="_2499712122928">
   <ellipse class="fil0 str0" cx="100.5" cy="98.4" rx="91.55" ry="89.45"/>
   <g>
    <path class="fil1" d="M57.34 45.02l0 3.5c-1.25,0.34 -2.2,0.87 -2.87,1.6 -0.65,0.71 -0.98,1.6 -0.98,2.65 0,1.01 0.27,1.89 0.82,2.66 0.55,0.75 1.44,1.48 2.68,2.16 0.85,0.47 2.77,1.36 5.78,2.67 1.82,0.79 3.23,1.5 4.23,2.15 1.01,0.63 1.95,1.42 2.85,2.38 2.39,2.5 3.58,5.48 3.58,8.95 0,2.61 -0.65,4.99 -1.95,7.16 -1.29,2.16 -3.07,3.87 -5.34,5.1 -1.22,0.64 -2.55,1.16 -4,1.53 -1.44,0.38 -2.8,0.56 -4.05,0.56l0 -3.46c1.76,-0.42 3.02,-1.01 3.8,-1.77 0.77,-0.76 1.17,-1.79 1.17,-3.08 0,-1.36 -0.61,-2.55 -1.83,-3.58 -0.8,-0.67 -2.35,-1.5 -4.61,-2.49 -2.5,-1.1 -4.21,-1.87 -5.13,-2.34 -0.92,-0.46 -1.81,-1.01 -2.66,-1.63 -3.81,-2.72 -5.72,-6.33 -5.72,-10.84 0,-2.31 0.48,-4.45 1.43,-6.39 0.96,-1.96 2.28,-3.53 3.99,-4.72 2.37,-1.67 5.3,-2.59 8.81,-2.77zm2.36 3.5l0 -3.35c1.21,0.08 2.27,0.23 3.16,0.47 0.89,0.23 2.15,0.7 3.8,1.39 0.4,0.16 0.73,0.24 0.99,0.24 0.4,0 0.68,-0.14 0.86,-0.4l0.67 -0.87c0.32,-0.44 0.72,-0.66 1.17,-0.66 0.55,0 0.96,0.2 1.21,0.59 0.26,0.4 0.38,1.02 0.38,1.86l0 10.04c0,0.58 -0.17,1.05 -0.5,1.43 -0.34,0.37 -0.76,0.56 -1.29,0.56 -0.41,0 -0.78,-0.14 -1.13,-0.4 -0.18,-0.16 -0.32,-0.36 -0.44,-0.59 -0.11,-0.24 -0.21,-0.62 -0.32,-1.17 -0.21,-0.99 -0.61,-2.02 -1.15,-3.07 -0.54,-1.05 -1.19,-1.99 -1.91,-2.82 -1.46,-1.64 -3.29,-2.72 -5.5,-3.25zm-3.91 36.11l0 3.46c-1.66,0 -3.49,-0.47 -5.49,-1.43 -0.75,-0.34 -1.26,-0.57 -1.54,-0.66 -0.29,-0.1 -0.56,-0.15 -0.82,-0.15 -0.4,0 -0.71,0.06 -0.91,0.19 -0.21,0.14 -0.53,0.47 -0.97,1 -0.37,0.44 -0.76,0.67 -1.18,0.67 -1.13,0 -1.7,-0.87 -1.7,-2.62l0 -11.04c0,-0.57 0.16,-1.04 0.48,-1.44 0.32,-0.39 0.73,-0.6 1.22,-0.62 0.44,-0.02 0.79,0.11 1.04,0.39 0.25,0.26 0.47,0.74 0.65,1.43 0.47,1.74 1.14,3.37 2.02,4.88 0.88,1.52 1.91,2.81 3.08,3.85 1.19,1.1 2.56,1.79 4.12,2.09z"/>
    <path id="_1" class="fil1" d="M94.74 45.84l0 41.43 -13.51 0 -0.79 0c-0.74,0 -1.29,-0.13 -1.7,-0.41 -0.39,-0.27 -0.59,-0.66 -0.59,-1.16 0,-0.83 0.4,-1.38 1.22,-1.65 0.67,-0.21 1.06,-0.35 1.17,-0.4 0.12,-0.05 0.23,-0.16 0.35,-0.35 0.24,-0.32 0.37,-0.84 0.37,-1.54l0 -30.38c0,-0.71 -0.13,-1.22 -0.37,-1.55 -0.12,-0.18 -0.23,-0.3 -0.35,-0.36 -0.11,-0.04 -0.5,-0.18 -1.17,-0.4 -0.82,-0.27 -1.22,-0.82 -1.22,-1.65 0,-0.5 0.2,-0.9 0.59,-1.17 0.41,-0.28 0.96,-0.41 1.7,-0.41l0.79 0 13.51 0zm2.67 0l12.24 0 0 10.78c0,0.62 -0.13,1.06 -0.37,1.34 -0.24,0.28 -0.63,0.43 -1.16,0.43 -0.44,0 -0.76,-0.1 -0.97,-0.27 -0.2,-0.19 -0.39,-0.56 -0.57,-1.13 -0.77,-2.35 -1.9,-4.14 -3.38,-5.37 -1.49,-1.24 -3.42,-1.98 -5.79,-2.22l0 -3.56zm-0.13 22.11l0 -3.51c1.17,-0.56 2.04,-1.19 2.6,-1.85 0.57,-0.66 0.99,-1.55 1.25,-2.67 0.16,-0.77 0.37,-1.29 0.64,-1.59 0.26,-0.29 0.63,-0.44 1.12,-0.44 0.64,0 1.08,0.25 1.33,0.76 0.14,0.27 0.21,0.86 0.21,1.79l0 11.55c0,0.97 -0.11,1.63 -0.32,2 -0.21,0.36 -0.6,0.55 -1.16,0.55 -0.47,0 -0.83,-0.15 -1.09,-0.42 -0.27,-0.29 -0.48,-0.77 -0.64,-1.43 -0.34,-1.41 -0.83,-2.49 -1.47,-3.23 -0.63,-0.76 -1.46,-1.26 -2.47,-1.51zm0.19 19.32l0 -3.28c1.32,-0.2 2.4,-0.48 3.26,-0.85 0.86,-0.37 1.72,-0.92 2.59,-1.67 0.87,-0.75 1.56,-1.53 2.08,-2.33 0.51,-0.8 1.01,-1.86 1.47,-3.17 0.22,-0.65 0.46,-1.1 0.7,-1.33 0.23,-0.24 0.58,-0.35 1,-0.35 0.56,0 0.95,0.17 1.18,0.5 0.22,0.34 0.33,0.92 0.33,1.75l0 10.73 -12.61 0z"/>
    <path id="_2" class="fil1" d="M141.69 45.84l13.48 0 0.82 0c1.52,0 2.29,0.53 2.29,1.58 0,0.83 -0.41,1.38 -1.22,1.65 -0.67,0.22 -1.06,0.36 -1.17,0.4 -0.12,0.06 -0.23,0.18 -0.36,0.36 -0.23,0.33 -0.36,0.84 -0.36,1.55l0 30.38c0,0.7 0.13,1.22 0.36,1.54 0.13,0.19 0.24,0.3 0.36,0.35 0.11,0.05 0.5,0.19 1.17,0.4 0.81,0.27 1.22,0.82 1.22,1.65 0,1.05 -0.77,1.57 -2.29,1.57l-0.82 0 -13.51 0 -0.99 0c-0.89,0 -1.57,-0.13 -2.02,-0.41 -0.46,-0.27 -0.69,-0.67 -0.69,-1.22 0,-0.89 0.49,-1.45 1.46,-1.67 0.79,-0.21 1.25,-0.33 1.39,-0.38 0.15,-0.05 0.28,-0.17 0.43,-0.35 0.3,-0.37 0.45,-0.94 0.45,-1.73l0 -35.67zm-11.1 0l5.98 17.05 2.64 -9.19 0 10.07 -7.01 23.5 -1.61 0 -11.75 -34.94c-0.4,-1.17 -0.83,-1.96 -1.27,-2.36 -0.27,-0.27 -0.72,-0.45 -1.37,-0.58 -1.31,-0.28 -1.97,-0.91 -1.97,-1.88 0,-0.53 0.19,-0.94 0.56,-1.23 0.36,-0.3 0.9,-0.44 1.61,-0.44l14.19 0zm-11.82 14l3.23 9.15 0 9.12c0,0.93 0.03,1.61 0.1,2.01 0.07,0.4 0.23,0.85 0.48,1.34 0.41,0.89 1,1.55 1.75,1.99l1.12 0.73c0.76,0.46 1.15,0.98 1.15,1.55 0,1.03 -0.76,1.54 -2.26,1.54l-7.63 0c-1.52,0 -2.29,-0.5 -2.29,-1.51 0,-0.33 0.06,-0.58 0.2,-0.74 0.13,-0.18 0.39,-0.38 0.77,-0.59 2.25,-1.21 3.38,-3.33 3.38,-6.32l0 -18.27z"/>
   </g>
   <path class="fil1" d="M64.15 149.24l-13.54 0 -0.79 0c-0.74,0 -1.3,-0.13 -1.7,-0.41 -0.39,-0.27 -0.59,-0.66 -0.59,-1.16 0,-0.83 0.4,-1.38 1.22,-1.65 0.66,-0.21 1.06,-0.35 1.17,-0.4 0.12,-0.05 0.23,-0.17 0.35,-0.35 0.24,-0.32 0.37,-0.84 0.37,-1.55l0 -30.37c0,-0.71 -0.13,-1.22 -0.37,-1.56 -0.12,-0.17 -0.23,-0.3 -0.35,-0.35 -0.11,-0.04 -0.51,-0.18 -1.17,-0.4 -0.82,-0.27 -1.22,-0.82 -1.22,-1.65 0,-0.51 0.2,-0.9 0.59,-1.17 0.4,-0.28 0.96,-0.41 1.7,-0.41l0.79 0 13.54 0 0.78 0c0.74,0 1.3,0.13 1.7,0.41 0.4,0.27 0.59,0.66 0.59,1.17 0,0.83 -0.4,1.38 -1.22,1.65 -0.66,0.22 -1.06,0.36 -1.17,0.4 -0.11,0.05 -0.23,0.18 -0.35,0.35 -0.24,0.34 -0.36,0.85 -0.36,1.56l0 30.37c0,0.71 0.12,1.23 0.36,1.55 0.12,0.18 0.24,0.3 0.35,0.35 0.11,0.05 0.51,0.19 1.17,0.4 0.82,0.27 1.22,0.82 1.22,1.65 0,0.5 -0.19,0.89 -0.59,1.16 -0.4,0.28 -0.96,0.41 -1.7,0.41l-0.78 0z"/>
   <path id="_1_0" class="fil1" d="M99.25 107.81l13.48 0 0.81 0c1.53,0 2.29,0.53 2.29,1.58 0,0.83 -0.4,1.38 -1.22,1.65 -0.66,0.22 -1.05,0.36 -1.17,0.4 -0.11,0.05 -0.23,0.18 -0.35,0.35 -0.24,0.34 -0.36,0.85 -0.36,1.56l0 30.37c0,0.71 0.12,1.23 0.36,1.55 0.12,0.18 0.24,0.3 0.35,0.35 0.12,0.05 0.51,0.19 1.17,0.4 0.82,0.27 1.22,0.82 1.22,1.65 0,1.04 -0.76,1.57 -2.29,1.57l-0.81 0 -13.51 0 -1 0c-0.89,0 -1.56,-0.13 -2.02,-0.41 -0.45,-0.27 -0.68,-0.67 -0.68,-1.22 0,-0.89 0.49,-1.45 1.46,-1.67 0.79,-0.21 1.24,-0.33 1.39,-0.38 0.14,-0.06 0.28,-0.17 0.42,-0.36 0.3,-0.36 0.46,-0.93 0.46,-1.72l0 -35.67zm-11.1 0l5.97 17.05 2.64 -9.19 0 10.07 -7.01 23.5 -1.6 0 -11.75 -34.94c-0.41,-1.17 -0.83,-1.96 -1.28,-2.36 -0.27,-0.27 -0.71,-0.46 -1.36,-0.58 -1.32,-0.28 -1.97,-0.91 -1.97,-1.89 0,-0.52 0.18,-0.93 0.56,-1.22 0.36,-0.3 0.9,-0.44 1.6,-0.44l14.2 0zm-11.83 14l3.23 9.15 0 9.12c0,0.93 0.04,1.6 0.11,2.01 0.07,0.4 0.23,0.85 0.47,1.33 0.42,0.89 1.01,1.56 1.75,2l1.12 0.73c0.77,0.46 1.15,0.98 1.15,1.55 0,1.03 -0.76,1.54 -2.26,1.54l-7.63 0c-1.52,0 -2.29,-0.5 -2.29,-1.51 0,-0.33 0.07,-0.58 0.2,-0.74 0.14,-0.18 0.4,-0.38 0.78,-0.59 2.25,-1.22 3.37,-3.33 3.37,-6.32l0 -18.27z"/>
   <path id="_2_1" class="fil1" d="M136.59 106.99l0 3.38c-1.78,0.42 -2.67,1.84 -2.67,4.26l0 28.25c0,1.08 0.16,1.92 0.47,2.51 0.27,0.49 0.84,0.9 1.71,1.24l0 3.43c-0.66,0 -1.25,-0.05 -1.79,-0.15 -0.52,-0.1 -1.24,-0.31 -2.13,-0.61 -2.13,-0.73 -4.06,-1.84 -5.78,-3.34 -1.71,-1.49 -3.13,-3.28 -4.25,-5.37 -1.72,-3.25 -2.58,-7.12 -2.58,-11.57 0,-4.3 0.77,-8.13 2.3,-11.47 1.54,-3.33 3.74,-5.95 6.6,-7.86 1.66,-1.12 3.44,-1.91 5.34,-2.4 0.78,-0.2 1.72,-0.3 2.78,-0.3zm2.49 3.31l0 -3.28c3.29,0.31 6,0.92 8.12,1.84 0.64,0.29 1.12,0.44 1.46,0.44 0.33,0 0.57,-0.07 0.75,-0.23 0.17,-0.15 0.52,-0.59 1.05,-1.3 0.36,-0.51 0.81,-0.77 1.36,-0.77 0.56,0 0.96,0.16 1.19,0.47 0.24,0.31 0.35,0.84 0.35,1.56l0 11.83c0,1.53 -0.56,2.29 -1.69,2.29 -0.57,0 -0.99,-0.15 -1.27,-0.45 -0.27,-0.3 -0.52,-0.9 -0.76,-1.79 -0.31,-1.14 -0.85,-2.46 -1.65,-3.97 -0.79,-1.51 -1.54,-2.7 -2.27,-3.57 -0.82,-1.01 -1.76,-1.75 -2.79,-2.23 -1.04,-0.47 -2.32,-0.75 -3.85,-0.84zm13.73 33.88c-0.81,0.81 -1.9,1.63 -3.25,2.46 -1.34,0.84 -2.61,1.51 -3.8,1.99 -1.1,0.43 -2.31,0.78 -3.64,1.04 -1.32,0.26 -2.49,0.39 -3.51,0.39l0 -3.43c0.59,-0.14 1.03,-0.31 1.32,-0.51 0.3,-0.2 0.54,-0.49 0.74,-0.85 0.34,-0.62 0.52,-1.43 0.52,-2.39l0 -8.87c0,-0.78 -0.16,-1.35 -0.46,-1.7 -0.14,-0.2 -0.28,-0.33 -0.42,-0.38 -0.15,-0.05 -0.6,-0.16 -1.39,-0.35 -0.97,-0.24 -1.46,-0.81 -1.46,-1.7 0,-0.53 0.23,-0.93 0.68,-1.21 0.46,-0.28 1.13,-0.42 2.02,-0.42l1 0 11.13 0c0.92,0 1.56,0.12 1.93,0.38 0.39,0.25 0.57,0.69 0.57,1.31 0,0.39 -0.07,0.71 -0.22,0.96 -0.16,0.25 -0.44,0.52 -0.84,0.8 -0.42,0.28 -0.67,0.55 -0.77,0.79 -0.1,0.25 -0.15,0.69 -0.15,1.34l0 10.35z"/>
  </g>
 </g>
</svg>
