<?xml version="1.0" encoding="UTF-8"?>
<!DOCTYPE svg PUBLIC "-//W3C//DTD SVG 1.1//EN" "http://www.w3.org/Graphics/SVG/1.1/DTD/svg11.dtd">
<!-- Creator: CorelDRAW 2021 (64 Bit) -->
<svg xmlns="http://www.w3.org/2000/svg" xml:space="preserve" width="337px" height="330px" version="1.1" style="shape-rendering:geometricPrecision; text-rendering:geometricPrecision; image-rendering:optimizeQuality; fill-rule:evenodd; clip-rule:evenodd"
viewBox="0 0 205.92 201.61"
 xmlns:xlink="http://www.w3.org/1999/xlink"
 xmlns:xodm="http://www.corel.com/coreldraw/odm/2003">
 <defs>
  <style type="text/css">
   <![CDATA[
    .str0 {stroke:#C4C4C4;stroke-width:18.33;stroke-miterlimit:22.9256}
    .str8 {stroke:#52331E;stroke-width:0.61;stroke-miterlimit:22.9256}
    .str7 {stroke:#9F740B;stroke-width:0.61;stroke-miterlimit:22.9256}
    .str2 {stroke:black;stroke-width:4.89;stroke-miterlimit:22.9256}
    .str1 {stroke:black;stroke-width:3.05;stroke-miterlimit:22.9256}
    .str3 {stroke:#86B0C0;stroke-width:3.05;stroke-miterlimit:22.9256}
    .str5 {stroke:#E2A610;stroke-width:3.05;stroke-miterlimit:22.9256}
    .str9 {stroke:#9F740E;stroke-width:1.22;stroke-miterlimit:22.9256}
    .str6 {stroke:#FDD734;stroke-width:1.22;stroke-miterlimit:22.9256}
    .str4 {stroke:#B9E4EA;stroke-width:0.55;stroke-miterlimit:22.9256}
    .fil3 {fill:none}
    .fil9 {fill:#52331E}
    .fil4 {fill:#86B0C0}
    .fil8 {fill:#9F740B}
    .fil10 {fill:#9F7507}
    .fil5 {fill:#B9E4EA}
    .fil6 {fill:#E2A610}
    .fil2 {fill:#EAFF00}
    .fil7 {fill:#FDD734}
    .fil1 {fill:red}
    .fil0 {fill:white}
   ]]>
  </style>
 </defs>
 <g id="Camada_x0020_1">
  <metadata id="CorelCorpID_0Corel-Layer"/>
  <g id="_2499992824176">
   <ellipse class="fil0 str0" cx="102.96" cy="100.81" rx="93.8" ry="91.64"/>
   <g>
    <g>
     <path class="fil1" d="M57.94 43.97c-15.2,6.97 -19.69,15.05 -20.4,29.97 0.41,14.04 6.8,21.93 17.58,27.4l3.92 57.34c6.31,-1.16 10.87,-3.72 11.94,-9.09l0.64 -6.73 3.97 -12.51 -5.52 -10.94 6.63 -10.97 -2.28 -10.77c11.94,-7.97 16.04,-19.62 12.75,-34.74 -4.85,-14.11 -14.34,-21.15 -29.23,-18.96z"/>
     <path class="fil2 str1" d="M36.42 73.71c-0.08,0.86 -0.1,2 -0.09,2.86 -0.04,6.81 3.86,14.24 8.18,18.97 1.59,1.75 3.34,3.4 5.26,4.5 3.34,1.93 4.06,1.25 4.17,3.28 0.21,4.22 0.51,6.99 0.63,11.28l0.76 11.39c0.15,2.38 2.06,33.01 2.3,33.78 1.51,-0.52 2.62,-0.74 4.15,-1.07 4.65,-0.99 9.46,-4.74 11.03,-9.85 0.96,-3.13 -0.73,-6.16 0.34,-9.5l3.89 -9.87c-0.08,-0.3 0.12,0.16 -0.15,-0.4 -0.14,-0.29 0.01,-0.01 -0.2,-0.36 -1.63,-2.65 -3.85,-7.49 -5.43,-10.55 2.14,-2.88 5.83,-7.23 6.21,-10.59 0.18,-1.55 -0.22,-3.22 -0.48,-4.87 -0.26,-1.61 -0.31,-3.7 -0.67,-4.68 4.18,-3.22 5.95,-4.45 9.15,-10.16 2.07,-3.71 3.63,-8.5 3.86,-12.04 0.27,-4.06 0.26,-7.56 -0.86,-11.51 -1.08,-3.85 -2.35,-7.29 -5,-11.04 -2.8,-3.96 -6.23,-6.82 -10.16,-8.68 -3.88,-1.84 -7.06,-2.11 -10.33,-2.12l-5.05 0.71c-4.4,1.07 -8.94,3.84 -12.3,7.56 -0.39,0.43 -1.43,1.48 -1.71,2.05l0.21 0.3c1.18,1.35 1.64,1.9 2.82,2.91 3.11,-2.77 3.88,-5.36 8.72,-7.83 2.75,-1.4 6.21,-2.21 9.08,-2.08 2.05,0.09 7.1,0.82 9.34,2.32 6.17,4.14 11.09,10.72 12.28,18.91 0.42,2.95 0.82,7.53 0.1,10.47 -2.09,8.49 -6.97,14.72 -13.95,18.4 -0.07,0.7 0.14,1.93 0.27,2.7l1.2 8.18c0.05,0.98 -0.64,1.66 -1.44,2.94l-5.67 9.1c1.69,2.78 3.39,6.58 5.05,9.64 0.89,1.65 0.75,0.85 -0.56,5.12l-2.42 7.97c-0.47,1.51 -0.48,1.22 -0.17,2.54 0.11,0.49 0.4,4.76 0.25,5.15 -1.38,3.64 -6.31,6.3 -8.45,6.29 -0.22,-0.62 -0.14,-0.97 -0.16,-1.79 -0.09,-4.28 -0.45,-8.22 -0.55,-12.67 -0.02,-1.27 0.05,-2.39 -0.15,-3.64l-0.85 -18.07c-0.12,-1.05 -0.07,-2.52 -0.1,-3.65 -0.03,-1.27 -0.04,-2.38 -0.08,-3.65l-0.43 -7.26c-0.05,-2.48 -0.08,-4.83 -0.23,-7.25 -1.06,-0.66 -2.62,-0.46 -3.58,-0.69 -0.5,-0.12 -2.91,-1.44 -3.54,-1.79 -5.68,-3.11 -8.82,-9.24 -10.05,-15.91 -0.13,-0.72 -0.32,-2.23 -0.44,-2.93 -0.09,-0.8 -0.17,-1.81 -0.3,-2.99 -0.59,0.12 -1.06,0.15 -1.82,0.25 -0.66,0.05 -1.05,0.03 -1.88,-0.08z"/>
     <line class="fil3 str2" x1="61.82" y1="96.94" x2="64.05" y2= "155.12" />
     <line class="fil3 str2" x1="68.52" y1="96.36" x2="69.28" y2= "115.53" />
     <path class="fil1 str1" d="M36.09 60.88c-2.97,5.23 4.17,10.3 7.15,4.56 1.05,-2.03 0.81,-4.98 -1.37,-6.35 -1.79,-1.13 -4.43,-0.6 -5.78,1.79z"/>
     <ellipse class="fil0 str1" cx="58.11" cy="61.94" rx="5.64" ry="6.28"/>
    </g>
    <g>
     <path class="fil4 str3" d="M110.42 61.14c0.03,9.77 0.03,10.9 0.05,20.66 3.28,2.82 6.83,3.01 10.4,0.04 0.14,-10.63 0.16,-12.82 0.3,-23.45 3.69,-19.16 23.4,-18.96 26.85,0 0,4.29 0,19.57 0,23.86 3.09,1.84 6.22,2.06 9.31,0.09 0,-3.44 0.13,-17.32 0.13,-20.76 -0.76,-10.55 -4.08,-19.41 -11.55,-25.53 -7.87,-6.39 -16.26,-6.43 -24.74,-0.64 -6.99,6.52 -10.47,15.16 -10.75,25.73z"/>
     <path class="fil5 str4" d="M122.01 42.73c-0.13,-2.08 -1.17,-2.65 -2.84,-2.17 -5.29,2.81 -7.58,10.84 -7.18,23.55 0.02,2.58 1.43,2.54 1.92,0.77 1.64,-8.88 3.69,-15.4 6.2,-17.95 1.3,-1.15 1.86,-2.57 1.9,-4.2z"/>
     <path class="fil6 str5" d="M101.72 150.11c0.14,-17.95 0.28,-35.91 0.42,-53.87 22.19,-11.84 43.44,-11.78 63.76,0 0,17.96 0,35.92 0,53.87 -4.17,6.88 -21.62,9.58 -31.96,9.68 -11.08,0.11 -28.43,-2.82 -32.22,-9.68z"/>
     <path class="fil7 str6" d="M133.94 107.96c-15.72,-0.22 -31.06,-2.67 -31.75,-11.95 0.17,-3.37 20.21,-8.77 31.91,-8.86 11.47,-0.41 31.62,5.34 31.84,8.86 -0.33,9.92 -18.71,11.68 -32,11.95z"/>
     <path class="fil8 str7" d="M130.77 136c-1.56,4.18 -3.12,8.35 -4.68,12.53 -0.48,1.15 -0.05,1.73 1.11,1.76 1.69,0.05 8,-0.07 12.29,0.02 1.17,0.02 1.56,-0.72 1.16,-1.77 -1.61,-4.17 -3.08,-8.09 -4.67,-12.27 2.48,-1.25 4.04,-3.18 3.83,-6.37 -0.49,-4.24 -2.75,-6.29 -6.6,-6.4 -3.93,0.15 -6.3,3.2 -6.2,6.48 -0.01,2.59 1.72,5.47 3.76,6.02z"/>
     <path class="fil9 str8" d="M131.41 134.44c-1.14,3.7 -2.28,7.39 -3.42,11.08 -0.35,1.02 -0.04,1.53 0.81,1.56 1.23,0.05 5.84,-0.07 8.98,0.02 0.85,0.02 1.14,-0.64 0.84,-1.57 -1.17,-3.69 -2.24,-7.16 -3.4,-10.85 1.81,-1.11 2.94,-2.81 2.79,-5.64 -0.35,-3.75 -2.01,-5.56 -4.82,-5.66 -2.87,0.13 -4.6,2.83 -4.53,5.73 -0.01,2.29 1.26,4.85 2.75,5.33z"/>
     <ellipse class="fil10 str9" cx="152.04" cy="95.03" rx="5.96" ry="3.25"/>
     <ellipse class="fil10 str9" cx="114.32" cy="95.03" rx="5.96" ry="3.25"/>
    </g>
   </g>
  </g>
 </g>
</svg>
