<?xml version="1.0" encoding="UTF-8"?>
<!DOCTYPE svg PUBLIC "-//W3C//DTD SVG 1.1//EN" "http://www.w3.org/Graphics/SVG/1.1/DTD/svg11.dtd">
<!-- Creator: CorelDRAW 2021 (64 Bit) -->
<svg xmlns="http://www.w3.org/2000/svg" xml:space="preserve" width="331px" height="331px" version="1.1" style="shape-rendering:geometricPrecision; text-rendering:geometricPrecision; image-rendering:optimizeQuality; fill-rule:evenodd; clip-rule:evenodd"
viewBox="0 0 26.57 26.57"
 xmlns:xlink="http://www.w3.org/1999/xlink"
 xmlns:xodm="http://www.corel.com/coreldraw/odm/2003">
 <defs>
  <style type="text/css">
   <![CDATA[
    .str1 {stroke:white;stroke-width:0.06;stroke-miterlimit:22.9256}
    .str0 {stroke:#A8A1A1;stroke-width:2.47;stroke-miterlimit:22.9256}
    .fil1 {fill:none}
    .fil0 {fill:white}
    .fil2 {fill:#373435;fill-rule:nonzero}
   ]]>
  </style>
 </defs>
 <g id="Camada_x0020_1">
  <metadata id="CorelCorpID_0Corel-Layer"/>
  <g id="_2500097934752">
   <path class="fil0 str0" d="M5.26 1.24l16.05 0c2.22,-0.01 4.03,2.01 4.03,4.49l0 15.11c0,2.48 -1.81,4.49 -4.03,4.49l-16.05 0c-2.22,0 -4.03,-2.01 -4.03,-4.49l0 -15.11c0,-2.48 1.81,-4.5 4.03,-4.5z"/>
   <g id="_2087475760288">
    <line class="fil1 str1" x1="13.38" y1="0.63" x2="13.38" y2= "0.63" />
   </g>
   <g>
    <path class="fil2" d="M7.92 6.34l0 0.47c-0.17,0.04 -0.3,0.11 -0.39,0.21 -0.09,0.1 -0.13,0.22 -0.13,0.36 0,0.14 0.03,0.25 0.11,0.36 0.07,0.1 0.19,0.2 0.36,0.29 0.11,0.06 0.37,0.18 0.78,0.36 0.24,0.1 0.43,0.2 0.57,0.29 0.13,0.08 0.26,0.19 0.38,0.32 0.32,0.34 0.48,0.74 0.48,1.2 0,0.36 -0.08,0.68 -0.26,0.97 -0.17,0.29 -0.41,0.52 -0.72,0.69 -0.16,0.08 -0.34,0.15 -0.54,0.2 -0.19,0.05 -0.37,0.08 -0.54,0.08l0 -0.47c0.23,-0.06 0.4,-0.14 0.51,-0.24 0.1,-0.1 0.16,-0.24 0.16,-0.41 0,-0.19 -0.09,-0.35 -0.25,-0.49 -0.11,-0.08 -0.32,-0.2 -0.62,-0.33 -0.34,-0.15 -0.57,-0.25 -0.69,-0.31 -0.13,-0.07 -0.25,-0.14 -0.36,-0.23 -0.51,-0.36 -0.77,-0.85 -0.77,-1.46 0,-0.31 0.06,-0.59 0.19,-0.86 0.13,-0.26 0.31,-0.47 0.54,-0.63 0.32,-0.23 0.71,-0.35 1.19,-0.37zm0.31 0.47l0 -0.45c0.17,0.01 0.31,0.03 0.43,0.06 0.12,0.03 0.29,0.09 0.51,0.19 0.06,0.02 0.1,0.03 0.13,0.03 0.06,0 0.1,-0.02 0.12,-0.05l0.09 -0.12c0.04,-0.06 0.1,-0.09 0.16,-0.09 0.07,0 0.13,0.03 0.16,0.08 0.04,0.05 0.05,0.14 0.05,0.25l0 1.35c0,0.08 -0.02,0.14 -0.06,0.19 -0.05,0.05 -0.11,0.08 -0.18,0.08 -0.05,0 -0.1,-0.02 -0.15,-0.05 -0.02,-0.03 -0.04,-0.05 -0.06,-0.08 -0.02,-0.04 -0.03,-0.09 -0.04,-0.16 -0.03,-0.14 -0.09,-0.27 -0.16,-0.42 -0.07,-0.14 -0.16,-0.26 -0.26,-0.37 -0.19,-0.23 -0.44,-0.37 -0.74,-0.44zm-0.52 4.86l0 0.47c-0.23,0 -0.47,-0.07 -0.74,-0.2 -0.1,-0.04 -0.17,-0.07 -0.21,-0.08 -0.04,-0.02 -0.08,-0.03 -0.11,-0.03 -0.05,0 -0.1,0.01 -0.12,0.03 -0.03,0.02 -0.07,0.06 -0.13,0.13 -0.05,0.06 -0.11,0.1 -0.16,0.1 -0.16,0 -0.23,-0.12 -0.23,-0.36l0 -1.48c0,-0.08 0.02,-0.14 0.06,-0.2 0.05,-0.05 0.1,-0.08 0.17,-0.08 0.06,0 0.1,0.01 0.14,0.05 0.03,0.04 0.06,0.1 0.09,0.19 0.06,0.24 0.15,0.46 0.27,0.66 0.12,0.21 0.25,0.38 0.41,0.52 0.16,0.15 0.35,0.24 0.56,0.28z"/>
    <path id="_1" class="fil2" d="M12.95 6.45l0 5.58 -1.82 0 -0.1 0c-0.1,0 -0.18,-0.02 -0.23,-0.06 -0.05,-0.04 -0.08,-0.09 -0.08,-0.15 0,-0.12 0.05,-0.19 0.16,-0.23 0.09,-0.03 0.15,-0.04 0.16,-0.05 0.02,-0.01 0.03,-0.02 0.05,-0.05 0.03,-0.04 0.05,-0.11 0.05,-0.21l0 -4.09c0,-0.09 -0.02,-0.16 -0.05,-0.21 -0.02,-0.02 -0.03,-0.04 -0.05,-0.04 -0.01,-0.01 -0.07,-0.03 -0.16,-0.06 -0.11,-0.04 -0.16,-0.11 -0.16,-0.22 0,-0.07 0.03,-0.12 0.08,-0.16 0.05,-0.04 0.13,-0.05 0.23,-0.05l0.1 0 1.82 0zm0.36 0l1.65 0 0 1.45c0,0.08 -0.02,0.14 -0.05,0.18 -0.03,0.04 -0.08,0.06 -0.15,0.06 -0.06,0 -0.11,-0.02 -0.14,-0.04 -0.02,-0.03 -0.05,-0.08 -0.07,-0.15 -0.11,-0.32 -0.26,-0.56 -0.46,-0.73 -0.2,-0.16 -0.46,-0.26 -0.78,-0.29l0 -0.48zm-0.01 2.97l0 -0.47c0.15,-0.07 0.27,-0.16 0.35,-0.25 0.07,-0.09 0.13,-0.21 0.16,-0.36 0.03,-0.1 0.05,-0.17 0.09,-0.21 0.03,-0.04 0.08,-0.06 0.15,-0.06 0.09,0 0.15,0.03 0.18,0.1 0.02,0.04 0.03,0.12 0.03,0.24l0 1.56c0,0.13 -0.02,0.22 -0.05,0.27 -0.02,0.05 -0.08,0.07 -0.15,0.07 -0.06,0 -0.11,-0.02 -0.15,-0.06 -0.03,-0.03 -0.06,-0.1 -0.08,-0.19 -0.05,-0.19 -0.12,-0.33 -0.2,-0.43 -0.09,-0.1 -0.2,-0.17 -0.33,-0.21zm0.02 2.61l0 -0.45c0.18,-0.02 0.32,-0.06 0.44,-0.11 0.12,-0.05 0.23,-0.12 0.35,-0.23 0.12,-0.1 0.21,-0.2 0.28,-0.31 0.07,-0.11 0.13,-0.25 0.2,-0.43 0.03,-0.08 0.06,-0.14 0.09,-0.17 0.03,-0.04 0.08,-0.05 0.14,-0.05 0.07,0 0.12,0.02 0.15,0.07 0.03,0.04 0.05,0.12 0.05,0.23l0 1.45 -1.7 0z"/>
    <path id="_2" class="fil2" d="M19.28 6.45l1.81 0 0.11 0c0.21,0 0.31,0.07 0.31,0.21 0,0.11 -0.05,0.18 -0.16,0.22 -0.09,0.03 -0.15,0.05 -0.16,0.06 -0.02,0 -0.03,0.02 -0.05,0.04 -0.03,0.05 -0.05,0.12 -0.05,0.21l0 4.09c0,0.1 0.02,0.17 0.05,0.21 0.02,0.03 0.03,0.04 0.05,0.05 0.01,0.01 0.07,0.02 0.16,0.05 0.11,0.04 0.16,0.11 0.16,0.23 0,0.14 -0.1,0.21 -0.31,0.21l-0.11 0 -1.82 0 -0.13 0c-0.12,0 -0.21,-0.02 -0.27,-0.06 -0.06,-0.04 -0.1,-0.09 -0.1,-0.16 0,-0.12 0.07,-0.2 0.2,-0.23 0.11,-0.03 0.17,-0.04 0.19,-0.05 0.02,-0.01 0.04,-0.02 0.06,-0.05 0.04,-0.05 0.06,-0.12 0.06,-0.23l0 -4.8zm-1.5 0l0.81 2.29 0.35 -1.24 0 1.36 -0.94 3.17 -0.22 0 -1.58 -4.71c-0.06,-0.16 -0.11,-0.26 -0.17,-0.32 -0.04,-0.03 -0.1,-0.06 -0.19,-0.08 -0.17,-0.03 -0.26,-0.12 -0.26,-0.25 0,-0.07 0.02,-0.12 0.07,-0.16 0.05,-0.04 0.13,-0.06 0.22,-0.06l1.91 0zm-1.59 1.88l0.43 1.23 0 1.23c0,0.13 0.01,0.22 0.02,0.27 0.01,0.06 0.03,0.12 0.06,0.18 0.06,0.12 0.14,0.21 0.24,0.27l0.15 0.1c0.1,0.06 0.15,0.13 0.15,0.21 0,0.14 -0.1,0.21 -0.3,0.21l-1.03 0c-0.2,0 -0.31,-0.07 -0.31,-0.21 0,-0.04 0.01,-0.07 0.03,-0.1 0.02,-0.02 0.05,-0.05 0.1,-0.08 0.31,-0.16 0.46,-0.44 0.46,-0.85l0 -2.46z"/>
   </g>
   <path class="fil2" d="M8.83 20.37l-1.82 0 -0.11 0c-0.1,0 -0.17,-0.01 -0.23,-0.05 -0.05,-0.04 -0.08,-0.09 -0.08,-0.16 0,-0.11 0.06,-0.18 0.17,-0.22 0.09,-0.03 0.14,-0.05 0.16,-0.05 0.01,-0.01 0.03,-0.03 0.04,-0.05 0.04,-0.05 0.05,-0.11 0.05,-0.21l0 -4.09c0,-0.1 -0.01,-0.17 -0.05,-0.21 -0.01,-0.02 -0.03,-0.04 -0.04,-0.05 -0.02,0 -0.07,-0.02 -0.16,-0.05 -0.11,-0.04 -0.17,-0.11 -0.17,-0.22 0,-0.07 0.03,-0.13 0.08,-0.16 0.06,-0.04 0.13,-0.06 0.23,-0.06l0.11 0 1.82 0 0.11 0c0.1,0 0.17,0.02 0.23,0.06 0.05,0.03 0.08,0.09 0.08,0.16 0,0.11 -0.06,0.18 -0.17,0.22 -0.09,0.03 -0.14,0.05 -0.16,0.05 -0.01,0.01 -0.03,0.03 -0.04,0.05 -0.03,0.04 -0.05,0.11 -0.05,0.21l0 4.09c0,0.1 0.02,0.16 0.05,0.21 0.01,0.02 0.03,0.04 0.04,0.05 0.02,0 0.07,0.02 0.16,0.05 0.11,0.04 0.17,0.11 0.17,0.22 0,0.07 -0.03,0.12 -0.08,0.16 -0.06,0.04 -0.13,0.05 -0.23,0.05l-0.11 0z"/>
   <path id="_1_0" class="fil2" d="M13.56 14.79l1.82 0 0.11 0c0.2,0 0.3,0.07 0.3,0.22 0,0.11 -0.05,0.18 -0.16,0.22 -0.09,0.03 -0.14,0.05 -0.16,0.05 -0.01,0.01 -0.03,0.03 -0.05,0.05 -0.03,0.04 -0.04,0.11 -0.04,0.21l0 4.09c0,0.1 0.01,0.16 0.04,0.21 0.02,0.02 0.04,0.04 0.05,0.05 0.02,0 0.07,0.02 0.16,0.05 0.11,0.04 0.16,0.11 0.16,0.22 0,0.14 -0.1,0.21 -0.3,0.21l-0.11 0 -1.82 0 -0.14 0c-0.12,0 -0.21,-0.01 -0.27,-0.05 -0.06,-0.04 -0.09,-0.09 -0.09,-0.17 0,-0.12 0.06,-0.19 0.19,-0.22 0.11,-0.03 0.17,-0.05 0.19,-0.05 0.02,-0.01 0.04,-0.03 0.06,-0.05 0.04,-0.05 0.06,-0.13 0.06,-0.23l0 -4.81zm-1.49 0l0.8 2.3 0.36 -1.24 0 1.36 -0.95 3.16 -0.21 0 -1.59 -4.7c-0.05,-0.16 -0.11,-0.27 -0.17,-0.32 -0.04,-0.04 -0.1,-0.06 -0.18,-0.08 -0.18,-0.04 -0.27,-0.12 -0.27,-0.25 0,-0.07 0.03,-0.13 0.08,-0.17 0.05,-0.04 0.12,-0.06 0.21,-0.06l1.92 0zm-1.6 1.89l0.44 1.23 0 1.23c0,0.12 0,0.22 0.01,0.27 0.01,0.05 0.03,0.11 0.07,0.18 0.05,0.12 0.13,0.21 0.23,0.27l0.15 0.1c0.11,0.06 0.16,0.13 0.16,0.21 0,0.13 -0.1,0.2 -0.31,0.2l-1.02 0c-0.21,0 -0.31,-0.06 -0.31,-0.2 0,-0.04 0.01,-0.08 0.02,-0.1 0.02,-0.02 0.06,-0.05 0.11,-0.08 0.3,-0.16 0.45,-0.45 0.45,-0.85l0 -2.46z"/>
   <path id="_2_1" class="fil2" d="M18.59 14.68l0 0.46c-0.24,0.05 -0.36,0.25 -0.36,0.57l0 3.81c0,0.14 0.02,0.26 0.06,0.33 0.04,0.07 0.12,0.13 0.23,0.17l0 0.46c-0.08,0 -0.16,0 -0.24,-0.02 -0.07,-0.01 -0.16,-0.04 -0.28,-0.08 -0.29,-0.1 -0.55,-0.25 -0.78,-0.45 -0.23,-0.2 -0.42,-0.44 -0.58,-0.72 -0.23,-0.44 -0.34,-0.96 -0.34,-1.56 0,-0.58 0.1,-1.09 0.31,-1.55 0.2,-0.44 0.5,-0.8 0.89,-1.05 0.22,-0.15 0.46,-0.26 0.72,-0.33 0.1,-0.02 0.23,-0.04 0.37,-0.04zm0.33 0.45l0 -0.44c0.45,0.04 0.81,0.12 1.1,0.24 0.08,0.04 0.15,0.06 0.2,0.06 0.04,0 0.07,-0.01 0.1,-0.03 0.02,-0.02 0.07,-0.08 0.14,-0.17 0.05,-0.07 0.11,-0.11 0.18,-0.11 0.08,0 0.13,0.02 0.16,0.07 0.03,0.04 0.05,0.11 0.05,0.21l0 1.59c0,0.21 -0.08,0.31 -0.23,0.31 -0.08,0 -0.13,-0.02 -0.17,-0.06 -0.04,-0.04 -0.07,-0.12 -0.1,-0.24 -0.04,-0.16 -0.12,-0.33 -0.22,-0.54 -0.11,-0.2 -0.21,-0.36 -0.31,-0.48 -0.11,-0.13 -0.24,-0.23 -0.38,-0.3 -0.14,-0.06 -0.31,-0.1 -0.52,-0.11zm1.85 4.56c-0.1,0.11 -0.25,0.22 -0.43,0.33 -0.18,0.12 -0.36,0.21 -0.52,0.27 -0.14,0.06 -0.31,0.11 -0.49,0.14 -0.17,0.04 -0.33,0.05 -0.47,0.05l0 -0.46c0.08,-0.02 0.14,-0.04 0.18,-0.07 0.04,-0.02 0.07,-0.06 0.1,-0.11 0.05,-0.09 0.07,-0.19 0.07,-0.32l0 -1.2c0,-0.1 -0.02,-0.18 -0.06,-0.23 -0.02,-0.02 -0.04,-0.04 -0.06,-0.05 -0.02,-0.01 -0.08,-0.02 -0.19,-0.05 -0.13,-0.03 -0.19,-0.1 -0.19,-0.22 0,-0.08 0.03,-0.13 0.09,-0.17 0.06,-0.03 0.15,-0.05 0.27,-0.05l0.14 0 1.49 0c0.13,0 0.21,0.01 0.27,0.05 0.05,0.03 0.07,0.09 0.07,0.17 0,0.06 -0.01,0.1 -0.03,0.13 -0.02,0.04 -0.06,0.07 -0.11,0.11 -0.06,0.04 -0.09,0.08 -0.11,0.11 -0.01,0.03 -0.02,0.09 -0.02,0.18l0 1.39z"/>
  </g>
 </g>
</svg>
