<?xml version="1.0" encoding="UTF-8"?>
<!DOCTYPE svg PUBLIC "-//W3C//DTD SVG 1.1//EN" "http://www.w3.org/Graphics/SVG/1.1/DTD/svg11.dtd">
<!-- Creator: CorelDRAW 2021 (64 Bit) -->
<svg xmlns="http://www.w3.org/2000/svg" xml:space="preserve" width="530px" height="530px" version="1.1" style="shape-rendering:geometricPrecision; text-rendering:geometricPrecision; image-rendering:optimizeQuality; fill-rule:evenodd; clip-rule:evenodd"
viewBox="0 0 4.99 4.99"
 xmlns:xlink="http://www.w3.org/1999/xlink"
 xmlns:xodm="http://www.corel.com/coreldraw/odm/2003">
 <defs>
  <style type="text/css">
   <![CDATA[
    .str17 {stroke:#FF0505;stroke-width:0.09;stroke-miterlimit:22.9256}
    .str0 {stroke:#B8B4B6;stroke-width:0.28;stroke-miterlimit:22.9256}
    .str5 {stroke:#F5A980;stroke-width:0.04;stroke-miterlimit:22.9256}
    .str4 {stroke:black;stroke-width:0.01;stroke-miterlimit:22.9256}
    .str12 {stroke:#595656;stroke-width:0.01;stroke-miterlimit:22.9256}
    .str10 {stroke:#DBDBDB;stroke-width:0.01;stroke-miterlimit:22.9256}
    .str2 {stroke:#F5A980;stroke-width:0.01;stroke-miterlimit:22.9256}
    .str1 {stroke:#030303;stroke-width:0.08;stroke-miterlimit:22.9256}
    .str8 {stroke:#F5A980;stroke-width:0.02;stroke-miterlimit:22.9256}
    .str16 {stroke:#FF0505;stroke-width:0.02;stroke-miterlimit:22.9256}
    .str9 {stroke:#F5A980;stroke-width:0.03;stroke-miterlimit:22.9256}
    .str15 {stroke:#FF0505;stroke-width:0.03;stroke-miterlimit:22.9256}
    .str6 {stroke:#DBDBDB;stroke-width:0.01;stroke-miterlimit:22.9256}
    .str11 {stroke:#F5A980;stroke-width:0.01;stroke-miterlimit:22.9256}
    .str13 {stroke:#FF0505;stroke-width:0.01;stroke-miterlimit:22.9256}
    .str7 {stroke:#E1E1E1;stroke-width:0.01;stroke-miterlimit:22.9256}
    .str3 {stroke:#454545;stroke-width:0.14;stroke-linecap:round;stroke-miterlimit:22.9256}
    .str14 {stroke:#FF0505;stroke-width:0.04;stroke-miterlimit:22.9256;stroke-dasharray:0.040000 0.040000}
    .fil4 {fill:none}
    .fil3 {fill:black}
    .fil5 {fill:black}
    .fil11 {fill:#336666}
    .fil1 {fill:#33CC66}
    .fil7 {fill:#666666}
    .fil12 {fill:#66FFCC}
    .fil6 {fill:#999999}
    .fil10 {fill:#CCCCCC}
    .fil9 {fill:#F5A980}
    .fil2 {fill:#F5B796}
    .fil0 {fill:white}
    .fil8 {fill:white}
   ]]>
  </style>
 </defs>
 <g id="Camada_x0020_1">
  <metadata id="CorelCorpID_0Corel-Layer"/>
  <g id="_2069845684976">
   <path class="fil0 str0" d="M0.35 0.14l4.29 0c0.11,0 0.21,0.11 0.21,0.24l0 4.23c0,0.13 -0.1,0.24 -0.21,0.24l-4.29 0c-0.11,0 -0.2,-0.11 -0.2,-0.24 0,-0.51 -0.01,-4.1 -0.01,-4.28 0,-0.11 0.13,-0.19 0.21,-0.19z"/>
   <g>
    <g>
     <path class="fil1 str1" d="M4.41 3.29l-1.76 0c-0.04,0 -0.07,-0.04 -0.07,-0.11 0.02,-0.19 0.03,-0.33 0.04,-0.52 0.01,-0.05 -0.01,-0.13 0.07,-0.17 0.24,-0.09 0.57,-0.16 0.58,-0.28l0.01 -0.12c0.17,0.47 0.37,0.42 0.47,-0.02 0,0.07 0.02,0.17 0.1,0.22l0.54 0.25c0.03,0.02 0.04,0.05 0.05,0.09 0.02,0.19 0.03,0.38 0.05,0.57 0.01,0.05 -0.03,0.09 -0.08,0.09z"/>
     <path class="fil2 str2" d="M3.27 2.23c0.06,0.11 0.14,0.18 0.26,0.21 0.11,-0.01 0.23,-0.18 0.22,-0.22l0.01 -0.15c-0.05,0.05 -0.12,0.12 -0.16,0.17 -0.03,0.03 -0.12,0.03 -0.16,0l-0.17 -0.16 0 0.15z"/>
     <path class="fil2 str2" d="M3.97 1.47c-0.02,0.01 -0.02,0.03 -0.03,0.04l0.01 -0.04 -0.13 -0.1 0 -0.2 -0.16 0 -0.14 0.05 -0.15 -0.05 -0.18 0 -0.01 0.17 -0.08 0.11c-0.01,-0.01 -0.02,-0.03 -0.03,-0.04 -0.01,-0.02 -0.02,-0.02 -0.03,-0.01 -0.02,0 -0.02,0.02 -0.03,0.04 0,0.03 0,0.05 0,0.08l0.02 0.1c0.01,0.02 0.02,0.03 0.03,0.03 0.01,0 0.02,-0.01 0.03,-0.03 0.01,0.08 0.02,0.15 0.05,0.21 0.03,0.09 0.07,0.17 0.12,0.25 0.06,0.05 0.12,0.1 0.18,0.16 0.05,0.04 0.1,0.05 0.15,0 0.08,-0.08 0.16,-0.15 0.23,-0.23 0.03,-0.05 0.06,-0.1 0.08,-0.15 0.01,-0.06 0.02,-0.12 0.03,-0.18 0,0.01 0.01,0.01 0.02,0.01 0,0 0.03,0 0.04,-0.01 0.02,-0.06 0.03,-0.11 0.04,-0.16 0.01,-0.01 -0.01,-0.03 -0.02,-0.04 -0.01,-0.01 -0.03,-0.01 -0.04,-0.01z"/>
     <path class="fil3" d="M3.71 1.54c-0.03,0 -0.04,0.02 -0.04,0.05 0.01,0.03 0.03,0.04 0.06,0.04 0.05,-0.01 0.04,-0.1 -0.02,-0.09z"/>
     <path class="fil3" d="M3.32 1.54c-0.06,0.01 -0.04,0.1 0.02,0.09 0.02,-0.01 0.04,-0.03 0.03,-0.06 0,-0.02 -0.02,-0.04 -0.05,-0.03z"/>
     <line class="fil4 str3" x1="3.22" y1="1.42" x2="3.45" y2= "1.44" />
     <path class="fil5 str4" d="M3.19 1.33l-0.09 0.13c-0.01,-0.03 -0.02,-0.04 -0.02,-0.08 -0.02,-0.08 -0.03,-0.2 -0.01,-0.32 0.03,-0.16 0.11,-0.22 0.21,-0.24 0.17,-0.03 0.33,-0.02 0.47,0 0.11,0.04 0.18,0.15 0.2,0.23 0.04,0.16 0.02,0.26 0,0.41 -0.04,-0.03 -0.09,-0.06 -0.13,-0.09 -0.01,-0.07 -0.01,-0.13 0,-0.2 -0.06,0.02 -0.1,0.02 -0.16,0 -0.07,0.06 -0.2,0.06 -0.29,0 -0.05,0.01 -0.11,0.02 -0.17,0 0,0.06 0,0.11 -0.01,0.16z"/>
     <line class="fil4 str3" x1="3.79" y1="1.42" x2="3.57" y2= "1.44" />
     <path class="fil6" d="M3.7 1.53c-0.01,-0.01 0.03,-0.03 0.07,-0.03 0.04,0.01 0.06,0.02 0.07,0.04 0,0.01 0.01,0.01 0,0.02l-0.02 0.01c-0.03,-0.02 -0.07,-0.03 -0.12,-0.04z"/>
     <path class="fil6" d="M3.36 1.53c0.01,-0.01 -0.03,-0.03 -0.07,-0.03 -0.03,0.01 -0.06,0.02 -0.07,0.04 0,0.01 0,0.01 0,0.02l0.02 0.01c0.03,-0.02 0.07,-0.03 0.12,-0.04z"/>
     <path class="fil4 str5" d="M3.61 1.49l-0.03 0.03 -0.02 0.06 -0.01 0.11 0.02 0.05 0.04 0.07c0,0.01 0,0.01 -0.01,0.02l-0.06 0.05c-0.02,0.01 -0.03,0.01 -0.04,0l-0.08 -0.05 0 -0.03 0.03 -0.06 0.01 -0.05 -0.02 -0.1 -0.02 -0.07 -0.04 -0.04"/>
     <path class="fil7" d="M3.65 1.96l-0.26 -0.01c-0.01,0 -0.01,0.01 -0.01,0.01l0.06 0.05c0.02,0.02 0.05,0.03 0.07,0.03 0.03,0 0.06,-0.01 0.08,-0.02l0.06 -0.05c0.01,-0.01 0,-0.01 0,-0.01z"/>
     <path class="fil8 str6" d="M3.43 1.94l0 0.03c0,0 0,0.01 0.01,0.01 0.01,0 0.02,0 0.02,0 0.01,0 0.02,0 0.02,0 0.01,0 0.03,0 0.04,0 0.01,0 0.02,0 0.03,0 0.01,0 0.02,0 0.03,0 0,0 0.01,0 0.02,0l0.01 0c0,-0.01 0.01,-0.01 0.01,-0.01l0 -0.03c-0.06,0 -0.13,0 -0.19,0z"/>
     <line class="fil4 str7" x1="3.55" y1="1.95" x2="3.55" y2= "1.98" />
     <line class="fil4 str7" x1="3.58" y1="1.95" x2="3.58" y2= "1.98" />
     <line class="fil4 str7" x1="3.6" y1="1.95" x2="3.6" y2= "1.98" />
     <line class="fil4 str7" x1="3.44" y1="1.95" x2="3.44" y2= "1.98" />
     <line class="fil4 str7" x1="3.46" y1="1.95" x2="3.46" y2= "1.98" />
     <line class="fil4 str7" x1="3.48" y1="1.95" x2="3.48" y2= "1.98" />
     <line class="fil4 str7" x1="3.52" y1="1.95" x2="3.52" y2= "1.98" />
     <path class="fil4 str8" d="M3.44 2.04l-0.08 -0.08c-0.01,-0.02 0.02,-0.03 0.03,-0.02 0.1,0.01 0.16,0 0.26,0 0.03,0 0.03,0.01 0.02,0.03l-0.07 0.07c-0.05,0.04 -0.11,0.04 -0.16,0z"/>
     <polyline class="fil4 str2" points="3.4,2.15 3.46,2.13 3.51,2.11 3.58,2.12 3.65,2.15 "/>
     <path class="fil4 str9" d="M3.06 1.59c-0.02,-0.03 -0.02,-0.08 -0.02,-0.14 0.01,-0.04 0.02,-0.02 0.03,0 0.01,0.04 0.01,0.06 0,0.08"/>
     <path class="fil4 str9" d="M3.95 1.52c0.01,-0.02 0.02,-0.04 0.03,-0.03 0.03,-0.01 0.04,0.01 0.04,0.04 -0.01,0.06 -0.03,0.08 -0.05,0.09"/>
     <path class="fil4 str8" d="M3.62 1.59c0.01,0.01 0.03,0.02 0.04,0.03 0.03,0.01 0.05,0.04 0.13,-0.02 0.03,-0.02 0.03,0 0.06,-0.01"/>
     <path class="fil4 str8" d="M3.42 1.59c-0.01,0.01 -0.03,0.02 -0.04,0.03 -0.03,0.01 -0.05,0.04 -0.12,-0.02 -0.03,-0.02 -0.03,0 -0.05,-0.01"/>
     <path class="fil4 str8" d="M3.21 1.59c0.01,0 0.03,0 0.03,-0.01 0.07,-0.06 0.11,-0.05 0.15,-0.02 0,0.01 0.02,0.02 0.03,0.02"/>
     <path class="fil4 str8" d="M3.85 1.59c-0.01,0 -0.02,0 -0.03,-0.01 -0.07,-0.06 -0.12,-0.05 -0.16,-0.02 -0.01,0.01 -0.03,0.02 -0.04,0.02"/>
     <path class="fil9 str2" d="M3.65 1.97c-0.11,0.09 -0.2,0.07 -0.28,-0.02 0.07,0.14 0.2,0.16 0.28,0.02z"/>
     <path class="fil10 str2" d="M3.42 1.95c0,-0.01 -0.04,-0.01 -0.05,0 -0.01,0 0,0 0,0 0.02,0.02 0.04,0.04 0.06,0.05l-0.01 -0.05z"/>
     <path class="fil10 str2" d="M3.63 1.95c0,-0.02 0.04,-0.01 0.04,0 0,0.01 -0.03,0.03 -0.05,0.05l0.01 -0.05z"/>
     <path class="fil8" d="M3.49 2.03c-0.02,-0.01 -0.04,-0.01 -0.05,-0.02 0.02,-0.01 0.01,0 0.02,0 0.02,-0.01 0.02,0 0.02,0 0.02,-0.01 0.03,0 0.04,0 0,0.01 -0.01,-0.01 0.03,0 0.01,0 0,-0.01 0.03,0 0.01,0 -0.01,-0.01 0.02,0 -0.01,0 -0.03,0.01 -0.05,0.02 -0.02,0 -0.04,0 -0.06,0z"/>
     <path class="fil4 str10" d="M3.44 2.01c0.01,-0.01 0.02,-0.01 0.02,0 0.01,-0.01 0.02,-0.01 0.02,0 0.01,-0.01 0.03,-0.01 0.04,0 0.01,-0.01 0.02,-0.01 0.03,0 0.01,-0.01 0.02,-0.01 0.03,0 0.01,-0.01 0.01,-0.01 0.02,0"/>
     <line class="fil4 str6" x1="3.46" y1="2.01" x2="3.46" y2= "2.02" />
     <line class="fil4 str6" x1="3.48" y1="2.01" x2="3.48" y2= "2.03" />
     <line class="fil4 str6" x1="3.52" y1="2.01" x2="3.52" y2= "2.03" />
     <line class="fil4 str6" x1="3.55" y1="2.01" x2="3.55" y2= "2.03" />
     <line class="fil4 str6" x1="3.58" y1="2.01" x2="3.58" y2= "2.02" />
     <path class="fil9 str11" d="M3.5 1.91c0,-0.01 -0.01,-0.01 -0.02,0 -0.03,0.01 -0.06,0.02 -0.1,0.03 -0.01,0 -0.02,0.01 0,0.01 0,0 0.03,-0.01 0.05,0 0.06,0.01 0.13,0.02 0.19,0 0.02,-0.01 0.03,-0.01 0.04,-0.01 0.02,0.01 0.01,0 0,0 -0.04,-0.01 -0.08,-0.01 -0.1,-0.02 -0.01,-0.01 -0.02,-0.02 -0.02,-0.01 -0.01,0 -0.03,0 -0.04,0z"/>
     <path class="fil11 str12" d="M3.25 2.19c0.14,0.38 0.43,0.4 0.54,-0.01 -0.01,-0.04 -0.02,-0.08 -0.02,-0.13 -0.16,0.36 -0.27,0.41 -0.51,0.02l-0.01 0.12z"/>
     <ellipse class="fil12 str13" cx="3.88" cy="2.83" rx="0.16" ry="0.17"/>
     <line class="fil4 str14" x1="3.74" y1="2.31" x2="4.4" y2= "2.61" />
     <line class="fil4 str14" x1="3.31" y1="2.31" x2="2.65" y2= "2.61" />
     <line class="fil4 str15" x1="3.84" y1="2.67" x2="3.73" y2= "2.79" />
     <line class="fil4 str16" x1="3.9" y1="2.67" x2="3.73" y2= "2.86" />
     <line class="fil4 str15" x1="3.96" y1="2.7" x2="3.75" y2= "2.92" />
     <line class="fil4 str16" x1="4" y1="2.74" x2="3.79" y2= "2.96" />
     <line class="fil4 str15" x1="4.02" y1="2.8" x2="3.85" y2= "2.98" />
     <line class="fil4 str16" x1="4.02" y1="2.87" x2="3.92" y2= "2.98" />
     <line class="fil4 str17" x1="2.62" y1="3.14" x2="4.44" y2= "3.13" />
    </g>
    <g>
     <path class="fil1 str1" d="M2.3 3.29l-1.76 0c-0.04,0 -0.07,-0.04 -0.07,-0.11 0.02,-0.19 0.03,-0.33 0.04,-0.52 0.01,-0.05 -0.01,-0.13 0.07,-0.17 0.24,-0.09 0.57,-0.16 0.58,-0.28l0.01 -0.12c0.17,0.47 0.36,0.42 0.47,-0.02 0,0.07 0.02,0.17 0.1,0.22l0.54 0.25c0.03,0.02 0.04,0.05 0.05,0.09 0.01,0.19 0.03,0.38 0.05,0.57 0.01,0.05 -0.03,0.09 -0.08,0.09z"/>
     <path class="fil2 str2" d="M1.16 2.23c0.06,0.11 0.14,0.18 0.26,0.21 0.11,-0.01 0.23,-0.18 0.22,-0.22l0.01 -0.15c-0.05,0.05 -0.12,0.12 -0.17,0.17 -0.02,0.03 -0.11,0.03 -0.15,0l-0.17 -0.16 0 0.15z"/>
     <path class="fil2 str2" d="M1.86 1.47c-0.02,0.01 -0.02,0.03 -0.04,0.04l0.02 -0.04 -0.13 -0.1 0 -0.2 -0.16 0 -0.14 0.05 -0.15 -0.05 -0.18 0 -0.01 0.17 -0.08 0.11c-0.01,-0.01 -0.02,-0.03 -0.03,-0.04 -0.01,-0.02 -0.02,-0.02 -0.03,-0.01 -0.02,0 -0.02,0.02 -0.03,0.04 0,0.03 0,0.05 0,0.08l0.02 0.1c0.01,0.02 0.02,0.03 0.03,0.03 0.01,0 0.02,-0.01 0.03,-0.03 0.01,0.08 0.02,0.15 0.04,0.21 0.04,0.09 0.08,0.17 0.13,0.25 0.06,0.05 0.12,0.1 0.18,0.16 0.05,0.04 0.1,0.05 0.15,0 0.08,-0.08 0.16,-0.15 0.23,-0.23 0.03,-0.05 0.06,-0.1 0.08,-0.15 0.01,-0.06 0.02,-0.12 0.03,-0.18 0,0.01 0.01,0.01 0.02,0.01 0,0 0.02,0 0.04,-0.01 0.02,-0.06 0.03,-0.11 0.04,-0.16 0,-0.01 -0.01,-0.03 -0.02,-0.04 -0.01,-0.01 -0.03,-0.01 -0.04,-0.01z"/>
     <path class="fil3" d="M1.6 1.54c-0.03,0 -0.04,0.02 -0.04,0.05 0.01,0.03 0.03,0.04 0.05,0.04 0.06,-0.01 0.05,-0.1 -0.01,-0.09z"/>
     <path class="fil3" d="M1.21 1.54c-0.06,0.01 -0.04,0.1 0.02,0.09 0.02,-0.01 0.03,-0.03 0.03,-0.06 0,-0.02 -0.03,-0.04 -0.05,-0.03z"/>
     <line class="fil4 str3" x1="1.11" y1="1.42" x2="1.33" y2= "1.44" />
     <path class="fil5 str4" d="M1.08 1.33l-0.09 0.13c-0.01,-0.03 -0.02,-0.04 -0.03,-0.08 -0.01,-0.08 -0.02,-0.2 0,-0.32 0.03,-0.16 0.11,-0.22 0.21,-0.24 0.17,-0.03 0.33,-0.02 0.47,0 0.11,0.04 0.18,0.15 0.2,0.23 0.04,0.16 0.01,0.26 0,0.41 -0.05,-0.03 -0.09,-0.06 -0.13,-0.09 -0.01,-0.07 -0.02,-0.13 0,-0.2 -0.06,0.02 -0.1,0.02 -0.16,0 -0.07,0.06 -0.2,0.06 -0.29,0 -0.05,0.01 -0.11,0.02 -0.18,0 0.01,0.06 0.01,0.11 0,0.16z"/>
     <line class="fil4 str3" x1="1.68" y1="1.42" x2="1.46" y2= "1.44" />
     <path class="fil6" d="M1.59 1.53c-0.01,-0.01 0.03,-0.03 0.07,-0.03 0.03,0.01 0.06,0.02 0.07,0.04 0,0.01 0,0.01 0,0.02l-0.02 0.01c-0.03,-0.02 -0.07,-0.03 -0.12,-0.04z"/>
     <path class="fil6" d="M1.25 1.53c0.01,-0.01 -0.03,-0.03 -0.07,-0.03 -0.04,0.01 -0.06,0.02 -0.07,0.04 0,0.01 -0.01,0.01 0,0.02l0.02 0.01c0.03,-0.02 0.07,-0.03 0.12,-0.04z"/>
     <path class="fil4 str5" d="M1.5 1.49l-0.03 0.03 -0.02 0.06 -0.01 0.11 0.02 0.05 0.04 0.07c0,0.01 0,0.01 -0.01,0.02l-0.06 0.05c-0.02,0.01 -0.03,0.01 -0.04,0l-0.08 -0.05 0 -0.03 0.03 -0.06 0.01 -0.05 -0.02 -0.1 -0.02 -0.07 -0.04 -0.04"/>
     <path class="fil7" d="M1.54 1.96l-0.26 -0.01c-0.01,0 -0.01,0.01 -0.01,0.01l0.06 0.05c0.02,0.02 0.05,0.03 0.07,0.03 0.03,0 0.06,-0.01 0.08,-0.02l0.06 -0.05c0.01,-0.01 0,-0.01 0,-0.01z"/>
     <path class="fil8 str6" d="M1.31 1.94l0.01 0.03c0,0 0,0.01 0.01,0.01 0.01,0 0.02,0 0.02,0 0.01,0 0.02,0 0.02,0 0.01,0 0.02,0 0.04,0 0.01,0 0.02,0 0.03,0 0.01,0 0.02,0 0.02,0 0.01,0 0.02,0 0.03,0l0 0c0.01,-0.01 0.02,-0.01 0.02,-0.01l0 -0.03c-0.07,0 -0.13,0 -0.2,0z"/>
     <line class="fil4 str7" x1="1.44" y1="1.95" x2="1.44" y2= "1.98" />
     <line class="fil4 str7" x1="1.46" y1="1.95" x2="1.46" y2= "1.98" />
     <line class="fil4 str7" x1="1.49" y1="1.95" x2="1.49" y2= "1.98" />
     <line class="fil4 str7" x1="1.33" y1="1.95" x2="1.33" y2= "1.98" />
     <line class="fil4 str7" x1="1.35" y1="1.95" x2="1.35" y2= "1.98" />
     <line class="fil4 str7" x1="1.37" y1="1.95" x2="1.37" y2= "1.98" />
     <line class="fil4 str7" x1="1.41" y1="1.95" x2="1.41" y2= "1.98" />
     <path class="fil4 str8" d="M1.33 2.04l-0.08 -0.08c-0.01,-0.02 0.02,-0.03 0.03,-0.02 0.1,0.01 0.16,0 0.26,0 0.03,0 0.03,0.01 0.01,0.03l-0.06 0.07c-0.05,0.04 -0.11,0.04 -0.16,0z"/>
     <polyline class="fil4 str2" points="1.29,2.15 1.35,2.13 1.4,2.11 1.47,2.12 1.54,2.15 "/>
     <path class="fil4 str9" d="M0.95 1.59c-0.02,-0.03 -0.02,-0.08 -0.02,-0.14 0.01,-0.04 0.02,-0.02 0.03,0 0.01,0.04 0.01,0.06 0,0.08"/>
     <path class="fil4 str9" d="M1.84 1.52c0.01,-0.02 0.02,-0.04 0.03,-0.03 0.03,-0.01 0.04,0.01 0.04,0.04 -0.01,0.06 -0.03,0.08 -0.05,0.09"/>
     <path class="fil4 str8" d="M1.51 1.59c0.01,0.01 0.02,0.02 0.04,0.03 0.03,0.01 0.05,0.04 0.13,-0.02 0.03,-0.02 0.03,0 0.06,-0.01"/>
     <path class="fil4 str8" d="M1.3 1.59c0,0.01 -0.02,0.02 -0.03,0.03 -0.03,0.01 -0.05,0.04 -0.12,-0.02 -0.03,-0.02 -0.03,0 -0.06,-0.01"/>
     <path class="fil4 str8" d="M1.1 1.59c0.01,0 0.02,0 0.03,-0.01 0.07,-0.06 0.11,-0.05 0.14,-0.02 0.01,0.01 0.02,0.02 0.04,0.02"/>
     <path class="fil4 str8" d="M1.74 1.59c-0.01,0 -0.03,0 -0.03,-0.01 -0.08,-0.06 -0.13,-0.05 -0.16,-0.02 -0.01,0.01 -0.03,0.02 -0.04,0.02"/>
     <path class="fil9 str2" d="M1.54 1.97c-0.11,0.09 -0.2,0.07 -0.28,-0.02 0.07,0.14 0.19,0.16 0.28,0.02z"/>
     <path class="fil10 str2" d="M1.31 1.95c0,-0.01 -0.04,-0.01 -0.05,0 -0.01,0 0,0 0,0 0.02,0.02 0.04,0.04 0.06,0.05l-0.01 -0.05z"/>
     <path class="fil10 str2" d="M1.52 1.95c-0.01,-0.02 0.04,-0.01 0.04,0 0,0.01 -0.03,0.03 -0.05,0.05l0.01 -0.05z"/>
     <path class="fil8" d="M1.38 2.03c-0.02,-0.01 -0.04,-0.01 -0.05,-0.02 0.02,-0.01 0.01,0 0.02,0 0.02,-0.01 0.02,0 0.02,0 0.02,-0.01 0.03,0 0.04,0 0,0.01 -0.01,-0.01 0.03,0 0.01,0 -0.01,-0.01 0.02,0 0.02,0 0,-0.01 0.03,0 -0.02,0 -0.03,0.01 -0.05,0.02 -0.02,0 -0.04,0 -0.06,0z"/>
     <path class="fil4 str10" d="M1.33 2.01c0.01,-0.01 0.01,-0.01 0.02,0 0.01,-0.01 0.01,-0.01 0.02,0 0.01,-0.01 0.02,-0.01 0.04,0 0.01,-0.01 0.02,-0.01 0.03,0 0.01,-0.01 0.01,-0.01 0.03,0 0.01,-0.01 0.01,-0.01 0.02,0"/>
     <line class="fil4 str6" x1="1.35" y1="2.01" x2="1.35" y2= "2.02" />
     <line class="fil4 str6" x1="1.37" y1="2.01" x2="1.37" y2= "2.03" />
     <line class="fil4 str6" x1="1.41" y1="2.01" x2="1.41" y2= "2.03" />
     <line class="fil4 str6" x1="1.44" y1="2.01" x2="1.44" y2= "2.03" />
     <line class="fil4 str6" x1="1.46" y1="2.01" x2="1.47" y2= "2.02" />
     <path class="fil9 str11" d="M1.39 1.91c0,-0.01 -0.01,-0.01 -0.03,0 -0.02,0.01 -0.06,0.02 -0.09,0.03 -0.01,0 -0.02,0.01 0,0.01 0,0 0.03,-0.01 0.05,0 0.06,0.01 0.12,0.02 0.19,0 0.01,-0.01 0.03,-0.01 0.04,-0.01 0.01,0.01 0.01,0 0,0 -0.04,-0.01 -0.08,-0.01 -0.1,-0.02 -0.01,-0.01 -0.02,-0.02 -0.02,-0.01 -0.02,0 -0.03,0 -0.04,0z"/>
     <path class="fil11 str12" d="M1.14 2.19c0.14,0.38 0.43,0.4 0.54,-0.01 -0.01,-0.04 -0.02,-0.08 -0.02,-0.13 -0.16,0.36 -0.27,0.41 -0.51,0.02l-0.01 0.12z"/>
     <ellipse class="fil12 str13" cx="1.77" cy="2.83" rx="0.16" ry="0.17"/>
     <line class="fil4 str14" x1="1.63" y1="2.31" x2="2.29" y2= "2.61" />
     <line class="fil4 str14" x1="1.2" y1="2.31" x2="0.54" y2= "2.61" />
     <line class="fil4 str15" x1="1.73" y1="2.67" x2="1.62" y2= "2.79" />
     <line class="fil4 str16" x1="1.79" y1="2.67" x2="1.62" y2= "2.86" />
     <line class="fil4 str15" x1="1.85" y1="2.7" x2="1.64" y2= "2.92" />
     <line class="fil4 str16" x1="1.89" y1="2.74" x2="1.68" y2= "2.96" />
     <line class="fil4 str15" x1="1.91" y1="2.8" x2="1.74" y2= "2.98" />
     <line class="fil4 str16" x1="1.91" y1="2.87" x2="1.8" y2= "2.98" />
     <line class="fil4 str17" x1="0.51" y1="3.14" x2="2.33" y2= "3.13" />
    </g>
    <g>
     <path class="fil1 str1" d="M3.38 4.29l-1.75 0c-0.04,0 -0.07,-0.04 -0.07,-0.1 0.02,-0.19 0.02,-0.33 0.04,-0.52 0,-0.05 -0.01,-0.14 0.07,-0.17 0.23,-0.1 0.57,-0.17 0.58,-0.29l0.01 -0.11c0.17,0.46 0.36,0.41 0.47,-0.03 -0.01,0.08 0.01,0.17 0.1,0.23l0.54 0.24c0.02,0.02 0.04,0.05 0.04,0.1 0.02,0.19 0.04,0.38 0.06,0.56 0,0.05 -0.04,0.09 -0.09,0.09z"/>
     <path class="fil2 str2" d="M2.25 3.23c0.05,0.11 0.14,0.19 0.26,0.22 0.11,-0.01 0.22,-0.18 0.22,-0.23l0 -0.14c-0.05,0.05 -0.11,0.11 -0.16,0.16 -0.03,0.04 -0.11,0.04 -0.15,0.01l-0.18 -0.16 0.01 0.14z"/>
     <path class="fil2 str2" d="M2.94 2.48c-0.01,0 -0.02,0.02 -0.03,0.04l0.01 -0.05 -0.12 -0.09 0 -0.2 -0.17 0 -0.14 0.04 -0.14 -0.05 -0.18 0.01 -0.01 0.16 -0.08 0.12c-0.01,-0.02 -0.02,-0.03 -0.03,-0.05 -0.01,-0.01 -0.03,-0.01 -0.04,0 -0.01,0 -0.01,0.01 -0.02,0.04 -0.01,0.02 0,0.05 0,0.08l0.02 0.1c0,0.02 0.01,0.02 0.03,0.02 0.01,0.01 0.02,0 0.03,-0.02 0.01,0.08 0.02,0.15 0.04,0.21 0.03,0.09 0.08,0.17 0.13,0.25 0.06,0.05 0.11,0.1 0.17,0.15 0.06,0.05 0.11,0.05 0.16,0 0.08,-0.07 0.16,-0.15 0.23,-0.23 0.03,-0.04 0.06,-0.09 0.07,-0.14 0.01,-0.06 0.03,-0.12 0.04,-0.18 0,0 0.01,0.01 0.01,0.01 0.01,0 0.03,-0.01 0.04,-0.02 0.03,-0.05 0.04,-0.1 0.05,-0.15 0,-0.02 -0.01,-0.03 -0.02,-0.04 -0.01,-0.01 -0.04,-0.02 -0.05,-0.01z"/>
     <path class="fil3" d="M2.68 2.55c-0.02,0 -0.04,0.02 -0.03,0.05 0.01,0.02 0.02,0.04 0.05,0.04 0.05,-0.02 0.05,-0.11 -0.02,-0.09z"/>
     <path class="fil3" d="M2.3 2.55c-0.06,0.01 -0.04,0.1 0.01,0.09 0.03,-0.01 0.04,-0.03 0.04,-0.06 0,-0.02 -0.03,-0.04 -0.05,-0.03z"/>
     <line class="fil4 str3" x1="2.2" y1="2.43" x2="2.42" y2= "2.45" />
     <path class="fil5 str4" d="M2.17 2.34l-0.1 0.13c-0.01,-0.03 -0.01,-0.04 -0.02,-0.08 -0.01,-0.09 -0.02,-0.21 0,-0.32 0.02,-0.16 0.11,-0.23 0.2,-0.24 0.18,-0.03 0.34,-0.03 0.48,0 0.1,0.04 0.18,0.14 0.2,0.23 0.03,0.16 0.01,0.25 -0.01,0.41 -0.04,-0.03 -0.08,-0.06 -0.12,-0.1 -0.02,-0.06 -0.02,-0.13 0,-0.19 -0.07,0.01 -0.11,0.01 -0.16,0 -0.08,0.06 -0.2,0.06 -0.29,0 -0.06,0.01 -0.11,0.01 -0.18,0 0.01,0.05 0.01,0.11 0,0.16z"/>
     <line class="fil4 str3" x1="2.77" y1="2.43" x2="2.55" y2= "2.45" />
     <path class="fil6" d="M2.68 2.54c-0.01,-0.02 0.02,-0.04 0.07,-0.03 0.03,0 0.06,0.01 0.07,0.04 0,0 0,0.01 0,0.01l-0.02 0.02c-0.03,-0.03 -0.08,-0.04 -0.12,-0.04z"/>
     <path class="fil6" d="M2.34 2.54c0.01,-0.02 -0.03,-0.04 -0.08,-0.03 -0.03,0 -0.05,0.01 -0.06,0.04 0,0 -0.01,0.01 0,0.01l0.02 0.02c0.03,-0.03 0.07,-0.04 0.12,-0.04z"/>
     <path class="fil4 str5" d="M2.59 2.5l-0.03 0.03 -0.02 0.06 -0.01 0.11 0.01 0.05 0.04 0.07c0.01,0 0.01,0.01 0,0.01l-0.07 0.05c-0.01,0.01 -0.02,0.01 -0.03,0l-0.08 -0.05 0 -0.02 0.03 -0.07 0.01 -0.04 -0.02 -0.11 -0.02 -0.07 -0.05 -0.03"/>
     <path class="fil7" d="M2.62 2.96l-0.26 0c0,0 0,0 0,0.01l0.06 0.05c0.02,0.01 0.04,0.02 0.07,0.02 0.03,0 0.05,0 0.08,-0.01l0.06 -0.06c0,-0.01 0,0 -0.01,-0.01z"/>
     <path class="fil8 str6" d="M2.4 2.95l0 0.02c0,0.01 0.01,0.01 0.02,0.01 0.01,0.01 0.01,0.01 0.02,0 0.01,0.01 0.01,0.01 0.02,0 0.01,0.01 0.02,0.01 0.03,0 0.02,0.01 0.03,0.01 0.04,0 0.01,0.01 0.01,0.01 0.02,0 0.01,0.01 0.02,0.01 0.03,0l0 0c0.01,0 0.01,0 0.02,-0.01l0 -0.03c-0.07,0.01 -0.13,0.01 -0.2,0.01z"/>
     <line class="fil4 str7" x1="2.53" y1="2.96" x2="2.53" y2= "2.98" />
     <line class="fil4 str7" x1="2.55" y1="2.96" x2="2.55" y2= "2.98" />
     <line class="fil4 str7" x1="2.58" y1="2.96" x2="2.58" y2= "2.98" />
     <line class="fil4 str7" x1="2.42" y1="2.96" x2="2.42" y2= "2.98" />
     <line class="fil4 str7" x1="2.44" y1="2.96" x2="2.44" y2= "2.98" />
     <line class="fil4 str7" x1="2.46" y1="2.96" x2="2.46" y2= "2.98" />
     <line class="fil4 str7" x1="2.49" y1="2.96" x2="2.49" y2= "2.98" />
     <path class="fil4 str8" d="M2.42 3.05l-0.08 -0.09c-0.01,-0.01 0.01,-0.02 0.03,-0.02 0.09,0.01 0.16,0.01 0.25,0 0.03,0 0.04,0.01 0.02,0.03l-0.06 0.08c-0.06,0.03 -0.11,0.03 -0.16,0z"/>
     <polyline class="fil4 str2" points="2.38,3.16 2.43,3.13 2.49,3.12 2.56,3.13 2.62,3.16 "/>
     <path class="fil4 str9" d="M2.04 2.59c-0.02,-0.02 -0.03,-0.07 -0.03,-0.13 0.02,-0.04 0.03,-0.02 0.03,0 0.02,0.03 0.02,0.05 0,0.08"/>
     <path class="fil4 str9" d="M2.93 2.53c0,-0.02 0.02,-0.04 0.03,-0.04 0.02,0 0.04,0.02 0.04,0.04 -0.01,0.06 -0.04,0.09 -0.05,0.1"/>
     <path class="fil4 str8" d="M2.6 2.6c0.01,0.01 0.02,0.01 0.04,0.02 0.03,0.02 0.05,0.05 0.13,-0.01 0.03,-0.02 0.03,-0.01 0.06,-0.01"/>
     <path class="fil4 str8" d="M2.39 2.6c-0.01,0.01 -0.02,0.01 -0.03,0.02 -0.03,0.02 -0.05,0.05 -0.12,-0.01 -0.03,-0.02 -0.03,-0.01 -0.06,-0.01"/>
     <path class="fil4 str8" d="M2.19 2.59c0.01,0 0.02,0.01 0.03,0 0.06,-0.06 0.11,-0.06 0.14,-0.03 0.01,0.01 0.02,0.03 0.03,0.03"/>
     <path class="fil4 str8" d="M2.83 2.59c-0.01,0 -0.03,0.01 -0.04,0 -0.07,-0.06 -0.12,-0.06 -0.16,-0.03 -0.01,0.01 -0.02,0.03 -0.03,0.03"/>
     <path class="fil9 str2" d="M2.63 2.98c-0.11,0.09 -0.2,0.06 -0.29,-0.02 0.08,0.13 0.2,0.16 0.29,0.02z"/>
     <path class="fil10 str2" d="M2.4 2.95c0,0 -0.04,0 -0.06,0 0,0 0.01,0 0.01,0.01 0.02,0.02 0.04,0.04 0.06,0.05l-0.01 -0.06z"/>
     <path class="fil10 str2" d="M2.6 2.95c0,-0.01 0.04,0 0.05,0 0,0.02 -0.03,0.04 -0.05,0.05l0 -0.05z"/>
     <path class="fil8" d="M2.47 3.03c-0.02,0 -0.04,-0.01 -0.05,-0.02 0.02,0 0.01,0 0.02,0 0.02,-0.01 0.02,0 0.02,0 0.02,-0.01 0.03,0 0.03,0.01 0.01,0.01 0,-0.02 0.04,0 0.01,0 -0.01,-0.01 0.02,0 0.01,0 -0.01,-0.01 0.03,-0.01 -0.02,0.01 -0.04,0.02 -0.05,0.02 -0.02,0.01 -0.04,0.01 -0.06,0z"/>
     <path class="fil4 str10" d="M2.42 3.01c0,0 0.01,0 0.02,0 0,0 0.01,0 0.02,0 0.01,0 0.02,0 0.03,0.01 0.02,-0.01 0.03,-0.01 0.04,0 0,-0.01 0.01,-0.01 0.02,0 0.01,-0.01 0.02,-0.01 0.03,0"/>
     <line class="fil4 str6" x1="2.44" y1="3.01" x2="2.44" y2= "3.02" />
     <line class="fil4 str6" x1="2.46" y1="3.01" x2="2.46" y2= "3.03" />
     <line class="fil4 str6" x1="2.49" y1="3.01" x2="2.49" y2= "3.04" />
     <line class="fil4 str6" x1="2.53" y1="3.01" x2="2.53" y2= "3.03" />
     <line class="fil4 str6" x1="2.55" y1="3.01" x2="2.55" y2= "3.03" />
     <path class="fil9 str11" d="M2.48 2.92c-0.01,-0.01 -0.02,-0.01 -0.03,0 -0.03,0.01 -0.06,0.02 -0.09,0.02 -0.01,0 -0.03,0.02 -0.01,0.01 0.01,0 0.04,0 0.06,0 0.05,0.02 0.12,0.02 0.19,0 0.01,0 0.03,0 0.04,0 0.01,0 0.01,0 0,-0.01 -0.04,-0.01 -0.09,-0.01 -0.1,-0.02 -0.01,0 -0.02,-0.01 -0.03,0 -0.01,0 -0.02,0 -0.03,0z"/>
     <path class="fil11 str12" d="M2.22 3.2c0.15,0.38 0.43,0.4 0.54,-0.02 -0.01,-0.04 -0.01,-0.08 -0.01,-0.12 -0.16,0.36 -0.28,0.41 -0.52,0.02l-0.01 0.12z"/>
     <ellipse class="fil12 str13" cx="2.85" cy="3.83" rx="0.16" ry="0.17"/>
     <line class="fil4 str14" x1="2.71" y1="3.32" x2="3.38" y2= "3.62" />
     <line class="fil4 str14" x1="2.29" y1="3.32" x2="1.63" y2= "3.62" />
     <line class="fil4 str15" x1="2.82" y1="3.67" x2="2.71" y2= "3.8" />
     <line class="fil4 str16" x1="2.88" y1="3.67" x2="2.7" y2= "3.86" />
     <line class="fil4 str15" x1="2.94" y1="3.7" x2="2.73" y2= "3.93" />
     <line class="fil4 str16" x1="2.98" y1="3.74" x2="2.77" y2= "3.97" />
     <line class="fil4 str15" x1="3" y1="3.81" x2="2.83" y2= "3.99" />
     <line class="fil4 str16" x1="3" y1="3.88" x2="2.89" y2= "3.99" />
     <line class="fil4 str17" x1="1.6" y1="4.14" x2="3.42" y2= "4.14" />
    </g>
   </g>
  </g>
 </g>
</svg>
