<?xml version="1.0" encoding="UTF-8"?>
<!DOCTYPE svg PUBLIC "-//W3C//DTD SVG 1.1//EN" "http://www.w3.org/Graphics/SVG/1.1/DTD/svg11.dtd">
<!-- Creator: CorelDRAW 2021 (64 Bit) -->
<svg xmlns="http://www.w3.org/2000/svg" xml:space="preserve" width="530px" height="530px" version="1.1" style="shape-rendering:geometricPrecision; text-rendering:geometricPrecision; image-rendering:optimizeQuality; fill-rule:evenodd; clip-rule:evenodd"
viewBox="0 0 5.55 5.55"
 xmlns:xlink="http://www.w3.org/1999/xlink"
 xmlns:xodm="http://www.corel.com/coreldraw/odm/2003">
 <defs>
  <style type="text/css">
   <![CDATA[
    .str0 {stroke:#B8B4B6;stroke-width:0.31;stroke-miterlimit:22.9256}
    .str2 {stroke:#967708;stroke-width:0.01;stroke-miterlimit:22.9256}
    .str1 {stroke:black;stroke-width:0.05;stroke-miterlimit:22.9256}
    .fil2 {fill:black}
    .fil7 {fill:#009933}
    .fil5 {fill:#00CCFF}
    .fil6 {fill:aqua}
    .fil8 {fill:#99FF99}
    .fil9 {fill:#9C7C49}
    .fil1 {fill:red}
    .fil3 {fill:#FFAE00}
    .fil4 {fill:yellow}
    .fil0 {fill:white}
   ]]>
  </style>
 </defs>
 <g id="Camada_x0020_1">
  <metadata id="CorelCorpID_0Corel-Layer"/>
  <g id="_2787550115872">
   <path class="fil0 str0" d="M0.39 0.16l4.78 0c0.12,0 0.23,0.11 0.23,0.26l0 4.71c0,0.15 -0.11,0.27 -0.23,0.27l-4.78 0c-0.12,0 -0.23,-0.12 -0.23,-0.27 0,-0.56 -0.01,-4.56 0,-4.77 0,-0.11 0.14,-0.2 0.23,-0.2z"/>
   <g>
    <g>
     <g>
      <path class="fil1" d="M3.52 1.43c-0.39,-0.22 -0.61,-0.15 -0.86,0.16 -0.22,0.32 -0.23,0.66 -0.13,1.05l-0.86 1.38c0.14,0.13 0.26,0.18 0.37,0.09l0.12 -0.13 0.27 -0.19 0.08 -0.38 0.3 -0.08 0.13 -0.29c0.35,0.12 0.61,-0.04 0.8,-0.46 0.14,-0.44 0.08,-0.83 -0.22,-1.15z"/>
      <g>
       <path class="fil2 str1" d="M3.25 1.64c0.1,-0.03 0.18,0.06 0.21,0.16 0.02,0.14 -0.05,0.26 -0.13,0.29 -0.23,0.07 -0.32,-0.37 -0.08,-0.45zm0 -0.04c-0.11,0.03 -0.19,0.16 -0.17,0.32 0.02,0.14 0.13,0.25 0.25,0.21 0.1,-0.02 0.19,-0.17 0.16,-0.32 -0.02,-0.14 -0.13,-0.24 -0.24,-0.21z"/>
       <path class="fil2" d="M2.85 1.35c-0.14,0.04 -0.09,0.33 0.06,0.28 0.05,-0.02 0.09,-0.09 0.08,-0.18 -0.02,-0.07 -0.07,-0.12 -0.14,-0.1z"/>
      </g>
      <path class="fil2" d="M2.63 1.59c-0.02,0.01 -0.04,0.04 -0.05,0.06 -0.11,0.15 -0.16,0.41 -0.16,0.62 0,0.08 0.01,0.16 0.02,0.24 0.03,0.12 0.06,0.12 0.02,0.17 -0.06,0.1 -0.1,0.17 -0.17,0.27l-0.17 0.27c-0.03,0.06 -0.5,0.79 -0.5,0.81 0.03,0.03 0.05,0.05 0.09,0.08 0.1,0.1 0.25,0.13 0.36,0.06 0.06,-0.05 0.08,-0.16 0.16,-0.21l0.23 -0.12c0,-0.01 0,0.01 0,-0.01 0,-0.01 0,0 0,-0.02 0.02,-0.1 0.06,-0.26 0.08,-0.37 0.08,-0.01 0.22,-0.01 0.28,-0.08 0.03,-0.03 0.05,-0.08 0.07,-0.12 0.02,-0.04 0.06,-0.09 0.06,-0.12 0.13,0.03 0.18,0.05 0.34,0 0.09,-0.03 0.2,-0.1 0.26,-0.17 0.07,-0.09 0.13,-0.16 0.17,-0.28 0.04,-0.11 0.08,-0.22 0.09,-0.37 0.01,-0.16 0,-0.31 -0.04,-0.45 -0.04,-0.13 -0.1,-0.22 -0.15,-0.3l-0.11 -0.11c-0.09,-0.09 -0.22,-0.14 -0.34,-0.14 -0.02,0 -0.07,0 -0.09,0.01l0.02 0.01c0,0.06 -0.01,0.08 0.01,0.13 0.1,0.02 0.15,-0.02 0.28,0.05 0.07,0.03 0.15,0.1 0.2,0.17 0.03,0.06 0.11,0.2 0.13,0.29 0.04,0.24 0.03,0.51 -0.09,0.73 -0.04,0.07 -0.1,0.18 -0.16,0.23 -0.18,0.14 -0.37,0.16 -0.55,0.07 -0.02,0.01 -0.03,0.04 -0.04,0.06l-0.11 0.21c-0.02,0.03 -0.04,0.03 -0.08,0.03l-0.25 0.07c-0.01,0.1 -0.04,0.23 -0.06,0.34 -0.01,0.06 0,0.03 -0.1,0.1l-0.17 0.11c-0.03,0.03 -0.03,0.02 -0.04,0.06 -0.01,0.01 -0.07,0.11 -0.08,0.12 -0.09,0.05 -0.22,-0.02 -0.26,-0.07 0.01,-0.02 0.02,-0.03 0.03,-0.05 0.07,-0.09 0.12,-0.19 0.19,-0.29 0.02,-0.03 0.04,-0.05 0.06,-0.09l0.28 -0.42c0.01,-0.03 0.04,-0.06 0.06,-0.08 0.02,-0.03 0.03,-0.06 0.05,-0.09l0.11 -0.17c0.04,-0.06 0.08,-0.11 0.12,-0.17 -0.01,-0.04 -0.04,-0.07 -0.06,-0.1 0,-0.02 -0.03,-0.11 -0.03,-0.13 -0.05,-0.21 -0.01,-0.43 0.08,-0.61 0,-0.01 0.01,-0.03 0.02,-0.05 0.02,-0.03 0.04,-0.06 0.06,-0.1 -0.01,-0.01 -0.02,-0.02 -0.04,-0.04 -0.01,-0.01 -0.03,-0.02 -0.03,-0.04z"/>
     </g>
     <g>
      <path class="fil3" d="M3.34 1.39c-0.42,-0.08 -0.61,0.06 -0.79,0.46 -0.16,0.39 -0.11,0.72 0.07,1.06l-0.57 1.63c0.15,0.08 0.28,0.09 0.37,-0.04l0.09 -0.17 0.23 -0.27 0 -0.4 0.28 -0.18 0.07 -0.33c0.36,-0.01 0.58,-0.26 0.68,-0.73 0.06,-0.47 -0.07,-0.83 -0.43,-1.03z"/>
      <g>
       <path class="fil2 str1" d="M3.12 1.69c0.09,-0.07 0.19,-0.01 0.24,0.08 0.05,0.13 0,0.27 -0.08,0.32 -0.2,0.15 -0.37,-0.24 -0.16,-0.4zm-0.01 -0.04c-0.1,0.06 -0.15,0.22 -0.1,0.37 0.05,0.13 0.17,0.19 0.28,0.12 0.1,-0.07 0.15,-0.23 0.1,-0.38 -0.05,-0.12 -0.17,-0.18 -0.28,-0.11z"/>
       <path class="fil2" d="M2.69 1.55c-0.13,0.09 -0.03,0.35 0.1,0.25 0.05,-0.04 0.08,-0.12 0.04,-0.2 -0.02,-0.06 -0.09,-0.09 -0.14,-0.05z"/>
      </g>
      <path class="fil2" d="M2.51 1.86c-0.01,0.02 -0.02,0.05 -0.03,0.07 -0.08,0.19 -0.08,0.46 -0.04,0.66 0.02,0.08 0.04,0.16 0.07,0.22 0.05,0.11 0.07,0.11 0.05,0.16 -0.04,0.12 -0.07,0.2 -0.11,0.32l-0.12 0.33c-0.02,0.06 -0.33,0.93 -0.33,0.96 0.04,0.01 0.06,0.03 0.1,0.04 0.11,0.06 0.26,0.04 0.36,-0.07 0.05,-0.07 0.05,-0.18 0.11,-0.26l0.2 -0.2c0.01,-0.01 0,0.01 0.01,-0.01 0,-0.01 0,0 -0.01,-0.01 0,-0.1 0.01,-0.28 0.01,-0.39 0.08,-0.04 0.21,-0.09 0.25,-0.18 0.03,-0.04 0.04,-0.09 0.05,-0.14 0.01,-0.05 0.04,-0.11 0.04,-0.14 0.13,-0.01 0.18,-0.02 0.32,-0.12 0.09,-0.06 0.18,-0.16 0.22,-0.26 0.05,-0.1 0.09,-0.2 0.11,-0.33 0.02,-0.12 0.04,-0.24 0.02,-0.39 -0.02,-0.15 -0.06,-0.29 -0.12,-0.41 -0.07,-0.12 -0.14,-0.18 -0.21,-0.24l-0.12 -0.07c-0.11,-0.05 -0.24,-0.05 -0.36,-0.01 -0.01,0.01 -0.07,0.03 -0.08,0.04l0.02 0c0.01,0.06 0,0.08 0.03,0.13 0.1,-0.02 0.15,-0.08 0.28,-0.06 0.08,0.01 0.17,0.05 0.23,0.1 0.04,0.04 0.15,0.15 0.18,0.23 0.09,0.22 0.12,0.49 0.05,0.73 -0.02,0.09 -0.06,0.22 -0.11,0.29 -0.15,0.19 -0.33,0.28 -0.52,0.25 -0.01,0.02 -0.02,0.06 -0.03,0.08l-0.07 0.25c-0.01,0.03 -0.03,0.03 -0.06,0.05l-0.23 0.15c0,0.11 0,0.24 0,0.35 0,0.06 0.01,0.04 -0.07,0.13l-0.15 0.18c-0.03,0.03 -0.02,0.02 -0.03,0.07 0,0.01 -0.05,0.13 -0.05,0.14 -0.08,0.08 -0.22,0.06 -0.26,0.02 0,-0.02 0,-0.02 0.01,-0.05 0.05,-0.12 0.09,-0.23 0.14,-0.35 0.01,-0.04 0.03,-0.07 0.04,-0.11l0.18 -0.5c0.01,-0.03 0.03,-0.07 0.04,-0.11 0.02,-0.03 0.03,-0.06 0.04,-0.1l0.08 -0.2c0.03,-0.07 0.05,-0.14 0.08,-0.2 -0.02,-0.04 -0.06,-0.06 -0.08,-0.09 -0.01,-0.01 -0.04,-0.09 -0.05,-0.11 -0.09,-0.18 -0.09,-0.4 -0.04,-0.61 0,-0.02 0.01,-0.04 0.01,-0.06 0.01,-0.04 0.03,-0.08 0.04,-0.11 -0.02,-0.01 -0.03,-0.02 -0.05,-0.03 -0.01,-0.01 -0.03,-0.01 -0.04,-0.03z"/>
     </g>
     <g>
      <path class="fil4" d="M3.18 1.36c-0.42,0.08 -0.58,0.28 -0.68,0.73 -0.08,0.43 0.03,0.73 0.27,1l-0.25 1.78c0.17,0.02 0.29,-0.02 0.35,-0.17l0.06 -0.2 0.17 -0.34 -0.07 -0.39 0.23 -0.27 0.01 -0.35c0.34,-0.14 0.51,-0.45 0.52,-0.94 -0.04,-0.48 -0.23,-0.78 -0.61,-0.85z"/>
      <g>
       <path class="fil2 str1" d="M3.02 1.73c0.08,-0.1 0.18,-0.08 0.24,0 0.08,0.1 0.06,0.25 0,0.33 -0.17,0.22 -0.41,-0.1 -0.24,-0.33zm-0.01 -0.04c-0.09,0.1 -0.11,0.28 -0.03,0.4 0.07,0.11 0.2,0.12 0.29,0.01 0.08,-0.09 0.1,-0.28 0.02,-0.39 -0.07,-0.1 -0.19,-0.12 -0.28,-0.02z"/>
       <path class="fil2" d="M2.57 1.75c-0.1,0.13 0.05,0.35 0.15,0.2 0.04,-0.05 0.05,-0.14 0.01,-0.2 -0.04,-0.05 -0.11,-0.06 -0.16,0z"/>
      </g>
      <path class="fil2" d="M2.47 2.11c-0.01,0.02 -0.02,0.06 -0.02,0.08 -0.04,0.21 0.01,0.47 0.09,0.66 0.03,0.06 0.06,0.13 0.1,0.18 0.07,0.09 0.09,0.08 0.08,0.14 -0.02,0.13 -0.03,0.22 -0.05,0.35l-0.05 0.35c-0.01,0.08 -0.14,1.03 -0.14,1.05 0.04,0 0.07,0 0.11,0.01 0.12,0.01 0.26,-0.06 0.33,-0.2 0.04,-0.09 0.02,-0.2 0.06,-0.29l0.16 -0.26c0,-0.01 0,0 0,-0.02 0,-0.01 0,0 -0.01,-0.01 -0.02,-0.1 -0.05,-0.26 -0.07,-0.37 0.07,-0.07 0.19,-0.17 0.22,-0.27 0.01,-0.04 0.01,-0.1 0.02,-0.15 0,-0.05 0.01,-0.12 0.01,-0.15 0.12,-0.06 0.17,-0.08 0.28,-0.22 0.08,-0.1 0.14,-0.23 0.17,-0.34 0.03,-0.12 0.05,-0.22 0.05,-0.35 -0.01,-0.13 -0.02,-0.25 -0.06,-0.39 -0.05,-0.14 -0.11,-0.26 -0.2,-0.35 -0.08,-0.09 -0.16,-0.13 -0.24,-0.16l-0.13 -0.03c-0.12,0 -0.24,0.04 -0.35,0.12 -0.01,0.01 -0.06,0.05 -0.07,0.07l0.02 -0.01c0.02,0.05 0.02,0.08 0.05,0.11 0.09,-0.05 0.13,-0.12 0.26,-0.16 0.08,-0.01 0.17,-0.01 0.24,0.02 0.05,0.03 0.17,0.09 0.22,0.16 0.12,0.18 0.21,0.43 0.19,0.69 -0.01,0.09 -0.03,0.23 -0.06,0.32 -0.1,0.24 -0.26,0.38 -0.46,0.43 0,0.02 0,0.06 -0.01,0.09l-0.01 0.26c-0.01,0.03 -0.03,0.04 -0.06,0.07l-0.19 0.23c0.02,0.1 0.04,0.23 0.07,0.34 0.01,0.06 0.01,0.03 -0.05,0.15l-0.11 0.22c-0.02,0.04 -0.01,0.03 -0.01,0.08 0,0.01 -0.02,0.14 -0.03,0.15 -0.05,0.1 -0.19,0.14 -0.24,0.12 -0.01,-0.02 0,-0.03 0,-0.06 0.02,-0.13 0.04,-0.25 0.06,-0.39 0.01,-0.04 0.02,-0.07 0.02,-0.11l0.09 -0.56c0,-0.03 0.01,-0.08 0.02,-0.11 0,-0.04 0.01,-0.07 0.02,-0.11l0.03 -0.23c0.01,-0.07 0.03,-0.14 0.04,-0.22 -0.03,-0.03 -0.07,-0.04 -0.09,-0.05 -0.01,-0.01 -0.06,-0.07 -0.07,-0.09 -0.13,-0.15 -0.17,-0.36 -0.16,-0.58 0,-0.02 0.01,-0.04 0.01,-0.06 0,-0.04 0.01,-0.09 0.01,-0.12 -0.02,-0.01 -0.03,-0.01 -0.05,-0.01 -0.01,-0.01 -0.03,0 -0.04,-0.02z"/>
     </g>
     <g>
      <path class="fil0" d="M3.21 1.97c-0.14,-0.54 -0.32,-0.71 -0.66,-0.76 -0.32,-0.01 -0.51,0.21 -0.65,0.58l-1.32 0.05c0.02,0.22 0.07,0.38 0.2,0.43l0.15 0.03 0.28 0.16 0.26 -0.18 0.24 0.25 0.25 -0.06c0.17,0.43 0.43,0.59 0.78,0.5 0.33,-0.15 0.51,-0.47 0.47,-1z"/>
      <g>
       <path class="fil2 str1" d="M2.92 1.84c0.08,0.08 0.09,0.23 0.05,0.33 -0.05,0.12 -0.17,0.12 -0.24,0.06 -0.19,-0.18 -0.02,-0.58 0.19,-0.39zm0.02 -0.03c-0.09,-0.09 -0.21,-0.08 -0.29,0.05 -0.06,0.11 -0.04,0.3 0.06,0.4 0.08,0.08 0.22,0.07 0.28,-0.06 0.06,-0.11 0.05,-0.29 -0.05,-0.39z"/>
       <path class="fil2" d="M2.81 1.25c-0.12,-0.12 -0.24,0.13 -0.11,0.24 0.04,0.04 0.11,0.04 0.14,-0.04 0.03,-0.06 0.02,-0.15 -0.03,-0.2z"/>
      </g>
      <path class="fil2" d="M2.53 1.18c-0.02,-0.01 -0.04,-0.01 -0.06,-0.01 -0.16,-0.01 -0.33,0.11 -0.45,0.26 -0.04,0.05 -0.08,0.11 -0.11,0.17 -0.05,0.12 -0.03,0.15 -0.08,0.15 -0.09,0 -0.16,0 -0.26,0l-0.26 0.01c-0.05,0 -0.76,0.02 -0.78,0.03 0.01,0.05 0.02,0.09 0.02,0.15 0.02,0.16 0.1,0.34 0.22,0.4 0.07,0.04 0.14,-0.02 0.21,0.03l0.22 0.15c0.01,0 0,0 0.01,-0.01 0.01,0 0,0 0.01,0 0.06,-0.06 0.18,-0.13 0.25,-0.18 0.06,0.08 0.16,0.22 0.24,0.24 0.03,0 0.07,-0.01 0.11,-0.01 0.04,-0.01 0.08,-0.01 0.11,-0.02 0.06,0.15 0.09,0.22 0.22,0.34 0.08,0.07 0.19,0.14 0.27,0.15 0.09,0.02 0.17,0.02 0.26,-0.01 0.09,-0.03 0.17,-0.07 0.26,-0.16 0.1,-0.09 0.17,-0.21 0.21,-0.35 0.05,-0.13 0.06,-0.24 0.07,-0.35l-0.01 -0.18c-0.02,-0.16 -0.08,-0.32 -0.16,-0.45 -0.01,-0.01 -0.05,-0.07 -0.06,-0.07l0.01 0.02c-0.04,0.04 -0.05,0.04 -0.07,0.09 0.05,0.12 0.11,0.15 0.16,0.32 0.03,0.1 0.05,0.22 0.04,0.32 0,0.07 -0.03,0.25 -0.06,0.33 -0.11,0.21 -0.26,0.37 -0.45,0.4 -0.07,0.01 -0.18,0.02 -0.24,-0.01 -0.19,-0.09 -0.33,-0.27 -0.41,-0.52 -0.01,0 -0.04,0 -0.06,0l-0.19 0.03c-0.02,0 -0.04,-0.02 -0.06,-0.05l-0.21 -0.21c-0.06,0.05 -0.15,0.11 -0.22,0.16 -0.04,0.03 -0.02,0.02 -0.12,-0.03l-0.18 -0.1c-0.03,-0.01 -0.03,-0.01 -0.06,-0.01 -0.01,0.01 -0.11,0.01 -0.12,0.01 -0.08,-0.06 -0.13,-0.24 -0.13,-0.31 0.01,-0.01 0.02,0 0.04,0 0.1,0 0.19,-0.01 0.29,0 0.03,0 0.06,0 0.09,0l0.41 -0.01c0.03,0 0.06,0.01 0.09,0.01 0.02,0 0.05,0 0.08,0l0.17 0c0.05,0 0.11,0 0.16,0 0.02,-0.04 0.02,-0.09 0.02,-0.13 0.01,-0.01 0.04,-0.1 0.05,-0.12 0.08,-0.19 0.22,-0.29 0.38,-0.33 0.01,0 0.03,0 0.04,0 0.03,-0.01 0.07,-0.01 0.09,-0.01 0,-0.02 0,-0.04 0,-0.07 0,-0.02 -0.01,-0.04 0,-0.06z"/>
     </g>
     <g>
      <path class="fil5" d="M3 1.31c-0.39,0.22 -0.5,0.48 -0.52,0.95 0.01,0.44 0.17,0.69 0.45,0.86l0.1 1.81c0.16,-0.03 0.28,-0.11 0.31,-0.28l0.01 -0.22 0.1 -0.39 -0.14 -0.35 0.17 -0.34 -0.06 -0.34c0.31,-0.25 0.41,-0.62 0.33,-1.1 -0.12,-0.44 -0.37,-0.66 -0.75,-0.6z"/>
      <g>
       <path class="fil2 str1" d="M2.92 1.73c0.06,-0.12 0.16,-0.15 0.23,-0.09 0.1,0.07 0.11,0.22 0.06,0.32 -0.12,0.27 -0.41,0.05 -0.29,-0.23zm-0.02 -0.03c-0.06,0.12 -0.05,0.3 0.05,0.39 0.08,0.08 0.21,0.05 0.28,-0.09 0.06,-0.13 0.05,-0.31 -0.05,-0.39 -0.09,-0.08 -0.21,-0.05 -0.28,0.09z"/>
       <path class="fil2" d="M2.49 1.9c-0.07,0.17 0.11,0.33 0.19,0.15 0.02,-0.07 0.02,-0.16 -0.04,-0.2 -0.04,-0.04 -0.11,-0.02 -0.15,0.05z"/>
      </g>
      <path class="fil2" d="M2.46 2.29c-0.01,0.02 -0.01,0.06 -0.01,0.09 0,0.21 0.1,0.45 0.21,0.6 0.04,0.05 0.09,0.1 0.14,0.14 0.08,0.06 0.1,0.04 0.1,0.1 0.01,0.13 0.02,0.22 0.02,0.36l0.02 0.36c0,0.07 0.05,1.04 0.06,1.06 0.04,-0.01 0.07,-0.02 0.1,-0.03 0.12,-0.03 0.25,-0.15 0.29,-0.31 0.02,-0.1 -0.02,-0.2 0.01,-0.3l0.1 -0.31c-0.01,-0.01 0,0 -0.01,-0.02 0,0 0,0 0,-0.01 -0.05,-0.08 -0.1,-0.23 -0.14,-0.33 0.05,-0.09 0.15,-0.23 0.16,-0.33 0,-0.05 -0.01,-0.11 -0.02,-0.16 0,-0.05 0,-0.11 -0.01,-0.15 0.1,-0.1 0.15,-0.14 0.23,-0.32 0.05,-0.11 0.09,-0.26 0.1,-0.38 0.01,-0.12 0.01,-0.23 -0.02,-0.36 -0.03,-0.12 -0.06,-0.23 -0.13,-0.35 -0.07,-0.12 -0.16,-0.21 -0.26,-0.27 -0.1,-0.06 -0.18,-0.07 -0.26,-0.07l-0.13 0.02c-0.12,0.04 -0.23,0.13 -0.32,0.24 -0.01,0.02 -0.05,0.07 -0.05,0.09l0.01 -0.01c0.04,0.04 0.04,0.06 0.08,0.09 0.08,-0.09 0.09,-0.17 0.22,-0.25 0.07,-0.04 0.16,-0.07 0.23,-0.06 0.05,0 0.18,0.02 0.24,0.07 0.16,0.13 0.28,0.34 0.31,0.6 0.01,0.09 0.02,0.23 0.01,0.33 -0.06,0.26 -0.18,0.46 -0.36,0.58 0,0.02 0,0.06 0.01,0.08l0.03 0.26c0,0.03 -0.02,0.05 -0.04,0.09l-0.14 0.29c0.04,0.09 0.08,0.21 0.12,0.3 0.03,0.06 0.02,0.03 -0.01,0.17l-0.06 0.25c-0.01,0.04 -0.01,0.04 -0.01,0.08 0.01,0.01 0.01,0.15 0.01,0.16 -0.04,0.11 -0.16,0.2 -0.22,0.2 0,-0.02 0,-0.03 0,-0.06 0,-0.13 -0.01,-0.26 -0.01,-0.4 0,-0.04 0,-0.07 -0.01,-0.11l-0.02 -0.57c0,-0.04 0,-0.08 0,-0.12 0,-0.04 0,-0.07 0,-0.11l-0.02 -0.23c0,-0.08 0,-0.15 0,-0.23 -0.03,-0.02 -0.07,-0.02 -0.09,-0.02 -0.02,-0.01 -0.08,-0.05 -0.09,-0.06 -0.15,-0.1 -0.23,-0.29 -0.26,-0.5 0,-0.02 0,-0.04 -0.01,-0.06 0,-0.04 0,-0.09 -0.01,-0.13 -0.01,0.01 -0.03,0.01 -0.05,0.01 -0.01,0 -0.03,0.01 -0.04,0z"/>
     </g>
     <g>
      <path class="fil6" d="M2.77 1.39c-0.33,0.35 -0.4,0.64 -0.32,1.1 0.09,0.42 0.29,0.61 0.59,0.67l0.44 1.72c0.15,-0.1 0.25,-0.22 0.24,-0.39l-0.02 -0.21 0.02 -0.42 -0.2 -0.28 0.1 -0.4 -0.12 -0.3c0.24,-0.35 0.28,-0.75 0.11,-1.18 -0.21,-0.38 -0.48,-0.51 -0.84,-0.31z"/>
      <g>
       <path class="fil2 str1" d="M2.77 1.82c0.03,-0.14 0.13,-0.2 0.21,-0.17 0.1,0.03 0.14,0.18 0.11,0.29 -0.06,0.31 -0.39,0.2 -0.32,-0.12zm-0.03 -0.02c-0.03,0.14 0.01,0.3 0.12,0.36 0.1,0.04 0.22,-0.03 0.26,-0.19 0.03,-0.14 -0.01,-0.31 -0.13,-0.36 -0.09,-0.04 -0.21,0.03 -0.25,0.19z"/>
       <path class="fil2" d="M2.39 2.14c-0.04,0.19 0.16,0.28 0.2,0.07 0.02,-0.07 -0.01,-0.16 -0.07,-0.18 -0.05,-0.02 -0.11,0.02 -0.13,0.11z"/>
      </g>
      <path class="fil2" d="M2.43 2.52c0,0.03 0.01,0.07 0.01,0.09 0.04,0.21 0.18,0.4 0.32,0.51 0.05,0.04 0.1,0.07 0.15,0.09 0.1,0.02 0.11,0 0.12,0.06 0.04,0.12 0.06,0.21 0.09,0.34l0.08 0.34c0.02,0.07 0.25,0.98 0.26,1 0.04,-0.03 0.06,-0.04 0.1,-0.07 0.11,-0.07 0.2,-0.23 0.21,-0.4 0.01,-0.1 -0.05,-0.18 -0.05,-0.29l0.04 -0.34c0,0 0,0.01 -0.01,-0.01 0,0 0.01,0 0,-0.01 -0.06,-0.06 -0.14,-0.19 -0.2,-0.27 0.04,-0.1 0.1,-0.27 0.09,-0.38 0,-0.05 -0.02,-0.09 -0.04,-0.14 -0.02,-0.05 -0.03,-0.11 -0.04,-0.14 0.08,-0.13 0.12,-0.19 0.16,-0.39 0.03,-0.13 0.04,-0.29 0.03,-0.4 -0.02,-0.13 -0.04,-0.23 -0.09,-0.34 -0.05,-0.11 -0.11,-0.21 -0.19,-0.3 -0.1,-0.09 -0.2,-0.15 -0.31,-0.17 -0.1,-0.02 -0.18,0 -0.26,0.03l-0.12 0.07c-0.11,0.07 -0.2,0.2 -0.26,0.34 -0.01,0.02 -0.04,0.09 -0.04,0.11l0.01 -0.02c0.04,0.03 0.05,0.05 0.09,0.06 0.06,-0.11 0.07,-0.2 0.17,-0.32 0.06,-0.07 0.14,-0.12 0.21,-0.14 0.05,-0.02 0.18,-0.04 0.25,-0.02 0.17,0.07 0.33,0.23 0.41,0.47 0.03,0.08 0.07,0.22 0.07,0.31 0,0.28 -0.09,0.52 -0.24,0.69 0,0.02 0.02,0.06 0.02,0.08l0.08 0.24c0.01,0.03 0,0.06 -0.02,0.1l-0.08 0.33c0.06,0.07 0.12,0.17 0.18,0.25 0.03,0.04 0.02,0.02 0.02,0.16l-0.02 0.27c0,0.05 0,0.04 0.02,0.07 0,0.02 0.03,0.15 0.03,0.16 -0.01,0.12 -0.12,0.25 -0.17,0.27 -0.01,-0.02 -0.01,-0.03 -0.01,-0.06 -0.03,-0.13 -0.06,-0.24 -0.09,-0.38 -0.01,-0.04 -0.02,-0.07 -0.03,-0.11l-0.13 -0.54c-0.01,-0.03 -0.01,-0.08 -0.02,-0.11 -0.01,-0.04 -0.02,-0.07 -0.02,-0.11l-0.06 -0.22c-0.01,-0.07 -0.03,-0.14 -0.05,-0.22 -0.03,-0.01 -0.06,0.01 -0.09,0.02 -0.01,0 -0.08,-0.02 -0.1,-0.03 -0.16,-0.04 -0.27,-0.2 -0.34,-0.39 -0.01,-0.02 -0.01,-0.04 -0.02,-0.06 -0.01,-0.03 -0.02,-0.08 -0.03,-0.11 -0.02,0.01 -0.03,0.01 -0.05,0.02 -0.01,0.01 -0.02,0.02 -0.04,0.01z"/>
     </g>
     <g>
      <path class="fil7" d="M2.61 1.54c-0.26,0.46 -0.26,0.76 -0.11,1.18 0.17,0.37 0.4,0.48 0.7,0.44l0.75 1.5c0.13,-0.15 0.2,-0.3 0.16,-0.46l-0.06 -0.2 -0.06 -0.41 -0.25 -0.2 0.02 -0.42 -0.17 -0.25c0.17,-0.43 0.13,-0.82 -0.12,-1.17 -0.27,-0.3 -0.56,-0.33 -0.86,-0.01z"/>
      <g>
       <path class="fil2 str1" d="M2.69 1.95c0,-0.14 0.09,-0.23 0.17,-0.23 0.1,-0.01 0.17,0.12 0.16,0.24 0,0.32 -0.34,0.33 -0.33,-0.01zm-0.03 -0.01c-0.01,0.15 0.06,0.3 0.18,0.31 0.1,0.01 0.21,-0.11 0.22,-0.28 0,-0.14 -0.07,-0.29 -0.19,-0.3 -0.1,0 -0.2,0.11 -0.21,0.27z"/>
       <path class="fil2" d="M2.38 2.4c0,0.19 0.21,0.21 0.21,0 0,-0.07 -0.04,-0.15 -0.1,-0.15 -0.05,0 -0.11,0.06 -0.11,0.15z"/>
      </g>
      <path class="fil2" d="M2.49 2.76c0.01,0.02 0.02,0.06 0.03,0.08 0.08,0.19 0.25,0.32 0.4,0.37 0.05,0.02 0.11,0.04 0.17,0.03 0.09,0 0.1,-0.03 0.13,0.02 0.05,0.11 0.09,0.18 0.14,0.3l0.15 0.3c0.03,0.06 0.42,0.86 0.44,0.88 0.02,-0.04 0.05,-0.07 0.08,-0.1 0.09,-0.11 0.15,-0.3 0.13,-0.47 -0.02,-0.1 -0.09,-0.15 -0.1,-0.26l-0.03 -0.34c-0.01,-0.01 0,0 -0.01,-0.01 -0.01,0 0,0 -0.01,-0.01 -0.06,-0.04 -0.17,-0.13 -0.24,-0.19 0.02,-0.11 0.05,-0.3 0.02,-0.4 -0.02,-0.04 -0.04,-0.08 -0.07,-0.12 -0.02,-0.04 -0.05,-0.1 -0.07,-0.12 0.06,-0.16 0.08,-0.22 0.09,-0.44 0,-0.13 -0.02,-0.29 -0.05,-0.39 -0.05,-0.12 -0.09,-0.21 -0.16,-0.3 -0.06,-0.09 -0.13,-0.16 -0.23,-0.22 -0.11,-0.05 -0.22,-0.07 -0.33,-0.05 -0.1,0.01 -0.18,0.06 -0.25,0.12l-0.1 0.11c-0.09,0.1 -0.16,0.26 -0.19,0.42 0,0.02 -0.02,0.1 -0.01,0.11l0 -0.02c0.05,0.02 0.06,0.04 0.1,0.03 0.04,-0.13 0.02,-0.21 0.1,-0.37 0.05,-0.08 0.11,-0.17 0.18,-0.21 0.05,-0.04 0.17,-0.11 0.23,-0.1 0.19,0 0.37,0.09 0.49,0.3 0.05,0.07 0.11,0.19 0.12,0.28 0.06,0.27 0.02,0.53 -0.09,0.75 0,0.02 0.02,0.05 0.03,0.07l0.12 0.2c0.02,0.03 0.01,0.06 0.01,0.11l-0.03 0.34c0.07,0.05 0.16,0.12 0.23,0.18 0.04,0.03 0.02,0.01 0.04,0.15l0.04 0.26c0.01,0.05 0.01,0.04 0.03,0.07 0.01,0.01 0.06,0.12 0.06,0.14 0.01,0.12 -0.07,0.28 -0.11,0.32 -0.02,-0.02 -0.02,-0.03 -0.03,-0.05 -0.05,-0.11 -0.1,-0.21 -0.15,-0.33 -0.02,-0.04 -0.03,-0.07 -0.05,-0.1l-0.23 -0.48c-0.01,-0.03 -0.03,-0.07 -0.04,-0.1 -0.02,-0.03 -0.03,-0.06 -0.04,-0.1l-0.1 -0.19c-0.03,-0.06 -0.05,-0.13 -0.09,-0.19 -0.03,0 -0.06,0.03 -0.08,0.04 -0.01,0.01 -0.08,0.01 -0.1,0.02 -0.16,0.01 -0.3,-0.1 -0.41,-0.26 -0.01,-0.02 -0.02,-0.04 -0.03,-0.05 -0.02,-0.03 -0.03,-0.07 -0.05,-0.1 -0.01,0.01 -0.02,0.02 -0.04,0.04 -0.01,0.01 -0.02,0.03 -0.04,0.03z"/>
     </g>
     <g>
      <path class="fil8" d="M2.53 1.72c-0.16,0.53 -0.11,0.82 0.12,1.17 0.24,0.3 0.48,0.32 0.76,0.18l1 1.18c0.1,-0.19 0.14,-0.36 0.07,-0.5l-0.1 -0.17 -0.13 -0.38 -0.27 -0.1 -0.06 -0.41 -0.22 -0.19c0.09,-0.47 -0.03,-0.83 -0.33,-1.09 -0.32,-0.19 -0.6,-0.11 -0.84,0.31z"/>
      <g>
       <path class="fil2 str1" d="M2.69 2.09c-0.03,-0.14 0.04,-0.26 0.12,-0.29 0.1,-0.04 0.18,0.06 0.2,0.17 0.06,0.31 -0.26,0.44 -0.32,0.12zm-0.03 0c0.02,0.14 0.11,0.26 0.23,0.23 0.1,-0.03 0.18,-0.18 0.16,-0.34 -0.03,-0.15 -0.13,-0.27 -0.24,-0.23 -0.1,0.03 -0.18,0.17 -0.15,0.34z"/>
       <path class="fil2" d="M2.47 2.63c0.04,0.19 0.25,0.12 0.21,-0.08 -0.02,-0.07 -0.07,-0.13 -0.13,-0.11 -0.05,0.02 -0.09,0.1 -0.08,0.19z"/>
      </g>
      <path class="fil2" d="M2.65 2.93c0.01,0.03 0.03,0.05 0.04,0.07 0.11,0.15 0.3,0.22 0.46,0.22 0.05,0 0.11,-0.01 0.17,-0.03 0.09,-0.04 0.09,-0.07 0.12,-0.03 0.08,0.09 0.13,0.14 0.2,0.24l0.2 0.23c0.04,0.05 0.57,0.69 0.59,0.7 0.02,-0.05 0.03,-0.08 0.05,-0.13 0.07,-0.14 0.1,-0.34 0.04,-0.49 -0.03,-0.1 -0.11,-0.12 -0.14,-0.22l-0.09 -0.32c-0.01,-0.01 0,0 -0.01,-0.01 -0.01,0 0,0 -0.01,0 -0.08,-0.02 -0.19,-0.07 -0.27,-0.1 -0.01,-0.12 -0.01,-0.31 -0.06,-0.39 -0.02,-0.04 -0.06,-0.07 -0.09,-0.1 -0.03,-0.03 -0.07,-0.07 -0.09,-0.08 0.03,-0.18 0.04,-0.25 0,-0.46 -0.02,-0.13 -0.07,-0.28 -0.12,-0.36 -0.06,-0.1 -0.12,-0.18 -0.2,-0.24 -0.09,-0.06 -0.17,-0.1 -0.27,-0.12 -0.12,-0.02 -0.23,0 -0.33,0.06 -0.1,0.05 -0.16,0.13 -0.22,0.21l-0.08 0.14c-0.06,0.13 -0.1,0.31 -0.1,0.47 0,0.02 0,0.1 0.01,0.12l0 -0.03c0.05,0 0.06,0.02 0.1,0 0.01,-0.14 -0.02,-0.22 0.03,-0.39 0.03,-0.1 0.08,-0.21 0.13,-0.28 0.04,-0.04 0.14,-0.15 0.21,-0.18 0.18,-0.06 0.37,-0.03 0.53,0.12 0.05,0.06 0.13,0.15 0.17,0.23 0.1,0.24 0.11,0.5 0.04,0.76 0.01,0.02 0.04,0.04 0.05,0.05l0.16 0.16c0.01,0.02 0.01,0.05 0.02,0.1l0.04 0.34c0.08,0.02 0.17,0.06 0.25,0.09 0.04,0.02 0.03,0 0.07,0.13l0.09 0.24c0.02,0.04 0.01,0.04 0.04,0.06 0.01,0.01 0.08,0.09 0.09,0.11 0.03,0.11 -0.02,0.29 -0.05,0.35 -0.02,-0.01 -0.02,-0.02 -0.04,-0.04 -0.07,-0.09 -0.14,-0.17 -0.21,-0.27 -0.02,-0.03 -0.04,-0.05 -0.06,-0.08l-0.31 -0.38c-0.02,-0.02 -0.04,-0.05 -0.06,-0.08 -0.02,-0.02 -0.04,-0.05 -0.06,-0.08l-0.13 -0.15c-0.04,-0.05 -0.08,-0.1 -0.12,-0.15 -0.03,0.01 -0.06,0.05 -0.08,0.07 -0.01,0.01 -0.07,0.04 -0.09,0.05 -0.15,0.07 -0.31,0.01 -0.44,-0.11 -0.01,-0.01 -0.02,-0.02 -0.04,-0.03 -0.02,-0.03 -0.05,-0.06 -0.07,-0.08 -0.01,0.02 -0.02,0.03 -0.03,0.05 -0.01,0.02 -0.01,0.04 -0.03,0.04z"/>
     </g>
    </g>
    <path class="fil9 str2" d="M2.84 2.05c0,0.02 0.04,0.03 0.11,0.04l1.37 0.1c0.12,0.02 0.45,0.07 0.56,-0.15 0.07,-0.22 -0.01,-0.63 -0.11,-0.95 -0.2,-0.29 -0.5,-0.49 -1.22,-0.43 -0.32,0.03 -0.6,0.21 -0.81,0.55 0.06,0.01 0.1,0.05 0.12,0.13 0.16,-0.32 0.41,-0.53 0.73,-0.55 0.42,-0.02 0.88,0.09 1,0.31 0.15,0.27 0.16,0.62 0.13,0.78 0.01,0.08 -0.1,0.18 -0.19,0.18l-1.58 -0.07c-0.05,0 -0.08,0 -0.1,0.02 -0.01,0.01 -0.02,0.02 -0.01,0.04z"/>
   </g>
  </g>
 </g>
</svg>
