<?xml version="1.0" encoding="UTF-8"?>
<!DOCTYPE svg PUBLIC "-//W3C//DTD SVG 1.1//EN" "http://www.w3.org/Graphics/SVG/1.1/DTD/svg11.dtd">
<!-- Creator: CorelDRAW 2021 (64 Bit) -->
<svg xmlns="http://www.w3.org/2000/svg" xml:space="preserve" width="530px" height="530px" version="1.1" style="shape-rendering:geometricPrecision; text-rendering:geometricPrecision; image-rendering:optimizeQuality; fill-rule:evenodd; clip-rule:evenodd"
viewBox="0 0 5.56 5.56"
 xmlns:xlink="http://www.w3.org/1999/xlink"
 xmlns:xodm="http://www.corel.com/coreldraw/odm/2003">
 <defs>
  <style type="text/css">
   <![CDATA[
    .str0 {stroke:#B8B4B6;stroke-width:0.31;stroke-miterlimit:22.9256}
    .str1 {stroke:black;stroke-width:0.08;stroke-miterlimit:22.9256}
    .str2 {stroke:black;stroke-width:0.05;stroke-miterlimit:22.9256}
    .fil2 {fill:none}
    .fil1 {fill:#00FF95}
    .fil0 {fill:white}
    .fil3 {fill:white}
   ]]>
  </style>
 </defs>
 <g id="Camada_x0020_1">
  <metadata id="CorelCorpID_0Corel-Layer"/>
  <g id="_2789544153664">
   <path class="fil0 str0" d="M0.39 0.16l4.78 0c0.13,0 0.23,0.11 0.23,0.26l0 4.72c0,0.14 -0.1,0.26 -0.23,0.26l-4.78 0c-0.12,0 -0.23,-0.12 -0.23,-0.26 0,-0.57 -0.01,-4.57 0,-4.78 0,-0.11 0.14,-0.2 0.23,-0.2z"/>
   <g>
    <path class="fil1" d="M2.53 0.49c-0.59,0.23 -0.77,0.53 -0.83,1.09 -0.02,0.54 0.21,0.85 0.6,1.08l0.03 2.18c0.24,-0.03 0.42,-0.11 0.47,-0.31l0.04 -0.26 0.17 -0.46 -0.18 -0.43 0.27 -0.4 -0.06 -0.42c0.47,-0.27 0.65,-0.7 0.56,-1.28 -0.15,-0.55 -0.5,-0.84 -1.07,-0.79z"/>
    <line class="fil2 str1" x1="2.52" y1="2.56" x2="2.48" y2= "4.71" />
    <line class="fil2 str1" x1="2.78" y1="2.55" x2="2.77" y2= "3.28" />
    <path class="fil1 str2" d="M1.65 1.57c0,0.04 0,0.08 -0.01,0.11 -0.01,0.26 0.12,0.55 0.27,0.74 0.06,0.07 0.12,0.14 0.19,0.18 0.12,0.08 0.15,0.06 0.15,0.13 0,0.16 0.01,0.27 0,0.43l0.01 0.44c0,0.09 0,1.25 0.01,1.28 0.06,-0.01 0.1,-0.02 0.16,-0.03 0.18,-0.03 0.37,-0.16 0.44,-0.35 0.04,-0.11 -0.02,-0.23 0.03,-0.36l0.17 -0.36c0,-0.01 0.01,0 0,-0.02 -0.01,-0.01 0,0 -0.01,-0.01 -0.06,-0.11 -0.13,-0.3 -0.18,-0.41 0.08,-0.11 0.23,-0.27 0.26,-0.39 0.01,-0.06 -0.01,-0.13 -0.01,-0.19 -0.01,-0.06 -0.01,-0.14 -0.02,-0.18 0.17,-0.11 0.24,-0.15 0.37,-0.36 0.09,-0.14 0.16,-0.32 0.17,-0.45 0.02,-0.15 0.03,-0.29 0,-0.44 -0.04,-0.15 -0.08,-0.28 -0.17,-0.43 -0.1,-0.16 -0.22,-0.27 -0.37,-0.35 -0.14,-0.08 -0.26,-0.1 -0.38,-0.1l-0.2 0.01c-0.16,0.03 -0.34,0.13 -0.48,0.26 -0.01,0.02 -0.05,0.06 -0.07,0.08l0.01 0.01c0.04,0.05 0.06,0.07 0.1,0.12 0.13,-0.1 0.16,-0.2 0.35,-0.28 0.11,-0.05 0.24,-0.07 0.35,-0.06 0.07,0.01 0.26,0.04 0.35,0.11 0.22,0.17 0.39,0.43 0.42,0.74 0.01,0.11 0.01,0.29 -0.02,0.4 -0.1,0.31 -0.29,0.54 -0.57,0.66 0,0.03 0,0.08 0.01,0.11l0.02 0.31c0,0.04 -0.02,0.06 -0.06,0.11l-0.23 0.33c0.06,0.11 0.11,0.26 0.17,0.38 0.03,0.06 0.03,0.03 -0.03,0.19l-0.11 0.3c-0.02,0.05 -0.02,0.04 -0.01,0.09 0,0.02 0,0.19 -0.01,0.2 -0.06,0.14 -0.25,0.22 -0.33,0.22 -0.01,-0.02 0,-0.04 0,-0.07 0,-0.16 0,-0.31 0.01,-0.48 0,-0.05 0,-0.09 0,-0.14l0 -0.69c0,-0.04 0.01,-0.09 0.01,-0.13 0,-0.05 0,-0.09 0,-0.14l0 -0.28c0.01,-0.09 0.01,-0.18 0.01,-0.27 -0.04,-0.03 -0.1,-0.03 -0.13,-0.04 -0.02,0 -0.11,-0.06 -0.13,-0.07 -0.21,-0.13 -0.32,-0.37 -0.35,-0.63 0,-0.03 -0.01,-0.08 -0.01,-0.11 0,-0.03 0,-0.07 -0.01,-0.11 -0.02,0 -0.04,0 -0.07,0 -0.02,0 -0.03,0 -0.07,-0.01z"/>
    <path class="fil1 str2" d="M1.74 1.12c-0.13,0.19 0.13,0.4 0.26,0.19 0.04,-0.08 0.04,-0.19 -0.04,-0.25 -0.07,-0.04 -0.17,-0.03 -0.22,0.06z"/>
    <ellipse class="fil3 str2" transform="matrix(0.623999 0.0358233 -0.0429259 0.749304 2.45094 1.07308)" rx="0.34" ry="0.32"/>
   </g>
  </g>
 </g>
</svg>
