<?xml version="1.0" encoding="UTF-8"?>
<!DOCTYPE svg PUBLIC "-//W3C//DTD SVG 1.1//EN" "http://www.w3.org/Graphics/SVG/1.1/DTD/svg11.dtd">
<!-- Creator: CorelDRAW 2021 (64 Bit) -->
<svg xmlns="http://www.w3.org/2000/svg" xml:space="preserve" width="530px" height="530px" version="1.1" style="shape-rendering:geometricPrecision; text-rendering:geometricPrecision; image-rendering:optimizeQuality; fill-rule:evenodd; clip-rule:evenodd"
viewBox="0 0 4.99 4.99"
 xmlns:xlink="http://www.w3.org/1999/xlink"
 xmlns:xodm="http://www.corel.com/coreldraw/odm/2003">
 <defs>
  <style type="text/css">
   <![CDATA[
    .str0 {stroke:#B8B4B6;stroke-width:0.28;stroke-miterlimit:22.9256}
    .str7 {stroke:#F5A980;stroke-width:0.04;stroke-miterlimit:22.9256}
    .str6 {stroke:black;stroke-width:0.01;stroke-miterlimit:22.9256}
    .str12 {stroke:#DBDBDB;stroke-width:0.01;stroke-miterlimit:22.9256}
    .str4 {stroke:#F5A980;stroke-width:0.01;stroke-miterlimit:22.9256}
    .str1 {stroke:#FA0505;stroke-width:0.01;stroke-miterlimit:22.9256}
    .str2 {stroke:#030303;stroke-width:0.08;stroke-miterlimit:22.9256}
    .str3 {stroke:#030303;stroke-width:0.02;stroke-miterlimit:22.9256}
    .str10 {stroke:#F5A980;stroke-width:0.02;stroke-miterlimit:22.9256}
    .str11 {stroke:#F5A980;stroke-width:0.03;stroke-miterlimit:22.9256}
    .str8 {stroke:#DBDBDB;stroke-width:0.01;stroke-miterlimit:22.9256}
    .str13 {stroke:#F5A980;stroke-width:0.01;stroke-miterlimit:22.9256}
    .str9 {stroke:#E1E1E1;stroke-width:0.01;stroke-miterlimit:22.9256}
    .str5 {stroke:#454545;stroke-width:0.14;stroke-linecap:round;stroke-miterlimit:22.9256}
    .fil2 {fill:none}
    .fil5 {fill:black}
    .fil3 {fill:black}
    .fil7 {fill:#666666}
    .fil6 {fill:#999999}
    .fil9 {fill:#CCCCCC}
    .fil8 {fill:#F5A980}
    .fil4 {fill:#F5B796}
    .fil0 {fill:white}
    .fil1 {fill:white}
   ]]>
  </style>
 </defs>
 <g id="Camada_x0020_1">
  <metadata id="CorelCorpID_0Corel-Layer"/>
  <path class="fil0 str0" d="M0.35 0.14l4.29 0c0.11,0 0.21,0.11 0.21,0.24l0 4.23c0,0.13 -0.1,0.24 -0.21,0.24l-4.29 0c-0.11,0 -0.2,-0.11 -0.2,-0.24 0,-0.51 -0.01,-4.1 -0.01,-4.28 0,-0.11 0.13,-0.19 0.21,-0.19z"/>
  <g id="_2069736523344">
   <g>
    <g>
     <polygon class="fil1 str1" points="1.84,2.53 1.63,2.91 1.49,2.68 1.78,2.38 "/>
     <polygon class="fil1 str1" points="1.11,2.55 1.35,2.91 1.47,2.69 1.16,2.37 "/>
     <path class="fil1 str1" d="M1.11 2.54l0.24 0.39 0.04 -0.07 0.04 0.04 -0.01 0.6c-0.3,0 -0.6,0 -0.9,0 -0.05,0.01 -0.07,-0.04 -0.07,-0.08 0,-0.08 0.02,-0.32 0.04,-0.55 0.01,-0.09 0.03,-0.1 0.09,-0.12 0.11,-0.03 0.5,-0.2 0.53,-0.21z"/>
     <path class="fil1 str1" d="M1.85 2.54l-0.22 0.39 -0.04 -0.07 -0.04 0.04 0.01 0.6c0.3,0 0.48,0.01 0.78,0.01 0.08,0 0.1,-0.02 0.1,-0.09 0,-0.08 -0.02,-0.33 -0.04,-0.55 -0.01,-0.07 -0.01,-0.1 -0.07,-0.12 -0.1,-0.04 -0.46,-0.2 -0.48,-0.21z"/>
     <path class="fil2 str2" d="M2.37 3.51l-1.86 0c-0.04,0 -0.08,-0.03 -0.07,-0.09 0.01,-0.19 0.03,-0.38 0.04,-0.57 0.01,-0.05 0.03,-0.08 0.07,-0.09l0.57 -0.22 0.04 -0.17 0.32 0.31 0.29 -0.31 0.07 0.16 0.51 0.23c0.03,0.02 0.05,0.05 0.05,0.09 0.02,0.19 0.04,0.38 0.06,0.57 0,0.05 -0.04,0.09 -0.09,0.09z"/>
     <polyline class="fil2 str2" points="1.11,2.55 1.35,2.91 1.48,2.69 1.63,2.91 1.84,2.54 "/>
     <polygon class="fil3 str3" points="1.58,2.86 1.48,2.7 1.39,2.86 1.43,2.9 1.42,3.51 1.59,3.51 1.55,2.9 "/>
    </g>
    <path class="fil4 str4" d="M1.23 2.41l0.25 0.25 0.23 -0.25 -0.01 -0.1c-0.05,0.05 -0.09,0.1 -0.14,0.15 -0.03,0.03 -0.12,0.04 -0.16,0l-0.17 -0.16 0 0.11z"/>
    <path class="fil4 str4" d="M1.93 1.69c-0.01,0.01 -0.02,0.03 -0.03,0.04l0.01 -0.04 -0.12 -0.1 0 -0.2 -0.17 0 -0.14 0.05 -0.15 -0.05 -0.18 0 -0.01 0.17 -0.08 0.12c-0.01,-0.02 -0.02,-0.04 -0.03,-0.05 -0.01,-0.02 -0.02,-0.01 -0.03,-0.01 -0.02,0.01 -0.02,0.02 -0.03,0.04 0,0.03 0,0.06 0,0.08l0.02 0.11c0.01,0.01 0.02,0.02 0.03,0.02 0.01,0 0.02,-0.01 0.03,-0.02 0.01,0.07 0.02,0.14 0.05,0.21 0.03,0.08 0.07,0.17 0.12,0.24 0.06,0.05 0.12,0.11 0.18,0.16 0.05,0.04 0.1,0.05 0.15,0 0.08,-0.07 0.16,-0.15 0.23,-0.23 0.04,-0.05 0.06,-0.1 0.08,-0.15 0.01,-0.06 0.02,-0.12 0.03,-0.18 0.01,0.01 0.01,0.02 0.02,0.01 0.01,0 0.03,0 0.04,-0.01 0.02,-0.05 0.04,-0.1 0.05,-0.16 0,-0.01 -0.01,-0.03 -0.03,-0.04 -0.01,-0.01 -0.03,-0.01 -0.04,-0.01z"/>
    <g>
     <path class="fil5" d="M1.67 1.76c-0.03,0.01 -0.04,0.02 -0.03,0.06 0,0.02 0.02,0.04 0.05,0.03 0.05,-0.01 0.04,-0.1 -0.02,-0.09z"/>
     <path class="fil5" d="M1.28 1.76c-0.06,0.01 -0.04,0.1 0.02,0.09 0.02,0 0.04,-0.03 0.03,-0.05 0,-0.03 -0.02,-0.04 -0.05,-0.04z"/>
     <line class="fil2 str5" x1="1.18" y1="1.64" x2="1.41" y2= "1.66" />
     <path class="fil3 str6" d="M1.15 1.56l-0.09 0.13c-0.04,-0.11 -0.06,-0.24 -0.03,-0.41 0.03,-0.16 0.11,-0.22 0.21,-0.24 0.17,-0.03 0.33,-0.02 0.47,0.01 0.11,0.04 0.19,0.14 0.2,0.23 0.04,0.15 0.02,0.25 0,0.41 -0.04,-0.04 -0.08,-0.07 -0.13,-0.1 -0.01,-0.06 -0.01,-0.13 0,-0.2 -0.06,0.02 -0.1,0.02 -0.16,0 -0.07,0.07 -0.2,0.06 -0.29,0 -0.05,0.02 -0.11,0.02 -0.17,0 0,0.06 0,0.12 -0.01,0.17z"/>
     <line class="fil2 str5" x1="1.76" y1="1.64" x2="1.53" y2= "1.66" />
     <path class="fil6" d="M1.66 1.76c-0.01,-0.02 0.03,-0.04 0.08,-0.04 0.03,0.01 0.05,0.02 0.06,0.04 0,0.01 0.01,0.01 0,0.02l-0.02 0.01c-0.03,-0.02 -0.07,-0.03 -0.12,-0.03z"/>
     <path class="fil6" d="M1.32 1.76c0.01,-0.02 -0.03,-0.04 -0.07,-0.04 -0.03,0.01 -0.06,0.02 -0.07,0.04 0,0.01 0,0.01 0,0.02l0.02 0.01c0.03,-0.02 0.07,-0.03 0.12,-0.03z"/>
    </g>
    <path class="fil2 str7" d="M1.57 1.71l-0.03 0.03 -0.01 0.07 -0.01 0.1 0.01 0.06 0.04 0.06c0,0.01 0,0.01 0,0.02l-0.07 0.05c-0.01,0.01 -0.03,0.01 -0.04,0l-0.08 -0.05 0 -0.02 0.03 -0.07 0.01 -0.05 -0.02 -0.1 -0.01 -0.07 -0.05 -0.03"/>
    <g>
     <path class="fil7" d="M1.61 2.18l-0.26 -0.01c-0.01,0.01 -0.01,0.01 -0.01,0.01l0.06 0.06c0.02,0.01 0.05,0.02 0.08,0.02 0.02,0 0.05,-0.01 0.07,-0.02l0.07 -0.05c0,-0.01 -0.01,-0.01 -0.01,-0.01z"/>
     <g>
      <path class="fil1 str8" d="M1.39 2.16l0 0.03c0,0 0,0.01 0.01,0.01 0.01,0 0.02,0 0.03,0 0,0 0.01,0 0.01,0 0.02,0 0.03,0 0.04,0 0.01,0 0.02,0 0.03,0 0.01,0 0.02,0 0.03,0 0.01,0 0.01,0 0.02,0l0.01 0c0,0 0.01,-0.01 0.01,-0.01l0 -0.03c-0.06,0.01 -0.13,0.01 -0.19,0z"/>
      <line class="fil2 str9" x1="1.51" y1="2.17" x2="1.51" y2= "2.2" />
      <line class="fil2 str9" x1="1.54" y1="2.17" x2="1.54" y2= "2.2" />
      <line class="fil2 str9" x1="1.56" y1="2.17" x2="1.56" y2= "2.2" />
      <line class="fil2 str9" x1="1.4" y1="2.17" x2="1.4" y2= "2.2" />
      <line class="fil2 str9" x1="1.43" y1="2.18" x2="1.43" y2= "2.2" />
      <line class="fil2 str9" x1="1.44" y1="2.18" x2="1.44" y2= "2.2" />
      <line class="fil2 str9" x1="1.48" y1="2.18" x2="1.48" y2= "2.2" />
      <path class="fil2 str10" d="M1.4 2.26l-0.07 -0.08c-0.01,-0.02 0.01,-0.03 0.02,-0.02 0.1,0.01 0.16,0.01 0.26,0 0.03,0 0.03,0.01 0.02,0.03l-0.07 0.07c-0.05,0.04 -0.1,0.04 -0.16,0z"/>
     </g>
    </g>
    <polyline class="fil2 str4" points="1.36,2.37 1.42,2.35 1.47,2.33 1.54,2.34 1.61,2.37 "/>
    <path class="fil2 str11" d="M1.02 1.81c-0.02,-0.03 -0.02,-0.08 -0.02,-0.13 0.01,-0.05 0.02,-0.03 0.03,-0.01 0.01,0.04 0.01,0.06 0,0.08"/>
    <path class="fil2 str11" d="M1.92 1.75c0,-0.03 0.01,-0.05 0.03,-0.04 0.02,-0.01 0.04,0.01 0.03,0.04 -0.01,0.06 -0.03,0.09 -0.05,0.1"/>
    <path class="fil2 str10" d="M1.58 1.81c0.01,0.02 0.03,0.02 0.04,0.03 0.03,0.02 0.06,0.04 0.13,-0.01 0.03,-0.03 0.04,-0.01 0.06,-0.02"/>
    <path class="fil2 str10" d="M1.38 1.81c-0.01,0.02 -0.02,0.02 -0.04,0.03 -0.03,0.02 -0.05,0.04 -0.12,-0.01 -0.03,-0.03 -0.03,-0.01 -0.05,-0.02"/>
    <path class="fil2 str10" d="M1.17 1.81c0.01,0 0.03,0 0.03,0 0.07,-0.07 0.11,-0.06 0.15,-0.03 0,0.01 0.02,0.02 0.03,0.02"/>
    <path class="fil2 str10" d="M1.82 1.81c-0.02,0 -0.03,0 -0.04,0 -0.07,-0.07 -0.12,-0.06 -0.16,-0.03 -0.01,0.01 -0.02,0.02 -0.04,0.02"/>
    <path class="fil8 str4" d="M1.62 2.19c-0.12,0.09 -0.21,0.07 -0.29,-0.02 0.07,0.14 0.2,0.16 0.29,0.02z"/>
    <path class="fil9 str4" d="M1.38 2.17c0.01,-0.01 -0.04,-0.01 -0.05,0 0,0 0,0 0.01,0 0.01,0.03 0.04,0.04 0.05,0.05l-0.01 -0.05z"/>
    <path class="fil9 str4" d="M1.59 2.17c0,-0.01 0.04,-0.01 0.04,0 0.01,0.01 -0.02,0.03 -0.05,0.05l0.01 -0.05z"/>
    <path class="fil1" d="M1.45 2.25c-0.02,-0.01 -0.04,-0.01 -0.05,-0.02 0.02,-0.01 0.01,0 0.02,0 0.03,-0.01 0.02,0 0.02,0 0.02,-0.01 0.04,0 0.04,0 0.01,0.01 -0.01,-0.01 0.03,0 0.01,0 0,-0.01 0.03,0 0.01,0 -0.01,0 0.02,0 -0.01,0.01 -0.03,0.01 -0.05,0.02 -0.02,0 -0.04,0 -0.06,0z"/>
    <path class="fil2 str12" d="M1.4 2.23c0.01,-0.01 0.02,-0.01 0.02,0 0.01,-0.01 0.02,-0.01 0.02,0 0.02,-0.01 0.03,0 0.04,0 0.01,0 0.02,-0.01 0.03,0 0.01,0 0.02,0 0.03,0 0.01,-0.01 0.02,-0.01 0.02,0"/>
    <line class="fil2 str8" x1="1.42" y1="2.23" x2="1.42" y2= "2.24" />
    <line class="fil2 str8" x1="1.44" y1="2.23" x2="1.44" y2= "2.25" />
    <line class="fil2 str8" x1="1.48" y1="2.23" x2="1.48" y2= "2.25" />
    <line class="fil2 str8" x1="1.51" y1="2.23" x2="1.51" y2= "2.25" />
    <line class="fil2 str8" x1="1.54" y1="2.23" x2="1.54" y2= "2.24" />
    <path class="fil8 str13" d="M1.46 2.13c0,0 -0.01,0 -0.02,0 -0.03,0.01 -0.06,0.02 -0.09,0.03 -0.02,0 -0.03,0.01 -0.01,0.01 0.01,0 0.03,-0.01 0.05,0 0.06,0.02 0.13,0.02 0.19,0 0.02,-0.01 0.04,0 0.05,0 0.01,0 0,-0.01 -0.01,-0.01 -0.04,-0.01 -0.08,-0.01 -0.1,-0.02 -0.01,0 -0.01,-0.01 -0.02,-0.01 -0.01,0.01 -0.03,0.01 -0.04,0z"/>
   </g>
   <g>
    <g>
     <polygon class="fil1 str1" points="3.86,2.52 3.65,2.89 3.51,2.66 3.79,2.36 "/>
     <polygon class="fil1 str1" points="3.13,2.53 3.37,2.89 3.49,2.67 3.18,2.36 "/>
     <path class="fil1 str1" d="M3.13 2.53l0.23 0.38 0.04 -0.07 0.05 0.04 -0.01 0.6c-0.3,0 -0.6,0 -0.9,0 -0.05,0.01 -0.08,-0.04 -0.08,-0.08 0.01,-0.08 0.03,-0.32 0.05,-0.55 0,-0.09 0.02,-0.1 0.09,-0.12 0.11,-0.03 0.5,-0.19 0.53,-0.2z"/>
     <path class="fil1 str1" d="M3.86 2.52l-0.21 0.39 -0.04 -0.07 -0.05 0.04 0.02 0.61c0.3,0 0.47,0 0.78,0 0.08,0 0.1,-0.02 0.1,-0.09 0,-0.08 -0.02,-0.33 -0.04,-0.55 -0.01,-0.06 -0.01,-0.1 -0.07,-0.12 -0.1,-0.04 -0.46,-0.2 -0.49,-0.21z"/>
     <path class="fil2 str2" d="M4.39 3.49l-1.86 0c-0.04,0 -0.08,-0.03 -0.07,-0.09 0.01,-0.19 0.03,-0.38 0.04,-0.57 0.01,-0.05 0.03,-0.08 0.07,-0.09l0.57 -0.22 0.04 -0.17 0.32 0.31 0.29 -0.31 0.07 0.17 0.51 0.22c0.03,0.02 0.05,0.05 0.05,0.1 0.02,0.18 0.04,0.37 0.05,0.56 0.01,0.05 -0.03,0.09 -0.08,0.09z"/>
     <polyline class="fil2 str2" points="3.13,2.53 3.37,2.89 3.49,2.67 3.65,2.89 3.86,2.52 "/>
     <polygon class="fil3 str3" points="3.6,2.85 3.49,2.69 3.41,2.85 3.45,2.89 3.44,3.49 3.6,3.49 3.57,2.89 "/>
    </g>
    <path class="fil4 str4" d="M3.25 2.4l0.25 0.24 0.23 -0.25 -0.01 -0.1c-0.05,0.05 -0.1,0.1 -0.14,0.15 -0.03,0.04 -0.12,0.04 -0.16,0l-0.17 -0.15 0 0.11z"/>
    <path class="fil4 str4" d="M3.95 1.68c-0.02,0 -0.02,0.02 -0.03,0.04l0.01 -0.05 -0.13 -0.09 0.01 -0.21 -0.17 0 -0.14 0.05 -0.15 -0.05 -0.18 0 -0.01 0.17 -0.08 0.12c-0.01,-0.02 -0.02,-0.03 -0.03,-0.05 -0.01,-0.01 -0.03,-0.01 -0.04,-0.01 -0.01,0.01 -0.01,0.02 -0.02,0.05 -0.01,0.02 0,0.05 0,0.08l0.02 0.1c0,0.02 0.01,0.02 0.03,0.02 0.01,0 0.02,0 0.03,-0.02 0.01,0.08 0.02,0.15 0.04,0.21 0.03,0.09 0.08,0.17 0.13,0.25 0.06,0.05 0.12,0.1 0.18,0.15 0.05,0.05 0.1,0.05 0.15,0 0.08,-0.07 0.16,-0.15 0.23,-0.23 0.03,-0.05 0.06,-0.09 0.08,-0.14 0.01,-0.06 0.02,-0.12 0.03,-0.19 0,0.01 0.01,0.02 0.02,0.02 0.01,0 0.03,-0.01 0.04,-0.02 0.02,-0.05 0.04,-0.1 0.04,-0.15 0.01,-0.02 0,-0.03 -0.02,-0.04 -0.01,-0.01 -0.03,-0.02 -0.04,-0.01z"/>
    <g>
     <path class="fil5" d="M3.69 1.74c-0.03,0.01 -0.04,0.03 -0.04,0.06 0.01,0.02 0.03,0.04 0.06,0.03 0.05,-0.01 0.04,-0.1 -0.02,-0.09z"/>
     <path class="fil5" d="M3.3 1.74c-0.06,0.02 -0.04,0.11 0.02,0.09 0.02,0 0.03,-0.02 0.03,-0.05 0,-0.03 -0.03,-0.04 -0.05,-0.04z"/>
     <line class="fil2 str5" x1="3.2" y1="1.63" x2="3.42" y2= "1.65" />
     <path class="fil3 str6" d="M3.17 1.54l-0.1 0.13c-0.03,-0.11 -0.05,-0.24 -0.02,-0.4 0.02,-0.16 0.11,-0.23 0.21,-0.24 0.17,-0.03 0.33,-0.03 0.47,0 0.11,0.04 0.19,0.14 0.2,0.23 0.04,0.15 0.02,0.25 0,0.41 -0.04,-0.03 -0.09,-0.07 -0.13,-0.1 -0.01,-0.06 -0.01,-0.13 0,-0.2 -0.06,0.02 -0.1,0.02 -0.16,0 -0.07,0.07 -0.2,0.07 -0.29,0 -0.05,0.02 -0.11,0.02 -0.18,0 0.01,0.06 0.01,0.12 0,0.17z"/>
     <line class="fil2 str5" x1="3.78" y1="1.63" x2="3.55" y2= "1.65" />
     <path class="fil6" d="M3.68 1.74c-0.01,-0.02 0.03,-0.04 0.07,-0.04 0.04,0.01 0.06,0.02 0.07,0.05 0,0 0.01,0.01 0,0.01l-0.02 0.02c-0.03,-0.03 -0.07,-0.04 -0.12,-0.04z"/>
     <path class="fil6" d="M3.34 1.74c0.01,-0.02 -0.03,-0.04 -0.07,-0.04 -0.04,0.01 -0.06,0.02 -0.07,0.05 0,0 -0.01,0.01 0,0.01l0.02 0.02c0.03,-0.03 0.07,-0.04 0.12,-0.04z"/>
    </g>
    <path class="fil2 str7" d="M3.59 1.69l-0.03 0.03 -0.02 0.07 -0.01 0.1 0.02 0.06 0.04 0.06c0,0.01 0,0.02 -0.01,0.02l-0.06 0.05c-0.02,0.01 -0.03,0.01 -0.04,0l-0.08 -0.05 0 -0.02 0.03 -0.07 0.01 -0.05 -0.02 -0.1 -0.02 -0.07 -0.04 -0.03"/>
    <g>
     <path class="fil7" d="M3.63 2.16l-0.26 0c-0.01,0 -0.01,0 -0.01,0.01l0.06 0.05c0.02,0.01 0.05,0.02 0.07,0.02 0.03,0 0.06,0 0.08,-0.02l0.06 -0.05c0.01,-0.01 0,-0.01 0,-0.01z"/>
     <g>
      <path class="fil1 str8" d="M3.4 2.14l0.01 0.03c0,0.01 0,0.01 0.01,0.01 0.01,0 0.02,0 0.02,0 0.01,0.01 0.02,0.01 0.02,0 0.01,0.01 0.03,0.01 0.04,0 0.01,0.01 0.02,0.01 0.03,0 0.01,0.01 0.02,0 0.03,0 0,0 0.01,0 0.02,0l0.01 0c0,0 0.01,0 0.01,-0.01l0 -0.03c-0.06,0.01 -0.13,0.01 -0.2,0z"/>
      <line class="fil2 str9" x1="3.53" y1="2.16" x2="3.53" y2= "2.18" />
      <line class="fil2 str9" x1="3.56" y1="2.16" x2="3.56" y2= "2.18" />
      <line class="fil2 str9" x1="3.58" y1="2.16" x2="3.58" y2= "2.18" />
      <line class="fil2 str9" x1="3.42" y1="2.16" x2="3.42" y2= "2.18" />
      <line class="fil2 str9" x1="3.44" y1="2.16" x2="3.44" y2= "2.18" />
      <line class="fil2 str9" x1="3.46" y1="2.16" x2="3.46" y2= "2.18" />
      <line class="fil2 str9" x1="3.5" y1="2.16" x2="3.5" y2= "2.18" />
      <path class="fil2 str10" d="M3.42 2.25l-0.08 -0.09c-0.01,-0.02 0.02,-0.02 0.03,-0.02 0.1,0.01 0.16,0.01 0.26,0 0.03,0 0.03,0.01 0.01,0.03l-0.06 0.07c-0.05,0.04 -0.11,0.04 -0.16,0.01z"/>
     </g>
    </g>
    <polyline class="fil2 str4" points="3.38,2.35 3.44,2.33 3.49,2.31 3.56,2.32 3.63,2.36 "/>
    <path class="fil2 str11" d="M3.04 1.79c-0.02,-0.03 -0.03,-0.07 -0.03,-0.13 0.02,-0.05 0.03,-0.02 0.03,-0.01 0.02,0.04 0.02,0.06 0.01,0.09"/>
    <path class="fil2 str11" d="M3.93 1.73c0.01,-0.02 0.02,-0.04 0.03,-0.04 0.03,0 0.04,0.02 0.04,0.04 -0.01,0.06 -0.03,0.09 -0.05,0.1"/>
    <path class="fil2 str10" d="M3.6 1.8c0.01,0.01 0.03,0.01 0.04,0.02 0.03,0.02 0.05,0.05 0.13,-0.01 0.03,-0.02 0.03,-0.01 0.06,-0.02"/>
    <path class="fil2 str10" d="M3.39 1.8c0,0.01 -0.02,0.01 -0.03,0.02 -0.03,0.02 -0.05,0.05 -0.12,-0.01 -0.03,-0.02 -0.03,-0.01 -0.06,-0.02"/>
    <path class="fil2 str10" d="M3.19 1.79c0.01,0 0.02,0.01 0.03,0 0.07,-0.06 0.11,-0.06 0.14,-0.03 0.01,0.01 0.02,0.03 0.04,0.03"/>
    <path class="fil2 str10" d="M3.83 1.79c-0.01,0 -0.02,0.01 -0.03,0 -0.07,-0.06 -0.12,-0.06 -0.16,-0.03 -0.01,0.01 -0.03,0.03 -0.04,0.03"/>
    <path class="fil8 str4" d="M3.63 2.18c-0.11,0.09 -0.2,0.06 -0.28,-0.03 0.07,0.14 0.19,0.16 0.28,0.03z"/>
    <path class="fil9 str4" d="M3.4 2.15c0,0 -0.04,-0.01 -0.05,0 -0.01,0 0,0 0,0.01 0.02,0.02 0.04,0.04 0.06,0.05l-0.01 -0.06z"/>
    <path class="fil9 str4" d="M3.61 2.15c0,-0.01 0.04,-0.01 0.04,0 0,0.01 -0.03,0.04 -0.05,0.05l0.01 -0.05z"/>
    <path class="fil1" d="M3.47 2.23c-0.02,0 -0.04,-0.01 -0.05,-0.02 0.02,-0.01 0.01,0 0.02,0 0.02,-0.01 0.02,0 0.02,0 0.02,-0.01 0.03,0 0.04,0 0,0.01 -0.01,-0.01 0.03,0 0.01,0.01 -0.01,0 0.03,0 0.01,0.01 -0.01,0 0.02,0 -0.02,0.01 -0.03,0.02 -0.05,0.02 -0.02,0.01 -0.04,0.01 -0.06,0z"/>
    <path class="fil2 str12" d="M3.42 2.21c0.01,0 0.01,0 0.02,0 0.01,0 0.01,0 0.02,0 0.01,0 0.03,0 0.04,0 0.01,0 0.02,0 0.03,0 0.01,0 0.01,0 0.03,0 0.01,0 0.01,0 0.02,0"/>
    <line class="fil2 str8" x1="3.44" y1="2.21" x2="3.44" y2= "2.22" />
    <line class="fil2 str8" x1="3.46" y1="2.21" x2="3.46" y2= "2.23" />
    <line class="fil2 str8" x1="3.5" y1="2.21" x2="3.5" y2= "2.24" />
    <line class="fil2 str8" x1="3.53" y1="2.21" x2="3.53" y2= "2.23" />
    <line class="fil2 str8" x1="3.56" y1="2.21" x2="3.56" y2= "2.22" />
    <path class="fil8 str13" d="M3.48 2.11c0,0 -0.01,0 -0.03,0 -0.02,0.02 -0.06,0.03 -0.09,0.03 -0.01,0 -0.02,0.01 0,0.01 0,0 0.03,0 0.05,0 0.06,0.02 0.12,0.02 0.19,0 0.02,0 0.03,0 0.04,0 0.02,0 0.01,0 0,-0.01 -0.04,-0.01 -0.08,-0.01 -0.1,-0.02 -0.01,0 -0.02,-0.01 -0.02,-0.01 -0.02,0.01 -0.03,0.01 -0.04,0z"/>
   </g>
   <g>
    <g>
     <polygon class="fil1 str1" points="2.88,3.23 2.67,3.61 2.53,3.38 2.82,3.08 "/>
     <polygon class="fil1 str1" points="2.15,3.25 2.39,3.6 2.51,3.39 2.2,3.07 "/>
     <path class="fil1 str1" d="M2.15 3.24l0.24 0.39 0.04 -0.07 0.04 0.04 -0.01 0.6c-0.3,0 -0.6,0 -0.9,0 -0.05,0.01 -0.07,-0.04 -0.07,-0.08 0,-0.08 0.02,-0.33 0.04,-0.55 0.01,-0.09 0.03,-0.1 0.09,-0.12 0.11,-0.04 0.5,-0.2 0.53,-0.21z"/>
     <path class="fil1 str1" d="M2.89 3.24l-0.22 0.38 -0.04 -0.06 -0.04 0.04 0.01 0.6c0.3,0 0.48,0.01 0.78,0.01 0.08,0 0.1,-0.02 0.1,-0.09 0,-0.08 -0.02,-0.33 -0.04,-0.56 -0.01,-0.06 -0.01,-0.09 -0.07,-0.11 -0.1,-0.04 -0.46,-0.2 -0.48,-0.21z"/>
     <path class="fil2 str2" d="M3.41 4.21l-1.86 0c-0.04,0 -0.08,-0.03 -0.07,-0.09 0.01,-0.19 0.03,-0.38 0.04,-0.57 0.01,-0.05 0.03,-0.08 0.07,-0.09l0.57 -0.22 0.04 -0.17 0.32 0.31 0.29 -0.31 0.07 0.16 0.51 0.23c0.03,0.02 0.05,0.05 0.05,0.09 0.02,0.19 0.04,0.38 0.06,0.57 0,0.05 -0.04,0.09 -0.09,0.09z"/>
     <polyline class="fil2 str2" points="2.15,3.25 2.39,3.61 2.52,3.39 2.67,3.61 2.88,3.24 "/>
     <polygon class="fil3 str3" points="2.62,3.56 2.52,3.4 2.43,3.56 2.47,3.6 2.46,4.21 2.63,4.21 2.59,3.6 "/>
    </g>
    <path class="fil4 str4" d="M2.27 3.11l0.25 0.25 0.23 -0.25 -0.01 -0.11c-0.05,0.06 -0.09,0.11 -0.14,0.16 -0.03,0.03 -0.12,0.03 -0.16,0l-0.17 -0.16 0 0.11z"/>
    <path class="fil4 str4" d="M2.97 2.39c-0.01,0.01 -0.02,0.03 -0.03,0.04l0.01 -0.04 -0.12 -0.1 0 -0.2 -0.17 0 -0.14 0.05 -0.15 -0.05 -0.18 0 -0.01 0.17 -0.08 0.12c-0.01,-0.02 -0.02,-0.04 -0.03,-0.05 -0.01,-0.02 -0.02,-0.01 -0.03,-0.01 -0.02,0.01 -0.02,0.02 -0.03,0.04 0,0.03 0,0.06 0,0.08l0.02 0.1c0.01,0.02 0.02,0.03 0.03,0.03 0.01,0 0.02,-0.01 0.03,-0.03 0.01,0.08 0.02,0.15 0.05,0.21 0.03,0.09 0.07,0.18 0.12,0.25 0.06,0.05 0.12,0.11 0.18,0.16 0.05,0.04 0.1,0.05 0.15,0 0.08,-0.08 0.16,-0.15 0.23,-0.23 0.04,-0.05 0.06,-0.1 0.08,-0.15 0.01,-0.06 0.02,-0.12 0.03,-0.18 0.01,0.01 0.01,0.01 0.02,0.01 0.01,0 0.03,0 0.04,-0.01 0.02,-0.05 0.04,-0.11 0.05,-0.16 0,-0.01 -0.01,-0.03 -0.03,-0.04 -0.01,-0.01 -0.03,-0.01 -0.04,-0.01z"/>
    <g>
     <path class="fil5" d="M2.71 2.46c-0.03,0.01 -0.04,0.02 -0.03,0.06 0,0.02 0.02,0.04 0.05,0.03 0.05,-0.01 0.04,-0.1 -0.02,-0.09z"/>
     <path class="fil5" d="M2.32 2.46c-0.06,0.01 -0.04,0.1 0.02,0.09 0.02,0 0.04,-0.03 0.03,-0.06 0,-0.02 -0.02,-0.03 -0.05,-0.03z"/>
     <line class="fil2 str5" x1="2.22" y1="2.34" x2="2.45" y2= "2.36" />
     <path class="fil3 str6" d="M2.19 2.26l-0.09 0.13c-0.04,-0.11 -0.06,-0.24 -0.03,-0.41 0.03,-0.16 0.11,-0.22 0.21,-0.24 0.17,-0.03 0.33,-0.02 0.47,0.01 0.11,0.04 0.19,0.14 0.2,0.23 0.04,0.15 0.02,0.25 0,0.4 -0.04,-0.03 -0.08,-0.06 -0.13,-0.09 -0.01,-0.06 -0.01,-0.13 0,-0.2 -0.06,0.02 -0.1,0.02 -0.16,0 -0.07,0.07 -0.2,0.06 -0.29,0 -0.05,0.01 -0.11,0.02 -0.17,0 0,0.06 0,0.11 -0.01,0.17z"/>
     <line class="fil2 str5" x1="2.8" y1="2.34" x2="2.57" y2= "2.36" />
     <path class="fil6" d="M2.7 2.46c-0.01,-0.02 0.03,-0.04 0.08,-0.04 0.03,0.01 0.05,0.02 0.06,0.04 0,0.01 0.01,0.01 0,0.02l-0.02 0.01c-0.03,-0.02 -0.07,-0.03 -0.12,-0.03z"/>
     <path class="fil6" d="M2.36 2.46c0.01,-0.02 -0.03,-0.04 -0.07,-0.04 -0.03,0.01 -0.06,0.02 -0.07,0.04 0,0.01 0,0.01 0,0.02l0.02 0.01c0.03,-0.02 0.07,-0.03 0.12,-0.03z"/>
    </g>
    <path class="fil2 str7" d="M2.61 2.41l-0.03 0.03 -0.01 0.06 -0.01 0.11 0.01 0.05 0.04 0.07c0,0.01 0,0.01 0,0.02l-0.07 0.05c-0.01,0.01 -0.03,0.01 -0.04,0l-0.08 -0.05 0 -0.03 0.03 -0.06 0.01 -0.05 -0.02 -0.1 -0.01 -0.07 -0.05 -0.03"/>
    <g>
     <path class="fil7" d="M2.65 2.88l-0.26 -0.01c-0.01,0 -0.01,0.01 -0.01,0.01l0.06 0.05c0.02,0.02 0.05,0.03 0.08,0.03 0.02,0 0.05,-0.01 0.07,-0.02l0.07 -0.05c0,-0.01 -0.01,-0.01 -0.01,-0.01z"/>
     <g>
      <path class="fil1 str8" d="M2.43 2.86l0 0.03c0,0 0,0.01 0.01,0.01 0.01,0 0.02,0 0.03,0 0,0 0.01,0 0.01,0 0.02,0 0.03,0 0.04,0 0.01,0 0.02,0 0.03,0 0.01,0 0.02,0 0.03,0 0.01,0 0.01,0 0.02,0l0.01 0c0,0 0.01,-0.01 0.01,-0.01l0 -0.03c-0.06,0.01 -0.13,0.01 -0.19,0z"/>
      <line class="fil2 str9" x1="2.55" y1="2.87" x2="2.55" y2= "2.9" />
      <line class="fil2 str9" x1="2.58" y1="2.87" x2="2.58" y2= "2.9" />
      <line class="fil2 str9" x1="2.6" y1="2.87" x2="2.6" y2= "2.9" />
      <line class="fil2 str9" x1="2.44" y1="2.87" x2="2.44" y2= "2.9" />
      <line class="fil2 str9" x1="2.47" y1="2.87" x2="2.47" y2= "2.9" />
      <line class="fil2 str9" x1="2.48" y1="2.87" x2="2.48" y2= "2.9" />
      <line class="fil2 str9" x1="2.52" y1="2.87" x2="2.52" y2= "2.9" />
      <path class="fil2 str10" d="M2.44 2.96l-0.07 -0.08c-0.01,-0.02 0.01,-0.03 0.02,-0.02 0.1,0.01 0.16,0.01 0.26,0 0.03,0 0.03,0.01 0.02,0.03l-0.07 0.07c-0.05,0.04 -0.1,0.04 -0.16,0z"/>
     </g>
    </g>
    <polyline class="fil2 str4" points="2.4,3.07 2.46,3.05 2.51,3.03 2.58,3.04 2.65,3.07 "/>
    <path class="fil2 str11" d="M2.06 2.51c-0.02,-0.03 -0.02,-0.08 -0.02,-0.14 0.01,-0.04 0.02,-0.02 0.03,0 0.01,0.04 0.01,0.06 0,0.08"/>
    <path class="fil2 str11" d="M2.96 2.45c0,-0.03 0.01,-0.05 0.03,-0.04 0.02,-0.01 0.04,0.01 0.03,0.04 -0.01,0.06 -0.03,0.08 -0.05,0.1"/>
    <path class="fil2 str10" d="M2.62 2.51c0.01,0.01 0.03,0.02 0.04,0.03 0.03,0.01 0.06,0.04 0.13,-0.02 0.03,-0.02 0.04,0 0.06,-0.01"/>
    <path class="fil2 str10" d="M2.42 2.51c-0.01,0.01 -0.02,0.02 -0.04,0.03 -0.03,0.01 -0.05,0.04 -0.12,-0.02 -0.03,-0.02 -0.03,0 -0.05,-0.01"/>
    <path class="fil2 str10" d="M2.21 2.51c0.01,0 0.03,0 0.03,-0.01 0.07,-0.06 0.11,-0.05 0.15,-0.02 0,0.01 0.02,0.02 0.03,0.02"/>
    <path class="fil2 str10" d="M2.86 2.51c-0.02,0 -0.03,0 -0.04,-0.01 -0.07,-0.06 -0.12,-0.05 -0.16,-0.02 -0.01,0.01 -0.02,0.02 -0.04,0.02"/>
    <path class="fil8 str4" d="M2.66 2.89c-0.12,0.09 -0.21,0.07 -0.29,-0.02 0.07,0.14 0.2,0.16 0.29,0.02z"/>
    <path class="fil9 str4" d="M2.42 2.87c0.01,-0.01 -0.04,-0.01 -0.05,0 0,0 0,0 0.01,0 0.01,0.03 0.04,0.04 0.05,0.05l-0.01 -0.05z"/>
    <path class="fil9 str4" d="M2.63 2.87c0,-0.01 0.04,-0.01 0.04,0 0.01,0.01 -0.02,0.03 -0.05,0.05l0.01 -0.05z"/>
    <path class="fil1" d="M2.49 2.95c-0.02,-0.01 -0.04,-0.01 -0.05,-0.02 0.02,-0.01 0.01,0 0.02,0 0.03,-0.01 0.02,0 0.02,0 0.02,-0.01 0.04,0 0.04,0 0.01,0.01 -0.01,-0.01 0.03,0 0.01,0 0,-0.01 0.03,0 0.01,0 -0.01,-0.01 0.02,0 -0.01,0.01 -0.03,0.01 -0.05,0.02 -0.02,0 -0.04,0 -0.06,0z"/>
    <path class="fil2 str12" d="M2.44 2.93c0.01,-0.01 0.02,-0.01 0.02,0 0.01,-0.01 0.02,-0.01 0.02,0 0.02,-0.01 0.03,-0.01 0.04,0 0.01,-0.01 0.02,-0.01 0.03,0 0.01,-0.01 0.02,-0.01 0.03,0 0.01,-0.01 0.02,-0.01 0.02,0"/>
    <line class="fil2 str8" x1="2.46" y1="2.93" x2="2.46" y2= "2.94" />
    <line class="fil2 str8" x1="2.48" y1="2.93" x2="2.48" y2= "2.95" />
    <line class="fil2 str8" x1="2.52" y1="2.93" x2="2.52" y2= "2.95" />
    <line class="fil2 str8" x1="2.55" y1="2.93" x2="2.55" y2= "2.95" />
    <line class="fil2 str8" x1="2.58" y1="2.93" x2="2.58" y2= "2.94" />
    <path class="fil8 str13" d="M2.5 2.83c0,0 -0.01,0 -0.02,0 -0.03,0.01 -0.06,0.02 -0.09,0.03 -0.02,0 -0.03,0.01 -0.01,0.01 0.01,0 0.03,-0.01 0.05,0 0.06,0.01 0.13,0.02 0.19,0 0.02,-0.01 0.04,-0.01 0.05,0 0.01,0 0,-0.01 -0.01,-0.01 -0.04,-0.01 -0.08,-0.01 -0.1,-0.02 -0.01,-0.01 -0.01,-0.02 -0.02,-0.01 -0.01,0.01 -0.03,0 -0.04,0z"/>
   </g>
  </g>
 </g>
</svg>
