<?xml version="1.0" encoding="UTF-8"?>
<!DOCTYPE svg PUBLIC "-//W3C//DTD SVG 1.1//EN" "http://www.w3.org/Graphics/SVG/1.1/DTD/svg11.dtd">
<!-- Creator: CorelDRAW 2021 (64 Bit) -->
<svg xmlns="http://www.w3.org/2000/svg" xml:space="preserve" width="530px" height="530px" version="1.1" style="shape-rendering:geometricPrecision; text-rendering:geometricPrecision; image-rendering:optimizeQuality; fill-rule:evenodd; clip-rule:evenodd"
viewBox="0 0 4.99 4.99"
 xmlns:xlink="http://www.w3.org/1999/xlink"
 xmlns:xodm="http://www.corel.com/coreldraw/odm/2003">
 <defs>
  <style type="text/css">
   <![CDATA[
    .str0 {stroke:#B8B4B6;stroke-width:0.28;stroke-miterlimit:22.9256}
    .str1 {stroke:black;stroke-width:0.02;stroke-miterlimit:22.9256}
    .fil1 {fill:black}
    .fil7 {fill:aqua}
    .fil6 {fill:#28FE3E}
    .fil2 {fill:#E6E6E6}
    .fil5 {fill:red}
    .fil3 {fill:#FF9933}
    .fil4 {fill:#FFFF99}
    .fil0 {fill:white}
   ]]>
  </style>
 </defs>
 <g id="Camada_x0020_1">
  <metadata id="CorelCorpID_0Corel-Layer"/>
  <g id="_2069900153168">
   <path class="fil0 str0" d="M0.35 0.14l4.29 0c0.12,0 0.21,0.11 0.21,0.24l0 4.23c0,0.13 -0.09,0.24 -0.21,0.24l-4.29 0c-0.11,0 -0.2,-0.11 -0.2,-0.24 0,-0.5 -0.01,-4.1 -0.01,-4.28 0,-0.11 0.13,-0.19 0.21,-0.19z"/>
   <g>
    <path class="fil1" d="M2.24 3.13l0.01 -0.01c0.03,-0.01 0.03,-0.04 0.03,-0.06 0.01,-0.01 0.05,-0.04 0.04,-0.07 0,-0.02 -0.02,-0.07 -0.03,-0.09 0.02,-0.01 0.03,-0.01 0.04,-0.02 0.04,-0.02 0.09,-0.06 0.08,-0.11 -0.01,-0.05 -0.06,-0.14 -0.08,-0.18 -0.03,-0.05 -0.05,-0.11 -0.09,-0.16 -0.03,-0.05 -0.02,-0.04 -0.01,-0.1 0.02,-0.2 0,-0.28 -0.11,-0.44 -0.06,-0.1 -0.18,-0.2 -0.3,-0.26 -0.26,-0.12 -0.57,-0.11 -0.81,0.02 -0.18,0.09 -0.38,0.33 -0.39,0.62 0,0.13 0.06,0.29 0.11,0.39l0.18 0.32c0.08,0.15 0.06,0.19 -0.04,0.35 -0.03,0.04 -0.06,0.08 -0.08,0.11 -0.01,0.01 -0.02,0.02 -0.03,0.03 -0.02,0.02 -0.05,0.05 -0.05,0.08 0,0.01 0.01,0.03 0.02,0.04 0.02,0.01 0.5,0 0.56,0l0.37 0c0.12,0 -0.03,-0.03 0.24,-0.13 0.07,-0.03 0.13,-0.03 0.2,-0.05 0.18,-0.04 0.23,-0.15 0.14,-0.28l0 0z"/>
    <g>
     <g>
      <g>
       <polygon class="fil2 str1" points="3.63,0.7 3.23,0.91 3.28,0.78 3.5,0.67 "/>
       <rect class="fil3 str1" transform="matrix(0.141846 -0.074016 0.0440728 0.0846412 2.20812 1.44079)" width="10.69" height="10.55"/>
      </g>
      <g>
       <polygon class="fil2 str1" points="3.95,1.34 3.52,1.48 3.6,1.37 3.83,1.29 "/>
       <rect class="fil4 str1" transform="matrix(0.151894 -0.0502066 0.0298954 0.0906368 2.41594 1.84789)" width="10.69" height="10.55"/>
      </g>
      <g>
       <polygon class="fil2 str1" points="4.25,2.03 3.92,2.07 3.99,1.98 4.17,1.95 "/>
       <rect class="fil5 str1" transform="matrix(0.158732 -0.0198004 0.0117901 0.0947173 2.60801 2.23241)" width="10.69" height="10.55"/>
      </g>
      <g>
       <polygon class="fil2 str1" points="4.29,2.78 3.84,2.73 3.96,2.65 4.2,2.69 "/>
       <rect class="fil6 str1" transform="matrix(0.158639 0.0205302 -0.0122247 0.0946621 2.7015 2.57701)" width="10.69" height="10.55"/>
      </g>
     </g>
     <g>
      <polygon class="fil2 str1" points="4.18,3.45 3.75,3.32 3.88,3.27 4.12,3.34 "/>
      <rect class="fil7 str1" transform="matrix(0.153159 0.0461926 -0.0275054 0.0913921 2.65078 2.98981)" width="10.69" height="10.55"/>
     </g>
    </g>
   </g>
  </g>
 </g>
</svg>
