<?xml version="1.0" encoding="UTF-8"?>
<!DOCTYPE svg PUBLIC "-//W3C//DTD SVG 1.1//EN" "http://www.w3.org/Graphics/SVG/1.1/DTD/svg11.dtd">
<!-- Creator: CorelDRAW 2021 (64 Bit) -->
<svg xmlns="http://www.w3.org/2000/svg" xml:space="preserve" width="530px" height="530px" version="1.1" style="shape-rendering:geometricPrecision; text-rendering:geometricPrecision; image-rendering:optimizeQuality; fill-rule:evenodd; clip-rule:evenodd"
viewBox="0 0 5.55 5.55"
 xmlns:xlink="http://www.w3.org/1999/xlink"
 xmlns:xodm="http://www.corel.com/coreldraw/odm/2003">
 <defs>
  <style type="text/css">
   <![CDATA[
    .str0 {stroke:#030303;stroke-width:0.1;stroke-miterlimit:22.9256}
    .str2 {stroke:#B8B4B6;stroke-width:0.31;stroke-miterlimit:22.9256}
    .str4 {stroke:black;stroke-width:0.08;stroke-miterlimit:22.9256}
    .str5 {stroke:black;stroke-width:0.05;stroke-miterlimit:22.9256}
    .str1 {stroke:black;stroke-width:0.05;stroke-miterlimit:22.9256}
    .str3 {stroke:red;stroke-width:0.02;stroke-miterlimit:22.9256}
    .fil3 {fill:none}
    .fil0 {fill:black}
    .fil1 {fill:lime}
    .fil5 {fill:#00FF95}
    .fil4 {fill:red}
    .fil2 {fill:white}
    .fil6 {fill:white}
   ]]>
  </style>
 </defs>
 <g id="Camada_x0020_1">
  <metadata id="CorelCorpID_0Corel-Layer"/>
  <g id="_2789542769248">
   <g>
    <path class="fil0" d="M0.5 1.81c0,0.03 0,0.07 0,0.1 0,0.24 0.15,0.51 0.32,0.68 0.07,0.06 0.14,0.12 0.21,0.16 0.14,0.07 0.16,0.04 0.17,0.12 0.01,0.15 0.02,0.25 0.02,0.4l0.03 0.4c0.01,0.09 0.09,1.18 0.1,1.21 0.05,-0.02 0.1,-0.03 0.16,-0.04 0.18,-0.03 0.38,-0.17 0.44,-0.35 0.04,-0.11 -0.03,-0.22 0.01,-0.34l0.16 -0.35c-0.01,-0.01 0,0 -0.01,-0.01 -0.01,-0.02 0,-0.01 -0.01,-0.02 -0.06,-0.09 -0.15,-0.26 -0.21,-0.37 0.08,-0.11 0.23,-0.26 0.24,-0.38 0.01,-0.06 -0.01,-0.12 -0.02,-0.18 -0.01,-0.05 -0.01,-0.13 -0.02,-0.16 0.16,-0.12 0.23,-0.16 0.36,-0.37 0.08,-0.13 0.14,-0.3 0.15,-0.43 0.01,-0.14 0.01,-0.26 -0.03,-0.41 -0.04,-0.13 -0.09,-0.26 -0.2,-0.39 -0.11,-0.14 -0.25,-0.24 -0.4,-0.31 -0.16,-0.07 -0.28,-0.07 -0.41,-0.08l-0.2 0.03c-0.18,0.04 -0.36,0.14 -0.49,0.27 -0.02,0.02 -0.08,0.08 -0.09,0.1l0.03 -0.02c0.05,0.05 0.05,0.08 0.11,0.11 0.12,-0.1 0.15,-0.19 0.35,-0.28 0.11,-0.05 0.24,-0.08 0.36,-0.08 0.08,0.01 0.28,0.03 0.37,0.09 0.24,0.14 0.44,0.38 0.49,0.67 0.01,0.11 0.03,0.27 0,0.38 -0.08,0.3 -0.28,0.52 -0.55,0.65 -0.01,0.03 0,0.07 0.01,0.1l0.04 0.29c0.01,0.04 -0.02,0.06 -0.05,0.11l-0.23 0.32c0.07,0.1 0.14,0.23 0.2,0.34 0.04,0.06 0.03,0.03 -0.02,0.19l-0.1 0.28c-0.01,0.05 -0.01,0.04 0,0.09 0,0.02 0.01,0.17 0.01,0.19 -0.06,0.13 -0.25,0.22 -0.34,0.22 -0.01,-0.02 0,-0.03 0,-0.06 -0.01,-0.16 -0.02,-0.3 -0.03,-0.46 0,-0.04 0.01,-0.08 0,-0.13l-0.04 -0.64c0,-0.04 0,-0.09 0,-0.13 0,-0.05 0,-0.09 0,-0.13l-0.02 -0.26c0,-0.09 0,-0.17 -0.01,-0.26 -0.04,-0.02 -0.1,-0.02 -0.14,-0.02 -0.02,-0.01 -0.12,-0.06 -0.14,-0.07 -0.23,-0.11 -0.35,-0.33 -0.4,-0.57 -0.01,-0.02 -0.01,-0.04 -0.01,-0.07 -0.01,-0.04 -0.01,-0.1 -0.02,-0.14 -0.02,0.01 -0.04,0.01 -0.07,0.01 -0.03,0.01 -0.05,0.02 -0.08,0z"/>
    <circle class="fil1 str0" cx="1.41" cy="1.28" r="0.26"/>
    <circle class="fil1 str1" cx="0.66" cy="1.43" r="0.17"/>
   </g>
   <path class="fil2 str2" d="M0.39 0.16l4.78 0c0.12,0 0.23,0.11 0.23,0.26l0 4.71c0,0.15 -0.11,0.27 -0.23,0.27l-4.78 0c-0.12,0 -0.23,-0.12 -0.23,-0.27 0,-0.56 -0.01,-4.56 0,-4.77 0,-0.11 0.14,-0.2 0.23,-0.2z"/>
   <path class="fil3" d="M1.35 0.71c-0.6,0.25 -0.78,0.54 -0.81,1.07 0.02,0.5 0.27,0.78 0.7,0.98l0.15 2.04c0.26,-0.04 0.44,-0.13 0.48,-0.32l0.02 -0.24 0.16 -0.45 -0.22 -0.39 0.27 -0.39 -0.09 -0.38c0.47,-0.29 0.63,-0.71 0.5,-1.24 -0.19,-0.51 -0.57,-0.76 -1.16,-0.68z"/>
   <g>
    <polygon class="fil4 str3" points="2.1,4.61 3.1,3.6 2.77,4.54 4.97,1.28 3.74,2.71 4.17,1.77 "/>
    <g>
     <path class="fil5" d="M1.54 0.7c-0.59,0.23 -0.78,0.52 -0.84,1.09 -0.01,0.53 0.21,0.84 0.61,1.08l0.02 2.18c0.25,-0.03 0.42,-0.12 0.48,-0.32l0.04 -0.25 0.17 -0.47 -0.18 -0.43 0.27 -0.4 -0.06 -0.41c0.47,-0.28 0.65,-0.71 0.56,-1.29 -0.15,-0.55 -0.5,-0.83 -1.07,-0.78z"/>
     <line class="fil3 str4" x1="1.53" y1="2.76" x2="1.49" y2= "4.91" />
     <line class="fil3 str4" x1="1.79" y1="2.76" x2="1.77" y2= "3.49" />
     <path class="fil5 str5" d="M0.66 1.78c0,0.03 -0.01,0.07 -0.01,0.11 -0.01,0.25 0.12,0.54 0.27,0.73 0.06,0.07 0.12,0.14 0.19,0.18 0.12,0.08 0.15,0.06 0.15,0.14 0,0.16 0.01,0.26 0,0.43l0.01 0.43c0,0.09 0,1.26 0.01,1.29 0.06,-0.02 0.1,-0.03 0.16,-0.04 0.18,-0.02 0.37,-0.16 0.44,-0.35 0.04,-0.11 -0.02,-0.23 0.03,-0.35l0.17 -0.37c0,-0.01 0,0.01 0,-0.02 -0.01,-0.01 0,0 -0.01,-0.01 -0.06,-0.1 -0.13,-0.29 -0.18,-0.41 0.08,-0.11 0.23,-0.26 0.25,-0.39 0.01,-0.06 0,-0.12 0,-0.19 -0.01,-0.06 -0.01,-0.14 -0.02,-0.17 0.17,-0.12 0.24,-0.16 0.37,-0.37 0.09,-0.14 0.16,-0.31 0.17,-0.45 0.02,-0.15 0.03,-0.28 -0.01,-0.44 -0.03,-0.14 -0.07,-0.28 -0.16,-0.42 -0.1,-0.16 -0.22,-0.28 -0.37,-0.36 -0.14,-0.07 -0.26,-0.09 -0.38,-0.1l-0.2 0.02c-0.17,0.03 -0.34,0.12 -0.48,0.26 -0.01,0.01 -0.06,0.05 -0.07,0.07l0.01 0.01c0.04,0.06 0.06,0.08 0.1,0.12 0.12,-0.1 0.16,-0.2 0.35,-0.28 0.1,-0.05 0.24,-0.07 0.35,-0.06 0.07,0.01 0.26,0.05 0.34,0.11 0.23,0.17 0.4,0.43 0.43,0.74 0.01,0.12 0.01,0.29 -0.02,0.4 -0.1,0.32 -0.3,0.54 -0.57,0.67 0,0.02 0,0.07 0.01,0.1l0.02 0.31c0,0.04 -0.02,0.07 -0.06,0.11l-0.23 0.33c0.06,0.11 0.11,0.26 0.17,0.38 0.03,0.07 0.02,0.04 -0.03,0.19l-0.11 0.3c-0.02,0.06 -0.02,0.05 -0.02,0.1 0.01,0.02 0.01,0.18 0,0.19 -0.06,0.14 -0.25,0.23 -0.33,0.22 -0.01,-0.02 0,-0.03 0,-0.07 0,-0.16 0,-0.31 0,-0.48 0.01,-0.05 0.01,-0.09 0.01,-0.14l0 -0.68c0,-0.04 0.01,-0.1 0.01,-0.14 0,-0.05 0,-0.09 0,-0.14l0 -0.28c0.01,-0.09 0.01,-0.18 0.01,-0.27 -0.04,-0.03 -0.1,-0.02 -0.14,-0.03 -0.01,-0.01 -0.1,-0.07 -0.13,-0.08 -0.2,-0.13 -0.31,-0.37 -0.34,-0.63 0,-0.02 -0.01,-0.08 -0.01,-0.11 0,-0.03 0,-0.07 -0.01,-0.11 -0.02,0 -0.04,0 -0.07,0 -0.02,0 -0.04,0 -0.07,0z"/>
     <path class="fil5 str5" d="M0.75 1.32c-0.13,0.19 0.13,0.4 0.26,0.19 0.04,-0.07 0.04,-0.19 -0.04,-0.24 -0.07,-0.05 -0.17,-0.03 -0.22,0.05z"/>
     <ellipse class="fil6 str5" transform="matrix(0.623999 0.0358233 -0.0429259 0.749304 1.45946 1.27703)" rx="0.34" ry="0.32"/>
    </g>
   </g>
  </g>
 </g>
</svg>
