<?xml version="1.0" encoding="UTF-8"?>
<!DOCTYPE svg PUBLIC "-//W3C//DTD SVG 1.1//EN" "http://www.w3.org/Graphics/SVG/1.1/DTD/svg11.dtd">
<!-- Creator: CorelDRAW 2021 (64 Bit) -->
<svg xmlns="http://www.w3.org/2000/svg" xml:space="preserve" width="530px" height="530px" version="1.1" style="shape-rendering:geometricPrecision; text-rendering:geometricPrecision; image-rendering:optimizeQuality; fill-rule:evenodd; clip-rule:evenodd"
viewBox="0 0 4.99 4.99"
 xmlns:xlink="http://www.w3.org/1999/xlink"
 xmlns:xodm="http://www.corel.com/coreldraw/odm/2003">
 <defs>
  <style type="text/css">
   <![CDATA[
    .str0 {stroke:#B8B4B6;stroke-width:0.28;stroke-miterlimit:22.9256}
    .str7 {stroke:#F5A980;stroke-width:0.04;stroke-miterlimit:22.9256}
    .str6 {stroke:black;stroke-width:0.01;stroke-miterlimit:22.9256}
    .str12 {stroke:#DBDBDB;stroke-width:0.01;stroke-miterlimit:22.9256}
    .str4 {stroke:#F5A980;stroke-width:0.01;stroke-miterlimit:22.9256}
    .str1 {stroke:#FA0505;stroke-width:0.01;stroke-miterlimit:22.9256}
    .str2 {stroke:#030303;stroke-width:0.08;stroke-miterlimit:22.9256}
    .str3 {stroke:#030303;stroke-width:0.02;stroke-miterlimit:22.9256}
    .str15 {stroke:#4A4949;stroke-width:0.02;stroke-miterlimit:22.9256}
    .str14 {stroke:#C9C5C5;stroke-width:0.02;stroke-miterlimit:22.9256}
    .str10 {stroke:#F5A980;stroke-width:0.02;stroke-miterlimit:22.9256}
    .str11 {stroke:#F5A980;stroke-width:0.03;stroke-miterlimit:22.9256}
    .str16 {stroke:#8F8C8C;stroke-width:0.01;stroke-miterlimit:22.9256}
    .str17 {stroke:#B3B3B3;stroke-width:0.01;stroke-miterlimit:22.9256}
    .str8 {stroke:#DBDBDB;stroke-width:0.01;stroke-miterlimit:22.9256}
    .str13 {stroke:#F5A980;stroke-width:0.01;stroke-miterlimit:22.9256}
    .str9 {stroke:#E1E1E1;stroke-width:0.01;stroke-miterlimit:22.9256}
    .str5 {stroke:#454545;stroke-width:0.14;stroke-linecap:round;stroke-miterlimit:22.9256}
    .fil3 {fill:none}
    .fil6 {fill:black}
    .fil7 {fill:black}
    .fil4 {fill:#003399}
    .fil12 {fill:#615F5F}
    .fil9 {fill:#666666}
    .fil8 {fill:#999999}
    .fil11 {fill:#CCCCCC}
    .fil2 {fill:#E6E6E6}
    .fil10 {fill:#F5A980}
    .fil5 {fill:#F5B796}
    .fil0 {fill:white}
    .fil1 {fill:white}
   ]]>
  </style>
 </defs>
 <g id="Camada_x0020_1">
  <metadata id="CorelCorpID_0Corel-Layer"/>
  <g id="_2069584362080">
   <path class="fil0 str0" d="M0.35 0.14l4.29 0c0.11,0 0.21,0.11 0.21,0.24l0 4.23c0,0.13 -0.1,0.24 -0.21,0.24l-4.29 0c-0.11,0 -0.2,-0.11 -0.2,-0.24 0,-0.51 -0.01,-4.1 -0.01,-4.28 0,-0.11 0.13,-0.19 0.21,-0.19z"/>
   <g>
    <g>
     <polygon class="fil1 str1" points="3.89,2.29 3.69,2.65 3.56,2.43 3.83,2.15 "/>
     <polygon class="fil1 str1" points="3.2,2.31 3.42,2.64 3.54,2.44 3.25,2.15 "/>
     <path class="fil1 str1" d="M3.2 2.3l0.22 0.36 0.04 -0.06 0.04 0.04 -0.01 0.56c-0.28,0 -0.57,0 -0.85,0 -0.05,0.01 -0.07,-0.04 -0.07,-0.07 0,-0.08 0.02,-0.31 0.04,-0.52 0.01,-0.09 0.03,-0.1 0.09,-0.11 0.1,-0.04 0.47,-0.19 0.5,-0.2z"/>
     <path class="fil2 str1" d="M3.9 2.3l-0.21 0.36 -0.04 -0.06 -0.04 0.03 0.02 0.57c0.28,0 0.45,0.01 0.73,0.01 0.08,0 0.1,-0.02 0.1,-0.08 0,-0.08 -0.02,-0.31 -0.04,-0.52 -0.01,-0.06 -0.01,-0.09 -0.06,-0.11 -0.1,-0.04 -0.44,-0.19 -0.46,-0.2z"/>
     <path class="fil2 str2" d="M4.39 3.21l-1.76 0c-0.04,0 -0.07,-0.03 -0.07,-0.09 0.02,-0.18 0.03,-0.35 0.04,-0.53 0.01,-0.05 0.03,-0.08 0.07,-0.09l0.54 -0.2 0.04 -0.16 0.3 0.29 0.28 -0.29 0.06 0.15 0.49 0.22c0.02,0.01 0.04,0.04 0.04,0.08 0.02,0.18 0.04,0.36 0.05,0.53 0.01,0.05 -0.03,0.09 -0.08,0.09z"/>
     <polyline class="fil3 str2" points="3.2,2.31 3.42,2.65 3.55,2.44 3.69,2.65 3.89,2.3 "/>
     <polygon class="fil4 str3" points="3.65,2.6 3.55,2.45 3.46,2.6 3.5,2.64 3.49,3.21 3.65,3.21 3.62,2.64 "/>
     <path class="fil5 str4" d="M3.31 2.18l0.24 0.23 0.22 -0.23 -0.01 -0.1c-0.05,0.05 -0.09,0.1 -0.14,0.15 -0.02,0.03 -0.1,0.03 -0.14,0l-0.17 -0.15 0 0.1z"/>
     <path class="fil5 str4" d="M3.98 1.51c-0.02,0 -0.02,0.02 -0.04,0.04l0.02 -0.05 -0.12 -0.09 0 -0.18 -0.16 0 -0.13 0.04 -0.14 -0.05 -0.17 0.01 -0.01 0.15 -0.08 0.11c-0.01,-0.01 -0.02,-0.03 -0.03,-0.04 0,-0.01 -0.02,-0.01 -0.03,-0.01 -0.01,0.01 -0.02,0.02 -0.02,0.04 -0.01,0.03 -0.01,0.05 0,0.08l0.02 0.09c0,0.02 0.01,0.02 0.03,0.02 0,0 0.01,0 0.03,-0.02 0,0.07 0.01,0.14 0.03,0.2 0.03,0.08 0.07,0.16 0.13,0.23 0.05,0.05 0.11,0.1 0.16,0.14 0.05,0.05 0.1,0.05 0.15,0.01 0.08,-0.07 0.15,-0.15 0.22,-0.22 0.03,-0.04 0.05,-0.09 0.07,-0.14 0.01,-0.05 0.02,-0.11 0.03,-0.17 0,0.01 0.01,0.02 0.02,0.02 0,0 0.02,-0.01 0.03,-0.02 0.03,-0.05 0.04,-0.1 0.05,-0.14 0,-0.02 -0.01,-0.03 -0.02,-0.04 -0.01,-0.01 -0.03,-0.01 -0.04,-0.01z"/>
     <g>
      <path class="fil6" d="M3.73 1.57c-0.03,0.01 -0.04,0.02 -0.03,0.05 0,0.03 0.02,0.04 0.05,0.04 0.04,-0.01 0.04,-0.1 -0.02,-0.09z"/>
      <path class="fil6" d="M3.36 1.57c-0.06,0.01 -0.03,0.1 0.02,0.09 0.02,-0.01 0.03,-0.03 0.03,-0.06 0,-0.02 -0.03,-0.03 -0.05,-0.03z"/>
      <line class="fil3 str5" x1="3.27" y1="1.46" x2="3.48" y2= "1.48" />
      <path class="fil7 str6" d="M3.24 1.38l-0.09 0.12c-0.03,-0.1 -0.05,-0.22 -0.03,-0.37 0.03,-0.15 0.11,-0.21 0.2,-0.23 0.17,-0.03 0.31,-0.02 0.45,0 0.1,0.04 0.17,0.14 0.19,0.22 0.03,0.14 0.01,0.24 0,0.38 -0.04,-0.03 -0.08,-0.06 -0.12,-0.09 -0.02,-0.06 -0.02,-0.12 -0.01,-0.18 -0.05,0.01 -0.09,0.01 -0.15,0 -0.07,0.06 -0.19,0.06 -0.27,0 -0.05,0.01 -0.11,0.01 -0.17,0 0.01,0.05 0.01,0.1 0,0.15z"/>
      <line class="fil3 str5" x1="3.81" y1="1.46" x2="3.6" y2= "1.48" />
      <path class="fil8" d="M3.72 1.57c-0.01,-0.02 0.03,-0.04 0.07,-0.03 0.03,0 0.05,0.01 0.06,0.03 0.01,0.01 0.01,0.01 0,0.02l-0.02 0.01c-0.02,-0.02 -0.06,-0.03 -0.11,-0.03z"/>
      <path class="fil8" d="M3.4 1.57c0.01,-0.02 -0.03,-0.04 -0.07,-0.03 -0.03,0 -0.05,0.01 -0.06,0.03 -0.01,0.01 -0.01,0.01 0,0.02l0.02 0.01c0.02,-0.02 0.06,-0.03 0.11,-0.03z"/>
     </g>
     <path class="fil3 str7" d="M3.64 1.53l-0.03 0.02 -0.02 0.06 -0.01 0.1 0.01 0.05 0.04 0.07c0.01,0 0,0.01 0,0.01l-0.06 0.05c-0.02,0.01 -0.03,0.01 -0.04,0l-0.07 -0.05 0 -0.02 0.03 -0.06 0 -0.05 -0.01 -0.09 -0.02 -0.07 -0.04 -0.03"/>
     <g>
      <path class="fil9" d="M3.67 1.96l-0.25 0c0,0 0,0 0,0.01l0.05 0.05c0.03,0.01 0.05,0.02 0.07,0.02 0.03,0 0.06,-0.01 0.08,-0.02l0.06 -0.05c0,-0.01 -0.01,0 -0.01,-0.01z"/>
      <g>
       <path class="fil1 str8" d="M3.46 1.95l0 0.02c0,0.01 0.01,0.01 0.02,0.01 0,0 0.01,0 0.02,0 0,0.01 0.01,0.01 0.02,0 0.01,0.01 0.02,0.01 0.03,0 0.01,0.01 0.02,0.01 0.03,0 0.01,0.01 0.02,0 0.02,0 0.01,0 0.02,0 0.03,0l0 0c0.01,0 0.01,0 0.01,-0.01l0.01 -0.02c-0.07,0 -0.13,0 -0.19,0z"/>
       <line class="fil3 str9" x1="3.58" y1="1.96" x2="3.58" y2= "1.98" />
       <line class="fil3 str9" x1="3.6" y1="1.96" x2="3.6" y2= "1.98" />
       <line class="fil3 str9" x1="3.62" y1="1.96" x2="3.63" y2= "1.98" />
       <line class="fil3 str9" x1="3.48" y1="1.96" x2="3.48" y2= "1.98" />
       <line class="fil3 str9" x1="3.5" y1="1.96" x2="3.5" y2= "1.98" />
       <line class="fil3 str9" x1="3.52" y1="1.96" x2="3.52" y2= "1.98" />
       <line class="fil3 str9" x1="3.55" y1="1.96" x2="3.55" y2= "1.98" />
       <path class="fil3 str10" d="M3.48 2.04l-0.08 -0.08c-0.01,-0.01 0.01,-0.02 0.03,-0.02 0.09,0.01 0.15,0.01 0.24,0 0.03,0.01 0.03,0.01 0.02,0.03l-0.06 0.07c-0.05,0.03 -0.1,0.04 -0.15,0z"/>
      </g>
     </g>
     <polyline class="fil3 str4" points="3.44,2.14 3.49,2.12 3.54,2.11 3.61,2.12 3.67,2.15 "/>
     <path class="fil3 str11" d="M3.11 1.62c-0.01,-0.03 -0.02,-0.07 -0.02,-0.13 0.01,-0.04 0.02,-0.02 0.03,0 0.01,0.03 0.01,0.05 0,0.08"/>
     <path class="fil3 str11" d="M3.96 1.56c0.01,-0.02 0.02,-0.04 0.03,-0.04 0.02,0 0.04,0.02 0.03,0.04 0,0.06 -0.03,0.08 -0.04,0.09"/>
     <path class="fil3 str10" d="M3.65 1.62c0.01,0.01 0.02,0.02 0.03,0.02 0.03,0.02 0.05,0.05 0.13,-0.01 0.03,-0.02 0.03,0 0.06,-0.01"/>
     <path class="fil3 str10" d="M3.45 1.62c-0.01,0.01 -0.02,0.02 -0.03,0.02 -0.03,0.02 -0.05,0.05 -0.12,-0.01 -0.02,-0.02 -0.02,0 -0.05,-0.01"/>
     <path class="fil3 str10" d="M3.26 1.62c0.01,0 0.02,0 0.03,-0.01 0.06,-0.05 0.1,-0.05 0.13,-0.02 0.01,0.01 0.02,0.02 0.03,0.02"/>
     <path class="fil3 str10" d="M3.87 1.62c-0.01,0 -0.03,0 -0.04,-0.01 -0.07,-0.05 -0.11,-0.05 -0.15,-0.02 -0.01,0.01 -0.02,0.02 -0.03,0.02"/>
     <path class="fil10 str4" d="M3.68 1.98c-0.11,0.08 -0.19,0.06 -0.28,-0.02 0.07,0.12 0.19,0.15 0.28,0.02z"/>
     <path class="fil11 str4" d="M3.46 1.95c0,0 -0.04,0 -0.06,0 0,0 0.01,0 0.01,0.01 0.02,0.02 0.04,0.04 0.06,0.05l-0.01 -0.06z"/>
     <path class="fil11 str4" d="M3.65 1.95c0,-0.01 0.04,0 0.04,0.01 0.01,0.01 -0.02,0.03 -0.05,0.04l0.01 -0.05z"/>
     <path class="fil1" d="M3.52 2.03c-0.02,-0.01 -0.03,-0.01 -0.04,-0.02 0.02,-0.01 0,0 0.01,0 0.03,-0.01 0.02,0 0.02,0 0.02,-0.01 0.03,0 0.04,0 0,0.01 -0.01,-0.01 0.03,0 0.01,0 -0.01,0 0.02,0 0.01,0 0,0 0.03,0 -0.02,0.01 -0.03,0.01 -0.05,0.02 -0.02,0 -0.04,0 -0.06,0z"/>
     <path class="fil3 str12" d="M3.47 2.01c0.01,0 0.02,0 0.02,0 0.01,-0.01 0.02,-0.01 0.02,0 0.02,-0.01 0.03,0 0.04,0 0.01,0 0.02,0 0.03,0 0,0 0.01,0 0.02,0 0.01,0 0.02,0 0.03,0"/>
     <line class="fil3 str8" x1="3.49" y1="2.01" x2="3.49" y2= "2.02" />
     <line class="fil3 str8" x1="3.51" y1="2.01" x2="3.51" y2= "2.03" />
     <line class="fil3 str8" x1="3.55" y1="2.01" x2="3.55" y2= "2.03" />
     <line class="fil3 str8" x1="3.58" y1="2.01" x2="3.58" y2= "2.03" />
     <line class="fil3 str8" x1="3.6" y1="2.01" x2="3.6" y2= "2.02" />
     <path class="fil10 str13" d="M3.53 1.92c0,-0.01 -0.01,-0.01 -0.02,0 -0.03,0.01 -0.06,0.02 -0.09,0.02 -0.01,0 -0.03,0.02 -0.01,0.01 0.01,0 0.04,0 0.06,0 0.05,0.02 0.11,0.02 0.18,0 0.01,0 0.03,0 0.04,0 0.01,0 0,0 0,0 -0.05,-0.01 -0.09,-0.02 -0.1,-0.03 -0.01,0 -0.02,-0.01 -0.02,0 -0.01,0 -0.03,0 -0.04,0z"/>
     <path class="fil8 str14" d="M3.99 1.3c-0.29,0.1 -0.6,0.09 -0.91,0l0.01 -0.23c0,-0.08 0.08,-0.18 0.16,-0.2 0.18,-0.06 0.39,-0.06 0.53,-0.01 0.09,0.03 0.2,0.13 0.21,0.2l0 0.24z"/>
     <path class="fil11 str15" d="M3.11 1.36l-0.03 -0.07c0.29,0.07 0.6,0.08 0.91,0.02 0,0.02 -0.01,0.04 -0.02,0.06 -0.01,0.02 -0.03,0.04 -0.05,0.06 -0.1,0.09 -0.69,0.1 -0.76,0 -0.02,-0.02 -0.04,-0.04 -0.05,-0.07z"/>
     <path class="fil12 str16" d="M3.99 1.3c-0.3,0.06 -0.58,0.06 -0.91,-0.01l0 0.02c0.31,0.09 0.61,0.08 0.91,0.01l0 -0.02z"/>
     <path class="fil3 str14" d="M3.08 1.29c0.07,-0.24 0.17,-0.45 0.44,-0.46"/>
     <path class="fil3 str14" d="M3.55 0.83c0.25,-0.01 0.38,0.16 0.44,0.47"/>
     <ellipse class="fil9 str17" cx="3.53" cy="0.83" rx="0.04" ry="0.01"/>
    </g>
    <g>
     <polygon class="fil1 str1" points="1.79,2.32 1.59,2.67 1.45,2.46 1.73,2.18 "/>
     <polygon class="fil1 str1" points="1.1,2.33 1.32,2.67 1.44,2.46 1.14,2.17 "/>
     <path class="fil1 str1" d="M1.09 2.33l0.23 0.36 0.04 -0.07 0.04 0.04 -0.01 0.57c-0.29,0 -0.57,0 -0.85,0 -0.05,0 -0.07,-0.05 -0.07,-0.08 0,-0.08 0.02,-0.3 0.04,-0.51 0.01,-0.09 0.02,-0.1 0.09,-0.12 0.1,-0.03 0.47,-0.18 0.49,-0.19z"/>
     <path class="fil2 str1" d="M1.79 2.32l-0.2 0.37 -0.04 -0.07 -0.04 0.04 0.02 0.57c0.28,0 0.44,0 0.73,0 0.08,0 0.1,-0.02 0.1,-0.08 -0.01,-0.08 -0.02,-0.31 -0.04,-0.52 -0.01,-0.06 -0.01,-0.09 -0.07,-0.11 -0.09,-0.04 -0.43,-0.19 -0.46,-0.2z"/>
     <path class="fil2 str2" d="M2.29 3.23l-1.76 0c-0.04,0 -0.07,-0.02 -0.07,-0.08 0.01,-0.18 0.03,-0.36 0.04,-0.53 0.01,-0.05 0.03,-0.08 0.06,-0.09l0.54 -0.2 0.05 -0.16 0.3 0.29 0.27 -0.29 0.07 0.15 0.49 0.21c0.02,0.02 0.04,0.05 0.04,0.09 0.02,0.18 0.03,0.35 0.05,0.53 0.01,0.05 -0.03,0.08 -0.08,0.08z"/>
     <polyline class="fil3 str2" points="1.1,2.33 1.32,2.68 1.44,2.47 1.59,2.67 1.79,2.33 "/>
     <polygon class="fil4 str3" points="1.54,2.63 1.44,2.48 1.36,2.63 1.4,2.67 1.39,3.23 1.55,3.23 1.51,2.67 "/>
     <path class="fil5 str4" d="M1.21 2.21l0.24 0.23 0.22 -0.24 -0.01 -0.09c-0.05,0.05 -0.09,0.09 -0.14,0.14 -0.03,0.03 -0.11,0.04 -0.15,0l-0.16 -0.14 0 0.1z"/>
     <path class="fil5 str4" d="M1.87 1.54c-0.01,0 -0.02,0.02 -0.03,0.03l0.02 -0.04 -0.12 -0.09 0 -0.19 -0.16 0 -0.13 0.05 -0.14 -0.05 -0.17 0 -0.01 0.16 -0.08 0.11c-0.01,-0.02 -0.02,-0.03 -0.03,-0.04 0,-0.02 -0.02,-0.02 -0.03,-0.01 -0.01,0 -0.02,0.01 -0.02,0.04 -0.01,0.02 -0.01,0.05 0,0.07l0.01 0.1c0.01,0.01 0.02,0.02 0.03,0.02 0.01,0 0.02,0 0.03,-0.02 0.01,0.07 0.02,0.14 0.04,0.19 0.03,0.09 0.07,0.16 0.12,0.24 0.06,0.04 0.11,0.09 0.17,0.14 0.05,0.04 0.1,0.05 0.15,0 0.07,-0.07 0.15,-0.14 0.22,-0.21 0.03,-0.05 0.05,-0.09 0.07,-0.14 0.01,-0.06 0.02,-0.11 0.03,-0.17 0,0.01 0.01,0.01 0.01,0.01 0.01,0 0.03,0 0.04,-0.01 0.02,-0.05 0.04,-0.1 0.05,-0.15 0,-0.01 -0.01,-0.03 -0.03,-0.03 -0.01,-0.01 -0.03,-0.02 -0.04,-0.01z"/>
     <g>
      <path class="fil6" d="M1.63 1.6c-0.03,0 -0.04,0.02 -0.04,0.05 0.01,0.02 0.03,0.04 0.05,0.03 0.05,-0.01 0.05,-0.09 -0.01,-0.08z"/>
      <path class="fil6" d="M1.26 1.6c-0.06,0.01 -0.04,0.09 0.02,0.08 0.02,0 0.03,-0.02 0.03,-0.05 -0.01,-0.02 -0.03,-0.04 -0.05,-0.03z"/>
      <line class="fil3 str5" x1="1.17" y1="1.49" x2="1.38" y2= "1.51" />
      <path class="fil7 str6" d="M1.13 1.41l-0.08 0.12c-0.03,-0.1 -0.06,-0.22 -0.03,-0.38 0.03,-0.15 0.1,-0.21 0.2,-0.22 0.16,-0.03 0.31,-0.03 0.45,0 0.1,0.04 0.17,0.13 0.19,0.22 0.03,0.14 0.01,0.23 -0.01,0.38 -0.03,-0.03 -0.08,-0.06 -0.12,-0.09 -0.01,-0.06 -0.01,-0.12 0,-0.19 -0.06,0.02 -0.09,0.02 -0.15,0 -0.07,0.06 -0.19,0.06 -0.27,0 -0.05,0.02 -0.11,0.02 -0.17,0 0.01,0.06 0.01,0.11 -0.01,0.16z"/>
      <line class="fil3 str5" x1="1.71" y1="1.49" x2="1.5" y2= "1.51" />
      <path class="fil8" d="M1.62 1.59c-0.01,-0.01 0.03,-0.03 0.07,-0.03 0.03,0.01 0.05,0.02 0.06,0.04 0,0.01 0.01,0.01 0,0.02l-0.02 0.01c-0.03,-0.02 -0.06,-0.03 -0.11,-0.04z"/>
      <path class="fil8" d="M1.3 1.59c0.01,-0.01 -0.03,-0.03 -0.07,-0.03 -0.03,0.01 -0.06,0.02 -0.07,0.04 0,0.01 0,0.01 0,0.02l0.02 0.01c0.03,-0.02 0.07,-0.03 0.12,-0.04z"/>
     </g>
     <path class="fil3 str7" d="M1.54 1.55l-0.04 0.03 -0.01 0.06 -0.01 0.1 0.01 0.05 0.04 0.06c0,0.01 0,0.01 0,0.02l-0.07 0.05c-0.01,0 -0.02,0 -0.03,0l-0.08 -0.05 0 -0.02 0.03 -0.07 0.01 -0.04 -0.01 -0.1 -0.02 -0.06 -0.05 -0.03"/>
     <g>
      <path class="fil9" d="M1.57 1.99l-0.25 0c0,0 0,0 0,0l0.05 0.05c0.02,0.02 0.05,0.02 0.07,0.02 0.03,0.01 0.05,0 0.08,-0.01l0.06 -0.05c0,-0.01 -0.01,-0.01 -0.01,-0.01z"/>
      <g>
       <path class="fil1 str8" d="M1.36 1.97l0 0.03c0,0 0.01,0.01 0.02,0.01 0,0 0.01,0 0.02,0 0,0 0.01,0 0.01,0 0.01,0 0.02,0 0.04,0 0.01,0 0.02,0 0.03,0 0.01,0 0.01,0 0.02,0 0.01,0 0.02,0 0.02,0l0.01 0c0.01,0 0.01,-0.01 0.01,-0.01l0.01 -0.03c-0.07,0.01 -0.13,0.01 -0.19,0z"/>
       <line class="fil3 str9" x1="1.48" y1="1.98" x2="1.48" y2= "2.01" />
       <line class="fil3 str9" x1="1.5" y1="1.98" x2="1.5" y2= "2.01" />
       <line class="fil3 str9" x1="1.52" y1="1.98" x2="1.52" y2= "2.01" />
       <line class="fil3 str9" x1="1.38" y1="1.99" x2="1.38" y2= "2.01" />
       <line class="fil3 str9" x1="1.4" y1="1.99" x2="1.4" y2= "2.01" />
       <line class="fil3 str9" x1="1.41" y1="1.99" x2="1.41" y2= "2.01" />
       <line class="fil3 str9" x1="1.45" y1="1.99" x2="1.45" y2= "2.01" />
       <path class="fil3 str10" d="M1.38 2.07l-0.08 -0.08c-0.01,-0.02 0.01,-0.02 0.03,-0.02 0.09,0.01 0.15,0.01 0.24,0 0.03,0 0.03,0.01 0.02,0.03l-0.07 0.07c-0.05,0.03 -0.1,0.03 -0.14,0z"/>
      </g>
     </g>
     <polyline class="fil3 str4" points="1.34,2.17 1.39,2.15 1.44,2.13 1.51,2.14 1.57,2.17 "/>
     <path class="fil3 str11" d="M1.01 1.64c-0.01,-0.02 -0.02,-0.07 -0.02,-0.12 0.01,-0.04 0.02,-0.02 0.03,-0.01 0.01,0.04 0.01,0.06 0,0.08"/>
     <path class="fil3 str11" d="M1.86 1.58c0,-0.02 0.02,-0.03 0.03,-0.03 0.02,-0.01 0.04,0.01 0.03,0.04 -0.01,0.05 -0.03,0.08 -0.04,0.09"/>
     <path class="fil3 str10" d="M1.55 1.65c0,0.01 0.02,0.01 0.03,0.02 0.03,0.02 0.05,0.04 0.13,-0.01 0.02,-0.02 0.03,-0.01 0.05,-0.01"/>
     <path class="fil3 str10" d="M1.35 1.65c-0.01,0.01 -0.02,0.01 -0.03,0.02 -0.03,0.02 -0.05,0.04 -0.12,-0.01 -0.02,-0.02 -0.03,-0.01 -0.05,-0.01"/>
     <path class="fil3 str10" d="M1.16 1.64c0.01,0 0.02,0.01 0.03,0 0.06,-0.06 0.1,-0.05 0.13,-0.02 0.01,0 0.02,0.02 0.03,0.02"/>
     <path class="fil3 str10" d="M1.76 1.64c-0.01,0 -0.02,0.01 -0.03,0 -0.07,-0.06 -0.11,-0.05 -0.15,-0.02 -0.01,0 -0.02,0.02 -0.03,0.02"/>
     <path class="fil10 str4" d="M1.58 2c-0.11,0.09 -0.2,0.07 -0.28,-0.02 0.07,0.13 0.19,0.15 0.28,0.02z"/>
     <path class="fil11 str4" d="M1.35 1.98c0.01,0 -0.04,-0.01 -0.05,0 0,0 0.01,0 0.01,0.01 0.01,0.02 0.04,0.03 0.05,0.04l-0.01 -0.05z"/>
     <path class="fil11 str4" d="M1.55 1.98c0,-0.01 0.04,-0.01 0.04,0 0.01,0.01 -0.02,0.03 -0.05,0.05l0.01 -0.05z"/>
     <path class="fil1" d="M1.42 2.05c-0.02,0 -0.04,-0.01 -0.05,-0.02 0.02,0 0.01,0.01 0.02,0 0.02,0 0.02,0.01 0.02,0.01 0.02,-0.01 0.03,0 0.04,0 0,0.01 -0.01,-0.01 0.03,0 0.01,0 -0.01,-0.01 0.02,0 0.01,0 -0.01,-0.01 0.03,0 -0.02,0 -0.04,0.01 -0.05,0.02 -0.02,0 -0.04,0 -0.06,-0.01z"/>
     <path class="fil3 str12" d="M1.37 2.04c0.01,-0.01 0.02,-0.01 0.02,0 0.01,-0.01 0.02,-0.01 0.02,0 0.01,-0.01 0.02,-0.01 0.04,0 0.01,-0.01 0.02,-0.01 0.03,0 0,-0.01 0.01,-0.01 0.02,0 0.01,-0.01 0.02,-0.01 0.02,0"/>
     <line class="fil3 str8" x1="1.39" y1="2.04" x2="1.39" y2= "2.05" />
     <line class="fil3 str8" x1="1.41" y1="2.04" x2="1.41" y2= "2.05" />
     <line class="fil3 str8" x1="1.45" y1="2.04" x2="1.45" y2= "2.06" />
     <line class="fil3 str8" x1="1.48" y1="2.04" x2="1.48" y2= "2.06" />
     <line class="fil3 str8" x1="1.5" y1="2.04" x2="1.5" y2= "2.05" />
     <path class="fil10 str13" d="M1.43 1.95c0,-0.01 -0.01,-0.01 -0.02,0 -0.03,0.01 -0.06,0.02 -0.09,0.02 -0.01,0 -0.03,0.01 -0.01,0.01 0.01,0 0.04,0 0.05,0 0.06,0.02 0.12,0.02 0.19,0 0.01,-0.01 0.03,0 0.04,0 0.01,0 0,-0.01 -0.01,-0.01 -0.04,-0.01 -0.08,-0.01 -0.09,-0.02 -0.01,0 -0.02,-0.01 -0.03,0 -0.01,0 -0.02,0 -0.03,0z"/>
     <path class="fil8 str14" d="M1.89 1.33c-0.29,0.09 -0.6,0.09 -0.91,0l0.01 -0.23c0,-0.08 0.08,-0.18 0.15,-0.2 0.19,-0.06 0.4,-0.06 0.54,-0.01 0.09,0.03 0.2,0.12 0.21,0.2l0 0.24z"/>
     <path class="fil11 str15" d="M1.01 1.39l-0.03 -0.07c0.29,0.07 0.59,0.08 0.91,0.01 0,0.02 -0.01,0.04 -0.02,0.06 -0.01,0.03 -0.03,0.05 -0.05,0.07 -0.1,0.09 -0.69,0.1 -0.77,0 -0.02,-0.02 -0.03,-0.04 -0.04,-0.07z"/>
     <path class="fil12 str16" d="M1.89 1.33c-0.3,0.06 -0.58,0.06 -0.91,-0.01l0 0.02c0.31,0.08 0.61,0.08 0.91,0.01l0 -0.02z"/>
     <path class="fil3 str14" d="M0.98 1.32c0.07,-0.25 0.17,-0.46 0.43,-0.46"/>
     <path class="fil3 str14" d="M1.45 0.86c0.25,-0.01 0.37,0.15 0.44,0.47"/>
     <ellipse class="fil9 str17" cx="1.43" cy="0.85" rx="0.04" ry="0.01"/>
    </g>
    <g>
     <polygon class="fil1 str1" points="2.84,3.15 2.64,3.5 2.5,3.28 2.78,3 "/>
     <polygon class="fil1 str1" points="2.14,3.16 2.37,3.49 2.49,3.29 2.19,3 "/>
     <path class="fil1 str1" d="M2.14 3.15l0.23 0.36 0.04 -0.06 0.04 0.04 -0.01 0.56c-0.29,0 -0.57,0 -0.86,0 -0.04,0.01 -0.06,-0.04 -0.06,-0.07 0,-0.08 0.02,-0.31 0.04,-0.52 0,-0.09 0.02,-0.09 0.09,-0.11 0.09,-0.03 0.47,-0.19 0.49,-0.2z"/>
     <path class="fil2 str1" d="M2.84 3.15l-0.2 0.36 -0.04 -0.06 -0.04 0.03 0.02 0.57c0.28,0 0.44,0.01 0.73,0.01 0.08,0 0.1,-0.02 0.1,-0.08 -0.01,-0.08 -0.02,-0.31 -0.04,-0.52 -0.01,-0.06 -0.01,-0.09 -0.07,-0.11 -0.1,-0.04 -0.43,-0.19 -0.46,-0.2z"/>
     <path class="fil2 str2" d="M3.34 4.06l-1.76 0c-0.04,0 -0.08,-0.03 -0.07,-0.09 0.01,-0.18 0.03,-0.35 0.04,-0.53 0.01,-0.05 0.03,-0.07 0.06,-0.09l0.54 -0.2 0.05 -0.16 0.3 0.29 0.27 -0.29 0.07 0.16 0.48 0.21c0.03,0.01 0.05,0.04 0.05,0.08 0.02,0.18 0.03,0.36 0.05,0.53 0.01,0.05 -0.03,0.09 -0.08,0.09z"/>
     <polyline class="fil3 str2" points="2.15,3.16 2.37,3.5 2.49,3.29 2.64,3.5 2.84,3.15 "/>
     <polygon class="fil4 str3" points="2.59,3.45 2.49,3.3 2.41,3.45 2.45,3.49 2.44,4.06 2.6,4.06 2.56,3.49 "/>
     <path class="fil5 str4" d="M2.26 3.03l0.24 0.23 0.21 -0.23 0 -0.1c-0.05,0.05 -0.1,0.1 -0.14,0.15 -0.03,0.03 -0.11,0.03 -0.15,0l-0.16 -0.15 0 0.1z"/>
     <path class="fil5 str4" d="M2.92 2.36c-0.01,0 -0.02,0.02 -0.03,0.04l0.01 -0.05 -0.11 -0.08 0 -0.19 -0.16 0 -0.14 0.04 -0.13 -0.05 -0.18 0.01 0 0.15 -0.08 0.11c-0.01,-0.01 -0.02,-0.03 -0.03,-0.04 -0.01,-0.01 -0.02,-0.01 -0.03,-0.01 -0.01,0.01 -0.02,0.02 -0.03,0.04 0,0.03 0,0.05 0,0.08l0.02 0.09c0.01,0.02 0.02,0.03 0.03,0.02 0.01,0.01 0.02,0 0.03,-0.02 0.01,0.07 0.02,0.14 0.04,0.2 0.03,0.08 0.07,0.16 0.12,0.23 0.06,0.05 0.11,0.1 0.17,0.14 0.05,0.05 0.1,0.05 0.15,0.01 0.07,-0.07 0.15,-0.15 0.21,-0.22 0.03,-0.04 0.06,-0.09 0.07,-0.14 0.02,-0.05 0.03,-0.11 0.04,-0.17 0,0.01 0.01,0.02 0.01,0.02 0.01,0 0.03,-0.01 0.04,-0.02 0.02,-0.05 0.04,-0.09 0.04,-0.14 0.01,-0.02 0,-0.03 -0.02,-0.04 -0.01,-0.01 -0.03,-0.01 -0.04,-0.01z"/>
     <g>
      <path class="fil6" d="M2.67 2.42c-0.02,0.01 -0.03,0.02 -0.03,0.05 0.01,0.03 0.03,0.04 0.05,0.04 0.05,-0.01 0.04,-0.1 -0.02,-0.09z"/>
      <path class="fil6" d="M2.31 2.42c-0.06,0.01 -0.04,0.1 0.01,0.09 0.02,-0.01 0.04,-0.03 0.04,-0.06 -0.01,-0.02 -0.03,-0.03 -0.05,-0.03z"/>
      <line class="fil3 str5" x1="2.21" y1="2.31" x2="2.43" y2= "2.33" />
      <path class="fil7 str6" d="M2.18 2.23l-0.09 0.12c-0.03,-0.1 -0.05,-0.22 -0.02,-0.37 0.02,-0.15 0.1,-0.21 0.2,-0.23 0.16,-0.03 0.31,-0.02 0.44,0 0.11,0.04 0.18,0.14 0.2,0.22 0.03,0.15 0.01,0.24 -0.01,0.38 -0.04,-0.03 -0.08,-0.06 -0.12,-0.09 -0.01,-0.06 -0.01,-0.12 0,-0.18 -0.06,0.01 -0.09,0.01 -0.15,0 -0.07,0.06 -0.19,0.06 -0.28,0 -0.04,0.01 -0.1,0.01 -0.16,0 0.01,0.05 0.01,0.1 -0.01,0.15z"/>
      <line class="fil3 str5" x1="2.76" y1="2.31" x2="2.55" y2= "2.33" />
      <path class="fil8" d="M2.67 2.42c-0.01,-0.02 0.02,-0.04 0.07,-0.03 0.03,0 0.05,0.01 0.06,0.03 0,0.01 0.01,0.01 0,0.02l-0.02 0.01c-0.03,-0.02 -0.07,-0.03 -0.11,-0.03z"/>
      <path class="fil8" d="M2.35 2.42c0.01,-0.02 -0.03,-0.04 -0.07,-0.03 -0.04,0 -0.06,0.01 -0.07,0.03 0,0.01 0,0.01 0,0.02l0.02 0.01c0.03,-0.02 0.07,-0.03 0.12,-0.03z"/>
     </g>
     <path class="fil3 str7" d="M2.58 2.38l-0.03 0.03 -0.01 0.05 -0.01 0.1 0.01 0.05 0.04 0.07c0,0 0,0.01 0,0.01l-0.07 0.05c-0.01,0.01 -0.02,0.01 -0.03,0l-0.08 -0.05 0 -0.02 0.03 -0.06 0.01 -0.05 -0.02 -0.09 -0.01 -0.07 -0.05 -0.03"/>
     <g>
      <path class="fil9" d="M2.62 2.81l-0.25 0c-0.01,0 -0.01,0 0,0.01l0.05 0.05c0.02,0.01 0.05,0.02 0.07,0.02 0.03,0 0.05,-0.01 0.07,-0.02l0.06 -0.05c0.01,-0.01 0,0 0,-0.01z"/>
      <g>
       <path class="fil1 str8" d="M2.41 2.8l0 0.02c0,0.01 0,0.01 0.01,0.01 0.01,0 0.02,0 0.02,0 0.01,0.01 0.02,0.01 0.02,0 0.01,0.01 0.02,0.01 0.03,0 0.02,0.01 0.03,0.01 0.04,0 0,0.01 0.01,0.01 0.02,0 0.01,0 0.01,0 0.02,0l0.01 0c0.01,0 0.01,0 0.01,-0.01l0 -0.02c-0.06,0 -0.12,0 -0.18,0z"/>
       <line class="fil3 str9" x1="2.53" y1="2.81" x2="2.53" y2= "2.83" />
       <line class="fil3 str9" x1="2.55" y1="2.81" x2="2.55" y2= "2.83" />
       <line class="fil3 str9" x1="2.57" y1="2.81" x2="2.57" y2= "2.83" />
       <line class="fil3 str9" x1="2.42" y1="2.81" x2="2.42" y2= "2.83" />
       <line class="fil3 str9" x1="2.44" y1="2.81" x2="2.44" y2= "2.83" />
       <line class="fil3 str9" x1="2.46" y1="2.81" x2="2.46" y2= "2.83" />
       <line class="fil3 str9" x1="2.49" y1="2.81" x2="2.49" y2= "2.83" />
       <path class="fil3 str10" d="M2.42 2.89l-0.07 -0.08c-0.01,-0.01 0.01,-0.02 0.03,-0.02 0.08,0.01 0.15,0.01 0.24,0 0.03,0.01 0.03,0.01 0.01,0.03l-0.06 0.07c-0.05,0.03 -0.1,0.04 -0.15,0z"/>
      </g>
     </g>
     <polyline class="fil3 str4" points="2.38,2.99 2.44,2.97 2.49,2.96 2.55,2.97 2.62,3 "/>
     <path class="fil3 str11" d="M2.06 2.47c-0.02,-0.03 -0.02,-0.07 -0.02,-0.13 0.01,-0.04 0.02,-0.02 0.03,0 0.01,0.03 0.01,0.05 0,0.08"/>
     <path class="fil3 str11" d="M2.91 2.41c0,-0.02 0.01,-0.04 0.03,-0.04 0.02,0 0.04,0.02 0.03,0.04 -0.01,0.06 -0.03,0.08 -0.05,0.09"/>
     <path class="fil3 str10" d="M2.59 2.47c0.01,0.01 0.03,0.02 0.04,0.02 0.03,0.02 0.05,0.05 0.12,-0.01 0.03,-0.02 0.03,0 0.06,-0.01"/>
     <path class="fil3 str10" d="M2.4 2.47c-0.01,0.01 -0.02,0.02 -0.04,0.02 -0.02,0.02 -0.04,0.05 -0.11,-0.01 -0.03,-0.02 -0.03,0 -0.05,-0.01"/>
     <path class="fil3 str10" d="M2.2 2.47c0.01,0 0.03,0 0.03,-0.01 0.06,-0.05 0.11,-0.05 0.14,-0.02 0.01,0.01 0.02,0.02 0.03,0.02"/>
     <path class="fil3 str10" d="M2.81 2.47c-0.01,0 -0.02,0 -0.03,-0.01 -0.07,-0.05 -0.12,-0.05 -0.15,-0.02 -0.01,0.01 -0.02,0.02 -0.04,0.02"/>
     <path class="fil10 str4" d="M2.62 2.83c-0.1,0.08 -0.19,0.06 -0.27,-0.02 0.07,0.13 0.19,0.15 0.27,0.02z"/>
     <path class="fil11 str4" d="M2.4 2.8c0.01,0 -0.04,0 -0.05,0 0,0 0,0 0.01,0.01 0.01,0.02 0.04,0.04 0.05,0.05l-0.01 -0.06z"/>
     <path class="fil11 str4" d="M2.6 2.8c0,-0.01 0.04,0 0.04,0.01 0,0.01 -0.03,0.03 -0.05,0.04l0.01 -0.05z"/>
     <path class="fil1" d="M2.47 2.88c-0.02,-0.01 -0.04,-0.01 -0.05,-0.02 0.02,-0.01 0.01,0 0.02,0 0.02,-0.01 0.02,0 0.02,0 0.02,-0.01 0.03,0 0.03,0 0.01,0.01 0,-0.01 0.04,0 0,0.01 -0.01,0 0.02,0 0.01,0.01 -0.01,0 0.02,0 -0.01,0.01 -0.03,0.01 -0.05,0.02 -0.01,0 -0.03,0 -0.05,0z"/>
     <path class="fil3 str12" d="M2.42 2.86c0.01,0 0.02,0 0.02,0 0.01,-0.01 0.01,0 0.02,0 0.01,-0.01 0.02,0 0.03,0 0.02,0 0.03,0 0.04,0 0,0 0.01,0 0.02,0 0.01,0 0.02,0 0.02,0"/>
     <line class="fil3 str8" x1="2.44" y1="2.86" x2="2.44" y2= "2.87" />
     <line class="fil3 str8" x1="2.46" y1="2.86" x2="2.46" y2= "2.88" />
     <line class="fil3 str8" x1="2.49" y1="2.86" x2="2.49" y2= "2.88" />
     <line class="fil3 str8" x1="2.53" y1="2.86" x2="2.53" y2= "2.88" />
     <line class="fil3 str8" x1="2.55" y1="2.86" x2="2.55" y2= "2.87" />
     <path class="fil10 str13" d="M2.48 2.77c-0.01,-0.01 -0.01,-0.01 -0.03,0 -0.02,0.01 -0.05,0.02 -0.08,0.02 -0.01,0 -0.03,0.02 -0.01,0.01 0.01,0 0.04,0 0.05,0.01 0.06,0.01 0.12,0.01 0.18,-0.01 0.02,0 0.03,0 0.04,0 0.01,0 0.01,0 0,0 -0.04,-0.01 -0.08,-0.02 -0.09,-0.03 -0.01,0 -0.02,-0.01 -0.03,0 -0.01,0 -0.02,0 -0.03,0z"/>
     <path class="fil8 str14" d="M2.94 2.15c-0.3,0.1 -0.6,0.09 -0.91,0l0.01 -0.23c0,-0.08 0.08,-0.18 0.15,-0.2 0.19,-0.06 0.4,-0.06 0.54,-0.01 0.09,0.03 0.2,0.13 0.2,0.21l0.01 0.23z"/>
     <path class="fil11 str15" d="M2.05 2.21l-0.02 -0.07c0.29,0.07 0.59,0.08 0.91,0.02 0,0.02 -0.01,0.04 -0.02,0.06 -0.01,0.02 -0.03,0.04 -0.05,0.06 -0.11,0.09 -0.69,0.11 -0.77,0 -0.02,-0.02 -0.03,-0.04 -0.05,-0.07z"/>
     <path class="fil12 str16" d="M2.94 2.15c-0.3,0.06 -0.58,0.06 -0.91,-0.01l0 0.02c0.31,0.09 0.61,0.08 0.91,0.01l0 -0.02z"/>
     <path class="fil3 str14" d="M2.03 2.14c0.07,-0.24 0.16,-0.45 0.43,-0.46"/>
     <path class="fil3 str14" d="M2.5 1.68c0.24,-0.01 0.37,0.16 0.44,0.47"/>
     <ellipse class="fil9 str17" cx="2.48" cy="1.68" rx="0.04" ry="0.01"/>
    </g>
   </g>
  </g>
 </g>
</svg>
