<?xml version="1.0" encoding="UTF-8"?>
<!DOCTYPE svg PUBLIC "-//W3C//DTD SVG 1.1//EN" "http://www.w3.org/Graphics/SVG/1.1/DTD/svg11.dtd">
<!-- Creator: CorelDRAW 2021 (64 Bit) -->
<svg xmlns="http://www.w3.org/2000/svg" xml:space="preserve" width="530px" height="530px" version="1.1" style="shape-rendering:geometricPrecision; text-rendering:geometricPrecision; image-rendering:optimizeQuality; fill-rule:evenodd; clip-rule:evenodd"
viewBox="0 0 5.56 5.56"
 xmlns:xlink="http://www.w3.org/1999/xlink"
 xmlns:xodm="http://www.corel.com/coreldraw/odm/2003">
 <defs>
  <style type="text/css">
   <![CDATA[
    .str0 {stroke:#B8B4B6;stroke-width:0.31;stroke-miterlimit:22.9256}
    .str3 {stroke:black;stroke-width:0.05;stroke-miterlimit:22.9256}
    .str1 {stroke:#A9ABAE;stroke-width:0.02;stroke-miterlimit:22.9256}
    .str2 {stroke:red;stroke-width:0.02;stroke-miterlimit:22.9256}
    .fil9 {fill:black}
    .fil5 {fill:#53331D}
    .fil7 {fill:#727376}
    .fil3 {fill:#86B0C0}
    .fil2 {fill:#9D720B}
    .fil4 {fill:#B8E3E9}
    .fil6 {fill:#E2A610}
    .fil8 {fill:#ED3237}
    .fil1 {fill:#FCD532}
    .fil10 {fill:red}
    .fil0 {fill:white}
   ]]>
  </style>
 </defs>
 <g id="Camada_x0020_1">
  <metadata id="CorelCorpID_0Corel-Layer"/>
  <g id="_2787489545120">
   <path class="fil0 str0" d="M0.39 0.16l4.78 0c0.13,0 0.23,0.11 0.23,0.26l0 4.72c0,0.14 -0.1,0.26 -0.23,0.26l-4.78 0c-0.12,0 -0.23,-0.12 -0.23,-0.26 0,-0.57 -0.01,-4.57 0,-4.78 0,-0.11 0.14,-0.2 0.23,-0.2z"/>
   <g id="_2412161610288">
    <g>
     <g>
      <path class="fil1" d="M4.47 2.51c0.08,-0.01 0.16,0.02 0.2,0.08 0.02,0.04 0,0.09 -0.03,0.11 -0.12,0.12 -0.4,-0.01 -0.27,-0.14 0.03,-0.03 0.06,-0.04 0.1,-0.05l0 0zm-0.95 -0.2c-0.06,0.01 -0.12,0.02 -0.18,0.04 -0.09,0.02 -0.19,0.05 -0.26,0.08 -0.05,0.02 -0.11,0.05 -0.16,0.08 -0.05,0.04 -0.04,0.04 -0.06,0.07 0.01,0.02 0.01,0.03 0.01,0.05 0.01,0.04 0.03,0.07 0.05,0.1 0.02,0.04 0.05,0.07 0.1,0.1 0.07,0.05 0.17,0.09 0.25,0.11 0.37,0.1 1.19,0.12 1.53,-0.1 0.07,-0.05 0.14,-0.12 0.15,-0.26 0,-0.02 -0.01,-0.03 -0.02,-0.04 -0.01,-0.01 -0.02,-0.02 -0.03,-0.03 -0.02,-0.01 -0.05,-0.03 -0.08,-0.04 -0.23,-0.12 -0.66,-0.21 -0.9,-0.21 -0.14,0.01 -0.26,0.03 -0.4,0.05l0 0z"/>
      <path class="fil2" d="M4.47 2.51c-0.04,0.01 -0.07,0.02 -0.1,0.05 -0.13,0.13 0.15,0.26 0.27,0.14 0.03,-0.02 0.05,-0.07 0.03,-0.11 -0.04,-0.06 -0.12,-0.09 -0.2,-0.08l0 0z"/>
      <path class="fil2" d="M3.3 2.51c-0.04,0.01 -0.07,0.02 -0.1,0.05 -0.13,0.13 0.15,0.26 0.27,0.14 0.03,-0.02 0.05,-0.07 0.02,-0.11 -0.03,-0.06 -0.11,-0.09 -0.19,-0.08l0 0z"/>
     </g>
     <g>
      <g>
       <path class="fil3" d="M3.55 1.07c-0.01,0.11 -0.06,0.1 -0.11,0.2 -0.06,0.13 -0.11,0.33 -0.14,0.49 -0.01,0.04 -0.01,0.11 -0.04,0.12 -0.02,0.01 -0.03,-0.02 -0.03,-0.04 -0.01,-0.02 -0.01,-0.05 -0.01,-0.08 0,-0.28 0.02,-0.59 0.19,-0.76 0.09,-0.08 0.15,-0.03 0.14,0.07l0 0zm-0.38 0.77l0 0.34c0,0.01 0,0.01 0.01,0.02 0.03,0.03 0.09,0.06 0.13,0.07 0.08,0.01 0.14,-0.03 0.2,-0.07 0.01,-0.02 0.01,-0.02 0.01,-0.05 0,-0.05 0,-0.09 0,-0.14 0,-0.08 0,-0.18 0,-0.26 0,-0.15 0.01,0.12 0.01,-0.05 0,-0.08 0,-0.11 0.02,-0.18 0.09,-0.34 0.35,-0.51 0.59,-0.36 0.14,0.08 0.25,0.3 0.25,0.49 0,0.14 0,0.28 0,0.42 0.05,0.03 0.1,0.05 0.16,0.05 0.05,0 0.13,-0.02 0.16,-0.05 0,-0.11 0,-0.22 0.01,-0.33 0,-0.23 -0.09,-0.56 -0.2,-0.72 -0.06,-0.08 -0.07,-0.1 -0.13,-0.16 -0.04,-0.05 -0.1,-0.1 -0.15,-0.13 -0.2,-0.13 -0.4,-0.14 -0.61,-0.02 -0.06,0.03 -0.12,0.06 -0.16,0.12 -0.05,0.07 -0.07,0.08 -0.12,0.17 -0.02,0.04 -0.03,0.05 -0.05,0.09 -0.02,0.04 -0.03,0.07 -0.05,0.11 -0.05,0.16 -0.09,0.34 -0.08,0.54 0,0.22 0,-0.11 0,0.1l0 0z"/>
       <path class="fil4" d="M3.55 1.07c0.01,-0.1 -0.05,-0.15 -0.14,-0.07 -0.17,0.17 -0.19,0.48 -0.19,0.76 0,0.03 0,0.06 0.01,0.08 0,0.02 0.01,0.05 0.03,0.04 0.03,-0.01 0.03,-0.08 0.04,-0.12 0.03,-0.16 0.08,-0.36 0.14,-0.49 0.05,-0.1 0.1,-0.09 0.11,-0.2l0 0z"/>
      </g>
      <g>
       <path class="fil5" d="M3.82 3.41l-0.01 0.01c-0.02,0.03 -0.08,0.06 -0.08,0.19 0.01,0.08 0.05,0.16 0.09,0.18 -0.01,0.08 -0.12,0.38 -0.11,0.43 0.01,0.03 0.05,0.02 0.08,0.02l0.21 0c0.08,0 0.08,-0.01 0.04,-0.14l-0.06 -0.2c-0.01,-0.03 -0.02,-0.07 -0.03,-0.1 0.03,-0.03 0.09,-0.06 0.09,-0.19 0,-0.09 -0.03,-0.14 -0.08,-0.19 0,0 0,0 0,0l-0.01 -0.01c-0.02,0 -0.04,-0.01 -0.06,-0.01 -0.03,0 -0.05,0.01 -0.07,0.01l0 0z"/>
       <path class="fil2" d="M3.95 3.41l0.01 0.01c0,0 0,0 0,0 0.05,0.05 0.08,0.1 0.08,0.19 0,0.13 -0.06,0.16 -0.09,0.19 0.01,0.03 0.02,0.07 0.03,0.1l0.06 0.2c0.04,0.13 0.04,0.14 -0.04,0.14l-0.21 0c-0.03,0 -0.07,0.01 -0.08,-0.02 -0.01,-0.05 0.1,-0.35 0.11,-0.43 -0.04,-0.02 -0.08,-0.1 -0.09,-0.18 0,-0.13 0.06,-0.16 0.08,-0.19l0.01 -0.01 -0.01 0.01c-0.08,0.01 -0.19,0.18 -0.09,0.35 0.03,0.05 0.04,0.05 0.08,0.08 -0.03,0.08 -0.09,0.26 -0.12,0.35 -0.01,0.03 -0.02,0.06 -0.03,0.09 -0.02,0.05 0,0.07 0.04,0.07 0.1,0 0.27,0 0.39,0 0.03,0 0.06,-0.01 0.05,-0.06 0,-0.01 -0.02,-0.07 -0.03,-0.09 -0.02,-0.05 -0.04,-0.11 -0.06,-0.17 -0.01,-0.04 -0.06,-0.16 -0.06,-0.18 0.06,-0.04 0.13,-0.11 0.12,-0.24 -0.01,-0.11 -0.07,-0.18 -0.15,-0.21l0 0z"/>
       <g>
        <path class="fil6" d="M3.81 3.42l0.01 -0.01c0.02,0 0.04,-0.01 0.07,-0.01 0.02,0 0.04,0.01 0.06,0.01 0.08,0.03 0.14,0.1 0.15,0.21 0.01,0.13 -0.06,0.2 -0.12,0.24 0,0.02 0.05,0.14 0.06,0.18 0.02,0.06 0.04,0.12 0.06,0.17 0.01,0.02 0.03,0.08 0.03,0.09 0.01,0.05 -0.02,0.06 -0.05,0.06 -0.12,0 -0.29,0 -0.39,0 -0.04,0 -0.06,-0.02 -0.04,-0.07 0.01,-0.03 0.02,-0.06 0.03,-0.09 0.03,-0.09 0.09,-0.27 0.12,-0.35 -0.04,-0.03 -0.05,-0.03 -0.08,-0.08 -0.1,-0.17 0.01,-0.34 0.09,-0.35l0 0zm1.14 -0.84c-0.01,0.14 -0.08,0.21 -0.15,0.26 -0.34,0.22 -1.16,0.2 -1.52,0.1 -0.09,-0.02 -0.19,-0.06 -0.26,-0.11 -0.05,-0.03 -0.08,-0.06 -0.1,-0.1 -0.02,-0.03 -0.04,-0.06 -0.05,-0.1 0,-0.02 0,-0.03 -0.01,-0.05 0,0.02 0,0.44 0,0.46 0,0.15 -0.01,0.3 -0.01,0.45 0,0.31 0,0.61 0,0.91 0,0.12 -0.02,0.1 0.04,0.18 0.02,0.02 0.07,0.06 0.11,0.08 0.08,0.05 0.17,0.09 0.26,0.12 0.41,0.11 0.87,0.11 1.27,-0.01 0.09,-0.02 0.19,-0.06 0.27,-0.11 0.04,-0.02 0.07,-0.05 0.11,-0.08 0.06,-0.07 0.05,-0.07 0.05,-0.16 0,-0.31 0,-0.62 0,-0.92 0,-0.01 0,-0.9 -0.01,-0.92l0 0z"/>
        <g>
         <polygon class="fil7 str1" points="3.57,2.57 3.87,2.86 4.15,2.58 4.05,3.05 4.34,3.34 3.98,3.33 3.88,3.79 3.77,3.32 3.41,3.32 3.69,3.04 "/>
         <polygon class="fil8 str2" points="3.87,2.19 3.91,3.03 4.49,2.83 3.94,3.15 4.25,3.87 3.87,3.23 3.49,3.87 3.8,3.15 3.25,2.83 3.83,3.03 "/>
        </g>
       </g>
      </g>
     </g>
    </g>
    <g>
     <g>
      <path class="fil9" d="M0.88 1.95c0,0.03 0,0.06 0,0.09 0,0.21 0.13,0.44 0.27,0.59 0.05,0.06 0.1,0.11 0.17,0.14 0.11,0.06 0.13,0.04 0.13,0.1 0.01,0.13 0.02,0.22 0.02,0.35l0.03 0.36c0,0.07 0.07,1.03 0.07,1.05 0.05,-0.01 0.09,-0.02 0.14,-0.03 0.15,-0.03 0.31,-0.15 0.36,-0.31 0.03,-0.1 -0.03,-0.19 0.01,-0.29l0.12 -0.31c0,-0.01 0.01,0 0,-0.01 -0.01,-0.01 0,0 -0.01,-0.01 -0.05,-0.09 -0.12,-0.24 -0.17,-0.33 0.07,-0.09 0.19,-0.23 0.2,-0.33 0,-0.05 -0.01,-0.1 -0.02,-0.16 -0.01,-0.05 -0.01,-0.11 -0.02,-0.14 0.14,-0.1 0.19,-0.14 0.3,-0.32 0.07,-0.11 0.12,-0.26 0.12,-0.37 0.01,-0.13 0.01,-0.24 -0.02,-0.36 -0.04,-0.12 -0.08,-0.23 -0.17,-0.35 -0.09,-0.12 -0.2,-0.21 -0.33,-0.27 -0.12,-0.05 -0.23,-0.06 -0.33,-0.06l-0.17 0.02c-0.14,0.03 -0.29,0.12 -0.4,0.24 -0.01,0.01 -0.06,0.06 -0.07,0.08l0.02 -0.01c0.04,0.04 0.04,0.06 0.1,0.09 0.1,-0.09 0.12,-0.17 0.28,-0.24 0.09,-0.05 0.2,-0.07 0.29,-0.07 0.07,0 0.24,0.03 0.31,0.07 0.2,0.13 0.36,0.34 0.4,0.59 0.01,0.09 0.02,0.24 0,0.33 -0.07,0.26 -0.23,0.46 -0.45,0.57 -0.01,0.02 0,0.06 0.01,0.09l0.03 0.25c0.01,0.03 -0.02,0.05 -0.04,0.09l-0.19 0.29c0.06,0.08 0.11,0.2 0.17,0.3 0.03,0.05 0.02,0.02 -0.02,0.16l-0.08 0.24c-0.01,0.05 -0.01,0.04 0,0.08 0,0.02 0.01,0.15 0,0.16 -0.04,0.12 -0.2,0.2 -0.27,0.2 -0.01,-0.02 -0.01,-0.03 -0.01,-0.06 0,-0.13 -0.01,-0.25 -0.01,-0.39 -0.01,-0.04 0,-0.08 -0.01,-0.11l-0.03 -0.57c0,-0.03 0,-0.08 0,-0.11 0,-0.04 0,-0.08 0,-0.11l-0.02 -0.23c0,-0.08 0,-0.15 0,-0.23 -0.04,-0.02 -0.09,-0.01 -0.12,-0.02 -0.02,0 -0.1,-0.04 -0.12,-0.05 -0.18,-0.1 -0.28,-0.29 -0.32,-0.5 -0.01,-0.02 -0.01,-0.04 -0.01,-0.06 -0.01,-0.04 -0.01,-0.09 -0.02,-0.12 -0.02,0 -0.03,0 -0.06,0 -0.02,0.01 -0.03,0.02 -0.06,0l0 0z"/>
      <path class="fil9 str3" d="M1.44 1.4c0.07,-0.12 0.2,-0.14 0.29,-0.09 0.12,0.07 0.13,0.23 0.07,0.33 -0.15,0.27 -0.52,0.05 -0.36,-0.24zm-0.03 -0.03c-0.08,0.13 -0.07,0.3 0.06,0.39 0.11,0.08 0.28,0.05 0.36,-0.09 0.08,-0.12 0.06,-0.3 -0.07,-0.39 -0.11,-0.07 -0.27,-0.05 -0.35,0.09l0 0z"/>
      <path class="fil9" d="M0.89 1.58c-0.09,0.16 0.14,0.33 0.23,0.14 0.04,-0.06 0.03,-0.15 -0.04,-0.2 -0.06,-0.03 -0.14,-0.02 -0.19,0.06l0 0z"/>
     </g>
     <polygon class="fil10 str2" points="0.59,3.58 1.78,2.88 1.22,3.69 4.1,1.15 2.59,2.2 3.24,1.41 "/>
    </g>
   </g>
  </g>
 </g>
</svg>
