<?xml version="1.0" encoding="UTF-8"?>
<!DOCTYPE svg PUBLIC "-//W3C//DTD SVG 1.1//EN" "http://www.w3.org/Graphics/SVG/1.1/DTD/svg11.dtd">
<!-- Creator: CorelDRAW 2021 (64 Bit) -->
<svg xmlns="http://www.w3.org/2000/svg" xml:space="preserve" width="530px" height="530px" version="1.1" style="shape-rendering:geometricPrecision; text-rendering:geometricPrecision; image-rendering:optimizeQuality; fill-rule:evenodd; clip-rule:evenodd"
viewBox="0 0 5.55 5.55"
 xmlns:xlink="http://www.w3.org/1999/xlink"
 xmlns:xodm="http://www.corel.com/coreldraw/odm/2003">
 <defs>
  <style type="text/css">
   <![CDATA[
    .str0 {stroke:#B8B4B6;stroke-width:0.31;stroke-miterlimit:22.9256}
    .str1 {stroke:red;stroke-width:0.37;stroke-miterlimit:22.9256}
    .fil1 {fill:none}
    .fil5 {fill:black}
    .fil3 {fill:#999999}
    .fil0 {fill:white}
    .fil4 {fill:black;fill-rule:nonzero}
    .fil2 {fill:#999999;fill-rule:nonzero}
   ]]>
  </style>
 </defs>
 <g id="Camada_x0020_1">
  <metadata id="CorelCorpID_0Corel-Layer"/>
  <g id="_2787847005824">
   <path class="fil0 str0" d="M0.39 0.16l4.78 0c0.12,0 0.23,0.11 0.23,0.26l0 4.71c0,0.15 -0.11,0.27 -0.23,0.27l-4.78 0c-0.12,0 -0.23,-0.12 -0.23,-0.27 0,-0.56 -0.01,-4.56 0,-4.77 0,-0.11 0.14,-0.2 0.23,-0.2z"/>
   <g>
    <path class="fil1 str1" d="M1.16 0.74l3.24 0c0.08,0 0.16,0.07 0.16,0.16l0 2.09c0,0.09 -0.08,0.16 -0.16,0.16l-3.24 0c-0.09,0 -0.16,-0.07 -0.16,-0.16l0 -2.09c0,-0.09 0.07,-0.16 0.16,-0.16zm-0.14 0.07l1.75 1.09 1.76 -1.09"/>
    <path class="fil2" d="M1.81 4.81l0.15 0c-0.05,0.1 -0.12,0.18 -0.22,0.24 -0.12,0.06 -0.26,0.09 -0.42,0.09 -0.16,0 -0.3,-0.02 -0.42,-0.08 -0.11,-0.05 -0.2,-0.13 -0.26,-0.24 -0.05,-0.1 -0.08,-0.22 -0.08,-0.34 0,-0.14 0.03,-0.27 0.09,-0.39 0.07,-0.11 0.16,-0.2 0.27,-0.26 0.11,-0.06 0.24,-0.09 0.38,-0.09 0.13,0 0.24,0.02 0.33,0.07 0.1,0.05 0.17,0.12 0.22,0.2 0.05,0.09 0.07,0.19 0.07,0.29 0,0.13 -0.03,0.24 -0.11,0.34 -0.1,0.12 -0.22,0.19 -0.37,0.19 -0.04,0 -0.07,-0.01 -0.09,-0.02 -0.02,-0.02 -0.03,-0.04 -0.04,-0.06 -0.06,0.05 -0.12,0.08 -0.2,0.08 -0.08,0 -0.15,-0.03 -0.2,-0.09 -0.05,-0.05 -0.08,-0.13 -0.08,-0.22 0,-0.11 0.03,-0.22 0.1,-0.31 0.08,-0.11 0.17,-0.17 0.3,-0.17 0.08,0 0.15,0.03 0.19,0.1l0.02 -0.08 0.19 0 -0.11 0.52c-0.01,0.03 -0.01,0.05 -0.01,0.06 0,0.01 0,0.02 0.01,0.03 0,0.01 0.01,0.01 0.02,0.01 0.02,0 0.05,-0.02 0.09,-0.04 0.05,-0.04 0.09,-0.09 0.12,-0.15 0.03,-0.06 0.04,-0.13 0.04,-0.2 0,-0.12 -0.04,-0.22 -0.13,-0.3 -0.08,-0.08 -0.2,-0.12 -0.36,-0.12 -0.13,0 -0.24,0.03 -0.33,0.08 -0.1,0.06 -0.16,0.13 -0.21,0.23 -0.05,0.1 -0.07,0.2 -0.07,0.31 0,0.1 0.03,0.19 0.08,0.28 0.05,0.08 0.12,0.14 0.22,0.18 0.09,0.04 0.2,0.06 0.32,0.06 0.11,0 0.21,-0.02 0.3,-0.05 0.08,-0.03 0.15,-0.08 0.2,-0.15zm-0.79 -0.3c0,0.07 0.01,0.11 0.04,0.14 0.02,0.03 0.05,0.04 0.09,0.04 0.03,0 0.05,0 0.08,-0.02 0.02,-0.01 0.04,-0.02 0.05,-0.04 0.03,-0.03 0.05,-0.07 0.07,-0.13 0.02,-0.06 0.03,-0.11 0.03,-0.16 0,-0.06 -0.02,-0.1 -0.04,-0.13 -0.03,-0.03 -0.06,-0.04 -0.1,-0.04 -0.04,0 -0.08,0.02 -0.11,0.05 -0.04,0.03 -0.06,0.08 -0.08,0.14 -0.02,0.06 -0.03,0.11 -0.03,0.15z"/>
    <path id="_1" class="fil2" d="M2.06 4.05l0.19 0 0 0.11c0.07,-0.08 0.15,-0.12 0.24,-0.12 0.05,0 0.09,0.01 0.13,0.03 0.03,0.02 0.06,0.05 0.09,0.09 0.03,-0.04 0.07,-0.07 0.11,-0.09 0.04,-0.02 0.08,-0.03 0.12,-0.03 0.06,0 0.11,0.01 0.15,0.03 0.04,0.02 0.07,0.06 0.09,0.1 0.01,0.04 0.02,0.09 0.02,0.16l0 0.5 -0.21 0 0 -0.44c0,-0.08 0,-0.13 -0.02,-0.15 -0.02,-0.03 -0.05,-0.05 -0.09,-0.05 -0.03,0 -0.05,0.01 -0.08,0.03 -0.02,0.02 -0.04,0.04 -0.05,0.08 -0.01,0.03 -0.02,0.08 -0.02,0.16l0 0.37 -0.2 0 0 -0.43c0,-0.07 -0.01,-0.12 -0.01,-0.14 -0.01,-0.02 -0.02,-0.04 -0.04,-0.05 -0.01,-0.01 -0.03,-0.02 -0.06,-0.02 -0.03,0 -0.06,0.01 -0.09,0.03 -0.02,0.02 -0.04,0.04 -0.05,0.07 -0.01,0.03 -0.02,0.09 -0.02,0.16l0 0.38 -0.2 0 0 -0.78z"/>
    <path id="_2" class="fil2" d="M3.55 4.29l-0.18 -0.03c0.02,-0.08 0.06,-0.13 0.11,-0.17 0.05,-0.04 0.12,-0.05 0.22,-0.05 0.09,0 0.16,0.01 0.21,0.03 0.04,0.02 0.07,0.05 0.09,0.08 0.02,0.03 0.03,0.1 0.03,0.18l0 0.24c0,0.07 0,0.12 0.01,0.15 0,0.04 0.01,0.07 0.03,0.11l-0.2 0c-0.01,-0.02 -0.01,-0.04 -0.02,-0.06 0,-0.01 -0.01,-0.02 -0.01,-0.03 -0.03,0.04 -0.07,0.06 -0.11,0.08 -0.04,0.02 -0.08,0.03 -0.13,0.03 -0.08,0 -0.14,-0.02 -0.18,-0.07 -0.05,-0.04 -0.07,-0.1 -0.07,-0.16 0,-0.05 0.01,-0.08 0.03,-0.12 0.02,-0.03 0.05,-0.06 0.09,-0.08 0.03,-0.02 0.09,-0.03 0.16,-0.05 0.09,-0.01 0.16,-0.03 0.2,-0.05l0 -0.02c0,-0.04 -0.01,-0.06 -0.03,-0.08 -0.02,-0.02 -0.06,-0.03 -0.11,-0.03 -0.04,0 -0.07,0.01 -0.09,0.02 -0.02,0.02 -0.03,0.05 -0.05,0.08zm0.28 0.17c-0.03,0.01 -0.07,0.02 -0.13,0.03 -0.05,0.01 -0.09,0.02 -0.11,0.03 -0.02,0.02 -0.04,0.05 -0.04,0.08 0,0.03 0.01,0.05 0.03,0.07 0.03,0.02 0.05,0.03 0.09,0.03 0.03,0 0.07,-0.01 0.1,-0.03 0.03,-0.02 0.04,-0.05 0.05,-0.07 0.01,-0.02 0.01,-0.05 0.01,-0.1l0 -0.04z"/>
    <path id="_3" class="fil2" d="M4.23 3.95l0 -0.19 0.21 0 0 0.19 -0.21 0zm0 0.88l0 -0.78 0.21 0 0 0.78 -0.21 0z"/>
    <polygon id="_4" class="fil2" points="4.65,4.83 4.65,3.76 4.85,3.76 4.85,4.83 "/>
    <polygon id="_5" class="fil3" points="0.51,4.96 4.95,4.96 4.95,5.03 0.51,5.03 "/>
    <path class="fil4" d="M1.88 4.72l0.16 0c-0.05,0.1 -0.12,0.17 -0.22,0.23 -0.12,0.06 -0.26,0.1 -0.43,0.1 -0.16,0 -0.29,-0.03 -0.41,-0.08 -0.12,-0.06 -0.2,-0.14 -0.26,-0.25 -0.06,-0.1 -0.09,-0.22 -0.09,-0.34 0,-0.14 0.04,-0.27 0.1,-0.38 0.06,-0.12 0.15,-0.21 0.27,-0.27 0.11,-0.06 0.24,-0.09 0.38,-0.09 0.12,0 0.23,0.03 0.33,0.07 0.09,0.05 0.16,0.12 0.21,0.21 0.05,0.08 0.08,0.18 0.08,0.28 0,0.13 -0.04,0.24 -0.11,0.34 -0.1,0.13 -0.22,0.19 -0.37,0.19 -0.04,0 -0.07,-0.01 -0.09,-0.02 -0.02,-0.02 -0.04,-0.04 -0.04,-0.06 -0.06,0.05 -0.13,0.08 -0.2,0.08 -0.08,0 -0.15,-0.03 -0.2,-0.08 -0.06,-0.06 -0.08,-0.13 -0.08,-0.23 0,-0.11 0.03,-0.21 0.09,-0.31 0.08,-0.11 0.18,-0.17 0.3,-0.17 0.09,0 0.15,0.03 0.19,0.1l0.02 -0.08 0.19 0 -0.11 0.52c0,0.03 -0.01,0.05 -0.01,0.06 0,0.02 0.01,0.03 0.01,0.03 0.01,0.01 0.01,0.01 0.02,0.01 0.03,0 0.06,-0.01 0.09,-0.04 0.05,-0.04 0.09,-0.09 0.12,-0.15 0.03,-0.06 0.05,-0.13 0.05,-0.19 0,-0.12 -0.04,-0.22 -0.13,-0.3 -0.09,-0.08 -0.21,-0.12 -0.36,-0.12 -0.13,0 -0.25,0.02 -0.34,0.08 -0.09,0.05 -0.16,0.13 -0.2,0.22 -0.05,0.1 -0.07,0.2 -0.07,0.31 0,0.1 0.02,0.2 0.07,0.28 0.06,0.08 0.13,0.15 0.22,0.18 0.09,0.04 0.2,0.06 0.32,0.06 0.12,0 0.22,-0.01 0.3,-0.05 0.09,-0.03 0.15,-0.08 0.2,-0.14zm-0.78 -0.3c0,0.06 0.01,0.1 0.03,0.13 0.03,0.03 0.06,0.05 0.1,0.05 0.03,0 0.05,-0.01 0.08,-0.02 0.01,-0.01 0.03,-0.03 0.05,-0.05 0.03,-0.03 0.05,-0.07 0.07,-0.13 0.01,-0.06 0.02,-0.11 0.02,-0.16 0,-0.05 -0.01,-0.1 -0.03,-0.12 -0.03,-0.03 -0.06,-0.05 -0.1,-0.05 -0.04,0 -0.08,0.02 -0.12,0.05 -0.03,0.03 -0.06,0.08 -0.08,0.14 -0.01,0.06 -0.02,0.11 -0.02,0.16z"/>
    <path id="_1_0" class="fil4" d="M2.14 3.95l0.18 0 0 0.11c0.07,-0.08 0.15,-0.12 0.25,-0.12 0.04,0 0.09,0.01 0.12,0.03 0.04,0.02 0.07,0.05 0.09,0.09 0.04,-0.04 0.07,-0.07 0.11,-0.09 0.04,-0.02 0.08,-0.03 0.13,-0.03 0.06,0 0.1,0.01 0.14,0.03 0.04,0.03 0.07,0.06 0.09,0.1 0.02,0.04 0.02,0.09 0.02,0.17l0 0.49 -0.2 0 0 -0.44c0,-0.08 -0.01,-0.13 -0.02,-0.15 -0.02,-0.03 -0.05,-0.04 -0.09,-0.04 -0.03,0 -0.06,0 -0.08,0.02 -0.03,0.02 -0.04,0.04 -0.06,0.08 -0.01,0.03 -0.01,0.09 -0.01,0.16l0 0.37 -0.21 0 0 -0.42c0,-0.08 0,-0.13 -0.01,-0.15 -0.01,-0.02 -0.02,-0.04 -0.03,-0.05 -0.02,-0.01 -0.04,-0.01 -0.06,-0.01 -0.04,0 -0.06,0 -0.09,0.02 -0.02,0.02 -0.04,0.04 -0.05,0.07 -0.01,0.04 -0.02,0.09 -0.02,0.16l0 0.38 -0.2 0 0 -0.78z"/>
    <path id="_2_1" class="fil4" d="M3.63 4.19l-0.19 -0.03c0.03,-0.07 0.06,-0.13 0.11,-0.17 0.05,-0.03 0.13,-0.05 0.23,-0.05 0.09,0 0.16,0.01 0.2,0.03 0.05,0.02 0.08,0.05 0.1,0.08 0.02,0.04 0.03,0.1 0.03,0.19l-0.01 0.24c0,0.06 0.01,0.11 0.01,0.15 0.01,0.03 0.02,0.06 0.04,0.1l-0.2 0c-0.01,-0.01 -0.02,-0.03 -0.02,-0.06 -0.01,-0.01 -0.01,-0.02 -0.01,-0.02 -0.04,0.03 -0.07,0.06 -0.11,0.07 -0.04,0.02 -0.08,0.03 -0.13,0.03 -0.08,0 -0.14,-0.02 -0.19,-0.07 -0.04,-0.04 -0.07,-0.09 -0.07,-0.16 0,-0.04 0.01,-0.08 0.04,-0.12 0.02,-0.03 0.05,-0.06 0.08,-0.08 0.04,-0.01 0.09,-0.03 0.17,-0.04 0.09,-0.02 0.16,-0.04 0.19,-0.05l0 -0.02c0,-0.04 -0.01,-0.07 -0.02,-0.09 -0.02,-0.02 -0.06,-0.02 -0.12,-0.02 -0.03,0 -0.06,0 -0.08,0.02 -0.02,0.01 -0.04,0.04 -0.05,0.07zm0.27 0.17c-0.02,0.01 -0.06,0.02 -0.12,0.03 -0.06,0.01 -0.09,0.03 -0.11,0.04 -0.03,0.02 -0.04,0.04 -0.04,0.07 0,0.03 0.01,0.05 0.03,0.07 0.02,0.02 0.05,0.03 0.08,0.03 0.04,0 0.07,-0.01 0.11,-0.03 0.02,-0.02 0.04,-0.04 0.05,-0.07 0,-0.02 0,-0.05 0,-0.1l0 -0.04z"/>
    <path id="_3_2" class="fil4" d="M4.31 3.85l0 -0.19 0.2 0 0 0.19 -0.2 0zm0 0.88l0 -0.78 0.2 0 0 0.78 -0.2 0z"/>
    <polygon id="_4_3" class="fil4" points="4.72,4.73 4.72,3.66 4.93,3.66 4.93,4.73 "/>
    <polygon id="_5_4" class="fil5" points="0.59,4.87 5.03,4.87 5.03,4.93 0.59,4.93 "/>
   </g>
  </g>
 </g>
</svg>
