<?xml version="1.0" encoding="UTF-8"?>
<!DOCTYPE svg PUBLIC "-//W3C//DTD SVG 1.1//EN" "http://www.w3.org/Graphics/SVG/1.1/DTD/svg11.dtd">
<!-- Creator: CorelDRAW 2021 (64 Bit) -->
<svg xmlns="http://www.w3.org/2000/svg" xml:space="preserve" width="530px" height="530px" version="1.1" style="shape-rendering:geometricPrecision; text-rendering:geometricPrecision; image-rendering:optimizeQuality; fill-rule:evenodd; clip-rule:evenodd"
viewBox="0 0 5.56 5.56"
 xmlns:xlink="http://www.w3.org/1999/xlink"
 xmlns:xodm="http://www.corel.com/coreldraw/odm/2003">
 <defs>
  <style type="text/css">
   <![CDATA[
    .str3 {stroke:black;stroke-width:0.1;stroke-miterlimit:22.9256}
    .str1 {stroke:black;stroke-width:0.21;stroke-miterlimit:22.9256}
    .str0 {stroke:#B8B4B6;stroke-width:0.31;stroke-miterlimit:22.9256}
    .str2 {stroke:blue;stroke-width:0.05;stroke-miterlimit:22.9256}
    .fil1 {fill:none}
    .fil2 {fill:black}
    .fil4 {fill:#CCCCCC}
    .fil0 {fill:white}
    .fil3 {fill:black;fill-rule:nonzero}
   ]]>
  </style>
 </defs>
 <g id="Camada_x0020_1">
  <metadata id="CorelCorpID_0Corel-Layer"/>
  <g id="_2787663004016">
   <path class="fil0 str0" d="M0.39 0.16l4.78 0c0.13,0 0.23,0.11 0.23,0.26l0 4.72c0,0.14 -0.1,0.26 -0.23,0.26l-4.78 0c-0.12,0 -0.23,-0.12 -0.23,-0.26 0,-0.57 -0.01,-4.57 0,-4.78 0,-0.11 0.14,-0.2 0.23,-0.2z"/>
   <g>
    <path class="fil1 str1" d="M0.77 4.75l1.56 0 0.48 -0.42 0.44 0.42 1.49 0c0.02,-1.29 0.03,-2.37 0.05,-3.65 -0.01,-0.24 -0.17,-0.37 -0.37,-0.37 -0.53,0 -0.84,0 -0.99,0 -0.68,0.01 -0.4,1.11 -0.55,1.11 -0.15,-0.01 0.2,-1.11 -0.98,-1.12 -0.25,0 -0.45,0.01 -0.7,0.02 -0.28,0 -0.41,0.15 -0.4,0.5 0,0.19 -0.03,3.08 -0.03,3.51z"/>
    <g>
     <g>
      <rect class="fil2 str2" x="1.02" y="2.33" width="1.4" height="0.19"/>
      <rect class="fil2 str2" x="1.02" y="2.95" width="1.4" height="0.19"/>
      <rect class="fil2 str2" x="1.02" y="3.57" width="1.4" height="0.19"/>
      <rect class="fil2 str2" x="1.02" y="4.2" width="1.4" height="0.19"/>
      <rect class="fil2 str2" x="1.02" y="1.73" width="1.4" height="0.19"/>
      <rect class="fil2 str2" x="1.02" y="1.2" width="1.4" height="0.19"/>
     </g>
     <path class="fil3" d="M3.65 3.33l-0.23 0 -0.09 -0.25 -0.44 0 -0.09 0.25 -0.23 0 0.42 -1.08 0.23 0 0.43 1.08zm-0.39 -0.43l-0.15 -0.4 -0.15 0.4 0.3 0z"/>
     <path class="fil4 str3" d="M3.88 2.1c0.24,0.47 0.28,0.94 0.06,1.44 -0.07,-0.02 -0.14,-0.05 -0.21,-0.07 -0.11,-0.04 -0.1,-0.01 -0.14,0.06 -0.07,0.14 -0.14,0.27 -0.21,0.41 -0.03,0.05 -0.05,0.06 0.01,0.12l0.16 0.18c0.15,0.12 0.33,0.09 0.46,-0.02 0.18,-0.15 0.3,-0.29 0.37,-0.46 0.31,-0.71 0.2,-1.38 -0.03,-1.84 -0.09,-0.18 -0.19,-0.31 -0.32,-0.43 -0.06,-0.05 -0.19,-0.16 -0.27,-0.16 -0.06,0 -0.13,0 -0.21,0.06 -0.09,0.09 -0.13,0.12 -0.23,0.2 -0.02,0.02 -0.02,0.02 -0.01,0.05 0.09,0.16 0.17,0.33 0.25,0.49 0.02,0.04 0.04,0.03 0.08,0.02 0.08,-0.01 0.16,-0.03 0.24,-0.05z"/>
    </g>
   </g>
  </g>
 </g>
</svg>
