<?xml version="1.0" encoding="UTF-8"?>
<!DOCTYPE svg PUBLIC "-//W3C//DTD SVG 1.1//EN" "http://www.w3.org/Graphics/SVG/1.1/DTD/svg11.dtd">
<!-- Creator: CorelDRAW 2021 (64 Bit) -->
<svg xmlns="http://www.w3.org/2000/svg" xml:space="preserve" width="530px" height="530px" version="1.1" style="shape-rendering:geometricPrecision; text-rendering:geometricPrecision; image-rendering:optimizeQuality; fill-rule:evenodd; clip-rule:evenodd"
viewBox="0 0 4.99 4.99"
 xmlns:xlink="http://www.w3.org/1999/xlink"
 xmlns:xodm="http://www.corel.com/coreldraw/odm/2003">
 <defs>
  <style type="text/css">
   <![CDATA[
    .str0 {stroke:#B8B4B6;stroke-width:0.28;stroke-miterlimit:22.9256}
    .str1 {stroke:black;stroke-width:0.05;stroke-miterlimit:22.9256}
    .fil2 {fill:gray}
    .fil1 {fill:#B3B3B3}
    .fil3 {fill:#CCCCCC}
    .fil4 {fill:#E6E6E6}
    .fil0 {fill:white}
   ]]>
  </style>
 </defs>
 <g id="Camada_x0020_1">
  <metadata id="CorelCorpID_0Corel-Layer"/>
  <g id="_2069752207136">
   <path class="fil0 str0" d="M0.35 0.14l4.29 0c0.11,0 0.21,0.11 0.21,0.24l0 4.23c0,0.13 -0.1,0.24 -0.21,0.24l-4.29 0c-0.11,0 -0.2,-0.11 -0.2,-0.24 0,-0.51 -0.01,-4.1 -0.01,-4.28 0,-0.11 0.13,-0.19 0.21,-0.19z"/>
   <g>
    <path class="fil1 str1" d="M3.12 1.69l0.01 0c0.02,-0.01 0.03,-0.03 0.02,-0.04 0.01,-0.01 0.04,-0.03 0.04,-0.05 -0.01,-0.01 -0.02,-0.05 -0.03,-0.06 0.01,-0.01 0.02,-0.01 0.04,-0.02 0.03,-0.01 0.06,-0.04 0.05,-0.08 -0.01,-0.03 -0.04,-0.09 -0.06,-0.12 -0.02,-0.04 -0.04,-0.07 -0.07,-0.11 -0.02,-0.03 -0.01,-0.02 -0.01,-0.07 0.02,-0.13 0,-0.19 -0.08,-0.3 -0.05,-0.07 -0.14,-0.14 -0.23,-0.18 -0.2,-0.09 -0.44,-0.08 -0.63,0.01 -0.14,0.06 -0.3,0.23 -0.3,0.43 0,0.09 0.04,0.2 0.08,0.27l0.14 0.22c0.07,0.11 0.05,0.13 -0.03,0.25 -0.02,0.02 -0.05,0.05 -0.06,0.07 -0.01,0.01 -0.02,0.02 -0.02,0.02 -0.02,0.02 -0.04,0.04 -0.04,0.05 0,0.02 0.01,0.03 0.01,0.03 0.02,0.01 0.39,0.01 0.43,0.01l0.29 0c0.1,0 -0.02,-0.03 0.19,-0.1 0.06,-0.02 0.1,-0.02 0.16,-0.03 0.14,-0.03 0.17,-0.1 0.1,-0.2l0 0z"/>
    <path class="fil2 str1" d="M1.89 2.89l0.01 -0.01c0.02,0 0.03,-0.02 0.02,-0.04 0.01,-0.01 0.04,-0.02 0.04,-0.05 -0.01,-0.01 -0.02,-0.04 -0.03,-0.06 0.01,-0.01 0.02,-0.01 0.03,-0.01 0.03,-0.02 0.07,-0.04 0.06,-0.08 -0.01,-0.03 -0.04,-0.09 -0.06,-0.12 -0.02,-0.04 -0.04,-0.08 -0.07,-0.11 -0.02,-0.04 -0.01,-0.03 -0.01,-0.07 0.02,-0.14 0,-0.2 -0.08,-0.31 -0.05,-0.07 -0.15,-0.14 -0.23,-0.18 -0.2,-0.08 -0.44,-0.07 -0.63,0.02 -0.14,0.06 -0.3,0.22 -0.3,0.42 0,0.1 0.04,0.21 0.08,0.27l0.14 0.23c0.06,0.1 0.05,0.13 -0.03,0.24 -0.02,0.03 -0.05,0.05 -0.06,0.08 -0.01,0 -0.02,0.01 -0.02,0.02 -0.02,0.01 -0.04,0.03 -0.04,0.05 0,0.01 0,0.02 0.01,0.03 0.02,0 0.39,0 0.43,0l0.29 0c0.1,0 -0.02,-0.02 0.19,-0.09 0.06,-0.02 0.1,-0.02 0.16,-0.04 0.13,-0.02 0.17,-0.1 0.1,-0.19l0 0z"/>
    <path class="fil3 str1" d="M3.11 4.09l0.01 -0.01c0.02,0 0.02,-0.02 0.02,-0.04 0.01,-0.01 0.04,-0.03 0.04,-0.05 -0.01,-0.01 -0.02,-0.04 -0.03,-0.06 0.01,-0.01 0.02,-0.01 0.03,-0.01 0.03,-0.02 0.07,-0.04 0.06,-0.08 -0.01,-0.03 -0.04,-0.1 -0.06,-0.12 -0.02,-0.04 -0.04,-0.08 -0.07,-0.12 -0.02,-0.03 -0.01,-0.02 -0.01,-0.06 0.02,-0.14 0,-0.2 -0.08,-0.31 -0.05,-0.07 -0.15,-0.14 -0.23,-0.18 -0.2,-0.08 -0.44,-0.07 -0.63,0.01 -0.14,0.07 -0.3,0.23 -0.3,0.43 0,0.09 0.04,0.2 0.08,0.27l0.14 0.23c0.06,0.1 0.05,0.13 -0.03,0.24 -0.02,0.03 -0.05,0.05 -0.06,0.07 -0.01,0.01 -0.02,0.02 -0.02,0.03 -0.02,0.01 -0.04,0.03 -0.04,0.05 0,0.01 0,0.02 0.01,0.03 0.02,0 0.39,0 0.43,0l0.29 0c0.1,0 -0.02,-0.03 0.19,-0.09 0.06,-0.02 0.1,-0.03 0.16,-0.04 0.13,-0.03 0.17,-0.1 0.1,-0.19l0 0z"/>
    <path class="fil4 str1" d="M4.29 2.95l0.02 -0.01c0.02,0 0.02,-0.02 0.01,-0.04 0.01,-0.01 0.04,-0.02 0.04,-0.05 0,-0.01 -0.02,-0.04 -0.02,-0.06 0.01,-0.01 0.02,-0.01 0.03,-0.01 0.03,-0.02 0.06,-0.04 0.05,-0.08 0,-0.03 -0.04,-0.09 -0.05,-0.12 -0.03,-0.04 -0.05,-0.08 -0.07,-0.11 -0.03,-0.04 -0.02,-0.03 -0.01,-0.07 0.01,-0.14 -0.01,-0.2 -0.08,-0.31 -0.06,-0.07 -0.15,-0.14 -0.24,-0.18 -0.2,-0.08 -0.44,-0.07 -0.63,0.02 -0.14,0.06 -0.29,0.22 -0.3,0.42 0,0.1 0.05,0.21 0.09,0.27l0.13 0.23c0.07,0.1 0.05,0.13 -0.03,0.24 -0.02,0.03 -0.04,0.05 -0.06,0.08 0,0 -0.01,0.01 -0.02,0.02 -0.01,0.01 -0.04,0.03 -0.04,0.05 0,0.01 0.01,0.02 0.02,0.03 0.01,0 0.38,0 0.43,0l0.29 0c0.09,0 -0.02,-0.02 0.18,-0.09 0.06,-0.02 0.1,-0.02 0.16,-0.04 0.14,-0.02 0.17,-0.1 0.1,-0.19l0 0z"/>
   </g>
  </g>
 </g>
</svg>
