<?xml version="1.0" encoding="UTF-8"?>
<!DOCTYPE svg PUBLIC "-//W3C//DTD SVG 1.1//EN" "http://www.w3.org/Graphics/SVG/1.1/DTD/svg11.dtd">
<!-- Creator: CorelDRAW 2021 (64 Bit) -->
<svg xmlns="http://www.w3.org/2000/svg" xml:space="preserve" width="530px" height="530px" version="1.1" style="shape-rendering:geometricPrecision; text-rendering:geometricPrecision; image-rendering:optimizeQuality; fill-rule:evenodd; clip-rule:evenodd"
viewBox="0 0 4.99 4.99"
 xmlns:xlink="http://www.w3.org/1999/xlink"
 xmlns:xodm="http://www.corel.com/coreldraw/odm/2003">
 <defs>
  <style type="text/css">
   <![CDATA[
    .str0 {stroke:#B8B4B6;stroke-width:0.28;stroke-miterlimit:22.9256}
    .fil0 {fill:white}
    .fil2 {fill:black;fill-rule:nonzero}
    .fil1 {fill:#8F8F8F;fill-rule:nonzero}
   ]]>
  </style>
 </defs>
 <g id="Camada_x0020_1">
  <metadata id="CorelCorpID_0Corel-Layer"/>
  <g id="_2069813735216">
   <path class="fil0 str0" d="M0.35 0.14l4.29 0c0.12,0 0.21,0.11 0.21,0.24l0 4.23c0,0.13 -0.09,0.24 -0.21,0.24l-4.29 0c-0.11,0 -0.2,-0.11 -0.2,-0.24 0,-0.51 -0.01,-4.1 -0.01,-4.28 0,-0.11 0.13,-0.19 0.21,-0.19z"/>
   <g>
    <polygon class="fil1" points="0.62,3.36 0.62,1.89 0.92,1.89 0.92,3.36 "/>
    <polygon id="_1" class="fil1" points="1.2,3.36 1.2,1.89 1.64,1.89 1.91,2.9 2.17,1.89 2.62,1.89 2.62,3.36 2.34,3.36 2.34,2.2 2.05,3.36 1.76,3.36 1.47,2.2 1.47,3.36 "/>
    <path id="_2" class="fil1" d="M3.6 2.82l0 -0.25 0.64 0 0 0.59c-0.06,0.06 -0.15,0.12 -0.27,0.16 -0.12,0.05 -0.24,0.07 -0.36,0.07 -0.16,0 -0.29,-0.03 -0.4,-0.1 -0.12,-0.06 -0.2,-0.15 -0.26,-0.27 -0.06,-0.12 -0.09,-0.26 -0.09,-0.4 0,-0.15 0.03,-0.29 0.1,-0.41 0.06,-0.12 0.16,-0.21 0.28,-0.27 0.1,-0.05 0.21,-0.08 0.35,-0.08 0.19,0 0.33,0.04 0.43,0.12 0.1,0.08 0.17,0.18 0.2,0.32l-0.3 0.05c-0.02,-0.07 -0.06,-0.13 -0.11,-0.17 -0.06,-0.04 -0.13,-0.06 -0.22,-0.06 -0.13,0 -0.23,0.04 -0.31,0.12 -0.07,0.09 -0.11,0.21 -0.11,0.37 0,0.18 0.04,0.31 0.12,0.39 0.07,0.09 0.17,0.14 0.3,0.14 0.06,0 0.12,-0.02 0.19,-0.04 0.06,-0.03 0.11,-0.06 0.16,-0.09l0 -0.19 -0.34 0z"/>
    <polygon class="fil2" points="0.75,3.23 0.75,1.76 1.05,1.76 1.05,3.23 "/>
    <polygon id="_1_0" class="fil2" points="1.33,3.23 1.33,1.76 1.78,1.76 2.04,2.76 2.3,1.76 2.75,1.76 2.75,3.23 2.47,3.23 2.47,2.07 2.18,3.23 1.9,3.23 1.61,2.07 1.61,3.23 "/>
    <path id="_2_1" class="fil2" d="M3.73 2.69l0 -0.25 0.64 0 0 0.59c-0.06,0.06 -0.15,0.11 -0.27,0.16 -0.12,0.05 -0.24,0.07 -0.36,0.07 -0.15,0 -0.29,-0.03 -0.4,-0.1 -0.11,-0.06 -0.2,-0.16 -0.26,-0.28 -0.06,-0.12 -0.08,-0.25 -0.08,-0.39 0,-0.15 0.03,-0.29 0.09,-0.41 0.07,-0.12 0.16,-0.21 0.28,-0.27 0.1,-0.05 0.22,-0.08 0.36,-0.08 0.18,0 0.32,0.04 0.42,0.12 0.11,0.07 0.17,0.18 0.2,0.32l-0.29 0.05c-0.02,-0.07 -0.06,-0.13 -0.12,-0.17 -0.06,-0.04 -0.13,-0.06 -0.21,-0.06 -0.13,0 -0.24,0.04 -0.31,0.12 -0.08,0.08 -0.12,0.21 -0.12,0.37 0,0.17 0.04,0.3 0.12,0.39 0.08,0.09 0.18,0.13 0.3,0.13 0.06,0 0.13,-0.01 0.19,-0.03 0.06,-0.03 0.12,-0.06 0.16,-0.09l0 -0.19 -0.34 0z"/>
   </g>
  </g>
 </g>
</svg>
