<?xml version="1.0" encoding="UTF-8"?>
<!DOCTYPE svg PUBLIC "-//W3C//DTD SVG 1.1//EN" "http://www.w3.org/Graphics/SVG/1.1/DTD/svg11.dtd">
<!-- Creator: CorelDRAW 2021 (64 Bit) -->
<svg xmlns="http://www.w3.org/2000/svg" xml:space="preserve" width="530px" height="530px" version="1.1" style="shape-rendering:geometricPrecision; text-rendering:geometricPrecision; image-rendering:optimizeQuality; fill-rule:evenodd; clip-rule:evenodd"
viewBox="0 0 67.96 67.96"
 xmlns:xlink="http://www.w3.org/1999/xlink"
 xmlns:xodm="http://www.corel.com/coreldraw/odm/2003">
 <defs>
  <style type="text/css">
   <![CDATA[
    .str17 {stroke:#FF0505;stroke-width:1.28;stroke-miterlimit:22.9256}
    .str0 {stroke:#B8B4B6;stroke-width:3.85;stroke-miterlimit:22.9256}
    .str5 {stroke:#F5A980;stroke-width:0.51;stroke-miterlimit:22.9256}
    .str4 {stroke:black;stroke-width:0.13;stroke-miterlimit:22.9256}
    .str12 {stroke:#595656;stroke-width:0.13;stroke-miterlimit:22.9256}
    .str10 {stroke:#DBDBDB;stroke-width:0.13;stroke-miterlimit:22.9256}
    .str2 {stroke:#F5A980;stroke-width:0.13;stroke-miterlimit:22.9256}
    .str1 {stroke:#030303;stroke-width:1.03;stroke-miterlimit:22.9256}
    .str8 {stroke:#F5A980;stroke-width:0.26;stroke-miterlimit:22.9256}
    .str16 {stroke:#FF0505;stroke-width:0.26;stroke-miterlimit:22.9256}
    .str9 {stroke:#F5A980;stroke-width:0.38;stroke-miterlimit:22.9256}
    .str15 {stroke:#FF0505;stroke-width:0.38;stroke-miterlimit:22.9256}
    .str6 {stroke:#DBDBDB;stroke-width:0.12;stroke-miterlimit:22.9256}
    .str11 {stroke:#F5A980;stroke-width:0.12;stroke-miterlimit:22.9256}
    .str13 {stroke:#FF0505;stroke-width:0.12;stroke-miterlimit:22.9256}
    .str7 {stroke:#E1E1E1;stroke-width:0.12;stroke-miterlimit:22.9256}
    .str3 {stroke:#454545;stroke-width:1.92;stroke-linecap:round;stroke-miterlimit:22.9256}
    .str14 {stroke:#FF0505;stroke-width:0.51;stroke-miterlimit:22.9256;stroke-dasharray:0.510000 0.510000}
    .fil4 {fill:none}
    .fil3 {fill:black}
    .fil5 {fill:black}
    .fil11 {fill:#336666}
    .fil1 {fill:#33CC66}
    .fil7 {fill:#666666}
    .fil12 {fill:#66FFCC}
    .fil6 {fill:#999999}
    .fil10 {fill:#CCCCCC}
    .fil9 {fill:#F5A980}
    .fil2 {fill:#F5B796}
    .fil0 {fill:white}
    .fil8 {fill:white}
   ]]>
  </style>
 </defs>
 <g id="Camada_x0020_1">
  <metadata id="CorelCorpID_0Corel-Layer"/>
  <g id="_2787818477328">
   <path class="fil0 str0" d="M4.8 1.92l58.42 0c1.56,0 2.81,1.44 2.81,3.21l0 57.69c0,1.78 -1.25,3.21 -2.81,3.21l-58.42 0c-1.55,0 -2.81,-1.43 -2.81,-3.21 0,-6.93 -0.1,-55.87 -0.06,-58.38 0.03,-1.39 1.71,-2.52 2.87,-2.52z"/>
   <g>
    <g>
     <path class="fil1 str1" d="M60.03 44.75l-23.89 0.02c-0.56,0.01 -1.01,-0.56 -0.94,-1.42 0.21,-2.59 0.31,-4.49 0.51,-7.07 0.08,-0.66 -0.16,-1.86 0.95,-2.29 3.22,-1.32 7.8,-2.31 7.9,-3.92l0.18 -1.57c2.29,6.35 4.93,5.67 6.34,-0.33 -0.04,0.99 0.24,2.32 1.36,3.08l7.37 3.33c0.36,0.25 0.6,0.66 0.65,1.27 0.24,2.57 0.48,5.14 0.71,7.72 0.08,0.68 -0.45,1.2 -1.14,1.18z"/>
     <path class="fil2 str2" d="M44.56 30.33c0.78,1.52 1.93,2.54 3.58,2.97 1.47,-0.2 3.06,-2.48 2.98,-3.08l0.06 -2.03c-0.66,0.7 -1.54,1.6 -2.2,2.3 -0.37,0.46 -1.52,0.49 -2.08,0.02l-2.39 -2.14 0.05 1.96z"/>
     <path class="fil2 str2" d="M54.06 20.05c-0.2,0.05 -0.3,0.35 -0.45,0.53l0.17 -0.61 -1.68 -1.3 0 -2.73 -2.27 -0.02 -1.91 0.63 -1.98 -0.65 -2.45 0.03 -0.13 2.28 -1.13 1.6c-0.14,-0.21 -0.27,-0.42 -0.4,-0.63 -0.08,-0.21 -0.32,-0.18 -0.45,-0.1 -0.17,0.06 -0.25,0.22 -0.33,0.55 -0.1,0.36 -0.06,0.73 0,1.09l0.25 1.4c0.06,0.24 0.21,0.34 0.44,0.32 0.07,0.02 0.2,-0.07 0.42,-0.32 0.08,1.05 0.25,2.01 0.56,2.86 0.42,1.21 1,2.33 1.73,3.37 0.79,0.71 1.57,1.41 2.36,2.12 0.73,0.61 1.44,0.67 2.14,0.03 1.08,-1.02 2.13,-2.08 3.12,-3.17 0.43,-0.64 0.77,-1.29 1.01,-1.97 0.15,-0.83 0.3,-1.65 0.46,-2.47 0.06,0.12 0.13,0.18 0.24,0.16 0.1,0.01 0.37,-0.05 0.52,-0.23 0.33,-0.69 0.52,-1.38 0.64,-2.07 0.04,-0.22 -0.12,-0.43 -0.3,-0.55 -0.16,-0.13 -0.45,-0.2 -0.58,-0.15z"/>
     <path class="fil3" d="M50.5 20.98c-0.33,0.07 -0.55,0.3 -0.45,0.74 0.07,0.31 0.33,0.55 0.7,0.47 0.69,-0.15 0.6,-1.39 -0.25,-1.21z"/>
     <path class="fil3" d="M45.23 20.98c-0.81,0.17 -0.49,1.38 0.25,1.21 0.29,-0.06 0.51,-0.35 0.46,-0.76 -0.05,-0.32 -0.36,-0.53 -0.71,-0.45z"/>
     <line class="fil4 str3" x1="43.91" y1="19.36" x2="46.94" y2= "19.66" />
     <path class="fil5 str4" d="M43.46 18.18l-1.28 1.77c-0.14,-0.45 -0.2,-0.62 -0.29,-1.14 -0.2,-1.14 -0.31,-2.78 -0.05,-4.35 0.34,-2.19 1.48,-3.05 2.81,-3.27 2.4,-0.38 4.52,-0.34 6.43,0.04 1.46,0.54 2.52,1.94 2.73,3.14 0.52,2.12 0.22,3.45 -0.04,5.57 -0.56,-0.43 -1.15,-0.87 -1.71,-1.3 -0.2,-0.87 -0.21,-1.79 -0.04,-2.7 -0.84,0.25 -1.37,0.24 -2.16,0 -0.99,0.88 -2.72,0.86 -3.96,0 -0.69,0.19 -1.47,0.21 -2.36,0 0.1,0.79 0.1,1.55 -0.08,2.24z"/>
     <line class="fil4 str3" x1="51.7" y1="19.36" x2="48.66" y2= "19.66" />
     <path class="fil6" d="M50.4 20.91c-0.13,-0.25 0.38,-0.49 1,-0.47 0.45,0.07 0.77,0.24 0.91,0.55 0.02,0.08 0.08,0.14 0.01,0.24l-0.29 0.19c-0.41,-0.35 -0.97,-0.49 -1.63,-0.51z"/>
     <path class="fil6" d="M45.79 20.91c0.14,-0.25 -0.37,-0.49 -1,-0.47 -0.44,0.07 -0.76,0.24 -0.9,0.55 -0.02,0.08 -0.08,0.14 -0.01,0.24l0.29 0.19c0.4,-0.35 0.97,-0.49 1.62,-0.51z"/>
     <path class="fil4 str5" d="M49.2 20.28l-0.45 0.43 -0.18 0.86 -0.15 1.44 0.17 0.74 0.56 0.91c0.03,0.09 0.01,0.18 -0.05,0.24l-0.92 0.7c-0.16,0.11 -0.33,0.09 -0.49,-0.01l-1.08 -0.72 -0.01 -0.3 0.43 -0.9 0.1 -0.66 -0.22 -1.41 -0.26 -0.94 -0.63 -0.44"/>
     <path class="fil7" d="M49.7 26.65l-3.56 -0.05c-0.08,0.02 -0.09,0.05 -0.05,0.11l0.79 0.72c0.3,0.2 0.63,0.31 1,0.31 0.38,0.02 0.73,-0.05 1.03,-0.23l0.88 -0.71c0.05,-0.15 -0.06,-0.1 -0.09,-0.15z"/>
     <path class="fil8 str6" d="M46.67 26.42l0 0.36c0,0.1 0.11,0.14 0.24,0.14 0.08,0.05 0.18,0.05 0.29,0 0.08,0.07 0.16,0.07 0.25,0 0.16,0.09 0.31,0.09 0.47,0 0.15,0.09 0.31,0.09 0.47,0 0.11,0.06 0.22,0.06 0.32,0 0.11,0.04 0.22,0.05 0.32,-0.01l0.09 0c0.1,0 0.16,-0.05 0.19,-0.14l0.04 -0.36c-0.91,0.08 -1.8,0.08 -2.68,0.01z"/>
     <line class="fil4 str7" x1="48.39" y1="26.58" x2="48.39" y2= "26.92" />
     <line class="fil4 str7" x1="48.71" y1="26.58" x2="48.71" y2= "26.92" />
     <line class="fil4 str7" x1="49.03" y1="26.58" x2="49.03" y2= "26.91" />
     <line class="fil4 str7" x1="46.91" y1="26.61" x2="46.91" y2= "26.92" />
     <line class="fil4 str7" x1="47.19" y1="26.62" x2="47.2" y2= "26.93" />
     <line class="fil4 str7" x1="47.45" y1="26.61" x2="47.45" y2= "26.92" />
     <line class="fil4 str7" x1="47.92" y1="26.61" x2="47.92" y2= "26.92" />
     <path class="fil4 str8" d="M46.91 27.8l-1.07 -1.15c-0.14,-0.22 0.17,-0.32 0.37,-0.28 1.29,0.15 2.19,0.12 3.47,0.01 0.42,0.02 0.48,0.13 0.25,0.43l-0.9 0.98c-0.71,0.49 -1.42,0.51 -2.12,0.01z"/>
     <polyline class="fil4 str2" points="46.33,29.29 47.09,28.99 47.87,28.74 48.78,28.88 49.67,29.33 "/>
     <path class="fil4 str9" d="M41.72 21.63c-0.26,-0.38 -0.35,-1.02 -0.34,-1.82 0.16,-0.6 0.32,-0.29 0.4,-0.06 0.18,0.5 0.19,0.77 0.01,1.13"/>
     <path class="fil4 str9" d="M53.85 20.77c0.05,-0.3 0.23,-0.56 0.42,-0.54 0.33,-0.04 0.54,0.23 0.48,0.56 -0.13,0.82 -0.42,1.2 -0.68,1.34"/>
     <path class="fil4 str8" d="M49.35 21.69c0.12,0.15 0.31,0.21 0.51,0.32 0.44,0.25 0.74,0.64 1.78,-0.16 0.4,-0.31 0.44,-0.07 0.83,-0.19"/>
     <path class="fil4 str8" d="M46.53 21.69c-0.11,0.15 -0.29,0.21 -0.47,0.32 -0.4,0.25 -0.68,0.64 -1.63,-0.16 -0.37,-0.31 -0.4,-0.07 -0.76,-0.19"/>
     <path class="fil4 str8" d="M43.75 21.61c0.15,0 0.33,0.07 0.44,-0.04 0.87,-0.82 1.46,-0.76 1.93,-0.34 0.11,0.1 0.28,0.33 0.43,0.33"/>
     <path class="fil4 str8" d="M52.49 21.61c-0.16,0 -0.37,0.07 -0.49,-0.04 -0.98,-0.82 -1.65,-0.76 -2.18,-0.34 -0.13,0.1 -0.31,0.33 -0.48,0.33"/>
     <path class="fil9 str2" d="M49.79 26.86c-1.52,1.23 -2.75,0.9 -3.92,-0.3 1.01,1.87 2.7,2.19 3.92,0.3z"/>
     <path class="fil10 str2" d="M46.62 26.5c0.03,-0.05 -0.59,-0.07 -0.75,0 -0.03,0.02 0.05,0.02 0.1,0.11 0.22,0.3 0.55,0.53 0.77,0.66l-0.12 -0.77z"/>
     <path class="fil10 str2" d="M49.4 26.53c-0.01,-0.17 0.56,-0.1 0.6,0.01 0.06,0.15 -0.36,0.45 -0.7,0.68l0.1 -0.69z"/>
     <path class="fil8" d="M47.55 27.61c-0.26,-0.07 -0.51,-0.15 -0.67,-0.29 0.3,-0.08 0.14,0.04 0.27,0 0.32,-0.1 0.27,0.04 0.3,0.03 0.27,-0.13 0.43,-0.01 0.47,0.04 0.1,0.12 -0.09,-0.2 0.46,-0.01 0.11,0.04 -0.08,-0.11 0.33,-0.01 0.17,0.05 -0.1,-0.07 0.34,-0.03 -0.21,0.1 -0.44,0.21 -0.69,0.28 -0.27,0.07 -0.54,0.06 -0.81,-0.01z"/>
     <path class="fil4 str10" d="M46.86 27.33c0.12,-0.05 0.21,-0.04 0.3,0.01 0.09,-0.08 0.19,-0.07 0.28,0 0.16,-0.09 0.32,-0.04 0.48,0.05 0.17,-0.1 0.35,-0.1 0.45,-0.01 0.08,-0.08 0.2,-0.08 0.35,0 0.14,-0.11 0.24,-0.09 0.33,-0.01"/>
     <line class="fil4 str6" x1="47.16" y1="27.37" x2="47.16" y2= "27.49" />
     <line class="fil4 str6" x1="47.44" y1="27.36" x2="47.43" y2= "27.59" />
     <line class="fil4 str6" x1="47.92" y1="27.36" x2="47.92" y2= "27.66" />
     <line class="fil4 str6" x1="48.38" y1="27.34" x2="48.37" y2= "27.63" />
     <line class="fil4 str6" x1="48.72" y1="27.33" x2="48.72" y2= "27.51" />
     <path class="fil9 str11" d="M47.69 26.02c-0.06,-0.08 -0.18,-0.07 -0.34,-0.01 -0.4,0.17 -0.82,0.3 -1.25,0.35 -0.17,0 -0.37,0.2 -0.1,0.16 0.11,-0.02 0.5,-0.05 0.75,0.02 0.75,0.21 1.69,0.23 2.59,-0.04 0.19,-0.05 0.43,-0.03 0.58,-0.01 0.15,0.01 0.1,-0.05 -0.02,-0.08 -0.59,-0.14 -1.16,-0.18 -1.4,-0.31 -0.11,-0.03 -0.21,-0.16 -0.32,-0.08 -0.15,0.06 -0.32,0.05 -0.49,0z"/>
     <path class="fil11 str12" d="M44.23 29.82c2,5.21 5.88,5.47 7.37,-0.14 -0.14,-0.58 -0.2,-1.12 -0.24,-1.69 -2.18,4.87 -3.72,5.57 -7,0.24l-0.13 1.59z"/>
     <ellipse class="fil12 str13" cx="52.81" cy="38.49" rx="2.17" ry="2.32"/>
     <line class="fil4 str14" x1="50.93" y1="31.53" x2="59.93" y2= "35.61" />
     <line class="fil4 str14" x1="45.12" y1="31.53" x2="36.11" y2= "35.61" />
     <line class="fil4 str15" x1="52.35" y1="36.36" x2="50.8" y2= "38.01" />
     <line class="fil4 str16" x1="53.16" y1="36.34" x2="50.78" y2= "38.9" />
     <line class="fil4 str15" x1="53.97" y1="36.74" x2="51.12" y2= "39.77" />
     <line class="fil4 str16" x1="54.51" y1="37.28" x2="51.65" y2= "40.35" />
     <line class="fil4 str15" x1="54.76" y1="38.2" x2="52.5" y2= "40.66" />
     <line class="fil4 str16" x1="54.77" y1="39.09" x2="53.34" y2= "40.62" />
     <line class="fil4 str17" x1="35.74" y1="42.72" x2="60.51" y2= "42.67" />
    </g>
    <g>
     <path class="fil1 str1" d="M31.27 44.75l-23.89 0.02c-0.55,0.01 -1.01,-0.56 -0.94,-1.42 0.21,-2.59 0.31,-4.49 0.51,-7.07 0.09,-0.66 -0.16,-1.86 0.96,-2.29 3.21,-1.32 7.79,-2.31 7.89,-3.92l0.19 -1.57c2.28,6.35 4.92,5.67 6.33,-0.33 -0.04,0.99 0.24,2.32 1.36,3.08l7.37 3.33c0.37,0.25 0.6,0.66 0.65,1.27 0.24,2.57 0.48,5.14 0.71,7.72 0.08,0.68 -0.45,1.2 -1.14,1.18z"/>
     <path class="fil2 str2" d="M15.81 30.33c0.78,1.52 1.92,2.54 3.57,2.97 1.47,-0.2 3.06,-2.48 2.98,-3.08l0.06 -2.03c-0.66,0.7 -1.53,1.6 -2.19,2.3 -0.38,0.46 -1.53,0.49 -2.09,0.02l-2.39 -2.14 0.06 1.96z"/>
     <path class="fil2 str2" d="M25.3 20.05c-0.19,0.05 -0.3,0.35 -0.45,0.53l0.18 -0.61 -1.69 -1.3 0.01 -2.73 -2.27 -0.02 -1.92 0.63 -1.98 -0.65 -2.45 0.03 -0.13 2.28 -1.13 1.6c-0.13,-0.21 -0.27,-0.42 -0.4,-0.63 -0.07,-0.21 -0.32,-0.18 -0.45,-0.1 -0.17,0.06 -0.24,0.22 -0.33,0.55 -0.09,0.36 -0.05,0.73 0,1.09l0.25 1.4c0.06,0.24 0.22,0.34 0.45,0.32 0.06,0.02 0.19,-0.07 0.41,-0.32 0.08,1.05 0.26,2.01 0.56,2.86 0.42,1.21 1,2.33 1.73,3.37 0.79,0.71 1.58,1.41 2.36,2.12 0.73,0.61 1.44,0.67 2.14,0.03 1.09,-1.02 2.14,-2.08 3.12,-3.17 0.43,-0.64 0.77,-1.29 1.01,-1.97 0.15,-0.83 0.31,-1.65 0.46,-2.47 0.06,0.12 0.14,0.18 0.24,0.16 0.1,0.01 0.38,-0.05 0.53,-0.23 0.32,-0.69 0.52,-1.38 0.63,-2.07 0.04,-0.22 -0.12,-0.43 -0.3,-0.55 -0.16,-0.13 -0.44,-0.2 -0.58,-0.15z"/>
     <path class="fil3" d="M21.74 20.98c-0.32,0.07 -0.55,0.3 -0.45,0.74 0.07,0.31 0.33,0.55 0.7,0.47 0.7,-0.15 0.61,-1.39 -0.25,-1.21z"/>
     <path class="fil3" d="M16.47 20.98c-0.81,0.17 -0.49,1.38 0.25,1.21 0.29,-0.06 0.51,-0.35 0.46,-0.76 -0.05,-0.32 -0.36,-0.53 -0.71,-0.45z"/>
     <line class="fil4 str3" x1="15.15" y1="19.36" x2="18.19" y2= "19.66" />
     <path class="fil5 str4" d="M14.7 18.18l-1.28 1.77c-0.13,-0.45 -0.2,-0.62 -0.29,-1.14 -0.2,-1.14 -0.31,-2.78 -0.05,-4.35 0.34,-2.19 1.48,-3.05 2.81,-3.27 2.4,-0.38 4.52,-0.34 6.43,0.04 1.46,0.54 2.52,1.94 2.73,3.14 0.52,2.12 0.22,3.45 -0.04,5.57 -0.56,-0.43 -1.15,-0.87 -1.71,-1.3 -0.2,-0.87 -0.21,-1.79 -0.03,-2.7 -0.84,0.25 -1.38,0.24 -2.17,0 -0.98,0.88 -2.72,0.86 -3.95,0 -0.7,0.19 -1.48,0.21 -2.37,0 0.1,0.79 0.1,1.55 -0.08,2.24z"/>
     <line class="fil4 str3" x1="22.94" y1="19.36" x2="19.9" y2= "19.66" />
     <path class="fil6" d="M21.64 20.91c-0.13,-0.25 0.38,-0.49 1.01,-0.47 0.44,0.07 0.76,0.24 0.9,0.55 0.02,0.08 0.08,0.14 0.01,0.24l-0.29 0.19c-0.41,-0.35 -0.97,-0.49 -1.63,-0.51z"/>
     <path class="fil6" d="M17.03 20.91c0.14,-0.25 -0.37,-0.49 -1,-0.47 -0.44,0.07 -0.76,0.24 -0.9,0.55 -0.02,0.08 -0.08,0.14 -0.01,0.24l0.29 0.19c0.41,-0.35 0.97,-0.49 1.62,-0.51z"/>
     <path class="fil4 str5" d="M20.44 20.28l-0.45 0.43 -0.18 0.86 -0.15 1.44 0.17 0.74 0.56 0.91c0.03,0.09 0.01,0.18 -0.05,0.24l-0.92 0.7c-0.16,0.11 -0.32,0.09 -0.49,-0.01l-1.07 -0.72 -0.02 -0.3 0.43 -0.9 0.1 -0.66 -0.22 -1.41 -0.26 -0.94 -0.62 -0.44"/>
     <path class="fil7" d="M20.94 26.65l-3.56 -0.05c-0.07,0.02 -0.09,0.05 -0.05,0.11l0.79 0.72c0.3,0.2 0.63,0.31 1,0.31 0.38,0.02 0.73,-0.05 1.04,-0.23l0.87 -0.71c0.05,-0.15 -0.06,-0.1 -0.09,-0.15z"/>
     <path class="fil8 str6" d="M17.91 26.42l0.01 0.36c0,0.1 0.1,0.14 0.23,0.14 0.08,0.05 0.18,0.05 0.29,0 0.08,0.07 0.16,0.07 0.25,0 0.16,0.09 0.31,0.09 0.47,0 0.15,0.09 0.31,0.09 0.47,0 0.11,0.06 0.22,0.06 0.32,0 0.11,0.04 0.22,0.05 0.32,-0.01l0.09 0c0.1,0 0.16,-0.05 0.19,-0.14l0.04 -0.36c-0.9,0.08 -1.8,0.08 -2.68,0.01z"/>
     <line class="fil4 str7" x1="19.63" y1="26.58" x2="19.63" y2= "26.92" />
     <line class="fil4 str7" x1="19.95" y1="26.58" x2="19.95" y2= "26.92" />
     <line class="fil4 str7" x1="20.27" y1="26.58" x2="20.27" y2= "26.91" />
     <line class="fil4 str7" x1="18.15" y1="26.61" x2="18.15" y2= "26.92" />
     <line class="fil4 str7" x1="18.44" y1="26.62" x2="18.44" y2= "26.93" />
     <line class="fil4 str7" x1="18.69" y1="26.61" x2="18.7" y2= "26.92" />
     <line class="fil4 str7" x1="19.16" y1="26.61" x2="19.16" y2= "26.92" />
     <path class="fil4 str8" d="M18.15 27.8l-1.07 -1.15c-0.14,-0.22 0.17,-0.32 0.37,-0.28 1.29,0.15 2.19,0.12 3.48,0.01 0.41,0.02 0.47,0.13 0.24,0.43l-0.89 0.98c-0.72,0.49 -1.43,0.51 -2.13,0.01z"/>
     <polyline class="fil4 str2" points="17.57,29.29 18.34,28.99 19.11,28.74 20.02,28.88 20.91,29.33 "/>
     <path class="fil4 str9" d="M12.96 21.63c-0.26,-0.38 -0.35,-1.02 -0.34,-1.82 0.17,-0.6 0.32,-0.29 0.41,-0.06 0.17,0.5 0.18,0.77 0,1.13"/>
     <path class="fil4 str9" d="M25.1 20.77c0.04,-0.3 0.22,-0.56 0.41,-0.54 0.33,-0.04 0.54,0.23 0.48,0.56 -0.12,0.82 -0.42,1.2 -0.67,1.34"/>
     <path class="fil4 str8" d="M20.59 21.69c0.12,0.15 0.31,0.21 0.51,0.32 0.44,0.25 0.74,0.64 1.78,-0.16 0.4,-0.31 0.44,-0.07 0.83,-0.19"/>
     <path class="fil4 str8" d="M17.77 21.69c-0.11,0.15 -0.29,0.21 -0.46,0.32 -0.41,0.25 -0.69,0.64 -1.64,-0.16 -0.37,-0.31 -0.4,-0.07 -0.76,-0.19"/>
     <path class="fil4 str8" d="M15 21.61c0.14,0 0.32,0.07 0.43,-0.04 0.87,-0.82 1.46,-0.76 1.93,-0.34 0.11,0.1 0.28,0.33 0.43,0.33"/>
     <path class="fil4 str8" d="M23.73 21.61c-0.16,0 -0.37,0.07 -0.49,-0.04 -0.98,-0.82 -1.65,-0.76 -2.18,-0.34 -0.12,0.1 -0.31,0.33 -0.48,0.33"/>
     <path class="fil9 str2" d="M21.03 26.86c-1.52,1.23 -2.75,0.9 -3.92,-0.3 1.01,1.87 2.7,2.19 3.92,0.3z"/>
     <path class="fil10 str2" d="M17.86 26.5c0.04,-0.05 -0.59,-0.07 -0.74,0 -0.04,0.02 0.04,0.02 0.09,0.11 0.22,0.3 0.55,0.53 0.77,0.66l-0.12 -0.77z"/>
     <path class="fil10 str2" d="M20.64 26.53c-0.01,-0.17 0.57,-0.1 0.6,0.01 0.06,0.15 -0.35,0.45 -0.7,0.68l0.1 -0.69z"/>
     <path class="fil8" d="M18.79 27.61c-0.26,-0.07 -0.51,-0.15 -0.67,-0.29 0.31,-0.08 0.14,0.04 0.27,0 0.32,-0.1 0.27,0.04 0.3,0.03 0.27,-0.13 0.43,-0.01 0.47,0.04 0.1,0.12 -0.09,-0.2 0.46,-0.01 0.11,0.04 -0.08,-0.11 0.34,-0.01 0.16,0.05 -0.11,-0.07 0.34,-0.03 -0.22,0.1 -0.45,0.21 -0.7,0.28 -0.27,0.07 -0.54,0.06 -0.81,-0.01z"/>
     <path class="fil4 str10" d="M18.1 27.33c0.12,-0.05 0.21,-0.04 0.3,0.01 0.09,-0.08 0.19,-0.07 0.28,0 0.16,-0.09 0.32,-0.04 0.48,0.05 0.17,-0.1 0.35,-0.1 0.45,-0.01 0.08,-0.08 0.2,-0.08 0.35,0 0.14,-0.11 0.24,-0.09 0.33,-0.01"/>
     <line class="fil4 str6" x1="18.4" y1="27.37" x2="18.4" y2= "27.49" />
     <line class="fil4 str6" x1="18.68" y1="27.36" x2="18.67" y2= "27.59" />
     <line class="fil4 str6" x1="19.16" y1="27.36" x2="19.16" y2= "27.66" />
     <line class="fil4 str6" x1="19.62" y1="27.34" x2="19.62" y2= "27.63" />
     <line class="fil4 str6" x1="19.96" y1="27.33" x2="19.96" y2= "27.51" />
     <path class="fil9 str11" d="M18.93 26.02c-0.06,-0.08 -0.18,-0.07 -0.34,-0.01 -0.4,0.17 -0.81,0.3 -1.24,0.35 -0.17,0 -0.38,0.2 -0.11,0.16 0.12,-0.02 0.5,-0.05 0.75,0.02 0.75,0.21 1.69,0.23 2.59,-0.04 0.19,-0.05 0.44,-0.03 0.58,-0.01 0.15,0.01 0.11,-0.05 -0.02,-0.08 -0.58,-0.14 -1.16,-0.18 -1.39,-0.31 -0.12,-0.03 -0.22,-0.16 -0.33,-0.08 -0.15,0.06 -0.32,0.05 -0.49,0z"/>
     <path class="fil11 str12" d="M15.47 29.82c2,5.21 5.88,5.47 7.37,-0.14 -0.14,-0.58 -0.2,-1.12 -0.23,-1.69 -2.19,4.87 -3.73,5.57 -7.01,0.24l-0.13 1.59z"/>
     <ellipse class="fil12 str13" cx="24.06" cy="38.49" rx="2.17" ry="2.32"/>
     <line class="fil4 str14" x1="22.17" y1="31.53" x2="31.18" y2= "35.61" />
     <line class="fil4 str14" x1="16.36" y1="31.53" x2="7.35" y2= "35.61" />
     <line class="fil4 str15" x1="23.59" y1="36.36" x2="22.04" y2= "38.01" />
     <line class="fil4 str16" x1="24.4" y1="36.34" x2="22.02" y2= "38.9" />
     <line class="fil4 str15" x1="25.22" y1="36.74" x2="22.37" y2= "39.77" />
     <line class="fil4 str16" x1="25.75" y1="37.28" x2="22.9" y2= "40.35" />
     <line class="fil4 str15" x1="26" y1="38.2" x2="23.74" y2= "40.66" />
     <line class="fil4 str16" x1="26.01" y1="39.09" x2="24.58" y2= "40.62" />
     <line class="fil4 str17" x1="6.98" y1="42.72" x2="31.75" y2= "42.67" />
    </g>
    <g>
     <path class="fil1 str1" d="M46.09 58.46l-23.9 0.02c-0.55,0.01 -1,-0.57 -0.93,-1.43 0.21,-2.58 0.3,-4.48 0.51,-7.07 0.08,-0.66 -0.16,-1.85 0.95,-2.28 3.21,-1.33 7.8,-2.31 7.89,-3.92l0.19 -1.57c2.29,6.34 4.92,5.67 6.33,-0.33 -0.03,0.99 0.24,2.32 1.37,3.07l7.37 3.34c0.36,0.25 0.59,0.65 0.65,1.26 0.23,2.58 0.47,5.15 0.71,7.73 0.08,0.68 -0.45,1.2 -1.14,1.18z"/>
     <path class="fil2 str2" d="M30.62 44.04c0.78,1.52 1.93,2.53 3.57,2.96 1.47,-0.19 3.07,-2.48 2.98,-3.07l0.06 -2.03c-0.66,0.7 -1.53,1.6 -2.19,2.3 -0.38,0.45 -1.52,0.49 -2.09,0.02l-2.38 -2.14 0.05 1.96z"/>
     <path class="fil2 str2" d="M40.11 33.76c-0.19,0.04 -0.3,0.35 -0.44,0.52l0.17 -0.6 -1.69 -1.3 0.01 -2.74 -2.27 -0.01 -1.91 0.63 -1.98 -0.66 -2.46 0.03 -0.13 2.29 -1.12 1.6c-0.14,-0.21 -0.27,-0.42 -0.41,-0.63 -0.07,-0.21 -0.32,-0.18 -0.45,-0.11 -0.17,0.07 -0.24,0.22 -0.32,0.56 -0.1,0.36 -0.06,0.73 0,1.09l0.25 1.4c0.06,0.23 0.21,0.34 0.44,0.32 0.07,0.02 0.2,-0.07 0.42,-0.32 0.07,1.05 0.25,2.01 0.55,2.85 0.43,1.22 1,2.34 1.74,3.38 0.78,0.7 1.57,1.41 2.36,2.11 0.73,0.62 1.44,0.68 2.14,0.03 1.08,-1.01 2.13,-2.07 3.12,-3.17 0.43,-0.63 0.77,-1.28 1.01,-1.97 0.15,-0.82 0.3,-1.64 0.45,-2.46 0.06,0.11 0.14,0.18 0.24,0.16 0.11,0.01 0.38,-0.05 0.53,-0.23 0.32,-0.69 0.52,-1.38 0.63,-2.07 0.05,-0.22 -0.12,-0.43 -0.3,-0.56 -0.15,-0.12 -0.44,-0.2 -0.58,-0.14z"/>
     <path class="fil3" d="M36.56 34.69c-0.33,0.06 -0.55,0.3 -0.45,0.74 0.07,0.31 0.33,0.55 0.7,0.47 0.69,-0.15 0.6,-1.39 -0.25,-1.21z"/>
     <path class="fil3" d="M31.29 34.68c-0.81,0.17 -0.5,1.38 0.25,1.22 0.28,-0.06 0.51,-0.36 0.45,-0.76 -0.04,-0.32 -0.35,-0.53 -0.7,-0.46z"/>
     <line class="fil4 str3" x1="29.96" y1="33.07" x2="33" y2= "33.36" />
     <path class="fil5 str4" d="M29.51 31.89l-1.27 1.77c-0.14,-0.46 -0.2,-0.62 -0.29,-1.15 -0.2,-1.13 -0.32,-2.77 -0.05,-4.35 0.34,-2.18 1.48,-3.04 2.81,-3.27 2.39,-0.38 4.51,-0.33 6.42,0.05 1.47,0.54 2.52,1.93 2.73,3.13 0.52,2.13 0.23,3.45 -0.03,5.58 -0.56,-0.44 -1.15,-0.87 -1.72,-1.3 -0.19,-0.87 -0.21,-1.79 -0.03,-2.71 -0.84,0.26 -1.37,0.25 -2.16,0 -0.99,0.88 -2.73,0.87 -3.96,0 -0.7,0.19 -1.47,0.21 -2.36,0 0.1,0.8 0.1,1.56 -0.09,2.25z"/>
     <line class="fil4 str3" x1="37.75" y1="33.07" x2="34.72" y2= "33.36" />
     <path class="fil6" d="M36.46 34.61c-0.14,-0.25 0.38,-0.49 1,-0.46 0.44,0.07 0.76,0.24 0.9,0.55 0.03,0.08 0.09,0.14 0.01,0.23l-0.28 0.19c-0.41,-0.34 -0.97,-0.48 -1.63,-0.51z"/>
     <path class="fil6" d="M31.85 34.61c0.14,-0.25 -0.38,-0.49 -1,-0.46 -0.45,0.07 -0.77,0.24 -0.91,0.55 -0.02,0.08 -0.08,0.14 0,0.23l0.28 0.19c0.41,-0.34 0.97,-0.48 1.63,-0.51z"/>
     <path class="fil4 str5" d="M35.25 33.99l-0.44 0.43 -0.19 0.86 -0.15 1.44 0.18 0.74 0.55 0.9c0.03,0.1 0.02,0.18 -0.05,0.25l-0.91 0.69c-0.17,0.11 -0.33,0.1 -0.49,-0.01l-1.08 -0.71 -0.01 -0.3 0.43 -0.9 0.09 -0.66 -0.21 -1.41 -0.26 -0.95 -0.63 -0.43"/>
     <path class="fil7" d="M35.76 40.36l-3.57 -0.05c-0.07,0.01 -0.09,0.05 -0.05,0.11l0.8 0.72c0.3,0.2 0.63,0.3 0.99,0.3 0.39,0.03 0.73,-0.04 1.04,-0.23l0.87 -0.71c0.05,-0.15 -0.05,-0.09 -0.08,-0.14z"/>
     <path class="fil8 str6" d="M32.73 40.13l0 0.35c0,0.11 0.11,0.15 0.23,0.15 0.09,0.05 0.18,0.05 0.29,0 0.08,0.07 0.17,0.06 0.26,0 0.15,0.09 0.31,0.08 0.47,0 0.15,0.08 0.3,0.09 0.47,-0.01 0.11,0.07 0.21,0.06 0.32,0 0.11,0.05 0.21,0.06 0.32,0l0.08 0c0.1,-0.01 0.17,-0.06 0.2,-0.14l0.04 -0.36c-0.91,0.08 -1.8,0.08 -2.68,0.01z"/>
     <line class="fil4 str7" x1="34.44" y1="40.28" x2="34.45" y2= "40.62" />
     <line class="fil4 str7" x1="34.77" y1="40.29" x2="34.77" y2= "40.63" />
     <line class="fil4 str7" x1="35.08" y1="40.29" x2="35.09" y2= "40.62" />
     <line class="fil4 str7" x1="32.96" y1="40.32" x2="32.96" y2= "40.63" />
     <line class="fil4 str7" x1="33.25" y1="40.32" x2="33.25" y2= "40.64" />
     <line class="fil4 str7" x1="33.51" y1="40.32" x2="33.51" y2= "40.62" />
     <line class="fil4 str7" x1="33.98" y1="40.32" x2="33.98" y2= "40.63" />
     <path class="fil4 str8" d="M32.96 41.51l-1.07 -1.15c-0.13,-0.23 0.18,-0.32 0.38,-0.28 1.28,0.15 2.19,0.12 3.47,0.01 0.41,0.02 0.48,0.13 0.25,0.43l-0.9 0.98c-0.71,0.48 -1.42,0.51 -2.13,0.01z"/>
     <polyline class="fil4 str2" points="32.39,43 33.15,42.69 33.92,42.45 34.84,42.59 35.73,43.04 "/>
     <path class="fil4 str9" d="M27.78 35.33c-0.26,-0.37 -0.35,-1.01 -0.35,-1.82 0.17,-0.6 0.32,-0.28 0.41,-0.05 0.17,0.49 0.18,0.77 0.01,1.13"/>
     <path class="fil4 str9" d="M39.91 34.47c0.05,-0.29 0.22,-0.56 0.41,-0.53 0.33,-0.05 0.55,0.22 0.48,0.56 -0.12,0.82 -0.42,1.19 -0.67,1.33"/>
     <path class="fil4 str8" d="M35.41 35.39c0.12,0.16 0.31,0.22 0.5,0.33 0.45,0.25 0.75,0.64 1.78,-0.16 0.41,-0.31 0.45,-0.07 0.84,-0.19"/>
     <path class="fil4 str8" d="M32.59 35.39c-0.12,0.16 -0.29,0.22 -0.47,0.33 -0.41,0.25 -0.68,0.64 -1.63,-0.16 -0.37,-0.31 -0.41,-0.07 -0.77,-0.19"/>
     <path class="fil4 str8" d="M29.81 35.32c0.14,0 0.33,0.06 0.43,-0.04 0.87,-0.82 1.47,-0.76 1.94,-0.34 0.11,0.1 0.28,0.33 0.42,0.33"/>
     <path class="fil4 str8" d="M38.54 35.32c-0.16,0 -0.36,0.06 -0.48,-0.04 -0.98,-0.82 -1.65,-0.76 -2.18,-0.34 -0.13,0.1 -0.32,0.33 -0.48,0.33"/>
     <path class="fil9 str2" d="M35.84 40.57c-1.51,1.23 -2.74,0.9 -3.91,-0.3 1,1.87 2.7,2.19 3.91,0.3z"/>
     <path class="fil10 str2" d="M32.67 40.21c0.04,-0.05 -0.58,-0.08 -0.74,0 -0.03,0.02 0.05,0.02 0.1,0.11 0.21,0.29 0.55,0.53 0.77,0.66l-0.13 -0.77z"/>
     <path class="fil10 str2" d="M35.46 40.24c-0.02,-0.18 0.56,-0.1 0.59,0.01 0.07,0.15 -0.35,0.45 -0.69,0.68l0.1 -0.69z"/>
     <path class="fil8" d="M33.61 41.31c-0.27,-0.06 -0.51,-0.14 -0.67,-0.28 0.3,-0.09 0.14,0.04 0.27,0 0.32,-0.1 0.27,0.04 0.29,0.03 0.27,-0.13 0.44,-0.01 0.47,0.03 0.1,0.13 -0.09,-0.19 0.46,-0.01 0.12,0.04 -0.07,-0.1 0.34,0 0.17,0.04 -0.1,-0.08 0.34,-0.03 -0.21,0.1 -0.45,0.21 -0.7,0.28 -0.26,0.06 -0.53,0.05 -0.8,-0.02z"/>
     <path class="fil4 str10" d="M32.91 41.04c0.13,-0.05 0.22,-0.05 0.31,0.01 0.09,-0.08 0.19,-0.08 0.28,0 0.16,-0.09 0.32,-0.05 0.47,0.04 0.17,-0.09 0.35,-0.1 0.46,0 0.08,-0.08 0.2,-0.08 0.34,-0.01 0.15,-0.1 0.25,-0.09 0.33,0"/>
     <line class="fil4 str6" x1="33.21" y1="41.07" x2="33.21" y2= "41.2" />
     <line class="fil4 str6" x1="33.5" y1="41.07" x2="33.49" y2= "41.3" />
     <line class="fil4 str6" x1="33.98" y1="41.07" x2="33.97" y2= "41.37" />
     <line class="fil4 str6" x1="34.43" y1="41.05" x2="34.43" y2= "41.34" />
     <line class="fil4 str6" x1="34.77" y1="41.04" x2="34.78" y2= "41.22" />
     <path class="fil9 str11" d="M33.75 39.72c-0.06,-0.07 -0.19,-0.06 -0.35,0 -0.4,0.17 -0.81,0.29 -1.24,0.35 -0.17,0 -0.37,0.2 -0.1,0.16 0.11,-0.02 0.49,-0.05 0.75,0.02 0.75,0.21 1.68,0.23 2.59,-0.04 0.18,-0.05 0.43,-0.03 0.57,-0.02 0.16,0.01 0.11,-0.04 -0.02,-0.08 -0.58,-0.13 -1.15,-0.17 -1.39,-0.3 -0.12,-0.03 -0.22,-0.16 -0.33,-0.08 -0.15,0.05 -0.31,0.05 -0.48,-0.01z"/>
     <path class="fil11 str12" d="M30.29 43.53c1.99,5.21 5.87,5.47 7.36,-0.14 -0.13,-0.58 -0.2,-1.13 -0.23,-1.69 -2.18,4.86 -3.73,5.56 -7,0.23l-0.13 1.6z"/>
     <ellipse class="fil12 str13" cx="38.87" cy="52.19" rx="2.17" ry="2.32"/>
     <line class="fil4 str14" x1="36.98" y1="45.24" x2="45.99" y2= "49.32" />
     <line class="fil4 str14" x1="31.18" y1="45.24" x2="22.17" y2= "49.32" />
     <line class="fil4 str15" x1="38.4" y1="50.06" x2="36.86" y2= "51.71" />
     <line class="fil4 str16" x1="39.22" y1="50.04" x2="36.84" y2= "52.6" />
     <line class="fil4 str15" x1="40.03" y1="50.45" x2="37.18" y2= "53.48" />
     <line class="fil4 str16" x1="40.56" y1="50.98" x2="37.71" y2= "54.05" />
     <line class="fil4 str15" x1="40.82" y1="51.9" x2="38.55" y2= "54.36" />
     <line class="fil4 str16" x1="40.82" y1="52.79" x2="39.4" y2= "54.33" />
     <line class="fil4 str17" x1="21.8" y1="56.43" x2="46.56" y2= "56.38" />
    </g>
   </g>
  </g>
 </g>
</svg>
