<?xml version="1.0" encoding="UTF-8"?>
<!DOCTYPE svg PUBLIC "-//W3C//DTD SVG 1.1//EN" "http://www.w3.org/Graphics/SVG/1.1/DTD/svg11.dtd">
<!-- Creator: CorelDRAW 2021 (64 Bit) -->
<svg xmlns="http://www.w3.org/2000/svg" xml:space="preserve" width="550px" height="550px" version="1.1" style="shape-rendering:geometricPrecision; text-rendering:geometricPrecision; image-rendering:optimizeQuality; fill-rule:evenodd; clip-rule:evenodd"
viewBox="0 0 48.04 48.04"
 xmlns:xlink="http://www.w3.org/1999/xlink"
 xmlns:xodm="http://www.corel.com/coreldraw/odm/2003">
 <defs>
  <style type="text/css">
   <![CDATA[
    .str0 {stroke:#B8B4B6;stroke-width:4.37;stroke-miterlimit:22.9256}
    .str1 {stroke:#373435;stroke-width:1.4;stroke-miterlimit:22.9256}
    .fil4 {fill:none}
    .fil2 {fill:#FFF212}
    .fil3 {fill:#ED3237}
    .fil1 {fill:#00A859}
    .fil9 {fill:black}
    .fil8 {fill:#333333}
    .fil6 {fill:#B8B4B6}
    .fil7 {fill:#D2D3D5}
    .fil5 {fill:#FDFDFD}
    .fil0 {fill:white}
   ]]>
  </style>
 </defs>
 <g id="Camada_x0020_1">
  <metadata id="CorelCorpID_0Corel-Layer"/>
  <g id="_2069534215856">
   <path class="fil0 str0" d="M4.14 2.18l39.8 0c1.06,0 1.92,0.98 1.92,2.19l0 39.3c0,1.21 -0.86,2.18 -1.92,2.18l-39.8 0.01c-1.05,-0.01 -1.91,-0.98 -1.91,-2.19 0,-4.72 -0.07,-38.06 -0.04,-39.77 0.02,-0.95 1.16,-1.72 1.95,-1.72z"/>
   <g>
    <g>
     <rect class="fil1 str1" x="16.09" y="16.63" width="3.22" height="5.24"/>
     <rect class="fil2 str1" x="21.77" y="16.71" width="3.22" height="5.24"/>
     <rect class="fil3 str1" x="27.36" y="16.63" width="3.22" height="5.24"/>
     <polygon class="fil4 str1" points="10.52,12.62 10.51,25.5 35.98,25.5 35.98,12.32 35.39,5.92 30.6,5.86 27.88,12.49 24.8,12.49 24.8,9.61 18.09,12.21 18.13,9.78 "/>
     <line class="fil4 str1" x1="27.88" y1="12.49" x2="35.98" y2= "12.49" />
    </g>
    <g>
     <path class="fil5" d="M28.97 32.65c0.26,0.8 -0.41,1.45 -0.85,1.69 -1.3,0.7 -2.87,0.13 -4.88,0.34 -0.7,0.07 -1.74,0.28 -2.39,0.27l-0.06 -0.73c1.28,-0.17 2.73,-0.39 4.03,-0.36 0.72,0.02 1.35,0.16 2.1,0.07 0.74,-0.08 1.04,-0.26 1.33,-0.78 0.08,-1.32 -1.14,-2.23 -2.4,-2.35 -0.81,-0.08 -3.09,0.45 -4,0.62 -1.53,0.26 -2.52,0.64 -4.01,0.05 -1.24,-0.49 -1.89,-1.1 -3.5,-0.95l0 9.97c2.62,-0.35 3.43,-0.09 5.65,0.72 2.36,0.86 2.98,1.04 5.34,0.05 0.76,-0.32 1.57,-0.74 2.26,-1.11 0.73,-0.4 1.45,-0.8 2.14,-1.21 1.41,-0.86 2.81,-1.66 4.19,-2.53l5.16 -3.24c0.36,-0.22 0.84,-0.4 0.87,-0.83 0.05,-0.58 -1.13,-1.69 -1.45,-1.94 -2.02,-1.54 -3.34,-0.72 -4.97,0.01l-3.44 1.6c-0.21,0.1 -0.39,0.17 -0.6,0.27 -0.66,0.32 -0.42,0.17 -0.52,0.37z"/>
     <path class="fil6" d="M7.89 29.11c0,-0.01 0.03,-0.03 0.04,-0.02l0.47 -0.04c0.76,0.01 3.85,-0.07 4.1,0.05l0.03 12.32c-0.38,0.09 -4.3,0.09 -4.63,-0.01l-0.01 -12.3zm6.13 -1.21c-0.09,-0.1 -0.13,-0.11 -0.23,-0.21 -0.11,-0.09 -0.12,-0.12 -0.23,-0.21 -0.11,0.07 -0.03,0.05 -0.18,0 -0.14,-0.05 -0.23,-0.16 -0.6,-0.21 -0.47,-0.06 -4.91,-0.04 -5.2,0 -2.01,0.34 -1.52,3.04 -1.52,4.88l0 8.53c0,0.77 0,1.21 0.36,1.79 0.23,0.37 0.7,0.7 1.36,0.76 1.23,0.11 2.94,0.01 4.23,0.01 1.29,0 2.38,-0.46 2.33,-1.95l0 -0.8 0 -9.97 0 -0.79c0.06,-0.68 -0.05,-1.57 -0.6,-1.99 -0.19,-0.15 -0.3,-0.08 -0.12,-0.19 0.11,0.2 0.2,0.25 0.4,0.35z"/>
     <path class="fil7" d="M7.9 41.41c0.33,0.1 4.25,0.1 4.63,0.01l-0.03 -12.32c-0.25,-0.12 -3.34,-0.04 -4.1,-0.05l-0.47 0.04c-0.01,-0.01 -0.04,0.01 -0.04,0.02l0.01 12.3z"/>
     <path class="fil8" d="M14.34 29.73l0 0.79c1.61,-0.15 2.26,0.46 3.5,0.95 1.49,0.59 2.48,0.21 4.01,-0.05 0.91,-0.17 3.19,-0.7 4,-0.62 1.26,0.12 2.48,1.03 2.4,2.35l0.11 -0.38 0.52 -0.27c0,0.01 0.01,0.05 0.02,0.06l0.07 0.09c0.1,-0.2 -0.14,-0.05 0.52,-0.37 0.21,-0.1 0.39,-0.17 0.6,-0.27l3.44 -1.6c1.63,-0.73 2.95,-1.55 4.97,-0.01 0.32,0.25 1.5,1.36 1.45,1.94 -0.03,0.43 -0.51,0.61 -0.87,0.83l-5.16 3.24c-1.38,0.87 -2.78,1.67 -4.19,2.53 -0.69,0.41 -1.41,0.81 -2.14,1.21 -0.69,0.37 -1.5,0.79 -2.26,1.11 -2.36,0.99 -2.98,0.81 -5.34,-0.05 -2.22,-0.81 -3.03,-1.07 -5.65,-0.72l0 0.8c2.97,-0.34 3.46,-0.03 5.95,0.87 2.52,0.92 3.42,0.66 5.69,-0.32 2.28,-0.98 7.07,-3.95 9.13,-5.24 1.47,-0.92 2.96,-1.83 4.44,-2.78 0.42,-0.27 0.76,-0.4 1,-0.8 0.27,-0.45 0.29,-0.96 0.01,-1.44 -0.87,-1.52 -2.46,-2.8 -4.3,-2.84 -1.13,-0.03 -1.9,0.41 -2.75,0.79 -0.81,0.37 -4.42,2.13 -4.9,2.27 -0.21,-0.21 -0.33,-0.45 -0.54,-0.67 -0.16,-0.16 -0.38,-0.4 -0.6,-0.58 -1.43,-1.11 -3.77,-0.28 -5.68,0.07 -1.51,0.27 -2.38,0.65 -3.82,0.04 -1.15,-0.49 -2.1,-1.12 -3.63,-0.93z"/>
     <path class="fil9" d="M28.25 33.15c-0.29,0.52 -0.59,0.7 -1.33,0.78 -0.75,0.09 -1.38,-0.05 -2.1,-0.07 -1.3,-0.03 -2.75,0.19 -4.03,0.36l0.06 0.73c0.65,0.01 1.69,-0.2 2.39,-0.27 2.01,-0.21 3.58,0.36 4.88,-0.34 0.44,-0.24 1.11,-0.89 0.85,-1.69l-0.07 -0.09c-0.01,-0.01 -0.02,-0.05 -0.02,-0.06l-0.52 0.27 -0.11 0.38z"/>
    </g>
   </g>
  </g>
 </g>
</svg>
