<?xml version="1.0" encoding="UTF-8"?>
<!DOCTYPE svg PUBLIC "-//W3C//DTD SVG 1.1//EN" "http://www.w3.org/Graphics/SVG/1.1/DTD/svg11.dtd">
<!-- Creator: CorelDRAW 2021 (64 Bit) -->
<svg xmlns="http://www.w3.org/2000/svg" xml:space="preserve" width="530px" height="530px" version="1.1" style="shape-rendering:geometricPrecision; text-rendering:geometricPrecision; image-rendering:optimizeQuality; fill-rule:evenodd; clip-rule:evenodd"
viewBox="0 0 5.55 5.55"
 xmlns:xlink="http://www.w3.org/1999/xlink"
 xmlns:xodm="http://www.corel.com/coreldraw/odm/2003">
 <defs>
  <style type="text/css">
   <![CDATA[
    .str0 {stroke:#B8B4B6;stroke-width:0.31;stroke-miterlimit:22.9256}
    .str1 {stroke:black;stroke-width:0.02;stroke-miterlimit:22.9256}
    .fil1 {fill:black}
    .fil7 {fill:aqua}
    .fil6 {fill:#28FE3E}
    .fil2 {fill:#E6E6E6}
    .fil5 {fill:red}
    .fil3 {fill:#FF9933}
    .fil4 {fill:#FFFF99}
    .fil0 {fill:white}
   ]]>
  </style>
 </defs>
 <g id="Camada_x0020_1">
  <metadata id="CorelCorpID_0Corel-Layer"/>
  <g id="_2787834894752">
   <path class="fil0 str0" d="M0.39 0.16l4.78 0c0.12,0 0.23,0.11 0.23,0.26l0 4.72c0,0.14 -0.11,0.26 -0.23,0.26l-4.78 0c-0.12,0 -0.23,-0.12 -0.23,-0.26 0,-0.57 -0.01,-4.57 0,-4.78 0,-0.11 0.14,-0.2 0.23,-0.2z"/>
   <g>
    <path class="fil1" d="M2.49 3.48l0.02 -0.01c0.03,-0.01 0.03,-0.04 0.02,-0.06 0.02,-0.02 0.06,-0.05 0.06,-0.08 -0.01,-0.02 -0.03,-0.08 -0.04,-0.1 0.02,-0.01 0.03,-0.02 0.05,-0.03 0.04,-0.02 0.09,-0.06 0.08,-0.12 -0.01,-0.05 -0.06,-0.15 -0.08,-0.2 -0.04,-0.06 -0.07,-0.12 -0.1,-0.18 -0.04,-0.05 -0.02,-0.04 -0.02,-0.11 0.03,-0.21 0,-0.31 -0.12,-0.48 -0.07,-0.12 -0.21,-0.23 -0.33,-0.29 -0.29,-0.14 -0.64,-0.13 -0.91,0.02 -0.2,0.1 -0.42,0.36 -0.43,0.68 0,0.15 0.06,0.33 0.12,0.44l0.2 0.36c0.09,0.17 0.07,0.21 -0.04,0.39 -0.03,0.04 -0.07,0.08 -0.09,0.12 -0.01,0.01 -0.03,0.03 -0.03,0.04 -0.02,0.02 -0.06,0.05 -0.06,0.08 0,0.02 0.01,0.03 0.02,0.04 0.03,0.01 0.56,0.01 0.62,0.01l0.42 0c0.13,0 -0.03,-0.04 0.27,-0.15 0.08,-0.03 0.14,-0.04 0.22,-0.06 0.2,-0.04 0.25,-0.16 0.15,-0.31l0 0z"/>
    <g>
     <g>
      <g>
       <polygon class="fil2 str1" points="4.04,0.78 3.59,1.01 3.65,0.87 3.9,0.75 "/>
       <rect class="fil3 str1" transform="matrix(0.141846 -0.074016 0.0440728 0.0846412 2.45716 1.60329)" width="11.89" height="11.74"/>
      </g>
      <g>
       <polygon class="fil2 str1" points="4.4,1.49 3.92,1.65 4,1.52 4.27,1.44 "/>
       <rect class="fil4 str1" transform="matrix(0.151894 -0.0502066 0.0298954 0.0906368 2.68842 2.0563)" width="11.89" height="11.74"/>
      </g>
      <g>
       <polygon class="fil2 str1" points="4.73,2.26 4.36,2.3 4.44,2.2 4.64,2.17 "/>
       <rect class="fil5 str1" transform="matrix(0.158732 -0.0198004 0.0117901 0.0947173 2.90216 2.4842)" width="11.89" height="11.74"/>
      </g>
      <g>
       <polygon class="fil2 str1" points="4.77,3.1 4.27,3.03 4.4,2.95 4.68,2.99 "/>
       <rect class="fil6 str1" transform="matrix(0.158639 0.0205302 -0.0122247 0.0946621 3.00619 2.86767)" width="11.89" height="11.74"/>
      </g>
     </g>
     <g>
      <polygon class="fil2 str1" points="4.65,3.84 4.17,3.7 4.32,3.64 4.58,3.72 "/>
      <rect class="fil7 str1" transform="matrix(0.153159 0.0461926 -0.0275054 0.0913921 2.94975 3.32702)" width="11.89" height="11.74"/>
     </g>
    </g>
   </g>
  </g>
 </g>
</svg>
