<?xml version="1.0" encoding="UTF-8"?>
<!DOCTYPE svg PUBLIC "-//W3C//DTD SVG 1.1//EN" "http://www.w3.org/Graphics/SVG/1.1/DTD/svg11.dtd">
<!-- Creator: CorelDRAW 2021 (64 Bit) -->
<svg xmlns="http://www.w3.org/2000/svg" xml:space="preserve" width="530px" height="530px" version="1.1" style="shape-rendering:geometricPrecision; text-rendering:geometricPrecision; image-rendering:optimizeQuality; fill-rule:evenodd; clip-rule:evenodd"
viewBox="0 0 67.96 67.96"
 xmlns:xlink="http://www.w3.org/1999/xlink"
 xmlns:xodm="http://www.corel.com/coreldraw/odm/2003">
 <defs>
  <style type="text/css">
   <![CDATA[
    .str0 {stroke:#B8B4B6;stroke-width:3.85;stroke-miterlimit:22.9256}
    .str7 {stroke:#F5A980;stroke-width:0.51;stroke-miterlimit:22.9256}
    .str6 {stroke:black;stroke-width:0.13;stroke-miterlimit:22.9256}
    .str12 {stroke:#DBDBDB;stroke-width:0.13;stroke-miterlimit:22.9256}
    .str4 {stroke:#F5A980;stroke-width:0.13;stroke-miterlimit:22.9256}
    .str1 {stroke:#FA0505;stroke-width:0.13;stroke-miterlimit:22.9256}
    .str2 {stroke:#030303;stroke-width:1.03;stroke-miterlimit:22.9256}
    .str3 {stroke:#030303;stroke-width:0.26;stroke-miterlimit:22.9256}
    .str10 {stroke:#F5A980;stroke-width:0.26;stroke-miterlimit:22.9256}
    .str11 {stroke:#F5A980;stroke-width:0.38;stroke-miterlimit:22.9256}
    .str8 {stroke:#DBDBDB;stroke-width:0.12;stroke-miterlimit:22.9256}
    .str13 {stroke:#F5A980;stroke-width:0.12;stroke-miterlimit:22.9256}
    .str9 {stroke:#E1E1E1;stroke-width:0.12;stroke-miterlimit:22.9256}
    .str5 {stroke:#454545;stroke-width:1.92;stroke-linecap:round;stroke-miterlimit:22.9256}
    .fil2 {fill:none}
    .fil5 {fill:black}
    .fil3 {fill:black}
    .fil7 {fill:#666666}
    .fil6 {fill:#999999}
    .fil9 {fill:#CCCCCC}
    .fil8 {fill:#F5A980}
    .fil4 {fill:#F5B796}
    .fil0 {fill:white}
    .fil1 {fill:white}
   ]]>
  </style>
 </defs>
 <g id="Camada_x0020_1">
  <metadata id="CorelCorpID_0Corel-Layer"/>
  <path class="fil0 str0" d="M4.8 1.92l58.42 0c1.56,0 2.81,1.44 2.81,3.21l0 57.69c0,1.78 -1.25,3.21 -2.81,3.21l-58.42 0c-1.55,0 -2.81,-1.43 -2.81,-3.21 0,-6.93 -0.1,-55.87 -0.06,-58.38 0.03,-1.39 1.71,-2.52 2.87,-2.52z"/>
  <g id="_2789540805680">
   <g>
    <g>
     <polygon class="fil1 str1" points="25.11,34.51 22.21,39.66 20.27,36.49 24.19,32.39 "/>
     <polygon class="fil1 str1" points="15.11,34.69 18.36,39.58 20.09,36.6 15.8,32.33 "/>
     <path class="fil1 str1" d="M15.08 34.65l3.27 5.22 0.52 -0.93 0.58 0.53 -0.12 8.21c-4.09,0.01 -8.18,0.01 -12.27,0.02 -0.62,0.09 -0.98,-0.61 -0.97,-1.08 0.02,-1.15 0.34,-4.45 0.58,-7.52 0.1,-1.29 0.37,-1.39 1.27,-1.67 1.43,-0.44 6.79,-2.63 7.14,-2.78z"/>
     <path class="fil1 str1" d="M25.16 34.56l-2.99 5.29 -0.52 -0.94 -0.58 0.54 0.24 8.27c4.09,0.01 6.44,0.05 10.53,0.06 1.11,0.01 1.43,-0.26 1.4,-1.16 -0.03,-1.15 -0.27,-4.52 -0.55,-7.58 -0.08,-0.85 -0.08,-1.28 -0.93,-1.6 -1.41,-0.55 -6.25,-2.73 -6.6,-2.88z"/>
     <path class="fil2 str2" d="M32.3 47.77l-25.32 0.02c-0.56,0.01 -1.07,-0.38 -1,-1.24 0.21,-2.59 0.41,-5.17 0.61,-7.75 0.09,-0.66 0.37,-1.09 0.88,-1.25l7.77 -2.97 0.63 -2.29 4.3 4.24 3.97 -4.26 0.97 2.24 6.97 3.09c0.37,0.25 0.6,0.66 0.65,1.27 0.24,2.57 0.48,5.14 0.72,7.72 0.08,0.69 -0.46,1.2 -1.15,1.18z"/>
     <polyline class="fil2 str2" points="15.18,34.7 18.38,39.67 20.12,36.65 22.21,39.66 25.05,34.63 "/>
     <polygon class="fil3 str3" points="21.55,39.01 20.11,36.83 18.9,39.01 19.49,39.56 19.36,47.8 21.62,47.8 21.12,39.57 "/>
    </g>
    <path class="fil4 str4" d="M16.76 32.87l3.4 3.33 3.14 -3.39 -0.1 -1.4c-0.66,0.7 -1.32,1.4 -1.98,2.1 -0.38,0.46 -1.54,0.49 -2.1,0.02l-2.39 -2.14 0.03 1.48z"/>
    <path class="fil4 str4" d="M26.31 23.08c-0.2,0.04 -0.3,0.34 -0.45,0.52l0.17 -0.61 -1.69 -1.3 0.01 -2.73 -2.28 -0.02 -1.92 0.63 -1.99 -0.65 -2.46 0.03 -0.13 2.28 -1.13 1.6c-0.14,-0.21 -0.27,-0.42 -0.41,-0.63 -0.07,-0.21 -0.32,-0.18 -0.45,-0.1 -0.17,0.06 -0.24,0.22 -0.33,0.55 -0.09,0.36 -0.05,0.73 0,1.09l0.25 1.4c0.07,0.24 0.22,0.34 0.45,0.32 0.07,0.02 0.2,-0.07 0.42,-0.32 0.07,1.05 0.25,2.01 0.55,2.86 0.43,1.21 1.01,2.33 1.74,3.37 0.79,0.71 1.58,1.41 2.37,2.12 0.73,0.62 1.45,0.67 2.15,0.03 1.09,-1.02 2.14,-2.08 3.13,-3.17 0.44,-0.63 0.78,-1.29 1.02,-1.97 0.15,-0.83 0.3,-1.65 0.45,-2.47 0.06,0.12 0.14,0.18 0.24,0.16 0.11,0.01 0.38,-0.05 0.53,-0.23 0.33,-0.69 0.53,-1.38 0.64,-2.07 0.04,-0.22 -0.12,-0.43 -0.3,-0.55 -0.16,-0.13 -0.45,-0.2 -0.58,-0.14z"/>
    <g>
     <path class="fil5" d="M22.74 24c-0.33,0.07 -0.56,0.3 -0.46,0.74 0.07,0.31 0.34,0.55 0.71,0.47 0.69,-0.15 0.6,-1.39 -0.25,-1.21z"/>
     <path class="fil5" d="M17.45 24c-0.81,0.17 -0.5,1.38 0.25,1.21 0.29,-0.06 0.51,-0.35 0.46,-0.76 -0.05,-0.32 -0.36,-0.53 -0.71,-0.45z"/>
     <line class="fil2 str5" x1="16.12" y1="22.38" x2="19.17" y2= "22.68" />
     <path class="fil3 str6" d="M15.67 21.2l-1.28 1.77c-0.43,-1.45 -0.73,-3.19 -0.35,-5.49 0.35,-2.19 1.49,-3.05 2.83,-3.27 2.4,-0.38 4.53,-0.34 6.44,0.04 1.48,0.54 2.53,1.94 2.75,3.14 0.52,2.12 0.22,3.45 -0.04,5.57 -0.57,-0.43 -1.16,-0.87 -1.72,-1.3 -0.2,-0.87 -0.21,-1.79 -0.03,-2.7 -0.85,0.25 -1.38,0.24 -2.18,0 -0.99,0.88 -2.73,0.86 -3.97,0 -0.7,0.19 -1.48,0.21 -2.37,0 0.1,0.79 0.1,1.55 -0.08,2.24z"/>
     <line class="fil2 str5" x1="23.94" y1="22.38" x2="20.89" y2= "22.68" />
     <path class="fil6" d="M22.64 23.93c-0.14,-0.25 0.38,-0.49 1,-0.47 0.45,0.07 0.77,0.24 0.91,0.55 0.02,0.08 0.08,0.14 0.01,0.24l-0.29 0.19c-0.41,-0.35 -0.97,-0.49 -1.63,-0.51z"/>
     <path class="fil6" d="M18.01 23.93c0.14,-0.25 -0.37,-0.49 -1,-0.47 -0.45,0.07 -0.77,0.24 -0.91,0.55 -0.02,0.08 -0.08,0.14 -0.01,0.24l0.29 0.19c0.41,-0.35 0.97,-0.49 1.63,-0.51z"/>
    </g>
    <path class="fil2 str7" d="M21.43 23.3l-0.45 0.43 -0.19 0.86 -0.14 1.44 0.17 0.74 0.56 0.91c0.03,0.09 0.01,0.18 -0.05,0.24l-0.92 0.7c-0.16,0.11 -0.33,0.1 -0.49,-0.01l-1.08 -0.72 -0.02 -0.3 0.44 -0.9 0.09 -0.66 -0.22 -1.41 -0.26 -0.94 -0.63 -0.44"/>
    <g>
     <path class="fil7" d="M21.94 29.67l-3.58 -0.05c-0.08,0.02 -0.09,0.05 -0.05,0.11l0.79 0.72c0.31,0.2 0.64,0.31 1,0.31 0.39,0.02 0.74,-0.05 1.05,-0.23l0.87 -0.71c0.05,-0.15 -0.06,-0.1 -0.08,-0.15z"/>
     <g>
      <path class="fil1 str8" d="M18.89 29.44l0.01 0.36c0,0.1 0.1,0.14 0.23,0.14 0.08,0.05 0.18,0.05 0.29,0 0.08,0.07 0.17,0.07 0.26,0 0.15,0.09 0.31,0.09 0.47,0 0.15,0.09 0.31,0.09 0.47,0 0.11,0.06 0.22,0.06 0.32,0 0.11,0.04 0.22,0.05 0.32,0l0.09 -0.01c0.1,0 0.16,-0.05 0.19,-0.14l0.04 -0.36c-0.91,0.08 -1.8,0.08 -2.69,0.01z"/>
      <line class="fil2 str9" x1="20.62" y1="29.6" x2="20.62" y2= "29.94" />
      <line class="fil2 str9" x1="20.94" y1="29.6" x2="20.94" y2= "29.94" />
      <line class="fil2 str9" x1="21.26" y1="29.6" x2="21.26" y2= "29.93" />
      <line class="fil2 str9" x1="19.13" y1="29.63" x2="19.13" y2= "29.94" />
      <line class="fil2 str9" x1="19.42" y1="29.64" x2="19.42" y2= "29.95" />
      <line class="fil2 str9" x1="19.68" y1="29.63" x2="19.68" y2= "29.94" />
      <line class="fil2 str9" x1="20.15" y1="29.63" x2="20.15" y2= "29.94" />
      <path class="fil2 str10" d="M19.13 30.82l-1.07 -1.15c-0.14,-0.22 0.17,-0.32 0.37,-0.28 1.29,0.15 2.2,0.12 3.49,0.02 0.41,0.01 0.47,0.12 0.24,0.42l-0.89 0.99c-0.72,0.48 -1.43,0.5 -2.14,0z"/>
     </g>
    </g>
    <polyline class="fil2 str4" points="18.55,32.31 19.32,32.01 20.09,31.76 21.01,31.9 21.9,32.35 "/>
    <path class="fil2 str11" d="M13.92 24.65c-0.25,-0.38 -0.35,-1.02 -0.34,-1.82 0.17,-0.6 0.32,-0.29 0.41,-0.06 0.17,0.5 0.18,0.77 0.01,1.13"/>
    <path class="fil2 str11" d="M26.1 23.79c0.05,-0.3 0.23,-0.56 0.42,-0.54 0.33,-0.04 0.54,0.23 0.48,0.56 -0.12,0.82 -0.42,1.2 -0.68,1.34"/>
    <path class="fil2 str10" d="M21.58 24.71c0.12,0.15 0.32,0.21 0.51,0.32 0.44,0.25 0.75,0.64 1.79,-0.16 0.4,-0.31 0.44,-0.07 0.84,-0.19"/>
    <path class="fil2 str10" d="M18.75 24.71c-0.11,0.15 -0.29,0.21 -0.47,0.32 -0.4,0.25 -0.68,0.64 -1.63,-0.16 -0.38,-0.31 -0.41,-0.07 -0.77,-0.19"/>
    <path class="fil2 str10" d="M15.97 24.63c0.14,0 0.32,0.07 0.43,-0.04 0.87,-0.82 1.47,-0.76 1.94,-0.34 0.11,0.1 0.28,0.33 0.43,0.33"/>
    <path class="fil2 str10" d="M24.73 24.63c-0.16,0 -0.37,0.07 -0.49,-0.04 -0.98,-0.82 -1.65,-0.76 -2.19,-0.34 -0.12,0.1 -0.31,0.33 -0.48,0.33"/>
    <path class="fil8 str4" d="M22.02 29.88c-1.52,1.23 -2.75,0.91 -3.93,-0.3 1.01,1.87 2.71,2.19 3.93,0.3z"/>
    <path class="fil9 str4" d="M18.84 29.52c0.04,-0.05 -0.59,-0.07 -0.75,0.01 -0.03,0.01 0.05,0.01 0.1,0.1 0.22,0.3 0.55,0.53 0.78,0.66l-0.13 -0.77z"/>
    <path class="fil9 str4" d="M21.63 29.55c-0.01,-0.17 0.57,-0.1 0.6,0.01 0.06,0.15 -0.35,0.45 -0.7,0.68l0.1 -0.69z"/>
    <path class="fil1" d="M19.78 30.63c-0.27,-0.07 -0.52,-0.15 -0.68,-0.29 0.31,-0.08 0.14,0.04 0.28,0 0.32,-0.1 0.27,0.04 0.29,0.03 0.27,-0.13 0.44,-0.01 0.47,0.04 0.1,0.12 -0.09,-0.2 0.46,-0.01 0.12,0.04 -0.07,-0.1 0.34,0 0.17,0.04 -0.1,-0.08 0.34,-0.04 -0.21,0.1 -0.44,0.21 -0.69,0.28 -0.27,0.07 -0.54,0.06 -0.81,-0.01z"/>
    <path class="fil2 str12" d="M19.08 30.35c0.12,-0.05 0.22,-0.04 0.3,0.01 0.1,-0.08 0.2,-0.07 0.29,0 0.16,-0.09 0.32,-0.04 0.47,0.05 0.18,-0.1 0.35,-0.1 0.46,-0.01 0.08,-0.08 0.2,-0.08 0.35,0 0.14,-0.11 0.24,-0.09 0.33,-0.01"/>
    <line class="fil2 str8" x1="19.38" y1="30.39" x2="19.38" y2= "30.52" />
    <line class="fil2 str8" x1="19.67" y1="30.38" x2="19.66" y2= "30.61" />
    <line class="fil2 str8" x1="20.15" y1="30.38" x2="20.14" y2= "30.68" />
    <line class="fil2 str8" x1="20.6" y1="30.36" x2="20.6" y2= "30.65" />
    <line class="fil2 str8" x1="20.95" y1="30.35" x2="20.95" y2= "30.53" />
    <path class="fil8 str13" d="M19.92 29.04c-0.07,-0.08 -0.19,-0.07 -0.35,-0.01 -0.4,0.18 -0.81,0.3 -1.25,0.35 -0.17,0 -0.37,0.2 -0.1,0.16 0.11,-0.02 0.5,-0.05 0.76,0.02 0.75,0.21 1.69,0.23 2.59,-0.04 0.19,-0.05 0.44,-0.03 0.58,-0.01 0.16,0.01 0.11,-0.05 -0.02,-0.08 -0.58,-0.14 -1.16,-0.18 -1.4,-0.31 -0.11,-0.03 -0.22,-0.16 -0.33,-0.08 -0.15,0.06 -0.31,0.05 -0.48,0z"/>
   </g>
   <g>
    <g>
     <polygon class="fil1 str1" points="52.6,34.28 49.7,39.43 47.76,36.26 51.68,32.16 "/>
     <polygon class="fil1 str1" points="42.6,34.45 45.85,39.35 47.58,36.36 43.29,32.1 "/>
     <path class="fil1 str1" d="M42.57 34.42l3.27 5.22 0.52 -0.94 0.58 0.54 -0.12 8.21c-4.09,0 -8.18,0.01 -12.27,0.01 -0.62,0.1 -0.98,-0.6 -0.97,-1.08 0.02,-1.15 0.34,-4.45 0.58,-7.51 0.1,-1.29 0.37,-1.39 1.27,-1.67 1.43,-0.45 6.79,-2.63 7.14,-2.78z"/>
     <path class="fil1 str1" d="M52.65 34.33l-2.99 5.29 -0.52 -0.94 -0.58 0.54 0.24 8.27c4.09,0 6.44,0.05 10.53,0.05 1.12,0.01 1.43,-0.25 1.4,-1.15 -0.03,-1.15 -0.27,-4.52 -0.55,-7.59 -0.08,-0.85 -0.08,-1.27 -0.93,-1.6 -1.41,-0.54 -6.25,-2.72 -6.6,-2.87z"/>
     <path class="fil2 str2" d="M59.79 47.54l-25.32 0.02c-0.55,0.01 -1.07,-0.39 -1,-1.25 0.21,-2.58 0.41,-5.16 0.62,-7.75 0.08,-0.66 0.37,-1.08 0.88,-1.24l7.76 -2.98 0.63 -2.28 4.31 4.24 3.96 -4.27 0.97 2.25 6.97 3.09c0.37,0.25 0.6,0.65 0.65,1.26 0.24,2.58 0.48,5.15 0.72,7.72 0.08,0.69 -0.46,1.21 -1.15,1.19z"/>
     <polyline class="fil2 str2" points="42.67,34.46 45.87,39.44 47.61,36.42 49.7,39.43 52.54,34.4 "/>
     <polygon class="fil3 str3" points="49.05,38.78 47.6,36.6 46.4,38.78 46.98,39.33 46.85,47.57 49.11,47.57 48.61,39.33 "/>
    </g>
    <path class="fil4 str4" d="M44.26 32.63l3.39 3.33 3.14 -3.38 -0.1 -1.41c-0.66,0.7 -1.32,1.41 -1.98,2.11 -0.38,0.45 -1.53,0.48 -2.1,0.01l-2.39 -2.13 0.04 1.47z"/>
    <path class="fil4 str4" d="M53.8 22.84c-0.2,0.04 -0.3,0.35 -0.45,0.52l0.17 -0.6 -1.69 -1.3 0.01 -2.74 -2.28 -0.01 -1.92 0.63 -1.99 -0.66 -2.46 0.03 -0.13 2.29 -1.13 1.6c-0.14,-0.21 -0.27,-0.42 -0.41,-0.63 -0.07,-0.21 -0.32,-0.18 -0.45,-0.11 -0.17,0.06 -0.24,0.22 -0.32,0.56 -0.1,0.36 -0.06,0.73 -0.01,1.09l0.25 1.4c0.07,0.23 0.22,0.34 0.45,0.32 0.07,0.02 0.2,-0.07 0.42,-0.32 0.08,1.05 0.25,2.01 0.56,2.85 0.42,1.21 1,2.34 1.74,3.38 0.79,0.7 1.57,1.41 2.36,2.11 0.74,0.62 1.45,0.68 2.15,0.03 1.09,-1.01 2.14,-2.07 3.14,-3.17 0.43,-0.63 0.77,-1.29 1.01,-1.97 0.15,-0.82 0.3,-1.64 0.45,-2.47 0.06,0.12 0.14,0.18 0.24,0.17 0.11,0 0.38,-0.05 0.53,-0.23 0.33,-0.69 0.53,-1.38 0.64,-2.07 0.04,-0.22 -0.12,-0.43 -0.3,-0.56 -0.16,-0.12 -0.45,-0.2 -0.58,-0.14z"/>
    <g>
     <path class="fil5" d="M50.23 23.76c-0.33,0.07 -0.55,0.31 -0.46,0.75 0.07,0.31 0.34,0.55 0.71,0.47 0.7,-0.16 0.6,-1.39 -0.25,-1.22z"/>
     <path class="fil5" d="M44.94 23.76c-0.81,0.17 -0.5,1.38 0.25,1.22 0.29,-0.06 0.51,-0.36 0.46,-0.76 -0.05,-0.32 -0.36,-0.53 -0.71,-0.46z"/>
     <line class="fil2 str5" x1="43.61" y1="22.14" x2="46.66" y2= "22.44" />
     <path class="fil3 str6" d="M43.16 20.97l-1.28 1.77c-0.43,-1.45 -0.73,-3.19 -0.34,-5.5 0.34,-2.18 1.48,-3.04 2.82,-3.27 2.4,-0.38 4.53,-0.33 6.45,0.05 1.47,0.54 2.53,1.93 2.74,3.13 0.52,2.13 0.22,3.45 -0.04,5.58 -0.56,-0.44 -1.16,-0.87 -1.72,-1.3 -0.2,-0.87 -0.21,-1.79 -0.03,-2.71 -0.85,0.26 -1.38,0.25 -2.18,0 -0.98,0.88 -2.73,0.87 -3.97,0 -0.69,0.19 -1.48,0.21 -2.37,0 0.1,0.8 0.1,1.56 -0.08,2.25z"/>
     <line class="fil2 str5" x1="51.43" y1="22.14" x2="48.38" y2= "22.44" />
     <path class="fil6" d="M50.13 23.69c-0.14,-0.25 0.38,-0.49 1.01,-0.47 0.44,0.07 0.76,0.25 0.9,0.56 0.02,0.08 0.08,0.13 0.01,0.23l-0.29 0.19c-0.41,-0.34 -0.97,-0.48 -1.63,-0.51z"/>
     <path class="fil6" d="M45.5 23.69c0.14,-0.25 -0.37,-0.49 -1,-0.47 -0.45,0.07 -0.77,0.25 -0.91,0.56 -0.02,0.08 -0.08,0.13 -0.01,0.23l0.29 0.19c0.41,-0.34 0.97,-0.48 1.63,-0.51z"/>
    </g>
    <path class="fil2 str7" d="M48.92 23.07l-0.45 0.43 -0.18 0.86 -0.15 1.44 0.17 0.74 0.56 0.9c0.03,0.1 0.01,0.18 -0.05,0.25l-0.92 0.69c-0.16,0.11 -0.33,0.1 -0.49,-0.01l-1.08 -0.71 -0.02 -0.3 0.44 -0.9 0.09 -0.66 -0.22 -1.41 -0.26 -0.95 -0.62 -0.43"/>
    <g>
     <path class="fil7" d="M49.43 29.44l-3.58 -0.05c-0.07,0.01 -0.09,0.05 -0.05,0.11l0.79 0.72c0.31,0.2 0.64,0.3 1,0.3 0.39,0.03 0.74,-0.05 1.05,-0.23l0.87 -0.71c0.05,-0.15 -0.05,-0.09 -0.08,-0.14z"/>
     <g>
      <path class="fil1 str8" d="M46.38 29.21l0.01 0.35c0,0.11 0.1,0.15 0.23,0.15 0.08,0.05 0.18,0.04 0.29,0 0.08,0.06 0.17,0.06 0.26,0 0.15,0.09 0.31,0.08 0.47,0 0.15,0.08 0.31,0.09 0.47,-0.01 0.11,0.07 0.22,0.06 0.32,0 0.11,0.05 0.22,0.06 0.32,0l0.09 0c0.1,-0.01 0.16,-0.06 0.19,-0.14l0.04 -0.36c-0.91,0.08 -1.8,0.08 -2.69,0.01z"/>
      <line class="fil2 str9" x1="48.11" y1="29.36" x2="48.11" y2= "29.7" />
      <line class="fil2 str9" x1="48.43" y1="29.37" x2="48.43" y2= "29.71" />
      <line class="fil2 str9" x1="48.75" y1="29.37" x2="48.75" y2= "29.7" />
      <line class="fil2 str9" x1="46.62" y1="29.39" x2="46.62" y2= "29.71" />
      <line class="fil2 str9" x1="46.91" y1="29.4" x2="46.91" y2= "29.72" />
      <line class="fil2 str9" x1="47.17" y1="29.4" x2="47.17" y2= "29.7" />
      <line class="fil2 str9" x1="47.64" y1="29.4" x2="47.64" y2= "29.71" />
      <path class="fil2 str10" d="M46.62 30.59l-1.07 -1.15c-0.14,-0.23 0.17,-0.32 0.37,-0.28 1.29,0.15 2.2,0.12 3.49,0.01 0.41,0.02 0.48,0.13 0.24,0.43l-0.89 0.98c-0.72,0.48 -1.43,0.51 -2.14,0.01z"/>
     </g>
    </g>
    <polyline class="fil2 str4" points="46.04,32.08 46.81,31.77 47.58,31.53 48.5,31.67 49.4,32.12 "/>
    <path class="fil2 str11" d="M41.41 24.41c-0.25,-0.37 -0.34,-1.01 -0.34,-1.82 0.17,-0.6 0.32,-0.29 0.41,-0.05 0.17,0.49 0.18,0.77 0.01,1.13"/>
    <path class="fil2 str11" d="M53.59 23.55c0.05,-0.29 0.23,-0.56 0.42,-0.53 0.33,-0.05 0.54,0.22 0.48,0.56 -0.12,0.82 -0.42,1.19 -0.68,1.33"/>
    <path class="fil2 str10" d="M49.07 24.47c0.13,0.16 0.32,0.22 0.51,0.33 0.45,0.25 0.75,0.63 1.79,-0.16 0.41,-0.31 0.44,-0.07 0.84,-0.2"/>
    <path class="fil2 str10" d="M46.24 24.47c-0.11,0.16 -0.29,0.22 -0.46,0.33 -0.41,0.25 -0.69,0.63 -1.64,-0.16 -0.38,-0.31 -0.41,-0.07 -0.77,-0.2"/>
    <path class="fil2 str10" d="M43.46 24.4c0.14,-0.01 0.32,0.06 0.43,-0.04 0.87,-0.82 1.47,-0.77 1.94,-0.34 0.12,0.1 0.28,0.33 0.43,0.33"/>
    <path class="fil2 str10" d="M52.22 24.4c-0.16,-0.01 -0.37,0.06 -0.49,-0.04 -0.98,-0.82 -1.65,-0.77 -2.19,-0.34 -0.12,0.1 -0.31,0.33 -0.48,0.33"/>
    <path class="fil8 str4" d="M49.51 29.65c-1.52,1.23 -2.75,0.9 -3.93,-0.3 1.01,1.87 2.71,2.19 3.93,0.3z"/>
    <path class="fil9 str4" d="M46.33 29.29c0.04,-0.05 -0.59,-0.08 -0.75,0 -0.03,0.02 0.05,0.02 0.1,0.11 0.22,0.29 0.55,0.53 0.78,0.66l-0.13 -0.77z"/>
    <path class="fil9 str4" d="M49.12 29.32c-0.01,-0.18 0.57,-0.11 0.6,0.01 0.06,0.15 -0.35,0.45 -0.7,0.68l0.1 -0.69z"/>
    <path class="fil1" d="M47.27 30.39c-0.27,-0.06 -0.51,-0.14 -0.67,-0.28 0.3,-0.09 0.14,0.04 0.27,0 0.32,-0.1 0.27,0.04 0.29,0.03 0.28,-0.13 0.44,-0.01 0.47,0.03 0.1,0.13 -0.09,-0.19 0.47,-0.01 0.11,0.04 -0.08,-0.1 0.34,0 0.16,0.04 -0.11,-0.08 0.34,-0.03 -0.22,0.1 -0.45,0.21 -0.7,0.27 -0.27,0.07 -0.54,0.06 -0.81,-0.01z"/>
    <path class="fil2 str12" d="M46.57 30.12c0.12,-0.05 0.22,-0.05 0.31,0.01 0.09,-0.09 0.19,-0.08 0.28,0 0.16,-0.09 0.32,-0.05 0.47,0.04 0.18,-0.09 0.36,-0.1 0.46,-0.01 0.08,-0.07 0.2,-0.07 0.35,0 0.14,-0.1 0.24,-0.09 0.33,0"/>
    <line class="fil2 str8" x1="46.87" y1="30.15" x2="46.87" y2= "30.28" />
    <line class="fil2 str8" x1="47.16" y1="30.14" x2="47.15" y2= "30.37" />
    <line class="fil2 str8" x1="47.64" y1="30.15" x2="47.63" y2= "30.45" />
    <line class="fil2 str8" x1="48.1" y1="30.13" x2="48.09" y2= "30.41" />
    <line class="fil2 str8" x1="48.44" y1="30.12" x2="48.44" y2= "30.3" />
    <path class="fil8 str13" d="M47.41 28.8c-0.06,-0.07 -0.19,-0.06 -0.35,0 -0.4,0.17 -0.81,0.29 -1.24,0.35 -0.18,0 -0.38,0.2 -0.11,0.16 0.12,-0.02 0.5,-0.06 0.76,0.02 0.75,0.21 1.69,0.23 2.59,-0.04 0.19,-0.06 0.44,-0.03 0.58,-0.02 0.16,0.01 0.11,-0.05 -0.02,-0.08 -0.58,-0.13 -1.16,-0.17 -1.4,-0.31 -0.11,-0.02 -0.21,-0.16 -0.32,-0.08 -0.16,0.06 -0.32,0.06 -0.49,0z"/>
   </g>
   <g>
    <g>
     <polygon class="fil1 str1" points="39.28,44.04 36.37,49.19 34.44,46.02 38.36,41.92 "/>
     <polygon class="fil1 str1" points="29.28,44.21 32.53,49.11 34.26,46.12 29.97,41.86 "/>
     <path class="fil1 str1" d="M29.25 44.18l3.26 5.22 0.53 -0.94 0.57 0.54 -0.11 8.21c-4.09,0 -8.18,0.01 -12.28,0.01 -0.62,0.1 -0.97,-0.6 -0.96,-1.08 0.02,-1.15 0.34,-4.45 0.57,-7.51 0.1,-1.29 0.38,-1.39 1.28,-1.67 1.42,-0.45 6.79,-2.63 7.14,-2.78z"/>
     <path class="fil1 str1" d="M39.33 44.09l-2.99 5.29 -0.53 -0.94 -0.57 0.54 0.24 8.27c4.09,0 6.44,0.05 10.53,0.05 1.11,0.01 1.43,-0.25 1.4,-1.15 -0.04,-1.15 -0.27,-4.52 -0.55,-7.59 -0.08,-0.85 -0.09,-1.27 -0.93,-1.6 -1.41,-0.54 -6.25,-2.72 -6.6,-2.87z"/>
     <path class="fil2 str2" d="M46.47 57.3l-25.32 0.02c-0.56,0.01 -1.07,-0.39 -1,-1.25 0.21,-2.58 0.41,-5.16 0.61,-7.75 0.09,-0.66 0.37,-1.08 0.88,-1.24l7.77 -2.98 0.62 -2.28 4.31 4.24 3.96 -4.27 0.98 2.25 6.97 3.09c0.36,0.25 0.6,0.65 0.65,1.26 0.24,2.58 0.48,5.15 0.72,7.72 0.08,0.69 -0.46,1.21 -1.15,1.19z"/>
     <polyline class="fil2 str2" points="29.35,44.22 32.55,49.2 34.29,46.18 36.37,49.19 39.22,44.16 "/>
     <polygon class="fil3 str3" points="35.72,48.54 34.28,46.36 33.07,48.54 33.66,49.09 33.53,57.33 35.79,57.33 35.29,49.09 "/>
    </g>
    <path class="fil4 str4" d="M30.93 42.39l3.4 3.33 3.14 -3.38 -0.1 -1.41c-0.66,0.71 -1.32,1.41 -1.99,2.11 -0.38,0.45 -1.53,0.49 -2.09,0.02l-2.4 -2.14 0.04 1.47z"/>
    <path class="fil4 str4" d="M40.47 32.6c-0.19,0.04 -0.3,0.35 -0.45,0.52l0.18 -0.6 -1.69 -1.3 0 -2.74 -2.27 -0.01 -1.92 0.63 -1.99 -0.66 -2.47 0.03 -0.13 2.29 -1.13 1.6c-0.13,-0.21 -0.27,-0.42 -0.4,-0.63 -0.07,-0.21 -0.32,-0.18 -0.45,-0.11 -0.17,0.06 -0.25,0.22 -0.33,0.56 -0.1,0.36 -0.06,0.73 0,1.09l0.25 1.4c0.06,0.23 0.22,0.34 0.45,0.32 0.07,0.02 0.2,-0.07 0.41,-0.32 0.08,1.05 0.26,2.01 0.56,2.85 0.43,1.21 1.01,2.34 1.74,3.38 0.79,0.7 1.58,1.41 2.37,2.11 0.73,0.62 1.45,0.68 2.15,0.03 1.09,-1.01 2.14,-2.07 3.13,-3.17 0.43,-0.63 0.77,-1.28 1.01,-1.97 0.16,-0.82 0.31,-1.64 0.46,-2.47 0.06,0.12 0.14,0.18 0.24,0.17 0.11,0 0.38,-0.05 0.53,-0.23 0.33,-0.69 0.52,-1.38 0.64,-2.07 0.04,-0.22 -0.12,-0.43 -0.3,-0.56 -0.16,-0.12 -0.45,-0.2 -0.59,-0.14z"/>
    <g>
     <path class="fil5" d="M36.91 33.53c-0.33,0.06 -0.56,0.3 -0.46,0.74 0.07,0.31 0.34,0.55 0.71,0.47 0.69,-0.15 0.6,-1.39 -0.25,-1.21z"/>
     <path class="fil5" d="M31.62 33.52c-0.82,0.17 -0.5,1.38 0.25,1.22 0.28,-0.06 0.51,-0.36 0.45,-0.76 -0.04,-0.32 -0.35,-0.53 -0.7,-0.46z"/>
     <line class="fil2 str5" x1="30.29" y1="31.9" x2="33.34" y2= "32.2" />
     <path class="fil3 str6" d="M29.84 30.73l-1.29 1.77c-0.43,-1.45 -0.73,-3.19 -0.34,-5.5 0.35,-2.18 1.49,-3.04 2.82,-3.27 2.41,-0.38 4.54,-0.33 6.45,0.05 1.47,0.54 2.53,1.93 2.74,3.13 0.53,2.13 0.23,3.45 -0.03,5.58 -0.57,-0.44 -1.16,-0.87 -1.72,-1.3 -0.2,-0.87 -0.21,-1.79 -0.04,-2.71 -0.84,0.26 -1.37,0.25 -2.17,0 -0.99,0.88 -2.73,0.87 -3.97,0 -0.7,0.19 -1.48,0.21 -2.37,0 0.1,0.8 0.1,1.56 -0.08,2.25z"/>
     <line class="fil2 str5" x1="38.11" y1="31.9" x2="35.06" y2= "32.2" />
     <path class="fil6" d="M36.81 33.45c-0.14,-0.25 0.37,-0.49 1,-0.47 0.45,0.08 0.77,0.25 0.91,0.56 0.02,0.08 0.08,0.13 0.01,0.23l-0.29 0.19c-0.41,-0.34 -0.97,-0.48 -1.63,-0.51z"/>
     <path class="fil6" d="M32.18 33.45c0.14,-0.25 -0.38,-0.49 -1,-0.47 -0.45,0.08 -0.77,0.25 -0.91,0.56 -0.02,0.08 -0.08,0.13 -0.01,0.23l0.29 0.19c0.41,-0.34 0.97,-0.48 1.63,-0.51z"/>
    </g>
    <path class="fil2 str7" d="M35.6 32.83l-0.45 0.43 -0.19 0.86 -0.15 1.44 0.18 0.74 0.55 0.9c0.04,0.1 0.02,0.18 -0.04,0.25l-0.92 0.69c-0.17,0.11 -0.33,0.1 -0.5,-0.01l-1.08 -0.71 -0.01 -0.3 0.43 -0.9 0.1 -0.66 -0.22 -1.41 -0.26 -0.95 -0.63 -0.43"/>
    <g>
     <path class="fil7" d="M36.1 39.2l-3.58 -0.05c-0.07,0.01 -0.08,0.05 -0.04,0.11l0.79 0.72c0.3,0.2 0.64,0.3 1,0.3 0.39,0.03 0.73,-0.04 1.04,-0.23l0.88 -0.71c0.05,-0.15 -0.06,-0.09 -0.09,-0.14z"/>
     <g>
      <path class="fil1 str8" d="M33.06 38.97l0 0.35c0.01,0.11 0.11,0.15 0.24,0.15 0.08,0.05 0.18,0.05 0.29,0 0.08,0.06 0.16,0.06 0.26,0 0.15,0.09 0.31,0.08 0.47,0 0.15,0.08 0.3,0.09 0.47,-0.01 0.11,0.07 0.22,0.06 0.32,0 0.11,0.05 0.22,0.06 0.32,0l0.09 0c0.1,-0.01 0.16,-0.06 0.19,-0.14l0.04 -0.36c-0.91,0.08 -1.81,0.08 -2.69,0.01z"/>
      <line class="fil2 str9" x1="34.78" y1="39.12" x2="34.79" y2= "39.46" />
      <line class="fil2 str9" x1="35.11" y1="39.13" x2="35.11" y2= "39.47" />
      <line class="fil2 str9" x1="35.43" y1="39.13" x2="35.43" y2= "39.46" />
      <line class="fil2 str9" x1="33.3" y1="39.16" x2="33.3" y2= "39.47" />
      <line class="fil2 str9" x1="33.59" y1="39.16" x2="33.59" y2= "39.48" />
      <line class="fil2 str9" x1="33.85" y1="39.16" x2="33.85" y2= "39.46" />
      <line class="fil2 str9" x1="34.32" y1="39.16" x2="34.32" y2= "39.47" />
      <path class="fil2 str10" d="M33.3 40.35l-1.08 -1.15c-0.13,-0.23 0.18,-0.32 0.38,-0.28 1.29,0.15 2.2,0.12 3.49,0.01 0.41,0.02 0.47,0.13 0.24,0.43l-0.9 0.98c-0.71,0.48 -1.42,0.51 -2.13,0.01z"/>
     </g>
    </g>
    <polyline class="fil2 str4" points="32.72,41.84 33.49,41.53 34.26,41.29 35.18,41.43 36.07,41.88 "/>
    <path class="fil2 str11" d="M28.09 34.17c-0.25,-0.37 -0.35,-1.01 -0.34,-1.82 0.17,-0.6 0.32,-0.29 0.41,-0.05 0.17,0.49 0.18,0.77 0.01,1.13"/>
    <path class="fil2 str11" d="M40.27 33.31c0.05,-0.29 0.22,-0.56 0.42,-0.53 0.33,-0.05 0.54,0.22 0.48,0.56 -0.13,0.82 -0.43,1.19 -0.68,1.33"/>
    <path class="fil2 str10" d="M35.75 34.23c0.12,0.16 0.31,0.22 0.51,0.33 0.44,0.25 0.75,0.64 1.79,-0.16 0.4,-0.31 0.44,-0.07 0.83,-0.2"/>
    <path class="fil2 str10" d="M32.92 34.23c-0.11,0.16 -0.29,0.22 -0.47,0.33 -0.4,0.25 -0.68,0.64 -1.64,-0.16 -0.37,-0.31 -0.4,-0.07 -0.76,-0.2"/>
    <path class="fil2 str10" d="M30.13 34.16c0.15,-0.01 0.33,0.06 0.44,-0.04 0.87,-0.82 1.47,-0.76 1.94,-0.34 0.11,0.1 0.28,0.33 0.43,0.33"/>
    <path class="fil2 str10" d="M38.9 34.16c-0.16,-0.01 -0.37,0.06 -0.49,-0.04 -0.98,-0.82 -1.65,-0.76 -2.19,-0.34 -0.12,0.1 -0.31,0.33 -0.48,0.33"/>
    <path class="fil8 str4" d="M36.19 39.41c-1.52,1.23 -2.76,0.9 -3.93,-0.3 1.01,1.87 2.71,2.19 3.93,0.3z"/>
    <path class="fil9 str4" d="M33.01 39.05c0.03,-0.05 -0.59,-0.08 -0.75,0 -0.03,0.02 0.05,0.02 0.1,0.11 0.22,0.29 0.55,0.53 0.77,0.66l-0.12 -0.77z"/>
    <path class="fil9 str4" d="M35.8 39.08c-0.01,-0.18 0.57,-0.11 0.6,0.01 0.06,0.15 -0.35,0.45 -0.7,0.68l0.1 -0.69z"/>
    <path class="fil1" d="M33.95 40.15c-0.27,-0.06 -0.52,-0.14 -0.68,-0.28 0.31,-0.09 0.14,0.04 0.28,0 0.31,-0.1 0.26,0.04 0.29,0.03 0.27,-0.13 0.44,-0.01 0.47,0.03 0.1,0.13 -0.09,-0.19 0.46,-0.01 0.12,0.04 -0.07,-0.1 0.34,0 0.17,0.04 -0.1,-0.08 0.34,-0.03 -0.21,0.1 -0.44,0.21 -0.7,0.27 -0.26,0.07 -0.53,0.06 -0.8,-0.01z"/>
    <path class="fil2 str12" d="M33.25 39.88c0.12,-0.05 0.21,-0.05 0.3,0.01 0.09,-0.08 0.19,-0.08 0.29,0 0.15,-0.09 0.32,-0.05 0.47,0.04 0.17,-0.09 0.35,-0.1 0.46,-0.01 0.08,-0.07 0.2,-0.07 0.35,0 0.14,-0.1 0.24,-0.09 0.33,0"/>
    <line class="fil2 str8" x1="33.55" y1="39.91" x2="33.55" y2= "40.04" />
    <line class="fil2 str8" x1="33.83" y1="39.9" x2="33.83" y2= "40.14" />
    <line class="fil2 str8" x1="34.31" y1="39.91" x2="34.31" y2= "40.21" />
    <line class="fil2 str8" x1="34.77" y1="39.89" x2="34.77" y2= "40.18" />
    <line class="fil2 str8" x1="35.11" y1="39.88" x2="35.12" y2= "40.06" />
    <path class="fil8 str13" d="M34.09 38.56c-0.07,-0.07 -0.19,-0.06 -0.35,0 -0.4,0.17 -0.82,0.29 -1.25,0.35 -0.17,0 -0.37,0.2 -0.1,0.16 0.11,-0.02 0.5,-0.06 0.75,0.02 0.76,0.21 1.69,0.23 2.6,-0.04 0.19,-0.05 0.44,-0.03 0.58,-0.02 0.16,0.01 0.11,-0.05 -0.02,-0.08 -0.59,-0.13 -1.16,-0.17 -1.4,-0.31 -0.12,-0.02 -0.22,-0.15 -0.33,-0.08 -0.15,0.06 -0.31,0.06 -0.48,0z"/>
   </g>
  </g>
 </g>
</svg>
