<?xml version="1.0" encoding="UTF-8"?>
<!DOCTYPE svg PUBLIC "-//W3C//DTD SVG 1.1//EN" "http://www.w3.org/Graphics/SVG/1.1/DTD/svg11.dtd">
<!-- Creator: CorelDRAW 2021 (64 Bit) -->
<svg xmlns="http://www.w3.org/2000/svg" xml:space="preserve" width="531px" height="531px" version="1.1" style="shape-rendering:geometricPrecision; text-rendering:geometricPrecision; image-rendering:optimizeQuality; fill-rule:evenodd; clip-rule:evenodd"
viewBox="0 0 9.92 9.92"
 xmlns:xlink="http://www.w3.org/1999/xlink"
 xmlns:xodm="http://www.corel.com/coreldraw/odm/2003">
 <defs>
  <style type="text/css">
   <![CDATA[
    .fil5 {fill:black}
    .fil6 {fill:#373434}
    .fil1 {fill:#B8B4B6}
    .fil2 {fill:#F6FE00}
    .fil4 {fill:#FE0000}
    .fil0 {fill:#FEFEFE}
    .fil3 {fill:#FF7A02}
   ]]>
  </style>
 </defs>
 <g id="Camada_x0020_1">
  <metadata id="CorelCorpID_0Corel-Layer"/>
  <g id="_2482939711952">
   <path class="fil0" d="M0.92 5.21c-0.18,-3.01 2.81,-5.09 5.53,-4.02 0.49,0.2 0.86,0.44 1.23,0.78 0.77,0.72 1.25,1.65 1.31,2.75 0.05,0.9 -0.18,1.66 -0.61,2.39 -0.21,0.34 -0.63,0.82 -0.96,1.05l-0.3 0.21c-1.36,0.92 -3.33,0.81 -4.61,-0.2 -0.11,-0.08 -0.18,-0.13 -0.27,-0.23 -0.4,-0.42 -0.57,-0.54 -0.88,-1.14 -0.24,-0.46 -0.4,-0.99 -0.44,-1.59zm-0.23 -4.64c-0.18,0.05 -0.12,0.22 -0.12,0.42l0.01 7.12c0,1.3 -0.13,1.23 0.41,1.23 0.9,0 8.11,0.03 8.24,0 0.15,-0.03 0.11,-0.27 0.11,-0.43l0 -6.03c0,-0.31 0.04,-2.06 -0.01,-2.2 -0.05,-0.16 -0.26,-0.11 -0.42,-0.11 -0.89,0 -8.12,-0.02 -8.22,0z"/>
   <path class="fil1" d="M0.69 0.57c0.1,-0.02 7.33,0 8.22,0 0.16,0 0.37,-0.05 0.42,0.11 0.05,0.14 0.01,1.89 0.01,2.2l0 6.03c0,0.16 0.04,0.4 -0.11,0.43 -0.13,0.03 -7.34,0 -8.24,0 -0.54,0 -0.41,0.07 -0.41,-1.23l-0.01 -7.12c0,-0.2 -0.06,-0.37 0.12,-0.42zm-0.69 0.12l0 6.11c0,0.67 0.02,1.29 0.02,1.94 0,0.39 -0.04,0.62 0.13,0.86 0.14,0.2 0.33,0.32 0.67,0.32l8.28 0c0.51,0 0.82,-0.31 0.82,-0.82l0 -8.28c0,-0.44 -0.29,-0.82 -0.69,-0.82l-8.54 0c-0.31,0 -0.69,0.28 -0.69,0.69z"/>
   <path class="fil0" d="M4.89 6.77c0.43,-0.09 0.58,0.59 0.13,0.68 -0.46,0.09 -0.58,-0.59 -0.13,-0.68zm-0.05 -4.25c0.2,-0.06 0.36,0.03 0.43,0.15 0.09,0.15 0.06,0.34 0.04,0.53l-0.15 2.27c-0.02,0.21 -0.03,0.96 -0.14,1.06 -0.16,0.17 -0.25,-0.12 -0.26,-0.27l-0.16 -2.86c-0.03,-0.44 -0.14,-0.78 0.24,-0.88zm-2.46 2.58c0.07,1.37 1.25,2.51 2.72,2.43 1.38,-0.07 2.52,-1.25 2.43,-2.73 -0.08,-1.37 -1.25,-2.5 -2.72,-2.42 -1.38,0.07 -2.51,1.25 -2.43,2.72z"/>
   <path class="fil2" d="M4.75 1.68c1.87,-0.13 3.36,1.32 3.48,3.05 0.03,0.5 -0.05,1 -0.22,1.42 -0.07,0.2 -0.17,0.38 -0.27,0.54 -0.17,0.29 -0.53,0.67 -0.78,0.87l-0.5 0.32c-0.35,0.18 -0.81,0.32 -1.27,0.35 -2.65,0.18 -4.44,-2.69 -3.01,-5.03 0.29,-0.48 0.74,-0.89 1.28,-1.17 0.37,-0.19 0.81,-0.32 1.29,-0.35zm0 -0.66c-2.11,0.12 -3.84,1.89 -3.72,4.15 0.11,2.11 1.91,3.85 4.16,3.72 2.81,-0.16 4.55,-3.18 3.28,-5.71 -0.69,-1.36 -2.13,-2.25 -3.72,-2.16z"/>
   <path class="fil3" d="M2.06 5.1c-0.08,-1.65 1.19,-2.96 2.74,-3.04 1.66,-0.09 2.98,1.2 3.05,2.76 0.07,1.64 -1.21,2.96 -2.76,3.03 -1.64,0.08 -2.95,-1.2 -3.03,-2.75zm2.69 -3.42c-0.48,0.03 -0.92,0.16 -1.29,0.35 -0.54,0.28 -0.99,0.69 -1.28,1.17 -1.43,2.34 0.36,5.21 3.01,5.03 0.46,-0.03 0.92,-0.17 1.27,-0.35l0.5 -0.32c0.25,-0.2 0.61,-0.58 0.78,-0.87 0.1,-0.16 0.2,-0.34 0.27,-0.54 0.17,-0.42 0.25,-0.92 0.22,-1.42 -0.12,-1.73 -1.61,-3.18 -3.48,-3.05z"/>
   <path class="fil4" d="M2.38 5.1c-0.08,-1.47 1.05,-2.65 2.43,-2.72 1.47,-0.08 2.64,1.05 2.72,2.42 0.09,1.48 -1.05,2.66 -2.43,2.73 -1.47,0.08 -2.65,-1.06 -2.72,-2.43zm-0.32 0c0.08,1.55 1.39,2.83 3.03,2.75 1.55,-0.07 2.83,-1.39 2.76,-3.03 -0.07,-1.56 -1.39,-2.85 -3.05,-2.76 -1.55,0.08 -2.82,1.39 -2.74,3.04z"/>
   <path class="fil5" d="M4.75 1.02c1.59,-0.09 3.03,0.8 3.72,2.16 1.27,2.53 -0.47,5.55 -3.28,5.71 -2.25,0.13 -4.05,-1.61 -4.16,-3.72 -0.12,-2.26 1.61,-4.03 3.72,-4.15zm-3.83 4.19c0.04,0.6 0.2,1.13 0.44,1.59 0.31,0.6 0.48,0.72 0.88,1.14 0.09,0.1 0.16,0.15 0.27,0.23 1.28,1.01 3.25,1.12 4.61,0.2l0.3 -0.21c0.33,-0.23 0.75,-0.71 0.96,-1.05 0.43,-0.73 0.66,-1.49 0.61,-2.39 -0.06,-1.1 -0.54,-2.03 -1.31,-2.75 -0.37,-0.34 -0.74,-0.58 -1.23,-0.78 -2.72,-1.07 -5.71,1.01 -5.53,4.02z"/>
   <path class="fil6" d="M4.84 2.52c-0.38,0.1 -0.27,0.44 -0.24,0.88l0.16 2.86c0.01,0.15 0.1,0.44 0.26,0.27 0.11,-0.1 0.12,-0.85 0.14,-1.06l0.15 -2.27c0.02,-0.19 0.05,-0.38 -0.04,-0.53 -0.07,-0.12 -0.23,-0.21 -0.43,-0.15z"/>
   <path class="fil5" d="M4.89 6.77c-0.45,0.09 -0.33,0.77 0.13,0.68 0.45,-0.09 0.3,-0.77 -0.13,-0.68z"/>
  </g>
 </g>
</svg>
