<?xml version="1.0" encoding="UTF-8"?>
<!DOCTYPE svg PUBLIC "-//W3C//DTD SVG 1.1//EN" "http://www.w3.org/Graphics/SVG/1.1/DTD/svg11.dtd">
<!-- Creator: CorelDRAW 2021 (64 Bit) -->
<svg xmlns="http://www.w3.org/2000/svg" xml:space="preserve" width="550px" height="550px" version="1.1" style="shape-rendering:geometricPrecision; text-rendering:geometricPrecision; image-rendering:optimizeQuality; fill-rule:evenodd; clip-rule:evenodd"
viewBox="0 0 10.95 10.95"
 xmlns:xlink="http://www.w3.org/1999/xlink"
 xmlns:xodm="http://www.corel.com/coreldraw/odm/2003">
 <defs>
  <style type="text/css">
   <![CDATA[
    .str0 {stroke:#B8B4B6;stroke-miterlimit:22.9256}
    .str1 {stroke:black;stroke-width:0.04;stroke-miterlimit:22.9256}
    .str3 {stroke:black;stroke-width:0.02;stroke-miterlimit:22.9256}
    .str4 {stroke:fuchsia;stroke-width:0.02;stroke-miterlimit:22.9256}
    .str2 {stroke:#030303;stroke-width:0.1;stroke-miterlimit:22.9256;stroke-dasharray:0.200000 0.500000}
    .fil3 {fill:none}
    .fil4 {fill:black}
    .fil1 {fill:#E6E6E6}
    .fil5 {fill:fuchsia}
    .fil2 {fill:#FFFF66}
    .fil0 {fill:white}
   ]]>
  </style>
 </defs>
 <g id="Camada_x0020_1">
  <metadata id="CorelCorpID_0Corel-Layer"/>
  <g id="_2069382058176">
   <path class="fil0 str0" d="M0.94 0.5l9.08 0c0.24,0 0.43,0.22 0.43,0.5l0 8.95c0,0.28 -0.19,0.5 -0.43,0.5l-9.08 0c-0.24,0 -0.43,-0.22 -0.43,-0.5 0,-1.07 -0.02,-8.67 -0.01,-9.06 0,-0.22 0.26,-0.39 0.44,-0.39z"/>
   <g>
    <g>
     <polygon class="fil1 str1" points="8.66,5.62 6.97,5.63 7.37,5.31 8.3,5.31 "/>
     <rect class="fil2 str1" x="1.94" y="5.63" width="7" height="3.79"/>
     <line class="fil3 str2" x1="2.41" y1="6.17" x2="8.22" y2= "6.15" />
     <line class="fil3 str2" x1="2.41" y1="6.88" x2="8.22" y2= "6.86" />
     <line class="fil3 str2" x1="2.41" y1="7.59" x2="8.22" y2= "7.57" />
     <line class="fil3 str2" x1="2.41" y1="8.3" x2="8.22" y2= "8.28" />
     <line class="fil3 str2" x1="2.41" y1="9.01" x2="8.22" y2= "8.99" />
    </g>
    <g>
     <g>
      <path class="fil0" d="M5.01 3.03c0.08,0 0.14,-0.02 0.19,-0.05 0.03,-0.01 0.05,-0.03 0.07,-0.04 0.01,-0.01 0.05,-0.04 0.07,-0.05 0.02,0.05 0.07,0.06 0.09,0.07 -0.01,0.05 -0.12,0.11 -0.17,0.14 -0.17,0.07 -0.37,0.08 -0.54,0.01 -0.05,-0.02 -0.16,-0.08 -0.18,-0.13 0.02,-0.01 0.08,-0.06 0.11,-0.07 0.08,0.1 0.21,0.12 0.36,0.12zm0.32 -0.73c0.22,-0.04 0.25,0.22 0.06,0.25 -0.09,0.01 -0.16,-0.04 -0.18,-0.1 -0.03,-0.09 0.03,-0.14 0.12,-0.15zm-0.83 0c0.1,-0.02 0.18,0.03 0.19,0.09 0.01,0.08 -0.05,0.14 -0.12,0.16 -0.2,0.03 -0.29,-0.22 -0.07,-0.25zm1.5 0.11c0.04,-0.12 0.07,-0.25 -0.01,-0.34 -0.03,-0.04 -0.09,-0.08 -0.13,-0.11 -0.12,-0.06 -0.14,-0.03 -0.25,0.04 -0.17,0.11 -0.41,0.2 -0.63,0.2 -0.32,0 -0.53,-0.14 -0.71,-0.25 -0.06,-0.04 -0.12,-0.02 -0.19,0 -0.07,0.03 -0.11,0.05 -0.12,0.11 -0.02,0.04 -0.05,0.14 -0.04,0.18 0,0.06 0.03,0.12 0.03,0.18l-0.18 0.02c-0.04,0.08 0.02,0.2 0.04,0.27 0.02,0.05 0.03,0.09 0.07,0.11 0.05,0.02 0.12,0.02 0.18,0.02 0.04,0.1 0.07,0.15 0.13,0.23 0.04,0.05 0.14,0.14 0.19,0.18 0.08,0.05 0.14,0.09 0.26,0.12 0.1,0.03 0.23,0.04 0.35,0.04 0.28,0.01 0.44,-0.07 0.61,-0.17 0.05,-0.04 0.15,-0.12 0.19,-0.18 0.1,-0.11 0.08,-0.12 0.13,-0.22 0.09,0 0.16,0.01 0.2,-0.04 0.04,-0.06 0.03,-0.11 0.05,-0.17 0.02,-0.04 0.07,-0.14 0.02,-0.17 -0.04,-0.02 -0.15,-0.02 -0.19,-0.05z"/>
      <path class="fil0" d="M6.92 3.28c-0.31,0.05 -0.2,0.42 0.09,0.37 0.11,-0.02 0.21,-0.11 0.18,-0.23 -0.02,-0.09 -0.13,-0.17 -0.27,-0.14z"/>
      <path class="fil4" d="M5.01 3.03c-0.15,0 -0.28,-0.02 -0.36,-0.12 -0.03,0.01 -0.09,0.06 -0.11,0.07 0.02,0.05 0.13,0.11 0.18,0.13 0.17,0.07 0.37,0.06 0.54,-0.01 0.05,-0.03 0.16,-0.09 0.17,-0.14 -0.02,-0.01 -0.07,-0.02 -0.09,-0.07 -0.02,0.01 -0.06,0.04 -0.07,0.05 -0.02,0.01 -0.04,0.03 -0.07,0.04 -0.05,0.03 -0.11,0.05 -0.19,0.05z"/>
      <polygon class="fil4" points="3.43,5.17 3.57,5.17 3.57,4.68 3.43,4.68 "/>
      <polygon class="fil4" points="6.51,5.16 6.62,5.16 6.64,5.16 6.64,4.69 6.62,4.69 6.51,4.69 "/>
      <path class="fil4" d="M5.33 2.3c-0.09,0.01 -0.15,0.06 -0.12,0.15 0.02,0.06 0.09,0.11 0.18,0.1 0.19,-0.03 0.16,-0.29 -0.06,-0.25z"/>
      <path class="fil4" d="M4.5 2.3c-0.22,0.03 -0.13,0.28 0.07,0.25 0.07,-0.02 0.13,-0.08 0.12,-0.16 -0.01,-0.06 -0.09,-0.11 -0.19,-0.09z"/>
      <path class="fil4 str3" d="M6 2.41c0.04,0.03 0.15,0.03 0.19,0.05 0.05,0.03 0,0.13 -0.02,0.17 -0.02,0.06 -0.01,0.11 -0.05,0.17 -0.04,0.05 -0.11,0.04 -0.2,0.04 -0.05,0.1 -0.03,0.11 -0.13,0.22 -0.04,0.06 -0.14,0.14 -0.19,0.18 -0.17,0.1 -0.33,0.18 -0.61,0.17 -0.12,0 -0.25,-0.01 -0.35,-0.04 -0.12,-0.03 -0.18,-0.07 -0.26,-0.12 -0.05,-0.04 -0.15,-0.13 -0.19,-0.18 -0.06,-0.08 -0.09,-0.13 -0.13,-0.23 -0.06,0 -0.13,0 -0.18,-0.02 -0.04,-0.02 -0.05,-0.06 -0.07,-0.11 -0.02,-0.07 -0.08,-0.19 -0.04,-0.27l0.18 -0.02c0,-0.06 -0.03,-0.12 -0.03,-0.18 -0.01,-0.04 0.02,-0.14 0.04,-0.18 0.01,-0.06 0.05,-0.08 0.12,-0.11 0.07,-0.02 0.13,-0.04 0.19,0 0.18,0.11 0.39,0.25 0.71,0.25 0.22,0 0.46,-0.09 0.63,-0.2 0.11,-0.07 0.13,-0.1 0.25,-0.04 0.04,0.03 0.1,0.07 0.13,0.11 0.08,0.09 0.05,0.22 0.01,0.34zm-1.51 -1.32c-0.22,0.08 -0.41,0.23 -0.52,0.35 -0.09,0.11 -0.16,0.2 -0.2,0.37 -0.01,0.08 -0.01,0.17 -0.01,0.26 0,0.09 0.02,0.16 0.02,0.25 -0.09,0.01 -0.12,0.04 -0.15,0.1 -0.02,0.07 -0.01,0.14 0,0.21 0.11,0.42 0.28,0.24 0.36,0.39 0.05,0.07 0.04,0.07 0.1,0.14l0.13 0.13c0.04,0.03 0.09,0.07 0.16,0.1 0,0.05 0,0.26 -0.01,0.3 0,0.03 -0.02,0.04 -0.06,0.04 -0.2,0.02 -0.61,0.09 -0.83,0.12 -0.14,0.02 -0.26,0.04 -0.39,0.09 -0.06,0.02 -0.1,0.04 -0.15,0.07 -0.15,0.08 -0.25,0.22 -0.3,0.36 -0.03,0.09 -0.01,0.29 -0.01,0.4 0,0.13 -0.01,0.27 0,0.4 0.09,0 0.14,0.02 0.15,-0.03l0 -0.49c0,-0.19 0,-0.38 0.19,-0.51 0.08,-0.05 0.13,-0.08 0.25,-0.11 0.21,-0.06 0.44,-0.08 0.66,-0.12 0.11,-0.01 0.23,-0.04 0.34,-0.04 0.02,0.11 0.02,0.15 0.08,0.23 0.09,0.13 0.23,0.22 0.4,0.28 0.07,0.02 0.2,0.05 0.3,0.04 0.34,0 0.78,-0.24 0.78,-0.55l0.86 0.12c0.29,0.04 0.56,0.21 0.58,0.46 0.01,0.24 0.01,0.48 0.02,0.71l0.14 0.01 0 -0.71c-0.06,-0.3 -0.24,-0.52 -0.78,-0.6 -0.28,-0.04 -0.57,-0.08 -0.85,-0.12 -0.1,-0.02 -0.13,-0.02 -0.12,-0.11 0,-0.08 0,-0.19 0,-0.27 0.06,-0.03 0.11,-0.07 0.16,-0.11 0.06,-0.05 0.2,-0.19 0.22,-0.29 0.26,0 0.26,-0.16 0.3,-0.28 0.01,-0.04 0.03,-0.07 0.04,-0.1 0.01,-0.04 0.01,-0.08 0,-0.12 -0.03,-0.07 -0.09,-0.11 -0.17,-0.13 0,-0.25 0.05,-0.38 -0.05,-0.62 -0.07,-0.17 -0.13,-0.25 -0.27,-0.37 -0.06,-0.06 -0.06,-0.05 -0.11,-0.09 -0.04,-0.03 -0.12,-0.07 -0.18,-0.1 -0.22,-0.11 -0.41,-0.14 -0.67,-0.13 -0.09,0 -0.25,0.01 -0.41,0.07zm-0.38 0.42c0.11,-0.11 0.23,-0.23 0.49,-0.32 0.08,-0.04 0.12,-0.05 0.24,-0.05 0.18,-0.01 0.38,0.01 0.54,0.06 0.12,0.04 0.19,0.09 0.28,0.15 0.11,0.07 0.13,0.09 0.22,0.2 0.04,0.06 0.17,0.28 0.16,0.37 -0.05,-0.03 -0.17,-0.09 -0.24,-0.11 -0.06,-0.02 -0.1,-0.02 -0.15,0.01 -0.04,0.02 -0.07,0.05 -0.11,0.07 -0.37,0.22 -0.68,0.28 -1.09,0.02 -0.04,-0.03 -0.07,-0.05 -0.11,-0.07 -0.05,-0.03 -0.07,-0.04 -0.15,-0.04 -0.15,0.01 -0.21,0.07 -0.28,0.09 0,-0.17 0.14,-0.32 0.2,-0.38zm0.87 2.79c0.03,0 0.06,0 0.08,0 0.03,0 0.07,-0.01 0.1,-0.01 0.26,-0.04 0.48,-0.24 0.48,-0.44 -0.11,-0.03 -0.16,-0.09 -0.15,-0.17l0 -0.25 0 0c-0.01,0.01 -0.03,0.01 -0.04,0.02 -0.13,0.05 -0.3,0.09 -0.46,0.09 -0.13,0 -0.26,-0.01 -0.38,-0.05 -0.03,-0.01 -0.07,-0.02 -0.1,-0.03 0,0.08 0.01,0.18 0.01,0.26 -0.01,0.08 -0.09,0.1 -0.16,0.13 0.01,0.23 0.26,0.41 0.49,0.44 0.07,0.01 0.1,0.01 0.13,0.01z"/>
     </g>
     <path class="fil5 str4" d="M2.78 4.51l0 0.65 0.65 0 0 -0.49 0.14 0 0 0.49 2.93 -0.01 0 -0.47 0.14 0 0 0.47 0.6 0 -0.02 -0.71c-0.03,-0.25 -0.23,-0.38 -0.53,-0.45l-0.91 -0.13c-0.06,0.33 -0.33,0.51 -0.79,0.55 -0.42,-0.01 -0.69,-0.19 -0.77,-0.55l-0.89 0.13c-0.36,0.08 -0.55,0.25 -0.55,0.52z"/>
    </g>
   </g>
  </g>
 </g>
</svg>
