<?xml version="1.0" encoding="UTF-8"?>
<!DOCTYPE svg PUBLIC "-//W3C//DTD SVG 1.1//EN" "http://www.w3.org/Graphics/SVG/1.1/DTD/svg11.dtd">
<!-- Creator: CorelDRAW 2021 (64 Bit) -->
<svg xmlns="http://www.w3.org/2000/svg" xml:space="preserve" width="550px" height="550px" version="1.1" style="shape-rendering:geometricPrecision; text-rendering:geometricPrecision; image-rendering:optimizeQuality; fill-rule:evenodd; clip-rule:evenodd"
viewBox="0 0 47.88 47.88"
 xmlns:xlink="http://www.w3.org/1999/xlink"
 xmlns:xodm="http://www.corel.com/coreldraw/odm/2003">
 <defs>
  <style type="text/css">
   <![CDATA[
    .str0 {stroke:#B8B4B6;stroke-width:4.35;stroke-miterlimit:22.9256}
    .fil1 {fill:black}
    .fil8 {fill:#333333}
    .fil7 {fill:#344E82}
    .fil6 {fill:#525355}
    .fil3 {fill:#6598FE}
    .fil5 {fill:#717275}
    .fil9 {fill:#B8B4B6}
    .fil2 {fill:#D2D3D5}
    .fil4 {fill:#FDFDFD}
    .fil0 {fill:white}
   ]]>
  </style>
 </defs>
 <g id="Camada_x0020_1">
  <metadata id="CorelCorpID_0Corel-Layer"/>
  <g id="_2069479550544">
   <path class="fil0 str0" d="M4.13 2.18l39.67 0c1.05,0 1.91,0.97 1.91,2.18l0 39.17c0,1.2 -0.86,2.18 -1.91,2.18l-39.67 0c-1.05,0 -1.91,-0.98 -1.91,-2.18 0,-4.71 -0.07,-37.94 -0.04,-39.65 0.02,-0.94 1.16,-1.7 1.95,-1.7z"/>
   <g>
    <g>
     <path class="fil1" d="M29.67 23.08c-0.43,-2.22 2.88,-2.65 3.19,-0.6 0.15,0.97 -0.52,1.74 -1.32,1.88 -0.96,0.15 -1.72,-0.51 -1.87,-1.28zm-14.69 0c-0.43,-2.2 2.86,-2.68 3.19,-0.6 0.35,2.13 -2.79,2.62 -3.19,0.6zm16.88 -2.53c1.24,-0.01 1.09,-0.1 1.66,0.77 0.77,1.15 0.42,2.56 -0.57,3.45 -2.01,1.81 -5.71,-0.67 -3.91,-3.54 0.44,-0.7 0.6,-0.78 1.69,-0.65 -0.38,-0.05 -1.84,0.84 -1.7,2.38 0.23,2.6 4.01,2.73 4.44,0.17 0.11,-0.65 -0.09,-1.27 -0.38,-1.69 -0.38,-0.53 -0.66,-0.56 -1.23,-0.89zm-14.69 0l1.07 0c0.29,0.45 0.61,0.62 0.89,1.35 0.61,1.62 -0.98,3.93 -3.11,3.41 -1.82,-0.44 -2.81,-2.33 -1.62,-4.16 0.4,-0.61 0.56,-0.69 1.65,-0.57 -0.4,-0.05 -1.85,0.85 -1.71,2.38 0.1,1.1 1.01,2.01 2.18,2.04 2.09,0.04 3.22,-2.64 1.34,-4.07 -0.24,-0.19 -0.45,-0.24 -0.69,-0.38zm-5.57 -3.08l0.06 -1.17c0.22,-0.13 1.74,-0.05 2,-0.05 0.7,0 1.41,0.01 2.11,0.01 0.67,0.01 3.8,-0.07 4.15,0.07l8.36 -0.01 0 -2.78 0.08 -3.17c0.08,-0.09 -0.07,-0.03 0.12,-0.08 0.03,-0.01 2.46,0.03 2.5,0.1l1.29 -0.02c0.69,1.26 1.44,2.59 2.1,3.89 0.58,1.12 0.67,0.85 0.65,2.37 -0.01,0.52 0.05,2.54 -0.08,2.87l-21.53 0.17c-0.83,0.01 -0.67,-0.02 -1.05,-0.5l-0.76 -0.77 0 -0.93zm-0.17 -11.45c3.6,0.01 7.19,0.02 10.78,0.02 0.91,0 1.82,0.01 2.73,0 0.78,0 0.66,-0.11 0.65,0.66l0.02 6.71 -14.27 0.01 0.09 -7.4zm15.41 3.83c0.3,0.15 0.27,0.12 0.27,0.51l-0.06 4.73 -15.38 -0.05 0.01 -0.38 15.18 -0.01 -0.02 -4.53 0 -0.27zm-12.62 14.72c0.11,0.09 0.12,0.12 0.22,0.22 0.1,0.09 0.14,0.1 0.24,0.2 1.18,0.95 3.02,0.92 3.95,-0.16 0.4,-0.46 0.84,-1.04 0.94,-1.87 0.11,-1.03 -0.33,-1.44 -0.64,-2.09l10.02 -0.06c-0.64,0.93 -1.04,2.08 -0.34,3.32 0.43,0.75 1.43,1.57 2.72,1.57 1.92,0 3.24,-2.05 2.87,-3.58 -0.18,-0.77 -0.47,-0.95 -0.67,-1.36l2.68 -0.04c0.01,-0.84 0.12,-4.94 0.03,-5.41 -0.09,-0.51 -1.47,-2.87 -1.85,-3.61 -1.46,-2.89 -1.23,-2.55 -2.94,-2.58 -0.91,-0.01 -1.82,-0.02 -2.73,-0.03 -0.61,-0.01 -0.67,0.07 -1.08,-0.24 -0.24,-0.19 -0.57,-0.38 -0.77,-0.57 -0.18,-0.22 -0.1,-1.42 -0.1,-1.7 -0.01,-0.5 -0.08,-1.27 0.01,-1.73l-11.19 -0.07 -5.38 0.02 -0.12 9.86c0.32,0 0.26,-0.07 0.35,0.11 0,0.83 -0.03,1.65 -0.05,2.48 -0.03,1.12 -0.18,1.33 0.42,2.05 1.47,1.79 1.42,1.61 3.36,1.61 -0.3,0.58 -0.61,1.01 -0.61,1.86 0,0.94 0.34,1.24 0.66,1.8z"/>
     <path class="fil2" d="M11.34 13.42l14.27 -0.01 -0.02 -6.71c0.01,-0.77 0.13,-0.66 -0.65,-0.66 -0.91,0.01 -1.82,0 -2.73,0 -3.59,0 -7.18,-0.01 -10.78,-0.02l-0.09 7.4z"/>
     <path class="fil3" d="M28.62 14.43l0.04 -3.06 0.02 -0.67c0.39,-0.08 1.18,-0.09 1.49,0.04 0.42,-0.1 1.68,0 2.2,0.01 0.4,0.79 2.31,4.58 2.49,5.1l-5.13 -0.08 -1.16 -0.03c-0.07,-0.2 -0.05,-1.16 0.05,-1.31zm-0.34 -0.89l0 2.78 -8.36 0.01 -8.26 -0.03c0.03,0.22 0.04,1.02 -0.06,1.17l0 0.93 0.76 0.77c0.38,0.48 0.22,0.51 1.05,0.5l21.53 -0.17c0.13,-0.33 0.07,-2.35 0.08,-2.87 0.02,-1.52 -0.07,-1.25 -0.65,-2.37 -0.66,-1.3 -1.41,-2.63 -2.1,-3.89l-1.29 0.02 -2.62 -0.02c0.08,0.35 0.03,2.91 -0.08,3.17z"/>
     <path class="fil4" d="M29.1 14.7l-0.01 0.51c0.24,0.01 0.53,-0.01 0.69,0.06l4.28 0.07 -2 -4.1 -2.88 -0.05 -0.08 3.51z"/>
     <path class="fil1" d="M29.1 14.7l0.08 -3.51 2.88 0.05 2 4.1 -4.28 -0.07 -0.72 -0.04c-0.04,-0.21 -0.03,-0.37 0.04,-0.53zm-0.44 -3.33l-0.04 3.06 -0.04 1.25c0.35,0.01 0.87,-0.03 1.15,0.09l5.13 0.08c-0.18,-0.52 -2.09,-4.31 -2.49,-5.1 -0.52,-0.01 -1.78,-0.11 -2.2,-0.01 -0.44,0.07 -0.94,-0.01 -1.41,-0.04l-0.1 0.67z"/>
     <path class="fil4" d="M26.84 10.12l0.02 4.53 -15.18 0.01 -0.01 0.38 15.38 0.05 0.06 -4.73c0,-0.39 0.03,-0.36 -0.27,-0.51l0 0.27z"/>
     <path class="fil4" d="M15.9 22.96c-0.25,-0.94 1.1,-1.25 1.34,-0.41 0.28,0.95 -1.11,1.25 -1.34,0.41zm-0.92 0.12c0.4,2.02 3.54,1.53 3.19,-0.6 -0.33,-2.08 -3.62,-1.6 -3.19,0.6z"/>
     <path class="fil4" d="M31.1 22.08c0.85,-0.24 1.23,1.09 0.37,1.34 -0.9,0.27 -1.33,-1.06 -0.37,-1.34zm-1.43 1c0.15,0.77 0.91,1.43 1.87,1.28 0.8,-0.14 1.47,-0.91 1.32,-1.88 -0.31,-2.05 -3.62,-1.62 -3.19,0.6z"/>
     <path class="fil5" d="M17.17 20.55c0.24,0.14 0.45,0.19 0.69,0.38 1.88,1.43 0.75,4.11 -1.34,4.07 -1.17,-0.03 -2.08,-0.94 -2.18,-2.04 -0.14,-1.53 1.31,-2.43 1.71,-2.38 -1.09,-0.12 -1.25,-0.04 -1.65,0.57 -1.19,1.83 -0.2,3.72 1.62,4.16 2.13,0.52 3.72,-1.79 3.11,-3.41 -0.28,-0.73 -0.6,-0.9 -0.89,-1.35l-1.07 0z"/>
     <path class="fil5" d="M31.86 20.55c0.57,0.33 0.85,0.36 1.23,0.89 0.29,0.42 0.49,1.04 0.38,1.69 -0.43,2.56 -4.21,2.43 -4.44,-0.17 -0.14,-1.54 1.32,-2.43 1.7,-2.38 -1.09,-0.13 -1.25,-0.05 -1.69,0.65 -1.8,2.87 1.9,5.35 3.91,3.54 0.99,-0.89 1.34,-2.3 0.57,-3.45 -0.57,-0.87 -0.42,-0.78 -1.66,-0.77z"/>
     <path class="fil1" d="M15.9 22.96c0.23,0.84 1.62,0.54 1.34,-0.41 -0.24,-0.84 -1.59,-0.53 -1.34,0.41z"/>
     <path class="fil1" d="M31.1 22.08c-0.96,0.28 -0.53,1.61 0.37,1.34 0.86,-0.25 0.48,-1.58 -0.37,-1.34z"/>
     <path class="fil6" d="M26.78 4.85c-0.09,0.46 -0.02,1.23 -0.01,1.73 0,0.28 -0.08,1.48 0.1,1.7l-0.03 -3.19c0,-0.03 0,-0.1 0,-0.12 -0.03,-0.1 -0.03,-0.07 -0.06,-0.12 -0.06,-0.12 -2.58,-0.06 -2.71,-0.07 -0.95,0 -1.9,0 -2.85,0 -1.14,0 -4.79,-0.07 -5.63,0l11.19 0.07z"/>
     <path class="fil7" d="M11.6 17.47c0.1,-0.15 0.09,-0.95 0.06,-1.17l8.26 0.03c-0.35,-0.14 -3.48,-0.06 -4.15,-0.07 -0.7,0 -1.41,-0.01 -2.11,-0.01 -0.26,0 -1.78,-0.08 -2,0.05l-0.06 1.17z"/>
     <path class="fil7" d="M28.28 13.54c0.11,-0.26 0.16,-2.82 0.08,-3.17l2.62 0.02c-0.04,-0.07 -2.47,-0.11 -2.5,-0.1 -0.19,0.05 -0.04,-0.01 -0.12,0.08l-0.08 3.17z"/>
     <path class="fil8" d="M28.66 11.37l0.1 -0.67c0.47,0.03 0.97,0.11 1.41,0.04 -0.31,-0.13 -1.1,-0.12 -1.49,-0.04l-0.02 0.67z"/>
     <path class="fil7" d="M29.73 15.77c-0.28,-0.12 -0.8,-0.08 -1.15,-0.09l0.04 -1.25c-0.1,0.15 -0.12,1.11 -0.05,1.31l1.16 0.03z"/>
     <path class="fil5" d="M29.78 15.27c-0.16,-0.07 -0.45,-0.05 -0.69,-0.06l0.01 -0.51c-0.07,0.16 -0.08,0.32 -0.04,0.53l0.72 0.04z"/>
    </g>
    <g>
     <g>
      <path class="fil9" d="M8.48 29c0,-0.01 0.03,-0.03 0.04,-0.02l0.47 -0.04c0.75,0 3.83,-0.07 4.09,0.05l0.02 12.27c-0.38,0.1 -4.28,0.09 -4.61,0l-0.01 -12.26zm6.11 -1.21c-0.1,-0.1 -0.13,-0.11 -0.24,-0.2 -0.1,-0.1 -0.11,-0.13 -0.22,-0.22 -0.11,0.07 -0.03,0.05 -0.18,0 -0.14,-0.04 -0.23,-0.16 -0.6,-0.21 -0.46,-0.06 -4.89,-0.04 -5.18,0.01 -2,0.34 -1.52,3.03 -1.52,4.86l0 8.5c0,0.77 0.01,1.21 0.36,1.79 0.23,0.37 0.7,0.69 1.36,0.75 1.22,0.11 2.93,0.01 4.21,0.01 1.29,0.01 2.37,-0.46 2.33,-1.94l0 -0.8 0 -9.93 0 -0.8c0.06,-0.67 -0.05,-1.56 -0.6,-1.98 -0.19,-0.14 -0.3,-0.07 -0.12,-0.19 0.11,0.21 0.2,0.26 0.4,0.35z"/>
      <path class="fil8" d="M14.91 29.61l0 0.8c1.6,-0.15 2.25,0.45 3.49,0.94 1.48,0.59 2.47,0.21 3.99,-0.05 0.91,-0.16 3.19,-0.69 3.99,-0.62 1.26,0.13 2.47,1.03 2.4,2.34l0.1 -0.37 0.52 -0.28c0,0.02 0.01,0.06 0.02,0.06l0.07 0.1c0.1,-0.21 -0.14,-0.05 0.51,-0.37 0.22,-0.1 0.39,-0.17 0.61,-0.27l3.42 -1.59c1.63,-0.74 2.95,-1.55 4.96,-0.01 0.32,0.24 1.49,1.35 1.45,1.92 -0.04,0.44 -0.52,0.62 -0.87,0.84l-5.15 3.22c-1.37,0.87 -2.76,1.67 -4.17,2.52 -0.69,0.42 -1.41,0.82 -2.14,1.21 -0.69,0.37 -1.49,0.79 -2.24,1.11 -2.36,0.98 -2.98,0.8 -5.33,-0.05 -2.22,-0.81 -3.02,-1.07 -5.63,-0.72l0 0.8c2.96,-0.34 3.45,-0.03 5.92,0.87 2.52,0.91 3.42,0.66 5.68,-0.32 2.27,-0.98 7.05,-3.94 9.1,-5.22 1.46,-0.92 2.95,-1.83 4.42,-2.77 0.43,-0.28 0.76,-0.41 1,-0.8 0.27,-0.45 0.29,-0.97 0.01,-1.44 -0.87,-1.51 -2.45,-2.79 -4.29,-2.83 -1.12,-0.03 -1.89,0.4 -2.73,0.79 -0.82,0.36 -4.41,2.12 -4.89,2.26 -0.21,-0.21 -0.33,-0.45 -0.54,-0.66 -0.16,-0.16 -0.38,-0.41 -0.6,-0.58 -1.42,-1.12 -3.76,-0.28 -5.66,0.06 -1.5,0.27 -2.37,0.65 -3.8,0.05 -1.15,-0.49 -2.1,-1.12 -3.62,-0.94z"/>
     </g>
     <path class="fil4" d="M29.49 32.53c0.26,0.8 -0.41,1.44 -0.85,1.68 -1.29,0.7 -2.86,0.13 -4.86,0.34 -0.7,0.07 -1.74,0.28 -2.38,0.27l-0.06 -0.72c1.28,-0.17 2.72,-0.4 4.01,-0.37 0.72,0.02 1.35,0.16 2.09,0.07 0.74,-0.08 1.04,-0.26 1.34,-0.78 0.07,-1.31 -1.14,-2.21 -2.4,-2.34 -0.8,-0.07 -3.08,0.46 -3.99,0.62 -1.52,0.26 -2.51,0.64 -3.99,0.05 -1.24,-0.49 -1.89,-1.09 -3.49,-0.94l0 9.93c2.61,-0.35 3.41,-0.09 5.63,0.72 2.35,0.85 2.97,1.03 5.33,0.05 0.75,-0.32 1.55,-0.74 2.24,-1.11 0.73,-0.39 1.45,-0.79 2.14,-1.21 1.41,-0.85 2.8,-1.65 4.17,-2.52l5.15 -3.22c0.35,-0.22 0.83,-0.4 0.87,-0.84 0.04,-0.57 -1.13,-1.68 -1.45,-1.92 -2.01,-1.54 -3.33,-0.73 -4.96,0.01l-3.42 1.59c-0.22,0.1 -0.39,0.17 -0.61,0.27 -0.65,0.32 -0.41,0.16 -0.51,0.37z"/>
     <path class="fil2" d="M8.49 41.26c0.33,0.09 4.23,0.1 4.61,0l-0.02 -12.27c-0.26,-0.12 -3.34,-0.05 -4.09,-0.05l-0.47 0.04c-0.01,-0.01 -0.04,0.01 -0.04,0.02l0.01 12.26z"/>
     <path class="fil1" d="M28.78 33.02c-0.3,0.52 -0.6,0.7 -1.34,0.78 -0.74,0.09 -1.37,-0.05 -2.09,-0.07 -1.29,-0.03 -2.73,0.2 -4.01,0.37l0.06 0.72c0.64,0.01 1.68,-0.2 2.38,-0.27 2,-0.21 3.57,0.36 4.86,-0.34 0.44,-0.24 1.11,-0.88 0.85,-1.68l-0.07 -0.1c-0.01,0 -0.02,-0.04 -0.02,-0.06l-0.52 0.28 -0.1 0.37z"/>
    </g>
   </g>
  </g>
 </g>
</svg>
