<?xml version="1.0" encoding="UTF-8"?>
<!DOCTYPE svg PUBLIC "-//W3C//DTD SVG 1.1//EN" "http://www.w3.org/Graphics/SVG/1.1/DTD/svg11.dtd">
<!-- Creator: CorelDRAW 2021 (64 Bit) -->
<svg xmlns="http://www.w3.org/2000/svg" xml:space="preserve" width="530px" height="530px" version="1.1" style="shape-rendering:geometricPrecision; text-rendering:geometricPrecision; image-rendering:optimizeQuality; fill-rule:evenodd; clip-rule:evenodd"
viewBox="0 0 10.2 10.2"
 xmlns:xlink="http://www.w3.org/1999/xlink"
 xmlns:xodm="http://www.corel.com/coreldraw/odm/2003">
 <defs>
  <style type="text/css">
   <![CDATA[
    .str2 {stroke:black;stroke-width:0.19;stroke-miterlimit:22.9256}
    .str0 {stroke:#B8B4B6;stroke-width:0.58;stroke-miterlimit:22.9256}
    .str1 {stroke:red;stroke-width:0.58;stroke-miterlimit:22.9256}
    .str3 {stroke:black;stroke-width:0.29;stroke-miterlimit:22.9256}
    .fil1 {fill:none}
    .fil2 {fill:black}
    .fil3 {fill:red}
    .fil0 {fill:white}
   ]]>
  </style>
 </defs>
 <g id="Camada_x0020_1">
  <metadata id="CorelCorpID_0Corel-Layer"/>
  <g id="_2069751211008">
   <path class="fil0 str0" d="M0.72 0.29l8.77 0c0.23,0 0.42,0.21 0.42,0.48l0 8.66c0,0.26 -0.19,0.48 -0.42,0.48l-8.77 0c-0.23,0 -0.42,-0.22 -0.42,-0.48 0,-1.04 -0.02,-8.39 -0.01,-8.76 0,-0.21 0.26,-0.38 0.43,-0.38z"/>
   <g>
    <ellipse class="fil0 str1" cx="5.1" cy="5.1" rx="3.75" ry="3.68"/>
    <line class="fil1 str1" x1="2.61" y1="7.85" x2="7.59" y2= "2.34" />
    <path class="fil2 str2" d="M5.97 5.28c0.02,-0.01 0.26,-0.11 0.29,-0.12 0.04,0.12 0.17,0.22 0.33,0.22 0.22,-0.01 0.27,-0.16 0.32,-0.22 0.03,0.01 0.27,0.11 0.28,0.12 -0.04,0.17 -0.02,0.28 0.09,0.38 0.04,0.04 0.08,0.08 0.16,0.1 0.09,0.02 0.13,0 0.21,-0.02l0.12 0.29c-0.32,0.13 -0.24,0.57 0.01,0.64l-0.13 0.3c-0.09,-0.02 -0.13,-0.05 -0.23,-0.02 -0.06,0.02 -0.12,0.07 -0.15,0.1 -0.03,0.03 -0.08,0.1 -0.09,0.16 -0.02,0.1 0,0.14 0.02,0.22l-0.29 0.11c-0.02,-0.03 -0.03,-0.05 -0.05,-0.08 -0.14,-0.17 -0.43,-0.17 -0.55,0.01 -0.02,0.02 -0.04,0.06 -0.05,0.07l-0.29 -0.11c0.05,-0.18 0.02,-0.28 -0.08,-0.38 -0.03,-0.04 -0.09,-0.08 -0.16,-0.1 -0.09,-0.02 -0.13,0 -0.22,0.02l-0.12 -0.29c0.04,-0.04 0.21,-0.09 0.22,-0.32 0,-0.09 -0.03,-0.16 -0.07,-0.21 -0.02,-0.03 -0.04,-0.05 -0.07,-0.07 -0.02,-0.02 -0.05,-0.03 -0.08,-0.05l0.12 -0.29c0.23,0.07 0.42,-0.03 0.47,-0.23 0.03,-0.09 0.01,-0.14 -0.01,-0.23l0 0zm0.27 -0.24c-0.09,0.01 -0.21,0.08 -0.29,0.11 -0.05,0.02 -0.09,0.04 -0.11,0.09 -0.02,0.07 0.02,0.11 0.02,0.17 0,0.12 -0.08,0.21 -0.18,0.22 -0.08,0.02 -0.11,-0.02 -0.18,-0.02 -0.06,0 -0.09,0.04 -0.11,0.09 -0.04,0.09 -0.08,0.18 -0.11,0.27 -0.07,0.16 0.1,0.19 0.14,0.24 0.07,0.08 0.07,0.2 0,0.29 -0.04,0.06 -0.2,0.08 -0.15,0.23 0.03,0.09 0.08,0.19 0.12,0.28 0.07,0.16 0.18,0.06 0.27,0.07 0.1,0 0.19,0.09 0.2,0.19 0.01,0.08 -0.02,0.1 -0.02,0.16 0,0.07 0.04,0.1 0.08,0.12 0.1,0.04 0.19,0.08 0.28,0.11 0.06,0.03 0.12,0.01 0.15,-0.02 0.03,-0.01 0.05,-0.08 0.09,-0.12 0.07,-0.07 0.2,-0.08 0.29,0 0.05,0.05 0.09,0.2 0.23,0.15 0.09,-0.04 0.18,-0.08 0.27,-0.12 0.17,-0.07 0.07,-0.19 0.07,-0.27 0.01,-0.11 0.09,-0.19 0.2,-0.2 0.08,-0.01 0.21,0.08 0.28,-0.07 0.04,-0.09 0.08,-0.18 0.11,-0.28 0.06,-0.15 -0.1,-0.18 -0.14,-0.22 -0.07,-0.08 -0.08,-0.2 -0.01,-0.29 0.04,-0.07 0.21,-0.08 0.16,-0.23l-0.12 -0.28c-0.07,-0.17 -0.18,-0.07 -0.27,-0.08 -0.1,0 -0.19,-0.08 -0.21,-0.18 -0.01,-0.1 0.09,-0.22 -0.05,-0.29 -0.09,-0.04 -0.19,-0.07 -0.28,-0.11 -0.16,-0.07 -0.19,0.09 -0.23,0.13 -0.1,0.1 -0.26,0.09 -0.34,-0.03 -0.02,-0.03 -0.05,-0.14 -0.16,-0.11l0 0z"/>
    <path class="fil2 str2" d="M3.14 2.78c0.02,-0.02 0.26,-0.12 0.29,-0.13 0.04,0.12 0.16,0.22 0.33,0.22 0.22,-0.01 0.27,-0.16 0.32,-0.22 0.03,0.01 0.27,0.11 0.29,0.13 -0.05,0.17 -0.03,0.27 0.07,0.37 0.05,0.04 0.09,0.08 0.17,0.1 0.09,0.02 0.13,0 0.21,-0.02l0.12 0.29c-0.32,0.13 -0.24,0.57 0.01,0.64l-0.13 0.3c-0.09,-0.02 -0.13,-0.04 -0.23,-0.01 -0.06,0.01 -0.12,0.05 -0.15,0.09 -0.04,0.03 -0.07,0.1 -0.09,0.16 -0.02,0.1 0,0.14 0.02,0.22l-0.29 0.11c-0.03,-0.03 -0.03,-0.05 -0.06,-0.08 -0.13,-0.17 -0.42,-0.17 -0.54,0.01 -0.02,0.02 -0.04,0.06 -0.05,0.08l-0.29 -0.12c0.04,-0.17 0.03,-0.28 -0.08,-0.38 -0.04,-0.04 -0.09,-0.08 -0.16,-0.1 -0.09,-0.02 -0.14,0 -0.22,0.02l-0.12 -0.29c0.04,-0.04 0.22,-0.1 0.22,-0.32 0,-0.09 -0.03,-0.16 -0.07,-0.21 -0.02,-0.03 -0.04,-0.04 -0.07,-0.07 -0.02,-0.02 -0.05,-0.03 -0.08,-0.05l0.12 -0.29c0.23,0.07 0.42,-0.04 0.47,-0.23 0.03,-0.09 0.01,-0.14 -0.01,-0.22l0 0zm0.26 -0.25c-0.08,0.02 -0.2,0.07 -0.28,0.11 -0.05,0.02 -0.09,0.04 -0.11,0.09 -0.02,0.07 0.02,0.1 0.02,0.17 0.01,0.12 -0.08,0.21 -0.18,0.22 -0.08,0.02 -0.11,-0.02 -0.17,-0.02 -0.07,0 -0.1,0.04 -0.12,0.09 -0.04,0.09 -0.08,0.18 -0.12,0.28 -0.06,0.15 0.11,0.18 0.15,0.23 0.07,0.08 0.07,0.2 0,0.29 -0.04,0.05 -0.2,0.08 -0.15,0.23 0.03,0.09 0.08,0.19 0.12,0.28 0.07,0.16 0.18,0.06 0.27,0.06 0.1,0.01 0.19,0.1 0.2,0.2 0.01,0.07 -0.02,0.1 -0.02,0.16 0,0.07 0.04,0.1 0.08,0.12 0.09,0.04 0.19,0.08 0.28,0.11 0.06,0.03 0.12,0.02 0.15,-0.01 0.03,-0.02 0.05,-0.09 0.08,-0.13 0.08,-0.07 0.22,-0.08 0.3,0 0.05,0.05 0.08,0.2 0.23,0.15 0.09,-0.04 0.18,-0.08 0.27,-0.12 0.17,-0.07 0.07,-0.19 0.07,-0.27 0.01,-0.11 0.09,-0.19 0.19,-0.21 0.09,0 0.22,0.1 0.29,-0.06 0.04,-0.09 0.07,-0.18 0.11,-0.28 0.06,-0.15 -0.1,-0.18 -0.14,-0.22 -0.07,-0.08 -0.08,-0.2 -0.01,-0.29 0.04,-0.07 0.2,-0.08 0.16,-0.23l-0.12 -0.28c-0.07,-0.17 -0.18,-0.08 -0.26,-0.08 -0.12,0 -0.2,-0.08 -0.22,-0.18 -0.01,-0.1 0.09,-0.22 -0.05,-0.29 -0.09,-0.04 -0.19,-0.08 -0.28,-0.11 -0.16,-0.07 -0.19,0.09 -0.23,0.13 -0.1,0.1 -0.26,0.09 -0.34,-0.03 -0.02,-0.03 -0.05,-0.14 -0.17,-0.11l0 0z"/>
    <circle class="fil3 str3" cx="6.58" cy="6.35" r="0.59"/>
    <circle class="fil3 str3" cx="3.75" cy="3.85" r="0.59"/>
   </g>
  </g>
 </g>
</svg>
