<?xml version="1.0" encoding="UTF-8"?>
<!DOCTYPE svg PUBLIC "-//W3C//DTD SVG 1.1//EN" "http://www.w3.org/Graphics/SVG/1.1/DTD/svg11.dtd">
<!-- Creator: CorelDRAW 2021 (64 Bit) -->
<svg xmlns="http://www.w3.org/2000/svg" xml:space="preserve" width="550px" height="550px" version="1.1" style="shape-rendering:geometricPrecision; text-rendering:geometricPrecision; image-rendering:optimizeQuality; fill-rule:evenodd; clip-rule:evenodd"
viewBox="0 0 48.02 48.02"
 xmlns:xlink="http://www.w3.org/1999/xlink"
 xmlns:xodm="http://www.corel.com/coreldraw/odm/2003">
 <defs>
  <style type="text/css">
   <![CDATA[
    .str2 {stroke:#AEA19E;stroke-width:1.4;stroke-miterlimit:22.9256;stroke-opacity:0.949020}
    .str6 {stroke:#0D00FF;stroke-width:1.75;stroke-miterlimit:22.9256}
    .str0 {stroke:#B8B4B6;stroke-width:4.37;stroke-miterlimit:22.9256}
    .str5 {stroke:#00FF32;stroke-width:0.44;stroke-miterlimit:22.9256}
    .str1 {stroke:white;stroke-width:0.17;stroke-miterlimit:22.9256}
    .str3 {stroke:black;stroke-width:1.05;stroke-miterlimit:22.9256}
    .str4 {stroke:#373435;stroke-width:0.08;stroke-miterlimit:22.9256}
    .fil4 {fill:none}
    .fil1 {fill:#E6E7E8}
    .fil5 {fill:#373435}
    .fil6 {fill:#00FF32}
    .fil0 {fill:white}
    .fil2 {fill:#333333;fill-rule:nonzero}
    .fil3 {fill:#FEFEFE;fill-rule:nonzero;fill-opacity:0.949020}
   ]]>
  </style>
 </defs>
 <g id="Camada_x0020_1">
  <metadata id="CorelCorpID_0Corel-Layer"/>
  <g id="_2069664424320">
   <path class="fil0 str0" d="M4.14 2.18l39.78 0c1.06,0 1.91,0.98 1.91,2.19l0 39.28c0,1.21 -0.85,2.18 -1.91,2.18l-39.78 0c-1.05,0 -1.91,-0.97 -1.91,-2.18 0,-4.72 -0.07,-38.04 -0.04,-39.76 0.02,-0.94 1.16,-1.71 1.95,-1.71z"/>
   <g>
    <g>
     <rect class="fil1 str1" x="8.16" y="28.23" width="5.83" height="13.42"/>
     <path class="fil2" d="M23.66 42.52c-1.12,0 -2.22,-0.42 -3.29,-0.81 -1.18,-0.44 -2.4,-0.9 -3.61,-0.79l-2.97 0.27 0 -11.56 1.62 -0.15c1.01,-0.09 1.85,0.31 2.67,0.69 0.76,0.35 1.48,0.69 2.32,0.62l5.33 -0.97c1.91,-0.32 2.96,0.78 3.6,1.79l5.82 -2.71c2.2,-0.99 4.67,0 6.15,2.46 0.39,0.65 0.17,1.51 -0.48,1.92 -0.76,0.47 -1.51,0.94 -2.25,1.41 -6.51,4.08 -12.12,7.6 -14.53,7.81 -0.12,0.01 -0.25,0.02 -0.38,0.02zm-6.52 -2.41c1.22,0 2.38,0.43 3.5,0.85 1.17,0.43 2.27,0.84 3.33,0.74 2.22,-0.19 8.02,-3.83 14.17,-7.69 0.75,-0.47 1.5,-0.94 2.25,-1.41 0.29,-0.18 0.39,-0.55 0.23,-0.83 -1.27,-2.09 -3.33,-2.95 -5.13,-2.14l-6.48 3.01c-0.01,-0.42 -0.33,-0.91 -0.51,-1.12 -0.6,-0.72 -1.76,-1.06 -2.63,-0.91l-5.37 0.97c-1.08,0.09 -1.93,-0.3 -2.76,-0.69 -0.75,-0.35 -1.47,-0.68 -2.26,-0.61l-0.9 0.08 0 9.95 2.11 -0.19c0.15,-0.01 0.3,-0.01 0.45,-0.01z"/>
     <path class="fil3 str2" d="M13.23 42.52l-4.56 0c-0.74,0 -1.35,-0.61 -1.35,-1.36l0 -12.26c0,-0.75 0.61,-1.36 1.35,-1.36l4.56 0c0.75,0 1.35,0.61 1.35,1.36l0 12.26c0,0.75 -0.6,1.36 -1.35,1.36zm-4.56 -14.18c-0.3,0 -0.55,0.25 -0.55,0.56l0 12.26c0,0.31 0.25,0.56 0.55,0.56l4.56 0c0.31,0 0.56,-0.25 0.56,-0.56l0 -12.26c0,-0.31 -0.25,-0.56 -0.56,-0.56l-4.56 0z"/>
     <path class="fil4 str3" d="M29.32 32.44c0.1,0.18 0.11,0.51 -0.11,0.86 -0.35,0.56 -1.14,0.99 -3.05,0.76 -1.42,-0.17 -3.13,0.16 -4.6,0.32"/>
    </g>
    <g>
     <g>
      <g>
       <path class="fil5 str4" d="M11.18 20.66c0.64,-0.69 0.95,-0.86 1.91,-1.22 1.51,-0.57 4.55,-1.35 5.33,0.4 0.13,0.29 0.12,0.66 0.17,1.04 0.81,-0.42 1.94,-1.32 2.93,-1.17 0.65,0.1 1.13,0.56 1.17,1.1 0,0.1 -0.06,0.93 -0.11,1.22 0.51,-0.01 1.47,-0.29 1.71,-0.41 1.06,-0.51 1.99,-1.59 3.51,-1.58 0.45,0 0.37,0.02 0.77,0.23 -0.61,0.33 -0.09,0.07 -0.64,0.3 -0.98,0.41 -1.44,1.09 -2.13,1.73 -0.83,0.77 -2.51,1.59 -3.85,1.42 -0.92,-0.12 -1.34,-0.55 -1.54,-1.08 -0.76,0.47 -1.62,0.86 -2.47,0.87 -1.38,0.01 -2.03,-0.87 -2.37,-1.82 -0.46,0.14 -0.91,0.33 -1.26,0.56 -0.01,0 -0.01,0.01 -0.02,0.02 0,-0.01 0.01,-0.01 0.01,-0.02 -0.03,0.02 -0.06,0.04 -0.09,0.06 0.03,-0.01 0.05,-0.01 0.06,-0.02 -0.55,0.58 -1.55,0.77 -2.36,0.41 -0.9,-0.4 -1.23,-1.32 -0.73,-2.04zm6.9 0.42c-0.04,0 -0.09,0.01 -0.14,0.01 0.04,0 0.09,0 0.14,-0.01zm4.39 0.94c-0.03,-0.02 -0.08,-0.03 -0.11,-0.02 0.03,0.01 0.07,0.02 0.11,0.02zm-7.2 -1.48c-0.01,-0.02 -0.01,-0.04 -0.02,-0.06 0.01,0.02 0.01,0.04 0.02,0.06zm-1 1.75c0.01,0 0.01,-0.01 0.02,-0.02 -0.01,0.01 -0.01,0.01 -0.02,0.02z"/>
      </g>
      <path class="fil4" d="M12.8 21.38c0.38,-0.57 4,-1.81 4.09,-1.02 0.29,2.7 1.36,2.26 3.9,0.58 1.87,-1.24 -1.43,3.43 3.62,1.43 1.1,-0.43 2.17,-2.24 4.16,-2.1"/>
     </g>
     <g>
      <rect class="fil6 str5" transform="matrix(0.512272 0.476126 -0.475621 0.512816 38.1227 7.02154)" width="2.3" height="16.5"/>
      <g>
       <polyline class="fil4 str6" points="28.82,19.43 31.31,16.36 32.41,16.44 38.59,9.8 39.69,7.78 38.39,7.05 36.1,8.43 29.91,15.3 31.31,16.36 "/>
       <polyline class="fil4 str6" points="30.61,15.83 29.53,17.12 27.92,19.02 27.76,19.85 28.82,19.43 "/>
      </g>
     </g>
    </g>
   </g>
  </g>
 </g>
</svg>
