<?xml version="1.0" encoding="UTF-8"?>
<!DOCTYPE svg PUBLIC "-//W3C//DTD SVG 1.1//EN" "http://www.w3.org/Graphics/SVG/1.1/DTD/svg11.dtd">
<!-- Creator: CorelDRAW 2021 (64 Bit) -->
<svg xmlns="http://www.w3.org/2000/svg" xml:space="preserve" width="530px" height="530px" version="1.1" style="shape-rendering:geometricPrecision; text-rendering:geometricPrecision; image-rendering:optimizeQuality; fill-rule:evenodd; clip-rule:evenodd"
viewBox="0 0 67.96 67.96"
 xmlns:xlink="http://www.w3.org/1999/xlink"
 xmlns:xodm="http://www.corel.com/coreldraw/odm/2003">
 <defs>
  <style type="text/css">
   <![CDATA[
    .str0 {stroke:#B8B4B6;stroke-width:3.85;stroke-miterlimit:22.9256}
    .str7 {stroke:#F5A980;stroke-width:0.51;stroke-miterlimit:22.9256}
    .str6 {stroke:black;stroke-width:0.13;stroke-miterlimit:22.9256}
    .str12 {stroke:#DBDBDB;stroke-width:0.13;stroke-miterlimit:22.9256}
    .str4 {stroke:#F5A980;stroke-width:0.13;stroke-miterlimit:22.9256}
    .str1 {stroke:#FA0505;stroke-width:0.13;stroke-miterlimit:22.9256}
    .str2 {stroke:#030303;stroke-width:1.03;stroke-miterlimit:22.9256}
    .str3 {stroke:#030303;stroke-width:0.26;stroke-miterlimit:22.9256}
    .str15 {stroke:#4A4949;stroke-width:0.26;stroke-miterlimit:22.9256}
    .str14 {stroke:#C9C5C5;stroke-width:0.26;stroke-miterlimit:22.9256}
    .str10 {stroke:#F5A980;stroke-width:0.26;stroke-miterlimit:22.9256}
    .str11 {stroke:#F5A980;stroke-width:0.38;stroke-miterlimit:22.9256}
    .str16 {stroke:#8F8C8C;stroke-width:0.12;stroke-miterlimit:22.9256}
    .str17 {stroke:#B3B3B3;stroke-width:0.12;stroke-miterlimit:22.9256}
    .str8 {stroke:#DBDBDB;stroke-width:0.12;stroke-miterlimit:22.9256}
    .str13 {stroke:#F5A980;stroke-width:0.12;stroke-miterlimit:22.9256}
    .str9 {stroke:#E1E1E1;stroke-width:0.12;stroke-miterlimit:22.9256}
    .str5 {stroke:#454545;stroke-width:1.92;stroke-linecap:round;stroke-miterlimit:22.9256}
    .fil3 {fill:none}
    .fil6 {fill:black}
    .fil7 {fill:black}
    .fil4 {fill:#003399}
    .fil12 {fill:#615F5F}
    .fil9 {fill:#666666}
    .fil8 {fill:#999999}
    .fil11 {fill:#CCCCCC}
    .fil2 {fill:#E6E6E6}
    .fil10 {fill:#F5A980}
    .fil5 {fill:#F5B796}
    .fil0 {fill:white}
    .fil1 {fill:white}
   ]]>
  </style>
 </defs>
 <g id="Camada_x0020_1">
  <metadata id="CorelCorpID_0Corel-Layer"/>
  <g id="_2787726644368">
   <path class="fil0 str0" d="M4.8 1.92l58.42 0c1.56,0 2.81,1.44 2.81,3.21l0 57.69c0,1.78 -1.25,3.21 -2.81,3.21l-58.42 0c-1.55,0 -2.81,-1.43 -2.81,-3.21 0,-6.93 -0.1,-55.87 -0.06,-58.38 0.03,-1.39 1.71,-2.52 2.87,-2.52z"/>
   <g>
    <g>
     <polygon class="fil1 str1" points="53.03,31.26 50.28,36.08 48.45,33.11 52.16,29.28 "/>
     <polygon class="fil1 str1" points="43.56,31.43 46.64,36.01 48.28,33.21 44.21,29.22 "/>
     <path class="fil1 str1" d="M43.53 31.39l3.09 4.89 0.5 -0.88 0.55 0.5 -0.12 7.68c-3.87,0.01 -7.75,0.01 -11.62,0.02 -0.59,0.09 -0.93,-0.57 -0.92,-1.01 0.02,-1.08 0.32,-4.17 0.55,-7.03 0.09,-1.21 0.35,-1.3 1.2,-1.56 1.35,-0.42 6.44,-2.47 6.77,-2.61z"/>
     <path class="fil2 str1" d="M53.08 31.31l-2.83 4.95 -0.5 -0.88 -0.54 0.5 0.22 7.74c3.88,0.01 6.11,0.05 9.98,0.05 1.06,0.01 1.35,-0.24 1.33,-1.08 -0.03,-1.08 -0.26,-4.23 -0.52,-7.09 -0.08,-0.8 -0.08,-1.19 -0.88,-1.5 -1.34,-0.51 -5.93,-2.55 -6.26,-2.69z"/>
     <path class="fil2 str2" d="M59.85 43.67l-24 0.02c-0.52,0.01 -1.01,-0.36 -0.95,-1.17 0.2,-2.42 0.39,-4.83 0.59,-7.25 0.08,-0.62 0.35,-1.01 0.83,-1.16l7.36 -2.79 0.59 -2.13 4.09 3.97 3.75 -4 0.92 2.1 6.61 2.89c0.34,0.24 0.57,0.62 0.62,1.19 0.22,2.4 0.45,4.81 0.67,7.22 0.08,0.64 -0.43,1.12 -1.08,1.11z"/>
     <polyline class="fil3 str2" points="43.63,31.44 46.66,36.09 48.3,33.27 50.28,36.08 52.98,31.38 "/>
     <polygon class="fil4 str3" points="49.66,35.47 48.29,33.44 47.15,35.47 47.71,35.99 47.59,43.7 49.73,43.69 49.25,35.99 "/>
     <path class="fil5 str4" d="M45.13 29.72l3.21 3.12 2.98 -3.17 -0.09 -1.31c-0.63,0.66 -1.26,1.31 -1.89,1.97 -0.36,0.42 -1.45,0.45 -1.98,0.01l-2.27 -1.99 0.04 1.37z"/>
     <path class="fil5 str4" d="M54.17 20.57c-0.19,0.04 -0.29,0.32 -0.43,0.48l0.17 -0.56 -1.61 -1.22 0.01 -2.56 -2.16 -0.01 -1.82 0.59 -1.88 -0.61 -2.34 0.02 -0.12 2.14 -1.07 1.5c-0.13,-0.2 -0.26,-0.4 -0.38,-0.59 -0.07,-0.2 -0.31,-0.17 -0.43,-0.1 -0.16,0.06 -0.23,0.21 -0.31,0.52 -0.09,0.34 -0.06,0.69 0,1.02l0.23 1.31c0.06,0.22 0.21,0.31 0.43,0.3 0.06,0.02 0.19,-0.07 0.39,-0.3 0.08,0.98 0.24,1.88 0.53,2.67 0.4,1.13 0.95,2.18 1.65,3.16 0.75,0.66 1.5,1.32 2.24,1.97 0.7,0.58 1.38,0.63 2.04,0.03 1.03,-0.95 2.03,-1.94 2.97,-2.96 0.41,-0.59 0.73,-1.21 0.96,-1.85 0.14,-0.76 0.29,-1.53 0.43,-2.3 0.06,0.11 0.13,0.16 0.23,0.15 0.1,0.01 0.36,-0.05 0.5,-0.22 0.31,-0.64 0.5,-1.29 0.6,-1.93 0.04,-0.21 -0.11,-0.41 -0.28,-0.52 -0.15,-0.12 -0.42,-0.19 -0.55,-0.13z"/>
     <g>
      <path class="fil6" d="M50.79 21.43c-0.32,0.06 -0.53,0.29 -0.44,0.7 0.07,0.29 0.32,0.51 0.67,0.43 0.66,-0.14 0.58,-1.29 -0.23,-1.13z"/>
      <path class="fil6" d="M45.77 21.43c-0.77,0.16 -0.47,1.29 0.24,1.14 0.27,-0.06 0.48,-0.34 0.43,-0.71 -0.04,-0.31 -0.33,-0.5 -0.67,-0.43z"/>
      <line class="fil3 str5" x1="44.51" y1="19.91" x2="47.4" y2= "20.19" />
      <path class="fil7 str6" d="M44.09 18.82l-1.22 1.65c-0.41,-1.35 -0.69,-2.98 -0.32,-5.14 0.32,-2.04 1.4,-2.85 2.67,-3.06 2.28,-0.36 4.3,-0.31 6.11,0.04 1.4,0.51 2.4,1.81 2.6,2.93 0.49,1.99 0.21,3.23 -0.04,5.22 -0.53,-0.41 -1.09,-0.81 -1.63,-1.22 -0.18,-0.81 -0.19,-1.67 -0.03,-2.53 -0.8,0.24 -1.3,0.23 -2.06,0 -0.93,0.83 -2.58,0.81 -3.76,0 -0.66,0.18 -1.4,0.2 -2.25,0 0.1,0.75 0.1,1.46 -0.07,2.11z"/>
      <line class="fil3 str5" x1="51.92" y1="19.91" x2="49.03" y2= "20.19" />
      <path class="fil8" d="M50.69 21.36c-0.13,-0.23 0.36,-0.46 0.95,-0.44 0.43,0.07 0.73,0.23 0.86,0.52 0.02,0.08 0.08,0.13 0.01,0.22l-0.27 0.18c-0.39,-0.32 -0.92,-0.46 -1.55,-0.48z"/>
      <path class="fil8" d="M46.31 21.36c0.13,-0.23 -0.36,-0.46 -0.96,-0.44 -0.42,0.07 -0.72,0.23 -0.85,0.52 -0.03,0.08 -0.08,0.13 -0.01,0.22l0.27 0.18c0.39,-0.32 0.92,-0.46 1.55,-0.48z"/>
     </g>
     <path class="fil3 str7" d="M49.54 20.78l-0.42 0.4 -0.18 0.8 -0.14 1.35 0.17 0.7 0.53 0.84c0.03,0.09 0.01,0.17 -0.05,0.23l-0.87 0.65c-0.16,0.1 -0.31,0.09 -0.47,-0.01l-1.02 -0.67 -0.02 -0.28 0.42 -0.84 0.09 -0.62 -0.21 -1.32 -0.25 -0.88 -0.59 -0.41"/>
     <g>
      <path class="fil9" d="M50.03 26.73l-3.4 -0.04c-0.06,0.01 -0.08,0.05 -0.04,0.1l0.75 0.68c0.29,0.18 0.6,0.28 0.95,0.28 0.36,0.03 0.69,-0.04 0.99,-0.21l0.82 -0.67c0.05,-0.14 -0.05,-0.09 -0.07,-0.14z"/>
      <g>
       <path class="fil1 str8" d="M47.14 26.52l0.01 0.33c0,0.1 0.1,0.14 0.22,0.14 0.08,0.04 0.17,0.04 0.27,0 0.08,0.06 0.16,0.06 0.25,0 0.14,0.08 0.29,0.08 0.44,0 0.15,0.08 0.29,0.08 0.45,0 0.1,0.05 0.2,0.05 0.3,-0.01 0.11,0.05 0.21,0.05 0.31,0l0.08 0c0.09,-0.01 0.15,-0.05 0.18,-0.13l0.04 -0.34c-0.86,0.07 -1.71,0.08 -2.55,0.01z"/>
       <line class="fil3 str9" x1="48.77" y1="26.67" x2="48.78" y2= "26.98" />
       <line class="fil3 str9" x1="49.08" y1="26.67" x2="49.08" y2= "26.99" />
       <line class="fil3 str9" x1="49.38" y1="26.67" x2="49.39" y2= "26.98" />
       <line class="fil3 str9" x1="47.37" y1="26.7" x2="47.37" y2= "26.99" />
       <line class="fil3 str9" x1="47.64" y1="26.7" x2="47.64" y2= "27" />
       <line class="fil3 str9" x1="47.89" y1="26.7" x2="47.89" y2= "26.98" />
       <line class="fil3 str9" x1="48.33" y1="26.7" x2="48.33" y2= "26.99" />
       <path class="fil3 str10" d="M47.37 27.81l-1.02 -1.07c-0.13,-0.21 0.17,-0.31 0.35,-0.26 1.23,0.13 2.09,0.1 3.31,0.01 0.39,0.01 0.45,0.11 0.23,0.39l-0.85 0.93c-0.68,0.45 -1.35,0.47 -2.02,0z"/>
      </g>
     </g>
     <polyline class="fil3 str4" points="46.82,29.21 47.55,28.92 48.28,28.69 49.15,28.82 50,29.24 "/>
     <path class="fil3 str11" d="M42.43 22.04c-0.24,-0.35 -0.33,-0.95 -0.32,-1.71 0.16,-0.56 0.3,-0.27 0.39,-0.05 0.16,0.47 0.17,0.73 0,1.06"/>
     <path class="fil3 str11" d="M53.97 21.23c0.05,-0.27 0.22,-0.52 0.4,-0.5 0.31,-0.04 0.51,0.21 0.45,0.52 -0.11,0.77 -0.4,1.12 -0.64,1.25"/>
     <path class="fil3 str10" d="M49.69 22.09c0.12,0.15 0.3,0.2 0.48,0.3 0.42,0.24 0.71,0.6 1.7,-0.14 0.38,-0.29 0.42,-0.07 0.79,-0.18"/>
     <path class="fil3 str10" d="M47.01 22.09c-0.11,0.15 -0.28,0.2 -0.44,0.3 -0.39,0.24 -0.65,0.6 -1.56,-0.14 -0.35,-0.29 -0.38,-0.07 -0.73,-0.18"/>
     <path class="fil3 str10" d="M44.37 22.02c0.14,0 0.31,0.06 0.41,-0.03 0.83,-0.77 1.39,-0.72 1.84,-0.32 0.11,0.09 0.26,0.31 0.4,0.3"/>
     <path class="fil3 str10" d="M52.67 22.02c-0.15,0 -0.34,0.06 -0.46,-0.03 -0.93,-0.77 -1.57,-0.72 -2.07,-0.32 -0.12,0.09 -0.3,0.31 -0.46,0.3"/>
     <path class="fil10 str4" d="M50.1 26.93c-1.44,1.15 -2.61,0.85 -3.72,-0.28 0.96,1.75 2.57,2.05 3.72,0.28z"/>
     <path class="fil11 str4" d="M47.09 26.6c0.04,-0.05 -0.55,-0.07 -0.71,0 -0.03,0.01 0.05,0.01 0.09,0.1 0.21,0.27 0.53,0.49 0.74,0.62l-0.12 -0.72z"/>
     <path class="fil11 str4" d="M49.74 26.63c-0.01,-0.17 0.53,-0.1 0.57,0.01 0.05,0.13 -0.34,0.41 -0.67,0.63l0.1 -0.64z"/>
     <path class="fil1" d="M47.98 27.63c-0.25,-0.06 -0.49,-0.13 -0.64,-0.27 0.29,-0.08 0.14,0.04 0.26,0 0.3,-0.09 0.25,0.04 0.28,0.03 0.26,-0.12 0.41,-0.01 0.45,0.03 0.09,0.12 -0.09,-0.18 0.43,-0.01 0.12,0.04 -0.07,-0.09 0.33,0 0.15,0.04 -0.1,-0.07 0.32,-0.03 -0.2,0.1 -0.43,0.2 -0.66,0.26 -0.26,0.06 -0.51,0.05 -0.77,-0.01z"/>
     <path class="fil3 str12" d="M47.32 27.37c0.11,-0.04 0.2,-0.04 0.29,0.01 0.08,-0.08 0.18,-0.07 0.27,0 0.15,-0.08 0.3,-0.04 0.45,0.04 0.16,-0.08 0.33,-0.09 0.43,0 0.07,-0.08 0.19,-0.08 0.33,-0.01 0.13,-0.09 0.23,-0.08 0.31,0"/>
     <line class="fil3 str8" x1="47.61" y1="27.4" x2="47.6" y2= "27.53" />
     <line class="fil3 str8" x1="47.87" y1="27.4" x2="47.87" y2= "27.61" />
     <line class="fil3 str8" x1="48.33" y1="27.4" x2="48.33" y2= "27.68" />
     <line class="fil3 str8" x1="48.76" y1="27.38" x2="48.76" y2= "27.65" />
     <line class="fil3 str8" x1="49.09" y1="27.37" x2="49.09" y2= "27.54" />
     <path class="fil10 str13" d="M48.11 26.14c-0.06,-0.07 -0.17,-0.06 -0.33,0 -0.38,0.16 -0.77,0.27 -1.18,0.33 -0.16,0 -0.35,0.18 -0.1,0.14 0.11,-0.01 0.48,-0.05 0.72,0.02 0.71,0.2 1.6,0.22 2.46,-0.03 0.18,-0.05 0.41,-0.03 0.55,-0.02 0.15,0.01 0.1,-0.04 -0.02,-0.07 -0.55,-0.13 -1.1,-0.17 -1.32,-0.29 -0.12,-0.03 -0.21,-0.15 -0.32,-0.08 -0.14,0.06 -0.29,0.05 -0.46,0z"/>
     <path class="fil8 str14" d="M54.42 17.71c-4.04,1.32 -8.21,1.23 -12.47,0l0.14 -3.11c0,-1.05 1.09,-2.44 2.14,-2.75 2.52,-0.8 5.39,-0.81 7.27,-0.13 1.26,0.43 2.71,1.7 2.83,2.79l0.09 3.2z"/>
     <path class="fil11 str15" d="M42.34 18.57l-0.36 -0.95c3.96,0.96 8.09,1.06 12.42,0.16 -0.05,0.29 -0.13,0.55 -0.27,0.83 -0.16,0.36 -0.4,0.59 -0.7,0.86 -1.43,1.26 -9.41,1.44 -10.45,0.02 -0.26,-0.27 -0.47,-0.56 -0.64,-0.92z"/>
     <path class="fil12 str16" d="M54.42 17.71c-4.09,0.88 -7.97,0.87 -12.46,-0.15l0.01 0.28c4.19,1.18 8.3,1.15 12.4,0.13l0.05 -0.26z"/>
     <path class="fil3 str14" d="M41.96 17.56c0.97,-3.29 2.27,-6.18 5.93,-6.22"/>
     <path class="fil3 str14" d="M48.36 11.33c3.37,-0.13 5.12,2.1 6.06,6.38"/>
     <ellipse class="fil9 str17" cx="48.11" cy="11.27" rx="0.61" ry="0.15"/>
    </g>
    <g>
     <polygon class="fil1 str1" points="24.4,31.62 21.65,36.44 19.81,33.47 23.53,29.64 "/>
     <polygon class="fil1 str1" points="14.93,31.79 18,36.37 19.64,33.57 15.58,29.58 "/>
     <path class="fil1 str1" d="M14.9 31.75l3.09 4.89 0.5 -0.88 0.54 0.5 -0.11 7.68c-3.87,0.01 -7.75,0.01 -11.63,0.02 -0.59,0.08 -0.92,-0.57 -0.92,-1.02 0.02,-1.07 0.33,-4.16 0.55,-7.03 0.1,-1.2 0.36,-1.29 1.21,-1.56 1.35,-0.41 6.44,-2.46 6.77,-2.6z"/>
     <path class="fil2 str1" d="M24.45 31.67l-2.83 4.95 -0.5 -0.88 -0.55 0.5 0.23 7.74c3.88,0 6.1,0.05 9.98,0.05 1.05,0.01 1.35,-0.24 1.33,-1.08 -0.04,-1.08 -0.26,-4.23 -0.53,-7.1 -0.07,-0.79 -0.08,-1.19 -0.88,-1.49 -1.34,-0.51 -5.92,-2.55 -6.25,-2.69z"/>
     <path class="fil2 str2" d="M31.21 44.03l-23.99 0.02c-0.53,0 -1.02,-0.37 -0.95,-1.17 0.2,-2.42 0.39,-4.83 0.59,-7.25 0.07,-0.62 0.35,-1.01 0.83,-1.17l7.36 -2.78 0.59 -2.13 4.08 3.96 3.76 -3.99 0.92 2.1 6.6 2.89c0.35,0.24 0.57,0.62 0.62,1.19 0.23,2.4 0.46,4.81 0.68,7.22 0.08,0.64 -0.43,1.12 -1.09,1.11z"/>
     <polyline class="fil3 str2" points="14.99,31.79 18.02,36.45 19.67,33.63 21.65,36.44 24.34,31.73 "/>
     <polygon class="fil4 str3" points="21.03,35.83 19.66,33.79 18.52,35.83 19.08,36.35 18.95,44.05 21.09,44.05 20.62,36.35 "/>
     <path class="fil5 str4" d="M16.49 30.08l3.22 3.12 2.97 -3.17 -0.09 -1.31c-0.62,0.65 -1.25,1.31 -1.88,1.97 -0.36,0.42 -1.45,0.45 -1.99,0.01l-2.26 -1.99 0.03 1.37z"/>
     <path class="fil5 str4" d="M25.53 20.92c-0.18,0.04 -0.28,0.33 -0.42,0.49l0.16 -0.57 -1.6 -1.21 0.01 -2.56 -2.16 -0.01 -1.82 0.59 -1.88 -0.62 -2.34 0.03 -0.12 2.14 -1.07 1.5c-0.13,-0.2 -0.26,-0.4 -0.39,-0.6 -0.07,-0.19 -0.3,-0.16 -0.43,-0.09 -0.16,0.06 -0.23,0.2 -0.3,0.52 -0.1,0.34 -0.06,0.68 -0.01,1.02l0.24 1.31c0.06,0.22 0.2,0.31 0.42,0.3 0.07,0.02 0.19,-0.07 0.4,-0.3 0.07,0.98 0.24,1.88 0.53,2.67 0.4,1.13 0.95,2.18 1.65,3.15 0.75,0.66 1.49,1.32 2.24,1.98 0.7,0.58 1.37,0.63 2.04,0.03 1.03,-0.95 2.03,-1.94 2.97,-2.96 0.41,-0.6 0.73,-1.21 0.96,-1.85 0.14,-0.77 0.28,-1.54 0.43,-2.31 0.06,0.11 0.13,0.17 0.23,0.16 0.09,0 0.36,-0.05 0.5,-0.22 0.31,-0.64 0.49,-1.29 0.6,-1.94 0.04,-0.2 -0.11,-0.4 -0.29,-0.51 -0.14,-0.12 -0.42,-0.19 -0.55,-0.14z"/>
     <g>
      <path class="fil6" d="M22.15 21.79c-0.31,0.06 -0.52,0.28 -0.43,0.69 0.07,0.29 0.32,0.52 0.67,0.44 0.66,-0.14 0.57,-1.3 -0.24,-1.13z"/>
      <path class="fil6" d="M17.14 21.79c-0.77,0.16 -0.47,1.29 0.24,1.13 0.27,-0.05 0.48,-0.33 0.43,-0.71 -0.04,-0.3 -0.34,-0.49 -0.67,-0.42z"/>
      <line class="fil3 str5" x1="15.88" y1="20.27" x2="18.77" y2= "20.55" />
      <path class="fil7 str6" d="M15.45 19.17l-1.21 1.66c-0.41,-1.36 -0.69,-2.99 -0.33,-5.14 0.33,-2.04 1.41,-2.85 2.68,-3.06 2.28,-0.36 4.29,-0.32 6.11,0.04 1.39,0.51 2.4,1.81 2.6,2.93 0.49,1.99 0.21,3.23 -0.04,5.22 -0.53,-0.41 -1.09,-0.82 -1.63,-1.22 -0.18,-0.81 -0.2,-1.67 -0.03,-2.53 -0.8,0.24 -1.31,0.23 -2.06,0 -0.94,0.83 -2.59,0.81 -3.76,0 -0.66,0.18 -1.4,0.2 -2.25,0 0.1,0.74 0.1,1.45 -0.08,2.1z"/>
      <line class="fil3 str5" x1="23.29" y1="20.27" x2="20.4" y2= "20.55" />
      <path class="fil8" d="M22.06 21.72c-0.13,-0.23 0.36,-0.46 0.95,-0.44 0.42,0.07 0.73,0.23 0.86,0.52 0.02,0.08 0.08,0.13 0.01,0.22l-0.28 0.18c-0.38,-0.32 -0.92,-0.46 -1.54,-0.48z"/>
      <path class="fil8" d="M17.67 21.72c0.13,-0.23 -0.35,-0.46 -0.95,-0.44 -0.42,0.07 -0.72,0.23 -0.86,0.52 -0.02,0.08 -0.07,0.13 -0.01,0.22l0.28 0.18c0.39,-0.32 0.92,-0.46 1.54,-0.48z"/>
     </g>
     <path class="fil3 str7" d="M20.91 21.14l-0.42 0.4 -0.18 0.8 -0.14 1.35 0.17 0.69 0.52 0.85c0.03,0.09 0.02,0.17 -0.04,0.23l-0.87 0.65c-0.16,0.1 -0.32,0.09 -0.47,-0.01l-1.02 -0.67 -0.02 -0.28 0.41 -0.84 0.09 -0.62 -0.2 -1.32 -0.25 -0.88 -0.6 -0.41"/>
     <g>
      <path class="fil9" d="M21.39 27.09l-3.39 -0.04c-0.07,0.01 -0.08,0.05 -0.04,0.1l0.75 0.68c0.29,0.18 0.6,0.28 0.95,0.28 0.36,0.02 0.69,-0.05 0.98,-0.21l0.83 -0.67c0.05,-0.14 -0.05,-0.09 -0.08,-0.14z"/>
      <g>
       <path class="fil1 str8" d="M18.51 26.88l0 0.33c0,0.1 0.1,0.13 0.22,0.14 0.08,0.04 0.18,0.04 0.28,0 0.07,0.06 0.16,0.06 0.24,0 0.15,0.08 0.3,0.08 0.45,0 0.14,0.08 0.29,0.08 0.44,-0.01 0.11,0.06 0.21,0.06 0.31,0 0.1,0.05 0.21,0.05 0.3,0l0.09 0c0.09,-0.01 0.15,-0.05 0.18,-0.13l0.04 -0.34c-0.86,0.07 -1.71,0.07 -2.55,0.01z"/>
       <line class="fil3 str9" x1="20.14" y1="27.03" x2="20.14" y2= "27.34" />
       <line class="fil3 str9" x1="20.45" y1="27.03" x2="20.45" y2= "27.35" />
       <line class="fil3 str9" x1="20.75" y1="27.03" x2="20.75" y2= "27.34" />
       <line class="fil3 str9" x1="18.73" y1="27.05" x2="18.73" y2= "27.35" />
       <line class="fil3 str9" x1="19.01" y1="27.06" x2="19.01" y2= "27.36" />
       <line class="fil3 str9" x1="19.25" y1="27.06" x2="19.25" y2= "27.34" />
       <line class="fil3 str9" x1="19.7" y1="27.06" x2="19.7" y2= "27.34" />
       <path class="fil3 str10" d="M18.73 28.17l-1.01 -1.07c-0.13,-0.21 0.16,-0.31 0.35,-0.27 1.22,0.14 2.09,0.11 3.31,0.01 0.39,0.02 0.45,0.12 0.23,0.4l-0.85 0.92c-0.68,0.46 -1.36,0.48 -2.03,0.01z"/>
      </g>
     </g>
     <polyline class="fil3 str4" points="18.19,29.57 18.91,29.28 19.65,29.05 20.52,29.18 21.36,29.6 "/>
     <path class="fil3 str11" d="M13.8 22.39c-0.24,-0.34 -0.33,-0.95 -0.33,-1.7 0.16,-0.56 0.31,-0.27 0.39,-0.05 0.17,0.46 0.18,0.72 0.01,1.06"/>
     <path class="fil3 str11" d="M25.34 21.59c0.05,-0.28 0.21,-0.52 0.39,-0.5 0.32,-0.04 0.52,0.21 0.46,0.52 -0.12,0.77 -0.4,1.12 -0.64,1.25"/>
     <path class="fil3 str10" d="M21.06 22.45c0.11,0.15 0.3,0.2 0.48,0.3 0.42,0.24 0.71,0.6 1.69,-0.15 0.39,-0.29 0.42,-0.06 0.8,-0.18"/>
     <path class="fil3 str10" d="M18.38 22.45c-0.11,0.15 -0.28,0.2 -0.45,0.3 -0.38,0.24 -0.65,0.6 -1.55,-0.15 -0.35,-0.29 -0.39,-0.06 -0.73,-0.18"/>
     <path class="fil3 str10" d="M15.74 22.38c0.13,0 0.3,0.06 0.41,-0.04 0.82,-0.77 1.39,-0.71 1.84,-0.31 0.1,0.09 0.26,0.31 0.4,0.3"/>
     <path class="fil3 str10" d="M24.04 22.38c-0.15,0 -0.35,0.06 -0.46,-0.04 -0.93,-0.77 -1.57,-0.71 -2.08,-0.31 -0.12,0.09 -0.29,0.31 -0.45,0.3"/>
     <path class="fil10 str4" d="M21.47 27.29c-1.44,1.15 -2.61,0.85 -3.72,-0.28 0.95,1.75 2.57,2.05 3.72,0.28z"/>
     <path class="fil11 str4" d="M18.46 26.96c0.03,-0.05 -0.56,-0.07 -0.71,0 -0.03,0.01 0.04,0.01 0.09,0.09 0.21,0.28 0.53,0.5 0.74,0.63l-0.12 -0.72z"/>
     <path class="fil11 str4" d="M21.1 26.98c-0.01,-0.16 0.54,-0.09 0.57,0.01 0.06,0.14 -0.33,0.42 -0.66,0.64l0.09 -0.65z"/>
     <path class="fil1" d="M19.35 27.99c-0.25,-0.06 -0.49,-0.14 -0.64,-0.27 0.29,-0.08 0.13,0.04 0.26,0 0.3,-0.09 0.25,0.04 0.28,0.03 0.26,-0.12 0.41,-0.01 0.44,0.03 0.1,0.12 -0.08,-0.18 0.44,-0.01 0.11,0.04 -0.07,-0.09 0.32,0 0.16,0.04 -0.1,-0.07 0.33,-0.03 -0.21,0.09 -0.43,0.19 -0.67,0.26 -0.25,0.06 -0.51,0.05 -0.76,-0.01z"/>
     <path class="fil3 str12" d="M18.69 27.73c0.11,-0.04 0.2,-0.04 0.28,0.01 0.09,-0.08 0.19,-0.07 0.27,0 0.15,-0.08 0.31,-0.04 0.45,0.04 0.17,-0.09 0.34,-0.09 0.44,-0.01 0.07,-0.07 0.19,-0.07 0.33,0 0.13,-0.09 0.23,-0.08 0.31,0"/>
     <line class="fil3 str8" x1="18.97" y1="27.76" x2="18.97" y2= "27.88" />
     <line class="fil3 str8" x1="19.24" y1="27.76" x2="19.23" y2= "27.97" />
     <line class="fil3 str8" x1="19.7" y1="27.76" x2="19.69" y2= "28.04" />
     <line class="fil3 str8" x1="20.13" y1="27.74" x2="20.13" y2= "28.01" />
     <line class="fil3 str8" x1="20.45" y1="27.73" x2="20.46" y2= "27.9" />
     <path class="fil10 str13" d="M19.48 26.5c-0.06,-0.07 -0.18,-0.06 -0.33,0 -0.38,0.16 -0.77,0.27 -1.18,0.32 -0.16,0.01 -0.36,0.19 -0.1,0.15 0.11,-0.02 0.48,-0.05 0.72,0.02 0.71,0.2 1.6,0.22 2.46,-0.03 0.17,-0.06 0.41,-0.03 0.55,-0.02 0.14,0.01 0.1,-0.05 -0.02,-0.07 -0.56,-0.13 -1.1,-0.17 -1.33,-0.29 -0.11,-0.03 -0.2,-0.15 -0.31,-0.08 -0.14,0.06 -0.3,0.05 -0.46,0z"/>
     <path class="fil8 str14" d="M25.79 18.06c-4.05,1.33 -8.21,1.24 -12.47,0l0.14 -3.1c0,-1.05 1.09,-2.44 2.14,-2.75 2.52,-0.8 5.39,-0.81 7.27,-0.13 1.25,0.43 2.71,1.7 2.83,2.78l0.09 3.2z"/>
     <path class="fil11 str15" d="M13.71 18.93l-0.36 -0.95c3.96,0.96 8.09,1.06 12.42,0.16 -0.06,0.29 -0.13,0.54 -0.27,0.83 -0.16,0.36 -0.4,0.59 -0.7,0.86 -1.43,1.26 -9.41,1.44 -10.45,0.01 -0.26,-0.26 -0.47,-0.56 -0.64,-0.91z"/>
     <path class="fil12 str16" d="M25.79 18.06c-4.09,0.88 -7.98,0.87 -12.46,-0.14l0 0.28c4.2,1.17 8.31,1.15 12.4,0.13l0.06 -0.27z"/>
     <path class="fil3 str14" d="M13.33 17.92c0.97,-3.3 2.27,-6.19 5.93,-6.22"/>
     <path class="fil3 str14" d="M19.72 11.69c3.38,-0.13 5.13,2.1 6.07,6.37"/>
     <ellipse class="fil9 str17" cx="19.48" cy="11.63" rx="0.61" ry="0.15"/>
    </g>
    <g>
     <polygon class="fil1 str1" points="38.68,42.85 35.93,47.67 34.1,44.7 37.81,40.87 "/>
     <polygon class="fil1 str1" points="29.21,43.01 32.29,47.59 33.93,44.8 29.86,40.81 "/>
     <path class="fil1 str1" d="M29.18 42.98l3.09 4.88 0.5 -0.87 0.55 0.5 -0.11 7.68c-3.88,0 -7.76,0.01 -11.63,0.01 -0.59,0.09 -0.93,-0.57 -0.92,-1.01 0.02,-1.07 0.32,-4.16 0.55,-7.03 0.09,-1.2 0.35,-1.3 1.21,-1.56 1.35,-0.42 6.43,-2.46 6.76,-2.6z"/>
     <path class="fil2 str1" d="M38.73 42.9l-2.83 4.94 -0.5 -0.87 -0.54 0.5 0.23 7.74c3.87,0 6.1,0.04 9.97,0.05 1.06,0 1.35,-0.24 1.33,-1.09 -0.03,-1.07 -0.26,-4.22 -0.52,-7.09 -0.08,-0.79 -0.08,-1.19 -0.88,-1.5 -1.34,-0.51 -5.93,-2.54 -6.26,-2.68z"/>
     <path class="fil2 str2" d="M45.5 55.25l-24 0.02c-0.52,0.01 -1.01,-0.36 -0.95,-1.16 0.2,-2.42 0.39,-4.84 0.59,-7.25 0.08,-0.62 0.35,-1.02 0.83,-1.17l7.36 -2.78 0.59 -2.14 4.09 3.97 3.75 -3.99 0.92 2.1 6.61 2.89c0.35,0.23 0.57,0.61 0.62,1.18 0.22,2.41 0.45,4.82 0.67,7.22 0.08,0.65 -0.43,1.13 -1.08,1.11z"/>
     <polyline class="fil3 str2" points="29.28,43.02 32.31,47.67 33.95,44.85 35.93,47.67 38.63,42.96 "/>
     <polygon class="fil4 str3" points="35.32,47.06 33.95,45.02 32.8,47.06 33.36,47.57 33.24,55.28 35.38,55.28 34.9,47.58 "/>
     <path class="fil5 str4" d="M30.78 41.31l3.21 3.12 2.98 -3.17 -0.09 -1.32c-0.63,0.66 -1.26,1.32 -1.89,1.97 -0.36,0.43 -1.45,0.46 -1.98,0.02l-2.27 -2 0.04 1.38z"/>
     <path class="fil5 str4" d="M39.82 32.15c-0.18,0.04 -0.29,0.33 -0.43,0.49l0.17 -0.57 -1.61 -1.21 0.01 -2.56 -2.16 -0.01 -1.82 0.58 -1.88 -0.61 -2.34 0.03 -0.12 2.14 -1.07 1.49c-0.13,-0.19 -0.26,-0.39 -0.38,-0.59 -0.07,-0.19 -0.31,-0.16 -0.43,-0.09 -0.16,0.05 -0.23,0.2 -0.31,0.52 -0.09,0.33 -0.06,0.68 0,1.02l0.23 1.3c0.07,0.22 0.21,0.32 0.43,0.3 0.06,0.02 0.19,-0.06 0.39,-0.3 0.08,0.99 0.25,1.88 0.53,2.67 0.4,1.14 0.95,2.19 1.65,3.16 0.75,0.66 1.5,1.32 2.25,1.98 0.69,0.58 1.37,0.63 2.03,0.03 1.03,-0.95 2.03,-1.94 2.97,-2.97 0.41,-0.59 0.73,-1.2 0.96,-1.84 0.14,-0.77 0.29,-1.54 0.43,-2.31 0.06,0.11 0.13,0.17 0.23,0.16 0.1,0 0.36,-0.05 0.5,-0.22 0.31,-0.65 0.5,-1.29 0.61,-1.94 0.04,-0.2 -0.12,-0.4 -0.29,-0.52 -0.15,-0.12 -0.42,-0.18 -0.55,-0.13z"/>
     <g>
      <path class="fil6" d="M36.44 33.01c-0.32,0.07 -0.53,0.29 -0.43,0.7 0.06,0.29 0.31,0.52 0.66,0.44 0.66,-0.14 0.58,-1.3 -0.23,-1.14z"/>
      <path class="fil6" d="M31.42 33.01c-0.77,0.16 -0.46,1.29 0.24,1.14 0.27,-0.06 0.49,-0.33 0.43,-0.71 -0.04,-0.3 -0.33,-0.5 -0.67,-0.43z"/>
      <line class="fil3 str5" x1="30.16" y1="31.5" x2="33.05" y2= "31.78" />
      <path class="fil7 str6" d="M29.74 30.4l-1.22 1.66c-0.41,-1.36 -0.69,-2.99 -0.32,-5.15 0.33,-2.04 1.41,-2.85 2.67,-3.05 2.28,-0.36 4.3,-0.32 6.11,0.04 1.4,0.5 2.4,1.81 2.6,2.93 0.5,1.99 0.21,3.23 -0.03,5.21 -0.54,-0.4 -1.1,-0.81 -1.64,-1.21 -0.18,-0.82 -0.19,-1.68 -0.03,-2.53 -0.79,0.24 -1.3,0.23 -2.05,0 -0.94,0.82 -2.59,0.81 -3.77,0 -0.66,0.18 -1.4,0.2 -2.24,0 0.09,0.74 0.09,1.45 -0.08,2.1z"/>
      <line class="fil3 str5" x1="37.57" y1="31.5" x2="34.68" y2= "31.78" />
      <path class="fil8" d="M36.34 32.95c-0.13,-0.24 0.36,-0.46 0.96,-0.44 0.42,0.07 0.72,0.22 0.85,0.52 0.03,0.07 0.08,0.12 0.01,0.22l-0.27 0.17c-0.39,-0.32 -0.92,-0.45 -1.55,-0.47z"/>
      <path class="fil8" d="M31.96 32.95c0.13,-0.24 -0.36,-0.46 -0.95,-0.44 -0.43,0.07 -0.73,0.22 -0.86,0.52 -0.02,0.07 -0.08,0.12 -0.01,0.22l0.27 0.17c0.39,-0.32 0.92,-0.45 1.55,-0.47z"/>
     </g>
     <path class="fil3 str7" d="M35.2 32.36l-0.43 0.41 -0.17 0.8 -0.15 1.35 0.17 0.69 0.53 0.84c0.03,0.1 0.01,0.17 -0.05,0.23l-0.87 0.65c-0.16,0.11 -0.31,0.1 -0.47,-0.01l-1.02 -0.67 -0.01 -0.27 0.41 -0.85 0.09 -0.61 -0.21 -1.32 -0.25 -0.89 -0.59 -0.4"/>
     <g>
      <path class="fil9" d="M35.68 38.32l-3.4 -0.05c-0.06,0.02 -0.08,0.05 -0.04,0.1l0.75 0.68c0.29,0.19 0.6,0.29 0.95,0.29 0.36,0.02 0.69,-0.05 0.99,-0.22l0.83 -0.66c0.04,-0.14 -0.06,-0.09 -0.08,-0.14z"/>
      <g>
       <path class="fil1 str8" d="M32.79 38.1l0.01 0.34c0,0.1 0.1,0.13 0.22,0.13 0.08,0.05 0.17,0.05 0.27,0 0.08,0.07 0.16,0.06 0.25,0 0.14,0.09 0.29,0.08 0.44,0 0.15,0.08 0.29,0.09 0.45,0 0.1,0.06 0.21,0.06 0.3,0 0.11,0.04 0.21,0.05 0.31,0l0.08 0c0.1,-0.01 0.15,-0.06 0.18,-0.14l0.04 -0.33c-0.86,0.07 -1.71,0.07 -2.55,0z"/>
       <line class="fil3 str9" x1="34.43" y1="38.25" x2="34.43" y2= "38.57" />
       <line class="fil3 str9" x1="34.73" y1="38.26" x2="34.73" y2= "38.57" />
       <line class="fil3 str9" x1="35.04" y1="38.25" x2="35.04" y2= "38.56" />
       <line class="fil3 str9" x1="33.02" y1="38.28" x2="33.02" y2= "38.57" />
       <line class="fil3 str9" x1="33.29" y1="38.29" x2="33.29" y2= "38.58" />
       <line class="fil3 str9" x1="33.54" y1="38.29" x2="33.54" y2= "38.57" />
       <line class="fil3 str9" x1="33.98" y1="38.28" x2="33.98" y2= "38.57" />
       <path class="fil3 str10" d="M33.02 39.4l-1.02 -1.08c-0.13,-0.21 0.17,-0.3 0.36,-0.26 1.22,0.14 2.08,0.11 3.3,0.01 0.39,0.02 0.45,0.12 0.23,0.4l-0.85 0.92c-0.68,0.45 -1.35,0.47 -2.02,0.01z"/>
      </g>
     </g>
     <polyline class="fil3 str4" points="32.47,40.79 33.2,40.51 33.93,40.28 34.8,40.41 35.65,40.83 "/>
     <path class="fil3 str11" d="M28.08 33.62c-0.24,-0.35 -0.33,-0.95 -0.32,-1.7 0.16,-0.56 0.3,-0.27 0.39,-0.06 0.16,0.47 0.17,0.73 0,1.07"/>
     <path class="fil3 str11" d="M39.62 32.82c0.05,-0.28 0.22,-0.53 0.4,-0.5 0.31,-0.05 0.51,0.21 0.45,0.52 -0.11,0.77 -0.4,1.12 -0.64,1.25"/>
     <path class="fil3 str10" d="M35.34 33.68c0.12,0.14 0.3,0.2 0.48,0.3 0.42,0.23 0.71,0.6 1.7,-0.15 0.38,-0.29 0.42,-0.07 0.79,-0.18"/>
     <path class="fil3 str10" d="M32.66 33.68c-0.11,0.14 -0.27,0.2 -0.44,0.3 -0.39,0.23 -0.65,0.6 -1.56,-0.15 -0.35,-0.29 -0.38,-0.07 -0.72,-0.18"/>
     <path class="fil3 str10" d="M30.02 33.61c0.14,-0.01 0.31,0.06 0.41,-0.04 0.83,-0.77 1.39,-0.71 1.84,-0.32 0.11,0.1 0.27,0.31 0.4,0.31"/>
     <path class="fil3 str10" d="M38.33 33.61c-0.16,-0.01 -0.35,0.06 -0.47,-0.04 -0.93,-0.77 -1.57,-0.71 -2.07,-0.32 -0.12,0.1 -0.3,0.31 -0.46,0.31"/>
     <path class="fil10 str4" d="M35.76 38.52c-1.45,1.15 -2.61,0.84 -3.73,-0.29 0.96,1.75 2.57,2.05 3.73,0.29z"/>
     <path class="fil11 str4" d="M32.74 38.18c0.04,-0.05 -0.55,-0.07 -0.7,0 -0.04,0.02 0.04,0.02 0.09,0.1 0.2,0.28 0.52,0.5 0.73,0.62l-0.12 -0.72z"/>
     <path class="fil11 str4" d="M35.39 38.21c-0.01,-0.17 0.54,-0.1 0.57,0.01 0.06,0.14 -0.34,0.42 -0.67,0.63l0.1 -0.64z"/>
     <path class="fil1" d="M33.63 39.21c-0.25,-0.06 -0.48,-0.13 -0.64,-0.26 0.29,-0.08 0.14,0.04 0.26,0 0.3,-0.09 0.26,0.04 0.28,0.02 0.26,-0.12 0.42,0 0.45,0.04 0.09,0.12 -0.09,-0.19 0.43,-0.01 0.12,0.04 -0.07,-0.1 0.33,0 0.15,0.03 -0.1,-0.08 0.32,-0.03 -0.2,0.09 -0.42,0.19 -0.66,0.26 -0.26,0.06 -0.51,0.05 -0.77,-0.02z"/>
     <path class="fil3 str12" d="M32.97 38.96c0.12,-0.05 0.21,-0.05 0.29,0.01 0.09,-0.08 0.18,-0.08 0.27,0 0.15,-0.09 0.3,-0.05 0.45,0.04 0.16,-0.09 0.33,-0.09 0.43,-0.01 0.08,-0.07 0.19,-0.07 0.33,0 0.13,-0.1 0.23,-0.09 0.31,-0.01"/>
     <line class="fil3 str8" x1="33.26" y1="38.99" x2="33.26" y2= "39.11" />
     <line class="fil3 str8" x1="33.53" y1="38.98" x2="33.52" y2= "39.2" />
     <line class="fil3 str8" x1="33.98" y1="38.98" x2="33.98" y2= "39.27" />
     <line class="fil3 str8" x1="34.42" y1="38.97" x2="34.41" y2= "39.24" />
     <line class="fil3 str8" x1="34.74" y1="38.96" x2="34.74" y2= "39.13" />
     <path class="fil10 str13" d="M33.76 37.73c-0.06,-0.07 -0.17,-0.06 -0.33,-0.01 -0.37,0.16 -0.77,0.28 -1.18,0.33 -0.16,0 -0.35,0.19 -0.09,0.15 0.1,-0.02 0.47,-0.05 0.71,0.02 0.72,0.19 1.6,0.22 2.46,-0.04 0.18,-0.05 0.41,-0.02 0.55,-0.01 0.15,0.01 0.1,-0.05 -0.02,-0.08 -0.55,-0.13 -1.1,-0.16 -1.32,-0.29 -0.11,-0.02 -0.21,-0.15 -0.31,-0.07 -0.15,0.05 -0.3,0.05 -0.47,0z"/>
     <path class="fil8 str14" d="M40.07 29.29c-4.04,1.32 -8.21,1.24 -12.47,0l0.14 -3.11c0,-1.05 1.1,-2.44 2.14,-2.74 2.52,-0.81 5.39,-0.82 7.27,-0.14 1.26,0.43 2.71,1.71 2.83,2.79l0.09 3.2z"/>
     <path class="fil11 str15" d="M27.99 30.15l-0.36 -0.95c3.96,0.97 8.09,1.07 12.42,0.17 -0.05,0.28 -0.13,0.54 -0.27,0.83 -0.16,0.36 -0.4,0.59 -0.7,0.86 -1.43,1.25 -9.41,1.43 -10.44,0.01 -0.26,-0.27 -0.48,-0.56 -0.65,-0.92z"/>
     <path class="fil12 str16" d="M40.07 29.29c-4.09,0.88 -7.97,0.87 -12.46,-0.14l0.01 0.28c4.2,1.17 8.3,1.15 12.4,0.12l0.05 -0.26z"/>
     <path class="fil3 str14" d="M27.61 29.15c0.97,-3.3 2.28,-6.19 5.93,-6.23"/>
     <path class="fil3 str14" d="M34.01 22.91c3.37,-0.12 5.12,2.1 6.06,6.38"/>
     <ellipse class="fil9 str17" cx="33.76" cy="22.86" rx="0.61" ry="0.15"/>
    </g>
   </g>
  </g>
 </g>
</svg>
