<?xml version="1.0" encoding="UTF-8"?>
<!DOCTYPE svg PUBLIC "-//W3C//DTD SVG 1.1//EN" "http://www.w3.org/Graphics/SVG/1.1/DTD/svg11.dtd">
<!-- Creator: CorelDRAW 2021 (64 Bit) -->
<svg xmlns="http://www.w3.org/2000/svg" xml:space="preserve" width="530px" height="530px" version="1.1" style="shape-rendering:geometricPrecision; text-rendering:geometricPrecision; image-rendering:optimizeQuality; fill-rule:evenodd; clip-rule:evenodd"
viewBox="0 0 5.55 5.55"
 xmlns:xlink="http://www.w3.org/1999/xlink"
 xmlns:xodm="http://www.corel.com/coreldraw/odm/2003">
 <defs>
  <style type="text/css">
   <![CDATA[
    .str0 {stroke:#B8B4B6;stroke-width:0.31;stroke-miterlimit:22.9256}
    .str1 {stroke:black;stroke-width:0.08;stroke-miterlimit:22.9256}
    .fil2 {fill:blue}
    .fil5 {fill:lime}
    .fil4 {fill:aqua}
    .fil3 {fill:red}
    .fil1 {fill:yellow}
    .fil0 {fill:white}
   ]]>
  </style>
 </defs>
 <g id="Camada_x0020_1">
  <metadata id="CorelCorpID_0Corel-Layer"/>
  <g id="_2787731018944">
   <path class="fil0 str0" d="M0.39 0.16l4.78 0c0.12,0 0.23,0.11 0.23,0.26l0 4.71c0,0.15 -0.11,0.27 -0.23,0.27l-4.78 0c-0.12,0 -0.23,-0.12 -0.23,-0.27 0,-0.56 -0.01,-4.56 0,-4.77 0,-0.11 0.14,-0.2 0.23,-0.2z"/>
   <g>
    <rect class="fil1 str1" x="2.24" y="3.73" width="1.23" height="1.3"/>
    <rect class="fil2 str1" transform="matrix(0.0768135 -0.0623436 0.063646 0.0887641 1.1195 1.39514)" width="12.96" height="11.55"/>
    <rect class="fil3 str1" transform="matrix(0.0951114 -0.0314245 0.0332723 0.113009 0.622326 2.82788)" width="12.96" height="11.55"/>
    <rect class="fil4 str1" transform="matrix(0.0768876 0.0619691 -0.0656128 0.0913556 3.61649 0.553063)" width="12.96" height="11.55"/>
    <rect class="fil5 str1" transform="matrix(-0.0951114 -0.0314245 -0.0332723 0.113009 5.09832 2.82788)" width="12.96" height="11.55"/>
   </g>
  </g>
 </g>
</svg>
