<?xml version="1.0" encoding="UTF-8"?>
<!DOCTYPE svg PUBLIC "-//W3C//DTD SVG 1.1//EN" "http://www.w3.org/Graphics/SVG/1.1/DTD/svg11.dtd">
<!-- Creator: CorelDRAW 2021 (64 Bit) -->
<svg xmlns="http://www.w3.org/2000/svg" xml:space="preserve" width="400px" height="400px" version="1.1" style="shape-rendering:geometricPrecision; text-rendering:geometricPrecision; image-rendering:optimizeQuality; fill-rule:evenodd; clip-rule:evenodd"
viewBox="0 0 4 4"
 xmlns:xlink="http://www.w3.org/1999/xlink"
 xmlns:xodm="http://www.corel.com/coreldraw/odm/2003">
 <defs>
  <style type="text/css">
   <![CDATA[
    .str0 {stroke:#B8B4B6;stroke-width:0.3;stroke-miterlimit:22.9256}
    .str4 {stroke:black;stroke-width:0.08;stroke-miterlimit:22.9256}
    .str3 {stroke:black;stroke-width:0.02;stroke-miterlimit:22.9256}
    .str5 {stroke:#030303;stroke-width:0.02;stroke-miterlimit:22.9256}
    .str1 {stroke:black;stroke-width:0.01;stroke-miterlimit:22.9256}
    .str2 {stroke:#FF9933;stroke-width:0.01;stroke-miterlimit:22.9256}
    .str6 {stroke:#030303;stroke-width:0.08;stroke-linecap:round;stroke-miterlimit:22.9256}
    .fil4 {fill:none}
    .fil1 {fill:black}
    .fil2 {fill:aqua}
    .fil3 {fill:#FFFF99}
    .fil0 {fill:white}
   ]]>
  </style>
 </defs>
 <g id="Camada_x0020_1">
  <metadata id="CorelCorpID_0Corel-Layer"/>
  <g id="_2069710077344">
   <path class="fil0 str0" d="M0.32 0.15l3.37 0c0.09,0 0.16,0.08 0.16,0.19l0 3.33c0,0.1 -0.07,0.18 -0.16,0.18l-3.37 0c-0.09,0 -0.17,-0.08 -0.17,-0.18 0,-0.4 0,-3.23 0,-3.37 0,-0.08 0.1,-0.15 0.17,-0.15z"/>
   <g>
    <g>
     <g>
      <path class="fil0" d="M2.02 1.28c0.02,0 0.04,-0.01 0.06,-0.01 0,-0.01 0.01,-0.01 0.02,-0.02 0,0 0.01,-0.01 0.02,-0.01 0,0.01 0.02,0.02 0.03,0.02 -0.01,0.02 -0.04,0.03 -0.06,0.04 -0.05,0.02 -0.11,0.03 -0.16,0.01 -0.01,-0.01 -0.04,-0.03 -0.05,-0.04 0,-0.01 0.02,-0.02 0.03,-0.03 0.03,0.04 0.07,0.04 0.11,0.04zm0.09 -0.22c0.07,-0.02 0.08,0.06 0.02,0.07 -0.03,0.01 -0.05,-0.01 -0.05,-0.03 -0.01,-0.03 0.01,-0.04 0.03,-0.04zm-0.24 0c0.03,-0.01 0.05,0 0.05,0.02 0.01,0.03 -0.01,0.05 -0.03,0.05 -0.06,0.01 -0.09,-0.06 -0.02,-0.07zm0.45 0.03c0.01,-0.04 0.02,-0.08 -0.01,-0.11 -0.01,-0.01 -0.03,-0.02 -0.04,-0.03 -0.03,-0.02 -0.04,-0.01 -0.07,0.01 -0.05,0.04 -0.12,0.07 -0.19,0.07 -0.1,0 -0.16,-0.05 -0.21,-0.08 -0.02,-0.01 -0.04,-0.01 -0.06,0 -0.02,0.01 -0.03,0.01 -0.04,0.03 0,0.02 -0.01,0.05 -0.01,0.06 0,0.02 0.01,0.03 0.01,0.05l-0.05 0.01c-0.01,0.02 0.01,0.06 0.01,0.08 0.01,0.02 0.01,0.03 0.02,0.03 0.02,0.01 0.04,0.01 0.05,0.01 0.02,0.03 0.03,0.05 0.04,0.07 0.02,0.02 0.05,0.05 0.06,0.06 0.02,0.01 0.04,0.03 0.08,0.04 0.03,0 0.07,0.01 0.1,0.01 0.09,0 0.13,-0.02 0.18,-0.06 0.02,-0.01 0.05,-0.03 0.06,-0.05 0.03,-0.03 0.03,-0.04 0.04,-0.07 0.03,0 0.05,0.01 0.06,-0.01 0.01,-0.02 0.01,-0.03 0.02,-0.05 0,-0.02 0.02,-0.04 0,-0.05 -0.01,-0.01 -0.04,-0.01 -0.05,-0.02z"/>
      <path class="fil0" d="M2.59 1.36c-0.09,0.01 -0.06,0.13 0.03,0.11 0.03,-0.01 0.06,-0.03 0.05,-0.07 0,-0.03 -0.04,-0.05 -0.08,-0.04z"/>
      <path class="fil1" d="M2.02 1.28c-0.04,0 -0.08,0 -0.11,-0.04 -0.01,0.01 -0.03,0.02 -0.03,0.03 0.01,0.01 0.04,0.03 0.05,0.04 0.05,0.02 0.11,0.01 0.16,-0.01 0.02,-0.01 0.05,-0.02 0.06,-0.04 -0.01,0 -0.03,-0.01 -0.03,-0.02 -0.01,0 -0.02,0.01 -0.02,0.01 -0.01,0.01 -0.02,0.01 -0.02,0.02 -0.02,0 -0.04,0.01 -0.06,0.01z"/>
      <polygon class="fil1" points="1.55,1.94 1.59,1.94 1.59,1.79 1.55,1.79 "/>
      <polygon class="fil1" points="2.47,1.94 2.5,1.94 2.51,1.94 2.51,1.79 2.5,1.79 2.47,1.79 "/>
      <path class="fil1" d="M2.11 1.06c-0.02,0 -0.04,0.01 -0.03,0.04 0,0.02 0.02,0.04 0.05,0.03 0.06,-0.01 0.05,-0.09 -0.02,-0.07z"/>
      <path class="fil1" d="M1.87 1.06c-0.07,0.01 -0.04,0.08 0.02,0.07 0.02,0 0.04,-0.02 0.03,-0.05 0,-0.02 -0.02,-0.03 -0.05,-0.02z"/>
      <path class="fil1 str1" d="M2.32 1.09c0.01,0.01 0.04,0.01 0.05,0.02 0.02,0.01 0,0.03 0,0.05 -0.01,0.02 -0.01,0.03 -0.02,0.05 -0.01,0.02 -0.03,0.01 -0.06,0.01 -0.01,0.03 -0.01,0.04 -0.04,0.07 -0.01,0.02 -0.04,0.04 -0.06,0.05 -0.05,0.04 -0.09,0.06 -0.18,0.06 -0.03,0 -0.07,-0.01 -0.1,-0.01 -0.04,-0.01 -0.06,-0.03 -0.08,-0.04 -0.01,-0.01 -0.04,-0.04 -0.06,-0.06 -0.01,-0.02 -0.02,-0.04 -0.04,-0.07 -0.01,0 -0.03,0 -0.05,-0.01 -0.01,0 -0.01,-0.01 -0.02,-0.03 0,-0.02 -0.02,-0.06 -0.01,-0.08l0.05 -0.01c0,-0.02 -0.01,-0.03 -0.01,-0.05 0,-0.01 0.01,-0.04 0.01,-0.06 0.01,-0.02 0.02,-0.02 0.04,-0.03 0.02,-0.01 0.04,-0.01 0.06,0 0.05,0.03 0.11,0.08 0.21,0.08 0.07,0 0.14,-0.03 0.19,-0.07 0.03,-0.02 0.04,-0.03 0.07,-0.01 0.01,0.01 0.03,0.02 0.04,0.03 0.03,0.03 0.02,0.07 0.01,0.11zm-0.46 -0.41c-0.06,0.03 -0.12,0.07 -0.15,0.11 -0.03,0.04 -0.05,0.06 -0.06,0.12 -0.01,0.02 -0.01,0.05 -0.01,0.08 0,0.02 0.01,0.05 0.01,0.07 -0.02,0.01 -0.03,0.01 -0.04,0.03 -0.01,0.03 -0.01,0.05 0,0.07 0.03,0.13 0.08,0.07 0.11,0.12 0.01,0.02 0,0.02 0.03,0.04l0.03 0.04c0.02,0.01 0.03,0.02 0.05,0.03 0,0.02 0,0.08 0,0.09 0,0.01 -0.01,0.02 -0.02,0.02 -0.06,0 -0.18,0.02 -0.25,0.03 -0.04,0.01 -0.08,0.02 -0.11,0.03 -0.02,0.01 -0.03,0.01 -0.05,0.02 -0.04,0.03 -0.08,0.07 -0.09,0.11 -0.01,0.03 0,0.09 0,0.12 0,0.05 0,0.09 0,0.13 0.03,0 0.04,0 0.04,-0.01l0 -0.15c0,-0.06 0,-0.12 0.06,-0.16 0.02,-0.01 0.04,-0.02 0.07,-0.03 0.07,-0.02 0.14,-0.03 0.2,-0.04 0.03,0 0.07,-0.01 0.1,-0.01 0.01,0.03 0.01,0.05 0.03,0.07 0.02,0.04 0.07,0.07 0.12,0.08 0.02,0.01 0.06,0.02 0.08,0.02 0.11,0 0.24,-0.08 0.24,-0.17l0.25 0.04c0.09,0.01 0.17,0.06 0.18,0.14 0,0.07 0,0.14 0.01,0.22l0.04 0 0 -0.22c-0.02,-0.09 -0.07,-0.16 -0.24,-0.18 -0.08,-0.02 -0.17,-0.03 -0.25,-0.04 -0.03,-0.01 -0.04,-0.01 -0.04,-0.04 0,-0.02 0,-0.05 0,-0.08 0.02,-0.01 0.04,-0.02 0.05,-0.03 0.02,-0.02 0.06,-0.06 0.07,-0.09 0.08,0 0.08,-0.05 0.09,-0.09 0,-0.01 0.01,-0.02 0.01,-0.03 0,-0.01 0,-0.02 0,-0.03 -0.01,-0.03 -0.03,-0.04 -0.05,-0.04 0,-0.08 0.01,-0.12 -0.02,-0.19 -0.02,-0.06 -0.03,-0.08 -0.08,-0.12 -0.01,-0.02 -0.01,-0.01 -0.03,-0.02 -0.01,-0.02 -0.04,-0.03 -0.05,-0.04 -0.07,-0.03 -0.13,-0.04 -0.2,-0.04 -0.03,0 -0.08,0.01 -0.13,0.02zm-0.11 0.14c0.03,-0.04 0.07,-0.08 0.15,-0.11 0.02,-0.01 0.03,-0.01 0.07,-0.01 0.05,0 0.11,0 0.16,0.02 0.04,0.01 0.06,0.02 0.08,0.04 0.04,0.03 0.04,0.03 0.07,0.07 0.01,0.01 0.05,0.08 0.05,0.11 -0.02,-0.01 -0.05,-0.03 -0.07,-0.03 -0.02,-0.01 -0.03,-0.01 -0.05,0 -0.01,0.01 -0.02,0.01 -0.03,0.02 -0.11,0.07 -0.21,0.09 -0.33,0.01 -0.01,-0.01 -0.02,-0.02 -0.03,-0.03 -0.02,0 -0.02,-0.01 -0.05,-0.01 -0.04,0.01 -0.06,0.02 -0.08,0.03 0,-0.05 0.04,-0.1 0.06,-0.11zm0.26 0.85c0.01,0 0.02,0 0.02,0 0.01,0 0.02,0 0.03,0 0.08,-0.01 0.15,-0.08 0.15,-0.14 -0.03,-0.01 -0.05,-0.02 -0.05,-0.05l0 -0.08 0 0c0,0.01 -0.01,0.01 -0.01,0.01 -0.04,0.01 -0.09,0.03 -0.14,0.03 -0.04,0 -0.07,-0.01 -0.11,-0.02 -0.01,0 -0.02,-0.01 -0.03,-0.01 0,0.03 0,0.06 0,0.08 0,0.03 -0.02,0.03 -0.04,0.04 0,0.07 0.07,0.13 0.14,0.14 0.02,0 0.03,0 0.04,0z"/>
     </g>
     <path class="fil2 str2" d="M1.35 1.74l0 0.2 0.2 0 0 -0.15 0.04 0 0 0.15 0.87 -0.01 0 -0.14 0.05 0 0 0.14 0.17 0.01 0 -0.22c-0.01,-0.08 -0.07,-0.12 -0.16,-0.14l-0.27 -0.04c-0.02,0.1 -0.1,0.15 -0.24,0.17 -0.12,-0.01 -0.2,-0.06 -0.23,-0.17l-0.26 0.04c-0.11,0.02 -0.17,0.07 -0.17,0.16z"/>
    </g>
    <rect class="fil3 str3" x="0.96" y="2.04" width="2.18" height="1.34"/>
    <rect class="fil4 str4" x="1.5" y="2.12" width="1.1" height="0.85" rx="0.01" ry="0.01"/>
    <rect class="fil1 str3" x="1.32" y="2.6" width="0.44" height="0.73" rx="0.09" ry="0.07"/>
    <rect class="fil1 str3" x="2.35" y="2.59" width="0.44" height="0.74" rx="0.09" ry="0.07"/>
    <rect class="fil1 str5" x="1.73" y="2.86" width="0.64" height="0.12" rx="0.03" ry="0.02"/>
    <rect class="fil1 str5" x="1.67" y="3.14" width="0.78" height="0.19"/>
    <line class="fil4 str6" x1="1.72" y1="2.24" x2="2.39" y2= "2.24" />
    <line class="fil4 str6" x1="1.72" y1="2.38" x2="2.39" y2= "2.38" />
    <line class="fil4 str6" x1="1.72" y1="2.52" x2="2.39" y2= "2.52" />
   </g>
  </g>
 </g>
</svg>
