<?xml version="1.0" encoding="UTF-8"?>
<!DOCTYPE svg PUBLIC "-//W3C//DTD SVG 1.1//EN" "http://www.w3.org/Graphics/SVG/1.1/DTD/svg11.dtd">
<!-- Creator: CorelDRAW 2021 (64 Bit) -->
<svg xmlns="http://www.w3.org/2000/svg" xml:space="preserve" width="331px" height="331px" version="1.1" style="shape-rendering:geometricPrecision; text-rendering:geometricPrecision; image-rendering:optimizeQuality; fill-rule:evenodd; clip-rule:evenodd"
viewBox="0 0 3.68 3.68"
 xmlns:xlink="http://www.w3.org/1999/xlink"
 xmlns:xodm="http://www.corel.com/coreldraw/odm/2003">
 <defs>
  <style type="text/css">
   <![CDATA[
    .str8 {stroke:#F5A980;stroke-width:0.04;stroke-miterlimit:22.9256}
    .str7 {stroke:black;stroke-width:0.01;stroke-miterlimit:22.9256}
    .str1 {stroke:#0D999A;stroke-width:0.01;stroke-miterlimit:22.9256}
    .str13 {stroke:#DBDBDB;stroke-width:0.01;stroke-miterlimit:22.9256}
    .str5 {stroke:#F5A980;stroke-width:0.01;stroke-miterlimit:22.9256}
    .str2 {stroke:#FA0505;stroke-width:0.01;stroke-miterlimit:22.9256}
    .str3 {stroke:#030303;stroke-width:0.09;stroke-miterlimit:22.9256}
    .str15 {stroke:black;stroke-width:0.02;stroke-miterlimit:22.9256}
    .str4 {stroke:#030303;stroke-width:0.02;stroke-miterlimit:22.9256}
    .str11 {stroke:#F5A980;stroke-width:0.02;stroke-miterlimit:22.9256}
    .str0 {stroke:#A8A1A1;stroke-width:0.34;stroke-miterlimit:22.9256}
    .str16 {stroke:black;stroke-width:0.03;stroke-miterlimit:22.9256}
    .str12 {stroke:#F5A980;stroke-width:0.03;stroke-miterlimit:22.9256}
    .str9 {stroke:#DBDBDB;stroke-width:0.01;stroke-miterlimit:22.9256}
    .str14 {stroke:#F5A980;stroke-width:0.01;stroke-miterlimit:22.9256}
    .str10 {stroke:#E1E1E1;stroke-width:0.01;stroke-miterlimit:22.9256}
    .str6 {stroke:#454545;stroke-width:0.17;stroke-linecap:round;stroke-miterlimit:22.9256}
    .fil4 {fill:none}
    .fil7 {fill:black}
    .fil8 {fill:black}
    .fil5 {fill:#003399}
    .fil15 {fill:#020305}
    .fil13 {fill:#23A342}
    .fil3 {fill:#33CC99}
    .fil10 {fill:#666666}
    .fil17 {fill:gray}
    .fil14 {fill:#94A1A7}
    .fil9 {fill:#999999}
    .fil12 {fill:#CCCCCC}
    .fil2 {fill:#E6E6E6}
    .fil11 {fill:#F5A980}
    .fil6 {fill:#F5B796}
    .fil16 {fill:red}
    .fil0 {fill:white}
    .fil1 {fill:white}
    .fil18 {fill:white;fill-rule:nonzero}
   ]]>
  </style>
 </defs>
 <g id="Camada_x0020_1">
  <metadata id="CorelCorpID_0Corel-Layer"/>
  <path class="fil0 str0" d="M0.73 0.17l2.22 0c0.31,0 0.56,0.28 0.56,0.62l0 2.09c0,0.35 -0.25,0.63 -0.56,0.63l-2.22 0c-0.31,0 -0.56,-0.28 -0.56,-0.63l0 -2.09c0,-0.34 0.25,-0.62 0.56,-0.62z"/>
 </g>
 <g id="Camada_x0020_1_0">
  <metadata id="CorelCorpID_1Corel-Layer"/>
  <g id="_2072173828096">
   <polygon class="fil1 str1" points="2.25,2.1 2.05,2.44 1.92,2.23 2.19,1.97 "/>
   <polygon class="fil1 str2" points="1.57,2.12 1.79,2.44 1.91,2.24 1.61,1.96 "/>
   <path class="fil1 str2" d="M1.56 2.11l0.23 0.34 0.03 -0.06 0.04 0.04 -0.01 0.54c-0.28,0 -0.56,0 -0.83,0 -0.05,0 -0.07,-0.04 -0.07,-0.07 0,-0.08 0.02,-0.3 0.04,-0.5 0.01,-0.08 0.02,-0.09 0.09,-0.11 0.09,-0.02 0.46,-0.17 0.48,-0.18z"/>
   <path class="fil2 str2" d="M2.25 2.11l-0.2 0.34 -0.04 -0.06 -0.04 0.04 0.02 0.54c0.28,0 0.44,0 0.72,0 0.08,0 0.1,-0.01 0.1,-0.07 -0.01,-0.08 -0.02,-0.3 -0.04,-0.5 -0.01,-0.06 -0.01,-0.08 -0.07,-0.1 -0.09,-0.04 -0.42,-0.18 -0.45,-0.19z"/>
   <path class="fil3 str3" d="M2.74 2.97l-1.73 0c-0.04,0 -0.07,-0.02 -0.07,-0.08 0.02,-0.17 0.03,-0.34 0.04,-0.51 0.01,-0.04 0.03,-0.07 0.06,-0.08l0.53 -0.19 0.05 -0.15 0.29 0.28 0.27 -0.28 0.07 0.14 0.48 0.21c0.02,0.01 0.04,0.04 0.04,0.08 0.02,0.17 0.03,0.34 0.05,0.5 0,0.05 -0.03,0.08 -0.08,0.08z"/>
   <polyline class="fil4 str3" points="1.57,2.12 1.79,2.44 1.91,2.24 2.05,2.44 2.25,2.11 "/>
   <polygon class="fil5 str4" points="2.01,2.4 1.91,2.26 1.83,2.4 1.87,2.43 1.86,2.97 2.01,2.97 1.98,2.43 "/>
   <path class="fil6 str5" d="M1.68 2l0.23 0.21 0.22 -0.22 -0.01 -0.09c-0.05,0.05 -0.09,0.09 -0.14,0.14 -0.02,0.03 -0.1,0.03 -0.14,0l-0.16 -0.14 0 0.1z"/>
   <path class="fil6 str5" d="M2.33 1.36c-0.01,0 -0.02,0.02 -0.03,0.03l0.01 -0.04 -0.11 -0.08 0 -0.18 -0.16 0 -0.13 0.04 -0.14 -0.05 -0.16 0.01 -0.01 0.14 -0.08 0.11c-0.01,-0.01 -0.02,-0.03 -0.03,-0.04 0,-0.02 -0.02,-0.01 -0.03,-0.01 -0.01,0.01 -0.02,0.02 -0.02,0.04 -0.01,0.02 -0.01,0.05 0,0.07l0.02 0.09c0,0.02 0.01,0.02 0.03,0.02 0,0 0.01,0 0.02,-0.02 0.01,0.07 0.02,0.13 0.04,0.19 0.03,0.08 0.07,0.15 0.12,0.22 0.06,0.04 0.11,0.09 0.16,0.14 0.05,0.04 0.1,0.04 0.15,0 0.08,-0.07 0.15,-0.14 0.22,-0.21 0.02,-0.04 0.05,-0.08 0.06,-0.13 0.01,-0.05 0.03,-0.11 0.04,-0.16 0,0.01 0,0.01 0.01,0.01 0.01,0 0.03,0 0.04,-0.01 0.02,-0.05 0.03,-0.09 0.04,-0.14 0,-0.01 -0.01,-0.03 -0.02,-0.04 -0.01,0 -0.03,-0.01 -0.04,0z"/>
   <path class="fil7" d="M2.09 1.42c-0.03,0 -0.04,0.02 -0.03,0.04 0,0.02 0.02,0.04 0.04,0.04 0.05,-0.01 0.05,-0.1 -0.01,-0.08z"/>
   <path class="fil7" d="M1.73 1.42c-0.06,0.01 -0.04,0.09 0.01,0.08 0.02,-0.01 0.04,-0.03 0.03,-0.05 0,-0.03 -0.02,-0.04 -0.04,-0.03z"/>
   <line class="fil4 str6" x1="1.63" y1="1.31" x2="1.84" y2= "1.33" />
   <path class="fil8 str7" d="M1.61 1.26l-0.08 0.11c-0.03,-0.09 -0.01,-0.2 0.04,-0.35 0.06,-0.13 0.08,-0.17 0.17,-0.19 0.15,-0.02 0.14,-0.02 0.31,-0.01 0.07,0.02 0.14,0.08 0.19,0.2 0.04,0.11 0.1,0.21 0.08,0.35 -0.04,-0.03 -0.08,-0.05 -0.12,-0.08 -0.01,-0.06 -0.01,-0.12 0,-0.18 -0.06,0.02 -0.09,0.02 -0.15,0 -0.07,0.06 -0.18,0.06 -0.27,0 -0.05,0.01 -0.1,0.01 -0.16,0 0.01,0.05 0.01,0.1 -0.01,0.15z"/>
   <line class="fil4 str6" x1="2.17" y1="1.31" x2="1.96" y2= "1.33" />
   <path class="fil9" d="M2.08 1.41c-0.01,-0.02 0.03,-0.03 0.07,-0.03 0.03,0.01 0.05,0.02 0.06,0.04 0,0 0.01,0.01 0,0.01l-0.02 0.01c-0.03,-0.02 -0.06,-0.03 -0.11,-0.03z"/>
   <path class="fil9" d="M1.76 1.41c0.01,-0.02 -0.02,-0.03 -0.06,-0.03 -0.04,0.01 -0.06,0.02 -0.07,0.04 0,0 0,0.01 0,0.01l0.02 0.01c0.03,-0.02 0.07,-0.03 0.11,-0.03z"/>
   <path class="fil4 str8" d="M2 1.37l-0.03 0.03 -0.02 0.05 -0.01 0.1 0.02 0.05 0.03 0.06c0.01,0 0.01,0.01 0,0.01l-0.06 0.05c-0.01,0.01 -0.02,0 -0.04,0l-0.07 -0.05 0 -0.02 0.03 -0.06 0.01 -0.04 -0.02 -0.09 -0.02 -0.07 -0.04 -0.02"/>
   <g>
    <path class="fil10" d="M2.03 1.79l-0.24 -0.01c-0.01,0 -0.01,0.01 -0.01,0.01l0.06 0.05c0.02,0.01 0.04,0.02 0.07,0.02 0.02,0 0.05,-0.01 0.07,-0.02l0.06 -0.04c0,-0.01 -0.01,-0.01 -0.01,-0.01z"/>
    <g>
     <path class="fil1 str9" d="M1.82 1.77l0 0.03c0,0 0.01,0 0.02,0 0.01,0.01 0.01,0.01 0.02,0 0.01,0.01 0.01,0.01 0.02,0 0.01,0.01 0.02,0.01 0.03,0 0.01,0.01 0.02,0.01 0.03,0 0.01,0.01 0.02,0.01 0.02,0 0.01,0.01 0.02,0.01 0.03,0l0 0c0.01,0 0.01,0 0.02,-0.01l0 -0.02c-0.06,0.01 -0.13,0.01 -0.19,0z"/>
     <line class="fil4 str10" x1="1.94" y1="1.78" x2="1.94" y2= "1.8" />
     <line class="fil4 str10" x1="1.96" y1="1.78" x2="1.96" y2= "1.8" />
     <line class="fil4 str10" x1="1.99" y1="1.78" x2="1.99" y2= "1.8" />
     <line class="fil4 str10" x1="1.84" y1="1.78" x2="1.84" y2= "1.8" />
     <line class="fil4 str10" x1="1.86" y1="1.78" x2="1.86" y2= "1.81" />
     <line class="fil4 str10" x1="1.88" y1="1.78" x2="1.88" y2= "1.8" />
     <line class="fil4 str10" x1="1.91" y1="1.78" x2="1.91" y2= "1.8" />
     <path class="fil4 str11" d="M1.84 1.86l-0.07 -0.07c-0.01,-0.02 0.01,-0.02 0.02,-0.02 0.09,0.01 0.15,0.01 0.24,0 0.03,0 0.03,0.01 0.02,0.03l-0.06 0.06c-0.05,0.03 -0.1,0.04 -0.15,0z"/>
    </g>
   </g>
   <polyline class="fil4 str5" points="1.8,1.96 1.85,1.94 1.91,1.92 1.97,1.93 2.03,1.96 "/>
   <path class="fil4 str12" d="M1.48 1.46c-0.01,-0.03 -0.02,-0.07 -0.02,-0.12 0.01,-0.04 0.02,-0.02 0.03,0 0.01,0.03 0.01,0.05 0,0.07"/>
   <path class="fil4 str12" d="M2.32 1.4c0,-0.02 0.01,-0.03 0.03,-0.03 0.02,-0.01 0.03,0.01 0.03,0.03 -0.01,0.06 -0.03,0.08 -0.05,0.09"/>
   <path class="fil4 str11" d="M2.01 1.46c0.01,0.01 0.02,0.02 0.03,0.02 0.03,0.02 0.05,0.05 0.13,-0.01 0.02,-0.02 0.03,0 0.05,-0.01"/>
   <path class="fil4 str11" d="M1.81 1.46c0,0.01 -0.02,0.02 -0.03,0.02 -0.03,0.02 -0.04,0.05 -0.11,-0.01 -0.02,-0.02 -0.03,0 -0.05,-0.01"/>
   <path class="fil4 str11" d="M1.62 1.46c0.01,0 0.03,0 0.03,-0.01 0.06,-0.05 0.1,-0.05 0.14,-0.02 0,0.01 0.02,0.02 0.03,0.02"/>
   <path class="fil4 str11" d="M2.22 1.46c-0.01,0 -0.02,0 -0.03,-0.01 -0.07,-0.05 -0.11,-0.05 -0.15,-0.02 -0.01,0.01 -0.02,0.02 -0.03,0.02"/>
   <path class="fil11 str5" d="M2.04 1.8c-0.11,0.08 -0.19,0.06 -0.27,-0.02 0.07,0.12 0.18,0.14 0.27,0.02z"/>
   <path class="fil12 str5" d="M1.82 1.78c0,-0.01 -0.04,-0.01 -0.05,0 0,0 0,0 0.01,0 0.01,0.02 0.03,0.04 0.05,0.05l-0.01 -0.05z"/>
   <path class="fil12 str5" d="M2.01 1.78c0,-0.01 0.04,-0.01 0.04,0 0.01,0.01 -0.02,0.03 -0.05,0.04l0.01 -0.04z"/>
   <path class="fil1" d="M1.88 1.85c-0.01,0 -0.03,-0.01 -0.04,-0.02 0.02,0 0.01,0 0.02,0 0.02,-0.01 0.02,0 0.02,0 0.02,-0.01 0.03,0 0.03,0.01 0.01,0 -0.01,-0.02 0.03,-0.01 0.01,0.01 0,0 0.02,0 0.02,0.01 0,0 0.03,0 -0.02,0.01 -0.03,0.02 -0.05,0.02 -0.02,0 -0.04,0 -0.06,0z"/>
   <path class="fil4 str13" d="M1.84 1.83c0.01,0 0.01,0 0.02,0 0,0 0.01,0 0.02,0 0.01,0 0.02,0 0.03,0.01 0.01,-0.01 0.02,-0.01 0.03,-0.01 0.01,0 0.01,0 0.02,0 0.01,0 0.02,0 0.03,0"/>
   <line class="fil4 str9" x1="1.86" y1="1.83" x2="1.86" y2= "1.84" />
   <line class="fil4 str9" x1="1.88" y1="1.83" x2="1.88" y2= "1.85" />
   <line class="fil4 str9" x1="1.91" y1="1.83" x2="1.91" y2= "1.85" />
   <line class="fil4 str9" x1="1.94" y1="1.83" x2="1.94" y2= "1.85" />
   <line class="fil4 str9" x1="1.96" y1="1.83" x2="1.97" y2= "1.84" />
   <path class="fil11 str14" d="M1.89 1.75c0,-0.01 -0.01,-0.01 -0.02,0 -0.03,0.01 -0.05,0.01 -0.08,0.02 -0.02,0 -0.03,0.01 -0.01,0.01 0.01,0 0.03,0 0.05,0 0.05,0.01 0.12,0.02 0.18,0 0.01,-0.01 0.03,0 0.04,0 0.01,0 0,-0.01 0,-0.01 -0.04,-0.01 -0.08,-0.01 -0.1,-0.02 -0.01,0 -0.01,-0.01 -0.02,0 -0.01,0 -0.02,0 -0.04,0z"/>
   <g>
    <path class="fil13 str15" d="M2.13 1.33c0.09,-0.01 0.19,-0.06 0.2,-0.11 0.03,-0.09 0.06,-0.16 0.15,-0.23 0.01,0 0.01,-0.01 0,-0.01 -0.02,0.01 -0.1,0.03 -0.17,0.04 -0.02,0 -0.04,0 -0.04,-0.01 -0.02,-0.05 -0.03,-0.12 -0.06,-0.29 0,-0.02 -0.01,-0.03 -0.02,-0.02 -0.01,0.02 -0.01,0.02 -0.02,0.03 -0.07,0.08 -0.15,0.06 -0.27,0.02 -0.09,0.04 -0.2,0.07 -0.27,-0.02 -0.01,-0.01 -0.01,-0.01 -0.02,-0.03 -0.01,-0.01 -0.01,0.01 -0.02,0.02 -0.03,0.17 -0.04,0.24 -0.05,0.29 -0.01,0.01 -0.03,0.02 -0.05,0.01 -0.07,-0.01 -0.15,-0.03 -0.17,-0.04 -0.01,0 0,0.01 0,0.01 0.05,0.03 0.13,0.13 0.16,0.23 0.06,0.18 0.5,0.12 0.65,0.11z"/>
    <path class="fil4 str16" d="M1.51 1.02c0.26,0.22 0.51,0.22 0.76,0"/>
    <g>
     <path class="fil14" d="M1.85 1.1c0.02,-0.01 0.01,0 0.02,0 0,0 0,0 0.01,-0.01 -0.01,0 -0.02,0 -0.02,0 -0.01,0 -0.01,-0.01 -0.02,-0.01 -0.01,0 -0.03,0 -0.04,-0.01 -0.02,-0.01 -0.04,-0.03 -0.03,-0.06 0,-0.03 0.04,-0.06 0.03,-0.12 0,-0.01 -0.01,-0.01 -0.01,-0.02 -0.01,-0.02 -0.01,-0.01 0,-0.03 0.03,-0.02 0.02,-0.02 0.04,-0.01 0.02,0 0.04,0 0.06,-0.01 0.02,-0.01 0,-0.01 0.03,0 0,0 0.01,0 0.01,0.01 0.01,0 0.03,0 0.04,-0.01 0.02,0 0.01,0 0.03,0.01 0.02,0.03 0.02,0.02 0.01,0.04 -0.03,0.07 0.02,0.11 0.02,0.14 0.01,0.02 0,0.05 -0.03,0.06 -0.01,0.01 -0.03,0.01 -0.04,0.01 -0.02,0.01 -0.02,0.01 -0.04,0.02 0.01,0 0.01,0 0.02,0 0,0 0.01,0 0.01,0 0.02,0 0.06,-0.01 0.08,-0.03 0.01,-0.01 0.03,-0.04 0.02,-0.07 -0.01,-0.02 -0.02,-0.03 -0.02,-0.04 -0.02,-0.02 -0.02,-0.05 -0.01,-0.08 0.01,-0.02 0.02,-0.02 0.02,-0.03 -0.01,-0.01 -0.02,-0.02 -0.03,-0.02l-0.02 -0.03c-0.04,0.02 -0.06,0.02 -0.09,-0.01 -0.03,0.02 -0.06,0.03 -0.09,0.01l-0.02 0.03c-0.01,0 -0.01,0.01 -0.02,0.01 0,0 0,0.01 -0.01,0.01 0.03,0.03 0.03,0.08 0.01,0.12 -0.01,0.02 -0.03,0.04 -0.02,0.07 0.01,0.03 0.03,0.04 0.06,0.05 0.01,0 0.03,0.01 0.04,0.01z"/>
     <path class="fil15" d="M1.93 1.12c0,-0.01 0,-0.01 0,-0.01l0 0.01c0,0 0,-0.01 0,0 0,0 0,0 0.01,-0.01l-0.01 0.01 0.01 0c0,0 0,0 0,-0.01 0,0 0,0 0,0l0 0c0.01,0 0,0 0.01,0l0.01 0c0.01,0 0.04,-0.01 0.05,-0.02 0.03,-0.01 0.05,-0.05 0.05,-0.08 -0.01,-0.04 -0.04,-0.05 -0.04,-0.1 0.01,-0.02 0.01,-0.04 0.02,-0.05 0.02,-0.02 0.02,-0.01 -0.01,-0.03 -0.01,-0.01 -0.03,-0.03 -0.04,-0.04 -0.01,0 -0.03,0.03 -0.07,0 -0.01,0 -0.01,-0.01 -0.02,-0.01 0,0 -0.02,0.02 -0.04,0.02 -0.03,0 -0.04,-0.01 -0.05,-0.01 -0.01,0 -0.01,0 -0.01,0.01 -0.02,0.02 -0.02,0.02 -0.04,0.03 0,0.01 0,0.01 0,0.01 -0.02,0.01 -0.01,0.01 -0.01,0.02 0.02,0.01 0.03,0.04 0.02,0.07 0,0.03 -0.02,0.04 -0.03,0.07 -0.01,0.04 0.02,0.08 0.06,0.1 0.01,0 0.03,0.01 0.04,0.01l0.02 0c0,0 0,0 0,0l0 0c0,0 0,0 0,0 0,0 0,0 0.01,0l0 0c0,0 0,0 0,0 0,0 0,0 0,0 -0.01,0 -0.01,0 -0.01,0l0.01 0c-0.01,-0.01 -0.02,-0.01 -0.02,-0.01 -0.01,0 -0.03,-0.01 -0.04,-0.01 -0.03,-0.01 -0.05,-0.02 -0.06,-0.05 -0.01,-0.03 0.01,-0.05 0.02,-0.07 0.02,-0.04 0.02,-0.09 -0.01,-0.12 0.01,0 0.01,-0.01 0.01,-0.01 0.01,0 0.01,-0.01 0.02,-0.01l0.02 -0.03c0.03,0.02 0.06,0.01 0.09,-0.01 0.03,0.03 0.05,0.03 0.09,0.01l0.02 0.03c0.01,0 0.02,0.01 0.03,0.02 0,0.01 -0.01,0.01 -0.02,0.03 -0.01,0.03 -0.01,0.06 0.01,0.08 0,0.01 0.01,0.02 0.02,0.04 0.01,0.03 -0.01,0.06 -0.02,0.07 -0.02,0.02 -0.06,0.03 -0.08,0.03 0,0 -0.01,0.01 -0.02,0.01 0,0 -0.01,0 -0.01,0.01l0 0c0,0 0,0 0,0l0 0c0,0 0,0 0,0 0,0 0,0 0,0 0,0 0,0 0,0l0 0c0,0 0,0 0,0 0,0 0,0 0,0 -0.01,0 -0.01,0 -0.01,0 0,0 0,0 0,0 0,0 0,0 0,0 0,0.01 0,0 0,0.01 -0.01,0 -0.01,0 -0.01,0 0,0 -0.01,-0.01 -0.01,-0.01 0,0 0,0 0,0l0 0 -0.01 0 0 0c0,0 0,0 0,0l0 0 -0.01 -0.01 0 0 0 0 0 0 0 0c0,0.01 0,0.01 0,0.01 0.01,0 0.01,0 0.01,0.01 0,0 0.01,0 0.01,0 0,0.01 0,0.01 0,0.01 0.01,0.01 0.01,0.01 0.01,0.01 0.01,-0.01 0.01,-0.01 0.01,-0.01l0 -0.01c0.01,0 0.01,-0.01 0.02,-0.01zm0.01 0l0 0 0 0z"/>
     <path class="fil15" d="M1.82 0.83c0.02,0.01 0.02,0.01 0.04,0.01 0.01,0 0.02,-0.01 0.02,-0.01 0.03,-0.01 0.01,-0.01 0.04,0 0.03,0.01 0.04,0.01 0.06,0 0.01,0.01 0.02,0.02 0.02,0.03 0,0 0,0.01 0,0.01 -0.01,0.01 -0.01,0.02 -0.01,0.02 -0.01,0.07 0.03,0.1 0.03,0.12 0.01,0.06 -0.06,0.06 -0.1,0.08 -0.01,0 -0.02,0 -0.02,0.01 -0.01,-0.01 -0.01,-0.01 -0.02,-0.01 -0.04,-0.02 -0.11,-0.02 -0.1,-0.08 0,-0.01 0.01,-0.02 0.01,-0.03 0.02,-0.03 0.02,-0.06 0.02,-0.09 -0.01,-0.02 -0.01,-0.03 -0.01,-0.03 0,-0.01 0.01,-0.02 0.02,-0.03zm0.06 0.26c0,0.01 0,0.01 0.01,0.01 0.01,0.01 0.01,0.01 0.02,0 0,0 0,0 0.01,0 0,0 0,0 0,0 0,0 0,0 0,0 0.02,-0.01 0.02,-0.01 0.04,-0.02 0.01,0 0.03,0 0.04,-0.01 0.03,-0.01 0.04,-0.04 0.03,-0.06 0,-0.03 -0.05,-0.07 -0.02,-0.14 0.01,-0.02 0.01,-0.01 -0.01,-0.04 -0.02,-0.01 -0.01,-0.01 -0.03,-0.01 -0.01,0.01 -0.03,0.01 -0.04,0.01 0,-0.01 -0.01,-0.01 -0.01,-0.01 -0.03,-0.01 -0.01,-0.01 -0.03,0 -0.02,0.01 -0.04,0.01 -0.06,0.01 -0.02,-0.01 -0.01,-0.01 -0.04,0.01 -0.01,0.02 -0.01,0.01 0,0.03 0,0.01 0.01,0.01 0.01,0.02 0.01,0.06 -0.03,0.09 -0.03,0.12 -0.01,0.03 0.01,0.05 0.03,0.06 0.01,0.01 0.03,0.01 0.04,0.01 0.01,0 0.01,0.01 0.02,0.01 0,0 0.01,0 0.02,0z"/>
     <g>
      <path class="fil1" d="M1.88 0.92c0,-0.01 0,-0.02 0.01,-0.02 0,-0.01 0,-0.02 0.01,-0.02 0.01,0 0.01,0.01 0.01,0.02 0.01,0 0.01,0.01 0.01,0.02 0.01,0 0.02,0 0.03,0 0.02,0 0.02,0.02 0.01,0.02 0,0.01 0,0.01 0,0.01 -0.01,0 -0.02,0.01 -0.02,0.01 0,0.02 0.02,0.04 0,0.05 -0.01,0.01 -0.02,-0.01 -0.04,-0.02 -0.01,0 -0.01,0.01 -0.02,0.01 0,0.01 -0.01,0.02 -0.02,0.01 -0.02,-0.01 0,-0.03 0,-0.05l-0.02 -0.02c-0.01,0 -0.01,0 -0.01,-0.01 0,-0.02 0.03,-0.01 0.05,-0.01zm-0.06 -0.09c-0.01,0.01 -0.02,0.02 -0.02,0.03 0,0 0,0.01 0.01,0.03 0,0.03 0,0.06 -0.02,0.09 0,0.01 -0.01,0.02 -0.01,0.03 -0.01,0.06 0.06,0.06 0.1,0.08 0.01,0 0.01,0 0.02,0.01 0,-0.01 0.01,-0.01 0.02,-0.01 0.04,-0.02 0.11,-0.02 0.1,-0.08 0,-0.02 -0.04,-0.05 -0.03,-0.12 0,0 0,-0.01 0.01,-0.02 0,0 0,-0.01 0,-0.01 0,-0.01 -0.01,-0.02 -0.02,-0.03 -0.02,0.01 -0.03,0.01 -0.06,0 -0.03,-0.01 -0.01,-0.01 -0.04,0 0,0 -0.01,0.01 -0.02,0.01 -0.02,0 -0.02,0 -0.04,-0.01z"/>
      <path class="fil16" d="M1.84 0.93c0,0.01 0,0 0.01,0.01 0,0 0.02,0.02 0.02,0.02 0.01,0.01 -0.02,0.06 0,0.04 0.01,-0.01 0.03,-0.02 0.03,-0.02 0.01,0 0.03,0.02 0.04,0.02 0,0 0,-0.01 -0.01,-0.01 -0.01,-0.04 -0.01,-0.03 0.02,-0.05 0.01,-0.01 0.01,0 0.01,-0.01l-0.04 0c-0.01,0 -0.01,-0.01 -0.01,-0.02 0,0 -0.01,-0.02 -0.01,-0.02 0,0 0,0 0,0 0,0 0,0.01 0,0.01 -0.01,0 -0.01,0 -0.01,0.01 -0.01,0.02 0,0.02 -0.02,0.02 -0.01,0 -0.02,0 -0.03,0z"/>
      <path class="fil15" d="M1.84 0.93c0.01,0 0.02,0 0.03,0 0.02,0 0.01,0 0.02,-0.02 0,-0.01 0,-0.01 0.01,-0.01 0,0 0,-0.01 0,-0.01 0,0 0,0 0,0 0,0 0.01,0.02 0.01,0.02 0,0.01 0,0.02 0.01,0.02l0.04 0c0,0.01 0,0 -0.01,0.01 -0.03,0.02 -0.03,0.01 -0.01,0.05 0,0.01 0,0.01 0,0.01 -0.01,0 -0.03,-0.02 -0.04,-0.02 0,0 -0.02,0.01 -0.03,0.02 -0.02,0.02 0.01,-0.03 0,-0.04 0,0 -0.02,-0.02 -0.02,-0.02 -0.01,-0.01 -0.01,0 -0.01,-0.01zm0.04 -0.01c-0.02,0 -0.05,-0.01 -0.05,0.01 0,0.01 0,0.01 0.01,0.01l0.02 0.02c0,0.02 -0.02,0.04 0,0.05 0.01,0.01 0.02,0 0.02,-0.01 0.01,0 0.01,-0.01 0.02,-0.01 0.02,0.01 0.03,0.03 0.04,0.02 0.02,-0.01 0,-0.03 0,-0.05 0,0 0.01,-0.01 0.02,-0.01 0,0 0,0 0,-0.01 0.01,0 0.01,-0.02 -0.01,-0.02 -0.01,0 -0.02,0 -0.03,0 0,-0.01 0,-0.02 -0.01,-0.02 0,-0.01 0,-0.02 -0.01,-0.02 -0.01,0 -0.01,0.01 -0.01,0.02 -0.01,0 -0.01,0.01 -0.01,0.02z"/>
     </g>
     <rect class="fil17 str15" x="1.79" y="1.1" width="0.24" height="0.04" rx="0.06" ry="0.04"/>
     <path class="fil18" d="M1.82 1.13l-0.01 0 0.01 -0.03 0.02 0 0.01 0.03 -0.01 0 0 -0.01 -0.01 0 -0.01 0.01zm0.01 -0.01l0 0 0 -0.01 0 0.01z"/>
     <path id="_1" class="fil18" d="M1.86 1.1l0.01 0c0.01,0 0.01,0 0.02,0.01 0,0 0,0 0,0.01 0,0 0,0 0,0 0,0 -0.01,0.01 -0.01,0.01 0,0 0,0 -0.01,0l-0.01 0 0 -0.03zm0.01 0.01l0 0.01 0 0c0,0 0,0 0,0 0.01,0 0.01,0 0.01,0 0,-0.01 -0.01,-0.01 -0.01,-0.01l0 0z"/>
     <polygon id="_2" class="fil18" points="1.89,1.13 1.89,1.1 1.91,1.1 1.91,1.11 1.92,1.1 1.94,1.1 1.94,1.13 1.92,1.13 1.92,1.12 1.91,1.12 1.91,1.12 1.91,1.13 "/>
     <polygon id="_3" class="fil18" points="1.94,1.13 1.94,1.1 1.96,1.1 1.96,1.13 "/>
     <polygon id="_4" class="fil18" points="1.96,1.13 1.96,1.1 1.98,1.1 1.98,1.11 1.99,1.1 2,1.1 2,1.13 1.99,1.13 1.99,1.12 1.98,1.12 1.98,1.12 1.98,1.13 "/>
    </g>
   </g>
  </g>
 </g>
</svg>
