<?xml version="1.0" encoding="UTF-8"?>
<!DOCTYPE svg PUBLIC "-//W3C//DTD SVG 1.1//EN" "http://www.w3.org/Graphics/SVG/1.1/DTD/svg11.dtd">
<!-- Creator: CorelDRAW 2021 (64 Bit) -->
<svg xmlns="http://www.w3.org/2000/svg" xml:space="preserve" width="400px" height="400px" version="1.1" style="shape-rendering:geometricPrecision; text-rendering:geometricPrecision; image-rendering:optimizeQuality; fill-rule:evenodd; clip-rule:evenodd"
viewBox="0 0 18.83 18.83"
 xmlns:xlink="http://www.w3.org/1999/xlink"
 xmlns:xodm="http://www.corel.com/coreldraw/odm/2003">
 <defs>
  <style type="text/css">
   <![CDATA[
    .str0 {stroke:#B8B4B6;stroke-width:1.41;stroke-miterlimit:22.9256}
    .fil1 {fill:black}
    .fil8 {fill:#333333}
    .fil7 {fill:#344E82}
    .fil6 {fill:#525355}
    .fil3 {fill:#6598FE}
    .fil5 {fill:#717275}
    .fil9 {fill:#B8B4B6}
    .fil2 {fill:#D2D3D5}
    .fil4 {fill:#FDFDFD}
    .fil0 {fill:white}
   ]]>
  </style>
 </defs>
 <g id="Camada_x0020_1">
  <metadata id="CorelCorpID_0Corel-Layer"/>
  <g id="_2069760720992">
   <path class="fil0 str0" d="M1.49 0.71l15.87 0c0.42,0 0.76,0.39 0.76,0.87l0 15.67c0,0.48 -0.34,0.87 -0.76,0.87l-15.87 0c-0.42,0 -0.77,-0.39 -0.77,-0.87 0,-1.88 -0.02,-15.18 -0.01,-15.86 0.01,-0.38 0.46,-0.68 0.78,-0.68z"/>
   <g>
    <g>
     <path class="fil1" d="M11.26 8.99c-0.16,-0.86 1.08,-1.02 1.19,-0.24 0.06,0.38 -0.19,0.67 -0.49,0.72 -0.36,0.06 -0.64,-0.19 -0.7,-0.48zm-5.5 0c-0.16,-0.85 1.07,-1.03 1.19,-0.24 0.13,0.82 -1.04,1.01 -1.19,0.24zm6.32 -0.97c0.47,-0.01 0.41,-0.04 0.62,0.29 0.29,0.44 0.16,0.98 -0.21,1.32 -0.76,0.69 -2.14,-0.25 -1.47,-1.35 0.17,-0.27 0.23,-0.3 0.64,-0.25 -0.14,-0.02 -0.69,0.32 -0.64,0.91 0.09,0.99 1.5,1.05 1.66,0.06 0.04,-0.24 -0.03,-0.48 -0.14,-0.64 -0.14,-0.21 -0.25,-0.22 -0.46,-0.34zm-5.5 0l0.4 -0.01c0.11,0.18 0.23,0.24 0.33,0.52 0.23,0.62 -0.37,1.51 -1.16,1.31 -0.68,-0.17 -1.06,-0.89 -0.61,-1.59 0.15,-0.24 0.21,-0.27 0.62,-0.22 -0.15,-0.02 -0.69,0.32 -0.64,0.91 0.04,0.42 0.38,0.77 0.81,0.78 0.79,0.02 1.21,-1.01 0.51,-1.56 -0.09,-0.07 -0.17,-0.09 -0.26,-0.14zm-2.09 -1.19l0.02 -0.44c0.09,-0.05 0.65,-0.02 0.75,-0.02 0.27,0 0.53,0 0.79,0 0.25,0 1.43,-0.02 1.56,0.03l3.13 -0.01 0 -1.06 0.03 -1.21c0.03,-0.04 -0.03,-0.01 0.04,-0.03 0.02,-0.01 0.93,0.01 0.94,0.03l0.49 0c0.25,0.48 0.53,0.99 0.78,1.49 0.22,0.43 0.25,0.32 0.24,0.91 0,0.19 0.02,0.97 -0.03,1.09l-8.06 0.07c-0.31,0 -0.25,-0.01 -0.39,-0.19l-0.29 -0.3 0 -0.36zm-0.06 -4.38c1.34,0 2.69,0.01 4.04,0.01 0.34,0 0.68,0 1.02,0 0.29,0 0.24,-0.04 0.24,0.25l0.01 2.57 -5.34 0 0.03 -2.83zm5.77 1.47c0.11,0.06 0.1,0.04 0.1,0.19l-0.02 1.81 -5.76 -0.02 0 -0.14 5.69 -0.01 -0.01 -1.73 0 -0.1zm-4.73 5.63c0.04,0.04 0.05,0.05 0.09,0.09 0.03,0.03 0.05,0.04 0.09,0.08 0.44,0.36 1.13,0.35 1.48,-0.06 0.14,-0.18 0.31,-0.4 0.35,-0.72 0.04,-0.4 -0.13,-0.55 -0.24,-0.8l3.75 -0.02c-0.24,0.35 -0.39,0.79 -0.13,1.26 0.16,0.29 0.54,0.61 1.02,0.61 0.72,0 1.22,-0.79 1.08,-1.37 -0.07,-0.3 -0.18,-0.37 -0.26,-0.53l1.01 -0.01c0,-0.32 0.04,-1.89 0.01,-2.07 -0.03,-0.2 -0.55,-1.1 -0.69,-1.38 -0.55,-1.11 -0.46,-0.98 -1.1,-0.99 -0.34,0 -0.68,-0.01 -1.03,-0.01 -0.22,-0.01 -0.25,0.02 -0.4,-0.1 -0.09,-0.07 -0.21,-0.14 -0.29,-0.21 -0.07,-0.09 -0.04,-0.55 -0.04,-0.65 0,-0.19 -0.03,-0.49 0.01,-0.67l-4.19 -0.02 -2.02 0 -0.04 3.78c0.12,0 0.09,-0.03 0.13,0.04 0,0.32 -0.01,0.64 -0.02,0.95 -0.01,0.43 -0.07,0.51 0.15,0.79 0.56,0.68 0.54,0.61 1.27,0.61 -0.12,0.23 -0.23,0.39 -0.23,0.72 0,0.36 0.12,0.47 0.24,0.68z"/>
     <path class="fil2" d="M4.4 5.28l5.34 0 -0.01 -2.57c0,-0.29 0.05,-0.25 -0.24,-0.25 -0.34,0 -0.68,0 -1.02,0 -1.35,0 -2.7,-0.01 -4.04,-0.01l-0.03 2.83z"/>
     <path class="fil3" d="M10.87 5.67l0.01 -1.17 0.01 -0.26c0.14,-0.03 0.44,-0.03 0.56,0.02 0.16,-0.04 0.63,0 0.82,0 0.15,0.3 0.86,1.76 0.93,1.95l-1.92 -0.03 -0.43 -0.01c-0.03,-0.07 -0.02,-0.44 0.02,-0.5zm-0.13 -0.34l0 1.06 -3.13 0.01 -3.1 -0.01c0.02,0.08 0.02,0.39 -0.02,0.44l0 0.36 0.29 0.3c0.14,0.18 0.08,0.19 0.39,0.19l8.06 -0.07c0.05,-0.12 0.03,-0.9 0.03,-1.09 0.01,-0.59 -0.02,-0.48 -0.24,-0.91 -0.25,-0.5 -0.53,-1.01 -0.78,-1.49l-0.49 0 -0.98 0c0.03,0.13 0.01,1.11 -0.03,1.21z"/>
     <path class="fil4" d="M11.05 5.78l-0.01 0.19c0.09,0 0.2,0 0.26,0.03l1.6 0.02 -0.74 -1.57 -1.08 -0.02 -0.03 1.35z"/>
     <path class="fil1" d="M11.05 5.78l0.03 -1.35 1.08 0.02 0.74 1.57 -1.6 -0.02 -0.27 -0.02c-0.01,-0.08 -0.01,-0.14 0.02,-0.2zm-0.17 -1.28l-0.01 1.17 -0.02 0.48c0.13,0 0.33,-0.01 0.43,0.03l1.92 0.03c-0.07,-0.19 -0.78,-1.65 -0.93,-1.95 -0.19,0 -0.66,-0.04 -0.82,0 -0.17,0.03 -0.35,-0.01 -0.53,-0.02l-0.04 0.26z"/>
     <path class="fil4" d="M10.2 4.02l0.01 1.73 -5.69 0.01 0 0.14 5.76 0.02 0.02 -1.81c0,-0.15 0.01,-0.13 -0.1,-0.19l0 0.1z"/>
     <path class="fil4" d="M6.1 8.94c-0.09,-0.36 0.41,-0.48 0.5,-0.16 0.11,0.36 -0.41,0.48 -0.5,0.16zm-0.34 0.05c0.15,0.77 1.32,0.58 1.19,-0.24 -0.12,-0.79 -1.35,-0.61 -1.19,0.24z"/>
     <path class="fil4" d="M11.8 8.6c0.31,-0.09 0.45,0.42 0.14,0.52 -0.34,0.1 -0.5,-0.41 -0.14,-0.52zm-0.54 0.39c0.06,0.29 0.34,0.54 0.7,0.48 0.3,-0.05 0.55,-0.34 0.49,-0.72 -0.11,-0.78 -1.35,-0.62 -1.19,0.24z"/>
     <path class="fil5" d="M6.58 8.02c0.09,0.05 0.17,0.07 0.26,0.14 0.7,0.55 0.28,1.58 -0.51,1.56 -0.43,-0.01 -0.77,-0.36 -0.81,-0.78 -0.05,-0.59 0.49,-0.93 0.64,-0.91 -0.41,-0.05 -0.47,-0.02 -0.62,0.22 -0.45,0.7 -0.07,1.42 0.61,1.59 0.79,0.2 1.39,-0.69 1.16,-1.31 -0.1,-0.28 -0.22,-0.34 -0.33,-0.52l-0.4 0.01z"/>
     <path class="fil5" d="M12.08 8.02c0.21,0.12 0.32,0.13 0.46,0.34 0.11,0.16 0.18,0.4 0.14,0.64 -0.16,0.99 -1.57,0.93 -1.66,-0.06 -0.05,-0.59 0.5,-0.93 0.64,-0.91 -0.41,-0.05 -0.47,-0.02 -0.64,0.25 -0.67,1.1 0.71,2.04 1.47,1.35 0.37,-0.34 0.5,-0.88 0.21,-1.32 -0.21,-0.33 -0.15,-0.3 -0.62,-0.29z"/>
     <path class="fil1" d="M6.1 8.94c0.09,0.32 0.61,0.2 0.5,-0.16 -0.09,-0.32 -0.59,-0.2 -0.5,0.16z"/>
     <path class="fil1" d="M11.8 8.6c-0.36,0.11 -0.2,0.62 0.14,0.52 0.31,-0.1 0.17,-0.61 -0.14,-0.52z"/>
     <path class="fil6" d="M10.18 2c-0.04,0.18 -0.01,0.48 -0.01,0.67 0,0.1 -0.03,0.56 0.04,0.65l-0.01 -1.22c0,-0.02 0,-0.04 0,-0.05 -0.01,-0.04 -0.01,-0.03 -0.02,-0.05 -0.03,-0.04 -0.97,-0.02 -1.02,-0.02 -0.35,0 -0.71,0 -1.06,0 -0.43,-0.01 -1.8,-0.03 -2.11,0l4.19 0.02z"/>
     <path class="fil7" d="M4.49 6.83c0.04,-0.05 0.04,-0.36 0.02,-0.44l3.1 0.01c-0.13,-0.05 -1.31,-0.03 -1.56,-0.03 -0.26,0 -0.52,0 -0.79,0 -0.1,0 -0.66,-0.03 -0.75,0.02l-0.02 0.44z"/>
     <path class="fil7" d="M10.74 5.33c0.04,-0.1 0.06,-1.08 0.03,-1.21l0.98 0c-0.01,-0.02 -0.92,-0.04 -0.94,-0.03 -0.07,0.02 -0.01,-0.01 -0.04,0.03l-0.03 1.21z"/>
     <path class="fil8" d="M10.88 4.5l0.04 -0.26c0.18,0.01 0.36,0.05 0.53,0.02 -0.12,-0.05 -0.42,-0.05 -0.56,-0.02l-0.01 0.26z"/>
     <path class="fil7" d="M11.28 6.18c-0.1,-0.04 -0.3,-0.03 -0.43,-0.03l0.02 -0.48c-0.04,0.06 -0.05,0.43 -0.02,0.5l0.43 0.01z"/>
     <path class="fil5" d="M11.3 6c-0.06,-0.03 -0.17,-0.03 -0.26,-0.03l0.01 -0.19c-0.03,0.06 -0.03,0.12 -0.02,0.2l0.27 0.02z"/>
    </g>
    <g>
     <g>
      <path class="fil9" d="M3.32 11.25c0,0 0.01,-0.01 0.02,-0.01l0.17 -0.01c0.29,0 1.44,-0.03 1.54,0.02l0 4.7c-0.14,0.03 -1.6,0.03 -1.72,0l-0.01 -4.7zm2.29 -0.46c-0.03,-0.04 -0.05,-0.04 -0.09,-0.08 -0.04,-0.03 -0.04,-0.05 -0.08,-0.08 -0.04,0.03 -0.01,0.02 -0.07,0 -0.05,-0.02 -0.08,-0.06 -0.22,-0.08 -0.18,-0.03 -1.83,-0.02 -1.94,0 -0.75,0.13 -0.57,1.16 -0.57,1.86l0 3.26c0,0.29 0,0.46 0.13,0.68 0.09,0.14 0.26,0.27 0.51,0.29 0.46,0.04 1.1,0 1.58,0.01 0.48,0 0.89,-0.18 0.87,-0.75l0 -0.3 0 -3.81 0 -0.3c0.02,-0.26 -0.02,-0.6 -0.22,-0.76 -0.08,-0.06 -0.12,-0.03 -0.05,-0.08 0.04,0.08 0.08,0.1 0.15,0.14z"/>
      <path class="fil8" d="M5.73 11.49l0 0.3c0.6,-0.06 0.84,0.17 1.31,0.36 0.55,0.23 0.92,0.08 1.49,-0.02 0.35,-0.06 1.2,-0.26 1.5,-0.23 0.47,0.04 0.92,0.39 0.89,0.89l0.04 -0.14 0.2 -0.11c0,0.01 0,0.02 0,0.03l0.03 0.03c0.04,-0.08 -0.05,-0.02 0.19,-0.14 0.08,-0.04 0.15,-0.06 0.23,-0.1l1.28 -0.61c0.61,-0.28 1.11,-0.59 1.86,-0.01 0.12,0.1 0.56,0.52 0.54,0.74 -0.01,0.17 -0.19,0.24 -0.32,0.32l-1.93 1.24c-0.51,0.33 -1.04,0.64 -1.56,0.96 -0.26,0.16 -0.53,0.31 -0.8,0.47 -0.26,0.14 -0.56,0.3 -0.85,0.42 -0.88,0.38 -1.11,0.31 -1.99,-0.02 -0.83,-0.31 -1.13,-0.41 -2.11,-0.27l0 0.3c1.11,-0.13 1.29,-0.01 2.22,0.33 0.94,0.35 1.28,0.26 2.13,-0.12 0.85,-0.37 2.64,-1.51 3.4,-2 0.55,-0.35 1.11,-0.7 1.66,-1.06 0.16,-0.1 0.29,-0.15 0.37,-0.31 0.11,-0.17 0.11,-0.36 0.01,-0.55 -0.33,-0.58 -0.92,-1.06 -1.61,-1.08 -0.42,-0.01 -0.7,0.15 -1.02,0.3 -0.31,0.14 -1.65,0.82 -1.83,0.87 -0.08,-0.08 -0.12,-0.18 -0.2,-0.26 -0.06,-0.06 -0.15,-0.15 -0.23,-0.22 -0.53,-0.42 -1.41,-0.1 -2.12,0.03 -0.56,0.1 -0.89,0.25 -1.42,0.01 -0.43,-0.18 -0.79,-0.42 -1.36,-0.35z"/>
     </g>
     <path class="fil4" d="M11.19 12.6c0.1,0.31 -0.15,0.56 -0.32,0.65 -0.48,0.26 -1.07,0.05 -1.82,0.13 -0.26,0.02 -0.65,0.1 -0.89,0.1l-0.02 -0.28c0.48,-0.06 1.02,-0.15 1.5,-0.14 0.27,0.01 0.51,0.06 0.79,0.03 0.27,-0.03 0.39,-0.1 0.49,-0.3 0.03,-0.5 -0.42,-0.85 -0.89,-0.89 -0.3,-0.03 -1.15,0.17 -1.5,0.23 -0.57,0.1 -0.94,0.25 -1.49,0.02 -0.47,-0.19 -0.71,-0.42 -1.31,-0.36l0 3.81c0.98,-0.14 1.28,-0.04 2.11,0.27 0.88,0.33 1.11,0.4 1.99,0.02 0.29,-0.12 0.59,-0.28 0.85,-0.42 0.27,-0.16 0.54,-0.31 0.8,-0.47 0.52,-0.32 1.05,-0.63 1.56,-0.96l1.93 -1.24c0.13,-0.08 0.31,-0.15 0.32,-0.32 0.02,-0.22 -0.42,-0.64 -0.54,-0.74 -0.75,-0.58 -1.25,-0.27 -1.86,0.01l-1.28 0.61c-0.08,0.04 -0.15,0.06 -0.23,0.1 -0.24,0.12 -0.15,0.06 -0.19,0.14z"/>
     <path class="fil2" d="M3.33 15.95c0.12,0.03 1.58,0.03 1.72,0l0 -4.7c-0.1,-0.05 -1.25,-0.02 -1.54,-0.02l-0.17 0.01c-0.01,0 -0.02,0.01 -0.02,0.01l0.01 4.7z"/>
     <path class="fil1" d="M10.92 12.79c-0.1,0.2 -0.22,0.27 -0.49,0.3 -0.28,0.03 -0.52,-0.02 -0.79,-0.03 -0.48,-0.01 -1.02,0.08 -1.5,0.14l0.02 0.28c0.24,0 0.63,-0.08 0.89,-0.1 0.75,-0.08 1.34,0.13 1.82,-0.13 0.17,-0.09 0.42,-0.34 0.32,-0.65l-0.03 -0.03c0,-0.01 0,-0.02 0,-0.03l-0.2 0.11 -0.04 0.14z"/>
    </g>
   </g>
  </g>
 </g>
</svg>
