<?xml version="1.0" encoding="UTF-8"?>
<!DOCTYPE svg PUBLIC "-//W3C//DTD SVG 1.1//EN" "http://www.w3.org/Graphics/SVG/1.1/DTD/svg11.dtd">
<!-- Creator: CorelDRAW 2021 (64 Bit) -->
<svg xmlns="http://www.w3.org/2000/svg" xml:space="preserve" width="400px" height="400px" version="1.1" style="shape-rendering:geometricPrecision; text-rendering:geometricPrecision; image-rendering:optimizeQuality; fill-rule:evenodd; clip-rule:evenodd"
viewBox="0 0 2.53 2.53"
 xmlns:xlink="http://www.w3.org/1999/xlink"
 xmlns:xodm="http://www.corel.com/coreldraw/odm/2003">
 <defs>
  <style type="text/css">
   <![CDATA[
    .str0 {stroke:#030303;stroke-width:0.06;stroke-miterlimit:22.9256}
    .str2 {stroke:#B8B4B6;stroke-width:0.19;stroke-miterlimit:22.9256}
    .str4 {stroke:black;stroke-width:0.05;stroke-miterlimit:22.9256}
    .str5 {stroke:black;stroke-width:0.03;stroke-miterlimit:22.9256}
    .str1 {stroke:black;stroke-width:0.03;stroke-miterlimit:22.9256}
    .str3 {stroke:red;stroke-width:0.01;stroke-miterlimit:22.9256}
    .fil3 {fill:none}
    .fil0 {fill:black}
    .fil1 {fill:lime}
    .fil5 {fill:#00FF95}
    .fil4 {fill:red}
    .fil2 {fill:white}
    .fil6 {fill:white}
   ]]>
  </style>
 </defs>
 <g id="Camada_x0020_1">
  <metadata id="CorelCorpID_0Corel-Layer"/>
  <g id="_2069860677232">
   <g>
    <path class="fil0" d="M0.25 0.83c0,0.02 0,0.03 0,0.05 0,0.11 0.07,0.22 0.14,0.3 0.03,0.03 0.06,0.05 0.1,0.07 0.05,0.03 0.07,0.02 0.07,0.05 0,0.07 0.01,0.12 0.01,0.18l0.01 0.19c0.01,0.03 0.04,0.52 0.05,0.53 0.02,-0.01 0.04,-0.01 0.07,-0.01 0.08,-0.02 0.17,-0.08 0.19,-0.16 0.02,-0.05 -0.01,-0.1 0.01,-0.15l0.07 -0.16c0,0 0,0 0,-0.01 -0.01,0 0,0 -0.01,0 -0.03,-0.04 -0.07,-0.12 -0.09,-0.17 0.03,-0.05 0.1,-0.11 0.11,-0.17 0,-0.02 -0.01,-0.05 -0.01,-0.08 -0.01,-0.02 -0.01,-0.05 -0.01,-0.07 0.07,-0.05 0.1,-0.07 0.16,-0.16 0.04,-0.06 0.06,-0.14 0.07,-0.19 0,-0.07 0,-0.12 -0.02,-0.19 -0.02,-0.06 -0.04,-0.11 -0.09,-0.17 -0.05,-0.07 -0.11,-0.11 -0.18,-0.14 -0.07,-0.03 -0.12,-0.04 -0.18,-0.04l-0.09 0.02c-0.08,0.01 -0.16,0.06 -0.22,0.12 0,0 -0.03,0.03 -0.04,0.04l0.02 -0.01c0.02,0.03 0.02,0.04 0.05,0.05 0.05,-0.04 0.06,-0.09 0.15,-0.12 0.05,-0.03 0.11,-0.04 0.16,-0.04 0.04,0 0.13,0.02 0.17,0.04 0.11,0.07 0.19,0.17 0.21,0.3 0.01,0.05 0.02,0.12 0.01,0.17 -0.04,0.13 -0.13,0.23 -0.25,0.29 0,0.01 0,0.03 0,0.04l0.03 0.13c0,0.02 -0.02,0.03 -0.03,0.05l-0.1 0.15c0.03,0.04 0.06,0.1 0.09,0.15 0.01,0.03 0.01,0.01 -0.01,0.08l-0.04 0.13c-0.01,0.02 -0.01,0.02 -0.01,0.04 0,0.01 0.01,0.07 0.01,0.08 -0.03,0.06 -0.11,0.1 -0.15,0.1 -0.01,-0.01 -0.01,-0.02 -0.01,-0.03 0,-0.07 0,-0.13 -0.01,-0.2 0,-0.02 0.01,-0.04 0,-0.06l-0.01 -0.29c-0.01,-0.01 0,-0.04 0,-0.05 -0.01,-0.02 -0.01,-0.04 -0.01,-0.06l0 -0.12c0,-0.04 -0.01,-0.07 -0.01,-0.11 -0.02,-0.01 -0.04,-0.01 -0.06,-0.01 -0.01,-0.01 -0.05,-0.03 -0.06,-0.03 -0.1,-0.05 -0.16,-0.15 -0.18,-0.26 0,-0.01 -0.01,-0.02 -0.01,-0.03 0,-0.02 0,-0.04 -0.01,-0.06 -0.01,0 -0.01,0 -0.03,0 -0.01,0.01 -0.02,0.01 -0.03,0z"/>
    <circle class="fil1 str0" cx="0.65" cy="0.6" r="0.12"/>
    <ellipse class="fil1 str1" cx="0.32" cy="0.66" rx="0.07" ry="0.08"/>
   </g>
   <path class="fil2 str2" d="M0.2 0.09l2.13 0c0.06,0 0.1,0.06 0.1,0.12l0 2.11c0,0.06 -0.04,0.11 -0.1,0.11l-2.13 0c-0.06,0 -0.1,-0.05 -0.1,-0.11 0,-0.26 -0.01,-2.04 0,-2.13 0,-0.05 0.06,-0.1 0.1,-0.1z"/>
   <path class="fil3" d="M0.63 0.34c-0.27,0.11 -0.35,0.24 -0.36,0.48 0,0.22 0.12,0.35 0.31,0.43l0.07 0.92c0.11,-0.02 0.19,-0.06 0.21,-0.15l0.01 -0.1 0.07 -0.2 -0.1 -0.18 0.12 -0.17 -0.04 -0.17c0.21,-0.13 0.28,-0.32 0.23,-0.56 -0.09,-0.22 -0.26,-0.33 -0.52,-0.3z"/>
   <g>
    <polygon class="fil4 str3" points="0.96,2.08 1.41,1.63 1.26,2.05 2.24,0.6 1.69,1.23 1.89,0.81 "/>
    <g>
     <path class="fil5" d="M0.71 0.34c-0.26,0.1 -0.34,0.23 -0.37,0.48 -0.01,0.24 0.09,0.38 0.27,0.48l0.01 0.98c0.11,-0.02 0.19,-0.05 0.21,-0.14l0.02 -0.12 0.08 -0.21 -0.09 -0.19 0.13 -0.18 -0.03 -0.18c0.21,-0.12 0.29,-0.32 0.25,-0.58 -0.07,-0.24 -0.22,-0.37 -0.48,-0.34z"/>
     <line class="fil3 str4" x1="0.71" y1="1.26" x2="0.69" y2= "2.22" />
     <line class="fil3 str4" x1="0.82" y1="1.26" x2="0.82" y2= "1.58" />
     <path class="fil5 str5" d="M0.32 0.82c0,0.01 0,0.03 0,0.05 -0.01,0.11 0.05,0.24 0.12,0.33 0.02,0.03 0.05,0.06 0.08,0.08 0.06,0.03 0.07,0.02 0.07,0.06 0,0.07 0,0.11 0,0.19l0 0.19c0,0.04 0,0.56 0.01,0.57 0.02,0 0.04,-0.01 0.07,-0.01 0.08,-0.01 0.16,-0.07 0.19,-0.16 0.02,-0.05 0,-0.1 0.02,-0.16l0.07 -0.16c0,0 0,0 0,-0.01 0,0 0,0 0,0 -0.03,-0.05 -0.06,-0.13 -0.08,-0.19 0.04,-0.04 0.1,-0.11 0.11,-0.17 0.01,-0.03 0,-0.05 0,-0.08 0,-0.03 0,-0.06 -0.01,-0.08 0.08,-0.05 0.11,-0.07 0.17,-0.16 0.03,-0.07 0.07,-0.15 0.07,-0.2 0.01,-0.07 0.01,-0.13 0,-0.2 -0.02,-0.07 -0.03,-0.13 -0.07,-0.19 -0.05,-0.07 -0.1,-0.12 -0.17,-0.16 -0.06,-0.03 -0.12,-0.04 -0.17,-0.04l-0.09 0c-0.07,0.02 -0.15,0.06 -0.21,0.12 -0.01,0.01 -0.03,0.02 -0.03,0.03l0 0.01c0.02,0.02 0.03,0.03 0.05,0.05 0.05,-0.05 0.07,-0.09 0.15,-0.13 0.05,-0.02 0.11,-0.03 0.16,-0.02 0.03,0 0.12,0.02 0.15,0.05 0.1,0.07 0.18,0.19 0.19,0.33 0.01,0.05 0.01,0.13 -0.01,0.18 -0.04,0.14 -0.13,0.24 -0.25,0.29 0,0.02 0,0.04 0,0.05l0.01 0.14c0,0.02 -0.01,0.03 -0.02,0.05l-0.11 0.15c0.03,0.04 0.05,0.11 0.08,0.16 0.01,0.03 0.01,0.02 -0.02,0.09l-0.05 0.13c-0.01,0.03 0,0.02 0,0.05 0,0 0,0.08 0,0.08 -0.03,0.06 -0.11,0.1 -0.15,0.1 0,-0.01 0,-0.02 0,-0.03 0,-0.07 0,-0.14 0,-0.21 0,-0.03 0,-0.04 0,-0.07l0.01 -0.3c-0.01,-0.02 0,-0.05 0,-0.06 0,-0.03 0,-0.04 0,-0.07l0 -0.12c0,-0.04 0,-0.08 0,-0.12 -0.01,-0.01 -0.04,-0.01 -0.06,-0.02 -0.01,0 -0.05,-0.03 -0.06,-0.03 -0.09,-0.06 -0.14,-0.17 -0.15,-0.28 0,-0.01 0,-0.04 0,-0.05 -0.01,-0.01 -0.01,-0.03 -0.01,-0.05 -0.01,0 -0.01,0 -0.03,0 -0.01,0 -0.02,0 -0.03,0z"/>
     <path class="fil5 str5" d="M0.36 0.62c-0.06,0.08 0.06,0.17 0.11,0.08 0.02,-0.03 0.02,-0.08 -0.01,-0.11 -0.03,-0.02 -0.08,-0.01 -0.1,0.03z"/>
     <ellipse class="fil6 str5" transform="matrix(0.461759 0.0265093 -0.0317651 0.554486 0.676112 0.59468)" rx="0.21" ry="0.19"/>
    </g>
   </g>
  </g>
 </g>
</svg>
