<?xml version="1.0" encoding="UTF-8"?>
<!DOCTYPE svg PUBLIC "-//W3C//DTD SVG 1.1//EN" "http://www.w3.org/Graphics/SVG/1.1/DTD/svg11.dtd">
<!-- Creator: CorelDRAW 2021 (64 Bit) -->
<svg xmlns="http://www.w3.org/2000/svg" xml:space="preserve" width="305px" height="301px" version="1.1" style="shape-rendering:geometricPrecision; text-rendering:geometricPrecision; image-rendering:optimizeQuality; fill-rule:evenodd; clip-rule:evenodd"
viewBox="0 0 1.27 1.26"
 xmlns:xlink="http://www.w3.org/1999/xlink"
 xmlns:xodm="http://www.corel.com/coreldraw/odm/2003">
 <defs>
  <style type="text/css">
   <![CDATA[
    .fil2 {fill:black}
    .fil12 {fill:#00718D}
    .fil5 {fill:#009832}
    .fil10 {fill:#00CBFB}
    .fil9 {fill:#00FCFC}
    .fil11 {fill:#848484}
    .fil4 {fill:#875D5D}
    .fil3 {fill:#97FC97}
    .fil0 {fill:#B8B3B6}
    .fil8 {fill:#FC0000}
    .fil7 {fill:#FCAD00}
    .fil6 {fill:#FCFC00}
    .fil1 {fill:#FDFDFD}
   ]]>
  </style>
 </defs>
 <g id="Camada_x0020_1">
  <metadata id="CorelCorpID_0Corel-Layer"/>
  <g id="_1851199085088">
   <path class="fil0" d="M0.13 0.13l1.02 0 0 1 -1.02 0 0 -1zm-0.13 -0.01l0 1.02c0,0.06 0.05,0.12 0.1,0.12l1.07 0c0.05,0 0.1,-0.06 0.1,-0.13l0 -1c0,-0.05 -0.01,-0.08 -0.04,-0.11 -0.01,0 -0.02,-0.01 -0.02,-0.01 -0.02,-0.01 -0.04,-0.01 -0.06,-0.01l-1.02 0c-0.08,0 -0.13,0.06 -0.13,0.12z"/>
   <path class="fil1" d="M0.64 0.28c0.03,-0.08 0.07,-0.11 0.16,-0.13 0.13,-0.03 0.27,0.03 0.3,0.14 0,0.02 0.01,0.11 0.01,0.13 -0.01,0.09 -0.15,0.06 -0.23,0.06l0 0.09c0.05,0.04 0.03,0.01 0.05,0.1 0,0.03 0.01,0.03 0.04,0.04 0.04,0.01 0.02,0.03 0.05,0.1 0.04,0.07 0.04,0.04 0.01,0.14l-0.01 0.02c0,0.01 0,0 0,0.01 -0.03,-0.03 -0.06,-0.07 -0.09,-0.1 0,0.04 0.05,0.07 0,0.14 0,0.01 -0.01,0.02 -0.01,0.02 -0.01,0.01 -0.01,0.01 -0.02,0.02 -0.01,-0.02 -0.02,-0.04 -0.03,-0.07l-0.01 0.02c-0.01,0.04 -0.03,0.08 -0.07,0.1 0,-0.02 -0.01,-0.04 -0.02,-0.05 -0.01,0.03 -0.03,0.05 -0.07,0.06l-0.01 0 -0.01 -0.04 0 -0.04c-0.02,0.05 -0.03,0.06 -0.1,0.06 -0.01,-0.03 0.01,-0.09 0.01,-0.12l-0.01 0c0,0.05 -0.07,0.08 -0.11,0.04l0.04 -0.12c-0.01,0.02 -0.02,0.04 -0.06,0.04 -0.03,0 -0.05,-0.02 -0.07,-0.03 0.01,-0.05 0.12,-0.18 0.15,-0.24 -0.02,-0.02 -0.06,-0.03 -0.08,-0.1 -0.08,0 -0.06,0.01 -0.1,-0.04 -0.02,0 -0.04,0.02 -0.06,0.03 -0.02,0 -0.03,-0.02 -0.05,-0.03 -0.02,-0.01 -0.04,0 -0.06,-0.01 -0.03,-0.02 -0.04,-0.08 -0.04,-0.12 0.09,0 0.19,0 0.28,-0.01 0.03,0 0.02,-0.04 0.06,-0.08 0.03,-0.03 0.05,-0.04 0.11,-0.04l-0.01 0.02c-0.07,0.02 -0.12,0.05 -0.12,0.14l-0.3 0c0,0.09 0.05,0.05 0.08,0.07 0.01,0.01 0.03,0.03 0.05,0.03 0.02,-0.01 0.03,-0.03 0.05,-0.04 0.02,0.02 0.03,0.03 0.05,0.05 0.02,0.02 0.04,0 0.07,0 0.02,0.03 0.05,0.13 0.13,0.12 -0.03,-0.07 -0.05,-0.12 -0.03,-0.21 0.01,-0.11 0.05,-0.1 0.05,-0.13 0.01,-0.03 0,-0.04 0.03,-0.04zm-0.51 0.85l1.02 0 0 -1 -1.02 0 0 1z"/>
   <path class="fil2" d="M0.59 1.08c0.01,-0.05 0.05,-0.34 0.07,-0.37 0.02,0.02 0.01,0.05 0.01,0.1 0.02,0.22 0,0.14 -0.02,0.21 0,0.04 -0.01,0.07 -0.06,0.06zm-0.01 -0.1c0.01,-0.01 0.01,0 0.01,-0.01l0 0.01c0,0.03 -0.02,0.09 -0.01,0.12 0.07,0 0.08,-0.01 0.1,-0.06l0 0.04c0.01,0.01 0.01,0.01 0.01,0.02 0,0.02 -0.01,0.01 0.01,0.02 0.04,-0.01 0.06,-0.03 0.07,-0.06 0.01,0.01 0.02,0.03 0.02,0.05 0.04,-0.02 0.06,-0.06 0.07,-0.1l0.01 -0.02c0.01,0.03 0.02,0.05 0.03,0.07 0.01,-0.01 0.01,-0.01 0.02,-0.02 0,0 0.01,-0.01 0.01,-0.02 0.05,-0.07 0,-0.1 0,-0.14 0.03,0.03 0.06,0.07 0.09,0.1 0,-0.01 0,0 0,-0.01l0.01 -0.02c0.03,-0.1 0.03,-0.07 -0.01,-0.14 -0.03,-0.07 -0.01,-0.09 -0.05,-0.1 -0.03,-0.01 -0.04,-0.01 -0.04,-0.04 -0.02,-0.09 0,-0.06 -0.05,-0.1l0 -0.09 -0.02 0c0.01,0.03 0,0.06 -0.01,0.1 0.02,0.02 0.04,0.02 0.05,0.05 0.01,0.02 0.01,0.06 0.01,0.08 0.08,0.02 0.06,0.03 0.09,0.09 0.03,0.08 0.04,0.04 0.02,0.14 -0.03,-0.01 -0.19,-0.22 -0.22,-0.25 -0.07,0.01 -0.13,0.05 -0.19,-0.05 -0.03,-0.06 -0.04,-0.12 -0.02,-0.21 0.01,-0.06 0.05,-0.13 0.13,-0.12 0.06,0.01 0.12,0.07 0.13,0.13l0.01 0.01 0.02 0c-0.01,-0.05 -0.04,-0.09 -0.07,-0.12 -0.05,-0.04 -0.08,-0.04 -0.15,-0.03 -0.02,-0.01 -0.02,0 -0.02,-0.02 -0.03,0 -0.02,0.01 -0.03,0.04 0,0.03 -0.04,0.02 -0.05,0.13 -0.02,0.09 0,0.14 0.03,0.21 -0.08,0.01 -0.11,-0.09 -0.13,-0.12 -0.03,0 -0.05,0.02 -0.07,0 -0.02,-0.02 -0.03,-0.03 -0.05,-0.05 -0.02,0.01 -0.03,0.03 -0.05,0.04 -0.02,0 -0.04,-0.02 -0.05,-0.03 -0.03,-0.02 -0.08,0.02 -0.08,-0.07l0.3 0c0,-0.09 0.05,-0.12 0.12,-0.14l0.01 -0.02c-0.06,0 -0.08,0.01 -0.11,0.04 -0.04,0.04 -0.03,0.08 -0.06,0.08 -0.09,0.01 -0.19,0.01 -0.28,0.01 0,0.04 0.01,0.1 0.04,0.12 0.02,0.01 0.04,0 0.06,0.01 0.02,0.01 0.03,0.03 0.05,0.03 0.02,-0.01 0.04,-0.03 0.06,-0.03 0.04,0.05 0.02,0.04 0.1,0.04 0.02,0.07 0.06,0.08 0.08,0.1 -0.03,0.06 -0.14,0.19 -0.15,0.24 0.02,0.01 0.04,0.03 0.07,0.03 0.04,0 0.05,-0.02 0.06,-0.04l-0.04 0.12c0.04,0.04 0.11,0.01 0.11,-0.04zm0.12 -0.24c0.01,0.08 0.12,0.34 0.01,0.35l-0.01 -0.34c-0.01,-0.01 -0.01,0.01 -0.01,-0.01 0,-0.01 0.01,0 0.01,-0.01 0,0 0,0.01 0,0.01zm0.03 -0.01c0.02,0 0.02,0.02 0.04,0.07l0.06 0.13c0.01,0.02 0,0.03 0.01,0.06 0,0.04 0,0.07 -0.03,0.08 -0.02,-0.03 -0.09,-0.32 -0.08,-0.34zm-0.11 -0.04c0.01,0.03 0,0.06 0,0.1 -0.01,0.03 -0.01,0.07 -0.02,0.1 0,0.05 -0.02,0.05 -0.04,0.08 -0.01,0.02 -0.02,0.07 -0.06,0.05 -0.02,-0.01 0,-0.04 0.02,-0.08 0.01,-0.03 0.02,-0.06 0.03,-0.09l0.05 -0.13c0.01,-0.03 0.01,-0.02 0.02,-0.03zm0.29 0.33c-0.03,-0.04 -0.05,-0.1 -0.08,-0.15 -0.02,-0.04 -0.05,-0.1 -0.07,-0.15 0.01,-0.01 0.02,-0.01 0.04,-0.01 0.02,0.04 0.09,0.1 0.1,0.13 0.01,0.04 0.01,0.06 0.03,0.1 0.01,0.02 0,0.07 -0.02,0.08zm-0.5 -0.12c0.01,-0.02 0.12,-0.2 0.14,-0.22l0.03 0c0,0.03 -0.04,0.15 -0.05,0.16 -0.01,0.03 -0.03,0.03 -0.05,0.06 -0.02,0.03 -0.04,0.02 -0.07,0z"/>
   <path class="fil3" d="M0.61 0.6c-0.02,-0.03 -0.01,-0.07 0.02,-0.06 0.02,0.01 0.03,0.07 -0.02,0.06zm0.25 -0.12c-0.02,-0.01 -0.06,0 -0.08,0 -0.03,-0.01 -0.06,-0.01 -0.07,0 -0.01,0.08 -0.11,0.07 -0.11,-0.02 0,-0.09 0.09,-0.11 0.11,-0.02 0.01,0.01 0.03,0.01 0.06,0.01 0.03,0 0.05,0 0.08,0 0,-0.01 0,0 0,-0.01 -0.01,-0.06 -0.07,-0.12 -0.13,-0.13 -0.08,-0.01 -0.12,0.06 -0.13,0.12 -0.02,0.09 -0.01,0.15 0.02,0.21 0.06,0.1 0.12,0.06 0.19,0.05 0.03,0.03 0.19,0.24 0.22,0.25 0.02,-0.1 0.01,-0.06 -0.02,-0.14 -0.03,-0.06 -0.01,-0.07 -0.09,-0.09 0,-0.02 0,-0.06 -0.01,-0.08 -0.01,-0.03 -0.03,-0.03 -0.05,-0.05 0.01,-0.04 0.02,-0.07 0.01,-0.1z"/>
   <path class="fil1" d="M0.66 0.3c0.07,-0.01 0.1,-0.01 0.15,0.03 0.03,0.03 0.06,0.07 0.07,0.12 0.04,0.01 0.08,0.01 0.12,0.01 0.05,0 0.08,0 0.08,-0.05 0,-0.1 -0.01,-0.16 -0.07,-0.2 -0.08,-0.06 -0.23,-0.05 -0.3,0 -0.02,0.02 -0.05,0.05 -0.05,0.09z"/>
   <path class="fil4" d="M0.64 0.28c0,0.02 0,0.01 0.02,0.02 0,-0.04 0.03,-0.07 0.05,-0.09 0.07,-0.05 0.22,-0.06 0.3,0 0.06,0.04 0.07,0.1 0.07,0.2 0,0.05 -0.03,0.05 -0.08,0.05 -0.04,0 -0.08,0 -0.12,-0.01l-0.02 0 -0.01 -0.01c0,0.01 0,0 0,0.01 -0.03,0 -0.05,0 -0.08,0 -0.03,0 -0.05,0 -0.06,-0.01 0,0.02 -0.02,0.01 -0.03,0 -0.01,0.01 -0.02,0 -0.03,0.01 0,0.02 0.01,0.02 0.03,0.02 0.02,0 0.02,0 0.03,0.01 0.01,-0.01 0.04,-0.01 0.07,0 0.02,0 0.06,-0.01 0.08,0l0.02 0c0.08,0 0.22,0.03 0.23,-0.06 0,-0.02 -0.01,-0.11 -0.01,-0.13 -0.03,-0.11 -0.17,-0.17 -0.3,-0.14 -0.09,0.02 -0.13,0.05 -0.16,0.13z"/>
   <path class="fil5" d="M0.76 0.72c0.02,0.05 0.05,0.11 0.07,0.15 0.03,0.05 0.05,0.11 0.08,0.15 0.02,-0.01 0.03,-0.06 0.02,-0.08 -0.02,-0.04 -0.02,-0.06 -0.03,-0.1 -0.01,-0.03 -0.08,-0.09 -0.1,-0.13 -0.02,0 -0.03,0 -0.04,0.01z"/>
   <path class="fil6" d="M0.59 1.08c0.05,0.01 0.06,-0.02 0.06,-0.06 0.02,-0.07 0.04,0.01 0.02,-0.21 0,-0.05 0.01,-0.08 -0.01,-0.1 -0.02,0.03 -0.06,0.32 -0.07,0.37z"/>
   <path class="fil7" d="M0.62 0.69c-0.01,0.01 -0.01,0 -0.02,0.03l-0.05 0.13c-0.01,0.03 -0.02,0.06 -0.03,0.09 -0.02,0.04 -0.04,0.07 -0.02,0.08 0.04,0.02 0.05,-0.03 0.06,-0.05 0.02,-0.03 0.04,-0.03 0.04,-0.08 0.01,-0.03 0.01,-0.07 0.02,-0.1 0,-0.04 0.01,-0.07 0,-0.1z"/>
   <path class="fil8" d="M0.41 0.9c0.03,0.02 0.05,0.03 0.07,0 0.02,-0.03 0.04,-0.03 0.05,-0.06 0.01,-0.01 0.05,-0.13 0.05,-0.16l-0.03 0c-0.02,0.02 -0.13,0.2 -0.14,0.22z"/>
   <path class="fil9" d="M0.77 0.8c-0.02,-0.05 -0.02,-0.07 -0.04,-0.07 -0.01,0.02 0.06,0.31 0.08,0.34 0.03,-0.01 0.03,-0.04 0.03,-0.08 -0.01,-0.03 0,-0.04 -0.01,-0.06l-0.06 -0.13z"/>
   <path class="fil10" d="M0.7 0.75l0.01 0.34c0.11,-0.01 0,-0.27 -0.01,-0.35l0 0.01z"/>
   <path class="fil2" d="M0.71 0.48c-0.01,-0.01 -0.01,-0.01 -0.03,-0.01 0,0.03 -0.01,0.03 -0.03,0.03 -0.03,-0.03 -0.04,-0.07 0.01,-0.09 0.01,0.01 0.02,0.02 0.02,0.03 0.01,0.01 0.03,0.02 0.03,0 -0.02,-0.09 -0.11,-0.07 -0.11,0.02 0,0.09 0.1,0.1 0.11,0.02z"/>
   <path class="fil3" d="M0.68 0.47c-0.02,0 -0.03,0 -0.03,-0.02 0.01,-0.01 0.02,0 0.03,-0.01 0,-0.01 -0.01,-0.02 -0.02,-0.03 -0.05,0.02 -0.04,0.06 -0.01,0.09 0.02,0 0.03,0 0.03,-0.03z"/>
   <path class="fil2" d="M0.61 0.6c0.05,0.01 0.04,-0.05 0.02,-0.06 -0.03,-0.01 -0.04,0.03 -0.02,0.06z"/>
   <path class="fil11" d="M0.7 1.12c-0.02,-0.01 -0.01,0 -0.01,-0.02 0,-0.01 0,-0.01 -0.01,-0.02l0.01 0.04 0.01 0z"/>
   <path class="fil12" d="M0.7 0.75l0 -0.01c0,0 0,-0.01 0,-0.01 0,0.01 -0.01,0 -0.01,0.01 0,0.02 0,0 0.01,0.01z"/>
   <path class="fil4" d="M0.58 0.98l0.01 0 0 -0.01c0,0.01 0,0 -0.01,0.01z"/>
  </g>
 </g>
</svg>
