<?xml version="1.0" encoding="UTF-8"?>
<!DOCTYPE svg PUBLIC "-//W3C//DTD SVG 1.1//EN" "http://www.w3.org/Graphics/SVG/1.1/DTD/svg11.dtd">
<!-- Creator: CorelDRAW 2021 (64 Bit) -->
<svg xmlns="http://www.w3.org/2000/svg" xml:space="preserve" width="400px" height="400px" version="1.1" style="shape-rendering:geometricPrecision; text-rendering:geometricPrecision; image-rendering:optimizeQuality; fill-rule:evenodd; clip-rule:evenodd"
viewBox="0 0 178.62 178.62"
 xmlns:xlink="http://www.w3.org/1999/xlink"
 xmlns:xodm="http://www.corel.com/coreldraw/odm/2003">
 <defs>
  <style type="text/css">
   <![CDATA[
    .str2 {stroke:#AEA19E;stroke-width:7.14;stroke-miterlimit:22.9256;stroke-opacity:0.949020}
    .str0 {stroke:#C4C4C4;stroke-width:13.4;stroke-miterlimit:22.9256}
    .str1 {stroke:white;stroke-width:0.89;stroke-miterlimit:22.9256}
    .str3 {stroke:black;stroke-width:5.36;stroke-miterlimit:22.9256}
    .fil4 {fill:none}
    .fil1 {fill:#E6E7E8}
    .fil5 {fill:black}
    .fil9 {fill:#008CFF}
    .fil11 {fill:#04F9FD}
    .fil8 {fill:#333333}
    .fil10 {fill:#60FE04}
    .fil19 {fill:#615E5C}
    .fil18 {fill:#A7A786}
    .fil15 {fill:#BF08FC}
    .fil17 {fill:#D2AD6D}
    .fil12 {fill:#FA0404}
    .fil14 {fill:#FDFD00}
    .fil6 {fill:#FDFDCA}
    .fil13 {fill:#FE9800}
    .fil7 {fill:#FEFEFE}
    .fil16 {fill:#FF4CE7}
    .fil0 {fill:white}
    .fil2 {fill:#333333;fill-rule:nonzero}
    .fil3 {fill:#FEFEFE;fill-rule:nonzero;fill-opacity:0.949020}
   ]]>
  </style>
 </defs>
 <g id="Camada_x0020_1">
  <metadata id="CorelCorpID_0Corel-Layer"/>
  <g id="_2069757407456">
   <circle class="fil0 str0" cx="89.31" cy="89.31" r="82.61"/>
   <g>
    <g>
     <rect class="fil1 str1" x="41.92" y="100.63" width="17.34" height="40.84"/>
     <path class="fil2" d="M88.04 144.09c-3.32,0 -6.61,-1.25 -9.8,-2.46 -3.51,-1.33 -7.13,-2.72 -10.72,-2.39l-8.86 0.81 0 -35.18 4.82 -0.44c3,-0.26 5.52,0.93 7.94,2.08 2.28,1.09 4.43,2.13 6.91,1.91l15.87 -2.95c5.68,-0.99 8.81,2.37 10.72,5.44l17.33 -8.24c6.53,-3.01 13.88,0 18.28,7.49 1.16,1.97 0.52,4.58 -1.43,5.82 -2.25,1.44 -4.48,2.87 -6.7,4.29 -19.35,12.41 -36.07,23.13 -43.22,23.77 -0.38,0.04 -0.76,0.05 -1.14,0.05zm-19.41 -7.33c3.63,0 7.09,1.31 10.44,2.59 3.46,1.32 6.73,2.55 9.91,2.27 6.58,-0.59 23.86,-11.68 42.16,-23.41 2.22,-1.42 4.45,-2.86 6.7,-4.29 0.86,-0.55 1.15,-1.67 0.66,-2.51 -3.76,-6.38 -9.89,-9 -15.26,-6.53l-19.28 9.17c-0.04,-1.28 -0.99,-2.77 -1.52,-3.42 -1.78,-2.17 -5.22,-3.23 -7.83,-2.76l-15.97 2.96c-3.21,0.27 -5.76,-0.94 -8.22,-2.11 -2.24,-1.07 -4.36,-2.08 -6.73,-1.86l-2.66 0.24 0 30.29 6.28 -0.57c0.44,-0.04 0.88,-0.06 1.32,-0.06z"/>
     <path class="fil3 str2" d="M57 144.09l-13.56 0c-2.22,0 -4.03,-1.85 -4.03,-4.13l0 -37.3c0,-2.28 1.81,-4.13 4.03,-4.13l13.56 0c2.22,0 4.03,1.85 4.03,4.13l0 37.31c0,2.27 -1.81,4.12 -4.03,4.12zm-13.56 -43.13c-0.91,0 -1.65,0.76 -1.65,1.7l0 37.31c0,0.93 0.74,1.69 1.65,1.69l13.56 0c0.92,0 1.66,-0.76 1.66,-1.7l0 -37.3c0,-0.94 -0.74,-1.7 -1.66,-1.7l-13.56 0z"/>
     <path class="fil4 str3" d="M104.9 113.42c0.29,0.57 0.31,1.56 -0.35,2.65 -1.02,1.68 -3.38,2.98 -9.08,2.29 -4.23,-0.5 -9.3,0.51 -13.69,0.98"/>
    </g>
    <g>
     <path class="fil5" d="M92.71 89.87c-1.47,5.37 -9.18,3.35 -7.98,-2.01 0.46,-2.01 2.5,-3.72 5.07,-3.07 1.77,0.45 3.59,2.59 2.91,5.08zm10.54 -7.76c-0.86,-5.61 7.18,-6.66 8.07,-1.51 1.01,5.83 -7.27,6.73 -8.07,1.51zm-28.2 0.19c-1.56,5.1 -9.29,3.13 -7.86,-2.38 1.38,-5.34 9.49,-2.96 7.86,2.38zm8.25 -8.58l12.15 0c-0.04,0.04 -0.1,0.04 -0.12,0.11 -0.28,0.97 -7.9,3.04 -11.67,0.2 -0.26,-0.19 -0.19,-0.14 -0.36,-0.31zm3.37 -5.59l-1.77 -0.01 -0.02 3.7 -1.45 0c-0.18,-1.13 -0.14,-5.32 0.05,-6.3 0.95,-0.43 11.3,-0.44 12,0.03 0.53,0.79 0.39,4.95 0.21,6.26l-1.01 0.01 -0.1 -3.78 -1.78 -0.14 -0.01 3.92 -6.04 0.06 -0.08 -3.75zm-26.74 -4.76c-0.4,-5.68 7.73,-6.07 8.16,-0.77 0.46,5.66 -7.78,6.09 -8.16,0.77zm50.89 -0.19c-0.86,-5.61 7.13,-6.71 8.06,-1.5 0.47,2.6 -1.27,4.6 -3.34,4.92 -2.41,0.38 -4.41,-1.41 -4.72,-3.42zm-29.42 9.34c-0.11,-0.3 -6.47,-5.34 -3.54,-13.84 3.56,-10.31 18.2,-11.37 22.76,-0.67 1.04,2.44 1.28,5.42 0.62,8.12 -0.85,3.49 -2.32,4.41 -3.56,6.05 -0.42,-2.23 0.49,-6.24 -0.68,-7.82 -1.17,-1.56 -8.61,-0.96 -11.79,-0.97 -5.86,-0.02 -2.84,5.48 -3.81,9.13zm25.52 -31.53c2.48,-0.63 4.36,1.08 4.82,2.98 0.63,2.54 -1.01,4.66 -2.9,5.14 -5.2,1.32 -7.51,-6.7 -1.92,-8.12zm-36.69 -0.41c2.45,-0.85 4.61,0.95 5.14,2.77 0.72,2.48 -0.81,4.61 -2.61,5.19 -5.15,1.64 -7.81,-6.13 -2.53,-7.96zm18.36 -7.74c5.22,-1.77 7.67,6.25 2.49,7.95 -5.03,1.65 -7.68,-6.19 -2.49,-7.95zm3.04 16.02l-1.15 -0.15 0.3 -4.25 -0.01 -1.92c0.88,-0.57 4.87,-1.42 4.66,-6.06 -0.33,-7.07 -10.59,-7.15 -11.13,-0.18 -0.13,1.7 0.42,3.12 1.31,4.13 1.73,1.95 2.24,1.39 3.28,2.11l-0.08 5.94c-2.9,0.81 -3.47,0.18 -6.87,2.25 -0.83,0.5 -1.16,0.86 -1.9,1.32l-4.08 -3.94c0.5,-1.49 1.25,-2 1.03,-4.2 -0.47,-4.62 -6.07,-6.72 -9.28,-3.58 -4.85,4.74 0.69,12.62 6.78,9.04l4.22 4.11c-1.92,2.23 -3.11,5.29 -3.4,8.45l-5.81 0.12c-1.01,-6.87 -11.06,-5.99 -11.06,0.94 0,6.92 10.05,7.8 11.06,0.95l5.81 0.01c0.33,3.97 1.57,5.92 3.18,8.27 -0.36,0.39 -0.65,0.6 -1.03,1 -1.13,1.17 -1.63,1.87 -3.16,3.05 -1.9,-0.62 -4.63,-2.22 -7.56,1.31 -2.11,2.54 -1.21,5.91 0.69,7.78 2.75,2.68 8.57,1.49 9.22,-3.48 0.28,-2.13 -0.4,-2.85 -1.01,-4.28 1.11,-0.79 2.63,-2.89 4.23,-3.96 0.51,0.33 0.99,0.86 1.62,1.3 1.98,1.37 4.43,2.29 6.91,2.43l-0.24 5.68c-1.36,0.76 -2.27,0.48 -3.46,1.75 -0.69,0.73 -1.52,2.35 -1.54,3.93 -0.06,3.08 2.29,5.56 5.07,5.8 4.43,0.39 7.92,-4.62 5.01,-9.09 -0.89,-1.36 -1.51,-1.33 -3.17,-2.2l0.18 -5.82c6.49,-1.08 5.06,-1.73 8.71,-3.66l3.89 3.9c-0.28,1.05 -2.72,4.33 0.53,7.82 4.34,4.67 12.54,-1.26 8.39,-7.45 -0.59,-0.87 -1.65,-1.78 -3.09,-2.15 -1.99,-0.52 -2.82,0.08 -4.41,0.62l-4.11 -3.97c0.31,-0.81 1.43,-1.98 2.15,-3.78 0.62,-1.54 0.97,-2.89 1.13,-4.72l6.05 -0.11c1.42,6.54 11.65,5.15 10.91,-2.08 -0.28,-2.76 -2.63,-5.12 -5.59,-5.08 -3.11,0.05 -5.2,2.28 -5.51,5.28l-5.86 -0.02c-0.31,-3.65 -1.65,-6.11 -3.16,-8.24l4.17 -4.02c1.51,0.43 1.94,1.29 4.25,0.93 4.38,-0.69 6.3,-6.36 2.98,-9.68 -3.37,-3.37 -8.58,-1.26 -9.37,2.93 -0.42,2.19 0.31,2.96 0.85,4.5 -1.82,1.31 -3.22,3.36 -4.29,3.92 -1.82,-1.46 -4.56,-3.64 -7.24,-3.5z"/>
     <path class="fil6" d="M88.17 51.55c3.53,-0.86 6.21,1.68 6.85,4.43 0.82,3.53 -1.63,6.36 -4.22,7.03 -7.32,1.89 -10.33,-9.58 -2.63,-11.46zm-6.77 20.97c0.97,-3.65 -2.05,-9.15 3.81,-9.13 3.18,0.01 10.62,-0.59 11.79,0.97 1.17,1.58 0.26,5.59 0.68,7.82 1.24,-1.64 2.71,-2.56 3.56,-6.05 0.66,-2.7 0.42,-5.68 -0.62,-8.12 -4.56,-10.7 -19.2,-9.64 -22.76,0.67 -2.93,8.5 3.43,13.54 3.54,13.84z"/>
     <path class="fil7" d="M55.34 49.27c-0.67,1.05 0.57,1.67 -0.76,2.43 -3.12,1.76 -2.05,-0.57 -3.77,-0.59 -1.82,-0.01 -0.44,2.01 -3.11,0.86 -2.55,-1.09 -0.47,-1.56 -1.49,-2.81 -0.55,-0.68 -1.38,-0.28 -2.28,-0.37 -2.33,-4.14 0.32,-2.62 0.24,-4.53 -0.09,-2.06 -2.37,0 -0.29,-4.41 1.54,-0.23 2.71,0.6 2.56,-1.74 -0.07,-1.07 0.09,-0.98 0.97,-1.32 0.69,-0.27 1.13,-0.55 1.94,-0.47 0.35,0.51 0.65,1.31 1.6,1.21 1.71,-0.18 0.34,-1.94 3,-0.85 2.65,1.09 0.26,1.75 1.59,2.91 0.6,0.52 1.46,0.16 2.2,0.27 2.2,4.39 -0.4,2.46 -0.27,4.56 0.11,1.83 2.45,0.24 0.24,4.38 -1.01,0.11 -1.85,-0.35 -2.37,0.47zm-9.65 -14.19c0.47,3.01 -1.09,4.51 -3.97,3.97l-0.88 2.35c0.45,0.54 1.71,0.95 1.74,2.84 0.02,1.54 -0.82,2.35 -1.77,2.78l0.95 2.55c2.89,-0.58 4.47,1.04 3.91,3.98l2.35 1.01c0.77,-0.86 1.02,-1.81 2.8,-1.81 1.77,0.01 2,1 2.77,1.77l2.36 -0.97c-0.66,-3.02 1.15,-4.46 3.95,-3.95l0.95 -2.55c-2.43,-1.02 -2.4,-4.53 -0.03,-5.42l-0.95 -2.55c-2.79,0.48 -4.47,-0.91 -3.94,-3.92l-2.32 -1.07c-1.68,2.26 -3.62,2.52 -5.29,0.38l-0.28 -0.35 -2.35 0.96z"/>
     <path class="fil7" d="M125.94 36.31c1.91,2.75 2.59,0.18 3.11,-0.01 0.43,-0.16 2.47,0.68 2.67,1.06 0.27,0.87 -0.33,1.39 0.31,2.12 0.59,0.67 1.48,0.26 2.3,0.37 2.17,4.2 -0.21,2.55 -0.29,4.4 -0.09,1.96 2.56,0.36 0.25,4.55 -0.91,0.09 -1.74,-0.3 -2.29,0.37 -1.09,1.32 1.13,1.69 -1.5,2.81 -2.67,1.14 -1.24,-0.87 -3.11,-0.87 -1.75,0.01 -0.63,2.35 -3.76,0.58 -1.34,-0.76 -0.11,-1.38 -0.76,-2.44 -0.51,-0.82 -1.35,-0.35 -2.35,-0.47 -0.25,-0.44 -0.52,-1.04 -0.76,-1.66 -0.86,-2.23 1.43,-1.23 0.95,-3.2 -0.43,-1.72 -2.19,0.22 -0.24,-4.07 1.53,-0.25 2.71,0.62 2.55,-1.75 -0.07,-1.05 0.1,-0.97 0.97,-1.31 0.69,-0.28 1.14,-0.55 1.95,-0.48zm-3.67 -1.22c0.55,3 -1.05,4.47 -3.97,3.96l-0.87 2.35 0.59 0.51c1.76,1.38 1.49,4.13 -0.62,5.12l0.95 2.53c2.84,-0.53 4.52,1.01 3.9,3.98l2.35 1.01c0.77,-0.81 0.99,-1.8 2.79,-1.8 1.77,0 2.02,0.97 2.77,1.77l2.37 -0.97c-0.6,-2.94 1.14,-4.5 3.95,-3.95l0.96 -2.55c-2.43,-1.03 -2.4,-4.52 -0.03,-5.42l-0.96 -2.56c-2.88,0.52 -4.36,-0.95 -3.94,-3.91l-2.33 -1.07c-0.74,0.86 -1.1,1.8 -2.79,1.8 -1.7,0 -1.96,-0.94 -2.78,-1.78l-2.34 0.98z"/>
     <path class="fil7" d="M46.4 74.71c3.62,-2.48 2.74,0.24 4.41,0.21 2.17,-0.03 -0.21,-2.39 4.33,-0.32 0.11,0.78 -0.28,1.77 0.34,2.36 0.59,0.56 1.29,0.16 2.09,0.32 0.51,0.63 1.11,1.93 1.01,2.98 -1.65,1.03 -1.63,1.91 0,2.94 0.1,1.05 -0.51,2.34 -1.02,2.97 -0.85,0.19 -1.63,-0.26 -2.19,0.41 -0.54,0.65 -0.12,1.39 -0.24,2.26 -4.62,2.15 -2.17,-0.49 -4.49,-0.31 -1.71,0.12 -0.35,2.58 -4.24,0.21 -0.11,-0.89 0.21,-1.71 -0.41,-2.27 -0.59,-0.55 -1.24,-0.2 -1.98,-0.26 -0.47,-0.52 -1.11,-1.8 -1.1,-2.78 0.52,-0.67 1.22,-0.63 1.22,-1.7 0,-1.06 -0.65,-1.12 -1.2,-1.71 -0.05,-0.97 0.6,-2.25 1.04,-2.79 0.75,-0.07 1.53,0.24 2.06,-0.19 0.71,-0.57 0.28,-1.37 0.37,-2.33zm-0.77 -2.25c0.54,2.98 -0.97,4.58 -3.9,3.98l-0.96 2.43c0.86,0.75 1.77,1.04 1.76,2.86 -0.01,1.9 -0.99,2.04 -1.73,2.84l0.96 2.42c2.92,-0.87 4.36,1.25 3.86,4.02l2.47 0.97c1.24,-2.44 4.23,-2.5 5.32,-0.03l2.47 -0.96c-0.52,-3.12 1.03,-4.41 3.93,-4.03l0.94 -2.38c-0.9,-0.83 -1.75,-1.15 -1.74,-2.85 0,-1.69 0.85,-2.04 1.73,-2.84l-0.97 -2.43c-2.86,0.73 -4.35,-1.29 -3.85,-4.06l-2.33 -0.89c-0.75,0.63 -0.84,1.76 -2.77,1.78 -1.61,0.01 -2.03,-0.87 -2.78,-1.75l-2.41 0.92z"/>
     <path class="fil7" d="M122.99 74.74c0.42,-0.31 1.02,-0.57 1.61,-0.8 2.26,-0.92 1.22,1.64 3.27,0.93 1.68,-0.58 -0.52,-2.06 3.82,-0.23 0.16,0.91 -0.31,1.72 0.32,2.36 0.71,0.7 1.3,0.08 2.04,0.32 0.51,0.24 0.34,0.21 0.8,1.31 0.33,0.82 0.38,0.72 0.32,1.66 -2.65,1.83 -0.19,2.61 0,3.14 0.03,0.93 -0.58,2.18 -1,2.77 -0.76,0.16 -1.53,-0.19 -2.11,0.31 -0.54,0.45 -0.31,1.05 -0.33,1.7 -0.02,0.94 -1.79,1.65 -2.8,1.57 -0.47,-0.44 -0.56,-1.01 -1.24,-1.19 -1.91,-0.49 -0.87,1.93 -3.13,0.97 -0.59,-0.25 -1.23,-0.53 -1.61,-0.78 -0.1,-1.26 0.23,-1.32 -0.29,-2.38 -0.98,-0.32 -1.12,-0.09 -2.14,-0.16 -0.45,-0.56 -1.05,-1.83 -1.03,-2.81 0.55,-0.57 1.23,-0.65 1.21,-1.7 -0.01,-1.07 -0.71,-1.02 -1.22,-1.71 0,-0.98 0.64,-2.25 1.11,-2.76 0.74,-0.07 1.4,0.28 1.99,-0.26 0.62,-0.56 0.28,-1.38 0.41,-2.26zm-0.77 -2.24c0.36,2.79 -0.88,4.87 -3.88,3.98l-1 2.39c0.77,0.84 1.74,0.93 1.76,2.86 0.02,1.82 -0.87,2.1 -1.72,2.84l0.92 2.44c2.94,-0.58 4.41,1.05 3.88,4.03l2.5 0.99c0.5,-1.43 2.82,-3.22 5.21,-0.36 0.16,0.2 0.13,0.17 0.27,0.3l2.3 -0.94c-0.53,-2.88 1.07,-4.54 3.81,-4.03l1.07 -2.41c-0.88,-0.78 -1.79,-1.16 -1.77,-2.86 0.02,-1.77 0.97,-1.93 1.74,-2.84l-0.9 -2.34c-3.03,0.29 -4.4,-0.86 -3.94,-4.12l-2.31 -0.88c-0.75,0.61 -0.77,1.76 -2.78,1.78 -1.45,0.01 -2.29,-0.84 -2.71,-1.81l-2.45 0.98z"/>
     <path class="fil8" d="M129.89 91.67c-2.39,-2.86 -4.71,-1.07 -5.21,0.36l-2.5 -0.99c0.53,-2.98 -0.94,-4.61 -3.88,-4.03l-0.92 -2.44c0.85,-0.74 1.74,-1.02 1.72,-2.84 -0.02,-1.93 -0.99,-2.02 -1.76,-2.86l1 -2.39c3,0.89 4.24,-1.19 3.88,-3.98l2.45 -0.98c0.42,0.97 1.26,1.82 2.71,1.81 2.01,-0.02 2.03,-1.17 2.78,-1.78l2.31 0.88c-0.46,3.26 0.91,4.41 3.94,4.12l0.9 2.34c-0.77,0.91 -1.72,1.07 -1.74,2.84 -0.02,1.7 0.89,2.08 1.77,2.86l-1.07 2.41c-2.74,-0.51 -4.34,1.15 -3.81,4.03l-2.3 0.94c-0.14,-0.13 -0.11,-0.1 -0.27,-0.3zm-13.64 -7.48c-0.04,1 0.4,1.63 0.74,2.5 0.36,0.94 0.49,1.54 1.63,1.41 1.16,-0.13 1.65,-0.18 2.28,0.66 0.8,1.08 0.01,1.49 0.27,2.76 0.6,0.65 2.76,1.72 4,1.53 0.69,-0.65 0.69,-1.78 2.21,-1.72 2.63,0.1 0.26,2.92 4.69,1.06 0.96,-0.4 1.62,-0.45 1.48,-1.66 -0.48,-3.92 2.11,-2.19 3.28,-2.7 0.64,-0.3 1.16,-1.96 1.45,-2.74 0.61,-1.7 -0.6,-1.58 -1.26,-2.45 -0.84,-1.11 -0.14,-2.23 0.65,-2.71 1.29,-0.79 0.77,-1.42 0.24,-2.74 -0.46,-1.17 -0.51,-2.16 -1.9,-1.97 -1.43,0.2 -2.42,-0.06 -2.56,-1.47 -0.16,-1.67 0.84,-1.89 -1.03,-2.68 -1.16,-0.48 -1.85,-1.02 -3.1,-0.76 -0.48,0.79 -0.84,1.96 -2.38,1.64 -1.74,-0.36 -0.88,-1.9 -2.47,-1.75 -0.36,0.03 -2.72,1.05 -2.99,1.31 -0.91,0.85 0.33,2.11 -0.71,3.24 -1.09,1.19 -2.33,-0.13 -3.19,0.71 -0.25,0.24 -1.27,2.67 -1.31,3.07 -0.17,1.51 1.44,1.2 1.69,2.65 0.29,1.7 -1.06,1.79 -1.71,2.81z"/>
     <path class="fil8" d="M130.16 54.52c-0.75,-0.8 -1,-1.77 -2.77,-1.77 -1.8,0 -2.02,0.99 -2.79,1.8l-2.35 -1.01c0.62,-2.97 -1.06,-4.51 -3.9,-3.98l-0.95 -2.53c2.11,-0.99 2.38,-3.74 0.62,-5.12l-0.59 -0.51 0.87 -2.35c2.92,0.51 4.52,-0.96 3.97,-3.96l2.34 -0.98c0.82,0.84 1.08,1.78 2.78,1.78 1.69,0 2.05,-0.94 2.79,-1.8l2.33 1.07c-0.42,2.96 1.06,4.43 3.94,3.91l0.96 2.56c-2.37,0.9 -2.4,4.39 0.03,5.42l-0.96 2.55c-2.81,-0.55 -4.55,1.01 -3.95,3.95l-2.37 0.97zm-13.8 -7.95c-0.19,1.16 0.92,3.45 1.47,4.03 0.56,0.33 3.81,-1.22 3.35,2.63 -0.23,1.9 3.68,2.51 3.99,2.36 0.72,-0.64 0.96,-1.71 2.22,-1.71 1.43,0.01 1.38,1.2 2.4,1.79 0,0 4.05,-0.48 3.81,-2.44 -0.14,-1.14 -0.05,-1.81 0.65,-2.35 1.95,-1.49 2.22,2.16 4.08,-3.02 0.69,-1.92 -0.8,-1.52 -1.33,-2.48 -0.82,-1.5 0.15,-2.2 0.95,-2.82 1.11,-0.88 0.31,-1.84 -0.17,-3.08 -0.78,-2.03 -0.58,-1.44 -2.46,-1.38 -1.21,0.04 -1.94,-0.82 -1.8,-2.14 0.21,-1.87 0.14,-1.62 -1.5,-2.32 -1.21,-0.52 -2.02,-1.2 -2.87,-0.09 -0.59,0.78 -1.27,1.68 -2.64,1 -1.07,-0.54 -0.61,-2.01 -2.29,-1.52 -0.56,0.17 -2.55,1.03 -2.81,1.32 -0.72,0.83 0.49,2.33 -0.63,3.32 -1.13,1 -2.55,-0.41 -3.33,0.76 -0.17,0.26 -1.13,2.71 -1.14,3 -0.05,1.33 1.44,1.09 1.7,2.45 0.35,1.85 -1,1.91 -1.65,2.69z"/>
     <path class="fil8" d="M53.41 91.95c-1.09,-2.47 -4.08,-2.41 -5.32,0.03l-2.47 -0.97c0.5,-2.77 -0.94,-4.89 -3.86,-4.02l-0.96 -2.42c0.74,-0.8 1.72,-0.94 1.73,-2.84 0.01,-1.82 -0.9,-2.11 -1.76,-2.86l0.96 -2.43c2.93,0.6 4.44,-1 3.9,-3.98l2.41 -0.92c0.75,0.88 1.17,1.76 2.78,1.75 1.93,-0.02 2.02,-1.15 2.77,-1.78l2.33 0.89c-0.5,2.77 0.99,4.79 3.85,4.06l0.97 2.43c-0.88,0.8 -1.73,1.15 -1.73,2.84 -0.01,1.7 0.84,2.02 1.74,2.85l-0.94 2.38c-2.9,-0.38 -4.45,0.91 -3.93,4.03l-2.47 0.96zm-13.59 -12.42c0.49,0.83 1.74,0.7 1.59,2.37 -0.23,2.57 -2.84,0.11 -0.99,4.79 1.18,2.97 2.57,0.04 3.93,2.04 0.73,1.07 0.06,1.49 0.23,2.65 0.56,0.7 2.73,1.84 3.97,1.63 0.62,-0.53 1.18,-2.5 3.07,-1.52 1.38,0.71 0.52,2.3 3.07,1.21 1.74,-0.75 2.44,-0.46 2.21,-2.47 -0.25,-2.12 0.97,-2.29 2.67,-2.13 1.31,0.13 1.55,-1.39 2.07,-2.68 0.92,-2.32 -0.97,-1.46 -1.44,-3.08 -0.63,-2.22 1.44,-2.01 1.65,-3.13 0.12,-0.63 -1.02,-3.36 -1.34,-3.63 -0.83,-0.71 -2.64,0.74 -3.46,-1 -0.84,-1.77 1.21,-2.4 -1.3,-3.39 -1.62,-0.64 -2.28,-1.53 -3.38,0.02 -0.98,1.4 -2.46,1.23 -3.22,-0.08 -0.84,-1.46 -1.98,-0.52 -3.42,0.09 -2.51,1.07 -0.26,1.77 -1.3,3.39 -1.07,1.67 -2.7,0.06 -3.53,1.13 -0.55,0.69 -1.4,2.96 -1.08,3.79z"/>
     <path class="fil8" d="M48.04 34.12l0.28 0.35c1.67,2.14 3.61,1.88 5.29,-0.38l2.32 1.07c-0.53,3.01 1.15,4.4 3.94,3.92l0.95 2.55c-2.37,0.89 -2.4,4.4 0.03,5.42l-0.95 2.55c-2.8,-0.51 -4.61,0.93 -3.95,3.95l-2.36 0.97c-0.77,-0.77 -1,-1.76 -2.77,-1.77 -1.78,0 -2.03,0.95 -2.8,1.81l-2.35 -1.01c0.56,-2.94 -1.02,-4.56 -3.91,-3.98l-0.95 -2.55c0.95,-0.43 1.79,-1.24 1.77,-2.78 -0.03,-1.89 -1.29,-2.3 -1.74,-2.84l0.88 -2.35c2.88,0.54 4.44,-0.96 3.97,-3.97l2.35 -0.96zm-8.26 12.44c-0.19,1.18 0.9,3.47 1.47,4.05 0.4,0.22 3.85,-1.03 3.37,2.45 -0.16,1.22 0.25,1.38 1.2,1.79 0.76,0.32 1.68,0.84 2.59,0.81 0.92,-0.56 1.57,-2.57 3.29,-1.53 1.5,0.91 0.36,2.27 3.19,1.11 3.31,-1.37 1.85,-1.28 2.01,-3.03 0.22,-2.42 3.08,-1.34 3.5,-1.59 0.52,-0.56 1.03,-1.81 1.35,-2.76 0.63,-1.8 -0.67,-1.58 -1.29,-2.51 -0.95,-1.42 0.18,-2.22 0.91,-2.8 1.08,-0.86 0.3,-1.9 -0.16,-3.08 -0.78,-1.99 -0.62,-1.43 -2.46,-1.36 -1.24,0.04 -1.95,-0.81 -1.81,-2.16 0.2,-1.85 0.13,-1.61 -1.5,-2.31 -1.13,-0.48 -2.12,-1.21 -2.86,-0.08 -0.42,0.65 -0.19,0.77 -1,1.07 -2.56,0.95 -1.95,-2.17 -3.94,-1.6 -5.35,1.54 -1.7,3.07 -3.44,4.63 -1.13,1.01 -2.56,-0.38 -3.33,0.76 -0.17,0.25 -1.13,2.72 -1.14,3.01 -0.06,1.33 1.43,1.1 1.69,2.45 0.36,1.85 -0.99,1.91 -1.64,2.68z"/>
     <path class="fil7" d="M126.19 77.74c5.2,-1.68 7.5,6.48 2.4,8.06 -5.23,1.62 -7.81,-6.31 -2.4,-8.06zm-2.44 -2.57c0.14,2.15 -0.75,3.2 -2.9,2.84l-0.64 1.88c1.5,0.52 1.49,2.17 0.96,3.05l-0.77 0.77c-0.03,0.02 -0.08,0.06 -0.12,0.1l0.64 1.68c2.18,-0.46 3.07,0.76 2.77,2.86l1.65 0.65c0.55,-0.55 0.85,-1.19 1.87,-1.25 1.15,-0.06 1.67,0.55 1.94,1.26l1.81 -0.66c-0.44,-3.13 1.69,-2.88 2.81,-2.93l0.64 -1.6c-1.1,-1.26 -2.12,-1.8 -0.26,-3.87 0.19,-0.21 0.11,-0.1 0.25,-0.3l-0.6 -1.52c-2.34,-0.08 -3,-0.42 -2.86,-3.01l-1.74 -0.65c-0.26,0.77 -0.71,1.26 -1.81,1.29 -1.19,0.02 -1.46,-0.67 -2.04,-1.22l-1.6 0.63z"/>
     <path class="fil7" d="M49.56 77.71c5.45,-1.69 7.41,6.49 2.44,8.07 -5.3,1.68 -7.62,-6.47 -2.44,-8.07zm-2.41 -2.56c0.27,2.12 -0.6,3.26 -2.78,2.83l-0.68 1.66 0.84 0.77c0.23,0.32 0.39,0.81 0.38,1.32 0,0.44 -0.11,0.85 -0.33,1.18l-0.46 0.49c-0.03,0.03 -0.07,0.07 -0.1,0.1 -0.24,0.23 -0.14,0.08 -0.31,0.31l0.61 1.62c2.18,-0.34 2.98,0.83 2.83,2.89l1.62 0.64c0.55,-0.56 0.79,-1.18 1.86,-1.24 1.19,-0.07 1.71,0.5 1.97,1.26l1.77 -0.65c-0.25,-2.55 0.65,-2.94 2.9,-2.95l0.56 -1.57c-0.44,-0.64 -1.21,-0.89 -1.21,-2.08 0,-1.13 0.65,-1.47 1.21,-2.08l-0.6 -1.56c-2.16,-0.02 -3.13,-0.54 -2.82,-3.01l-1.8 -0.64c-0.25,0.75 -0.7,1.28 -1.8,1.29 -1.15,0 -1.45,-0.7 -2.03,-1.23l-1.63 0.65z"/>
     <path class="fil7" d="M126.49 40.21c5.29,-1.33 7.11,6.98 1.85,8.24 -5.35,1.28 -7.21,-6.89 -1.85,-8.24zm-2.74 -2.4c0.51,2.15 -0.82,3 -2.82,2.81l-0.65 1.8c0.72,0.28 1.24,0.7 1.26,1.82 0.03,1.24 -0.59,1.51 -1.18,2.09l0.6 1.68c1.99,-0.2 3.33,0.68 2.78,2.83l1.61 0.72 0.32 -0.34c2.02,-2.15 3.29,-0.04 3.75,0.33l1.62 -0.69c-0.5,-2.13 0.79,-3.1 2.82,-2.81l0.61 -1.71c-0.6,-0.55 -1.17,-0.83 -1.21,-1.91 -0.05,-1.18 0.55,-1.68 1.22,-1.97l-0.63 -1.85c-2.09,0.3 -3.17,-0.75 -2.81,-2.82l-1.61 -0.71c-0.67,0.56 -0.74,1.27 -2.04,1.25 -1.12,-0.01 -1.49,-0.77 -2.04,-1.24l-1.6 0.72z"/>
     <path class="fil7" d="M49.92 40.21c5.12,-1.27 7.28,6.91 1.85,8.24 -5.32,1.3 -7.28,-6.89 -1.85,-8.24zm-2.75 -2.41c0.46,2.12 -0.79,3.05 -2.82,2.81l-0.66 1.82c0.71,0.28 1.24,0.7 1.27,1.82 0.02,1.21 -0.6,1.5 -1.18,2.08l0.6 1.69c1.92,-0.18 3.3,0.6 2.78,2.83l1.62 0.7c0.6,-0.47 0.7,-1.24 2.03,-1.23 1.13,0 1.53,0.71 2.04,1.23l1.61 -0.7c-0.55,-2.14 0.82,-3.06 2.81,-2.81l0.62 -1.7c-0.62,-0.54 -1.17,-0.82 -1.21,-1.91 -0.05,-1.19 0.53,-1.68 1.22,-1.97l-0.64 -1.84c-2.06,0.26 -3.2,-0.72 -2.8,-2.81l-1.6 -0.73c-0.67,0.52 -0.77,1.25 -2.04,1.26 -1.2,0 -1.4,-0.8 -2.04,-1.25l-1.61 0.71z"/>
     <path class="fil6" d="M86.67 68.13c0.43,0.73 0.16,2.55 0.17,3.56l5.8 0c0,-3.26 -0.42,-3.88 0.7,-3.95 0.54,-0.04 1.08,-0.11 1.24,0.3l0.1 3.78 1.01 -0.01c0.18,-1.31 0.32,-5.47 -0.21,-6.26 -0.7,-0.47 -11.05,-0.46 -12,-0.03 -0.19,0.98 -0.23,5.17 -0.05,6.3l1.45 0 0.02 -3.7 1.77 0.01z"/>
     <path class="fil5" d="M88.46 53.4c4.95,-1.29 6.88,6.39 2,7.75 -2.31,0.65 -4.37,-0.98 -4.83,-2.76 -0.64,-2.49 1.01,-4.51 2.83,-4.99zm-0.29 -1.85c-7.7,1.88 -4.69,13.35 2.63,11.46 2.59,-0.67 5.04,-3.5 4.22,-7.03 -0.64,-2.75 -3.32,-5.29 -6.85,-4.43z"/>
     <path class="fil9" d="M75.05 82.3c1.63,-5.34 -6.48,-7.72 -7.86,-2.38 -1.43,5.51 6.3,7.48 7.86,2.38z"/>
     <path class="fil10" d="M103.25 82.11c0.8,5.22 9.08,4.32 8.07,-1.51 -0.89,-5.15 -8.93,-4.1 -8.07,1.51z"/>
     <path class="fil11" d="M92.71 89.87c0.68,-2.49 -1.14,-4.63 -2.91,-5.08 -2.57,-0.65 -4.61,1.06 -5.07,3.07 -1.2,5.36 6.51,7.38 7.98,2.01z"/>
     <path class="fil12" d="M88.59 32.84c-5.19,1.76 -2.54,9.6 2.49,7.95 5.18,-1.7 2.73,-9.72 -2.49,-7.95z"/>
     <path class="fil13" d="M106.92 40.99c-5.59,1.42 -3.28,9.44 1.92,8.12 1.89,-0.48 3.53,-2.6 2.9,-5.14 -0.46,-1.9 -2.34,-3.61 -4.82,-2.98z"/>
     <path class="fil14" d="M110.82 63.18c0.31,2.01 2.31,3.8 4.72,3.42 2.07,-0.32 3.81,-2.32 3.34,-4.92 -0.93,-5.21 -8.92,-4.11 -8.06,1.5z"/>
     <path class="fil15" d="M59.93 63.37c0.38,5.32 8.62,4.89 8.16,-0.77 -0.43,-5.3 -8.56,-4.91 -8.16,0.77z"/>
     <path class="fil16" d="M70.23 40.58c-5.28,1.83 -2.62,9.6 2.53,7.96 1.8,-0.58 3.33,-2.71 2.61,-5.19 -0.53,-1.82 -2.69,-3.62 -5.14,-2.77z"/>
     <path class="fil6" d="M88.46 53.4c-1.82,0.48 -3.47,2.5 -2.83,4.99 0.46,1.78 2.52,3.41 4.83,2.76 4.88,-1.36 2.95,-9.04 -2,-7.75z"/>
     <path class="fil8" d="M120.96 48.01l-0.6 -1.68c0.59,-0.58 1.21,-0.85 1.18,-2.09 -0.02,-1.12 -0.54,-1.54 -1.26,-1.82l0.65 -1.8c2,0.19 3.33,-0.66 2.82,-2.81l1.6 -0.72c0.55,0.47 0.92,1.23 2.04,1.24 1.3,0.02 1.37,-0.69 2.04,-1.25l1.61 0.71c-0.36,2.07 0.72,3.12 2.81,2.82l0.63 1.85c-0.67,0.29 -1.27,0.79 -1.22,1.97 0.04,1.08 0.61,1.36 1.21,1.91l-0.61 1.71c-2.03,-0.29 -3.32,0.68 -2.82,2.81l-1.62 0.69c-0.46,-0.37 -1.73,-2.48 -3.75,-0.33l-0.32 0.34 -1.61 -0.72c0.55,-2.15 -0.79,-3.03 -2.78,-2.83zm11.04 1.16c0.55,-0.67 1.38,-0.28 2.29,-0.37 2.31,-4.19 -0.34,-2.59 -0.25,-4.55 0.08,-1.85 2.46,-0.2 0.29,-4.4 -0.82,-0.11 -1.71,0.3 -2.3,-0.37 -0.64,-0.73 -0.04,-1.25 -0.31,-2.12 -0.2,-0.38 -2.24,-1.22 -2.67,-1.06 -0.52,0.19 -1.2,2.76 -3.11,0.01 -0.81,-0.07 -1.26,0.2 -1.95,0.48 -0.87,0.34 -1.04,0.26 -0.97,1.31 0.16,2.37 -1.02,1.5 -2.55,1.75 -1.95,4.29 -0.19,2.35 0.24,4.07 0.48,1.97 -1.81,0.97 -0.95,3.2 0.24,0.62 0.51,1.22 0.76,1.66 1,0.12 1.84,-0.35 2.35,0.47 0.65,1.06 -0.58,1.68 0.76,2.44 3.13,1.77 2.01,-0.57 3.76,-0.58 1.87,0 0.44,2.01 3.11,0.87 2.63,-1.12 0.41,-1.49 1.5,-2.81z"/>
     <path class="fil8" d="M44.38 48.02l-0.6 -1.69c0.58,-0.58 1.2,-0.87 1.18,-2.08 -0.03,-1.12 -0.56,-1.54 -1.27,-1.82l0.66 -1.82c2.03,0.24 3.28,-0.69 2.82,-2.81l1.61 -0.71c0.64,0.45 0.84,1.25 2.04,1.25 1.27,-0.01 1.37,-0.74 2.04,-1.26l1.6 0.73c-0.4,2.09 0.74,3.07 2.8,2.81l0.64 1.84c-0.69,0.29 -1.27,0.78 -1.22,1.97 0.04,1.09 0.59,1.37 1.21,1.91l-0.62 1.7c-1.99,-0.25 -3.36,0.67 -2.81,2.81l-1.61 0.7c-0.51,-0.52 -0.91,-1.23 -2.04,-1.23 -1.33,-0.01 -1.43,0.76 -2.03,1.23l-1.62 -0.7c0.52,-2.23 -0.86,-3.01 -2.78,-2.83zm-0.5 -8.17c-2.08,4.41 0.2,2.35 0.29,4.41 0.08,1.91 -2.57,0.39 -0.24,4.53 0.9,0.09 1.73,-0.31 2.28,0.37 1.02,1.25 -1.06,1.72 1.49,2.81 2.67,1.15 1.29,-0.87 3.11,-0.86 1.72,0.02 0.65,2.35 3.77,0.59 1.33,-0.76 0.09,-1.38 0.76,-2.43 0.52,-0.82 1.36,-0.36 2.37,-0.47 2.21,-4.14 -0.13,-2.55 -0.24,-4.38 -0.13,-2.1 2.47,-0.17 0.27,-4.56 -0.74,-0.11 -1.6,0.25 -2.2,-0.27 -1.33,-1.16 1.06,-1.82 -1.59,-2.91 -2.66,-1.09 -1.29,0.67 -3,0.85 -0.95,0.1 -1.25,-0.7 -1.6,-1.21 -0.81,-0.08 -1.25,0.2 -1.94,0.47 -0.88,0.34 -1.04,0.25 -0.97,1.32 0.15,2.34 -1.02,1.51 -2.56,1.74z"/>
     <path class="fil8" d="M44.58 82.91c0.22,-0.33 0.33,-0.74 0.33,-1.18 0.01,-0.51 -0.15,-1 -0.38,-1.32l-0.84 -0.77 0.68 -1.66c2.18,0.43 3.05,-0.71 2.78,-2.83l1.63 -0.65c0.58,0.53 0.88,1.23 2.03,1.23 1.1,-0.01 1.55,-0.54 1.8,-1.29l1.8 0.64c-0.31,2.47 0.66,2.99 2.82,3.01l0.6 1.56c-0.56,0.61 -1.21,0.95 -1.21,2.08 0,1.19 0.77,1.44 1.21,2.08l-0.56 1.57c-2.25,0.01 -3.15,0.4 -2.9,2.95l-1.77 0.65c-0.26,-0.76 -0.78,-1.33 -1.97,-1.26 -1.07,0.06 -1.31,0.68 -1.86,1.24l-1.62 -0.64c0.15,-2.06 -0.65,-3.23 -2.83,-2.89l-0.61 -1.62c0.17,-0.23 0.07,-0.08 0.31,-0.31 0.03,-0.03 0.07,-0.07 0.1,-0.1l0.46 -0.49zm1.82 -8.2c-0.09,0.96 0.34,1.76 -0.37,2.33 -0.53,0.43 -1.31,0.12 -2.06,0.19 -0.44,0.54 -1.09,1.82 -1.04,2.79 0.55,0.59 1.2,0.65 1.2,1.71 0,1.07 -0.7,1.03 -1.22,1.7 -0.01,0.98 0.63,2.26 1.1,2.78 0.74,0.06 1.39,-0.29 1.98,0.26 0.62,0.56 0.3,1.38 0.41,2.27 3.89,2.37 2.53,-0.09 4.24,-0.21 2.32,-0.18 -0.13,2.46 4.49,0.31 0.12,-0.87 -0.3,-1.61 0.24,-2.26 0.56,-0.67 1.34,-0.22 2.19,-0.41 0.51,-0.63 1.12,-1.92 1.02,-2.97 -1.63,-1.03 -1.65,-1.91 0,-2.94 0.1,-1.05 -0.5,-2.35 -1.01,-2.98 -0.8,-0.16 -1.5,0.24 -2.09,-0.32 -0.62,-0.59 -0.23,-1.58 -0.34,-2.36 -4.54,-2.07 -2.16,0.29 -4.33,0.32 -1.67,0.03 -0.79,-2.69 -4.41,-0.21z"/>
     <path class="fil8" d="M125.35 74.54c0.58,0.55 0.85,1.24 2.04,1.22 1.1,-0.03 1.55,-0.52 1.81,-1.29l1.74 0.65c-0.14,2.59 0.52,2.93 2.86,3.01l0.6 1.52c-0.14,0.2 -0.06,0.09 -0.25,0.3 -1.86,2.07 -0.84,2.61 0.26,3.87l-0.64 1.6c-1.12,0.05 -3.25,-0.2 -2.81,2.93l-1.81 0.66c-0.27,-0.71 -0.79,-1.32 -1.94,-1.26 -1.02,0.06 -1.32,0.7 -1.87,1.25l-1.65 -0.65c0.3,-2.1 -0.59,-3.32 -2.77,-2.86l-0.64 -1.68c0.04,-0.04 0.09,-0.08 0.12,-0.1l0.77 -0.77c0.53,-0.88 0.54,-2.53 -0.96,-3.05l0.64 -1.88c2.15,0.36 3.04,-0.69 2.9,-2.84l1.6 -0.63zm-2.36 0.2c-0.13,0.88 0.21,1.7 -0.41,2.26 -0.59,0.54 -1.25,0.19 -1.99,0.26 -0.47,0.51 -1.11,1.78 -1.11,2.76 0.51,0.69 1.21,0.64 1.22,1.71 0.02,1.05 -0.66,1.13 -1.21,1.7 -0.02,0.98 0.58,2.25 1.03,2.81 1.02,0.07 1.16,-0.16 2.14,0.16 0.52,1.06 0.19,1.12 0.29,2.38 0.38,0.25 1.02,0.53 1.61,0.78 2.26,0.96 1.22,-1.46 3.13,-0.97 0.68,0.18 0.77,0.75 1.24,1.19 1.01,0.08 2.78,-0.63 2.8,-1.57 0.02,-0.65 -0.21,-1.25 0.33,-1.7 0.58,-0.5 1.35,-0.15 2.11,-0.31 0.42,-0.59 1.03,-1.84 1,-2.77 -0.19,-0.53 -2.65,-1.31 0,-3.14 0.06,-0.94 0.01,-0.84 -0.32,-1.66 -0.46,-1.1 -0.29,-1.07 -0.8,-1.31 -0.74,-0.24 -1.33,0.38 -2.04,-0.32 -0.63,-0.64 -0.16,-1.45 -0.32,-2.36 -4.34,-1.83 -2.14,-0.35 -3.82,0.23 -2.05,0.71 -1.01,-1.85 -3.27,-0.93 -0.59,0.23 -1.19,0.49 -1.61,0.8z"/>
     <path class="fil17" d="M50.82 41.2c-4.17,0 -4.01,6.27 0,6.28 3.99,0 4.17,-6.28 0,-6.28z"/>
     <path class="fil17" d="M124.29 82.3c0.7,3.88 6.46,3.28 6.08,-0.95 -0.38,-4.22 -6.83,-3.21 -6.08,0.95z"/>
     <path class="fil17" d="M47.69 82.11c0.46,3.91 6.48,3.53 6.12,-0.76 -0.33,-3.93 -6.61,-3.46 -6.12,0.76z"/>
     <path class="fil17" d="M127.39 41.2c-4.15,0.01 -4,6.26 0,6.28 3.97,0.01 4.01,-6.28 0,-6.28z"/>
     <path class="fil5" d="M127.39 41.2c4.01,0 3.97,6.29 0,6.28 -4,-0.02 -4.15,-6.27 0,-6.28zm-0.9 -0.99c-5.36,1.35 -3.5,9.52 1.85,8.24 5.26,-1.26 3.44,-9.57 -1.85,-8.24z"/>
     <path class="fil5" d="M47.69 82.11c-0.49,-4.22 5.79,-4.69 6.12,-0.76 0.36,4.29 -5.66,4.67 -6.12,0.76zm1.87 -4.4c-5.18,1.6 -2.86,9.75 2.44,8.07 4.97,-1.58 3.01,-9.76 -2.44,-8.07z"/>
     <path class="fil5" d="M50.82 41.2c4.17,0 3.99,6.28 0,6.28 -4.01,-0.01 -4.17,-6.28 0,-6.28zm-0.9 -0.99c-5.43,1.35 -3.47,9.54 1.85,8.24 5.43,-1.33 3.27,-9.51 -1.85,-8.24z"/>
     <path class="fil5" d="M124.29 82.3c-0.75,-4.16 5.7,-5.17 6.08,-0.95 0.38,4.23 -5.38,4.83 -6.08,0.95zm1.9 -4.56c-5.41,1.75 -2.83,9.68 2.4,8.06 5.1,-1.58 2.8,-9.74 -2.4,-8.06z"/>
     <path class="fil6" d="M83.3 73.72c0.17,0.17 0.1,0.12 0.36,0.31 3.77,2.84 11.39,0.77 11.67,-0.2 0.02,-0.07 0.08,-0.07 0.12,-0.11l-12.15 0z"/>
     <path class="fil18" d="M86.67 68.13l0.08 3.75 6.04 -0.06 0.01 -3.92 1.78 0.14c-0.16,-0.41 -0.7,-0.34 -1.24,-0.3 -1.12,0.07 -0.7,0.69 -0.7,3.95l-5.8 0c-0.01,-1.01 0.26,-2.83 -0.17,-3.56z"/>
     <polygon class="fil19" points="91.63,48.86 90.72,48.41 90.78,44.46 90.48,48.71 "/>
    </g>
   </g>
  </g>
 </g>
</svg>
