<?xml version="1.0" encoding="UTF-8"?>
<!DOCTYPE svg PUBLIC "-//W3C//DTD SVG 1.1//EN" "http://www.w3.org/Graphics/SVG/1.1/DTD/svg11.dtd">
<!-- Creator: CorelDRAW 2021 (64 Bit) -->
<svg xmlns="http://www.w3.org/2000/svg" xml:space="preserve" width="400px" height="400px" version="1.1" style="shape-rendering:geometricPrecision; text-rendering:geometricPrecision; image-rendering:optimizeQuality; fill-rule:evenodd; clip-rule:evenodd"
viewBox="0 0 2.26 2.26"
 xmlns:xlink="http://www.w3.org/1999/xlink"
 xmlns:xodm="http://www.corel.com/coreldraw/odm/2003">
 <defs>
  <style type="text/css">
   <![CDATA[
    .str2 {stroke:#FF0303;stroke-width:0.11;stroke-miterlimit:22.9256}
    .str1 {stroke:#00E6FF;stroke-width:0.17;stroke-miterlimit:22.9256}
    .str0 {stroke:#C4C4C4;stroke-width:0.17;stroke-miterlimit:22.9256}
    .str3 {stroke:#FF0303;stroke-width:0.14;stroke-miterlimit:22.9256}
    .fil2 {fill:none}
    .fil6 {fill:black}
    .fil4 {fill:#999999}
    .fil1 {fill:yellow}
    .fil0 {fill:white}
    .fil5 {fill:black;fill-rule:nonzero}
    .fil3 {fill:#999999;fill-rule:nonzero}
   ]]>
  </style>
 </defs>
 <g id="Camada_x0020_1">
  <metadata id="CorelCorpID_0Corel-Layer"/>
  <g id="_2069507557840">
   <circle class="fil0 str0" cx="1.13" cy="1.13" r="1.04"/>
   <g>
    <g>
     <ellipse class="fil1 str1" cx="1.12" cy="0.93" rx="0.64" ry="0.66"/>
     <path class="fil2 str2" d="M0.74 0.94c0.05,0.17 0.14,0.29 0.29,0.35 0.01,-0.02 0.02,-0.04 0.03,-0.06 0.02,-0.04 0.03,-0.03 0.05,-0.02 0.04,0.02 0.09,0.03 0.13,0.05 0.02,0.01 0.02,0 0.02,0.03l0.01 0.08c-0.01,0.06 -0.06,0.1 -0.11,0.1 -0.07,0 -0.12,0 -0.17,-0.02 -0.22,-0.1 -0.34,-0.28 -0.39,-0.45 -0.02,-0.06 -0.02,-0.11 -0.02,-0.17 0,-0.02 0.01,-0.08 0.03,-0.1 0.01,-0.01 0.02,-0.03 0.06,-0.03 0.03,0 0.05,-0.01 0.09,-0.01 0.01,0 0.01,0 0.01,0.01 0.02,0.06 0.03,0.12 0.05,0.17 0,0.02 0,0.02 -0.01,0.03 -0.02,0.01 -0.05,0.03 -0.07,0.04z"/>
     <path class="fil2 str3" d="M0.88 0.7c0.12,0.01 0.22,0.06 0.31,0.16 0.08,0.11 0.11,0.21 0.1,0.32"/>
     <path class="fil2 str3" d="M1.2 0.52c0.08,0.01 0.15,0.05 0.21,0.12 0.06,0.08 0.08,0.15 0.08,0.22"/>
     <path class="fil2 str3" d="M1.04 0.59c0.1,0.02 0.19,0.07 0.26,0.16 0.07,0.08 0.1,0.17 0.1,0.27"/>
     <path class="fil2 str3" d="M1.34 0.46c0.06,0.01 0.12,0.04 0.17,0.09 0.04,0.06 0.06,0.12 0.06,0.18"/>
    </g>
    <g>
     <polygon class="fil3" points="0.42,1.71 0.42,1.47 0.62,1.47 0.62,1.51 0.48,1.51 0.48,1.57 0.6,1.57 0.6,1.61 0.48,1.61 0.48,1.71 "/>
     <path id="_1" class="fil3" d="M0.66 1.59c0,-0.02 0,-0.04 0.01,-0.06 0.01,-0.01 0.02,-0.02 0.03,-0.03 0.01,-0.01 0.02,-0.02 0.04,-0.02 0.01,-0.01 0.03,-0.01 0.06,-0.01 0.04,0 0.08,0.01 0.1,0.03 0.03,0.02 0.04,0.05 0.04,0.09 0,0.04 -0.01,0.07 -0.04,0.09 -0.02,0.03 -0.06,0.04 -0.1,0.04 -0.04,0 -0.08,-0.01 -0.11,-0.04 -0.02,-0.02 -0.03,-0.05 -0.03,-0.09zm0.06 0c0,0.03 0.01,0.05 0.02,0.06 0.02,0.02 0.04,0.02 0.06,0.02 0.02,0 0.04,0 0.06,-0.02 0.01,-0.01 0.02,-0.03 0.02,-0.06 0,-0.03 -0.01,-0.05 -0.02,-0.06 -0.02,-0.01 -0.04,-0.02 -0.06,-0.02 -0.02,0 -0.04,0.01 -0.06,0.02 -0.01,0.01 -0.02,0.03 -0.02,0.06z"/>
     <polygon id="_2" class="fil3" points="0.99,1.71 0.99,1.47 1.05,1.47 1.17,1.63 1.17,1.47 1.22,1.47 1.22,1.71 1.16,1.71 1.04,1.55 1.04,1.71 "/>
     <polygon id="_3" class="fil3" points="1.29,1.71 1.29,1.47 1.51,1.47 1.51,1.51 1.35,1.51 1.35,1.57 1.5,1.57 1.5,1.61 1.35,1.61 1.35,1.67 1.51,1.67 1.51,1.71 "/>
     <path id="_4" class="fil3" d="M1.55 1.63l0.06 0c0,0.02 0.01,0.03 0.02,0.03 0.01,0.01 0.02,0.02 0.04,0.02 0.02,0 0.03,-0.01 0.04,-0.01 0.01,-0.01 0.02,-0.02 0.02,-0.03 0,0 0,-0.01 -0.01,-0.01 0,-0.01 -0.01,-0.01 -0.02,-0.01 -0.01,0 -0.02,-0.01 -0.05,-0.01 -0.03,-0.01 -0.05,-0.02 -0.06,-0.03 -0.02,-0.01 -0.03,-0.03 -0.03,-0.05 0,-0.01 0,-0.02 0.01,-0.03 0.01,-0.01 0.02,-0.02 0.04,-0.02 0.01,-0.01 0.03,-0.01 0.06,-0.01 0.03,0 0.06,0 0.08,0.02 0.02,0.01 0.03,0.03 0.03,0.05l-0.06 0c0,-0.01 -0.01,-0.02 -0.02,-0.02 -0.01,-0.01 -0.02,-0.01 -0.03,-0.01 -0.02,0 -0.04,0 -0.05,0.01 0,0 0,0 0,0.01 0,0.01 0,0.01 0,0.02 0.01,0 0.03,0.01 0.06,0.01 0.03,0.01 0.05,0.01 0.06,0.02 0.02,0.01 0.03,0.01 0.04,0.02 0,0.01 0.01,0.03 0.01,0.04 0,0.02 -0.01,0.03 -0.02,0.04 -0.01,0.01 -0.02,0.02 -0.04,0.03 -0.01,0 -0.04,0.01 -0.06,0.01 -0.04,0 -0.07,-0.01 -0.09,-0.02 -0.02,-0.02 -0.03,-0.04 -0.03,-0.07z"/>
     <polygon id="_5" class="fil4" points="0.39,1.74 1.81,1.74 1.81,1.76 0.39,1.76 "/>
     <polygon class="fil5" points="0.45,1.69 0.45,1.45 0.65,1.45 0.65,1.49 0.51,1.49 0.51,1.54 0.64,1.54 0.64,1.58 0.51,1.58 0.51,1.69 "/>
     <path id="_1_0" class="fil5" d="M0.69 1.57c0,-0.03 0.01,-0.05 0.01,-0.06 0.01,-0.02 0.02,-0.03 0.03,-0.04 0.01,-0.01 0.03,-0.01 0.04,-0.02 0.02,0 0.04,-0.01 0.06,-0.01 0.05,0 0.08,0.01 0.11,0.04 0.03,0.02 0.04,0.05 0.04,0.09 0,0.04 -0.01,0.07 -0.04,0.09 -0.03,0.02 -0.06,0.03 -0.1,0.03 -0.05,0 -0.08,-0.01 -0.11,-0.03 -0.03,-0.02 -0.04,-0.05 -0.04,-0.09zm0.06 0c0,0.02 0.01,0.04 0.03,0.06 0.01,0.01 0.03,0.02 0.06,0.02 0.02,0 0.04,-0.01 0.05,-0.02 0.02,-0.02 0.03,-0.04 0.03,-0.06 0,-0.03 -0.01,-0.05 -0.03,-0.07 -0.01,-0.01 -0.03,-0.02 -0.05,-0.02 -0.03,0 -0.05,0.01 -0.06,0.02 -0.02,0.02 -0.03,0.04 -0.03,0.07z"/>
     <polygon id="_2_1" class="fil5" points="1.02,1.69 1.02,1.45 1.08,1.45 1.2,1.61 1.2,1.45 1.26,1.45 1.26,1.69 1.2,1.69 1.08,1.53 1.08,1.69 "/>
     <polygon id="_3_2" class="fil5" points="1.32,1.69 1.32,1.45 1.54,1.45 1.54,1.49 1.38,1.49 1.38,1.54 1.53,1.54 1.53,1.58 1.38,1.58 1.38,1.65 1.55,1.65 1.55,1.69 "/>
     <path id="_4_3" class="fil5" d="M1.58 1.61l0.06 -0.01c0,0.02 0.01,0.03 0.02,0.04 0.01,0.01 0.03,0.01 0.05,0.01 0.01,0 0.03,0 0.04,-0.01 0.01,-0.01 0.01,-0.01 0.01,-0.02 0,-0.01 0,-0.01 0,-0.02 -0.01,0 -0.01,0 -0.02,-0.01 -0.01,0 -0.03,0 -0.05,-0.01 -0.03,0 -0.06,-0.01 -0.07,-0.02 -0.02,-0.02 -0.03,-0.03 -0.03,-0.05 0,-0.01 0.01,-0.02 0.02,-0.04 0.01,-0.01 0.02,-0.01 0.03,-0.02 0.02,-0.01 0.04,-0.01 0.06,-0.01 0.04,0 0.07,0.01 0.08,0.02 0.02,0.02 0.03,0.03 0.03,0.06l-0.06 0c0,-0.02 0,-0.02 -0.01,-0.03 -0.01,0 -0.02,-0.01 -0.04,-0.01 -0.02,0 -0.03,0.01 -0.04,0.01 -0.01,0 -0.01,0.01 -0.01,0.02 0,0 0,0.01 0.01,0.01 0.01,0.01 0.03,0.01 0.05,0.02 0.03,0 0.05,0.01 0.07,0.01 0.01,0.01 0.02,0.02 0.03,0.03 0.01,0.01 0.01,0.02 0.01,0.04 0,0.01 0,0.02 -0.01,0.04 -0.01,0.01 -0.02,0.02 -0.04,0.02 -0.02,0.01 -0.04,0.01 -0.07,0.01 -0.03,0 -0.06,-0.01 -0.08,-0.02 -0.02,-0.01 -0.03,-0.03 -0.04,-0.06z"/>
     <polygon id="_5_4" class="fil6" points="0.42,1.72 1.84,1.72 1.84,1.73 0.42,1.73 "/>
    </g>
   </g>
  </g>
 </g>
</svg>
