<?xml version="1.0" encoding="UTF-8"?>
<!DOCTYPE svg PUBLIC "-//W3C//DTD SVG 1.1//EN" "http://www.w3.org/Graphics/SVG/1.1/DTD/svg11.dtd">
<!-- Creator: CorelDRAW 2021 (64 Bit) -->
<svg xmlns="http://www.w3.org/2000/svg" xml:space="preserve" width="337px" height="330px" version="1.1" style="shape-rendering:geometricPrecision; text-rendering:geometricPrecision; image-rendering:optimizeQuality; fill-rule:evenodd; clip-rule:evenodd"
viewBox="0 0 3.82 3.74"
 xmlns:xlink="http://www.w3.org/1999/xlink"
 xmlns:xodm="http://www.corel.com/coreldraw/odm/2003">
 <defs>
  <style type="text/css">
   <![CDATA[
    .str0 {stroke:#C4C4C4;stroke-width:0.34;stroke-miterlimit:22.9256}
    .str8 {stroke:#F5A980;stroke-width:0.05;stroke-miterlimit:22.9256}
    .str7 {stroke:black;stroke-width:0.01;stroke-miterlimit:22.9256}
    .str1 {stroke:#0D999A;stroke-width:0.01;stroke-miterlimit:22.9256}
    .str13 {stroke:#DBDBDB;stroke-width:0.01;stroke-miterlimit:22.9256}
    .str5 {stroke:#F5A980;stroke-width:0.01;stroke-miterlimit:22.9256}
    .str2 {stroke:#FA0505;stroke-width:0.01;stroke-miterlimit:22.9256}
    .str3 {stroke:#030303;stroke-width:0.09;stroke-miterlimit:22.9256}
    .str15 {stroke:black;stroke-width:0.02;stroke-miterlimit:22.9256}
    .str4 {stroke:#030303;stroke-width:0.02;stroke-miterlimit:22.9256}
    .str11 {stroke:#F5A980;stroke-width:0.02;stroke-miterlimit:22.9256}
    .str16 {stroke:black;stroke-width:0.03;stroke-miterlimit:22.9256}
    .str12 {stroke:#F5A980;stroke-width:0.03;stroke-miterlimit:22.9256}
    .str9 {stroke:#DBDBDB;stroke-width:0.01;stroke-miterlimit:22.9256}
    .str14 {stroke:#F5A980;stroke-width:0.01;stroke-miterlimit:22.9256}
    .str10 {stroke:#E1E1E1;stroke-width:0.01;stroke-miterlimit:22.9256}
    .str6 {stroke:#454545;stroke-width:0.17;stroke-linecap:round;stroke-miterlimit:22.9256}
    .fil3 {fill:none}
    .fil6 {fill:black}
    .fil7 {fill:black}
    .fil4 {fill:#003399}
    .fil14 {fill:#020305}
    .fil12 {fill:#23A342}
    .fil2 {fill:#33CC99}
    .fil9 {fill:#666666}
    .fil16 {fill:gray}
    .fil13 {fill:#94A1A7}
    .fil8 {fill:#999999}
    .fil11 {fill:#CCCCCC}
    .fil1 {fill:#E6E6E6}
    .fil10 {fill:#F5A980}
    .fil5 {fill:#F5B796}
    .fil15 {fill:red}
    .fil0 {fill:white}
    .fil17 {fill:white;fill-rule:nonzero}
   ]]>
  </style>
 </defs>
 <g id="Camada_x0020_1">
  <metadata id="CorelCorpID_0Corel-Layer"/>
  <g id="_2072253075136">
   <ellipse class="fil0 str0" cx="1.91" cy="1.87" rx="1.74" ry="1.7"/>
   <g>
    <polygon class="fil0 str1" points="2.26,2.05 2.06,2.4 1.92,2.19 2.2,1.91 "/>
    <polygon class="fil0 str2" points="1.56,2.07 1.79,2.39 1.91,2.19 1.61,1.91 "/>
    <path class="fil0 str2" d="M1.56 2.06l0.23 0.35 0.03 -0.06 0.04 0.03 0 0.55c-0.29,0 -0.57,0 -0.86,0 -0.04,0.01 -0.07,-0.04 -0.07,-0.07 0.01,-0.08 0.03,-0.3 0.04,-0.5 0.01,-0.09 0.03,-0.09 0.09,-0.11 0.1,-0.03 0.48,-0.18 0.5,-0.19z"/>
    <path class="fil1 str2" d="M2.26 2.06l-0.2 0.35 -0.04 -0.06 -0.04 0.03 0.02 0.55c0.28,0.01 0.44,0.01 0.73,0.01 0.08,0 0.1,-0.02 0.1,-0.08 -0.01,-0.08 -0.02,-0.3 -0.04,-0.5 -0.01,-0.06 -0.01,-0.09 -0.07,-0.11 -0.09,-0.04 -0.43,-0.18 -0.46,-0.19z"/>
    <path class="fil2 str3" d="M2.76 2.94l-1.76 0c-0.04,0 -0.08,-0.03 -0.07,-0.08 0.01,-0.18 0.02,-0.35 0.04,-0.52 0,-0.04 0.02,-0.07 0.06,-0.08l0.54 -0.2 0.05 -0.15 0.3 0.28 0.27 -0.29 0.07 0.15 0.49 0.21c0.02,0.02 0.04,0.04 0.04,0.08 0.02,0.18 0.03,0.35 0.05,0.52 0.01,0.05 -0.03,0.08 -0.08,0.08z"/>
    <polyline class="fil3 str3" points="1.57,2.07 1.79,2.4 1.91,2.2 2.06,2.4 2.26,2.06 "/>
    <polygon class="fil4 str4" points="2.01,2.35 1.91,2.21 1.83,2.35 1.87,2.39 1.86,2.94 2.02,2.94 1.98,2.39 "/>
    <path class="fil5 str5" d="M1.68 1.94l0.23 0.23 0.22 -0.23 0 -0.09c-0.05,0.04 -0.1,0.09 -0.14,0.14 -0.03,0.03 -0.11,0.03 -0.15,0l-0.16 -0.14 0 0.09z"/>
    <path class="fil5 str5" d="M2.34 1.29c-0.01,0 -0.02,0.02 -0.03,0.04l0.01 -0.05 -0.11 -0.08 0 -0.18 -0.16 -0.01 -0.14 0.05 -0.13 -0.05 -0.18 0.01 -0.01 0.15 -0.07 0.1c-0.01,-0.01 -0.02,-0.02 -0.03,-0.04 -0.01,-0.01 -0.02,-0.01 -0.03,0 -0.02,0 -0.02,0.01 -0.03,0.03 0,0.03 0,0.05 0,0.08l0.02 0.09c0.01,0.01 0.02,0.02 0.03,0.02 0.01,0 0.02,0 0.03,-0.02 0.01,0.07 0.02,0.13 0.04,0.19 0.03,0.08 0.07,0.15 0.12,0.22 0.06,0.05 0.11,0.1 0.17,0.15 0.05,0.04 0.1,0.04 0.15,0 0.07,-0.07 0.15,-0.14 0.21,-0.21 0.03,-0.05 0.06,-0.09 0.07,-0.14 0.02,-0.05 0.03,-0.11 0.04,-0.16 0,0.01 0.01,0.01 0.01,0.01 0.01,0 0.03,0 0.04,-0.01 0.02,-0.05 0.04,-0.1 0.04,-0.14 0.01,-0.02 0,-0.03 -0.02,-0.04 -0.01,-0.01 -0.03,-0.01 -0.04,-0.01z"/>
    <path class="fil6" d="M2.09 1.35c-0.02,0.01 -0.03,0.02 -0.03,0.05 0.01,0.02 0.03,0.04 0.05,0.03 0.05,-0.01 0.04,-0.09 -0.02,-0.08z"/>
    <path class="fil6" d="M1.73 1.35c-0.06,0.01 -0.04,0.09 0.01,0.08 0.02,0 0.04,-0.02 0.04,-0.05 -0.01,-0.02 -0.03,-0.03 -0.05,-0.03z"/>
    <line class="fil3 str6" x1="1.63" y1="1.24" x2="1.85" y2= "1.26" />
    <path class="fil7 str7" d="M1.61 1.19l-0.09 0.12c-0.03,-0.1 -0.01,-0.21 0.05,-0.36 0.06,-0.13 0.08,-0.18 0.17,-0.19 0.15,-0.02 0.15,-0.02 0.32,-0.01 0.07,0.01 0.14,0.08 0.19,0.2 0.04,0.11 0.1,0.22 0.08,0.36 -0.04,-0.03 -0.08,-0.06 -0.12,-0.09 -0.01,-0.06 -0.01,-0.12 0,-0.18 -0.06,0.02 -0.1,0.02 -0.15,0 -0.07,0.06 -0.19,0.06 -0.28,0 -0.05,0.01 -0.1,0.02 -0.16,0 0,0.05 0,0.11 -0.01,0.15z"/>
    <line class="fil3 str6" x1="2.18" y1="1.24" x2="1.97" y2= "1.26" />
    <path class="fil8" d="M2.09 1.35c-0.01,-0.02 0.02,-0.04 0.07,-0.03 0.03,0 0.05,0.01 0.06,0.03 0,0.01 0.01,0.01 0,0.02l-0.02 0.01c-0.03,-0.02 -0.07,-0.03 -0.11,-0.03z"/>
    <path class="fil8" d="M1.77 1.35c0,-0.02 -0.03,-0.04 -0.08,-0.03 -0.03,0 -0.05,0.01 -0.06,0.03 0,0.01 0,0.01 0,0.02l0.02 0.01c0.03,-0.02 0.07,-0.03 0.12,-0.03z"/>
    <path class="fil3 str8" d="M2 1.31l-0.03 0.02 -0.01 0.06 -0.01 0.1 0.01 0.05 0.04 0.06c0,0 0,0.01 0,0.01l-0.07 0.05c-0.01,0.01 -0.02,0.01 -0.03,0l-0.08 -0.05 0 -0.02 0.03 -0.06 0.01 -0.04 -0.02 -0.1 -0.02 -0.06 -0.04 -0.03"/>
    <g>
     <path class="fil9" d="M2.04 1.73l-0.25 0c-0.01,0 -0.01,0 0,0l0.05 0.05c0.02,0.02 0.05,0.02 0.07,0.02 0.03,0 0.05,0 0.07,-0.01l0.06 -0.05c0.01,-0.01 0,-0.01 0,-0.01z"/>
     <g>
      <path class="fil0 str9" d="M1.83 1.72l0 0.02c0,0.01 0,0.01 0.01,0.01 0.01,0 0.02,0 0.02,0 0.01,0 0.01,0 0.02,0 0.01,0 0.02,0 0.03,0 0.01,0 0.03,0 0.04,0 0,0 0.01,0 0.02,0 0.01,0 0.01,0 0.02,0l0.01 0c0,0 0.01,-0.01 0.01,-0.01l0 -0.03c-0.06,0.01 -0.12,0.01 -0.18,0.01z"/>
      <line class="fil3 str10" x1="1.95" y1="1.73" x2="1.95" y2= "1.75" />
      <line class="fil3 str10" x1="1.97" y1="1.73" x2="1.97" y2= "1.75" />
      <line class="fil3 str10" x1="1.99" y1="1.73" x2="1.99" y2= "1.75" />
      <line class="fil3 str10" x1="1.84" y1="1.73" x2="1.84" y2= "1.75" />
      <line class="fil3 str10" x1="1.86" y1="1.73" x2="1.86" y2= "1.75" />
      <line class="fil3 str10" x1="1.88" y1="1.73" x2="1.88" y2= "1.75" />
      <line class="fil3 str10" x1="1.91" y1="1.73" x2="1.91" y2= "1.75" />
      <path class="fil3 str11" d="M1.84 1.81l-0.07 -0.08c-0.01,-0.01 0.01,-0.02 0.02,-0.02 0.09,0.01 0.16,0.01 0.25,0 0.03,0 0.03,0.01 0.01,0.03l-0.06 0.07c-0.05,0.03 -0.1,0.03 -0.15,0z"/>
     </g>
    </g>
    <polyline class="fil3 str5" points="1.8,1.91 1.86,1.89 1.91,1.87 1.97,1.88 2.04,1.91 "/>
    <path class="fil3 str12" d="M1.48 1.4c-0.02,-0.03 -0.02,-0.07 -0.02,-0.13 0.01,-0.04 0.02,-0.02 0.02,0 0.02,0.03 0.02,0.05 0.01,0.08"/>
    <path class="fil3 str12" d="M2.33 1.34c0,-0.02 0.01,-0.04 0.03,-0.04 0.02,0 0.04,0.02 0.03,0.04 -0.01,0.05 -0.03,0.08 -0.05,0.09"/>
    <path class="fil3 str11" d="M2.01 1.4c0.01,0.01 0.03,0.01 0.04,0.02 0.03,0.02 0.05,0.04 0.12,-0.01 0.03,-0.02 0.03,0 0.06,-0.01"/>
    <path class="fil3 str11" d="M1.82 1.4c-0.01,0.01 -0.02,0.01 -0.04,0.02 -0.02,0.02 -0.04,0.04 -0.11,-0.01 -0.03,-0.02 -0.03,0 -0.05,-0.01"/>
    <path class="fil3 str11" d="M1.62 1.39c0.01,0 0.03,0.01 0.03,0 0.06,-0.05 0.11,-0.05 0.14,-0.02 0.01,0.01 0.02,0.02 0.03,0.02"/>
    <path class="fil3 str11" d="M2.23 1.39c-0.01,0 -0.02,0.01 -0.03,0 -0.07,-0.05 -0.12,-0.05 -0.15,-0.02 -0.01,0.01 -0.03,0.02 -0.04,0.02"/>
    <path class="fil10 str5" d="M2.04 1.74c-0.1,0.09 -0.19,0.06 -0.27,-0.02 0.07,0.13 0.19,0.15 0.27,0.02z"/>
    <path class="fil11 str5" d="M1.82 1.72c0.01,0 -0.04,0 -0.05,0 0,0 0,0 0.01,0.01 0.01,0.02 0.04,0.03 0.05,0.04l-0.01 -0.05z"/>
    <path class="fil11 str5" d="M2.02 1.72c0,-0.01 0.04,0 0.04,0 0,0.01 -0.03,0.03 -0.05,0.05l0.01 -0.05z"/>
    <path class="fil0" d="M1.89 1.79c-0.02,0 -0.04,-0.01 -0.05,-0.01 0.02,-0.01 0.01,0 0.02,0 0.02,-0.01 0.02,0 0.02,0 0.02,-0.01 0.03,0 0.03,0 0.01,0.01 0,-0.01 0.04,0 0,0 -0.01,-0.01 0.02,0 0.01,0 -0.01,-0.01 0.02,0 -0.01,0 -0.03,0.01 -0.05,0.02 -0.01,0 -0.03,0 -0.05,-0.01z"/>
    <path class="fil3 str13" d="M1.84 1.78c0.01,-0.01 0.01,-0.01 0.02,0 0.01,-0.01 0.01,-0.01 0.02,0 0.01,-0.01 0.02,-0.01 0.03,0 0.02,-0.01 0.03,-0.01 0.04,0 0,-0.01 0.01,-0.01 0.02,0 0.01,-0.01 0.02,-0.01 0.02,0"/>
    <line class="fil3 str9" x1="1.86" y1="1.78" x2="1.86" y2= "1.79" />
    <line class="fil3 str9" x1="1.88" y1="1.78" x2="1.88" y2= "1.79" />
    <line class="fil3 str9" x1="1.91" y1="1.78" x2="1.91" y2= "1.8" />
    <line class="fil3 str9" x1="1.95" y1="1.78" x2="1.95" y2= "1.8" />
    <line class="fil3 str9" x1="1.97" y1="1.78" x2="1.97" y2= "1.79" />
    <path class="fil10 str14" d="M1.9 1.69c-0.01,-0.01 -0.02,-0.01 -0.03,0 -0.02,0.01 -0.05,0.02 -0.08,0.02 -0.02,0 -0.03,0.01 -0.01,0.01 0.01,0 0.03,0 0.05,0 0.05,0.02 0.12,0.02 0.18,0 0.02,0 0.03,0 0.04,0 0.01,0 0.01,0 0,-0.01 -0.04,0 -0.08,-0.01 -0.1,-0.02 0,0 -0.01,-0.01 -0.02,0 -0.01,0 -0.02,0 -0.03,0z"/>
    <g>
     <path class="fil12 str15" d="M2.14 1.26c0.09,-0.01 0.19,-0.05 0.21,-0.1 0.02,-0.1 0.06,-0.17 0.15,-0.25 0,0 0,0 -0.01,0 -0.02,0 -0.1,0.02 -0.17,0.04 -0.02,0 -0.04,0 -0.04,-0.01 -0.02,-0.06 -0.03,-0.12 -0.06,-0.3 0,-0.01 -0.01,-0.03 -0.02,-0.01 -0.01,0.01 -0.01,0.01 -0.02,0.02 -0.07,0.09 -0.15,0.07 -0.28,0.03 -0.09,0.03 -0.2,0.06 -0.27,-0.02 -0.01,-0.01 -0.01,-0.02 -0.02,-0.03 -0.01,-0.02 -0.02,0 -0.02,0.01 -0.03,0.18 -0.04,0.24 -0.06,0.3 0,0.01 -0.02,0.01 -0.04,0.01 -0.07,-0.02 -0.15,-0.03 -0.18,-0.04 0,0 0,0 0,0.01 0.05,0.03 0.13,0.13 0.16,0.23 0.07,0.18 0.51,0.13 0.67,0.11z"/>
     <path class="fil3 str16" d="M1.51 0.95c0.26,0.22 0.52,0.23 0.78,0"/>
     <g>
      <path class="fil13" d="M1.85 1.03c0.02,-0.01 0.02,0 0.03,0 0,0 0,0 0,-0.01 0,0 -0.01,0 -0.02,0 0,0 -0.01,-0.01 -0.02,-0.01 -0.01,0 -0.03,0 -0.04,-0.01 -0.02,-0.01 -0.04,-0.03 -0.03,-0.07 0,-0.02 0.04,-0.06 0.03,-0.12 0,0 0,-0.01 -0.01,-0.01 -0.01,-0.03 -0.01,-0.02 0.01,-0.03 0.02,-0.03 0.01,-0.03 0.03,-0.02 0.02,0 0.04,0 0.06,-0.01 0.02,-0.01 0.01,-0.01 0.03,0 0,0.01 0.01,0.01 0.02,0.01 0.01,0 0.02,0 0.03,0 0.03,-0.01 0.02,-0.01 0.03,0.01 0.03,0.03 0.02,0.01 0.01,0.04 -0.03,0.06 0.02,0.11 0.03,0.13 0,0.03 -0.01,0.06 -0.04,0.07 -0.01,0.01 -0.02,0.01 -0.03,0.01 -0.03,0.01 -0.03,0.01 -0.04,0.02 0,0 0.01,0 0.01,0 0.01,0 0.01,0 0.02,0 0.02,0 0.06,-0.01 0.07,-0.03 0.02,-0.01 0.03,-0.04 0.02,-0.08 0,-0.01 -0.01,-0.02 -0.02,-0.03 -0.01,-0.02 -0.02,-0.06 -0.01,-0.08 0.01,-0.03 0.02,-0.03 0.02,-0.04 0,0 -0.02,-0.01 -0.02,-0.02l-0.02 -0.03c-0.04,0.02 -0.07,0.02 -0.1,0 -0.02,0.02 -0.06,0.02 -0.09,0l-0.02 0.03c-0.01,0.01 -0.01,0.01 -0.01,0.01 -0.01,0.01 -0.01,0.01 -0.02,0.01 0.03,0.03 0.03,0.08 0.01,0.12 -0.01,0.03 -0.03,0.05 -0.02,0.08 0.01,0.03 0.03,0.04 0.06,0.05 0.01,0 0.03,0.01 0.04,0.01z"/>
      <path class="fil14" d="M1.93 1.05c0,0 0,-0.01 0.01,-0.01l0 0.01c-0.01,0 0,0 -0.01,0 0.01,0 0.01,0 0.01,0l0 0 0 0c0,0 0,0 0,-0.01 0.01,0 0,0 0.01,0.01l0 -0.01c0,0 0,0 0,0l0.01 0c0.01,0 0.05,-0.01 0.06,-0.02 0.03,-0.01 0.05,-0.05 0.05,-0.08 -0.01,-0.04 -0.04,-0.05 -0.04,-0.11 0,-0.02 0.01,-0.03 0.02,-0.05 0.01,-0.01 0.01,0 -0.02,-0.03 -0.01,-0.01 -0.02,-0.03 -0.03,-0.04 -0.01,0 -0.03,0.03 -0.08,0.01 0,-0.01 -0.01,-0.02 -0.02,-0.02 0,0 -0.01,0.02 -0.04,0.03 -0.03,0 -0.04,-0.02 -0.05,-0.02 -0.01,0 -0.01,0.01 -0.01,0.01 -0.01,0.02 -0.02,0.02 -0.04,0.04 0,0 0,0 0,0.01 -0.02,0 -0.01,0.01 -0.01,0.01 0.02,0.02 0.03,0.05 0.03,0.07 -0.01,0.04 -0.03,0.05 -0.04,0.08 -0.01,0.04 0.02,0.08 0.06,0.1 0.01,0 0.04,0.01 0.04,0.01l0.02 0c0,0 0,0 0,0l0 0c0,0 0,0 0,0 0,0 0,0 0.01,0l0 0c0,0 0,0 0,0 0,0 0,0 0,0 0,0 0,0 -0.01,0l0.01 0c-0.01,-0.01 -0.02,-0.01 -0.02,-0.01 -0.01,0 -0.03,-0.01 -0.04,-0.01 -0.03,-0.01 -0.05,-0.02 -0.06,-0.05 -0.01,-0.03 0.01,-0.05 0.02,-0.08 0.02,-0.04 0.02,-0.09 -0.01,-0.12 0.01,0 0.01,0 0.02,-0.01 0,0 0,0 0.01,-0.01l0.02 -0.03c0.03,0.02 0.07,0.02 0.09,0 0.03,0.02 0.06,0.02 0.1,0l0.02 0.03c0,0.01 0.02,0.02 0.02,0.02 0,0.01 -0.01,0.01 -0.02,0.04 -0.01,0.02 0,0.06 0.01,0.08 0.01,0.01 0.02,0.02 0.02,0.03 0.01,0.04 0,0.07 -0.02,0.08 -0.01,0.02 -0.05,0.03 -0.07,0.03 -0.01,0 -0.02,0.01 -0.02,0.01 -0.01,0 -0.01,0 -0.02,0.01l0.01 0c0,0 0,0 0,0l-0.01 0c0,0 0,0 0,0 0.01,0 0.01,0 0.01,0 -0.01,0 0,0 -0.01,0l0 0c0,0 0,0 0,0 0,0 0,0 0,0 0,0 0,0 0,0 -0.01,0 0,0 -0.01,0 0,0 0,0 0,0 0,0.01 0,0 0,0.01 0,0 0,0 -0.01,0 0,0 0,-0.01 -0.01,-0.01 0,0 0,0 0,0l0 0 0 0 0 0c0,0 0,0 0,0l0 0 -0.01 -0.01 -0.01 0 0 0 0 0 0.01 0c0,0.01 0,0.01 0,0.01 0,0 0,0 0,0.01 0.01,0 0.01,0 0.01,0 0,0.01 0,0.01 0.01,0.01 0,0.01 0,0.01 0.01,0.01 0,-0.01 0,-0.01 0,-0.01l0 -0.01c0.01,0 0.02,-0.01 0.02,-0.01zm0.01 0l0 0 0 0z"/>
      <path class="fil14" d="M1.82 0.76c0.02,0 0.03,0 0.05,0 0,0 0.01,0 0.02,0 0.02,-0.01 0,-0.01 0.03,0 0.03,0.01 0.05,0 0.07,0 0,0 0.02,0.02 0.02,0.02 0,0.01 -0.01,0.01 -0.01,0.02 0,0.01 0,0.01 0,0.02 -0.02,0.07 0.03,0.09 0.03,0.12 0,0.06 -0.07,0.05 -0.11,0.08 -0.01,0 -0.01,0 -0.02,0.01 0,-0.01 -0.01,-0.01 -0.01,-0.01 -0.04,-0.02 -0.12,-0.02 -0.11,-0.08 0,-0.01 0.01,-0.03 0.01,-0.04 0.02,-0.02 0.03,-0.05 0.02,-0.08 0,-0.02 -0.01,-0.03 -0.01,-0.04 0.01,-0.01 0.02,-0.02 0.02,-0.02zm0.06 0.26c0.01,0.01 0.01,0.01 0.01,0.01 0.02,0.01 0.01,0.01 0.02,0 0.01,0 0.01,0 0.01,0 0,0 0,0 0,0 0.01,0 0,0 0.01,0 0.01,-0.01 0.01,-0.01 0.04,-0.02 0.01,0 0.02,0 0.03,-0.01 0.03,-0.01 0.04,-0.04 0.04,-0.07 -0.01,-0.02 -0.06,-0.07 -0.03,-0.13 0.01,-0.03 0.02,-0.01 -0.01,-0.04 -0.01,-0.02 0,-0.02 -0.03,-0.01 -0.01,0 -0.02,0 -0.03,0 -0.01,0 -0.02,0 -0.02,-0.01 -0.02,-0.01 -0.01,-0.01 -0.03,0 -0.02,0.01 -0.04,0.01 -0.06,0.01 -0.02,-0.01 -0.01,-0.01 -0.03,0.02 -0.02,0.01 -0.02,0 -0.01,0.03 0.01,0 0.01,0.01 0.01,0.01 0.01,0.06 -0.03,0.1 -0.03,0.12 -0.01,0.04 0.01,0.06 0.03,0.07 0.01,0.01 0.03,0.01 0.04,0.01 0.01,0 0.02,0.01 0.02,0.01 0.01,0 0.02,0 0.02,0z"/>
      <g>
       <path class="fil0" d="M1.88 0.85c0,-0.01 0.01,-0.02 0.01,-0.03 0,-0.01 0,-0.02 0.01,-0.02 0.01,0 0.02,0.01 0.02,0.02 0,0.01 0,0.02 0.01,0.03 0.01,0 0.02,0 0.03,0 0.02,0 0.02,0.01 0.01,0.02 0,0 -0.01,0.01 -0.01,0.01 -0.01,0 -0.01,0.01 -0.02,0.01 0,0.02 0.02,0.04 0.01,0.05 -0.02,0.01 -0.03,-0.01 -0.05,-0.02 0,0 -0.01,0.01 -0.02,0.01 0,0.01 -0.01,0.01 -0.02,0.01 -0.01,-0.01 0,-0.03 0.01,-0.05l-0.03 -0.02c0,0 -0.01,0 -0.01,-0.01 0,-0.02 0.03,-0.01 0.05,-0.01zm-0.06 -0.09c0,0 -0.01,0.01 -0.02,0.02 0,0.01 0.01,0.02 0.01,0.04 0.01,0.03 0,0.06 -0.02,0.08 0,0.01 -0.01,0.03 -0.01,0.04 -0.01,0.06 0.07,0.06 0.11,0.08 0,0 0.01,0 0.01,0.01 0.01,-0.01 0.01,-0.01 0.02,-0.01 0.04,-0.03 0.11,-0.02 0.11,-0.08 0,-0.03 -0.05,-0.05 -0.03,-0.12 0,-0.01 0,-0.01 0,-0.02 0,-0.01 0.01,-0.01 0.01,-0.02 0,0 -0.02,-0.02 -0.02,-0.02 -0.02,0 -0.04,0.01 -0.07,0 -0.03,-0.01 -0.01,-0.01 -0.03,0 -0.01,0 -0.02,0 -0.02,0 -0.02,0 -0.03,0 -0.05,0z"/>
       <path class="fil15" d="M1.84 0.86c0,0 0,0 0.01,0.01 0.01,0 0.03,0.01 0.03,0.02 0,0 -0.03,0.05 0,0.04 0,-0.01 0.02,-0.02 0.02,-0.02 0.01,0 0.03,0.02 0.04,0.02 0,0 0,-0.01 0,-0.01 -0.01,-0.04 -0.02,-0.03 0.02,-0.05 0.01,-0.01 0,-0.01 0,-0.01l-0.04 0c0,-0.01 -0.01,-0.02 -0.01,-0.02 0,-0.01 0,-0.02 -0.01,-0.02 0,0 0,0 0,0 0,0 0,0 0,0 0,0.01 0,0.01 0,0.01 -0.01,0.03 -0.01,0.03 -0.03,0.03 -0.01,0 -0.02,0 -0.03,0z"/>
       <path class="fil14" d="M1.84 0.86c0.01,0 0.02,0 0.03,0 0.02,0 0.02,0 0.03,-0.03 0,0 0,0 0,-0.01 0,0 0,0 0,0 0,0 0,0 0,0 0.01,0 0.01,0.01 0.01,0.02 0,0 0.01,0.01 0.01,0.02l0.04 0c0,0 0.01,0 0,0.01 -0.04,0.02 -0.03,0.01 -0.02,0.05 0,0 0,0.01 0,0.01 -0.01,0 -0.03,-0.02 -0.04,-0.02 0,0 -0.02,0.01 -0.02,0.02 -0.03,0.01 0,-0.04 0,-0.04 0,-0.01 -0.02,-0.02 -0.03,-0.02 -0.01,-0.01 -0.01,-0.01 -0.01,-0.01zm0.04 -0.01c-0.02,0 -0.05,-0.01 -0.05,0.01 0,0.01 0.01,0.01 0.01,0.01l0.03 0.02c-0.01,0.02 -0.02,0.04 -0.01,0.05 0.01,0 0.02,0 0.02,-0.01 0.01,0 0.02,-0.01 0.02,-0.01 0.02,0.01 0.03,0.03 0.05,0.02 0.01,-0.01 -0.01,-0.03 -0.01,-0.05 0.01,0 0.01,-0.01 0.02,-0.01 0,0 0.01,-0.01 0.01,-0.01 0.01,-0.01 0.01,-0.02 -0.01,-0.02 -0.01,0 -0.02,0 -0.03,0 -0.01,-0.01 -0.01,-0.02 -0.01,-0.03 0,-0.01 -0.01,-0.02 -0.02,-0.02 -0.01,0 -0.01,0.01 -0.01,0.02 0,0.01 -0.01,0.02 -0.01,0.03z"/>
      </g>
      <rect class="fil16 str15" x="1.79" y="1.03" width="0.24" height="0.04" rx="0.07" ry="0.04"/>
      <path class="fil17" d="M1.83 1.06l-0.02 0 0.01 -0.03 0.02 0 0.02 0.03 -0.02 0 0 -0.01 -0.01 0 0 0.01zm0 -0.01l0.01 0 -0.01 -0.01 0 0.01z"/>
      <path id="_1" class="fil17" d="M1.86 1.03l0.02 0c0,0 0.01,0 0.01,0.01 0,0 0,0 0,0.01 0,0 0,0 0,0 0,0 0,0.01 0,0.01 -0.01,0 -0.01,0 -0.02,0l-0.01 0 0 -0.03zm0.01 0.01l0 0.01 0 0c0.01,0 0.01,0 0.01,0 0,0 0,0 0,0 0,-0.01 0,-0.01 -0.01,-0.01l0 0z"/>
      <polygon id="_2" class="fil17" points="1.9,1.06 1.9,1.03 1.91,1.03 1.92,1.04 1.92,1.03 1.94,1.03 1.94,1.06 1.92,1.06 1.92,1.05 1.92,1.05 1.91,1.05 1.91,1.06 "/>
      <polygon id="_3" class="fil17" points="1.95,1.06 1.95,1.03 1.96,1.03 1.96,1.06 "/>
      <polygon id="_4" class="fil17" points="1.97,1.06 1.97,1.03 1.98,1.03 1.99,1.04 1.99,1.03 2.01,1.03 2.01,1.06 1.99,1.06 1.99,1.05 1.99,1.05 1.98,1.05 1.98,1.06 "/>
     </g>
    </g>
   </g>
  </g>
 </g>
</svg>
