<?xml version="1.0" encoding="UTF-8"?>
<!DOCTYPE svg PUBLIC "-//W3C//DTD SVG 1.1//EN" "http://www.w3.org/Graphics/SVG/1.1/DTD/svg11.dtd">
<!-- Creator: CorelDRAW 2021 (64 Bit) -->
<svg xmlns="http://www.w3.org/2000/svg" xml:space="preserve" width="400px" height="400px" version="1.1" style="shape-rendering:geometricPrecision; text-rendering:geometricPrecision; image-rendering:optimizeQuality; fill-rule:evenodd; clip-rule:evenodd"
viewBox="0 0 18.86 18.86"
 xmlns:xlink="http://www.w3.org/1999/xlink"
 xmlns:xodm="http://www.corel.com/coreldraw/odm/2003">
 <defs>
  <style type="text/css">
   <![CDATA[
    .str2 {stroke:#AEA19E;stroke-width:0.75;stroke-miterlimit:22.9256;stroke-opacity:0.949020}
    .str6 {stroke:#0D00FF;stroke-width:0.94;stroke-miterlimit:22.9256}
    .str0 {stroke:#B8B4B6;stroke-width:1.41;stroke-miterlimit:22.9256}
    .str5 {stroke:#00FF32;stroke-width:0.24;stroke-miterlimit:22.9256}
    .str1 {stroke:white;stroke-width:0.09;stroke-miterlimit:22.9256}
    .str3 {stroke:black;stroke-width:0.57;stroke-miterlimit:22.9256}
    .str4 {stroke:#373435;stroke-width:0.04;stroke-miterlimit:22.9256}
    .fil4 {fill:none}
    .fil1 {fill:#E6E7E8}
    .fil5 {fill:#373435}
    .fil6 {fill:#00FF32}
    .fil0 {fill:white}
    .fil2 {fill:#333333;fill-rule:nonzero}
    .fil3 {fill:#FEFEFE;fill-rule:nonzero;fill-opacity:0.949020}
   ]]>
  </style>
 </defs>
 <g id="Camada_x0020_1">
  <metadata id="CorelCorpID_0Corel-Layer"/>
  <g id="_2069737615952">
   <path class="fil0 str0" d="M1.49 0.71l15.89 0c0.43,0 0.77,0.39 0.77,0.87l0 15.7c0,0.48 -0.34,0.87 -0.77,0.87l-15.89 0c-0.42,0 -0.76,-0.39 -0.76,-0.87 0,-1.89 -0.03,-15.21 -0.02,-15.89 0.01,-0.38 0.47,-0.68 0.78,-0.68z"/>
   <g>
    <g>
     <rect class="fil1 str1" x="3.28" y="10.66" width="2.25" height="5.29"/>
     <path class="fil2" d="M9.26 16.29c-0.43,0 -0.86,-0.16 -1.27,-0.32 -0.45,-0.17 -0.92,-0.35 -1.39,-0.31l-1.15 0.11 0 -4.56 0.63 -0.06c0.39,-0.03 0.71,0.12 1.03,0.27 0.29,0.14 0.57,0.28 0.89,0.25l2.06 -0.38c0.74,-0.13 1.14,0.3 1.39,0.7l2.24 -1.07c0.85,-0.38 1.8,0.01 2.37,0.98 0.15,0.25 0.07,0.59 -0.18,0.75 -0.29,0.19 -0.58,0.37 -0.87,0.56 -2.51,1.6 -4.67,2.99 -5.6,3.08 -0.05,0 -0.1,0 -0.15,0zm-2.51 -0.95c0.47,0 0.91,0.17 1.35,0.34 0.45,0.17 0.87,0.33 1.28,0.29 0.86,-0.07 3.1,-1.51 5.47,-3.03 0.28,-0.19 0.57,-0.37 0.86,-0.56 0.12,-0.07 0.15,-0.21 0.09,-0.32 -0.49,-0.83 -1.28,-1.17 -1.98,-0.85l-2.5 1.19c0,-0.17 -0.12,-0.36 -0.19,-0.44 -0.23,-0.28 -0.68,-0.42 -1.02,-0.36l-2.07 0.38c-0.41,0.04 -0.74,-0.12 -1.06,-0.27 -0.29,-0.14 -0.57,-0.27 -0.87,-0.24l-0.35 0.03 0 3.92 0.81 -0.07c0.06,-0.01 0.12,-0.01 0.18,-0.01z"/>
     <path class="fil3 str2" d="M5.24 16.29l-1.76 0c-0.29,0 -0.52,-0.24 -0.52,-0.53l0 -4.84c0,-0.29 0.23,-0.53 0.52,-0.53l1.76 0c0.29,0 0.52,0.24 0.52,0.53l0 4.84c0,0.29 -0.23,0.53 -0.52,0.53zm-1.76 -5.59c-0.12,0 -0.21,0.1 -0.21,0.22l0 4.84c0,0.12 0.09,0.22 0.21,0.22l1.76 0c0.12,0 0.21,-0.1 0.21,-0.22l0 -4.84c0,-0.12 -0.09,-0.22 -0.21,-0.22l-1.76 0z"/>
     <path class="fil4 str3" d="M11.45 12.32c0.03,0.07 0.04,0.2 -0.05,0.34 -0.13,0.22 -0.44,0.39 -1.18,0.3 -0.54,-0.07 -1.2,0.06 -1.77,0.13"/>
    </g>
    <g>
     <g>
      <g>
       <path class="fil5 str4" d="M4.45 7.67c0.25,-0.27 0.36,-0.33 0.73,-0.48 0.59,-0.22 1.76,-0.53 2.06,0.16 0.05,0.12 0.05,0.26 0.07,0.41 0.31,-0.17 0.74,-0.52 1.13,-0.46 0.25,0.04 0.43,0.22 0.45,0.43 0,0.04 -0.03,0.37 -0.04,0.48 0.19,0 0.56,-0.11 0.65,-0.16 0.41,-0.2 0.77,-0.62 1.36,-0.62 0.17,0 0.14,0.01 0.29,0.09 -0.23,0.13 -0.03,0.03 -0.24,0.12 -0.38,0.16 -0.56,0.43 -0.82,0.68 -0.32,0.31 -0.97,0.63 -1.49,0.56 -0.35,-0.04 -0.51,-0.21 -0.59,-0.43 -0.29,0.19 -0.63,0.35 -0.95,0.35 -0.53,0 -0.79,-0.34 -0.92,-0.72 -0.17,0.06 -0.35,0.13 -0.48,0.22 -0.01,0 -0.01,0.01 -0.01,0.01 0,0 0,0 0,-0.01 -0.01,0.01 -0.02,0.02 -0.03,0.03 0.01,-0.01 0.02,-0.01 0.02,-0.01 -0.21,0.23 -0.6,0.3 -0.91,0.16 -0.35,-0.16 -0.47,-0.52 -0.28,-0.81zm2.66 0.17c-0.02,0 -0.03,0 -0.05,0.01 0.01,0 0.03,-0.01 0.05,-0.01zm1.69 0.37c-0.01,0 -0.03,-0.01 -0.04,-0.01 0.01,0.01 0.03,0.01 0.04,0.01zm-2.78 -0.58c0,-0.01 0,-0.02 0,-0.03 0,0.01 0,0.02 0,0.03zm-0.38 0.69c0,0 0.01,-0.01 0.01,-0.01 0,0 -0.01,0.01 -0.01,0.01z"/>
      </g>
      <path class="fil4" d="M5.07 7.96c0.15,-0.23 1.55,-0.71 1.58,-0.4 0.11,1.06 0.53,0.89 1.5,0.23 0.72,-0.49 -0.55,1.35 1.4,0.56 0.42,-0.17 0.84,-0.88 1.6,-0.83"/>
     </g>
     <g>
      <rect class="fil6 str5" transform="matrix(0.365853 0.347669 -0.339678 0.37446 14.8386 2.29779)" width="1.24" height="8.91"/>
      <g>
       <polyline class="fil4 str6" points="11.25,7.19 12.21,5.98 12.63,6.01 15.02,3.39 15.44,2.6 14.94,2.31 14.06,2.85 11.67,5.56 12.21,5.98 "/>
       <polyline class="fil4 str6" points="11.94,5.77 11.52,6.28 10.9,7.03 10.84,7.36 11.25,7.19 "/>
      </g>
     </g>
    </g>
   </g>
  </g>
 </g>
</svg>
