<?xml version="1.0" encoding="UTF-8"?>
<!DOCTYPE svg PUBLIC "-//W3C//DTD SVG 1.1//EN" "http://www.w3.org/Graphics/SVG/1.1/DTD/svg11.dtd">
<!-- Creator: CorelDRAW 2021 (64 Bit) -->
<svg xmlns="http://www.w3.org/2000/svg" xml:space="preserve" width="400px" height="400px" version="1.1" style="shape-rendering:geometricPrecision; text-rendering:geometricPrecision; image-rendering:optimizeQuality; fill-rule:evenodd; clip-rule:evenodd"
viewBox="0 0 2.53 2.53"
 xmlns:xlink="http://www.w3.org/1999/xlink"
 xmlns:xodm="http://www.corel.com/coreldraw/odm/2003">
 <defs>
  <style type="text/css">
   <![CDATA[
    .str0 {stroke:#B8B4B6;stroke-width:0.19;stroke-miterlimit:22.9256}
    .str2 {stroke:#967708;stroke-width:0.01;stroke-miterlimit:22.9256}
    .str1 {stroke:black;stroke-width:0.03;stroke-miterlimit:22.9256}
    .fil2 {fill:black}
    .fil7 {fill:#009933}
    .fil5 {fill:#00CCFF}
    .fil6 {fill:aqua}
    .fil8 {fill:#99FF99}
    .fil9 {fill:#9C7C49}
    .fil1 {fill:red}
    .fil3 {fill:#FFAE00}
    .fil4 {fill:yellow}
    .fil0 {fill:white}
   ]]>
  </style>
 </defs>
 <g id="Camada_x0020_1">
  <metadata id="CorelCorpID_0Corel-Layer"/>
  <g id="_2069712559536">
   <path class="fil0 str0" d="M0.2 0.09l2.13 0c0.06,0 0.1,0.06 0.1,0.12l0 2.11c0,0.06 -0.04,0.11 -0.1,0.11l-2.13 0c-0.06,0 -0.1,-0.05 -0.1,-0.11 0,-0.26 -0.01,-2.04 0,-2.13 0,-0.05 0.06,-0.1 0.1,-0.1z"/>
   <g>
    <g>
     <g>
      <path class="fil1" d="M1.59 0.66c-0.17,-0.1 -0.26,-0.07 -0.38,0.07 -0.1,0.15 -0.1,0.3 -0.05,0.47l-0.39 0.62c0.06,0.06 0.12,0.08 0.16,0.04l0.06 -0.06 0.12 -0.08 0.04 -0.17 0.13 -0.04 0.06 -0.13c0.15,0.05 0.27,-0.02 0.35,-0.2 0.07,-0.2 0.04,-0.37 -0.1,-0.52z"/>
      <g>
       <path class="fil2 str1" d="M1.47 0.76c0.05,-0.02 0.09,0.02 0.1,0.07 0.01,0.06 -0.02,0.12 -0.06,0.13 -0.1,0.03 -0.14,-0.17 -0.04,-0.2zm0 -0.02c-0.04,0.01 -0.08,0.07 -0.07,0.14 0.01,0.06 0.06,0.11 0.11,0.1 0.05,-0.02 0.08,-0.08 0.07,-0.15 -0.01,-0.06 -0.05,-0.11 -0.11,-0.09z"/>
       <path class="fil2" d="M1.3 0.63c-0.06,0.02 -0.04,0.15 0.02,0.12 0.03,-0.01 0.05,-0.04 0.04,-0.08 -0.01,-0.03 -0.03,-0.05 -0.06,-0.04z"/>
      </g>
      <path class="fil2" d="M1.2 0.73c-0.01,0.01 -0.02,0.02 -0.02,0.03 -0.05,0.07 -0.08,0.18 -0.08,0.28 0.01,0.03 0.01,0.07 0.01,0.1 0.02,0.06 0.03,0.06 0.01,0.08 -0.02,0.05 -0.04,0.08 -0.07,0.12l-0.08 0.12c-0.01,0.03 -0.22,0.35 -0.22,0.36 0.01,0.02 0.02,0.03 0.04,0.04 0.04,0.04 0.11,0.06 0.16,0.02 0.03,-0.02 0.04,-0.06 0.07,-0.09l0.1 -0.05c0,-0.01 0,0 0,-0.01 0,0 0,0 0,0 0.01,-0.05 0.03,-0.12 0.04,-0.17 0.04,0 0.1,-0.01 0.12,-0.03 0.02,-0.02 0.03,-0.04 0.04,-0.06 0,-0.02 0.02,-0.04 0.02,-0.05 0.06,0.01 0.08,0.02 0.15,0 0.04,-0.02 0.09,-0.05 0.12,-0.08 0.03,-0.04 0.06,-0.07 0.08,-0.12 0.02,-0.05 0.03,-0.1 0.04,-0.17 0,-0.07 -0.01,-0.14 -0.02,-0.2 -0.02,-0.06 -0.05,-0.1 -0.07,-0.13l-0.05 -0.05c-0.04,-0.04 -0.1,-0.06 -0.15,-0.06 -0.01,0 -0.03,0 -0.04,0l0.01 0c0,0.03 -0.01,0.04 0,0.06 0.05,0.01 0.07,-0.01 0.13,0.02 0.03,0.02 0.06,0.05 0.09,0.08 0.01,0.03 0.05,0.09 0.06,0.13 0.01,0.11 0.01,0.23 -0.04,0.32 -0.02,0.04 -0.05,0.09 -0.08,0.11 -0.08,0.06 -0.16,0.07 -0.24,0.03 -0.01,0 -0.02,0.02 -0.02,0.03l-0.05 0.09c-0.01,0.01 -0.02,0.01 -0.03,0.02l-0.12 0.02c0,0.05 -0.02,0.11 -0.02,0.15 -0.01,0.03 0,0.02 -0.05,0.05l-0.07 0.05c-0.02,0.01 -0.02,0.01 -0.02,0.03 -0.01,0 -0.03,0.05 -0.04,0.05 -0.04,0.02 -0.09,-0.01 -0.11,-0.03 0,-0.01 0,-0.01 0.01,-0.02 0.03,-0.04 0.06,-0.09 0.09,-0.13 0.01,-0.02 0.01,-0.03 0.02,-0.04l0.13 -0.19c0,-0.01 0.01,-0.03 0.02,-0.04 0.01,-0.01 0.02,-0.02 0.03,-0.04l0.05 -0.07c0.01,-0.03 0.03,-0.05 0.05,-0.08 -0.01,-0.02 -0.02,-0.03 -0.03,-0.04 0,-0.01 -0.01,-0.05 -0.01,-0.06 -0.03,-0.09 -0.01,-0.19 0.03,-0.27 0.01,-0.01 0.01,-0.02 0.01,-0.02 0.01,-0.02 0.02,-0.03 0.03,-0.05 -0.01,0 -0.01,-0.01 -0.02,-0.02 0,0 -0.01,0 -0.01,-0.02z"/>
     </g>
     <g>
      <path class="fil3" d="M1.52 0.64c-0.19,-0.03 -0.28,0.03 -0.36,0.21 -0.07,0.17 -0.04,0.32 0.03,0.47l-0.25 0.73c0.07,0.04 0.13,0.04 0.16,-0.01l0.04 -0.08 0.11 -0.12 0 -0.18 0.12 -0.08 0.03 -0.15c0.16,0 0.26,-0.11 0.31,-0.32 0.02,-0.21 -0.04,-0.38 -0.19,-0.47z"/>
      <g>
       <path class="fil2 str1" d="M1.42 0.78c0.04,-0.03 0.08,-0.01 0.1,0.04 0.03,0.05 0.01,0.11 -0.03,0.14 -0.09,0.07 -0.17,-0.11 -0.07,-0.18zm-0.01 -0.02c-0.04,0.03 -0.06,0.1 -0.04,0.17 0.02,0.05 0.08,0.08 0.12,0.05 0.05,-0.03 0.07,-0.1 0.05,-0.17 -0.02,-0.05 -0.08,-0.08 -0.13,-0.05z"/>
       <path class="fil2" d="M1.22 0.72c-0.05,0.04 -0.01,0.15 0.05,0.11 0.02,-0.02 0.03,-0.06 0.02,-0.09 -0.01,-0.03 -0.04,-0.04 -0.07,-0.02z"/>
      </g>
      <path class="fil2" d="M1.15 0.85c-0.01,0.01 -0.01,0.03 -0.02,0.04 -0.03,0.08 -0.03,0.2 -0.01,0.29 0,0.04 0.01,0.07 0.02,0.1 0.03,0.05 0.04,0.05 0.03,0.07 -0.02,0.05 -0.03,0.09 -0.05,0.14l-0.05 0.15c-0.01,0.03 -0.15,0.42 -0.15,0.43 0.01,0 0.03,0.01 0.04,0.02 0.05,0.02 0.12,0.01 0.16,-0.04 0.03,-0.03 0.03,-0.08 0.05,-0.11l0.09 -0.09c0,0 0,0 0,0 0,-0.01 0,0 0,-0.01 0,-0.05 0,-0.12 0,-0.17 0.04,-0.02 0.1,-0.04 0.12,-0.08 0.01,-0.02 0.01,-0.04 0.02,-0.06 0.01,-0.03 0.02,-0.05 0.02,-0.07 0.05,0 0.08,0 0.14,-0.05 0.04,-0.03 0.08,-0.07 0.1,-0.12 0.02,-0.04 0.04,-0.09 0.05,-0.14 0.01,-0.06 0.01,-0.11 0.01,-0.18 -0.01,-0.07 -0.03,-0.13 -0.06,-0.18 -0.03,-0.06 -0.06,-0.08 -0.09,-0.11l-0.05 -0.03c-0.05,-0.02 -0.11,-0.02 -0.16,0 -0.01,0 -0.04,0.01 -0.04,0.01l0.01 0c0,0.03 0,0.04 0.01,0.06 0.05,-0.01 0.07,-0.03 0.13,-0.03 0.03,0.01 0.07,0.02 0.1,0.05 0.02,0.02 0.06,0.06 0.08,0.1 0.04,0.1 0.05,0.22 0.02,0.33 -0.01,0.04 -0.03,0.1 -0.05,0.13 -0.06,0.08 -0.14,0.12 -0.23,0.11 -0.01,0.01 -0.01,0.03 -0.01,0.04l-0.03 0.1c-0.01,0.02 -0.02,0.02 -0.03,0.03l-0.1 0.07c0,0.04 0,0.1 0,0.15 0,0.03 0,0.02 -0.04,0.06l-0.06 0.08c-0.01,0.01 -0.01,0.01 -0.02,0.03 0,0.01 -0.02,0.06 -0.02,0.06 -0.03,0.04 -0.09,0.03 -0.11,0.01 0,-0.01 0,-0.01 0,-0.02 0.02,-0.05 0.04,-0.1 0.06,-0.16 0.01,-0.01 0.01,-0.03 0.02,-0.04l0.08 -0.23c0.01,-0.01 0.02,-0.03 0.02,-0.05 0.01,-0.01 0.01,-0.02 0.02,-0.04l0.03 -0.09c0.01,-0.03 0.03,-0.06 0.04,-0.09 -0.01,-0.02 -0.03,-0.03 -0.03,-0.04 -0.01,0 -0.03,-0.04 -0.03,-0.05 -0.04,-0.08 -0.04,-0.18 -0.02,-0.27 0,-0.01 0.01,-0.02 0.01,-0.03 0,-0.02 0.01,-0.03 0.01,-0.05 0,0 -0.01,-0.01 -0.01,-0.01 -0.01,0 -0.02,-0.01 -0.02,-0.02z"/>
     </g>
     <g>
      <path class="fil4" d="M1.44 0.63c-0.18,0.04 -0.25,0.13 -0.3,0.33 -0.03,0.19 0.02,0.32 0.12,0.44l-0.11 0.8c0.07,0.01 0.13,-0.01 0.16,-0.08l0.02 -0.09 0.08 -0.15 -0.03 -0.17 0.1 -0.12 0 -0.16c0.15,-0.06 0.23,-0.2 0.23,-0.42 -0.01,-0.21 -0.1,-0.35 -0.27,-0.38z"/>
      <g>
       <path class="fil2 str1" d="M1.37 0.8c0.04,-0.05 0.09,-0.04 0.11,0 0.03,0.04 0.03,0.11 0,0.15 -0.08,0.09 -0.19,-0.05 -0.11,-0.15zm0 -0.02c-0.04,0.04 -0.05,0.12 -0.02,0.18 0.03,0.04 0.09,0.05 0.13,0 0.04,-0.04 0.05,-0.12 0.01,-0.17 -0.03,-0.05 -0.08,-0.06 -0.12,-0.01z"/>
       <path class="fil2" d="M1.17 0.81c-0.04,0.05 0.02,0.15 0.07,0.09 0.02,-0.03 0.02,-0.07 0,-0.1 -0.01,-0.02 -0.04,-0.02 -0.07,0.01z"/>
      </g>
      <path class="fil2" d="M1.13 0.97c-0.01,0.01 -0.01,0.02 -0.01,0.03 -0.02,0.1 0,0.21 0.04,0.3 0.01,0.03 0.02,0.05 0.04,0.08 0.03,0.04 0.04,0.03 0.04,0.06 -0.01,0.06 -0.01,0.1 -0.02,0.16l-0.02 0.15c-0.01,0.04 -0.07,0.46 -0.07,0.47 0.02,0 0.03,0 0.05,0 0.05,0.01 0.12,-0.02 0.15,-0.08 0.02,-0.04 0.01,-0.09 0.03,-0.13l0.07 -0.12c0,-0.01 0,0 -0.01,-0.01 0,0 0,0 0,0 -0.01,-0.05 -0.02,-0.12 -0.03,-0.17 0.03,-0.03 0.09,-0.07 0.1,-0.12 0,-0.02 0,-0.04 0.01,-0.07 0,-0.02 0,-0.05 0,-0.06 0.06,-0.03 0.08,-0.04 0.13,-0.1 0.03,-0.04 0.06,-0.1 0.07,-0.15 0.02,-0.06 0.03,-0.1 0.02,-0.16 0,-0.06 0,-0.11 -0.02,-0.17 -0.02,-0.07 -0.05,-0.12 -0.09,-0.16 -0.04,-0.04 -0.07,-0.06 -0.11,-0.07l-0.06 -0.01c-0.05,-0.01 -0.11,0.01 -0.15,0.05 -0.01,0 -0.03,0.02 -0.03,0.03l0.01 0c0.01,0.02 0,0.03 0.02,0.05 0.04,-0.03 0.06,-0.06 0.12,-0.07 0.03,-0.01 0.07,-0.01 0.1,0 0.02,0.01 0.08,0.04 0.1,0.07 0.05,0.09 0.09,0.2 0.08,0.31 0,0.04 -0.01,0.11 -0.02,0.14 -0.05,0.11 -0.12,0.18 -0.21,0.2 0,0.01 0,0.02 0,0.04l-0.01 0.11c0,0.02 -0.01,0.02 -0.02,0.04l-0.09 0.1c0.01,0.04 0.02,0.1 0.03,0.15 0.01,0.02 0.01,0.01 -0.02,0.07l-0.05 0.09c-0.01,0.02 -0.01,0.02 -0.01,0.04 0,0.01 0,0.06 -0.01,0.07 -0.02,0.04 -0.08,0.06 -0.11,0.05 0,-0.01 0.01,-0.01 0.01,-0.02 0.01,-0.06 0.01,-0.12 0.02,-0.18 0.01,-0.02 0.01,-0.03 0.01,-0.05l0.04 -0.25c0,-0.01 0.01,-0.03 0.01,-0.05 0,-0.02 0.01,-0.03 0.01,-0.05l0.01 -0.1c0.01,-0.03 0.01,-0.06 0.02,-0.1 -0.01,-0.01 -0.03,-0.02 -0.04,-0.02 0,-0.01 -0.03,-0.03 -0.03,-0.04 -0.06,-0.07 -0.07,-0.16 -0.07,-0.26 0,-0.01 0,-0.02 0,-0.03 0,-0.01 0.01,-0.04 0.01,-0.05 -0.01,0 -0.02,0 -0.02,-0.01 -0.01,0 -0.02,0 -0.02,0z"/>
     </g>
     <g>
      <path class="fil0" d="M1.46 0.91c-0.06,-0.25 -0.14,-0.32 -0.3,-0.34 -0.14,-0.01 -0.22,0.09 -0.29,0.25l-0.59 0.02c0.01,0.1 0.04,0.18 0.09,0.2l0.07 0.01 0.13 0.07 0.11 -0.08 0.11 0.12 0.11 -0.03c0.08,0.19 0.19,0.26 0.35,0.22 0.15,-0.07 0.22,-0.21 0.21,-0.44z"/>
      <g>
       <path class="fil2 str1" d="M1.33 0.85c0.04,0.03 0.04,0.1 0.02,0.14 -0.02,0.06 -0.07,0.06 -0.11,0.03 -0.08,-0.08 0,-0.26 0.09,-0.17zm0.01 -0.02c-0.04,-0.04 -0.1,-0.03 -0.13,0.02 -0.03,0.06 -0.02,0.14 0.02,0.18 0.04,0.04 0.1,0.04 0.13,-0.02 0.03,-0.05 0.02,-0.13 -0.02,-0.18z"/>
       <path class="fil2" d="M1.28 0.58c-0.05,-0.05 -0.11,0.06 -0.05,0.11 0.02,0.02 0.05,0.02 0.06,-0.02 0.02,-0.03 0.01,-0.07 -0.01,-0.09z"/>
      </g>
      <path class="fil2" d="M1.16 0.55c-0.01,0 -0.03,0 -0.03,0 -0.07,-0.01 -0.15,0.05 -0.2,0.11 -0.02,0.03 -0.04,0.05 -0.05,0.08 -0.02,0.05 -0.02,0.06 -0.04,0.06 -0.04,0 -0.07,0.01 -0.11,0.01l-0.12 0c-0.02,0 -0.34,0.01 -0.35,0.01 0.01,0.03 0.01,0.05 0.01,0.07 0.01,0.07 0.04,0.15 0.1,0.18 0.03,0.02 0.06,-0.01 0.09,0.01l0.1 0.07c0.01,0 0,0 0.01,0 0,-0.01 0,0 0,-0.01 0.03,-0.02 0.08,-0.05 0.11,-0.07 0.03,0.03 0.07,0.09 0.11,0.1 0.01,0 0.03,0 0.05,0 0.01,-0.01 0.03,-0.01 0.04,-0.01 0.04,0.07 0.05,0.09 0.1,0.15 0.04,0.03 0.09,0.06 0.12,0.07 0.05,0 0.08,0.01 0.12,-0.01 0.04,-0.01 0.08,-0.03 0.12,-0.07 0.04,-0.04 0.07,-0.09 0.09,-0.15 0.02,-0.06 0.03,-0.11 0.03,-0.16l0 -0.08c-0.01,-0.07 -0.04,-0.15 -0.08,-0.2 0,-0.01 -0.02,-0.03 -0.02,-0.04l0 0.01c-0.01,0.02 -0.02,0.02 -0.03,0.05 0.03,0.05 0.05,0.06 0.08,0.14 0.01,0.04 0.01,0.1 0.01,0.14 0,0.03 -0.01,0.11 -0.03,0.15 -0.04,0.09 -0.11,0.16 -0.2,0.18 -0.03,0 -0.07,0 -0.1,-0.01 -0.09,-0.04 -0.15,-0.12 -0.18,-0.23 -0.01,0 -0.02,0 -0.03,0l-0.09 0.02c-0.01,0 -0.01,-0.02 -0.03,-0.03l-0.09 -0.09c-0.03,0.02 -0.07,0.04 -0.1,0.07 -0.02,0.01 -0.01,0.01 -0.05,-0.01l-0.08 -0.05c-0.02,-0.01 -0.01,-0.01 -0.03,0 0,0 -0.04,0 -0.05,0 -0.04,-0.02 -0.06,-0.1 -0.06,-0.14 0.01,0 0.01,0 0.02,0 0.04,0 0.08,0 0.13,0 0.01,0 0.02,0 0.04,0l0.18 0c0.01,0 0.03,0 0.04,0 0.01,0 0.02,0 0.04,0l0.07 0c0.03,0 0.05,0 0.08,0 0,-0.01 0,-0.04 0.01,-0.05 0,-0.01 0.01,-0.05 0.02,-0.06 0.03,-0.08 0.09,-0.13 0.16,-0.14 0.01,-0.01 0.02,-0.01 0.02,-0.01 0.02,0 0.03,0 0.04,0 0,-0.01 0,-0.02 0,-0.03 0,-0.01 0,-0.02 0.01,-0.03z"/>
     </g>
     <g>
      <path class="fil5" d="M1.36 0.61c-0.17,0.1 -0.22,0.21 -0.23,0.42 0.01,0.2 0.08,0.31 0.2,0.39l0.05 0.81c0.07,-0.02 0.12,-0.06 0.13,-0.13l0.01 -0.1 0.05 -0.17 -0.07 -0.16 0.08 -0.15 -0.03 -0.15c0.14,-0.11 0.19,-0.28 0.15,-0.49 -0.06,-0.2 -0.17,-0.3 -0.34,-0.27z"/>
      <g>
       <path class="fil2 str1" d="M1.33 0.8c0.02,-0.06 0.07,-0.07 0.1,-0.04 0.04,0.03 0.05,0.1 0.03,0.14 -0.06,0.12 -0.19,0.02 -0.13,-0.1zm-0.01 -0.02c-0.03,0.06 -0.02,0.14 0.02,0.18 0.04,0.03 0.1,0.02 0.13,-0.04 0.02,-0.06 0.02,-0.14 -0.03,-0.18 -0.04,-0.03 -0.09,-0.02 -0.12,0.04z"/>
       <path class="fil2" d="M1.14 0.87c-0.04,0.08 0.05,0.15 0.08,0.07 0.01,-0.03 0.01,-0.07 -0.02,-0.09 -0.02,-0.02 -0.05,-0.01 -0.06,0.02z"/>
      </g>
      <path class="fil2" d="M1.12 1.05c0,0.01 0,0.02 0,0.04 0,0.09 0.04,0.2 0.09,0.26 0.02,0.03 0.04,0.05 0.06,0.07 0.04,0.02 0.05,0.01 0.05,0.04 0,0.06 0.01,0.1 0.01,0.16l0.01 0.16c0,0.04 0.02,0.47 0.02,0.48 0.02,-0.01 0.03,-0.01 0.05,-0.02 0.05,-0.01 0.11,-0.06 0.13,-0.14 0.01,-0.04 -0.01,-0.08 0,-0.13l0.04 -0.14c0,0 0.01,0 0,0 0,-0.01 0,0 0,-0.01 -0.02,-0.04 -0.04,-0.11 -0.06,-0.15 0.02,-0.04 0.07,-0.1 0.07,-0.15 0,-0.02 0,-0.04 -0.01,-0.07 0,-0.02 0,-0.05 0,-0.06 0.04,-0.05 0.06,-0.06 0.1,-0.14 0.02,-0.06 0.04,-0.12 0.05,-0.17 0,-0.06 0,-0.11 -0.01,-0.17 -0.02,-0.05 -0.03,-0.1 -0.06,-0.15 -0.03,-0.06 -0.07,-0.1 -0.12,-0.12 -0.04,-0.03 -0.08,-0.03 -0.12,-0.03l-0.05 0.01c-0.05,0.01 -0.11,0.05 -0.14,0.1 -0.01,0.01 -0.03,0.03 -0.03,0.04l0.01 0c0.01,0.01 0.01,0.03 0.03,0.04 0.04,-0.04 0.05,-0.08 0.1,-0.11 0.03,-0.02 0.07,-0.03 0.1,-0.03 0.03,0 0.09,0.01 0.11,0.03 0.07,0.06 0.13,0.15 0.14,0.27 0.01,0.04 0.01,0.1 0,0.14 -0.02,0.12 -0.08,0.21 -0.16,0.26 0,0.01 0,0.03 0.01,0.04l0.01 0.12c0,0.01 -0.01,0.02 -0.02,0.04l-0.06 0.13c0.02,0.03 0.04,0.09 0.06,0.13 0.01,0.02 0,0.01 -0.01,0.07l-0.03 0.12c0,0.02 0,0.01 0,0.03 0,0.01 0.01,0.07 0,0.07 -0.01,0.05 -0.07,0.09 -0.09,0.09 -0.01,-0.01 0,-0.01 0,-0.02 -0.01,-0.06 -0.01,-0.12 -0.01,-0.18 0,-0.02 0,-0.04 0,-0.05l-0.01 -0.26c0,-0.01 0,-0.03 0,-0.05 0,-0.02 0,-0.03 0,-0.05l-0.01 -0.1c0,-0.04 0,-0.07 0,-0.1 -0.01,-0.01 -0.03,-0.01 -0.04,-0.01 -0.01,-0.01 -0.04,-0.02 -0.04,-0.03 -0.07,-0.04 -0.1,-0.13 -0.12,-0.22 0,-0.01 0,-0.02 0,-0.03 0,-0.02 0,-0.04 -0.01,-0.06 0,0.01 -0.01,0.01 -0.02,0.01 0,0 -0.01,0 -0.02,0z"/>
     </g>
     <g>
      <path class="fil6" d="M1.26 0.65c-0.15,0.15 -0.18,0.28 -0.14,0.49 0.04,0.19 0.13,0.27 0.26,0.3l0.2 0.76c0.06,-0.04 0.11,-0.09 0.11,-0.17l-0.02 -0.1 0.02 -0.18 -0.09 -0.13 0.04 -0.17 -0.05 -0.14c0.11,-0.16 0.12,-0.33 0.04,-0.53 -0.09,-0.17 -0.21,-0.22 -0.37,-0.13z"/>
      <g>
       <path class="fil2 str1" d="M1.26 0.84c0.01,-0.06 0.06,-0.09 0.09,-0.08 0.05,0.02 0.07,0.08 0.06,0.13 -0.03,0.14 -0.18,0.09 -0.15,-0.05zm-0.01 -0.01c-0.02,0.06 0,0.13 0.05,0.16 0.05,0.02 0.1,-0.02 0.12,-0.09 0.01,-0.06 -0.01,-0.14 -0.06,-0.16 -0.04,-0.01 -0.09,0.02 -0.11,0.09z"/>
       <path class="fil2" d="M1.09 0.98c-0.02,0.08 0.07,0.12 0.09,0.03 0.01,-0.03 0,-0.07 -0.03,-0.08 -0.02,-0.01 -0.05,0.01 -0.06,0.05z"/>
      </g>
      <path class="fil2" d="M1.11 1.15c0,0.01 0,0.03 0,0.04 0.02,0.09 0.08,0.18 0.14,0.23 0.03,0.01 0.05,0.03 0.07,0.04 0.05,0.01 0.05,0 0.06,0.02 0.01,0.06 0.02,0.1 0.04,0.15l0.03 0.16c0.01,0.03 0.12,0.44 0.12,0.45 0.02,-0.02 0.03,-0.02 0.04,-0.04 0.05,-0.03 0.09,-0.1 0.1,-0.17 0,-0.05 -0.03,-0.08 -0.02,-0.13l0.01 -0.15c0,-0.01 0.01,0 0,-0.01 0,0 0,0 0,0 -0.03,-0.03 -0.06,-0.09 -0.09,-0.13 0.02,-0.04 0.04,-0.12 0.04,-0.16 0,-0.03 -0.01,-0.05 -0.02,-0.07 -0.01,-0.02 -0.01,-0.05 -0.02,-0.06 0.04,-0.06 0.06,-0.08 0.08,-0.17 0.01,-0.06 0.01,-0.14 0.01,-0.18 -0.01,-0.06 -0.02,-0.11 -0.04,-0.16 -0.03,-0.05 -0.05,-0.09 -0.09,-0.13 -0.04,-0.04 -0.08,-0.06 -0.13,-0.07 -0.05,-0.01 -0.09,0 -0.12,0.01l-0.06 0.03c-0.04,0.03 -0.08,0.09 -0.11,0.15 0,0.01 -0.02,0.04 -0.02,0.05l0.01 -0.01c0.02,0.01 0.02,0.02 0.04,0.03 0.02,-0.05 0.03,-0.09 0.07,-0.14 0.03,-0.03 0.06,-0.06 0.1,-0.07 0.02,-0.01 0.08,-0.02 0.11,-0.01 0.07,0.04 0.15,0.11 0.18,0.21 0.01,0.04 0.03,0.1 0.03,0.14 0,0.13 -0.04,0.23 -0.1,0.31 0,0.01 0,0.03 0.01,0.04l0.03 0.1c0,0.02 0,0.03 -0.01,0.05l-0.04 0.15c0.03,0.03 0.06,0.07 0.09,0.11 0.01,0.02 0.01,0 0,0.07l0 0.12c0,0.02 -0.01,0.01 0,0.03 0,0.01 0.02,0.06 0.02,0.07 -0.01,0.06 -0.05,0.11 -0.08,0.12 0,-0.01 0,-0.01 0,-0.02 -0.02,-0.06 -0.03,-0.11 -0.04,-0.17 -0.01,-0.02 -0.01,-0.04 -0.02,-0.05l-0.05 -0.24c-0.01,-0.02 -0.01,-0.04 -0.01,-0.05 -0.01,-0.02 -0.01,-0.04 -0.01,-0.05l-0.03 -0.1c-0.01,-0.03 -0.01,-0.07 -0.02,-0.1 -0.01,0 -0.03,0.01 -0.04,0.01 -0.01,0 -0.04,-0.01 -0.05,-0.01 -0.07,-0.02 -0.12,-0.09 -0.15,-0.18 0,-0.01 0,-0.02 -0.01,-0.02 0,-0.02 -0.01,-0.04 -0.01,-0.06 -0.01,0.01 -0.01,0.01 -0.02,0.02 -0.01,0 -0.01,0.01 -0.02,0z"/>
     </g>
     <g>
      <path class="fil7" d="M1.19 0.71c-0.12,0.21 -0.12,0.34 -0.05,0.53 0.08,0.17 0.18,0.21 0.32,0.19l0.33 0.67c0.05,-0.06 0.09,-0.13 0.07,-0.2l-0.03 -0.09 -0.02 -0.18 -0.11 -0.09 0 -0.19 -0.07 -0.11c0.07,-0.19 0.05,-0.37 -0.06,-0.53 -0.12,-0.13 -0.25,-0.14 -0.38,0z"/>
      <g>
       <path class="fil2 str1" d="M1.22 0.9c0.01,-0.07 0.04,-0.11 0.08,-0.11 0.05,0 0.08,0.06 0.07,0.11 0,0.14 -0.15,0.15 -0.15,0zm-0.01 -0.01c0,0.07 0.03,0.13 0.08,0.14 0.05,0 0.1,-0.05 0.1,-0.12 0,-0.07 -0.03,-0.14 -0.09,-0.14 -0.04,0 -0.09,0.05 -0.09,0.12z"/>
       <path class="fil2" d="M1.09 1.1c-0.01,0.08 0.09,0.09 0.09,0 0,-0.04 -0.02,-0.07 -0.04,-0.07 -0.03,0 -0.05,0.03 -0.05,0.07z"/>
      </g>
      <path class="fil2" d="M1.14 1.26c0,0.01 0.01,0.02 0.01,0.03 0.03,0.09 0.11,0.15 0.18,0.17 0.02,0.01 0.05,0.01 0.07,0.01 0.05,0 0.05,-0.01 0.06,0.01 0.02,0.05 0.04,0.08 0.06,0.13l0.07 0.14c0.01,0.02 0.19,0.38 0.2,0.39 0.01,-0.02 0.02,-0.03 0.03,-0.05 0.04,-0.04 0.07,-0.13 0.06,-0.2 -0.01,-0.05 -0.04,-0.07 -0.04,-0.12l-0.02 -0.15c0,-0.01 0,0 0,-0.01 0,0 0,0 0,0 -0.03,-0.02 -0.08,-0.06 -0.11,-0.08 0,-0.06 0.02,-0.14 0.01,-0.18 -0.01,-0.02 -0.02,-0.04 -0.03,-0.06 -0.02,-0.02 -0.03,-0.04 -0.04,-0.05 0.03,-0.07 0.04,-0.1 0.04,-0.2 0,-0.06 0,-0.13 -0.02,-0.17 -0.02,-0.05 -0.04,-0.1 -0.07,-0.14 -0.03,-0.03 -0.06,-0.07 -0.1,-0.09 -0.05,-0.03 -0.1,-0.04 -0.15,-0.03 -0.05,0.01 -0.08,0.03 -0.11,0.06l-0.05 0.05c-0.04,0.04 -0.07,0.11 -0.08,0.18 0,0.01 -0.01,0.05 -0.01,0.05l0.01 -0.01c0.02,0.01 0.02,0.02 0.04,0.02 0.02,-0.06 0.01,-0.1 0.05,-0.17 0.02,-0.03 0.05,-0.07 0.07,-0.09 0.03,-0.02 0.08,-0.05 0.11,-0.05 0.08,0 0.16,0.05 0.22,0.14 0.02,0.03 0.04,0.08 0.05,0.12 0.02,0.12 0.01,0.24 -0.04,0.34 0,0.01 0.01,0.02 0.01,0.03l0.06 0.09c0,0.01 0,0.02 0,0.05l-0.01 0.15c0.03,0.02 0.07,0.05 0.1,0.08 0.02,0.01 0.01,0 0.02,0.07l0.02 0.11c0,0.02 0,0.02 0.01,0.03 0,0.01 0.03,0.06 0.03,0.07 0,0.05 -0.03,0.12 -0.05,0.14 -0.01,-0.01 -0.01,-0.01 -0.02,-0.02 -0.02,-0.05 -0.04,-0.1 -0.07,-0.15 0,-0.02 -0.01,-0.03 -0.02,-0.05l-0.1 -0.21c0,-0.01 -0.01,-0.03 -0.02,-0.04 0,-0.02 -0.01,-0.03 -0.02,-0.05l-0.04 -0.08c-0.01,-0.03 -0.02,-0.06 -0.04,-0.09 -0.01,0 -0.03,0.02 -0.04,0.02 0,0 -0.03,0.01 -0.04,0.01 -0.07,0 -0.13,-0.05 -0.18,-0.12 -0.01,-0.01 -0.01,-0.01 -0.01,-0.02 -0.01,-0.01 -0.02,-0.03 -0.03,-0.04 0,0 -0.01,0.01 -0.02,0.01 0,0.01 0,0.02 -0.01,0.02z"/>
     </g>
     <g>
      <path class="fil8" d="M1.15 0.79c-0.07,0.24 -0.04,0.37 0.06,0.53 0.1,0.13 0.21,0.14 0.34,0.07l0.44 0.53c0.05,-0.08 0.07,-0.16 0.04,-0.22l-0.05 -0.08 -0.06 -0.17 -0.12 -0.04 -0.03 -0.19 -0.09 -0.08c0.04,-0.21 -0.02,-0.37 -0.15,-0.48 -0.14,-0.09 -0.27,-0.06 -0.38,0.13z"/>
      <g>
       <path class="fil2 str1" d="M1.22 0.96c-0.01,-0.07 0.02,-0.12 0.06,-0.13 0.04,-0.02 0.08,0.02 0.09,0.08 0.02,0.13 -0.12,0.19 -0.15,0.05zm-0.01 0c0.01,0.06 0.05,0.11 0.1,0.1 0.05,-0.01 0.08,-0.08 0.07,-0.15 -0.01,-0.07 -0.05,-0.12 -0.1,-0.1 -0.05,0.01 -0.08,0.07 -0.07,0.15z"/>
       <path class="fil2" d="M1.13 1.2c0.01,0.08 0.11,0.05 0.09,-0.04 -0.01,-0.03 -0.03,-0.06 -0.06,-0.04 -0.02,0 -0.04,0.04 -0.03,0.08z"/>
      </g>
      <path class="fil2" d="M1.21 1.33c0,0.01 0.01,0.03 0.02,0.03 0.04,0.07 0.13,0.1 0.2,0.1 0.02,0 0.05,0 0.07,-0.01 0.05,-0.02 0.05,-0.03 0.06,-0.01 0.03,0.03 0.06,0.06 0.09,0.1l0.09 0.11c0.02,0.02 0.25,0.3 0.26,0.31 0.01,-0.03 0.02,-0.04 0.03,-0.06 0.03,-0.06 0.04,-0.15 0.01,-0.22 -0.01,-0.04 -0.05,-0.05 -0.06,-0.1l-0.04 -0.14c-0.01,0 0,0 -0.01,0 0,0 0,0 0,0 -0.03,-0.01 -0.09,-0.04 -0.12,-0.05 0,-0.05 -0.01,-0.14 -0.03,-0.17 -0.01,-0.02 -0.02,-0.03 -0.04,-0.05 -0.01,-0.01 -0.03,-0.03 -0.04,-0.04 0.01,-0.07 0.02,-0.11 0,-0.2 -0.01,-0.06 -0.03,-0.12 -0.05,-0.16 -0.03,-0.04 -0.05,-0.08 -0.09,-0.11 -0.04,-0.02 -0.07,-0.04 -0.12,-0.05 -0.05,-0.01 -0.1,0 -0.15,0.03 -0.04,0.02 -0.07,0.05 -0.1,0.09l-0.03 0.06c-0.03,0.06 -0.05,0.14 -0.05,0.21 0,0.01 0,0.05 0.01,0.06l0 -0.02c0.02,0 0.02,0.01 0.04,0 0.01,-0.06 0,-0.09 0.02,-0.17 0.01,-0.05 0.03,-0.09 0.05,-0.12 0.02,-0.03 0.07,-0.08 0.1,-0.09 0.08,-0.02 0.16,-0.01 0.23,0.06 0.03,0.02 0.06,0.06 0.08,0.1 0.04,0.11 0.05,0.22 0.02,0.34 0,0.01 0.02,0.02 0.02,0.02l0.07 0.07c0.01,0.01 0.01,0.02 0.01,0.05l0.02 0.15c0.03,0.01 0.08,0.03 0.11,0.04 0.02,0.01 0.01,0 0.03,0.06l0.04 0.1c0.01,0.02 0.01,0.02 0.02,0.03 0,0 0.04,0.04 0.04,0.05 0.01,0.05 -0.01,0.13 -0.02,0.15 -0.01,0 -0.01,0 -0.02,-0.01 -0.03,-0.04 -0.06,-0.08 -0.09,-0.12 -0.01,-0.01 -0.02,-0.03 -0.03,-0.04l-0.14 -0.17c-0.01,-0.01 -0.02,-0.02 -0.03,-0.03 -0.01,-0.01 -0.01,-0.03 -0.02,-0.04l-0.06 -0.07c-0.02,-0.02 -0.04,-0.04 -0.05,-0.06 -0.02,0 -0.03,0.02 -0.04,0.03 0,0 -0.03,0.02 -0.04,0.02 -0.07,0.03 -0.14,0.01 -0.2,-0.05 0,0 -0.01,-0.01 -0.01,-0.01 -0.01,-0.01 -0.03,-0.03 -0.04,-0.04 0,0.01 0,0.02 -0.01,0.02 0,0.01 -0.01,0.02 -0.01,0.02z"/>
     </g>
    </g>
    <path class="fil9 str2" d="M1.29 0.94c0,0.01 0.02,0.01 0.05,0.02l0.61 0.04c0.06,0.01 0.2,0.03 0.25,-0.07 0.03,-0.09 0,-0.28 -0.04,-0.42 -0.1,-0.13 -0.23,-0.22 -0.55,-0.19 -0.14,0.01 -0.27,0.09 -0.36,0.25 0.03,0 0.04,0.02 0.05,0.05 0.07,-0.14 0.18,-0.23 0.33,-0.24 0.19,-0.01 0.39,0.04 0.44,0.14 0.07,0.12 0.07,0.27 0.06,0.35 0.01,0.03 -0.04,0.07 -0.08,0.07l-0.71 -0.03c-0.02,0 -0.03,0 -0.04,0.01 -0.01,0.01 -0.01,0.01 -0.01,0.02z"/>
   </g>
  </g>
 </g>
</svg>
