<?xml version="1.0" encoding="UTF-8"?>
<!DOCTYPE svg PUBLIC "-//W3C//DTD SVG 1.1//EN" "http://www.w3.org/Graphics/SVG/1.1/DTD/svg11.dtd">
<!-- Creator: CorelDRAW 2021 (64 Bit) -->
<svg xmlns="http://www.w3.org/2000/svg" xml:space="preserve" width="330px" height="330px" version="1.1" style="shape-rendering:geometricPrecision; text-rendering:geometricPrecision; image-rendering:optimizeQuality; fill-rule:evenodd; clip-rule:evenodd"
viewBox="0 0 26.3 26.3"
 xmlns:xlink="http://www.w3.org/1999/xlink"
 xmlns:xodm="http://www.corel.com/coreldraw/odm/2003">
 <defs>
  <style type="text/css">
   <![CDATA[
    .str0 {stroke:#B8B4B6;stroke-width:2.39;stroke-miterlimit:22.9256}
    .str1 {stroke:#FC0303;stroke-width:0.64;stroke-miterlimit:22.9256}
    .fil1 {fill:red}
    .fil0 {fill:white}
   ]]>
  </style>
 </defs>
 <g id="Camada_x0020_1">
  <metadata id="CorelCorpID_0Corel-Layer"/>
  <g id="_2713554987632">
   <path class="fil0 str0" d="M2.27 1.2l21.79 0c0.58,0 1.05,0.53 1.05,1.19l0 21.52c0,0.66 -0.47,1.2 -1.05,1.2l-21.79 0c-0.58,0 -1.05,-0.54 -1.05,-1.2 0,-2.59 -0.04,-20.84 -0.02,-21.78 0.01,-0.51 0.64,-0.93 1.07,-0.93z"/>
   <g>
    <path class="fil1 str1" d="M8.99 8.54l8.32 0c0.75,0 1.36,0.31 1.36,0.69l0 0c0,0.39 -0.61,0.7 -1.36,0.7l-8.32 0c-0.75,0 -1.36,-0.31 -1.36,-0.7l0 0c0,-0.38 0.61,-0.69 1.36,-0.69z"/>
    <path class="fil1 str1" d="M8.99 11.76l8.32 0c0.75,0 1.36,0.31 1.36,0.7l0 0c0,0.38 -0.61,0.69 -1.36,0.69l-8.32 0c-0.75,0 -1.36,-0.31 -1.36,-0.69l0 0c0,-0.39 0.61,-0.7 1.36,-0.7z"/>
    <path class="fil1 str1" d="M8.99 14.99l8.32 0c0.75,0 1.36,0.31 1.36,0.69l0 0c0,0.38 -0.61,0.69 -1.36,0.69l-8.32 0c-0.75,0 -1.36,-0.31 -1.36,-0.69l0 0c0,-0.38 0.61,-0.69 1.36,-0.69z"/>
    <path class="fil1 str1" d="M8.99 18.21l8.32 0c0.75,0 1.36,0.31 1.36,0.69l0 0c0,0.39 -0.61,0.7 -1.36,0.7l-8.32 0c-0.75,0 -1.36,-0.31 -1.36,-0.7l0 0c0,-0.38 0.61,-0.69 1.36,-0.69z"/>
   </g>
  </g>
 </g>
</svg>
