<?xml version="1.0" encoding="UTF-8"?>
<!DOCTYPE svg PUBLIC "-//W3C//DTD SVG 1.1//EN" "http://www.w3.org/Graphics/SVG/1.1/DTD/svg11.dtd">
<!-- Creator: CorelDRAW 2021 (64 Bit) -->
<svg xmlns="http://www.w3.org/2000/svg" xml:space="preserve" width="331px" height="330px" version="1.1" style="shape-rendering:geometricPrecision; text-rendering:geometricPrecision; image-rendering:optimizeQuality; fill-rule:evenodd; clip-rule:evenodd"
viewBox="0 0 4.04 4.03"
 xmlns:xlink="http://www.w3.org/1999/xlink"
 xmlns:xodm="http://www.corel.com/coreldraw/odm/2003">
 <defs>
  <style type="text/css">
   <![CDATA[
    .fil2 {fill:black}
    .fil4 {fill:#01F946}
    .fil6 {fill:#129C38}
    .fil3 {fill:#282829}
    .fil1 {fill:#B8B4B6}
    .fil5 {fill:#FE0000}
    .fil0 {fill:#FEFEFE}
   ]]>
  </style>
 </defs>
 <g id="Camada_x0020_1">
  <metadata id="CorelCorpID_0Corel-Layer"/>
  <g id="_2400570499392">
   <path class="fil0" d="M0.53 2.07l0.32 0c0,0.13 -0.01,0.98 0.02,1.06 0.02,0.07 0.05,0.07 0.13,0.08 0.14,0.01 0.3,0 0.44,0 0.29,0 0.57,0 0.86,0 0.33,0 0.29,0.03 0.29,-0.58l0.3 0c0,0.14 0.02,0.46 -0.01,0.57 -0.04,0.13 -0.16,0.26 -0.29,0.3 -0.16,0.05 -0.92,0.02 -1.15,0.02 -0.16,0 -0.43,0.01 -0.57,-0.02 -0.15,-0.03 -0.26,-0.15 -0.3,-0.28 -0.06,-0.18 -0.03,-0.91 -0.04,-1.15zm0.57 0.9c-0.05,-0.16 0.17,-0.19 0.2,-0.07 0.05,0.14 -0.16,0.19 -0.2,0.07zm1.25 0c-0.06,0.13 -0.25,0.06 -0.21,-0.08 0.05,-0.13 0.26,-0.06 0.21,0.08zm-0.74 -0.03c-0.02,-0.14 0.21,-0.16 0.22,-0.02 0.01,0.06 -0.04,0.11 -0.1,0.12 -0.06,0 -0.11,-0.05 -0.12,-0.1zm0.8 -2.22l-0.06 -0.29 1.28 0.47c-0.06,0.06 -0.18,0.13 -0.26,0.18 -0.09,0.06 -0.16,0.1 -0.25,0.16l-0.51 0.33c-0.05,-0.07 -0.03,-0.21 -0.08,-0.29 -0.15,-0.01 -0.43,0.04 -0.57,0.07 -0.58,0.15 -0.8,0.69 -1.02,0.89 0.05,-0.23 0.32,-0.87 0.46,-1.04 0.19,-0.24 0.6,-0.41 1.01,-0.48zm-2.04 2.94l3.3 0 0 -3.3 -3.3 0.01 0 3.29z"/>
   <path class="fil1" d="M0.37 0.37l3.3 -0.01 0 3.3 -3.3 0 0 -3.29zm-0.37 -0.05l0 3.32c0,0.21 0.14,0.39 0.34,0.39l3.37 0c0.22,0 0.33,-0.22 0.33,-0.45l0 -3.13c0,-0.12 -0.02,-0.23 -0.07,-0.3 -0.05,-0.07 -0.14,-0.15 -0.25,-0.15l-3.4 0c-0.08,0 -0.18,0.06 -0.22,0.1 -0.05,0.04 -0.1,0.13 -0.1,0.22z"/>
   <path class="fil2" d="M0.66 2.19l0.07 0.01c0,0.27 -0.02,0.62 0,0.88 0.03,0.33 0.32,0.25 0.63,0.25 0.29,0 0.58,0 0.87,0 0.37,0 0.48,0.01 0.48,-0.39l0.01 -0.17c0,0 -0.01,-0.04 0.03,-0.01 0.03,0.01 0.02,0 0.02,0.05l0 0.16c0,0.47 -0.2,0.42 -0.57,0.42l-0.94 0c-0.22,0 -0.55,0.07 -0.59,-0.29 -0.03,-0.26 -0.01,-0.6 -0.01,-0.87l0 -0.04zm-0.13 -0.12c0.01,0.24 -0.02,0.97 0.04,1.15 0.04,0.13 0.15,0.25 0.3,0.28 0.14,0.03 0.41,0.02 0.57,0.02 0.23,0 0.99,0.03 1.15,-0.02 0.13,-0.04 0.25,-0.17 0.29,-0.3 0.03,-0.11 0.01,-0.43 0.01,-0.57l-0.3 0c0,0.61 0.04,0.58 -0.29,0.58 -0.29,0 -0.57,0 -0.86,0 -0.14,0 -0.3,0.01 -0.44,0 -0.08,-0.01 -0.11,-0.01 -0.13,-0.08 -0.03,-0.08 -0.02,-0.93 -0.02,-1.06l-0.32 0z"/>
   <path class="fil3" d="M1.42 1.46c0.12,-0.21 0.16,-0.24 0.41,-0.39 0.09,-0.05 0.48,-0.2 0.61,-0.19 0.02,0.04 0.06,0.2 0.05,0.25 -0.2,0.02 -0.43,0.04 -0.62,0.1 -0.27,0.08 -0.37,0.21 -0.45,0.23zm1.16 -0.8l0.71 0.28c-0.04,0.03 -0.09,0.07 -0.13,0.1l-0.44 0.31c0,-0.01 0,-0.01 -0.01,-0.03 -0.01,-0.03 0,0.02 -0.01,-0.02 0,-0.01 0,-0.02 -0.01,-0.04 0,-0.03 -0.01,-0.05 -0.01,-0.08l-0.12 -0.5 -0.01 -0.04 0.03 0.02zm-0.17 0.06c-0.41,0.07 -0.82,0.24 -1.01,0.48 -0.14,0.17 -0.41,0.81 -0.46,1.04 0.22,-0.2 0.44,-0.74 1.02,-0.89 0.14,-0.03 0.42,-0.08 0.57,-0.07 0.05,0.08 0.03,0.22 0.08,0.29l0.51 -0.33c0.09,-0.06 0.16,-0.1 0.25,-0.16 0.08,-0.05 0.2,-0.12 0.26,-0.18l-1.28 -0.47 0.06 0.29z"/>
   <path class="fil4" d="M2.58 0.66l-0.02 0.02 0.12 0.5c0,0.03 0.01,0.05 0.01,0.08 0.01,0.02 0.01,0.03 0.01,0.04 0.01,0.04 0,-0.01 0.01,0.02 0.01,0.02 0.01,0.02 0.01,0.03l0.44 -0.31c0.04,-0.03 0.09,-0.07 0.13,-0.1l-0.71 -0.28z"/>
   <path class="fil5" d="M0.66 2.23c0,0.27 -0.02,0.61 0.01,0.87 0.04,0.36 0.37,0.29 0.59,0.29l0.94 0c0.37,0 0.57,0.05 0.57,-0.42l0 -0.16c0,-0.05 0.01,-0.04 -0.02,-0.05 -0.04,-0.03 -0.03,0.01 -0.03,0.01l-0.01 0.17c0,0.4 -0.11,0.39 -0.48,0.39 -0.29,0 -0.58,0 -0.87,0 -0.31,0 -0.6,0.08 -0.63,-0.25 -0.02,-0.26 0,-0.61 0,-0.88l-0.07 -0.01 0 0.04z"/>
   <path class="fil4" d="M1.42 1.46c0.08,-0.02 0.18,-0.15 0.45,-0.23 0.19,-0.06 0.42,-0.08 0.62,-0.1 0.01,-0.05 -0.03,-0.21 -0.05,-0.25 -0.13,-0.01 -0.52,0.14 -0.61,0.19 -0.25,0.15 -0.29,0.18 -0.41,0.39z"/>
   <path class="fil2" d="M2.35 2.97c0.05,-0.14 -0.16,-0.21 -0.21,-0.08 -0.04,0.14 0.15,0.21 0.21,0.08z"/>
   <path class="fil2" d="M1.61 2.94c0.01,0.05 0.06,0.1 0.12,0.1 0.06,-0.01 0.11,-0.06 0.1,-0.12 -0.01,-0.14 -0.24,-0.12 -0.22,0.02z"/>
   <path class="fil2" d="M1.1 2.97c0.04,0.12 0.25,0.07 0.2,-0.07 -0.03,-0.12 -0.25,-0.09 -0.2,0.07z"/>
   <polygon class="fil6" points="2.56,0.68 2.58,0.66 2.55,0.64 "/>
  </g>
 </g>
</svg>
