<?xml version="1.0" encoding="UTF-8"?>
<!DOCTYPE svg PUBLIC "-//W3C//DTD SVG 1.1//EN" "http://www.w3.org/Graphics/SVG/1.1/DTD/svg11.dtd">
<!-- Creator: CorelDRAW 2021 (64 Bit) -->
<svg xmlns="http://www.w3.org/2000/svg" xml:space="preserve" width="400px" height="400px" version="1.1" style="shape-rendering:geometricPrecision; text-rendering:geometricPrecision; image-rendering:optimizeQuality; fill-rule:evenodd; clip-rule:evenodd"
viewBox="0 0 2.26 2.26"
 xmlns:xlink="http://www.w3.org/1999/xlink"
 xmlns:xodm="http://www.corel.com/coreldraw/odm/2003">
 <defs>
  <style type="text/css">
   <![CDATA[
    .str1 {stroke:black;stroke-width:0.05;stroke-miterlimit:22.9256}
    .str0 {stroke:#C4C4C4;stroke-width:0.17;stroke-miterlimit:22.9256}
    .str4 {stroke:black;stroke-width:0.02;stroke-miterlimit:22.9256}
    .str2 {stroke:black;stroke-width:0.04;stroke-miterlimit:22.9256}
    .str3 {stroke:black;stroke-width:0.06;stroke-miterlimit:22.9256}
    .fil1 {fill:none}
    .fil6 {fill:#00CCFF}
    .fil4 {fill:lime}
    .fil8 {fill:aqua}
    .fil7 {fill:#99FFFF}
    .fil3 {fill:red}
    .fil5 {fill:fuchsia}
    .fil2 {fill:#FF6600}
    .fil0 {fill:white}
   ]]>
  </style>
 </defs>
 <g id="Camada_x0020_1">
  <metadata id="CorelCorpID_0Corel-Layer"/>
  <g id="_2069832970768">
   <circle class="fil0 str0" cx="1.13" cy="1.13" r="1.04"/>
   <g>
    <line class="fil1 str1" x1="0.65" y1="0.8" x2="1.61" y2= "0.81" />
    <rect class="fil1 str1" x="0.67" y="1.07" width="0.3" height="0.27"/>
    <line class="fil1 str2" x1="1.73" y1="0.89" x2="1.73" y2= "1.58" />
    <line class="fil1 str2" x1="0.53" y1="0.88" x2="0.52" y2= "1.57" />
    <line class="fil1 str2" x1="1.13" y1="0.77" x2="1.13" y2= "1.66" />
    <line class="fil1 str1" x1="0.83" y1="0.8" x2="0.82" y2= "1.07" />
    <line class="fil1 str2" x1="0.82" y1="1.36" x2="0.83" y2= "1.51" />
    <rect class="fil1 str3" x="0.4" y="0.73" width="0.25" height="0.15"/>
    <rect class="fil1 str3" x="1.61" y="0.74" width="0.25" height="0.15"/>
    <ellipse class="fil1 str4" transform="matrix(0.340942 0.12882 -0.140475 0.297427 0.805005 0.493956)" rx="0.27" ry="0.28"/>
    <path class="fil1 str1" d="M0.9 0.46l0.03 -0.13c-0.01,-0.02 -0.03,-0.02 -0.06,-0.02l-0.08 0.11"/>
    <path class="fil1 str1" d="M0.73 0.53l-0.03 0.13c0.01,0.02 0.03,0.03 0.05,0.02l0.09 -0.1"/>
    <path class="fil1 str1" d="M0.84 0.42l-0.08 -0.12c-0.02,0 -0.04,0.01 -0.05,0.02l0.02 0.14"/>
    <path class="fil1 str1" d="M0.78 0.58l0.08 0.11c0.02,0 0.04,-0.01 0.06,-0.02l-0.03 -0.13"/>
    <path class="fil1 str1" d="M0.72 0.47l-0.13 0.07c0,0.02 0.01,0.04 0.03,0.05l0.15 -0.02"/>
    <path class="fil1 str1" d="M0.9 0.52l0.12 -0.07c0.01,-0.02 0,-0.03 -0.02,-0.05l-0.15 0.02"/>
    <path class="fil1 str1" d="M0.76 0.42l-0.14 -0.03c-0.02,0.02 -0.03,0.03 -0.02,0.05l0.12 0.08"/>
    <path class="fil1 str1" d="M0.85 0.57l0.14 0.03c0.02,-0.01 0.03,-0.03 0.03,-0.05l-0.13 -0.08"/>
    <line class="fil1 str1" x1="0.98" y1="1.22" x2="1.27" y2= "1.22" />
    <rect class="fil1 str1" x="1.27" y="1.07" width="0.3" height="0.27"/>
    <line class="fil1 str1" x1="1.57" y1="1.22" x2="1.73" y2= "1.22" />
    <line class="fil1 str1" x1="1.42" y1="1.08" x2="1.42" y2= "0.81" />
    <line class="fil1 str2" x1="1.44" y1="1.34" x2="1.44" y2= "1.5" />
    <ellipse class="fil1 str2" cx="1.43" cy="1.65" rx="0.07" ry="0.06"/>
    <path class="fil1 str2" d="M1.48 1.6l-0.02 -0.09c-0.01,-0.01 -0.03,-0.01 -0.04,0l-0.03 0.09"/>
    <path class="fil1 str2" d="M1.39 1.69l0.02 0.09c0.01,0.01 0.03,0.01 0.04,0l0.03 -0.09"/>
    <path class="fil1 str2" d="M1.43 1.58l-0.09 -0.05c-0.01,0 -0.02,0.01 -0.03,0.03l0.06 0.08"/>
    <path class="fil1 str2" d="M1.44 1.71l0.09 0.05c0.01,0 0.02,-0.01 0.03,-0.03l-0.06 -0.08"/>
    <path class="fil1 str2" d="M1.36 1.65l-0.06 0.08c0.01,0.01 0.02,0.02 0.03,0.03l0.1 -0.05"/>
    <path class="fil1 str2" d="M1.5 1.64l0.06 -0.08c0,-0.01 -0.02,-0.02 -0.03,-0.02l-0.09 0.05"/>
    <path class="fil1 str2" d="M1.38 1.61l-0.11 0.02c0,0.01 -0.01,0.02 0,0.03l0.11 0.03"/>
    <path class="fil1 str2" d="M1.48 1.69l0.11 -0.02c0,-0.01 0,-0.02 0,-0.04l-0.11 -0.02"/>
    <rect class="fil1 str2" x="1.64" y="1.58" width="0.18" height="0.15"/>
    <line class="fil1 str2" x1="1.6" y1="1.65" x2="1.64" y2= "1.65" />
    <rect class="fil1 str2" x="0.43" y="1.57" width="0.18" height="0.15"/>
    <line class="fil1 str2" x1="0.61" y1="1.65" x2="0.66" y2= "1.65" />
    <ellipse class="fil1 str2" cx="0.82" cy="1.65" rx="0.07" ry="0.06"/>
    <path class="fil1 str2" d="M0.87 1.6l-0.02 -0.09c-0.01,-0.01 -0.03,-0.01 -0.04,0l-0.03 0.09"/>
    <path class="fil1 str2" d="M0.78 1.7l0.02 0.09c0.01,0.01 0.03,0.01 0.04,0l0.03 -0.09"/>
    <path class="fil1 str2" d="M0.82 1.59l-0.09 -0.05c-0.01,0 -0.02,0.01 -0.03,0.02l0.06 0.08"/>
    <path class="fil1 str2" d="M0.83 1.71l0.09 0.06c0.01,-0.01 0.02,-0.02 0.03,-0.03l-0.06 -0.08"/>
    <path class="fil1 str2" d="M0.75 1.66l-0.06 0.08c0.01,0.01 0.02,0.02 0.04,0.02l0.09 -0.05"/>
    <path class="fil1 str2" d="M0.89 1.65l0.06 -0.08c0,-0.01 -0.01,-0.02 -0.03,-0.03l-0.09 0.05"/>
    <path class="fil1 str2" d="M0.77 1.61l-0.11 0.02c0,0.01 0,0.03 0,0.04l0.11 0.02"/>
    <path class="fil1 str2" d="M0.87 1.69l0.11 -0.01c0,-0.02 0,-0.03 0,-0.04l-0.11 -0.02"/>
    <line class="fil1 str1" x1="0.53" y1="1.22" x2="0.67" y2= "1.22" />
    <line class="fil1 str2" x1="0.98" y1="1.66" x2="1.28" y2= "1.66" />
    <ellipse class="fil1 str4" transform="matrix(0.340942 0.12882 -0.140475 0.297427 1.46167 0.510833)" rx="0.27" ry="0.28"/>
    <path class="fil1 str1" d="M1.55 0.48l0.04 -0.13c-0.02,-0.02 -0.04,-0.03 -0.06,-0.02l-0.09 0.1"/>
    <path class="fil1 str1" d="M1.38 0.55l-0.03 0.13c0.02,0.02 0.03,0.02 0.06,0.02l0.09 -0.11"/>
    <path class="fil1 str1" d="M1.5 0.43l-0.08 -0.11c-0.02,0 -0.04,0.01 -0.06,0.02l0.03 0.13"/>
    <path class="fil1 str1" d="M1.44 0.59l0.08 0.11c0.02,0.01 0.04,0 0.05,-0.02l-0.02 -0.13"/>
    <path class="fil1 str1" d="M1.38 0.49l-0.13 0.07c0,0.02 0.01,0.03 0.02,0.05l0.15 -0.02"/>
    <path class="fil1 str1" d="M1.55 0.54l0.13 -0.07c0,-0.02 -0.01,-0.04 -0.02,-0.05l-0.15 0.02"/>
    <path class="fil1 str1" d="M1.42 0.44l-0.15 -0.03c-0.01,0.01 -0.02,0.03 -0.02,0.05l0.12 0.08"/>
    <path class="fil1 str1" d="M1.5 0.59l0.15 0.03c0.02,-0.01 0.02,-0.03 0.02,-0.05l-0.12 -0.08"/>
    <ellipse class="fil1 str2" cx="1.13" cy="0.63" rx="0.07" ry="0.06"/>
    <path class="fil1 str2" d="M1.18 0.58l-0.02 -0.09c-0.02,-0.01 -0.03,-0.01 -0.05,0l-0.02 0.09"/>
    <path class="fil1 str2" d="M1.09 0.67l0.02 0.1c0.01,0 0.02,0 0.04,0l0.02 -0.1"/>
    <path class="fil1 str2" d="M1.13 0.56l-0.09 -0.05c-0.02,0 -0.03,0.01 -0.03,0.03l0.05 0.08"/>
    <path class="fil1 str2" d="M1.14 0.69l0.08 0.05c0.02,0 0.03,-0.01 0.03,-0.03l-0.05 -0.08"/>
    <path class="fil1 str2" d="M1.06 0.63l-0.06 0.08c0,0.01 0.02,0.02 0.03,0.03l0.09 -0.05"/>
    <path class="fil1 str2" d="M1.2 0.62l0.06 -0.08c-0.01,-0.01 -0.02,-0.02 -0.03,-0.02l-0.1 0.05"/>
    <path class="fil1 str2" d="M1.08 0.59l-0.11 0.02c-0.01,0.01 -0.01,0.02 0,0.03l0.11 0.03"/>
    <path class="fil1 str2" d="M1.18 0.67l0.1 -0.02c0.01,-0.01 0.01,-0.02 0,-0.04l-0.1 -0.02"/>
    <line class="fil1 str1" x1="0.65" y1="0.8" x2="1.61" y2= "0.81" />
    <rect class="fil2 str1" x="0.67" y="1.07" width="0.3" height="0.27"/>
    <line class="fil1 str2" x1="1.73" y1="0.89" x2="1.73" y2= "1.58" />
    <line class="fil1 str2" x1="0.53" y1="0.88" x2="0.52" y2= "1.57" />
    <line class="fil1 str2" x1="1.13" y1="0.77" x2="1.13" y2= "1.66" />
    <line class="fil1 str1" x1="0.83" y1="0.8" x2="0.82" y2= "1.07" />
    <line class="fil1 str2" x1="0.82" y1="1.36" x2="0.83" y2= "1.51" />
    <rect class="fil3 str3" x="0.4" y="0.73" width="0.25" height="0.15"/>
    <rect class="fil3 str3" x="1.61" y="0.74" width="0.25" height="0.15"/>
    <ellipse class="fil4 str4" transform="matrix(0.340942 0.12882 -0.140475 0.297427 0.805005 0.493956)" rx="0.27" ry="0.28"/>
    <path class="fil1 str1" d="M0.9 0.46l0.03 -0.13c-0.01,-0.02 -0.03,-0.02 -0.06,-0.02l-0.08 0.11"/>
    <path class="fil1 str1" d="M0.73 0.53l-0.03 0.13c0.01,0.02 0.03,0.03 0.05,0.02l0.09 -0.1"/>
    <path class="fil1 str1" d="M0.84 0.42l-0.08 -0.12c-0.02,0 -0.04,0.01 -0.05,0.02l0.02 0.14"/>
    <path class="fil1 str1" d="M0.78 0.58l0.08 0.11c0.02,0 0.04,-0.01 0.06,-0.02l-0.03 -0.13"/>
    <path class="fil1 str1" d="M0.72 0.47l-0.13 0.07c0,0.02 0.01,0.04 0.03,0.05l0.15 -0.02"/>
    <path class="fil1 str1" d="M0.9 0.52l0.12 -0.07c0.01,-0.02 0,-0.03 -0.02,-0.05l-0.15 0.02"/>
    <path class="fil1 str1" d="M0.76 0.42l-0.14 -0.03c-0.02,0.02 -0.03,0.03 -0.02,0.05l0.12 0.08"/>
    <path class="fil1 str1" d="M0.85 0.57l0.14 0.03c0.02,-0.01 0.03,-0.03 0.03,-0.05l-0.13 -0.08"/>
    <line class="fil1 str1" x1="0.98" y1="1.22" x2="1.27" y2= "1.22" />
    <rect class="fil5 str1" x="1.27" y="1.07" width="0.3" height="0.27"/>
    <line class="fil1 str1" x1="1.57" y1="1.22" x2="1.73" y2= "1.22" />
    <line class="fil1 str1" x1="1.42" y1="1.08" x2="1.42" y2= "0.81" />
    <line class="fil1 str2" x1="1.44" y1="1.34" x2="1.44" y2= "1.5" />
    <ellipse class="fil3 str2" cx="1.43" cy="1.65" rx="0.07" ry="0.06"/>
    <path class="fil1 str2" d="M1.48 1.6l-0.02 -0.09c-0.01,-0.01 -0.03,-0.01 -0.04,0l-0.03 0.09"/>
    <path class="fil1 str2" d="M1.39 1.69l0.02 0.09c0.01,0.01 0.03,0.01 0.04,0l0.03 -0.09"/>
    <path class="fil1 str2" d="M1.43 1.58l-0.09 -0.05c-0.01,0 -0.02,0.01 -0.03,0.03l0.06 0.08"/>
    <path class="fil1 str2" d="M1.44 1.71l0.09 0.05c0.01,0 0.02,-0.01 0.03,-0.03l-0.06 -0.08"/>
    <path class="fil1 str2" d="M1.36 1.65l-0.06 0.08c0.01,0.01 0.02,0.02 0.03,0.03l0.1 -0.05"/>
    <path class="fil1 str2" d="M1.5 1.64l0.06 -0.08c0,-0.01 -0.02,-0.02 -0.03,-0.02l-0.09 0.05"/>
    <path class="fil1 str2" d="M1.38 1.61l-0.11 0.02c0,0.01 -0.01,0.02 0,0.03l0.11 0.03"/>
    <path class="fil1 str2" d="M1.48 1.69l0.11 -0.02c0,-0.01 0,-0.02 0,-0.04l-0.11 -0.02"/>
    <rect class="fil6 str2" x="1.64" y="1.58" width="0.18" height="0.15"/>
    <line class="fil1 str2" x1="1.6" y1="1.65" x2="1.64" y2= "1.65" />
    <rect class="fil7 str2" x="0.43" y="1.57" width="0.18" height="0.15"/>
    <line class="fil1 str2" x1="0.61" y1="1.65" x2="0.66" y2= "1.65" />
    <ellipse class="fil3 str2" cx="0.82" cy="1.65" rx="0.07" ry="0.06"/>
    <path class="fil1 str2" d="M0.87 1.6l-0.02 -0.09c-0.01,-0.01 -0.03,-0.01 -0.04,0l-0.03 0.09"/>
    <path class="fil1 str2" d="M0.78 1.7l0.02 0.09c0.01,0.01 0.03,0.01 0.04,0l0.03 -0.09"/>
    <path class="fil1 str2" d="M0.82 1.59l-0.09 -0.05c-0.01,0 -0.02,0.01 -0.03,0.02l0.06 0.08"/>
    <path class="fil1 str2" d="M0.83 1.71l0.09 0.06c0.01,-0.01 0.02,-0.02 0.03,-0.03l-0.06 -0.08"/>
    <path class="fil1 str2" d="M0.75 1.66l-0.06 0.08c0.01,0.01 0.02,0.02 0.04,0.02l0.09 -0.05"/>
    <path class="fil1 str2" d="M0.89 1.65l0.06 -0.08c0,-0.01 -0.01,-0.02 -0.03,-0.03l-0.09 0.05"/>
    <path class="fil1 str2" d="M0.77 1.61l-0.11 0.02c0,0.01 0,0.03 0,0.04l0.11 0.02"/>
    <path class="fil1 str2" d="M0.87 1.69l0.11 -0.01c0,-0.02 0,-0.03 0,-0.04l-0.11 -0.02"/>
    <line class="fil1 str1" x1="0.53" y1="1.22" x2="0.67" y2= "1.22" />
    <line class="fil1 str2" x1="0.98" y1="1.66" x2="1.28" y2= "1.66" />
    <ellipse class="fil4 str4" transform="matrix(0.340942 0.12882 -0.140475 0.297427 1.46167 0.510833)" rx="0.27" ry="0.28"/>
    <path class="fil1 str1" d="M1.55 0.48l0.04 -0.13c-0.02,-0.02 -0.04,-0.03 -0.06,-0.02l-0.09 0.1"/>
    <path class="fil1 str1" d="M1.38 0.55l-0.03 0.13c0.02,0.02 0.03,0.02 0.06,0.02l0.09 -0.11"/>
    <path class="fil1 str1" d="M1.5 0.43l-0.08 -0.11c-0.02,0 -0.04,0.01 -0.06,0.02l0.03 0.13"/>
    <path class="fil1 str1" d="M1.44 0.59l0.08 0.11c0.02,0.01 0.04,0 0.05,-0.02l-0.02 -0.13"/>
    <path class="fil1 str1" d="M1.38 0.49l-0.13 0.07c0,0.02 0.01,0.03 0.02,0.05l0.15 -0.02"/>
    <path class="fil1 str1" d="M1.55 0.54l0.13 -0.07c0,-0.02 -0.01,-0.04 -0.02,-0.05l-0.15 0.02"/>
    <path class="fil1 str1" d="M1.42 0.44l-0.15 -0.03c-0.01,0.01 -0.02,0.03 -0.02,0.05l0.12 0.08"/>
    <path class="fil1 str1" d="M1.5 0.59l0.15 0.03c0.02,-0.01 0.02,-0.03 0.02,-0.05l-0.12 -0.08"/>
    <ellipse class="fil8 str2" cx="1.13" cy="0.63" rx="0.07" ry="0.06"/>
    <path class="fil1 str2" d="M1.18 0.58l-0.02 -0.09c-0.02,-0.01 -0.03,-0.01 -0.05,0l-0.02 0.09"/>
    <path class="fil1 str2" d="M1.09 0.67l0.02 0.1c0.01,0 0.02,0 0.04,0l0.02 -0.1"/>
    <path class="fil1 str2" d="M1.13 0.56l-0.09 -0.05c-0.02,0 -0.03,0.01 -0.03,0.03l0.05 0.08"/>
    <path class="fil1 str2" d="M1.14 0.69l0.08 0.05c0.02,0 0.03,-0.01 0.03,-0.03l-0.05 -0.08"/>
    <path class="fil1 str2" d="M1.06 0.63l-0.06 0.08c0,0.01 0.02,0.02 0.03,0.03l0.09 -0.05"/>
    <path class="fil1 str2" d="M1.2 0.62l0.06 -0.08c-0.01,-0.01 -0.02,-0.02 -0.03,-0.02l-0.1 0.05"/>
    <path class="fil1 str2" d="M1.08 0.59l-0.11 0.02c-0.01,0.01 -0.01,0.02 0,0.03l0.11 0.03"/>
    <path class="fil1 str2" d="M1.18 0.67l0.1 -0.02c0.01,-0.01 0.01,-0.02 0,-0.04l-0.1 -0.02"/>
   </g>
  </g>
 </g>
</svg>
