<?xml version="1.0" encoding="UTF-8"?>
<!DOCTYPE svg PUBLIC "-//W3C//DTD SVG 1.1//EN" "http://www.w3.org/Graphics/SVG/1.1/DTD/svg11.dtd">
<!-- Creator: CorelDRAW 2021 (64 Bit) -->
<svg xmlns="http://www.w3.org/2000/svg" xml:space="preserve" width="400px" height="400px" version="1.1" style="shape-rendering:geometricPrecision; text-rendering:geometricPrecision; image-rendering:optimizeQuality; fill-rule:evenodd; clip-rule:evenodd"
viewBox="0 0 2.26 2.26"
 xmlns:xlink="http://www.w3.org/1999/xlink"
 xmlns:xodm="http://www.corel.com/coreldraw/odm/2003">
 <defs>
  <style type="text/css">
   <![CDATA[
    .str0 {stroke:#C4C4C4;stroke-width:0.17;stroke-miterlimit:22.9256}
    .str7 {stroke:#F5A980;stroke-width:0.02;stroke-miterlimit:22.9256}
    .str6 {stroke:black;stroke-width:0.01;stroke-miterlimit:22.9256}
    .str12 {stroke:#DBDBDB;stroke-width:0.01;stroke-miterlimit:22.9256}
    .str4 {stroke:#F5A980;stroke-width:0.01;stroke-miterlimit:22.9256}
    .str1 {stroke:#FA0505;stroke-width:0.01;stroke-miterlimit:22.9256}
    .str2 {stroke:#030303;stroke-width:0.05;stroke-miterlimit:22.9256}
    .str3 {stroke:#030303;stroke-width:0.01;stroke-miterlimit:22.9256}
    .str15 {stroke:#4A4949;stroke-width:0.01;stroke-miterlimit:22.9256}
    .str14 {stroke:#C9C5C5;stroke-width:0.01;stroke-miterlimit:22.9256}
    .str10 {stroke:#F5A980;stroke-width:0.01;stroke-miterlimit:22.9256}
    .str11 {stroke:#F5A980;stroke-width:0.02;stroke-miterlimit:22.9256}
    .str16 {stroke:#8F8C8C;stroke-width:0.01;stroke-miterlimit:22.9256}
    .str17 {stroke:#B3B3B3;stroke-width:0.01;stroke-miterlimit:22.9256}
    .str8 {stroke:#DBDBDB;stroke-width:0.01;stroke-miterlimit:22.9256}
    .str13 {stroke:#F5A980;stroke-width:0.01;stroke-miterlimit:22.9256}
    .str9 {stroke:#E1E1E1;stroke-width:0.01;stroke-miterlimit:22.9256}
    .str5 {stroke:#454545;stroke-width:0.08;stroke-linecap:round;stroke-miterlimit:22.9256}
    .fil2 {fill:none}
    .fil5 {fill:black}
    .fil6 {fill:black}
    .fil3 {fill:#003399}
    .fil11 {fill:#615F5F}
    .fil8 {fill:#666666}
    .fil7 {fill:#999999}
    .fil10 {fill:#CCCCCC}
    .fil1 {fill:#E6E6E6}
    .fil9 {fill:#F5A980}
    .fil4 {fill:#F5B796}
    .fil0 {fill:white}
   ]]>
  </style>
 </defs>
 <g id="Camada_x0020_1">
  <metadata id="CorelCorpID_0Corel-Layer"/>
  <g id="_2069718658512">
   <circle class="fil0 str0" cx="1.13" cy="1.13" r="1.04"/>
   <g>
    <g>
     <polygon class="fil0 str1" points="1.7,1.06 1.62,1.24 1.57,1.13 1.68,0.99 "/>
     <polygon class="fil0 str1" points="1.42,1.07 1.51,1.24 1.56,1.14 1.44,0.99 "/>
     <path class="fil0 str1" d="M1.42 1.07l0.09 0.18 0.02 -0.03 0.02 0.02 -0.01 0.29c-0.11,0 -0.23,0 -0.34,0 -0.02,0 -0.03,-0.03 -0.03,-0.04 0,-0.04 0.01,-0.16 0.02,-0.27 0,-0.04 0.01,-0.04 0.03,-0.05 0.04,-0.02 0.19,-0.1 0.2,-0.1z"/>
     <path class="fil1 str1" d="M1.71 1.06l-0.09 0.19 -0.01 -0.03 -0.02 0.02 0.01 0.29c0.11,0 0.18,0 0.29,0 0.03,0 0.04,-0.01 0.04,-0.04 0,-0.04 -0.01,-0.16 -0.01,-0.27 -0.01,-0.03 -0.01,-0.04 -0.03,-0.05 -0.04,-0.02 -0.17,-0.1 -0.18,-0.11z"/>
     <path class="fil1 str2" d="M1.91 1.53l-0.71 0c-0.02,0 -0.03,-0.01 -0.03,-0.04 0,-0.09 0.01,-0.19 0.01,-0.28 0.01,-0.02 0.01,-0.03 0.03,-0.04l0.22 -0.1 0.01 -0.08 0.13 0.14 0.11 -0.15 0.02 0.08 0.2 0.11c0.01,0.01 0.02,0.02 0.02,0.05 0,0.09 0.01,0.18 0.02,0.27 0,0.02 -0.01,0.04 -0.03,0.04z"/>
     <polyline class="fil2 str2" points="1.43,1.07 1.52,1.24 1.56,1.14 1.62,1.24 1.7,1.07 "/>
     <polygon class="fil3 str3" points="1.6,1.22 1.56,1.14 1.53,1.22 1.55,1.24 1.54,1.53 1.61,1.53 1.59,1.24 "/>
     <path class="fil4 str4" d="M1.47 1.01l0.1 0.11 0.08 -0.12 0 -0.05c-0.02,0.03 -0.04,0.05 -0.06,0.08 -0.01,0.01 -0.04,0.02 -0.05,0l-0.07 -0.08 0 0.06z"/>
     <path class="fil4 str4" d="M1.74 0.66c-0.01,0 -0.01,0.01 -0.02,0.02l0.01 -0.02 -0.05 -0.05 0 -0.09 -0.06 0 -0.06 0.02 -0.05 -0.02 -0.07 0 0 0.08 -0.04 0.05c0,0 0,-0.01 -0.01,-0.02 0,-0.01 -0.01,-0.01 -0.01,0 0,0 -0.01,0 -0.01,0.02 0,0.01 0,0.02 0,0.04l0.01 0.04c0,0.01 0,0.02 0.01,0.02 0,0 0.01,-0.01 0.01,-0.02 0,0.04 0.01,0.07 0.02,0.1 0.01,0.05 0.03,0.09 0.05,0.12 0.02,0.03 0.04,0.05 0.06,0.08 0.02,0.02 0.04,0.02 0.06,0 0.03,-0.04 0.06,-0.07 0.09,-0.11 0.01,-0.03 0.02,-0.05 0.03,-0.07 0,-0.03 0.01,-0.06 0.01,-0.09 0,0.01 0.01,0.01 0.01,0.01 0,0 0.01,0 0.01,-0.01 0.01,-0.03 0.02,-0.05 0.02,-0.07 0,-0.01 0,-0.02 -0.01,-0.02 0,-0.01 -0.01,-0.01 -0.01,-0.01z"/>
     <g>
      <path class="fil5" d="M1.64 0.69c-0.01,0.01 -0.02,0.01 -0.02,0.03 0.01,0.01 0.01,0.02 0.02,0.02 0.02,-0.01 0.02,-0.05 0,-0.05z"/>
      <path class="fil5" d="M1.49 0.69c-0.02,0.01 -0.01,0.05 0.01,0.05 0,-0.01 0.01,-0.02 0.01,-0.03 0,-0.01 -0.01,-0.02 -0.02,-0.02z"/>
      <line class="fil2 str5" x1="1.45" y1="0.64" x2="1.54" y2= "0.65" />
      <path class="fil6 str6" d="M1.44 0.6l-0.04 0.06c-0.01,-0.05 -0.02,-0.11 -0.01,-0.2 0.01,-0.07 0.05,-0.1 0.08,-0.11 0.07,-0.01 0.13,-0.01 0.18,0 0.04,0.02 0.07,0.07 0.08,0.11 0.02,0.08 0.01,0.12 0,0.2 -0.02,-0.02 -0.03,-0.03 -0.05,-0.05 0,-0.03 0,-0.06 0,-0.09 -0.02,0.01 -0.04,0.01 -0.06,0 -0.03,0.03 -0.08,0.03 -0.11,0 -0.02,0 -0.04,0 -0.07,0 0,0.02 0,0.05 0,0.08z"/>
      <line class="fil2 str5" x1="1.67" y1="0.64" x2="1.59" y2= "0.65" />
      <path class="fil7" d="M1.63 0.69c0,-0.01 0.02,-0.02 0.03,-0.02 0.02,0.01 0.02,0.01 0.03,0.02 0,0.01 0,0.01 0,0.01l-0.01 0.01c-0.01,-0.01 -0.03,-0.02 -0.05,-0.02z"/>
      <path class="fil7" d="M1.5 0.69c0.01,-0.01 -0.01,-0.02 -0.02,-0.02 -0.02,0.01 -0.02,0.01 -0.03,0.02 0,0.01 0,0.01 0,0.01l0.01 0.01c0.01,-0.01 0.03,-0.02 0.04,-0.02z"/>
     </g>
     <path class="fil2 str7" d="M1.6 0.67l-0.01 0.01 -0.01 0.03 0 0.06 0 0.02 0.02 0.03c0,0.01 0,0.01 0,0.01l-0.03 0.03c0,0 -0.01,0 -0.01,0l-0.03 -0.03 0 -0.01 0.01 -0.03 0 -0.02 0 -0.05 -0.01 -0.04 -0.02 -0.01"/>
     <g>
      <path class="fil8" d="M1.61 0.89l-0.1 0c0,0 0,0 0,0.01l0.03 0.02c0,0.01 0.01,0.01 0.02,0.01 0.01,0 0.02,0 0.03,-0.01l0.03 -0.02c0,-0.01 0,-0.01 -0.01,-0.01z"/>
      <g>
       <path class="fil0 str8" d="M1.53 0.89l0 0.01c0,0 0,0 0.01,0 0,0 0,0 0,0 0.01,0 0.01,0 0.01,0 0.01,0.01 0.01,0.01 0.01,0 0.01,0.01 0.01,0.01 0.02,0 0,0 0,0 0.01,0 0,0 0,0 0.01,0l0 0c0,0 0,0 0,0l0.01 -0.02c-0.03,0.01 -0.06,0.01 -0.08,0.01z"/>
       <line class="fil2 str9" x1="1.58" y1="0.89" x2="1.58" y2= "0.9" />
       <line class="fil2 str9" x1="1.59" y1="0.89" x2="1.59" y2= "0.9" />
       <line class="fil2 str9" x1="1.6" y1="0.89" x2="1.6" y2= "0.9" />
       <line class="fil2 str9" x1="1.54" y1="0.89" x2="1.54" y2= "0.9" />
       <line class="fil2 str9" x1="1.54" y1="0.89" x2="1.54" y2= "0.9" />
       <line class="fil2 str9" x1="1.55" y1="0.89" x2="1.55" y2= "0.9" />
       <line class="fil2 str9" x1="1.56" y1="0.89" x2="1.56" y2= "0.9" />
       <path class="fil2 str10" d="M1.54 0.93l-0.03 -0.04c-0.01,0 0,-0.01 0.01,-0.01 0.03,0.01 0.06,0.01 0.09,0 0.02,0 0.02,0.01 0.01,0.02l-0.02 0.03c-0.02,0.02 -0.04,0.02 -0.06,0z"/>
      </g>
     </g>
     <polyline class="fil2 str4" points="1.52,0.99 1.54,0.98 1.56,0.97 1.59,0.97 1.61,0.99 "/>
     <path class="fil2 str11" d="M1.39 0.72c-0.01,-0.02 -0.01,-0.04 -0.01,-0.07 0.01,-0.02 0.01,-0.01 0.01,0 0.01,0.02 0.01,0.03 0,0.04"/>
     <path class="fil2 str11" d="M1.73 0.69c0,-0.01 0.01,-0.02 0.01,-0.02 0.01,0 0.02,0.01 0.02,0.02 -0.01,0.03 -0.01,0.04 -0.02,0.04"/>
     <path class="fil2 str10" d="M1.6 0.72c0.01,0 0.01,0.01 0.02,0.01 0.01,0.01 0.02,0.02 0.05,-0.01 0.01,-0.01 0.01,0 0.02,0"/>
     <path class="fil2 str10" d="M1.53 0.72c-0.01,0 -0.01,0.01 -0.02,0.01 -0.01,0.01 -0.02,0.02 -0.04,-0.01 -0.01,-0.01 -0.01,0 -0.03,0"/>
     <path class="fil2 str10" d="M1.45 0.72c0,0 0.01,0 0.01,-0.01 0.02,-0.02 0.04,-0.02 0.05,-0.01 0.01,0.01 0.01,0.01 0.02,0.01"/>
     <path class="fil2 str10" d="M1.69 0.72c0,0 -0.01,0 -0.01,-0.01 -0.03,-0.02 -0.05,-0.02 -0.06,-0.01 -0.01,0.01 -0.01,0.01 -0.02,0.01"/>
     <path class="fil9 str4" d="M1.62 0.9c-0.05,0.04 -0.08,0.03 -0.11,-0.01 0.03,0.07 0.07,0.08 0.11,0.01z"/>
     <path class="fil10 str4" d="M1.53 0.89c0,0 -0.02,0 -0.02,0 0,0 0,0 0,0 0.01,0.01 0.02,0.02 0.02,0.02l0 -0.02z"/>
     <path class="fil10 str4" d="M1.61 0.89c0,-0.01 0.01,0 0.01,0 0.01,0 -0.01,0.02 -0.02,0.02l0.01 -0.02z"/>
     <path class="fil0" d="M1.55 0.93c0,-0.01 -0.01,-0.01 -0.01,-0.01 0,-0.01 0,0 0,0 0.01,-0.01 0.01,0 0.01,0 0.01,-0.01 0.01,0 0.01,0 0.01,0 0,-0.01 0.02,0 0,0 0,0 0.01,0 0,0 -0.01,0 0.01,0 -0.01,0 -0.02,0 -0.02,0.01 -0.01,0 -0.02,0 -0.03,0z"/>
     <path class="fil2 str12" d="M1.53 0.92c0.01,0 0.01,0 0.01,0 0.01,-0.01 0.01,-0.01 0.01,0 0.01,-0.01 0.01,0 0.01,0 0.01,0 0.01,0 0.02,0 0,0 0,0 0.01,0 0,-0.01 0,0 0.01,0"/>
     <line class="fil2 str8" x1="1.54" y1="0.92" x2="1.54" y2= "0.92" />
     <line class="fil2 str8" x1="1.55" y1="0.92" x2="1.55" y2= "0.93" />
     <line class="fil2 str8" x1="1.56" y1="0.92" x2="1.56" y2= "0.93" />
     <line class="fil2 str8" x1="1.58" y1="0.92" x2="1.58" y2= "0.93" />
     <line class="fil2 str8" x1="1.59" y1="0.92" x2="1.59" y2= "0.92" />
     <path class="fil9 str13" d="M1.56 0.87c0,0 -0.01,0 -0.01,0 -0.01,0.01 -0.02,0.01 -0.04,0.01 0,0 -0.01,0.01 0,0.01 0,0 0.01,0 0.02,0 0.02,0.01 0.05,0.01 0.07,0 0.01,0 0.02,0 0.02,0 0.01,0 0,0 0,-0.01 -0.02,0 -0.03,0 -0.04,-0.01 0,0 0,0 -0.01,0 0,0 -0.01,0 -0.01,0z"/>
     <path class="fil7 str14" d="M1.75 0.55c-0.12,0.05 -0.25,0.05 -0.37,0l0 -0.11c0,-0.04 0.03,-0.09 0.06,-0.11 0.08,-0.03 0.16,-0.03 0.22,0 0.04,0.02 0.08,0.06 0.08,0.1l0.01 0.12z"/>
     <path class="fil10 str15" d="M1.39 0.59l-0.01 -0.04c0.11,0.04 0.24,0.04 0.36,0.01 0,0.01 0,0.02 0,0.03 -0.01,0.01 -0.02,0.02 -0.02,0.03 -0.05,0.05 -0.28,0.05 -0.31,0 -0.01,-0.01 -0.02,-0.02 -0.02,-0.03z"/>
     <path class="fil11 str16" d="M1.75 0.55c-0.13,0.04 -0.24,0.04 -0.37,0l0 0.01c0.12,0.04 0.24,0.04 0.36,0l0.01 -0.01z"/>
     <path class="fil2 str14" d="M1.38 0.55c0.02,-0.12 0.06,-0.23 0.17,-0.23"/>
     <path class="fil2 str14" d="M1.57 0.31c0.1,0 0.15,0.08 0.18,0.24"/>
     <ellipse class="fil8 str17" cx="1.56" cy="0.31" rx="0.02" ry="0.01"/>
    </g>
    <g>
     <polygon class="fil0 str1" points="0.86,1.08 0.77,1.26 0.72,1.15 0.83,1 "/>
     <polygon class="fil0 str1" points="0.58,1.08 0.67,1.25 0.72,1.15 0.59,1 "/>
     <path class="fil0 str1" d="M0.57 1.08l0.1 0.18 0.01 -0.03 0.02 0.02 -0.01 0.29c-0.11,0 -0.23,0 -0.34,0 -0.02,0 -0.03,-0.02 -0.03,-0.04 0,-0.04 0.01,-0.15 0.02,-0.26 0,-0.05 0.01,-0.05 0.03,-0.06 0.04,-0.02 0.19,-0.09 0.2,-0.1z"/>
     <path class="fil1 str1" d="M0.86 1.08l-0.09 0.18 -0.01 -0.03 -0.02 0.02 0.01 0.29c0.11,0 0.18,0 0.29,0 0.04,0 0.04,-0.01 0.04,-0.04 0,-0.04 0,-0.16 -0.01,-0.26 0,-0.03 0,-0.05 -0.03,-0.06 -0.04,-0.02 -0.17,-0.1 -0.18,-0.1z"/>
     <path class="fil1 str2" d="M1.06 1.54l-0.71 0c-0.02,0 -0.03,-0.01 -0.03,-0.04 0,-0.09 0.01,-0.18 0.02,-0.27 0,-0.03 0.01,-0.04 0.02,-0.05l0.22 -0.1 0.02 -0.08 0.12 0.15 0.11 -0.15 0.03 0.08 0.19 0.11c0.01,0 0.02,0.02 0.02,0.04 0.01,0.09 0.01,0.18 0.02,0.27 0,0.02 -0.01,0.04 -0.03,0.04z"/>
     <polyline class="fil2 str2" points="0.58,1.08 0.67,1.26 0.72,1.15 0.77,1.26 0.85,1.08 "/>
     <polygon class="fil3 str3" points="0.76,1.23 0.72,1.16 0.68,1.23 0.7,1.25 0.69,1.54 0.76,1.54 0.74,1.25 "/>
     <path class="fil4 str4" d="M0.62 1.02l0.1 0.12 0.09 -0.12 -0.01 -0.05c-0.02,0.02 -0.03,0.05 -0.05,0.07 -0.01,0.02 -0.05,0.02 -0.06,0l-0.07 -0.07 0 0.05z"/>
     <path class="fil4 str4" d="M0.89 0.67c-0.01,0.01 -0.01,0.02 -0.01,0.02l0 -0.02 -0.05 -0.04 0 -0.1 -0.06 0 -0.05 0.02 -0.06 -0.02 -0.07 0 0 0.08 -0.03 0.06c-0.01,-0.01 -0.01,-0.02 -0.02,-0.03 0,0 0,0 -0.01,0 0,0 0,0.01 -0.01,0.02 0,0.01 0,0.03 0,0.04l0.01 0.05c0,0.01 0.01,0.01 0.01,0.01 0,0 0.01,0 0.01,-0.01 0.01,0.03 0.01,0.07 0.02,0.1 0.01,0.04 0.03,0.08 0.05,0.12 0.02,0.02 0.04,0.05 0.07,0.07 0.02,0.02 0.04,0.02 0.06,0 0.03,-0.03 0.06,-0.07 0.08,-0.11 0.02,-0.02 0.03,-0.04 0.03,-0.07 0.01,-0.03 0.01,-0.06 0.01,-0.09 0.01,0.01 0.01,0.01 0.01,0.01 0,0 0.01,0 0.02,-0.01 0.01,-0.02 0.01,-0.05 0.01,-0.07 0.01,-0.01 0,-0.02 0,-0.02 -0.01,0 -0.02,-0.01 -0.02,-0.01z"/>
     <g>
      <path class="fil5" d="M0.79 0.71c-0.01,0 -0.02,0.01 -0.01,0.02 0,0.01 0.01,0.02 0.02,0.02 0.02,-0.01 0.01,-0.05 -0.01,-0.04z"/>
      <path class="fil5" d="M0.64 0.71c-0.02,0 -0.01,0.05 0.01,0.04 0.01,0 0.01,-0.01 0.01,-0.03 0,-0.01 -0.01,-0.02 -0.02,-0.01z"/>
      <line class="fil2 str5" x1="0.6" y1="0.65" x2="0.69" y2= "0.66" />
      <path class="fil6 str6" d="M0.59 0.61l-0.04 0.06c-0.01,-0.05 -0.02,-0.11 0,-0.19 0.01,-0.08 0.04,-0.11 0.07,-0.12 0.07,-0.01 0.13,-0.01 0.19,0.01 0.04,0.01 0.07,0.06 0.07,0.11 0.02,0.07 0.01,0.12 0,0.19 -0.01,-0.01 -0.03,-0.03 -0.05,-0.04 0,-0.04 0,-0.07 0,-0.1 -0.02,0.01 -0.04,0.01 -0.06,0 -0.03,0.03 -0.08,0.03 -0.11,0 -0.02,0.01 -0.04,0.01 -0.07,0 0.01,0.03 0.01,0.05 0,0.08z"/>
      <line class="fil2 str5" x1="0.82" y1="0.65" x2="0.74" y2= "0.66" />
      <path class="fil7" d="M0.79 0.7c-0.01,0 0.01,-0.01 0.02,-0.01 0.02,0 0.03,0.01 0.03,0.02 0,0 0,0 0,0.01l-0.01 0c-0.01,-0.01 -0.02,-0.01 -0.04,-0.02z"/>
      <path class="fil7" d="M0.66 0.7c0,0 -0.01,-0.01 -0.03,-0.01 -0.01,0 -0.02,0.01 -0.03,0.02 0,0 0,0 0,0.01l0.01 0c0.01,-0.01 0.03,-0.01 0.05,-0.02z"/>
     </g>
     <path class="fil2 str7" d="M0.75 0.68l-0.01 0.02 -0.01 0.03 0 0.05 0.01 0.02 0.01 0.04c0,0 0,0 0,0.01l-0.03 0.02c0,0 -0.01,0 -0.01,0l-0.03 -0.03 0 -0.01 0.01 -0.03 0 -0.02 0 -0.05 -0.01 -0.03 -0.02 -0.02"/>
     <g>
      <path class="fil8" d="M0.77 0.91l-0.1 -0.01c-0.01,0.01 -0.01,0.01 0,0.01l0.02 0.02c0.01,0.01 0.02,0.01 0.03,0.01 0.01,0.01 0.02,0 0.02,0l0.03 -0.03c0,0 0,0 0,0z"/>
      <g>
       <path class="fil0 str8" d="M0.68 0.9l0 0.01c0,0 0,0.01 0.01,0.01 0,0 0,0 0.01,0 0,0 0,0 0,0 0.01,0 0.01,0 0.02,0 0,0 0.01,0 0.01,0 0,0 0.01,0 0.01,0 0,0 0,0 0.01,0l0 0c0,0 0,-0.01 0.01,-0.01l0 -0.01c-0.03,0 -0.05,0 -0.08,0z"/>
       <line class="fil2 str9" x1="0.73" y1="0.9" x2="0.73" y2= "0.92" />
       <line class="fil2 str9" x1="0.74" y1="0.9" x2="0.74" y2= "0.92" />
       <line class="fil2 str9" x1="0.75" y1="0.9" x2="0.75" y2= "0.92" />
       <line class="fil2 str9" x1="0.69" y1="0.91" x2="0.69" y2= "0.92" />
       <line class="fil2 str9" x1="0.7" y1="0.91" x2="0.7" y2= "0.92" />
       <line class="fil2 str9" x1="0.7" y1="0.91" x2="0.7" y2= "0.92" />
       <line class="fil2 str9" x1="0.72" y1="0.91" x2="0.72" y2= "0.92" />
       <path class="fil2 str10" d="M0.69 0.95l-0.03 -0.04c-0.01,-0.01 0,-0.01 0.01,-0.01 0.03,0 0.06,0 0.1,0 0.01,0 0.01,0 0,0.01l-0.02 0.04c-0.02,0.01 -0.04,0.01 -0.06,0z"/>
      </g>
     </g>
     <polyline class="fil2 str4" points="0.67,1 0.69,0.99 0.72,0.98 0.74,0.99 0.77,1 "/>
     <path class="fil2 str11" d="M0.54 0.73c-0.01,-0.01 -0.01,-0.04 -0.01,-0.06 0.01,-0.02 0.01,-0.01 0.01,-0.01 0.01,0.02 0.01,0.03 0,0.04"/>
     <path class="fil2 str11" d="M0.88 0.7c0.01,-0.01 0.01,-0.02 0.02,-0.02 0,0 0.01,0.01 0.01,0.02 0,0.03 -0.01,0.04 -0.02,0.05"/>
     <path class="fil2 str10" d="M0.76 0.73c0,0.01 0.01,0.01 0.01,0.01 0.01,0.01 0.02,0.03 0.05,0 0.01,-0.01 0.01,0 0.02,-0.01"/>
     <path class="fil2 str10" d="M0.68 0.73c-0.01,0.01 -0.01,0.01 -0.02,0.01 -0.01,0.01 -0.01,0.03 -0.04,0 -0.01,-0.01 -0.01,0 -0.02,-0.01"/>
     <path class="fil2 str10" d="M0.6 0.73c0,0 0.01,0 0.01,0 0.03,-0.03 0.04,-0.03 0.06,-0.01 0,0 0,0.01 0.01,0.01"/>
     <path class="fil2 str10" d="M0.85 0.73c-0.01,0 -0.02,0 -0.02,0 -0.03,-0.03 -0.04,-0.03 -0.06,-0.01 0,0 -0.01,0.01 -0.01,0.01"/>
     <path class="fil9 str4" d="M0.77 0.91c-0.04,0.05 -0.08,0.04 -0.11,-0.01 0.03,0.07 0.07,0.08 0.11,0.01z"/>
     <path class="fil10 str4" d="M0.68 0.9c0,0 -0.02,0 -0.02,0 0,0 0,0 0,0.01 0.01,0.01 0.02,0.01 0.02,0.02l0 -0.03z"/>
     <path class="fil10 str4" d="M0.76 0.9c0,0 0.01,0 0.02,0 0,0.01 -0.01,0.02 -0.02,0.03l0 -0.03z"/>
     <path class="fil0" d="M0.71 0.94c-0.01,0 -0.02,0 -0.02,-0.01 0.01,0 0,0 0.01,0 0,0 0,0 0,0 0.01,0 0.02,0 0.02,0 0,0.01 -0.01,0 0.01,0 0,0 0,0 0.01,0 0,0 0,0 0.01,0 -0.01,0 -0.01,0.01 -0.02,0.01 -0.01,0 -0.02,0 -0.02,0z"/>
     <path class="fil2 str12" d="M0.69 0.93c0,0 0,0 0.01,0 0,0 0,0 0,0 0.01,0 0.01,0 0.02,0 0,0 0.01,0 0.01,0 0,0 0,0 0.01,0 0,0 0.01,0 0.01,0"/>
     <line class="fil2 str8" x1="0.7" y1="0.93" x2="0.7" y2= "0.94" />
     <line class="fil2 str8" x1="0.7" y1="0.93" x2="0.7" y2= "0.94" />
     <line class="fil2 str8" x1="0.72" y1="0.93" x2="0.72" y2= "0.94" />
     <line class="fil2 str8" x1="0.73" y1="0.93" x2="0.73" y2= "0.94" />
     <line class="fil2 str8" x1="0.74" y1="0.93" x2="0.74" y2= "0.94" />
     <path class="fil9 str13" d="M0.71 0.88c0,0 -0.01,0 -0.01,0 -0.01,0.01 -0.02,0.01 -0.03,0.02 -0.01,0 -0.02,0 -0.01,0 0.01,0 0.02,0 0.02,0 0.02,0.01 0.05,0.01 0.08,0 0,0 0.01,0 0.01,0 0.01,0 0.01,0 0,0 -0.01,-0.01 -0.03,-0.01 -0.04,-0.01 0,0 0,-0.01 -0.01,-0.01 0,0.01 0,0.01 -0.01,0z"/>
     <path class="fil7 str14" d="M0.9 0.57c-0.12,0.05 -0.25,0.04 -0.37,0l0 -0.12c0,-0.04 0.03,-0.09 0.07,-0.1 0.07,-0.03 0.15,-0.03 0.21,-0.01 0.04,0.02 0.08,0.07 0.08,0.11l0.01 0.12z"/>
     <path class="fil10 str15" d="M0.54 0.6l-0.01 -0.04c0.12,0.04 0.24,0.04 0.37,0.01 -0.01,0.01 -0.01,0.02 -0.01,0.03 -0.01,0.02 -0.01,0.02 -0.02,0.03 -0.04,0.05 -0.28,0.06 -0.31,0 -0.01,-0.01 -0.02,-0.02 -0.02,-0.03z"/>
     <path class="fil11 str16" d="M0.9 0.57c-0.12,0.03 -0.24,0.03 -0.37,-0.01l0 0.01c0.12,0.05 0.24,0.05 0.37,0.01l0 -0.01z"/>
     <path class="fil2 str14" d="M0.53 0.56c0.03,-0.12 0.07,-0.23 0.17,-0.23"/>
     <path class="fil2 str14" d="M0.72 0.33c0.1,-0.01 0.15,0.08 0.18,0.24"/>
     <ellipse class="fil8 str17" cx="0.71" cy="0.33" rx="0.02" ry="0.01"/>
    </g>
    <g>
     <polygon class="fil0 str1" points="1.28,1.5 1.2,1.68 1.14,1.57 1.25,1.42 "/>
     <polygon class="fil0 str1" points="1,1.5 1.09,1.68 1.14,1.57 1.02,1.42 "/>
     <path class="fil0 str1" d="M1 1.5l0.09 0.19 0.01 -0.04 0.02 0.02 0 0.29c-0.12,0 -0.23,0 -0.35,0 -0.02,0 -0.03,-0.02 -0.02,-0.04 0,-0.04 0,-0.15 0.01,-0.26 0,-0.05 0.01,-0.05 0.04,-0.06 0.04,-0.02 0.19,-0.09 0.2,-0.1z"/>
     <path class="fil1 str1" d="M1.28 1.5l-0.08 0.19 -0.02 -0.04 -0.01 0.02 0 0.29c0.12,0 0.18,0 0.3,0 0.03,0 0.04,-0.01 0.04,-0.04 0,-0.04 -0.01,-0.16 -0.02,-0.26 0,-0.03 0,-0.05 -0.02,-0.06 -0.04,-0.02 -0.18,-0.09 -0.19,-0.1z"/>
     <path class="fil1 str2" d="M1.48 1.96l-0.71 0c-0.02,0 -0.03,-0.01 -0.03,-0.04 0.01,-0.09 0.01,-0.18 0.02,-0.27 0,-0.02 0.01,-0.04 0.02,-0.05l0.22 -0.1 0.02 -0.08 0.12 0.15 0.11 -0.15 0.03 0.08 0.19 0.11c0.01,0.01 0.02,0.02 0.02,0.04 0.01,0.09 0.02,0.18 0.02,0.27 0.01,0.03 -0.01,0.04 -0.03,0.04z"/>
     <polyline class="fil2 str2" points="1,1.5 1.09,1.68 1.14,1.57 1.2,1.68 1.28,1.5 "/>
     <polygon class="fil3 str3" points="1.18,1.66 1.14,1.58 1.1,1.66 1.12,1.68 1.12,1.96 1.18,1.96 1.17,1.68 "/>
     <path class="fil4 str4" d="M1.04 1.44l0.1 0.12 0.09 -0.12 0 -0.05c-0.02,0.02 -0.04,0.05 -0.06,0.07 -0.01,0.02 -0.04,0.02 -0.06,0l-0.07 -0.07 0 0.05z"/>
     <path class="fil4 str4" d="M1.31 1.1c0,0 -0.01,0.01 -0.01,0.01l0 -0.02 -0.04 -0.04 0 -0.1 -0.07 0 -0.05 0.02 -0.06 -0.02 -0.07 0 0 0.08 -0.03 0.06c0,-0.01 -0.01,-0.02 -0.01,-0.02 0,-0.01 -0.01,-0.01 -0.01,-0.01 -0.01,0 -0.01,0.01 -0.01,0.02 -0.01,0.01 -0.01,0.03 0,0.04l0 0.05c0.01,0.01 0.01,0.01 0.02,0.01 0,0 0,0 0.01,-0.01 0,0.04 0,0.07 0.01,0.1 0.02,0.04 0.03,0.08 0.05,0.12 0.02,0.02 0.05,0.05 0.07,0.07 0.02,0.02 0.04,0.03 0.06,0 0.03,-0.03 0.06,-0.07 0.09,-0.11 0.01,-0.02 0.02,-0.04 0.03,-0.07 0,-0.03 0,-0.06 0.01,-0.08 0,0 0,0 0,0 0.01,0 0.02,0 0.02,-0.01 0.01,-0.02 0.01,-0.04 0.02,-0.07 0,-0.01 -0.01,-0.01 -0.01,-0.02 -0.01,0 -0.01,-0.01 -0.02,0z"/>
     <g>
      <path class="fil5" d="M1.21 1.13c-0.01,0 -0.01,0.01 -0.01,0.02 0,0.02 0.01,0.02 0.02,0.02 0.02,0 0.02,-0.05 -0.01,-0.04z"/>
      <path class="fil5" d="M1.06 1.13c-0.02,0 -0.01,0.05 0.01,0.04 0.01,0 0.02,-0.01 0.01,-0.03 0,-0.01 -0.01,-0.01 -0.02,-0.01z"/>
      <line class="fil2 str5" x1="1.03" y1="1.07" x2="1.11" y2= "1.08" />
      <path class="fil6 str6" d="M1.01 1.03l-0.03 0.06c-0.01,-0.05 -0.02,-0.11 -0.01,-0.19 0.01,-0.08 0.04,-0.11 0.08,-0.11 0.07,-0.02 0.12,-0.02 0.18,0 0.04,0.02 0.07,0.06 0.08,0.11 0.01,0.07 0,0.12 -0.01,0.19 -0.01,-0.01 -0.03,-0.03 -0.04,-0.04 -0.01,-0.03 -0.01,-0.07 0,-0.1 -0.03,0.01 -0.04,0.01 -0.07,0 -0.02,0.03 -0.07,0.03 -0.11,0 -0.02,0.01 -0.04,0.01 -0.06,0 0,0.03 0,0.06 -0.01,0.08z"/>
      <line class="fil2 str5" x1="1.25" y1="1.07" x2="1.16" y2= "1.08" />
      <path class="fil7" d="M1.21 1.13c0,-0.01 0.01,-0.02 0.03,-0.02 0.01,0 0.02,0.01 0.02,0.02 0,0 0.01,0 0,0.01l0 0c-0.02,-0.01 -0.03,-0.01 -0.05,-0.01z"/>
      <path class="fil7" d="M1.08 1.13c0,-0.01 -0.01,-0.02 -0.03,-0.02 -0.01,0 -0.02,0.01 -0.02,0.02 0,0 -0.01,0 0,0.01l0 0c0.02,-0.01 0.03,-0.01 0.05,-0.01z"/>
     </g>
     <path class="fil2 str7" d="M1.18 1.1l-0.02 0.02 0 0.03 -0.01 0.05 0.01 0.03 0.01 0.03c0.01,0 0,0 0,0.01l-0.02 0.02c-0.01,0 -0.01,0 -0.02,0l-0.03 -0.02 0 -0.01 0.01 -0.04 0.01 -0.02 -0.01 -0.05 -0.01 -0.03 -0.01 -0.02"/>
     <g>
      <path class="fil8" d="M1.19 1.33l-0.1 0c0,0 0,0 0,0l0.02 0.03c0.01,0 0.02,0.01 0.03,0.01 0.01,0 0.02,-0.01 0.03,-0.01l0.02 -0.03c0,0 0,0 0,0z"/>
      <g>
       <path class="fil0 str8" d="M1.1 1.32l0 0.01c0,0.01 0.01,0.01 0.01,0.01 0,0 0.01,0 0.01,0 0,0 0,0 0.01,0 0,0 0.01,0 0.01,0 0,0 0.01,0 0.01,0 0.01,0 0.01,0 0.01,0 0.01,0 0.01,0 0.01,0l0 0c0.01,0 0.01,0 0.01,-0.01l0 -0.01c-0.03,0 -0.05,0 -0.08,0z"/>
       <line class="fil2 str9" x1="1.15" y1="1.33" x2="1.15" y2= "1.34" />
       <line class="fil2 str9" x1="1.16" y1="1.33" x2="1.16" y2= "1.34" />
       <line class="fil2 str9" x1="1.17" y1="1.33" x2="1.17" y2= "1.34" />
       <line class="fil2 str9" x1="1.11" y1="1.33" x2="1.11" y2= "1.34" />
       <line class="fil2 str9" x1="1.12" y1="1.33" x2="1.12" y2= "1.34" />
       <line class="fil2 str9" x1="1.13" y1="1.33" x2="1.13" y2= "1.34" />
       <line class="fil2 str9" x1="1.14" y1="1.33" x2="1.14" y2= "1.34" />
       <path class="fil2 str10" d="M1.11 1.37l-0.03 -0.04c0,-0.01 0.01,-0.01 0.01,-0.01 0.04,0 0.06,0 0.1,0 0.01,0 0.01,0 0.01,0.01l-0.03 0.04c-0.02,0.02 -0.04,0.02 -0.06,0z"/>
      </g>
     </g>
     <polyline class="fil2 str4" points="1.1,1.42 1.12,1.41 1.14,1.4 1.16,1.41 1.19,1.42 "/>
     <path class="fil2 str11" d="M0.97 1.15c-0.01,-0.01 -0.01,-0.03 -0.01,-0.06 0,-0.02 0,-0.01 0.01,0 0,0.01 0,0.02 0,0.04"/>
     <path class="fil2 str11" d="M1.31 1.12c0,-0.01 0,-0.02 0.01,-0.02 0.01,0 0.01,0.01 0.01,0.02 0,0.03 -0.01,0.04 -0.02,0.05"/>
     <path class="fil2 str10" d="M1.18 1.15c0,0.01 0.01,0.01 0.01,0.02 0.02,0 0.03,0.02 0.05,-0.01 0.02,-0.01 0.02,0 0.03,-0.01"/>
     <path class="fil2 str10" d="M1.1 1.15c0,0.01 -0.01,0.01 -0.01,0.02 -0.01,0 -0.02,0.02 -0.05,-0.01 -0.01,-0.01 -0.01,0 -0.02,-0.01"/>
     <path class="fil2 str10" d="M1.02 1.15c0.01,0 0.01,0 0.01,0 0.03,-0.03 0.05,-0.03 0.06,-0.01 0,0 0.01,0.01 0.01,0.01"/>
     <path class="fil2 str10" d="M1.27 1.15c-0.01,0 -0.01,0 -0.02,0 -0.02,-0.03 -0.04,-0.03 -0.06,-0.01 0,0 -0.01,0.01 -0.01,0.01"/>
     <path class="fil9 str4" d="M1.19 1.34c-0.04,0.04 -0.08,0.03 -0.11,-0.02 0.03,0.07 0.08,0.08 0.11,0.02z"/>
     <path class="fil10 str4" d="M1.1 1.32c0,0 -0.01,0 -0.02,0 0,0 0,0 0,0.01 0.01,0.01 0.02,0.02 0.03,0.02l-0.01 -0.03z"/>
     <path class="fil10 str4" d="M1.18 1.32c0,0 0.02,0 0.02,0 0,0.01 -0.01,0.02 -0.02,0.03l0 -0.03z"/>
     <path class="fil0" d="M1.13 1.36c-0.01,0 -0.02,0 -0.02,-0.01 0.01,0 0,0 0.01,0 0.01,0 0.01,0 0.01,0 0,0 0.01,0 0.01,0 0,0.01 0,0 0.01,0 0.01,0 0,0 0.01,0 0.01,0 0,0 0.01,0 0,0.01 -0.01,0.01 -0.02,0.01 -0.01,0 -0.01,0 -0.02,0z"/>
     <path class="fil2 str12" d="M1.11 1.35c0,0 0.01,0 0.01,0 0,0 0,0 0.01,0 0,0 0.01,0 0.01,0 0,0 0.01,0 0.01,0 0,0 0.01,0 0.01,0 0.01,0 0.01,0 0.01,0"/>
     <line class="fil2 str8" x1="1.12" y1="1.35" x2="1.12" y2= "1.36" />
     <line class="fil2 str8" x1="1.13" y1="1.35" x2="1.13" y2= "1.36" />
     <line class="fil2 str8" x1="1.14" y1="1.35" x2="1.14" y2= "1.36" />
     <line class="fil2 str8" x1="1.15" y1="1.35" x2="1.15" y2= "1.36" />
     <line class="fil2 str8" x1="1.16" y1="1.35" x2="1.16" y2= "1.36" />
     <path class="fil9 str13" d="M1.13 1.31c0,-0.01 0,-0.01 -0.01,0 -0.01,0 -0.02,0.01 -0.03,0.01 -0.01,0 -0.01,0 0,0 0,0 0.01,0 0.02,0 0.02,0.01 0.04,0.01 0.07,0 0,0 0.01,0 0.02,0 0,0 0,0 0,0 -0.02,-0.01 -0.04,-0.01 -0.04,-0.01 -0.01,0 -0.01,-0.01 -0.01,0 -0.01,0 -0.01,0 -0.02,0z"/>
     <path class="fil7 str14" d="M1.32 0.99c-0.12,0.05 -0.24,0.05 -0.37,0l0 -0.12c0,-0.04 0.04,-0.09 0.07,-0.1 0.07,-0.03 0.16,-0.03 0.21,-0.01 0.04,0.02 0.08,0.07 0.09,0.11l0 0.12z"/>
     <path class="fil10 str15" d="M0.96 1.02l-0.01 -0.03c0.12,0.03 0.24,0.04 0.37,0 0,0.01 0,0.02 -0.01,0.03 0,0.02 -0.01,0.03 -0.02,0.04 -0.04,0.04 -0.28,0.05 -0.31,0 -0.01,-0.01 -0.01,-0.03 -0.02,-0.04z"/>
     <path class="fil11 str16" d="M1.32 0.99c-0.12,0.03 -0.24,0.03 -0.37,-0.01l0 0.01c0.13,0.05 0.25,0.05 0.37,0.01l0 -0.01z"/>
     <path class="fil2 str14" d="M0.95 0.98c0.03,-0.12 0.07,-0.23 0.18,-0.23"/>
     <path class="fil2 str14" d="M1.14 0.75c0.1,-0.01 0.15,0.08 0.18,0.24"/>
     <ellipse class="fil8 str17" cx="1.13" cy="0.75" rx="0.02" ry="0.01"/>
    </g>
   </g>
  </g>
 </g>
</svg>
