<?xml version="1.0" encoding="UTF-8"?>
<!DOCTYPE svg PUBLIC "-//W3C//DTD SVG 1.1//EN" "http://www.w3.org/Graphics/SVG/1.1/DTD/svg11.dtd">
<!-- Creator: CorelDRAW 2021 (64 Bit) -->
<svg xmlns="http://www.w3.org/2000/svg" xml:space="preserve" width="331px" height="331px" version="1.1" style="shape-rendering:geometricPrecision; text-rendering:geometricPrecision; image-rendering:optimizeQuality; fill-rule:evenodd; clip-rule:evenodd"
viewBox="0 0 1.59 1.59"
 xmlns:xlink="http://www.w3.org/1999/xlink"
 xmlns:xodm="http://www.corel.com/coreldraw/odm/2003">
 <defs>
  <style type="text/css">
   <![CDATA[
    .fil4 {fill:black}
    .fil6 {fill:#564525}
    .fil5 {fill:#8A6B29}
    .fil2 {fill:#98FEFE}
    .fil1 {fill:#B7B3B5}
    .fil3 {fill:#DCB05F}
    .fil0 {fill:#FEFEFE}
   ]]>
  </style>
 </defs>
 <g id="Camada_x0020_1">
  <metadata id="CorelCorpID_0Corel-Layer"/>
  <g id="_1853523731472">
   <path class="fil0" d="M0.75 1.23c-0.02,-0.01 -0.17,-0.01 -0.2,-0.01l0 0.01c-0.02,0 -0.04,0 -0.05,0 0,-0.01 0,-0.01 0,-0.01l0 -0.03 -0.02 -0.01 0 -0.93 0.63 -0.01c0,0 0.01,0 0.01,0 0,0.25 0,0.51 0,0.76 0,0.06 0.01,0.04 -0.07,0.12 -0.1,0.09 -0.2,0.19 -0.3,0.28l0 -0.17zm-0.6 0.21l1.29 0 0 -1.29c-0.03,-0.01 -0.59,0 -0.64,0 -0.07,0 -0.64,-0.01 -0.65,0 -0.01,0.01 0,0.57 0,0.64 0,0.08 -0.01,0.62 0,0.65z"/>
   <path class="fil1" d="M0.15 1.44c-0.01,-0.03 0,-0.57 0,-0.65 0,-0.07 -0.01,-0.63 0,-0.64 0.01,-0.01 0.58,0 0.65,0 0.05,0 0.61,-0.01 0.64,0l0 1.29 -1.29 0zm-0.15 -1.31l0 1.3c0,0.08 0.05,0.16 0.13,0.16l1.32 0c0.07,0 0.14,-0.07 0.14,-0.13l0 -1.32c0,-0.08 -0.07,-0.14 -0.14,-0.14l-1.31 0c-0.06,0 -0.14,0.05 -0.14,0.13z"/>
   <path class="fil2" d="M0.55 1.22l0 0.01 0 0 0 -0.01c0.03,0 0.18,0 0.2,0.01l0 -0.72c0.01,-0.02 0.23,-0.16 0.25,-0.19 -0.01,0 -0.4,0 -0.44,0l-0.01 0.9z"/>
   <path class="fil3" d="M0.81 1.2c0,0 0,0 0,0l0 0c0,0 0,0 0,0zm0.04 -0.03c0,0 -0.01,0.01 -0.01,0 0.01,-0.01 0,0 0.01,0zm0.05 -0.05c0,0.01 -0.01,0.01 0,0l0 0zm0.02 -0.01c0,0 0,0.01 0,0 0,-0.01 0,0 0,0 0.01,0 0,-0.02 0,0zm0.06 -0.05c-0.01,0 -0.01,0.01 -0.01,0l0.01 0zm0.01 -0.01c0,-0.01 0,-0.01 0,-0.01 0.01,0 0,0.02 0,0.01zm-0.01 -0.1c0,0 0,0.01 0,0l0 0zm0.02 -0.01c0,0 0,0.01 0,0 0,-0.01 -0.01,-0.01 0,0 0,0 0,0 0,0zm0.02 -0.02c0,0.01 -0.01,0.01 0,0.01 0,-0.01 -0.01,-0.01 0,-0.01 0,0 0,0 0,0zm0.02 -0.01c0.01,0 -0.01,0.01 0,0 0,-0.01 -0.01,0 0,0zm-0.2 0c0,0.04 -0.01,0.04 -0.03,0.05 0,-0.03 0,-0.06 0,-0.1 0.01,-0.01 0.01,-0.01 0.03,-0.02l0 0.04c0.01,-0.01 0.03,-0.02 0.04,-0.01 0.01,0.01 -0.02,0.02 -0.04,0.04zm0.04 -0.19c0,0 -0.01,0.01 -0.01,0 0.01,-0.02 0.01,-0.01 0.01,0zm0.02 -0.01c0,0 -0.01,0 -0.01,-0.01 0,-0.01 0.01,0 0.01,0 0,0 0,0 0,0.01zm-0.08 -0.01l0 -0.01c0,0 0,0 0,0.01zm0.1 -0.01c0,0.01 -0.01,0.01 -0.01,0 0,-0.01 0.01,-0.01 0.01,0zm-0.08 -0.01l0 0c0,-0.01 0,0 0,0zm0.1 0c0,0 -0.01,0.01 -0.01,0 0,-0.01 0.01,-0.01 0.01,0zm-0.09 -0.01c-0.01,0 0,0 0.01,0 0,-0.01 0,-0.01 0,0 -0.01,0.01 0,0 -0.01,0zm0.11 -0.01c0,0.01 -0.01,0.01 -0.01,0 0,0 0,-0.01 0.01,0zm0.02 -0.01c0,0.01 -0.01,0.01 -0.01,0 0,0 0,-0.01 0.01,0zm0.01 -0.02c0,0 0,-0.01 0,0 0,0.01 -0.01,0.02 0,0zm0.02 -0.01c0,0 0,-0.01 0,0 0,0 -0.01,0.02 0,0zm0.02 -0.02c0,0 0,-0.01 0,0 0,0.01 -0.01,0.02 0,0zm-0.12 -0.04c0.01,0 0,0.01 0,0 0,0 0,0 0,0zm0.02 -0.02c0.01,0 0,0.02 0,0.01 0,-0.02 -0.01,0 0,-0.01zm0.1 0c0,0 -0.01,0.01 0,0 0,-0.01 0,0 0,0zm-0.08 -0.01c0.01,0 0,0.01 0,0 0,-0.01 -0.01,0 0,0zm0.1 0c0,0 -0.01,0.01 -0.01,0 0.01,-0.02 0.01,-0.01 0.01,0zm-0.08 -0.01c0.01,0 0,0.01 0,0 0,-0.01 -0.01,0 0,0zm0.02 -0.02c0.01,0 0,0.02 0,0 0,0 0,0 0,0zm0.02 -0.01c0.01,0 0,0.01 0,0 0,-0.01 0,0 0,0zm0.02 -0.02c0,0.01 0,0.02 0,0 0,0 0,0 0,0 0.02,0.01 0,-0.01 0,0zm-0.23 0.06c0,0.03 -0.01,0.52 0.01,0.55 0,0.02 0,-0.02 -0.01,0.01 0,0.01 0,0 0,0.01l0 0.19c0.01,-0.01 0.02,-0.02 0.03,-0.04 0.01,-0.01 0.02,-0.01 0.04,-0.02 0.02,-0.03 0.04,-0.04 0.06,-0.06 0.01,-0.02 0.02,-0.03 0.03,-0.04l0.1 -0.09c0.02,-0.02 0.01,-0.04 0.01,-0.1l0 -0.61 -0.1 0.07c-0.05,0.04 -0.12,0.1 -0.17,0.13z"/>
   <path class="fil4" d="M0.8 0.53c0.05,-0.03 0.12,-0.09 0.17,-0.13l0.1 -0.07 0 0.61c0,0.06 0.01,0.08 -0.01,0.1l-0.1 0.09c-0.01,0.01 -0.02,0.02 -0.03,0.04 -0.02,0.02 -0.04,0.03 -0.06,0.06 -0.02,0.01 -0.03,0.01 -0.04,0.02 -0.01,0.02 -0.02,0.03 -0.03,0.04l0 -0.19c0,-0.01 0,0 0,-0.01 0.01,-0.03 0.01,0.01 0.01,-0.01 -0.02,-0.03 -0.01,-0.52 -0.01,-0.55zm0.31 -0.29c-0.04,0.04 -0.07,0.03 -0.13,0.03l-0.48 0 0 0.96 0.05 0c-0.01,-0.11 0,-0.25 0,-0.35l0 -0.52c0,-0.04 -0.01,-0.04 0.03,-0.04 0.08,0 0.4,-0.01 0.43,0l-0.01 0c-0.02,0.03 -0.24,0.17 -0.25,0.19l0 0.72 0 0.17c0.1,-0.09 0.2,-0.19 0.3,-0.28 0.08,-0.08 0.07,-0.06 0.07,-0.12 0,-0.25 0,-0.51 0,-0.76 0,0 -0.01,0 -0.01,0z"/>
   <path class="fil1" d="M0.5 1.23c0.01,0 0.03,0 0.05,0l0 0 0 -0.01 0.01 -0.9c0.04,0 0.43,0 0.44,0l0.01 0c-0.03,-0.01 -0.35,0 -0.43,0 -0.04,0 -0.03,0 -0.03,0.04l0 0.52c0,0.1 -0.01,0.24 0,0.35l-0.05 0 0 -0.96 0.48 0c0.06,0 0.09,0.01 0.13,-0.03l-0.63 0.01 0 0.93 0.02 0.01 0 0.03c0,0 0,0 0,0.01z"/>
   <path class="fil5" d="M0.84 0.91l-0.02 0c0,0 -0.01,0.01 0,-0.01 0,-0.01 0,-0.01 0.02,-0.02l0 -0.04c-0.02,0.01 -0.02,0.01 -0.03,0.02 0,0.04 0,0.07 0,0.1 0.02,-0.01 0.03,-0.01 0.03,-0.05z"/>
   <path class="fil4" d="M0.84 0.88c-0.02,0.01 -0.02,0.01 -0.02,0.02 -0.01,0.02 0,0.01 0,0.01l0.02 0c0.02,-0.02 0.05,-0.03 0.04,-0.04 -0.01,-0.01 -0.03,0 -0.04,0.01z"/>
   <path class="fil6" d="M0.97 0.65c0,0.01 0.01,0.01 0.01,0 -0.01,-0.01 -0.01,0 -0.01,0z"/>
   <path class="fil6" d="M0.93 0.68c0,0.01 0.01,0 0.01,0 0,-0.01 -0.01,-0.01 -0.01,0z"/>
   <path class="fil6" d="M0.95 0.66c0,0.01 0.01,0.01 0.01,0 -0.01,-0.01 -0.01,0 -0.01,0z"/>
   <path class="fil6" d="M0.91 0.69c0,0.01 0.01,0.01 0.01,0 0,-0.01 -0.01,-0.01 -0.01,0z"/>
   <path class="fil6" d="M1.03 0.6c-0.01,0.02 0,0.01 0,0 0,-0.01 0,0 0,0z"/>
   <path class="fil6" d="M1.01 0.62c-0.01,0.02 0,0 0,0 0,-0.01 0,0 0,0z"/>
   <path class="fil6" d="M0.99 0.63c-0.01,0.02 0,0.01 0,0 0,-0.01 0,0 0,0z"/>
   <path class="fil6" d="M1.04 0.53c0,0.01 0.01,0 0.01,0 0,-0.01 0,-0.02 -0.01,0z"/>
   <path class="fil6" d="M0.87 0.72c0,0.01 0.01,0 0.01,0 0,-0.01 0,-0.02 -0.01,0z"/>
   <path class="fil6" d="M1.03 0.54c-0.01,0.01 0,0 0,0 0,0 0,-0.01 0,0z"/>
   <path class="fil6" d="M0.89 0.7c0,0.01 0.01,0.01 0.01,0.01 0,-0.01 0,-0.01 0,-0.01 0,0 -0.01,-0.01 -0.01,0z"/>
   <path class="fil6" d="M1.01 0.49c0,0.01 0.01,0 0,0 0,0 0,-0.01 0,0z"/>
   <path class="fil6" d="M0.99 0.5c0,0.02 0.01,0 0,0 0,0 0,0 0,0z"/>
   <path class="fil6" d="M0.84 1.17c0,0.01 0.01,0 0.01,0 -0.01,0 0,-0.01 -0.01,0z"/>
   <path class="fil6" d="M0.97 0.52c0,0.01 0.01,0 0,0 -0.01,0 0,-0.01 0,0z"/>
   <path class="fil6" d="M1.04 0.91c-0.01,0.01 0.01,0 0,0 -0.01,0 0,-0.01 0,0z"/>
   <path class="fil6" d="M1.03 0.47c0,0.02 0,0.01 0,0 0,-0.01 0.02,0.01 0,0 0,0 0,0 0,0z"/>
   <path class="fil6" d="M1.02 0.93c-0.01,0 0,0 0,-0.01 0,0 0,0 0,0 -0.01,0 0,0 0,0.01z"/>
   <path class="fil6" d="M1 0.94c0,0.01 0,0 0,0 0,0 0,0 0,0 -0.01,-0.01 0,-0.01 0,0z"/>
   <path class="fil6" d="M0.99 1.05c0,0.01 0.01,-0.01 0,-0.01 0,0 0,0 0,0.01z"/>
   <path class="fil6" d="M0.95 0.53c0,0.01 0.01,0 0,0 -0.01,0 0,-0.01 0,0z"/>
   <path class="fil6" d="M0.9 1.12c-0.01,0.01 0,0.01 0,0l0 0z"/>
   <path class="fil6" d="M0.86 0.67c-0.01,0 -0.02,0 -0.01,0 0.01,0 0,0.01 0.01,0 0,-0.01 0,-0.01 0,0z"/>
   <path class="fil6" d="M0.92 1.11c0,0.01 0,0 0,0 0,-0.02 0.01,0 0,0 0,0 0,-0.01 0,0z"/>
   <path class="fil6" d="M0.91 0.56c0,0.01 0.01,0 0,0 0,0 0,0 0,0z"/>
   <path class="fil6" d="M0.98 0.95c0,0.01 0,0 0,0l0 0z"/>
   <path class="fil6" d="M0.82 0.69l0 0.01c0,-0.01 0,-0.01 0,-0.01z"/>
   <path class="fil6" d="M0.93 0.55c0,0.01 0.01,-0.01 0,-0.01 -0.01,0.01 0,-0.01 0,0.01z"/>
   <path class="fil6" d="M0.84 0.68l0 0c0,0 0,-0.01 0,0z"/>
   <path class="fil6" d="M0.97 1.06c0,0.01 0,0 0.01,0l-0.01 0z"/>
   <path class="fil6" d="M0.81 1.2c0,0 0,0 0,0 0,0 0,0 0,0l0 0z"/>
  </g>
 </g>
</svg>
