<?xml version="1.0" encoding="UTF-8"?>
<!DOCTYPE svg PUBLIC "-//W3C//DTD SVG 1.1//EN" "http://www.w3.org/Graphics/SVG/1.1/DTD/svg11.dtd">
<!-- Creator: CorelDRAW 2021 (64 Bit) -->
<svg xmlns="http://www.w3.org/2000/svg" xml:space="preserve" width="337px" height="330px" version="1.1" style="shape-rendering:geometricPrecision; text-rendering:geometricPrecision; image-rendering:optimizeQuality; fill-rule:evenodd; clip-rule:evenodd"
viewBox="0 0 185.72 181.83"
 xmlns:xlink="http://www.w3.org/1999/xlink"
 xmlns:xodm="http://www.corel.com/coreldraw/odm/2003">
 <defs>
  <style type="text/css">
   <![CDATA[
    .str0 {stroke:#C4C4C4;stroke-width:16.53;stroke-miterlimit:22.9256}
    .str8 {stroke:#52331E;stroke-width:0.55;stroke-miterlimit:22.9256}
    .str7 {stroke:#9F740B;stroke-width:0.55;stroke-miterlimit:22.9256}
    .str2 {stroke:black;stroke-width:4.41;stroke-miterlimit:22.9256}
    .str1 {stroke:black;stroke-width:2.75;stroke-miterlimit:22.9256}
    .str3 {stroke:#86B0C0;stroke-width:2.75;stroke-miterlimit:22.9256}
    .str5 {stroke:#E2A610;stroke-width:2.75;stroke-miterlimit:22.9256}
    .str9 {stroke:#9F740E;stroke-width:1.1;stroke-miterlimit:22.9256}
    .str6 {stroke:#FDD734;stroke-width:1.1;stroke-miterlimit:22.9256}
    .str4 {stroke:#B9E4EA;stroke-width:0.5;stroke-miterlimit:22.9256}
    .fil3 {fill:none}
    .fil9 {fill:#52331E}
    .fil4 {fill:#86B0C0}
    .fil8 {fill:#9F740B}
    .fil10 {fill:#9F7507}
    .fil5 {fill:#B9E4EA}
    .fil6 {fill:#E2A610}
    .fil2 {fill:#EAFF00}
    .fil7 {fill:#FDD734}
    .fil1 {fill:red}
    .fil0 {fill:white}
   ]]>
  </style>
 </defs>
 <g id="Camada_x0020_1">
  <metadata id="CorelCorpID_0Corel-Layer"/>
  <g id="_2713504632768">
   <ellipse class="fil0 str0" cx="92.86" cy="90.92" rx="84.6" ry="82.65"/>
   <g>
    <g>
     <path class="fil1" d="M52.26 39.66c-13.72,6.28 -17.76,13.57 -18.4,27.02 0.37,12.67 6.13,19.79 15.85,24.72l3.53 51.71c5.7,-1.04 9.81,-3.35 10.78,-8.19l0.57 -6.07 3.58 -11.29 -4.97 -9.86 5.97 -9.89 -2.05 -9.72c10.77,-7.19 14.46,-17.7 11.49,-31.34 -4.36,-12.72 -12.92,-19.07 -26.35,-17.09z"/>
     <path class="fil2 str1" d="M32.84 66.48c-0.07,0.78 -0.08,1.81 -0.08,2.58 -0.03,6.14 3.49,12.84 7.39,17.11 1.43,1.57 3,3.06 4.74,4.06 3.01,1.73 3.66,1.12 3.75,2.95 0.2,3.81 0.47,6.31 0.58,10.18l0.68 10.27c0.14,2.14 1.86,29.77 2.08,30.47 1.36,-0.47 2.36,-0.67 3.74,-0.97 4.19,-0.9 8.53,-4.27 9.95,-8.88 0.86,-2.82 -0.66,-5.56 0.3,-8.57l3.51 -8.91c-0.07,-0.26 0.11,0.15 -0.13,-0.35 -0.13,-0.27 0.01,-0.01 -0.19,-0.33 -1.47,-2.39 -3.47,-6.75 -4.89,-9.51 1.93,-2.6 5.26,-6.52 5.6,-9.55 0.16,-1.4 -0.2,-2.91 -0.43,-4.4 -0.23,-1.45 -0.29,-3.33 -0.61,-4.22 3.77,-2.91 5.37,-4.01 8.25,-9.16 1.88,-3.35 3.27,-7.67 3.49,-10.86 0.24,-3.66 0.23,-6.81 -0.78,-10.38 -0.97,-3.47 -2.12,-6.57 -4.51,-9.95 -2.52,-3.58 -5.61,-6.16 -9.17,-7.84 -3.49,-1.65 -6.36,-1.9 -9.31,-1.91l-4.56 0.64c-3.96,0.97 -8.06,3.46 -11.09,6.82 -0.35,0.39 -1.28,1.34 -1.54,1.85l0.19 0.27c1.06,1.22 1.48,1.71 2.54,2.62 2.81,-2.49 3.5,-4.83 7.87,-7.05 2.48,-1.27 5.6,-2 8.19,-1.89 1.85,0.09 6.4,0.74 8.42,2.1 5.56,3.73 10.01,9.67 11.08,17.06 0.38,2.66 0.74,6.79 0.09,9.44 -1.89,7.65 -6.29,13.27 -12.58,16.59 -0.07,0.64 0.12,1.74 0.24,2.44l1.08 7.38c0.04,0.88 -0.57,1.5 -1.3,2.65l-5.11 8.2c1.52,2.52 3.05,5.94 4.55,8.7 0.81,1.49 0.68,0.77 -0.5,4.62l-2.18 7.18c-0.43,1.37 -0.44,1.1 -0.16,2.3 0.11,0.44 0.36,4.28 0.23,4.64 -1.25,3.29 -5.7,5.68 -7.62,5.67 -0.2,-0.56 -0.13,-0.87 -0.14,-1.61 -0.09,-3.86 -0.41,-7.42 -0.5,-11.43 -0.03,-1.14 0.05,-2.15 -0.13,-3.29l-0.77 -16.29c-0.11,-0.95 -0.07,-2.27 -0.09,-3.29 -0.03,-1.15 -0.04,-2.14 -0.08,-3.29l-0.39 -6.55c-0.04,-2.24 -0.07,-4.35 -0.21,-6.54 -0.95,-0.6 -2.36,-0.42 -3.22,-0.62 -0.46,-0.11 -2.63,-1.3 -3.2,-1.61 -5.12,-2.81 -7.95,-8.34 -9.06,-14.36 -0.12,-0.64 -0.29,-2.01 -0.39,-2.64 -0.09,-0.72 -0.15,-1.63 -0.28,-2.69 -0.53,0.11 -0.95,0.13 -1.64,0.22 -0.59,0.05 -0.94,0.03 -1.7,-0.07z"/>
     <line class="fil3 str2" x1="55.76" y1="87.43" x2="57.77" y2= "139.9" />
     <line class="fil3 str2" x1="61.8" y1="86.91" x2="62.48" y2= "104.2" />
     <path class="fil1 str1" d="M32.55 54.9c-2.68,4.72 3.76,9.3 6.45,4.12 0.94,-1.83 0.73,-4.49 -1.24,-5.73 -1.61,-1.02 -3.99,-0.54 -5.21,1.61z"/>
     <ellipse class="fil0 str1" cx="52.41" cy="55.86" rx="5.08" ry="5.66"/>
    </g>
    <g>
     <path class="fil4 str3" d="M99.59 55.14c0.02,8.81 0.02,9.83 0.05,18.63 2.95,2.55 6.15,2.72 9.37,0.04 0.12,-9.58 0.15,-11.56 0.27,-21.15 3.33,-17.28 21.1,-17.1 24.22,0 0,3.87 0,17.65 0,21.52 2.79,1.66 5.6,1.86 8.39,0.09 0,-3.11 0.12,-15.63 0.12,-18.73 -0.68,-9.52 -3.68,-17.51 -10.41,-23.02 -7.1,-5.77 -14.67,-5.8 -22.32,-0.58 -6.3,5.88 -9.44,13.66 -9.69,23.2z"/>
     <path class="fil5 str4" d="M110.04 38.54c-0.12,-1.87 -1.05,-2.39 -2.56,-1.96 -4.77,2.53 -6.83,9.77 -6.48,21.24 0.02,2.33 1.29,2.29 1.74,0.69 1.47,-8 3.32,-13.88 5.59,-16.19 1.17,-1.03 1.67,-2.31 1.71,-3.78z"/>
     <path class="fil6 str5" d="M91.74 135.39c0.13,-16.2 0.26,-32.39 0.38,-48.59 20.01,-10.68 39.18,-10.63 57.51,0 0,16.2 0,32.39 0,48.59 -3.77,6.2 -19.5,8.64 -28.83,8.73 -9.99,0.09 -25.64,-2.55 -29.06,-8.73z"/>
     <path class="fil7 str6" d="M120.8 97.37c-14.18,-0.2 -28.01,-2.41 -28.64,-10.78 0.16,-3.04 18.23,-7.91 28.78,-7.99 10.35,-0.37 28.52,4.82 28.72,7.99 -0.3,8.95 -16.87,10.54 -28.86,10.78z"/>
     <path class="fil8 str7" d="M117.94 122.66c-1.4,3.77 -2.81,7.53 -4.22,11.3 -0.44,1.03 -0.04,1.56 1,1.59 1.52,0.04 7.22,-0.07 11.09,0.01 1.05,0.03 1.4,-0.65 1.04,-1.6 -1.45,-3.76 -2.77,-7.29 -4.21,-11.06 2.24,-1.13 3.64,-2.86 3.45,-5.75 -0.43,-3.82 -2.48,-5.67 -5.95,-5.77 -3.54,0.14 -5.68,2.89 -5.59,5.85 -0.01,2.33 1.55,4.94 3.39,5.43z"/>
     <path class="fil9 str8" d="M118.52 121.25c-1.03,3.33 -2.06,6.66 -3.09,9.99 -0.32,0.92 -0.03,1.39 0.74,1.41 1.11,0.04 5.26,-0.06 8.09,0.02 0.77,0.02 1.03,-0.58 0.76,-1.42 -1.06,-3.32 -2.02,-6.45 -3.07,-9.79 1.63,-0.99 2.66,-2.53 2.52,-5.08 -0.32,-3.38 -1.81,-5.02 -4.35,-5.1 -2.58,0.12 -4.14,2.55 -4.08,5.17 -0.01,2.06 1.13,4.37 2.48,4.8z"/>
     <ellipse class="fil10 str9" cx="137.13" cy="85.71" rx="5.37" ry="2.93"/>
     <ellipse class="fil10 str9" cx="103.11" cy="85.71" rx="5.37" ry="2.93"/>
    </g>
   </g>
  </g>
 </g>
</svg>
