<?xml version="1.0" encoding="UTF-8"?>
<!DOCTYPE svg PUBLIC "-//W3C//DTD SVG 1.1//EN" "http://www.w3.org/Graphics/SVG/1.1/DTD/svg11.dtd">
<!-- Creator: CorelDRAW 2021 (64 Bit) -->
<svg xmlns="http://www.w3.org/2000/svg" xml:space="preserve" width="400px" height="400px" version="1.1" style="shape-rendering:geometricPrecision; text-rendering:geometricPrecision; image-rendering:optimizeQuality; fill-rule:evenodd; clip-rule:evenodd"
viewBox="0 0 4.28 4.28"
 xmlns:xlink="http://www.w3.org/1999/xlink"
 xmlns:xodm="http://www.corel.com/coreldraw/odm/2003">
 <defs>
  <style type="text/css">
   <![CDATA[
    .str0 {stroke:#B8B4B6;stroke-width:0.32;stroke-miterlimit:22.9256}
    .str1 {stroke:black;stroke-width:0.09;stroke-miterlimit:22.9256}
    .str2 {stroke:black;stroke-width:0.05;stroke-miterlimit:22.9256}
    .fil8 {fill:none}
    .fil7 {fill:#00FF95}
    .fil4 {fill:#52331D}
    .fil2 {fill:#86B0C0}
    .fil6 {fill:#9F740B}
    .fil5 {fill:#B8E3EA}
    .fil1 {fill:#E2A610}
    .fil3 {fill:#FDD734}
    .fil0 {fill:white}
    .fil9 {fill:white}
   ]]>
  </style>
 </defs>
 <g id="Camada_x0020_1">
  <metadata id="CorelCorpID_0Corel-Layer"/>
  <path class="fil0 str0" d="M0.34 0.16l3.61 0c0.1,0 0.17,0.09 0.17,0.2l0 3.57c0,0.1 -0.07,0.19 -0.17,0.19l-3.61 0c-0.1,0 -0.18,-0.09 -0.18,-0.19 0,-0.43 0,-3.46 0,-3.61 0,-0.09 0.11,-0.16 0.18,-0.16z"/>
  <g id="_2713713747936">
   <g>
    <path class="fil1" d="M2.87 2.61l0 0c0.02,-0.01 0.03,-0.02 0.06,-0.02 0.02,0 0.03,0.01 0.05,0.01l0.01 0.01c0.03,0 0.06,0.03 0.08,0.05 0.04,0.06 0.05,0.15 0,0.21 -0.02,0.04 -0.06,0.05 -0.07,0.06l0.13 0.33c0.01,0.03 -0.02,0.04 -0.04,0.04 -0.06,0 -0.11,0 -0.17,0 -0.05,0 -0.11,0 -0.16,0 -0.06,0 -0.03,-0.04 -0.01,-0.11 0.03,-0.07 0.08,-0.2 0.1,-0.26 0,-0.01 -0.1,-0.05 -0.1,-0.17 0,-0.08 0.07,-0.15 0.12,-0.15zm0.94 0.8l0 -1.41c0,0.04 -0.03,0.09 -0.04,0.11 -0.06,0.08 -0.21,0.13 -0.3,0.15 -0.3,0.07 -0.75,0.07 -1.05,0 -0.13,-0.03 -0.32,-0.09 -0.34,-0.26 -0.01,0 -0.01,0.01 -0.01,0.02l-0.01 1.34c0,0.05 0,0.06 0.03,0.09 0.06,0.07 0.18,0.12 0.29,0.15 0.24,0.07 0.53,0.09 0.79,0.06 0.17,-0.02 0.48,-0.07 0.62,-0.21 0,-0.01 0.01,-0.01 0.01,-0.02 0.01,-0.01 0.01,-0.01 0.01,-0.02z"/>
    <path class="fil2" d="M2.58 0.81c0.09,-0.03 0.09,0.1 0.02,0.17 -0.11,0.1 -0.16,0.43 -0.17,0.47 -0.02,0.04 -0.05,0.04 -0.05,-0.01 -0.01,-0.09 0,-0.26 0.02,-0.34 0.01,-0.07 0.03,-0.13 0.06,-0.18 0.02,-0.03 0.03,-0.04 0.05,-0.07 0.01,-0.01 0.04,-0.03 0.07,-0.04zm-0.25 1.05l0 0.26c0.1,0.08 0.19,0.08 0.29,-0.01l0 -0.31 0.01 -0.49c0,-0.05 0.01,-0.09 0.03,-0.13 0.05,-0.13 0.16,-0.27 0.33,-0.27 0.17,0 0.28,0.13 0.33,0.27 0.02,0.05 0.03,0.08 0.03,0.14 0,0.15 0,0.34 0,0.48l0 0.18 0 0.1c0.01,0.01 0.06,0.03 0.08,0.03 0.04,0.01 0.07,0.01 0.11,0 0.03,-0.01 0.04,-0.02 0.07,-0.03l0 -0.11 0 -0.09c0,-0.17 0.01,-0.35 0,-0.52 0,-0.13 -0.04,-0.3 -0.09,-0.4 -0.04,-0.08 -0.09,-0.16 -0.15,-0.21 -0.01,-0.01 -0.02,-0.02 -0.04,-0.03 -0.09,-0.09 -0.21,-0.16 -0.35,-0.16 -0.13,-0.01 -0.27,0.04 -0.35,0.11 -0.02,0.01 -0.03,0.02 -0.04,0.03 -0.02,0.02 -0.06,0.06 -0.08,0.09 -0.03,0.04 -0.07,0.09 -0.09,0.15 -0.06,0.12 -0.09,0.25 -0.09,0.41 -0.01,0.17 0,0.34 0,0.51z"/>
    <path class="fil3" d="M2.62 1.8l0 0.31c-0.1,0.09 -0.19,0.09 -0.29,0.01l0 -0.26c-0.04,0.01 -0.1,0.04 -0.14,0.05 -0.04,0.02 -0.1,0.05 -0.11,0.09 0.02,0.17 0.21,0.23 0.34,0.26 0.3,0.07 0.75,0.07 1.05,0 0.09,-0.02 0.24,-0.07 0.3,-0.15 0.01,-0.02 0.04,-0.07 0.04,-0.11l0 1.41c0,0 0,0 0,-0.01 0,0 0,0 0,-0.01l0 -1.35c0,-0.02 0.01,-0.04 0,-0.04 0,-0.04 -0.05,-0.06 -0.09,-0.08 -0.03,-0.01 -0.08,-0.04 -0.11,-0.04l0 0.09c0.03,0.02 0.05,0.06 0.02,0.1 -0.02,0.01 -0.06,0.03 -0.09,0.04 -0.04,0.01 -0.07,0.01 -0.11,0 -0.02,0 -0.07,-0.02 -0.08,-0.03 -0.03,-0.02 -0.05,-0.07 0,-0.1l0 -0.18c-0.06,0 -0.12,-0.02 -0.18,-0.03 -0.06,0 -0.12,-0.01 -0.18,-0.01 -0.13,0 -0.24,0.02 -0.37,0.04z"/>
    <path class="fil0" d="M2.62 1.8c0.13,-0.02 0.24,-0.04 0.37,-0.04 0.06,0 0.12,0.01 0.18,0.01 0.06,0.01 0.12,0.03 0.18,0.03 0,-0.14 0,-0.33 0,-0.48 0,-0.06 -0.01,-0.09 -0.03,-0.14 -0.05,-0.14 -0.16,-0.27 -0.33,-0.27 -0.17,0 -0.28,0.14 -0.33,0.27 -0.02,0.04 -0.03,0.08 -0.03,0.13l-0.01 0.49z"/>
    <path class="fil4" d="M2.87 2.61l0 0c-0.02,0.02 -0.03,0.01 -0.05,0.05 -0.03,0.05 -0.03,0.12 0,0.17 0.01,0.02 0.02,0.04 0.04,0.05l0.01 0.01c-0.02,0.07 -0.05,0.15 -0.07,0.22 -0.01,0.05 -0.04,0.1 -0.01,0.1l0.26 0.01c0.05,-0.01 0.01,-0.08 0,-0.11 -0.02,-0.07 -0.05,-0.15 -0.07,-0.22 0.08,-0.05 0.09,-0.14 0.05,-0.22 0,-0.02 -0.01,-0.03 -0.02,-0.04 0,0 0,0 -0.01,-0.01l-0.01 -0.01c-0.01,0 -0.01,0 -0.01,-0.01 -0.02,0 -0.03,-0.01 -0.05,-0.01 -0.03,0 -0.04,0.01 -0.06,0.02z"/>
    <path class="fil5" d="M2.58 0.81c-0.03,0.01 -0.06,0.03 -0.07,0.04 -0.02,0.03 -0.03,0.04 -0.05,0.07 -0.03,0.05 -0.05,0.11 -0.06,0.18 -0.02,0.08 -0.03,0.25 -0.02,0.34 0,0.05 0.03,0.05 0.05,0.01 0.01,-0.04 0.06,-0.37 0.17,-0.47 0.07,-0.07 0.07,-0.2 -0.02,-0.17z"/>
    <path class="fil6" d="M2.99 2.61l-0.01 -0.01c0,0.01 0,0.01 0.01,0.01l0.01 0.01c0.01,0.01 0.01,0.01 0.01,0.01 0.01,0.01 0.02,0.02 0.02,0.04 0.04,0.08 0.03,0.17 -0.05,0.22 0.02,0.07 0.05,0.15 0.07,0.22 0.01,0.03 0.05,0.1 0,0.11l-0.26 -0.01c-0.03,0 0,-0.05 0.01,-0.1 0.02,-0.07 0.05,-0.15 0.07,-0.22l-0.01 -0.01c-0.02,-0.01 -0.03,-0.03 -0.04,-0.05 -0.03,-0.05 -0.03,-0.12 0,-0.17 0.02,-0.04 0.03,-0.03 0.05,-0.05l0 0 0 0c-0.05,0 -0.12,0.07 -0.12,0.15 0,0.12 0.1,0.16 0.1,0.17 -0.02,0.06 -0.07,0.19 -0.1,0.26 -0.02,0.07 -0.05,0.11 0.01,0.11 0.05,0 0.11,0 0.16,0 0.06,0 0.11,0 0.17,0 0.02,0 0.05,-0.01 0.04,-0.04l-0.13 -0.33c0.01,-0.01 0.05,-0.02 0.07,-0.06 0.05,-0.06 0.04,-0.15 0,-0.21 -0.02,-0.02 -0.05,-0.05 -0.08,-0.05z"/>
    <path class="fil6" d="M3.54 2.11c0.03,-0.01 0.07,-0.03 0.09,-0.04 0.03,-0.04 0.01,-0.08 -0.02,-0.1l0 0.11c-0.03,0.01 -0.04,0.02 -0.07,0.03z"/>
    <path class="fil6" d="M3.35 2.08l0 -0.1c-0.05,0.03 -0.03,0.08 0,0.1z"/>
   </g>
   <path class="fil7" d="M1.08 0.66c-0.4,0.18 -0.52,0.4 -0.54,0.79 0.01,0.38 0.18,0.59 0.46,0.73l0.11 1.52c0.17,-0.03 0.29,-0.09 0.32,-0.24l0.01 -0.18 0.11 -0.33 -0.15 -0.29 0.18 -0.29 -0.06 -0.29c0.31,-0.21 0.42,-0.52 0.34,-0.92 -0.13,-0.37 -0.38,-0.56 -0.78,-0.5z"/>
   <line class="fil8 str1" x1="1.15" y1="2.1" x2="1.21" y2= "3.6" />
   <line class="fil8 str1" x1="1.33" y1="2.09" x2="1.35" y2= "2.6" />
   <path class="fil7 str2" d="M0.51 1.45c0,0.02 0,0.05 0,0.07 -0.01,0.18 0.1,0.38 0.21,0.51 0.04,0.04 0.09,0.09 0.14,0.12 0.09,0.05 0.11,0.03 0.11,0.08 0.01,0.12 0.02,0.19 0.02,0.3l0.02 0.31c0,0.06 0.05,0.87 0.06,0.89 0.04,-0.01 0.07,-0.02 0.11,-0.02 0.12,-0.03 0.25,-0.13 0.29,-0.27 0.03,-0.08 -0.01,-0.16 0.01,-0.25l0.11 -0.26c-0.01,-0.01 0,0 -0.01,-0.01 0,-0.01 0,0 0,-0.01 -0.05,-0.07 -0.1,-0.2 -0.15,-0.28 0.06,-0.08 0.16,-0.19 0.17,-0.28 0,-0.04 -0.01,-0.09 -0.01,-0.13 -0.01,-0.04 -0.01,-0.1 -0.02,-0.13 0.11,-0.08 0.16,-0.11 0.24,-0.27 0.06,-0.09 0.1,-0.22 0.1,-0.32 0.01,-0.1 0.01,-0.2 -0.02,-0.3 -0.03,-0.1 -0.06,-0.2 -0.13,-0.3 -0.08,-0.1 -0.17,-0.18 -0.27,-0.23 -0.11,-0.04 -0.19,-0.05 -0.28,-0.05l-0.13 0.02c-0.12,0.02 -0.24,0.1 -0.33,0.2 -0.01,0.01 -0.04,0.04 -0.04,0.05l0 0.01c0.03,0.04 0.05,0.05 0.08,0.08 0.08,-0.08 0.1,-0.15 0.23,-0.21 0.07,-0.04 0.16,-0.06 0.24,-0.06 0.05,0.01 0.19,0.03 0.25,0.07 0.16,0.11 0.29,0.28 0.32,0.5 0.02,0.08 0.03,0.2 0.01,0.28 -0.06,0.22 -0.19,0.39 -0.37,0.49 -0.01,0.01 0,0.05 0,0.07l0.04 0.21c0,0.03 -0.02,0.05 -0.04,0.08l-0.15 0.24c0.04,0.08 0.09,0.18 0.13,0.26 0.02,0.04 0.02,0.02 -0.01,0.14l-0.07 0.21c-0.01,0.04 -0.01,0.03 0,0.07 0,0.01 0.01,0.12 0,0.13 -0.03,0.1 -0.16,0.17 -0.22,0.17 -0.01,-0.02 0,-0.03 0,-0.05 -0.01,-0.11 -0.02,-0.22 -0.02,-0.33 0,-0.04 0,-0.07 0,-0.1l-0.03 -0.48c0,-0.03 0,-0.07 0,-0.1 0,-0.03 0,-0.06 0,-0.1l-0.01 -0.19c0,-0.06 0,-0.13 -0.01,-0.19 -0.03,-0.02 -0.07,-0.01 -0.09,-0.02 -0.02,0 -0.08,-0.04 -0.1,-0.05 -0.15,-0.08 -0.23,-0.24 -0.26,-0.42 -0.01,-0.02 -0.01,-0.06 -0.02,-0.08 0,-0.02 0,-0.05 0,-0.08 -0.02,0.01 -0.03,0.01 -0.05,0.01 -0.02,0 -0.03,0 -0.05,0z"/>
   <path class="fil7 str2" d="M0.55 1.13c-0.08,0.14 0.11,0.27 0.19,0.12 0.02,-0.06 0.02,-0.13 -0.04,-0.17 -0.05,-0.03 -0.12,-0.02 -0.15,0.05z"/>
   <ellipse class="fil9 str2" cx="1.04" cy="1.07" rx="0.15" ry="0.17"/>
  </g>
 </g>
</svg>
