<?xml version="1.0" encoding="UTF-8"?>
<!DOCTYPE svg PUBLIC "-//W3C//DTD SVG 1.1//EN" "http://www.w3.org/Graphics/SVG/1.1/DTD/svg11.dtd">
<!-- Creator: CorelDRAW 2021 (64 Bit) -->
<svg xmlns="http://www.w3.org/2000/svg" xml:space="preserve" width="400px" height="400px" version="1.1" style="shape-rendering:geometricPrecision; text-rendering:geometricPrecision; image-rendering:optimizeQuality; fill-rule:evenodd; clip-rule:evenodd"
viewBox="0 0 2.26 2.26"
 xmlns:xlink="http://www.w3.org/1999/xlink"
 xmlns:xodm="http://www.corel.com/coreldraw/odm/2003">
 <defs>
  <style type="text/css">
   <![CDATA[
    .str17 {stroke:#FF0505;stroke-width:0.06;stroke-miterlimit:22.9256}
    .str0 {stroke:#C4C4C4;stroke-width:0.17;stroke-miterlimit:22.9256}
    .str5 {stroke:#F5A980;stroke-width:0.02;stroke-miterlimit:22.9256}
    .str4 {stroke:black;stroke-width:0.01;stroke-miterlimit:22.9256}
    .str12 {stroke:#595656;stroke-width:0.01;stroke-miterlimit:22.9256}
    .str10 {stroke:#DBDBDB;stroke-width:0.01;stroke-miterlimit:22.9256}
    .str2 {stroke:#F5A980;stroke-width:0.01;stroke-miterlimit:22.9256}
    .str1 {stroke:#030303;stroke-width:0.05;stroke-miterlimit:22.9256}
    .str8 {stroke:#F5A980;stroke-width:0.01;stroke-miterlimit:22.9256}
    .str16 {stroke:#FF0505;stroke-width:0.01;stroke-miterlimit:22.9256}
    .str9 {stroke:#F5A980;stroke-width:0.02;stroke-miterlimit:22.9256}
    .str15 {stroke:#FF0505;stroke-width:0.02;stroke-miterlimit:22.9256}
    .str6 {stroke:#DBDBDB;stroke-width:0.01;stroke-miterlimit:22.9256}
    .str11 {stroke:#F5A980;stroke-width:0.01;stroke-miterlimit:22.9256}
    .str13 {stroke:#FF0505;stroke-width:0.01;stroke-miterlimit:22.9256}
    .str7 {stroke:#E1E1E1;stroke-width:0.01;stroke-miterlimit:22.9256}
    .str3 {stroke:#454545;stroke-width:0.08;stroke-linecap:round;stroke-miterlimit:22.9256}
    .str14 {stroke:#FF0505;stroke-width:0.02;stroke-miterlimit:22.9256;stroke-dasharray:0.020000 0.020000}
    .fil4 {fill:none}
    .fil3 {fill:black}
    .fil5 {fill:black}
    .fil10 {fill:#336666}
    .fil1 {fill:#33CC66}
    .fil7 {fill:#666666}
    .fil11 {fill:#66FFCC}
    .fil6 {fill:#999999}
    .fil9 {fill:#CCCCCC}
    .fil8 {fill:#F5A980}
    .fil2 {fill:#F5B796}
    .fil0 {fill:white}
   ]]>
  </style>
 </defs>
 <g id="Camada_x0020_1">
  <metadata id="CorelCorpID_0Corel-Layer"/>
  <g id="_2069666200432">
   <circle class="fil0 str0" cx="1.13" cy="1.13" r="1.04"/>
   <g>
    <g>
     <path class="fil1 str1" d="M1.9 1.51l-0.7 0.01c-0.02,0 -0.03,-0.02 -0.03,-0.05 0.01,-0.09 0.01,-0.16 0.02,-0.25 0,-0.02 -0.01,-0.06 0.02,-0.08 0.1,-0.05 0.23,-0.08 0.24,-0.14l0 -0.05c0.07,0.22 0.15,0.2 0.19,-0.01 0,0.03 0.01,0.08 0.04,0.1l0.22 0.12c0.01,0.01 0.02,0.02 0.02,0.04 0,0.09 0.01,0.18 0.02,0.27 0,0.03 -0.01,0.05 -0.04,0.04z"/>
     <path class="fil2 str2" d="M1.45 1.01c0.02,0.06 0.05,0.09 0.1,0.11 0.05,-0.01 0.09,-0.09 0.09,-0.11l0 -0.07c-0.02,0.02 -0.04,0.05 -0.06,0.08 -0.01,0.01 -0.05,0.01 -0.06,0l-0.07 -0.08 0 0.07z"/>
     <path class="fil2 str2" d="M1.73 0.65c-0.01,0.01 -0.01,0.02 -0.02,0.02l0.01 -0.02 -0.05 -0.04 0 -0.1 -0.07 0 -0.05 0.02 -0.06 -0.02 -0.07 0 -0.01 0.08 -0.03 0.06c-0.01,-0.01 -0.01,-0.02 -0.01,-0.03 -0.01,0 -0.01,0 -0.02,0 0,0 0,0.01 -0.01,0.02 0,0.01 0,0.03 0,0.04l0.01 0.05c0,0 0.01,0.01 0.01,0.01 0.01,0 0.01,0 0.02,-0.01 0,0.03 0,0.07 0.01,0.1 0.02,0.04 0.03,0.08 0.05,0.11 0.03,0.03 0.05,0.05 0.07,0.08 0.03,0.02 0.05,0.02 0.07,0 0.03,-0.04 0.06,-0.07 0.09,-0.11 0.01,-0.02 0.02,-0.05 0.03,-0.07 0,-0.03 0.01,-0.06 0.01,-0.09 0,0.01 0.01,0.01 0.01,0.01 0,0 0.01,0 0.02,-0.01 0,-0.02 0.01,-0.05 0.01,-0.07 0.01,-0.01 0,-0.02 0,-0.02 -0.01,-0.01 -0.02,-0.01 -0.02,-0.01z"/>
     <path class="fil3" d="M1.62 0.69c-0.01,0 -0.01,0.01 -0.01,0.02 0,0.01 0.01,0.02 0.02,0.02 0.02,-0.01 0.02,-0.05 -0.01,-0.04z"/>
     <path class="fil3" d="M1.47 0.69c-0.03,0 -0.02,0.04 0,0.04 0.01,0 0.02,-0.01 0.02,-0.03 0,-0.01 -0.01,-0.02 -0.02,-0.01z"/>
     <line class="fil4 str3" x1="1.43" y1="0.63" x2="1.52" y2= "0.64" />
     <path class="fil5 str4" d="M1.41 0.59l-0.03 0.06c-0.01,-0.02 -0.01,-0.02 -0.01,-0.04 -0.01,-0.04 -0.01,-0.1 0,-0.15 0.01,-0.08 0.04,-0.11 0.08,-0.11 0.07,-0.02 0.13,-0.02 0.19,0 0.04,0.02 0.07,0.06 0.08,0.11 0.02,0.07 0.01,0.12 0,0.19 -0.02,-0.01 -0.03,-0.03 -0.05,-0.04 -0.01,-0.04 -0.01,-0.07 0,-0.1 -0.03,0.01 -0.04,0.01 -0.07,0 -0.03,0.03 -0.08,0.03 -0.11,0 -0.02,0.01 -0.05,0.01 -0.07,0 0,0.03 0,0.06 -0.01,0.08z"/>
     <line class="fil4 str3" x1="1.66" y1="0.63" x2="1.57" y2= "0.64" />
     <path class="fil6" d="M1.62 0.68c0,0 0.01,-0.01 0.03,-0.01 0.01,0 0.02,0.01 0.03,0.02 0,0 0,0 0,0.01l-0.01 0c-0.01,-0.01 -0.03,-0.02 -0.05,-0.02z"/>
     <path class="fil6" d="M1.48 0.68c0.01,0 -0.01,-0.01 -0.03,-0.01 -0.01,0 -0.02,0.01 -0.02,0.02 0,0 -0.01,0 0,0.01l0.01 0c0.01,-0.01 0.02,-0.02 0.04,-0.02z"/>
     <path class="fil4 str5" d="M1.58 0.66l-0.01 0.02 0 0.03 -0.01 0.05 0.01 0.02 0.01 0.03c0,0.01 0,0.01 0,0.01l-0.03 0.03c0,0 -0.01,0 -0.01,0l-0.03 -0.03 0 -0.01 0.01 -0.03 0 -0.02 0 -0.05 -0.01 -0.03 -0.02 -0.02"/>
     <path class="fil7" d="M1.6 0.88l-0.11 0c0,0 0,0 0,0.01l0.03 0.02c0,0.01 0.01,0.01 0.03,0.01 0.01,0 0.02,0 0.03,-0.01l0.02 -0.02c0,-0.01 0,0 0,-0.01z"/>
     <path class="fil0 str6" d="M1.51 0.88l0 0.01c0,0 0,0 0.01,0 0,0.01 0,0.01 0.01,0 0,0.01 0,0.01 0,0 0.01,0.01 0.01,0.01 0.02,0 0,0.01 0.01,0.01 0.01,0 0,0.01 0.01,0.01 0.01,0 0,0.01 0.01,0.01 0.01,0l0 0c0,0 0.01,0 0.01,0l0 -0.01c-0.03,0 -0.05,0 -0.08,0z"/>
     <line class="fil4 str7" x1="1.56" y1="0.88" x2="1.56" y2= "0.89" />
     <line class="fil4 str7" x1="1.57" y1="0.88" x2="1.57" y2= "0.89" />
     <line class="fil4 str7" x1="1.58" y1="0.88" x2="1.58" y2= "0.89" />
     <line class="fil4 str7" x1="1.52" y1="0.88" x2="1.52" y2= "0.89" />
     <line class="fil4 str7" x1="1.53" y1="0.88" x2="1.53" y2= "0.89" />
     <line class="fil4 str7" x1="1.53" y1="0.88" x2="1.53" y2= "0.89" />
     <line class="fil4 str7" x1="1.55" y1="0.88" x2="1.55" y2= "0.89" />
     <path class="fil4 str8" d="M1.52 0.92l-0.04 -0.04c0,0 0.01,-0.01 0.02,-0.01 0.03,0.01 0.06,0.01 0.1,0 0.01,0.01 0.01,0.01 0.01,0.02l-0.03 0.03c-0.02,0.02 -0.04,0.02 -0.06,0z"/>
     <polyline class="fil4 str2" points="1.5,0.98 1.52,0.97 1.54,0.96 1.57,0.96 1.6,0.98 "/>
     <path class="fil4 str9" d="M1.36 0.71c0,-0.01 -0.01,-0.04 -0.01,-0.06 0.01,-0.03 0.01,-0.01 0.02,-0.01 0,0.02 0,0.03 0,0.04"/>
     <path class="fil4 str9" d="M1.72 0.68c0,-0.01 0.01,-0.02 0.01,-0.02 0.01,0 0.02,0.01 0.02,0.02 -0.01,0.03 -0.01,0.04 -0.02,0.05"/>
     <path class="fil4 str8" d="M1.59 0.71c0,0.01 0.01,0.01 0.01,0.01 0.02,0.01 0.03,0.02 0.06,0 0.01,-0.01 0.01,-0.01 0.02,-0.01"/>
     <path class="fil4 str8" d="M1.51 0.71c-0.01,0.01 -0.01,0.01 -0.02,0.01 -0.01,0.01 -0.02,0.02 -0.05,0 -0.01,-0.01 -0.01,-0.01 -0.02,-0.01"/>
     <path class="fil4 str8" d="M1.42 0.71c0.01,0 0.01,0 0.02,0 0.02,-0.03 0.04,-0.03 0.05,-0.01 0.01,0 0.01,0.01 0.02,0.01"/>
     <path class="fil4 str8" d="M1.68 0.71c0,0 -0.01,0 -0.01,0 -0.03,-0.03 -0.05,-0.03 -0.07,-0.01 0,0 -0.01,0.01 -0.01,0.01"/>
     <path class="fil8 str2" d="M1.6 0.89c-0.04,0.04 -0.08,0.03 -0.11,-0.01 0.03,0.07 0.08,0.08 0.11,0.01z"/>
     <path class="fil9 str2" d="M1.51 0.88c0,0 -0.02,0 -0.02,0 0,0 0,0 0,0 0.01,0.01 0.02,0.02 0.02,0.03l0 -0.03z"/>
     <path class="fil9 str2" d="M1.59 0.88c0,-0.01 0.02,0 0.02,0 0,0.01 -0.01,0.02 -0.02,0.02l0 -0.02z"/>
     <path class="fil0" d="M1.54 0.92c-0.01,0 -0.02,-0.01 -0.02,-0.01 0,-0.01 0,0 0,0 0.01,-0.01 0.01,0 0.01,0 0.01,-0.01 0.02,0 0.02,0 0,0 -0.01,-0.01 0.01,0 0,0 0,0 0.01,0 0,0 0,0 0.01,0 -0.01,0 -0.01,0.01 -0.02,0.01 -0.01,0 -0.02,0 -0.02,0z"/>
     <path class="fil4 str10" d="M1.52 0.91c0,0 0,0 0,0 0.01,0 0.01,0 0.01,0 0.01,0 0.01,0 0.02,0 0,0 0.01,0 0.01,0 0,0 0.01,0 0.01,0 0,0 0.01,0 0.01,0"/>
     <line class="fil4 str6" x1="1.52" y1="0.91" x2="1.52" y2= "0.91" />
     <line class="fil4 str6" x1="1.53" y1="0.91" x2="1.53" y2= "0.92" />
     <line class="fil4 str6" x1="1.55" y1="0.91" x2="1.55" y2= "0.92" />
     <line class="fil4 str6" x1="1.56" y1="0.91" x2="1.56" y2= "0.92" />
     <line class="fil4 str6" x1="1.57" y1="0.91" x2="1.57" y2= "0.91" />
     <path class="fil8 str11" d="M1.54 0.86c0,0 -0.01,0 -0.01,0 -0.01,0.01 -0.02,0.01 -0.04,0.01 0,0 -0.01,0.01 0,0.01 0,0 0.01,0 0.02,0 0.02,0.01 0.05,0.01 0.08,0 0,0 0.01,0 0.02,0 0,0 0,0 -0.01,0 -0.01,-0.01 -0.03,-0.01 -0.04,-0.02 0,0 0,0 -0.01,0 0,0 -0.01,0 -0.01,0z"/>
     <path class="fil10 str12" d="M1.44 0.99c0.06,0.19 0.17,0.2 0.22,0 -0.01,-0.02 -0.01,-0.04 -0.01,-0.06 -0.07,0.17 -0.11,0.19 -0.21,0.01l0 0.05z"/>
     <ellipse class="fil11 str13" cx="1.69" cy="1.3" rx="0.06" ry="0.08"/>
     <line class="fil4 str14" x1="1.64" y1="1.05" x2="1.9" y2= "1.2" />
     <line class="fil4 str14" x1="1.46" y1="1.05" x2="1.2" y2= "1.2" />
     <line class="fil4 str15" x1="1.68" y1="1.22" x2="1.63" y2= "1.28" />
     <line class="fil4 str16" x1="1.7" y1="1.22" x2="1.63" y2= "1.31" />
     <line class="fil4 str15" x1="1.73" y1="1.24" x2="1.64" y2= "1.34" />
     <line class="fil4 str16" x1="1.74" y1="1.25" x2="1.66" y2= "1.36" />
     <line class="fil4 str15" x1="1.75" y1="1.29" x2="1.68" y2= "1.37" />
     <line class="fil4 str16" x1="1.75" y1="1.32" x2="1.71" y2= "1.37" />
     <line class="fil4 str17" x1="1.19" y1="1.44" x2="1.92" y2= "1.44" />
    </g>
    <g>
     <path class="fil1 str1" d="M1.05 1.51l-0.7 0.01c-0.02,0 -0.03,-0.02 -0.03,-0.05 0.01,-0.09 0.01,-0.16 0.02,-0.25 0,-0.02 -0.01,-0.06 0.02,-0.08 0.1,-0.05 0.23,-0.08 0.24,-0.14l0 -0.05c0.07,0.22 0.15,0.2 0.19,-0.01 0,0.03 0.01,0.08 0.04,0.1l0.22 0.12c0.01,0.01 0.02,0.02 0.02,0.04 0,0.09 0.01,0.18 0.02,0.27 0,0.03 -0.02,0.05 -0.04,0.04z"/>
     <path class="fil2 str2" d="M0.6 1.01c0.02,0.06 0.05,0.09 0.1,0.11 0.05,-0.01 0.09,-0.09 0.09,-0.11l0 -0.07c-0.02,0.02 -0.04,0.05 -0.06,0.08 -0.01,0.01 -0.05,0.01 -0.06,0l-0.07 -0.08 0 0.07z"/>
     <path class="fil2 str2" d="M0.88 0.65c-0.01,0.01 -0.01,0.02 -0.02,0.02l0.01 -0.02 -0.05 -0.04 0 -0.1 -0.07 0 -0.05 0.02 -0.06 -0.02 -0.07 0 -0.01 0.08 -0.03 0.06c-0.01,-0.01 -0.01,-0.02 -0.01,-0.03 -0.01,0 -0.01,0 -0.02,0 0,0 0,0.01 -0.01,0.02 0,0.01 0,0.03 0,0.04l0.01 0.05c0,0 0.01,0.01 0.01,0.01 0.01,0 0.01,0 0.02,-0.01 0,0.03 0,0.07 0.01,0.1 0.01,0.04 0.03,0.08 0.05,0.11 0.03,0.03 0.05,0.05 0.07,0.08 0.02,0.02 0.05,0.02 0.07,0 0.03,-0.04 0.06,-0.07 0.09,-0.11 0.01,-0.02 0.02,-0.05 0.03,-0.07 0,-0.03 0.01,-0.06 0.01,-0.09 0,0.01 0.01,0.01 0.01,0.01 0,0 0.01,0 0.01,-0.01 0.01,-0.02 0.02,-0.05 0.02,-0.07 0,-0.01 0,-0.02 -0.01,-0.02 0,-0.01 -0.01,-0.01 -0.01,-0.01z"/>
     <path class="fil3" d="M0.77 0.69c-0.01,0 -0.01,0.01 -0.01,0.02 0,0.01 0.01,0.02 0.02,0.02 0.02,-0.01 0.02,-0.05 -0.01,-0.04z"/>
     <path class="fil3" d="M0.62 0.69c-0.03,0 -0.02,0.04 0,0.04 0.01,0 0.02,-0.01 0.02,-0.03 0,-0.01 -0.01,-0.02 -0.02,-0.01z"/>
     <line class="fil4 str3" x1="0.58" y1="0.63" x2="0.67" y2= "0.64" />
     <path class="fil5 str4" d="M0.56 0.59l-0.03 0.06c-0.01,-0.02 -0.01,-0.02 -0.01,-0.04 -0.01,-0.04 -0.01,-0.1 0,-0.15 0.01,-0.08 0.04,-0.11 0.08,-0.11 0.07,-0.02 0.13,-0.02 0.19,0 0.04,0.02 0.07,0.06 0.08,0.11 0.02,0.07 0.01,0.12 0,0.19 -0.02,-0.01 -0.03,-0.03 -0.05,-0.04 -0.01,-0.04 -0.01,-0.07 0,-0.1 -0.03,0.01 -0.04,0.01 -0.07,0 -0.03,0.03 -0.08,0.03 -0.11,0 -0.02,0.01 -0.05,0.01 -0.07,0 0,0.03 0,0.06 -0.01,0.08z"/>
     <line class="fil4 str3" x1="0.81" y1="0.63" x2="0.72" y2= "0.64" />
     <path class="fil6" d="M0.77 0.68c0,0 0.01,-0.01 0.03,-0.01 0.01,0 0.02,0.01 0.03,0.02 0,0 0,0 0,0.01l-0.01 0c-0.01,-0.01 -0.03,-0.02 -0.05,-0.02z"/>
     <path class="fil6" d="M0.63 0.68c0.01,0 -0.01,-0.01 -0.03,-0.01 -0.01,0 -0.02,0.01 -0.02,0.02 0,0 -0.01,0 0,0.01l0.01 0c0.01,-0.01 0.02,-0.02 0.04,-0.02z"/>
     <path class="fil4 str5" d="M0.73 0.66l-0.01 0.02 0 0.03 -0.01 0.05 0.01 0.02 0.01 0.03c0,0.01 0,0.01 0,0.01l-0.03 0.03c0,0 -0.01,0 -0.01,0l-0.03 -0.03 0 -0.01 0.01 -0.03 0 -0.02 0 -0.05 -0.01 -0.03 -0.02 -0.02"/>
     <path class="fil7" d="M0.75 0.88l-0.11 0c0,0 0,0 0,0.01l0.03 0.02c0,0.01 0.01,0.01 0.02,0.01 0.02,0 0.03,0 0.04,-0.01l0.02 -0.02c0,-0.01 0,0 0,-0.01z"/>
     <path class="fil0 str6" d="M0.66 0.88l0 0.01c0,0 0,0 0.01,0 0,0.01 0,0.01 0,0 0.01,0.01 0.01,0.01 0.01,0 0.01,0.01 0.01,0.01 0.02,0 0,0.01 0.01,0.01 0.01,0 0,0.01 0.01,0.01 0.01,0 0,0.01 0.01,0.01 0.01,0l0 0c0,0 0.01,0 0.01,0l0 -0.01c-0.03,0 -0.05,0 -0.08,0z"/>
     <line class="fil4 str7" x1="0.71" y1="0.88" x2="0.71" y2= "0.89" />
     <line class="fil4 str7" x1="0.72" y1="0.88" x2="0.72" y2= "0.89" />
     <line class="fil4 str7" x1="0.73" y1="0.88" x2="0.73" y2= "0.89" />
     <line class="fil4 str7" x1="0.67" y1="0.88" x2="0.67" y2= "0.89" />
     <line class="fil4 str7" x1="0.67" y1="0.88" x2="0.67" y2= "0.89" />
     <line class="fil4 str7" x1="0.68" y1="0.88" x2="0.68" y2= "0.89" />
     <line class="fil4 str7" x1="0.7" y1="0.88" x2="0.7" y2= "0.89" />
     <path class="fil4 str8" d="M0.67 0.92l-0.04 -0.04c0,0 0.01,-0.01 0.02,-0.01 0.03,0.01 0.06,0.01 0.1,0 0.01,0.01 0.01,0.01 0.01,0.02l-0.03 0.03c-0.02,0.02 -0.04,0.02 -0.06,0z"/>
     <polyline class="fil4 str2" points="0.65,0.98 0.67,0.97 0.69,0.96 0.72,0.96 0.75,0.98 "/>
     <path class="fil4 str9" d="M0.51 0.71c0,-0.01 -0.01,-0.04 -0.01,-0.06 0.01,-0.03 0.01,-0.01 0.01,-0.01 0.01,0.02 0.01,0.03 0,0.04"/>
     <path class="fil4 str9" d="M0.87 0.68c0,-0.01 0.01,-0.02 0.01,-0.02 0.01,0 0.02,0.01 0.02,0.02 -0.01,0.03 -0.01,0.04 -0.02,0.05"/>
     <path class="fil4 str8" d="M0.74 0.71c0,0.01 0.01,0.01 0.01,0.01 0.02,0.01 0.03,0.02 0.06,0 0.01,-0.01 0.01,-0.01 0.02,-0.01"/>
     <path class="fil4 str8" d="M0.66 0.71c-0.01,0.01 -0.01,0.01 -0.02,0.01 -0.01,0.01 -0.02,0.02 -0.05,0 -0.01,-0.01 -0.01,-0.01 -0.02,-0.01"/>
     <path class="fil4 str8" d="M0.57 0.71c0.01,0 0.01,0 0.02,0 0.02,-0.03 0.04,-0.03 0.05,-0.01 0.01,0 0.01,0.01 0.02,0.01"/>
     <path class="fil4 str8" d="M0.83 0.71c0,0 -0.01,0 -0.01,0 -0.03,-0.03 -0.05,-0.03 -0.07,-0.01 0,0 -0.01,0.01 -0.01,0.01"/>
     <path class="fil8 str2" d="M0.75 0.89c-0.04,0.04 -0.08,0.03 -0.11,-0.01 0.03,0.07 0.08,0.08 0.11,0.01z"/>
     <path class="fil9 str2" d="M0.66 0.88c0,0 -0.02,0 -0.02,0 -0.01,0 0,0 0,0 0,0.01 0.01,0.02 0.02,0.03l0 -0.03z"/>
     <path class="fil9 str2" d="M0.74 0.88c0,-0.01 0.02,0 0.02,0 0,0.01 -0.01,0.02 -0.02,0.02l0 -0.02z"/>
     <path class="fil0" d="M0.69 0.92c-0.01,0 -0.02,-0.01 -0.02,-0.01 0,-0.01 0,0 0,0 0.01,-0.01 0.01,0 0.01,0 0.01,-0.01 0.02,0 0.02,0 0,0 -0.01,-0.01 0.01,0 0,0 0,0 0.01,0 0,0 0,0 0.01,0 -0.01,0 -0.01,0.01 -0.02,0.01 -0.01,0 -0.02,0 -0.02,0z"/>
     <path class="fil4 str10" d="M0.66 0.91c0.01,0 0.01,0 0.01,0 0.01,0 0.01,0 0.01,0 0.01,0 0.01,0 0.02,0 0,0 0.01,0 0.01,0 0,0 0.01,0 0.01,0 0,0 0.01,0 0.01,0"/>
     <line class="fil4 str6" x1="0.67" y1="0.91" x2="0.67" y2= "0.91" />
     <line class="fil4 str6" x1="0.68" y1="0.91" x2="0.68" y2= "0.92" />
     <line class="fil4 str6" x1="0.7" y1="0.91" x2="0.7" y2= "0.92" />
     <line class="fil4 str6" x1="0.71" y1="0.91" x2="0.71" y2= "0.92" />
     <line class="fil4 str6" x1="0.72" y1="0.91" x2="0.72" y2= "0.91" />
     <path class="fil8 str11" d="M0.69 0.86c0,0 -0.01,0 -0.01,0 -0.01,0.01 -0.02,0.01 -0.04,0.01 0,0 -0.01,0.01 0,0.01 0,0 0.01,0 0.02,0 0.02,0.01 0.05,0.01 0.08,0 0,0 0.01,0 0.02,0 0,0 0,0 -0.01,0 -0.01,-0.01 -0.03,-0.01 -0.04,-0.02 0,0 0,0 -0.01,0 0,0 -0.01,0 -0.01,0z"/>
     <path class="fil10 str12" d="M0.59 0.99c0.06,0.19 0.17,0.2 0.21,0 0,-0.02 0,-0.04 0,-0.06 -0.07,0.17 -0.11,0.19 -0.21,0.01l0 0.05z"/>
     <ellipse class="fil11 str13" cx="0.84" cy="1.3" rx="0.06" ry="0.08"/>
     <line class="fil4 str14" x1="0.79" y1="1.05" x2="1.05" y2= "1.2" />
     <line class="fil4 str14" x1="0.61" y1="1.05" x2="0.35" y2= "1.2" />
     <line class="fil4 str15" x1="0.83" y1="1.22" x2="0.78" y2= "1.28" />
     <line class="fil4 str16" x1="0.85" y1="1.22" x2="0.78" y2= "1.31" />
     <line class="fil4 str15" x1="0.88" y1="1.24" x2="0.79" y2= "1.34" />
     <line class="fil4 str16" x1="0.89" y1="1.25" x2="0.81" y2= "1.36" />
     <line class="fil4 str15" x1="0.9" y1="1.29" x2="0.83" y2= "1.37" />
     <line class="fil4 str16" x1="0.9" y1="1.32" x2="0.86" y2= "1.37" />
     <line class="fil4 str17" x1="0.34" y1="1.44" x2="1.07" y2= "1.44" />
    </g>
    <g>
     <path class="fil1 str1" d="M1.49 1.99l-0.7 0c-0.02,0 -0.03,-0.02 -0.03,-0.05 0,-0.09 0.01,-0.15 0.01,-0.24 0.01,-0.03 0,-0.07 0.03,-0.08 0.1,-0.05 0.23,-0.08 0.23,-0.14l0.01 -0.05c0.07,0.22 0.15,0.19 0.19,-0.02 0,0.04 0,0.09 0.04,0.11l0.22 0.12c0.01,0.01 0.01,0.02 0.02,0.04 0,0.09 0.01,0.18 0.02,0.27 0,0.03 -0.02,0.04 -0.04,0.04z"/>
     <path class="fil2 str2" d="M1.04 1.49c0.02,0.05 0.05,0.09 0.1,0.1 0.04,0 0.09,-0.08 0.09,-0.1l0 -0.07c-0.02,0.02 -0.04,0.05 -0.06,0.08 -0.02,0.01 -0.05,0.01 -0.07,0l-0.07 -0.08 0.01 0.07z"/>
     <path class="fil2 str2" d="M1.32 1.13c-0.01,0 -0.01,0.01 -0.02,0.02l0.01 -0.02 -0.05 -0.05 0 -0.09 -0.07 0 -0.06 0.02 -0.05 -0.02 -0.08 0 0 0.08 -0.03 0.05c-0.01,0 -0.01,-0.01 -0.02,-0.02 0,-0.01 -0.01,0 -0.01,0 0,0 -0.01,0.01 -0.01,0.02 0,0.01 0,0.02 0,0.04l0.01 0.04c0,0.01 0,0.02 0.01,0.02 0,0 0.01,-0.01 0.01,-0.02 0.01,0.04 0.01,0.07 0.02,0.1 0.01,0.05 0.03,0.08 0.05,0.12 0.02,0.03 0.05,0.05 0.07,0.07 0.02,0.03 0.04,0.03 0.06,0.01 0.04,-0.04 0.07,-0.08 0.1,-0.11 0.01,-0.03 0.02,-0.05 0.03,-0.07 0,-0.03 0.01,-0.06 0.01,-0.09 0,0 0,0.01 0.01,0.01 0,0 0.01,-0.01 0.01,-0.01 0.01,-0.03 0.02,-0.05 0.02,-0.07 0,-0.01 0,-0.02 -0.01,-0.02 0,-0.01 -0.01,-0.01 -0.01,-0.01z"/>
     <path class="fil3" d="M1.21 1.16c-0.01,0.01 -0.02,0.01 -0.01,0.03 0,0.01 0.01,0.02 0.02,0.02 0.02,-0.01 0.02,-0.05 -0.01,-0.05z"/>
     <path class="fil3" d="M1.05 1.16c-0.02,0.01 -0.01,0.05 0.01,0.05 0.01,-0.01 0.02,-0.02 0.02,-0.03 -0.01,-0.01 -0.01,-0.02 -0.03,-0.02z"/>
     <line class="fil4 str3" x1="1.02" y1="1.11" x2="1.11" y2= "1.12" />
     <path class="fil5 str4" d="M1 1.07l-0.04 0.06c0,-0.02 0,-0.02 0,-0.04 -0.01,-0.04 -0.01,-0.1 -0.01,-0.15 0.01,-0.08 0.05,-0.11 0.09,-0.12 0.07,-0.01 0.13,-0.01 0.19,0 0.04,0.02 0.07,0.07 0.08,0.11 0.01,0.08 0,0.12 0,0.2 -0.02,-0.02 -0.04,-0.03 -0.05,-0.05 -0.01,-0.03 -0.01,-0.06 0,-0.09 -0.03,0.01 -0.04,0.01 -0.07,0 -0.03,0.03 -0.08,0.03 -0.12,0 -0.02,0.01 -0.04,0.01 -0.07,0 0.01,0.03 0.01,0.05 0,0.08z"/>
     <line class="fil4 str3" x1="1.25" y1="1.11" x2="1.16" y2= "1.12" />
     <path class="fil6" d="M1.21 1.16c-0.01,-0.01 0.01,-0.02 0.03,-0.01 0.01,0 0.02,0 0.02,0.01 0,0.01 0.01,0.01 0,0.01l0 0.01c-0.02,-0.01 -0.03,-0.02 -0.05,-0.02z"/>
     <path class="fil6" d="M1.07 1.16c0.01,-0.01 -0.01,-0.02 -0.03,-0.01 -0.01,0 -0.02,0 -0.02,0.01 -0.01,0.01 -0.01,0.01 -0.01,0.01l0.01 0.01c0.02,-0.01 0.03,-0.02 0.05,-0.02z"/>
     <path class="fil4 str5" d="M1.17 1.14l-0.01 0.01 -0.01 0.03 0 0.05 0 0.03 0.02 0.03c0,0.01 0,0.01 0,0.01l-0.03 0.02c0,0.01 -0.01,0.01 -0.01,0l-0.03 -0.02 0 -0.01 0.01 -0.03 0 -0.03 -0.01 -0.04 0 -0.04 -0.02 -0.01"/>
     <path class="fil7" d="M1.19 1.36l-0.11 0c0,0 0,0 0,0l0.02 0.03c0.01,0.01 0.02,0.01 0.03,0.01 0.01,0 0.02,0 0.03,-0.01l0.03 -0.02c0,-0.01 0,-0.01 0,-0.01z"/>
     <path class="fil0 str6" d="M1.1 1.35l0 0.02c0,0 0,0 0,0 0.01,0 0.01,0 0.01,0 0.01,0 0.01,0 0.01,0 0,0 0.01,0 0.01,0 0.01,0 0.01,0 0.02,0 0,0 0,0 0.01,0 0,0 0,0 0.01,0l0 0c0,0 0,0 0.01,0l0 -0.02c-0.03,0.01 -0.06,0.01 -0.08,0z"/>
     <line class="fil4 str7" x1="1.15" y1="1.36" x2="1.15" y2= "1.37" />
     <line class="fil4 str7" x1="1.16" y1="1.36" x2="1.16" y2= "1.37" />
     <line class="fil4 str7" x1="1.17" y1="1.36" x2="1.17" y2= "1.37" />
     <line class="fil4 str7" x1="1.1" y1="1.36" x2="1.1" y2= "1.37" />
     <line class="fil4 str7" x1="1.11" y1="1.36" x2="1.11" y2= "1.37" />
     <line class="fil4 str7" x1="1.12" y1="1.36" x2="1.12" y2= "1.37" />
     <line class="fil4 str7" x1="1.13" y1="1.36" x2="1.13" y2= "1.37" />
     <path class="fil4 str8" d="M1.1 1.4l-0.03 -0.04c0,-0.01 0.01,-0.01 0.01,-0.01 0.04,0.01 0.07,0.01 0.11,0 0.01,0 0.01,0.01 0,0.02l-0.02 0.03c-0.02,0.02 -0.04,0.02 -0.07,0z"/>
     <polyline class="fil4 str2" points="1.09,1.45 1.11,1.44 1.13,1.43 1.16,1.44 1.19,1.46 "/>
     <path class="fil4 str9" d="M0.95 1.19c-0.01,-0.02 -0.01,-0.04 -0.01,-0.07 0.01,-0.02 0.01,-0.01 0.01,0 0.01,0.02 0.01,0.03 0,0.04"/>
     <path class="fil4 str9" d="M1.31 1.16c0,-0.01 0.01,-0.02 0.01,-0.02 0.01,0 0.02,0.01 0.02,0.02 -0.01,0.03 -0.02,0.04 -0.02,0.04"/>
     <path class="fil4 str8" d="M1.18 1.19c0,0 0.01,0.01 0.01,0.01 0.01,0.01 0.02,0.02 0.05,-0.01 0.02,-0.01 0.02,0 0.03,0"/>
     <path class="fil4 str8" d="M1.09 1.19c0,0 -0.01,0.01 -0.01,0.01 -0.01,0.01 -0.02,0.02 -0.05,-0.01 -0.01,-0.01 -0.01,0 -0.02,0"/>
     <path class="fil4 str8" d="M1.01 1.19c0.01,0 0.01,0 0.01,-0.01 0.03,-0.02 0.05,-0.02 0.06,-0.01 0,0.01 0.01,0.01 0.01,0.01"/>
     <path class="fil4 str8" d="M1.27 1.19c-0.01,0 -0.01,0 -0.02,-0.01 -0.02,-0.02 -0.04,-0.02 -0.06,-0.01 0,0.01 -0.01,0.01 -0.01,0.01"/>
     <path class="fil8 str2" d="M1.19 1.37c-0.05,0.04 -0.08,0.03 -0.12,-0.01 0.03,0.06 0.08,0.07 0.12,0.01z"/>
     <path class="fil9 str2" d="M1.1 1.36c0,-0.01 -0.02,-0.01 -0.03,0 0,0 0.01,0 0.01,0 0,0.01 0.01,0.02 0.02,0.02l0 -0.02z"/>
     <path class="fil9 str2" d="M1.18 1.36c0,-0.01 0.01,-0.01 0.02,0 0,0 -0.01,0.01 -0.02,0.02l0 -0.02z"/>
     <path class="fil0" d="M1.12 1.39c0,0 -0.01,0 -0.02,0 0.01,-0.01 0.01,0 0.01,0 0.01,-0.01 0.01,0 0.01,0 0.01,-0.01 0.01,0 0.01,0 0.01,0 0,-0.01 0.02,0 0,0 0,-0.01 0.01,0 0,0 -0.01,-0.01 0.01,0 -0.01,0 -0.02,0 -0.02,0.01 -0.01,0 -0.02,0 -0.03,-0.01z"/>
     <path class="fil4 str10" d="M1.1 1.39c0.01,-0.01 0.01,-0.01 0.01,0 0,-0.01 0.01,-0.01 0.01,0 0,-0.01 0.01,-0.01 0.01,0 0.01,-0.01 0.01,-0.01 0.02,0 0,-0.01 0,-0.01 0.01,0 0,-0.01 0.01,-0.01 0.01,0"/>
     <line class="fil4 str6" x1="1.11" y1="1.39" x2="1.11" y2= "1.39" />
     <line class="fil4 str6" x1="1.12" y1="1.39" x2="1.12" y2= "1.39" />
     <line class="fil4 str6" x1="1.13" y1="1.39" x2="1.13" y2= "1.4" />
     <line class="fil4 str6" x1="1.15" y1="1.39" x2="1.15" y2= "1.4" />
     <line class="fil4 str6" x1="1.16" y1="1.39" x2="1.16" y2= "1.39" />
     <path class="fil8 str11" d="M1.13 1.34c0,0 -0.01,0 -0.01,0 -0.01,0.01 -0.03,0.01 -0.04,0.01 0,0 -0.01,0.01 0,0.01 0,0 0.01,0 0.02,0 0.02,0.01 0.05,0.01 0.08,0 0,-0.01 0.01,0 0.01,0 0.01,0 0.01,-0.01 0,-0.01 -0.01,0 -0.03,0 -0.04,-0.01 0,0 0,0 -0.01,0 0,0 -0.01,0 -0.01,0z"/>
     <path class="fil10 str12" d="M1.03 1.47c0.05,0.18 0.17,0.19 0.21,0 0,-0.02 0,-0.04 0,-0.06 -0.07,0.17 -0.11,0.19 -0.21,0.01l0 0.05z"/>
     <ellipse class="fil11 str13" cx="1.28" cy="1.77" rx="0.06" ry="0.08"/>
     <line class="fil4 str14" x1="1.22" y1="1.53" x2="1.49" y2= "1.67" />
     <line class="fil4 str14" x1="1.05" y1="1.53" x2="0.79" y2= "1.67" />
     <line class="fil4 str15" x1="1.27" y1="1.7" x2="1.22" y2= "1.76" />
     <line class="fil4 str16" x1="1.29" y1="1.7" x2="1.22" y2= "1.79" />
     <line class="fil4 str15" x1="1.31" y1="1.71" x2="1.23" y2= "1.82" />
     <line class="fil4 str16" x1="1.33" y1="1.73" x2="1.24" y2= "1.84" />
     <line class="fil4 str15" x1="1.34" y1="1.76" x2="1.27" y2= "1.85" />
     <line class="fil4 str16" x1="1.34" y1="1.79" x2="1.29" y2= "1.85" />
     <line class="fil4 str17" x1="0.77" y1="1.92" x2="1.51" y2= "1.92" />
    </g>
   </g>
  </g>
 </g>
</svg>
