<?xml version="1.0" encoding="UTF-8"?>
<!DOCTYPE svg PUBLIC "-//W3C//DTD SVG 1.1//EN" "http://www.w3.org/Graphics/SVG/1.1/DTD/svg11.dtd">
<!-- Creator: CorelDRAW 2021 (64 Bit) -->
<svg xmlns="http://www.w3.org/2000/svg" xml:space="preserve" width="301px" height="300px" version="1.1" style="shape-rendering:geometricPrecision; text-rendering:geometricPrecision; image-rendering:optimizeQuality; fill-rule:evenodd; clip-rule:evenodd"
viewBox="0 0 3.33 3.31"
 xmlns:xlink="http://www.w3.org/1999/xlink"
 xmlns:xodm="http://www.corel.com/coreldraw/odm/2003">
 <defs>
  <style type="text/css">
   <![CDATA[
    .str7 {stroke:#52331E;stroke-width:0.01;stroke-miterlimit:22.9256}
    .str6 {stroke:#9F740B;stroke-width:0.01;stroke-miterlimit:22.9256}
    .str1 {stroke:black;stroke-width:0.09;stroke-miterlimit:22.9256}
    .str0 {stroke:black;stroke-width:0.06;stroke-miterlimit:22.9256}
    .str2 {stroke:#86B0C0;stroke-width:0.06;stroke-miterlimit:22.9256}
    .str4 {stroke:#E2A610;stroke-width:0.06;stroke-miterlimit:22.9256}
    .str8 {stroke:#9F740E;stroke-width:0.02;stroke-miterlimit:22.9256}
    .str5 {stroke:#FDD734;stroke-width:0.02;stroke-miterlimit:22.9256}
    .str3 {stroke:#B9E4EA;stroke-width:0.01;stroke-miterlimit:22.9256}
    .fil5 {fill:none}
    .fil12 {fill:#52331E}
    .fil7 {fill:#86B0C0}
    .fil2 {fill:#8A8A8A}
    .fil11 {fill:#9F740B}
    .fil13 {fill:#9F7507}
    .fil1 {fill:#B7B3B5}
    .fil8 {fill:#B9E4EA}
    .fil9 {fill:#E2A610}
    .fil4 {fill:#EAFF00}
    .fil10 {fill:#FDD734}
    .fil0 {fill:#FDFDFD}
    .fil3 {fill:red}
    .fil6 {fill:white}
   ]]>
  </style>
 </defs>
 <g id="Camada_x0020_1">
  <metadata id="CorelCorpID_0Corel-Layer"/>
  <g id="_1853514417296">
   <path class="fil0" d="M0.71 2.13c0.14,-0.01 0.29,-0.03 0.43,-0.04 0.24,-0.03 0.17,-0.05 0.3,0.11l0.41 0.51c-0.03,0.03 -0.09,0.08 -0.13,0.1 -0.06,-0.06 -0.14,-0.17 -0.2,-0.24 -0.07,-0.09 -0.13,-0.16 -0.2,-0.25 -0.05,-0.06 -0.04,-0.09 -0.14,-0.08l-0.29 0.04c-0.08,0.01 -0.11,-0.04 -0.18,-0.15zm0.63 -0.22c-0.02,0.03 -0.02,0.03 -0.06,0.03l-0.66 0.09c-0.02,-0.03 -0.05,-0.07 -0.07,-0.09 -0.02,-0.01 -0.01,0 -0.02,-0.03 -0.01,0 -0.01,-0.01 -0.01,-0.01 0,-0.02 0.02,-0.02 0.05,-0.02l0.54 -0.07c-0.03,-0.06 -0.08,-0.12 -0.12,-0.2 -0.25,-0.53 0.27,-1.18 0.9,-1 0.29,0.08 0.51,0.31 0.54,0.66 0.03,0.28 -0.09,0.45 -0.24,0.63 -0.04,0.05 -0.11,0.12 -0.05,0.19 0.04,-0.03 0.08,-0.1 0.13,-0.12l-0.01 0.35 -0.25 0.03c0,0.03 0,0.04 0.02,0.07 0.03,0.03 0.05,0.04 0.07,0.09 -0.05,0.03 -0.08,0.07 -0.14,0.1 -0.02,-0.05 -0.09,-0.12 -0.12,-0.16l-0.39 -0.48 0.22 -0.6 0.09 0.11c0.04,0.05 -0.08,0.27 -0.12,0.41 -0.01,0.05 0.03,0.07 0.06,0.11 0.04,0.05 0.22,0.28 0.26,0.31l0.06 -0.08c-0.03,-0.04 -0.09,-0.08 -0.1,-0.16 -0.01,-0.13 0.1,-0.25 0.17,-0.34 0.28,-0.34 0.16,-0.72 -0.09,-0.88 -0.51,-0.32 -1.16,0.26 -0.75,0.84 0.07,-0.11 0.15,-0.51 0.21,-0.58 0.03,0.03 0.11,0.11 0.1,0.16 -0.03,0.13 -0.2,0.51 -0.22,0.64zm-1.03 -1.6c0,0.15 -0.02,2.62 0,2.7l2.7 0 0.01 -2.7 -2.71 0z"/>
   <path class="fil1" d="M0.31 0.31l2.71 0 -0.01 2.7 -2.7 0c-0.02,-0.08 0,-2.55 0,-2.7zm-0.31 0.03l0 2.71c0,0.13 0.14,0.26 0.28,0.26l2.78 0c0.15,0 0.27,-0.15 0.27,-0.33l0 -2.65c0,-0.17 -0.12,-0.33 -0.27,-0.33l-2.79 0c-0.16,0 -0.27,0.17 -0.27,0.34z"/>
   <path class="fil2" d="M0.55 1.94l-0.03 -0.04 0.05 -0.02c-0.03,0 -0.05,0 -0.05,0.02 0,0 0,0.01 0.01,0.01 0.01,0.03 0,0.02 0.02,0.03z"/>
   <path class="fil2" d="M1.28 1.94c0.04,0 0.04,0 0.06,-0.03l-0.06 0.03z"/>
   <path class="fil2" d="M2.03 2.42c-0.02,-0.03 -0.02,-0.04 -0.02,-0.07l0 0.05c0,0 0.01,0 0.01,0l0.01 0.02z"/>
   <g>
    <g>
     <path class="fil3" d="M0.87 0.72c-0.27,0.13 -0.35,0.28 -0.37,0.55 0.01,0.25 0.13,0.39 0.32,0.49l0.07 1.04c0.12,-0.02 0.2,-0.07 0.22,-0.17l0.01 -0.12 0.07 -0.22 -0.1 -0.2 0.12 -0.2 -0.04 -0.2c0.22,-0.14 0.29,-0.35 0.23,-0.62 -0.09,-0.26 -0.26,-0.39 -0.53,-0.35z"/>
     <path class="fil4 str0" d="M0.48 1.26c0,0.02 0,0.04 0,0.05 0,0.13 0.07,0.26 0.15,0.35 0.03,0.03 0.06,0.06 0.09,0.08 0.06,0.03 0.08,0.02 0.08,0.06 0,0.07 0.01,0.12 0.01,0.2l0.01 0.21c0.01,0.04 0.04,0.59 0.05,0.61 0.02,-0.01 0.04,-0.02 0.07,-0.02 0.09,-0.02 0.17,-0.09 0.2,-0.18 0.02,-0.06 -0.01,-0.11 0.01,-0.17l0.07 -0.18c0,-0.01 0,0 -0.01,-0.01 0,0 0.01,0 0,0 -0.03,-0.05 -0.07,-0.14 -0.1,-0.19 0.04,-0.06 0.11,-0.14 0.12,-0.2 0,-0.02 -0.01,-0.05 -0.01,-0.08 -0.01,-0.03 -0.01,-0.07 -0.02,-0.09 0.08,-0.06 0.11,-0.08 0.17,-0.18 0.04,-0.07 0.07,-0.16 0.07,-0.22 0,-0.07 0,-0.14 -0.02,-0.21 -0.02,-0.07 -0.04,-0.13 -0.09,-0.2 -0.05,-0.07 -0.11,-0.12 -0.18,-0.16 -0.07,-0.03 -0.13,-0.03 -0.19,-0.03l-0.09 0.01c-0.08,0.02 -0.16,0.07 -0.22,0.14 -0.01,0 -0.03,0.02 -0.03,0.03l0 0.01c0.02,0.02 0.03,0.03 0.05,0.05 0.06,-0.05 0.07,-0.1 0.16,-0.14 0.05,-0.03 0.11,-0.04 0.17,-0.04 0.03,0 0.12,0.02 0.16,0.04 0.12,0.08 0.2,0.2 0.23,0.35 0,0.05 0.01,0.13 0,0.18 -0.04,0.16 -0.13,0.27 -0.25,0.34 -0.01,0.01 0,0.03 0,0.05l0.02 0.14c0,0.02 -0.01,0.03 -0.02,0.06l-0.11 0.16c0.03,0.05 0.07,0.12 0.1,0.18 0.01,0.03 0.01,0.01 -0.01,0.09l-0.05 0.14c-0.01,0.03 -0.01,0.03 0,0.05 0,0.01 0.01,0.09 0,0.09 -0.02,0.07 -0.11,0.12 -0.15,0.12 0,-0.02 0,-0.02 0,-0.04 0,-0.07 -0.01,-0.14 -0.01,-0.23 0,-0.02 0,-0.04 -0.01,-0.06l-0.01 -0.33c0,-0.02 0,-0.04 0,-0.06 0,-0.03 0,-0.05 0,-0.07l-0.01 -0.13c0,-0.05 0,-0.09 -0.01,-0.13 -0.02,-0.01 -0.04,-0.01 -0.06,-0.01 -0.01,-0.01 -0.05,-0.03 -0.07,-0.04 -0.1,-0.05 -0.15,-0.16 -0.18,-0.29 0,-0.01 0,-0.04 0,-0.05 -0.01,-0.01 -0.01,-0.03 -0.01,-0.05 -0.01,0 -0.02,0 -0.03,0 -0.01,0 -0.02,0 -0.04,0z"/>
     <line class="fil5 str1" x1="0.94" y1="1.68" x2="0.98" y2= "2.73" />
     <line class="fil5 str1" x1="1.06" y1="1.67" x2="1.08" y2= "2.02" />
     <path class="fil3 str0" d="M0.48 1.03c-0.06,0.09 0.07,0.19 0.13,0.08 0.02,-0.04 0.01,-0.09 -0.03,-0.11 -0.03,-0.02 -0.08,-0.01 -0.1,0.03z"/>
     <ellipse class="fil6 str0" cx="0.88" cy="1.05" rx="0.1" ry="0.11"/>
    </g>
    <g>
     <path class="fil7 str2" d="M1.82 1.03c0,0.18 0,0.2 0,0.38 0.06,0.05 0.13,0.05 0.19,0 0,-0.19 0,-0.23 0.01,-0.43 0.06,-0.34 0.42,-0.34 0.48,0 0,0.08 0,0.36 0,0.44 0.06,0.03 0.11,0.03 0.17,0 0,-0.07 0,-0.32 0,-0.38 -0.01,-0.19 -0.07,-0.35 -0.21,-0.46 -0.14,-0.12 -0.29,-0.12 -0.44,-0.01 -0.13,0.12 -0.19,0.27 -0.2,0.46z"/>
     <path class="fil8 str3" d="M2.03 0.7c0,-0.04 -0.02,-0.05 -0.05,-0.04 -0.1,0.05 -0.14,0.2 -0.13,0.43 0,0.04 0.03,0.04 0.03,0.01 0.03,-0.16 0.07,-0.28 0.12,-0.32 0.02,-0.02 0.03,-0.05 0.03,-0.08z"/>
     <path class="fil9 str4" d="M1.66 2.64c0.01,-0.32 0.01,-0.65 0.01,-0.97 0.4,-0.22 0.79,-0.21 1.15,0 0,0.32 0,0.65 0,0.97 -0.07,0.13 -0.39,0.18 -0.57,0.18 -0.2,0 -0.52,-0.05 -0.59,-0.18z"/>
     <path class="fil10 str5" d="M2.25 1.88c-0.29,0 -0.57,-0.05 -0.58,-0.22 0.01,-0.06 0.37,-0.15 0.58,-0.16 0.21,0 0.57,0.1 0.58,0.16 -0.01,0.18 -0.34,0.22 -0.58,0.22z"/>
     <path class="fil11 str6" d="M2.19 2.39c-0.03,0.07 -0.06,0.15 -0.09,0.22 0,0.02 0,0.04 0.02,0.04 0.04,0 0.15,-0.01 0.23,0 0.02,0 0.03,-0.02 0.02,-0.04 -0.03,-0.07 -0.06,-0.14 -0.09,-0.22 0.05,-0.02 0.08,-0.06 0.07,-0.11 -0.01,-0.08 -0.05,-0.12 -0.12,-0.12 -0.07,0 -0.11,0.06 -0.11,0.12 0,0.05 0.03,0.1 0.07,0.11z"/>
     <path class="fil12 str7" d="M2.2 2.36c-0.02,0.07 -0.04,0.13 -0.06,0.2 -0.01,0.02 0,0.03 0.01,0.03 0.03,0 0.11,0 0.17,0 0.01,0 0.02,-0.01 0.01,-0.03 -0.02,-0.07 -0.04,-0.13 -0.06,-0.2 0.03,-0.02 0.05,-0.05 0.05,-0.1 -0.01,-0.07 -0.04,-0.1 -0.09,-0.1 -0.05,0 -0.08,0.05 -0.08,0.1 0,0.04 0.02,0.09 0.05,0.1z"/>
     <ellipse class="fil13 str8" cx="2.57" cy="1.65" rx="0.11" ry="0.06"/>
     <ellipse class="fil13 str8" cx="1.89" cy="1.65" rx="0.11" ry="0.06"/>
    </g>
   </g>
  </g>
 </g>
</svg>
