<?xml version="1.0" encoding="UTF-8"?>
<!DOCTYPE svg PUBLIC "-//W3C//DTD SVG 1.1//EN" "http://www.w3.org/Graphics/SVG/1.1/DTD/svg11.dtd">
<!-- Creator: CorelDRAW 2021 (64 Bit) -->
<svg xmlns="http://www.w3.org/2000/svg" xml:space="preserve" width="400px" height="400px" version="1.1" style="shape-rendering:geometricPrecision; text-rendering:geometricPrecision; image-rendering:optimizeQuality; fill-rule:evenodd; clip-rule:evenodd"
viewBox="0 0 2.26 2.26"
 xmlns:xlink="http://www.w3.org/1999/xlink"
 xmlns:xodm="http://www.corel.com/coreldraw/odm/2003">
 <defs>
  <style type="text/css">
   <![CDATA[
    .str0 {stroke:#C4C4C4;stroke-width:0.17;stroke-miterlimit:22.9256}
    .str1 {stroke:black;stroke-width:0.05;stroke-miterlimit:22.9256}
    .str2 {stroke:black;stroke-width:0.03;stroke-miterlimit:22.9256}
    .fil2 {fill:none}
    .fil1 {fill:#00FF95}
    .fil0 {fill:white}
   ]]>
  </style>
 </defs>
 <g id="Camada_x0020_1">
  <metadata id="CorelCorpID_0Corel-Layer"/>
  <g id="_2070280358864">
   <circle class="fil0 str0" cx="1.13" cy="1.13" r="1.04"/>
   <g>
    <path class="fil1" d="M1.09 0.28c-0.23,0.09 -0.3,0.21 -0.32,0.43 -0.01,0.22 0.08,0.34 0.23,0.43l0.01 0.87c0.1,-0.01 0.17,-0.05 0.19,-0.13l0.01 -0.1 0.07 -0.18 -0.07 -0.17 0.11 -0.16 -0.03 -0.17c0.18,-0.11 0.26,-0.28 0.22,-0.51 -0.06,-0.22 -0.19,-0.33 -0.42,-0.31z"/>
    <line class="fil2 str1" x1="1.09" y1="1.1" x2="1.07" y2= "1.96" />
    <line class="fil2 str1" x1="1.19" y1="1.1" x2="1.18" y2= "1.39" />
    <path class="fil1 str2" d="M0.75 0.71c0,0.01 0,0.03 0,0.04 -0.01,0.1 0.04,0.22 0.1,0.3 0.02,0.02 0.05,0.05 0.08,0.07 0.04,0.03 0.05,0.02 0.05,0.05 0,0.06 0.01,0.11 0,0.17l0.01 0.17c0,0.04 0,0.51 0,0.52 0.02,-0.01 0.04,-0.01 0.06,-0.02 0.07,-0.01 0.15,-0.06 0.17,-0.13 0.02,-0.05 0,-0.1 0.02,-0.15l0.06 -0.14c0,-0.01 0.01,0 0,-0.01 0,0 0,0 0,-0.01 -0.02,-0.04 -0.05,-0.11 -0.07,-0.16 0.03,-0.04 0.09,-0.1 0.1,-0.15 0,-0.03 0,-0.05 0,-0.08 -0.01,-0.02 -0.01,-0.05 -0.01,-0.07 0.06,-0.04 0.09,-0.06 0.14,-0.15 0.04,-0.05 0.06,-0.12 0.07,-0.17 0.01,-0.06 0.01,-0.12 0,-0.18 -0.02,-0.06 -0.03,-0.11 -0.07,-0.17 -0.03,-0.06 -0.08,-0.11 -0.14,-0.14 -0.06,-0.03 -0.1,-0.04 -0.15,-0.04l-0.08 0.01c-0.06,0.01 -0.13,0.05 -0.18,0.1 -0.01,0.01 -0.03,0.02 -0.03,0.03l0 0c0.02,0.03 0.03,0.03 0.04,0.05 0.05,-0.04 0.06,-0.08 0.14,-0.11 0.04,-0.02 0.09,-0.03 0.13,-0.02 0.03,0 0.11,0.01 0.14,0.04 0.09,0.07 0.15,0.17 0.16,0.3 0.01,0.04 0.01,0.11 0,0.15 -0.04,0.13 -0.12,0.22 -0.22,0.27 -0.01,0.01 0,0.03 0,0.04l0.01 0.13c0,0.01 -0.01,0.02 -0.03,0.04l-0.09 0.13c0.03,0.04 0.05,0.1 0.07,0.15 0.01,0.03 0.01,0.01 -0.01,0.08l-0.05 0.12c0,0.02 0,0.01 0,0.03 0,0.01 0,0.08 0,0.08 -0.02,0.06 -0.1,0.09 -0.13,0.09 0,-0.01 0,-0.01 0,-0.03 0,-0.06 0,-0.12 0,-0.19 0,-0.02 0,-0.04 0,-0.05l0 -0.28c0,-0.01 0,-0.04 0.01,-0.05 0,-0.02 0,-0.04 0,-0.06l0 -0.11c0,-0.04 0,-0.07 0,-0.11 -0.02,-0.01 -0.04,-0.01 -0.05,-0.01 -0.01,0 -0.04,-0.03 -0.05,-0.03 -0.08,-0.05 -0.13,-0.15 -0.14,-0.25 0,-0.01 0,-0.03 0,-0.05 0,-0.01 0,-0.02 0,-0.04 -0.01,0 -0.02,0 -0.03,0 -0.01,0 -0.02,0 -0.03,0z"/>
    <path class="fil1 str2" d="M0.78 0.53c-0.04,0.07 0.06,0.16 0.11,0.07 0.01,-0.03 0.01,-0.07 -0.02,-0.09 -0.03,-0.02 -0.06,-0.02 -0.09,0.02z"/>
    <ellipse class="fil0 str2" transform="matrix(0.451547 0.0265047 -0.0310626 0.55439 1.06184 0.50896)" rx="0.18" ry="0.17"/>
   </g>
  </g>
 </g>
</svg>
