<?xml version="1.0" encoding="UTF-8"?>
<!DOCTYPE svg PUBLIC "-//W3C//DTD SVG 1.1//EN" "http://www.w3.org/Graphics/SVG/1.1/DTD/svg11.dtd">
<!-- Creator: CorelDRAW 2021 (64 Bit) -->
<svg xmlns="http://www.w3.org/2000/svg" xml:space="preserve" width="331px" height="331px" version="1.1" style="shape-rendering:geometricPrecision; text-rendering:geometricPrecision; image-rendering:optimizeQuality; fill-rule:evenodd; clip-rule:evenodd"
viewBox="0 0 4.05 4.05"
 xmlns:xlink="http://www.w3.org/1999/xlink"
 xmlns:xodm="http://www.corel.com/coreldraw/odm/2003">
 <defs>
  <style type="text/css">
   <![CDATA[
    .fil2 {fill:black}
    .fil1 {fill:#B8B4B6}
    .fil3 {fill:#FA0303}
    .fil0 {fill:#FEFEFE}
   ]]>
  </style>
 </defs>
 <g id="Camada_x0020_1">
  <metadata id="CorelCorpID_0Corel-Layer"/>
  <path class="fil0" d="M2.36 0.84c0.03,-0.12 0.07,-0.1 0.2,-0.1 0.1,0 0.2,0 0.29,0.02 0.05,0.12 0.01,0.46 0.02,0.62 0,0.06 0.03,0.07 0.05,0.11 0.03,0.03 0.05,0.05 0.07,0.08 0.05,0.06 0.1,0.12 0.15,0.18 0.09,0.12 0.18,0.24 0.28,0.35 0.19,0.23 -0.22,0.18 -0.37,0.18 -0.03,0.26 0.04,1.07 -0.03,1.22 -0.12,0.03 -1.39,0.01 -1.62,0.01 -0.43,0 -0.37,0.07 -0.37,-0.44 -0.01,-0.25 0,-0.58 -0.02,-0.81 -0.12,-0.01 -0.44,0.06 -0.42,-0.1 0.01,-0.06 0.19,-0.24 0.24,-0.29l1.1 -1.27c0.13,-0.18 0.25,0.08 0.43,0.24zm-1.98 2.84l3.27 0 0.03 0 0 -3.31 -0.03 0 -3.28 0 0.01 3.31z"/>
  <path class="fil1" d="M0.37 0.38l0.03 -0.01c0.09,-0.02 3.23,-0.01 3.28,0 0.02,0.11 0.01,3.27 0,3.31 -0.17,0.02 -2.66,0 -3.2,0l-0.07 0c-0.03,-0.01 -0.01,0 -0.03,-0.01l-0.01 -3.29zm-0.37 0.02l0 1.48c0,0.3 0.01,0.56 0.01,0.85 0,0.28 0,0.56 0,0.84 0,0.18 0,0.25 0.08,0.35 0.08,0.08 0.15,0.13 0.3,0.13l3.29 0c0.21,0 0.37,-0.16 0.37,-0.37l0 -3.31c0,-0.2 -0.16,-0.37 -0.35,-0.37l-3.33 0c-0.22,0 -0.37,0.16 -0.37,0.4z"/>
  <path class="fil0" d="M1.85 2.91l0.15 0 0.03 0 0.08 0 0 0.29 -0.21 0.01 -0.05 -0.01 0 -0.29zm-0.17 -0.98c-0.22,-0.02 -0.26,0.01 -0.19,-0.22 0.15,-0.48 0.69,-0.42 0.88,-0.22 0.16,0.17 0.19,0.46 0.04,0.68 -0.03,0.04 -0.08,0.09 -0.11,0.12 -0.18,0.22 -0.2,0.2 -0.21,0.49 -0.06,0.02 -0.16,0.01 -0.22,0 0,-0.23 0.02,-0.37 0.15,-0.5 0.07,-0.09 0.25,-0.23 0.25,-0.39 0.01,-0.18 -0.13,-0.34 -0.31,-0.33 -0.25,0.03 -0.25,0.31 -0.28,0.37zm-0.83 0.15c0.1,0 0.2,-0.01 0.29,0.02 0.05,0.15 0.02,0.98 0.04,1.23 0.09,0.03 1.43,0 1.65,0l0 -0.94c0,-0.33 -0.02,-0.28 0.32,-0.28 -0.04,-0.07 -0.12,-0.15 -0.17,-0.22l-0.27 -0.33c-0.04,-0.06 -0.05,-0.06 -0.05,-0.16l0 -0.47 -0.16 0c0,0.11 0.02,0.15 -0.05,0.22 -0.08,0.02 -0.1,-0.02 -0.14,-0.06l-0.31 -0.31c-0.04,0.02 -0.12,0.12 -0.15,0.16 -0.11,0.14 -0.41,0.44 -0.5,0.56l-0.43 0.5c-0.03,0.03 -0.04,0.05 -0.07,0.08z"/>
  <polygon class="fil2" points="1.85,3.2 1.9,3.21 2.11,3.2 2.11,2.91 2.03,2.91 2,2.91 1.85,2.91 "/>
  <g id="_1853790725120">
   <path class="fil3" d="M0.85 2.08c0.03,-0.03 0.04,-0.05 0.07,-0.08l0.43 -0.5c0.09,-0.12 0.39,-0.42 0.5,-0.56 0.03,-0.04 0.11,-0.14 0.15,-0.16l0.31 0.31c0.04,0.04 0.06,0.08 0.14,0.06 0.07,-0.07 0.05,-0.11 0.05,-0.22l0.16 0 0 0.47c0,0.1 0.01,0.1 0.05,0.16l0.27 0.33c0.05,0.07 0.13,0.15 0.17,0.22 -0.34,0 -0.32,-0.05 -0.32,0.28l0 0.94c-0.22,0 -1.56,0.03 -1.65,0 -0.02,-0.25 0.01,-1.08 -0.04,-1.23 -0.09,-0.03 -0.19,-0.02 -0.29,-0.02zm1.47 -1.24c-0.18,-0.15 -0.29,-0.41 -0.43,-0.23l-1.1 1.26c-0.04,0.06 -0.22,0.24 -0.23,0.29 -0.02,0.16 0.3,0.09 0.42,0.1 0.02,0.24 0.01,0.56 0.01,0.81 0.01,0.51 -0.05,0.44 0.37,0.44 0.23,0 1.5,0.02 1.62,-0.01 0.08,-0.15 0,-0.96 0.03,-1.21 0.15,0 0.56,0.05 0.37,-0.18 -0.09,-0.12 -0.18,-0.24 -0.28,-0.36 -0.05,-0.05 -0.1,-0.11 -0.14,-0.17 -0.03,-0.04 -0.05,-0.05 -0.07,-0.09 -0.03,-0.03 -0.05,-0.05 -0.06,-0.1 -0.01,-0.16 0.03,-0.5 -0.02,-0.62 -0.08,-0.03 -0.19,-0.02 -0.29,-0.02 -0.13,0 -0.17,-0.02 -0.2,0.09z"/>
   <path class="fil2" d="M1.68 1.93c0.03,-0.06 0.03,-0.34 0.28,-0.37 0.18,-0.01 0.32,0.15 0.31,0.33 0,0.16 -0.18,0.3 -0.25,0.39 -0.13,0.13 -0.15,0.27 -0.15,0.5 0.06,0.01 0.16,0.02 0.22,0 0.01,-0.29 0.03,-0.27 0.21,-0.49 0.03,-0.03 0.08,-0.08 0.11,-0.12 0.15,-0.22 0.12,-0.51 -0.04,-0.68 -0.19,-0.2 -0.73,-0.26 -0.88,0.22 -0.07,0.23 -0.03,0.2 0.19,0.22z"/>
  </g>
 </g>
</svg>
