<?xml version="1.0" encoding="UTF-8"?>
<!DOCTYPE svg PUBLIC "-//W3C//DTD SVG 1.1//EN" "http://www.w3.org/Graphics/SVG/1.1/DTD/svg11.dtd">
<!-- Creator: CorelDRAW 2021 (64 Bit) -->
<svg xmlns="http://www.w3.org/2000/svg" xml:space="preserve" width="530px" height="530px" version="1.1" style="shape-rendering:geometricPrecision; text-rendering:geometricPrecision; image-rendering:optimizeQuality; fill-rule:evenodd; clip-rule:evenodd"
viewBox="0 0 5.55 5.55"
 xmlns:xlink="http://www.w3.org/1999/xlink"
 xmlns:xodm="http://www.corel.com/coreldraw/odm/2003">
 <defs>
  <style type="text/css">
   <![CDATA[
    .str0 {stroke:#B8B4B6;stroke-width:0.31;stroke-miterlimit:22.9256}
    .str8 {stroke:black;stroke-width:0.01;stroke-miterlimit:22.9256}
    .str9 {stroke:#6B4646;stroke-width:0.01;stroke-miterlimit:22.9256}
    .str3 {stroke:blue;stroke-width:0.08;stroke-miterlimit:22.9256}
    .str1 {stroke:#006633;stroke-width:0.08;stroke-miterlimit:22.9256}
    .str2 {stroke:red;stroke-width:0.08;stroke-miterlimit:22.9256}
    .str11 {stroke:#6B4646;stroke-width:0.05;stroke-miterlimit:22.9256}
    .str5 {stroke:#00AFEF;stroke-width:0.01;stroke-miterlimit:22.9256}
    .str7 {stroke:black;stroke-width:0.01;stroke-miterlimit:22.9256}
    .str10 {stroke:#6B4646;stroke-width:0.01;stroke-miterlimit:22.9256}
    .str4 {stroke:#FAAC04;stroke-width:0.01;stroke-miterlimit:22.9256}
    .str6 {stroke:yellow;stroke-width:0.01;stroke-miterlimit:22.9256}
    .fil13 {fill:none}
    .fil12 {fill:#D7CC75}
    .fil9 {fill:#FAA954}
    .fil10 {fill:#00AFEF}
    .fil15 {fill:#00A859}
    .fil1 {fill:#33CC66}
    .fil7 {fill:#6699FF}
    .fil5 {fill:#999999}
    .fil8 {fill:#CC9933}
    .fil14 {fill:#CCCC33}
    .fil4 {fill:#CCCCCC}
    .fil2 {fill:#E6E6E6}
    .fil6 {fill:#FF6600}
    .fil11 {fill:yellow}
    .fil0 {fill:white}
    .fil3 {fill:black;fill-rule:nonzero}
   ]]>
  </style>
 </defs>
 <g id="Camada_x0020_1">
  <metadata id="CorelCorpID_0Corel-Layer"/>
  <g id="_2787730991344">
   <path class="fil0 str0" d="M0.39 0.16l4.78 0c0.12,0 0.23,0.11 0.23,0.26l0 4.72c0,0.14 -0.11,0.26 -0.23,0.26l-4.78 0c-0.12,0 -0.23,-0.12 -0.23,-0.26 0,-0.57 -0.01,-4.57 0,-4.78 0,-0.11 0.14,-0.2 0.23,-0.2z"/>
   <g>
    <g>
     <path class="fil1 str1" d="M2.98 3.61l0.02 -0.02 0.77 -0.87 0.24 0.23c0,-0.03 0,-0.07 0,-0.11 0,-0.02 0,-0.01 0.02,-0.01 0.05,-0.01 0.1,-0.01 0.16,-0.01 0.03,0 0.02,0 0.03,0.03l0 0.34 0.34 0.42 -0.21 0c-0.04,0 -0.04,0 -0.04,0.03l0 0.68 -1.06 0c-0.01,-0.23 -0.01,-0.45 -0.02,-0.67 0,-0.04 0,-0.05 -0.04,-0.04 -0.06,0 -0.14,0 -0.21,0z"/>
     <g>
      <g>
       <polygon class="fil2" points="4.21,3.75 3.91,3.75 3.91,4.3 4.21,4.3 "/>
       <path id="_1" class="fil3" d="M3.91 3.74l0.3 0 0 0.02 -0.3 0 -0.01 -0.01 0.01 -0.01zm-0.01 0.01l0 -0.01 0.01 0 -0.01 0.01zm0 0.55l0 -0.55 0.02 0 0 0.55 -0.01 0.01 -0.01 -0.01zm0.01 0.01l-0.01 0 0 -0.01 0.01 0.01zm0.3 0l-0.3 0 0 -0.02 0.3 0 0.01 0.01 -0.01 0.01zm0.01 -0.01l0 0.01 -0.01 0 0.01 -0.01zm0 -0.55l0 0.55 -0.02 0 0 -0.55 0.01 -0.01 0.01 0.01zm-0.01 -0.01l0.01 0 0 0.01 -0.01 -0.01z"/>
      </g>
      <g>
       <polygon class="fil4" points="3.66,3.73 3.36,3.73 3.36,4.01 3.66,4.01 "/>
       <path id="_1_0" class="fil3" d="M3.36 3.72l0.3 0 0 0.02 -0.3 0 -0.01 -0.01 0.01 -0.01zm-0.01 0.01l0 -0.01 0.01 0 -0.01 0.01zm0 0.28l0 -0.28 0.02 0 0 0.28 -0.01 0.01 -0.01 -0.01zm0.01 0.01l-0.01 0 0 -0.01 0.01 0.01zm0.3 0l-0.3 0 0 -0.02 0.3 0 0.01 0.01 -0.01 0.01zm0.01 -0.01l0 0.01 -0.01 0 0.01 -0.01zm0 -0.28l0 0.28 -0.02 0 0 -0.28 0.01 -0.01 0.01 0.01zm-0.01 -0.01l0.01 0 0 0.01 -0.01 -0.01z"/>
      </g>
      <g>
       <polygon class="fil5" points="3.63,3.22 3.93,3.22 3.93,3.33 3.63,3.33 "/>
       <path id="_1_1" class="fil3" d="M3.93 3.23l-0.3 0 0 -0.02 0.3 0 0.01 0.01 -0.01 0.01zm0 -0.02l0.01 0 0 0.01 -0.01 -0.01zm-0.01 0.12l0 -0.11 0.02 0 0 0.11 -0.01 0.01 -0.01 -0.01zm0.02 0l0 0.01 -0.01 0 0.01 -0.01zm-0.31 -0.01l0.3 0 0 0.02 -0.3 0 -0.01 -0.01 0.01 -0.01zm0 0.02l-0.01 0 0 -0.01 0.01 0.01zm0.01 -0.12l0 0.11 -0.02 0 0 -0.11 0.01 -0.01 0.01 0.01zm-0.02 0l0 -0.01 0.01 0 -0.01 0.01z"/>
      </g>
     </g>
    </g>
    <g>
     <path class="fil6 str2" d="M0.58 3.61l0.02 -0.02 0.77 -0.87 0.24 0.23c0,-0.03 0,-0.07 0,-0.11 0,-0.02 0,-0.01 0.02,-0.01 0.05,-0.01 0.1,-0.01 0.16,-0.01 0.03,0 0.03,0 0.03,0.03l0 0.34 0.34 0.42 -0.21 0c-0.04,0 -0.04,0 -0.04,0.03l0 0.68 -1.06 0c-0.01,-0.23 -0.01,-0.45 -0.02,-0.67 0,-0.04 0,-0.05 -0.04,-0.04 -0.06,0 -0.14,0 -0.21,0z"/>
     <g id="_2787731019520">
      <g>
       <polygon class="fil2" points="0.97,3.75 1.26,3.75 1.26,4.3 0.97,4.3 "/>
       <path id="_1_2" class="fil3" d="M1.26 3.76l-0.29 0 0 -0.02 0.29 0 0.01 0.01 -0.01 0.01zm0 -0.02l0.01 0 0 0.01 -0.01 -0.01zm-0.01 0.56l0 -0.55 0.02 0 0 0.55 -0.01 0.01 -0.01 -0.01zm0.02 0l0 0.01 -0.01 0 0.01 -0.01zm-0.3 -0.01l0.29 0 0 0.02 -0.29 0 -0.01 -0.01 0.01 -0.01zm0 0.02l-0.01 0 0 -0.01 0.01 0.01zm0.01 -0.56l0 0.55 -0.02 0 0 -0.55 0.01 -0.01 0.01 0.01zm-0.02 0l0 -0.01 0.01 0 -0.01 0.01z"/>
      </g>
      <g>
       <polygon class="fil4" points="1.52,3.73 1.82,3.73 1.82,4.01 1.52,4.01 "/>
       <path id="_1_3" class="fil3" d="M1.82 3.74l-0.3 0 0 -0.02 0.3 0 0.01 0.01 -0.01 0.01zm0 -0.02l0.01 0 0 0.01 -0.01 -0.01zm-0.01 0.29l0 -0.28 0.02 0 0 0.28 -0.01 0.01 -0.01 -0.01zm0.02 0l0 0.01 -0.01 0 0.01 -0.01zm-0.31 -0.01l0.3 0 0 0.02 -0.3 0 -0.02 -0.01 0.02 -0.01zm0 0.02l-0.02 0 0 -0.01 0.02 0.01zm0.01 -0.29l0 0.28 -0.03 0 0 -0.28 0.02 -0.01 0.01 0.01zm-0.03 0l0 -0.01 0.02 0 -0.02 0.01z"/>
      </g>
      <g>
       <polygon class="fil5" points="1.26,3.21 1.55,3.21 1.55,3.33 1.26,3.33 "/>
       <path id="_1_4" class="fil3" d="M1.55 3.22l-0.29 0 0 -0.02 0.29 0 0.01 0.01 -0.01 0.01zm0 -0.02l0.01 0 0 0.01 -0.01 -0.01zm-0.01 0.13l0 -0.12 0.02 0 0 0.12 -0.01 0.01 -0.01 -0.01zm0.02 0l0 0.01 -0.01 0 0.01 -0.01zm-0.3 -0.01l0.29 0 0 0.02 -0.29 0 -0.02 -0.01 0.02 -0.01zm0 0.02l-0.02 0 0 -0.01 0.02 0.01zm0.01 -0.13l0 0.12 -0.03 0 0 -0.12 0.02 -0.01 0.01 0.01zm-0.03 0l0 -0.01 0.02 0 -0.02 0.01z"/>
      </g>
     </g>
    </g>
    <g>
     <path class="fil7 str3" d="M1.75 4.19l0.02 -0.02 0.77 -0.87 0.24 0.23c0,-0.03 0,-0.07 0,-0.11 0,-0.02 0,-0.01 0.02,-0.01 0.05,-0.01 0.1,-0.01 0.16,-0.01 0.03,0 0.03,0 0.03,0.03l0 0.34 0.34 0.42 -0.21 0c-0.04,0 -0.04,0 -0.04,0.03l0 0.68 -1.06 0c-0.01,-0.23 -0.01,-0.45 -0.02,-0.67 0,-0.04 0,-0.05 -0.04,-0.04 -0.06,0 -0.13,0 -0.21,0z"/>
     <g>
      <g>
       <polygon class="fil2" points="2.13,4.32 2.43,4.32 2.43,4.88 2.13,4.88 "/>
       <path id="_1_5" class="fil3" d="M2.43 4.33l-0.3 0 0 -0.02 0.3 0 0.01 0.01 -0.01 0.01zm0 -0.02l0.01 0 0 0.01 -0.01 -0.01zm-0.01 0.57l0 -0.56 0.02 0 0 0.56 -0.01 0.01 -0.01 -0.01zm0.02 0l0 0.01 -0.01 0 0.01 -0.01zm-0.31 -0.01l0.3 0 0 0.02 -0.3 0 -0.01 -0.01 0.01 -0.01zm0 0.02l-0.01 0 0 -0.01 0.01 0.01zm0.01 -0.57l0 0.56 -0.02 0 0 -0.56 0.01 -0.01 0.01 0.01zm-0.02 0l0 -0.01 0.01 0 -0.01 0.01z"/>
      </g>
      <g>
       <polygon class="fil4" points="2.68,4.31 2.98,4.31 2.98,4.58 2.68,4.58 "/>
       <path id="_1_6" class="fil3" d="M2.98 4.32l-0.3 0 0 -0.02 0.3 0 0.01 0.01 -0.01 0.01zm0 -0.02l0.01 0 0 0.01 -0.01 -0.01zm-0.01 0.28l0 -0.27 0.02 0 0 0.27 -0.01 0.01 -0.01 -0.01zm0.02 0l0 0.01 -0.01 0 0.01 -0.01zm-0.31 -0.01l0.3 0 0 0.02 -0.3 0 -0.01 -0.01 0.01 -0.01zm0 0.02l-0.01 0 0 -0.01 0.01 0.01zm0.01 -0.28l0 0.27 -0.02 0 0 -0.27 0.01 -0.01 0.01 0.01zm-0.02 0l0 -0.01 0.01 0 -0.01 0.01z"/>
      </g>
      <g>
       <polygon class="fil5" points="2.38,3.77 2.68,3.77 2.68,3.89 2.38,3.89 "/>
       <path id="_1_7" class="fil3" d="M2.68 3.78l-0.3 0 0 -0.02 0.3 0 0.01 0.01 -0.01 0.01zm0 -0.02l0.01 0 0 0.01 -0.01 -0.01zm-0.01 0.13l0 -0.12 0.02 0 0 0.12 -0.01 0.01 -0.01 -0.01zm0.02 0l0 0.01 -0.01 0 0.01 -0.01zm-0.31 -0.01l0.3 0 0 0.02 -0.3 0 -0.01 -0.01 0.01 -0.01zm0 0.02l-0.01 0 0 -0.01 0.01 0.01zm0.02 -0.13l0 0.12 -0.03 0 0 -0.12 0.01 -0.01 0.02 0.01zm-0.03 0l0 -0.01 0.01 0 -0.01 0.01z"/>
      </g>
     </g>
    </g>
    <g>
     <polygon class="fil8" points="1.95,2.18 3.21,2.18 3.21,3.24 1.95,3.24 "/>
     <path id="_1_8" class="fil3" d="M3.21 2.19l-1.26 0 0 -0.03 1.26 0 0.02 0.02 -0.02 0.01zm0 -0.03l0.02 0 0 0.02 -0.02 -0.02zm-0.02 1.08l0 -1.06 0.04 0 0 1.06 -0.02 0.02 -0.02 -0.02zm0.04 0l0 0.02 -0.02 0 0.02 -0.02zm-1.28 -0.01l1.26 0 0 0.03 -1.26 0 -0.02 -0.02 0.02 -0.01zm0 0.03l-0.02 0 0 -0.02 0.02 0.02zm0.02 -1.08l0 1.06 -0.04 0 0 -1.06 0.02 -0.02 0.02 0.02zm-0.04 0l0 -0.02 0.02 0 -0.02 0.02z"/>
    </g>
    <path class="fil9 str4" d="M2.44 2.63l0.12 0 0 -0.02 -0.08 -0.07c-0.02,0.02 -0.04,0.05 -0.04,0.09z"/>
    <path class="fil9 str4" d="M2.75 2.63l-0.12 0 0 -0.02 0.08 -0.07c0.02,0.02 0.04,0.05 0.04,0.09z"/>
    <path class="fil10 str5" d="M2.49 2.52l0.08 0.08 0.02 -0.01 -0.01 -0.11c-0.03,0 -0.06,0.01 -0.09,0.04z"/>
    <path class="fil9 str4" d="M2.44 2.63l0.12 0 0 -0.02 -0.08 -0.07c-0.02,0.02 -0.04,0.05 -0.04,0.09z"/>
    <path class="fil11 str6" d="M2.61 2.48l-0.01 0.12 0.02 0 0.08 -0.08c-0.02,-0.02 -0.06,-0.04 -0.09,-0.04z"/>
    <path class="fil12 str7" d="M2.44 2.64l0 0.43 0.31 0c0,-0.15 0,-0.27 0,-0.43l-0.31 0z"/>
    <path class="fil13 str8" d="M2.44 2.64l0 0.44 0.32 0 0 -0.44m-0.17 -0.04l0.01 -0.12m-0.03 0.13l-0.09 -0.09m0.14 0.09l0.09 -0.08m-0.15 0.11c0.01,-0.06 0.07,-0.06 0.07,0m-0.19 0l0.32 0m-0.32 0c0.01,-0.1 0.06,-0.15 0.16,-0.16 0.1,0.01 0.15,0.07 0.16,0.16"/>
    <line class="fil13 str7" x1="2.44" y1="3.06" x2="2.76" y2= "3.06" />
    <line class="fil13 str8" x1="2.59" y1="3.06" x2="2.59" y2= "2.64" />
    <line class="fil13 str8" x1="2.63" y1="3.06" x2="2.63" y2= "2.64" />
    <line class="fil13 str8" x1="2.55" y1="3.06" x2="2.55" y2= "2.64" />
    <path class="fil9 str4" d="M2.01 2.29l0.12 0 0 -0.01 -0.08 -0.04c-0.02,0.01 -0.04,0.03 -0.04,0.05z"/>
    <path class="fil9 str4" d="M2.32 2.29l-0.12 0 -0.01 -0.01 0.09 -0.04c0.02,0.01 0.04,0.03 0.04,0.05z"/>
    <path class="fil10 str5" d="M2.06 2.23l0.08 0.05 0.01 -0.01 0 -0.06c-0.03,0 -0.07,0.01 -0.09,0.02z"/>
    <path class="fil9 str4" d="M2.01 2.29l0.12 0 0 -0.01 -0.08 -0.04c-0.02,0.01 -0.04,0.03 -0.04,0.05z"/>
    <path class="fil11 str6" d="M2.17 2.21l0 0.06 0.02 0.01 0.08 -0.04c-0.02,-0.02 -0.06,-0.03 -0.1,-0.03z"/>
    <path class="fil12 str7" d="M2.01 2.29l0 0.23 0.31 0c0,-0.07 0,-0.14 0,-0.23l-0.31 0z"/>
    <path class="fil13 str8" d="M2 2.29l0 0.24 0.32 0 0.01 -0.24m-0.17 -0.01l0 -0.07m-0.02 0.07l-0.09 -0.05m0.14 0.05l0.09 -0.04m-0.15 0.05c0,-0.02 0.06,-0.02 0.06,0m-0.19 0l0.33 0m-0.33 0c0.01,-0.05 0.07,-0.08 0.16,-0.08 0.11,0.01 0.16,0.04 0.17,0.08"/>
    <line class="fil13 str7" x1="2.01" y1="2.52" x2="2.32" y2= "2.52" />
    <line class="fil13 str8" x1="2.15" y1="2.52" x2="2.16" y2= "2.3" />
    <line class="fil13 str8" x1="2.19" y1="2.52" x2="2.2" y2= "2.3" />
    <line class="fil13 str8" x1="2.11" y1="2.52" x2="2.12" y2= "2.3" />
    <polygon class="fil14 str9" points="2.27,3.23 2.27,3.18 2.9,3.18 2.9,3.23 "/>
    <polyline class="fil13 str10" points="2.27,3.18 2.32,3.17 2.85,3.17 2.9,3.18 "/>
    <polygon class="fil14 str9" points="2.31,3.17 2.31,3.13 2.85,3.13 2.85,3.17 "/>
    <polyline class="fil13 str10" points="2.31,3.13 2.35,3.11 2.81,3.11 2.85,3.13 "/>
    <polygon class="fil14 str9" points="2.35,3.11 2.35,3.07 2.82,3.07 2.82,3.11 "/>
    <path class="fil9 str4" d="M2.83 2.29l0.11 0 0.01 -0.01 -0.08 -0.04c-0.03,0.01 -0.04,0.03 -0.04,0.05z"/>
    <path class="fil9 str4" d="M3.13 2.29l-0.11 0 -0.01 -0.01 0.08 -0.04c0.03,0.01 0.04,0.03 0.04,0.05z"/>
    <path class="fil10 str5" d="M2.87 2.23l0.08 0.05 0.02 -0.01 0 -0.06c-0.03,0 -0.07,0.01 -0.1,0.02z"/>
    <path class="fil9 str4" d="M2.83 2.29l0.11 0 0.01 -0.01 -0.08 -0.04c-0.03,0.01 -0.04,0.03 -0.04,0.05z"/>
    <path class="fil11 str6" d="M2.99 2.21l0 0.06 0.01 0.01 0.08 -0.04c-0.02,-0.02 -0.05,-0.03 -0.09,-0.03z"/>
    <path class="fil12 str7" d="M2.82 2.29l0 0.23 0.32 0c-0.01,-0.07 -0.01,-0.14 -0.01,-0.23l-0.31 0z"/>
    <path class="fil13 str8" d="M2.82 2.29l0 0.24 0.32 0 0 -0.24m-0.16 -0.01l0 -0.07m-0.03 0.07l-0.08 -0.05m0.13 0.05l0.09 -0.04m-0.15 0.05c0.01,-0.02 0.07,-0.02 0.07,0m-0.19 0l0.32 0m-0.32 0c0.01,-0.05 0.06,-0.08 0.16,-0.08 0.1,0.01 0.15,0.04 0.16,0.08"/>
    <line class="fil13 str7" x1="2.83" y1="2.52" x2="3.14" y2= "2.52" />
    <line class="fil13 str8" x1="2.97" y1="2.52" x2="2.97" y2= "2.3" />
    <line class="fil13 str8" x1="3.01" y1="2.52" x2="3.01" y2= "2.3" />
    <line class="fil13 str8" x1="2.93" y1="2.52" x2="2.93" y2= "2.3" />
    <rect class="fil5 str11" transform="matrix(6.22672E-15 0.117678 -0.0688968 9.13314E-16 2.83434 0.579546)" width="0.52" height="7.09"/>
    <rect class="fil5 str11" x="2.55" y="0.37" width="0.06" height="0.73"/>
    <g>
     <polygon class="fil8" points="2.17,2.17 2.17,1.1 2.98,1.1 2.98,1.6 2.98,1.92 2.98,2.17 "/>
     <path id="_1_9" class="fil3" d="M2.19 1.1l0 1.07 -0.04 0 0 -1.07 0.02 -0.01 0.02 0.01zm-0.04 0l0 -0.01 0.02 0 -0.02 0.01zm0.83 0.02l-0.81 0 0 -0.03 0.81 0 0.01 0.01 -0.01 0.02zm0 -0.03l0.01 0 0 0.01 -0.01 -0.01zm-0.02 0.51l0 -0.5 0.03 0 0 0.5 0 0 -0.03 0zm0 0.32l0 -0.32 0.03 0 0 0.32 0 0 -0.03 0zm0 0.25l0 -0.25 0.03 0 0 0.25 -0.01 0.02 -0.02 -0.02zm0.03 0l0 0.02 -0.01 0 0.01 -0.02zm-0.82 -0.01l0.81 0 0 0.03 -0.81 0 -0.02 -0.02 0.02 -0.01zm0 0.03l-0.02 0 0 -0.02 0.02 0.02z"/>
    </g>
    <path class="fil9 str4" d="M2.46 1.7l0.08 0 0.01 -0.02 -0.06 -0.07c-0.02,0.02 -0.03,0.06 -0.03,0.09z"/>
    <path class="fil9 str4" d="M2.68 1.7l-0.08 0 -0.01 -0.02 0.06 -0.07c0.02,0.02 0.03,0.06 0.03,0.09z"/>
    <path class="fil10 str5" d="M2.49 1.59l0.06 0.09 0.01 -0.01 0 -0.11c-0.02,-0.01 -0.05,0.01 -0.07,0.03z"/>
    <path class="fil9 str4" d="M2.46 1.7l0.08 0 0.01 -0.02 -0.06 -0.07c-0.02,0.02 -0.03,0.06 -0.03,0.09z"/>
    <path class="fil11 str6" d="M2.58 1.55l-0.01 0.12 0.02 0.01 0.06 -0.08c-0.02,-0.03 -0.04,-0.04 -0.07,-0.05z"/>
    <path class="fil12 str7" d="M2.45 1.71l0 0.44 0.24 0c-0.01,-0.15 -0.01,-0.27 -0.01,-0.44l-0.23 0z"/>
    <path class="fil13 str8" d="M2.45 1.71l0 0.44 0.24 0 0 -0.44m-0.12 -0.03l0 -0.12m-0.02 0.12l-0.06 -0.08m0.1 0.08l0.06 -0.08m-0.11 0.11c0.01,-0.05 0.05,-0.05 0.05,0m-0.14 0l0.24 0m-0.24 0c0.01,-0.1 0.05,-0.15 0.12,-0.16 0.08,0.02 0.11,0.07 0.12,0.16"/>
    <line class="fil13 str7" x1="2.46" y1="2.14" x2="2.69" y2= "2.14" />
    <line class="fil13 str8" x1="2.56" y1="2.14" x2="2.56" y2= "1.72" />
    <line class="fil13 str8" x1="2.59" y1="2.14" x2="2.59" y2= "1.72" />
    <line class="fil13 str8" x1="2.53" y1="2.14" x2="2.54" y2= "1.72" />
    <path class="fil15 str5" d="M2.74 1.32l-0.12 0 -0.01 -0.02 0.08 -0.09c0.03,0.02 0.05,0.07 0.05,0.11z"/>
    <path class="fil10 str5" d="M2.47 1.21l0.09 0.09 0.02 -0.01 0 -0.13c-0.03,0 -0.08,0.02 -0.11,0.05z"/>
    <path class="fil11 str6" d="M2.58 1.16l0 0.13 0.03 0.01 0.08 -0.09c-0.02,-0.02 -0.08,-0.05 -0.11,-0.05z"/>
    <path class="fil15 str5" d="M2.43 1.32l0.12 0 0.01 0.02 -0.09 0.09c-0.02,-0.02 -0.04,-0.07 -0.04,-0.11z"/>
    <path class="fil10 str5" d="M2.69 1.43l-0.08 -0.09 -0.03 0.01 0 0.13c0.03,0 0.08,-0.02 0.11,-0.05z"/>
    <path class="fil9 str4" d="M2.43 1.32l0.12 0 0.01 -0.02 -0.09 -0.09c-0.02,0.02 -0.04,0.07 -0.04,0.11z"/>
    <path class="fil11 str6" d="M2.58 1.48l0.01 -0.13 -0.03 -0.01 -0.09 0.09c0.03,0.03 0.07,0.04 0.11,0.05z"/>
    <path class="fil9 str4" d="M2.74 1.32l-0.12 0 -0.01 0.03 0.08 0.08c0.03,-0.02 0.05,-0.07 0.05,-0.11z"/>
    <path class="fil13 str9" d="M2.58 1.16c0.09,0 0.16,0.07 0.16,0.16 0,0.08 -0.07,0.15 -0.15,0.16 -0.09,0 -0.16,-0.07 -0.16,-0.15 0,-0.09 0.06,-0.16 0.15,-0.17zm0 0.13c0.02,0 0.03,0.01 0.03,0.03 0.01,0.02 -0.01,0.03 -0.03,0.03 -0.01,0 -0.03,-0.01 -0.03,-0.03 0,-0.02 0.02,-0.03 0.03,-0.03zm0.03 0.01l0.08 -0.09m-0.13 0.09l-0.09 -0.09m0.11 0.08l0 -0.12m-0.03 0.15l-0.12 0m0.15 0.16l0 -0.13m0.11 0.08l-0.08 -0.09m0.13 -0.02l-0.12 0m-0.15 0.11l0.09 -0.09"/>
   </g>
  </g>
 </g>
</svg>
