<?xml version="1.0" encoding="UTF-8"?>
<!DOCTYPE svg PUBLIC "-//W3C//DTD SVG 1.1//EN" "http://www.w3.org/Graphics/SVG/1.1/DTD/svg11.dtd">
<!-- Creator: CorelDRAW 2021 (64 Bit) -->
<svg xmlns="http://www.w3.org/2000/svg" xml:space="preserve" width="1247px" height="1250px" version="1.1" style="shape-rendering:geometricPrecision; text-rendering:geometricPrecision; image-rendering:optimizeQuality; fill-rule:evenodd; clip-rule:evenodd"
viewBox="0 0 361.27 362.06"
 xmlns:xlink="http://www.w3.org/1999/xlink"
 xmlns:xodm="http://www.corel.com/coreldraw/odm/2003">
 <defs>
  <style type="text/css">
   <![CDATA[
    .str8 {stroke:#F5A980;stroke-width:1.16;stroke-miterlimit:22.9256}
    .str7 {stroke:black;stroke-width:0.29;stroke-miterlimit:22.9256}
    .str1 {stroke:#0D999A;stroke-width:0.29;stroke-miterlimit:22.9256}
    .str13 {stroke:#DBDBDB;stroke-width:0.29;stroke-miterlimit:22.9256}
    .str5 {stroke:#F5A980;stroke-width:0.29;stroke-miterlimit:22.9256}
    .str2 {stroke:#FA0505;stroke-width:0.29;stroke-miterlimit:22.9256}
    .str3 {stroke:#030303;stroke-width:2.32;stroke-miterlimit:22.9256}
    .str0 {stroke:#B8B4B6;stroke-width:27.19;stroke-miterlimit:22.9256}
    .str15 {stroke:black;stroke-width:0.58;stroke-miterlimit:22.9256}
    .str4 {stroke:#030303;stroke-width:0.58;stroke-miterlimit:22.9256}
    .str11 {stroke:#F5A980;stroke-width:0.58;stroke-miterlimit:22.9256}
    .str16 {stroke:black;stroke-width:0.87;stroke-miterlimit:22.9256}
    .str12 {stroke:#F5A980;stroke-width:0.87;stroke-miterlimit:22.9256}
    .str9 {stroke:#DBDBDB;stroke-width:0.26;stroke-miterlimit:22.9256}
    .str14 {stroke:#F5A980;stroke-width:0.26;stroke-miterlimit:22.9256}
    .str10 {stroke:#E1E1E1;stroke-width:0.26;stroke-miterlimit:22.9256}
    .str6 {stroke:#454545;stroke-width:4.34;stroke-linecap:round;stroke-miterlimit:22.9256}
    .fil4 {fill:none}
    .fil7 {fill:black}
    .fil8 {fill:black}
    .fil5 {fill:#003399}
    .fil15 {fill:#020305}
    .fil13 {fill:#23A342}
    .fil3 {fill:#33CC99}
    .fil10 {fill:#666666}
    .fil17 {fill:gray}
    .fil14 {fill:#94A1A7}
    .fil9 {fill:#999999}
    .fil12 {fill:#CCCCCC}
    .fil2 {fill:#E6E6E6}
    .fil11 {fill:#F5A980}
    .fil6 {fill:#F5B796}
    .fil16 {fill:red}
    .fil0 {fill:white}
    .fil1 {fill:white}
    .fil18 {fill:white;fill-rule:nonzero}
   ]]>
  </style>
 </defs>
 <g id="Camada_x0020_1">
  <metadata id="CorelCorpID_0Corel-Layer"/>
  <g id="_2072114835424">
   <path class="fil0 str0" d="M28.54 13.6l304.82 0c8.59,0 14.31,8.58 14.31,17.17l0 301.96c0,8.58 -5.72,15.74 -14.31,15.74l-304.82 0c-8.58,0 -14.31,-7.16 -14.31,-15.74 0,-37.21 -1.43,-291.94 0,-304.82 0,-7.16 8.59,-14.31 14.31,-14.31l0 0z"/>
   <g>
    <polygon class="fil1 str1" points="224.82,214.32 199.95,256.61 183.34,230.55 216.96,196.93 "/>
    <polygon class="fil1 str2" points="139.1,215.77 166.96,255.95 181.79,231.43 144.97,196.41 "/>
    <path class="fil1 str2" d="M138.84 215.45l27.99 42.88 4.51 -7.7 4.93 4.4 -1.01 67.38c-35.08,0.05 -70.16,0.1 -105.24,0.14 -5.33,0.77 -8.4,-4.99 -8.32,-8.87 0.18,-9.44 2.93,-36.52 4.97,-61.69 0.86,-10.56 3.21,-11.38 10.94,-13.69 12.22,-3.65 58.23,-21.62 61.23,-22.85z"/>
    <path class="fil2 str2" d="M225.26 214.74l-25.62 43.42 -4.51 -7.7 -4.92 4.4 2.07 67.89c35.08,0.05 55.21,0.41 90.29,0.46 9.55,0.06 12.24,-2.11 12.01,-9.5 -0.3,-9.44 -2.33,-37.11 -4.73,-62.26 -0.67,-6.96 -0.71,-10.44 -7.97,-13.12 -12.11,-4.49 -53.61,-22.37 -56.62,-23.59z"/>
    <path class="fil3 str3" d="M286.51 323.18l-217.17 0.16c-4.75,0.07 -9.19,-3.16 -8.58,-10.24 1.82,-21.2 3.53,-42.4 5.29,-63.6 0.72,-5.42 3.17,-8.9 7.55,-10.24l66.61 -24.41 5.35 -18.74 36.96 34.81 33.97 -35.04 8.33 18.44 59.79 25.35c3.15,2.07 5.14,5.39 5.61,10.4 2.04,21.12 4.08,42.25 6.12,63.37 0.7,5.64 -3.9,9.87 -9.83,9.74z"/>
    <polyline class="fil4 str3" points="139.71,215.84 167.13,256.67 182.02,231.9 199.95,256.61 224.33,215.3 "/>
    <polygon class="fil5 str4" points="194.35,251.24 181.96,233.38 171.62,251.27 176.66,255.78 175.56,323.42 194.91,323.4 190.61,255.83 "/>
    <path class="fil6 str5" d="M153.27 200.81l29.13 27.35 26.9 -27.81 -0.81 -11.52c-5.69,5.76 -11.37,11.53 -17.05,17.29 -3.25,3.73 -13.13,3.99 -17.97,0.13l-20.52 -17.52 0.32 12.08z"/>
    <path class="fil6 str5" d="M235.11 120.44c-1.66,0.35 -2.58,2.86 -3.87,4.29l1.51 -4.99 -14.53 -10.63 0.07 -22.47 -19.53 -0.1 -16.48 5.16 -17.02 -5.39 -21.15 0.25 -1.11 18.74 -9.7 13.14c-1.16,-1.73 -2.31,-3.46 -3.46,-5.19 -0.63,-1.68 -2.77,-1.44 -3.89,-0.83 -1.44,0.5 -2.08,1.8 -2.78,4.57 -0.85,2.95 -0.5,5.99 -0.03,8.94l2.15 11.48c0.55,1.92 1.85,2.77 3.83,2.63 0.6,0.17 1.72,-0.58 3.59,-2.63 0.66,8.63 2.18,16.5 4.78,23.44 3.64,9.93 8.62,19.16 14.92,27.69 6.77,5.79 13.55,11.58 20.32,17.37 6.27,5.07 12.42,5.52 18.41,0.24 9.33,-8.35 18.37,-17.01 26.88,-26.01 3.7,-5.19 6.62,-10.58 8.68,-16.18 1.3,-6.75 2.61,-13.51 3.91,-20.26 0.52,0.97 1.19,1.48 2.07,1.36 0.89,0.04 3.25,-0.41 4.54,-1.91 2.8,-5.67 4.49,-11.33 5.47,-16.99 0.35,-1.79 -1.04,-3.54 -2.6,-4.55 -1.33,-1.04 -3.81,-1.64 -4.98,-1.17z"/>
    <path class="fil7" d="M204.5 128.03c-2.82,0.55 -4.75,2.5 -3.9,6.1 0.6,2.56 2.87,4.52 6.05,3.85 5.96,-1.25 5.19,-11.4 -2.15,-9.95z"/>
    <path class="fil7" d="M159.14 128.01c-6.97,1.39 -4.25,11.33 2.14,9.99 2.46,-0.52 4.39,-2.94 3.92,-6.23 -0.38,-2.66 -3.05,-4.36 -6.06,-3.76z"/>
    <line class="fil4 str6" x1="147.72" y1="114.73" x2="173.88" y2= "117.18" />
    <path class="fil8 str7" d="M145.03 108.24l-10.99 14.54c-3.69,-11.9 -0.91,-25.83 5.87,-44.12 6.87,-16.19 9.38,-22.19 20.84,-24.02 18.65,-2.27 17.98,-2.53 39.69,-1.29 8.59,2.04 16.43,10.49 23.69,25.13 4.77,13.32 11.89,26.74 9.68,44.18 -4.85,-3.55 -9.92,-7.12 -14.77,-10.67 -1.68,-7.15 -1.79,-14.68 -0.27,-22.18 -7.23,2.07 -11.82,2.01 -18.63,0 -8.48,7.22 -23.42,7.08 -34.05,0 -5.99,1.54 -12.69,1.72 -20.35,0 0.87,6.51 0.88,12.74 -0.71,18.43z"/>
    <line class="fil4 str6" x1="214.79" y1="114.73" x2="188.64" y2= "117.18" />
    <path class="fil9" d="M203.65 127.43c-1.18,-2.05 3.23,-4.03 8.62,-3.84 3.82,0.58 6.57,1.98 7.78,4.56 0.19,0.65 0.7,1.11 0.07,1.92l-2.48 1.55c-3.5,-2.81 -8.34,-3.99 -13.99,-4.19z"/>
    <path class="fil9" d="M163.97 127.43c1.18,-2.05 -3.23,-4.03 -8.62,-3.84 -3.82,0.58 -6.57,1.98 -7.78,4.56 -0.18,0.65 -0.69,1.11 -0.07,1.92l2.48 1.55c3.5,-2.81 8.34,-3.99 13.99,-4.19z"/>
    <path class="fil4 str8" d="M193.27 122.32l-3.84 3.52 -1.6 7.04 -1.28 11.84 1.51 6.08 4.77 7.42c0.27,0.8 0.14,1.46 -0.41,1.99l-7.88 5.71c-1.41,0.9 -2.83,0.82 -4.25,-0.07l-9.25 -5.89 -0.13 -2.44 3.74 -7.4 0.8 -5.4 -1.87 -11.59 -2.24 -7.75 -5.38 -3.58"/>
    <g>
     <path class="fil10" d="M197.63 174.57l-30.71 -0.39c-0.61,0.13 -0.75,0.42 -0.41,0.89l6.81 5.94c2.61,1.61 5.45,2.49 8.59,2.5 3.29,0.21 6.27,-0.41 8.93,-1.89l7.49 -5.83c0.44,-1.23 -0.47,-0.81 -0.7,-1.22z"/>
     <g>
      <path class="fil1 str9" d="M171.53 172.68l0.03 2.93c0,0.87 0.9,1.18 2,1.2 0.71,0.4 1.55,0.38 2.5,0 0.67,0.54 1.41,0.52 2.2,0 1.32,0.75 2.66,0.7 4.04,-0.02 1.3,0.72 2.63,0.76 4.01,-0.01 0.96,0.51 1.89,0.48 2.78,-0.02 0.95,0.4 1.86,0.44 2.74,-0.01l0.76 0c0.86,-0.08 1.39,-0.47 1.67,-1.19l0.34 -2.94c-7.81,0.64 -15.5,0.66 -23.07,0.06z"/>
      <line class="fil4 str10" x1="186.3" y1="173.98" x2="186.31" y2= "176.76" />
      <line class="fil4 str10" x1="189.08" y1="174.04" x2="189.09" y2= "176.8" />
      <line class="fil4 str10" x1="191.81" y1="174" x2="191.83" y2= "176.71" />
      <line class="fil4 str10" x1="173.55" y1="174.24" x2="173.56" y2= "176.81" />
      <line class="fil4 str10" x1="176.04" y1="174.29" x2="176.05" y2= "176.88" />
      <line class="fil4 str10" x1="178.26" y1="174.28" x2="178.27" y2= "176.76" />
      <line class="fil4 str10" x1="182.29" y1="174.26" x2="182.3" y2= "176.79" />
      <path class="fil4 str11" d="M173.56 184.04l-9.21 -9.44c-1.15,-1.85 1.51,-2.66 3.21,-2.3 11.06,1.21 18.87,0.96 29.9,0.1 3.54,0.13 4.09,1.03 2.11,3.49l-7.69 8.09c-6.14,3.96 -12.25,4.15 -18.32,0.06z"/>
     </g>
    </g>
    <polyline class="fil4 str5" points="168.61,196.27 175.18,193.76 181.82,191.75 189.69,192.92 197.35,196.58 "/>
    <path class="fil4 str12" d="M128.9 133.35c-2.19,-3.07 -2.99,-8.34 -2.94,-14.94 1.45,-4.92 2.75,-2.37 3.51,-0.47 1.49,4.09 1.56,6.36 0.07,9.31"/>
    <path class="fil4 str12" d="M233.35 126.29c0.43,-2.42 1.93,-4.61 3.56,-4.38 2.84,-0.4 4.67,1.83 4.12,4.57 -1.05,6.75 -3.62,9.83 -5.79,10.97"/>
    <path class="fil4 str11" d="M194.58 133.85c1.06,1.28 2.7,1.74 4.36,2.64 3.82,2.06 6.42,5.25 15.34,-1.3 3.48,-2.55 3.8,-0.59 7.18,-1.58"/>
    <path class="fil4 str11" d="M170.32 133.85c-0.98,1.28 -2.48,1.74 -4.01,2.64 -3.5,2.06 -5.88,5.25 -14.06,-1.3 -3.19,-2.55 -3.49,-0.59 -6.58,-1.58"/>
    <path class="fil4 str11" d="M146.42 133.22c1.24,-0.02 2.8,0.53 3.74,-0.31 7.47,-6.76 12.58,-6.28 16.64,-2.79 0.96,0.82 2.39,2.71 3.65,2.68"/>
    <path class="fil4 str11" d="M221.59 133.22c-1.39,-0.02 -3.15,0.53 -4.2,-0.31 -8.42,-6.76 -14.19,-6.28 -18.76,-2.79 -1.08,0.82 -2.69,2.71 -4.11,2.68"/>
    <path class="fil11 str5" d="M198.33 176.3c-13.04,10.1 -23.61,7.43 -33.67,-2.47 8.63,15.36 23.22,17.98 33.67,2.47z"/>
    <path class="fil12 str5" d="M171.05 173.38c0.33,-0.43 -5.01,-0.63 -6.38,0.01 -0.28,0.12 0.39,0.13 0.82,0.85 1.88,2.43 4.73,4.37 6.65,5.45l-1.09 -6.31z"/>
    <path class="fil12 str5" d="M195.01 173.62c-0.09,-1.45 4.87,-0.86 5.15,0.08 0.53,1.23 -3.04,3.68 -6.01,5.57l0.86 -5.65z"/>
    <path class="fil1" d="M179.1 182.42c-2.27,-0.52 -4.39,-1.17 -5.77,-2.32 2.62,-0.7 1.21,0.34 2.35,0 2.73,-0.82 2.3,0.33 2.52,0.23 2.34,-1.07 3.75,-0.06 4.05,0.29 0.86,1.03 -0.78,-1.62 3.95,-0.09 1.01,0.33 -0.65,-0.82 2.91,0 1.44,0.33 -0.88,-0.65 2.93,-0.27 -1.83,0.83 -3.84,1.7 -6,2.27 -2.29,0.55 -4.61,0.46 -6.94,-0.11z"/>
    <path class="fil4 str13" d="M173.14 180.18c1.04,-0.4 1.84,-0.38 2.6,0.08 0.78,-0.69 1.64,-0.63 2.42,0 1.36,-0.72 2.75,-0.37 4.09,0.36 1.47,-0.77 3.01,-0.82 3.93,-0.07 0.67,-0.63 1.71,-0.63 2.96,-0.01 1.22,-0.85 2.08,-0.74 2.85,-0.05"/>
    <line class="fil4 str9" x1="175.72" y1="180.46" x2="175.71" y2= "181.51" />
    <line class="fil4 str9" x1="178.15" y1="180.39" x2="178.09" y2= "182.28" />
    <line class="fil4 str9" x1="182.27" y1="180.42" x2="182.25" y2= "182.9" />
    <line class="fil4 str9" x1="186.21" y1="180.27" x2="186.19" y2= "182.61" />
    <line class="fil4 str9" x1="189.13" y1="180.19" x2="189.19" y2= "181.67" />
    <path class="fil11 str14" d="M180.31 169.38c-0.54,-0.61 -1.59,-0.54 -2.98,-0.02 -3.43,1.4 -6.97,2.4 -10.68,2.86 -1.47,0.01 -3.23,1.63 -0.9,1.28 0.99,-0.14 4.29,-0.42 6.49,0.17 6.45,1.73 14.48,1.93 22.27,-0.29 1.59,-0.45 3.73,-0.24 4.96,-0.15 1.33,0.09 0.92,-0.39 -0.19,-0.64 -5,-1.13 -9.93,-1.47 -11.97,-2.54 -1.01,-0.24 -1.88,-1.31 -2.83,-0.66 -1.29,0.48 -2.69,0.44 -4.17,-0.01z"/>
    <g>
     <path class="fil13 str15" d="M209.75 117.24c11.55,-1.77 24.06,-7.04 25.65,-13.39 2.97,-11.92 7.42,-20.55 18.7,-29.61 0.32,-0.25 0.55,-0.92 -0.42,-0.7 -2.83,0.63 -12.58,3.03 -21.5,4.93 -2.32,0.49 -4.75,0.37 -5.26,-1.35 -2.02,-6.71 -3.16,-15.14 -7.15,-36.36 -0.38,-2 -0.92,-4.21 -2.54,-2.18 -1.36,1.73 -1.55,2.43 -2.52,3.59 -8.71,10.43 -18.51,7.66 -34.24,2.87 -11.34,4.24 -24.3,7.68 -33.01,-2.75 -0.98,-1.16 -1.16,-1.87 -2.52,-3.59 -1.62,-2.04 -2.16,0.18 -2.54,2.18 -3.99,21.22 -5.13,29.64 -7.15,36.35 -0.52,1.73 -2.94,1.85 -5.26,1.36 -8.92,-1.9 -18.67,-4.3 -21.5,-4.94 -0.97,-0.21 -0.77,0.5 -0.42,0.71 6.32,3.74 15.98,16.97 19.98,28.56 7.86,22.75 62.93,15.89 81.7,14.32z"/>
     <path class="fil4 str16" d="M132.22 78.69c32.18,27.06 64.11,27.84 95.74,-0.1"/>
     <g>
      <path class="fil14" d="M174.46 88.45c2.33,-0.99 2.05,-0.25 3.32,-0.53 0.07,-0.02 -0.15,0.29 0.46,-0.21 -0.61,-0.04 -1.64,-0.55 -2.37,-0.78 -0.81,-0.26 -1.65,-0.46 -2.5,-0.67 -1.64,-0.4 -3.45,-0.83 -4.89,-1.5 -2.53,-1.18 -5.08,-4.13 -4.11,-8.16 0.82,-3.42 5.65,-7.34 3.79,-14.66 -0.21,-0.85 -0.48,-1.6 -0.83,-2.35 -1.23,-2.62 -1.59,-1.43 0.51,-3.48 3.19,-3.12 1.44,-2.97 4.61,-2.19 2.33,0.57 4.78,0.23 6.86,-0.74 2.77,-1.3 0.89,-1.08 3.63,0.09 0.63,0.28 1.23,0.5 1.96,0.67 1.56,0.35 3.31,0.33 4.81,-0.06 2.94,-0.75 1.48,-0.98 3.33,0.92 3.59,3.66 2.82,2.15 1.56,4.94 -3.72,8.26 2.35,13.55 3.05,16.9 0.74,3.47 -0.89,6.56 -4.19,8.14 -1.48,0.71 -3.21,1.07 -4.87,1.49 -2.8,0.71 -3.02,1 -4.8,1.53 0.47,0.29 1.41,0.11 2.03,0.13 0.83,0.02 1.16,0.39 1.78,0.54 2.76,-0.45 7.3,-1.77 9.31,-3.57 2.03,-1.84 3.65,-5.68 2.31,-9.55 -0.54,-1.57 -1.55,-2.78 -2.27,-4.09 -1.7,-3.12 -2.24,-6.91 -1.01,-10.33 1.08,-3.02 2.06,-3.19 2.37,-4.08 -0.99,-0.49 -2.44,-2.06 -3.23,-2.84l-2.76 -3.14c-4.42,2.2 -7.45,1.87 -11.33,-1.13 -3.34,2.78 -7.5,3.51 -11.26,1.12l-2.85 3.32c-0.48,0.48 -0.99,1.04 -1.55,1.49 -0.53,0.43 -1.1,0.88 -1.62,1.33 3.6,3.5 3.93,9.83 1.21,14.47 -1.71,2.92 -3.56,5.27 -2.2,9.63 1.04,3.33 3.56,5.06 6.69,6.06 1.11,0.36 3.95,1.2 5.05,1.29z"/>
      <path class="fil15" d="M184.69 90.96c0.01,-0.7 -0.1,-0.76 0.58,-0.82l-0.26 0.17c-0.17,0.18 -0.04,-0.06 -0.16,0.25 0.2,-0.03 0.21,0.07 0.55,-0.28l0 0.23 0.26 0c0.08,-0.23 0.05,-0.19 0.15,-0.37 0.5,0.04 0.22,-0.02 0.55,0.14l0.17 -0.13c0.18,-0.11 0.07,-0.07 0.28,-0.15l1.61 -0.47c1.13,0.05 5.46,-1.36 6.56,-1.84 4.13,-1.84 6.62,-6.24 5.97,-10.77 -0.71,-5 -4.64,-6.36 -4.35,-12.68 0.11,-2.64 1.22,-4.6 2.49,-6.11 1.58,-1.88 1.49,-0.77 -2.27,-4.2 -1.07,-0.97 -3.1,-3.46 -3.93,-4.64 -1.48,-0.1 -4.29,3.42 -9.47,0.59 -0.92,-0.5 -1.63,-1.61 -2.46,-1.74 -0.49,0.05 -1.98,2.31 -5.32,2.75 -3.78,0.49 -5.11,-1.65 -6.51,-1.61 -0.28,0.34 -0.38,0.59 -0.72,1.02 -1.97,2.54 -2.07,2.6 -4.51,4.78 -0.41,0.38 -0.57,0.5 -1,0.8 -1.61,1.09 -0.71,1.37 -0.17,1.95 2.11,2.25 3.05,5.58 2.57,8.75 -0.63,4.2 -3.13,5.62 -4.03,9.27 -1.38,5.56 1.81,10.61 7.09,12.36 1.02,0.34 4.32,1.39 5.26,1.33l1.79 0.5c0.3,-0.31 0.11,-0.29 0.57,-0.59l0.19 0.27c0,0 -0.1,-0.23 -0.46,0.28 0.52,-0.11 0.38,0 1.1,0l0.14 -0.41c0.1,0.39 -0.09,0.28 0.41,0.42 -0.2,-0.28 -0.27,-0.45 -0.59,-0.49 -0.35,-0.05 -0.39,0.17 -0.66,-0.21l0.52 0c-0.72,-0.42 -1.76,-0.5 -2.17,-0.86 -1.1,-0.09 -3.94,-0.93 -5.05,-1.29 -3.13,-1 -5.65,-2.73 -6.69,-6.06 -1.36,-4.36 0.49,-6.71 2.2,-9.63 2.72,-4.64 2.39,-10.97 -1.21,-14.47 0.52,-0.45 1.09,-0.9 1.62,-1.33 0.56,-0.45 1.07,-1.01 1.55,-1.49l2.85 -3.32c3.76,2.39 7.92,1.66 11.26,-1.12 3.88,3 6.91,3.33 11.33,1.13l2.76 3.14c0.79,0.78 2.24,2.35 3.23,2.84 -0.31,0.89 -1.29,1.06 -2.37,4.08 -1.23,3.42 -0.69,7.21 1.01,10.33 0.72,1.31 1.73,2.52 2.27,4.09 1.34,3.87 -0.28,7.71 -2.31,9.55 -2.01,1.8 -6.55,3.12 -9.31,3.57 -0.32,0.24 -1.76,0.62 -2.24,0.82 -0.76,0.32 -1.36,0.66 -2.04,0.99l0.56 0.01c0.03,0.03 -0.11,0.01 -0.17,0.12l-0.07 0.15c0,0.02 0,0.07 0,0.09 0.05,0.23 0.19,0.26 0.24,0.32 -0.41,0.41 0.07,-0.04 -0.56,-0.26l-0.14 -0.27c-0.19,0.18 -0.14,0.36 -0.14,0.81 -0.05,-0.03 -0.1,-0.15 -0.13,-0.12 -0.09,0.14 -0.11,-0.41 -0.42,-0.28 -0.18,0.26 -0.03,0.18 -0.37,0.28 0.05,0.28 0.11,0.2 -0.18,0.2 0.01,0.38 0.03,0.1 -0.14,0.24 -0.32,0.35 -0.47,0.62 -0.88,0.8 -0.49,-0.55 -0.84,-1.06 -1.48,-1.48 0.01,0.45 0.04,0.09 -0.15,0.23l0.01 -0.41 -0.27 -0.12 -0.15 0.11c-0.01,-0.03 -0.01,-0.08 -0.02,-0.11l-0.11 -0.29 -1.24 -0.58 -0.17 -0.11 -0.11 -0.13 0.11 0.13 0.17 0.11c0.16,0.75 0.21,0.58 0,1.35 0.48,0.1 0.74,0.31 1.1,0.58 0.51,0.39 0.7,0.39 0.92,1 0.2,0.33 0.39,0.52 0.66,0.91 0.4,0.59 0.34,0.68 1.24,0.6 0.24,-0.3 0.65,-0.86 0.74,-1.23l0.23 -0.38c0.53,-0.58 1.54,-1.46 2.29,-1.59zm1.24 -0.67l-0.11 0.07 0.11 -0.07z"/>
      <path class="fil15" d="M170.85 54.84c2.03,0.44 3.18,0.91 5.57,0.57 0.89,-0.13 1.78,-0.36 2.53,-0.65 3.41,-1.3 0.73,-1.26 4.25,0.04 3.77,1.39 5.5,0.42 8.19,0.01 0.39,0.64 2.18,2.44 2.73,2.89 -0.21,0.69 -0.73,1.48 -1.04,2.32 -0.31,0.8 -0.53,1.56 -0.7,2.48 -1.44,8.2 3.8,11.56 4.08,15.04 0.6,7.33 -7.91,6.52 -13.49,9.22 -0.76,0.37 -1.4,0.93 -2.01,1.15 -0.74,-0.43 -1.21,-0.8 -2.08,-1.22 -4.91,-2.38 -14.18,-1.94 -13.33,-9.29 0.2,-1.74 1.4,-3.26 2.09,-4.45 1.85,-3.18 2.68,-6.76 1.97,-10.52 -0.52,-2.77 -1.5,-3.89 -1.66,-4.73 1.09,-0.74 2.2,-2.34 2.9,-2.86zm7.39 32.87c0.52,0.38 0.89,0.5 1.4,0.85 1.76,1.21 1.15,1.06 2.68,0.04 0.29,-0.2 0.4,-0.25 0.7,-0.42 0.15,-0.09 0.17,-0.11 0.35,-0.2 0.37,-0.18 -0.01,-0.04 0.42,-0.18 1.78,-0.53 2,-0.82 4.8,-1.53 1.66,-0.42 3.39,-0.78 4.87,-1.49 3.3,-1.58 4.93,-4.67 4.19,-8.14 -0.7,-3.35 -6.77,-8.64 -3.05,-16.9 1.26,-2.79 2.03,-1.28 -1.56,-4.94 -1.85,-1.9 -0.39,-1.67 -3.33,-0.92 -1.5,0.39 -3.25,0.41 -4.81,0.06 -0.73,-0.17 -1.33,-0.39 -1.96,-0.67 -2.74,-1.17 -0.86,-1.39 -3.63,-0.09 -2.08,0.97 -4.53,1.31 -6.86,0.74 -3.17,-0.78 -1.42,-0.93 -4.61,2.19 -2.1,2.05 -1.74,0.86 -0.51,3.48 0.35,0.75 0.62,1.5 0.83,2.35 1.86,7.32 -2.97,11.24 -3.79,14.66 -0.97,4.03 1.58,6.98 4.11,8.16 1.44,0.67 3.25,1.1 4.89,1.5 0.85,0.21 1.69,0.41 2.5,0.67 0.73,0.23 1.76,0.74 2.37,0.78z"/>
      <g>
       <path class="fil1" d="M178.2 65.8c0.26,-0.98 0.64,-2.03 0.94,-2.96 0.36,-1.11 0.53,-2.18 1.82,-2.21 1.37,-0.03 1.57,1.04 1.91,2.12 0.32,0.98 0.77,2.11 0.96,3.08 1.31,0.03 2.62,0 3.93,0 2.43,0.01 2.52,2.03 1.31,2.92 -0.35,0.27 -0.78,0.59 -1.11,0.83 -0.72,0.51 -1.68,1.17 -2.27,1.73 0.36,1.72 2.34,5.06 0.55,5.96 -1.7,0.86 -3.32,-1.77 -5.28,-2.6 -0.6,0.51 -1.57,1.16 -2.3,1.67 -0.73,0.51 -1.64,1.55 -2.84,0.94 -1.79,-0.9 0.15,-4.23 0.54,-5.97l-3.32 -2.48c-0.35,-0.26 -0.69,-0.57 -0.77,-1.16 -0.38,-2.71 3.87,-1.71 5.93,-1.87zm-7.35 -10.96c-0.7,0.52 -1.81,2.11 -2.9,2.86 0.16,0.84 1.14,1.96 1.66,4.73 0.71,3.75 -0.12,7.34 -1.97,10.52 -0.69,1.19 -1.89,2.71 -2.09,4.45 -0.85,7.35 8.42,6.91 13.33,9.29 0.87,0.42 1.34,0.79 2.08,1.22 0.61,-0.23 1.25,-0.78 2.01,-1.15 5.58,-2.71 14.09,-1.89 13.49,-9.22 -0.28,-3.49 -5.52,-6.84 -4.08,-15.04 0.17,-0.92 0.39,-1.68 0.7,-2.49 0.31,-0.84 0.83,-1.62 1.04,-2.31 -0.55,-0.45 -2.34,-2.25 -2.73,-2.89 -2.69,0.41 -4.42,1.37 -8.19,-0.01 -3.52,-1.31 -0.84,-1.34 -4.25,-0.04 -0.75,0.28 -1.64,0.52 -2.53,0.64 -2.39,0.35 -3.54,-0.12 -5.57,-0.56z"/>
       <path class="fil16" d="M173.58 67.21c0.09,0.6 -0.16,0.31 0.89,1.03 0.6,0.41 3.2,2.21 3.31,2.51 0.36,1.03 -3.19,7.17 -0.23,4.77 0.49,-0.4 3.13,-2.33 3.43,-2.35 0.75,-0.04 3.84,2.95 4.62,2.92 0.18,-0.46 -0.05,-0.86 -0.2,-1.33 -1.67,-5.18 -1.89,-3.39 2.11,-6.46 1.07,-0.83 0.85,-0.38 0.97,-1.09l-5.34 -0.08c-0.63,-0.51 -0.76,-1.68 -1.03,-2.5 -0.2,-0.61 -0.59,-2.22 -1.01,-2.68 -0.35,0.14 -0.22,0.03 -0.41,0.36 -0.01,0.02 -0.19,0.62 -0.2,0.63 -0.14,0.47 -0.27,0.82 -0.41,1.26 -1.05,3.4 -0.63,2.95 -3.41,2.95 -0.98,0 -2.21,-0.1 -3.09,0.06z"/>
       <path class="fil15" d="M173.58 67.21c0.88,-0.16 2.11,-0.05 3.09,-0.05 2.78,0 2.36,0.44 3.41,-2.96 0.14,-0.44 0.27,-0.79 0.41,-1.26 0.01,-0.01 0.19,-0.61 0.2,-0.63 0.19,-0.33 0.06,-0.22 0.41,-0.35 0.42,0.45 0.81,2.07 1.01,2.67 0.27,0.82 0.4,2 1.03,2.51l5.34 0.07c-0.12,0.71 0.1,0.26 -0.97,1.09 -4,3.08 -3.78,1.28 -2.11,6.46 0.15,0.47 0.38,0.87 0.2,1.34 -0.78,0.03 -3.87,-2.97 -4.62,-2.92 -0.3,0.01 -2.94,1.95 -3.43,2.34 -2.96,2.4 0.59,-3.73 0.23,-4.76 -0.11,-0.31 -2.71,-2.1 -3.31,-2.51 -1.05,-0.73 -0.8,-0.44 -0.89,-1.04zm4.62 -1.4c-2.06,0.16 -6.31,-0.85 -5.93,1.87 0.08,0.59 0.42,0.89 0.78,1.16l3.31 2.47c-0.39,1.75 -2.33,5.08 -0.54,5.97 1.21,0.61 2.11,-0.42 2.84,-0.93 0.73,-0.51 1.71,-1.17 2.3,-1.68 1.97,0.83 3.58,3.46 5.28,2.61 1.79,-0.91 -0.19,-4.24 -0.55,-5.97 0.59,-0.56 1.55,-1.22 2.27,-1.73 0.33,-0.24 0.76,-0.56 1.11,-0.82 1.21,-0.9 1.12,-2.92 -1.31,-2.93 -1.31,0 -2.62,0.03 -3.93,0 -0.19,-0.96 -0.64,-2.09 -0.96,-3.08 -0.34,-1.08 -0.54,-2.15 -1.9,-2.12 -1.3,0.03 -1.47,1.1 -1.83,2.21 -0.3,0.93 -0.68,1.98 -0.94,2.97z"/>
      </g>
      <rect class="fil17 str15" x="167.11" y="87.89" width="30.01" height="4.8" rx="8.1" ry="5.24"/>
      <path class="fil18" d="M171.39 91.94l-1.83 0 1.44 -3.3 2.61 0 1.44 3.3 -1.83 0 -0.24 -0.56 -1.35 0 -0.24 0.56zm0.58 -1.34l0.67 0 -0.33 -0.82 -0.34 0.82z"/>
      <path id="_1" class="fil18" d="M175.47 88.64l2.04 0c0.73,0 1.3,0.16 1.7,0.48 0.4,0.33 0.6,0.72 0.6,1.18 0,0.29 -0.09,0.56 -0.27,0.82 -0.19,0.26 -0.45,0.46 -0.8,0.61 -0.35,0.14 -0.78,0.21 -1.28,0.21l-1.99 0 0 -3.3zm1.83 1.26l0 0.78 0.05 0c0.22,0 0.38,-0.03 0.48,-0.09 0.09,-0.07 0.14,-0.17 0.14,-0.31 0,-0.25 -0.18,-0.38 -0.55,-0.38l-0.12 0z"/>
      <polygon id="_2" class="fil18" points="180.37,91.94 180.37,88.64 182.15,88.64 182.9,89.33 183.65,88.64 185.43,88.64 185.43,91.94 183.59,91.94 183.59,90.29 182.9,90.93 182.2,90.29 182.2,91.94 "/>
      <polygon id="_3" class="fil18" points="186.24,91.94 186.24,88.64 188.07,88.64 188.07,91.94 "/>
      <polygon id="_4" class="fil18" points="188.88,91.94 188.88,88.64 190.66,88.64 191.41,89.33 192.16,88.64 193.94,88.64 193.94,91.94 192.1,91.94 192.1,90.29 191.41,90.93 190.71,90.29 190.71,91.94 "/>
     </g>
    </g>
   </g>
  </g>
 </g>
</svg>
