<?xml version="1.0" encoding="UTF-8"?>
<!DOCTYPE svg PUBLIC "-//W3C//DTD SVG 1.1//EN" "http://www.w3.org/Graphics/SVG/1.1/DTD/svg11.dtd">
<!-- Creator: CorelDRAW 2021 (64 Bit) -->
<svg xmlns="http://www.w3.org/2000/svg" xml:space="preserve" width="530px" height="530px" version="1.1" style="shape-rendering:geometricPrecision; text-rendering:geometricPrecision; image-rendering:optimizeQuality; fill-rule:evenodd; clip-rule:evenodd"
viewBox="0 0 10.17 10.17"
 xmlns:xlink="http://www.w3.org/1999/xlink"
 xmlns:xodm="http://www.corel.com/coreldraw/odm/2003">
 <defs>
  <style type="text/css">
   <![CDATA[
    .str0 {stroke:#B8B4B6;stroke-width:0.58;stroke-miterlimit:22.9256}
    .str1 {stroke:black;stroke-width:0.15;stroke-miterlimit:22.9256}
    .str2 {stroke:black;stroke-width:0.1;stroke-miterlimit:22.9256}
    .fil8 {fill:none}
    .fil7 {fill:#00FF95}
    .fil4 {fill:#52331D}
    .fil2 {fill:#86B0C0}
    .fil6 {fill:#9F740B}
    .fil5 {fill:#B8E3EA}
    .fil1 {fill:#E2A610}
    .fil3 {fill:#FDD734}
    .fil0 {fill:white}
    .fil9 {fill:white}
   ]]>
  </style>
 </defs>
 <g id="Camada_x0020_1">
  <metadata id="CorelCorpID_0Corel-Layer"/>
  <path class="fil0 str0" d="M0.72 0.29l8.74 0c0.23,0 0.42,0.21 0.42,0.48l0 8.63c0,0.27 -0.19,0.48 -0.42,0.48l-8.74 0c-0.23,0 -0.42,-0.21 -0.42,-0.48 0,-1.04 -0.02,-8.36 -0.01,-8.74 0,-0.2 0.26,-0.37 0.43,-0.37z"/>
  <g id="_2069718896224">
   <g>
    <path class="fil1" d="M6.48 5.96l0.01 0c0.04,-0.01 0.07,-0.03 0.12,-0.03 0.05,0 0.08,0.02 0.12,0.02l0.02 0.01c0.06,0 0.15,0.08 0.17,0.12 0.1,0.14 0.13,0.33 0.02,0.48 -0.05,0.08 -0.14,0.11 -0.16,0.14l0.28 0.72c0.02,0.08 -0.03,0.1 -0.09,0.1 -0.12,0 -0.24,-0.01 -0.37,-0.01 -0.12,0.01 -0.24,0.01 -0.36,0.01 -0.14,-0.01 -0.08,-0.1 -0.02,-0.25 0.06,-0.15 0.17,-0.46 0.23,-0.59 -0.01,-0.01 -0.23,-0.1 -0.23,-0.37 0.01,-0.19 0.15,-0.34 0.26,-0.35zm2.11 1.81l0 -3.17c0.01,0.09 -0.06,0.21 -0.09,0.25 -0.13,0.18 -0.47,0.29 -0.67,0.33 -0.68,0.15 -1.68,0.16 -2.36,0 -0.29,-0.06 -0.71,-0.19 -0.76,-0.59 -0.02,0.01 -0.01,0.03 -0.01,0.06l-0.03 2.99c0,0.13 -0.01,0.14 0.06,0.21 0.15,0.17 0.41,0.27 0.66,0.34 0.53,0.16 1.19,0.19 1.76,0.13 0.39,-0.05 1.08,-0.15 1.39,-0.48 0.02,-0.01 0.02,-0.02 0.03,-0.03 0.01,-0.02 0.02,-0.02 0.02,-0.04z"/>
    <path class="fil2" d="M5.83 1.93c0.2,-0.06 0.21,0.23 0.05,0.37 -0.26,0.24 -0.35,0.97 -0.39,1.08 -0.03,0.08 -0.1,0.07 -0.11,-0.03 -0.03,-0.21 0.01,-0.59 0.04,-0.78 0.03,-0.14 0.08,-0.29 0.14,-0.39 0.04,-0.07 0.07,-0.1 0.12,-0.15 0.03,-0.04 0.09,-0.09 0.15,-0.1zm-0.56 2.37l0 0.56c0.22,0.19 0.44,0.18 0.65,0l0.01 -0.72 0.02 -1.09c0,-0.12 0.03,-0.19 0.06,-0.29 0.11,-0.3 0.37,-0.6 0.74,-0.6 0.38,0 0.63,0.29 0.74,0.6 0.04,0.1 0.06,0.18 0.06,0.3 0,0.35 0.01,0.77 0,1.1l0 0.39 0 0.22c0.03,0.03 0.14,0.07 0.19,0.08 0.1,0.02 0.16,0.01 0.25,-0.01 0.06,-0.02 0.1,-0.03 0.15,-0.07l0 -0.23 0.01 -0.22c-0.01,-0.38 0.02,-0.78 0,-1.15 -0.01,-0.3 -0.11,-0.69 -0.22,-0.9 -0.09,-0.19 -0.19,-0.35 -0.33,-0.48 -0.03,-0.02 -0.05,-0.05 -0.07,-0.07 -0.22,-0.19 -0.48,-0.34 -0.81,-0.36 -0.27,-0.01 -0.59,0.11 -0.78,0.25 -0.03,0.02 -0.05,0.04 -0.07,0.06 -0.06,0.06 -0.15,0.15 -0.19,0.21 -0.07,0.09 -0.15,0.22 -0.21,0.34 -0.12,0.26 -0.2,0.57 -0.2,0.92 -0.01,0.38 0,0.77 0,1.16z"/>
    <path class="fil3" d="M5.93 4.14l-0.01 0.72c-0.21,0.18 -0.43,0.19 -0.65,0l0 -0.56c-0.09,0.02 -0.22,0.07 -0.31,0.11 -0.09,0.03 -0.23,0.09 -0.25,0.18 0.05,0.4 0.47,0.53 0.76,0.59 0.68,0.16 1.68,0.15 2.36,0 0.2,-0.04 0.54,-0.15 0.67,-0.33 0.03,-0.04 0.1,-0.16 0.09,-0.25l0 3.17c0.01,-0.01 0.01,0 0.01,-0.02 0,0 0,-0.02 0,-0.03l0 -3.04c0,-0.04 0.01,-0.08 -0.01,-0.08 0,-0.09 -0.12,-0.14 -0.19,-0.18 -0.07,-0.03 -0.18,-0.08 -0.25,-0.1l-0.01 0.22c0.07,0.03 0.11,0.13 0.05,0.21 -0.04,0.04 -0.13,0.08 -0.2,0.09 -0.09,0.02 -0.15,0.03 -0.25,0.01 -0.05,-0.01 -0.16,-0.05 -0.19,-0.08 -0.06,-0.03 -0.1,-0.15 0,-0.22l0 -0.39c-0.13,-0.02 -0.26,-0.05 -0.39,-0.07 -0.14,-0.01 -0.27,-0.03 -0.41,-0.03 -0.29,0 -0.54,0.03 -0.82,0.08z"/>
    <path class="fil0" d="M5.93 4.14c0.28,-0.05 0.53,-0.08 0.82,-0.08 0.14,0 0.27,0.02 0.41,0.03 0.13,0.02 0.26,0.05 0.39,0.07 0.01,-0.33 0,-0.75 0,-1.1 0,-0.12 -0.02,-0.2 -0.06,-0.3 -0.11,-0.31 -0.36,-0.6 -0.74,-0.6 -0.37,0 -0.63,0.3 -0.74,0.6 -0.03,0.1 -0.06,0.17 -0.06,0.29l-0.02 1.09z"/>
    <path class="fil4" d="M6.49 5.96l-0.01 0c-0.05,0.05 -0.07,0.04 -0.11,0.12 -0.07,0.12 -0.06,0.27 0,0.39 0.02,0.04 0.05,0.07 0.08,0.1l0.04 0.02c-0.05,0.16 -0.11,0.33 -0.16,0.5 -0.03,0.1 -0.09,0.21 -0.02,0.23l0.58 0.01c0.1,-0.01 0.02,-0.17 0,-0.23 -0.05,-0.16 -0.11,-0.34 -0.16,-0.5 0.18,-0.11 0.21,-0.32 0.12,-0.51 -0.01,-0.03 -0.02,-0.05 -0.04,-0.07 -0.01,-0.01 -0.02,-0.02 -0.03,-0.03l-0.03 -0.03c-0.02,0 -0.01,0 -0.02,-0.01 -0.04,0 -0.07,-0.02 -0.12,-0.02 -0.05,0 -0.08,0.02 -0.12,0.03z"/>
    <path class="fil5" d="M5.83 1.93c-0.06,0.01 -0.12,0.06 -0.15,0.1 -0.05,0.05 -0.08,0.08 -0.12,0.15 -0.06,0.1 -0.11,0.25 -0.14,0.39 -0.03,0.19 -0.07,0.57 -0.04,0.78 0.01,0.1 0.08,0.11 0.11,0.03 0.04,-0.11 0.13,-0.84 0.39,-1.08 0.16,-0.14 0.15,-0.43 -0.05,-0.37z"/>
    <path class="fil6" d="M6.75 5.96l-0.02 -0.01c0.01,0.01 0,0.01 0.02,0.01l0.03 0.03c0.01,0.01 0.02,0.02 0.03,0.03 0.02,0.02 0.03,0.04 0.04,0.07 0.09,0.19 0.06,0.4 -0.12,0.51 0.05,0.16 0.11,0.34 0.16,0.5 0.02,0.06 0.1,0.22 0,0.23l-0.58 -0.01c-0.07,-0.02 -0.01,-0.13 0.02,-0.23 0.05,-0.17 0.11,-0.34 0.16,-0.5l-0.04 -0.02c-0.03,-0.03 -0.06,-0.06 -0.08,-0.1 -0.06,-0.12 -0.07,-0.27 0,-0.39 0.04,-0.08 0.06,-0.07 0.11,-0.12l0.01 0 -0.01 0c-0.11,0.01 -0.25,0.16 -0.26,0.35 0,0.27 0.22,0.36 0.23,0.37 -0.06,0.13 -0.17,0.44 -0.23,0.59 -0.06,0.15 -0.12,0.24 0.02,0.25 0.12,0 0.24,0 0.36,-0.01 0.13,0 0.25,0.01 0.37,0.01 0.06,0 0.11,-0.02 0.09,-0.1l-0.28 -0.72c0.02,-0.03 0.11,-0.06 0.16,-0.14 0.11,-0.15 0.08,-0.34 -0.02,-0.48 -0.02,-0.04 -0.11,-0.12 -0.17,-0.12z"/>
    <path class="fil6" d="M7.99 4.84c0.07,-0.01 0.16,-0.05 0.2,-0.09 0.06,-0.08 0.02,-0.18 -0.05,-0.21l0 0.23c-0.05,0.04 -0.09,0.05 -0.15,0.07z"/>
    <path class="fil6" d="M7.55 4.77l0 -0.22c-0.1,0.07 -0.06,0.19 0,0.22z"/>
   </g>
   <path class="fil7" d="M2.47 1.59c-0.9,0.41 -1.17,0.89 -1.21,1.78 0.02,0.84 0.4,1.31 1.04,1.64l0.24 3.41c0.37,-0.07 0.64,-0.22 0.71,-0.54l0.04 -0.4 0.23 -0.74 -0.33 -0.66 0.4 -0.65 -0.14 -0.64c0.71,-0.48 0.96,-1.17 0.76,-2.07 -0.29,-0.84 -0.85,-1.26 -1.74,-1.13z"/>
   <line class="fil8 str1" x1="2.64" y1="4.83" x2="2.77" y2= "8.2" />
   <line class="fil8 str1" x1="3.04" y1="4.79" x2="3.08" y2= "5.94" />
   <path class="fil7 str2" d="M1.19 3.36c0,0.05 -0.01,0.12 -0.01,0.17 0,0.41 0.23,0.85 0.49,1.13 0.1,0.1 0.2,0.2 0.32,0.27 0.19,0.11 0.24,0.07 0.24,0.19 0.02,0.26 0.03,0.42 0.04,0.68l0.05 0.68c0.01,0.14 0.12,1.96 0.13,2.01 0.09,-0.03 0.16,-0.05 0.25,-0.06 0.28,-0.06 0.56,-0.29 0.66,-0.59 0.05,-0.19 -0.05,-0.37 0.02,-0.57l0.23 -0.59c-0.01,-0.01 0.01,0.01 -0.01,-0.02 -0.01,-0.02 0,0 -0.01,-0.02 -0.1,-0.16 -0.23,-0.45 -0.33,-0.63 0.13,-0.17 0.35,-0.43 0.37,-0.63 0.02,-0.09 -0.01,-0.19 -0.02,-0.29 -0.02,-0.1 -0.02,-0.22 -0.04,-0.28 0.25,-0.19 0.35,-0.27 0.54,-0.61 0.12,-0.22 0.22,-0.5 0.23,-0.71 0.02,-0.25 0.02,-0.46 -0.05,-0.69 -0.06,-0.23 -0.14,-0.44 -0.3,-0.66 -0.17,-0.23 -0.37,-0.41 -0.6,-0.52 -0.23,-0.11 -0.42,-0.12 -0.62,-0.12l-0.3 0.04c-0.26,0.06 -0.53,0.23 -0.73,0.45 -0.02,0.03 -0.09,0.09 -0.1,0.12l0.01 0.02c0.07,0.08 0.1,0.11 0.17,0.17 0.18,-0.16 0.23,-0.32 0.52,-0.46 0.16,-0.09 0.37,-0.13 0.54,-0.13 0.12,0.01 0.42,0.05 0.55,0.14 0.37,0.25 0.66,0.64 0.73,1.13 0.03,0.17 0.05,0.45 0.01,0.62 -0.12,0.51 -0.41,0.88 -0.83,1.1 0,0.04 0.01,0.11 0.02,0.16l0.07 0.49c0,0.06 -0.04,0.1 -0.09,0.17l-0.34 0.55c0.1,0.16 0.21,0.39 0.3,0.57 0.06,0.1 0.05,0.05 -0.03,0.31l-0.14 0.47c-0.03,0.09 -0.03,0.07 -0.01,0.15 0,0.03 0.02,0.29 0.01,0.31 -0.08,0.22 -0.37,0.37 -0.5,0.37 -0.01,-0.03 -0.01,-0.05 -0.01,-0.1 -0.01,-0.26 -0.03,-0.49 -0.03,-0.76 -0.01,-0.07 0,-0.14 -0.01,-0.22l-0.05 -1.07c-0.01,-0.06 -0.01,-0.15 -0.01,-0.22 0,-0.08 0,-0.14 0,-0.22l-0.03 -0.43c0,-0.15 0,-0.29 -0.01,-0.43 -0.07,-0.04 -0.16,-0.03 -0.22,-0.04 -0.03,-0.01 -0.17,-0.09 -0.21,-0.11 -0.34,-0.19 -0.52,-0.55 -0.6,-0.95 0,-0.04 -0.01,-0.13 -0.02,-0.17 -0.01,-0.05 -0.01,-0.11 -0.02,-0.18 -0.03,0.01 -0.06,0.01 -0.11,0.01 -0.04,0.01 -0.06,0.01 -0.11,0z"/>
   <path class="fil7 str2" d="M1.28 2.64c-0.18,0.31 0.25,0.61 0.42,0.27 0.07,-0.12 0.05,-0.3 -0.08,-0.38 -0.1,-0.06 -0.26,-0.03 -0.34,0.11z"/>
   <ellipse class="fil9 str2" cx="2.39" cy="2.5" rx="0.34" ry="0.37"/>
  </g>
 </g>
</svg>
