<?xml version="1.0" encoding="UTF-8"?>
<!DOCTYPE svg PUBLIC "-//W3C//DTD SVG 1.1//EN" "http://www.w3.org/Graphics/SVG/1.1/DTD/svg11.dtd">
<!-- Creator: CorelDRAW 2021 (64 Bit) -->
<svg xmlns="http://www.w3.org/2000/svg" xml:space="preserve" width="530px" height="530px" version="1.1" style="shape-rendering:geometricPrecision; text-rendering:geometricPrecision; image-rendering:optimizeQuality; fill-rule:evenodd; clip-rule:evenodd"
viewBox="0 0 5.56 5.56"
 xmlns:xlink="http://www.w3.org/1999/xlink"
 xmlns:xodm="http://www.corel.com/coreldraw/odm/2003">
 <defs>
  <style type="text/css">
   <![CDATA[
    .str2 {stroke:#FF0303;stroke-width:0.21;stroke-miterlimit:22.9256}
    .str1 {stroke:#00E6FF;stroke-width:0.31;stroke-miterlimit:22.9256}
    .str0 {stroke:#B8B4B6;stroke-width:0.31;stroke-miterlimit:22.9256}
    .str3 {stroke:#FF0303;stroke-width:0.26;stroke-miterlimit:22.9256}
    .fil2 {fill:none}
    .fil6 {fill:black}
    .fil4 {fill:#999999}
    .fil1 {fill:yellow}
    .fil0 {fill:white}
    .fil5 {fill:black;fill-rule:nonzero}
    .fil3 {fill:#999999;fill-rule:nonzero}
   ]]>
  </style>
 </defs>
 <g id="Camada_x0020_1">
  <metadata id="CorelCorpID_0Corel-Layer"/>
  <g id="_2788536901456">
   <path class="fil0 str0" d="M0.39 0.16l4.78 0c0.13,0 0.23,0.11 0.23,0.26l0 4.72c0,0.14 -0.1,0.26 -0.23,0.26l-4.78 0c-0.12,0 -0.23,-0.12 -0.23,-0.26 0,-0.57 -0.01,-4.57 0,-4.78 0,-0.11 0.14,-0.2 0.23,-0.2z"/>
   <g>
    <g>
     <ellipse class="fil1 str1" cx="2.76" cy="2.58" rx="2.11" ry="1.99"/>
     <path class="fil2 str2" d="M1.52 2.63c0.14,0.49 0.45,0.86 0.94,1.06 0.04,-0.06 0.07,-0.13 0.1,-0.19 0.05,-0.11 0.07,-0.08 0.14,-0.05 0.15,0.05 0.3,0.09 0.44,0.14 0.06,0.02 0.07,0.01 0.08,0.09l0 0.24c-0.02,0.19 -0.17,0.3 -0.33,0.31 -0.24,0.01 -0.42,-0.01 -0.59,-0.08 -0.71,-0.28 -1.09,-0.84 -1.25,-1.33 -0.06,-0.19 -0.08,-0.35 -0.06,-0.52 0,-0.08 0.02,-0.25 0.07,-0.3 0.04,-0.04 0.1,-0.1 0.2,-0.11 0.12,0 0.17,0 0.3,-0.01 0.03,0 0.03,-0.01 0.04,0.02 0.05,0.18 0.11,0.35 0.16,0.53 0.01,0.04 -0.01,0.04 -0.04,0.07 -0.07,0.04 -0.14,0.08 -0.2,0.13z"/>
     <path class="fil2 str3" d="M1.95 1.89c0.39,0.03 0.74,0.2 1.02,0.51 0.25,0.3 0.36,0.63 0.33,0.96"/>
     <path class="fil2 str3" d="M3 1.35c0.26,0.03 0.51,0.16 0.7,0.38 0.18,0.22 0.27,0.44 0.26,0.67"/>
     <path class="fil2 str3" d="M2.5 1.58c0.31,0.04 0.61,0.19 0.84,0.46 0.22,0.26 0.33,0.54 0.32,0.81"/>
     <path class="fil2 str3" d="M3.47 1.17c0.2,0.02 0.39,0.12 0.54,0.29 0.14,0.17 0.2,0.34 0.2,0.52"/>
    </g>
    <g>
     <polygon class="fil3" points="0.44,4.96 0.44,4.23 1.11,4.23 1.11,4.35 0.64,4.35 0.64,4.53 1.04,4.53 1.04,4.65 0.64,4.65 0.64,4.96 "/>
     <path id="_1" class="fil3" d="M1.23 4.6c0,-0.08 0.01,-0.14 0.04,-0.19 0.02,-0.04 0.05,-0.07 0.09,-0.1 0.04,-0.03 0.08,-0.05 0.12,-0.06 0.07,-0.02 0.13,-0.03 0.21,-0.03 0.15,0 0.26,0.03 0.35,0.1 0.08,0.06 0.12,0.16 0.12,0.27 0,0.12 -0.04,0.21 -0.12,0.28 -0.09,0.07 -0.2,0.1 -0.34,0.1 -0.15,0 -0.26,-0.03 -0.35,-0.1 -0.08,-0.06 -0.12,-0.16 -0.12,-0.27zm0.2 -0.01c0,0.09 0.02,0.15 0.07,0.19 0.05,0.04 0.12,0.06 0.2,0.06 0.07,0 0.14,-0.02 0.19,-0.06 0.05,-0.04 0.07,-0.1 0.07,-0.19 0,-0.08 -0.02,-0.14 -0.07,-0.19 -0.05,-0.04 -0.11,-0.06 -0.19,-0.06 -0.08,0 -0.15,0.02 -0.2,0.06 -0.05,0.05 -0.07,0.11 -0.07,0.19z"/>
     <polygon id="_2" class="fil3" points="2.32,4.96 2.32,4.23 2.51,4.23 2.9,4.72 2.9,4.23 3.08,4.23 3.08,4.96 2.89,4.96 2.5,4.48 2.5,4.96 "/>
     <polygon id="_3" class="fil3" points="3.29,4.96 3.29,4.23 4.01,4.23 4.01,4.35 3.49,4.35 3.49,4.51 3.97,4.51 3.97,4.64 3.49,4.64 3.49,4.83 4.03,4.83 4.03,4.96 "/>
     <path id="_4" class="fil3" d="M4.14 4.72l0.19 -0.01c0.01,0.05 0.04,0.08 0.07,0.1 0.04,0.03 0.08,0.04 0.14,0.04 0.06,0 0.11,-0.01 0.14,-0.03 0.03,-0.02 0.05,-0.05 0.05,-0.07 0,-0.02 -0.01,-0.04 -0.02,-0.05 -0.01,-0.01 -0.04,-0.02 -0.07,-0.03 -0.02,0 -0.07,-0.02 -0.15,-0.03 -0.11,-0.02 -0.18,-0.04 -0.22,-0.07 -0.06,-0.04 -0.09,-0.09 -0.09,-0.15 0,-0.04 0.01,-0.07 0.04,-0.1 0.03,-0.04 0.07,-0.06 0.12,-0.08 0.05,-0.01 0.11,-0.02 0.19,-0.02 0.12,0 0.21,0.02 0.27,0.06 0.06,0.04 0.09,0.09 0.1,0.16l-0.2 0c-0.01,-0.03 -0.02,-0.06 -0.05,-0.08 -0.03,-0.01 -0.07,-0.02 -0.12,-0.02 -0.06,0 -0.1,0.01 -0.14,0.02 -0.02,0.02 -0.03,0.03 -0.03,0.05 0,0.02 0.01,0.03 0.03,0.04 0.03,0.02 0.09,0.04 0.18,0.05 0.1,0.02 0.17,0.04 0.21,0.06 0.05,0.01 0.08,0.04 0.11,0.07 0.02,0.03 0.04,0.07 0.04,0.12 0,0.04 -0.02,0.08 -0.05,0.11 -0.03,0.04 -0.07,0.07 -0.13,0.08 -0.06,0.02 -0.13,0.03 -0.21,0.03 -0.12,0 -0.22,-0.02 -0.28,-0.06 -0.07,-0.05 -0.11,-0.11 -0.12,-0.19z"/>
     <polygon id="_5" class="fil4" points="0.34,5.05 4.99,5.05 4.99,5.1 0.34,5.1 "/>
     <polygon class="fil5" points="0.56,4.88 0.56,4.15 1.22,4.15 1.22,4.28 0.75,4.28 0.75,4.45 1.16,4.45 1.16,4.57 0.75,4.57 0.75,4.88 "/>
     <path id="_1_0" class="fil5" d="M1.34 4.52c0,-0.07 0.02,-0.13 0.05,-0.18 0.02,-0.04 0.05,-0.07 0.09,-0.1 0.03,-0.03 0.08,-0.06 0.12,-0.07 0.06,-0.02 0.13,-0.03 0.21,-0.03 0.14,0 0.26,0.03 0.34,0.1 0.09,0.07 0.13,0.16 0.13,0.28 0,0.12 -0.04,0.21 -0.13,0.28 -0.08,0.06 -0.2,0.1 -0.34,0.1 -0.14,0 -0.26,-0.04 -0.34,-0.1 -0.09,-0.07 -0.13,-0.16 -0.13,-0.28zm0.2 0c0,0.08 0.03,0.14 0.08,0.19 0.05,0.04 0.11,0.06 0.19,0.06 0.08,0 0.14,-0.02 0.19,-0.06 0.05,-0.05 0.08,-0.11 0.08,-0.19 0,-0.09 -0.03,-0.15 -0.07,-0.19 -0.05,-0.04 -0.12,-0.06 -0.2,-0.06 -0.08,0 -0.14,0.02 -0.19,0.06 -0.05,0.04 -0.08,0.1 -0.08,0.19z"/>
     <polygon id="_2_1" class="fil5" points="2.43,4.88 2.43,4.15 2.62,4.15 3.02,4.64 3.02,4.15 3.2,4.15 3.2,4.88 3,4.88 2.61,4.4 2.61,4.88 "/>
     <polygon id="_3_2" class="fil5" points="3.41,4.88 3.41,4.15 4.12,4.15 4.12,4.28 3.6,4.28 3.6,4.44 4.09,4.44 4.09,4.56 3.6,4.56 3.6,4.76 4.14,4.76 4.14,4.88 "/>
     <path id="_4_3" class="fil5" d="M4.26 4.65l0.19 -0.02c0.01,0.05 0.03,0.09 0.07,0.11 0.03,0.02 0.08,0.03 0.14,0.03 0.06,0 0.11,-0.01 0.14,-0.03 0.03,-0.02 0.05,-0.04 0.05,-0.07 0,-0.02 -0.01,-0.03 -0.02,-0.04 -0.02,-0.01 -0.04,-0.03 -0.07,-0.03 -0.03,-0.01 -0.08,-0.02 -0.16,-0.04 -0.1,-0.02 -0.18,-0.04 -0.22,-0.07 -0.06,-0.04 -0.09,-0.09 -0.09,-0.15 0,-0.03 0.02,-0.07 0.04,-0.1 0.03,-0.03 0.07,-0.06 0.12,-0.07 0.06,-0.02 0.12,-0.03 0.19,-0.03 0.13,0 0.22,0.02 0.28,0.06 0.06,0.04 0.09,0.1 0.09,0.16l-0.19 0.01c-0.01,-0.04 -0.03,-0.07 -0.06,-0.08 -0.02,-0.02 -0.06,-0.03 -0.12,-0.03 -0.05,0 -0.1,0.01 -0.13,0.03 -0.02,0.01 -0.03,0.03 -0.03,0.04 0,0.02 0.01,0.04 0.03,0.05 0.02,0.01 0.08,0.03 0.18,0.05 0.09,0.01 0.16,0.03 0.21,0.05 0.04,0.02 0.08,0.04 0.1,0.07 0.03,0.04 0.04,0.07 0.04,0.12 0,0.04 -0.01,0.08 -0.04,0.12 -0.03,0.03 -0.08,0.06 -0.13,0.08 -0.06,0.02 -0.13,0.03 -0.22,0.03 -0.12,0 -0.21,-0.03 -0.28,-0.07 -0.06,-0.04 -0.1,-0.1 -0.11,-0.18z"/>
     <polygon id="_5_4" class="fil6" points="0.46,4.97 5.11,4.97 5.11,5.02 0.46,5.02 "/>
    </g>
   </g>
  </g>
 </g>
</svg>
