<?xml version="1.0" encoding="UTF-8"?>
<!DOCTYPE svg PUBLIC "-//W3C//DTD SVG 1.1//EN" "http://www.w3.org/Graphics/SVG/1.1/DTD/svg11.dtd">
<!-- Creator: CorelDRAW 2021 (64 Bit) -->
<svg xmlns="http://www.w3.org/2000/svg" xml:space="preserve" width="530px" height="530px" version="1.1" style="shape-rendering:geometricPrecision; text-rendering:geometricPrecision; image-rendering:optimizeQuality; fill-rule:evenodd; clip-rule:evenodd"
viewBox="0 0 10.19 10.19"
 xmlns:xlink="http://www.w3.org/1999/xlink"
 xmlns:xodm="http://www.corel.com/coreldraw/odm/2003">
 <defs>
  <style type="text/css">
   <![CDATA[
    .str0 {stroke:#B8B4B6;stroke-width:0.58;stroke-miterlimit:22.9256}
    .str1 {stroke:black;stroke-width:0.67;stroke-miterlimit:22.9256}
    .str2 {stroke:#F7FF00;stroke-width:0.67;stroke-miterlimit:22.9256}
    .fil1 {fill:none}
    .fil0 {fill:white}
    .fil3 {fill:#ED3237;fill-rule:nonzero}
    .fil2 {fill:black;fill-rule:nonzero}
   ]]>
  </style>
 </defs>
 <g id="Camada_x0020_1">
  <metadata id="CorelCorpID_0Corel-Layer"/>
  <g id="_2069751231456">
   <path class="fil0 str0" d="M0.72 0.29l8.76 0c0.23,0 0.42,0.21 0.42,0.48l0 8.65c0,0.27 -0.19,0.48 -0.42,0.48l-8.76 0c-0.23,0 -0.42,-0.21 -0.42,-0.48 0,-1.04 -0.02,-8.38 -0.01,-8.75 0,-0.21 0.26,-0.38 0.43,-0.38z"/>
   <g>
    <ellipse class="fil1 str1" cx="5.16" cy="5.17" rx="3.76" ry="3.77"/>
    <ellipse class="fil1 str2" cx="5.16" cy="5.17" rx="3.42" ry="3.43"/>
    <polygon class="fil2" points="3.21,7.63 3.21,2.66 3.87,2.66 3.87,4.71 6.43,4.71 6.43,2.66 7.09,2.66 7.09,7.63 6.43,7.63 6.43,5.29 3.87,5.29 3.87,7.63 "/>
    <path class="fil3" d="M5.44 6.13l-0.73 0c0,-0.1 -0.01,-0.17 -0.01,-0.19 0,-0.23 0.04,-0.43 0.12,-0.58 0.08,-0.15 0.24,-0.32 0.47,-0.52 0.23,-0.19 0.37,-0.31 0.42,-0.37 0.07,-0.09 0.11,-0.2 0.11,-0.31 0,-0.15 -0.07,-0.29 -0.19,-0.4 -0.13,-0.11 -0.29,-0.16 -0.51,-0.16 -0.2,0 -0.37,0.06 -0.51,0.17 -0.14,0.12 -0.23,0.3 -0.28,0.53l-0.74 -0.09c0.02,-0.34 0.17,-0.63 0.44,-0.87 0.27,-0.24 0.62,-0.36 1.06,-0.36 0.46,0 0.83,0.12 1.1,0.36 0.27,0.25 0.41,0.52 0.41,0.85 0,0.17 -0.05,0.34 -0.15,0.5 -0.1,0.16 -0.31,0.37 -0.64,0.64 -0.17,0.14 -0.28,0.26 -0.32,0.34 -0.04,0.09 -0.06,0.24 -0.05,0.46zm-0.73 1.08l0 -0.8 0.73 0 0 0.8 -0.73 0z"/>
   </g>
  </g>
 </g>
</svg>
