<?xml version="1.0" encoding="UTF-8"?>
<!DOCTYPE svg PUBLIC "-//W3C//DTD SVG 1.1//EN" "http://www.w3.org/Graphics/SVG/1.1/DTD/svg11.dtd">
<!-- Creator: CorelDRAW 2021 (64 Bit) -->
<svg xmlns="http://www.w3.org/2000/svg" xml:space="preserve" width="401px" height="401px" version="1.1" style="shape-rendering:geometricPrecision; text-rendering:geometricPrecision; image-rendering:optimizeQuality; fill-rule:evenodd; clip-rule:evenodd"
viewBox="0 0 4.3 4.3"
 xmlns:xlink="http://www.w3.org/1999/xlink"
 xmlns:xodm="http://www.corel.com/coreldraw/odm/2003">
 <defs>
  <style type="text/css">
   <![CDATA[
    .str1 {stroke:white;stroke-width:0.01;stroke-miterlimit:22.9256}
    .str0 {stroke:#A8A1A1;stroke-width:0.33;stroke-miterlimit:22.9256}
    .fil1 {fill:none}
    .fil0 {fill:white}
    .fil2 {fill:#373435;fill-rule:nonzero}
   ]]>
  </style>
 </defs>
 <g id="Camada_x0020_1">
  <metadata id="CorelCorpID_0Corel-Layer"/>
  <g id="_2069524475824">
   <path class="fil0 str0" d="M0.83 0.17l2.65 0c0.36,0 0.66,0.33 0.66,0.74l0 2.49c0,0.41 -0.3,0.74 -0.66,0.74l-2.65 0c-0.37,0 -0.66,-0.33 -0.66,-0.74l0 -2.49c0,-0.41 0.29,-0.74 0.66,-0.74z"/>
   <g id="_2087475760288">
    <line class="fil1 str1" x1="2.15" y1="0.17" x2="2.15" y2= "0.17" />
   </g>
   <g>
    <path class="fil2" d="M1.25 1.11l0 0.07c-0.03,0.01 -0.05,0.02 -0.06,0.04 -0.02,0.01 -0.02,0.03 -0.02,0.06 0,0.02 0,0.04 0.01,0.06 0.02,0.01 0.04,0.03 0.06,0.05 0.02,0.01 0.07,0.03 0.13,0.05 0.04,0.02 0.07,0.04 0.1,0.05 0.02,0.02 0.04,0.03 0.06,0.05 0.05,0.06 0.08,0.13 0.08,0.2 0,0.06 -0.02,0.11 -0.04,0.16 -0.03,0.05 -0.07,0.09 -0.12,0.12 -0.03,0.01 -0.06,0.02 -0.09,0.03 -0.03,0.01 -0.06,0.01 -0.09,0.01l0 -0.07c0.04,-0.01 0.07,-0.03 0.08,-0.04 0.02,-0.02 0.03,-0.04 0.03,-0.07 0,-0.03 -0.01,-0.06 -0.04,-0.08 -0.02,-0.02 -0.05,-0.03 -0.1,-0.06 -0.06,-0.02 -0.1,-0.04 -0.12,-0.05 -0.02,-0.01 -0.04,-0.02 -0.06,-0.04 -0.08,-0.06 -0.12,-0.14 -0.12,-0.24 0,-0.05 0.01,-0.09 0.03,-0.14 0.02,-0.04 0.05,-0.08 0.09,-0.1 0.05,-0.04 0.11,-0.06 0.19,-0.06zm0.05 0.07l0 -0.07c0.03,0 0.05,0 0.07,0.01 0.02,0 0.05,0.02 0.09,0.03 0.01,0 0.02,0.01 0.02,0.01 0.01,0 0.02,-0.01 0.02,-0.01l0.01 -0.02c0.01,-0.01 0.02,-0.02 0.03,-0.02 0.01,0 0.02,0.01 0.03,0.02 0,0 0.01,0.02 0.01,0.04l0 0.22c0,0.01 -0.01,0.02 -0.01,0.03 -0.01,0.01 -0.02,0.01 -0.03,0.01 -0.01,0 -0.02,0 -0.03,0 0,-0.01 -0.01,-0.01 -0.01,-0.02 0,0 0,-0.01 -0.01,-0.02 0,-0.03 -0.01,-0.05 -0.02,-0.07 -0.01,-0.02 -0.03,-0.05 -0.04,-0.06 -0.04,-0.04 -0.08,-0.06 -0.13,-0.08zm-0.08 0.81l0 0.07c-0.04,0 -0.08,-0.01 -0.12,-0.03 -0.02,-0.01 -0.03,-0.01 -0.04,-0.01 -0.01,-0.01 -0.01,-0.01 -0.02,-0.01 -0.01,0 -0.01,0 -0.02,0.01 0,0 -0.01,0.01 -0.02,0.02 -0.01,0.01 -0.02,0.01 -0.03,0.01 -0.02,0 -0.03,-0.02 -0.03,-0.05l0 -0.25c0,-0.01 0,-0.02 0.01,-0.03 0.01,-0.01 0.01,-0.01 0.02,-0.01 0.01,-0.01 0.02,0 0.03,0 0,0.01 0.01,0.02 0.01,0.04 0.01,0.03 0.03,0.07 0.05,0.1 0.02,0.04 0.04,0.07 0.07,0.09 0.02,0.02 0.05,0.04 0.09,0.05z"/>
    <path id="_1" class="fil2" d="M2.08 1.12l0 0.92 -0.3 0 -0.02 0c-0.01,0 -0.02,0 -0.03,0 -0.01,-0.01 -0.02,-0.02 -0.02,-0.03 0,-0.02 0.01,-0.03 0.03,-0.04 0.02,0 0.02,0 0.03,-0.01 0,0 0,0 0,0 0.01,-0.01 0.01,-0.02 0.01,-0.04l0 -0.67c0,-0.02 0,-0.03 -0.01,-0.04 0,0 0,0 0,-0.01 -0.01,0 -0.01,0 -0.03,0 -0.02,-0.01 -0.03,-0.02 -0.03,-0.04 0,-0.01 0.01,-0.02 0.02,-0.03 0.01,0 0.02,-0.01 0.03,-0.01l0.02 0 0.3 0zm0.06 0l0.27 0 0 0.24c0,0.02 0,0.03 0,0.03 -0.01,0.01 -0.02,0.01 -0.03,0.01 -0.01,0 -0.02,0 -0.02,0 -0.01,-0.01 -0.01,-0.02 -0.01,-0.03 -0.02,-0.05 -0.05,-0.09 -0.08,-0.12 -0.03,-0.03 -0.08,-0.04 -0.13,-0.05l0 -0.08zm0 0.5l0 -0.08c0.02,-0.02 0.04,-0.03 0.06,-0.04 0.01,-0.02 0.02,-0.04 0.02,-0.06 0.01,-0.02 0.01,-0.03 0.02,-0.04 0,-0.01 0.01,-0.01 0.02,-0.01 0.02,0 0.03,0.01 0.03,0.02 0.01,0 0.01,0.02 0.01,0.04l0 0.26c0,0.02 0,0.03 -0.01,0.04 0,0.01 -0.01,0.01 -0.03,0.01 -0.01,0 -0.01,0 -0.02,-0.01 -0.01,0 -0.01,-0.01 -0.01,-0.03 -0.01,-0.03 -0.02,-0.05 -0.04,-0.07 -0.01,-0.02 -0.03,-0.03 -0.05,-0.03zm0 0.42l0 -0.07c0.03,0 0.06,-0.01 0.08,-0.02 0.01,-0.01 0.03,-0.02 0.05,-0.03 0.02,-0.02 0.04,-0.04 0.05,-0.06 0.01,-0.01 0.02,-0.04 0.03,-0.07 0.01,-0.01 0.01,-0.02 0.02,-0.03 0,0 0.01,0 0.02,0 0.01,0 0.02,0 0.03,0.01 0,0 0,0.02 0,0.04l0 0.23 -0.28 0z"/>
    <path id="_2" class="fil2" d="M3.13 1.12l0.29 0 0.02 0c0.04,0 0.05,0.02 0.05,0.04 0,0.02 -0.01,0.03 -0.02,0.04 -0.02,0 -0.03,0 -0.03,0 0,0.01 0,0.01 -0.01,0.01 0,0.01 -0.01,0.02 -0.01,0.04l0 0.67c0,0.02 0.01,0.03 0.01,0.04 0.01,0 0.01,0 0.01,0 0,0.01 0.01,0.01 0.03,0.01 0.01,0.01 0.02,0.02 0.02,0.04 0,0.02 -0.01,0.03 -0.05,0.03l-0.02 0 -0.3 0 -0.02 0c-0.02,0 -0.03,0 -0.04,0 -0.01,-0.01 -0.02,-0.02 -0.02,-0.03 0,-0.02 0.01,-0.03 0.03,-0.04 0.02,0 0.03,-0.01 0.04,-0.01 0,0 0,0 0.01,-0.01 0,0 0.01,-0.02 0.01,-0.03l0 -0.8zm-0.25 0l0.13 0.38 0.06 -0.2 0 0.22 -0.16 0.52 -0.03 0 -0.26 -0.77c-0.01,-0.03 -0.02,-0.05 -0.03,-0.05 -0.01,-0.01 -0.02,-0.01 -0.03,-0.02 -0.03,0 -0.04,-0.02 -0.04,-0.04 0,-0.01 0,-0.02 0.01,-0.03 0.01,0 0.02,-0.01 0.03,-0.01l0.32 0zm-0.26 0.31l0.07 0.21 0 0.2c0,0.02 0,0.04 0,0.05 0,0 0.01,0.01 0.01,0.03 0.01,0.02 0.02,0.03 0.04,0.04l0.02 0.02c0.02,0.01 0.03,0.02 0.03,0.03 0,0.02 -0.02,0.03 -0.05,0.03l-0.17 0c-0.03,0 -0.05,-0.01 -0.05,-0.03 0,-0.01 0,-0.01 0,-0.02 0.01,0 0.01,0 0.02,-0.01 0.05,-0.03 0.08,-0.07 0.08,-0.14l0 -0.41z"/>
   </g>
   <path class="fil2" d="M1.4 3.42l-0.3 0 -0.02 0c-0.01,0 -0.02,0 -0.03,-0.01 -0.01,0 -0.02,-0.01 -0.02,-0.02 0,-0.02 0.01,-0.03 0.03,-0.04 0.02,-0.01 0.02,-0.01 0.03,-0.01 0,0 0,0 0,-0.01 0.01,0 0.01,-0.02 0.01,-0.03l0 -0.68c0,-0.01 0,-0.02 -0.01,-0.03 0,0 0,-0.01 0,-0.01 -0.01,0 -0.01,0 -0.03,-0.01 -0.02,0 -0.03,-0.02 -0.03,-0.03 0,-0.02 0.01,-0.02 0.02,-0.03 0.01,-0.01 0.02,-0.01 0.03,-0.01l0.02 0 0.3 0 0.02 0c0.02,0 0.03,0 0.04,0.01 0.01,0.01 0.01,0.01 0.01,0.03 0,0.01 -0.01,0.03 -0.03,0.03 -0.01,0.01 -0.02,0.01 -0.02,0.01 0,0 -0.01,0.01 -0.01,0.01 0,0.01 -0.01,0.02 -0.01,0.03l0 0.68c0,0.01 0.01,0.03 0.01,0.03 0,0.01 0.01,0.01 0.01,0.01 0,0 0.01,0 0.02,0.01 0.02,0.01 0.03,0.02 0.03,0.04 0,0.01 0,0.02 -0.01,0.02 -0.01,0.01 -0.02,0.01 -0.04,0.01l-0.02 0z"/>
   <path id="_1_0" class="fil2" d="M2.18 2.5l0.3 0 0.02 0c0.03,0 0.05,0.01 0.05,0.04 0,0.01 -0.01,0.03 -0.03,0.03 -0.01,0.01 -0.02,0.01 -0.02,0.01 0,0 -0.01,0.01 -0.01,0.01 -0.01,0.01 -0.01,0.02 -0.01,0.03l0 0.68c0,0.01 0,0.03 0.01,0.03 0,0.01 0.01,0.01 0.01,0.01 0,0 0.01,0 0.02,0.01 0.02,0.01 0.03,0.02 0.03,0.04 0,0.02 -0.02,0.03 -0.05,0.03l-0.02 0 -0.3 0 -0.02 0c-0.02,0 -0.03,0 -0.05,-0.01 -0.01,0 -0.01,-0.01 -0.01,-0.03 0,-0.01 0.01,-0.03 0.03,-0.03 0.02,-0.01 0.03,-0.01 0.03,-0.01 0.01,0 0.01,0 0.01,-0.01 0.01,-0.01 0.01,-0.02 0.01,-0.04l0 -0.79zm-0.24 0l0.13 0.38 0.06 -0.2 0 0.22 -0.16 0.52 -0.03 0 -0.26 -0.78c-0.01,-0.02 -0.02,-0.04 -0.03,-0.05 -0.01,0 -0.02,-0.01 -0.03,-0.01 -0.03,-0.01 -0.05,-0.02 -0.05,-0.04 0,-0.01 0.01,-0.02 0.02,-0.03 0,-0.01 0.02,-0.01 0.03,-0.01l0.32 0zm-0.27 0.31l0.08 0.2 0 0.21c0,0.02 0,0.03 0,0.04 0,0.01 0,0.02 0.01,0.03 0.01,0.02 0.02,0.04 0.04,0.05l0.02 0.01c0.02,0.01 0.03,0.02 0.03,0.04 0,0.02 -0.02,0.03 -0.05,0.03l-0.17 0c-0.04,0 -0.05,-0.01 -0.05,-0.03 0,-0.01 0,-0.02 0,-0.02 0,0 0.01,-0.01 0.02,-0.01 0.05,-0.03 0.07,-0.08 0.07,-0.14l0 -0.41z"/>
   <path id="_2_1" class="fil2" d="M3.01 2.48l0 0.08c-0.04,0.01 -0.06,0.04 -0.06,0.09l0 0.63c0,0.02 0.01,0.04 0.01,0.06 0.01,0.01 0.02,0.02 0.04,0.02l0 0.08c-0.01,0 -0.03,0 -0.04,0 -0.01,-0.01 -0.03,-0.01 -0.05,-0.02 -0.04,-0.01 -0.09,-0.04 -0.12,-0.07 -0.04,-0.03 -0.07,-0.07 -0.1,-0.12 -0.04,-0.07 -0.06,-0.16 -0.06,-0.26 0,-0.09 0.02,-0.18 0.05,-0.25 0.04,-0.08 0.09,-0.14 0.15,-0.18 0.04,-0.02 0.08,-0.04 0.12,-0.05 0.02,-0.01 0.04,-0.01 0.06,-0.01zm0.06 0.08l0 -0.08c0.07,0.01 0.13,0.02 0.18,0.04 0.01,0.01 0.02,0.01 0.03,0.01 0.01,0 0.01,0 0.02,0 0,0 0.01,-0.01 0.02,-0.03 0.01,-0.01 0.02,-0.02 0.03,-0.02 0.01,0 0.02,0.01 0.03,0.01 0,0.01 0,0.02 0,0.04l0 0.26c0,0.03 -0.01,0.05 -0.03,0.05 -0.02,0 -0.03,0 -0.03,-0.01 -0.01,-0.01 -0.01,-0.02 -0.02,-0.04 -0.01,-0.02 -0.02,-0.05 -0.03,-0.09 -0.02,-0.03 -0.04,-0.06 -0.06,-0.08 -0.01,-0.02 -0.03,-0.03 -0.06,-0.05 -0.02,-0.01 -0.05,-0.01 -0.08,-0.01zm0.3 0.75c-0.02,0.02 -0.04,0.03 -0.07,0.05 -0.03,0.02 -0.06,0.04 -0.08,0.05 -0.03,0.01 -0.06,0.01 -0.09,0.02 -0.02,0.01 -0.05,0.01 -0.07,0.01l0 -0.08c0.01,0 0.02,0 0.03,-0.01 0,0 0.01,-0.01 0.01,-0.02 0.01,-0.01 0.01,-0.03 0.01,-0.05l0 -0.2c0,-0.01 0,-0.03 -0.01,-0.03 0,-0.01 0,-0.01 -0.01,-0.01 0,0 -0.01,-0.01 -0.03,-0.01 -0.02,-0.01 -0.03,-0.02 -0.03,-0.04 0,-0.01 0.01,-0.02 0.02,-0.03 0.01,0 0.02,-0.01 0.04,-0.01l0.02 0 0.25 0c0.02,0 0.04,0.01 0.04,0.01 0.01,0.01 0.02,0.02 0.02,0.03 0,0.01 -0.01,0.02 -0.01,0.02 0,0.01 -0.01,0.02 -0.02,0.02 -0.01,0.01 -0.01,0.01 -0.01,0.02 -0.01,0 -0.01,0.01 -0.01,0.03l0 0.23z"/>
  </g>
 </g>
</svg>
