<?xml version="1.0" encoding="UTF-8"?>
<!DOCTYPE svg PUBLIC "-//W3C//DTD SVG 1.1//EN" "http://www.w3.org/Graphics/SVG/1.1/DTD/svg11.dtd">
<!-- Creator: CorelDRAW 2021 (64 Bit) -->
<svg xmlns="http://www.w3.org/2000/svg" xml:space="preserve" width="530px" height="530px" version="1.1" style="shape-rendering:geometricPrecision; text-rendering:geometricPrecision; image-rendering:optimizeQuality; fill-rule:evenodd; clip-rule:evenodd"
viewBox="0 0 5.55 5.55"
 xmlns:xlink="http://www.w3.org/1999/xlink"
 xmlns:xodm="http://www.corel.com/coreldraw/odm/2003">
 <defs>
  <style type="text/css">
   <![CDATA[
    .str0 {stroke:#B8B4B6;stroke-width:0.31;stroke-miterlimit:22.9256}
    .str2 {stroke:black;stroke-width:0.01;stroke-miterlimit:22.9256}
    .str1 {stroke:black;stroke-width:0.05;stroke-miterlimit:22.9256}
    .str3 {stroke:black;stroke-width:0.03;stroke-miterlimit:22.9256}
    .fil3 {fill:#00CCFF}
    .fil4 {fill:lime}
    .fil1 {fill:#B3B3B3}
    .fil2 {fill:#E0DDDD}
    .fil6 {fill:fuchsia}
    .fil7 {fill:#FFCC00}
    .fil5 {fill:yellow}
    .fil0 {fill:white}
   ]]>
  </style>
 </defs>
 <g id="Camada_x0020_1">
  <metadata id="CorelCorpID_0Corel-Layer"/>
  <g id="_2789543571536">
   <path class="fil0 str0" d="M0.39 0.16l4.78 0c0.12,0 0.23,0.11 0.23,0.26l0 4.71c0,0.15 -0.11,0.27 -0.23,0.27l-4.78 0c-0.12,0 -0.23,-0.12 -0.23,-0.27 0,-0.56 -0.01,-4.56 0,-4.77 0,-0.11 0.14,-0.2 0.23,-0.2z"/>
   <g>
    <polygon class="fil1 str1" points="1.69,1.9 1.38,2.17 1.38,1.78 1.69,1.51 "/>
    <polygon class="fil2 str2" points="2.72,1 0.41,3.02 2.72,5.03 5.02,3.02 "/>
    <polygon class="fil3 str1" points="1.38,2.17 2.13,2.82 2.13,2.43 1.38,1.78 "/>
    <polygon class="fil3 str1" points="0.42,2.63 0.41,3.02 1.38,2.17 1.38,1.78 "/>
    <polygon class="fil3 str1" points="0.42,2.63 0.42,3.02 1.16,3.67 1.16,3.28 "/>
    <polygon class="fil3 str1" points="1.16,3.28 1.16,3.67 1.91,3.02 1.91,2.7 2.02,2.63 2.02,2.92 2.13,2.82 2.13,2.43 "/>
    <polygon class="fil4 str1" points="2.71,1 3.47,1.65 3.47,1.26 2.71,0.62 "/>
    <polygon class="fil4 str1" points="1.69,1.51 1.69,1.9 2.71,1 2.71,0.62 "/>
    <polygon class="fil4 str1" points="1.69,1.51 1.69,1.9 2.44,2.55 2.44,2.16 "/>
    <polygon class="fil4 str1" points="2.44,2.17 2.44,2.55 3.25,1.85 3.24,1.54 3.35,1.46 3.35,1.76 3.47,1.65 3.47,1.26 "/>
    <polygon class="fil5 str1" points="3.62,2.93 3.28,3.23 3.28,2.93 3.2,3 3.2,3.3 2.94,3.53 2.94,3.14 3.62,2.54 "/>
    <polygon class="fil6 str1" points="2.94,3.53 3.68,4.18 3.68,3.79 2.94,3.14 "/>
    <polygon class="fil6 str1" points="1.97,3.99 1.97,4.37 2.59,3.83 2.59,3.52 2.71,3.42 2.71,3.73 2.94,3.53 2.94,3.14 "/>
    <polygon class="fil6 str1" points="1.97,3.99 1.97,4.38 2.72,5.03 2.72,4.64 "/>
    <polygon class="fil6 str1" points="2.72,4.65 2.72,5.03 3.69,4.19 3.69,3.8 "/>
    <polygon class="fil1 str1" points="1.97,4.37 1.69,4.13 1.69,3.84 1.43,3.61 1.43,3.9 1.16,3.67 1.16,3.28 1.97,3.99 "/>
    <polygon class="fil1 str2" points="4.27,2.36 3.47,1.65 3.47,1.26 4.27,1.97 "/>
    <polygon class="fil7 str1" points="4.27,1.97 4.27,2.36 5.02,3.02 5.02,2.63 "/>
    <polygon class="fil7 str1" points="3.62,2.54 3.62,2.93 4.09,2.52 4.09,2.22 4.19,2.13 4.19,2.44 4.27,2.36 4.27,1.97 "/>
    <polygon class="fil5 str1" points="3.62,2.54 3.62,2.93 4.37,3.59 4.37,3.2 "/>
    <polygon class="fil7 str1" points="4.37,3.2 4.37,3.59 5.02,3.02 5.02,2.63 "/>
    <polygon class="fil5 str3" points="3.69,4.19 4.37,3.59 4.37,3.2 3.68,3.8 "/>
   </g>
  </g>
 </g>
</svg>
