<?xml version="1.0" encoding="UTF-8"?>
<!DOCTYPE svg PUBLIC "-//W3C//DTD SVG 1.1//EN" "http://www.w3.org/Graphics/SVG/1.1/DTD/svg11.dtd">
<!-- Creator: CorelDRAW 2021 (64 Bit) -->
<svg xmlns="http://www.w3.org/2000/svg" xml:space="preserve" width="550px" height="550px" version="1.1" style="shape-rendering:geometricPrecision; text-rendering:geometricPrecision; image-rendering:optimizeQuality; fill-rule:evenodd; clip-rule:evenodd"
viewBox="0 0 47.95 47.95"
 xmlns:xlink="http://www.w3.org/1999/xlink"
 xmlns:xodm="http://www.corel.com/coreldraw/odm/2003">
 <defs>
  <style type="text/css">
   <![CDATA[
    .str2 {stroke:#AEA19E;stroke-width:1.39;stroke-miterlimit:22.9256;stroke-opacity:0.949020}
    .str0 {stroke:#B8B4B6;stroke-width:4.36;stroke-miterlimit:22.9256}
    .str1 {stroke:white;stroke-width:0.17;stroke-miterlimit:22.9256}
    .str3 {stroke:black;stroke-width:1.05;stroke-miterlimit:22.9256}
    .fil4 {fill:none}
    .fil1 {fill:#E6E7E8}
    .fil5 {fill:black}
    .fil9 {fill:#008CFF}
    .fil11 {fill:#04F9FD}
    .fil8 {fill:#333333}
    .fil10 {fill:#60FE04}
    .fil19 {fill:#615E5C}
    .fil18 {fill:#A7A786}
    .fil15 {fill:#BF08FC}
    .fil17 {fill:#D2AD6D}
    .fil12 {fill:#FA0404}
    .fil14 {fill:#FDFD00}
    .fil6 {fill:#FDFDCA}
    .fil13 {fill:#FE9800}
    .fil7 {fill:#FEFEFE}
    .fil16 {fill:#FF4CE7}
    .fil0 {fill:white}
    .fil2 {fill:#333333;fill-rule:nonzero}
    .fil3 {fill:#FEFEFE;fill-rule:nonzero;fill-opacity:0.949020}
   ]]>
  </style>
 </defs>
 <g id="Camada_x0020_1">
  <metadata id="CorelCorpID_0Corel-Layer"/>
  <g id="_2069692743840">
   <path class="fil0 str0" d="M4.14 2.18l39.72 0c1.06,0 1.91,0.98 1.91,2.18l0 39.23c0,1.2 -0.85,2.18 -1.91,2.18l-39.72 0c-1.06,0 -1.91,-0.98 -1.91,-2.18 0,-4.71 -0.07,-37.99 -0.04,-39.7 0.01,-0.94 1.16,-1.71 1.95,-1.71z"/>
   <g>
    <g>
     <rect class="fil1 str1" x="7.73" y="28.41" width="5.82" height="13.4"/>
     <path class="fil2" d="M23.21 42.67c-1.12,0 -2.22,-0.41 -3.29,-0.81 -1.18,-0.43 -2.39,-0.89 -3.6,-0.78l-2.97 0.26 0 -11.54 1.62 -0.14c1,-0.09 1.85,0.3 2.66,0.68 0.77,0.36 1.49,0.7 2.32,0.62l5.32 -0.96c1.91,-0.33 2.96,0.77 3.6,1.78l5.82 -2.7c2.19,-0.99 4.65,0 6.13,2.46 0.39,0.64 0.18,1.5 -0.48,1.91 -0.75,0.47 -1.5,0.94 -2.25,1.4 -6.49,4.08 -12.1,7.6 -14.5,7.81 -0.13,0.01 -0.25,0.01 -0.38,0.01zm-6.52 -2.4c1.22,0 2.38,0.43 3.51,0.85 1.16,0.43 2.26,0.83 3.32,0.74 2.21,-0.19 8.01,-3.83 14.15,-7.68 0.74,-0.47 1.5,-0.94 2.25,-1.41 0.29,-0.18 0.39,-0.55 0.22,-0.82 -1.26,-2.1 -3.32,-2.96 -5.12,-2.15l-6.47 3.01c-0.01,-0.42 -0.33,-0.91 -0.51,-1.12 -0.6,-0.71 -1.75,-1.06 -2.63,-0.91l-5.36 0.98c-1.07,0.08 -1.93,-0.31 -2.75,-0.7 -0.76,-0.35 -1.47,-0.68 -2.26,-0.61l-0.89 0.08 0 9.94 2.1 -0.19c0.15,-0.01 0.3,-0.01 0.44,-0.01z"/>
     <path class="fil3 str2" d="M12.79 42.67l-4.55 0c-0.74,0 -1.35,-0.61 -1.35,-1.35l0 -12.25c0,-0.74 0.61,-1.35 1.35,-1.35l4.55 0c0.75,0 1.36,0.61 1.36,1.35l0 12.25c0,0.74 -0.61,1.35 -1.36,1.35zm-4.55 -14.15c-0.3,0 -0.55,0.25 -0.55,0.55l0 12.25c0,0.3 0.25,0.55 0.55,0.55l4.55 0c0.31,0 0.56,-0.25 0.56,-0.55l0 -12.25c0,-0.3 -0.25,-0.55 -0.56,-0.55l-4.55 0z"/>
     <path class="fil4 str3" d="M28.86 32.61c0.1,0.18 0.11,0.51 -0.11,0.86 -0.35,0.56 -1.13,0.98 -3.05,0.76 -1.42,-0.17 -3.12,0.16 -4.59,0.32"/>
    </g>
    <g>
     <path class="fil5" d="M24.77 24.88c-0.49,1.76 -3.08,1.1 -2.67,-0.66 0.15,-0.66 0.84,-1.22 1.7,-1.01 0.59,0.15 1.2,0.85 0.97,1.67zm3.54 -2.55c-0.29,-1.84 2.41,-2.19 2.71,-0.5 0.34,1.92 -2.44,2.21 -2.71,0.5zm-9.46 0.06c-0.52,1.68 -3.12,1.03 -2.64,-0.78 0.47,-1.75 3.19,-0.97 2.64,0.78zm2.77 -2.81l4.07 0c-0.01,0.01 -0.03,0.01 -0.03,0.03 -0.1,0.32 -2.66,1 -3.92,0.07 -0.09,-0.07 -0.07,-0.05 -0.12,-0.1zm1.13 -1.84l-0.6 0 0 1.21 -0.49 0c-0.06,-0.37 -0.05,-1.74 0.02,-2.06 0.32,-0.15 3.79,-0.15 4.02,0 0.18,0.26 0.13,1.63 0.07,2.06l-0.33 0 -0.04 -1.24 -0.59 -0.04 -0.01 1.28 -2.03 0.02 -0.02 -1.23zm-8.97 -1.56c-0.14,-1.87 2.59,-1.99 2.73,-0.25 0.16,1.85 -2.61,1.99 -2.73,0.25zm17.07 -0.06c-0.29,-1.84 2.4,-2.21 2.71,-0.5 0.16,0.86 -0.43,1.51 -1.12,1.62 -0.81,0.12 -1.48,-0.46 -1.59,-1.12zm-9.87 3.06c-0.04,-0.1 -2.17,-1.75 -1.19,-4.54 1.2,-3.39 6.11,-3.73 7.64,-0.22 0.35,0.8 0.43,1.78 0.21,2.66 -0.29,1.15 -0.78,1.45 -1.2,1.99 -0.14,-0.73 0.17,-2.05 -0.23,-2.56 -0.39,-0.52 -2.88,-0.32 -3.95,-0.33 -1.97,0 -0.95,1.81 -1.28,3zm8.56 -10.35c0.83,-0.2 1.47,0.36 1.62,0.98 0.21,0.84 -0.34,1.53 -0.97,1.69 -1.75,0.43 -2.52,-2.2 -0.65,-2.67zm-12.31 -0.13c0.82,-0.28 1.55,0.31 1.73,0.91 0.24,0.81 -0.27,1.51 -0.88,1.7 -1.73,0.54 -2.62,-2.01 -0.85,-2.61zm6.16 -2.54c1.75,-0.58 2.58,2.05 0.84,2.61 -1.69,0.54 -2.58,-2.03 -0.84,-2.61zm1.02 5.26l-0.38 -0.05 0.1 -1.4 -0.01 -0.63c0.3,-0.19 1.64,-0.46 1.57,-1.99 -0.11,-2.32 -3.56,-2.34 -3.74,-0.06 -0.04,0.56 0.14,1.03 0.44,1.36 0.58,0.64 0.75,0.46 1.1,0.69l-0.02 1.95c-0.98,0.27 -1.17,0.06 -2.31,0.74 -0.28,0.17 -0.39,0.28 -0.64,0.43l-1.36 -1.29c0.16,-0.49 0.41,-0.66 0.34,-1.38 -0.16,-1.52 -2.04,-2.2 -3.11,-1.17 -1.63,1.55 0.23,4.14 2.27,2.96l1.42 1.35c-0.65,0.73 -1.05,1.74 -1.14,2.78l-1.95 0.04c-0.34,-2.26 -3.72,-1.97 -3.72,0.3 0,2.28 3.38,2.57 3.72,0.32l1.95 0c0.11,1.3 0.52,1.94 1.06,2.71 -0.12,0.13 -0.21,0.2 -0.34,0.33 -0.38,0.38 -0.55,0.62 -1.06,1 -0.64,-0.2 -1.56,-0.73 -2.54,0.43 -0.71,0.84 -0.41,1.94 0.23,2.55 0.92,0.89 2.88,0.5 3.1,-1.14 0.09,-0.69 -0.14,-0.93 -0.34,-1.4 0.37,-0.26 0.88,-0.95 1.41,-1.3 0.18,0.11 0.34,0.28 0.55,0.43 0.66,0.45 1.49,0.75 2.32,0.79l-0.08 1.87c-0.46,0.25 -0.76,0.16 -1.16,0.57 -0.23,0.24 -0.51,0.77 -0.52,1.29 -0.02,1.01 0.77,1.83 1.7,1.91 1.49,0.12 2.66,-1.52 1.68,-2.99 -0.3,-0.44 -0.5,-0.43 -1.06,-0.72l0.06 -1.91c2.18,-0.35 1.7,-0.57 2.92,-1.2l1.31 1.28c-0.1,0.34 -0.92,1.42 0.17,2.57 1.46,1.53 4.21,-0.42 2.82,-2.45 -0.2,-0.29 -0.55,-0.58 -1.04,-0.71 -0.66,-0.16 -0.94,0.03 -1.48,0.21l-1.37 -1.3c0.1,-0.27 0.47,-0.66 0.72,-1.25 0.2,-0.5 0.32,-0.94 0.37,-1.55l2.04 -0.03c0.47,2.15 3.9,1.69 3.66,-0.68 -0.1,-0.91 -0.89,-1.68 -1.88,-1.67 -1.04,0.02 -1.74,0.75 -1.85,1.73l-1.97 0c-0.1,-1.2 -0.55,-2.01 -1.05,-2.71l1.4 -1.32c0.5,0.14 0.65,0.43 1.42,0.31 1.47,-0.23 2.12,-2.09 1,-3.18 -1.13,-1.11 -2.88,-0.41 -3.14,0.96 -0.14,0.72 0.1,0.97 0.28,1.48 -0.61,0.43 -1.08,1.1 -1.44,1.29 -0.61,-0.48 -1.53,-1.2 -2.43,-1.15z"/>
     <path class="fil6" d="M23.25 12.3c1.18,-0.28 2.09,0.55 2.3,1.45 0.27,1.16 -0.55,2.09 -1.42,2.31 -2.45,0.62 -3.46,-3.14 -0.88,-3.76zm-2.27 6.88c0.33,-1.19 -0.69,-3 1.28,-3 1.07,0.01 3.56,-0.19 3.95,0.33 0.4,0.51 0.09,1.83 0.23,2.56 0.42,-0.54 0.91,-0.84 1.2,-1.99 0.22,-0.88 0.14,-1.86 -0.21,-2.66 -1.53,-3.51 -6.44,-3.17 -7.64,0.22 -0.98,2.79 1.15,4.44 1.19,4.54z"/>
     <path class="fil7" d="M12.24 11.55c-0.23,0.35 0.19,0.55 -0.26,0.8 -1.05,0.58 -0.69,-0.19 -1.26,-0.19 -0.62,-0.01 -0.15,0.65 -1.05,0.28 -0.85,-0.36 -0.16,-0.51 -0.5,-0.93 -0.18,-0.22 -0.46,-0.08 -0.76,-0.12 -0.79,-1.35 0.1,-0.86 0.08,-1.48 -0.03,-0.68 -0.8,0 -0.1,-1.45 0.52,-0.08 0.91,0.2 0.86,-0.57 -0.03,-0.35 0.03,-0.32 0.32,-0.44 0.24,-0.08 0.38,-0.18 0.66,-0.15 0.11,0.17 0.21,0.43 0.53,0.4 0.58,-0.06 0.12,-0.64 1.01,-0.28 0.89,0.36 0.09,0.57 0.53,0.96 0.2,0.17 0.49,0.05 0.74,0.08 0.74,1.44 -0.13,0.81 -0.09,1.5 0.04,0.6 0.82,0.08 0.08,1.44 -0.34,0.03 -0.62,-0.12 -0.79,0.15zm-3.24 -4.66c0.15,0.99 -0.37,1.49 -1.34,1.31l-0.29 0.77c0.15,0.17 0.57,0.31 0.58,0.93 0.01,0.51 -0.27,0.77 -0.59,0.91l0.32 0.84c0.97,-0.19 1.5,0.34 1.31,1.31l0.79 0.33c0.26,-0.28 0.34,-0.6 0.94,-0.59 0.59,0 0.67,0.32 0.93,0.58l0.79 -0.33c-0.22,-0.98 0.38,-1.46 1.33,-1.29l0.31 -0.84c-0.81,-0.33 -0.8,-1.48 0,-1.78l-0.33 -0.83c-0.93,0.15 -1.49,-0.3 -1.32,-1.29l-0.78 -0.35c-0.56,0.74 -1.21,0.83 -1.77,0.13l-0.09 -0.12 -0.79 0.31z"/>
     <path class="fil7" d="M35.92 7.3c0.65,0.9 0.88,0.06 1.05,-0.01 0.14,-0.05 0.83,0.23 0.9,0.35 0.09,0.29 -0.11,0.46 0.1,0.7 0.2,0.22 0.5,0.09 0.77,0.12 0.73,1.38 -0.07,0.84 -0.1,1.44 -0.03,0.65 0.86,0.12 0.09,1.5 -0.31,0.03 -0.58,-0.1 -0.77,0.12 -0.37,0.43 0.38,0.55 -0.5,0.92 -0.9,0.37 -0.42,-0.29 -1.05,-0.28 -0.59,0 -0.21,0.77 -1.26,0.19 -0.45,-0.25 -0.03,-0.46 -0.25,-0.8 -0.17,-0.27 -0.46,-0.12 -0.79,-0.16 -0.09,-0.14 -0.18,-0.34 -0.26,-0.55 -0.29,-0.73 0.48,-0.4 0.32,-1.04 -0.14,-0.57 -0.73,0.07 -0.08,-1.34 0.51,-0.08 0.91,0.2 0.86,-0.57 -0.03,-0.35 0.03,-0.32 0.32,-0.43 0.23,-0.09 0.38,-0.18 0.65,-0.16zm-1.23 -0.4c0.19,0.98 -0.35,1.47 -1.33,1.3l-0.29 0.77 0.2 0.17c0.59,0.45 0.5,1.35 -0.21,1.68l0.32 0.83c0.95,-0.18 1.52,0.33 1.31,1.3l0.79 0.34c0.26,-0.27 0.33,-0.6 0.93,-0.6 0.6,0 0.68,0.32 0.93,0.58l0.8 -0.31c-0.2,-0.97 0.38,-1.48 1.32,-1.3l0.32 -0.84c-0.81,-0.33 -0.8,-1.48 -0.01,-1.78l-0.32 -0.84c-0.96,0.18 -1.46,-0.31 -1.32,-1.28l-0.78 -0.35c-0.25,0.28 -0.37,0.59 -0.94,0.59 -0.57,0 -0.65,-0.31 -0.93,-0.58l-0.79 0.32z"/>
     <path class="fil7" d="M9.24 19.9c1.21,-0.81 0.91,0.08 1.47,0.07 0.73,-0.01 -0.06,-0.79 1.46,-0.11 0.03,0.26 -0.1,0.58 0.11,0.78 0.2,0.18 0.44,0.05 0.7,0.1 0.17,0.21 0.38,0.64 0.34,0.98 -0.55,0.34 -0.55,0.63 0,0.97 0.04,0.34 -0.17,0.77 -0.34,0.97 -0.29,0.07 -0.55,-0.08 -0.73,0.14 -0.19,0.21 -0.04,0.45 -0.09,0.74 -1.55,0.71 -0.72,-0.16 -1.5,-0.1 -0.58,0.04 -0.12,0.84 -1.42,0.07 -0.04,-0.3 0.07,-0.56 -0.14,-0.75 -0.2,-0.18 -0.42,-0.06 -0.67,-0.09 -0.15,-0.16 -0.37,-0.59 -0.36,-0.91 0.17,-0.22 0.4,-0.2 0.4,-0.55 0,-0.35 -0.21,-0.37 -0.4,-0.56 -0.02,-0.32 0.2,-0.75 0.35,-0.92 0.25,-0.03 0.51,0.08 0.69,-0.07 0.24,-0.18 0.09,-0.44 0.13,-0.76zm-0.26 -0.74c0.18,0.98 -0.33,1.5 -1.31,1.31l-0.32 0.8c0.28,0.24 0.59,0.34 0.59,0.93 -0.01,0.63 -0.34,0.67 -0.58,0.94l0.32 0.79c0.98,-0.28 1.46,0.41 1.29,1.32l0.83 0.32c0.42,-0.8 1.42,-0.82 1.79,-0.01l0.83 -0.32c-0.18,-1.02 0.34,-1.44 1.32,-1.32l0.31 -0.78c-0.3,-0.27 -0.59,-0.38 -0.58,-0.94 0,-0.55 0.28,-0.66 0.58,-0.93l-0.33 -0.8c-0.96,0.24 -1.46,-0.42 -1.29,-1.33l-0.78 -0.29c-0.26,0.21 -0.28,0.58 -0.93,0.58 -0.54,0.01 -0.68,-0.28 -0.93,-0.57l-0.81 0.3z"/>
     <path class="fil7" d="M34.94 19.91c0.14,-0.1 0.34,-0.19 0.54,-0.26 0.75,-0.3 0.4,0.54 1.09,0.3 0.57,-0.19 -0.17,-0.67 1.29,-0.07 0.05,0.3 -0.11,0.56 0.1,0.77 0.24,0.23 0.44,0.03 0.69,0.11 0.17,0.08 0.11,0.07 0.26,0.43 0.12,0.27 0.13,0.23 0.11,0.54 -0.88,0.6 -0.06,0.86 0,1.03 0.01,0.31 -0.19,0.72 -0.33,0.91 -0.26,0.06 -0.51,-0.06 -0.71,0.1 -0.18,0.15 -0.1,0.35 -0.11,0.56 -0.01,0.31 -0.6,0.54 -0.94,0.52 -0.16,-0.15 -0.19,-0.34 -0.42,-0.39 -0.64,-0.16 -0.29,0.63 -1.05,0.31 -0.19,-0.08 -0.41,-0.17 -0.54,-0.25 -0.03,-0.41 0.08,-0.44 -0.1,-0.78 -0.32,-0.11 -0.37,-0.03 -0.71,-0.05 -0.15,-0.19 -0.36,-0.6 -0.35,-0.93 0.18,-0.18 0.41,-0.21 0.41,-0.55 -0.01,-0.35 -0.24,-0.34 -0.41,-0.56 0,-0.33 0.21,-0.75 0.37,-0.91 0.25,-0.03 0.47,0.09 0.67,-0.09 0.2,-0.18 0.09,-0.45 0.14,-0.74zm-0.26 -0.74c0.12,0.92 -0.3,1.6 -1.3,1.31l-0.34 0.79c0.26,0.27 0.58,0.3 0.59,0.94 0.01,0.59 -0.29,0.68 -0.58,0.93l0.31 0.8c0.99,-0.19 1.48,0.34 1.3,1.32l0.84 0.33c0.17,-0.48 0.95,-1.06 1.75,-0.12 0.06,0.06 0.05,0.05 0.09,0.09l0.77 -0.3c-0.17,-0.95 0.36,-1.49 1.28,-1.33l0.36 -0.79c-0.29,-0.25 -0.6,-0.38 -0.59,-0.93 0,-0.59 0.32,-0.64 0.58,-0.94l-0.3 -0.76c-1.02,0.09 -1.48,-0.29 -1.32,-1.36l-0.78 -0.29c-0.25,0.2 -0.26,0.58 -0.93,0.59 -0.49,0 -0.77,-0.28 -0.91,-0.59l-0.82 0.31z"/>
     <path class="fil8" d="M37.25 25.47c-0.8,-0.94 -1.58,-0.36 -1.75,0.12l-0.84 -0.33c0.18,-0.98 -0.31,-1.51 -1.3,-1.32l-0.31 -0.8c0.29,-0.25 0.59,-0.34 0.58,-0.93 -0.01,-0.64 -0.33,-0.67 -0.59,-0.94l0.34 -0.79c1,0.29 1.42,-0.39 1.3,-1.31l0.82 -0.31c0.14,0.31 0.42,0.59 0.91,0.59 0.67,-0.01 0.68,-0.39 0.93,-0.59l0.78 0.29c-0.16,1.07 0.3,1.45 1.32,1.36l0.3 0.76c-0.26,0.3 -0.58,0.35 -0.58,0.94 -0.01,0.55 0.3,0.68 0.59,0.93l-0.36 0.79c-0.92,-0.16 -1.45,0.38 -1.28,1.33l-0.77 0.3c-0.04,-0.04 -0.03,-0.03 -0.09,-0.09zm-4.57 -2.46c-0.02,0.33 0.13,0.54 0.24,0.82 0.12,0.31 0.17,0.51 0.55,0.46 0.39,-0.04 0.55,-0.05 0.76,0.22 0.27,0.36 0.01,0.49 0.09,0.91 0.21,0.21 0.93,0.56 1.35,0.5 0.23,-0.21 0.23,-0.58 0.74,-0.56 0.88,0.03 0.09,0.96 1.57,0.34 0.33,-0.13 0.55,-0.14 0.5,-0.54 -0.16,-1.29 0.71,-0.72 1.1,-0.89 0.22,-0.1 0.39,-0.64 0.49,-0.9 0.2,-0.55 -0.2,-0.51 -0.42,-0.8 -0.29,-0.36 -0.05,-0.73 0.21,-0.89 0.43,-0.26 0.26,-0.46 0.08,-0.9 -0.15,-0.38 -0.17,-0.71 -0.63,-0.65 -0.48,0.07 -0.82,-0.01 -0.86,-0.48 -0.06,-0.55 0.28,-0.62 -0.35,-0.88 -0.39,-0.16 -0.62,-0.33 -1.04,-0.25 -0.16,0.26 -0.28,0.65 -0.8,0.54 -0.58,-0.12 -0.29,-0.62 -0.83,-0.57 -0.12,0.01 -0.91,0.34 -1,0.43 -0.3,0.28 0.11,0.69 -0.24,1.06 -0.36,0.39 -0.78,-0.04 -1.07,0.23 -0.08,0.08 -0.42,0.88 -0.44,1.01 -0.06,0.5 0.48,0.39 0.57,0.87 0.09,0.56 -0.36,0.59 -0.57,0.92z"/>
     <path class="fil8" d="M37.34 13.27c-0.25,-0.26 -0.33,-0.58 -0.93,-0.58 -0.6,0 -0.67,0.33 -0.93,0.6l-0.79 -0.34c0.21,-0.97 -0.36,-1.48 -1.31,-1.3l-0.32 -0.83c0.71,-0.33 0.8,-1.23 0.21,-1.68l-0.2 -0.17 0.29 -0.77c0.98,0.17 1.52,-0.32 1.33,-1.3l0.79 -0.32c0.28,0.27 0.36,0.58 0.93,0.58 0.57,0 0.69,-0.31 0.94,-0.59l0.78 0.35c-0.14,0.97 0.36,1.46 1.32,1.28l0.32 0.84c-0.79,0.3 -0.8,1.45 0.01,1.78l-0.32 0.84c-0.94,-0.18 -1.52,0.33 -1.32,1.3l-0.8 0.31zm-4.63 -2.6c-0.06,0.38 0.31,1.13 0.5,1.32 0.18,0.11 1.27,-0.4 1.12,0.86 -0.08,0.62 1.24,0.83 1.34,0.78 0.24,-0.21 0.32,-0.56 0.74,-0.56 0.48,0 0.46,0.39 0.81,0.58 0,0 1.36,-0.16 1.28,-0.8 -0.05,-0.37 -0.02,-0.59 0.21,-0.77 0.66,-0.49 0.75,0.71 1.37,-0.99 0.23,-0.63 -0.26,-0.5 -0.44,-0.81 -0.28,-0.5 0.05,-0.73 0.32,-0.93 0.37,-0.29 0.1,-0.6 -0.06,-1.01 -0.26,-0.67 -0.19,-0.47 -0.83,-0.45 -0.4,0.01 -0.65,-0.27 -0.6,-0.71 0.07,-0.61 0.05,-0.53 -0.5,-0.76 -0.41,-0.17 -0.68,-0.39 -0.97,-0.03 -0.2,0.26 -0.42,0.56 -0.88,0.33 -0.36,-0.18 -0.21,-0.66 -0.77,-0.5 -0.19,0.06 -0.86,0.34 -0.94,0.44 -0.25,0.27 0.16,0.76 -0.22,1.08 -0.38,0.33 -0.85,-0.13 -1.11,0.25 -0.06,0.09 -0.38,0.89 -0.39,0.99 -0.01,0.44 0.49,0.35 0.57,0.8 0.12,0.61 -0.33,0.63 -0.55,0.89z"/>
     <path class="fil8" d="M11.59 25.56c-0.37,-0.81 -1.37,-0.79 -1.79,0.01l-0.83 -0.32c0.17,-0.91 -0.31,-1.6 -1.29,-1.32l-0.32 -0.79c0.24,-0.27 0.57,-0.31 0.58,-0.94 0,-0.59 -0.31,-0.69 -0.59,-0.93l0.32 -0.8c0.98,0.19 1.49,-0.33 1.31,-1.31l0.81 -0.3c0.25,0.29 0.39,0.58 0.93,0.57 0.65,0 0.67,-0.37 0.93,-0.58l0.78 0.29c-0.17,0.91 0.33,1.57 1.29,1.33l0.33 0.8c-0.3,0.27 -0.58,0.38 -0.58,0.93 -0.01,0.56 0.28,0.67 0.58,0.94l-0.31 0.78c-0.98,-0.12 -1.5,0.3 -1.32,1.32l-0.83 0.32zm-4.56 -4.08c0.16,0.28 0.58,0.23 0.53,0.78 -0.08,0.84 -0.95,0.04 -0.33,1.57 0.39,0.98 0.86,0.02 1.32,0.67 0.24,0.35 0.02,0.49 0.07,0.87 0.19,0.23 0.92,0.61 1.33,0.54 0.22,-0.18 0.4,-0.82 1.04,-0.5 0.46,0.23 0.17,0.75 1.03,0.4 0.58,-0.25 0.82,-0.16 0.74,-0.82 -0.09,-0.69 0.32,-0.75 0.89,-0.69 0.44,0.04 0.53,-0.46 0.7,-0.89 0.31,-0.75 -0.33,-0.47 -0.48,-1.01 -0.22,-0.72 0.48,-0.65 0.55,-1.02 0.04,-0.21 -0.34,-1.11 -0.45,-1.19 -0.28,-0.24 -0.88,0.24 -1.16,-0.33 -0.28,-0.58 0.41,-0.79 -0.44,-1.11 -0.54,-0.21 -0.76,-0.51 -1.13,0 -0.33,0.46 -0.83,0.41 -1.08,-0.02 -0.28,-0.48 -0.67,-0.18 -1.15,0.03 -0.84,0.35 -0.09,0.58 -0.44,1.11 -0.36,0.55 -0.9,0.02 -1.18,0.37 -0.19,0.23 -0.47,0.97 -0.36,1.24z"/>
     <path class="fil8" d="M9.79 6.58l0.09 0.12c0.56,0.7 1.21,0.61 1.77,-0.13l0.78 0.35c-0.17,0.99 0.39,1.44 1.32,1.29l0.33 0.83c-0.8,0.3 -0.81,1.45 0,1.78l-0.31 0.84c-0.95,-0.17 -1.55,0.31 -1.33,1.29l-0.79 0.33c-0.26,-0.26 -0.34,-0.58 -0.93,-0.58 -0.6,-0.01 -0.68,0.31 -0.94,0.59l-0.79 -0.33c0.19,-0.97 -0.34,-1.5 -1.31,-1.31l-0.32 -0.84c0.32,-0.14 0.6,-0.4 0.59,-0.91 -0.01,-0.62 -0.43,-0.76 -0.58,-0.93l0.29 -0.77c0.97,0.18 1.49,-0.32 1.34,-1.31l0.79 -0.31zm-2.78 4.08c-0.06,0.39 0.31,1.14 0.5,1.33 0.13,0.07 1.29,-0.34 1.13,0.8 -0.06,0.41 0.08,0.46 0.4,0.59 0.26,0.11 0.56,0.28 0.87,0.27 0.31,-0.18 0.53,-0.84 1.1,-0.5 0.51,0.29 0.13,0.74 1.08,0.36 1.1,-0.45 0.62,-0.42 0.67,-0.99 0.07,-0.8 1.03,-0.44 1.17,-0.52 0.18,-0.19 0.35,-0.6 0.46,-0.91 0.21,-0.59 -0.23,-0.52 -0.44,-0.83 -0.32,-0.46 0.07,-0.72 0.31,-0.91 0.36,-0.29 0.1,-0.63 -0.06,-1.01 -0.26,-0.66 -0.2,-0.47 -0.82,-0.45 -0.42,0.01 -0.66,-0.27 -0.61,-0.71 0.07,-0.61 0.04,-0.53 -0.5,-0.76 -0.38,-0.16 -0.71,-0.4 -0.96,-0.02 -0.14,0.21 -0.07,0.25 -0.34,0.35 -0.86,0.31 -0.65,-0.72 -1.32,-0.53 -1.79,0.51 -0.57,1.01 -1.15,1.52 -0.38,0.33 -0.86,-0.13 -1.12,0.25 -0.06,0.08 -0.38,0.89 -0.38,0.99 -0.02,0.44 0.48,0.36 0.56,0.8 0.12,0.61 -0.33,0.63 -0.55,0.88z"/>
     <path class="fil7" d="M36.01 20.9c1.74,-0.56 2.52,2.12 0.81,2.64 -1.76,0.53 -2.63,-2.07 -0.81,-2.64zm-0.82 -0.85c0.05,0.71 -0.25,1.05 -0.97,0.94l-0.22 0.61c0.51,0.17 0.5,0.71 0.33,1l-0.26 0.26c-0.01,0 -0.03,0.02 -0.04,0.03l0.21 0.55c0.73,-0.15 1.03,0.25 0.93,0.94l0.55 0.21c0.19,-0.18 0.29,-0.39 0.63,-0.41 0.39,-0.02 0.56,0.18 0.65,0.42l0.61 -0.22c-0.15,-1.03 0.57,-0.95 0.94,-0.96l0.22 -0.53c-0.37,-0.41 -0.71,-0.59 -0.09,-1.27 0.07,-0.07 0.04,-0.03 0.08,-0.1l-0.2 -0.5c-0.78,-0.02 -1,-0.14 -0.96,-0.98l-0.58 -0.22c-0.09,0.26 -0.24,0.42 -0.61,0.42 -0.4,0.01 -0.49,-0.21 -0.68,-0.4l-0.54 0.21z"/>
     <path class="fil7" d="M10.29 20.89c1.84,-0.56 2.49,2.13 0.82,2.64 -1.78,0.56 -2.55,-2.12 -0.82,-2.64zm-0.8 -0.85c0.09,0.7 -0.21,1.08 -0.94,0.93l-0.22 0.55 0.28 0.25c0.07,0.11 0.13,0.27 0.13,0.43 -0.01,0.15 -0.04,0.28 -0.12,0.39l-0.15 0.16c-0.01,0.01 -0.02,0.03 -0.03,0.04 -0.09,0.07 -0.05,0.02 -0.11,0.1l0.21 0.53c0.73,-0.11 1,0.27 0.95,0.95l0.54 0.21c0.19,-0.18 0.27,-0.39 0.63,-0.41 0.39,-0.02 0.57,0.17 0.65,0.41l0.6 -0.21c-0.08,-0.84 0.22,-0.96 0.97,-0.97l0.19 -0.51c-0.15,-0.21 -0.41,-0.29 -0.41,-0.69 0,-0.37 0.22,-0.48 0.41,-0.68l-0.2 -0.51c-0.72,-0.01 -1.05,-0.18 -0.95,-0.99l-0.6 -0.21c-0.09,0.25 -0.24,0.42 -0.6,0.42 -0.39,0.01 -0.49,-0.22 -0.69,-0.4l-0.54 0.21z"/>
     <path class="fil7" d="M36.11 8.58c1.78,-0.44 2.39,2.29 0.62,2.7 -1.8,0.42 -2.42,-2.26 -0.62,-2.7zm-0.92 -0.79c0.17,0.71 -0.28,0.98 -0.95,0.92l-0.21 0.59c0.24,0.1 0.41,0.23 0.42,0.6 0.01,0.41 -0.2,0.5 -0.4,0.69l0.2 0.55c0.67,-0.07 1.12,0.22 0.94,0.93l0.54 0.23 0.11 -0.11c0.67,-0.71 1.1,-0.01 1.25,0.11l0.55 -0.23c-0.17,-0.69 0.26,-1.02 0.94,-0.92l0.21 -0.56c-0.2,-0.18 -0.39,-0.27 -0.41,-0.63 -0.01,-0.39 0.19,-0.55 0.41,-0.64l-0.21 -0.61c-0.7,0.1 -1.06,-0.25 -0.94,-0.93l-0.54 -0.23c-0.23,0.18 -0.25,0.42 -0.69,0.41 -0.37,0 -0.5,-0.25 -0.68,-0.4l-0.54 0.23z"/>
     <path class="fil7" d="M10.42 8.58c1.71,-0.42 2.44,2.27 0.62,2.7 -1.79,0.43 -2.45,-2.26 -0.62,-2.7zm-0.93 -0.79c0.16,0.69 -0.26,1 -0.94,0.92l-0.22 0.6c0.23,0.09 0.41,0.23 0.42,0.59 0.01,0.4 -0.2,0.5 -0.4,0.69l0.21 0.55c0.64,-0.06 1.1,0.2 0.93,0.93l0.54 0.23c0.21,-0.16 0.24,-0.41 0.69,-0.4 0.37,0 0.51,0.23 0.68,0.4l0.54 -0.23c-0.18,-0.7 0.27,-1 0.94,-0.92l0.21 -0.56c-0.21,-0.18 -0.39,-0.27 -0.41,-0.63 -0.01,-0.39 0.18,-0.55 0.41,-0.64l-0.21 -0.61c-0.69,0.09 -1.08,-0.23 -0.94,-0.92l-0.54 -0.24c-0.22,0.17 -0.26,0.41 -0.68,0.41 -0.4,0 -0.47,-0.26 -0.69,-0.4l-0.54 0.23z"/>
     <path class="fil6" d="M22.75 17.74c0.14,0.24 0.05,0.84 0.05,1.17l1.95 0c0,-1.07 -0.14,-1.27 0.24,-1.3 0.18,-0.01 0.36,-0.03 0.41,0.1l0.04 1.24 0.33 0c0.06,-0.43 0.11,-1.8 -0.07,-2.06 -0.23,-0.15 -3.7,-0.15 -4.02,0 -0.07,0.32 -0.08,1.69 -0.02,2.06l0.49 0 0 -1.21 0.6 0z"/>
     <path class="fil5" d="M23.35 12.91c1.66,-0.43 2.31,2.09 0.67,2.54 -0.77,0.21 -1.47,-0.32 -1.62,-0.91 -0.22,-0.81 0.34,-1.47 0.95,-1.63zm-0.1 -0.61c-2.58,0.62 -1.57,4.38 0.88,3.76 0.87,-0.22 1.69,-1.15 1.42,-2.31 -0.21,-0.9 -1.12,-1.73 -2.3,-1.45z"/>
     <path class="fil9" d="M18.85 22.39c0.55,-1.75 -2.17,-2.53 -2.64,-0.78 -0.48,1.81 2.12,2.46 2.64,0.78z"/>
     <path class="fil10" d="M28.31 22.33c0.27,1.71 3.05,1.42 2.71,-0.5 -0.3,-1.69 -3,-1.34 -2.71,0.5z"/>
     <path class="fil11" d="M24.77 24.88c0.23,-0.82 -0.38,-1.52 -0.97,-1.67 -0.86,-0.21 -1.55,0.35 -1.7,1.01 -0.41,1.76 2.18,2.42 2.67,0.66z"/>
     <path class="fil12" d="M23.39 6.16c-1.74,0.58 -0.85,3.15 0.84,2.61 1.74,-0.56 0.91,-3.19 -0.84,-2.61z"/>
     <path class="fil13" d="M29.54 8.83c-1.87,0.47 -1.1,3.1 0.65,2.67 0.63,-0.16 1.18,-0.85 0.97,-1.69 -0.15,-0.62 -0.79,-1.18 -1.62,-0.98z"/>
     <path class="fil14" d="M30.85 16.12c0.11,0.66 0.78,1.24 1.59,1.12 0.69,-0.11 1.28,-0.76 1.12,-1.62 -0.31,-1.71 -3,-1.34 -2.71,0.5z"/>
     <path class="fil15" d="M13.78 16.18c0.12,1.74 2.89,1.6 2.73,-0.25 -0.14,-1.74 -2.87,-1.62 -2.73,0.25z"/>
     <path class="fil16" d="M17.23 8.7c-1.77,0.6 -0.88,3.15 0.85,2.61 0.61,-0.19 1.12,-0.89 0.88,-1.7 -0.18,-0.6 -0.91,-1.19 -1.73,-0.91z"/>
     <path class="fil6" d="M23.35 12.91c-0.61,0.16 -1.17,0.82 -0.95,1.63 0.15,0.59 0.85,1.12 1.62,0.91 1.64,-0.45 0.99,-2.97 -0.67,-2.54z"/>
     <path class="fil8" d="M34.25 11.14l-0.2 -0.55c0.2,-0.19 0.41,-0.28 0.4,-0.69 -0.01,-0.37 -0.18,-0.5 -0.42,-0.6l0.21 -0.59c0.67,0.06 1.12,-0.21 0.95,-0.92l0.54 -0.23c0.18,0.15 0.31,0.4 0.68,0.4 0.44,0.01 0.46,-0.23 0.69,-0.41l0.54 0.23c-0.12,0.68 0.24,1.03 0.94,0.93l0.21 0.61c-0.22,0.09 -0.42,0.25 -0.41,0.64 0.02,0.36 0.21,0.45 0.41,0.63l-0.21 0.56c-0.68,-0.1 -1.11,0.23 -0.94,0.92l-0.55 0.23c-0.15,-0.12 -0.58,-0.82 -1.25,-0.11l-0.11 0.11 -0.54 -0.23c0.18,-0.71 -0.27,-1 -0.94,-0.93zm3.71 0.38c0.19,-0.22 0.46,-0.09 0.77,-0.12 0.77,-1.38 -0.12,-0.85 -0.09,-1.5 0.03,-0.6 0.83,-0.06 0.1,-1.44 -0.27,-0.03 -0.57,0.1 -0.77,-0.12 -0.21,-0.24 -0.01,-0.41 -0.1,-0.7 -0.07,-0.12 -0.76,-0.4 -0.9,-0.35 -0.17,0.07 -0.4,0.91 -1.05,0.01 -0.27,-0.02 -0.42,0.07 -0.65,0.16 -0.29,0.11 -0.35,0.08 -0.32,0.43 0.05,0.77 -0.35,0.49 -0.86,0.57 -0.65,1.41 -0.06,0.77 0.08,1.34 0.16,0.64 -0.61,0.31 -0.32,1.04 0.08,0.21 0.17,0.41 0.26,0.55 0.33,0.04 0.62,-0.11 0.79,0.16 0.22,0.34 -0.2,0.55 0.25,0.8 1.05,0.58 0.67,-0.19 1.26,-0.19 0.63,-0.01 0.15,0.65 1.05,0.28 0.88,-0.37 0.13,-0.49 0.5,-0.92z"/>
     <path class="fil8" d="M8.56 11.14l-0.21 -0.55c0.2,-0.19 0.41,-0.29 0.4,-0.69 -0.01,-0.36 -0.19,-0.5 -0.42,-0.59l0.22 -0.6c0.68,0.08 1.1,-0.23 0.94,-0.92l0.54 -0.23c0.22,0.14 0.29,0.4 0.69,0.4 0.42,0 0.46,-0.24 0.68,-0.41l0.54 0.24c-0.14,0.69 0.25,1.01 0.94,0.92l0.21 0.61c-0.23,0.09 -0.42,0.25 -0.41,0.64 0.02,0.36 0.2,0.45 0.41,0.63l-0.21 0.56c-0.67,-0.08 -1.12,0.22 -0.94,0.92l-0.54 0.23c-0.17,-0.17 -0.31,-0.4 -0.68,-0.4 -0.45,-0.01 -0.48,0.24 -0.69,0.4l-0.54 -0.23c0.17,-0.73 -0.29,-0.99 -0.93,-0.93zm-0.17 -2.68c-0.7,1.45 0.07,0.77 0.1,1.45 0.02,0.62 -0.87,0.13 -0.08,1.48 0.3,0.04 0.58,-0.1 0.76,0.12 0.34,0.42 -0.35,0.57 0.5,0.93 0.9,0.37 0.43,-0.29 1.05,-0.28 0.57,0 0.21,0.77 1.26,0.19 0.45,-0.25 0.03,-0.45 0.26,-0.8 0.17,-0.27 0.45,-0.12 0.79,-0.15 0.74,-1.36 -0.04,-0.84 -0.08,-1.44 -0.04,-0.69 0.83,-0.06 0.09,-1.5 -0.25,-0.03 -0.54,0.09 -0.74,-0.08 -0.44,-0.39 0.36,-0.6 -0.53,-0.96 -0.89,-0.36 -0.43,0.22 -1.01,0.28 -0.32,0.03 -0.42,-0.23 -0.53,-0.4 -0.28,-0.03 -0.42,0.07 -0.66,0.15 -0.29,0.12 -0.35,0.09 -0.32,0.44 0.05,0.77 -0.34,0.49 -0.86,0.57z"/>
     <path class="fil8" d="M8.62 22.59c0.08,-0.11 0.11,-0.24 0.12,-0.39 0,-0.16 -0.06,-0.32 -0.13,-0.43l-0.28 -0.25 0.22 -0.55c0.73,0.15 1.03,-0.23 0.94,-0.93l0.54 -0.21c0.2,0.18 0.3,0.41 0.69,0.4 0.36,0 0.51,-0.17 0.6,-0.42l0.6 0.21c-0.1,0.81 0.23,0.98 0.95,0.99l0.2 0.51c-0.19,0.2 -0.41,0.31 -0.41,0.68 0,0.4 0.26,0.48 0.41,0.69l-0.19 0.51c-0.75,0.01 -1.05,0.13 -0.97,0.97l-0.6 0.21c-0.08,-0.24 -0.26,-0.43 -0.65,-0.41 -0.36,0.02 -0.44,0.23 -0.63,0.41l-0.54 -0.21c0.05,-0.68 -0.22,-1.06 -0.95,-0.95l-0.21 -0.53c0.06,-0.08 0.02,-0.03 0.11,-0.1 0.01,-0.01 0.02,-0.03 0.03,-0.04l0.15 -0.16zm0.62 -2.69c-0.04,0.32 0.11,0.58 -0.13,0.76 -0.18,0.15 -0.44,0.04 -0.69,0.07 -0.15,0.17 -0.37,0.6 -0.35,0.92 0.19,0.19 0.4,0.21 0.4,0.56 0,0.35 -0.23,0.33 -0.4,0.55 -0.01,0.32 0.21,0.75 0.36,0.91 0.25,0.03 0.47,-0.09 0.67,0.09 0.21,0.19 0.1,0.45 0.14,0.75 1.3,0.77 0.84,-0.03 1.42,-0.07 0.78,-0.06 -0.05,0.81 1.5,0.1 0.05,-0.29 -0.1,-0.53 0.09,-0.74 0.18,-0.22 0.44,-0.07 0.73,-0.14 0.17,-0.2 0.38,-0.63 0.34,-0.97 -0.55,-0.34 -0.55,-0.63 0,-0.97 0.04,-0.34 -0.17,-0.77 -0.34,-0.98 -0.26,-0.05 -0.5,0.08 -0.7,-0.1 -0.21,-0.2 -0.08,-0.52 -0.11,-0.78 -1.52,-0.68 -0.73,0.1 -1.46,0.11 -0.56,0.01 -0.26,-0.88 -1.47,-0.07z"/>
     <path class="fil8" d="M35.73 19.84c0.19,0.19 0.28,0.41 0.68,0.4 0.37,0 0.52,-0.16 0.61,-0.42l0.58 0.22c-0.04,0.84 0.18,0.96 0.96,0.98l0.2 0.5c-0.04,0.07 -0.01,0.03 -0.08,0.1 -0.62,0.68 -0.28,0.86 0.09,1.27l-0.22 0.53c-0.37,0.01 -1.09,-0.07 -0.94,0.96l-0.61 0.22c-0.09,-0.24 -0.26,-0.44 -0.65,-0.42 -0.34,0.02 -0.44,0.23 -0.63,0.41l-0.55 -0.21c0.1,-0.69 -0.2,-1.09 -0.93,-0.94l-0.21 -0.55c0.01,-0.01 0.03,-0.03 0.04,-0.03l0.26 -0.26c0.17,-0.29 0.18,-0.83 -0.33,-1l0.22 -0.61c0.72,0.11 1.02,-0.23 0.97,-0.94l0.54 -0.21zm-0.79 0.07c-0.05,0.29 0.06,0.56 -0.14,0.74 -0.2,0.18 -0.42,0.06 -0.67,0.09 -0.16,0.16 -0.37,0.58 -0.37,0.91 0.17,0.22 0.4,0.21 0.41,0.56 0,0.34 -0.23,0.37 -0.41,0.55 -0.01,0.33 0.2,0.74 0.35,0.93 0.34,0.02 0.39,-0.06 0.71,0.05 0.18,0.34 0.07,0.37 0.1,0.78 0.13,0.08 0.35,0.17 0.54,0.25 0.76,0.32 0.41,-0.47 1.05,-0.31 0.23,0.05 0.26,0.24 0.42,0.39 0.34,0.02 0.93,-0.21 0.94,-0.52 0.01,-0.21 -0.07,-0.41 0.11,-0.56 0.2,-0.16 0.45,-0.04 0.71,-0.1 0.14,-0.19 0.34,-0.6 0.33,-0.91 -0.06,-0.17 -0.88,-0.43 0,-1.03 0.02,-0.31 0.01,-0.27 -0.11,-0.54 -0.15,-0.36 -0.09,-0.35 -0.26,-0.43 -0.25,-0.08 -0.45,0.12 -0.69,-0.11 -0.21,-0.21 -0.05,-0.47 -0.1,-0.77 -1.46,-0.6 -0.72,-0.12 -1.29,0.07 -0.69,0.24 -0.34,-0.6 -1.09,-0.3 -0.2,0.07 -0.4,0.16 -0.54,0.26z"/>
     <path class="fil17" d="M10.72 8.9c-1.4,0 -1.35,2.06 0,2.06 1.34,0 1.4,-2.06 0,-2.06z"/>
     <path class="fil17" d="M35.37 22.39c0.24,1.28 2.17,1.08 2.04,-0.31 -0.13,-1.38 -2.29,-1.05 -2.04,0.31z"/>
     <path class="fil17" d="M9.67 22.33c0.15,1.28 2.17,1.16 2.05,-0.25 -0.11,-1.29 -2.22,-1.14 -2.05,0.25z"/>
     <path class="fil17" d="M36.41 8.9c-1.39,0.01 -1.34,2.06 0,2.06 1.33,0.01 1.35,-2.06 0,-2.06z"/>
     <path class="fil5" d="M36.41 8.9c1.35,0 1.33,2.07 0,2.06 -1.34,0 -1.39,-2.05 0,-2.06zm-0.3 -0.32c-1.8,0.44 -1.18,3.12 0.62,2.7 1.77,-0.41 1.16,-3.14 -0.62,-2.7z"/>
     <path class="fil5" d="M9.67 22.33c-0.17,-1.39 1.94,-1.54 2.05,-0.25 0.12,1.41 -1.9,1.53 -2.05,0.25zm0.62 -1.44c-1.73,0.52 -0.96,3.2 0.82,2.64 1.67,-0.51 1.02,-3.2 -0.82,-2.64z"/>
     <path class="fil5" d="M10.72 8.9c1.4,0 1.34,2.06 0,2.06 -1.35,0 -1.4,-2.06 0,-2.06zm-0.3 -0.32c-1.83,0.44 -1.17,3.13 0.62,2.7 1.82,-0.43 1.09,-3.12 -0.62,-2.7z"/>
     <path class="fil5" d="M35.37 22.39c-0.25,-1.36 1.91,-1.69 2.04,-0.31 0.13,1.39 -1.8,1.59 -2.04,0.31zm0.64 -1.49c-1.82,0.57 -0.95,3.17 0.81,2.64 1.71,-0.52 0.93,-3.2 -0.81,-2.64z"/>
     <path class="fil6" d="M21.62 19.58c0.05,0.05 0.03,0.03 0.12,0.1 1.26,0.93 3.82,0.25 3.92,-0.07 0,-0.02 0.02,-0.02 0.03,-0.03l-4.07 0z"/>
     <path class="fil18" d="M22.75 17.74l0.02 1.23 2.03 -0.02 0.01 -1.28 0.59 0.04c-0.05,-0.13 -0.23,-0.11 -0.41,-0.1 -0.38,0.03 -0.24,0.23 -0.24,1.3l-1.95 0c0,-0.33 0.09,-0.93 -0.05,-1.17z"/>
     <polygon class="fil19" points="24.41,11.42 24.11,11.27 24.13,9.97 24.03,11.37 "/>
    </g>
   </g>
  </g>
 </g>
</svg>
