<?xml version="1.0" encoding="UTF-8"?>
<!DOCTYPE svg PUBLIC "-//W3C//DTD SVG 1.1//EN" "http://www.w3.org/Graphics/SVG/1.1/DTD/svg11.dtd">
<!-- Creator: CorelDRAW 2021 (64 Bit) -->
<svg xmlns="http://www.w3.org/2000/svg" xml:space="preserve" width="25.4846mm" height="10.0752mm" version="1.1" style="shape-rendering:geometricPrecision; text-rendering:geometricPrecision; image-rendering:optimizeQuality; fill-rule:evenodd; clip-rule:evenodd"
viewBox="0 0 1132.36 447.67"
 xmlns:xlink="http://www.w3.org/1999/xlink"
 xmlns:xodm="http://www.corel.com/coreldraw/odm/2003">
 <defs>
  <style type="text/css">
   <![CDATA[
    .fil0 {fill:none}
    .fil1 {fill:#F9F8D0}
    .fil40 {fill:#FACC2B}
    .fil32 {fill:#F6F3AF}
    .fil11 {fill:#F4F2CA}
    .fil27 {fill:#F7D828}
    .fil16 {fill:#F6CC2C}
    .fil24 {fill:#F5C52E}
    .fil53 {fill:#F5F08F}
    .fil13 {fill:#F8E724}
    .fil31 {fill:#F2ECC5}
    .fil29 {fill:#F2C42F}
    .fil51 {fill:#F5EE6D}
    .fil33 {fill:#F3EB4E}
    .fil28 {fill:#EAE9E6}
    .fil46 {fill:#E8E6C8}
    .fil87 {fill:#E8E5BC}
    .fil61 {fill:#E9B834}
    .fil85 {fill:#E3DCB8}
    .fil48 {fill:#E5B835}
    .fil71 {fill:#DEE0D6}
    .fil65 {fill:#DAD3B4}
    .fil39 {fill:#DBB539}
    .fil55 {fill:#DAA93A}
    .fil64 {fill:#D1D4CC}
    .fil81 {fill:#D3CEB1}
    .fil60 {fill:#D3CAAA}
    .fil75 {fill:#CAC4A8}
    .fil20 {fill:#CAA23C}
    .fil84 {fill:#C6973C}
    .fil41 {fill:#BFC1BB}
    .fil72 {fill:#C2BB9D}
    .fil47 {fill:#BBC2C7}
    .fil26 {fill:#BC953D}
    .fil58 {fill:#B6883C}
    .fil54 {fill:#BBB39B}
    .fil50 {fill:#AD873D}
    .fil44 {fill:#A77A3B}
    .fil49 {fill:#A3743A}
    .fil78 {fill:#B2B2AB}
    .fil68 {fill:#B3AE96}
    .fil5 {fill:#956939}
    .fil74 {fill:#A9A593}
    .fil69 {fill:#AAA38D}
    .fil66 {fill:#ADAE45}
    .fil63 {fill:#A59D8A}
    .fil57 {fill:#9AA2CB}
    .fil62 {fill:#9EA361}
    .fil83 {fill:#9B9684}
    .fil79 {fill:#948C7B}
    .fil70 {fill:#959798}
    .fil77 {fill:#8F9048}
    .fil73 {fill:#8C8677}
    .fil52 {fill:#8E908F}
    .fil76 {fill:#8B93B6}
    .fil43 {fill:#898A8C}
    .fil35 {fill:#838789}
    .fil80 {fill:#777979}
    .fil59 {fill:#7984BC}
    .fil6 {fill:#59554C}
    .fil82 {fill:#687571}
    .fil56 {fill:#585758}
    .fil25 {fill:#3C3839}
    .fil34 {fill:#4C4B4C}
    .fil23 {fill:#393636}
    .fil8 {fill:#393535}
    .fil18 {fill:#608F5A}
    .fil37 {fill:#4E4F52}
    .fil7 {fill:#3B3A3A}
    .fil67 {fill:#323132}
    .fil12 {fill:#518C74}
    .fil3 {fill:#50857A}
    .fil10 {fill:#4B8181}
    .fil4 {fill:#49768A}
    .fil42 {fill:#2E2F38}
    .fil2 {fill:#3D6A96}
    .fil30 {fill:#39649A}
    .fil19 {fill:#3D5DA8}
    .fil38 {fill:#3E4065}
    .fil9 {fill:#3559A4}
    .fil22 {fill:#3955A1}
    .fil15 {fill:#38539F}
    .fil36 {fill:#2D314B}
    .fil17 {fill:#344E98}
    .fil21 {fill:#374B95}
    .fil14 {fill:#394791}
    .fil86 {fill:#303154}
    .fil45 {fill:#383866}
   ]]>
  </style>
 </defs>
 <g id="Camada_x0020_1">
  <metadata id="CorelCorpID_0Corel-Layer"/>
  <g id="_2777178297024">
   <path class="fil0" d="M-0 447.67l4.46 0 0.08 -217.85 0.04 -19.43c0.3,-34.05 -6.28,-189.73 2.87,-206.38l143.14 -0.05 91.69 0 118.83 0.05 141.18 -0.04 88.36 0.72c9.87,6.89 2.95,-1.3 5.82,10.68l0.16 432.29 302.47 0c-16.72,-0.04 -72.11,-14.33 -82.77,-0.02 -13,0 -25.98,-0.05 -38.98,0.02m-35.56 0c-9.62,-0.99 -9.29,-5 -17.34,-19.01l-3.55 -6.71 -8.86 -5.26c-7.7,-2.11 -4.12,5.19 -7.26,-6.78 -10.17,0.82 -7.97,1.54 -10.55,-8.03l-8.32 -0.56 -6.99 -38.03c15.27,0.62 24.71,3.91 30.77,15.4l5.47 -0.29 6.43 6.34c3.5,-5.42 5.23,7.26 2.3,-7.68 -6.71,-26.07 -42.41,-36.92 -47.03,-72.67 -5.84,-45.11 34.32,-38.35 53.38,-37.6 13.33,0.52 17.64,-7.06 19.79,5.22l8.45 0.78 1.47 5.57 6.97 2.3 15.56 1.46c2.95,-14.52 1.02,-15.05 18.81,-15.05l-13.7 -6.25c-0.23,-0.75 -0.96,-0.8 -1.34,-1.28l37.62 -15.09c-37.46,3.58 -65.14,-11.36 -69.08,-44.98 -4.07,-34.73 19.56,-56.34 50.27,-60.24 -17.82,-10.76 9.06,11.52 -3.76,-3.83 7.35,2 7.25,5.04 13.53,-0.72l2.42 -3.08c0.45,-0.64 2.91,-4.33 2.93,-5.06 0.56,-18.2 9.67,13.38 -0.72,-3.59 -7.6,-12.41 2.75,-1.1 -11.61,-8.68l-47.43 0.08 -8.5 -3.5c-12.95,3.02 -36.41,10.49 -42.58,-9.37l-7.88 9.94c-0.36,-0.66 -1.36,1.77 -2.02,2.66l-45.68 -1.12c2.28,-24.54 14.33,-26.96 17.51,-45.57l1.76 -8.46 -18.01 0.12c-1.36,-20.58 1.67,-23.83 18.38,-29.51l0 -10.77c12.54,-0.08 15,-3.78 15.01,-3.78l-22.51 0c4.51,-12.25 84.51,-7.52 105.33,-7.52l361.15 0 0 -7.5 -1132.36 0 0 447.67"/>
   <path class="fil1" d="M673.38 29.57c15.63,-1.46 17.7,1.56 26.49,8.06l10.2 4.22c6.5,-18.88 38.32,-16.91 44.69,0.94 6.01,16.84 1.64,53.19 -2.86,68.08l8.5 3.5c0.94,-29.14 15.6,-28.87 19.89,-51.18 -10.38,-0.35 -11.12,2.67 -24.11,-6.75 0.76,-15.74 3.69,-11.02 4.31,-15.33 0.33,-2.31 1.75,-2.29 2.59,-3.46 24.95,-21.1 33.93,-3.55 49.31,7.36 11.2,-8.06 16.71,-14.45 33.27,-13.68 1.03,22.76 6.23,64.71 -2.99,82.46l-18.77 -0.96c-0.2,-17.71 3.68,-43.11 -3.79,-56.92 -17.74,-0.27 -3.7,-9.46 -31.35,38.14l18.42 7.52 0.64 12.72c14.37,7.58 4.02,-3.72 11.61,8.68 10.39,16.97 1.28,-14.61 0.72,3.59 -0.02,0.73 -2.48,4.42 -2.93,5.06l-2.42 3.08c-6.29,5.76 -6.19,2.72 -13.53,0.72 12.82,15.35 -14.06,-6.93 3.76,3.83 30.91,-1.6 53.11,17.9 56.23,45.3 1.98,17.36 -2.99,31.21 -11.17,41.05 -10.17,12.2 -14.85,10.54 -26.25,18.87l-37.62 15.09c0.39,0.48 1.12,0.53 1.34,1.28l13.7 6.25c-17.79,0 -15.86,0.53 -18.81,15.05l-15.56 -1.46 5.08 1.49c13.41,11.67 15.24,23.83 15.38,42.19 -15.02,0.44 -13.25,3.44 -21.98,-7.9 -13.2,1.08 -2.87,1.16 -6.99,-5.06l-3.13 2.81c-9.52,0.76 -3.16,-0.92 -6.98,1.82l11.62 15.92 5.65 15.69c12.02,4.14 -0.56,-3.25 7.94,3.86 1.04,0.87 3.89,4.99 4.92,6.43 2.42,3.38 4.01,6.1 6.35,9.83 18.86,11.66 18.2,41.63 2.16,54.11 -8.38,6.52 -19.76,7.74 -30.67,7.11 -14.94,-0.86 -18.04,-0.11 -31.81,-0.29 8.05,14.01 7.72,18.02 17.34,19.01l35.56 0c12.99,-0.07 25.98,-0.02 38.98,-0.02 10.66,-14.31 66.05,-0.02 82.77,0.02l7.52 0c-5.88,-11.81 -5.35,-7.54 -22.57,-7.54 -1.9,-4.93 -3.19,-11.18 -6.94,-16.73l0 -5.68c-11.67,-4.43 -1.24,1.89 -6.46,-7.61 -14.94,-3.36 -4.98,0.85 -10.57,-8.12l-9 -3.23c5.33,-19.16 10.09,0.27 10.33,-33.73 0.32,-45.92 -32.6,-81.06 -33.47,-96.62 12.39,-1.3 25.17,-1.52 37.67,-1.29 18.7,0.35 15.56,-1.28 26,8.8 11.86,6.25 2.96,4.23 11.25,6.91 9.41,3.05 2.4,6.87 7.43,-3.15l-3.43 -12 26.13 -0.13c13.02,5.95 2.19,-3.52 12.24,7.65 8.33,4.81 2.83,-0.64 11.11,8.14 5.34,2.6 6.22,2.11 11.68,4.23l5.16 -6.53c5.93,8.21 4.94,6.78 11.13,12.54 9.84,9.17 5.36,8.11 16.36,11.11 -5.69,-12.57 -7.14,-11.68 -7.53,-30.08 25.14,1.34 -21.27,0.57 8.86,5.69 8.88,1.51 -4.23,7.88 4.06,-1.43 8.82,-9.9 0.71,0.66 5.89,-11.79 -14.49,-0.03 -18.67,-1.74 -30.08,-3.78l7.51 22.57c-0.92,-0.57 -1.82,-3.07 -2.2,-2.39 -6.51,11.66 -3.55,-3.92 -4.29,-4.68 -11.33,-11.64 9.97,-0.55 -8.54,-7.98 -13.72,6.2 1.18,7.39 -30.07,-9.18 -4.83,-2.56 -5.23,-0.59 -7.55,-5.87l45.13 3.76c-5.91,-9.66 10.69,-7.52 -15.05,-7.52 5.21,-6.24 1.12,-5.27 2.26,-12.85 -21.24,-9.88 -37.7,-22.85 -35.25,-54.61 2.04,-26.46 18.28,-38.21 39.63,-46.62 3.19,-10.88 -0.54,-6.29 19.69,-6.29l-2.53 -16.96 -40.56 -0.75 0.65 -83.57c41.43,0.4 2.95,3.61 31.56,14.65l5.73 1.51c8.44,3.27 4.17,-1 8.23,5.3 1.77,1.22 7.84,4.09 9.54,5.15 7.72,-21.66 23.91,-10.01 40.02,-8.06l9.33 -3.64 1.6 -7.02c4.28,-3.08 0.09,-2.2 8.12,-4.16 5.27,-1.29 5.96,-0.1 12.29,-0.23l4.23 12.05c4.56,15.14 0.14,9.17 -0.98,15.03 -6.94,36.24 2.13,29.27 4.23,54.32l4.83 -0.18c-4.67,-12.76 -4.36,-16.69 -2.21,-33.36 15.41,-9.53 24.7,-4.38 21.52,-23.74 -8.86,20.07 8.79,14.81 -23.03,14.62 1.48,-36.27 27.45,-34.99 46.63,-18.29l0 -46.82 -361.15 0c-20.83,0 -100.83,-4.72 -105.33,7.52l22.51 0c-0,0 -2.46,3.71 -15.01,3.78l0 10.77z"/>
   <path class="fil1" d="M990.62 114.69l2.53 16.96c-20.23,0 -16.5,-4.59 -19.69,6.29 88.67,-15.6 87.95,122.71 -4.38,101.24 -1.14,7.58 2.95,6.61 -2.26,12.85 25.73,0 9.13,-2.13 15.05,7.52l-45.13 -3.76c2.33,5.28 2.72,3.31 7.55,5.87 31.25,16.57 16.35,15.38 30.07,9.18 18.51,7.43 -2.79,-3.66 8.54,7.98 0.74,0.76 -2.22,16.35 4.29,4.68 0.38,-0.68 1.28,1.82 2.2,2.39l-7.51 -22.57c11.41,2.04 15.59,3.75 30.08,3.78 -5.19,12.45 2.93,1.88 -5.89,11.79 -8.3,9.3 4.82,2.94 -4.06,1.43 -30.13,-5.12 16.28,-4.35 -8.86,-5.69 0.38,18.4 1.84,17.5 7.53,30.08 -11,-3 -6.52,-1.95 -16.36,-11.11 -6.19,-5.77 -5.2,-4.33 -11.13,-12.54l-5.16 6.53 -1.51 2.9 10.18 6.72c-2.58,9.1 -21.58,42.17 -28.62,60.17 -15.09,38.58 5.21,64.56 6.19,69.72 -31.43,5.19 -51.68,-0.3 -77.17,-3.68 3.75,5.55 5.04,11.8 6.94,16.73 17.22,0 16.69,-4.27 22.57,7.54l225.74 0 0 -335.48 -42.92 2.89 -4.83 0.18 -27.02 -7.2c-0.86,-1.1 -2.03,-2.12 -2.9,-3.02 -0.89,-0.91 -2.3,-0.86 -3.02,-3.01 -0.73,-2.19 -2.18,-1.92 -3.13,-3.01 -3.73,11.35 -5.43,16.42 -21.51,16.23 -12.51,-0.15 -17.37,-3.56 -22.2,-12.26l-8 0.19c-2.58,9.87 -6.15,11.43 -6.21,11.5z"/>
   <path class="fil2" d="M4.58 210.4c17.65,-24.69 -7.47,-9.07 40.33,-60.05 0.43,-0.45 1.23,-1.31 1.62,-1.74l2.83 -3.38c0.23,-0.27 0.92,-1.06 1.31,-1.64l38.52 -50.52c10.25,-7.66 18.5,-12.4 32.81,-20.08l71.59 -29.94 130.05 -18.04c28.04,0.48 87.06,7.58 110.62,18.6 48.05,22.49 62.68,19.77 97.91,56.27l36.14 35.6c8.7,9.24 9.18,17.9 9.04,34.44 5.5,21.9 24.66,31.57 16.86,61.99 -6.97,27.17 -27,43.95 -29.93,54 -0.1,1.14 -0.34,8.81 -0.4,9.1l-8.59 15.53c-3.49,4.47 -3.49,4.45 -6.67,8.48 -30.85,39.07 -61.46,51.6 -111.43,76.9 -5.7,2.88 -14.17,5.73 -19.79,7.34l-41.39 14.19c-30.16,7.06 -120.6,13.41 -151.03,5.03 -58.31,-16.05 -100.81,-13.45 -153.48,-65.22 -31.72,-31.18 -25.42,-27.64 -44.7,-57.03 -15.92,-24.3 -12.24,-21.06 -15.5,-44.75 1.68,-9.57 -2.42,-17.71 -6.76,-25.63l-0.08 217.85 3.18 0 -0.55 -57.82 2.58 -51.81 1.74 -37.1c-0,0 -6.2,-17.04 -1.84,5.36 2.49,12.83 8.54,8.53 15.43,21.22l3.31 7.85c22.49,44.06 98.04,72.22 109.67,80.46 9.13,6.47 -0.03,-3.72 7.85,7.18 6.69,1.76 20.14,7.7 32.91,11.46 10.02,2.96 8.61,2.5 17.9,4.42 17.85,3.69 13.93,-4.02 18.32,8.78l116.75 0c16.85,-10.02 56.8,-10.92 80.37,-17.48 19.62,-5.46 48.13,-22.62 67.21,-29.71 20.58,-7.65 47.6,-21.53 61.86,-36.1l24.85 -24.15c13.55,-12.05 8.75,-21.8 24.66,-27.58l0.02 43.86 0 91.14 5.98 0 -0.16 -432.29c-2.86,-11.98 4.06,-3.79 -5.82,-10.68l0 58.43 0 57.17c-6.21,-4.91 -12.16,-16.18 -17.89,-23.45 -9.14,-11.6 -62.91,-44.7 -79.01,-52.68 -42.73,-21.19 -81.66,-27.49 -127.16,-38.04l-5.48 -2.12 -118.83 -0.05c-7.05,13.11 1.73,3.66 -14.26,9.89 -6.91,2.7 -10.9,3.34 -17.74,4.79 -53.34,11.23 -24.46,5.39 -66.97,22.86 -8.09,3.32 -20.55,7.27 -29.93,11.68l-28.94 16.44c-37.17,20.11 -47.81,54.34 -73.15,60.46 -6.39,-15.45 -4.27,-32.1 -4.1,-51.85l0.26 -74.22c-9.14,16.65 -2.56,172.33 -2.87,206.38z"/>
   <path class="fil3" d="M500.95 325.02l-26.14 8.89c-8.67,7.5 -21.11,10.91 -32.99,14.75 -22.31,7.21 -55.14,11.46 -70.64,18.81 -20.13,9.54 -10.39,6.21 -35.19,9.63 -28.96,3.99 -74.13,4.89 -107.3,-0.58l-17 -5.34c-30.51,-16.71 -22.66,-5.25 -24.79,-19.97 -43.79,-4.65 -86.25,-27.22 -119.93,-44.78l-4.96 17.1 56.53 47.13c18.28,16.19 121.54,38.33 159.81,38.57 49.25,0.31 113.83,-8.69 157.25,-30.57l46.85 -27.64c15.13,-9.2 17.18,-14.97 18.5,-25.99z"/>
   <path class="fil4" d="M564.28 285.9c-14.95,7.52 -21.46,14.5 -33.95,22.31 -4.55,2.84 -26.7,15.09 -29.38,16.82 -1.32,11.02 -3.36,16.79 -18.5,25.99l-46.85 27.64c-43.42,21.89 -108,30.88 -157.25,30.57 -38.27,-0.24 -141.54,-22.39 -159.81,-38.57l-56.53 -47.13 4.96 -17.1c-10.03,-5.87 -21.2,-14.73 -28.37,-21.48 -6.01,-5.67 -7.27,-7.77 -12.17,-13.79l-15.13 -15.7c3.26,23.69 -0.42,20.45 15.5,44.75 19.27,29.39 12.97,25.85 44.7,57.03 52.68,51.78 95.17,49.17 153.48,65.22 30.43,8.38 120.87,2.04 151.03,-5.03l41.39 -14.19c5.61,-1.61 14.09,-4.46 19.79,-7.34 49.97,-25.29 80.57,-37.82 111.43,-76.9 3.19,-4.03 3.19,-4.01 6.67,-8.48l8.59 -15.53c0.06,-0.29 0.3,-7.96 0.4,-9.1z"/>
   <path class="fil5" d="M75.53 129.23l-24.86 14.35c-0.39,0.58 -1.08,1.38 -1.31,1.64l-2.83 3.38c-0.39,0.43 -1.19,1.29 -1.62,1.74 -47.8,50.98 -22.68,35.36 -40.33,60.05l-0.04 19.43c4.34,7.92 8.44,16.06 6.76,25.63l15.13 15.7c4.89,6.02 6.15,8.12 12.17,13.79 7.16,6.75 18.34,15.61 28.37,21.48 33.68,17.56 76.13,40.13 119.93,44.78l25.33 2.59 -6.8 -3.27 -21.09 -4.87 -24.42 -6.94c-13.47,-4.6 -19.29,-8.87 -30.81,-13.24l4.52 -7.33c0.26,-0.25 1.4,-0.96 1.63,-1.16 0.23,-0.19 1.2,-0.6 1.72,-1 -10.98,-0.04 -1.37,1.52 -1.52,-7.99l-26.35 -10.95 -18.67 -6.58c4.08,-5.69 8.02,-5.11 13.67,-5.23l0.65 -5.48 -20.68 1.1c-4.47,-18.86 -3.91,-89.93 0.57,-108.84 -4.62,3.47 -9,-0.73 -8.12,27.18 0.28,8.88 0.92,17.33 0.88,26.5 -0.06,17.44 -1.38,33.76 -0.99,51.33 -12.11,-1.6 -28.47,-20.87 -33.58,-30.52 -34.28,-64.78 63.17,-98 73.83,-106.93 0.82,-1.07 1.92,-2.23 2.66,-3.04l7.01 -7.43c4.71,-5.68 2.52,0.67 4.68,-8.74l-9.77 -4.59c-10.82,-4.93 0.56,2.72 -6.48,-3.29l-39.22 16.72z"/>
   <path class="fil4" d="M50.67 143.58l24.86 -14.35c17.13,-22.4 79.87,-56.45 108.82,-63.76 6.57,-1.66 10.08,-1.67 15.46,-3.27 22.79,-6.8 22.69,-18.32 93.48,-21.16 66.7,-2.68 109.6,6.33 162.48,29.28 18.57,8.06 10.57,3.99 24.29,13.61 21.75,15.24 39.51,10.51 40.57,41.85 0.44,0.48 1.26,0.53 1.44,1.33 0.3,1.35 2.58,2.28 3.15,2.72l52.13 40.08c0.14,-16.54 -0.34,-25.19 -9.04,-34.44l-36.14 -35.6c-35.24,-36.49 -49.86,-33.77 -97.91,-56.27 -23.55,-11.02 -82.58,-18.12 -110.62,-18.6l-130.05 18.04 -71.59 29.94c-14.31,7.68 -22.55,12.41 -32.81,20.08l-38.52 50.52z"/>
   <path class="fil6" d="M823.86 244.46c11.4,-8.33 16.08,-6.67 26.25,-18.87 8.19,-9.83 13.16,-23.69 11.17,-41.05 -3.12,-27.4 -25.33,-46.9 -56.23,-45.3 -30.71,3.9 -54.34,25.5 -50.27,60.24 3.94,33.62 31.62,48.57 69.08,44.98z"/>
   <path class="fil7" d="M969.08 239.18c92.32,21.47 93.05,-116.83 4.38,-101.24 -21.35,8.41 -37.58,20.16 -39.63,46.62 -2.45,31.76 14.01,44.74 35.25,54.61z"/>
   <path class="fil5" d="M472.88 135.73l30.47 13.52c8.31,2.27 13.21,4.77 19.09,9.02 0.2,0.15 6.41,5.15 6.44,5.18 4.83,4.83 1.49,1.48 5.5,7.71 45.26,25.11 34.36,78.19 -2.37,103.04 -3.64,4.19 -1.41,2.68 -6.5,6.67 -0.08,0.06 -7.88,5.1 -9.26,5.98 -13.23,8.41 -9.22,6.77 -23.42,10.07l-15.09 8.22c-0.65,1.07 -2.14,1.13 -2.47,2.83 -2.15,11.28 -1.99,1.25 -3.86,4.79 -8.2,15.5 12.26,-5.18 -7.09,17.22l-5.36 6.29 15.83 -2.37 26.14 -8.89c2.68,-1.73 24.84,-13.98 29.38,-16.82 12.49,-7.8 19,-14.78 33.95,-22.31 2.93,-10.05 22.96,-26.83 29.93,-54 7.8,-30.42 -11.37,-40.09 -16.86,-61.99l-52.13 -40.08c-0.57,-0.44 -2.85,-1.37 -3.15,-2.72 -0.18,-0.8 -1,-0.85 -1.44,-1.33l-53.7 -20.75 8.89 3.16c-2.71,15.77 -4.34,15.12 -2.94,27.54z"/>
   <path class="fil8" d="M860.08 401.99l54.08 1.4c4.6,-5.22 1.82,0.31 2.98,-8.78l0.36 0.39 -9.94 -8.06c-1,-26.76 -2.93,-41.35 6.81,-63.11 6.18,-13.8 14.12,-34.91 23.72,-45.77l-5.1 -10.5 -26.13 0.13 3.43 12c5.26,10.54 -0.5,15.13 -6.63,30.07 -2.26,-1.6 -10,-0.44 -11.73,-16.44 -1.88,-17.28 4.13,2.97 -0.32,-17.39 -10.45,-10.08 -7.3,-8.46 -26,-8.8 -12.5,-0.23 -25.29,-0.01 -37.67,1.29 0.88,15.56 33.8,50.7 33.47,96.62 -0.24,34 -5,14.57 -10.33,33.73l9 3.23z"/>
   <path class="fil8" d="M723.89 377.07c5.74,4.8 4.1,-7.98 6.81,11.45l-10.01 4.62c-7.83,-5.07 -8.75,-3.41 -11.01,-14.44 -6.06,-11.49 -15.49,-14.78 -30.77,-15.4l6.99 38.03 8.32 0.56c22.19,-4.07 35.36,8.82 55.37,-5.76 19.12,-13.93 13.17,-33.11 4.56,-54.25 -3.1,-10.99 -4.82,-6.25 -8.54,-19.05 -6.31,-2.41 -5.07,6.69 -6.61,-3.14l0.3 -5.73c-6.78,-2.31 -2.04,-0.28 -7.74,-3.27 -0.69,-0.36 -3.11,-2.45 -4.13,-3.19 -12.18,-8.17 -13.66,-6.11 -16.29,-29.24 16.08,1.8 11.09,-0.85 20.01,8.84 5.29,5.97 5.67,4.77 9.71,15.06l3.62 -2.29 14.33 3.27 -8.78 -31.13c-2.16,-12.28 -6.47,-4.7 -19.79,-5.22 -19.06,-0.75 -59.22,-7.51 -53.38,37.6 4.63,35.75 40.32,46.59 47.03,72.67z"/>
   <path class="fil8" d="M1024.94 343c13.73,8.29 27.56,21.19 30.68,36.41 6.09,4.48 4.68,-7.41 4.99,9.28l-8.78 2.2c-14.67,-4.06 -7,-0.38 -15.25,-14.97l-12.68 -10.95 -13.57 -0.03 1.55 12.9 1.37 13.38c0.68,1.05 1.78,3.61 2.21,4.14 4.56,5.51 0.84,1.9 5.13,5.07 12.65,-0.01 13.09,-0.29 25.9,1.53 13.52,1.92 20.96,2.47 31.3,-4.83 18.5,-13.06 14.35,-33.23 7.43,-55.12l-0.84 -7.35 1.65 0.79c-4.66,-1.89 -14.69,-1.92 -9.85,-12.02 -6.56,-4.49 -9.62,-5.39 -11.78,-14.56 -7.5,-3.96 -5.27,-1.61 -10.26,-6.25 -7.65,-6.17 -2.5,5.82 -10.08,-11.43 -3.81,-8.67 -1.6,-5.84 -2.53,-13.3 13.17,2 9.71,-0.31 19.4,9.02 5.02,3.43 1.21,0.32 4.19,7.68l14.4 8 8.37 -1.11 -5.23 -28.61 -44.66 -7.08c-61.39,1.77 -13.09,77.09 -13.06,77.19z"/>
   <path class="fil9" d="M331.69 447.67l130.45 0c-2.75,-2.35 -1.89,-4.66 -4.3,-7.9 23.65,-1.76 14.6,-0.7 28.85,-9.49l34.02 -15.7c0.84,-0.36 1.85,-0.76 2.67,-1.12l23.21 -12.2c24.56,-13.97 5.59,-16.17 22.79,-21.43 10.9,-3.34 20.8,-1.61 13.75,7.72 1.09,-14.8 0.68,-22.17 7.53,-31.02l-0.02 -43.86c-15.9,5.78 -11.1,15.53 -24.66,27.58l-24.85 24.15c-14.26,14.57 -41.27,28.45 -61.86,36.1 -19.09,7.09 -47.59,24.25 -67.21,29.71 -23.57,6.56 -63.52,7.46 -80.37,17.48z"/>
   <path class="fil9" d="M7.18 78.23c-0.17,19.75 -2.29,36.4 4.1,51.85 25.34,-6.12 35.98,-40.35 73.15,-60.46l28.94 -16.44c9.38,-4.41 21.84,-8.36 29.93,-11.68 42.51,-17.46 13.63,-11.62 66.97,-22.86 6.84,-1.44 10.83,-2.09 17.74,-4.79 15.99,-6.23 7.21,3.22 14.26,-9.89l-91.69 0c-2.64,2.47 -1.44,2.52 -5.72,5.35 -11.84,7.82 -7.95,3.74 -24.02,6.67 -1.18,0.22 -2.14,0.31 -3.27,0.56l-94.59 56.11c-4.98,3.11 -1.9,9.68 -15.8,5.57z"/>
   <path class="fil10" d="M75.53 129.23l39.22 -16.72 23.84 -8.29 24.92 -9.02c18.19,-30.49 127.75,-44.55 158.49,-41.17 15.43,1.69 30.86,1.96 46.76,3.15 18.81,1.41 25.54,7.05 41.97,10.56 26.23,5.61 15.47,2.14 34.8,13.29 8.33,4.8 15.01,5.01 18.19,11.31l2.76 10.73 0.46 1.95 53.7 20.75c-1.06,-31.33 -18.82,-26.61 -40.57,-41.85 -13.72,-9.62 -5.72,-5.55 -24.29,-13.61 -52.88,-22.95 -95.78,-31.96 -162.48,-29.28 -70.8,2.84 -70.69,14.36 -93.48,21.16 -5.38,1.6 -8.89,1.61 -15.46,3.27 -28.94,7.3 -91.69,41.36 -108.82,63.76z"/>
   <path class="fil11" d="M793.71 149.06c-53.62,17.37 -30.52,109.74 32.01,86.1 19.04,-7.2 34.1,-33.62 25.65,-59.3 -6.44,-19.58 -29.23,-36.01 -57.65,-26.8z"/>
   <path class="fil9" d="M590.66 63.13c-5.1,-4.69 -5.78,-5.28 -6.78,-18.65 -8.3,14.02 3.03,15.51 -17.47,3.37l-31.03 -22.2c-19.27,-9.54 -22.17,0.24 -33.08,-21.67l-141.18 0.04 5.48 2.12c45.5,10.55 84.43,16.84 127.16,38.04 16.09,7.98 69.86,41.09 79.01,52.68 5.73,7.27 11.69,18.54 17.89,23.45l0 -57.17z"/>
   <path class="fil12" d="M163.51 95.2l12.4 -1.04 30.98 -6.66 18.81 -1.99 26.83 -1.2 21.79 -4.99c56.31,-3.31 111.54,3.33 165.58,17.89l26.56 5.87 -2.76 -10.73c-3.18,-6.3 -9.86,-6.51 -18.19,-11.31 -19.32,-11.15 -8.56,-7.68 -34.8,-13.29 -16.43,-3.51 -23.16,-9.15 -41.97,-10.56 -15.9,-1.2 -31.33,-1.46 -46.76,-3.15 -30.75,-3.38 -140.31,10.68 -158.49,41.17z"/>
   <path class="fil13" d="M252.07 111.67l-36.65 5.1 -23.58 4.91 -3.3 19.12 -19.24 3.33c-4.86,1.71 -13.33,3.8 -18.24,5.81 -23.79,9.74 -14.64,-0.43 -13.25,13.55l7.39 5.3 12.93 1.34 2.54 -7.43c0.79,-1.05 -3.39,-12.83 32.41,-3.68 3.39,-9.23 -5.85,-15.22 38.79,-19.73l27.68 -3.02 29.58 -1.66 53.22 1.73 31.24 3.27 18.53 2.01c19.36,-28.89 -2.75,-0.96 4.89,-23.21l-34.54 -4.2c-49.59,-5.84 -60.42,-6.22 -110.4,-2.55z"/>
   <path class="fil9" d="M7.09 389.85l3.71 -6.88c0.66,0.8 1.25,2.07 1.64,2.64 0.38,0.56 1.16,1.88 1.63,2.55 0.45,0.64 1.12,1.73 1.63,2.4 8.5,11.25 19.46,13.04 27.27,17.79l22.61 14.67c29.99,15.41 32.43,9.96 33.77,24.64l115.58 0c-4.39,-12.8 -0.46,-5.1 -18.32,-8.78 -9.29,-1.92 -7.87,-1.46 -17.9,-4.42 -12.77,-3.77 -26.22,-9.7 -32.91,-11.46 -25.77,-0.21 -14.8,-1.66 -26.51,-7.49 -68.02,-33.83 -41.47,-13.37 -109.63,-77.48l-2.58 51.81z"/>
   <path class="fil11" d="M973.67 148.63c-56.17,19.79 -25.15,98.52 27.2,81.07 53.07,-17.69 25.77,-99.73 -27.2,-81.07z"/>
   <path class="fil14" d="M462.22 180.56c6.28,25.03 -0.97,54.08 7.3,84.41 19.55,9.5 22.54,11.62 48.71,5.15l11.33 -9.17c0.61,-0.5 1.72,-1.43 2.6,-2.13l-0.64 -28.69 -26.94 -1.28 -2.44 7.52c1.79,15.03 5.77,12.55 -5.55,18.3 -7.18,-9.62 -3.86,-1.64 -2.98,-14.75l-2.08 -15.37c4.12,-11.67 -2.87,-5.19 7.94,-6.71 -3.25,-4.21 -13.62,-27.19 -2.88,-39.35 11.77,5.12 7.31,13.86 7.54,28.27l18.87 4.73 7.93 -2.97c4.88,-10.74 0.64,-25.1 0.56,-33.96 -0.99,-0.57 -2.24,-1.32 -2.93,-1.77l-17.56 -10.26c-12.69,-3.52 -18.66,-1.5 -30.46,1.6 -12.37,2.83 -13.58,6.86 -18.31,16.43z"/>
   <path class="fil13" d="M180.58 319.39l65.38 10.59 15.64 1.07c48.25,3.66 55.08,0.17 100.23,-3.74l14.39 0.36 6.07 -3.55c1.03,-0.56 1.96,-1.07 3.09,-1.68l6.39 -3.24c1.1,-0.59 2.33,-1.28 3.22,-1.76l6.52 -3.8c-19.4,-4.43 -17.31,-5.83 -22.06,-1.4 19.09,-1.48 17.28,-6.21 20.46,-13.32l-40.97 5.86 -20.35 0.52 -3.8 0.08 -22.46 7.17c-42.56,2.74 -100.54,-12.12 -133.05,-28.07l-28.51 1.18c11.43,8.82 9.99,9.98 26.96,11.94 -0.52,14.75 1.36,8.38 2.84,21.79z"/>
   <path class="fil15" d="M7.18 78.23c13.9,4.11 10.82,-2.45 15.8,-5.57l94.59 -56.11c1.13,-0.25 2.09,-0.34 3.27,-0.56 16.06,-2.93 12.18,1.15 24.02,-6.67 4.29,-2.83 3.08,-2.88 5.72,-5.35l-143.14 0.05 -0.26 74.22z"/>
   <path class="fil14" d="M85.09 173.07c11.15,18.19 1.92,72 5.15,97.43l24.15 3.5c2.24,-5.91 0.35,-1.72 5.6,-4.68l-0.99 -17.18 3.2 -15.33c-6.61,-7.18 -3.29,5.03 -3.45,-6.62 -0,-0.3 0.65,-1.39 0.95,-2.09l11.94 -2.67c6.83,4.79 2,0.06 5.51,8.62l2.45 -2.82 12.27 -10.16 -1.42 -44.92c-8.42,-5.55 -0.48,0.46 -5.23,-7.36l-7.39 -5.3 -47.51 -1.69 -5.21 11.28z"/>
   <path class="fil15" d="M462.14 447.67l128.52 0 0 -91.14c-6.85,8.85 -6.43,16.22 -7.53,31.02 7.06,-9.33 -2.85,-11.05 -13.75,-7.72 -17.2,5.27 1.77,7.46 -22.79,21.43l-23.21 12.2c-0.83,0.36 -1.84,0.76 -2.67,1.12l-34.02 15.7c-14.25,8.79 -5.2,7.72 -28.85,9.49 2.41,3.24 1.55,5.55 4.3,7.9z"/>
   <path class="fil16" d="M116.64 139.6c-10.66,8.93 -108.11,42.14 -73.83,106.93 5.11,9.65 21.47,28.92 33.58,30.52 -0.39,-17.57 0.93,-33.89 0.99,-51.33 0.04,-9.17 -0.61,-17.61 -0.88,-26.5 -0.88,-27.91 3.51,-23.71 8.12,-27.18l0.48 1.03 5.21 -11.28 47.51 1.69c-1.39,-13.97 -10.54,-3.8 13.25,-13.55 4.91,-2.01 13.38,-4.1 18.24,-5.81 -0.57,-6.76 -0.67,-3.11 -14.47,-3.8l6.91 -12.52 -13.58 0.91 -31.53 10.89z"/>
   <path class="fil8" d="M763.09 37.64l-1.27 21.56c35.59,-1.92 4.61,-2.82 24.25,-16.76 4.22,12.41 5.51,-0.06 1.34,13.56 -3.98,13 -2.25,3.35 -7.12,7.19 -4.28,22.31 -18.95,22.04 -19.89,51.18l47.43 -0.08 -0.64 -12.72 -18.42 -7.52c27.65,-47.6 13.61,-38.41 31.35,-38.14 7.47,13.81 3.59,39.21 3.79,56.92l18.77 0.96c9.22,-17.75 4.02,-59.7 2.99,-82.46 -16.56,-0.77 -22.07,5.61 -33.27,13.68 -15.37,-10.91 -24.36,-28.46 -49.31,-7.36z"/>
   <path class="fil14" d="M158.14 170.12c6.64,-9.58 21.48,-8.34 29.94,-8.34 5.87,29.54 3.76,69.92 3.76,105.32l-13.01 7.34 11.33 -0.07c7.75,-30.37 -2.22,-81.37 5.46,-98.13 3.32,4.06 5.65,-2.56 5.62,22.98l-0.08 67.88c10.3,4.86 8.47,1.98 17.36,12.2 18.19,-3.33 7.18,-1.18 12.38,2.83l21.13 1.54c-2.73,-8.35 -5.11,-8.87 -5.81,-10.06 -4.63,-7.88 -8.14,-8.81 -7.98,-29.23 0.32,-39.37 4.62,-16.19 10.06,-29.95 0.07,0.04 3.62,10.92 -11.29,-3.74 5.27,-2.74 1.66,-24.08 0,-37.62 23.09,5.62 -2.02,3.75 15.05,-0.02 -8.09,-0.05 -0.2,1.26 -2.85,-6.87l-20.99 -3.72c-27.45,-0.72 -18.54,0.36 -38.33,8.71l-2.83 -8.18 -26.4 -0.3 -2.54 7.43z"/>
   <path class="fil15" d="M346.09 194.08c0.12,21.55 -3.1,68.79 3.76,87.91l21.85 0.78 7.98 -6.49 -0.01 -4.57c2.5,-26.27 -2.13,-58.03 4.86,-80.24 -8.17,-3.73 -8.2,4.83 -5.65,-10.38l25.14 -5.23c0.91,-0.39 2.24,-1.07 2.99,-1.4 0.75,-0.34 2.01,-0.98 3.03,-1.44 -38.27,-1.99 -64.43,-14.99 -84.39,11.3 6.4,6.44 7.56,4.47 20.43,9.74z"/>
   <path class="fil17" d="M410.04 173.03c-1.02,0.46 -2.28,1.1 -3.03,1.44 -0.74,0.33 -2.08,1 -2.99,1.4l-25.14 5.23c-2.55,15.22 -2.52,6.65 5.65,10.38l6.41 -3.49c3.94,-1.71 -0.05,-0.86 7.77,-2.24 3.43,-8.41 -0.43,-5.77 7.4,-8.75l1.32 93.11 43.18 1.22 4.63 -1.23 0.53 -22.19 -2.12 0.42c-4.06,3.36 -2.4,3.16 -9.57,5.76 -9.79,3.55 1.69,0.73 -7.71,-0.55 -6,-13.22 -6.73,-8.03 3.05,-19.18l1.33 0.07 -7.3 -4.94c7.98,-6.25 1.86,-5.92 9.72,-0.13l11.9 -2.62 0.09 -21.11 -19.28 1.4c-1.83,-23.49 -0.82,-6.65 4.54,-10.21l-1.15 -3.09c-8.36,-5.32 -9.35,6.21 -3.83,-10.43 14.08,-3.11 3.24,-1.19 9.22,3.24l9.63 -9.94 -0.1 -7.32c-15.67,0 -34.76,-2.5 -44.18,3.76z"/>
   <path class="fil18" d="M431.62 344.36l-36.59 7.1c-41.67,13.4 -135.78,10.58 -182.82,2.34l-25.33 -2.59c2.13,14.73 -5.72,3.27 24.79,19.97l17 5.34c33.17,5.47 78.34,4.58 107.3,0.58 24.8,-3.42 15.06,-0.09 35.19,-9.63 15.5,-7.34 48.33,-11.6 70.64,-18.81 11.88,-3.84 24.32,-7.26 32.99,-14.75l-15.83 2.37 -27.37 8.08z"/>
   <path class="fil19" d="M283.64 173.03l25.31 0c-9.33,4.77 -3.52,1.21 -6.99,11.3 10.88,18.77 11.04,19.61 13.17,45.14 -10.61,10.32 -27.94,7.06 -9.42,21.85l5.9 4.11 2.43 13.84 15.81 4.03 10.82 -4.91 -5.79 -20.63 -4.18 -48.32 10.5 -6.39 4.89 1.01c-12.88,-5.27 -14.04,-3.3 -20.43,-9.74 19.96,-26.29 46.12,-13.29 84.39,-11.3 9.42,-6.26 28.52,-3.76 44.18,-3.76l-0.81 -5.91c-9.14,-1.41 -15.37,-1.56 -24.62,-1.62 -3.83,-0.02 -11.11,-0.1 -14.67,0.53 -7.19,1.28 -3.94,1.2 -7.6,3.64 -14.73,-0.05 -4.15,0.73 -6.71,-3.15l-25.73 -0.63c-45.44,1 -26.86,2.75 -41.07,5.03 -10.08,1.63 -7.51,-4.73 -28.4,-5.05 -8.28,-0.12 -18.29,-1.53 -19.86,4.14l-1.09 6.78z"/>
   <path class="fil15" d="M252.03 283.67c8.45,-5.91 6.22,-1.91 15.6,-0.83 6.08,0.7 6.75,2.47 13.98,0.33 9.64,-2.84 6.32,1.06 7.06,-6.9 -6.35,-7.94 0.99,-7.11 -14.08,-9.17 -3.04,-34.68 7.92,-51.67 11.29,-86.53l-9.22 -0.02 -10.98 47.39c-13.57,-17.74 -9.3,-3.64 -4.86,-22.52 3.25,-13.85 2.73,-13.64 0.24,-29.34 -2.87,-10 -1.86,-7.85 -11.85,-9.9 2.65,8.13 -5.24,6.82 2.85,6.87 -17.07,3.77 8.04,5.63 -15.05,0.02 1.66,13.54 5.27,34.88 0,37.62 14.9,14.66 11.36,3.78 11.29,3.74 -5.44,13.77 -9.74,-9.42 -10.06,29.95 -0.16,20.42 3.35,21.35 7.98,29.23 0.7,1.19 3.08,1.71 5.81,10.06z"/>
   <path class="fil20" d="M205.41 350.53l6.8 3.27c47.03,8.24 141.15,11.06 182.82,-2.34l23.11 -27.73c0.89,-0.52 2.46,-0.65 3.11,-2.37 0.69,-1.81 2.17,-1.69 3.2,-2.61l-48.22 8.91 -14.39 -0.36c-5.75,8.19 1.97,4.26 -8.02,11.18l7.93 11.36c-27.44,3.06 -43.43,7.71 -75.91,4l-34.69 -10.17 -5.19 -13.7 -65.38 -10.59 -3.75 6.09c43.58,6.27 25.78,13.93 25.74,14.75l2.83 10.3z"/>
   <path class="fil8" d="M710.07 41.86l-0.75 59.65c6.18,19.86 29.64,12.38 42.58,9.37 4.5,-14.89 8.87,-51.24 2.86,-68.08 -6.37,-17.84 -38.19,-19.82 -44.69,-0.94z"/>
   <path class="fil8" d="M990.62 114.69c0.06,-0.07 3.63,-1.63 6.21,-11.5l-0.6 -51.35c-4.06,-6.29 0.21,-2.03 -8.23,-5.3l-5.73 -1.51c-28.61,-11.05 9.87,-14.25 -31.56,-14.65l-0.65 83.57 40.56 0.75z"/>
   <path class="fil21" d="M158.14 170.12l-0.13 3.94c7.25,15.84 1.64,70.77 3.23,93.04l17.6 7.34 13.01 -7.34c0,-35.4 2.11,-75.78 -3.76,-105.32 -8.46,0 -23.31,-1.24 -29.94,8.34z"/>
   <path class="fil15" d="M7.09 389.85l0.55 57.82 91.72 0c-1.35,-14.68 -3.78,-9.23 -33.77,-24.64l-22.61 -14.67c-7.82,-4.75 -18.78,-6.53 -27.27,-17.79 -0.51,-0.68 -1.18,-1.76 -1.63,-2.4 -0.47,-0.67 -1.25,-1.99 -1.63,-2.55 -0.39,-0.58 -0.97,-1.85 -1.64,-2.64l-3.71 6.88z"/>
   <path class="fil7" d="M1089.44 115.09l42.92 -2.89 0 -57.87c-19.19,-16.7 -45.16,-17.97 -46.63,18.29 31.81,0.2 14.17,5.46 23.03,-14.62 3.18,19.36 -6.11,14.21 -21.52,23.74 -2.16,16.67 -2.46,20.59 2.21,33.36z"/>
   <path class="fil22" d="M276.74 175.23l-0.07 5.32 9.22 0.02c-3.36,34.86 -14.33,51.85 -11.29,86.53 15.07,2.05 7.73,1.23 14.08,9.17l4.04 0.24c0,-11.11 2.81,-7.7 12.94,-5.89 -9.46,-11.5 -3.63,3.11 -5.74,-14.8l11.67 -0.37 -5.9 -4.11c-18.52,-14.79 -1.18,-11.53 9.42,-21.85 -2.13,-25.53 -2.29,-26.38 -13.17,-45.14 3.47,-10.09 -2.34,-6.54 6.99,-11.3l-25.31 0 -6.9 2.2z"/>
   <path class="fil15" d="M590.66 63.13l0 -58.43 -88.36 -0.72c10.92,21.91 13.81,12.13 33.08,21.67l31.03 22.2c20.5,12.14 9.18,10.66 17.47,-3.37 1,13.37 1.68,13.96 6.78,18.65z"/>
   <path class="fil23" d="M673.01 58.96c0,-1.4 -3.41,-2.18 4.15,-15.54 4.2,5.79 9.15,-12.07 4.39,12.2 -2.17,11.07 -8.02,10.17 -10.3,11.8 -3.18,18.61 -15.23,21.03 -17.51,45.57l45.68 1.12 -2.26 -14.88 -16.36 -1.14 16.38 -31.31 2.69 -29.13c-8.79,-6.51 -10.86,-9.53 -26.49,-8.06 -16.71,5.68 -19.74,8.93 -18.38,29.51l18.01 -0.12z"/>
   <path class="fil8" d="M1005.76 56.98l-0.94 46.02c4.83,8.7 9.69,12.11 22.2,12.26 16.08,0.2 17.78,-4.88 21.51,-16.23l0.12 -11.32 -15.87 0.55 -4 13.5c-3.91,-3.89 -4.01,-0.81 -5.1,-7.78 -0.56,-3.56 0.03,-5.18 0.32,-7.7 4.67,-10.57 10.86,-6.16 25.81,-7.54l-4.03 -29.8c-16.11,-1.96 -32.3,-13.61 -40.02,8.06z"/>
   <path class="fil24" d="M530.92 208.53l-4.19 13.41 4.79 8.21 0.64 28.69 -4.07 9.15c-3.21,12.5 -2.73,0.71 3.91,6.23 36.73,-24.85 47.63,-77.93 2.37,-103.04l-2.89 3.4c0.08,8.86 4.32,23.22 -0.56,33.96z"/>
   <polygon class="fil25" points="875.52,112.28 904.35,114.19 913.55,46.3 893.86,46.36 890.04,75.19 885.38,45.95 866.98,44.91 "/>
   <path class="fil26" d="M265.5 85.99l18.96 -2.47 51.24 1.02 44.27 4.89c2.95,5.31 4.1,-0.94 1.68,12.68 -0.06,0.35 -0.58,1.4 -0.64,1.71 -0.44,2.37 -8.25,1.75 9.42,7.35 1.05,0.33 8.82,2.96 9.41,3.23 13.07,5.83 4.46,1.93 9.67,5.44l34.4 8.38c-2,-6.16 6.95,-3.49 -8.97,-7.54l4.19 -4.72c1.39,-2.48 7.9,-1.12 0.78,-18.76 -54.05,-14.56 -109.27,-21.2 -165.58,-17.89l-21.79 4.99 12.96 1.68z"/>
   <path class="fil27" d="M400.08 284.34l10.71 4.89 -10.86 9.67c-3.19,7.1 -1.37,11.84 -20.46,13.32 4.75,-4.43 2.66,-3.03 22.06,1.4l-6.52 3.8c-0.89,0.48 -2.12,1.17 -3.22,1.76l-6.39 3.24c-1.13,0.61 -2.07,1.12 -3.09,1.68l-6.07 3.55 48.22 -8.91 26.86 -6.85 11.64 -10.82c6.76,-2.66 8,-2 16.11,-2.68l-7.99 -6.49c-0.76,-0.66 -1.75,-1.36 -2.43,-1.98 -3.48,-3.17 -2.88,-2.33 -5.89,-7.11 -2.02,-6.53 -0.2,-7.27 -12.13,-7.14l-2.31 -0.22 -0.18 2.96c-5.97,11.81 -34.65,6.74 -48.05,5.91z"/>
   <path class="fil28" d="M934.55 403.51l4.41 14.62 -61.85 -0.41 0 5.68c25.48,3.38 45.74,8.87 77.17,3.68 -0.98,-5.16 -21.28,-31.14 -6.19,-69.72 7.04,-18 26.03,-51.07 28.62,-60.17l-10.18 -6.72c-1.42,6.46 -18.1,37.56 -24.04,50.58 -11.04,24.19 -9.72,31.04 -7.93,62.45z"/>
   <path class="fil27" d="M392.13 141.62c1.16,0.47 11.37,3.51 14.52,5.09 13.63,6.84 0.14,0.19 10.94,8.9 11.41,4.58 31.24,-4.03 35.83,7.74l0.81 5.91 0.1 7.32 7.9 3.97c4.73,-9.57 5.93,-13.6 18.31,-16.43l-34.48 -23.85 -2.14 -12.06 -34.4 -8.38 -12.49 -1.43c-7.64,22.25 14.46,-5.68 -4.89,23.21z"/>
   <path class="fil25" d="M966.84 218.11c9.66,-4.64 2.93,1.48 6.39,-7.98l2.17 -9.46c0.3,-0.9 0.99,-2.2 1.26,-2.93 0.27,-0.72 0.85,-1.96 1.46,-2.83 22.92,9.77 9.59,24.05 32.29,21.83 -21.54,-35.31 -10.62,-12.49 -3.91,-34.25 7.82,-25.38 -28.65,-21.39 -43.21,-20.19 -0.15,9.89 -0.25,19.78 -0.33,29.66 -0.2,27.51 0.35,20.51 3.87,26.15z"/>
   <path class="fil29" d="M285.84 353.85c32.48,3.71 48.47,-0.94 75.91,-4l-7.93 -11.36c9.99,-6.92 2.27,-2.99 8.02,-11.18 -45.15,3.91 -51.98,7.4 -100.23,3.74l18.05 5.18c0.32,11.87 0.16,12.3 6.19,17.62z"/>
   <path class="fil30" d="M9.67 338.04c68.17,64.11 41.62,43.66 109.63,77.48 11.71,5.83 0.75,7.28 26.51,7.49 -7.87,-10.9 1.28,-0.7 -7.85,-7.18 -11.62,-8.24 -87.18,-36.4 -109.67,-80.46l-3.31 -7.85c-6.89,-12.69 -12.93,-8.39 -15.43,-21.22 -4.36,-22.41 1.84,-5.36 1.84,-5.36l-1.74 37.1z"/>
   <path class="fil29" d="M252.07 111.67c49.99,-3.67 60.81,-3.3 110.4,2.55 -0.92,-0.73 -2.13,-3.1 -2.72,-2.21l-13.3 -5.19c-1.3,-18.04 6.74,-12.23 -10.76,-22.26l-51.24 -1.02c-5.31,8.66 -5.69,12.03 -0.78,21.51l-31.61 6.64z"/>
   <path class="fil31" d="M272.65 155.73l-34.62 2.02c-18.21,1.06 -4.4,-0.11 -9.8,4.71l20.99 3.72c9.99,2.05 8.98,-0.1 11.85,9.9 11.77,1.45 8.1,2.06 15.67,-0.85 2.49,-6.54 1.09,-4.99 7.99,-8.98 1.57,-5.67 11.58,-4.26 19.86,-4.14 20.89,0.32 18.32,6.67 28.4,5.05 14.22,-2.29 -4.37,-4.04 41.07,-5.03 -3.71,-3.19 5.87,-5.05 -12.55,-4.04 -6.7,-0.59 -36.36,-2.39 -39.48,-6.15 -3.99,-4.81 8.41,-16.96 -24.84,-10.29l-2.34 12.09 -22.2 2z"/>
   <path class="fil8" d="M1055.11 45.28c-1.1,9.13 2.46,45.9 2.48,62.79l27.02 7.2c-2.1,-25.05 -11.17,-18.09 -4.23,-54.32 1.12,-5.86 5.54,0.11 0.98,-15.03l-24.64 -7.66 -1.6 7.02z"/>
   <path class="fil32" d="M252.03 283.67l-21.13 -1.54 16.8 1.42 35.24 0.32c-8.59,9.26 8.65,0.78 -13.93,10.28 -16.05,6.75 -5.22,2.74 -9.46,-0.69 12.63,7.1 3.86,0.58 7.52,10.1l67.72 1.83 3.8 -0.08c7.54,-9.72 -9.3,-8.08 8.69,-8.08 -11.25,0.74 -5.23,2.34 -4.92,-15.05l22.9 1.2 6.44 -0.6 -21.85 -0.78c-1.64,-0.8 -10.78,-4.49 -11.27,-4.85 -3.12,3.12 -11.08,5.03 -11.27,5.13l-18.85 -0.08c-1.17,-0.59 -2.61,-1.38 -3.53,-1.77 -0.86,-0.36 -2.46,-1.13 -3.39,-1.51 -0.85,-0.34 -2.39,-0.86 -3.15,-1.14 -0.68,-0.26 -2.4,0.41 -2.91,-0.77 -0.47,-1.1 -1.84,-0.33 -2.76,-0.5l-4.04 -0.24c-0.74,7.97 2.58,4.06 -7.06,6.9 -7.23,2.13 -7.9,0.37 -13.98,-0.33 -9.38,-1.08 -7.16,-5.08 -15.6,0.83z"/>
   <path class="fil33" d="M179.29 284.47c32.51,15.95 90.49,30.81 133.05,28.07l22.46 -7.17 -67.72 -1.83c-46.29,-2.73 -24.11,-14.05 -19.38,-20l-16.8 -1.42c-5.2,-4 5.81,-6.16 -12.38,-2.83 -7.28,4.89 9.12,0.96 -8.4,4.11 -1.44,0.26 -5.42,0.63 -6.86,0.44 -14.88,-1.98 -8.3,-0.37 -13.1,-9.48l-11.33 0.07 2.6 2.54 -2.16 7.5z"/>
   <path class="fil7" d="M834.79 202.86c-15.64,0.6 -28.69,30.81 -39.77,2.44 -6.09,-15.6 -0.64,-44.61 21.62,-33.01 10.45,5.44 -5.66,4.11 16.59,8.66 -6.27,-34.88 -53.69,-26.28 -54.03,10.91 -0.35,38.67 48.01,46.7 55.59,11z"/>
   <path class="fil11" d="M1013.24 391.23l-1.37 -13.38c-12.22,-15.52 -4.29,-5.71 -4.26,-12.93 5.53,-2.16 0.43,-2.81 8.46,-2.38 14.9,0.8 1.27,-0.67 7.82,2.43l12.68 10.95c6.09,3.04 3.98,0.17 11.56,7.24 6.66,1.38 4.11,3.3 7.49,-3.74 -3.11,-15.22 -16.95,-28.13 -30.68,-36.41l-3.17 9.11c-16.14,2.47 -15.62,3.75 -20.13,-6.01 12.38,-18.2 -9.05,3.69 7.9,-2.69 0.87,-0.33 2.16,-0.68 3.04,-1.05l6.91 -3.76c-17.64,-6.06 -7.75,2.55 -6.5,-13.93 -27.02,29.38 -10.25,0.4 -17.3,17.15l-0.44 3.98c-0.2,5.57 -0.35,-0.38 0.9,8.32 1.8,12.5 -1.03,8.1 4.55,17.24l-8.02 5.22c-0.88,0.82 -2.22,2.19 -3.24,3.36 14.62,-1.51 4.85,-5.19 20.64,8.45 0.91,0.79 2,2.03 3.17,2.84z"/>
   <path class="fil8" d="M455.18 205.62l-0.09 21.11 0.69 21.16 -0.53 22.19c8.48,3.46 -0.96,-4.65 8.06,3.79 9.65,9.03 3.22,1.66 5.27,9.12 25.93,1.94 36.6,6.32 49.65,-12.86 -26.18,6.47 -29.16,4.35 -48.71,-5.15 -8.28,-30.33 -1.02,-59.39 -7.3,-84.41l-7.04 25.06z"/>
   <path class="fil34" d="M917.5 394.99c-1.64,-28.89 -3.55,-39.91 7.31,-64.65 7.13,-16.24 11.19,-35.38 24.41,-43.98l-3.98 -11.16c-10.06,-11.17 0.78,-1.7 -12.24,-7.65l5.1 10.5c-9.6,10.86 -17.54,31.97 -23.72,45.77 -9.74,21.76 -7.82,36.35 -6.81,63.11l9.94 8.06z"/>
   <path class="fil35" d="M917.5 394.99l-0.36 -0.39 10.68 1.44c-5.12,-26.82 -0.62,-41.93 7.91,-62.14 3.43,-8.13 7.65,-17.7 11.7,-26.07 8.09,-16.72 12,-9.97 8.92,-24.49 -8.28,-8.79 -2.78,-3.33 -11.11,-8.14l3.98 11.16c-13.21,8.6 -17.28,27.74 -24.41,43.98 -10.86,24.74 -8.95,35.76 -7.31,64.65z"/>
   <path class="fil36" d="M150.44 176.14l1.42 44.92c2.06,37.42 -12.3,72.86 29.58,55.91l-2.6 -2.54 -17.6 -7.34c-1.6,-22.27 4.02,-77.2 -3.23,-93.04l-7.56 2.08z"/>
   <path class="fil32" d="M272.65 155.73l22.2 -2 2.34 -12.09c33.25,-6.67 20.85,5.48 24.84,10.29 3.12,3.76 32.77,5.56 39.48,6.15l-19.16 -21.75 -53.22 -1.73 -18.91 8.18c4.03,7.37 2.04,2.72 2.41,12.95z"/>
   <path class="fil37" d="M1020.58 400.43c6.59,9.14 3.82,7.15 13.32,8.94 20.52,-5.68 28.78,6.79 49.31,-3.03 17.48,-8.36 18.96,-20.22 16.6,-44.61 -1.54,-6.17 0.69,-4.71 -4.87,-11.82 -7.85,-10.04 -4.06,-3.96 -9.72,-7.89 6.92,21.89 11.06,42.06 -7.43,55.12 -10.34,7.3 -17.78,6.74 -31.3,4.83 -12.81,-1.82 -13.25,-1.54 -25.9,-1.53z"/>
   <path class="fil38" d="M190.17 274.37c4.8,9.1 -1.78,7.5 13.1,9.48 1.44,0.19 5.43,-0.18 6.86,-0.44 17.52,-3.15 1.12,0.78 8.4,-4.11 -8.89,-10.22 -7.05,-7.34 -17.36,-12.2l0.08 -67.88c0.03,-25.54 -2.3,-18.92 -5.62,-22.98 -7.67,16.76 2.3,67.76 -5.46,98.13z"/>
   <path class="fil28" d="M1051.42 421.45c2.61,14.99 -0.31,3.51 5.7,8.18 24.11,-4.98 44.56,7.14 62.33,-9.77 13.7,-13.04 13.83,-43.92 -4.63,-50.68 5.19,19.92 5.39,37.4 -9.88,47.15 -15.73,10.04 -33.42,2.39 -53.52,5.11z"/>
   <path class="fil39" d="M362.48 114.21l34.54 4.2 12.49 1.43c-5.21,-3.51 3.4,0.39 -9.67,-5.44 -0.6,-0.27 -8.36,-2.89 -9.41,-3.23 -17.67,-5.61 -9.86,-4.99 -9.42,-7.35 0.06,-0.31 0.58,-1.36 0.64,-1.71 2.41,-13.62 1.27,-7.37 -1.68,-12.68l-44.27 -4.89c17.5,10.03 9.46,4.22 10.76,22.26l13.3 5.19c0.6,-0.88 1.81,1.48 2.72,2.21z"/>
   <path class="fil37" d="M694.23 401.89c2.59,9.57 0.39,8.85 10.55,8.03 22.1,-6.58 31.77,8.51 52.96,-5.96 18.41,-12.58 14.24,-29.22 8.94,-52.17l-1.12 -4.16 -11.41 -5.74c8.61,21.14 14.57,40.32 -4.56,54.25 -20,14.57 -33.18,1.68 -55.37,5.76z"/>
   <path class="fil40" d="M135.43 308.02l11.3 4.35 33.84 7.02c-1.48,-13.41 -3.36,-7.04 -2.84,-21.79 -16.97,-1.96 -15.53,-3.11 -26.96,-11.94l-15.33 1.1 -4.57 3.15 4.55 18.11z"/>
   <path class="fil41" d="M927.82 396.04c0.5,0.82 1.44,0.84 1.83,2.23 5.4,19.04 -5.23,-7.23 4.9,5.23 -1.79,-31.41 -3.11,-38.27 7.93,-62.45 5.94,-13.01 22.62,-44.12 24.04,-50.58l1.51 -2.9c-5.46,-2.12 -6.34,-1.63 -11.68,-4.23 3.08,14.52 -0.83,7.77 -8.92,24.49 -4.05,8.38 -8.27,17.94 -11.7,26.07 -8.53,20.21 -13.03,35.31 -7.91,62.14z"/>
   <path class="fil42" d="M104.73 279.78c4.31,-2.78 5.58,-3.31 9.66,-5.79l-24.15 -3.5c-3.23,-25.43 6,-79.24 -5.15,-97.43l-0.48 -1.03c-4.48,18.91 -5.04,89.99 -0.57,108.84l20.68 -1.1z"/>
   <path class="fil43" d="M704.78 409.92c3.14,11.96 -0.44,4.67 7.26,6.78 18.59,-1.67 74.39,9.9 68.98,-36.43 -0.38,-3.27 -3.06,-11.63 -4.09,-14.06 -1.17,-2.76 -1.97,-5.02 -3.62,-7.42 -4.58,-6.65 -1.72,-2.47 -6.63,-7 5.29,22.95 9.46,39.59 -8.94,52.17 -21.19,14.47 -30.86,-0.62 -52.96,5.96z"/>
   <path class="fil35" d="M1033.9 409.36c3.21,7.95 -0.85,5.07 7.83,7.54 22.55,-3.86 36.48,5.44 54.92,-4.97 20.58,-11.62 13.21,-28.99 10.51,-52.26l-7.36 2.05c2.36,24.38 0.89,36.24 -16.6,44.61 -20.53,9.82 -28.79,-2.65 -49.31,3.03z"/>
   <path class="fil28" d="M720.9 421.95l3.55 6.71c13.77,0.18 16.87,-0.57 31.81,0.29 10.91,0.63 22.28,-0.6 30.67,-7.11 16.04,-12.48 16.7,-42.45 -2.16,-54.11 5.45,20.8 6.72,39.23 -10.22,49.27 -19.08,11.3 -31.54,1.35 -53.65,4.94z"/>
   <path class="fil44" d="M443.91 128.23l28.96 7.5c-1.4,-12.42 0.22,-11.77 2.94,-27.54l-8.89 -3.16 -0.46 -1.95 -26.56 -5.87c7.12,17.64 0.61,16.28 -0.78,18.76l-4.19 4.72c15.92,4.05 6.97,1.37 8.97,7.54z"/>
   <path class="fil16" d="M480.53 164.14c0.81,-11.93 15.37,-9.54 24.61,-9.43l-1.79 -5.46 -30.47 -13.52 -28.96 -7.5 2.14 12.06 34.48 23.85z"/>
   <path class="fil45" d="M398.71 185.74c-0.06,15.57 0.45,31.69 0.43,47.5 -0.01,8.71 -0.37,17.9 -0.24,26.52 0.19,13.24 -0.91,10.23 3.42,19.75 6.3,-9.95 -2.47,-2.06 8.01,-4.63 0.56,-0.14 9.83,-1.1 10.78,-1.17 14.54,-1.2 13.32,-1.67 27.22,1.76l2.31 0.22 0 -4.38 -43.18 -1.22 -1.32 -93.11c-7.83,2.98 -3.97,0.35 -7.4,8.75z"/>
   <path class="fil43" d="M384.53 191.48c-6.98,22.2 -2.35,53.96 -4.86,80.24 1.96,-3.07 2.59,-2.04 4.03,-8.48 0.49,-2.2 0.64,-8.49 0.71,-10.98l-0.46 -45.69c2.35,-16.33 -1.29,-6.06 7.3,-11.04 8.41,19.88 2.85,56.43 2.85,80.29l5.98 8.53c13.4,0.83 42.08,5.9 48.05,-5.91 -12.49,4.43 -33.22,5.93 -45.82,1.08 -4.33,-9.51 -3.23,-6.51 -3.42,-19.75 -0.12,-8.62 0.23,-17.81 0.24,-26.52 0.03,-15.81 -0.48,-31.93 -0.43,-47.5 -7.82,1.39 -3.83,0.54 -7.77,2.24l-6.41 3.49z"/>
   <path class="fil46" d="M379.67 271.71l0.01 4.57 14.41 -0.47c0,-23.86 5.56,-60.41 -2.85,-80.29 -8.59,4.98 -4.95,-5.29 -7.3,11.04l0.46 45.69c-0.06,2.5 -0.21,8.79 -0.71,10.98 -1.44,6.44 -2.07,5.41 -4.03,8.48z"/>
   <path class="fil47" d="M766.68 351.78c4.91,4.53 2.05,0.35 6.63,7 1.65,2.4 2.45,4.66 3.62,7.42 1.03,2.43 3.71,10.79 4.09,14.06 5.4,46.33 -50.39,34.76 -68.98,36.43l8.86 5.26c22.11,-3.59 34.57,6.36 53.65,-4.94 16.94,-10.04 15.67,-28.47 10.22,-49.27 -2.33,-3.73 -3.92,-6.45 -6.35,-9.83 -1.03,-1.44 -3.88,-5.55 -4.92,-6.43 -8.5,-7.11 4.07,0.28 -7.94,-3.86l1.12 4.16z"/>
   <path class="fil48" d="M224.63 110.67c-17.32,4.42 -3.27,-0.71 -9.2,6.09l36.65 -5.1 31.61 -6.64c-4.91,-9.47 -4.53,-12.85 0.78,-21.51l-18.96 2.47 -16.07 4.24 3.76 14.95c-18.47,5.99 -13.49,5 -28.56,5.49z"/>
   <path class="fil26" d="M424.44 318.76c-1.03,0.92 -2.51,0.8 -3.2,2.61 -0.65,1.72 -2.22,1.84 -3.11,2.37l-23.11 27.73 36.59 -7.1 8.3 -20.22c0.41,-0.58 1.15,-1.36 1.6,-1.91l9.78 -10.33 -26.86 6.85z"/>
   <path class="fil33" d="M371.7 282.77l-6.44 0.6c3.28,7.85 2.02,7.1 7.37,13.45 -0.01,0 -6.08,2.95 -7.8,3.93 -0.66,0.37 -2.38,2.78 -2.89,1.92 -0.54,-0.9 -1.98,1.42 -2.98,2.11l40.97 -5.86 10.86 -9.67 -10.71 -4.89 -5.98 -8.53 -14.41 0.47 -7.98 6.49z"/>
   <path class="fil13" d="M119.99 269.31l-0.09 12.72c12.78,2.27 4.19,0.27 15.56,4.72l15.33 -1.1 -4.18 -25.06 -27.6 -8.46 0.99 17.18z"/>
   <path class="fil26" d="M175.91 94.16c-3.88,7.18 4.51,8.56 -4.79,5.65 8.16,9.84 -2.11,-7.38 5.8,6.15 1.8,3.08 9.43,-0.17 -8.21,16.14 -0.88,0.82 -2.17,1.85 -3.16,2.88l16.68 -2.14c12.08,-13.22 11.94,-7.5 25.66,-13.75 -1.49,-12.23 -3.21,-10.45 -1,-21.59l-30.98 6.66z"/>
   <path class="fil44" d="M451.3 311.91l-9.78 10.33c-0.45,0.55 -1.2,1.32 -1.6,1.91l-8.3 20.22 27.37 -8.08 5.36 -6.29c19.35,-22.4 -1.11,-1.72 7.09,-17.22 1.87,-3.54 1.71,6.49 3.86,-4.79 0.32,-1.7 1.82,-1.76 2.47,-2.83l-26.45 6.76z"/>
   <path class="fil20" d="M182.23 122.85l9.62 -1.17 23.58 -4.91c5.93,-6.8 -8.12,-1.68 9.2,-6.09 0.68,-0.52 14.08,-0.69 2.98,-14.61 -9.41,-11.8 -12.13,-3.12 -13.19,-2.04 23.27,0 1.66,1.6 11.29,-8.52l-18.81 1.99c-2.22,11.14 -0.49,9.37 1,21.59 -13.71,6.25 -13.57,0.53 -25.66,13.75z"/>
   <path class="fil49" d="M114.74 112.51c7.04,6.01 -4.35,-1.64 6.48,3.29l9.77 4.59c-2.16,9.42 0.02,3.07 -4.68,8.74l-7.01 7.43c-0.73,0.81 -1.84,1.97 -2.66,3.04l31.53 -10.89 9.99 -12.09c-8.52,-8.71 -8.25,-7.09 -19.58,-12.4l-23.84 8.29z"/>
   <path class="fil41" d="M1041.73 416.9c3.75,4.39 -6.91,5.71 9.69,4.55 20.09,-2.72 37.78,4.93 53.52,-5.11 15.27,-9.75 15.07,-27.22 9.88,-47.15l-5.25 -7.86c-0.39,-0.37 -1.62,-1.08 -2.41,-1.65 2.71,23.27 10.07,40.63 -10.51,52.26 -18.44,10.42 -32.37,1.11 -54.92,4.97z"/>
   <path class="fil50" d="M138.58 104.22c11.33,5.31 11.05,3.69 19.58,12.4l-9.99 12.09 13.58 -0.91 3.8 -2.82c0.99,-1.03 2.28,-2.06 3.16,-2.88 17.64,-16.31 10.01,-13.06 8.21,-16.14 -7.91,-13.54 2.36,3.68 -5.8,-6.15 9.31,2.91 0.92,1.53 4.79,-5.65l-12.4 1.04 -24.92 9.02z"/>
   <path class="fil51" d="M361.52 158.08c18.42,-1.01 8.84,0.85 12.55,4.04l25.73 0.63 -26.2 -23.15 -31.24 -3.27 19.16 21.75z"/>
   <path class="fil33" d="M399.8 162.75c2.56,3.89 -8.01,3.11 6.71,3.15 3.66,-2.45 0.41,-2.36 7.6,-3.64 3.56,-0.63 10.84,-0.55 14.67,-0.53 9.26,0.05 15.49,0.2 24.62,1.62 -4.59,-11.77 -24.41,-3.16 -35.83,-7.74 -10.8,-8.72 2.69,-2.06 -10.94,-8.9 -3.15,-1.58 -13.36,-4.62 -14.52,-5.09l-18.53 -2.01 26.2 23.15z"/>
   <path class="fil33" d="M160.68 162.69l26.4 0.3c19.89,-0.98 7.97,-0.88 26.81,-7.54 16.93,-5.99 14.86,-0.51 10.43,-8.73 0.98,-0.49 2.14,-2.96 2.46,-2.2l5.11 -5.24c-44.65,4.51 -35.4,10.5 -38.79,19.73 -35.8,-9.14 -31.62,2.63 -32.41,3.68z"/>
   <path class="fil51" d="M231.88 139.28l-5.11 5.24c-0.32,-0.76 -1.48,1.7 -2.46,2.2 4.43,8.22 6.51,2.75 -10.43,8.73 -18.84,6.66 -6.92,6.56 -26.81,7.54l2.83 8.18c19.79,-8.35 10.88,-9.43 38.33,-8.71 5.4,-4.82 -8.41,-3.65 9.8,-4.71 6.56,-6.09 -9.18,-3.99 9.99,-5.47 -2.62,-5.83 -1.88,-4.56 -7.28,-7.81l18.81 -8.21 -27.68 3.02z"/>
   <path class="fil52" d="M870.65 410.11c5.22,9.5 -5.21,3.18 6.46,7.61l61.85 0.41 -4.41 -14.62c-10.13,-12.47 0.5,13.8 -4.9,-5.23 -0.4,-1.39 -1.33,-1.41 -1.83,-2.23l-1.6 13.87 -55.57 0.2z"/>
   <path class="fil31" d="M137.15 234.04l-14.95 2.76 -3.2 15.33 27.6 8.46 0.54 -27.35c-5.44,-5.48 1.75,-2.06 -7.54,-2.02l-2.45 2.82z"/>
   <path class="fil53" d="M238.03 157.75l34.62 -2.02c-0.37,-10.23 1.61,-5.58 -2.41,-12.95l18.91 -8.18 -29.58 1.66 -18.81 8.21c5.4,3.24 4.66,1.97 7.28,7.81 -19.18,1.48 -3.43,-0.61 -9.99,5.47z"/>
   <path class="fil53" d="M267.08 303.55c-3.66,-9.51 5.11,-3 -7.52,-10.1 4.24,3.43 -6.59,7.45 9.46,0.69 22.58,-9.5 5.34,-1.02 13.93,-10.28l-35.24 -0.32c-4.73,5.95 -26.91,17.27 19.38,20z"/>
   <path class="fil53" d="M338.6 305.29l20.35 -0.52c1,-0.69 2.44,-3.01 2.98,-2.11 0.51,0.86 2.23,-1.55 2.89,-1.92 1.72,-0.97 7.79,-3.92 7.8,-3.93 -5.35,-6.35 -4.08,-5.6 -7.37,-13.45l-22.9 -1.2c-0.31,17.39 -6.33,15.79 4.92,15.05 -17.99,0 -1.15,-1.64 -8.69,8.08z"/>
   <path class="fil54" d="M697.18 66.77c5.04,4.21 7.03,-11.38 7.6,15.91 0.51,24.48 -0.04,12.02 -7.62,16.54l2.26 14.88c0.66,-0.89 1.66,-3.32 2.02,-2.66l7.88 -9.94 0.75 -59.65 -10.2 -4.22 -2.69 29.13z"/>
   <path class="fil55" d="M225.7 85.51c-9.62,10.12 11.98,8.52 -11.29,8.52 1.05,-1.08 3.78,-9.76 13.19,2.04 11.1,13.92 -2.29,14.09 -2.98,14.61 15.07,-0.49 10.1,0.51 28.56,-5.49l-3.76 -14.95 16.07 -4.24 -12.96 -1.68 -26.83 1.2z"/>
   <path class="fil20" d="M518.24 270.13c-13.05,19.18 -23.72,14.8 -49.65,12.86l4.71 3.37c29.29,10.62 26.47,-3.17 19.54,10.56 14.19,-3.3 10.18,-1.67 23.42,-10.07 1.37,-0.88 9.17,-5.91 9.26,-5.98 5.09,-3.99 2.86,-2.47 6.5,-6.67 -6.64,-5.52 -7.12,6.27 -3.91,-6.23l4.07 -9.15c-0.88,0.7 -1.99,1.63 -2.6,2.13l-11.33 9.17z"/>
   <path class="fil47" d="M334.88 247.78c10.76,-3.55 5.41,1.16 8.76,-10.53 0.11,-0.39 0.77,-13.92 0.79,-15.22 0.17,-13.8 0.23,-17.96 -3.23,-28.96l-10.5 6.39 4.18 48.32z"/>
   <path class="fil42" d="M499.47 217.86c13.89,2.18 16.43,5.21 23.52,-6.36l-18.87 -4.73c-0.22,-14.41 4.23,-23.15 -7.54,-28.27 -10.74,12.17 -0.37,35.15 2.88,39.35z"/>
   <path class="fil27" d="M165.54 124.99l-3.8 2.82 -6.91 12.52c13.8,0.69 13.9,-2.96 14.47,3.8l19.24 -3.33 3.3 -19.12 -9.62 1.17 -16.68 2.14z"/>
   <path class="fil24" d="M114.39 274l-2.1 10.86 -8.21 0.4 5 11.8 26.35 10.95 -4.55 -18.11 4.57 -3.15c-11.37,-4.46 -2.78,-2.45 -15.56,-4.72l0.09 -12.72c-5.25,2.97 -3.36,-1.23 -5.6,4.68z"/>
   <path class="fil56" d="M860.08 401.99c5.59,8.97 -4.37,4.76 10.57,8.12l55.57 -0.2 1.6 -13.87 -10.68 -1.44c-1.16,9.1 1.63,3.56 -2.98,8.78l-54.08 -1.4z"/>
   <path class="fil57" d="M261.08 176.08c2.49,15.7 3.01,15.49 -0.24,29.34 -4.43,18.88 -8.71,4.79 4.86,22.52l10.98 -47.39 0.07 -5.32c-7.57,2.91 -3.9,2.3 -15.67,0.85z"/>
   <path class="fil58" d="M184.32 345.67l21.09 4.87 -2.83 -10.3c0.03,-0.83 17.84,-8.48 -25.74,-14.75 -3.71,4.94 -1.19,-1.59 -3.11,9.34l10.59 10.86z"/>
   <path class="fil50" d="M159.9 338.73l24.42 6.94 -10.59 -10.86c1.92,-10.93 -0.6,-4.4 3.11,-9.34l3.75 -6.09 -33.84 -7.02 13.87 16.49c6.03,6.65 -1.02,-7.6 -0.71,9.88z"/>
   <path class="fil11" d="M697.17 99.22c7.57,-4.51 8.13,7.94 7.62,-16.54 -0.57,-27.29 -2.56,-11.7 -7.6,-15.91l-16.38 31.31 16.36 1.14z"/>
   <path class="fil49" d="M159.9 338.73c-0.31,-17.48 6.74,-3.23 0.71,-9.88l-13.87 -16.49 -11.3 -4.35c0.16,9.51 -9.46,7.94 1.52,7.99 -0.52,0.41 -1.49,0.81 -1.72,1 -0.23,0.2 -1.37,0.91 -1.63,1.16l-4.52 7.33c11.52,4.36 17.34,8.64 30.81,13.24z"/>
   <path class="fil48" d="M285.84 353.85c-6.03,-5.31 -5.86,-5.75 -6.19,-17.62l-18.05 -5.18 -15.64 -1.07 5.19 13.7 34.69 10.17z"/>
   <path class="fil54" d="M444.7 186.54c0.22,9.34 1.15,2.4 -5.4,7.19l1.15 3.09c-5.36,3.55 -6.37,-13.29 -4.54,10.21l19.28 -1.4 7.04 -25.06 -7.9 -3.97 -9.63 9.94z"/>
   <path class="fil59" d="M334.88 247.78l5.79 20.63 -10.82 4.91 -2.54 8.95c0.19,-0.1 8.15,-2.01 11.27,-5.13 0.49,0.36 9.63,4.04 11.27,4.85 -6.86,-19.12 -3.65,-66.36 -3.76,-87.91l-4.89 -1.01c3.46,11 3.4,15.16 3.23,28.96 -0.01,1.3 -0.68,14.84 -0.79,15.22 -3.35,11.69 2,6.98 -8.76,10.53z"/>
   <path class="fil20" d="M480.53 164.14c11.81,-3.1 17.78,-5.12 30.46,-1.6l17.56 10.26c0.69,0.45 1.94,1.2 2.93,1.77l2.89 -3.4c-4.01,-6.23 -0.67,-2.89 -5.5,-7.71 -0.03,-0.03 -6.23,-5.03 -6.44,-5.18 -5.89,-4.26 -10.78,-6.75 -19.09,-9.02l1.79 5.46c-9.24,-0.11 -23.79,-2.51 -24.61,9.43z"/>
   <path class="fil60" d="M1045.78 48.93l4.03 29.8 -1.15 8.98 -0.12 11.32c0.95,1.09 2.4,0.82 3.13,3.01 0.72,2.15 2.13,2.11 3.02,3.01 0.88,0.89 2.04,1.92 2.9,3.02 -0.02,-16.89 -3.58,-53.66 -2.48,-62.79l-9.33 3.64z"/>
   <path class="fil43" d="M910.3 279.69c-5.03,10.02 1.97,6.2 -7.43,3.15 -8.29,-2.68 0.61,-0.66 -11.25,-6.91 4.45,20.35 -1.56,0.11 0.32,17.39 1.74,16 9.47,14.85 11.73,16.44 6.13,-14.94 11.89,-19.53 6.63,-30.07z"/>
   <path class="fil61" d="M451.3 311.91l26.45 -6.76 15.09 -8.22c6.94,-13.73 9.75,0.06 -19.54,-10.56l-4.71 -3.37 -5.84 -0.16c3.01,4.78 2.41,3.94 5.89,7.11 0.68,0.62 1.68,1.32 2.43,1.98l7.99 6.49c-8.11,0.68 -9.35,0.02 -16.11,2.68l-11.64 10.82z"/>
   <path class="fil62" d="M139.6 231.22c9.29,-0.04 2.11,-3.46 7.54,2.02l-0.54 27.35 4.18 25.06 28.51 -1.18 2.16 -7.5c-41.88,16.95 -27.52,-18.5 -29.58,-55.91l-12.27 10.16z"/>
   <path class="fil63" d="M996.82 103.19l8 -0.19 0.94 -46.02c-1.7,-1.06 -7.77,-3.93 -9.54,-5.15l0.6 51.35z"/>
   <path class="fil64" d="M765.39 316.45c8.73,11.34 6.96,8.34 21.98,7.9 -0.14,-18.36 -1.96,-30.52 -15.38,-42.19l5.51 36.28 -12.11 -2z"/>
   <path class="fil52" d="M758.4 311.39c4.12,6.22 -6.21,6.14 6.99,5.06l12.11 2 -5.51 -36.28 -5.08 -1.49 -6.97 -2.3 7.7 31.15 -9.24 1.87z"/>
   <path class="fil14" d="M305.67 270.61l2.79 11.58 18.85 0.08 2.54 -8.95 -15.81 -4.03 -2.43 -13.84 -11.67 0.37c2.11,17.9 -3.72,3.29 5.74,14.8z"/>
   <path class="fil56" d="M744.48 299.88c4.6,7.27 -0.16,0.39 5.34,7.56 2.4,3.13 2.62,3.01 5.44,6.76l3.13 -2.81 9.24 -1.87 -7.7 -31.15 -1.47 -5.57 -8.45 -0.78 8.78 31.13 -14.33 -3.27z"/>
   <path class="fil65" d="M728.25 71.48l0.76 29.64c4.76,-4.59 6.11,6.7 6.27,-25.81 0.22,-45.37 0.57,-23.62 -6.87,-31.63l-0.16 27.8z"/>
   <polygon class="fil35" points="1080.39,307.66 1099.32,317.69 1106.97,315.81 1101.09,284.9 1091.91,281 1096.36,310.44 "/>
   <path class="fil66" d="M499.47 217.86l1.8 4.63 3.31 6.38 26.94 1.28 -4.79 -8.21 4.19 -13.41 -7.93 2.97c-7.1,11.57 -9.64,8.54 -23.52,6.36z"/>
   <polygon class="fil60" points="443.19,229.35 440.78,234.42 439.44,234.35 436.26,250.63 453.67,248.32 455.78,247.89 455.09,226.73 "/>
   <path class="fil67" d="M448.13 278.43l0.18 -2.96c-13.9,-3.43 -12.68,-2.95 -27.22,-1.76 -0.95,0.08 -10.22,1.04 -10.78,1.17 -10.48,2.57 -1.71,-5.33 -8.01,4.63 12.6,4.85 33.33,3.35 45.82,-1.08z"/>
   <path class="fil28" d="M1104.91 322.71c4.73,5.19 1.62,7.58 17.49,6.2l-3.99 -29.5c-5.03,-9.66 1.84,-2.53 -9.52,-8.22l5.14 29.95 -9.13 1.56z"/>
   <path class="fil11" d="M973.49 180.57c6.8,5.41 -10.46,6.32 12.05,5.06 9.69,-0.55 7.17,-2.53 10.77,-5.06 -1.94,-7.74 -0.28,-10.51 -11,-11.13 -16.8,-0.97 -9.6,1.23 -11.82,11.13z"/>
   <polygon class="fil34" points="1079.52,302.6 1080.39,307.66 1096.36,310.44 1091.91,281 1090.77,273.78 1082.66,272.89 1087.89,301.49 "/>
   <path class="fil68" d="M780.29 63.18c4.87,-3.84 3.15,5.81 7.12,-7.19 4.17,-13.62 2.87,-1.14 -1.34,-13.56 -19.64,13.94 11.33,14.85 -24.25,16.76l1.27 -21.56c-0.84,1.16 -2.26,1.15 -2.59,3.46 -0.62,4.32 -3.55,-0.4 -4.31,15.33 12.99,9.42 13.73,6.4 24.11,6.75z"/>
   <path class="fil69" d="M974.36 101.29c5.24,-8.95 6.34,-33.49 0,-43.42 -7.6,9.45 -6.89,33.85 0,43.42z"/>
   <path class="fil70" d="M727.43 307.5c1.01,0.73 3.44,2.82 4.13,3.19 5.71,2.99 0.96,0.96 7.74,3.27l-4.53 -9.27c4.62,-6.87 -3.74,-1.41 6.1,-2.52 -4.05,-10.3 -4.43,-9.1 -9.71,-15.06 -9.93,0.64 -4.47,-2.16 -9.85,2.64l6.13 17.76z"/>
   <path class="fil47" d="M1064.4 308.87c2.17,9.17 5.23,10.07 11.78,14.56 -0.48,-10.39 2.02,-5.15 -5.53,-9.78 8.97,-11.9 -4.7,-2.16 9.73,-5.99l-0.87 -5.05 -14.4 -8c-7.74,3.53 -6.51,0.47 -0.72,14.27z"/>
   <path class="fil37" d="M727.43 307.5l-6.13 -17.76c5.38,-4.8 -0.08,-2.01 9.85,-2.64 -8.92,-9.69 -3.93,-7.04 -20.01,-8.84 2.63,23.14 4.11,21.07 16.29,29.24z"/>
   <path class="fil71" d="M739.3 313.97l6.31 8.87 14.29 9.1 -11.62 -15.92c3.82,-2.74 -2.54,-1.06 6.98,-1.82 -2.82,-3.75 -3.04,-3.63 -5.44,-6.76 -5.51,-7.18 -0.74,-0.29 -5.34,-7.56l-3.62 2.29c-9.83,1.12 -1.48,-4.35 -6.1,2.52l4.53 9.27z"/>
   <polygon class="fil47" points="1099.32,317.69 1104.91,322.71 1114.04,321.15 1108.9,291.2 1101.09,284.9 1106.97,315.81 "/>
   <path class="fil36" d="M124.15 207.09c6.44,-11.33 8.85,-19.17 -3.76,-26.74 -6.02,9.29 -6.62,19.78 3.76,26.74z"/>
   <polygon class="fil8" points="925.82,114.38 925.85,98.72 912.65,98.07 910.42,112.33 "/>
   <path class="fil37" d="M1054.14 302.62l-4.71 -16.61 11.51 0.91c-9.69,-9.33 -6.23,-7.02 -19.4,-9.02 0.93,7.46 -1.28,4.63 2.53,13.3 7.58,17.25 2.43,5.26 10.08,11.43z"/>
   <path class="fil35" d="M1054.14 302.62c5,4.64 2.76,2.29 10.26,6.25 -5.79,-13.81 -7.02,-10.74 0.72,-14.27 -2.98,-7.36 0.83,-4.25 -4.19,-7.68l-11.51 -0.91 4.71 16.61z"/>
   <path class="fil72" d="M673.01 58.96l-1.76 8.46c2.28,-1.63 8.14,-0.73 10.3,-11.8 4.75,-24.27 -0.19,-6.41 -4.39,-12.2 -7.57,13.36 -4.15,14.14 -4.15,15.54z"/>
   <path class="fil70" d="M754.15 341.88l11.41 5.74 -5.65 -15.69 -14.29 -9.1c3.72,12.8 5.44,8.06 8.54,19.05z"/>
   <path class="fil73" d="M1032.78 88.25l15.87 -0.55 1.15 -8.98c-14.95,1.39 -21.14,-3.03 -25.81,7.54 18.99,-10.18 5.95,-3.59 8.79,1.98z"/>
   <path class="fil74" d="M1081.35 45.91l-4.23 -12.05c-6.33,0.13 -7.02,-1.07 -12.29,0.23 -8.03,1.97 -3.84,1.08 -8.12,4.16l24.64 7.66z"/>
   <polygon class="fil75" points="491.53,224.57 493.61,239.93 502.14,236.38 504.58,228.87 501.27,222.49 "/>
   <path class="fil7" d="M493.61 239.93c-0.88,13.11 -4.21,5.14 2.98,14.75 11.32,-5.75 7.34,-3.27 5.55,-18.3l-8.53 3.55z"/>
   <path class="fil36" d="M122.2 236.8l14.95 -2.76c-3.51,-8.56 1.32,-3.83 -5.51,-8.62l-11.94 2.67c-0.29,0.71 -0.95,1.8 -0.95,2.09 0.16,11.64 -3.16,-0.56 3.45,6.62z"/>
   <path class="fil76" d="M308.46 282.2l-2.79 -11.58c-10.14,-1.81 -12.94,-5.22 -12.94,5.89 0.92,0.17 2.29,-0.6 2.76,0.5 0.5,1.18 2.23,0.51 2.91,0.77 0.75,0.28 2.3,0.8 3.15,1.14 0.94,0.38 2.53,1.15 3.39,1.51 0.92,0.39 2.35,1.18 3.53,1.77z"/>
   <path class="fil72" d="M1032.78 88.25c-2.84,-5.58 10.2,-12.16 -8.79,-1.98 -0.28,2.52 -0.87,4.14 -0.32,7.7 1.09,6.97 1.19,3.88 5.1,7.78l4 -13.5z"/>
   <path class="fil75" d="M715.16 378.41l5.53 14.73 10.01 -4.62c-2.71,-19.42 -1.07,-6.64 -6.81,-11.45 2.92,14.94 1.2,2.26 -2.3,7.68l-6.43 -6.34z"/>
   <path class="fil59" d="M453.67 248.32l-17.4 2.31 3.18 -16.28c-9.78,11.15 -9.06,5.96 -3.05,19.18 9.4,1.28 -2.08,4.09 7.71,0.55 7.17,-2.6 5.51,-2.4 9.57,-5.76z"/>
   <path class="fil55" d="M109.08 297.06l-5 -11.8c-5.64,0.12 -9.59,-0.47 -13.67,5.23l18.67 6.58z"/>
   <path class="fil77" d="M462.75 282.83l5.84 0.16c-2.06,-7.46 4.37,-0.09 -5.27,-9.12 -9.02,-8.44 0.42,-0.33 -8.06,-3.79l-4.63 1.23 0 4.38c11.93,-0.13 10.11,0.6 12.13,7.14z"/>
   <path class="fil78" d="M1085.22 342.01c5.66,3.93 1.87,-2.16 9.72,7.89 5.56,7.11 3.33,5.66 4.87,11.82l7.36 -2.05 -22.78 -25.01 0.84 7.35z"/>
   <path class="fil45" d="M439.3 193.72c6.55,-4.79 5.62,2.16 5.4,-7.19 -5.98,-4.43 4.85,-6.36 -9.22,-3.24 -5.52,16.64 -4.54,5.11 3.83,10.43z"/>
   <path class="fil79" d="M925.82 114.38c2.09,-3.24 3.47,0.13 3.95,-8.82 0.44,-8.45 0.51,-1.53 -1.89,-9.7 -14.89,-2.3 -12.32,0.8 -15.22,2.21l13.2 0.65 -0.03 15.65z"/>
   <path class="fil80" d="M1051.83 390.88l-3.7 -7.73c-7.58,-7.07 -5.47,-4.2 -11.56,-7.24 8.26,14.59 0.59,10.91 15.25,14.97z"/>
   <path class="fil81" d="M1048.13 383.15l3.7 7.73 8.78 -2.2c-0.31,-16.68 1.1,-4.79 -4.99,-9.28 -3.38,7.04 -0.83,5.12 -7.49,3.74z"/>
   <path class="fil82" d="M720.69 393.14l-5.53 -14.73 -5.47 0.29c2.25,11.02 3.18,9.37 11.01,14.44z"/>
   <path class="fil83" d="M1011.87 377.84l-1.55 -12.9 13.57 0.03c-6.55,-3.1 7.08,-1.64 -7.82,-2.43 -8.03,-0.43 -2.93,0.22 -8.46,2.38 -0.03,7.22 -7.97,-2.59 4.26,12.93z"/>
   <path class="fil84" d="M104.73 279.78l-0.65 5.48 8.21 -0.4 2.1 -10.86c-4.08,2.47 -5.35,3 -9.66,5.79z"/>
   <path class="fil77" d="M150.44 176.14l7.56 -2.08 0.13 -3.94 -12.93 -1.34c4.75,7.82 -3.18,1.81 5.23,7.36z"/>
   <path class="fil85" d="M440.44 196.81c-4.86,14.84 -2.07,2.48 3.47,7.12l7.58 -9.97 -11.05 2.85z"/>
   <path class="fil35" d="M1086.03 335.45l-9.85 -12.02c-4.85,10.1 5.19,10.13 9.85,12.02z"/>
   <path class="fil86" d="M440.78 234.42l2.41 -5.07c-7.86,-5.79 -1.74,-6.12 -9.72,0.13l7.3 4.94z"/>
   <path class="fil43" d="M491.53 224.57l9.74 -2.08 -1.8 -4.63c-10.82,1.52 -3.83,-4.96 -7.94,6.71z"/>
   <path class="fil83" d="M1027.03 69.83c0.44,-0.96 1.36,-3.49 1.36,-2.85 0,0 2.94,-2.15 -1.36,-9.49 -4.68,5.78 -3.84,7.64 0,12.34z"/>
   <path class="fil87" d="M1106.6 101.37c0.6,-0.73 1.72,-2.65 1.85,-2.16 0.13,0.5 1.32,-1.86 1.46,-2.51 1.56,-7.06 0.99,-2.72 0.79,-10.6 -0.61,0.8 -1.75,0.87 -1.89,2.37 -0.14,1.49 -1.34,1.96 -1.49,2.63 -1.48,6.65 -1.41,1.91 -0.72,10.26z"/>
   <path class="fil57" d="M276.74 175.23l6.9 -2.2 1.09 -6.78c-6.9,3.99 -5.51,2.44 -7.99,8.98z"/>
   <path class="fil70" d="M745.61 322.83l-6.31 -8.87 -0.3 5.73c1.54,9.83 0.29,0.73 6.61,3.14z"/>
  </g>
 </g>
</svg>
