<?xml version="1.0" encoding="UTF-8"?>
<!DOCTYPE svg PUBLIC "-//W3C//DTD SVG 1.1//EN" "http://www.w3.org/Graphics/SVG/1.1/DTD/svg11.dtd">
<!-- Creator: CorelDRAW 2021 (64 Bit) -->
<svg xmlns="http://www.w3.org/2000/svg" xml:space="preserve" width="400px" height="400px" version="1.1" style="shape-rendering:geometricPrecision; text-rendering:geometricPrecision; image-rendering:optimizeQuality; fill-rule:evenodd; clip-rule:evenodd"
viewBox="0 0 2.26 2.26"
 xmlns:xlink="http://www.w3.org/1999/xlink"
 xmlns:xodm="http://www.corel.com/coreldraw/odm/2003">
 <defs>
  <style type="text/css">
   <![CDATA[
    .str0 {stroke:#C4C4C4;stroke-width:0.17;stroke-miterlimit:22.9256}
    .str7 {stroke:#F5A980;stroke-width:0.02;stroke-miterlimit:22.9256}
    .str6 {stroke:black;stroke-width:0.01;stroke-miterlimit:22.9256}
    .str12 {stroke:#DBDBDB;stroke-width:0.01;stroke-miterlimit:22.9256}
    .str4 {stroke:#F5A980;stroke-width:0.01;stroke-miterlimit:22.9256}
    .str1 {stroke:#FA0505;stroke-width:0.01;stroke-miterlimit:22.9256}
    .str2 {stroke:#030303;stroke-width:0.05;stroke-miterlimit:22.9256}
    .str3 {stroke:#030303;stroke-width:0.01;stroke-miterlimit:22.9256}
    .str10 {stroke:#F5A980;stroke-width:0.01;stroke-miterlimit:22.9256}
    .str11 {stroke:#F5A980;stroke-width:0.02;stroke-miterlimit:22.9256}
    .str8 {stroke:#DBDBDB;stroke-width:0.01;stroke-miterlimit:22.9256}
    .str13 {stroke:#F5A980;stroke-width:0.01;stroke-miterlimit:22.9256}
    .str9 {stroke:#E1E1E1;stroke-width:0.01;stroke-miterlimit:22.9256}
    .str5 {stroke:#454545;stroke-width:0.08;stroke-linecap:round;stroke-miterlimit:22.9256}
    .fil1 {fill:none}
    .fil4 {fill:black}
    .fil2 {fill:black}
    .fil6 {fill:#666666}
    .fil5 {fill:#999999}
    .fil8 {fill:#CCCCCC}
    .fil7 {fill:#F5A980}
    .fil3 {fill:#F5B796}
    .fil0 {fill:white}
   ]]>
  </style>
 </defs>
 <g id="Camada_x0020_1">
  <metadata id="CorelCorpID_0Corel-Layer"/>
  <g id="_2069927796976">
   <circle class="fil0 str0" cx="1.13" cy="1.13" r="1.04"/>
   <g>
    <g>
     <g>
      <polygon class="fil0 str1" points="0.87,1.09 0.78,1.29 0.72,1.17 0.84,1.01 "/>
      <polygon class="fil0 str1" points="0.57,1.1 0.67,1.29 0.72,1.17 0.59,1.01 "/>
      <path class="fil0 str1" d="M0.57 1.1l0.1 0.2 0.01 -0.04 0.02 0.02 -0.01 0.31c-0.12,0 -0.24,0 -0.36,0.01 -0.01,0 -0.03,-0.03 -0.03,-0.05 0.01,-0.04 0.01,-0.17 0.02,-0.28 0,-0.05 0.01,-0.05 0.04,-0.06 0.04,-0.02 0.2,-0.11 0.21,-0.11z"/>
      <path class="fil0 str1" d="M0.87 1.1l-0.09 0.2 -0.02 -0.04 -0.01 0.02 0 0.32c0.12,0 0.19,0 0.31,0 0.04,0 0.05,-0.01 0.04,-0.05 0,-0.04 0,-0.17 -0.01,-0.28 0,-0.04 0,-0.05 -0.03,-0.06 -0.04,-0.03 -0.18,-0.11 -0.19,-0.11z"/>
      <path class="fil1 str2" d="M1.08 1.6l-0.75 0c-0.02,0 -0.03,-0.02 -0.03,-0.05 0.01,-0.1 0.01,-0.19 0.02,-0.29 0,-0.03 0.01,-0.04 0.03,-0.05l0.22 -0.11 0.02 -0.09 0.13 0.16 0.12 -0.16 0.03 0.08 0.2 0.12c0.01,0.01 0.02,0.03 0.02,0.05 0.01,0.1 0.01,0.2 0.02,0.29 0,0.03 -0.01,0.05 -0.03,0.05z"/>
      <polyline class="fil1 str2" points="0.57,1.1 0.67,1.29 0.72,1.18 0.78,1.29 0.86,1.1 "/>
      <polygon class="fil2 str3" points="0.76,1.26 0.72,1.18 0.68,1.27 0.7,1.29 0.7,1.6 0.76,1.6 0.75,1.29 "/>
     </g>
     <path class="fil3 str4" d="M0.62 1.03l0.1 0.13 0.09 -0.13 0 -0.05c-0.02,0.02 -0.04,0.05 -0.06,0.08 -0.01,0.01 -0.04,0.01 -0.06,0l-0.07 -0.08 0 0.05z"/>
     <path class="fil3 str4" d="M0.9 0.66c-0.01,0 -0.01,0.01 -0.01,0.02l0 -0.02 -0.05 -0.05 0 -0.11 -0.06 0 -0.06 0.03 -0.06 -0.03 -0.07 0 -0.01 0.09 -0.03 0.06c0,-0.01 -0.01,-0.02 -0.01,-0.02 0,-0.01 -0.01,-0.01 -0.01,-0.01 -0.01,0 -0.01,0.01 -0.01,0.02 -0.01,0.02 -0.01,0.03 0,0.04l0 0.06c0.01,0.01 0.01,0.01 0.02,0.01 0,0 0,0 0.01,-0.01 0,0.04 0.01,0.07 0.02,0.11 0.01,0.04 0.02,0.09 0.05,0.12 0.02,0.03 0.04,0.06 0.07,0.09 0.02,0.02 0.04,0.02 0.06,0 0.03,-0.04 0.06,-0.08 0.09,-0.12 0.01,-0.03 0.02,-0.05 0.03,-0.08 0.01,-0.03 0.01,-0.06 0.02,-0.09 0,0 0,0 0,0 0.01,0 0.01,0 0.02,-0.01 0.01,-0.02 0.01,-0.05 0.02,-0.07 0,-0.01 -0.01,-0.02 -0.01,-0.03 -0.01,0 -0.02,0 -0.02,0z"/>
     <g>
      <path class="fil4" d="M0.8 0.69c-0.01,0.01 -0.02,0.02 -0.02,0.03 0,0.01 0.01,0.02 0.02,0.02 0.02,-0.01 0.02,-0.05 0,-0.05z"/>
      <path class="fil4" d="M0.64 0.69c-0.02,0.01 -0.02,0.06 0.01,0.05 0.01,0 0.01,-0.01 0.01,-0.03 0,-0.01 -0.01,-0.02 -0.02,-0.02z"/>
      <line class="fil1 str5" x1="0.6" y1="0.63" x2="0.69" y2= "0.64" />
      <path class="fil2 str6" d="M0.59 0.59l-0.04 0.07c-0.01,-0.06 -0.02,-0.13 -0.01,-0.21 0.01,-0.09 0.04,-0.12 0.08,-0.13 0.07,-0.01 0.14,-0.01 0.19,0 0.05,0.02 0.08,0.08 0.08,0.12 0.02,0.08 0.01,0.13 0,0.22 -0.01,-0.02 -0.03,-0.04 -0.05,-0.05 0,-0.04 0,-0.07 0,-0.11 -0.02,0.01 -0.04,0.01 -0.06,0 -0.03,0.04 -0.08,0.04 -0.12,0 -0.02,0.01 -0.04,0.01 -0.07,0 0,0.03 0,0.06 0,0.09z"/>
      <line class="fil1 str5" x1="0.83" y1="0.63" x2="0.74" y2= "0.64" />
      <path class="fil5" d="M0.79 0.69c0,-0.01 0.01,-0.02 0.03,-0.02 0.02,0.01 0.02,0.01 0.03,0.03 0,0 0,0 0,0l-0.01 0.01c-0.01,-0.01 -0.03,-0.02 -0.05,-0.02z"/>
      <path class="fil5" d="M0.66 0.69c0,-0.01 -0.02,-0.02 -0.03,-0.02 -0.02,0.01 -0.03,0.01 -0.03,0.03 0,0 0,0 0,0l0.01 0.01c0.01,-0.01 0.03,-0.02 0.05,-0.02z"/>
     </g>
     <path class="fil1 str7" d="M0.76 0.67l-0.02 0.01 0 0.04 -0.01 0.05 0.01 0.03 0.02 0.03c0,0.01 0,0.01 -0.01,0.01l-0.02 0.03c-0.01,0 -0.01,0 -0.02,0l-0.03 -0.03 0 -0.01 0.01 -0.03 0.01 -0.03 -0.01 -0.05 -0.01 -0.04 -0.02 -0.01"/>
     <g>
      <path class="fil6" d="M0.77 0.91l-0.1 0c-0.01,0 -0.01,0 -0.01,0l0.03 0.03c0.01,0.01 0.02,0.01 0.03,0.01 0.01,0 0.02,0 0.03,-0.01l0.02 -0.02c0.01,-0.01 0,-0.01 0,-0.01z"/>
      <g>
       <path class="fil0 str8" d="M0.68 0.9l0 0.01c0,0.01 0.01,0.01 0.01,0.01 0,0 0,0 0.01,0 0,0 0,0 0.01,0 0,0 0,0 0.01,0 0,0 0.01,0 0.01,0 0.01,0 0.01,0 0.01,0 0.01,0 0.01,0 0.01,0l0 0c0.01,0 0.01,0 0.01,-0.01l0 -0.01c-0.03,0 -0.05,0 -0.08,0z"/>
       <line class="fil1 str9" x1="0.73" y1="0.91" x2="0.73" y2= "0.92" />
       <line class="fil1 str9" x1="0.74" y1="0.91" x2="0.74" y2= "0.92" />
       <line class="fil1 str9" x1="0.75" y1="0.91" x2="0.75" y2= "0.92" />
       <line class="fil1 str9" x1="0.69" y1="0.91" x2="0.69" y2= "0.92" />
       <line class="fil1 str9" x1="0.7" y1="0.91" x2="0.7" y2= "0.92" />
       <line class="fil1 str9" x1="0.71" y1="0.91" x2="0.71" y2= "0.92" />
       <line class="fil1 str9" x1="0.72" y1="0.91" x2="0.72" y2= "0.92" />
       <path class="fil1 str10" d="M0.69 0.95l-0.03 -0.04c-0.01,-0.01 0,-0.01 0.01,-0.01 0.04,0.01 0.06,0 0.1,0 0.01,0 0.02,0 0.01,0.02l-0.03 0.03c-0.02,0.02 -0.04,0.02 -0.06,0z"/>
      </g>
     </g>
     <polyline class="fil1 str4" points="0.67,1.01 0.69,1 0.72,0.99 0.74,0.99 0.77,1.01 "/>
     <path class="fil1 str11" d="M0.54 0.72c-0.01,-0.02 -0.01,-0.04 -0.01,-0.07 0,-0.02 0,-0.01 0.01,0 0,0.02 0,0.03 0,0.04"/>
     <path class="fil1 str11" d="M0.89 0.69c0.01,-0.01 0.01,-0.02 0.02,-0.02 0.01,-0.01 0.01,0 0.01,0.02 0,0.03 -0.01,0.04 -0.02,0.05"/>
     <path class="fil1 str10" d="M0.76 0.72c0,0.01 0.01,0.01 0.02,0.01 0.01,0.01 0.02,0.03 0.05,0 0.01,-0.01 0.01,-0.01 0.02,-0.01"/>
     <path class="fil1 str10" d="M0.68 0.72c-0.01,0.01 -0.01,0.01 -0.02,0.01 -0.01,0.01 -0.02,0.03 -0.04,0 -0.02,-0.01 -0.02,-0.01 -0.03,-0.01"/>
     <path class="fil1 str10" d="M0.6 0.72c0,0 0.01,0 0.01,0 0.02,-0.03 0.04,-0.03 0.06,-0.02 0,0.01 0,0.02 0.01,0.02"/>
     <path class="fil1 str10" d="M0.85 0.72c0,0 -0.01,0 -0.01,0 -0.03,-0.03 -0.05,-0.03 -0.06,-0.02 -0.01,0.01 -0.01,0.02 -0.02,0.02"/>
     <path class="fil7 str4" d="M0.77 0.92c-0.04,0.04 -0.08,0.03 -0.11,-0.01 0.03,0.07 0.08,0.08 0.11,0.01z"/>
     <path class="fil8 str4" d="M0.68 0.9c0,0 -0.02,0 -0.02,0 0,0.01 0,0.01 0,0.01 0.01,0.01 0.02,0.02 0.02,0.02l0 -0.03z"/>
     <path class="fil8 str4" d="M0.76 0.91c0,-0.01 0.02,-0.01 0.02,0 0,0 -0.01,0.01 -0.02,0.02l0 -0.02z"/>
     <path class="fil0" d="M0.71 0.95c-0.01,-0.01 -0.02,-0.01 -0.02,-0.01 0.01,-0.01 0,0 0.01,0 0.01,-0.01 0,0 0,0 0.01,-0.01 0.02,0 0.02,0 0,0 0,-0.01 0.01,0 0.01,0 0,-0.01 0.01,0 0.01,0 0,-0.01 0.01,0 0,0 -0.01,0 -0.02,0.01 -0.01,0 -0.01,0 -0.02,0z"/>
     <path class="fil1 str12" d="M0.69 0.94c0,-0.01 0,-0.01 0.01,0 0,-0.01 0,-0.01 0,0 0.01,-0.01 0.01,-0.01 0.02,0 0,-0.01 0.01,-0.01 0.01,0 0,-0.01 0.01,-0.01 0.01,0 0.01,-0.01 0.01,-0.01 0.01,0"/>
     <line class="fil1 str8" x1="0.7" y1="0.94" x2="0.7" y2= "0.94" />
     <line class="fil1 str8" x1="0.7" y1="0.94" x2="0.7" y2= "0.95" />
     <line class="fil1 str8" x1="0.72" y1="0.94" x2="0.72" y2= "0.95" />
     <line class="fil1 str8" x1="0.73" y1="0.94" x2="0.73" y2= "0.95" />
     <line class="fil1 str8" x1="0.74" y1="0.94" x2="0.74" y2= "0.94" />
     <path class="fil7 str13" d="M0.71 0.89c0,-0.01 0,-0.01 -0.01,0 -0.01,0 -0.02,0.01 -0.03,0.01 -0.01,0 -0.02,0.01 -0.01,0.01 0.01,-0.01 0.02,-0.01 0.02,0 0.03,0 0.05,0 0.08,-0.01 0.01,0 0.01,0 0.02,0 0,0 0,0 0,0 -0.02,0 -0.04,-0.01 -0.04,-0.01 -0.01,0 -0.01,-0.01 -0.01,0 -0.01,0 -0.01,0 -0.02,0z"/>
    </g>
    <g>
     <g>
      <polygon class="fil0 str1" points="1.68,1.09 1.59,1.28 1.53,1.16 1.65,1 "/>
      <polygon class="fil0 str1" points="1.38,1.09 1.48,1.28 1.53,1.16 1.4,1 "/>
      <path class="fil0 str1" d="M1.38 1.09l0.1 0.2 0.01 -0.04 0.02 0.02 -0.01 0.32c-0.12,0 -0.24,0 -0.36,0 -0.02,0 -0.03,-0.03 -0.03,-0.04 0.01,-0.05 0.01,-0.17 0.02,-0.29 0,-0.05 0.01,-0.05 0.04,-0.06 0.04,-0.02 0.2,-0.1 0.21,-0.11z"/>
      <path class="fil0 str1" d="M1.68 1.09l-0.09 0.2 -0.02 -0.04 -0.01 0.02 0 0.32c0.12,0 0.19,0 0.31,0 0.04,0 0.05,-0.01 0.04,-0.04 0,-0.05 0,-0.18 -0.01,-0.29 0,-0.04 0,-0.05 -0.03,-0.06 -0.04,-0.02 -0.18,-0.11 -0.19,-0.11z"/>
      <path class="fil1 str2" d="M1.89 1.59l-0.75 0c-0.02,0 -0.03,-0.01 -0.03,-0.05 0.01,-0.1 0.01,-0.19 0.02,-0.29 0,-0.03 0.01,-0.04 0.03,-0.05l0.22 -0.11 0.02 -0.09 0.13 0.16 0.12 -0.16 0.03 0.09 0.2 0.11c0.01,0.01 0.02,0.03 0.02,0.05 0.01,0.1 0.01,0.2 0.02,0.29 0,0.03 -0.01,0.05 -0.03,0.05z"/>
      <polyline class="fil1 str2" points="1.38,1.09 1.48,1.28 1.53,1.17 1.59,1.28 1.67,1.09 "/>
      <polygon class="fil2 str3" points="1.57,1.26 1.53,1.17 1.49,1.26 1.51,1.28 1.51,1.59 1.57,1.59 1.56,1.28 "/>
     </g>
     <path class="fil3 str4" d="M1.43 1.02l0.1 0.13 0.09 -0.13 0 -0.05c-0.02,0.02 -0.04,0.05 -0.06,0.08 -0.01,0.01 -0.04,0.02 -0.06,0l-0.07 -0.08 0 0.05z"/>
     <path class="fil3 str4" d="M1.71 0.65c-0.01,0 -0.01,0.01 -0.01,0.02l0 -0.02 -0.05 -0.05 0 -0.11 -0.06 0 -0.06 0.03 -0.06 -0.03 -0.07 0 -0.01 0.09 -0.03 0.06c0,-0.01 -0.01,-0.01 -0.01,-0.02 0,-0.01 -0.01,-0.01 -0.01,-0.01 -0.01,0.01 -0.01,0.01 -0.01,0.02 -0.01,0.02 -0.01,0.03 0,0.05l0 0.05c0.01,0.01 0.01,0.01 0.02,0.01 0,0 0,0 0.01,-0.01 0,0.04 0.01,0.08 0.02,0.11 0.01,0.04 0.02,0.09 0.05,0.13 0.02,0.02 0.04,0.05 0.07,0.08 0.02,0.02 0.04,0.02 0.06,0 0.03,-0.04 0.06,-0.08 0.09,-0.12 0.01,-0.03 0.02,-0.05 0.03,-0.08 0.01,-0.03 0.01,-0.06 0.01,-0.09 0.01,0 0.01,0.01 0.01,0 0.01,0 0.01,0 0.02,0 0.01,-0.03 0.01,-0.06 0.02,-0.08 0,-0.01 -0.01,-0.02 -0.01,-0.02 -0.01,-0.01 -0.02,-0.01 -0.02,-0.01z"/>
     <g>
      <path class="fil4" d="M1.61 0.69c-0.01,0 -0.02,0.01 -0.02,0.02 0,0.02 0.01,0.02 0.02,0.02 0.02,0 0.02,-0.05 0,-0.04z"/>
      <path class="fil4" d="M1.45 0.69c-0.02,0 -0.02,0.05 0.01,0.04 0.01,0 0.01,-0.01 0.01,-0.03 0,-0.01 -0.01,-0.02 -0.02,-0.01z"/>
      <line class="fil1 str5" x1="1.41" y1="0.62" x2="1.5" y2= "0.64" />
      <path class="fil2 str6" d="M1.4 0.58l-0.04 0.07c-0.01,-0.06 -0.02,-0.12 -0.01,-0.21 0.01,-0.09 0.04,-0.12 0.08,-0.13 0.07,-0.01 0.14,-0.01 0.19,0.01 0.05,0.02 0.08,0.07 0.08,0.11 0.02,0.09 0.01,0.14 0,0.22 -0.01,-0.02 -0.03,-0.04 -0.05,-0.05 0,-0.04 0,-0.07 0,-0.11 -0.02,0.01 -0.04,0.01 -0.06,0 -0.03,0.04 -0.08,0.04 -0.12,0 -0.02,0.01 -0.04,0.01 -0.07,0 0,0.03 0,0.06 0,0.09z"/>
      <line class="fil1 str5" x1="1.64" y1="0.62" x2="1.55" y2= "0.64" />
      <path class="fil5" d="M1.6 0.68c0,-0.01 0.01,-0.02 0.03,-0.01 0.02,0 0.02,0 0.03,0.02 0,0 0,0 0,0.01l-0.01 0c-0.01,-0.01 -0.03,-0.02 -0.05,-0.02z"/>
      <path class="fil5" d="M1.47 0.68c0,-0.01 -0.02,-0.02 -0.03,-0.01 -0.02,0 -0.03,0 -0.03,0.02 0,0 0,0 0,0.01l0.01 0c0.01,-0.01 0.03,-0.02 0.05,-0.02z"/>
     </g>
     <path class="fil1 str7" d="M1.57 0.66l-0.02 0.02 0 0.03 -0.01 0.05 0.01 0.03 0.02 0.04c0,0 0,0 -0.01,0l-0.02 0.03c-0.01,0.01 -0.01,0 -0.02,0l-0.03 -0.03 0 -0.01 0.01 -0.03 0.01 -0.03 -0.01 -0.05 -0.01 -0.04 -0.02 -0.01"/>
     <g>
      <path class="fil6" d="M1.58 0.9l-0.1 0c-0.01,0 -0.01,0 -0.01,0l0.03 0.03c0.01,0.01 0.02,0.01 0.03,0.01 0.01,0 0.02,0 0.03,-0.01l0.02 -0.02c0.01,-0.01 0,-0.01 0,-0.01z"/>
      <g>
       <path class="fil0 str8" d="M1.49 0.89l0 0.02c0,0 0.01,0 0.01,0 0,0 0,0 0.01,0 0,0 0,0 0.01,0 0,0 0,0 0.01,0 0,0 0.01,0 0.01,0 0.01,0 0.01,0 0.01,0 0.01,0 0.01,0 0.01,0l0 0c0.01,0 0.01,0 0.01,0l0 -0.02c-0.03,0.01 -0.05,0.01 -0.08,0z"/>
       <line class="fil1 str9" x1="1.54" y1="0.9" x2="1.54" y2= "0.91" />
       <line class="fil1 str9" x1="1.55" y1="0.9" x2="1.55" y2= "0.91" />
       <line class="fil1 str9" x1="1.56" y1="0.9" x2="1.56" y2= "0.91" />
       <line class="fil1 str9" x1="1.5" y1="0.9" x2="1.5" y2= "0.91" />
       <line class="fil1 str9" x1="1.51" y1="0.9" x2="1.51" y2= "0.91" />
       <line class="fil1 str9" x1="1.52" y1="0.9" x2="1.52" y2= "0.91" />
       <line class="fil1 str9" x1="1.53" y1="0.9" x2="1.53" y2= "0.91" />
       <path class="fil1 str10" d="M1.5 0.94l-0.03 -0.04c-0.01,-0.01 0,-0.01 0.01,-0.01 0.04,0.01 0.06,0.01 0.1,0 0.01,0 0.02,0.01 0.01,0.02l-0.03 0.03c-0.02,0.02 -0.04,0.02 -0.06,0z"/>
      </g>
     </g>
     <polyline class="fil1 str4" points="1.48,1 1.5,0.99 1.53,0.98 1.55,0.99 1.58,1 "/>
     <path class="fil1 str11" d="M1.35 0.71c-0.01,-0.01 -0.01,-0.04 -0.01,-0.07 0,-0.02 0,-0.01 0.01,0 0,0.02 0,0.03 0,0.04"/>
     <path class="fil1 str11" d="M1.7 0.68c0.01,-0.01 0.01,-0.02 0.02,-0.02 0.01,0 0.01,0.01 0.01,0.02 0,0.03 -0.01,0.04 -0.02,0.05"/>
     <path class="fil1 str10" d="M1.57 0.71c0,0.01 0.01,0.01 0.02,0.01 0.01,0.01 0.02,0.03 0.05,0 0.01,-0.01 0.01,0 0.02,-0.01"/>
     <path class="fil1 str10" d="M1.49 0.71c-0.01,0.01 -0.01,0.01 -0.02,0.01 -0.01,0.01 -0.02,0.03 -0.04,0 -0.02,-0.01 -0.02,0 -0.03,-0.01"/>
     <path class="fil1 str10" d="M1.41 0.71c0,0 0.01,0 0.01,0 0.02,-0.03 0.04,-0.03 0.06,-0.01 0,0 0,0.01 0.01,0.01"/>
     <path class="fil1 str10" d="M1.66 0.71c0,0 -0.01,0 -0.01,0 -0.03,-0.03 -0.05,-0.03 -0.06,-0.01 -0.01,0 -0.01,0.01 -0.02,0.01"/>
     <path class="fil7 str4" d="M1.58 0.91c-0.04,0.05 -0.08,0.03 -0.11,-0.01 0.03,0.07 0.08,0.08 0.11,0.01z"/>
     <path class="fil8 str4" d="M1.49 0.9c0,-0.01 -0.02,-0.01 -0.02,0 0,0 0,0 0,0 0.01,0.01 0.02,0.02 0.02,0.02l0 -0.02z"/>
     <path class="fil8 str4" d="M1.57 0.9c0,-0.01 0.02,-0.01 0.02,0 0,0 -0.01,0.01 -0.02,0.02l0 -0.02z"/>
     <path class="fil0" d="M1.52 0.94c-0.01,0 -0.02,-0.01 -0.02,-0.01 0.01,-0.01 0,0 0.01,0 0.01,-0.01 0,0 0,0 0.01,-0.01 0.02,0 0.02,0 0,0 0,-0.01 0.01,0 0.01,0 0,-0.01 0.01,0 0.01,0 0,0 0.01,0 0,0 -0.01,0.01 -0.02,0.01 -0.01,0 -0.01,0 -0.02,0z"/>
     <path class="fil1 str12" d="M1.5 0.93c0,0 0,0 0.01,0 0,-0.01 0,-0.01 0,0 0.01,-0.01 0.01,0 0.02,0 0,0 0.01,0 0.01,0 0,0 0.01,0 0.01,0 0.01,-0.01 0.01,0 0.01,0"/>
     <line class="fil1 str8" x1="1.51" y1="0.93" x2="1.51" y2= "0.93" />
     <line class="fil1 str8" x1="1.51" y1="0.93" x2="1.51" y2= "0.94" />
     <line class="fil1 str8" x1="1.53" y1="0.93" x2="1.53" y2= "0.94" />
     <line class="fil1 str8" x1="1.54" y1="0.93" x2="1.54" y2= "0.94" />
     <line class="fil1 str8" x1="1.55" y1="0.93" x2="1.55" y2= "0.93" />
     <path class="fil7 str13" d="M1.52 0.88c0,-0.01 0,-0.01 -0.01,0 -0.01,0 -0.02,0.01 -0.03,0.01 -0.01,0 -0.02,0.01 -0.01,0.01 0.01,0 0.02,-0.01 0.02,0 0.03,0 0.05,0.01 0.08,0 0.01,-0.01 0.01,-0.01 0.02,-0.01 0,0.01 0,0 0,0 -0.02,0 -0.04,0 -0.04,-0.01 -0.01,0 -0.01,-0.01 -0.01,0 -0.01,0 -0.01,0 -0.02,0z"/>
    </g>
    <g>
     <g>
      <polygon class="fil0 str1" points="1.28,1.46 1.2,1.65 1.14,1.53 1.26,1.38 "/>
      <polygon class="fil0 str1" points="0.99,1.46 1.08,1.65 1.13,1.54 1.01,1.37 "/>
      <path class="fil0 str1" d="M0.99 1.46l0.09 0.2 0.02 -0.04 0.02 0.02 -0.01 0.32c-0.12,0 -0.24,0 -0.36,0 -0.02,0 -0.03,-0.03 -0.03,-0.04 0,-0.05 0.01,-0.17 0.02,-0.29 0,-0.05 0.01,-0.05 0.04,-0.06 0.04,-0.02 0.2,-0.1 0.21,-0.11z"/>
      <path class="fil0 str1" d="M1.28 1.46l-0.08 0.2 -0.02 -0.04 -0.02 0.02 0.01 0.32c0.12,0 0.19,0 0.31,0 0.03,0 0.04,-0.01 0.04,-0.04 0,-0.05 -0.01,-0.18 -0.01,-0.29 -0.01,-0.03 -0.01,-0.05 -0.03,-0.06 -0.04,-0.02 -0.19,-0.11 -0.2,-0.11z"/>
      <path class="fil1 str2" d="M1.49 1.96l-0.74 0c-0.02,0 -0.03,-0.01 -0.03,-0.05 0.01,-0.09 0.01,-0.19 0.02,-0.29 0,-0.03 0.01,-0.04 0.02,-0.05l0.23 -0.11 0.02 -0.09 0.13 0.16 0.11 -0.16 0.03 0.09 0.21 0.11c0.01,0.01 0.02,0.03 0.02,0.05 0,0.1 0.01,0.2 0.02,0.29 0,0.03 -0.02,0.05 -0.04,0.05z"/>
      <polyline class="fil1 str2" points="0.99,1.46 1.08,1.65 1.14,1.54 1.2,1.65 1.28,1.46 "/>
      <polygon class="fil2 str3" points="1.18,1.63 1.14,1.54 1.1,1.63 1.12,1.65 1.11,1.96 1.18,1.96 1.17,1.65 "/>
     </g>
     <path class="fil3 str4" d="M1.04 1.39l0.1 0.13 0.09 -0.13 0 -0.05c-0.02,0.02 -0.04,0.05 -0.06,0.08 -0.01,0.02 -0.05,0.02 -0.06,0l-0.07 -0.08 0 0.05z"/>
     <path class="fil3 str4" d="M1.32 1.02c-0.01,0 -0.01,0.01 -0.02,0.02l0.01 -0.02 -0.05 -0.05 0 -0.11 -0.07 0 -0.05 0.03 -0.06 -0.03 -0.07 0 -0.01 0.09 -0.03 0.06c-0.01,-0.01 -0.01,-0.01 -0.01,-0.02 -0.01,-0.01 -0.01,-0.01 -0.02,-0.01 0,0.01 0,0.01 -0.01,0.03 0,0.01 0,0.02 0,0.04l0.01 0.05c0,0.01 0.01,0.01 0.01,0.01 0.01,0 0.01,0 0.02,-0.01 0,0.04 0,0.08 0.01,0.11 0.02,0.04 0.03,0.09 0.05,0.13 0.03,0.02 0.05,0.05 0.07,0.08 0.03,0.02 0.05,0.02 0.07,0 0.03,-0.04 0.06,-0.08 0.09,-0.12 0.01,-0.03 0.02,-0.05 0.03,-0.08 0,-0.03 0.01,-0.06 0.01,-0.09 0,0 0.01,0.01 0.01,0.01 0,0 0.01,-0.01 0.02,-0.01 0,-0.03 0.01,-0.06 0.01,-0.08 0.01,-0.01 0,-0.02 -0.01,-0.02 0,-0.01 -0.01,-0.01 -0.01,-0.01z"/>
     <g>
      <path class="fil4" d="M1.21 1.06c-0.01,0 -0.01,0.01 -0.01,0.02 0,0.02 0.01,0.03 0.02,0.02 0.02,0 0.02,-0.05 -0.01,-0.04z"/>
      <path class="fil4" d="M1.06 1.06c-0.03,0 -0.02,0.05 0,0.04 0.01,0 0.02,-0.01 0.02,-0.03 0,-0.01 -0.01,-0.02 -0.02,-0.01z"/>
      <line class="fil1 str5" x1="1.02" y1="0.99" x2="1.11" y2= "1.01" />
      <path class="fil2 str6" d="M1 0.95l-0.03 0.07c-0.02,-0.06 -0.02,-0.12 -0.01,-0.21 0.01,-0.08 0.04,-0.12 0.08,-0.13 0.07,-0.01 0.13,-0.01 0.19,0.01 0.04,0.02 0.07,0.07 0.08,0.12 0.02,0.08 0.01,0.13 0,0.21 -0.02,-0.02 -0.03,-0.04 -0.05,-0.05 -0.01,-0.04 -0.01,-0.07 0,-0.11 -0.03,0.01 -0.04,0.01 -0.07,0 -0.03,0.04 -0.08,0.04 -0.11,0 -0.02,0.01 -0.05,0.01 -0.07,0 0,0.04 0,0.06 -0.01,0.09z"/>
      <line class="fil1 str5" x1="1.25" y1="0.99" x2="1.16" y2= "1.01" />
      <path class="fil5" d="M1.21 1.05c0,-0.01 0.01,-0.01 0.03,-0.01 0.01,0 0.02,0.01 0.03,0.02 0,0 0,0 0,0.01l-0.01 0c-0.01,-0.01 -0.03,-0.02 -0.05,-0.02z"/>
      <path class="fil5" d="M1.07 1.05c0.01,-0.01 -0.01,-0.01 -0.03,-0.01 -0.01,0 -0.02,0.01 -0.02,0.02 0,0 -0.01,0 0,0.01l0.01 0c0.01,-0.01 0.02,-0.02 0.04,-0.02z"/>
     </g>
     <path class="fil1 str7" d="M1.17 1.03l-0.01 0.02 0 0.03 -0.01 0.05 0.01 0.03 0.01 0.04c0,0 0,0 0,0.01l-0.03 0.02c0,0.01 -0.01,0.01 -0.01,0l-0.03 -0.03 0 -0.01 0.01 -0.03 0 -0.03 0 -0.05 -0.01 -0.04 -0.02 -0.01"/>
     <g>
      <path class="fil6" d="M1.19 1.27l-0.11 0c0,0 0,0 0,0l0.03 0.03c0,0.01 0.01,0.01 0.03,0.01 0.01,0 0.02,0 0.03,-0.01l0.02 -0.02c0,-0.01 0,-0.01 0,-0.01z"/>
      <g>
       <path class="fil0 str8" d="M1.1 1.26l0 0.02c0,0 0,0 0.01,0 0,0 0,0 0.01,0 0,0 0,0 0,0 0.01,0.01 0.01,0.01 0.02,0 0,0.01 0.01,0.01 0.01,0 0,0 0.01,0 0.01,0 0,0 0.01,0 0.01,0l0 0c0,0 0.01,0 0.01,0l0 -0.02c-0.03,0.01 -0.05,0.01 -0.08,0z"/>
       <line class="fil1 str9" x1="1.15" y1="1.27" x2="1.15" y2= "1.28" />
       <line class="fil1 str9" x1="1.16" y1="1.27" x2="1.16" y2= "1.28" />
       <line class="fil1 str9" x1="1.17" y1="1.27" x2="1.17" y2= "1.28" />
       <line class="fil1 str9" x1="1.11" y1="1.27" x2="1.11" y2= "1.28" />
       <line class="fil1 str9" x1="1.11" y1="1.27" x2="1.11" y2= "1.28" />
       <line class="fil1 str9" x1="1.12" y1="1.27" x2="1.12" y2= "1.28" />
       <line class="fil1 str9" x1="1.14" y1="1.27" x2="1.14" y2= "1.28" />
       <path class="fil1 str10" d="M1.11 1.32l-0.04 -0.05c0,-0.01 0.01,-0.01 0.02,-0.01 0.03,0.01 0.06,0.01 0.1,0 0.01,0 0.01,0.01 0.01,0.02l-0.03 0.04c-0.02,0.01 -0.04,0.01 -0.06,0z"/>
      </g>
     </g>
     <polyline class="fil1 str4" points="1.09,1.37 1.11,1.36 1.13,1.35 1.16,1.36 1.19,1.37 "/>
     <path class="fil1 str11" d="M0.95 1.08c0,-0.01 -0.01,-0.04 -0.01,-0.07 0.01,-0.02 0.01,-0.01 0.01,0 0.01,0.02 0.01,0.03 0.01,0.04"/>
     <path class="fil1 str11" d="M1.31 1.05c0,-0.01 0.01,-0.02 0.01,-0.02 0.01,0 0.02,0.01 0.02,0.02 -0.01,0.03 -0.01,0.04 -0.02,0.05"/>
     <path class="fil1 str10" d="M1.18 1.08c0,0.01 0.01,0.01 0.01,0.02 0.02,0.01 0.03,0.02 0.06,-0.01 0.01,-0.01 0.01,0 0.02,-0.01"/>
     <path class="fil1 str10" d="M1.1 1.08c-0.01,0.01 -0.01,0.01 -0.02,0.02 -0.01,0.01 -0.02,0.02 -0.05,-0.01 -0.01,-0.01 -0.01,0 -0.02,-0.01"/>
     <path class="fil1 str10" d="M1.01 1.08c0.01,0 0.01,0 0.02,0 0.02,-0.03 0.04,-0.03 0.05,-0.01 0.01,0 0.01,0.01 0.02,0.01"/>
     <path class="fil1 str10" d="M1.27 1.08c0,0 -0.01,0 -0.01,0 -0.03,-0.03 -0.05,-0.03 -0.07,-0.01 0,0 -0.01,0.01 -0.01,0.01"/>
     <path class="fil7 str4" d="M1.19 1.28c-0.04,0.05 -0.08,0.03 -0.11,-0.01 0.03,0.07 0.08,0.08 0.11,0.01z"/>
     <path class="fil8 str4" d="M1.1 1.27c0,-0.01 -0.02,-0.01 -0.02,0 -0.01,0 0,0 0,0 0.01,0.01 0.01,0.02 0.02,0.03l0 -0.03z"/>
     <path class="fil8 str4" d="M1.18 1.27c0,-0.01 0.02,-0.01 0.02,0 0,0 -0.01,0.02 -0.02,0.02l0 -0.02z"/>
     <path class="fil0" d="M1.13 1.31c-0.01,0 -0.02,-0.01 -0.02,-0.01 0,-0.01 0,0 0,0 0.01,-0.01 0.01,0 0.01,0 0.01,-0.01 0.02,0 0.02,0 0,0 -0.01,-0.01 0.01,0 0,0 0,0 0.01,0 0,0 0,0 0.01,0 -0.01,0 -0.01,0.01 -0.02,0.01 -0.01,0 -0.02,0 -0.02,0z"/>
     <path class="fil1 str12" d="M1.1 1.3c0.01,0 0.01,0 0.01,0 0.01,0 0.01,0 0.01,0 0.01,0 0.01,0 0.02,0 0,0 0.01,0 0.01,0 0,0 0.01,0 0.01,0 0,0 0.01,0 0.01,0"/>
     <line class="fil1 str8" x1="1.11" y1="1.3" x2="1.11" y2= "1.3" />
     <line class="fil1 str8" x1="1.12" y1="1.3" x2="1.12" y2= "1.31" />
     <line class="fil1 str8" x1="1.14" y1="1.3" x2="1.14" y2= "1.31" />
     <line class="fil1 str8" x1="1.15" y1="1.3" x2="1.15" y2= "1.31" />
     <line class="fil1 str8" x1="1.16" y1="1.3" x2="1.16" y2= "1.3" />
     <path class="fil7 str13" d="M1.13 1.25c0,0 -0.01,0 -0.01,0 -0.01,0 -0.02,0.01 -0.04,0.01 0,0 -0.01,0.01 0,0.01 0,0 0.01,0 0.02,0 0.02,0.01 0.05,0.01 0.08,0 0,-0.01 0.01,0 0.02,0 0,0 0,-0.01 -0.01,-0.01 -0.01,0 -0.03,0 -0.04,-0.01 0,0 0,0 -0.01,0 0,0 -0.01,0 -0.01,0z"/>
    </g>
   </g>
  </g>
 </g>
</svg>
