<?xml version="1.0" encoding="UTF-8"?>
<!DOCTYPE svg PUBLIC "-//W3C//DTD SVG 1.1//EN" "http://www.w3.org/Graphics/SVG/1.1/DTD/svg11.dtd">
<!-- Creator: CorelDRAW 2021 (64 Bit) -->
<svg xmlns="http://www.w3.org/2000/svg" xml:space="preserve" width="400px" height="400px" version="1.1" style="shape-rendering:geometricPrecision; text-rendering:geometricPrecision; image-rendering:optimizeQuality; fill-rule:evenodd; clip-rule:evenodd"
viewBox="0 0 2.26 2.26"
 xmlns:xlink="http://www.w3.org/1999/xlink"
 xmlns:xodm="http://www.corel.com/coreldraw/odm/2003">
 <defs>
  <style type="text/css">
   <![CDATA[
    .str0 {stroke:#C4C4C4;stroke-width:0.17;stroke-miterlimit:22.9256}
    .fil0 {fill:white}
    .fil2 {fill:black;fill-rule:nonzero}
    .fil1 {fill:#8F8F8F;fill-rule:nonzero}
   ]]>
  </style>
 </defs>
 <g id="Camada_x0020_1">
  <metadata id="CorelCorpID_0Corel-Layer"/>
  <g id="_2069913362800">
   <circle class="fil0 str0" cx="1.13" cy="1.13" r="1.04"/>
   <g>
    <polygon class="fil1" points="0.33,1.44 0.33,0.85 0.45,0.85 0.45,1.44 "/>
    <polygon id="_1" class="fil1" points="0.57,1.44 0.57,0.85 0.77,0.85 0.88,1.25 0.99,0.85 1.19,0.85 1.19,1.44 1.07,1.44 1.07,0.97 0.94,1.44 0.82,1.44 0.69,0.97 0.69,1.44 "/>
    <path id="_2" class="fil1" d="M1.61 1.22l0 -0.1 0.28 0 0 0.24c-0.03,0.02 -0.07,0.04 -0.12,0.06 -0.05,0.02 -0.1,0.03 -0.15,0.03 -0.07,0 -0.13,-0.02 -0.18,-0.04 -0.05,-0.03 -0.08,-0.06 -0.11,-0.11 -0.02,-0.05 -0.04,-0.1 -0.04,-0.16 0,-0.06 0.02,-0.12 0.05,-0.16 0.02,-0.05 0.06,-0.09 0.12,-0.11 0.04,-0.02 0.09,-0.03 0.15,-0.03 0.08,0 0.14,0.01 0.18,0.04 0.05,0.03 0.08,0.08 0.09,0.13l-0.13 0.02c-0.01,-0.03 -0.02,-0.05 -0.05,-0.07 -0.02,-0.01 -0.05,-0.02 -0.09,-0.02 -0.06,0 -0.1,0.02 -0.13,0.05 -0.04,0.03 -0.05,0.08 -0.05,0.15 0,0.07 0.01,0.12 0.05,0.15 0.03,0.04 0.07,0.06 0.13,0.06 0.02,0 0.05,-0.01 0.08,-0.02 0.03,-0.01 0.05,-0.02 0.07,-0.03l0 -0.08 -0.15 0z"/>
    <polygon class="fil2" points="0.38,1.38 0.38,0.8 0.51,0.8 0.51,1.38 "/>
    <polygon id="_1_0" class="fil2" points="0.63,1.38 0.63,0.8 0.82,0.8 0.94,1.2 1.05,0.8 1.24,0.8 1.24,1.38 1.13,1.38 1.12,0.92 1,1.38 0.88,1.38 0.75,0.92 0.75,1.38 "/>
    <path id="_2_1" class="fil2" d="M1.67 1.17l0 -0.1 0.27 0 0 0.23c-0.02,0.03 -0.06,0.05 -0.11,0.07 -0.05,0.02 -0.1,0.02 -0.16,0.02 -0.06,0 -0.12,-0.01 -0.17,-0.03 -0.05,-0.03 -0.09,-0.07 -0.11,-0.12 -0.03,-0.04 -0.04,-0.1 -0.04,-0.15 0,-0.06 0.01,-0.12 0.04,-0.17 0.03,-0.04 0.07,-0.08 0.12,-0.11 0.05,-0.02 0.1,-0.03 0.16,-0.03 0.08,0 0.14,0.02 0.18,0.05 0.05,0.03 0.07,0.07 0.09,0.13l-0.13 0.02c-0.01,-0.03 -0.03,-0.05 -0.05,-0.07 -0.03,-0.01 -0.06,-0.02 -0.09,-0.02 -0.06,0 -0.1,0.01 -0.14,0.05 -0.03,0.03 -0.05,0.08 -0.05,0.14 0,0.07 0.02,0.13 0.05,0.16 0.04,0.04 0.08,0.05 0.13,0.05 0.03,0 0.06,0 0.09,-0.01 0.02,-0.01 0.05,-0.02 0.07,-0.04l0 -0.07 -0.15 0z"/>
   </g>
  </g>
 </g>
</svg>
