<?xml version="1.0" encoding="UTF-8"?>
<!DOCTYPE svg PUBLIC "-//W3C//DTD SVG 1.1//EN" "http://www.w3.org/Graphics/SVG/1.1/DTD/svg11.dtd">
<!-- Creator: CorelDRAW 2021 (64 Bit) -->
<svg xmlns="http://www.w3.org/2000/svg" xml:space="preserve" width="400px" height="400px" version="1.1" style="shape-rendering:geometricPrecision; text-rendering:geometricPrecision; image-rendering:optimizeQuality; fill-rule:evenodd; clip-rule:evenodd"
viewBox="0 0 2.53 2.53"
 xmlns:xlink="http://www.w3.org/1999/xlink"
 xmlns:xodm="http://www.corel.com/coreldraw/odm/2003">
 <defs>
  <style type="text/css">
   <![CDATA[
    .str0 {stroke:#B8B4B6;stroke-width:0.19;stroke-miterlimit:22.9256}
    .str1 {stroke:black;stroke-width:0.03;stroke-miterlimit:22.9256}
    .fil2 {fill:gray}
    .fil1 {fill:#B3B3B3}
    .fil3 {fill:#CCCCCC}
    .fil4 {fill:#E6E6E6}
    .fil0 {fill:white}
   ]]>
  </style>
 </defs>
 <g id="Camada_x0020_1">
  <metadata id="CorelCorpID_0Corel-Layer"/>
  <g id="_2069340091376">
   <path class="fil0 str0" d="M0.2 0.09l2.13 0c0.06,0 0.1,0.06 0.1,0.12l0 2.11c0,0.06 -0.04,0.11 -0.1,0.11l-2.13 0c-0.06,0 -0.1,-0.05 -0.1,-0.11 0,-0.26 -0.01,-2.04 0,-2.13 0,-0.05 0.06,-0.1 0.1,-0.1z"/>
   <g>
    <path class="fil1 str1" d="M1.57 0.87l0.01 -0.01c0.01,0 0.01,-0.01 0.01,-0.02 0.01,0 0.02,-0.01 0.02,-0.02 0,-0.01 -0.01,-0.02 -0.01,-0.03 0,-0.01 0.01,-0.01 0.01,-0.01 0.02,-0.01 0.03,-0.02 0.03,-0.04 0,-0.01 -0.02,-0.04 -0.03,-0.06 -0.01,-0.02 -0.02,-0.04 -0.03,-0.05 -0.01,-0.02 -0.01,-0.02 -0.01,-0.04 0.01,-0.07 0,-0.09 -0.04,-0.15 -0.02,-0.03 -0.07,-0.07 -0.12,-0.09 -0.1,-0.04 -0.21,-0.04 -0.31,0.01 -0.07,0.03 -0.15,0.11 -0.15,0.21 0,0.05 0.02,0.1 0.05,0.13l0.06 0.12c0.04,0.05 0.03,0.06 -0.01,0.12 -0.01,0.01 -0.02,0.02 -0.03,0.03 -0.01,0.01 -0.01,0.01 -0.01,0.02 -0.01,0 -0.02,0.01 -0.02,0.02 0,0.01 0,0.01 0.01,0.01 0,0.01 0.19,0.01 0.21,0.01l0.14 0c0.05,0 -0.01,-0.02 0.1,-0.05 0.02,-0.01 0.04,-0.01 0.07,-0.02 0.07,-0.01 0.09,-0.05 0.05,-0.09l0 0z"/>
    <path class="fil2 str1" d="M0.96 1.46l0.01 0c0.01,-0.01 0.01,-0.02 0.01,-0.02 0,-0.01 0.02,-0.02 0.02,-0.03 0,0 -0.01,-0.02 -0.02,-0.03 0.01,0 0.02,0 0.02,-0.01 0.02,0 0.03,-0.02 0.03,-0.03 -0.01,-0.02 -0.02,-0.05 -0.03,-0.06 -0.01,-0.02 -0.02,-0.04 -0.03,-0.06 -0.02,-0.02 -0.01,-0.01 -0.01,-0.03 0.01,-0.07 0,-0.1 -0.04,-0.16 -0.03,-0.03 -0.07,-0.07 -0.12,-0.08 -0.1,-0.05 -0.22,-0.04 -0.31,0 -0.07,0.03 -0.15,0.11 -0.15,0.21 0,0.05 0.02,0.1 0.04,0.14l0.07 0.11c0.03,0.05 0.03,0.06 -0.01,0.12 -0.01,0.01 -0.03,0.03 -0.03,0.04 -0.01,0 -0.01,0.01 -0.01,0.01 -0.01,0.01 -0.02,0.02 -0.02,0.02 0,0.01 0,0.02 0,0.02 0.01,0 0.19,0 0.22,0l0.14 0c0.05,0 -0.01,-0.01 0.09,-0.05 0.03,-0.01 0.05,-0.01 0.08,-0.01 0.07,-0.02 0.09,-0.05 0.05,-0.1l0 0z"/>
    <path class="fil3 str1" d="M1.57 2.05l0.01 0c0.01,0 0.01,-0.01 0,-0.02 0.01,0 0.02,-0.01 0.02,-0.02 0,-0.01 -0.01,-0.03 -0.01,-0.03 0.01,-0.01 0.01,-0.01 0.02,-0.01 0.01,-0.01 0.03,-0.02 0.02,-0.04 0,-0.02 -0.02,-0.05 -0.02,-0.06 -0.02,-0.02 -0.03,-0.04 -0.04,-0.05 -0.01,-0.02 -0.01,-0.02 0,-0.04 0,-0.07 -0.01,-0.1 -0.04,-0.15 -0.03,-0.04 -0.08,-0.07 -0.12,-0.09 -0.1,-0.04 -0.22,-0.04 -0.31,0.01 -0.07,0.03 -0.15,0.11 -0.15,0.21 0,0.05 0.02,0.1 0.04,0.13l0.07 0.11c0.03,0.06 0.02,0.07 -0.02,0.13 -0.01,0.01 -0.02,0.02 -0.03,0.03 0,0.01 -0.01,0.01 -0.01,0.01 -0.01,0.01 -0.02,0.02 -0.02,0.03 0,0.01 0.01,0.01 0.01,0.01 0.01,0.01 0.19,0 0.21,0l0.15 0c0.04,0 -0.01,-0.01 0.09,-0.04 0.03,-0.01 0.05,-0.01 0.08,-0.02 0.07,-0.01 0.08,-0.05 0.05,-0.1l0 0z"/>
    <path class="fil4 str1" d="M2.16 1.49l0 0c0.01,-0.01 0.02,-0.02 0.01,-0.02 0.01,-0.01 0.02,-0.02 0.02,-0.03 0,0 -0.01,-0.02 -0.01,-0.03 0,0 0.01,0 0.01,-0.01 0.02,0 0.04,-0.02 0.03,-0.03 0,-0.02 -0.02,-0.05 -0.03,-0.06 -0.01,-0.02 -0.02,-0.04 -0.03,-0.06 -0.01,-0.02 -0.01,-0.01 -0.01,-0.03 0.01,-0.07 0,-0.1 -0.04,-0.16 -0.02,-0.03 -0.07,-0.07 -0.11,-0.08 -0.1,-0.05 -0.22,-0.04 -0.32,0 -0.06,0.03 -0.14,0.11 -0.14,0.21 0,0.05 0.02,0.1 0.04,0.14l0.07 0.11c0.03,0.05 0.02,0.06 -0.02,0.12 -0.01,0.01 -0.02,0.03 -0.03,0.04 0,0 -0.01,0.01 -0.01,0.01 -0.01,0.01 -0.02,0.02 -0.02,0.02 0,0.01 0,0.02 0.01,0.02 0.01,0 0.19,0 0.21,0l0.15 0c0.04,0 -0.02,-0.01 0.09,-0.05 0.03,-0.01 0.05,-0.01 0.08,-0.01 0.06,-0.02 0.08,-0.05 0.05,-0.1l0 0z"/>
   </g>
  </g>
 </g>
</svg>
