<?xml version="1.0" encoding="UTF-8"?>
<!DOCTYPE svg PUBLIC "-//W3C//DTD SVG 1.1//EN" "http://www.w3.org/Graphics/SVG/1.1/DTD/svg11.dtd">
<!-- Creator: CorelDRAW 2021 (64 Bit) -->
<svg xmlns="http://www.w3.org/2000/svg" xml:space="preserve" width="400px" height="400px" version="1.1" style="shape-rendering:geometricPrecision; text-rendering:geometricPrecision; image-rendering:optimizeQuality; fill-rule:evenodd; clip-rule:evenodd"
viewBox="0 0 4 4"
 xmlns:xlink="http://www.w3.org/1999/xlink"
 xmlns:xodm="http://www.corel.com/coreldraw/odm/2003">
 <defs>
  <style type="text/css">
   <![CDATA[
    .str0 {stroke:#B8B4B6;stroke-width:0.3;stroke-miterlimit:22.9256}
    .str1 {stroke:black;stroke-width:0.02;stroke-miterlimit:22.9256}
    .str2 {stroke:black;stroke-width:0.01;stroke-miterlimit:22.9256}
    .str3 {stroke:red;stroke-width:0.01;stroke-miterlimit:22.9256}
    .fil5 {fill:none}
    .fil6 {fill:black}
    .fil4 {fill:#CCCCCC}
    .fil1 {fill:#E6E6E6}
    .fil2 {fill:red}
    .fil3 {fill:#FFFF99}
    .fil0 {fill:white}
   ]]>
  </style>
 </defs>
 <g id="Camada_x0020_1">
  <metadata id="CorelCorpID_0Corel-Layer"/>
  <g id="_2069393459968">
   <path class="fil0 str0" d="M0.32 0.15l3.37 0c0.09,0 0.16,0.08 0.16,0.19l0 3.33c0,0.1 -0.07,0.18 -0.16,0.18l-3.37 0c-0.09,0 -0.17,-0.08 -0.17,-0.18 0,-0.4 0,-3.23 0,-3.37 0,-0.08 0.1,-0.15 0.17,-0.15z"/>
   <g>
    <polygon class="fil1 str1" points="3.22,1.89 2.91,1.89 2.99,1.83 3.15,1.83 "/>
    <rect class="fil2 str1" x="1.72" y="1.89" width="1.55" height="0.68"/>
    <g>
     <g>
      <rect class="fil3 str1" x="0.76" y="2.46" width="1.55" height="0.56"/>
      <polygon class="fil4 str1" points="2,2.46 1.7,2.46 1.77,2.43 1.93,2.43 "/>
     </g>
     <g>
      <polygon class="fil4 str1" points="1.72,2.52 1.41,2.52 1.49,2.5 1.65,2.5 "/>
      <rect class="fil3 str1" x="0.7" y="2.52" width="1.55" height="0.56"/>
     </g>
     <g>
      <rect class="fil3 str1" x="0.64" y="2.59" width="1.55" height="0.57"/>
      <polygon class="fil5 str1" points="1.35,2.58 1.05,2.58 1.12,2.56 1.29,2.56 "/>
      <polygon class="fil4 str1" points="1.35,2.58 1.05,2.58 1.12,2.56 1.29,2.56 "/>
     </g>
     <g>
      <rect class="fil3 str1" x="0.58" y="2.65" width="1.55" height="0.56"/>
      <polygon class="fil4 str1" points="0.98,2.65 0.67,2.65 0.75,2.62 0.91,2.62 "/>
     </g>
    </g>
    <g>
     <path class="fil0" d="M1.88 1.09c0.02,0 0.03,-0.01 0.04,-0.02 0.01,0 0.02,-0.01 0.02,-0.01 0.01,0 0.02,-0.01 0.02,-0.01 0.01,0.01 0.02,0.01 0.03,0.02 -0.01,0.01 -0.04,0.03 -0.05,0.04 -0.05,0.02 -0.1,0.03 -0.14,0.01 -0.02,-0.01 -0.04,-0.03 -0.05,-0.05 0,0 0.02,-0.02 0.03,-0.02 0.02,0.03 0.06,0.04 0.1,0.04zm0.08 -0.23c0.06,-0.02 0.07,0.06 0.02,0.07 -0.03,0.01 -0.05,-0.01 -0.05,-0.03 -0.01,-0.02 0.01,-0.04 0.03,-0.04zm-0.22 0c0.02,-0.01 0.05,0 0.05,0.03 0,0.02 -0.01,0.04 -0.03,0.04 -0.06,0.02 -0.08,-0.06 -0.02,-0.07zm0.4 0.03c0.01,-0.04 0.02,-0.08 -0.01,-0.11 0,-0.01 -0.02,-0.02 -0.03,-0.03 -0.03,-0.02 -0.04,-0.01 -0.07,0.01 -0.04,0.04 -0.1,0.06 -0.16,0.06 -0.09,0.01 -0.14,-0.04 -0.19,-0.08 -0.02,-0.01 -0.03,0 -0.05,0.01 -0.02,0 -0.03,0.01 -0.04,0.03 0,0.01 -0.01,0.04 0,0.06 0,0.02 0,0.03 0,0.06l-0.04 0c-0.02,0.03 0,0.06 0.01,0.09 0,0.01 0,0.03 0.02,0.03 0.01,0.01 0.03,0.01 0.04,0.01 0.01,0.03 0.02,0.05 0.04,0.07 0.01,0.02 0.03,0.05 0.05,0.06 0.02,0.02 0.04,0.03 0.07,0.04 0.02,0.01 0.06,0.01 0.09,0.01 0.07,0 0.12,-0.02 0.16,-0.05 0.01,-0.02 0.04,-0.04 0.05,-0.06 0.03,-0.04 0.02,-0.04 0.04,-0.07 0.02,0 0.04,0 0.05,-0.02 0.01,-0.01 0.01,-0.03 0.01,-0.05 0.01,-0.01 0.02,-0.04 0.01,-0.05 -0.01,-0.01 -0.04,-0.01 -0.05,-0.02z"/>
     <path class="fil0" d="M2.38 1.17c-0.08,0.02 -0.05,0.13 0.03,0.12 0.03,-0.01 0.05,-0.04 0.04,-0.07 0,-0.03 -0.03,-0.06 -0.07,-0.05z"/>
     <path class="fil6" d="M1.88 1.09c-0.04,0 -0.08,-0.01 -0.1,-0.04 -0.01,0 -0.03,0.02 -0.03,0.02 0.01,0.02 0.03,0.04 0.05,0.05 0.04,0.02 0.09,0.01 0.14,-0.01 0.01,-0.01 0.04,-0.03 0.05,-0.04 -0.01,-0.01 -0.02,-0.01 -0.03,-0.02 0,0 -0.01,0.01 -0.02,0.01 0,0 -0.01,0.01 -0.02,0.01 -0.01,0.01 -0.02,0.02 -0.04,0.02z"/>
     <polygon class="fil6" points="1.46,1.77 1.49,1.77 1.49,1.62 1.46,1.62 "/>
     <polygon class="fil6" points="2.27,1.77 2.3,1.77 2.31,1.77 2.31,1.62 2.3,1.62 2.27,1.62 "/>
     <path class="fil6" d="M1.96 0.86c-0.02,0 -0.04,0.02 -0.03,0.04 0,0.02 0.02,0.04 0.05,0.03 0.05,-0.01 0.04,-0.09 -0.02,-0.07z"/>
     <path class="fil6" d="M1.74 0.86c-0.06,0.01 -0.04,0.09 0.02,0.07 0.02,0 0.03,-0.02 0.03,-0.04 0,-0.03 -0.03,-0.04 -0.05,-0.03z"/>
     <path class="fil6 str2" d="M2.14 0.89c0.01,0.01 0.04,0.01 0.05,0.02 0.01,0.01 0,0.04 -0.01,0.05 0,0.02 0,0.04 -0.01,0.05 -0.01,0.02 -0.03,0.02 -0.05,0.02 -0.02,0.03 -0.01,0.03 -0.04,0.07 -0.01,0.02 -0.04,0.04 -0.05,0.06 -0.04,0.03 -0.09,0.05 -0.16,0.05 -0.03,0 -0.07,0 -0.09,-0.01 -0.03,-0.01 -0.05,-0.02 -0.07,-0.04 -0.02,-0.01 -0.04,-0.04 -0.05,-0.06 -0.02,-0.02 -0.03,-0.04 -0.04,-0.07 -0.01,0 -0.03,0 -0.04,-0.01 -0.02,0 -0.02,-0.02 -0.02,-0.03 -0.01,-0.03 -0.03,-0.06 -0.01,-0.09l0.04 0c0,-0.03 0,-0.04 0,-0.06 -0.01,-0.02 0,-0.05 0,-0.06 0.01,-0.02 0.02,-0.03 0.04,-0.03 0.02,-0.01 0.03,-0.02 0.05,-0.01 0.05,0.04 0.1,0.09 0.19,0.08 0.06,0 0.12,-0.02 0.16,-0.06 0.03,-0.02 0.04,-0.03 0.07,-0.01 0.01,0.01 0.03,0.02 0.03,0.03 0.03,0.03 0.02,0.07 0.01,0.11zm-0.4 -0.42c-0.06,0.02 -0.11,0.07 -0.14,0.11 -0.02,0.04 -0.04,0.06 -0.05,0.12 -0.01,0.03 -0.01,0.05 -0.01,0.08 0,0.03 0.01,0.05 0.01,0.08 -0.02,0.01 -0.03,0.01 -0.04,0.03 -0.01,0.03 0,0.05 0,0.07 0.03,0.14 0.07,0.08 0.1,0.13 0.01,0.02 0,0.02 0.02,0.04l0.04 0.04c0.01,0.01 0.02,0.03 0.04,0.03 0,0.02 0,0.09 0,0.1 -0.01,0.01 -0.01,0.01 -0.02,0.01 -0.05,0.01 -0.16,0.03 -0.22,0.04 -0.04,0.01 -0.07,0.01 -0.1,0.03 -0.02,0.01 -0.03,0.01 -0.04,0.02 -0.04,0.03 -0.07,0.07 -0.08,0.12 -0.01,0.03 -0.01,0.09 -0.01,0.12 0,0.05 0,0.09 0,0.13 0.03,0 0.04,0.01 0.04,-0.01l0 -0.15c0,-0.07 0,-0.13 0.05,-0.16 0.03,-0.02 0.04,-0.03 0.07,-0.04 0.05,-0.02 0.12,-0.03 0.17,-0.04 0.03,0 0.07,-0.01 0.1,-0.01 0,0.03 0,0.05 0.02,0.07 0.02,0.04 0.06,0.07 0.1,0.09 0.02,0.01 0.06,0.02 0.08,0.01 0.09,0 0.21,-0.07 0.21,-0.17l0.23 0.04c0.07,0.01 0.14,0.06 0.15,0.14 0,0.08 0,0.16 0.01,0.23l0.03 0 0 -0.23c-0.01,-0.09 -0.06,-0.16 -0.2,-0.18 -0.08,-0.02 -0.15,-0.03 -0.23,-0.04 -0.03,-0.01 -0.03,-0.01 -0.03,-0.04 0,-0.02 0,-0.06 0,-0.08 0.01,-0.01 0.03,-0.03 0.04,-0.04 0.02,-0.01 0.05,-0.06 0.06,-0.09 0.07,0 0.07,-0.05 0.08,-0.09 0,-0.02 0.01,-0.02 0.01,-0.04 0,-0.01 0,-0.02 0,-0.03 -0.01,-0.03 -0.02,-0.04 -0.05,-0.04 0,-0.09 0.02,-0.13 -0.01,-0.2 -0.02,-0.06 -0.03,-0.08 -0.07,-0.12 -0.02,-0.02 -0.01,-0.02 -0.03,-0.03 -0.01,-0.01 -0.03,-0.02 -0.05,-0.03 -0.05,-0.04 -0.11,-0.05 -0.17,-0.04 -0.03,0 -0.07,0 -0.11,0.02zm-0.11 0.13c0.04,-0.03 0.07,-0.07 0.14,-0.1 0.02,-0.01 0.03,-0.01 0.06,-0.02 0.05,0 0.1,0.01 0.14,0.02 0.04,0.02 0.05,0.03 0.08,0.05 0.03,0.03 0.03,0.03 0.05,0.07 0.02,0.02 0.05,0.09 0.05,0.12 -0.02,-0.01 -0.05,-0.03 -0.07,-0.04 -0.01,-0.01 -0.02,-0.01 -0.04,0 -0.01,0.01 -0.01,0.02 -0.02,0.02 -0.1,0.08 -0.19,0.09 -0.29,0.01 -0.01,-0.01 -0.02,-0.01 -0.03,-0.02 -0.02,-0.01 -0.02,-0.02 -0.04,-0.01 -0.04,0 -0.06,0.02 -0.08,0.02 0,-0.05 0.04,-0.1 0.05,-0.12zm0.24 0.9c0,0 0.01,0 0.02,-0.01 0.01,0 0.02,0 0.02,0 0.07,-0.01 0.13,-0.07 0.13,-0.14 -0.03,-0.01 -0.04,-0.03 -0.04,-0.05l0 -0.08 0 0c0,0 -0.01,0 -0.01,0 -0.03,0.02 -0.08,0.03 -0.12,0.03 -0.04,0 -0.07,0 -0.1,-0.01 -0.01,-0.01 -0.02,-0.01 -0.03,-0.01 0,0.02 0.01,0.05 0,0.08 0,0.02 -0.02,0.03 -0.04,0.04 0,0.08 0.07,0.13 0.13,0.14 0.02,0 0.03,0.01 0.04,0.01z"/>
    </g>
    <path class="fil2 str3" d="M1.28 1.56l0 0.21 0.17 0 0 -0.15 0.04 0 0 0.15 0.78 0 0 -0.15 0.04 0 0 0.15 0.15 0 0 -0.23c-0.01,-0.08 -0.06,-0.12 -0.14,-0.14l-0.24 -0.04c-0.02,0.1 -0.09,0.16 -0.21,0.17 -0.11,0 -0.18,-0.06 -0.21,-0.17l-0.23 0.04c-0.1,0.02 -0.15,0.08 -0.15,0.16z"/>
   </g>
  </g>
 </g>
</svg>
