<?xml version="1.0" encoding="UTF-8"?>
<!DOCTYPE svg PUBLIC "-//W3C//DTD SVG 1.1//EN" "http://www.w3.org/Graphics/SVG/1.1/DTD/svg11.dtd">
<!-- Creator: CorelDRAW 2021 (64 Bit) -->
<svg xmlns="http://www.w3.org/2000/svg" xml:space="preserve" width="400px" height="400px" version="1.1" style="shape-rendering:geometricPrecision; text-rendering:geometricPrecision; image-rendering:optimizeQuality; fill-rule:evenodd; clip-rule:evenodd"
viewBox="0 0 18.86 18.86"
 xmlns:xlink="http://www.w3.org/1999/xlink"
 xmlns:xodm="http://www.corel.com/coreldraw/odm/2003">
 <defs>
  <style type="text/css">
   <![CDATA[
    .str2 {stroke:#AEA19E;stroke-width:0.75;stroke-miterlimit:22.9256;stroke-opacity:0.949020}
    .str0 {stroke:#B8B4B6;stroke-width:1.41;stroke-miterlimit:22.9256}
    .str1 {stroke:white;stroke-width:0.09;stroke-miterlimit:22.9256}
    .str3 {stroke:black;stroke-width:0.57;stroke-miterlimit:22.9256}
    .fil4 {fill:none}
    .fil1 {fill:#E6E7E8}
    .fil5 {fill:#373435}
    .fil7 {fill:#CD8E64}
    .fil9 {fill:#F8AC92}
    .fil6 {fill:#FD9833}
    .fil8 {fill:#FE0000}
    .fil0 {fill:white}
    .fil2 {fill:#333333;fill-rule:nonzero}
    .fil3 {fill:#FEFEFE;fill-rule:nonzero;fill-opacity:0.949020}
   ]]>
  </style>
 </defs>
 <g id="Camada_x0020_1">
  <metadata id="CorelCorpID_0Corel-Layer"/>
  <g id="_2068821660384">
   <path class="fil0 str0" d="M1.49 0.71l15.89 0c0.43,0 0.77,0.39 0.77,0.87l0 15.7c0,0.48 -0.34,0.87 -0.77,0.87l-15.89 0c-0.42,0 -0.76,-0.39 -0.76,-0.87 0,-1.89 -0.03,-15.21 -0.02,-15.89 0.01,-0.38 0.47,-0.68 0.78,-0.68z"/>
   <g>
    <g>
     <rect class="fil1 str1" x="3.29" y="10.43" width="2.33" height="5.48"/>
     <path class="fil2" d="M9.48 16.26c-0.44,0 -0.88,-0.16 -1.31,-0.33 -0.47,-0.18 -0.96,-0.36 -1.44,-0.32l-1.19 0.11 0 -4.72 0.64 -0.06c0.41,-0.04 0.75,0.12 1.07,0.28 0.31,0.14 0.6,0.28 0.93,0.25l2.13 -0.39c0.76,-0.14 1.18,0.31 1.44,0.73l2.33 -1.11c0.87,-0.4 1.86,0 2.45,1.01 0.16,0.26 0.07,0.61 -0.19,0.78 -0.3,0.19 -0.6,0.38 -0.9,0.57 -2.6,1.67 -4.84,3.11 -5.8,3.2 -0.05,0 -0.11,0 -0.16,0zm-2.6 -0.98c0.48,0 0.95,0.18 1.4,0.35 0.46,0.17 0.9,0.34 1.33,0.3 0.88,-0.08 3.2,-1.57 5.66,-3.14 0.3,-0.19 0.6,-0.39 0.9,-0.58 0.11,-0.07 0.15,-0.22 0.09,-0.34 -0.51,-0.85 -1.33,-1.2 -2.05,-0.87l-2.59 1.23c0,-0.17 -0.13,-0.37 -0.2,-0.46 -0.24,-0.29 -0.71,-0.43 -1.05,-0.37l-2.15 0.4c-0.43,0.03 -0.77,-0.13 -1.1,-0.29 -0.3,-0.14 -0.59,-0.28 -0.91,-0.25l-0.35 0.04 0 4.06 0.84 -0.07c0.06,-0.01 0.12,-0.01 0.18,-0.01z"/>
     <path class="fil3 str2" d="M5.32 16.26l-1.83 0c-0.29,0 -0.54,-0.25 -0.54,-0.55l0 -5.01c0,-0.31 0.25,-0.55 0.54,-0.55l1.83 -0.01c0.29,0 0.54,0.25 0.54,0.56l0 5.01c0,0.3 -0.25,0.55 -0.54,0.55zm-1.83 -5.79c-0.12,0 -0.22,0.1 -0.22,0.23l0 5.01c0,0.12 0.1,0.23 0.22,0.23l1.83 0c0.12,0 0.22,-0.11 0.22,-0.23l0 -5.01c0,-0.13 -0.1,-0.23 -0.22,-0.23l-1.83 0z"/>
     <path class="fil4 str3" d="M11.75 12.14c0.04,0.08 0.04,0.21 -0.05,0.36 -0.14,0.23 -0.45,0.4 -1.22,0.31 -0.57,-0.07 -1.25,0.07 -1.84,0.13"/>
    </g>
    <g>
     <path class="fil5" d="M3.61 8.29c0.28,0.06 0.6,0.22 1.1,0.32 0.39,0.09 0.83,0.13 1.25,0.13 0.43,0 0.85,-0.04 1.26,-0.13 0.31,-0.06 1.06,-0.31 1.1,-0.31 -0.02,0.54 -1.78,0.68 -2.34,0.69 -0.34,0 -2.33,-0.08 -2.37,-0.7zm0.09 -0.22c0.13,-0.15 0.28,-0.26 0.43,-0.4 0.14,-0.15 0.29,-0.27 0.44,-0.4 0.29,-0.23 0.13,-0.22 0.6,-0.22l1.6 0c0.47,0 0.3,0.01 0.58,0.22l0.44 0.4c0.09,0.08 0.15,0.12 0.23,0.19 0.1,0.1 0.16,0.13 0.2,0.21 -0.42,0.28 -1.76,0.44 -2.28,0.44 -0.54,-0.01 -1.84,-0.19 -2.24,-0.44zm1.15 -1.74c0.31,0.06 0.67,0.18 0.98,0.27 0.17,0.05 0.33,0.09 0.49,0.14 0.13,0.04 0.36,0.12 0.47,0.14l-1.94 0 0 -0.55zm0.02 -0.13c-0.16,-0.04 -0.19,-0.06 -0.15,-0.27l2.44 0.67c0.02,0.09 0.04,0.15 0.01,0.24 -0.16,-0.01 -1.94,-0.54 -2.3,-0.64zm0.16 -0.32c-0.16,-0.04 -0.18,-0.01 -0.18,-0.18l2.23 0.61 0 0.13 -2.05 -0.56zm-0.33 -0.53c0.22,-0.01 1.98,0.53 2.43,0.63 0.03,0.08 0.04,0.11 0.02,0.2 -0.14,-0.01 -1.68,-0.44 -1.94,-0.52 -0.49,-0.13 -0.54,-0.08 -0.51,-0.31zm0.15 -0.28c0.13,0.01 1.43,0.41 1.74,0.5 0.44,0.13 0.49,0.07 0.49,0.26l-2.23 -0.6 0 -0.16zm2.34 0.02c0.03,-0.02 0.01,-0.04 0.15,-0.03 0.05,0 0.1,0.01 0.15,0.02l3.53 0.3c0.22,0.02 0.43,0 0.5,0.1 -0.2,0.03 -3.28,-0.27 -3.82,-0.32l-0.51 -0.07zm-2.47 -0.42c0.2,0.03 0.48,0.12 0.68,0.18l1.34 0.38c0.32,0.09 0.52,0.08 0.43,0.36 -0.13,-0.01 -1.11,-0.31 -1.33,-0.37l-1.02 -0.29c-0.12,-0.05 -0.13,-0.12 -0.1,-0.26zm2.35 0.52c-0.22,-0.04 -1.73,-0.47 -1.83,-0.53l0.12 -0.01 1.63 0 0.09 0.01 -0.01 0.53zm-2.48 -0.87c0.16,0 0.69,0.16 1.39,0.15 0.55,0 0.9,-0.1 1.39,-0.19 -0.23,0.21 -0.21,0.21 -0.6,0.21 -0.26,0 -0.52,-0.02 -0.79,-0.02 -0.26,0 -0.52,0.02 -0.78,0.02 -0.63,0 -0.34,-0.03 -0.61,-0.17zm3.22 -0.51c0.18,-0.07 0.34,-0.18 0.47,-0.24 -0.11,0.26 -0.68,0.44 -1.03,0.53 -0.97,0.24 -2.39,0.22 -3.29,-0.26 -0.13,-0.08 -0.39,-0.21 -0.39,-0.38 0.14,0.06 0.32,0.17 0.5,0.24 0.96,0.39 2.17,0.44 3.17,0.27 0.2,-0.04 0.39,-0.09 0.57,-0.16zm-2.4 -1.27c0.8,-0.07 1.99,0 2.65,0.34 0.55,0.29 0.14,0.56 -0.26,0.71 -0.35,0.14 -0.86,0.21 -1.27,0.23 -0.95,0.06 -1.81,-0.01 -2.59,-0.39 -0.26,-0.13 -0.45,-0.19 -0.29,-0.39 0.26,-0.33 1.35,-0.47 1.76,-0.5zm1.79 2.11c0.09,-0.04 0.59,-0.42 0.74,-0.53 0.26,-0.18 0.56,-0.29 0.59,-0.71 0.01,-0.24 0.02,-0.35 -0.11,-0.51 -0.58,-0.7 -3.66,-0.77 -4.67,-0.18 -0.13,0.08 -0.26,0.19 -0.32,0.32 -0.04,0.09 -0.06,0.48 -0.05,0.61 0.1,0.07 0.18,0.17 0.3,0.26 0.1,0.08 0.2,0.13 0.31,0.22 0.1,0.08 0.21,0.15 0.32,0.23 0.11,0.08 0.2,0.16 0.31,0.22 -0.03,0.12 -0.06,0.19 -0.01,0.32 0.07,0.2 0.11,0.03 0.12,0.24 -0.02,0.1 -0.16,0.05 -0.16,0.28 0,0.21 0.1,0.18 0.16,0.28 -0.02,0.17 0,0.01 -0.09,0.15 -0.17,0.23 0.08,0.46 0.09,0.49l-0.01 0.55c-0.22,0.16 -0.73,0.63 -0.99,0.86 -0.21,0.19 -0.19,0.23 -0.34,0.17l-0.05 0.21c0,0 0.02,0.05 0.03,0.09 0,0.05 0,0.08 0,0.13 0.02,0.4 0.52,0.58 0.85,0.68 1.06,0.29 2.45,0.29 3.51,-0.03 0.37,-0.11 0.81,-0.27 0.82,-0.68 0.02,-0.31 0.06,-0.05 0.01,-0.27 -0.01,-0.05 -0.01,-0.07 -0.01,-0.12 -0.12,0.03 -0.13,0.03 -0.21,-0.04l-0.78 -0.69c-0.11,-0.12 -0.19,-0.16 -0.29,-0.28 0.09,-0.23 0.03,-0.24 -0.05,-0.43 -0.1,-0.22 0.09,-0.21 0.06,-0.42 -0.01,-0.09 -0.07,-0.14 -0.08,-0.22 -0.04,-0.23 0.24,-0.15 0.04,-0.59 0.31,-0.01 0.78,0.06 1.11,0.09l2.24 0.2c0.19,0.01 0.39,0.03 0.58,0.05 0.23,0.02 0.33,0.06 0.47,-0.07 0.02,-0.25 -0.2,-0.24 -0.4,-0.26l-4.04 -0.34 0 -0.28z"/>
     <path class="fil6" d="M3.7 8.07c0.4,0.25 1.7,0.43 2.24,0.44 0.52,0 1.86,-0.16 2.28,-0.44 -0.04,-0.08 -0.1,-0.11 -0.2,-0.21 -0.08,-0.07 -0.14,-0.11 -0.23,-0.19l-0.44 -0.4c-0.28,-0.21 -0.11,-0.22 -0.58,-0.22l-1.6 0c-0.47,0 -0.31,-0.01 -0.6,0.22 -0.15,0.13 -0.3,0.25 -0.44,0.4 -0.15,0.14 -0.3,0.25 -0.43,0.4z"/>
     <path class="fil7" d="M5.41 2.54c-0.41,0.03 -1.5,0.17 -1.76,0.5 -0.16,0.2 0.03,0.26 0.29,0.39 0.78,0.38 1.64,0.45 2.59,0.39 0.41,-0.02 0.92,-0.09 1.27,-0.23 0.4,-0.15 0.81,-0.42 0.26,-0.71 -0.66,-0.34 -1.85,-0.41 -2.65,-0.34z"/>
     <path class="fil8" d="M13.44 3.06l-0.43 -0.19 -1.97 4.88c-0.09,0.21 -0.22,0.49 -0.29,0.71l0.44 0.19 2.25 -5.59z"/>
     <path class="fil0" d="M3.61 8.29c0.04,0.62 2.03,0.7 2.37,0.7 0.56,-0.01 2.32,-0.15 2.34,-0.69 -0.04,0 -0.79,0.25 -1.1,0.31 -0.41,0.09 -0.83,0.13 -1.26,0.13 -0.42,0 -0.86,-0.04 -1.25,-0.13 -0.5,-0.1 -0.82,-0.26 -1.1,-0.32z"/>
     <path class="fil5" d="M12.96 5.55c0.01,0 0.02,-0.01 0.02,-0.01l0.03 -0.01c0.01,0 0.02,0 0.02,0l3.17 0.26c0.04,0.03 0.01,0 0.04,0.04 -0.11,0.06 -2.55,-0.19 -3.09,-0.22 -0.11,-0.01 -0.15,0.01 -0.19,-0.06zm2.46 0.37c0.19,0.02 0.8,0.12 0.91,0.01 0.12,-0.14 -0.02,-0.26 -0.17,-0.28l-1.41 -0.11c-0.64,-0.06 -1.28,-0.11 -1.91,-0.15 0.01,0.31 -0.06,0.32 0.21,0.34l2.37 0.19z"/>
     <path class="fil0" d="M8.28 3.57c-0.13,0.06 -0.29,0.17 -0.47,0.24 -0.18,0.07 -0.37,0.12 -0.57,0.16 -1,0.17 -2.21,0.12 -3.17,-0.27 -0.18,-0.07 -0.36,-0.18 -0.5,-0.24 0,0.17 0.26,0.3 0.39,0.38 0.9,0.48 2.32,0.5 3.29,0.26 0.35,-0.09 0.92,-0.27 1.03,-0.53z"/>
     <path class="fil8" d="M10.82 3.63c0.2,0.26 0.45,0.69 0.65,0.93 0.09,0.11 0.15,0.23 0.23,0.32 0.07,-0.06 0.09,-0.07 0.18,-0.15 0.06,-0.05 0.14,-0.1 0.19,-0.14 -0.02,-0.05 -0.79,-1.18 -0.88,-1.26l-0.37 0.3z"/>
     <path class="fil8" d="M10.17 7.07c0.17,-0.1 1.16,-0.69 1.25,-0.78l-0.23 -0.42c-0.11,0.04 -0.76,0.46 -0.95,0.57 -0.09,0.06 -0.24,0.13 -0.3,0.2 0.05,0.13 0.16,0.31 0.23,0.43z"/>
     <path class="fil8" d="M12.91 6.13c-0.08,0.06 -0.31,0.25 -0.36,0.34l0.63 0.8c0.06,0.09 0.14,0.19 0.21,0.26 0.12,-0.08 0.23,-0.21 0.36,-0.29 -0.03,-0.08 -0.75,-1.02 -0.84,-1.11z"/>
     <path class="fil0" d="M7.17 5.59c0.09,-0.28 -0.11,-0.27 -0.43,-0.36l-1.34 -0.38c-0.2,-0.06 -0.48,-0.15 -0.68,-0.18 -0.03,0.14 -0.02,0.21 0.1,0.26l1.02 0.29c0.22,0.06 1.2,0.36 1.33,0.37z"/>
     <polygon class="fil8" points="13.29,4.54 13.47,5 14.58,4.48 14.4,4.02 "/>
     <path class="fil0" d="M7.17 6.84c0.03,-0.09 0.01,-0.15 -0.01,-0.24l-2.44 -0.67c-0.04,0.21 -0.01,0.23 0.15,0.27 0.36,0.1 2.14,0.63 2.3,0.64z"/>
     <path class="fil9" d="M4.85 6.88l1.94 0c-0.11,-0.02 -0.34,-0.1 -0.47,-0.14 -0.16,-0.05 -0.32,-0.09 -0.49,-0.14 -0.31,-0.09 -0.67,-0.21 -0.98,-0.27l0 0.55z"/>
     <path class="fil9" d="M7.07 5.19l0.01 -0.53 -0.09 -0.01 -1.63 0 -0.12 0.01c0.1,0.06 1.61,0.49 1.83,0.53z"/>
     <path class="fil0" d="M7.15 6.18c0.02,-0.09 0.01,-0.12 -0.02,-0.2 -0.45,-0.1 -2.21,-0.64 -2.43,-0.63 -0.03,0.23 0.02,0.18 0.51,0.31 0.26,0.08 1.8,0.51 1.94,0.52z"/>
     <path class="fil9" d="M4.85 5.23l2.23 0.6c0,-0.19 -0.05,-0.13 -0.49,-0.26 -0.31,-0.09 -1.61,-0.49 -1.74,-0.5l0 0.16z"/>
     <path class="fil0" d="M7.19 5.09l0.51 0.07c0.54,0.05 3.62,0.35 3.82,0.32 -0.07,-0.1 -0.28,-0.08 -0.5,-0.1l-3.53 -0.3c-0.05,-0.01 -0.1,-0.02 -0.15,-0.02 -0.14,-0.01 -0.12,0.01 -0.15,0.03z"/>
     <path class="fil9" d="M7.08 6.44l0 -0.13 -2.23 -0.61c0,0.17 0.02,0.14 0.18,0.18l2.05 0.56z"/>
     <path class="fil0" d="M12.96 5.55c0.04,0.07 0.08,0.05 0.19,0.06 0.54,0.03 2.98,0.28 3.09,0.22 -0.03,-0.04 0,-0.01 -0.04,-0.04l-3.17 -0.26c0,0 -0.01,0 -0.02,0l-0.03 0.01c0,0 -0.01,0.01 -0.02,0.01z"/>
     <path class="fil6" d="M4.59 4.32c0.27,0.14 -0.02,0.17 0.61,0.17 0.26,0 0.52,-0.02 0.78,-0.02 0.27,0 0.53,0.02 0.79,0.02 0.39,0 0.37,0 0.6,-0.21 -0.49,0.09 -0.84,0.19 -1.39,0.19 -0.7,0.01 -1.23,-0.15 -1.39,-0.15z"/>
    </g>
   </g>
  </g>
 </g>
</svg>
