<?xml version="1.0" encoding="UTF-8"?>
<!DOCTYPE svg PUBLIC "-//W3C//DTD SVG 1.1//EN" "http://www.w3.org/Graphics/SVG/1.1/DTD/svg11.dtd">
<!-- Creator: CorelDRAW 2021 (64 Bit) -->
<svg xmlns="http://www.w3.org/2000/svg" xml:space="preserve" width="400px" height="400px" version="1.1" style="shape-rendering:geometricPrecision; text-rendering:geometricPrecision; image-rendering:optimizeQuality; fill-rule:evenodd; clip-rule:evenodd"
viewBox="0 0 2.26 2.26"
 xmlns:xlink="http://www.w3.org/1999/xlink"
 xmlns:xodm="http://www.corel.com/coreldraw/odm/2003">
 <defs>
  <style type="text/css">
   <![CDATA[
    .str2 {stroke:black;stroke-width:0.06;stroke-miterlimit:22.9256}
    .str0 {stroke:#C4C4C4;stroke-width:0.17;stroke-miterlimit:22.9256}
    .str1 {stroke:black;stroke-width:0.09;stroke-miterlimit:22.9256}
    .str4 {stroke:whitesmoke;stroke-width:0.01;stroke-miterlimit:22.9256}
    .str3 {stroke:#FF0505;stroke-width:0.01;stroke-miterlimit:22.9256}
    .str5 {stroke:yellow;stroke-width:0.01;stroke-miterlimit:22.9256}
    .fil2 {fill:none}
    .fil3 {fill:#003399}
    .fil4 {fill:#33CC66}
    .fil1 {fill:#E6E6E6}
    .fil0 {fill:white}
   ]]>
  </style>
 </defs>
 <g id="Camada_x0020_1">
  <metadata id="CorelCorpID_0Corel-Layer"/>
  <g id="_2069827426704">
   <circle class="fil0 str0" cx="1.13" cy="1.13" r="1.04"/>
   <g>
    <polygon class="fil1" points="0.66,1.13 0.43,1.48 0.5,1.53 0.73,1.17 "/>
    <ellipse class="fil2 str1" cx="1.1" cy="0.51" rx="0.2" ry="0.19"/>
    <ellipse class="fil2 str1" cx="0.88" cy="0.66" rx="0.2" ry="0.19"/>
    <ellipse class="fil2 str1" cx="1.32" cy="0.66" rx="0.2" ry="0.19"/>
    <ellipse class="fil2 str1" cx="1.23" cy="0.9" rx="0.2" ry="0.19"/>
    <ellipse class="fil2 str1" cx="0.96" cy="0.9" rx="0.2" ry="0.19"/>
    <rect class="fil2 str2" transform="matrix(0.388539 0.295131 -0.342108 0.392236 0.690279 1.45758)" width="0.23" height="0.42" rx="0.11" ry="0.11"/>
    <rect class="fil2 str2" transform="matrix(0.489862 0.372094 -0.431323 0.494522 0.814509 1.48375)" width="0.23" height="0.42" rx="0.11" ry="0.11"/>
    <rect class="fil2 str2" transform="matrix(0.388539 0.295131 -0.342108 0.392236 0.912001 1.58893)" width="0.23" height="0.42" rx="0.11" ry="0.11"/>
    <rect class="fil2 str2" transform="matrix(0.360863 0.274108 -0.317739 0.364296 1.00519 1.65193)" width="0.23" height="0.42" rx="0.11" ry="0.11"/>
    <polygon class="fil3 str3" points="1.9,1.45 1.86,1.48 1.56,1.03 1.9,0.79 "/>
    <polygon class="fil1 str4" points="1.75,1.49 1.51,1.12 1.59,1.08 1.83,1.44 "/>
    <polygon class="fil4 str5" points="0.33,1.5 0.38,1.53 0.68,1.08 0.33,0.84 "/>
    <path class="fil2 str2" d="M1.9 0.8l-0.34 0.24 0.3 0.45 0.04 -0.02m-1.56 0.03l0.04 0.03 0.31 -0.45 -0.35 -0.24m0.19 0.67l0.08 0.05m0.13 -0.39l0.39 0m0.6 0.3l-0.14 0.09m-0.13 0.06l0.02 0.02c0.1,0.06 0.17,-0.04 0.1,-0.1l-0.34 -0.26c-0.05,0.02 -0.1,0.04 -0.15,0.05 -0.1,0.02 -0.17,-0.06 -0.1,-0.09l0.14 -0.07 0.03 -0.01c0.01,-0.01 0.03,-0.01 0.04,0l0.2 0.05 0.12 -0.05m-0.27 0.64l0.05 0.03c0.08,0.04 0.14,-0.04 0.07,-0.1l-0.2 -0.14m-0.15 0.21l0.15 0.1c0.07,0.04 0.13,-0.03 0.09,-0.09 0,0 -0.01,-0.01 -0.01,-0.01 -0.01,-0.01 -0.14,-0.09 -0.15,-0.1m0.27 0.03l0.03 0.01c0.08,0.04 0.15,-0.04 0.08,-0.1l-0.25 -0.17m0.36 -0.38l-0.09 0.04 0.25 0.37 0.08 -0.05m-1.17 -0.33l-0.24 0.36 0.09 0.06 0.23 -0.37 -0.08 -0.05z"/>
   </g>
  </g>
 </g>
</svg>
