<?xml version="1.0" encoding="UTF-8"?>
<!DOCTYPE svg PUBLIC "-//W3C//DTD SVG 1.1//EN" "http://www.w3.org/Graphics/SVG/1.1/DTD/svg11.dtd">
<!-- Creator: CorelDRAW 2021 (64 Bit) -->
<svg xmlns="http://www.w3.org/2000/svg" xml:space="preserve" width="400px" height="400px" version="1.1" style="shape-rendering:geometricPrecision; text-rendering:geometricPrecision; image-rendering:optimizeQuality; fill-rule:evenodd; clip-rule:evenodd"
viewBox="0 0 2.26 2.26"
 xmlns:xlink="http://www.w3.org/1999/xlink"
 xmlns:xodm="http://www.corel.com/coreldraw/odm/2003">
 <defs>
  <style type="text/css">
   <![CDATA[
    .str0 {stroke:#C4C4C4;stroke-width:0.17;stroke-miterlimit:22.9256}
    .str3 {stroke:black;stroke-width:0.03;stroke-miterlimit:22.9256}
    .str1 {stroke:#A9ABAE;stroke-width:0.01;stroke-miterlimit:22.9256}
    .str2 {stroke:red;stroke-width:0.01;stroke-miterlimit:22.9256}
    .fil9 {fill:black}
    .fil5 {fill:#53331D}
    .fil7 {fill:#727376}
    .fil3 {fill:#86B0C0}
    .fil2 {fill:#9D720B}
    .fil4 {fill:#B8E3E9}
    .fil6 {fill:#E2A610}
    .fil8 {fill:#ED3237}
    .fil1 {fill:#FCD532}
    .fil10 {fill:red}
    .fil0 {fill:white}
   ]]>
  </style>
 </defs>
 <g id="Camada_x0020_1">
  <metadata id="CorelCorpID_0Corel-Layer"/>
  <g id="_2069913347632">
   <circle class="fil0 str0" cx="1.13" cy="1.13" r="1.04"/>
   <g id="_2412161610288">
    <g>
     <g>
      <path class="fil1" d="M1.64 1.06c0.02,0 0.05,0.01 0.06,0.03 0.01,0.01 0,0.02 -0.01,0.03 -0.03,0.03 -0.12,0 -0.08,-0.04 0.01,-0.01 0.02,-0.01 0.03,-0.02l0 0zm-0.29 -0.05c-0.01,0 -0.03,0 -0.05,0.01 -0.03,0 -0.06,0.01 -0.08,0.02 -0.01,0.01 -0.03,0.01 -0.05,0.03 -0.01,0.01 -0.01,0.01 -0.01,0.02 0,0 0,0 0,0.01 0,0.01 0.01,0.02 0.01,0.03 0.01,0.01 0.02,0.02 0.03,0.02 0.02,0.02 0.05,0.03 0.08,0.04 0.11,0.02 0.36,0.03 0.46,-0.03 0.02,-0.02 0.04,-0.04 0.04,-0.08 0,0 0,0 0,-0.01 0,0 -0.01,0 -0.01,0 -0.01,-0.01 -0.02,-0.01 -0.02,-0.02 -0.07,-0.03 -0.2,-0.06 -0.28,-0.05 -0.04,0 -0.08,0 -0.12,0.01l0 0z"/>
      <path class="fil2" d="M1.64 1.06c-0.01,0.01 -0.02,0.01 -0.03,0.02 -0.04,0.04 0.05,0.07 0.08,0.04 0.01,-0.01 0.02,-0.02 0.01,-0.03 -0.01,-0.02 -0.04,-0.03 -0.06,-0.03l0 0z"/>
      <path class="fil2" d="M1.29 1.06c-0.01,0.01 -0.03,0.01 -0.03,0.02 -0.04,0.04 0.04,0.07 0.08,0.04 0.01,-0.01 0.01,-0.02 0.01,-0.03 -0.02,-0.02 -0.04,-0.03 -0.06,-0.03l0 0z"/>
     </g>
     <g>
      <g>
       <path class="fil3" d="M1.36 0.66c0,0.03 -0.01,0.03 -0.03,0.06 -0.02,0.03 -0.03,0.09 -0.04,0.13 0,0.02 -0.01,0.03 -0.01,0.04 -0.01,0 -0.01,-0.01 -0.02,-0.01 0,-0.01 0,-0.02 0,-0.02 0,-0.08 0.01,-0.17 0.06,-0.22 0.03,-0.02 0.05,-0.01 0.04,0.02l0 0zm-0.11 0.22l0 0.09c0,0.01 0,0 0,0.01 0.01,0.01 0.03,0.01 0.04,0.02 0.02,0 0.04,-0.01 0.06,-0.02 0,-0.01 0,-0.01 0,-0.02 0,-0.01 0,-0.02 0,-0.04 0,-0.02 0,-0.05 0,-0.07 0,-0.04 0.01,0.04 0.01,-0.01 0,-0.03 0,-0.03 0,-0.05 0.03,-0.1 0.11,-0.15 0.18,-0.1 0.04,0.02 0.08,0.08 0.08,0.13 0,0.04 0,0.08 0,0.12 0.01,0.01 0.03,0.02 0.04,0.02 0.02,0 0.04,-0.01 0.05,-0.02 0,-0.03 0,-0.06 0,-0.09 0,-0.07 -0.02,-0.16 -0.06,-0.2 -0.01,-0.03 -0.02,-0.03 -0.03,-0.05 -0.02,-0.01 -0.03,-0.03 -0.05,-0.04 -0.06,-0.03 -0.12,-0.03 -0.18,0 -0.02,0.01 -0.04,0.02 -0.05,0.03 -0.02,0.02 -0.02,0.02 -0.04,0.05 0,0.01 -0.01,0.01 -0.01,0.03 -0.01,0.01 -0.01,0.02 -0.02,0.03 -0.01,0.04 -0.02,0.09 -0.02,0.15 0,0.06 0,-0.03 0,0.03l0 0z"/>
       <path class="fil4" d="M1.36 0.66c0.01,-0.03 -0.01,-0.04 -0.04,-0.02 -0.05,0.05 -0.06,0.14 -0.06,0.22 0,0 0,0.01 0,0.02 0.01,0 0.01,0.01 0.02,0.01 0,-0.01 0.01,-0.02 0.01,-0.04 0.01,-0.04 0.02,-0.1 0.04,-0.13 0.02,-0.03 0.03,-0.03 0.03,-0.06l0 0z"/>
      </g>
      <g>
       <path class="fil5" d="M1.44 1.32l0 0c-0.01,0.01 -0.02,0.02 -0.02,0.05 0,0.03 0.01,0.05 0.02,0.05 0,0.03 -0.03,0.11 -0.03,0.12 0,0.01 0.02,0.01 0.03,0.01l0.06 0c0.02,0 0.02,0 0.01,-0.04l-0.02 -0.06c0,0 -0.01,-0.02 -0.01,-0.02 0.01,-0.01 0.03,-0.02 0.03,-0.06 0,-0.02 -0.01,-0.04 -0.02,-0.05 0,0 0,0 0,0l-0.01 0c0,0 -0.01,-0.01 -0.02,-0.01 -0.01,0 -0.01,0.01 -0.02,0.01l0 0z"/>
       <path class="fil2" d="M1.48 1.32l0.01 0c0,0 0,0 0,0 0.01,0.01 0.02,0.03 0.02,0.05 0,0.04 -0.02,0.05 -0.03,0.06 0,0 0.01,0.02 0.01,0.02l0.02 0.06c0.01,0.04 0.01,0.04 -0.01,0.04l-0.06 0c-0.01,0 -0.03,0 -0.03,-0.01 0,-0.01 0.03,-0.09 0.03,-0.12 -0.01,0 -0.02,-0.02 -0.02,-0.05 0,-0.03 0.01,-0.04 0.02,-0.05l0 0 0 0c-0.02,0 -0.06,0.05 -0.03,0.1 0.01,0.01 0.02,0.01 0.03,0.02 -0.01,0.02 -0.03,0.07 -0.04,0.1 0,0.01 0,0.02 -0.01,0.02 0,0.02 0,0.02 0.01,0.02 0.04,0 0.09,0 0.12,0 0.01,0 0.02,0 0.02,-0.01 0,-0.01 -0.01,-0.02 -0.01,-0.03 -0.01,-0.01 -0.01,-0.03 -0.02,-0.05 0,-0.01 -0.02,-0.04 -0.02,-0.05 0.02,-0.01 0.04,-0.03 0.04,-0.06 -0.01,-0.04 -0.02,-0.06 -0.05,-0.06l0 0z"/>
       <g>
        <path class="fil6" d="M1.44 1.32l0 0c0.01,0 0.01,-0.01 0.02,-0.01 0.01,0 0.02,0.01 0.02,0.01 0.03,0 0.04,0.02 0.05,0.06 0,0.03 -0.02,0.05 -0.04,0.06 0,0.01 0.02,0.04 0.02,0.05 0.01,0.02 0.01,0.04 0.02,0.05 0,0.01 0.01,0.02 0.01,0.03 0,0.01 -0.01,0.01 -0.02,0.01 -0.03,0 -0.08,0 -0.12,0 -0.01,0 -0.01,0 -0.01,-0.02 0.01,0 0.01,-0.01 0.01,-0.02 0.01,-0.03 0.03,-0.08 0.04,-0.1 -0.01,-0.01 -0.02,-0.01 -0.03,-0.02 -0.03,-0.05 0.01,-0.1 0.03,-0.1l0 0zm0.34 -0.24c0,0.04 -0.02,0.06 -0.04,0.08 -0.1,0.06 -0.35,0.05 -0.46,0.03 -0.03,-0.01 -0.06,-0.02 -0.08,-0.04 -0.01,0 -0.02,-0.01 -0.03,-0.02 0,-0.01 -0.01,-0.02 -0.01,-0.03 0,-0.01 0,-0.01 0,-0.01 -0.01,0 -0.01,0.12 -0.01,0.12 0,0.04 0,0.09 0,0.13 0,0.09 0,0.17 0,0.26 0,0.03 0,0.02 0.01,0.04 0.01,0.01 0.03,0.02 0.04,0.03 0.02,0.01 0.05,0.02 0.08,0.03 0.12,0.03 0.26,0.03 0.38,0 0.02,-0.01 0.05,-0.02 0.08,-0.03 0.01,-0.01 0.02,-0.02 0.03,-0.03 0.02,-0.01 0.02,-0.02 0.02,-0.04 0,-0.09 0,-0.17 0,-0.26 0,0 0,-0.25 -0.01,-0.26l0 0z"/>
        <g>
         <polygon class="fil7 str1" points="1.37,1.08 1.46,1.16 1.54,1.08 1.51,1.21 1.6,1.3 1.49,1.29 1.46,1.42 1.43,1.29 1.32,1.29 1.41,1.21 "/>
         <polygon class="fil8 str2" points="1.46,0.97 1.47,1.21 1.65,1.16 1.48,1.24 1.57,1.45 1.46,1.27 1.34,1.45 1.44,1.24 1.27,1.16 1.45,1.21 "/>
        </g>
       </g>
      </g>
     </g>
    </g>
    <g>
     <g>
      <path class="fil9" d="M0.56 0.91c0,0 0,0.02 0,0.02 0,0.06 0.04,0.13 0.08,0.17 0.01,0.01 0.03,0.03 0.05,0.04 0.03,0.01 0.04,0.01 0.04,0.03 0,0.03 0.01,0.06 0.01,0.09l0 0.1c0.01,0.03 0.02,0.29 0.03,0.3 0.01,0 0.02,-0.01 0.04,-0.01 0.04,-0.01 0.09,-0.04 0.11,-0.09 0,-0.02 -0.01,-0.05 0,-0.08l0.04 -0.09c0,0 0,0.01 0,0 -0.01,0 0,0 -0.01,0 -0.01,-0.02 -0.03,-0.07 -0.05,-0.09 0.02,-0.03 0.06,-0.07 0.06,-0.1 0,-0.01 0,-0.02 0,-0.04 -0.01,-0.01 -0.01,-0.03 -0.01,-0.04 0.04,-0.03 0.06,-0.04 0.09,-0.09 0.02,-0.03 0.04,-0.07 0.04,-0.1 0,-0.04 0,-0.07 -0.01,-0.1 -0.01,-0.04 -0.02,-0.07 -0.05,-0.1 -0.03,-0.04 -0.06,-0.06 -0.1,-0.08 -0.04,-0.01 -0.07,-0.02 -0.1,-0.02l-0.05 0.01c-0.04,0.01 -0.09,0.03 -0.12,0.07 0,0 -0.02,0.02 -0.02,0.02l0 0c0.02,0.01 0.02,0.02 0.03,0.02 0.03,-0.02 0.04,-0.04 0.09,-0.07 0.02,-0.01 0.06,-0.02 0.09,-0.01 0.02,0 0.07,0 0.09,0.02 0.06,0.03 0.11,0.09 0.12,0.16 0,0.03 0.01,0.07 0,0.09 -0.02,0.08 -0.07,0.13 -0.14,0.16 0,0.01 0,0.02 0.01,0.03l0.01 0.07c0,0.01 -0.01,0.01 -0.02,0.02l-0.05 0.08c0.01,0.03 0.03,0.06 0.05,0.09 0.01,0.01 0,0.01 -0.01,0.04l-0.02 0.07c-0.01,0.02 -0.01,0.01 0,0.03 0,0 0,0.04 0,0.04 -0.01,0.03 -0.06,0.06 -0.08,0.06 -0.01,-0.01 -0.01,-0.01 -0.01,-0.02 0,-0.04 0,-0.07 0,-0.11 0,-0.01 0,-0.02 0,-0.03l-0.01 -0.16c0,-0.01 0,-0.02 0,-0.03 0,-0.01 0,-0.02 0,-0.03l-0.01 -0.07c0,-0.02 0,-0.04 0,-0.06 -0.01,-0.01 -0.02,-0.01 -0.03,-0.01 -0.01,0 -0.03,-0.01 -0.04,-0.01 -0.05,-0.03 -0.09,-0.08 -0.1,-0.14 0,-0.01 0,-0.01 0,-0.02 0,-0.01 0,-0.02 0,-0.03 -0.01,0 -0.02,0 -0.02,0 -0.01,0 -0.01,0 -0.02,0l0 0z"/>
      <path class="fil9 str3" d="M0.73 0.75c0.02,-0.03 0.06,-0.04 0.08,-0.02 0.04,0.02 0.04,0.06 0.03,0.09 -0.05,0.08 -0.16,0.01 -0.11,-0.07zm-0.01 -0.01c-0.03,0.04 -0.02,0.09 0.02,0.12 0.03,0.02 0.08,0.01 0.1,-0.03 0.03,-0.03 0.02,-0.09 -0.02,-0.11 -0.03,-0.02 -0.08,-0.01 -0.1,0.02l0 0z"/>
      <path class="fil9" d="M0.56 0.8c-0.03,0.05 0.04,0.09 0.07,0.04 0.01,-0.01 0.01,-0.04 -0.01,-0.05 -0.02,-0.01 -0.04,-0.01 -0.06,0.01l0 0z"/>
     </g>
     <polygon class="fil10 str2" points="0.47,1.36 0.83,1.17 0.66,1.39 1.53,0.68 1.07,0.98 1.27,0.76 "/>
    </g>
   </g>
  </g>
 </g>
</svg>
