<?xml version="1.0" encoding="UTF-8"?>
<!DOCTYPE svg PUBLIC "-//W3C//DTD SVG 1.1//EN" "http://www.w3.org/Graphics/SVG/1.1/DTD/svg11.dtd">
<!-- Creator: CorelDRAW 2021 (64 Bit) -->
<svg xmlns="http://www.w3.org/2000/svg" xml:space="preserve" width="331px" height="331px" version="1.1" style="shape-rendering:geometricPrecision; text-rendering:geometricPrecision; image-rendering:optimizeQuality; fill-rule:evenodd; clip-rule:evenodd"
viewBox="0 0 92.68 92.68"
 xmlns:xlink="http://www.w3.org/1999/xlink"
 xmlns:xodm="http://www.corel.com/coreldraw/odm/2003">
 <defs>
  <style type="text/css">
   <![CDATA[
    .fil3 {fill:black}
    .fil1 {fill:#B8B4B6}
    .fil4 {fill:#DDDDDD}
    .fil2 {fill:#FA0303}
    .fil0 {fill:#FEFEFE}
   ]]>
  </style>
 </defs>
 <g id="Camada_x0020_1">
  <metadata id="CorelCorpID_0Corel-Layer"/>
  <g id="_2079217936864">
   <path class="fil0" d="M53.88 19.18c0.73,-2.55 1.58,-2.16 4.64,-2.14 2.31,0.01 4.68,-0.15 6.62,0.44 1.06,2.79 0.23,10.41 0.46,14.17 0.07,1.26 0.59,1.58 1.21,2.34 0.65,0.79 0.99,1.21 1.64,2 1.05,1.28 2.16,2.7 3.25,4.02 2.18,2.64 4.26,5.37 6.49,8.08 4.31,5.24 -5.05,4.06 -8.46,4.06 -0.77,5.79 0.95,24.33 -0.73,27.72 -2.73,0.72 -31.81,0.34 -37.08,0.34 -9.62,0 -8.24,1.5 -8.44,-10.21 -0.1,-5.58 0.2,-13.03 -0.36,-18.36 -2.66,-0.25 -10.01,1.25 -9.57,-2.29 0.16,-1.31 4.37,-5.4 5.38,-6.61l25.17 -28.89c3.08,-4.1 5.68,1.7 9.78,5.33zm-45.19 64.76l74.75 0 0.63 0 0 -75.3 -0.63 0 -74.88 0 0.13 75.3z"/>
   <path class="fil1" d="M8.56 8.64l0.7 -0.21c2,-0.33 73.68,-0.14 74.93,0.06 0.48,2.38 0.2,74.8 -0.05,75.65 -3.73,0.48 -60.82,-0.03 -73.23,0.09l-1.61 -0.06c-0.67,-0.15 -0.19,0.04 -0.61,-0.23l-0.13 -75.3zm-8.56 0.6l0 33.88c0,6.77 0.28,12.75 0.28,19.32 0,6.44 0,12.88 0,19.32 0,3.95 -0.06,5.73 1.89,7.91 1.63,1.83 3.43,3.01 6.79,3.01l75.32 0c4.65,0 8.4,-3.75 8.4,-8.4l0 -75.88c0,-4.51 -3.63,-8.4 -8.12,-8.4l-76.16 0c-4.92,0 -8.4,3.62 -8.4,9.24z"/>
   <path class="fil0" d="M43.16 66.53l3.32 -0.03 0.84 0 1.72 0 -0.04 6.68 -4.76 0.01 -1.08 -0.06 0 -6.6zm-3.96 -22.4c-4.98,-0.66 -5.88,0.19 -4.31,-5.05 3.32,-11.11 15.81,-9.73 20.02,-5.23 3.69,3.94 4.44,10.53 1.06,15.69 -0.63,0.97 -1.8,1.99 -2.49,2.81 -4.19,4.97 -4.75,4.45 -4.9,11.12 -1.32,0.38 -3.7,0.3 -5.08,0.03 -0.04,-5.22 0.58,-8.51 3.39,-11.57 1.77,-1.93 5.74,-5.22 5.93,-8.85 0.21,-4.04 -2.99,-7.86 -7.15,-7.47 -5.69,0.53 -5.67,7.07 -6.47,8.52zm-19.03 3.41c2.42,0 4.63,-0.3 6.58,0.46 1.15,3.43 0.67,22.44 0.91,27.94 2.29,0.72 32.79,0.19 37.88,0.19l0.03 -21.53c0,-7.62 -0.43,-6.51 7.24,-6.51 -0.79,-1.55 -2.73,-3.46 -3.89,-5.01l-6.1 -7.62c-1,-1.32 -1.29,-1.26 -1.29,-3.53l0.03 -10.73 -3.57 -0.03c-0.01,2.58 0.49,3.48 -1.07,5.11 -2.02,0.26 -2.46,-0.45 -3.34,-1.46l-7.1 -7.19c-0.78,0.48 -2.68,2.86 -3.35,3.67 -2.62,3.23 -9.35,10.15 -11.44,12.91l-9.95 11.33c-0.6,0.79 -0.9,1.18 -1.57,2z"/>
   <path class="fil2" d="M20.17 47.54c0.67,-0.82 0.97,-1.21 1.57,-2l9.95 -11.33c2.09,-2.76 8.82,-9.68 11.44,-12.91 0.67,-0.81 2.57,-3.19 3.35,-3.67l7.1 7.19c0.88,1.01 1.32,1.72 3.34,1.46 1.56,-1.63 1.06,-2.53 1.07,-5.11l3.57 0.03 -0.03 10.73c0,2.27 0.29,2.21 1.29,3.53l6.1 7.62c1.16,1.55 3.1,3.46 3.89,5.01 -7.67,0 -7.24,-1.11 -7.24,6.51l-0.03 21.53c-5.09,0 -35.59,0.53 -37.88,-0.19 -0.24,-5.5 0.24,-24.51 -0.91,-27.94 -1.95,-0.76 -4.16,-0.46 -6.58,-0.46zm33.71 -28.36c-4.1,-3.63 -6.7,-9.43 -9.78,-5.33l-25.17 28.89c-1.01,1.21 -5.22,5.3 -5.38,6.61 -0.44,3.54 6.91,2.04 9.57,2.29 0.56,5.33 0.26,12.78 0.36,18.36 0.2,11.71 -1.18,10.21 8.44,10.21 5.27,0 34.35,0.38 37.08,-0.34 1.68,-3.39 -0.04,-21.93 0.73,-27.72 3.41,0 12.77,1.18 8.46,-4.06 -2.23,-2.71 -4.31,-5.44 -6.49,-8.08 -1.09,-1.32 -2.2,-2.74 -3.25,-4.02 -0.65,-0.79 -0.99,-1.21 -1.64,-2 -0.62,-0.76 -1.14,-1.08 -1.21,-2.34 -0.23,-3.76 0.6,-11.38 -0.46,-14.17 -1.94,-0.59 -4.31,-0.43 -6.62,-0.44 -3.06,-0.02 -3.91,-0.41 -4.64,2.14z"/>
   <path class="fil3" d="M39.2 44.13c0.8,-1.45 0.78,-7.99 6.47,-8.52 4.16,-0.39 7.36,3.43 7.15,7.47 -0.19,3.63 -4.16,6.92 -5.93,8.85 -2.81,3.06 -3.43,6.35 -3.39,11.57 1.38,0.27 3.76,0.35 5.08,-0.03 0.15,-6.67 0.71,-6.15 4.9,-11.12 0.69,-0.82 1.86,-1.84 2.49,-2.81 3.38,-5.16 2.63,-11.75 -1.06,-15.69 -4.21,-4.5 -16.7,-5.88 -20.02,5.23 -1.57,5.24 -0.67,4.39 4.31,5.05z"/>
   <path class="fil4" d="M8.69 83.94c0.42,0.27 -0.06,0.08 0.61,0.23l1.61 0.06c12.41,-0.12 69.5,0.39 73.23,-0.09 0.25,-0.85 0.53,-73.27 0.05,-75.65 -1.25,-0.2 -72.93,-0.39 -74.93,-0.06l-0.7 0.21 74.88 0 0.63 0 0 75.3 -0.63 0 -74.75 0z"/>
   <polygon class="fil3" points="43.16,73.13 44.24,73.19 49,73.18 49.04,66.5 47.32,66.5 46.48,66.5 43.16,66.53 "/>
  </g>
 </g>
</svg>
