<?xml version="1.0" encoding="UTF-8"?>
<!DOCTYPE svg PUBLIC "-//W3C//DTD SVG 1.1//EN" "http://www.w3.org/Graphics/SVG/1.1/DTD/svg11.dtd">
<!-- Creator: CorelDRAW 2021 (64 Bit) -->
<svg xmlns="http://www.w3.org/2000/svg" xml:space="preserve" width="400px" height="400px" version="1.1" style="shape-rendering:geometricPrecision; text-rendering:geometricPrecision; image-rendering:optimizeQuality; fill-rule:evenodd; clip-rule:evenodd"
viewBox="0 0 178.62 178.62"
 xmlns:xlink="http://www.w3.org/1999/xlink"
 xmlns:xodm="http://www.corel.com/coreldraw/odm/2003">
 <defs>
  <style type="text/css">
   <![CDATA[
    .str3 {stroke:#AEA19E;stroke-width:7.14;stroke-miterlimit:22.9256;stroke-opacity:0.949020}
    .str0 {stroke:#C4C4C4;stroke-width:13.4;stroke-miterlimit:22.9256}
    .str2 {stroke:white;stroke-width:0.89;stroke-miterlimit:22.9256}
    .str4 {stroke:black;stroke-width:5.36;stroke-miterlimit:22.9256}
    .str1 {stroke:black;stroke-width:7.14;stroke-miterlimit:22.9256}
    .fil6 {fill:none}
    .fil3 {fill:#E6E7E8}
    .fil2 {fill:#373435}
    .fil1 {fill:red}
    .fil0 {fill:white}
    .fil4 {fill:#333333;fill-rule:nonzero}
    .fil5 {fill:#FEFEFE;fill-rule:nonzero;fill-opacity:0.949020}
   ]]>
  </style>
 </defs>
 <g id="Camada_x0020_1">
  <metadata id="CorelCorpID_0Corel-Layer"/>
  <g id="_2069731377744">
   <circle class="fil0 str0" cx="89.31" cy="89.31" r="82.61"/>
   <g>
    <ellipse class="fil1 str1" cx="88.61" cy="88.85" rx="11.21" ry="11.47"/>
    <path class="fil2" d="M78.62 71.45c0.03,-0.21 0.18,-0.35 0.33,-0.24 0.37,0.26 1.68,0.36 2.29,0.53 3.8,0.88 8.34,-0.5 11.24,-1.03 1.95,-0.36 2.81,-0.68 3.71,-0.73 0.6,-0.04 1.49,0.78 2.38,1.47 -0.77,2.82 -0.36,4.62 1.3,6.28 0.66,0.67 1.46,1.26 2.67,1.55 1.51,0.37 2.14,0.04 3.5,-0.27l1.93 4.89c-5.21,2.16 -3.96,9.47 0.06,10.67l-2.04 4.87c-1.42,-0.31 -2.08,-0.67 -3.7,-0.18 -1.02,0.31 -2.04,0.99 -2.54,1.57 -0.5,0.55 -1.18,1.65 -1.42,2.73 -0.34,1.58 -0.02,2.21 0.28,3.54l-0.54 0.42c-0.34,-0.52 -2.57,-1.26 -3.17,-1.65 -2.07,0.05 -9.83,0.98 -11.06,1.45 -0.6,0.13 -3.22,0.3 -3.45,0.55l-1.75 -0.73c0.72,-2.88 0.39,-4.69 -1.28,-6.36 -0.62,-0.62 -1.46,-1.24 -2.58,-1.53 -1.58,-0.42 -2.26,-0.08 -3.61,0.24l-1.93 -4.81c0.64,-0.62 3.45,-1.58 3.46,-5.4 0.01,-1.37 -0.42,-2.55 -1.06,-3.41 -0.4,-0.53 -0.62,-0.76 -1.08,-1.15 -0.45,-0.37 -0.92,-0.51 -1.35,-0.87l1.96 -4.83c3.72,1.11 6.8,-0.58 7.67,-3.89 0.39,-1.5 0.12,-2.32 -0.22,-3.68zm3.9 -0.36c-1.88,-0.33 -2.57,-0.6 -4.21,-1.92 -0.86,0.37 -1.44,0.62 -1.74,1.48 -0.41,1.19 0.29,1.78 0.31,2.95 0.03,1.86 -1.39,3.35 -2.96,3.62 -1.37,0.23 -1.83,-0.43 -2.86,-0.39 -1.01,0.05 -1.59,0.67 -1.91,1.47 -0.63,1.57 -1.24,3.07 -1.87,4.63 -1.03,2.59 1.73,3.11 2.37,3.85 1.15,1.33 1.21,3.4 0.08,4.86 -0.73,0.95 -3.39,1.31 -2.49,3.82 0.53,1.51 1.25,3.16 1.87,4.63 1.19,2.79 2.96,1.09 4.47,1.18 1.7,0.09 3.11,1.5 3.3,3.15 0.15,1.32 -0.45,1.8 -0.4,2.8 0.05,1.07 0.66,1.61 1.4,1.94 0.55,0.21 1.87,0.16 3.45,-0.15 1.1,-0.19 8.25,-1.65 9.23,-1.88 1.79,-0.69 5.95,0.1 8.65,2.07 2.66,-1.16 1.05,-3.15 1.13,-4.57 0.11,-1.76 1.48,-3.2 3.13,-3.38 1.44,-0.16 3.49,1.5 4.59,-1.04 0.65,-1.5 1.27,-3.09 1.87,-4.64 0.99,-2.58 -1.7,-3.14 -2.31,-3.78 -1.14,-1.22 -1.27,-3.27 -0.24,-4.81 0.79,-1.16 3.41,-1.35 2.63,-3.85l-1.87 -4.63c-1.16,-2.87 -2.93,-1.25 -4.35,-1.26 -1.79,-0.02 -3.19,-1.42 -3.44,-3.05 -0.26,-1.64 1.47,-3.7 -0.93,-4.81 -1.47,-0.68 -0.75,-0.35 -2.25,-0.98 -2.1,0.56 -6.38,1.46 -10.79,2.34 -0.78,0.14 -1.44,0.31 -3.86,0.35z"/>
    <g>
     <rect class="fil3 str2" x="42.58" y="100.84" width="16.17" height="38.07"/>
     <path class="fil4" d="M85.57 141.36c-3.1,0 -6.16,-1.17 -9.14,-2.3 -3.26,-1.24 -6.64,-2.53 -9.99,-2.23l-8.26 0.76 0 -32.79 4.5 -0.41c2.8,-0.25 5.14,0.86 7.4,1.94 2.12,1.01 4.13,1.98 6.44,1.77l14.79 -2.74c5.3,-0.93 8.22,2.2 9.99,5.06l16.16 -7.68c6.09,-2.8 12.94,0.01 17.04,6.98 1.08,1.84 0.48,4.27 -1.33,5.43 -2.1,1.34 -4.18,2.68 -6.25,4 -18.04,11.57 -33.62,21.56 -40.28,22.16 -0.36,0.03 -0.71,0.05 -1.07,0.05zm-18.1 -6.84c3.39,0 6.61,1.23 9.74,2.41 3.22,1.23 6.27,2.39 9.23,2.12 6.14,-0.55 22.25,-10.88 39.31,-21.82 2.06,-1.33 4.15,-2.66 6.24,-4 0.8,-0.51 1.07,-1.56 0.62,-2.34 -3.5,-5.94 -9.22,-8.39 -14.23,-6.09l-17.97 8.55c-0.03,-1.2 -0.92,-2.58 -1.42,-3.19 -1.65,-2.02 -4.87,-3.01 -7.29,-2.57l-14.9 2.76c-2.99,0.25 -5.36,-0.87 -7.66,-1.97 -2.08,-1 -4.06,-1.94 -6.27,-1.73l-2.47 0.22 0 28.24 5.84 -0.53c0.42,-0.04 0.82,-0.06 1.23,-0.06z"/>
     <path class="fil5 str3" d="M56.64 141.36l-12.64 0c-2.08,0 -3.76,-1.73 -3.76,-3.85l0 -34.78c0,-2.12 1.68,-3.85 3.76,-3.85l12.64 0c2.07,0 3.76,1.73 3.76,3.85l0 34.78c0,2.12 -1.69,3.85 -3.76,3.85zm-12.64 -40.21c-0.86,0 -1.55,0.71 -1.55,1.58l0 34.78c0,0.87 0.7,1.58 1.55,1.58l12.64 0c0.85,0 1.54,-0.71 1.54,-1.58l0 -34.78c0,-0.87 -0.69,-1.58 -1.54,-1.58l-12.64 0z"/>
     <path class="fil6 str4" d="M101.28 112.77c0.28,0.53 0.29,1.45 -0.32,2.46 -0.95,1.57 -3.15,2.78 -8.46,2.14 -3.94,-0.47 -8.67,0.47 -12.76,0.92"/>
    </g>
    <g>
     <rect class="fil3 str2" x="117.61" y="39.06" width="16.17" height="38.07"/>
     <path class="fil4" d="M90.78 36.62c3.1,0 6.16,1.17 9.14,2.3 3.27,1.24 6.64,2.53 9.99,2.22l8.26 -0.75 0 32.79 -4.49 0.41c-2.8,0.24 -5.15,-0.86 -7.41,-1.94 -2.12,-1.01 -4.13,-1.98 -6.43,-1.78l-14.8 2.75c-5.3,0.93 -8.22,-2.2 -9.99,-5.07l-16.15 7.69c-6.1,2.8 -12.94,-0.01 -17.05,-6.99 -1.08,-1.83 -0.48,-4.27 1.34,-5.43 2.09,-1.33 4.18,-2.67 6.24,-3.99 18.04,-11.57 33.62,-21.57 40.29,-22.16 0.35,-0.03 0.71,-0.05 1.06,-0.05zm18.1 6.84c-3.39,0 -6.61,-1.23 -9.73,-2.42 -3.23,-1.23 -6.28,-2.38 -9.24,-2.11 -6.14,0.54 -22.25,10.88 -39.3,21.82 -2.07,1.32 -4.16,2.66 -6.25,4 -0.8,0.51 -1.07,1.55 -0.61,2.33 3.5,5.95 9.22,8.39 14.22,6.1l17.97 -8.55c0.04,1.19 0.92,2.58 1.42,3.18 1.65,2.02 4.87,3.01 7.3,2.58l14.89 -2.76c2.99,-0.25 5.36,0.87 7.66,1.96 2.09,1 4.06,1.94 6.27,1.74l2.48 -0.22 0 -28.24 -5.85 0.53c-0.41,0.04 -0.82,0.06 -1.23,0.06z"/>
     <path class="fil5 str3" d="M119.71 36.62l12.65 0c2.07,0 3.75,1.73 3.75,3.85l0 34.78c0,2.12 -1.68,3.84 -3.75,3.84l-12.65 0c-2.07,0 -3.75,-1.72 -3.75,-3.84l0 -34.78c0,-2.12 1.68,-3.85 3.75,-3.85zm12.65 40.21c0.85,0 1.54,-0.71 1.54,-1.58l0 -34.78c0,-0.87 -0.69,-1.58 -1.54,-1.58l-12.65 0c-0.85,0 -1.54,0.71 -1.54,1.58l0 34.78c0,0.87 0.69,1.58 1.54,1.58l12.65 0z"/>
     <path class="fil6 str4" d="M75.07 65.21c-0.27,-0.53 -0.29,-1.46 0.32,-2.47 0.96,-1.56 3.15,-2.78 8.47,-2.14 3.94,0.48 8.66,-0.46 12.75,-0.91"/>
    </g>
   </g>
  </g>
 </g>
</svg>
