<?xml version="1.0" encoding="UTF-8"?>
<!DOCTYPE svg PUBLIC "-//W3C//DTD SVG 1.1//EN" "http://www.w3.org/Graphics/SVG/1.1/DTD/svg11.dtd">
<!-- Creator: CorelDRAW 2021 (64 Bit) -->
<svg xmlns="http://www.w3.org/2000/svg" xml:space="preserve" width="400px" height="400px" version="1.1" style="shape-rendering:geometricPrecision; text-rendering:geometricPrecision; image-rendering:optimizeQuality; fill-rule:evenodd; clip-rule:evenodd"
viewBox="0 0 4.67 4.67"
 xmlns:xlink="http://www.w3.org/1999/xlink"
 xmlns:xodm="http://www.corel.com/coreldraw/odm/2003">
 <defs>
  <style type="text/css">
   <![CDATA[
    .str0 {stroke:#C4C4C4;stroke-width:0.35;stroke-miterlimit:22.9256}
    .str1 {stroke:black;stroke-width:0.09;stroke-miterlimit:22.9256}
    .str2 {stroke:black;stroke-width:0.06;stroke-miterlimit:22.9256}
    .fil9 {fill:none}
    .fil8 {fill:#00FF95}
    .fil5 {fill:#52331D}
    .fil2 {fill:#86B0C0}
    .fil7 {fill:#9F740B}
    .fil6 {fill:#B8E3EA}
    .fil1 {fill:#E2A610}
    .fil3 {fill:#FDD734}
    .fil4 {fill:white}
    .fil0 {fill:white}
   ]]>
  </style>
 </defs>
 <g id="Camada_x0020_1">
  <metadata id="CorelCorpID_0Corel-Layer"/>
  <g id="_2713604331280">
   <circle class="fil0 str0" cx="2.34" cy="2.34" r="2.16"/>
   <g>
    <g>
     <path class="fil1" d="M2.85 2.78l0.01 0c0.01,-0.01 0.02,-0.01 0.04,-0.01 0.02,0 0.04,0 0.05,0.01l0.01 0c0.02,0 0.06,0.03 0.07,0.05 0.04,0.05 0.05,0.13 0.01,0.19 -0.02,0.03 -0.06,0.04 -0.07,0.05l0.12 0.3c0,0.03 -0.02,0.04 -0.04,0.03 -0.05,0 -0.1,0 -0.15,0 -0.05,0 -0.1,0.01 -0.15,0 -0.05,0 -0.03,-0.03 0,-0.1 0.02,-0.06 0.07,-0.18 0.09,-0.23 0,0 -0.09,-0.04 -0.09,-0.15 0,-0.08 0.06,-0.14 0.1,-0.14zm0.85 0.73l0 -1.28c0.01,0.04 -0.02,0.08 -0.04,0.1 -0.05,0.07 -0.19,0.12 -0.27,0.14 -0.27,0.06 -0.67,0.06 -0.94,0 -0.12,-0.03 -0.29,-0.08 -0.31,-0.24 -0.01,0 -0.01,0.01 -0.01,0.02l-0.01 1.2c0,0.06 0,0.06 0.03,0.09 0.06,0.07 0.16,0.11 0.26,0.14 0.22,0.06 0.48,0.07 0.71,0.05 0.16,-0.02 0.44,-0.06 0.56,-0.19 0.01,-0.01 0.01,-0.01 0.01,-0.02 0.01,0 0.01,-0.01 0.01,-0.01z"/>
     <path class="fil2" d="M2.59 1.16c0.08,-0.03 0.08,0.09 0.02,0.15 -0.1,0.09 -0.14,0.39 -0.16,0.43 -0.01,0.03 -0.04,0.03 -0.04,-0.01 -0.01,-0.09 0,-0.24 0.01,-0.32 0.02,-0.05 0.04,-0.11 0.06,-0.15 0.02,-0.03 0.03,-0.04 0.05,-0.06 0.01,-0.02 0.04,-0.04 0.06,-0.04zm-0.23 0.95l0 0.23c0.09,0.07 0.18,0.07 0.27,-0.01l0 -0.28 0.01 -0.44c0,-0.05 0.01,-0.08 0.02,-0.12 0.05,-0.12 0.15,-0.24 0.3,-0.24 0.15,0 0.26,0.12 0.3,0.24 0.01,0.04 0.02,0.07 0.02,0.12 0,0.14 0.01,0.31 0,0.44l0 0.16 0 0.09c0.02,0.01 0.06,0.03 0.08,0.03 0.04,0.01 0.06,0.01 0.1,0 0.02,-0.01 0.04,-0.02 0.06,-0.03l0 -0.09 0 -0.09c0,-0.15 0.01,-0.31 0.01,-0.47 -0.01,-0.12 -0.05,-0.27 -0.09,-0.36 -0.04,-0.07 -0.08,-0.14 -0.14,-0.19 -0.01,-0.01 -0.02,-0.02 -0.03,-0.03 -0.08,-0.07 -0.19,-0.14 -0.32,-0.14 -0.11,-0.01 -0.24,0.04 -0.32,0.1 -0.01,0.01 -0.02,0.02 -0.03,0.02 -0.02,0.03 -0.05,0.06 -0.07,0.09 -0.03,0.03 -0.06,0.08 -0.08,0.13 -0.05,0.11 -0.09,0.23 -0.09,0.37 0,0.16 0.01,0.31 0,0.47z"/>
     <path class="fil3" d="M2.63 2.05l0 0.28c-0.09,0.08 -0.18,0.08 -0.27,0.01l0 -0.23c-0.03,0.01 -0.09,0.03 -0.12,0.04 -0.04,0.02 -0.09,0.04 -0.1,0.08 0.02,0.16 0.19,0.21 0.31,0.24 0.27,0.06 0.67,0.06 0.94,0 0.08,-0.02 0.22,-0.07 0.27,-0.14 0.02,-0.02 0.05,-0.06 0.04,-0.1l0 1.28c0.01,-0.01 0,0 0.01,-0.01 0,0 0,-0.01 0,-0.01l0 -1.23c0,-0.01 0,-0.03 -0.01,-0.03 0,-0.03 -0.05,-0.06 -0.08,-0.07 -0.02,-0.01 -0.07,-0.03 -0.1,-0.04l0 0.09c0.03,0.01 0.05,0.05 0.02,0.08 -0.02,0.02 -0.05,0.03 -0.08,0.04 -0.04,0.01 -0.06,0.01 -0.1,0 -0.02,0 -0.06,-0.02 -0.08,-0.03 -0.02,-0.01 -0.04,-0.06 0,-0.09l0 -0.16c-0.05,0 -0.1,-0.02 -0.16,-0.02 -0.05,-0.01 -0.11,-0.01 -0.16,-0.02 -0.12,0 -0.22,0.02 -0.33,0.04z"/>
     <path class="fil4" d="M2.63 2.05c0.11,-0.02 0.21,-0.04 0.33,-0.04 0.05,0.01 0.11,0.01 0.16,0.02 0.06,0 0.11,0.02 0.16,0.02 0.01,-0.13 0,-0.3 0,-0.44 0,-0.05 -0.01,-0.08 -0.02,-0.12 -0.04,-0.12 -0.15,-0.24 -0.3,-0.24 -0.15,0 -0.25,0.12 -0.3,0.24 -0.01,0.04 -0.02,0.07 -0.02,0.12l-0.01 0.44z"/>
     <path class="fil5" d="M2.86 2.78l-0.01 0c-0.02,0.02 -0.03,0.01 -0.04,0.05 -0.03,0.04 -0.03,0.11 0,0.15 0.01,0.02 0.02,0.03 0.03,0.04l0.01 0.01c-0.01,0.07 -0.04,0.14 -0.06,0.2 -0.01,0.04 -0.03,0.09 -0.01,0.1l0.24 0c0.04,-0.01 0.01,-0.07 0,-0.09 -0.02,-0.07 -0.05,-0.14 -0.07,-0.2 0.07,-0.05 0.09,-0.13 0.05,-0.21 0,-0.01 -0.01,-0.02 -0.02,-0.03 0,0 0,0 -0.01,-0.01l-0.01 -0.01c-0.01,0 -0.01,0 -0.01,0 -0.01,-0.01 -0.03,-0.01 -0.05,-0.01 -0.02,0 -0.03,0 -0.04,0.01z"/>
     <path class="fil6" d="M2.59 1.16c-0.02,0 -0.05,0.02 -0.06,0.04 -0.02,0.02 -0.03,0.03 -0.05,0.06 -0.02,0.04 -0.04,0.1 -0.06,0.15 -0.01,0.08 -0.02,0.23 -0.01,0.32 0,0.04 0.03,0.04 0.04,0.01 0.02,-0.04 0.06,-0.34 0.16,-0.43 0.06,-0.06 0.06,-0.18 -0.02,-0.15z"/>
     <path class="fil7" d="M2.96 2.78l-0.01 0c0,0 0,0 0.01,0l0.01 0.01c0.01,0.01 0.01,0.01 0.01,0.01 0.01,0.01 0.02,0.02 0.02,0.03 0.04,0.08 0.02,0.16 -0.05,0.21 0.02,0.06 0.05,0.13 0.07,0.2 0.01,0.02 0.04,0.08 0,0.09l-0.24 0c-0.02,-0.01 0,-0.06 0.01,-0.1 0.02,-0.06 0.05,-0.13 0.06,-0.2l-0.01 -0.01c-0.01,-0.01 -0.02,-0.02 -0.03,-0.04 -0.03,-0.04 -0.03,-0.11 0,-0.15 0.01,-0.04 0.02,-0.03 0.04,-0.05l0.01 0 -0.01 0c-0.04,0 -0.1,0.06 -0.1,0.14 0,0.11 0.09,0.15 0.09,0.15 -0.02,0.05 -0.07,0.17 -0.09,0.23 -0.03,0.07 -0.05,0.1 0,0.1 0.05,0.01 0.1,0 0.15,0 0.05,0 0.1,0 0.15,0 0.02,0.01 0.04,0 0.04,-0.03l-0.12 -0.3c0.01,-0.01 0.05,-0.02 0.07,-0.05 0.04,-0.06 0.03,-0.14 -0.01,-0.19 -0.01,-0.02 -0.05,-0.05 -0.07,-0.05z"/>
     <path class="fil7" d="M3.46 2.33c0.03,-0.01 0.06,-0.02 0.08,-0.04 0.03,-0.03 0.01,-0.07 -0.02,-0.08l0 0.09c-0.02,0.01 -0.04,0.02 -0.06,0.03z"/>
     <path class="fil7" d="M3.28 2.3l0 -0.09c-0.04,0.03 -0.02,0.08 0,0.09z"/>
    </g>
    <path class="fil8" d="M1.24 1.02c-0.37,0.17 -0.48,0.36 -0.49,0.72 0.01,0.33 0.16,0.52 0.42,0.65l0.09 1.38c0.15,-0.03 0.26,-0.09 0.29,-0.22l0.01 -0.16 0.1 -0.3 -0.13 -0.26 0.16 -0.26 -0.06 -0.26c0.29,-0.19 0.39,-0.47 0.31,-0.84 -0.12,-0.34 -0.35,-0.5 -0.7,-0.45z"/>
    <line class="fil9 str1" x1="1.3" y1="2.32" x2="1.36" y2= "3.68" />
    <line class="fil9 str1" x1="1.47" y1="2.31" x2="1.48" y2= "2.77" />
    <path class="fil8 str2" d="M0.72 1.73c0,0.02 0,0.05 0,0.07 0,0.16 0.09,0.34 0.19,0.46 0.04,0.04 0.08,0.08 0.13,0.1 0.08,0.05 0.1,0.03 0.1,0.08 0.01,0.1 0.01,0.17 0.02,0.27l0.01 0.28c0.01,0.05 0.05,0.79 0.06,0.81 0.04,-0.02 0.06,-0.02 0.1,-0.03 0.11,-0.02 0.23,-0.11 0.26,-0.24 0.03,-0.07 -0.01,-0.14 0.01,-0.22l0.09 -0.24c0,-0.01 0.01,0 0,-0.01 0,-0.01 0,0 0,-0.01 -0.04,-0.06 -0.1,-0.18 -0.13,-0.25 0.05,-0.07 0.14,-0.18 0.15,-0.26 0,-0.03 -0.01,-0.07 -0.02,-0.11 0,-0.04 0,-0.09 -0.01,-0.11 0.1,-0.08 0.14,-0.11 0.22,-0.25 0.05,-0.09 0.08,-0.2 0.09,-0.29 0.01,-0.09 0.01,-0.18 -0.02,-0.27 -0.03,-0.1 -0.06,-0.18 -0.12,-0.27 -0.07,-0.09 -0.15,-0.16 -0.24,-0.21 -0.1,-0.04 -0.17,-0.05 -0.25,-0.05l-0.12 0.02c-0.11,0.03 -0.22,0.09 -0.3,0.18 -0.01,0.01 -0.03,0.04 -0.04,0.05l0.01 0.01c0.02,0.03 0.03,0.04 0.06,0.07 0.08,-0.07 0.1,-0.13 0.21,-0.19 0.07,-0.03 0.15,-0.05 0.22,-0.05 0.05,0 0.17,0.02 0.22,0.06 0.15,0.09 0.27,0.25 0.3,0.45 0.01,0.07 0.02,0.18 0,0.25 -0.05,0.2 -0.17,0.35 -0.33,0.44 -0.01,0.02 0,0.05 0,0.07l0.03 0.19c0,0.03 -0.01,0.04 -0.03,0.07l-0.14 0.22c0.04,0.07 0.08,0.16 0.12,0.23 0.02,0.04 0.02,0.02 -0.01,0.13l-0.06 0.19c-0.01,0.03 -0.01,0.03 0,0.06 0,0.01 0.01,0.11 0,0.12 -0.03,0.09 -0.15,0.15 -0.2,0.15 -0.01,-0.01 0,-0.02 0,-0.04 -0.01,-0.1 -0.01,-0.2 -0.02,-0.31 0,-0.03 0,-0.05 0,-0.08l-0.02 -0.44c0,-0.02 0,-0.06 0,-0.08 0,-0.03 0,-0.06 -0.01,-0.09l-0.01 -0.18c0,-0.05 0,-0.11 0,-0.17 -0.03,-0.01 -0.06,-0.01 -0.09,-0.02 -0.01,0 -0.07,-0.03 -0.08,-0.04 -0.14,-0.07 -0.21,-0.22 -0.24,-0.38 -0.01,-0.02 -0.01,-0.05 -0.01,-0.07 -0.01,-0.02 -0.01,-0.04 -0.01,-0.07 -0.02,0 -0.03,0 -0.04,0 -0.02,0 -0.03,0 -0.05,0z"/>
    <path class="fil8 str2" d="M0.76 1.44c-0.08,0.13 0.1,0.25 0.17,0.11 0.02,-0.05 0.02,-0.12 -0.04,-0.15 -0.04,-0.03 -0.1,-0.02 -0.13,0.04z"/>
    <ellipse class="fil0 str2" cx="1.21" cy="1.39" rx="0.14" ry="0.15"/>
   </g>
  </g>
 </g>
</svg>
