<?xml version="1.0" encoding="UTF-8"?>
<!DOCTYPE svg PUBLIC "-//W3C//DTD SVG 1.1//EN" "http://www.w3.org/Graphics/SVG/1.1/DTD/svg11.dtd">
<!-- Creator: CorelDRAW 2021 (64 Bit) -->
<svg xmlns="http://www.w3.org/2000/svg" xml:space="preserve" width="330px" height="330px" version="1.1" style="shape-rendering:geometricPrecision; text-rendering:geometricPrecision; image-rendering:optimizeQuality; fill-rule:evenodd; clip-rule:evenodd"
viewBox="0 0 166.37 166.37"
 xmlns:xlink="http://www.w3.org/1999/xlink"
 xmlns:xodm="http://www.corel.com/coreldraw/odm/2003">
 <defs>
  <style type="text/css">
   <![CDATA[
    .str1 {stroke:#FC0303;stroke-width:5.04;stroke-miterlimit:22.9256}
    .str0 {stroke:#C4C4C4;stroke-width:15.12;stroke-miterlimit:22.9256}
    .fil1 {fill:red}
    .fil0 {fill:white}
   ]]>
  </style>
 </defs>
 <g id="Camada_x0020_1">
  <metadata id="CorelCorpID_0Corel-Layer"/>
  <g id="_2713737241920">
   <circle class="fil0 str0" cx="83.19" cy="83.19" r="75.62"/>
   <g>
    <path class="fil1 str1" d="M56.87 54.02l52.64 0c4.74,0 8.59,1.97 8.59,4.39l0 0c0,2.42 -3.85,4.39 -8.59,4.39l-52.64 0c-4.75,0 -8.6,-1.97 -8.6,-4.39l0 0c0,-2.42 3.85,-4.39 8.6,-4.39z"/>
    <path class="fil1 str1" d="M56.87 74.41l52.64 0c4.74,0 8.59,1.96 8.59,4.39l0 0c0,2.42 -3.85,4.39 -8.59,4.39l-52.64 0c-4.75,0 -8.6,-1.97 -8.6,-4.39l0 0c0,-2.43 3.85,-4.39 8.6,-4.39z"/>
    <path class="fil1 str1" d="M56.87 94.8l52.64 0c4.74,0 8.59,1.97 8.59,4.39l0 0c0,2.42 -3.85,4.39 -8.59,4.39l-52.64 0c-4.75,0 -8.6,-1.97 -8.6,-4.39l0 0c0,-2.42 3.85,-4.39 8.6,-4.39z"/>
    <path class="fil1 str1" d="M56.87 115.19l52.64 0c4.74,0 8.59,1.96 8.59,4.39l0 0c0,2.42 -3.85,4.39 -8.59,4.39l-52.64 0c-4.75,0 -8.6,-1.97 -8.6,-4.39l0 0c0,-2.43 3.85,-4.39 8.6,-4.39z"/>
   </g>
  </g>
 </g>
</svg>
