<?xml version="1.0" encoding="UTF-8"?>
<!DOCTYPE svg PUBLIC "-//W3C//DTD SVG 1.1//EN" "http://www.w3.org/Graphics/SVG/1.1/DTD/svg11.dtd">
<!-- Creator: CorelDRAW 2021 (64 Bit) -->
<svg xmlns="http://www.w3.org/2000/svg" xml:space="preserve" width="331px" height="330px" version="1.1" style="shape-rendering:geometricPrecision; text-rendering:geometricPrecision; image-rendering:optimizeQuality; fill-rule:evenodd; clip-rule:evenodd"
viewBox="0 0 4.03 4.02"
 xmlns:xlink="http://www.w3.org/1999/xlink"
 xmlns:xodm="http://www.corel.com/coreldraw/odm/2003">
 <defs>
  <style type="text/css">
   <![CDATA[
    .fil3 {fill:black}
    .fil5 {fill:#00F945}
    .fil2 {fill:#282829}
    .fil6 {fill:#868686}
    .fil1 {fill:#B8B4B6}
    .fil4 {fill:#FD0000}
    .fil0 {fill:#FEFEFE}
   ]]>
  </style>
 </defs>
 <g id="Camada_x0020_1">
  <metadata id="CorelCorpID_0Corel-Layer"/>
  <g id="_2400492036336">
   <path class="fil0" d="M2.99 3.23c0.13,0 0.19,0.01 0.21,-0.13 0.01,-0.09 0,-0.23 0,-0.33 0,-0.23 0,-0.45 0,-0.68l0.32 0 0 0.59c0,0.3 0.05,0.66 -0.24,0.81 -0.13,0.07 -0.32,0.05 -0.48,0.05l-0.94 0c-0.17,0 -0.36,0.02 -0.49,-0.07 -0.1,-0.07 -0.2,-0.18 -0.2,-0.36l0 -0.46 0.3 0.01 0 0.25c0,0.18 -0.02,0.32 0.16,0.32l1.36 0zm-0.17 -0.38c0.14,-0.06 0.2,0.14 0.08,0.2 -0.06,0.03 -0.12,-0.01 -0.14,-0.06 -0.04,-0.08 0.01,-0.12 0.06,-0.14zm-1.04 0c0.14,-0.05 0.19,0.15 0.07,0.2 -0.06,0.03 -0.12,-0.02 -0.14,-0.06 -0.01,-0.03 -0.01,-0.06 0.01,-0.09 0.02,-0.04 0.03,-0.04 0.06,-0.05zm0.52 0c0.13,-0.05 0.2,0.15 0.08,0.2 -0.13,0.05 -0.22,-0.15 -0.08,-0.2zm0.79 -0.64l0.02 0.01 0 0.02c0.02,0.05 0.01,0.01 0,0.03 -0.01,-0.02 -0.02,-0.02 -0.03,-0.04 -0.3,-0.36 -0.51,-0.75 -1,-0.86 -0.16,-0.04 -0.39,-0.07 -0.56,-0.07l-0.07 0.3c-0.07,-0.04 -0.66,-0.43 -0.77,-0.5l-0.25 -0.18 1.26 -0.45c0.01,-0.02 -0.03,-0.01 0.03,-0.02l-0.02 0.02 -0.05 0.28c0.45,0.07 0.88,0.26 1.07,0.56 0.11,0.17 0.35,0.75 0.37,0.9zm-2.72 1.44c0.08,0.02 3.13,0.01 3.29,0.01l0 -3.3 -3.29 0.01 0 3.28z"/>
   <path class="fil1" d="M0.37 0.37l3.29 -0.01 0 3.3c-0.16,0 -3.21,0.01 -3.29,-0.01l0 -3.28zm-0.37 -0.03l0 3.28c0,0.21 0.13,0.4 0.34,0.4l3.35 0c0.12,0 0.19,-0.05 0.25,-0.12 0.06,-0.06 0.09,-0.16 0.09,-0.28l0 -3.22c0,-0.21 -0.13,-0.4 -0.31,-0.4l-3.4 0c-0.14,0 -0.32,0.15 -0.32,0.34z"/>
   <path class="fil2" d="M1.61 0.9c0.22,-0.01 0.76,0.22 0.95,0.45 0.09,0.12 0.07,0.14 0.07,0.13 -0.01,0 -0.01,0 -0.01,0.01 0,-0.01 -0.01,-0.01 -0.01,-0.01 -0.37,-0.3 -0.64,-0.25 -1.05,-0.33l0.05 -0.25zm-0.84 0.06c0.04,-0.03 0.63,-0.25 0.73,-0.28 0,0.04 -0.14,0.66 -0.16,0.69l-0.44 -0.3c-0.04,-0.04 -0.08,-0.07 -0.13,-0.11zm2.31 1.27c0.02,-0.01 0.02,0.01 0.01,-0.02 -0.02,-0.15 -0.26,-0.73 -0.37,-0.9 -0.19,-0.3 -0.62,-0.49 -1.07,-0.56l0.05 -0.28c-0.01,-0.01 0.01,-0.02 -0.01,0l-1.26 0.45 0.25 0.18c0.11,0.07 0.7,0.46 0.77,0.5l0.07 -0.3c0.17,0 0.4,0.03 0.56,0.07 0.49,0.11 0.7,0.5 1,0.86zm0.03 0.01l0 -0.02c-0.02,0.03 -0.01,0.01 0,0.02z"/>
   <path class="fil3" d="M2.8 3.41l-0.95 0c-0.33,0 -0.56,0.04 -0.56,-0.4l0 -0.23 0.05 0c0.05,0.11 -0.12,0.57 0.3,0.57l1.37 0c0.3,0 0.32,-0.14 0.32,-0.41l0 -0.72 0.07 0c0,0.27 0.01,0.64 -0.01,0.9 -0.04,0.36 -0.38,0.29 -0.59,0.29zm0.19 -0.18l-1.36 0c-0.18,0 -0.16,-0.14 -0.16,-0.32l0 -0.25 -0.3 -0.01 0 0.46c0,0.18 0.1,0.29 0.2,0.36 0.13,0.09 0.32,0.07 0.49,0.07l0.94 0c0.16,0 0.35,0.02 0.48,-0.05 0.29,-0.15 0.24,-0.51 0.24,-0.81l0 -0.59 -0.32 0c0,0.23 0,0.45 0,0.68 0,0.1 0.01,0.24 0,0.33 -0.02,0.14 -0.08,0.13 -0.21,0.13z"/>
   <path class="fil4" d="M0.77 0.96c0.05,0.04 0.09,0.07 0.13,0.11l0.44 0.3c0.02,-0.03 0.16,-0.65 0.16,-0.69 -0.1,0.03 -0.69,0.25 -0.73,0.28z"/>
   <path class="fil5" d="M2.8 3.41c0.21,0 0.55,0.07 0.59,-0.29 0.02,-0.26 0.01,-0.63 0.01,-0.9l-0.07 0 0 0.72c0,0.27 -0.02,0.41 -0.32,0.41l-1.37 0c-0.42,0 -0.25,-0.46 -0.3,-0.57l-0.05 0 0 0.23c0,0.44 0.23,0.4 0.56,0.4l0.95 0z"/>
   <path class="fil4" d="M1.56 1.15c0.41,0.08 0.68,0.03 1.05,0.33 0,0 0.01,0 0.01,0.01 0,-0.01 0,-0.01 0.01,-0.01 0,0.01 0.02,-0.01 -0.07,-0.13 -0.19,-0.23 -0.73,-0.46 -0.95,-0.45l-0.05 0.25z"/>
   <path class="fil3" d="M2.3 2.85c-0.14,0.05 -0.05,0.25 0.08,0.2 0.12,-0.05 0.05,-0.25 -0.08,-0.2z"/>
   <path class="fil3" d="M2.82 2.85c-0.05,0.02 -0.1,0.06 -0.06,0.14 0.02,0.05 0.08,0.09 0.14,0.06 0.12,-0.06 0.06,-0.26 -0.08,-0.2z"/>
   <path class="fil3" d="M1.78 2.85c-0.03,0.01 -0.04,0.01 -0.06,0.05 -0.02,0.03 -0.02,0.06 -0.01,0.09 0.02,0.04 0.08,0.09 0.14,0.06 0.12,-0.05 0.07,-0.25 -0.07,-0.2z"/>
   <path class="fil6" d="M3.08 2.23c0.01,0.02 0.02,0.02 0.03,0.04 0.01,-0.02 0.02,0.02 0,-0.03 -0.01,-0.01 -0.02,0.01 0,-0.02l-0.02 -0.01c0.01,0.03 0.01,0.01 -0.01,0.02z"/>
   <path class="fil6" d="M1.7 0.47l0.02 -0.02c-0.06,0.01 -0.02,0 -0.03,0.02 0.02,-0.02 0,-0.01 0.01,0z"/>
  </g>
 </g>
</svg>
