<?xml version="1.0" encoding="UTF-8"?>
<!DOCTYPE svg PUBLIC "-//W3C//DTD SVG 1.1//EN" "http://www.w3.org/Graphics/SVG/1.1/DTD/svg11.dtd">
<!-- Creator: CorelDRAW 2021 (64 Bit) -->
<svg xmlns="http://www.w3.org/2000/svg" xml:space="preserve" width="330px" height="330px" version="1.1" style="shape-rendering:geometricPrecision; text-rendering:geometricPrecision; image-rendering:optimizeQuality; fill-rule:evenodd; clip-rule:evenodd"
viewBox="0 0 26.59 26.59"
 xmlns:xlink="http://www.w3.org/1999/xlink"
 xmlns:xodm="http://www.corel.com/coreldraw/odm/2003">
 <defs>
  <style type="text/css">
   <![CDATA[
    .str0 {stroke:#B8B4B6;stroke-width:2.42;stroke-miterlimit:22.9256}
    .str1 {stroke:black;stroke-width:2.82;stroke-miterlimit:22.9256}
    .str2 {stroke:#F7FF00;stroke-width:2.82;stroke-miterlimit:22.9256}
    .fil1 {fill:none}
    .fil0 {fill:white}
    .fil3 {fill:#ED3237;fill-rule:nonzero}
    .fil2 {fill:black;fill-rule:nonzero}
   ]]>
  </style>
 </defs>
 <g id="Camada_x0020_1">
  <metadata id="CorelCorpID_0Corel-Layer"/>
  <g id="_2713568304288">
   <path class="fil0 str0" d="M2.29 1.21l22.03 0c0.58,0 1.06,0.54 1.06,1.21l0 21.75c0,0.67 -0.48,1.21 -1.06,1.21l-22.03 0c-0.58,0 -1.06,-0.54 -1.06,-1.21 0,-2.61 -0.03,-21.07 -0.02,-22.01 0.01,-0.53 0.65,-0.95 1.08,-0.95z"/>
   <g>
    <circle class="fil1 str1" cx="13.29" cy="13.29" r="8.06"/>
    <circle class="fil1 str2" cx="13.29" cy="13.29" r="7.32"/>
    <polygon class="fil2" points="9.12,18.54 9.12,7.93 10.53,7.93 10.53,12.3 16.02,12.3 16.02,7.93 17.42,7.93 17.42,18.54 16.02,18.54 16.02,13.55 10.53,13.55 10.53,18.54 "/>
    <path class="fil3" d="M13.89 15.35l-1.57 0c0,-0.22 0,-0.36 0,-0.41 0,-0.5 0.08,-0.92 0.25,-1.24 0.17,-0.33 0.5,-0.69 1,-1.1 0.5,-0.41 0.8,-0.68 0.9,-0.8 0.15,-0.2 0.23,-0.42 0.23,-0.66 0,-0.33 -0.14,-0.62 -0.4,-0.85 -0.27,-0.24 -0.63,-0.36 -1.09,-0.36 -0.43,0 -0.8,0.13 -1.09,0.37 -0.3,0.25 -0.5,0.63 -0.61,1.14l-1.57 -0.2c0.04,-0.73 0.35,-1.35 0.93,-1.86 0.58,-0.51 1.34,-0.76 2.27,-0.76 0.99,0 1.77,0.26 2.36,0.77 0.58,0.52 0.87,1.11 0.87,1.8 0,0.37 -0.11,0.73 -0.32,1.07 -0.21,0.34 -0.67,0.8 -1.37,1.38 -0.36,0.3 -0.59,0.55 -0.68,0.73 -0.08,0.18 -0.12,0.51 -0.11,0.98zm-1.57 2.3l0 -1.71 1.57 0 0 1.71 -1.57 0z"/>
   </g>
  </g>
 </g>
</svg>
