<?xml version="1.0" encoding="UTF-8"?>
<!DOCTYPE svg PUBLIC "-//W3C//DTD SVG 1.1//EN" "http://www.w3.org/Graphics/SVG/1.1/DTD/svg11.dtd">
<!-- Creator: CorelDRAW 2021 (64 Bit) -->
<svg xmlns="http://www.w3.org/2000/svg" xml:space="preserve" width="400px" height="400px" version="1.1" style="shape-rendering:geometricPrecision; text-rendering:geometricPrecision; image-rendering:optimizeQuality; fill-rule:evenodd; clip-rule:evenodd"
viewBox="0 0 4.67 4.67"
 xmlns:xlink="http://www.w3.org/1999/xlink"
 xmlns:xodm="http://www.corel.com/coreldraw/odm/2003">
 <defs>
  <style type="text/css">
   <![CDATA[
    .str0 {stroke:#C4C4C4;stroke-width:0.35;stroke-miterlimit:22.9256}
    .str1 {stroke:black;stroke-width:0.02;stroke-miterlimit:22.9256}
    .str2 {stroke:black;stroke-width:0.01;stroke-miterlimit:22.9256}
    .str3 {stroke:red;stroke-width:0.01;stroke-miterlimit:22.9256}
    .fil5 {fill:none}
    .fil7 {fill:black}
    .fil4 {fill:#CCCCCC}
    .fil1 {fill:#E6E6E6}
    .fil2 {fill:red}
    .fil3 {fill:#FFFF99}
    .fil6 {fill:white}
    .fil0 {fill:white}
   ]]>
  </style>
 </defs>
 <g id="Camada_x0020_1">
  <metadata id="CorelCorpID_0Corel-Layer"/>
  <g id="_2069385450080">
   <circle class="fil0 str0" cx="2.34" cy="2.34" r="2.16"/>
   <g>
    <polygon class="fil1 str1" points="4.05,2.17 3.7,2.17 3.78,2.11 3.98,2.11 "/>
    <rect class="fil2 str1" x="2.3" y="2.17" width="1.81" height="0.79"/>
    <g>
     <g>
      <rect class="fil3 str1" x="1.18" y="2.84" width="1.81" height="0.66"/>
      <polygon class="fil4 str1" points="2.63,2.84 2.27,2.84 2.36,2.81 2.55,2.81 "/>
     </g>
     <g>
      <polygon class="fil4 str1" points="2.3,2.91 1.95,2.91 2.03,2.88 2.22,2.88 "/>
      <rect class="fil3 str1" x="1.11" y="2.91" width="1.81" height="0.66"/>
     </g>
     <g>
      <rect class="fil3 str1" x="1.04" y="2.99" width="1.81" height="0.67"/>
      <polygon class="fil5 str1" points="1.87,2.98 1.52,2.98 1.6,2.96 1.8,2.96 "/>
      <polygon class="fil4 str1" points="1.87,2.98 1.52,2.98 1.6,2.96 1.8,2.96 "/>
     </g>
     <g>
      <rect class="fil3 str1" x="0.97" y="3.06" width="1.81" height="0.66"/>
      <polygon class="fil4 str1" points="1.43,3.06 1.08,3.06 1.17,3.03 1.36,3.03 "/>
     </g>
    </g>
    <g>
     <path class="fil6" d="M2.48 1.24c0.03,0 0.05,-0.01 0.06,-0.02 0.01,0 0.02,-0.01 0.02,-0.02 0.01,0 0.02,-0.01 0.03,-0.01 0,0.01 0.02,0.02 0.02,0.02 0,0.02 -0.03,0.04 -0.05,0.05 -0.05,0.03 -0.11,0.03 -0.17,0.01 -0.01,-0.01 -0.05,-0.03 -0.05,-0.05 0,-0.01 0.02,-0.02 0.03,-0.03 0.03,0.04 0.07,0.05 0.11,0.05zm0.1 -0.27c0.07,-0.02 0.08,0.08 0.02,0.09 -0.03,0.01 -0.05,-0.01 -0.06,-0.04 0,-0.03 0.01,-0.05 0.04,-0.05zm-0.25 0c0.02,-0.01 0.05,0.01 0.05,0.03 0.01,0.03 -0.01,0.05 -0.03,0.06 -0.07,0.01 -0.09,-0.08 -0.02,-0.09zm0.46 0.04c0.01,-0.05 0.02,-0.1 0,-0.13 -0.01,-0.01 -0.03,-0.03 -0.04,-0.04 -0.04,-0.02 -0.05,-0.01 -0.08,0.01 -0.05,0.05 -0.13,0.08 -0.2,0.08 -0.1,0 -0.16,-0.05 -0.22,-0.09 -0.02,-0.02 -0.03,-0.01 -0.06,0 -0.02,0.01 -0.03,0.01 -0.03,0.04 -0.01,0.01 -0.02,0.05 -0.02,0.06 0.01,0.03 0.01,0.05 0.01,0.07l-0.05 0.01c-0.01,0.03 0.01,0.07 0.01,0.1 0.01,0.02 0.01,0.03 0.02,0.04 0.02,0.01 0.04,0.01 0.06,0.01 0.01,0.03 0.02,0.06 0.04,0.08 0.01,0.02 0.04,0.06 0.06,0.07 0.02,0.02 0.04,0.03 0.08,0.05 0.03,0.01 0.07,0.01 0.11,0.01 0.08,0 0.13,-0.03 0.18,-0.06 0.02,-0.02 0.05,-0.05 0.06,-0.07 0.03,-0.04 0.03,-0.04 0.04,-0.08 0.03,0 0.05,0 0.07,-0.02 0.01,-0.02 0.01,-0.04 0.01,-0.06 0.01,-0.02 0.02,-0.05 0.01,-0.06 -0.02,-0.01 -0.05,-0.01 -0.06,-0.02z"/>
     <path class="fil6" d="M3.07 1.33c-0.09,0.02 -0.06,0.16 0.03,0.14 0.04,-0.01 0.07,-0.04 0.06,-0.08 -0.01,-0.04 -0.04,-0.07 -0.09,-0.06z"/>
     <path class="fil7" d="M2.48 1.24c-0.04,0 -0.08,-0.01 -0.11,-0.05 -0.01,0.01 -0.03,0.02 -0.03,0.03 0,0.02 0.04,0.04 0.05,0.05 0.06,0.02 0.12,0.02 0.17,-0.01 0.02,-0.01 0.05,-0.03 0.05,-0.05 0,0 -0.02,-0.01 -0.02,-0.02 -0.01,0 -0.02,0.01 -0.03,0.01 0,0.01 -0.01,0.02 -0.02,0.02 -0.01,0.01 -0.03,0.02 -0.06,0.02z"/>
     <polygon class="fil7" points="1.99,2.04 2.04,2.04 2.04,1.85 1.99,1.85 "/>
     <polygon class="fil7" points="2.95,2.03 2.98,2.03 2.99,2.03 2.99,1.86 2.98,1.86 2.95,1.86 "/>
     <path class="fil7" d="M2.58 0.97c-0.03,0 -0.04,0.02 -0.04,0.05 0.01,0.03 0.03,0.05 0.06,0.04 0.06,-0.01 0.05,-0.11 -0.02,-0.09z"/>
     <path class="fil7" d="M2.33 0.97c-0.07,0.01 -0.05,0.1 0.02,0.09 0.02,-0.01 0.04,-0.03 0.03,-0.06 0,-0.02 -0.03,-0.04 -0.05,-0.03z"/>
     <path class="fil7 str2" d="M2.79 1.01c0.01,0.01 0.04,0.01 0.06,0.02 0.01,0.01 0,0.04 -0.01,0.06 0,0.02 0,0.04 -0.01,0.06 -0.02,0.02 -0.04,0.02 -0.07,0.02 -0.01,0.04 -0.01,0.04 -0.04,0.08 -0.01,0.02 -0.04,0.05 -0.06,0.07 -0.05,0.03 -0.1,0.06 -0.18,0.06 -0.04,0 -0.08,0 -0.11,-0.01 -0.04,-0.02 -0.06,-0.03 -0.08,-0.05 -0.02,-0.01 -0.05,-0.05 -0.06,-0.07 -0.02,-0.02 -0.03,-0.05 -0.04,-0.08 -0.02,0 -0.04,0 -0.06,-0.01 -0.01,-0.01 -0.01,-0.02 -0.02,-0.04 0,-0.03 -0.02,-0.07 -0.01,-0.1l0.05 -0.01c0,-0.02 0,-0.04 -0.01,-0.07 0,-0.01 0.01,-0.05 0.02,-0.06 0,-0.03 0.01,-0.03 0.03,-0.04 0.03,-0.01 0.04,-0.02 0.06,0 0.06,0.04 0.12,0.09 0.22,0.09 0.07,0 0.15,-0.03 0.2,-0.08 0.03,-0.02 0.04,-0.03 0.08,-0.01 0.01,0.01 0.03,0.03 0.04,0.04 0.02,0.03 0.01,0.08 0,0.13zm-0.47 -0.5c-0.07,0.03 -0.12,0.09 -0.16,0.14 -0.03,0.04 -0.05,0.07 -0.06,0.13 -0.01,0.03 -0.01,0.07 -0.01,0.1 0,0.04 0.01,0.06 0.01,0.09 -0.02,0.01 -0.04,0.02 -0.04,0.04 -0.01,0.03 -0.01,0.05 0,0.08 0.03,0.16 0.08,0.09 0.11,0.14 0.01,0.03 0.01,0.03 0.03,0.06l0.04 0.05c0.01,0.01 0.03,0.02 0.05,0.03 0,0.02 0,0.1 0,0.11 -0.01,0.02 -0.01,0.02 -0.02,0.02 -0.07,0.01 -0.19,0.03 -0.26,0.05 -0.05,0 -0.08,0.01 -0.12,0.03 -0.02,0.01 -0.03,0.01 -0.05,0.02 -0.04,0.03 -0.08,0.09 -0.09,0.14 -0.01,0.03 0,0.11 0,0.15 0,0.05 -0.01,0.1 0,0.15 0.03,0 0.04,0 0.04,-0.02l0 -0.18c0,-0.07 0,-0.14 0.06,-0.19 0.03,-0.02 0.04,-0.03 0.08,-0.04 0.06,-0.02 0.14,-0.03 0.2,-0.04 0.04,-0.01 0.07,-0.02 0.11,-0.02 0,0.04 0.01,0.06 0.02,0.09 0.03,0.05 0.08,0.08 0.13,0.1 0.02,0.01 0.06,0.02 0.09,0.02 0.1,0 0.24,-0.09 0.24,-0.21l0.27 0.05c0.09,0.01 0.17,0.07 0.18,0.17 0,0.09 0,0.18 0,0.27l0.05 0 0 -0.27c-0.02,-0.11 -0.08,-0.19 -0.24,-0.22 -0.09,-0.02 -0.18,-0.03 -0.27,-0.05 -0.03,0 -0.04,0 -0.04,-0.04 0,-0.03 0,-0.07 0,-0.1 0.02,-0.01 0.04,-0.02 0.05,-0.04 0.02,-0.02 0.07,-0.07 0.07,-0.11 0.08,0 0.08,-0.06 0.1,-0.1 0,-0.02 0.01,-0.03 0.01,-0.04 0,-0.01 0,-0.03 0,-0.04 -0.01,-0.03 -0.03,-0.04 -0.06,-0.05 0.01,-0.1 0.02,-0.14 -0.01,-0.23 -0.02,-0.07 -0.04,-0.1 -0.08,-0.14 -0.02,-0.02 -0.02,-0.02 -0.04,-0.03 -0.01,-0.02 -0.04,-0.03 -0.05,-0.04 -0.07,-0.05 -0.13,-0.05 -0.21,-0.05 -0.03,0 -0.08,0 -0.13,0.02zm-0.12 0.16c0.04,-0.04 0.08,-0.08 0.16,-0.12 0.02,-0.01 0.03,-0.02 0.07,-0.02 0.06,0 0.12,0.01 0.17,0.03 0.04,0.01 0.06,0.03 0.08,0.05 0.04,0.03 0.04,0.03 0.07,0.08 0.02,0.02 0.06,0.1 0.05,0.14 -0.01,-0.02 -0.05,-0.04 -0.07,-0.05 -0.02,0 -0.03,0 -0.05,0.01 -0.01,0.01 -0.02,0.01 -0.03,0.02 -0.12,0.09 -0.21,0.11 -0.34,0.01 -0.01,-0.01 -0.02,-0.02 -0.04,-0.03 -0.01,-0.01 -0.02,-0.01 -0.04,-0.01 -0.05,0 -0.07,0.03 -0.09,0.03 0,-0.06 0.05,-0.11 0.06,-0.14zm0.27 1.04c0.01,0 0.02,0 0.03,0 0.01,0 0.02,0 0.03,0 0.08,-0.02 0.15,-0.09 0.15,-0.17 -0.04,-0.01 -0.05,-0.03 -0.05,-0.06l0 -0.09 0 0c0,0 -0.01,0 -0.01,0.01 -0.04,0.01 -0.09,0.03 -0.14,0.03 -0.04,0 -0.08,0 -0.12,-0.02 -0.01,0 -0.02,-0.01 -0.03,-0.01 0,0.03 0,0.07 0,0.1 0,0.02 -0.03,0.04 -0.05,0.04 0,0.09 0.08,0.16 0.15,0.17 0.02,0 0.04,0 0.04,0z"/>
    </g>
    <path class="fil2 str3" d="M1.79 1.79l0 0.25 0.2 0 0 -0.19 0.04 0 0.01 0.19 0.9 -0.01 0 -0.17 0.05 0 0 0.17 0.18 0 0 -0.26c-0.01,-0.09 -0.07,-0.14 -0.17,-0.17l-0.28 -0.05c-0.02,0.12 -0.1,0.19 -0.24,0.21 -0.13,-0.01 -0.22,-0.07 -0.24,-0.21l-0.28 0.05c-0.11,0.03 -0.17,0.09 -0.17,0.19z"/>
   </g>
  </g>
 </g>
</svg>
