<?xml version="1.0" encoding="UTF-8"?>
<!DOCTYPE svg PUBLIC "-//W3C//DTD SVG 1.1//EN" "http://www.w3.org/Graphics/SVG/1.1/DTD/svg11.dtd">
<!-- Creator: CorelDRAW 2021 (64 Bit) -->
<svg xmlns="http://www.w3.org/2000/svg" xml:space="preserve" width="400px" height="400px" version="1.1" style="shape-rendering:geometricPrecision; text-rendering:geometricPrecision; image-rendering:optimizeQuality; fill-rule:evenodd; clip-rule:evenodd"
viewBox="0 0 2.26 2.26"
 xmlns:xlink="http://www.w3.org/1999/xlink"
 xmlns:xodm="http://www.corel.com/coreldraw/odm/2003">
 <defs>
  <style type="text/css">
   <![CDATA[
    .str0 {stroke:#C4C4C4;stroke-width:0.17;stroke-miterlimit:22.9256}
    .str2 {stroke:black;stroke-width:0.01;stroke-miterlimit:22.9256}
    .str1 {stroke:black;stroke-width:0.03;stroke-miterlimit:22.9256}
    .str3 {stroke:black;stroke-width:0.02;stroke-miterlimit:22.9256}
    .fil3 {fill:#00CCFF}
    .fil4 {fill:lime}
    .fil1 {fill:#B3B3B3}
    .fil2 {fill:#E0DDDD}
    .fil6 {fill:fuchsia}
    .fil7 {fill:#FFCC00}
    .fil5 {fill:yellow}
    .fil0 {fill:white}
   ]]>
  </style>
 </defs>
 <g id="Camada_x0020_1">
  <metadata id="CorelCorpID_0Corel-Layer"/>
  <g id="_2069900618144">
   <circle class="fil0 str0" cx="1.13" cy="1.13" r="1.04"/>
   <g>
    <polygon class="fil1 str1" points="0.75,0.75 0.63,0.86 0.63,0.7 0.75,0.59 "/>
    <polygon class="fil2 str2" points="1.14,0.39 0.26,1.2 1.14,2.02 2.02,1.21 "/>
    <polygon class="fil3 str1" points="0.63,0.86 0.92,1.13 0.92,0.97 0.63,0.7 "/>
    <polygon class="fil3 str1" points="0.26,1.05 0.26,1.2 0.63,0.86 0.63,0.7 "/>
    <polygon class="fil3 str1" points="0.26,1.05 0.26,1.2 0.55,1.47 0.55,1.31 "/>
    <polygon class="fil3 str1" points="0.55,1.31 0.55,1.47 0.83,1.2 0.83,1.08 0.87,1.05 0.87,1.17 0.92,1.13 0.92,0.97 "/>
    <polygon class="fil4 str1" points="1.14,0.39 1.43,0.65 1.43,0.5 1.14,0.23 "/>
    <polygon class="fil4 str1" points="0.75,0.59 0.75,0.75 1.14,0.39 1.14,0.23 "/>
    <polygon class="fil4 str1" points="0.75,0.59 0.75,0.75 1.04,1.02 1.04,0.86 "/>
    <polygon class="fil4 str1" points="1.04,0.86 1.04,1.02 1.34,0.73 1.34,0.6 1.38,0.57 1.38,0.69 1.43,0.65 1.43,0.5 "/>
    <polygon class="fil5 str1" points="1.49,1.17 1.36,1.29 1.36,1.17 1.33,1.2 1.33,1.32 1.23,1.41 1.23,1.25 1.49,1.01 "/>
    <polygon class="fil6 str1" points="1.23,1.41 1.51,1.68 1.51,1.52 1.23,1.25 "/>
    <polygon class="fil6 str1" points="0.86,1.6 0.86,1.75 1.09,1.53 1.09,1.41 1.14,1.37 1.14,1.49 1.23,1.41 1.23,1.25 "/>
    <polygon class="fil6 str1" points="0.86,1.6 0.86,1.75 1.14,2.02 1.14,1.86 "/>
    <polygon class="fil6 str1" points="1.14,1.86 1.14,2.02 1.51,1.68 1.51,1.52 "/>
    <polygon class="fil1 str1" points="0.86,1.75 0.75,1.66 0.75,1.54 0.65,1.45 0.65,1.56 0.55,1.47 0.55,1.31 0.86,1.6 "/>
    <polygon class="fil1 str2" points="1.74,0.94 1.43,0.65 1.43,0.5 1.74,0.78 "/>
    <polygon class="fil7 str1" points="1.74,0.78 1.74,0.94 2.02,1.21 2.02,1.05 "/>
    <polygon class="fil7 str1" points="1.49,1.01 1.49,1.17 1.67,1 1.67,0.88 1.7,0.85 1.7,0.97 1.74,0.94 1.74,0.78 "/>
    <polygon class="fil5 str1" points="1.49,1.01 1.49,1.17 1.77,1.43 1.77,1.28 "/>
    <polygon class="fil7 str1" points="1.77,1.28 1.77,1.43 2.02,1.21 2.02,1.05 "/>
    <polygon class="fil5 str3" points="1.51,1.68 1.77,1.43 1.77,1.28 1.51,1.52 "/>
   </g>
  </g>
 </g>
</svg>
