<?xml version="1.0" encoding="UTF-8"?>
<!DOCTYPE svg PUBLIC "-//W3C//DTD SVG 1.1//EN" "http://www.w3.org/Graphics/SVG/1.1/DTD/svg11.dtd">
<!-- Creator: CorelDRAW 2021 (64 Bit) -->
<svg xmlns="http://www.w3.org/2000/svg" xml:space="preserve" width="400px" height="400px" version="1.1" style="shape-rendering:geometricPrecision; text-rendering:geometricPrecision; image-rendering:optimizeQuality; fill-rule:evenodd; clip-rule:evenodd"
viewBox="0 0 2.26 2.26"
 xmlns:xlink="http://www.w3.org/1999/xlink"
 xmlns:xodm="http://www.corel.com/coreldraw/odm/2003">
 <defs>
  <style type="text/css">
   <![CDATA[
    .str0 {stroke:#C4C4C4;stroke-width:0.17;stroke-miterlimit:22.9256}
    .fil1 {fill:black}
    .fil0 {fill:white}
   ]]>
  </style>
 </defs>
 <g id="Camada_x0020_1">
  <metadata id="CorelCorpID_0Corel-Layer"/>
  <g id="_2069577453520">
   <circle class="fil0 str0" cx="1.13" cy="1.13" r="1.04"/>
   <path class="fil1" d="M1.74 1.46l0.01 -0.01c0.02,-0.01 0.02,-0.02 0.02,-0.04 0.01,-0.01 0.03,-0.03 0.03,-0.05 0,-0.02 -0.01,-0.06 -0.02,-0.07 0.01,-0.01 0.02,-0.01 0.03,-0.02 0.03,-0.02 0.06,-0.04 0.05,-0.08 0,-0.04 -0.04,-0.11 -0.05,-0.14 -0.02,-0.04 -0.04,-0.08 -0.07,-0.12 -0.02,-0.04 -0.01,-0.03 -0.01,-0.07 0.02,-0.15 0,-0.22 -0.08,-0.33 -0.04,-0.08 -0.14,-0.16 -0.22,-0.2 -0.19,-0.09 -0.42,-0.08 -0.6,0.01 -0.13,0.07 -0.28,0.25 -0.28,0.47 0,0.1 0.04,0.22 0.07,0.29l0.14 0.25c0.06,0.11 0.04,0.14 -0.03,0.26 -0.02,0.03 -0.05,0.06 -0.06,0.08 -0.01,0.01 -0.02,0.02 -0.02,0.03 -0.02,0.01 -0.04,0.04 -0.04,0.05 0,0.02 0.01,0.03 0.02,0.03 0.01,0.01 0.36,0.01 0.4,0.01l0.28 0c0.09,0 -0.02,-0.03 0.18,-0.1 0.05,-0.02 0.09,-0.03 0.15,-0.04 0.13,-0.03 0.17,-0.11 0.1,-0.21l0 0z"/>
  </g>
 </g>
</svg>
