<?xml version="1.0" encoding="UTF-8"?>
<!DOCTYPE svg PUBLIC "-//W3C//DTD SVG 1.1//EN" "http://www.w3.org/Graphics/SVG/1.1/DTD/svg11.dtd">
<!-- Creator: CorelDRAW 2021 (64 Bit) -->
<svg xmlns="http://www.w3.org/2000/svg" xml:space="preserve" width="400px" height="400px" version="1.1" style="shape-rendering:geometricPrecision; text-rendering:geometricPrecision; image-rendering:optimizeQuality; fill-rule:evenodd; clip-rule:evenodd"
viewBox="0 0 4.67 4.67"
 xmlns:xlink="http://www.w3.org/1999/xlink"
 xmlns:xodm="http://www.corel.com/coreldraw/odm/2003">
 <defs>
  <style type="text/css">
   <![CDATA[
    .str0 {stroke:#C4C4C4;stroke-width:0.35;stroke-miterlimit:22.9256}
    .str8 {stroke:#52331E;stroke-width:0.01;stroke-miterlimit:22.9256}
    .str7 {stroke:#9F740B;stroke-width:0.01;stroke-miterlimit:22.9256}
    .str2 {stroke:black;stroke-width:0.09;stroke-miterlimit:22.9256}
    .str1 {stroke:black;stroke-width:0.06;stroke-miterlimit:22.9256}
    .str3 {stroke:#86B0C0;stroke-width:0.06;stroke-miterlimit:22.9256}
    .str5 {stroke:#E2A610;stroke-width:0.06;stroke-miterlimit:22.9256}
    .str9 {stroke:#9F740E;stroke-width:0.02;stroke-miterlimit:22.9256}
    .str6 {stroke:#FDD734;stroke-width:0.02;stroke-miterlimit:22.9256}
    .str4 {stroke:#B9E4EA;stroke-width:0.01;stroke-miterlimit:22.9256}
    .fil3 {fill:none}
    .fil9 {fill:#52331E}
    .fil4 {fill:#86B0C0}
    .fil8 {fill:#9F740B}
    .fil10 {fill:#9F7507}
    .fil5 {fill:#B9E4EA}
    .fil6 {fill:#E2A610}
    .fil2 {fill:#EAFF00}
    .fil7 {fill:#FDD734}
    .fil1 {fill:red}
    .fil0 {fill:white}
   ]]>
  </style>
 </defs>
 <g id="Camada_x0020_1">
  <metadata id="CorelCorpID_0Corel-Layer"/>
  <circle class="fil0 str0" cx="2.34" cy="2.34" r="2.16"/>
  <g id="_2713985151184">
   <g>
    <path class="fil1" d="M1.23 1.1c-0.35,0.16 -0.45,0.34 -0.47,0.69 0.01,0.32 0.16,0.5 0.41,0.63l0.09 1.32c0.14,-0.03 0.25,-0.09 0.27,-0.21l0.02 -0.16 0.09 -0.29 -0.13 -0.25 0.15 -0.25 -0.05 -0.25c0.28,-0.18 0.37,-0.45 0.29,-0.8 -0.11,-0.32 -0.33,-0.48 -0.67,-0.43z"/>
    <path class="fil2 str1" d="M0.74 1.78c-0.01,0.02 -0.01,0.05 -0.01,0.07 0,0.15 0.09,0.33 0.19,0.43 0.04,0.04 0.08,0.08 0.12,0.11 0.08,0.04 0.1,0.03 0.1,0.07 0,0.1 0.01,0.16 0.01,0.26l0.02 0.26c0.01,0.06 0.05,0.76 0.05,0.78 0.04,-0.01 0.06,-0.02 0.1,-0.02 0.11,-0.03 0.22,-0.11 0.25,-0.23 0.03,-0.07 -0.01,-0.14 0.01,-0.22l0.09 -0.23c0,0 0,0.01 0,0 -0.01,-0.01 0,0 -0.01,-0.01 -0.03,-0.06 -0.09,-0.17 -0.12,-0.25 0.05,-0.06 0.13,-0.16 0.14,-0.24 0.01,-0.03 0,-0.07 -0.01,-0.11 -0.01,-0.04 -0.01,-0.09 -0.02,-0.11 0.1,-0.07 0.14,-0.1 0.21,-0.23 0.05,-0.09 0.09,-0.2 0.09,-0.28 0.01,-0.09 0.01,-0.17 -0.02,-0.26 -0.02,-0.09 -0.05,-0.17 -0.11,-0.26 -0.07,-0.09 -0.14,-0.16 -0.23,-0.2 -0.09,-0.04 -0.17,-0.05 -0.24,-0.05l-0.12 0.02c-0.1,0.02 -0.2,0.09 -0.28,0.17 -0.01,0.01 -0.03,0.04 -0.04,0.05l0 0.01c0.03,0.03 0.04,0.04 0.07,0.06 0.07,-0.06 0.09,-0.12 0.2,-0.18 0.06,-0.03 0.14,-0.05 0.21,-0.04 0.05,0 0.16,0.02 0.21,0.05 0.15,0.1 0.26,0.25 0.29,0.44 0.01,0.06 0.01,0.17 0,0.24 -0.05,0.19 -0.16,0.33 -0.32,0.42 0,0.02 0,0.04 0,0.06l0.03 0.19c0,0.02 -0.01,0.04 -0.03,0.07l-0.13 0.21c0.04,0.06 0.08,0.15 0.11,0.22 0.02,0.04 0.02,0.02 -0.01,0.12l-0.05 0.18c-0.02,0.03 -0.02,0.03 -0.01,0.06 0,0.01 0.01,0.11 0.01,0.12 -0.03,0.08 -0.15,0.14 -0.2,0.14 0,-0.01 0,-0.02 0,-0.04 0,-0.1 -0.01,-0.19 -0.01,-0.29 0,-0.03 0,-0.06 -0.01,-0.09l-0.02 -0.41c0,-0.03 0,-0.06 0,-0.09 0,-0.02 0,-0.05 0,-0.08l-0.01 -0.17c0,-0.05 0,-0.11 -0.01,-0.16 -0.02,-0.02 -0.06,-0.01 -0.08,-0.02 -0.01,0 -0.07,-0.03 -0.08,-0.04 -0.13,-0.07 -0.2,-0.21 -0.23,-0.37 0,-0.01 -0.01,-0.05 -0.01,-0.06 0,-0.02 -0.01,-0.05 -0.01,-0.07 -0.01,0 -0.02,0 -0.04,0 -0.02,0 -0.02,0 -0.04,0z"/>
    <line class="fil3 str2" x1="1.32" y1="2.32" x2="1.37" y2= "3.65" />
    <line class="fil3 str2" x1="1.48" y1="2.3" x2="1.49" y2= "2.74" />
    <path class="fil1 str1" d="M0.73 1.49c-0.07,0.12 0.1,0.23 0.16,0.1 0.03,-0.05 0.02,-0.11 -0.03,-0.14 -0.04,-0.03 -0.1,-0.02 -0.13,0.04z"/>
    <ellipse class="fil0 str1" cx="1.24" cy="1.51" rx="0.13" ry="0.14"/>
   </g>
   <g>
    <path class="fil4 str3" d="M2.44 1.49c0,0.23 0,0.25 0,0.48 0.08,0.06 0.16,0.07 0.24,0 0,-0.25 0,-0.3 0.01,-0.54 0.08,-0.44 0.53,-0.44 0.61,0 0,0.1 0,0.45 0,0.55 0.07,0.04 0.15,0.05 0.22,0 0,-0.08 0,-0.4 0,-0.48 -0.02,-0.24 -0.09,-0.44 -0.26,-0.58 -0.19,-0.15 -0.38,-0.15 -0.57,-0.02 -0.16,0.15 -0.24,0.35 -0.25,0.59z"/>
    <path class="fil5 str4" d="M2.71 1.07c-0.01,-0.05 -0.03,-0.06 -0.07,-0.05 -0.12,0.06 -0.17,0.25 -0.16,0.54 0,0.06 0.03,0.06 0.04,0.02 0.04,-0.21 0.08,-0.36 0.14,-0.41 0.03,-0.03 0.04,-0.06 0.05,-0.1z"/>
    <path class="fil6 str5" d="M2.24 3.54c0,-0.41 0.01,-0.83 0.01,-1.24 0.51,-0.27 1,-0.27 1.47,0 0,0.41 0,0.83 0,1.24 -0.1,0.16 -0.5,0.22 -0.74,0.22 -0.25,0 -0.65,-0.06 -0.74,-0.22z"/>
    <path class="fil7 str6" d="M2.98 2.57c-0.36,-0.01 -0.71,-0.06 -0.73,-0.28 0,-0.07 0.46,-0.2 0.73,-0.2 0.27,-0.01 0.73,0.12 0.74,0.2 -0.01,0.23 -0.43,0.27 -0.74,0.28z"/>
    <path class="fil8 str7" d="M2.91 3.21c-0.04,0.1 -0.07,0.2 -0.11,0.29 -0.01,0.03 0,0.04 0.03,0.04 0.03,0 0.18,0 0.28,0 0.02,0 0.03,-0.01 0.02,-0.04 -0.03,-0.09 -0.07,-0.18 -0.1,-0.28 0.05,-0.03 0.09,-0.07 0.08,-0.15 -0.01,-0.09 -0.06,-0.14 -0.15,-0.14 -0.09,0 -0.14,0.07 -0.14,0.15 0,0.06 0.04,0.12 0.09,0.13z"/>
    <path class="fil9 str8" d="M2.92 3.18c-0.02,0.08 -0.05,0.17 -0.08,0.25 -0.01,0.03 0,0.04 0.02,0.04 0.03,0 0.14,0 0.21,0 0.02,0 0.02,-0.01 0.02,-0.04 -0.03,-0.08 -0.05,-0.16 -0.08,-0.25 0.04,-0.02 0.07,-0.06 0.06,-0.13 0,-0.08 -0.04,-0.12 -0.11,-0.13 -0.06,0.01 -0.1,0.07 -0.1,0.14 0,0.05 0.03,0.11 0.06,0.12z"/>
    <ellipse class="fil10 str9" cx="3.4" cy="2.27" rx="0.14" ry="0.07"/>
    <ellipse class="fil10 str9" cx="2.53" cy="2.27" rx="0.14" ry="0.07"/>
   </g>
  </g>
 </g>
</svg>
