<?xml version="1.0" encoding="UTF-8"?>
<!DOCTYPE svg PUBLIC "-//W3C//DTD SVG 1.1//EN" "http://www.w3.org/Graphics/SVG/1.1/DTD/svg11.dtd">
<!-- Creator: CorelDRAW 2021 (64 Bit) -->
<svg xmlns="http://www.w3.org/2000/svg" xml:space="preserve" width="400px" height="400px" version="1.1" style="shape-rendering:geometricPrecision; text-rendering:geometricPrecision; image-rendering:optimizeQuality; fill-rule:evenodd; clip-rule:evenodd"
viewBox="0 0 2.53 2.53"
 xmlns:xlink="http://www.w3.org/1999/xlink"
 xmlns:xodm="http://www.corel.com/coreldraw/odm/2003">
 <defs>
  <style type="text/css">
   <![CDATA[
    .str0 {stroke:#B8B4B6;stroke-width:0.19;stroke-miterlimit:22.9256}
    .fil1 {fill:black}
    .fil0 {fill:white}
   ]]>
  </style>
 </defs>
 <g id="Camada_x0020_1">
  <metadata id="CorelCorpID_0Corel-Layer"/>
  <path class="fil0 str0" d="M0.2 0.09l2.13 0c0.06,0 0.1,0.06 0.1,0.12l0 2.11c0,0.06 -0.04,0.11 -0.1,0.11l-2.13 0c-0.06,0 -0.1,-0.05 -0.1,-0.11 0,-0.26 -0.01,-2.04 0,-2.13 0,-0.05 0.06,-0.1 0.1,-0.1z"/>
  <path class="fil1" d="M1.98 1.79l0.02 -0.01c0.02,-0.01 0.03,-0.03 0.02,-0.05 0.01,-0.02 0.04,-0.04 0.04,-0.07 0,-0.02 -0.02,-0.06 -0.02,-0.08 0.01,-0.01 0.02,-0.02 0.03,-0.02 0.04,-0.02 0.08,-0.05 0.07,-0.11 -0.01,-0.04 -0.05,-0.12 -0.07,-0.16 -0.03,-0.05 -0.05,-0.1 -0.08,-0.15 -0.03,-0.05 -0.02,-0.04 -0.01,-0.1 0.02,-0.18 -0.01,-0.26 -0.1,-0.4 -0.07,-0.1 -0.18,-0.2 -0.29,-0.25 -0.24,-0.11 -0.53,-0.1 -0.76,0.02 -0.17,0.08 -0.36,0.3 -0.36,0.58 0,0.12 0.05,0.27 0.1,0.36l0.17 0.3c0.08,0.15 0.06,0.18 -0.04,0.33 -0.02,0.04 -0.05,0.07 -0.07,0.1 -0.01,0.01 -0.02,0.03 -0.03,0.03 -0.02,0.02 -0.05,0.05 -0.05,0.07 0,0.02 0.01,0.03 0.02,0.04 0.02,0.01 0.47,0 0.52,0l0.35 0c0.12,0 -0.02,-0.03 0.23,-0.12 0.07,-0.03 0.12,-0.03 0.19,-0.05 0.17,-0.03 0.21,-0.14 0.12,-0.26l0 0z"/>
 </g>
</svg>
