<?xml version="1.0" encoding="UTF-8"?>
<!DOCTYPE svg PUBLIC "-//W3C//DTD SVG 1.1//EN" "http://www.w3.org/Graphics/SVG/1.1/DTD/svg11.dtd">
<!-- Creator: CorelDRAW 2021 (64 Bit) -->
<svg xmlns="http://www.w3.org/2000/svg" xml:space="preserve" width="331px" height="331px" version="1.1" style="shape-rendering:geometricPrecision; text-rendering:geometricPrecision; image-rendering:optimizeQuality; fill-rule:evenodd; clip-rule:evenodd"
viewBox="0 0 4.06 4.06"
 xmlns:xlink="http://www.w3.org/1999/xlink"
 xmlns:xodm="http://www.corel.com/coreldraw/odm/2003">
 <defs>
  <style type="text/css">
   <![CDATA[
    .fil2 {fill:black}
    .fil5 {fill:#00F946}
    .fil3 {fill:#282829}
    .fil7 {fill:#5A5959}
    .fil1 {fill:#B8B4B6}
    .fil6 {fill:#DDD9D9}
    .fil4 {fill:#FA0000}
    .fil0 {fill:#FDF9F9}
   ]]>
  </style>
 </defs>
 <g id="Camada_x0020_1">
  <metadata id="CorelCorpID_0Corel-Layer"/>
  <g id="_1597257486640">
   <path class="fil0" d="M0.88 3.07c0.05,-0.03 0.05,-0.07 0.07,-0.13 0.1,-0.27 0.25,-0.71 0.41,-0.89 0.22,-0.25 0.57,-0.4 1.01,-0.48l-0.06 -0.3 1.29 0.48c-0.08,0.06 -0.16,0.11 -0.25,0.17 -0.08,0.05 -0.17,0.11 -0.26,0.17 -0.09,0.06 -0.17,0.11 -0.25,0.17 -0.08,0.05 -0.18,0.12 -0.26,0.16 -0.03,-0.03 -0.03,-0.09 -0.04,-0.13 -0.01,-0.03 -0.02,-0.06 -0.02,-0.08l-0.03 -0.08c-0.34,-0.01 -0.79,0.11 -0.99,0.28 -0.13,0.12 -0.48,0.51 -0.59,0.68 0.08,0.04 0.94,0.02 1.11,0.02 0.12,0 0.49,0.03 0.54,-0.04 0.06,-0.08 0.04,-0.41 0.04,-0.53 0.04,-0.02 0.25,-0.02 0.3,-0.01 0.01,0.08 0.02,0.48 -0.01,0.52 0.01,0.14 -0.13,0.27 -0.21,0.32 -0.13,0.07 -0.31,0.05 -0.47,0.05 -0.35,0 -0.7,-0.01 -1.04,0 -0.17,0 -0.34,0 -0.45,-0.08 -0.09,-0.07 -0.16,-0.18 -0.17,-0.34 -0.03,-0.32 0,-0.71 0,-1.04 -0.01,-0.21 -0.04,-0.83 0.04,-0.99 0.14,-0.32 0.4,-0.26 0.78,-0.26 0.35,0 0.7,0 1.05,0 0.18,-0.01 0.31,0.05 0.38,0.15 0.12,0.14 0.08,0.21 0.11,0.4 -0.02,0.02 -0.01,0.03 -0.08,0.02l-0.24 -0.01 -0.01 -0.12c0.02,-0.19 -0.22,-0.14 -0.37,-0.13 -0.37,0 -0.89,-0.02 -1.23,0 -0.09,0 -0.11,0.03 -0.12,0.12 -0.02,0.12 0,1.45 0,1.72 0,0.11 0.01,0.12 0.02,0.21zm-0.5 -1.4l0 2.01 3.35 0 -0.05 0 0 -3.3 -3.3 0 0 1.29z"/>
   <path class="fil1" d="M0.38 0.38c0.03,-0.02 0.15,-0.01 0.2,-0.01 0.47,0 2.95,-0.01 3.11,0 0.01,0.04 0.03,3.17 0,3.32 -0.1,0.02 -0.3,0.01 -0.41,0.01l-2.9 -0.02 0 -2.01c-0.03,-0.07 -0.01,-0.53 -0.01,-0.65 0,-0.04 -0.01,-0.6 0.01,-0.64zm-0.38 0.01l0 1.27c0,0.31 0.01,0.6 0.01,0.9 0,0.31 0,0.61 0,0.91 0,0.21 -0.03,0.4 0.16,0.53 0.04,0.03 0.12,0.06 0.17,0.06l3.37 0c0.19,0 0.35,-0.17 0.35,-0.37l0 -3.32c0,-0.21 -0.16,-0.37 -0.39,-0.37l-3.29 0c-0.22,0 -0.38,0.16 -0.38,0.39z"/>
   <path class="fil2" d="M2.72 2.65l0.05 0c0.02,0.06 0.01,0.39 -0.01,0.44 -0.11,0.28 -0.42,0.2 -0.75,0.2l-0.97 0.01c-0.17,0 -0.26,-0.04 -0.32,-0.15 -0.09,-0.15 -0.05,-0.71 -0.05,-0.92 0,-0.32 -0.01,-0.64 0,-0.95 0.01,-0.4 0.11,-0.46 0.51,-0.45 0.16,0 1.31,-0.02 1.41,0.02 0.1,0.04 0.18,0.16 0.18,0.24 0.01,0.09 0.01,0.03 -0.01,0.06 -0.1,-0.01 -0.02,-0.03 -0.08,-0.15 -0.1,-0.16 -0.33,-0.11 -0.57,-0.11 -0.3,0.01 -0.6,0 -0.9,0 -0.39,0.01 -0.48,0 -0.48,0.42 0,0.24 -0.02,1.66 0.03,1.77 0.05,0.12 0.13,0.15 0.3,0.15l1.34 0c0.4,0 0.29,-0.26 0.32,-0.58zm0.17 0.4l0 -0.52 -0.29 0.01c0,0.12 0.02,0.45 -0.04,0.53 -0.05,0.07 -0.42,0.04 -0.54,0.04 -0.17,0 -1.03,0.02 -1.11,-0.02 -0.03,0 -0.03,0.01 -0.03,-0.02 -0.01,-0.09 -0.02,-0.1 -0.02,-0.21 0,-0.27 -0.02,-1.6 0,-1.72 0.01,-0.09 0.03,-0.12 0.12,-0.12 0.34,-0.02 0.86,0 1.23,0 0.15,-0.01 0.39,-0.06 0.37,0.13 0.03,0.01 0.02,0.08 0.02,0.12l0.31 -0.01c-0.03,-0.19 0.01,-0.26 -0.11,-0.4 -0.07,-0.1 -0.2,-0.16 -0.38,-0.15 -0.35,0 -0.7,0 -1.05,0 -0.38,0 -0.64,-0.06 -0.78,0.26 -0.08,0.16 -0.05,0.78 -0.04,0.99 0,0.33 -0.03,0.72 0,1.04 0.01,0.16 0.08,0.27 0.17,0.34 0.11,0.08 0.28,0.08 0.45,0.08 0.34,-0.01 0.69,0 1.04,0 0.16,0 0.34,0.02 0.47,-0.05 0.08,-0.05 0.22,-0.18 0.21,-0.32z"/>
   <path class="fil3" d="M1.38 2.31c0.03,-0.05 0.03,-0.07 0.07,-0.12 0.04,-0.05 0.06,-0.07 0.1,-0.1 0.18,-0.17 0.66,-0.38 0.85,-0.36 0.02,0.03 0.07,0.22 0.05,0.24 -0.02,0.02 -0.05,0.02 -0.08,0.02l-0.23 0.03c-0.11,0.01 -0.2,0.03 -0.3,0.05 -0.28,0.09 -0.34,0.19 -0.46,0.24zm1.14 -0.81l0.74 0.28c-0.08,0.08 -0.18,0.15 -0.28,0.21 -0.08,0.06 -0.2,0.16 -0.29,0.21 -0.05,-0.07 -0.14,-0.57 -0.17,-0.7zm-1.64 1.57c0,0.03 0,0.02 0.03,0.02 0.11,-0.17 0.46,-0.56 0.59,-0.68 0.2,-0.17 0.65,-0.29 0.99,-0.28l0.03 0.08c0,0.02 0.01,0.05 0.02,0.08 0.01,0.04 0.01,0.1 0.04,0.13 0.08,-0.04 0.18,-0.11 0.26,-0.16 0.08,-0.06 0.16,-0.11 0.25,-0.17 0.09,-0.06 0.18,-0.12 0.26,-0.17 0.09,-0.06 0.17,-0.11 0.25,-0.17l-1.29 -0.48 0.06 0.3c-0.44,0.08 -0.79,0.23 -1.01,0.48 -0.16,0.18 -0.31,0.62 -0.41,0.89 -0.02,0.06 -0.02,0.1 -0.07,0.13z"/>
   <path class="fil4" d="M2.72 2.65c-0.03,0.32 0.08,0.58 -0.32,0.58l-1.34 0c-0.17,0 -0.25,-0.03 -0.3,-0.15 -0.05,-0.11 -0.03,-1.53 -0.03,-1.77 0,-0.42 0.09,-0.41 0.48,-0.42 0.3,0 0.6,0.01 0.9,0 0.24,0 0.47,-0.05 0.57,0.11 0.06,0.12 -0.02,0.14 0.08,0.15 0.02,-0.03 0.02,0.03 0.01,-0.06 0,-0.08 -0.08,-0.2 -0.18,-0.24 -0.1,-0.04 -1.25,-0.02 -1.41,-0.02 -0.4,-0.01 -0.5,0.05 -0.51,0.45 -0.01,0.31 0,0.63 0,0.95 0,0.21 -0.04,0.77 0.05,0.92 0.06,0.11 0.15,0.15 0.32,0.15l0.97 -0.01c0.33,0 0.64,0.08 0.75,-0.2 0.02,-0.05 0.03,-0.38 0.01,-0.44l-0.05 0z"/>
   <path class="fil5" d="M2.52 1.5c0.03,0.13 0.12,0.63 0.17,0.7 0.09,-0.05 0.21,-0.15 0.29,-0.21 0.1,-0.06 0.2,-0.13 0.28,-0.21l-0.74 -0.28z"/>
   <path class="fil5" d="M1.38 2.31c0.12,-0.05 0.18,-0.15 0.46,-0.24 0.1,-0.02 0.19,-0.04 0.3,-0.05l0.23 -0.03c0.03,0 0.06,0 0.08,-0.02 0.02,-0.02 -0.03,-0.21 -0.05,-0.24 -0.19,-0.02 -0.67,0.19 -0.85,0.36 -0.04,0.03 -0.06,0.05 -0.1,0.1 -0.04,0.05 -0.04,0.07 -0.07,0.12z"/>
   <path class="fil6" d="M0.38 1.67l0 -1.29 3.3 0 0 3.3 0.05 0 -3.35 0 2.9 0.02c0.11,0 0.31,0.01 0.41,-0.01 0.03,-0.15 0.01,-3.28 0,-3.32 -0.16,-0.01 -2.64,0 -3.11,0 -0.05,0 -0.17,-0.01 -0.2,0.01 -0.02,0.04 -0.01,0.6 -0.01,0.64 0,0.12 -0.02,0.58 0.01,0.65z"/>
   <path class="fil7" d="M2.89 3.05c0.03,-0.04 0.02,-0.44 0.01,-0.52 -0.05,-0.01 -0.26,-0.01 -0.3,0.01l0.29 -0.01 0 0.52z"/>
   <path class="fil1" d="M2.91 1.26l-0.31 0.01c0,-0.04 0.01,-0.11 -0.02,-0.12l0.01 0.12 0.24 0.01c0.07,0.01 0.06,0 0.08,-0.02z"/>
  </g>
 </g>
</svg>
