<?xml version="1.0" encoding="UTF-8"?>
<!DOCTYPE svg PUBLIC "-//W3C//DTD SVG 1.1//EN" "http://www.w3.org/Graphics/SVG/1.1/DTD/svg11.dtd">
<!-- Creator: CorelDRAW 2021 (64 Bit) -->
<svg xmlns="http://www.w3.org/2000/svg" xml:space="preserve" width="330px" height="330px" version="1.1" style="shape-rendering:geometricPrecision; text-rendering:geometricPrecision; image-rendering:optimizeQuality; fill-rule:evenodd; clip-rule:evenodd"
viewBox="0 0 166.35 166.35"
 xmlns:xlink="http://www.w3.org/1999/xlink"
 xmlns:xodm="http://www.corel.com/coreldraw/odm/2003">
 <defs>
  <style type="text/css">
   <![CDATA[
    .str0 {stroke:#C4C4C4;stroke-width:15.12;stroke-miterlimit:22.9256}
    .fil1 {fill:black}
    .fil0 {fill:white}
   ]]>
  </style>
 </defs>
 <g id="Camada_x0020_1">
  <metadata id="CorelCorpID_0Corel-Layer"/>
  <g id="_2713787087728">
   <circle class="fil0 str0" cx="83.18" cy="83.18" r="75.62"/>
   <path class="fil1" d="M136.52 83.18l-84.99 -36.58c0.29,1.18 4,9.19 5.37,13.99 1.56,5.18 2.83,10.66 3.32,16.52 -6.15,0 -12.21,0 -18.27,0 -2.44,0 -6.54,-0.39 -8.59,0.59 -1.86,0.78 -3.52,2.64 -3.52,5.48 0,7.33 8.01,6.16 11.82,6.16 6.15,0 12.31,0 18.46,0 -0.19,7.23 -2.93,16.92 -5.66,23.47 -0.78,2.05 -2.45,5.18 -2.93,6.94 2.93,-0.78 7.62,-3.13 10.64,-4.4 3.52,-1.56 7.14,-3.03 10.65,-4.6l63.7 -27.57 0 0z"/>
  </g>
 </g>
</svg>
