<?xml version="1.0" encoding="UTF-8"?>
<!DOCTYPE svg PUBLIC "-//W3C//DTD SVG 1.1//EN" "http://www.w3.org/Graphics/SVG/1.1/DTD/svg11.dtd">
<!-- Creator: CorelDRAW 2021 (64 Bit) -->
<svg xmlns="http://www.w3.org/2000/svg" xml:space="preserve" width="330px" height="330px" version="1.1" style="shape-rendering:geometricPrecision; text-rendering:geometricPrecision; image-rendering:optimizeQuality; fill-rule:evenodd; clip-rule:evenodd"
viewBox="0 0 165.58 165.58"
 xmlns:xlink="http://www.w3.org/1999/xlink"
 xmlns:xodm="http://www.corel.com/coreldraw/odm/2003">
 <defs>
  <style type="text/css">
   <![CDATA[
    .str1 {stroke:black;stroke-width:5.02;stroke-miterlimit:22.9256}
    .str0 {stroke:#C4C4C4;stroke-width:15.05;stroke-miterlimit:22.9256}
    .str2 {stroke:black;stroke-width:0.5;stroke-miterlimit:22.9256}
    .fil4 {fill:black}
    .fil3 {fill:#00FA46}
    .fil2 {fill:#282829}
    .fil1 {fill:red}
    .fil0 {fill:white}
   ]]>
  </style>
 </defs>
 <g id="Camada_x0020_1">
  <metadata id="CorelCorpID_0Corel-Layer"/>
  <g id="_2713542785456">
   <circle class="fil0 str0" cx="82.79" cy="82.79" r="75.26"/>
   <g>
    <path class="fil1 str1" d="M111.07 121.56l-0.02 -13.26 -6.05 0.03c0,1.68 0.27,12.62 -0.21,13.14 0.06,1.77 -1.05,3.79 -1.86,4.63 -1.21,1.25 -2.78,1.5 -5.14,1.49l-39.91 0c-3.16,0 -10.36,0.64 -12.37,-0.91 -3.09,-2.37 -2.76,-5.82 -2.76,-10.51l0 -26.7c-0.14,0 -1.42,0.03 -3.5,0.02l-3.09 -0.01c0,0 0.06,28.77 0.42,32.62 0.49,5.11 3.14,8.34 6.2,10.23 3.55,2.19 10.21,1.5 14.9,1.5 10.94,0 21.89,0 32.84,0 4.93,0 10.96,0.75 14.7,-1.69 2.63,-1.71 6.08,-5.75 5.85,-10.58l0 0z"/>
    <g>
     <path class="fil2" d="M65.73 64.95l-1.26 1.05c0.17,-0.76 0.36,-1.06 0.94,-1.66 2.11,-4.59 9.36,-8.89 13.79,-11.13 2.95,-1.5 15.54,-5.94 19.07,-5.49l1.62 7.68c-9.47,1.16 -18.58,1.2 -27.24,5.44 -3.76,1.84 -4.94,3.08 -6.92,4.11zm41.36 -2.84l-4.75 -21.41 23.81 8.8c-0.77,0.77 -16.67,11.41 -19.06,12.61l0 0zm-10.13 -19.92c-9.1,2.22 -10.07,1.71 -19.46,5.78 -13.87,6.02 -18.06,14.05 -23.17,27.22 -1.4,3.6 -6.01,15.41 -6.83,18.31 0.05,-0.05 0.12,-0.12 0.15,-0.15l9.64 -11.93c2.41,-3.03 4.85,-6.04 7.73,-8.62 0.51,-0.46 0.83,-0.86 1.37,-1.34 4.01,-3.58 9.7,-6.7 15.97,-8.26 3.43,-0.85 15.5,-2.69 18.87,-2.32l2.37 10.08 33.62 -22.05c0.58,-0.4 0.57,-0.41 0.92,-0.77l-43.4 -15.95 2.22 10 0 0z"/>
     <path class="fil3" d="M107.24 63.35c2.45,-1.33 18.73,-13.16 19.51,-14.01l-24.93 -9.66 5.42 23.67 0 0z"/>
     <path class="fil3" d="M64.08 66.62l-0.51 0.79c2.02,-1.14 4.58,-3.43 8.43,-5.47 8.86,-4.71 18.18,-4.76 27.87,-6.05l-1.65 -8.53c-3.62,-0.5 -16.5,4.44 -19.52,6.1 -2.26,1.24 -5.27,2.81 -7.96,4.96 -2.69,2.14 -4.78,4.01 -6.66,8.2z"/>
    </g>
    <circle class="fil4 str2" cx="56.47" cy="116.16" r="3.5"/>
    <circle class="fil4 str2" cx="91.45" cy="116.16" r="3.5"/>
    <circle class="fil4 str2" cx="73.96" cy="116.16" r="3.5"/>
   </g>
  </g>
 </g>
</svg>
