<?xml version="1.0" encoding="UTF-8"?>
<!DOCTYPE svg PUBLIC "-//W3C//DTD SVG 1.1//EN" "http://www.w3.org/Graphics/SVG/1.1/DTD/svg11.dtd">
<!-- Creator: CorelDRAW 2021 (64 Bit) -->
<svg xmlns="http://www.w3.org/2000/svg" xml:space="preserve" width="331px" height="331px" version="1.1" style="shape-rendering:geometricPrecision; text-rendering:geometricPrecision; image-rendering:optimizeQuality; fill-rule:evenodd; clip-rule:evenodd"
viewBox="0 0 2.19 2.19"
 xmlns:xlink="http://www.w3.org/1999/xlink"
 xmlns:xodm="http://www.corel.com/coreldraw/odm/2003">
 <defs>
  <style type="text/css">
   <![CDATA[
    .fil2 {fill:black}
    .fil4 {fill:#27F859}
    .fil3 {fill:#282829}
    .fil1 {fill:#B8B4B6}
    .fil5 {fill:#FD0018}
    .fil0 {fill:#FEFEFE}
   ]]>
  </style>
 </defs>
 <g id="Camada_x0020_1">
  <metadata id="CorelCorpID_0Corel-Layer"/>
  <g id="_2400491990832">
   <path class="fil0" d="M0.6 1.62c0,-0.01 0,-0.01 0,-0.01 -0.01,0.02 -0.01,-0.12 -0.01,-0.14 0,-0.04 0,-0.09 0.01,-0.14l0.16 0 0 0.22c0.02,0.11 0.05,0.09 0.16,0.09l0.74 0 0.01 -0.01 -0.16 -0.19c-0.05,-0.07 -0.09,-0.12 -0.16,-0.18 -0.12,-0.09 -0.34,-0.15 -0.54,-0.15l-0.04 0.16 -0.55 -0.36c0.01,-0.01 0.65,-0.25 0.7,-0.26l-0.04 0.16c0.23,0.04 0.45,0.13 0.55,0.26 0.06,0.08 0.1,0.17 0.14,0.27 0.02,0.05 0.04,0.1 0.06,0.15 0.01,0.02 0.01,0.05 0.02,0.07 0.03,0.08 0.02,0.07 0.04,0.06 0,-0.04 0.01,-0.08 0.01,-0.13 0,-0.17 0.01,-0.9 -0.01,-0.94 -0.02,-0.04 -0.06,-0.03 -0.11,-0.04l-0.41 0c-0.38,0.01 -0.41,-0.04 -0.41,0.14l-0.17 0c0,-0.2 0.07,-0.3 0.27,-0.3 0.19,0 0.37,0 0.56,0 0.2,0 0.35,-0.03 0.42,0.13 0.05,0.1 0.03,0.42 0.03,0.55 0,0.17 0.01,0.38 -0.01,0.56 -0.01,0.21 -0.19,0.22 -0.33,0.22 -0.19,0 -0.38,0 -0.56,0 -0.09,0 -0.19,0.01 -0.26,-0.03 -0.03,-0.02 -0.12,-0.1 -0.11,-0.16zm-0.39 0.37l1.78 0 0 -1.79 -1.79 0 0.01 1.79z"/>
   <path class="fil1" d="M0.2 0.2l1.79 0 0 1.79 -1.78 0 -0.01 -1.79zm-0.2 0.25l0 -0.18c0,-0.07 0.01,-0.13 0.02,-0.15 0.03,-0.07 0.11,-0.12 0.2,-0.12l1.76 0c0.12,0 0.21,0.08 0.21,0.2l0 1.8c0,0.09 -0.08,0.19 -0.19,0.19l-1.81 0c-0.09,0 -0.16,-0.08 -0.18,-0.15 -0.01,-0.05 0,-1.12 0,-1.29 0,-0.05 -0.01,-0.17 -0.01,-0.3z"/>
   <path class="fil2" d="M0.66 0.58c0.02,-0.19 0.17,-0.17 0.35,-0.17 0.17,0 0.34,0.01 0.51,0 0.21,0 0.28,0.03 0.28,0.24 0,0.17 0,0.34 0,0.51 0,0.11 0.02,0.42 -0.02,0.5 -0.07,0.12 -0.25,0.08 -0.43,0.08 -0.6,0 -0.71,0.09 -0.69,-0.34l0.03 0c0.02,0.36 -0.06,0.31 0.66,0.31 0.08,0 0.16,0 0.24,0 0.08,0 0.14,-0.02 0.16,-0.08 0.03,-0.07 0.02,-0.83 0.02,-0.96 0,-0.23 -0.06,-0.22 -0.27,-0.22 -0.07,0 -0.68,-0.01 -0.72,0.01 -0.05,0.01 -0.07,0.05 -0.08,0.1 -0.01,0.03 0.01,0.02 -0.04,0.02zm1.03 1.04c-0.01,0.01 0.01,0 -0.01,0.02 -0.01,0 -0.01,0 -0.02,0l-0.74 0c-0.11,0 -0.14,0.02 -0.16,-0.09 -0.03,-0.04 0,-0.16 0,-0.21l-0.16 -0.01c0,0.1 0,0.2 0,0.29 -0.01,0.06 0.08,0.14 0.11,0.16 0.07,0.04 0.17,0.03 0.26,0.03 0.18,0 0.37,0 0.56,0 0.14,0 0.32,-0.01 0.33,-0.22 0.02,-0.18 0.01,-0.39 0.01,-0.56 0,-0.13 0.02,-0.45 -0.03,-0.55 -0.07,-0.16 -0.22,-0.13 -0.42,-0.13 -0.19,0 -0.37,0 -0.56,0 -0.2,0 -0.27,0.1 -0.27,0.3l0.17 0c0,-0.18 0.03,-0.13 0.41,-0.14l0.41 0c0.05,0.01 0.09,0 0.11,0.04 0.02,0.04 0.01,0.77 0.01,0.94 0,0.05 -0.01,0.09 -0.01,0.13z"/>
   <path class="fil3" d="M0.86 0.9c0.13,0 0.47,0.13 0.54,0.29 -0.03,-0.01 -0.07,-0.05 -0.11,-0.07 -0.13,-0.07 -0.3,-0.08 -0.45,-0.09l0.02 -0.13zm-0.15 0.23c-0.05,-0.02 -0.25,-0.16 -0.29,-0.2 0.04,-0.03 0.3,-0.11 0.37,-0.14 0,0.03 -0.04,0.2 -0.05,0.26l-0.03 0.08zm0.95 0.51c0.01,0 0.01,0 0.02,0 0.02,-0.02 0,-0.01 0.01,-0.02 -0.02,0.01 -0.01,0.02 -0.04,-0.06 -0.01,-0.02 -0.01,-0.05 -0.02,-0.07 -0.02,-0.05 -0.04,-0.1 -0.06,-0.15 -0.04,-0.1 -0.08,-0.19 -0.14,-0.27 -0.1,-0.13 -0.32,-0.22 -0.55,-0.26l0.04 -0.16c-0.05,0.01 -0.69,0.25 -0.7,0.26l0.55 0.36 0.04 -0.16c0.2,0 0.42,0.06 0.54,0.15 0.07,0.06 0.11,0.11 0.16,0.18l0.16 0.19 -0.01 0.01z"/>
   <path class="fil4" d="M0.66 0.58c0.05,0 0.03,0.01 0.04,-0.02 0.01,-0.05 0.03,-0.09 0.08,-0.1 0.04,-0.02 0.65,-0.01 0.72,-0.01 0.21,0 0.27,-0.01 0.27,0.22 0,0.13 0.01,0.89 -0.02,0.96 -0.02,0.06 -0.08,0.08 -0.16,0.08 -0.08,0 -0.16,0 -0.24,0 -0.72,0 -0.64,0.05 -0.66,-0.31l-0.03 0c-0.02,0.43 0.09,0.34 0.69,0.34 0.18,0 0.36,0.04 0.43,-0.08 0.04,-0.08 0.02,-0.39 0.02,-0.5 0,-0.17 0,-0.34 0,-0.51 0,-0.21 -0.07,-0.24 -0.28,-0.24 -0.17,0.01 -0.34,0 -0.51,0 -0.18,0 -0.33,-0.02 -0.35,0.17z"/>
   <path class="fil5" d="M0.74 1.05c0.01,-0.06 0.05,-0.23 0.05,-0.26 -0.07,0.03 -0.33,0.11 -0.37,0.14 0.04,0.04 0.24,0.18 0.29,0.2l0.03 -0.08z"/>
   <path class="fil5" d="M0.84 1.03c0.15,0.01 0.32,0.02 0.45,0.09 0.04,0.02 0.08,0.06 0.11,0.07 -0.07,-0.16 -0.41,-0.29 -0.54,-0.29l-0.02 0.13z"/>
   <path class="fil3" d="M0.6 1.62c0,-0.09 0,-0.19 0,-0.29l0.16 0.01c0,0.05 -0.03,0.17 0,0.21l0 -0.22 -0.16 0c-0.01,0.05 -0.01,0.1 -0.01,0.14 0,0.02 0,0.16 0.01,0.14 0,0 0,0 0,0.01z"/>
  </g>
 </g>
</svg>
