<?xml version="1.0" encoding="UTF-8"?>
<!DOCTYPE svg PUBLIC "-//W3C//DTD SVG 1.1//EN" "http://www.w3.org/Graphics/SVG/1.1/DTD/svg11.dtd">
<!-- Creator: CorelDRAW 2021 (64 Bit) -->
<svg xmlns="http://www.w3.org/2000/svg" xml:space="preserve" width="400px" height="400px" version="1.1" style="shape-rendering:geometricPrecision; text-rendering:geometricPrecision; image-rendering:optimizeQuality; fill-rule:evenodd; clip-rule:evenodd"
viewBox="0 0 4 4"
 xmlns:xlink="http://www.w3.org/1999/xlink"
 xmlns:xodm="http://www.corel.com/coreldraw/odm/2003">
 <defs>
  <style type="text/css">
   <![CDATA[
    .str0 {stroke:#B8B4B6;stroke-width:0.3;stroke-miterlimit:22.9256}
    .str1 {stroke:black;stroke-width:0.02;stroke-miterlimit:22.9256}
    .str3 {stroke:black;stroke-width:0.01;stroke-miterlimit:22.9256}
    .str4 {stroke:fuchsia;stroke-width:0.01;stroke-miterlimit:22.9256}
    .str2 {stroke:#030303;stroke-width:0.05;stroke-miterlimit:22.9256;stroke-dasharray:0.100000 0.250000}
    .fil3 {fill:none}
    .fil4 {fill:black}
    .fil1 {fill:#E6E6E6}
    .fil5 {fill:fuchsia}
    .fil2 {fill:#FFFF66}
    .fil0 {fill:white}
   ]]>
  </style>
 </defs>
 <g id="Camada_x0020_1">
  <metadata id="CorelCorpID_0Corel-Layer"/>
  <g id="_2069710031168">
   <path class="fil0 str0" d="M0.32 0.15l3.37 0c0.09,0 0.16,0.08 0.16,0.19l0 3.33c0,0.1 -0.07,0.18 -0.16,0.18l-3.37 0c-0.09,0 -0.17,-0.08 -0.17,-0.18 0,-0.4 0,-3.23 0,-3.37 0,-0.08 0.1,-0.15 0.17,-0.15z"/>
   <g>
    <g>
     <polygon class="fil1 str1" points="2.9,2.02 2.39,2.03 2.52,1.92 2.79,1.92 "/>
     <rect class="fil2 str1" x="0.89" y="2.03" width="2.1" height="1.25"/>
     <line class="fil3 str2" x1="1.03" y1="2.21" x2="2.77" y2= "2.2" />
     <line class="fil3 str2" x1="1.03" y1="2.44" x2="2.77" y2= "2.43" />
     <line class="fil3 str2" x1="1.03" y1="2.67" x2="2.77" y2= "2.66" />
     <line class="fil3 str2" x1="1.03" y1="2.9" x2="2.77" y2= "2.9" />
     <line class="fil3 str2" x1="1.03" y1="3.14" x2="2.77" y2= "3.13" />
    </g>
    <g>
     <g>
      <path class="fil0" d="M1.81 1.17c0.02,0 0.04,0 0.05,-0.01 0.01,-0.01 0.02,-0.01 0.02,-0.02 0.01,0 0.02,-0.01 0.03,-0.01 0,0.01 0.02,0.02 0.02,0.02 0,0.02 -0.03,0.04 -0.05,0.04 -0.05,0.03 -0.11,0.03 -0.16,0.01 -0.02,-0.01 -0.05,-0.03 -0.05,-0.04 0,-0.01 0.02,-0.02 0.03,-0.03 0.02,0.04 0.06,0.04 0.11,0.04zm0.09 -0.24c0.07,-0.01 0.08,0.07 0.02,0.08 -0.03,0.01 -0.05,-0.01 -0.05,-0.03 -0.01,-0.03 0.01,-0.04 0.03,-0.05zm-0.25 0c0.03,0 0.06,0.01 0.06,0.03 0,0.03 -0.01,0.05 -0.04,0.05 -0.06,0.01 -0.08,-0.07 -0.02,-0.08zm0.45 0.04c0.01,-0.04 0.02,-0.08 0,-0.11 -0.01,-0.01 -0.03,-0.03 -0.04,-0.04 -0.04,-0.02 -0.04,-0.01 -0.07,0.01 -0.05,0.04 -0.13,0.07 -0.19,0.07 -0.1,0 -0.16,-0.05 -0.22,-0.08 -0.01,-0.02 -0.03,-0.01 -0.05,0 -0.02,0.01 -0.04,0.01 -0.04,0.03 0,0.02 -0.01,0.05 -0.01,0.06 0,0.02 0.01,0.04 0.01,0.06l-0.05 0.01c-0.02,0.02 0,0.06 0.01,0.09 0,0.01 0.01,0.03 0.02,0.03 0.01,0.01 0.03,0.01 0.05,0.01 0.01,0.03 0.02,0.05 0.04,0.07 0.01,0.02 0.04,0.05 0.06,0.06 0.02,0.02 0.04,0.03 0.07,0.04 0.04,0.01 0.07,0.02 0.11,0.02 0.08,0 0.13,-0.03 0.18,-0.06 0.02,-0.01 0.05,-0.04 0.06,-0.06 0.03,-0.03 0.02,-0.04 0.04,-0.07 0.03,0 0.05,0 0.06,-0.01 0.01,-0.02 0.01,-0.04 0.02,-0.06 0,-0.01 0.02,-0.04 0,-0.05 -0.01,-0.01 -0.04,-0.01 -0.06,-0.02z"/>
      <path class="fil0" d="M2.38 1.25c-0.09,0.02 -0.06,0.14 0.03,0.12 0.03,0 0.06,-0.03 0.05,-0.07 -0.01,-0.03 -0.04,-0.06 -0.08,-0.05z"/>
      <path class="fil4" d="M1.81 1.17c-0.05,0 -0.09,0 -0.11,-0.04 -0.01,0.01 -0.03,0.02 -0.03,0.03 0,0.01 0.03,0.03 0.05,0.04 0.05,0.02 0.11,0.02 0.16,-0.01 0.02,0 0.05,-0.02 0.05,-0.04 0,0 -0.02,-0.01 -0.02,-0.02 -0.01,0 -0.02,0.01 -0.03,0.01 0,0.01 -0.01,0.01 -0.02,0.02 -0.01,0.01 -0.03,0.01 -0.05,0.01z"/>
      <polygon class="fil4" points="1.33,1.88 1.37,1.88 1.37,1.71 1.33,1.71 "/>
      <polygon class="fil4" points="2.25,1.87 2.29,1.87 2.3,1.87 2.3,1.72 2.29,1.72 2.25,1.72 "/>
      <path class="fil4" d="M1.9 0.93c-0.02,0.01 -0.04,0.02 -0.03,0.05 0,0.02 0.02,0.04 0.05,0.03 0.06,-0.01 0.05,-0.09 -0.02,-0.08z"/>
      <path class="fil4" d="M1.65 0.93c-0.06,0.01 -0.04,0.09 0.02,0.08 0.03,0 0.04,-0.02 0.04,-0.05 0,-0.02 -0.03,-0.03 -0.06,-0.03z"/>
      <path class="fil4 str3" d="M2.1 0.97c0.02,0.01 0.05,0.01 0.06,0.02 0.02,0.01 0,0.04 0,0.05 -0.01,0.02 -0.01,0.04 -0.02,0.06 -0.01,0.01 -0.03,0.01 -0.06,0.01 -0.02,0.03 -0.01,0.04 -0.04,0.07 -0.01,0.02 -0.04,0.05 -0.06,0.06 -0.05,0.03 -0.1,0.06 -0.18,0.06 -0.04,0 -0.07,-0.01 -0.11,-0.02 -0.03,-0.01 -0.05,-0.02 -0.07,-0.04 -0.02,-0.01 -0.05,-0.04 -0.06,-0.06 -0.02,-0.02 -0.03,-0.04 -0.04,-0.07 -0.02,0 -0.04,0 -0.05,-0.01 -0.01,0 -0.02,-0.02 -0.02,-0.03 -0.01,-0.03 -0.03,-0.07 -0.01,-0.09l0.05 -0.01c0,-0.02 -0.01,-0.04 -0.01,-0.06 0,-0.01 0.01,-0.04 0.01,-0.06 0,-0.02 0.02,-0.02 0.04,-0.03 0.02,-0.01 0.04,-0.02 0.05,0 0.06,0.03 0.12,0.08 0.22,0.08 0.06,0 0.14,-0.03 0.19,-0.07 0.03,-0.02 0.03,-0.03 0.07,-0.01 0.01,0.01 0.03,0.03 0.04,0.04 0.02,0.03 0.01,0.07 0,0.11zm-0.45 -0.44c-0.07,0.03 -0.12,0.08 -0.15,0.12 -0.03,0.04 -0.05,0.06 -0.06,0.12 -0.01,0.03 -0.01,0.06 -0.01,0.09 0,0.03 0.01,0.05 0.01,0.08 -0.03,0 -0.04,0.01 -0.05,0.03 0,0.03 0,0.05 0,0.07 0.04,0.14 0.09,0.08 0.11,0.13 0.01,0.02 0.01,0.02 0.03,0.05l0.04 0.04c0.01,0.01 0.03,0.02 0.05,0.03 0,0.02 0,0.08 0,0.1 -0.01,0.01 -0.01,0.01 -0.02,0.01 -0.06,0.01 -0.19,0.03 -0.25,0.04 -0.05,0.01 -0.08,0.02 -0.12,0.03 -0.02,0.01 -0.03,0.01 -0.04,0.02 -0.05,0.03 -0.08,0.08 -0.09,0.12 -0.01,0.03 -0.01,0.1 -0.01,0.13 0,0.05 0,0.09 0,0.14 0.03,0 0.04,0 0.05,-0.02l0 -0.16c0,-0.06 0,-0.12 0.05,-0.16 0.03,-0.02 0.04,-0.03 0.08,-0.04 0.06,-0.02 0.13,-0.03 0.2,-0.04 0.03,0 0.07,-0.01 0.1,-0.01 0,0.03 0.01,0.05 0.02,0.07 0.03,0.05 0.07,0.08 0.12,0.09 0.03,0.01 0.06,0.02 0.09,0.02 0.1,0 0.24,-0.08 0.24,-0.18l0.25 0.04c0.09,0.01 0.17,0.07 0.18,0.15 0,0.08 0,0.16 0.01,0.23l0.04 0.01 0 -0.24c-0.02,-0.1 -0.07,-0.17 -0.24,-0.19 -0.08,-0.02 -0.17,-0.03 -0.25,-0.05 -0.03,0 -0.04,0 -0.04,-0.03 0,-0.03 0,-0.06 0,-0.09 0.02,-0.01 0.04,-0.02 0.05,-0.03 0.02,-0.02 0.06,-0.07 0.07,-0.1 0.07,0 0.07,-0.05 0.09,-0.09 0,-0.02 0.01,-0.02 0.01,-0.04 0,-0.01 0,-0.02 0,-0.04 -0.01,-0.02 -0.03,-0.03 -0.05,-0.04 0,-0.08 0.01,-0.12 -0.02,-0.2 -0.02,-0.06 -0.04,-0.08 -0.08,-0.12 -0.02,-0.02 -0.02,-0.02 -0.03,-0.03 -0.02,-0.01 -0.04,-0.03 -0.06,-0.04 -0.06,-0.03 -0.12,-0.04 -0.2,-0.04 -0.02,0 -0.07,0.01 -0.12,0.02zm-0.12 0.14c0.04,-0.03 0.08,-0.07 0.15,-0.1 0.03,-0.01 0.04,-0.02 0.08,-0.02 0.05,0 0.11,0 0.16,0.02 0.03,0.01 0.05,0.03 0.08,0.05 0.03,0.02 0.04,0.03 0.07,0.07 0.01,0.02 0.05,0.09 0.04,0.12 -0.01,-0.01 -0.04,-0.03 -0.07,-0.04 -0.01,-0.01 -0.03,0 -0.04,0 -0.01,0.01 -0.02,0.02 -0.03,0.03 -0.11,0.07 -0.21,0.09 -0.33,0 -0.01,0 -0.02,-0.01 -0.04,-0.02 -0.01,-0.01 -0.02,-0.01 -0.04,-0.01 -0.05,0 -0.06,0.02 -0.08,0.03 0,-0.06 0.04,-0.11 0.05,-0.13zm0.27 0.92c0.01,0 0.01,0 0.02,0 0.01,0 0.02,0 0.03,-0.01 0.08,-0.01 0.15,-0.07 0.15,-0.14 -0.04,-0.01 -0.05,-0.03 -0.05,-0.05l0 -0.09 0 0c0,0.01 -0.01,0.01 -0.01,0.01 -0.04,0.02 -0.09,0.03 -0.14,0.03 -0.04,0 -0.08,0 -0.11,-0.02 -0.01,0 -0.02,0 -0.03,-0.01 0,0.03 0,0.06 0,0.09 0,0.02 -0.03,0.03 -0.05,0.04 0,0.08 0.08,0.14 0.15,0.15 0.02,0 0.03,0 0.04,0z"/>
     </g>
     <path class="fil5 str4" d="M1.14 1.66l0 0.21 0.19 0 0 -0.16 0.04 0 0 0.16 0.88 0 0 -0.16 0.05 0 0 0.16 0.17 0 0 -0.23c-0.01,-0.09 -0.07,-0.13 -0.16,-0.15l-0.27 -0.04c-0.02,0.1 -0.1,0.16 -0.24,0.18 -0.13,-0.01 -0.21,-0.07 -0.23,-0.18l-0.27 0.04c-0.11,0.02 -0.16,0.08 -0.16,0.17z"/>
    </g>
   </g>
  </g>
 </g>
</svg>
