<?xml version="1.0" encoding="UTF-8"?>
<!DOCTYPE svg PUBLIC "-//W3C//DTD SVG 1.1//EN" "http://www.w3.org/Graphics/SVG/1.1/DTD/svg11.dtd">
<!-- Creator: CorelDRAW 2021 (64 Bit) -->
<svg xmlns="http://www.w3.org/2000/svg" xml:space="preserve" width="400px" height="400px" version="1.1" style="shape-rendering:geometricPrecision; text-rendering:geometricPrecision; image-rendering:optimizeQuality; fill-rule:evenodd; clip-rule:evenodd"
viewBox="0 0 178.62 178.62"
 xmlns:xlink="http://www.w3.org/1999/xlink"
 xmlns:xodm="http://www.corel.com/coreldraw/odm/2003">
 <defs>
  <style type="text/css">
   <![CDATA[
    .str2 {stroke:#AEA19E;stroke-width:7.14;stroke-miterlimit:22.9256;stroke-opacity:0.949020}
    .str0 {stroke:#C4C4C4;stroke-width:13.4;stroke-miterlimit:22.9256}
    .str1 {stroke:white;stroke-width:0.89;stroke-miterlimit:22.9256}
    .str3 {stroke:black;stroke-width:5.36;stroke-miterlimit:22.9256}
    .fil4 {fill:none}
    .fil1 {fill:#E6E7E8}
    .fil5 {fill:#373435}
    .fil7 {fill:#CD8E64}
    .fil10 {fill:#F8AC92}
    .fil6 {fill:#FD9833}
    .fil8 {fill:#FE0000}
    .fil9 {fill:white}
    .fil0 {fill:white}
    .fil2 {fill:#333333;fill-rule:nonzero}
    .fil3 {fill:#FEFEFE;fill-rule:nonzero;fill-opacity:0.949020}
   ]]>
  </style>
 </defs>
 <g id="Camada_x0020_1">
  <metadata id="CorelCorpID_0Corel-Layer"/>
  <g id="_2069729356160">
   <circle class="fil0 str0" cx="89.31" cy="89.31" r="82.61"/>
   <g>
    <g>
     <rect class="fil1 str1" x="46.34" y="98" width="18.31" height="43.11"/>
     <path class="fil2" d="M95.02 143.87c-3.51,0 -6.98,-1.32 -10.35,-2.6 -3.7,-1.41 -7.52,-2.87 -11.32,-2.52l-9.35 0.85 0 -37.12 5.09 -0.47c3.17,-0.27 5.82,0.98 8.39,2.2 2.4,1.15 4.67,2.24 7.28,2.01l16.75 -3.11c6,-1.05 9.31,2.5 11.32,5.74l18.29 -8.7c6.89,-3.17 14.65,0.01 19.3,7.91 1.22,2.07 0.54,4.83 -1.52,6.14 -2.37,1.52 -4.73,3.03 -7.07,4.53 -20.42,13.1 -38.06,24.41 -45.61,25.09 -0.4,0.03 -0.8,0.05 -1.2,0.05zm-20.5 -7.74c3.84,0 7.49,1.39 11.02,2.73 3.65,1.39 7.11,2.7 10.46,2.4 6.95,-0.62 25.19,-12.32 44.5,-24.71 2.34,-1.49 4.7,-3.01 7.08,-4.53 0.9,-0.57 1.21,-1.76 0.69,-2.64 -3.96,-6.73 -10.44,-9.5 -16.11,-6.9l-20.34 9.68c-0.04,-1.35 -1.05,-2.92 -1.61,-3.61 -1.87,-2.28 -5.51,-3.4 -8.26,-2.91l-16.86 3.13c-3.39,0.28 -6.08,-0.99 -8.67,-2.23 -2.37,-1.13 -4.6,-2.2 -7.11,-1.97l-2.8 0.26 0 31.97 6.62 -0.61c0.47,-0.04 0.93,-0.06 1.39,-0.06z"/>
     <path class="fil3 str2" d="M62.25 143.87l-14.31 0c-2.34,0 -4.25,-1.95 -4.25,-4.35l0 -39.38c0,-2.4 1.91,-4.36 4.25,-4.36l14.31 0c2.35,0 4.26,1.96 4.26,4.36l0 39.38c0,2.4 -1.91,4.35 -4.26,4.35zm-14.31 -45.52c-0.96,0 -1.75,0.8 -1.75,1.79l0 39.38c0.01,0.98 0.79,1.78 1.75,1.78l14.31 0c0.97,0 1.75,-0.8 1.75,-1.78l0 -39.38c0,-0.99 -0.78,-1.79 -1.75,-1.79l-14.31 0z"/>
     <path class="fil4 str3" d="M112.8 111.5c0.31,0.6 0.33,1.65 -0.36,2.79 -1.08,1.78 -3.57,3.15 -9.59,2.43 -4.46,-0.54 -9.81,0.53 -14.44,1.03"/>
    </g>
    <g>
     <path class="fil5" d="M48.83 81.22c2.2,0.49 4.74,1.69 8.65,2.52 3.12,0.66 6.52,1.02 9.84,1.03 3.36,0 6.68,-0.36 9.88,-1.02 2.46,-0.51 8.39,-2.44 8.65,-2.47 -0.17,4.22 -14,5.36 -18.34,5.42 -2.73,0.04 -18.34,-0.6 -18.68,-5.48zm0.73 -1.78c1.01,-1.18 2.23,-2.04 3.35,-3.15 1.12,-1.1 2.33,-2.08 3.5,-3.07 2.24,-1.88 1.01,-1.77 4.72,-1.77l12.58 0c3.7,0 2.33,0.11 4.54,1.75l3.48 3.1c0.69,0.69 1.13,0.96 1.75,1.53 0.83,0.78 1.31,0.98 1.61,1.61 -3.33,2.25 -13.84,3.48 -17.96,3.45 -4.2,-0.02 -14.44,-1.44 -17.57,-3.45zm9.06 -13.66c2.43,0.52 5.22,1.46 7.68,2.15 1.34,0.38 2.57,0.73 3.86,1.11 1.03,0.3 2.86,0.94 3.7,1.12l-15.29 -0.04 0.05 -4.34zm0.15 -1.02c-1.24,-0.33 -1.5,-0.47 -1.18,-2.14l19.18 5.31c0.15,0.67 0.31,1.14 0.09,1.89 -1.25,-0.12 -15.25,-4.29 -18.09,-5.06zm1.23 -2.5c-1.21,-0.32 -1.43,-0.09 -1.41,-1.44l17.52 4.81 0 1.03 -16.11 -4.4zm-2.6 -4.21c1.75,0 15.6,4.23 19.15,4.96 0.19,0.66 0.3,0.92 0.12,1.61 -1.07,-0.08 -13.2,-3.49 -15.26,-4.07 -3.83,-1.07 -4.23,-0.61 -4.01,-2.5zm1.17 -2.13c1.01,0.03 11.27,3.17 13.69,3.89 3.47,1.02 3.84,0.59 3.83,2.07l-17.51 -4.72 -0.01 -1.24zm18.43 0.14c0.25,-0.19 0.09,-0.31 1.2,-0.24 0.34,0.02 0.78,0.09 1.13,0.12l27.79 2.4c1.68,0.15 3.33,-0.02 3.88,0.81 -1.56,0.22 -25.74,-2.15 -29.97,-2.52l-4.03 -0.57zm-19.39 -3.34c1.53,0.24 3.72,0.98 5.3,1.45l10.53 2.97c2.55,0.69 4.11,0.64 3.4,2.86 -1.05,-0.07 -8.75,-2.45 -10.46,-2.94l-7.98 -2.3c-1.01,-0.35 -1.08,-0.91 -0.79,-2.04zm18.44 4.08c-1.7,-0.31 -13.62,-3.63 -14.4,-4.16l0.93 -0.04 12.82 -0.02 0.72 0.07 -0.07 4.15zm-19.52 -6.83c1.28,-0.01 5.45,1.26 10.98,1.21 4.29,-0.04 7.04,-0.81 10.92,-1.48 -1.84,1.64 -1.7,1.6 -4.72,1.6 -2.09,0 -4.13,-0.09 -6.2,-0.11 -2.06,-0.02 -4.12,0.11 -6.2,0.11 -4.89,0 -2.67,-0.19 -4.78,-1.33zm25.36 -3.98c1.43,-0.55 2.61,-1.43 3.68,-1.85 -0.86,2.04 -5.39,3.44 -8.12,4.13 -7.58,1.9 -18.75,1.76 -25.82,-2.08 -1.07,-0.58 -3.07,-1.65 -3.1,-2.92 1.13,0.4 2.54,1.31 3.9,1.86 7.57,3.09 17.06,3.47 24.96,2.08 1.6,-0.28 3.08,-0.68 4.5,-1.22zm-18.9 -10c6.29,-0.5 15.69,0.04 20.83,2.72 4.37,2.28 1.13,4.35 -2.04,5.57 -2.75,1.07 -6.75,1.63 -9.95,1.81 -7.46,0.43 -14.22,-0.09 -20.38,-3.11 -2.09,-1.02 -3.57,-1.49 -2.3,-3.05 2.09,-2.57 10.65,-3.69 13.84,-3.94zm14.08 16.63c0.75,-0.32 4.67,-3.35 5.81,-4.17 2.03,-1.44 4.38,-2.31 4.61,-5.57 0.14,-1.94 0.2,-2.75 -0.82,-4 -4.56,-5.56 -28.77,-6.13 -36.69,-1.46 -1.03,0.61 -2.06,1.5 -2.53,2.49 -0.34,0.72 -0.51,3.8 -0.44,4.81 0.82,0.58 1.45,1.35 2.38,2.05 0.81,0.62 1.58,1.05 2.48,1.75 0.79,0.62 1.64,1.15 2.47,1.78 0.89,0.66 1.6,1.27 2.46,1.75 -0.24,0.94 -0.46,1.45 -0.09,2.51 0.55,1.58 0.88,0.22 0.92,1.9 -0.15,0.77 -1.25,0.41 -1.23,2.2 0.02,1.62 0.75,1.4 1.23,2.2 -0.16,1.29 0.05,0.1 -0.7,1.14 -1.32,1.82 0.65,3.6 0.7,3.85l-0.02 4.33c-1.75,1.27 -5.75,4.94 -7.8,6.81 -1.64,1.49 -1.53,1.77 -2.7,1.32l-0.35 1.66c0,0 0.13,0.36 0.17,0.7 0.05,0.34 0.01,0.62 0.04,0.97 0.19,3.14 4.07,4.63 6.68,5.36 8.3,2.32 19.29,2.28 27.55,-0.18 2.95,-0.88 6.37,-2.15 6.52,-5.39 0.1,-2.39 0.41,-0.4 0.02,-2.08 -0.09,-0.39 -0.07,-0.57 -0.08,-0.98 -0.94,0.26 -0.96,0.27 -1.6,-0.28l-6.12 -5.48c-0.92,-0.91 -1.56,-1.2 -2.32,-2.16 0.7,-1.86 0.27,-1.92 -0.39,-3.36 -0.8,-1.74 0.71,-1.7 0.51,-3.36 -0.09,-0.7 -0.56,-1.1 -0.66,-1.71 -0.29,-1.77 1.9,-1.16 0.28,-4.66 2.45,-0.07 6.16,0.5 8.74,0.72l17.65 1.56c1.49,0.13 3.02,0.27 4.51,0.4 1.79,0.16 2.59,0.5 3.75,-0.52 0.12,-1.95 -1.58,-1.91 -3.2,-2.04l-31.72 -2.73 -0.02 -2.13z"/>
     <path class="fil6" d="M49.56 79.44c3.13,2.01 13.37,3.43 17.57,3.45 4.12,0.03 14.63,-1.2 17.96,-3.45 -0.3,-0.63 -0.78,-0.83 -1.61,-1.61 -0.62,-0.57 -1.06,-0.84 -1.75,-1.53l-3.48 -3.1c-2.21,-1.64 -0.84,-1.75 -4.54,-1.75l-12.58 0c-3.71,0 -2.48,-0.11 -4.72,1.77 -1.17,0.99 -2.38,1.97 -3.5,3.07 -1.12,1.11 -2.34,1.97 -3.35,3.15z"/>
     <path class="fil7" d="M62.99 35.99c-3.19,0.25 -11.75,1.37 -13.84,3.94 -1.27,1.56 0.21,2.03 2.3,3.05 6.16,3.02 12.92,3.54 20.38,3.11 3.2,-0.18 7.2,-0.74 9.95,-1.81 3.17,-1.22 6.41,-3.29 2.04,-5.57 -5.14,-2.68 -14.54,-3.22 -20.83,-2.72z"/>
     <path class="fil8" d="M126.12 40.07l-3.35 -1.51 -15.55 38.39c-0.67,1.63 -1.72,3.88 -2.21,5.58l3.43 1.51 17.68 -43.97z"/>
     <path class="fil9" d="M48.83 81.22c0.34,4.88 15.95,5.52 18.68,5.48 4.34,-0.06 18.17,-1.2 18.34,-5.42 -0.26,0.03 -6.19,1.96 -8.65,2.47 -3.2,0.66 -6.52,1.02 -9.88,1.02 -3.32,-0.01 -6.72,-0.37 -9.84,-1.03 -3.91,-0.83 -6.45,-2.03 -8.65,-2.52z"/>
     <path class="fil5" d="M122.37 59.66c0.03,-0.02 0.09,-0.1 0.12,-0.06l0.26 -0.09c0.05,0 0.11,-0.01 0.16,-0.01l24.87 2.06c0.37,0.2 0.12,0.01 0.32,0.3 -0.87,0.49 -19.99,-1.47 -24.26,-1.76 -0.85,-0.05 -1.19,0.12 -1.47,-0.44zm19.32 2.91c1.5,0.13 6.29,0.95 7.12,0.07 0.98,-1.05 -0.12,-2.04 -1.32,-2.2l-11.1 -0.88c-5,-0.41 -10.01,-0.87 -15.01,-1.19 0.08,2.5 -0.45,2.53 1.7,2.68l18.61 1.52z"/>
     <path class="fil9" d="M85.57 44.14c-1.07,0.42 -2.25,1.3 -3.68,1.85 -1.42,0.54 -2.9,0.94 -4.5,1.22 -7.9,1.39 -17.39,1.01 -24.96,-2.08 -1.36,-0.55 -2.77,-1.46 -3.9,-1.86 0.03,1.27 2.03,2.34 3.1,2.92 7.07,3.84 18.24,3.98 25.82,2.08 2.73,-0.69 7.26,-2.09 8.12,-4.13z"/>
     <path class="fil8" d="M105.53 44.56c1.55,2.05 3.57,5.42 5.12,7.36 0.65,0.82 1.17,1.78 1.77,2.46 0.58,-0.42 0.74,-0.54 1.44,-1.13 0.49,-0.41 1.12,-0.8 1.49,-1.14 -0.16,-0.4 -6.2,-9.3 -6.91,-9.87l-2.91 2.32z"/>
     <path class="fil8" d="M100.41 71.58c1.38,-0.76 9.11,-5.4 9.86,-6.14l-1.83 -3.25c-0.9,0.29 -5.96,3.57 -7.47,4.5 -0.72,0.44 -1.85,0.98 -2.36,1.56 0.4,1.01 1.28,2.41 1.8,3.33z"/>
     <path class="fil8" d="M121.96 64.25c-0.63,0.41 -2.46,1.9 -2.83,2.65l4.93 6.31c0.48,0.72 1.1,1.48 1.66,2.01 0.97,-0.59 1.84,-1.62 2.83,-2.3 -0.2,-0.58 -5.91,-8 -6.59,-8.67z"/>
     <path class="fil9" d="M76.84 60c0.71,-2.22 -0.85,-2.17 -3.4,-2.86l-10.53 -2.97c-1.58,-0.47 -3.77,-1.21 -5.3,-1.45 -0.29,1.13 -0.22,1.69 0.79,2.04l7.98 2.3c1.71,0.49 9.41,2.87 10.46,2.94z"/>
     <polygon class="fil8" points="124.94,51.71 126.38,55.35 135.08,51.26 133.63,47.65 "/>
     <path class="fil9" d="M76.86 69.82c0.22,-0.75 0.06,-1.22 -0.09,-1.89l-19.18 -5.31c-0.32,1.67 -0.06,1.81 1.18,2.14 2.84,0.77 16.84,4.94 18.09,5.06z"/>
     <path class="fil10" d="M58.57 70.12l15.29 0.04c-0.84,-0.18 -2.67,-0.82 -3.7,-1.12 -1.29,-0.38 -2.52,-0.73 -3.86,-1.11 -2.46,-0.69 -5.25,-1.63 -7.68,-2.15l-0.05 4.34z"/>
     <path class="fil10" d="M76.05 56.8l0.07 -4.15 -0.72 -0.07 -12.82 0.02 -0.93 0.04c0.78,0.53 12.7,3.85 14.4,4.16z"/>
     <path class="fil9" d="M76.67 64.62c0.18,-0.69 0.07,-0.95 -0.12,-1.61 -3.55,-0.73 -17.4,-4.96 -19.15,-4.96 -0.22,1.89 0.18,1.43 4.01,2.5 2.06,0.58 14.19,3.99 15.26,4.07z"/>
     <path class="fil10" d="M58.58 57.16l17.51 4.72c0.01,-1.48 -0.36,-1.05 -3.83,-2.07 -2.42,-0.72 -12.68,-3.86 -13.69,-3.89l0.01 1.24z"/>
     <path class="fil9" d="M77 56.06l4.03 0.57c4.23,0.37 28.41,2.74 29.97,2.52 -0.55,-0.83 -2.2,-0.66 -3.88,-0.81l-27.79 -2.4c-0.35,-0.03 -0.79,-0.1 -1.13,-0.12 -1.11,-0.07 -0.95,0.05 -1.2,0.24z"/>
     <path class="fil10" d="M76.11 66.66l0 -1.03 -17.52 -4.81c-0.02,1.35 0.2,1.12 1.41,1.44l16.11 4.4z"/>
     <path class="fil9" d="M122.37 59.66c0.28,0.56 0.62,0.39 1.47,0.44 4.27,0.29 23.39,2.25 24.26,1.76 -0.2,-0.29 0.05,-0.1 -0.32,-0.3l-24.87 -2.06c-0.05,0 -0.11,0.01 -0.16,0.01l-0.26 0.09c-0.03,-0.04 -0.09,0.04 -0.12,0.06z"/>
     <path class="fil6" d="M56.53 49.97c2.11,1.14 -0.11,1.33 4.78,1.33 2.08,0 4.14,-0.13 6.2,-0.11 2.07,0.02 4.11,0.11 6.2,0.11 3.02,0 2.88,0.04 4.72,-1.6 -3.88,0.67 -6.63,1.44 -10.92,1.48 -5.53,0.05 -9.7,-1.22 -10.98,-1.21z"/>
    </g>
   </g>
  </g>
 </g>
</svg>
