<?xml version="1.0" encoding="UTF-8"?>
<!DOCTYPE svg PUBLIC "-//W3C//DTD SVG 1.1//EN" "http://www.w3.org/Graphics/SVG/1.1/DTD/svg11.dtd">
<!-- Creator: CorelDRAW 2021 (64 Bit) -->
<svg xmlns="http://www.w3.org/2000/svg" xml:space="preserve" width="400px" height="400px" version="1.1" style="shape-rendering:geometricPrecision; text-rendering:geometricPrecision; image-rendering:optimizeQuality; fill-rule:evenodd; clip-rule:evenodd"
viewBox="0 0 2.53 2.53"
 xmlns:xlink="http://www.w3.org/1999/xlink"
 xmlns:xodm="http://www.corel.com/coreldraw/odm/2003">
 <defs>
  <style type="text/css">
   <![CDATA[
    .str0 {stroke:#B8B4B6;stroke-width:0.19;stroke-miterlimit:22.9256}
    .str8 {stroke:black;stroke-width:0.01;stroke-miterlimit:22.9256}
    .str9 {stroke:#6B4646;stroke-width:0.01;stroke-miterlimit:22.9256}
    .str3 {stroke:blue;stroke-width:0.05;stroke-miterlimit:22.9256}
    .str1 {stroke:#006633;stroke-width:0.05;stroke-miterlimit:22.9256}
    .str2 {stroke:red;stroke-width:0.05;stroke-miterlimit:22.9256}
    .str11 {stroke:#6B4646;stroke-width:0.03;stroke-miterlimit:22.9256}
    .str5 {stroke:#00AFEF;stroke-width:0.01;stroke-miterlimit:22.9256}
    .str7 {stroke:black;stroke-width:0.01;stroke-miterlimit:22.9256}
    .str10 {stroke:#6B4646;stroke-width:0.01;stroke-miterlimit:22.9256}
    .str4 {stroke:#FAAC04;stroke-width:0.01;stroke-miterlimit:22.9256}
    .str6 {stroke:yellow;stroke-width:0.01;stroke-miterlimit:22.9256}
    .fil13 {fill:none}
    .fil12 {fill:#D7CC75}
    .fil9 {fill:#FAA954}
    .fil10 {fill:#00AFEF}
    .fil15 {fill:#00A859}
    .fil1 {fill:#33CC66}
    .fil7 {fill:#6699FF}
    .fil5 {fill:#999999}
    .fil8 {fill:#CC9933}
    .fil14 {fill:#CCCC33}
    .fil4 {fill:#CCCCCC}
    .fil2 {fill:#E6E6E6}
    .fil6 {fill:#FF6600}
    .fil11 {fill:yellow}
    .fil0 {fill:white}
    .fil3 {fill:black;fill-rule:nonzero}
   ]]>
  </style>
 </defs>
 <g id="Camada_x0020_1">
  <metadata id="CorelCorpID_0Corel-Layer"/>
  <g id="_2069581854336">
   <path class="fil0 str0" d="M0.2 0.09l2.13 0c0.06,0 0.1,0.06 0.1,0.12l0 2.11c0,0.06 -0.04,0.11 -0.1,0.11l-2.13 0c-0.06,0 -0.1,-0.05 -0.1,-0.11 0,-0.26 -0.01,-2.04 0,-2.13 0,-0.05 0.06,-0.1 0.1,-0.1z"/>
   <g>
    <g>
     <path class="fil1 str1" d="M1.36 1.63l0 0 0.35 -0.39 0.1 0.1c0,-0.01 0,-0.03 0,-0.05 0,0 0,0 0.01,0 0.03,0 0.05,0 0.07,0 0.02,-0.01 0.02,-0.01 0.02,0l0 0.16 0.15 0.19 -0.09 0c-0.02,0 -0.02,-0.01 -0.02,0.01l0 0.3 -0.48 0c0,-0.1 0,-0.2 0,-0.3 0,-0.01 0,-0.02 -0.02,-0.02 -0.03,0 -0.06,0 -0.09,0z"/>
     <g>
      <g>
       <polygon class="fil2" points="1.9,1.7 1.77,1.7 1.77,1.94 1.9,1.94 "/>
       <path id="_1" class="fil3" d="M1.77 1.69l0.13 0 0 0.01 -0.13 0 0 0 0 -0.01zm0 0.01l0 -0.01 0 0 0 0.01zm0 0.24l0 -0.24 0.01 0 0 0.24 -0.01 0.01 0 -0.01zm0 0.01l0 0 0 -0.01 0 0.01zm0.13 0l-0.13 0 0 -0.01 0.13 0 0.01 0 -0.01 0.01zm0.01 -0.01l0 0.01 -0.01 0 0.01 -0.01zm0 -0.24l0 0.24 -0.01 0 0 -0.24 0 -0.01 0.01 0.01zm-0.01 -0.01l0.01 0 0 0.01 -0.01 -0.01z"/>
      </g>
      <g>
       <polygon class="fil4" points="1.66,1.69 1.53,1.69 1.53,1.81 1.66,1.81 "/>
       <path id="_1_0" class="fil3" d="M1.53 1.68l0.13 0 0 0.02 -0.13 0 -0.01 -0.01 0.01 -0.01zm-0.01 0.01l0 -0.01 0.01 0 -0.01 0.01zm0 0.12l0 -0.12 0.01 0 0 0.12 0 0.01 -0.01 -0.01zm0.01 0.01l-0.01 0 0 -0.01 0.01 0.01zm0.13 0l-0.13 0 0 -0.01 0.13 0 0.01 0 -0.01 0.01zm0.01 -0.01l0 0.01 -0.01 0 0.01 -0.01zm0 -0.12l0 0.12 -0.02 0 0 -0.12 0.01 -0.01 0.01 0.01zm-0.01 -0.01l0.01 0 0 0.01 -0.01 -0.01z"/>
      </g>
      <g>
       <polygon class="fil5" points="1.64,1.46 1.78,1.46 1.78,1.51 1.64,1.51 "/>
       <path id="_1_1" class="fil3" d="M1.78 1.47l-0.14 0 0 -0.02 0.14 0 0 0.01 0 0.01zm0 -0.02l0 0 0 0.01 0 -0.01zm-0.01 0.06l0 -0.05 0.01 0 0 0.05 0 0.01 -0.01 -0.01zm0.01 0l0 0.01 0 0 0 -0.01zm-0.14 0l0.14 0 0 0.01 -0.14 0 0 -0.01 0 0zm0 0.01l0 0 0 -0.01 0 0.01zm0.01 -0.06l0 0.05 -0.01 0 0 -0.05 0 -0.01 0.01 0.01zm-0.01 0l0 -0.01 0 0 0 0.01z"/>
      </g>
     </g>
    </g>
    <g>
     <path class="fil6 str2" d="M0.28 1.63l0.01 0 0.35 -0.39 0.1 0.1c0,-0.01 0,-0.03 0,-0.05 0,0 0,0 0.01,0 0.02,0 0.05,0 0.07,0 0.02,-0.01 0.01,-0.01 0.02,0l0 0.16 0.15 0.19 -0.1 0c-0.01,0 -0.01,-0.01 -0.01,0.01l0 0.3 -0.48 0c0,-0.1 0,-0.2 0,-0.3 0,-0.01 0,-0.02 -0.02,-0.02 -0.03,0 -0.06,0 -0.1,0z"/>
     <g id="_2069581837056">
      <g>
       <polygon class="fil2" points="0.46,1.7 0.59,1.7 0.59,1.94 0.46,1.94 "/>
       <path id="_1_2" class="fil3" d="M0.59 1.7l-0.13 0 0 -0.01 0.13 0 0.01 0.01 -0.01 0zm0 -0.01l0.01 0 0 0.01 -0.01 -0.01zm-0.01 0.25l0 -0.24 0.02 0 0 0.24 -0.01 0.01 -0.01 -0.01zm0.02 0l0 0.01 -0.01 0 0.01 -0.01zm-0.14 0l0.13 0 0 0.01 -0.13 0 -0.01 -0.01 0.01 0zm0 0.01l-0.01 0 0 -0.01 0.01 0.01zm0 -0.25l0 0.24 -0.01 0 0 -0.24 0.01 -0.01 0 0.01zm-0.01 0l0 -0.01 0.01 0 -0.01 0.01z"/>
      </g>
      <g>
       <polygon class="fil4" points="0.7,1.69 0.84,1.69 0.84,1.81 0.7,1.81 "/>
       <path id="_1_3" class="fil3" d="M0.84 1.7l-0.14 0 0 -0.02 0.14 0 0 0.01 0 0.01zm0 -0.02l0 0 0 0.01 0 -0.01zm-0.01 0.13l0 -0.12 0.01 0 0 0.12 0 0.01 -0.01 -0.01zm0.01 0l0 0.01 0 0 0 -0.01zm-0.14 0l0.14 0 0 0.01 -0.14 0 -0.01 -0.01 0.01 0zm0 0.01l-0.01 0 0 -0.01 0.01 0.01zm0.01 -0.13l0 0.12 -0.02 0 0 -0.12 0.01 -0.01 0.01 0.01zm-0.02 0l0 -0.01 0.01 0 -0.01 0.01z"/>
      </g>
      <g>
       <polygon class="fil5" points="0.58,1.46 0.72,1.46 0.72,1.51 0.58,1.51 "/>
       <path id="_1_4" class="fil3" d="M0.72 1.46l-0.14 0 0 -0.01 0.14 0 0 0.01 0 0zm0 -0.01l0 0 0 0.01 0 -0.01zm-0.01 0.06l0 -0.05 0.01 0 0 0.05 0 0.01 -0.01 -0.01zm0.01 0l0 0.01 0 0 0 -0.01zm-0.14 -0.01l0.14 0 0 0.02 -0.14 0 0 -0.01 0 -0.01zm0 0.02l0 0 0 -0.01 0 0.01zm0.01 -0.06l0 0.05 -0.01 0 0 -0.05 0 -0.01 0.01 0.01zm-0.01 0l0 -0.01 0 0 0 0.01z"/>
      </g>
     </g>
    </g>
    <g>
     <path class="fil7 str3" d="M0.81 1.89l0 0 0.35 -0.39 0.1 0.1c0,-0.01 0,-0.03 0,-0.05 0,-0.01 0,-0.01 0.01,-0.01 0.03,0 0.05,0 0.07,0 0.02,0 0.02,0 0.02,0.01l0 0.16 0.15 0.19 -0.09 0c-0.02,0 -0.02,-0.01 -0.02,0.01l0 0.3 -0.48 0c0,-0.1 0,-0.2 0,-0.3 0,-0.02 0,-0.02 -0.02,-0.02 -0.03,0 -0.06,0 -0.09,0z"/>
     <g>
      <g>
       <polygon class="fil2" points="0.98,1.95 1.11,1.95 1.11,2.2 0.98,2.2 "/>
       <path id="_1_5" class="fil3" d="M1.11 1.96l-0.13 0 0 -0.01 0.13 0 0.01 0 -0.01 0.01zm0 -0.01l0.01 0 0 0 -0.01 0zm-0.01 0.25l0 -0.25 0.02 0 0 0.25 -0.01 0.01 -0.01 -0.01zm0.02 0l0 0.01 -0.01 0 0.01 -0.01zm-0.14 0l0.13 0 0 0.01 -0.13 0 -0.01 -0.01 0.01 0zm0 0.01l-0.01 0 0 -0.01 0.01 0.01zm0 -0.26l0 0.25 -0.01 0 0 -0.25 0.01 0 0 0zm-0.01 0l0 0 0.01 0 -0.01 0z"/>
      </g>
      <g>
       <polygon class="fil4" points="1.22,1.95 1.36,1.95 1.36,2.07 1.22,2.07 "/>
       <path id="_1_6" class="fil3" d="M1.36 1.95l-0.14 0 0 -0.01 0.14 0 0 0.01 0 0zm0 -0.01l0 0 0 0.01 0 -0.01zm-0.01 0.13l0 -0.12 0.01 0 0 0.12 0 0.01 -0.01 -0.01zm0.01 0l0 0.01 0 0 0 -0.01zm-0.14 -0.01l0.14 0 0 0.02 -0.14 0 -0.01 -0.01 0.01 -0.01zm0 0.02l-0.01 0 0 -0.01 0.01 0.01zm0.01 -0.13l0 0.12 -0.02 0 0 -0.12 0.01 -0.01 0.01 0.01zm-0.02 0l0 -0.01 0.01 0 -0.01 0.01z"/>
      </g>
      <g>
       <polygon class="fil5" points="1.09,1.71 1.22,1.71 1.22,1.76 1.09,1.76 "/>
       <path id="_1_7" class="fil3" d="M1.22 1.72l-0.13 0 0 -0.02 0.13 0 0.01 0.01 -0.01 0.01zm0 -0.02l0.01 0 0 0.01 -0.01 -0.01zm0 0.06l0 -0.05 0.01 0 0 0.05 -0.01 0.01 0 -0.01zm0.01 0l0 0.01 -0.01 0 0.01 -0.01zm-0.14 0l0.13 0 0 0.01 -0.13 0 -0.01 -0.01 0.01 0zm0 0.01l-0.01 0 0 -0.01 0.01 0.01zm0.01 -0.06l0 0.05 -0.02 0 0 -0.05 0.01 -0.01 0.01 0.01zm-0.02 0l0 -0.01 0.01 0 -0.01 0.01z"/>
      </g>
     </g>
    </g>
    <g>
     <polygon class="fil8" points="0.89,1 1.46,1 1.46,1.47 0.89,1.47 "/>
     <path id="_1_8" class="fil3" d="M1.46 1.01l-0.57 0 0 -0.02 0.57 0 0.01 0.01 -0.01 0.01zm0 -0.02l0.01 0 0 0.01 -0.01 -0.01zm-0.01 0.48l0 -0.47 0.02 0 0 0.47 -0.01 0.01 -0.01 -0.01zm0.02 0l0 0.01 -0.01 0 0.01 -0.01zm-0.58 -0.01l0.57 0 0 0.02 -0.57 0 0 -0.01 0 -0.01zm0 0.02l0 0 0 -0.01 0 0.01zm0.01 -0.48l0 0.47 -0.01 0 0 -0.47 0 -0.01 0.01 0.01zm-0.01 0l0 -0.01 0 0 0 0.01z"/>
    </g>
    <path class="fil9 str4" d="M1.11 1.2l0.06 0 0 -0.01 -0.04 -0.03c-0.01,0.01 -0.01,0.02 -0.02,0.04z"/>
    <path class="fil9 str4" d="M1.25 1.2l-0.05 0 0 -0.01 0.03 -0.03c0.01,0.01 0.02,0.02 0.02,0.04z"/>
    <path class="fil10 str5" d="M1.14 1.15l0.03 0.04 0.01 -0.01 0 -0.05c-0.02,0 -0.03,0.01 -0.04,0.02z"/>
    <path class="fil9 str4" d="M1.11 1.2l0.06 0 0 -0.01 -0.04 -0.03c-0.01,0.01 -0.01,0.02 -0.02,0.04z"/>
    <path class="fil11 str6" d="M1.19 1.13l0 0.05 0 0.01 0.04 -0.04c-0.01,-0.01 -0.03,-0.02 -0.04,-0.02z"/>
    <path class="fil12 str7" d="M1.11 1.2l0 0.2 0.14 0c0,-0.07 0,-0.12 0,-0.2l-0.14 0z"/>
    <path class="fil13 str8" d="M1.11 1.2l0 0.2 0.15 0 0 -0.2m-0.08 -0.01l0 -0.06m-0.01 0.06l-0.04 -0.04m0.06 0.04l0.04 -0.04m-0.06 0.05c0,-0.02 0.03,-0.02 0.03,0m-0.09 0l0.15 0m-0.15 0c0.01,-0.04 0.03,-0.07 0.07,-0.07 0.05,0.01 0.07,0.03 0.08,0.07"/>
    <line class="fil13 str7" x1="1.12" y1="1.39" x2="1.25" y2= "1.39" />
    <line class="fil13 str8" x1="1.18" y1="1.39" x2="1.18" y2= "1.2" />
    <line class="fil13 str8" x1="1.2" y1="1.39" x2="1.2" y2= "1.2" />
    <line class="fil13 str8" x1="1.16" y1="1.39" x2="1.16" y2= "1.2" />
    <path class="fil9 str4" d="M0.92 1.05l0.05 0 0.01 -0.01 -0.04 -0.02c-0.01,0.01 -0.02,0.02 -0.02,0.03z"/>
    <path class="fil9 str4" d="M1.06 1.05l-0.05 0 -0.01 -0.01 0.04 -0.02c0.01,0.01 0.02,0.02 0.02,0.03z"/>
    <path class="fil10 str5" d="M0.94 1.02l0.04 0.02 0.01 0 0 -0.03c-0.02,0 -0.04,0 -0.05,0.01z"/>
    <path class="fil9 str4" d="M0.92 1.05l0.05 0 0.01 -0.01 -0.04 -0.02c-0.01,0.01 -0.02,0.02 -0.02,0.03z"/>
    <path class="fil11 str6" d="M1 1.01l-0.01 0.03 0.01 0 0.04 -0.02c-0.01,0 -0.03,-0.01 -0.04,-0.01z"/>
    <path class="fil12 str7" d="M0.92 1.05l0 0.1 0.14 0c0,-0.03 0,-0.06 0,-0.1l-0.14 0z"/>
    <path class="fil13 str8" d="M0.92 1.05l0 0.1 0.14 0 0 -0.1m-0.07 -0.01l0 -0.03m-0.01 0.03l-0.04 -0.02m0.06 0.02l0.04 -0.02m-0.07 0.03c0.01,-0.01 0.03,-0.01 0.03,0m-0.08 0l0.14 0m-0.14 0c0,-0.02 0.03,-0.04 0.07,-0.04 0.05,0 0.07,0.02 0.07,0.04"/>
    <line class="fil13 str7" x1="0.92" y1="1.15" x2="1.06" y2= "1.15" />
    <line class="fil13 str8" x1="0.99" y1="1.15" x2="0.99" y2= "1.05" />
    <line class="fil13 str8" x1="1" y1="1.15" x2="1" y2= "1.05" />
    <line class="fil13 str8" x1="0.97" y1="1.15" x2="0.97" y2= "1.05" />
    <polygon class="fil14 str9" points="1.04,1.47 1.04,1.45 1.32,1.45 1.32,1.47 "/>
    <polyline class="fil13 str10" points="1.04,1.45 1.06,1.44 1.3,1.44 1.32,1.45 "/>
    <polygon class="fil14 str9" points="1.06,1.44 1.06,1.42 1.3,1.42 1.3,1.44 "/>
    <polyline class="fil13 str10" points="1.06,1.42 1.07,1.41 1.28,1.41 1.3,1.42 "/>
    <polygon class="fil14 str9" points="1.07,1.41 1.07,1.39 1.28,1.39 1.28,1.41 "/>
    <path class="fil9 str4" d="M1.29 1.05l0.05 0 0 -0.01 -0.04 -0.02c-0.01,0.01 -0.01,0.02 -0.01,0.03z"/>
    <path class="fil9 str4" d="M1.42 1.05l-0.05 0 0 -0.01 0.04 -0.02c0.01,0.01 0.01,0.02 0.01,0.03z"/>
    <path class="fil10 str5" d="M1.31 1.02l0.03 0.02 0.01 0 0 -0.03c-0.01,0 -0.03,0 -0.04,0.01z"/>
    <path class="fil9 str4" d="M1.29 1.05l0.05 0 0 -0.01 -0.04 -0.02c-0.01,0.01 -0.01,0.02 -0.01,0.03z"/>
    <path class="fil11 str6" d="M1.36 1.01l0 0.03 0.01 0 0.03 -0.02c-0.01,0 -0.02,-0.01 -0.04,-0.01z"/>
    <path class="fil12 str7" d="M1.29 1.05l-0.01 0.1 0.14 0c0,-0.03 0,-0.06 0,-0.1l-0.13 0z"/>
    <path class="fil13 str8" d="M1.28 1.05l0 0.1 0.15 0 0 -0.1m-0.08 -0.01l0 -0.03m-0.01 0.03l-0.04 -0.02m0.06 0.02l0.05 -0.02m-0.07 0.03c0,-0.01 0.03,-0.01 0.03,0m-0.09 0l0.15 0m-0.15 0c0.01,-0.02 0.03,-0.04 0.08,-0.04 0.04,0 0.06,0.02 0.07,0.04"/>
    <line class="fil13 str7" x1="1.29" y1="1.15" x2="1.43" y2= "1.15" />
    <line class="fil13 str8" x1="1.35" y1="1.15" x2="1.35" y2= "1.05" />
    <line class="fil13 str8" x1="1.37" y1="1.15" x2="1.37" y2= "1.05" />
    <line class="fil13 str8" x1="1.33" y1="1.15" x2="1.33" y2= "1.05" />
    <rect class="fil5 str11" transform="matrix(4.60777E-15 0.0870821 -0.0509836 6.75854E-16 1.28978 0.28334)" width="0.31" height="4.28"/>
    <rect class="fil5 str11" x="1.17" y="0.19" width="0.03" height="0.33"/>
    <g>
     <polygon class="fil8" points="0.99,0.99 0.99,0.52 1.35,0.52 1.35,0.74 1.35,0.88 1.35,0.99 "/>
     <path id="_1_9" class="fil3" d="M1 0.52l0 0.47 -0.02 0 0 -0.47 0.01 -0.01 0.01 0.01zm-0.02 0l0 -0.01 0.01 0 -0.01 0.01zm0.37 0.01l-0.36 0 0 -0.02 0.36 0 0.01 0.01 -0.01 0.01zm0 -0.02l0.01 0 0 0.01 -0.01 -0.01zm-0.01 0.23l0 -0.22 0.02 0 0 0.22 0 0 -0.02 0zm0 0.14l0 -0.14 0.02 0 0 0.14 0 0 -0.02 0zm0 0.11l0 -0.11 0.02 0 0 0.11 -0.01 0.01 -0.01 -0.01zm0.02 0l0 0.01 -0.01 0 0.01 -0.01zm-0.37 0l0.36 0 0 0.01 -0.36 0 -0.01 -0.01 0.01 0zm0 0.01l-0.01 0 0 -0.01 0.01 0.01z"/>
    </g>
    <path class="fil9 str4" d="M1.12 0.78l0.04 0 0 0 -0.03 -0.04c0,0.01 -0.01,0.03 -0.01,0.04z"/>
    <path class="fil9 str4" d="M1.22 0.78l-0.04 0 0 0 0.03 -0.04c0.01,0.01 0.01,0.03 0.01,0.04z"/>
    <path class="fil10 str5" d="M1.14 0.73l0.02 0.04 0.01 0 0 -0.05c-0.01,0 -0.02,0 -0.03,0.01z"/>
    <path class="fil9 str4" d="M1.12 0.78l0.04 0 0 0 -0.03 -0.04c0,0.01 -0.01,0.03 -0.01,0.04z"/>
    <path class="fil11 str6" d="M1.18 0.72l-0.01 0.05 0.01 0 0.03 -0.03c-0.01,-0.01 -0.02,-0.02 -0.03,-0.02z"/>
    <path class="fil12 str7" d="M1.12 0.79l0 0.19 0.1 0c0,-0.06 0,-0.12 0,-0.19l-0.1 0z"/>
    <path class="fil13 str8" d="M1.12 0.79l0 0.2 0.1 0 0.01 -0.2m-0.06 -0.02l0 -0.05m-0.01 0.06l-0.03 -0.04m0.05 0.04l0.03 -0.04m-0.05 0.05c0,-0.02 0.02,-0.03 0.02,0m-0.06 0l0.11 0m-0.11 0c0,-0.05 0.02,-0.07 0.05,-0.07 0.04,0 0.05,0.03 0.06,0.07"/>
    <line class="fil13 str7" x1="1.12" y1="0.98" x2="1.22" y2= "0.98" />
    <line class="fil13 str8" x1="1.17" y1="0.98" x2="1.17" y2= "0.79" />
    <line class="fil13 str8" x1="1.18" y1="0.98" x2="1.18" y2= "0.79" />
    <line class="fil13 str8" x1="1.16" y1="0.98" x2="1.16" y2= "0.79" />
    <path class="fil15 str5" d="M1.25 0.61l-0.06 0 0 -0.01 0.04 -0.03c0.01,0 0.02,0.02 0.02,0.04z"/>
    <path class="fil10 str5" d="M1.13 0.56l0.04 0.04 0.01 0 0 -0.06c-0.02,0 -0.04,0.01 -0.05,0.02z"/>
    <path class="fil11 str6" d="M1.18 0.54l0 0.06 0.01 0 0.04 -0.04c-0.01,-0.01 -0.04,-0.02 -0.05,-0.02z"/>
    <path class="fil15 str5" d="M1.11 0.61l0.05 0 0.01 0.01 -0.04 0.04c-0.01,-0.01 -0.02,-0.03 -0.02,-0.05z"/>
    <path class="fil10 str5" d="M1.23 0.66l-0.04 -0.04 -0.01 0.01 0 0.05c0.01,0.01 0.03,0 0.05,-0.02z"/>
    <path class="fil9 str4" d="M1.11 0.61l0.05 0 0.01 -0.01 -0.04 -0.04c-0.01,0.02 -0.02,0.04 -0.02,0.05z"/>
    <path class="fil11 str6" d="M1.18 0.68l0 -0.05 -0.01 -0.01 -0.04 0.04c0.01,0.01 0.03,0.02 0.05,0.02z"/>
    <path class="fil9 str4" d="M1.25 0.62l-0.06 -0.01 0 0.02 0.04 0.03c0.01,-0.01 0.02,-0.03 0.02,-0.04z"/>
    <path class="fil13 str9" d="M1.18 0.54c0.03,0 0.07,0.03 0.07,0.07 0,0.04 -0.03,0.07 -0.07,0.07 -0.04,0 -0.07,-0.03 -0.07,-0.06 0,-0.04 0.03,-0.07 0.07,-0.08zm0 0.06c0.01,0 0.01,0.01 0.01,0.01 0,0.01 0,0.02 -0.01,0.02 -0.01,0 -0.02,-0.01 -0.02,-0.02 0,0 0.01,-0.01 0.02,-0.01zm0.01 0l0.04 -0.03m-0.06 0.03l-0.04 -0.04m0.05 0.04l0 -0.06m-0.02 0.07l-0.05 0m0.07 0.07l0 -0.05m0.05 0.03l-0.04 -0.04m0.06 -0.01l-0.06 0m-0.06 0.05l0.04 -0.04"/>
   </g>
  </g>
 </g>
</svg>
