<?xml version="1.0" encoding="UTF-8"?>
<!DOCTYPE svg PUBLIC "-//W3C//DTD SVG 1.1//EN" "http://www.w3.org/Graphics/SVG/1.1/DTD/svg11.dtd">
<!-- Creator: CorelDRAW 2021 (64 Bit) -->
<svg xmlns="http://www.w3.org/2000/svg" xml:space="preserve" width="330px" height="330px" version="1.1" style="shape-rendering:geometricPrecision; text-rendering:geometricPrecision; image-rendering:optimizeQuality; fill-rule:evenodd; clip-rule:evenodd"
viewBox="0 0 166.37 166.37"
 xmlns:xlink="http://www.w3.org/1999/xlink"
 xmlns:xodm="http://www.corel.com/coreldraw/odm/2003">
 <defs>
  <style type="text/css">
   <![CDATA[
    .str1 {stroke:black;stroke-width:5.04;stroke-miterlimit:22.9256}
    .str0 {stroke:#C4C4C4;stroke-width:15.12;stroke-miterlimit:22.9256}
    .str2 {stroke:black;stroke-width:0.5;stroke-miterlimit:22.9256}
    .fil4 {fill:black}
    .fil1 {fill:#00FA46}
    .fil2 {fill:#282829}
    .fil3 {fill:red}
    .fil0 {fill:white}
   ]]>
  </style>
 </defs>
 <g id="Camada_x0020_1">
  <metadata id="CorelCorpID_0Corel-Layer"/>
  <g id="_2713504612896">
   <circle class="fil0 str0" cx="83.19" cy="83.19" r="75.62"/>
   <g>
    <path class="fil1 str1" d="M54.2 120.89l0.02 -13.51 6.17 0.03c0,1.71 -0.27,12.86 0.22,13.39 -0.07,1.81 1.07,3.86 1.9,4.72 1.23,1.27 2.83,1.53 5.23,1.52l40.69 0c3.22,0 10.56,0.65 12.61,-0.93 3.15,-2.42 2.81,-5.94 2.81,-10.71l0 -27.22c0.15,0 1.45,0.02 3.57,0.02l3.15 -0.01c0,0 -0.06,29.32 -0.43,33.25 -0.5,5.21 -3.19,8.51 -6.32,10.43 -3.61,2.24 -10.41,1.53 -15.18,1.53 -11.16,0 -22.33,0 -33.49,0 -5.02,0 -11.17,0.77 -14.99,-1.72 -2.68,-1.75 -6.19,-5.86 -5.96,-10.79l0 0z"/>
    <g>
     <path class="fil2" d="M100.34 63.18l1.29 1.07c-0.18,-0.78 -0.37,-1.09 -0.96,-1.69 -2.15,-4.68 -9.54,-9.07 -14.06,-11.35 -3.01,-1.53 -15.84,-6.05 -19.43,-5.59l-1.66 7.82c9.65,1.19 18.94,1.23 27.77,5.55 3.84,1.87 5.04,3.14 7.05,4.19zm-42.16 -2.9l4.84 -21.82 -24.27 8.97c0.78,0.78 16.99,11.63 19.43,12.85l0 0zm10.33 -20.31c9.27,2.27 10.27,1.75 19.83,5.9 14.15,6.14 18.42,14.32 23.62,27.74 1.43,3.68 6.13,15.71 6.97,18.67 -0.05,-0.05 -0.12,-0.11 -0.16,-0.15l-9.82 -12.16c-2.46,-3.09 -4.94,-6.16 -7.88,-8.79 -0.53,-0.47 -0.84,-0.87 -1.4,-1.37 -4.08,-3.65 -9.89,-6.82 -16.28,-8.42 -3.49,-0.87 -15.81,-2.73 -19.23,-2.36l-2.42 10.28 -34.27 -22.49c-0.6,-0.41 -0.59,-0.42 -0.95,-0.78l44.25 -16.26 -2.26 10.19 0 0z"/>
     <path class="fil3" d="M58.02 61.55c-2.49,-1.36 -19.08,-13.42 -19.89,-14.29l25.42 -9.85 -5.53 24.14 0 0z"/>
     <path class="fil3" d="M102.03 64.88l0.52 0.81c-2.07,-1.17 -4.67,-3.5 -8.6,-5.59 -9.03,-4.79 -18.54,-4.84 -28.41,-6.16l1.69 -8.69c3.68,-0.51 16.81,4.52 19.89,6.21 2.31,1.27 5.37,2.87 8.12,5.06 2.74,2.18 4.87,4.09 6.79,8.36z"/>
    </g>
    <circle class="fil4 str2" cx="109.87" cy="115.39" r="3.57"/>
    <circle class="fil4 str2" cx="74.21" cy="115.39" r="3.57"/>
    <circle class="fil4 str2" cx="92.04" cy="115.39" r="3.57"/>
   </g>
  </g>
 </g>
</svg>
