<?xml version="1.0" encoding="UTF-8"?>
<!DOCTYPE svg PUBLIC "-//W3C//DTD SVG 1.1//EN" "http://www.w3.org/Graphics/SVG/1.1/DTD/svg11.dtd">
<!-- Creator: CorelDRAW 2021 (64 Bit) -->
<svg xmlns="http://www.w3.org/2000/svg" xml:space="preserve" width="400px" height="400px" version="1.1" style="shape-rendering:geometricPrecision; text-rendering:geometricPrecision; image-rendering:optimizeQuality; fill-rule:evenodd; clip-rule:evenodd"
viewBox="0 0 178.62 178.62"
 xmlns:xlink="http://www.w3.org/1999/xlink"
 xmlns:xodm="http://www.corel.com/coreldraw/odm/2003">
 <defs>
  <style type="text/css">
   <![CDATA[
    .str2 {stroke:#AEA19E;stroke-width:7.14;stroke-miterlimit:22.9256;stroke-opacity:0.949020}
    .str0 {stroke:#C4C4C4;stroke-width:13.4;stroke-miterlimit:22.9256}
    .str1 {stroke:white;stroke-width:0.89;stroke-miterlimit:22.9256}
    .str3 {stroke:black;stroke-width:5.36;stroke-miterlimit:22.9256}
    .fil4 {fill:none}
    .fil1 {fill:#E6E7E8}
    .fil8 {fill:#FFF212}
    .fil9 {fill:aqua}
    .fil7 {fill:red}
    .fil0 {fill:white}
    .fil5 {fill:#373435;fill-rule:nonzero}
    .fil6 {fill:black;fill-rule:nonzero}
    .fil2 {fill:#333333;fill-rule:nonzero}
    .fil3 {fill:#FEFEFE;fill-rule:nonzero;fill-opacity:0.949020}
   ]]>
  </style>
 </defs>
 <g id="Camada_x0020_1">
  <metadata id="CorelCorpID_0Corel-Layer"/>
  <g id="_2069524441840">
   <circle class="fil0 str0" cx="89.31" cy="89.31" r="82.61"/>
   <g>
    <g>
     <rect class="fil1 str1" x="44.82" y="98.83" width="17.67" height="41.61"/>
     <path class="fil2" d="M91.81 143.11c-3.39,0 -6.73,-1.28 -9.98,-2.51 -3.58,-1.36 -7.26,-2.77 -10.93,-2.43l-9.02 0.82 0 -35.84 4.91 -0.45c3.06,-0.26 5.62,0.94 8.09,2.12 2.32,1.11 4.52,2.17 7.04,1.94l16.17 -3c5.78,-1.01 8.98,2.41 10.92,5.54l17.65 -8.4c6.66,-3.06 14.14,0.01 18.63,7.64 1.18,2 0.52,4.66 -1.46,5.93 -2.29,1.46 -4.57,2.92 -6.82,4.37 -19.72,12.64 -36.75,23.56 -44.03,24.22 -0.39,0.03 -0.78,0.05 -1.17,0.05zm-19.78 -7.47c3.71,0 7.23,1.34 10.64,2.63 3.52,1.35 6.86,2.61 10.09,2.32 6.71,-0.6 24.32,-11.9 42.96,-23.85 2.26,-1.45 4.54,-2.91 6.83,-4.37 0.87,-0.56 1.17,-1.7 0.67,-2.56 -3.83,-6.5 -10.08,-9.17 -15.55,-6.65l-19.64 9.34c-0.04,-1.31 -1.01,-2.83 -1.55,-3.49 -1.81,-2.2 -5.32,-3.28 -7.97,-2.81l-16.28 3.02c-3.27,0.27 -5.86,-0.96 -8.37,-2.15 -2.28,-1.09 -4.44,-2.12 -6.86,-1.9l-2.7 0.25 0 30.86 6.39 -0.58c0.45,-0.04 0.9,-0.06 1.34,-0.06z"/>
     <path class="fil3 str2" d="M60.19 143.11l-13.82 0c-2.26,0 -4.1,-1.89 -4.1,-4.21l0 -38.01c0,-2.32 1.84,-4.2 4.1,-4.2l13.82 0c2.26,0 4.11,1.88 4.11,4.2l0 38.01c0,2.32 -1.85,4.21 -4.11,4.21zm-13.82 -43.94c-0.93,0 -1.68,0.77 -1.68,1.72l0 38.01c0,0.95 0.75,1.73 1.68,1.73l13.82 0c0.93,0 1.69,-0.78 1.69,-1.73l0 -38.01c0,-0.95 -0.76,-1.72 -1.69,-1.72l-13.82 0z"/>
     <path class="fil4 str3" d="M108.98 111.86c0.3,0.58 0.32,1.59 -0.35,2.7 -1.04,1.71 -3.44,3.03 -9.25,2.34 -4.31,-0.52 -9.47,0.51 -13.94,0.99"/>
    </g>
    <g>
     <g>
      <path class="fil5" d="M69.74 70.08c0.17,-0.18 0.31,-0.39 0.4,-0.63 0.2,-0.47 0.2,-1 0,-1.48 -0.59,-1.46 -0.04,-2.76 0.68,-3.5 0.71,-0.73 1.99,-1.3 3.42,-0.69 0.96,0.4 2.06,-0.07 2.46,-1.05l1.76 -4.36c0.19,-0.48 0.19,-1 0,-1.48 -0.2,-0.47 -0.56,-0.84 -1.02,-1.04 -1.43,-0.6 -1.94,-1.93 -1.94,-2.96 0,-1.04 0.5,-2.37 1.93,-2.97 0.96,-0.41 1.42,-1.54 1.02,-2.52l-1.77 -4.36c-0.19,-0.47 -0.56,-0.84 -1.02,-1.04 -0.47,-0.2 -0.98,-0.2 -1.44,0 -1.43,0.61 -2.71,0.04 -3.42,-0.69 -0.72,-0.73 -1.28,-2.04 -0.69,-3.5 0.19,-0.48 0.19,-1 0,-1.48 -0.19,-0.47 -0.55,-0.84 -1.02,-1.04l-4.26 -1.8c-0.96,-0.41 -2.06,0.06 -2.46,1.05 -0.59,1.46 -1.88,1.98 -2.9,1.98 -1.01,0 -2.3,-0.52 -2.9,-1.98 -0.4,-0.98 -1.5,-1.45 -2.46,-1.04l-4.25 1.81c-0.47,0.2 -0.83,0.57 -1.02,1.05 -0.2,0.47 -0.19,1 0,1.47 0.59,1.46 0.04,2.77 -0.68,3.5 0,0 0,0 0,0 -0.71,0.74 -1.99,1.31 -3.42,0.7 -0.46,-0.19 -0.97,-0.19 -1.44,0 -0.46,0.2 -0.83,0.57 -1.02,1.05l-1.76 4.36c-0.19,0.47 -0.19,1 0,1.47 0.2,0.48 0.56,0.85 1.03,1.05 1.42,0.6 1.93,1.92 1.93,2.96 0.01,1.04 -0.5,2.36 -1.93,2.97 -0.96,0.41 -1.42,1.54 -1.02,2.52l1.77 4.36c0.19,0.47 0.56,0.84 1.02,1.04 0.47,0.2 0.98,0.19 1.45,0 1.42,-0.61 2.7,-0.04 3.41,0.69 0.72,0.73 1.28,2.04 0.69,3.5l0 0c-0.2,0.48 -0.19,1 0,1.48 0.19,0.47 0.56,0.84 1.02,1.04l4.26 1.8c0.46,0.2 0.98,0.19 1.44,0 0.47,-0.2 0.83,-0.57 1.02,-1.05 0.59,-1.46 1.88,-1.98 2.9,-1.98 1.01,0 2.3,0.51 2.9,1.98 0.4,0.98 1.5,1.45 2.46,1.04l4.25 -1.81c0.24,-0.1 0.45,-0.24 0.62,-0.42zm-0.26 -6.98c-1.47,1.5 -1.89,3.66 -1.09,5.62l-4.25 1.79c-0.78,-1.95 -2.56,-3.17 -4.64,-3.17 -2.07,0 -3.85,1.22 -4.64,3.19l-4.23 -1.8c0.78,-1.96 0.36,-4.11 -1.1,-5.61 -1.47,-1.5 -3.58,-1.92 -5.49,-1.11l-1.75 -4.34c1.91,-0.8 3.1,-2.63 3.09,-4.75 0,-2.13 -1.19,-3.95 -3.11,-4.76l1.77 -4.34c1.9,0.82 4,0.39 5.47,-1.12 0,0 0,0 0,0 1.46,-1.5 1.88,-3.65 1.08,-5.61l4.25 -1.79c0.78,1.95 2.56,3.17 4.64,3.17 2.07,-0.01 3.85,-1.23 4.65,-3.19l4.24 1.8c-0.81,1.95 -0.38,4.1 1.08,5.6 1.47,1.5 3.58,1.93 5.49,1.11l1.75 4.35c-1.91,0.8 -3.1,2.62 -3.09,4.75 0,2.12 1.19,3.95 3.11,4.76l-1.77 4.34c-1.9,-0.82 -4,-0.39 -5.46,1.11z"/>
      <path class="fil5" d="M66.76 65.09c0.12,-0.12 0.22,-0.28 0.29,-0.44 0.14,-0.34 0.14,-0.71 0,-1.05 -0.42,-1.04 -0.03,-1.96 0.48,-2.48 0.51,-0.53 1.41,-0.93 2.42,-0.5 0.69,0.29 1.47,-0.05 1.75,-0.74l1.25 -3.1c0.14,-0.33 0.13,-0.71 0,-1.04 -0.14,-0.34 -0.4,-0.6 -0.73,-0.74 -1.01,-0.43 -1.37,-1.37 -1.37,-2.11 0,-0.73 0.36,-1.67 1.37,-2.1 0.68,-0.3 1,-1.1 0.72,-1.79l-1.25 -3.09c-0.14,-0.34 -0.4,-0.6 -0.73,-0.74 -0.33,-0.14 -0.69,-0.14 -1.02,0 -1.01,0.43 -1.92,0.03 -2.43,-0.49 -0.51,-0.52 -0.9,-1.45 -0.48,-2.49 0.13,-0.33 0.13,-0.71 0,-1.04 -0.14,-0.34 -0.4,-0.6 -0.73,-0.74l-3.02 -1.28c-0.68,-0.29 -1.46,0.05 -1.75,0.74 -0.42,1.04 -1.33,1.41 -2.05,1.41 -0.72,0 -1.64,-0.37 -2.06,-1.4 -0.28,-0.7 -1.07,-1.03 -1.75,-0.74l-3.02 1.28c-0.33,0.14 -0.58,0.4 -0.72,0.74 -0.14,0.34 -0.14,0.71 0,1.05 0.42,1.04 0.03,1.96 -0.48,2.48 0,0 0,0 0,0 -0.51,0.53 -1.41,0.93 -2.42,0.5 -0.33,-0.14 -0.7,-0.14 -1.03,0 -0.33,0.14 -0.58,0.4 -0.72,0.74l-1.25 3.1c-0.13,0.33 -0.13,0.71 0,1.04 0.14,0.34 0.4,0.6 0.73,0.74 1.01,0.43 1.37,1.37 1.37,2.11 0,0.73 -0.36,1.67 -1.37,2.1 -0.68,0.29 -1,1.1 -0.72,1.79l1.25 3.09c0.14,0.34 0.4,0.6 0.73,0.74 0.33,0.14 0.69,0.14 1.02,0 1.01,-0.43 1.92,-0.03 2.43,0.49 0.51,0.52 0.9,1.45 0.48,2.49l0 0c-0.13,0.33 -0.13,0.71 0,1.04 0.14,0.34 0.4,0.6 0.73,0.74l3.02 1.28c0.33,0.14 0.69,0.14 1.02,0 0.33,-0.14 0.59,-0.4 0.73,-0.74 0.42,-1.04 1.33,-1.41 2.05,-1.41 0.72,0 1.64,0.37 2.06,1.4 0.28,0.7 1.07,1.03 1.75,0.74l3.02 -1.28c0.16,-0.07 0.31,-0.17 0.43,-0.3zm-0.18 -4.95c-1.04,1.07 -1.34,2.59 -0.78,3.99l-3.01 1.27c-0.55,-1.39 -1.82,-2.25 -3.29,-2.25 -1.47,0 -2.74,0.87 -3.3,2.26l-3 -1.28c0.56,-1.39 0.26,-2.91 -0.78,-3.98 -1.04,-1.06 -2.54,-1.36 -3.89,-0.78l-1.25 -3.09c1.36,-0.57 2.2,-1.86 2.2,-3.37 0,-1.5 -0.85,-2.8 -2.21,-3.37l1.26 -3.08c1.34,0.58 2.84,0.27 3.88,-0.79 0,0 0,0 0,0 1.04,-1.07 1.33,-2.6 0.77,-3.99l3.01 -1.27c0.55,1.39 1.82,2.25 3.29,2.25 1.47,0 2.74,-0.87 3.3,-2.26l3.01 1.28c-0.57,1.38 -0.27,2.91 0.77,3.97 1.04,1.07 2.54,1.37 3.9,0.79l1.24 3.08c-1.36,0.57 -2.2,1.87 -2.2,3.37 0,1.51 0.85,2.8 2.21,3.38l-1.25 3.08c-1.35,-0.58 -2.84,-0.28 -3.88,0.79z"/>
      <g>
       <path class="fil6" d="M64.53 58.05c2.77,-2.84 2.77,-7.46 -0.01,-10.3 -2.78,-2.84 -7.3,-2.84 -10.07,0.01 -2.77,2.84 -2.77,7.46 0.01,10.3 2.78,2.84 7.3,2.84 10.07,-0.01zm-8.73 -8.92c2.03,-2.08 5.34,-2.09 7.38,-0.01 2.03,2.08 2.04,5.47 0,7.56 -2.03,2.08 -5.34,2.09 -7.38,0.01 -2.03,-2.08 -2.04,-5.47 0,-7.56z"/>
       <ellipse class="fil7" cx="59.49" cy="52.91" rx="5.18" ry="5.3"/>
      </g>
     </g>
     <g>
      <path class="fil5" d="M113.37 68.43c-0.17,-0.18 -0.31,-0.39 -0.41,-0.63 -0.19,-0.47 -0.19,-1 0,-1.47 0.6,-1.46 0.04,-2.77 -0.67,-3.5 -0.72,-0.74 -1.99,-1.31 -3.42,-0.7 -0.96,0.4 -2.07,-0.07 -2.46,-1.05l-1.76 -4.36c-0.19,-0.47 -0.19,-1 0,-1.47 0.19,-0.48 0.56,-0.85 1.02,-1.05 1.43,-0.6 1.94,-1.92 1.94,-2.96 0,-1.04 -0.5,-2.36 -1.93,-2.97 -0.96,-0.41 -1.42,-1.54 -1.02,-2.52l1.77 -4.36c0.19,-0.47 0.55,-0.84 1.02,-1.04 0.46,-0.2 0.98,-0.2 1.44,0 1.43,0.61 2.7,0.04 3.42,-0.69 0.72,-0.73 1.28,-2.04 0.69,-3.5 -0.2,-0.47 -0.2,-1 0,-1.47 0.19,-0.48 0.55,-0.85 1.02,-1.05l4.25 -1.8c0.96,-0.4 2.07,0.07 2.47,1.05 0.59,1.46 1.88,1.98 2.89,1.98 1.02,0.01 2.31,-0.51 2.9,-1.97 0.4,-0.99 1.51,-1.45 2.47,-1.05l4.25 1.81c0.47,0.2 0.83,0.57 1.02,1.05 0.19,0.47 0.19,1 0,1.48 -0.59,1.46 -0.04,2.76 0.68,3.5 0,0 0,0 0,0 0.71,0.73 1.99,1.3 3.41,0.7 0.47,-0.2 0.98,-0.2 1.45,0 0.46,0.19 0.82,0.57 1.02,1.04l1.75 4.36c0.2,0.48 0.2,1 0,1.48 -0.19,0.47 -0.55,0.84 -1.02,1.04 -1.43,0.6 -1.94,1.93 -1.94,2.96 0,1.04 0.51,2.37 1.94,2.97 0.96,0.41 1.41,1.54 1.01,2.52l-1.76 4.36c-0.2,0.47 -0.56,0.84 -1.02,1.04 -0.47,0.2 -0.98,0.2 -1.45,0 -1.42,-0.61 -2.7,-0.04 -3.42,0.69 -0.71,0.73 -1.27,2.04 -0.68,3.5l0 0c0.19,0.48 0.19,1 0,1.48 -0.19,0.47 -0.56,0.84 -1.02,1.04l-4.26 1.8c-0.46,0.2 -0.98,0.2 -1.44,0 -0.47,-0.2 -0.83,-0.57 -1.02,-1.05 -0.59,-1.46 -1.88,-1.98 -2.9,-1.98 -1.01,0 -2.31,0.52 -2.9,1.98 -0.4,0.98 -1.5,1.45 -2.46,1.04l-4.26 -1.81c-0.23,-0.1 -0.44,-0.24 -0.61,-0.42zm0.26 -6.98c1.47,1.51 1.88,3.66 1.09,5.62l4.24 1.79c0.78,-1.95 2.57,-3.17 4.64,-3.17 2.08,0.01 3.86,1.23 4.65,3.19l4.23 -1.8c-0.79,-1.96 -0.36,-4.11 1.1,-5.61 1.47,-1.5 3.58,-1.92 5.49,-1.11l1.75 -4.34c-1.91,-0.8 -3.1,-2.63 -3.1,-4.75 0.01,-2.12 1.2,-3.95 3.12,-4.76l-1.77 -4.34c-1.9,0.82 -4,0.39 -5.47,-1.11 0,0 0,0 0,0 -1.46,-1.51 -1.88,-3.66 -1.08,-5.62l-4.25 -1.79c-0.78,1.95 -2.56,3.17 -4.64,3.17 -2.07,0 -3.86,-1.23 -4.65,-3.19l-4.24 1.81c0.8,1.94 0.38,4.09 -1.09,5.6 -1.47,1.5 -3.57,1.92 -5.49,1.11l-1.74 4.34c1.9,0.8 3.09,2.63 3.09,4.75 0,2.12 -1.19,3.95 -3.11,4.76l1.76 4.34c1.9,-0.82 4.01,-0.39 5.47,1.11z"/>
      <path class="fil5" d="M116.35 63.44c-0.13,-0.12 -0.22,-0.27 -0.29,-0.44 -0.14,-0.34 -0.14,-0.71 0,-1.05 0.42,-1.04 0.03,-1.96 -0.48,-2.48 -0.51,-0.52 -1.41,-0.93 -2.43,-0.5 -0.68,0.29 -1.46,-0.05 -1.74,-0.74l-1.25 -3.09c-0.14,-0.34 -0.14,-0.71 0,-1.05 0.14,-0.34 0.39,-0.6 0.72,-0.74 1.02,-0.43 1.38,-1.37 1.38,-2.11 0,-0.73 -0.36,-1.67 -1.37,-2.1 -0.68,-0.29 -1.01,-1.09 -0.72,-1.79l1.25 -3.09c0.14,-0.34 0.39,-0.6 0.72,-0.74 0.34,-0.14 0.7,-0.14 1.03,0 1.01,0.43 1.92,0.03 2.43,-0.49 0.5,-0.52 0.9,-1.45 0.48,-2.48 -0.14,-0.34 -0.14,-0.71 0,-1.05 0.14,-0.34 0.4,-0.6 0.73,-0.74l3.02 -1.28c0.68,-0.29 1.46,0.05 1.74,0.74 0.42,1.04 1.34,1.41 2.06,1.41 0.72,0 1.64,-0.37 2.06,-1.4 0.28,-0.7 1.06,-1.03 1.75,-0.74l3.01 1.28c0.33,0.14 0.59,0.41 0.73,0.74 0.13,0.34 0.13,0.72 0,1.05 -0.42,1.04 -0.03,1.97 0.48,2.49 0,0 0,0 0,0 0.5,0.52 1.41,0.92 2.42,0.49 0.33,-0.14 0.7,-0.14 1.03,0 0.32,0.14 0.58,0.41 0.72,0.75l1.25 3.09c0.13,0.33 0.13,0.71 0,1.04 -0.14,0.34 -0.4,0.61 -0.73,0.75 -1.01,0.42 -1.37,1.36 -1.38,2.1 0,0.73 0.36,1.67 1.38,2.1 0.68,0.29 1,1.1 0.72,1.79l-1.26 3.09c-0.13,0.34 -0.39,0.6 -0.72,0.74 -0.33,0.14 -0.69,0.14 -1.02,0 -1.02,-0.43 -1.92,-0.03 -2.43,0.49 -0.51,0.52 -0.9,1.45 -0.48,2.49l0 0c0.13,0.33 0.13,0.71 -0.01,1.04 -0.13,0.34 -0.39,0.61 -0.72,0.74l-3.02 1.28c-0.33,0.14 -0.7,0.14 -1.03,0 -0.33,-0.14 -0.58,-0.4 -0.72,-0.74 -0.42,-1.04 -1.33,-1.41 -2.05,-1.41 -0.72,0 -1.64,0.37 -2.06,1.4 -0.29,0.7 -1.07,1.03 -1.75,0.74l-3.02 -1.28c-0.16,-0.07 -0.31,-0.17 -0.43,-0.3zm0.18 -4.95c1.04,1.07 1.34,2.6 0.77,3.99l3.02 1.27c0.55,-1.39 1.81,-2.25 3.29,-2.25 1.47,0 2.73,0.87 3.3,2.26l2.99 -1.28c-0.55,-1.39 -0.25,-2.91 0.79,-3.97 1.04,-1.07 2.53,-1.37 3.89,-0.79l1.24 -3.09c-1.35,-0.56 -2.2,-1.86 -2.19,-3.36 0,-1.51 0.84,-2.81 2.21,-3.38l-1.26 -3.08c-1.35,0.58 -2.84,0.28 -3.88,-0.79 0,0 0,0 0,0 -1.04,-1.07 -1.33,-2.6 -0.77,-3.99l-3.01 -1.27c-0.55,1.39 -1.82,2.25 -3.29,2.25 -1.47,0 -2.74,-0.87 -3.3,-2.26l-3.01 1.28c0.57,1.38 0.27,2.91 -0.77,3.97 -1.04,1.07 -2.54,1.37 -3.9,0.79l-1.24 3.09c1.36,0.56 2.2,1.86 2.2,3.36 0,1.51 -0.85,2.81 -2.21,3.38l1.25 3.08c1.35,-0.58 2.84,-0.27 3.88,0.79z"/>
      <path class="fil6" d="M128.66 56.4c2.77,-2.84 2.76,-7.46 -0.01,-10.3 -2.78,-2.84 -7.3,-2.83 -10.07,0.01 -2.77,2.84 -2.77,7.47 0.01,10.3 2.78,2.84 7.29,2.84 10.07,-0.01zm-8.74 -8.92c2.04,-2.08 5.35,-2.08 7.38,0 2.04,2.08 2.04,5.47 0.01,7.55 -2.03,2.09 -5.34,2.09 -7.38,0.01 -2.04,-2.08 -2.04,-5.47 -0.01,-7.56z"/>
      <ellipse class="fil8" cx="123.62" cy="51.26" rx="5.18" ry="5.3"/>
     </g>
     <g>
      <path class="fil6" d="M97.02 82.78c2.77,-2.84 2.76,-7.47 -0.01,-10.3 -2.78,-2.84 -7.3,-2.84 -10.07,0.01 -2.77,2.84 -2.77,7.46 0.01,10.3 2.78,2.84 7.29,2.83 10.07,-0.01zm-8.74 -8.92c2.04,-2.08 5.35,-2.09 7.38,-0.01 2.04,2.08 2.05,5.47 0.01,7.56 -2.03,2.08 -5.34,2.09 -7.38,0.01 -2.04,-2.09 -2.04,-5.47 -0.01,-7.56z"/>
      <g>
       <path class="fil5" d="M88.9 97.74c-0.23,-0.1 -0.43,-0.24 -0.61,-0.42 -0.36,-0.36 -0.56,-0.84 -0.56,-1.36 -0.01,-1.58 -1.01,-2.57 -1.95,-2.96 -0.94,-0.39 -2.33,-0.41 -3.42,0.71 -0.73,0.76 -1.92,0.76 -2.66,0.02l-3.27 -3.32c-0.36,-0.36 -0.56,-0.85 -0.56,-1.36 0,-0.52 0.19,-1 0.54,-1.37 1.09,-1.12 1.06,-2.55 0.67,-3.5 -0.39,-0.96 -1.36,-1.98 -2.91,-1.97 -1.04,0 -1.89,-0.86 -1.89,-1.92l-0.02 -4.72c-0.01,-0.51 0.19,-1 0.54,-1.36 0.36,-0.37 0.83,-0.57 1.33,-0.57 1.55,-0.01 2.51,-1.04 2.89,-2 0.39,-0.96 0.4,-2.38 -0.69,-3.5 -0.36,-0.36 -0.56,-0.84 -0.56,-1.36 0,-0.51 0.19,-1 0.54,-1.36l3.25 -3.35c0.73,-0.76 1.92,-0.76 2.66,-0.02 1.1,1.12 2.49,1.09 3.42,0.68 0.94,-0.4 1.93,-1.39 1.93,-2.97 -0.01,-1.07 0.84,-1.93 1.87,-1.94l4.61 -0.02c0.5,0 0.98,0.19 1.34,0.56 0.35,0.36 0.55,0.84 0.55,1.36 0.01,1.58 1.02,2.57 1.95,2.96 0,0 0,0 0,0 0.94,0.39 2.33,0.41 3.42,-0.71 0.36,-0.37 0.83,-0.57 1.33,-0.58 0.5,0 0.98,0.2 1.34,0.56l3.27 3.32c0.36,0.36 0.55,0.85 0.56,1.36 0,0.52 -0.19,1 -0.55,1.37 -1.09,1.12 -1.06,2.54 -0.66,3.5 0.39,0.96 1.36,1.98 2.9,1.97 1.04,-0.01 1.89,0.86 1.9,1.92l0.02 4.71c0,0.52 -0.19,1.01 -0.55,1.37 -0.35,0.37 -0.82,0.57 -1.33,0.57 -1.54,0.01 -2.5,1.04 -2.89,2 -0.38,0.96 -0.4,2.38 0.7,3.5l0 0c0.36,0.36 0.56,0.84 0.56,1.36 0,0.51 -0.2,1 -0.55,1.36l-3.24 3.35c-0.35,0.37 -0.83,0.57 -1.33,0.57 -0.51,0.01 -0.98,-0.19 -1.34,-0.55 -1.1,-1.12 -2.48,-1.08 -3.42,-0.68 -0.93,0.4 -1.93,1.39 -1.92,2.97 0,1.06 -0.84,1.93 -1.88,1.94l-4.6 0.02c-0.26,0 -0.5,-0.05 -0.73,-0.14zm-2.4 -6.54c1.92,0.81 3.12,2.63 3.13,4.75l4.59 -0.04c-0.02,-2.11 1.16,-3.94 3.07,-4.76 1.92,-0.82 4.02,-0.4 5.5,1.09l3.21 -3.34c-1.47,-1.49 -1.89,-3.63 -1.11,-5.6 0.79,-1.96 2.57,-3.19 4.64,-3.2l-0.03 -4.7c-2.07,0.02 -3.85,-1.19 -4.66,-3.15 -0.8,-1.96 -0.39,-4.11 1.07,-5.62l-3.27 -3.3c-1.44,1.51 -3.54,1.95 -5.47,1.14 0,0 0,0 0,0 -1.92,-0.8 -3.12,-2.62 -3.13,-4.74l-4.59 0.03c0.03,2.11 -1.16,3.94 -3.07,4.77 -1.91,0.82 -4.02,0.4 -5.5,-1.1l-3.22 3.35c1.48,1.48 1.91,3.63 1.12,5.59 -0.79,1.97 -2.56,3.2 -4.64,3.21l0.04 4.7c2.06,-0.02 3.85,1.19 4.65,3.14 0.8,1.96 0.4,4.12 -1.07,5.63l3.28 3.29c1.44,-1.5 3.54,-1.94 5.46,-1.14z"/>
       <path class="fil5" d="M89.75 91.96c-0.16,-0.07 -0.3,-0.17 -0.43,-0.3 -0.26,-0.25 -0.4,-0.6 -0.4,-0.96 0,-1.13 -0.71,-1.82 -1.38,-2.1 -0.67,-0.28 -1.65,-0.29 -2.42,0.5 -0.52,0.54 -1.37,0.54 -1.9,0.01l-2.32 -2.35c-0.25,-0.26 -0.39,-0.6 -0.39,-0.97 -0.01,-0.36 0.13,-0.71 0.38,-0.97 0.78,-0.79 0.75,-1.8 0.48,-2.48 -0.28,-0.68 -0.97,-1.41 -2.07,-1.4 -0.74,0 -1.34,-0.61 -1.34,-1.36l-0.02 -3.35c0,-0.36 0.14,-0.71 0.39,-0.97 0.25,-0.26 0.59,-0.4 0.95,-0.4 1.09,-0.01 1.77,-0.74 2.05,-1.42 0.27,-0.68 0.28,-1.69 -0.5,-2.48 -0.25,-0.26 -0.39,-0.6 -0.39,-0.97 -0.01,-0.36 0.13,-0.71 0.38,-0.97l2.3 -2.37c0.52,-0.54 1.37,-0.54 1.9,-0.01 0.78,0.79 1.76,0.77 2.42,0.48 0.67,-0.28 1.37,-0.99 1.37,-2.11 0,-0.76 0.59,-1.37 1.33,-1.38l3.27 -0.01c0.36,0 0.69,0.14 0.95,0.4 0.25,0.25 0.39,0.6 0.39,0.96 0.01,1.12 0.72,1.82 1.39,2.1 0,0 0,0 0,0 0.66,0.28 1.65,0.29 2.42,-0.5 0.25,-0.26 0.59,-0.41 0.94,-0.41 0.36,0 0.7,0.14 0.95,0.4l2.32 2.35c0.26,0.26 0.4,0.6 0.4,0.97 0,0.36 -0.14,0.71 -0.39,0.97 -0.77,0.79 -0.75,1.8 -0.47,2.48 0.28,0.68 0.97,1.4 2.06,1.4 0.74,-0.01 1.34,0.61 1.35,1.36l0.01 3.35c0,0.36 -0.13,0.71 -0.39,0.97 -0.25,0.26 -0.58,0.4 -0.94,0.4 -1.1,0.01 -1.78,0.74 -2.05,1.42 -0.27,0.68 -0.29,1.69 0.49,2.48l0 0c0.26,0.26 0.4,0.6 0.4,0.97 0,0.36 -0.14,0.71 -0.39,0.97l-2.3 2.37c-0.25,0.26 -0.58,0.41 -0.94,0.41 -0.36,0 -0.7,-0.14 -0.95,-0.4 -0.78,-0.79 -1.76,-0.77 -2.43,-0.48 -0.66,0.28 -1.37,0.99 -1.36,2.11 0,0.75 -0.6,1.37 -1.33,1.38l-3.27 0.01c-0.18,0 -0.36,-0.03 -0.52,-0.1zm-1.7 -4.64c1.36,0.57 2.21,1.86 2.22,3.37l3.26 -0.02c-0.02,-1.5 0.82,-2.8 2.18,-3.38 1.36,-0.59 2.85,-0.29 3.9,0.77l2.28 -2.37c-1.04,-1.06 -1.34,-2.58 -0.79,-3.97 0.56,-1.4 1.82,-2.27 3.29,-2.28l-0.02 -3.33c-1.47,0.01 -2.73,-0.85 -3.3,-2.24 -0.57,-1.39 -0.28,-2.91 0.75,-3.99l-2.32 -2.34c-1.02,1.08 -2.51,1.39 -3.88,0.82 0,0 0,0 0,0 -1.36,-0.57 -2.21,-1.87 -2.22,-3.37l-3.25 0.02c0.01,1.5 -0.83,2.8 -2.19,3.38 -1.35,0.59 -2.85,0.29 -3.89,-0.77l-2.29 2.37c1.05,1.05 1.35,2.58 0.79,3.97 -0.55,1.4 -1.82,2.27 -3.29,2.28l0.03 3.33c1.46,-0.02 2.73,0.84 3.3,2.23 0.57,1.39 0.28,2.92 -0.76,3.99l2.32 2.34c1.02,-1.07 2.52,-1.38 3.88,-0.81z"/>
       <ellipse class="fil9" cx="91.84" cy="77.84" rx="5.18" ry="5.3"/>
      </g>
     </g>
    </g>
   </g>
  </g>
 </g>
</svg>
