<?xml version="1.0" encoding="UTF-8"?>
<!DOCTYPE svg PUBLIC "-//W3C//DTD SVG 1.1//EN" "http://www.w3.org/Graphics/SVG/1.1/DTD/svg11.dtd">
<!-- Creator: CorelDRAW 2021 (64 Bit) -->
<svg xmlns="http://www.w3.org/2000/svg" xml:space="preserve" width="400px" height="400px" version="1.1" style="shape-rendering:geometricPrecision; text-rendering:geometricPrecision; image-rendering:optimizeQuality; fill-rule:evenodd; clip-rule:evenodd"
viewBox="0 0 2.53 2.53"
 xmlns:xlink="http://www.w3.org/1999/xlink"
 xmlns:xodm="http://www.corel.com/coreldraw/odm/2003">
 <defs>
  <style type="text/css">
   <![CDATA[
    .str0 {stroke:#B8B4B6;stroke-width:0.19;stroke-miterlimit:22.9256}
    .str3 {stroke:black;stroke-width:0.03;stroke-miterlimit:22.9256}
    .str1 {stroke:#A9ABAE;stroke-width:0.01;stroke-miterlimit:22.9256}
    .str2 {stroke:red;stroke-width:0.01;stroke-miterlimit:22.9256}
    .fil9 {fill:black}
    .fil5 {fill:#53331D}
    .fil7 {fill:#727376}
    .fil3 {fill:#86B0C0}
    .fil2 {fill:#9D720B}
    .fil4 {fill:#B8E3E9}
    .fil6 {fill:#E2A610}
    .fil8 {fill:#ED3237}
    .fil1 {fill:#FCD532}
    .fil10 {fill:red}
    .fil0 {fill:white}
   ]]>
  </style>
 </defs>
 <g id="Camada_x0020_1">
  <metadata id="CorelCorpID_0Corel-Layer"/>
  <g id="_2069919992624">
   <path class="fil0 str0" d="M0.2 0.09l2.13 0c0.06,0 0.1,0.06 0.1,0.12l0 2.11c0,0.06 -0.04,0.11 -0.1,0.11l-2.13 0c-0.06,0 -0.1,-0.05 -0.1,-0.11 0,-0.26 -0.01,-2.04 0,-2.13 0,-0.05 0.06,-0.1 0.1,-0.1z"/>
   <g id="_2412161610288">
    <g>
     <g>
      <path class="fil1" d="M2.02 1.15c0.03,-0.01 0.07,0 0.09,0.03 0.01,0.02 0,0.04 -0.01,0.05 -0.06,0.05 -0.18,0 -0.12,-0.06 0.01,-0.02 0.02,-0.02 0.04,-0.02l0 0zm-0.42 -0.09c-0.03,0 -0.06,0 -0.09,0.01 -0.03,0.01 -0.08,0.03 -0.11,0.04 -0.02,0.01 -0.05,0.02 -0.07,0.04 -0.03,0.01 -0.02,0.01 -0.03,0.03 0.01,0 0.01,0.01 0.01,0.02 0,0.02 0.01,0.03 0.02,0.04 0.01,0.02 0.02,0.04 0.04,0.05 0.03,0.02 0.08,0.04 0.12,0.05 0.16,0.04 0.53,0.05 0.68,-0.05 0.03,-0.02 0.06,-0.05 0.06,-0.11 0,-0.01 0,-0.02 0,-0.02 -0.01,-0.01 -0.01,-0.01 -0.02,-0.01 -0.01,-0.01 -0.02,-0.02 -0.03,-0.02 -0.1,-0.06 -0.3,-0.1 -0.41,-0.09 -0.06,0 -0.11,0 -0.17,0.02l0 0z"/>
      <path class="fil2" d="M2.02 1.15c-0.02,0 -0.03,0 -0.04,0.02 -0.06,0.06 0.06,0.11 0.12,0.06 0.01,-0.01 0.02,-0.03 0.01,-0.05 -0.02,-0.03 -0.06,-0.04 -0.09,-0.03l0 0z"/>
      <path class="fil2" d="M1.5 1.15c-0.02,0 -0.04,0 -0.05,0.02 -0.06,0.06 0.07,0.11 0.12,0.06 0.01,-0.01 0.03,-0.03 0.01,-0.05 -0.01,-0.03 -0.05,-0.04 -0.08,-0.03l0 0z"/>
     </g>
     <g>
      <g>
       <path class="fil3" d="M1.61 0.5c-0.01,0.05 -0.03,0.05 -0.05,0.09 -0.03,0.06 -0.05,0.15 -0.06,0.22 0,0.02 -0.01,0.05 -0.02,0.05 -0.01,0.01 -0.01,0 -0.02,-0.01 0,-0.01 0,-0.03 0,-0.04 0,-0.12 0.01,-0.26 0.09,-0.34 0.04,-0.03 0.07,-0.01 0.06,0.03l0 0zm-0.17 0.35l0 0.15c0,0 0,0 0,0.01 0.02,0.01 0.04,0.02 0.06,0.03 0.04,0 0.06,-0.01 0.09,-0.04 0.01,0 0.01,0 0.01,-0.02 0,-0.02 0,-0.04 0,-0.06 0,-0.03 0,-0.08 0,-0.12 0,-0.06 0,0.06 0,-0.02 0,-0.03 0,-0.04 0.01,-0.08 0.04,-0.15 0.16,-0.22 0.26,-0.16 0.06,0.04 0.11,0.14 0.11,0.22 0,0.06 0,0.13 0,0.19 0.02,0.01 0.05,0.02 0.08,0.02 0.02,0 0.05,-0.01 0.07,-0.02 0,-0.05 0,-0.1 0,-0.15 0,-0.1 -0.04,-0.25 -0.09,-0.32 -0.02,-0.04 -0.03,-0.04 -0.06,-0.07 -0.01,-0.02 -0.04,-0.04 -0.06,-0.06 -0.09,-0.06 -0.18,-0.06 -0.28,-0.01 -0.02,0.01 -0.05,0.03 -0.07,0.06 -0.02,0.02 -0.03,0.03 -0.05,0.07 -0.01,0.02 -0.01,0.02 -0.02,0.04 -0.01,0.02 -0.02,0.03 -0.02,0.05 -0.03,0.07 -0.04,0.15 -0.04,0.24 0,0.1 0,-0.05 0,0.05l0 0z"/>
       <path class="fil4" d="M1.61 0.5c0.01,-0.04 -0.02,-0.06 -0.06,-0.03 -0.08,0.08 -0.09,0.22 -0.09,0.34 0,0.01 0,0.03 0,0.04 0.01,0.01 0.01,0.02 0.02,0.01 0.01,0 0.02,-0.03 0.02,-0.05 0.01,-0.07 0.03,-0.16 0.06,-0.22 0.02,-0.04 0.04,-0.04 0.05,-0.09l0 0z"/>
      </g>
      <g>
       <path class="fil5" d="M1.73 1.55l0 0c-0.01,0.01 -0.04,0.03 -0.04,0.09 0,0.03 0.02,0.07 0.04,0.08 -0.01,0.03 -0.05,0.17 -0.05,0.19 0.01,0.01 0.02,0.01 0.04,0.01l0.09 0c0.04,0 0.03,-0.01 0.02,-0.07l-0.03 -0.08c0,-0.02 -0.01,-0.04 -0.01,-0.05 0.01,-0.01 0.04,-0.03 0.04,-0.08 0,-0.04 -0.01,-0.07 -0.04,-0.09 0,0 0,0 0,0l0 0c-0.01,0 -0.02,-0.01 -0.03,-0.01 -0.01,0 -0.02,0 -0.03,0.01l0 0z"/>
       <path class="fil2" d="M1.79 1.55l0 0c0,0 0,0 0,0 0.03,0.02 0.04,0.05 0.04,0.09 0,0.05 -0.03,0.07 -0.04,0.08 0,0.01 0.01,0.03 0.01,0.05l0.03 0.08c0.01,0.06 0.02,0.07 -0.02,0.07l-0.09 0c-0.02,0 -0.03,0 -0.04,-0.01 0,-0.02 0.04,-0.16 0.05,-0.19 -0.02,-0.01 -0.04,-0.05 -0.04,-0.08 0,-0.06 0.03,-0.08 0.04,-0.09l0 0 0 0c-0.04,0 -0.09,0.08 -0.05,0.16 0.02,0.02 0.02,0.02 0.04,0.03 -0.01,0.04 -0.04,0.12 -0.05,0.16 -0.01,0.01 -0.01,0.03 -0.02,0.04 0,0.02 0,0.03 0.02,0.03 0.05,0 0.12,0 0.17,0 0.02,0 0.03,0 0.03,-0.02 0,-0.01 -0.01,-0.04 -0.02,-0.05 -0.01,-0.02 -0.01,-0.05 -0.02,-0.07 -0.01,-0.02 -0.03,-0.07 -0.03,-0.08 0.03,-0.02 0.06,-0.05 0.05,-0.11 0,-0.05 -0.02,-0.08 -0.06,-0.09l0 0z"/>
       <g>
        <path class="fil6" d="M1.73 1.55l0 0c0.01,-0.01 0.02,-0.01 0.03,-0.01 0.01,0 0.02,0.01 0.03,0.01 0.04,0.01 0.06,0.04 0.06,0.09 0.01,0.06 -0.02,0.09 -0.05,0.11 0,0.01 0.02,0.06 0.03,0.08 0.01,0.02 0.01,0.05 0.02,0.07 0.01,0.01 0.02,0.04 0.02,0.05 0,0.02 -0.01,0.02 -0.03,0.02 -0.05,0 -0.12,0 -0.17,0 -0.02,0 -0.02,-0.01 -0.02,-0.03 0.01,-0.01 0.01,-0.03 0.02,-0.04 0.01,-0.04 0.04,-0.12 0.05,-0.16 -0.02,-0.01 -0.02,-0.01 -0.04,-0.03 -0.04,-0.08 0.01,-0.16 0.05,-0.16l0 0zm0.5 -0.37c0,0.06 -0.03,0.09 -0.06,0.11 -0.15,0.1 -0.52,0.09 -0.68,0.05 -0.04,-0.01 -0.09,-0.03 -0.12,-0.05 -0.02,-0.01 -0.03,-0.03 -0.04,-0.05 -0.01,-0.01 -0.02,-0.02 -0.02,-0.04 0,-0.01 0,-0.02 -0.01,-0.02 0,0.01 0,0.19 0,0.2 0,0.07 0,0.14 0,0.2 0,0.14 0,0.27 0,0.41 -0.01,0.05 -0.01,0.05 0.02,0.08 0.01,0.01 0.03,0.03 0.04,0.04 0.04,0.02 0.08,0.03 0.12,0.05 0.18,0.05 0.39,0.05 0.57,0 0.04,-0.02 0.08,-0.03 0.11,-0.05 0.02,-0.02 0.04,-0.03 0.05,-0.04 0.03,-0.03 0.03,-0.03 0.03,-0.07 0,-0.14 0,-0.28 0,-0.41 0,-0.01 0,-0.4 -0.01,-0.41l0 0z"/>
        <g>
         <polygon class="fil7 str1" points="1.62,1.17 1.75,1.3 1.88,1.18 1.83,1.38 1.96,1.52 1.8,1.51 1.76,1.72 1.71,1.51 1.55,1.5 1.67,1.38 "/>
         <polygon class="fil8 str2" points="1.75,1 1.77,1.38 2.03,1.29 1.78,1.43 1.92,1.75 1.75,1.46 1.58,1.75 1.72,1.43 1.48,1.29 1.73,1.38 "/>
        </g>
       </g>
      </g>
     </g>
    </g>
    <g>
     <g>
      <path class="fil9" d="M0.42 0.9c0,0.01 0,0.02 0,0.04 0,0.09 0.05,0.19 0.12,0.26 0.02,0.02 0.04,0.05 0.07,0.06 0.05,0.03 0.06,0.02 0.06,0.05 0.01,0.06 0.01,0.09 0.01,0.15l0.01 0.16c0.01,0.04 0.03,0.46 0.04,0.47 0.02,0 0.03,-0.01 0.06,-0.01 0.06,-0.02 0.13,-0.07 0.16,-0.14 0.01,-0.04 -0.01,-0.09 0,-0.13l0.06 -0.14c0,0 0,0 0,0 -0.01,-0.01 0,0 -0.01,-0.01 -0.02,-0.04 -0.05,-0.1 -0.08,-0.15 0.04,-0.04 0.09,-0.1 0.09,-0.14 0.01,-0.03 0,-0.05 0,-0.07 -0.01,-0.02 -0.01,-0.05 -0.01,-0.07 0.06,-0.04 0.08,-0.06 0.13,-0.14 0.03,-0.05 0.05,-0.12 0.06,-0.17 0,-0.05 0,-0.1 -0.02,-0.16 -0.01,-0.05 -0.03,-0.1 -0.07,-0.15 -0.04,-0.05 -0.09,-0.09 -0.15,-0.12 -0.05,-0.03 -0.1,-0.03 -0.15,-0.03l-0.07 0.01c-0.06,0.02 -0.13,0.05 -0.18,0.11 0,0 -0.03,0.03 -0.03,0.03l0.01 0c0.02,0.02 0.02,0.03 0.04,0.04 0.05,-0.04 0.06,-0.08 0.13,-0.11 0.04,-0.02 0.09,-0.03 0.13,-0.03 0.03,0 0.1,0.01 0.14,0.03 0.09,0.06 0.16,0.15 0.17,0.27 0.01,0.04 0.02,0.1 0.01,0.14 -0.04,0.12 -0.11,0.21 -0.21,0.26 0,0.01 0,0.02 0.01,0.04l0.01 0.11c0,0.01 -0.01,0.02 -0.02,0.04l-0.08 0.13c0.03,0.04 0.05,0.09 0.07,0.13 0.02,0.02 0.02,0.01 0,0.07l-0.04 0.11c-0.01,0.02 -0.01,0.02 0,0.04 0,0.01 0,0.06 0,0.07 -0.02,0.05 -0.09,0.09 -0.12,0.09 0,-0.01 0,-0.02 0,-0.03 0,-0.06 -0.01,-0.11 -0.01,-0.17 0,-0.02 0,-0.04 0,-0.05l-0.02 -0.26c0,-0.01 0,-0.03 0,-0.05 0,-0.01 0,-0.03 0,-0.05l0 -0.1c0,-0.03 -0.01,-0.07 -0.01,-0.1 -0.01,-0.01 -0.04,-0.01 -0.05,-0.01 -0.01,0 -0.04,-0.02 -0.05,-0.02 -0.08,-0.05 -0.13,-0.13 -0.15,-0.22 0,-0.01 0,-0.02 0,-0.03 0,-0.02 0,-0.04 -0.01,-0.06 -0.01,0 -0.01,0 -0.02,0.01 -0.01,0 -0.02,0 -0.03,0l0 0z"/>
      <path class="fil9 str3" d="M0.67 0.65c0.03,-0.05 0.09,-0.06 0.13,-0.04 0.05,0.03 0.06,0.1 0.03,0.15 -0.07,0.12 -0.24,0.02 -0.16,-0.11zm-0.02 -0.01c-0.03,0.05 -0.03,0.13 0.03,0.17 0.05,0.04 0.12,0.02 0.16,-0.04 0.04,-0.05 0.03,-0.14 -0.03,-0.17 -0.05,-0.04 -0.12,-0.02 -0.16,0.04l0 0z"/>
      <path class="fil9" d="M0.42 0.73c-0.04,0.07 0.06,0.15 0.11,0.06 0.01,-0.02 0.01,-0.07 -0.02,-0.09 -0.03,-0.01 -0.07,0 -0.09,0.03l0 0z"/>
     </g>
     <polygon class="fil10 str2" points="0.29,1.62 0.82,1.31 0.57,1.67 1.85,0.54 1.18,1 1.47,0.66 "/>
    </g>
   </g>
  </g>
 </g>
</svg>
