<?xml version="1.0" encoding="UTF-8"?>
<!DOCTYPE svg PUBLIC "-//W3C//DTD SVG 1.1//EN" "http://www.w3.org/Graphics/SVG/1.1/DTD/svg11.dtd">
<!-- Creator: CorelDRAW 2021 (64 Bit) -->
<svg xmlns="http://www.w3.org/2000/svg" xml:space="preserve" width="400px" height="400px" version="1.1" style="shape-rendering:geometricPrecision; text-rendering:geometricPrecision; image-rendering:optimizeQuality; fill-rule:evenodd; clip-rule:evenodd"
viewBox="0 0 4.68 4.68"
 xmlns:xlink="http://www.w3.org/1999/xlink"
 xmlns:xodm="http://www.corel.com/coreldraw/odm/2003">
 <defs>
  <style type="text/css">
   <![CDATA[
    .str0 {stroke:#C4C4C4;stroke-width:0.35;stroke-miterlimit:22.9256}
    .str1 {stroke:black;stroke-width:0.02;stroke-miterlimit:22.9256}
    .str3 {stroke:black;stroke-width:0.01;stroke-miterlimit:22.9256}
    .str4 {stroke:fuchsia;stroke-width:0.01;stroke-miterlimit:22.9256}
    .str2 {stroke:#030303;stroke-width:0.06;stroke-miterlimit:22.9256;stroke-dasharray:0.120000 0.290000}
    .fil3 {fill:none}
    .fil5 {fill:black}
    .fil1 {fill:#E6E6E6}
    .fil6 {fill:fuchsia}
    .fil2 {fill:#FFFF66}
    .fil4 {fill:white}
    .fil0 {fill:white}
   ]]>
  </style>
 </defs>
 <g id="Camada_x0020_1">
  <metadata id="CorelCorpID_0Corel-Layer"/>
  <g id="_2069394330112">
   <circle class="fil0 str0" cx="2.34" cy="2.34" r="2.16"/>
   <g>
    <g>
     <polygon class="fil1 str1" points="3.52,2.22 2.93,2.22 3.07,2.1 3.4,2.1 "/>
     <rect class="fil2 str1" x="1.17" y="2.22" width="2.45" height="1.46"/>
     <line class="fil3 str2" x1="1.33" y1="2.43" x2="3.37" y2= "2.42" />
     <line class="fil3 str2" x1="1.33" y1="2.7" x2="3.37" y2= "2.69" />
     <line class="fil3 str2" x1="1.33" y1="2.98" x2="3.37" y2= "2.97" />
     <line class="fil3 str2" x1="1.33" y1="3.25" x2="3.37" y2= "3.24" />
     <line class="fil3 str2" x1="1.33" y1="3.52" x2="3.37" y2= "3.51" />
    </g>
    <g>
     <g>
      <path class="fil4" d="M2.25 1.23c0.02,0 0.04,-0.01 0.06,-0.02 0.01,-0.01 0.02,-0.02 0.03,-0.02 0,0 0.02,-0.02 0.02,-0.02 0.01,0.02 0.03,0.02 0.03,0.03 0,0.02 -0.04,0.04 -0.06,0.05 -0.06,0.03 -0.13,0.03 -0.19,0.01 -0.01,-0.01 -0.05,-0.04 -0.06,-0.05 0.01,-0.01 0.03,-0.03 0.04,-0.03 0.03,0.04 0.07,0.04 0.13,0.05zm0.11 -0.29c0.08,-0.01 0.08,0.09 0.02,0.1 -0.03,0.01 -0.06,-0.01 -0.07,-0.04 0,-0.03 0.02,-0.05 0.05,-0.06zm-0.29 0c0.03,0 0.06,0.01 0.06,0.04 0.01,0.03 -0.01,0.05 -0.04,0.06 -0.07,0.01 -0.1,-0.08 -0.02,-0.1zm0.52 0.05c0.02,-0.05 0.03,-0.1 0,-0.14 -0.01,-0.01 -0.03,-0.03 -0.05,-0.03 -0.04,-0.03 -0.05,-0.02 -0.08,0.01 -0.06,0.04 -0.15,0.08 -0.23,0.08 -0.11,0 -0.18,-0.06 -0.24,-0.1 -0.03,-0.01 -0.05,-0.01 -0.07,0 -0.03,0.01 -0.04,0.02 -0.04,0.04 -0.01,0.02 -0.02,0.06 -0.02,0.07 0,0.03 0.01,0.05 0.01,0.07l-0.06 0.01c-0.01,0.03 0.01,0.07 0.02,0.1 0,0.02 0.01,0.04 0.02,0.04 0.02,0.01 0.04,0.01 0.06,0.01 0.02,0.04 0.03,0.06 0.05,0.09 0.01,0.02 0.05,0.05 0.06,0.07 0.03,0.02 0.06,0.03 0.09,0.05 0.04,0.01 0.09,0.01 0.13,0.01 0.1,0 0.15,-0.03 0.21,-0.07 0.02,-0.01 0.05,-0.04 0.07,-0.06 0.03,-0.05 0.03,-0.05 0.04,-0.09 0.04,0 0.06,0.01 0.08,-0.02 0.01,-0.02 0.01,-0.04 0.01,-0.06 0.01,-0.02 0.03,-0.05 0.01,-0.06 -0.02,-0.01 -0.05,-0.01 -0.07,-0.02z"/>
      <path class="fil4" d="M2.91 1.32c-0.1,0.02 -0.06,0.16 0.04,0.14 0.04,-0.01 0.07,-0.04 0.06,-0.08 -0.01,-0.04 -0.05,-0.07 -0.1,-0.06z"/>
      <path class="fil5" d="M2.25 1.23c-0.06,-0.01 -0.1,-0.01 -0.13,-0.05 -0.01,0 -0.03,0.02 -0.04,0.03 0.01,0.01 0.05,0.04 0.06,0.05 0.06,0.02 0.13,0.02 0.19,-0.01 0.02,-0.01 0.06,-0.03 0.06,-0.05 0,-0.01 -0.02,-0.01 -0.03,-0.03 0,0 -0.02,0.02 -0.02,0.02 -0.01,0 -0.02,0.01 -0.03,0.02 -0.02,0.01 -0.04,0.02 -0.06,0.02z"/>
      <polygon class="fil5" points="1.69,2.05 1.74,2.05 1.74,1.86 1.69,1.86 "/>
      <polygon class="fil5" points="2.77,2.04 2.81,2.04 2.82,2.04 2.82,1.86 2.81,1.86 2.77,1.86 "/>
      <path class="fil5" d="M2.36 0.94c-0.03,0.01 -0.05,0.03 -0.05,0.06 0.01,0.03 0.04,0.05 0.07,0.04 0.06,-0.01 0.06,-0.11 -0.02,-0.1z"/>
      <path class="fil5" d="M2.07 0.94c-0.08,0.02 -0.05,0.11 0.02,0.1 0.03,-0.01 0.05,-0.03 0.04,-0.06 0,-0.03 -0.03,-0.04 -0.06,-0.04z"/>
      <path class="fil5 str3" d="M2.59 0.99c0.02,0.01 0.05,0.01 0.07,0.02 0.02,0.01 0,0.04 -0.01,0.06 0,0.02 0,0.04 -0.01,0.06 -0.02,0.03 -0.04,0.02 -0.08,0.02 -0.01,0.04 -0.01,0.04 -0.04,0.09 -0.02,0.02 -0.05,0.05 -0.07,0.06 -0.06,0.04 -0.11,0.07 -0.21,0.07 -0.04,0 -0.09,0 -0.13,-0.01 -0.03,-0.02 -0.06,-0.03 -0.09,-0.05 -0.01,-0.02 -0.05,-0.05 -0.06,-0.07 -0.02,-0.03 -0.03,-0.05 -0.05,-0.09 -0.02,0 -0.04,0 -0.06,-0.01 -0.01,0 -0.02,-0.02 -0.02,-0.04 -0.01,-0.03 -0.03,-0.07 -0.02,-0.1l0.06 -0.01c0,-0.02 -0.01,-0.04 -0.01,-0.07 0,-0.01 0.01,-0.05 0.02,-0.07 0,-0.02 0.01,-0.03 0.04,-0.04 0.02,-0.01 0.04,-0.01 0.07,0 0.06,0.04 0.13,0.1 0.24,0.1 0.08,0 0.17,-0.04 0.23,-0.08 0.03,-0.03 0.04,-0.04 0.08,-0.01 0.02,0 0.04,0.02 0.05,0.03 0.03,0.04 0.02,0.09 0,0.14zm-0.53 -0.51c-0.07,0.03 -0.14,0.09 -0.18,0.14 -0.03,0.04 -0.06,0.07 -0.07,0.14 0,0.03 0,0.06 0,0.1 0,0.03 0,0.06 0.01,0.09 -0.04,0.01 -0.05,0.02 -0.06,0.04 -0.01,0.03 0,0.05 0,0.08 0.04,0.16 0.1,0.09 0.13,0.15 0.01,0.03 0.01,0.03 0.03,0.06l0.05 0.04c0.01,0.02 0.03,0.03 0.05,0.04 0,0.02 0.01,0.1 0,0.12 0,0.01 -0.01,0.01 -0.02,0.01 -0.07,0.01 -0.21,0.04 -0.29,0.05 -0.05,0.01 -0.09,0.02 -0.14,0.03 -0.02,0.01 -0.03,0.02 -0.05,0.03 -0.05,0.03 -0.09,0.08 -0.1,0.14 -0.01,0.03 -0.01,0.11 -0.01,0.15 0,0.05 0,0.1 0,0.16 0.03,0 0.05,0 0.05,-0.02l0 -0.19c0,-0.07 0,-0.14 0.07,-0.19 0.03,-0.02 0.05,-0.03 0.09,-0.04 0.07,-0.03 0.15,-0.03 0.23,-0.05 0.04,0 0.08,-0.01 0.12,-0.01 0.01,0.04 0.01,0.05 0.03,0.09 0.03,0.04 0.08,0.08 0.14,0.1 0.02,0.01 0.07,0.02 0.1,0.02 0.12,0 0.27,-0.09 0.28,-0.21l0.3 0.04c0.1,0.02 0.19,0.08 0.2,0.18 0,0.09 0,0.18 0.01,0.27l0.05 0.01 0 -0.28c-0.02,-0.11 -0.09,-0.2 -0.28,-0.23 -0.1,-0.01 -0.2,-0.03 -0.3,-0.04 -0.03,-0.01 -0.04,-0.01 -0.04,-0.05 0,-0.03 0,-0.07 0,-0.1 0.02,-0.01 0.04,-0.02 0.06,-0.04 0.02,-0.02 0.07,-0.07 0.08,-0.11 0.09,0 0.09,-0.06 0.1,-0.11 0.01,-0.02 0.01,-0.02 0.02,-0.04 0,-0.01 0,-0.03 -0.01,-0.04 -0.01,-0.03 -0.03,-0.05 -0.05,-0.05 0,-0.1 0.01,-0.15 -0.02,-0.24 -0.03,-0.07 -0.05,-0.1 -0.1,-0.15 -0.02,-0.02 -0.02,-0.01 -0.03,-0.03 -0.02,-0.01 -0.05,-0.03 -0.07,-0.04 -0.07,-0.04 -0.14,-0.05 -0.23,-0.05 -0.04,0 -0.09,0.01 -0.15,0.03zm-0.13 0.16c0.04,-0.04 0.08,-0.09 0.17,-0.12 0.03,-0.02 0.05,-0.02 0.09,-0.02 0.06,-0.01 0.13,0 0.18,0.02 0.05,0.02 0.07,0.04 0.1,0.06 0.04,0.03 0.05,0.03 0.08,0.08 0.02,0.02 0.06,0.1 0.06,0.14 -0.02,-0.01 -0.06,-0.04 -0.09,-0.04 -0.02,-0.01 -0.03,-0.01 -0.05,0 -0.01,0.01 -0.02,0.02 -0.04,0.03 -0.13,0.08 -0.24,0.1 -0.38,0 -0.01,-0.01 -0.03,-0.01 -0.04,-0.02 -0.02,-0.01 -0.03,-0.02 -0.05,-0.02 -0.06,0.01 -0.08,0.03 -0.1,0.04 0,-0.07 0.05,-0.12 0.07,-0.15zm0.31 1.07c0.01,0 0.02,0 0.02,0 0.01,0 0.03,0 0.04,0 0.09,-0.02 0.17,-0.09 0.17,-0.17 -0.04,-0.01 -0.06,-0.04 -0.06,-0.07l0 -0.09 0 0c0,0 -0.01,0 -0.01,0 -0.05,0.02 -0.11,0.04 -0.16,0.04 -0.05,0 -0.09,0 -0.13,-0.02 -0.02,0 -0.03,-0.01 -0.04,-0.01 0,0.03 0.01,0.07 0,0.1 0,0.03 -0.03,0.04 -0.05,0.05 0,0.09 0.09,0.16 0.17,0.17 0.02,0 0.04,0 0.05,0z"/>
     </g>
     <path class="fil6 str4" d="M1.46 1.79l0 0.25 0.23 0 0 -0.19 0.05 0 0 0.19 1.03 0 0 -0.18 0.05 0 0 0.18 0.21 0 -0.01 -0.27c-0.01,-0.1 -0.08,-0.15 -0.19,-0.18l-0.31 -0.05c-0.03,0.13 -0.12,0.2 -0.28,0.22 -0.15,-0.01 -0.24,-0.08 -0.27,-0.22l-0.31 0.05c-0.13,0.03 -0.19,0.1 -0.2,0.2z"/>
    </g>
   </g>
  </g>
 </g>
</svg>
