<?xml version="1.0" encoding="UTF-8"?>
<!DOCTYPE svg PUBLIC "-//W3C//DTD SVG 1.1//EN" "http://www.w3.org/Graphics/SVG/1.1/DTD/svg11.dtd">
<!-- Creator: CorelDRAW 2021 (64 Bit) -->
<svg xmlns="http://www.w3.org/2000/svg" xml:space="preserve" width="330px" height="330px" version="1.1" style="shape-rendering:geometricPrecision; text-rendering:geometricPrecision; image-rendering:optimizeQuality; fill-rule:evenodd; clip-rule:evenodd"
viewBox="0 0 26.41 26.41"
 xmlns:xlink="http://www.w3.org/1999/xlink"
 xmlns:xodm="http://www.corel.com/coreldraw/odm/2003">
 <defs>
  <style type="text/css">
   <![CDATA[
    .str0 {stroke:#B8B4B6;stroke-width:2.4;stroke-miterlimit:22.9256}
    .fil0 {fill:white}
    .fil1 {fill:#FC0808;fill-rule:nonzero}
   ]]>
  </style>
 </defs>
 <g id="Camada_x0020_1">
  <metadata id="CorelCorpID_0Corel-Layer"/>
  <g id="_2713498573376">
   <path class="fil0 str0" d="M2.28 1.2l21.88 0c0.58,0 1.05,0.54 1.05,1.2l0 21.61c0,0.66 -0.47,1.2 -1.05,1.2l-21.88 0c-0.58,0 -1.05,-0.54 -1.05,-1.2 0,-2.6 -0.04,-20.93 -0.03,-21.87 0.01,-0.52 0.64,-0.94 1.08,-0.94z"/>
   <path id="bt_avatar.svg" class="fil1" d="M21.47 15.18c0,-0.56 -1.16,-2.63 -1.73,-3.62 0.06,-0.28 0.14,-0.93 0.14,-1.9 0,-1.69 -2.2,-5.92 -7.47,-5.92 -5.15,0 -7.47,3.92 -7.47,6.71 0,1.97 1.16,3.98 2.08,5.6 0.55,0.95 1.06,1.83 1.06,2.29 0,0.99 -1.62,3 -2.26,3.67 -0.1,0.11 -0.13,0.28 -0.06,0.43 0.06,0.14 0.19,0.23 0.35,0.23l8.67 0c0.21,0 0.38,-0.1 0.38,-0.32 0.14,-0.28 1.54,-1.04 2.82,-1.25 0.99,-0.16 2.3,-0.39 2.3,-1.59 0,-0.51 -0.17,-0.78 -0.29,-0.96 -0.09,-0.11 -0.11,-0.14 -0.14,-0.21 0.21,0.03 0.41,-0.14 0.43,-0.35 0.02,-0.07 0,-0.17 -0.04,-0.24l0.32 -0.32c0.1,-0.11 0.15,-0.27 0.1,-0.4l-0.26 -0.79c0.46,-0.16 1.07,-0.49 1.07,-1.06l0 0 0 0z"/>
  </g>
 </g>
</svg>
