<?xml version="1.0" encoding="UTF-8"?>
<!DOCTYPE svg PUBLIC "-//W3C//DTD SVG 1.1//EN" "http://www.w3.org/Graphics/SVG/1.1/DTD/svg11.dtd">
<!-- Creator: CorelDRAW 2021 (64 Bit) -->
<svg xmlns="http://www.w3.org/2000/svg" xml:space="preserve" width="330px" height="330px" version="1.1" style="shape-rendering:geometricPrecision; text-rendering:geometricPrecision; image-rendering:optimizeQuality; fill-rule:evenodd; clip-rule:evenodd"
viewBox="0 0 5.1 5.1"
 xmlns:xlink="http://www.w3.org/1999/xlink"
 xmlns:xodm="http://www.corel.com/coreldraw/odm/2003">
 <defs>
  <style type="text/css">
   <![CDATA[
    .fil2 {fill:black}
    .fil5 {fill:#00F244}
    .fil3 {fill:#282829}
    .fil1 {fill:#C4C4C4}
    .fil0 {fill:#FDFDFD}
    .fil4 {fill:#FE0000}
   ]]>
  </style>
 </defs>
 <g id="Camada_x0020_1">
  <metadata id="CorelCorpID_0Corel-Layer"/>
  <g id="_2400504746640">
   <path class="fil0" d="M2.21 3.45c0.14,-0.1 0.24,0.12 0.13,0.19 -0.12,0.06 -0.26,-0.09 -0.13,-0.19zm0.59 -0.02c0.15,-0.03 0.18,0.18 0.06,0.22 -0.15,0.04 -0.23,-0.18 -0.06,-0.22zm0.68 0.16c-0.3,0.25 -0.3,-0.35 0,-0.1l0 0.1zm-0.19 0.58l-0.96 0c-0.2,0 -0.38,0.03 -0.54,-0.07 -0.22,-0.15 -0.21,-0.34 -0.21,-0.58l0 -0.3 0.35 0c0,0.16 -0.03,0.45 0.04,0.59 0.16,0.03 1.19,0.01 1.46,0.01 0.33,0.01 0.29,-0.02 0.29,-0.45 0,-0.24 -0.01,-0.5 0,-0.74l0.36 0c0,0.29 0.02,1 -0.03,1.19 -0.03,0.14 -0.14,0.26 -0.25,0.31 -0.13,0.06 -0.35,0.04 -0.51,0.04zm-2.47 -2.76l1.34 -0.49 -0.05 0.31c0.43,0.09 0.84,0.24 1.04,0.49 0.3,0.4 0.33,0.79 0.47,1.03 0.04,0 0.03,-0.01 0.02,0.03l-0.01 0.02c0.04,0.05 0.01,0.01 0,0.03 -0.03,-0.02 -0.01,0 -0.03,-0.03 0,0 -0.01,-0.03 -0.01,-0.04 -0.04,-0.05 -0.1,-0.12 -0.14,-0.18l-0.3 -0.35c-0.05,-0.05 -0.12,-0.1 -0.17,-0.15 -0.23,-0.18 -0.66,-0.28 -1.01,-0.27l-0.08 0.31 -0.53 -0.34c-0.1,-0.07 -0.44,-0.3 -0.52,-0.34 -0.03,-0.02 -0.02,-0.01 -0.05,-0.02 -0.02,0.04 -0.12,0.21 -0.18,0.35 -0.65,1.6 0.85,3.27 2.5,2.79 0.33,-0.09 0.56,-0.23 0.78,-0.41 0.08,-0.07 0.11,-0.08 0.2,-0.19 0.44,-0.53 0.68,-1.18 0.47,-1.97 -0.36,-1.35 -2.01,-2.01 -3.26,-1.11 -0.1,0.08 -0.21,0.16 -0.28,0.25l-0.18 0.21c-0.05,0.07 -0.02,0.06 -0.02,0.07z"/>
   <path class="fil1" d="M0.84 1.44l-0.02 -0.03c0,-0.01 -0.03,0 0.02,-0.07l0.18 -0.21c0.07,-0.09 0.18,-0.17 0.28,-0.25 1.25,-0.9 2.9,-0.24 3.26,1.11 0.21,0.79 -0.03,1.44 -0.47,1.97 -0.09,0.11 -0.12,0.12 -0.2,0.19 -0.22,0.18 -0.45,0.32 -0.78,0.41 -1.65,0.48 -3.15,-1.19 -2.5,-2.79 0.06,-0.14 0.16,-0.31 0.18,-0.35 0.03,0.01 0.02,0 0.05,0.02zm-0.84 0.99c0,0.48 0.03,0.79 0.25,1.23 0.25,0.52 0.69,0.96 1.21,1.2 0.44,0.21 0.72,0.24 1.21,0.24 0.45,0 1.01,-0.21 1.36,-0.47 0.63,-0.47 1.07,-1.19 1.07,-2 0,-0.44 -0.06,-0.8 -0.24,-1.16l-0.22 -0.39c-0.42,-0.63 -1.25,-1.08 -2.01,-1.08l-0.02 0 -0.01 0 -0.01 0c-0.28,0 -0.38,0 -0.67,0.08 -0.24,0.06 -0.43,0.14 -0.64,0.26 -0.72,0.39 -1.28,1.25 -1.28,2.09z"/>
   <path class="fil2" d="M1.76 3.37c0.04,0.1 -0.02,0.32 0.05,0.45 0.06,0.14 0.16,0.15 0.34,0.15l1.48 0c0.32,-0.04 0.24,-0.43 0.24,-0.74l0 -0.37c0,-0.1 -0.02,-0.07 0.05,-0.08 0,0.23 0.02,0.81 -0.02,1 -0.08,0.32 -0.45,0.23 -0.79,0.23 -0.34,0 -0.69,0.02 -1.02,0.01 -0.4,-0.01 -0.35,-0.3 -0.35,-0.54 0,-0.07 -0.02,-0.09 0.02,-0.11zm1.53 0.8c0.16,0 0.38,0.02 0.51,-0.04 0.11,-0.05 0.22,-0.17 0.25,-0.31 0.05,-0.19 0.03,-0.9 0.03,-1.19l-0.36 0c-0.01,0.24 0,0.5 0,0.74 0,0.43 0.04,0.46 -0.29,0.45 -0.27,0 -1.3,0.02 -1.46,-0.01 -0.07,-0.14 -0.04,-0.43 -0.04,-0.59l-0.35 0 0 0.3c0,0.24 -0.01,0.43 0.21,0.58 0.16,0.1 0.34,0.07 0.54,0.07l0.96 0z"/>
   <path class="fil3" d="M2.06 1.39c0.18,0 0.5,0.13 0.64,0.21 0.2,0.1 0.33,0.2 0.43,0.4 -0.16,-0.08 -0.25,-0.18 -0.48,-0.25 -0.19,-0.05 -0.43,-0.08 -0.64,-0.09l0.05 -0.27zm-0.12 -0.23l-0.16 0.72c-0.1,-0.04 -0.22,-0.14 -0.31,-0.21 -0.1,-0.07 -0.21,-0.14 -0.29,-0.22l0.76 -0.29zm-1.12 0.25l0.02 0.03c0.08,0.04 0.42,0.27 0.52,0.34l0.53 0.34 0.08 -0.31c0.35,-0.01 0.78,0.09 1.01,0.27 0.05,0.05 0.12,0.1 0.17,0.15l0.3 0.35c0.04,0.06 0.1,0.13 0.14,0.18 0.02,0 0.01,0 0.01,0.02 0.04,0 0,0.01 0.02,-0.03 -0.14,-0.24 -0.17,-0.63 -0.47,-1.03 -0.2,-0.25 -0.61,-0.4 -1.04,-0.49l0.05 -0.31 -1.34 0.49zm2.81 1.39l0.01 -0.02c-0.06,0.03 -0.02,0.01 -0.01,0.02z"/>
   <path class="fil4" d="M1.18 1.45c0.08,0.08 0.19,0.15 0.29,0.22 0.09,0.07 0.21,0.17 0.31,0.21l0.16 -0.72 -0.76 0.29z"/>
   <path class="fil4" d="M2.01 1.66c0.21,0.01 0.45,0.04 0.64,0.09 0.23,0.07 0.32,0.17 0.48,0.25 -0.1,-0.2 -0.23,-0.3 -0.43,-0.4 -0.14,-0.08 -0.46,-0.21 -0.64,-0.21l-0.05 0.27z"/>
   <path class="fil5" d="M1.76 3.37c-0.04,0.02 -0.02,0.04 -0.02,0.11 0,0.24 -0.05,0.53 0.35,0.54 0.33,0.01 0.68,-0.01 1.02,-0.01 0.34,0 0.71,0.09 0.79,-0.23 0.04,-0.19 0.02,-0.77 0.02,-1 -0.07,0.01 -0.05,-0.02 -0.05,0.08l0 0.37c0,0.31 0.08,0.7 -0.24,0.74l-1.48 0c-0.18,0 -0.28,-0.01 -0.34,-0.15 -0.07,-0.13 -0.01,-0.35 -0.05,-0.45z"/>
   <path class="fil2" d="M2.8 3.43c-0.17,0.04 -0.09,0.26 0.06,0.22 0.12,-0.04 0.09,-0.25 -0.06,-0.22z"/>
   <path class="fil2" d="M2.21 3.45c-0.13,0.1 0.01,0.25 0.13,0.19 0.11,-0.07 0.01,-0.29 -0.13,-0.19z"/>
   <path class="fil2" d="M3.48 3.59l0 -0.1c-0.3,-0.25 -0.3,0.35 0,0.1z"/>
   <path class="fil1" d="M3.63 2.8c-0.01,-0.01 -0.05,0.01 0.01,-0.02 0.01,-0.04 0.02,-0.03 -0.02,-0.03 -0.02,0.04 0.02,0.03 -0.02,0.03 0,-0.02 0.01,-0.02 -0.01,-0.02 0,0.01 0.01,0.04 0.01,0.04 0.02,0.03 0,0.01 0.03,0.03 0.01,-0.02 0.04,0.02 0,-0.03z"/>
  </g>
 </g>
</svg>
