<?xml version="1.0" encoding="UTF-8"?>
<!DOCTYPE svg PUBLIC "-//W3C//DTD SVG 1.1//EN" "http://www.w3.org/Graphics/SVG/1.1/DTD/svg11.dtd">
<!-- Creator: CorelDRAW 2021 (64 Bit) -->
<svg xmlns="http://www.w3.org/2000/svg" xml:space="preserve" width="330px" height="330px" version="1.1" style="shape-rendering:geometricPrecision; text-rendering:geometricPrecision; image-rendering:optimizeQuality; fill-rule:evenodd; clip-rule:evenodd"
viewBox="0 0 166.37 166.37"
 xmlns:xlink="http://www.w3.org/1999/xlink"
 xmlns:xodm="http://www.corel.com/coreldraw/odm/2003">
 <defs>
  <style type="text/css">
   <![CDATA[
    .str0 {stroke:#C4C4C4;stroke-width:15.12;stroke-miterlimit:22.9256}
    .fil1 {fill:black}
    .fil0 {fill:white}
   ]]>
  </style>
 </defs>
 <g id="Camada_x0020_1">
  <metadata id="CorelCorpID_0Corel-Layer"/>
  <g id="_2713730800928">
   <circle class="fil0 str0" cx="83.19" cy="83.19" r="75.62"/>
   <path class="fil1" d="M29.84 83.19l85 36.58c-0.29,-1.18 -4,-9.2 -5.37,-13.99 -1.56,-5.18 -2.83,-10.66 -3.32,-16.53 6.15,0 12.21,0 18.27,0 2.44,0 6.54,0.39 8.6,-0.59 1.85,-0.78 3.51,-2.64 3.51,-5.47 0,-7.34 -8.01,-6.16 -11.82,-6.16 -6.15,0 -12.31,0 -18.46,0 0.19,-7.24 2.93,-16.92 5.66,-23.48 0.78,-2.05 2.44,-5.18 2.93,-6.94 -2.93,0.78 -7.62,3.13 -10.65,4.4 -3.51,1.56 -7.13,3.03 -10.65,4.6l-63.7 27.58 0 0z"/>
  </g>
 </g>
</svg>
