<?xml version="1.0" encoding="UTF-8"?>
<!DOCTYPE svg PUBLIC "-//W3C//DTD SVG 1.1//EN" "http://www.w3.org/Graphics/SVG/1.1/DTD/svg11.dtd">
<!-- Creator: CorelDRAW 2021 (64 Bit) -->
<svg xmlns="http://www.w3.org/2000/svg" xml:space="preserve" width="400px" height="400px" version="1.1" style="shape-rendering:geometricPrecision; text-rendering:geometricPrecision; image-rendering:optimizeQuality; fill-rule:evenodd; clip-rule:evenodd"
viewBox="0 0 178.62 178.62"
 xmlns:xlink="http://www.w3.org/1999/xlink"
 xmlns:xodm="http://www.corel.com/coreldraw/odm/2003">
 <defs>
  <style type="text/css">
   <![CDATA[
    .str2 {stroke:#AEA19E;stroke-width:7.14;stroke-miterlimit:22.9256;stroke-opacity:0.949020}
    .str6 {stroke:#0D00FF;stroke-width:8.93;stroke-miterlimit:22.9256}
    .str0 {stroke:#C4C4C4;stroke-width:13.4;stroke-miterlimit:22.9256}
    .str5 {stroke:#00FF32;stroke-width:2.23;stroke-miterlimit:22.9256}
    .str1 {stroke:white;stroke-width:0.89;stroke-miterlimit:22.9256}
    .str3 {stroke:black;stroke-width:5.36;stroke-miterlimit:22.9256}
    .str4 {stroke:#373435;stroke-width:0.4;stroke-miterlimit:22.9256}
    .fil4 {fill:none}
    .fil1 {fill:#E6E7E8}
    .fil5 {fill:#373435}
    .fil6 {fill:#00FF32}
    .fil0 {fill:white}
    .fil2 {fill:#333333;fill-rule:nonzero}
    .fil3 {fill:#FEFEFE;fill-rule:nonzero;fill-opacity:0.949020}
   ]]>
  </style>
 </defs>
 <g id="Camada_x0020_1">
  <metadata id="CorelCorpID_0Corel-Layer"/>
  <g id="_2069732277584">
   <circle class="fil0 str0" cx="89.31" cy="89.31" r="82.61"/>
   <g>
    <g>
     <rect class="fil1 str1" x="46.13" y="98.51" width="16.43" height="38.69"/>
     <path class="fil2" d="M89.82 139.69c-3.15,0 -6.26,-1.19 -9.29,-2.34 -3.32,-1.26 -6.75,-2.57 -10.16,-2.26l-8.39 0.76 0 -33.32 4.57 -0.41c2.85,-0.25 5.23,0.87 7.53,1.97 2.15,1.03 4.19,2.01 6.54,1.8l15.03 -2.79c5.38,-0.94 8.35,2.24 10.16,5.15l16.41 -7.81c6.19,-2.84 13.15,0.01 17.32,7.1 1.1,1.86 0.49,4.34 -1.36,5.52 -2.12,1.35 -4.24,2.71 -6.34,4.06 -18.33,11.76 -34.17,21.91 -40.94,22.52 -0.36,0.03 -0.72,0.05 -1.08,0.05zm-18.39 -6.95c3.44,0 6.71,1.24 9.89,2.45 3.27,1.25 6.37,2.42 9.38,2.15 6.24,-0.56 22.61,-11.06 39.94,-22.17 2.1,-1.35 4.22,-2.71 6.35,-4.07 0.81,-0.52 1.09,-1.58 0.63,-2.37 -3.56,-6.05 -9.37,-8.53 -14.46,-6.19l-18.26 8.68c-0.04,-1.21 -0.94,-2.62 -1.44,-3.23 -1.68,-2.06 -4.95,-3.06 -7.42,-2.62l-15.13 2.8c-3.04,0.26 -5.45,-0.88 -7.79,-1.99 -2.12,-1.02 -4.12,-1.98 -6.37,-1.77l-2.52 0.23 0 28.69 5.95 -0.54c0.41,-0.03 0.83,-0.05 1.25,-0.05z"/>
     <path class="fil3 str2" d="M60.41 139.69l-12.84 0c-2.11,0 -3.82,-1.76 -3.82,-3.92l0 -35.34c0,-2.15 1.71,-3.91 3.82,-3.91l12.84 0c2.11,0 3.82,1.76 3.82,3.91l0 35.35c0,2.15 -1.71,3.91 -3.82,3.91zm-12.84 -40.86c-0.87,0 -1.57,0.72 -1.57,1.6l0 35.35c0,0.88 0.7,1.6 1.57,1.6l12.84 0c0.87,0 1.57,-0.72 1.57,-1.61l0 -35.34c0,-0.88 -0.7,-1.6 -1.57,-1.6l-12.84 0z"/>
     <path class="fil4 str3" d="M105.78 110.63c0.28,0.54 0.3,1.48 -0.32,2.51 -0.97,1.59 -3.2,2.82 -8.6,2.17 -4.01,-0.48 -8.81,0.48 -12.97,0.93"/>
    </g>
    <g>
     <g>
      <g>
       <path class="fil5 str4" d="M54.63 76.68c1.82,-1.97 2.68,-2.46 5.38,-3.51 4.26,-1.65 12.85,-3.9 15.03,1.15 0.36,0.84 0.36,1.92 0.48,3.01 2.29,-1.23 5.48,-3.82 8.26,-3.38 1.84,0.28 3.18,1.61 3.29,3.16 0.02,0.31 -0.16,2.68 -0.29,3.52 1.42,-0.02 4.14,-0.84 4.82,-1.17 2.97,-1.47 5.62,-4.6 9.88,-4.56 1.29,0.01 1.06,0.08 2.17,0.67 -1.71,0.96 -0.25,0.2 -1.79,0.86 -2.76,1.17 -4.07,3.13 -6.01,4.99 -2.33,2.23 -7.09,4.58 -10.85,4.09 -2.59,-0.34 -3.78,-1.58 -4.35,-3.12 -2.13,1.37 -4.55,2.49 -6.95,2.51 -3.88,0.04 -5.72,-2.51 -6.7,-5.25 -1.27,0.42 -2.56,0.97 -3.54,1.61 -0.02,0.02 -0.04,0.05 -0.06,0.07 0.01,-0.02 0.02,-0.03 0.03,-0.05 -0.08,0.05 -0.16,0.11 -0.24,0.16 0.09,-0.02 0.13,-0.03 0.16,-0.05 -1.54,1.68 -4.37,2.21 -6.66,1.17 -2.53,-1.15 -3.45,-3.78 -2.06,-5.88zm19.46 1.22c-0.12,0.01 -0.25,0.02 -0.39,0.04 0.12,0 0.25,-0.01 0.39,-0.04zm12.38 2.72c-0.1,-0.06 -0.22,-0.1 -0.33,-0.07 0.09,0.04 0.2,0.06 0.33,0.07zm-20.32 -4.27c-0.01,-0.06 -0.02,-0.12 -0.03,-0.18 0.01,0.06 0.02,0.12 0.03,0.18zm-2.8 5.04c0.02,-0.01 0.03,-0.03 0.05,-0.06 -0.02,0.02 -0.03,0.04 -0.05,0.06z"/>
      </g>
      <path class="fil4" d="M59.2 78.76c1.08,-1.63 11.29,-5.2 11.53,-2.92 0.81,7.77 3.84,6.51 10.99,1.66 5.27,-3.58 -4.03,9.9 10.22,4.13 3.08,-1.25 6.11,-6.46 11.71,-6.06"/>
     </g>
     <g>
      <rect class="fil6 str5" transform="matrix(0.282342 0.268308 -0.262141 0.288984 130.589 37.3799)" width="11.75" height="84.38"/>
      <g>
       <polyline class="fil4 str6" points="104.36,73.14 111.39,64.28 114.48,64.52 131.91,45.4 135,39.57 131.35,37.47 124.88,41.43 107.45,61.25 111.39,64.28 "/>
       <polyline class="fil4 str6" points="109.42,62.77 106.36,66.48 101.83,71.98 101.37,74.36 104.36,73.14 "/>
      </g>
     </g>
    </g>
   </g>
  </g>
 </g>
</svg>
