<?xml version="1.0" encoding="UTF-8"?>
<!DOCTYPE svg PUBLIC "-//W3C//DTD SVG 1.1//EN" "http://www.w3.org/Graphics/SVG/1.1/DTD/svg11.dtd">
<!-- Creator: CorelDRAW 2021 (64 Bit) -->
<svg xmlns="http://www.w3.org/2000/svg" xml:space="preserve" width="330px" height="330px" version="1.1" style="shape-rendering:geometricPrecision; text-rendering:geometricPrecision; image-rendering:optimizeQuality; fill-rule:evenodd; clip-rule:evenodd"
viewBox="0 0 158.93 158.93"
 xmlns:xlink="http://www.w3.org/1999/xlink"
 xmlns:xodm="http://www.corel.com/coreldraw/odm/2003">
 <defs>
  <style type="text/css">
   <![CDATA[
    .str0 {stroke:#C4C4C4;stroke-width:14.45;stroke-miterlimit:22.9256}
    .str1 {stroke:black;stroke-width:3.85;stroke-miterlimit:22.9256}
    .fil1 {fill:black}
    .fil0 {fill:white}
   ]]>
  </style>
 </defs>
 <g id="Camada_x0020_1">
  <metadata id="CorelCorpID_0Corel-Layer"/>
  <g id="_2713799034016">
   <circle class="fil0 str0" cx="79.46" cy="79.46" r="72.24"/>
   <g>
    <path class="fil1 str1" d="M54.04 46.25l50.28 0c4.54,0 8.21,1.87 8.21,4.19l0 0c0,2.31 -3.67,4.19 -8.21,4.19l-50.28 0c-4.54,0 -8.21,-1.88 -8.21,-4.19l0 0c0,-2.32 3.67,-4.19 8.21,-4.19z"/>
    <path class="fil1 str1" d="M54.04 65.72l50.28 0c4.54,0 8.21,1.88 8.21,4.19l0 0c0,2.32 -3.67,4.2 -8.21,4.2l-50.28 0c-4.54,0 -8.21,-1.88 -8.21,-4.2l0 0c0,-2.31 3.67,-4.19 8.21,-4.19z"/>
    <path class="fil1 str1" d="M54.04 85.2l50.28 0c4.54,0 8.21,1.88 8.21,4.19l0 0c0,2.32 -3.67,4.2 -8.21,4.2l-50.28 0c-4.54,0 -8.21,-1.88 -8.21,-4.2l0 0c0,-2.31 3.67,-4.19 8.21,-4.19z"/>
    <path class="fil1 str1" d="M54.04 104.68l50.28 0c4.54,0 8.21,1.87 8.21,4.19l0 0c0,2.31 -3.67,4.19 -8.21,4.19l-50.28 0c-4.54,0 -8.21,-1.88 -8.21,-4.19l0 0c0,-2.32 3.67,-4.19 8.21,-4.19z"/>
   </g>
  </g>
 </g>
</svg>
