<?xml version="1.0" encoding="UTF-8"?>
<!DOCTYPE svg PUBLIC "-//W3C//DTD SVG 1.1//EN" "http://www.w3.org/Graphics/SVG/1.1/DTD/svg11.dtd">
<!-- Creator: CorelDRAW 2021 (64 Bit) -->
<svg xmlns="http://www.w3.org/2000/svg" xml:space="preserve" width="330px" height="330px" version="1.1" style="shape-rendering:geometricPrecision; text-rendering:geometricPrecision; image-rendering:optimizeQuality; fill-rule:evenodd; clip-rule:evenodd"
viewBox="0 0 154.51 154.51"
 xmlns:xlink="http://www.w3.org/1999/xlink"
 xmlns:xodm="http://www.corel.com/coreldraw/odm/2003">
 <defs>
  <style type="text/css">
   <![CDATA[
    .str0 {stroke:#C4C4C4;stroke-width:14.05;stroke-miterlimit:22.9256}
    .fil0 {fill:white}
    .fil1 {fill:#33CC66;fill-rule:nonzero}
   ]]>
  </style>
 </defs>
 <g id="Camada_x0020_1">
  <metadata id="CorelCorpID_0Corel-Layer"/>
  <g id="_2713726328272">
   <circle class="fil0 str0" cx="77.25" cy="77.25" r="70.23"/>
   <path id="bt_avatar.svg" class="fil1" d="M114.76 86.43c0,-2.61 -5.26,-12.2 -7.84,-16.79 0.25,-1.34 0.64,-4.35 0.64,-8.83 0,-7.86 -10.02,-27.51 -33.9,-27.51 -23.39,0 -33.91,18.21 -33.91,31.16 0,9.16 5.26,18.49 9.46,25.99 2.47,4.45 4.8,8.54 4.8,10.64 0,4.63 -7.38,13.93 -10.27,17.04 -0.46,0.54 -0.57,1.3 -0.25,1.99 0.25,0.69 0.85,1.09 1.59,1.09l39.3 0c0.99,0 1.73,-0.47 1.73,-1.49 0.67,-1.3 6.99,-4.85 12.81,-5.82 4.48,-0.73 10.44,-1.78 10.44,-7.35 0,-2.39 -0.78,-3.62 -1.31,-4.45 -0.42,-0.54 -0.49,-0.65 -0.67,-1.01 0.99,0.14 1.87,-0.62 1.98,-1.63 0.07,-0.33 0,-0.76 -0.18,-1.09l1.45 -1.52c0.46,-0.47 0.67,-1.23 0.46,-1.84l-1.2 -3.66c2.08,-0.76 4.87,-2.28 4.87,-4.92l0 0 0 0z"/>
  </g>
 </g>
</svg>
