<?xml version="1.0" encoding="UTF-8"?>
<!DOCTYPE svg PUBLIC "-//W3C//DTD SVG 1.1//EN" "http://www.w3.org/Graphics/SVG/1.1/DTD/svg11.dtd">
<!-- Creator: CorelDRAW 2021 (64 Bit) -->
<svg xmlns="http://www.w3.org/2000/svg" xml:space="preserve" width="400px" height="400px" version="1.1" style="shape-rendering:geometricPrecision; text-rendering:geometricPrecision; image-rendering:optimizeQuality; fill-rule:evenodd; clip-rule:evenodd"
viewBox="0 0 2.53 2.53"
 xmlns:xlink="http://www.w3.org/1999/xlink"
 xmlns:xodm="http://www.corel.com/coreldraw/odm/2003">
 <defs>
  <style type="text/css">
   <![CDATA[
    .str0 {stroke:#B8B4B6;stroke-width:0.19;stroke-miterlimit:22.9256}
    .str1 {stroke:red;stroke-width:0.22;stroke-miterlimit:22.9256}
    .fil1 {fill:none}
    .fil5 {fill:black}
    .fil3 {fill:#999999}
    .fil0 {fill:white}
    .fil4 {fill:black;fill-rule:nonzero}
    .fil2 {fill:#999999;fill-rule:nonzero}
   ]]>
  </style>
 </defs>
 <g id="Camada_x0020_1">
  <metadata id="CorelCorpID_0Corel-Layer"/>
  <g id="_2069850174480">
   <path class="fil0 str0" d="M0.2 0.09l2.13 0c0.06,0 0.1,0.06 0.1,0.12l0 2.11c0,0.06 -0.04,0.11 -0.1,0.11l-2.13 0c-0.06,0 -0.1,-0.05 -0.1,-0.11 0,-0.26 -0.01,-2.04 0,-2.13 0,-0.05 0.06,-0.1 0.1,-0.1z"/>
   <g>
    <path class="fil1 str1" d="M0.54 0.35l1.45 0c0.04,0 0.07,0.04 0.07,0.08l0 0.93c0,0.04 -0.03,0.07 -0.07,0.07l-1.45 0c-0.04,0 -0.07,-0.03 -0.07,-0.07l0 -0.93c0,-0.04 0.03,-0.08 0.07,-0.08zm-0.06 0.04l0.78 0.48 0.79 -0.48"/>
    <path class="fil2" d="M0.83 2.17l0.07 0c-0.02,0.05 -0.05,0.08 -0.1,0.11 -0.05,0.03 -0.11,0.04 -0.19,0.04 -0.07,0 -0.13,-0.01 -0.18,-0.04 -0.05,-0.02 -0.09,-0.06 -0.12,-0.1 -0.02,-0.05 -0.04,-0.1 -0.04,-0.16 0,-0.06 0.02,-0.12 0.05,-0.17 0.03,-0.05 0.06,-0.09 0.11,-0.12 0.05,-0.02 0.11,-0.04 0.18,-0.04 0.05,0 0.1,0.01 0.14,0.04 0.04,0.02 0.08,0.05 0.1,0.09 0.02,0.04 0.03,0.08 0.03,0.12 0,0.06 -0.01,0.11 -0.05,0.16 -0.04,0.05 -0.1,0.08 -0.16,0.08 -0.02,0 -0.03,0 -0.04,-0.01 -0.01,-0.01 -0.02,-0.02 -0.02,-0.03 -0.03,0.03 -0.06,0.04 -0.09,0.04 -0.03,0 -0.06,-0.01 -0.09,-0.04 -0.02,-0.02 -0.03,-0.06 -0.03,-0.1 0,-0.05 0.01,-0.09 0.04,-0.14 0.03,-0.05 0.08,-0.07 0.13,-0.07 0.04,0 0.07,0.01 0.09,0.04l0.01 -0.04 0.08 0 -0.05 0.24c0,0.01 0,0.02 0,0.03 0,0 0,0.01 0,0.01 0,0 0.01,0 0.01,0 0.01,0 0.02,0 0.04,-0.02 0.02,-0.01 0.04,-0.03 0.05,-0.06 0.02,-0.03 0.02,-0.06 0.02,-0.09 0,-0.05 -0.01,-0.1 -0.05,-0.13 -0.04,-0.04 -0.1,-0.06 -0.16,-0.06 -0.06,0 -0.11,0.02 -0.15,0.04 -0.04,0.02 -0.08,0.06 -0.1,0.1 -0.02,0.04 -0.03,0.09 -0.03,0.14 0,0.04 0.01,0.09 0.04,0.12 0.02,0.04 0.05,0.07 0.09,0.09 0.05,0.01 0.09,0.02 0.15,0.02 0.05,0 0.09,-0.01 0.13,-0.02 0.04,-0.02 0.07,-0.04 0.09,-0.07zm-0.35 -0.13c0,0.03 0.01,0.05 0.02,0.06 0.01,0.01 0.02,0.02 0.04,0.02 0.01,0 0.02,0 0.03,-0.01 0.01,0 0.02,-0.01 0.03,-0.02 0.01,-0.01 0.02,-0.03 0.03,-0.06 0.01,-0.02 0.01,-0.05 0.01,-0.07 0,-0.02 -0.01,-0.04 -0.02,-0.05 -0.01,-0.02 -0.02,-0.02 -0.04,-0.02 -0.02,0 -0.04,0 -0.05,0.02 -0.02,0.01 -0.03,0.03 -0.04,0.06 -0.01,0.03 -0.01,0.05 -0.01,0.07z"/>
    <path id="_1" class="fil2" d="M0.94 1.83l0.09 0 0 0.05c0.03,-0.04 0.06,-0.05 0.11,-0.05 0.02,0 0.04,0 0.05,0.01 0.02,0.01 0.03,0.02 0.04,0.04 0.02,-0.02 0.03,-0.03 0.05,-0.04 0.02,-0.01 0.04,-0.01 0.06,-0.01 0.02,0 0.05,0 0.06,0.01 0.02,0.01 0.03,0.03 0.04,0.05 0.01,0.01 0.01,0.04 0.01,0.07l0 0.22 -0.09 0 0 -0.2c0,-0.03 0,-0.05 -0.01,-0.06 -0.01,-0.02 -0.02,-0.02 -0.04,-0.02 -0.01,0 -0.02,0 -0.03,0.01 -0.02,0.01 -0.02,0.02 -0.03,0.03 0,0.02 -0.01,0.04 -0.01,0.07l0 0.17 -0.09 0 0 -0.19c0,-0.03 0,-0.05 0,-0.06 -0.01,-0.01 -0.01,-0.02 -0.02,-0.03 0,0 -0.01,0 -0.03,0 -0.01,0 -0.02,0 -0.03,0.01 -0.01,0.01 -0.02,0.02 -0.03,0.03 0,0.01 0,0.04 0,0.07l0 0.17 -0.1 0 0 -0.35z"/>
    <path id="_2" class="fil2" d="M1.61 1.94l-0.08 -0.01c0.01,-0.04 0.02,-0.06 0.05,-0.08 0.02,-0.02 0.05,-0.02 0.1,-0.02 0.04,0 0.07,0 0.09,0.01 0.02,0.01 0.03,0.02 0.04,0.04 0.01,0.01 0.01,0.04 0.01,0.08l0 0.11c0,0.03 0,0.05 0.01,0.06 0,0.02 0,0.03 0.01,0.05l-0.09 0c0,-0.01 0,-0.02 -0.01,-0.03 0,0 0,-0.01 0,-0.01 -0.02,0.02 -0.03,0.03 -0.05,0.04 -0.02,0 -0.04,0.01 -0.06,0.01 -0.03,0 -0.06,-0.01 -0.08,-0.03 -0.02,-0.02 -0.03,-0.04 -0.03,-0.07 0,-0.02 0,-0.04 0.01,-0.06 0.01,-0.01 0.03,-0.02 0.04,-0.03 0.02,-0.01 0.04,-0.02 0.07,-0.02 0.05,-0.01 0.08,-0.02 0.09,-0.02l0 -0.01c0,-0.02 0,-0.03 -0.01,-0.04 -0.01,-0.01 -0.02,-0.01 -0.05,-0.01 -0.02,0 -0.03,0 -0.04,0.01 -0.01,0 -0.01,0.01 -0.02,0.03zm0.12 0.07c-0.01,0.01 -0.03,0.01 -0.05,0.02 -0.03,0 -0.04,0.01 -0.05,0.01 -0.01,0.01 -0.02,0.02 -0.02,0.04 0,0.01 0,0.02 0.01,0.03 0.01,0.01 0.03,0.01 0.04,0.01 0.02,0 0.03,0 0.05,-0.01 0.01,-0.01 0.02,-0.02 0.02,-0.03 0,-0.01 0,-0.03 0,-0.05l0 -0.02z"/>
    <path id="_3" class="fil2" d="M1.91 1.79l0 -0.09 0.09 0 0 0.09 -0.09 0zm0 0.39l0 -0.35 0.09 0 0 0.35 -0.09 0z"/>
    <polygon id="_4" class="fil2" points="2.1,2.18 2.1,1.7 2.19,1.7 2.19,2.18 "/>
    <polygon id="_5" class="fil3" points="0.25,2.24 2.24,2.24 2.24,2.27 0.25,2.27 "/>
    <path class="fil4" d="M0.87 2.13l0.06 0c-0.02,0.04 -0.05,0.08 -0.1,0.1 -0.05,0.03 -0.11,0.05 -0.18,0.05 -0.07,0 -0.14,-0.01 -0.19,-0.04 -0.05,-0.02 -0.09,-0.06 -0.11,-0.11 -0.03,-0.04 -0.04,-0.1 -0.04,-0.15 0,-0.06 0.01,-0.12 0.04,-0.17 0.03,-0.05 0.07,-0.09 0.12,-0.12 0.05,-0.03 0.11,-0.04 0.17,-0.04 0.06,0 0.1,0.01 0.15,0.03 0.04,0.02 0.07,0.05 0.09,0.09 0.03,0.04 0.04,0.08 0.04,0.13 0,0.06 -0.02,0.11 -0.05,0.15 -0.05,0.06 -0.1,0.09 -0.17,0.09 -0.02,0 -0.03,-0.01 -0.04,-0.01 -0.01,-0.01 -0.01,-0.02 -0.02,-0.03 -0.02,0.02 -0.05,0.04 -0.08,0.04 -0.04,0 -0.07,-0.02 -0.09,-0.04 -0.03,-0.03 -0.04,-0.06 -0.04,-0.1 0,-0.05 0.01,-0.1 0.04,-0.14 0.04,-0.05 0.08,-0.08 0.14,-0.08 0.03,0 0.06,0.02 0.08,0.05l0.01 -0.04 0.09 0 -0.05 0.23c-0.01,0.02 -0.01,0.03 -0.01,0.03 0,0.01 0,0.01 0.01,0.02 0,0 0,0 0,0 0.01,0 0.03,-0.01 0.04,-0.02 0.03,-0.02 0.04,-0.04 0.06,-0.07 0.01,-0.02 0.02,-0.05 0.02,-0.08 0,-0.06 -0.02,-0.1 -0.06,-0.14 -0.04,-0.03 -0.09,-0.05 -0.16,-0.05 -0.06,0 -0.11,0.01 -0.15,0.04 -0.04,0.02 -0.07,0.05 -0.09,0.1 -0.02,0.04 -0.03,0.09 -0.03,0.13 0,0.05 0.01,0.09 0.03,0.13 0.02,0.04 0.06,0.06 0.1,0.08 0.04,0.02 0.09,0.03 0.14,0.03 0.05,0 0.1,-0.01 0.14,-0.02 0.03,-0.02 0.06,-0.04 0.09,-0.07zm-0.36 -0.13c0,0.02 0.01,0.04 0.02,0.06 0.01,0.01 0.03,0.02 0.04,0.02 0.01,0 0.03,-0.01 0.04,-0.01 0.01,-0.01 0.01,-0.01 0.02,-0.02 0.01,-0.02 0.02,-0.04 0.03,-0.06 0.01,-0.03 0.01,-0.05 0.01,-0.07 0,-0.03 0,-0.05 -0.01,-0.06 -0.01,-0.01 -0.03,-0.02 -0.05,-0.02 -0.01,0 -0.03,0.01 -0.05,0.02 -0.01,0.02 -0.03,0.04 -0.03,0.07 -0.01,0.02 -0.02,0.05 -0.02,0.07z"/>
    <path id="_1_0" class="fil4" d="M0.98 1.79l0.08 0 0 0.05c0.03,-0.04 0.07,-0.06 0.11,-0.06 0.02,0 0.04,0.01 0.06,0.02 0.01,0.01 0.03,0.02 0.04,0.04 0.01,-0.02 0.03,-0.03 0.05,-0.04 0.01,-0.01 0.03,-0.02 0.05,-0.02 0.03,0 0.05,0.01 0.07,0.02 0.01,0.01 0.03,0.02 0.04,0.04 0,0.02 0.01,0.04 0.01,0.08l0 0.22 -0.1 0 0 -0.2c0,-0.04 0,-0.06 -0.01,-0.07 0,-0.01 -0.02,-0.02 -0.03,-0.02 -0.02,0 -0.03,0.01 -0.04,0.01 -0.01,0.01 -0.02,0.02 -0.02,0.04 -0.01,0.01 -0.01,0.04 -0.01,0.07l0 0.17 -0.09 0 0 -0.19c0,-0.04 -0.01,-0.06 -0.01,-0.07 0,-0.01 -0.01,-0.02 -0.01,-0.02 -0.01,0 -0.02,-0.01 -0.03,-0.01 -0.02,0 -0.03,0.01 -0.04,0.01 -0.01,0.01 -0.02,0.02 -0.02,0.04 -0.01,0.01 -0.01,0.04 -0.01,0.07l0 0.17 -0.09 0 0 -0.35z"/>
    <path id="_2_1" class="fil4" d="M1.64 1.9l-0.08 -0.02c0.01,-0.03 0.03,-0.06 0.05,-0.07 0.02,-0.02 0.06,-0.03 0.1,-0.03 0.04,0 0.07,0.01 0.09,0.02 0.02,0.01 0.04,0.02 0.05,0.03 0,0.02 0.01,0.05 0.01,0.09l0 0.1c0,0.03 0,0.06 0,0.07 0,0.01 0.01,0.03 0.02,0.05l-0.09 0c-0.01,-0.01 -0.01,-0.02 -0.01,-0.03 0,-0.01 -0.01,-0.01 -0.01,-0.01 -0.01,0.01 -0.03,0.03 -0.05,0.03 -0.01,0.01 -0.03,0.01 -0.05,0.01 -0.04,0 -0.07,0 -0.09,-0.02 -0.02,-0.02 -0.03,-0.05 -0.03,-0.08 0,-0.02 0.01,-0.03 0.02,-0.05 0.01,-0.01 0.02,-0.03 0.04,-0.03 0.01,-0.01 0.04,-0.02 0.07,-0.03 0.04,0 0.07,-0.01 0.09,-0.02l0 -0.01c0,-0.02 -0.01,-0.03 -0.02,-0.04 0,0 -0.02,-0.01 -0.04,-0.01 -0.02,0 -0.03,0.01 -0.04,0.01 -0.01,0.01 -0.02,0.02 -0.03,0.04zm0.13 0.07c-0.01,0 -0.03,0.01 -0.06,0.01 -0.02,0.01 -0.04,0.02 -0.05,0.02 -0.01,0.01 -0.02,0.02 -0.02,0.03 0,0.02 0.01,0.03 0.02,0.04 0.01,0.01 0.02,0.01 0.03,0.01 0.02,0 0.04,-0.01 0.05,-0.02 0.01,0 0.02,-0.01 0.02,-0.03 0.01,0 0.01,-0.02 0.01,-0.04l0 -0.02z"/>
    <path id="_3_2" class="fil4" d="M1.95 1.74l0 -0.08 0.09 0 0 0.08 -0.09 0zm0 0.4l0 -0.35 0.09 0 0 0.35 -0.09 0z"/>
    <polygon id="_4_3" class="fil4" points="2.13,2.14 2.13,1.66 2.22,1.66 2.22,2.14 "/>
    <polygon id="_5_4" class="fil5" points="0.29,2.2 2.27,2.2 2.27,2.23 0.29,2.23 "/>
   </g>
  </g>
 </g>
</svg>
