<?xml version="1.0" encoding="UTF-8"?>
<!DOCTYPE svg PUBLIC "-//W3C//DTD SVG 1.1//EN" "http://www.w3.org/Graphics/SVG/1.1/DTD/svg11.dtd">
<!-- Creator: CorelDRAW 2021 (64 Bit) -->
<svg xmlns="http://www.w3.org/2000/svg" xml:space="preserve" width="330px" height="330px" version="1.1" style="shape-rendering:geometricPrecision; text-rendering:geometricPrecision; image-rendering:optimizeQuality; fill-rule:evenodd; clip-rule:evenodd"
viewBox="0 0 2.43 2.43"
 xmlns:xlink="http://www.w3.org/1999/xlink"
 xmlns:xodm="http://www.corel.com/coreldraw/odm/2003">
 <defs>
  <style type="text/css">
   <![CDATA[
    .fil2 {fill:black}
    .fil7 {fill:#1AA33B}
    .fil4 {fill:#27F658}
    .fil3 {fill:#282829}
    .fil6 {fill:dimgray}
    .fil1 {fill:#C4C4C4}
    .fil5 {fill:#FD0018}
    .fil0 {fill:#FEFEFE}
   ]]>
  </style>
 </defs>
 <g id="Camada_x0020_1">
  <metadata id="CorelCorpID_0Corel-Layer"/>
  <g id="_2400686172400">
   <path class="fil0" d="M0.7 1.71c-0.02,-0.01 -0.01,-0.24 0,-0.28 0.02,0 0.05,0 0.08,0 0.02,0 0.03,0 0.05,0 0,0 0.01,0 0.02,0 0.02,0.01 0,0 0.01,0.01 0,0.29 -0.02,0.28 0.13,0.28 0.13,0 0.64,0 0.7,0.01 0,0 0.01,-0.01 0.01,-0.01l0 -0.01c-0.08,-0.1 -0.19,-0.26 -0.29,-0.34 -0.12,-0.09 -0.32,-0.14 -0.51,-0.14l-0.03 0.16 -0.39 -0.26c-0.04,-0.03 -0.1,-0.06 -0.13,-0.09l0.65 -0.24 -0.03 0.15c0.08,0.03 0.35,0.05 0.51,0.24 0.11,0.13 0.21,0.49 0.23,0.5 0.02,0.02 0,0.02 0.02,0.01 -0.01,-0.08 0,-0.18 0,-0.26l0 -0.53c0,-0.07 0.02,-0.19 -0.03,-0.23 -0.02,-0.01 -0.61,0 -0.72,0 -0.12,0 -0.12,0.01 -0.12,0.12l-0.17 0c0,-0.18 0.06,-0.29 0.25,-0.29 0.17,0 0.35,0 0.53,0 0.19,0 0.33,-0.03 0.41,0.13 0.04,0.08 0.02,0.39 0.02,0.5 0,0.17 0.01,0.38 0,0.54 -0.02,0.2 -0.17,0.22 -0.32,0.21 -0.17,0 -0.36,0 -0.53,0 -0.08,0 -0.17,0.01 -0.24,-0.03 -0.04,-0.02 -0.11,-0.08 -0.11,-0.15zm0.43 -1.48c-0.14,0.01 -0.28,0.05 -0.38,0.11 -0.34,0.19 -0.56,0.54 -0.52,0.97 0.04,0.51 0.5,0.95 1.08,0.9 0.52,-0.05 0.95,-0.51 0.9,-1.09 -0.05,-0.51 -0.51,-0.95 -1.08,-0.89z"/>
   <path class="fil1" d="M1.13 0.23c0.57,-0.06 1.03,0.38 1.08,0.89 0.05,0.58 -0.38,1.04 -0.9,1.09 -0.58,0.05 -1.04,-0.39 -1.08,-0.9 -0.04,-0.43 0.18,-0.78 0.52,-0.97 0.1,-0.06 0.24,-0.1 0.38,-0.11zm-1.13 0.96c0,0.3 0.08,0.55 0.23,0.73 0.3,0.41 0.76,0.59 1.26,0.48 0.22,-0.04 0.44,-0.17 0.59,-0.32 0.02,-0.02 0.03,-0.04 0.05,-0.06 0.02,-0.02 0.03,-0.04 0.05,-0.06 0.35,-0.43 0.33,-1.08 -0.02,-1.51 -0.07,-0.09 -0.14,-0.15 -0.23,-0.22 -0.35,-0.26 -0.82,-0.3 -1.22,-0.12 -0.1,0.04 -0.2,0.11 -0.27,0.17 -0.09,0.07 -0.15,0.14 -0.22,0.24 -0.13,0.17 -0.22,0.42 -0.22,0.67z"/>
   <path class="fil2" d="M0.77 1.7c0,-0.01 0,0 0,-0.02l0 -0.13c0,-0.04 -0.01,-0.04 0.01,-0.05 0.02,0.03 0.01,0.11 0.01,0.14 0,0.19 0.13,0.16 0.29,0.16 0.15,0 0.29,0 0.44,0 0.34,0 0.28,0 0.28,-0.59 0,-0.6 0.06,-0.6 -0.27,-0.61 -0.14,0 -0.29,0.01 -0.44,0 -0.16,0 -0.25,-0.03 -0.29,0.1l-0.02 0.03c-0.03,-0.04 0.04,-0.12 0.08,-0.14 0.05,-0.02 0.58,-0.01 0.67,-0.01 0.15,0 0.28,-0.02 0.29,0.16l0.01 0.9c-0.01,0.18 -0.11,0.18 -0.28,0.18 -0.08,0 -0.62,0.01 -0.67,-0.01 -0.05,-0.01 -0.1,-0.06 -0.11,-0.11zm0.96 0c-0.01,0.01 0,0 -0.01,0.02 -0.02,0.01 -0.01,0 -0.03,0.01 -0.06,-0.01 -0.57,-0.01 -0.7,-0.01 -0.15,0 -0.13,0.01 -0.13,-0.28l-0.16 -0.01 0 0.28c0,0.07 0.07,0.13 0.11,0.15 0.07,0.04 0.16,0.03 0.24,0.03 0.17,0 0.36,0 0.53,0 0.15,0.01 0.3,-0.01 0.32,-0.21 0.01,-0.16 0,-0.37 0,-0.54 0,-0.11 0.02,-0.42 -0.02,-0.5 -0.08,-0.16 -0.22,-0.13 -0.41,-0.13 -0.18,0 -0.36,0 -0.53,0 -0.19,0 -0.25,0.11 -0.25,0.29l0.17 0c0,-0.11 0,-0.12 0.12,-0.12 0.11,0 0.7,-0.01 0.72,0 0.05,0.04 0.03,0.16 0.03,0.23l0 0.53c0,0.08 -0.01,0.18 0,0.26z"/>
   <path class="fil3" d="M0.95 1.04c0.08,0 0.23,0.05 0.3,0.08 0.08,0.05 0.14,0.08 0.19,0.15 0.02,0.03 0.02,0.02 0.01,0.04l-0.02 -0.02c-0.17,-0.12 -0.28,-0.11 -0.5,-0.14l0.02 -0.11zm-0.06 -0.11l-0.07 0.32c-0.04,-0.01 -0.26,-0.16 -0.29,-0.19l0.36 -0.13zm0.8 0.8c0.02,-0.01 0.01,0 0.03,-0.01 0.01,-0.02 0,-0.01 0.01,-0.02 -0.02,0.01 0,0.01 -0.02,-0.01 -0.02,-0.01 -0.12,-0.37 -0.23,-0.5 -0.16,-0.19 -0.43,-0.21 -0.51,-0.24l0.03 -0.15 -0.65 0.24c0.03,0.03 0.09,0.06 0.13,0.09l0.39 0.26 0.03 -0.16c0.19,0 0.39,0.05 0.51,0.14 0.1,0.08 0.21,0.24 0.29,0.34l0 0.01c0,0 -0.01,0.01 -0.01,0.01z"/>
   <path class="fil4" d="M0.79 1.64c-0.01,0 -0.01,-0.11 -0.01,-0.13 -0.01,0.01 0,0 0,0.02l-0.01 0.17c0.01,0.05 0.06,0.1 0.11,0.11 0.05,0.02 0.59,0.01 0.67,0.01 0.17,0 0.27,0 0.28,-0.18l-0.01 -0.9c-0.01,-0.18 -0.14,-0.16 -0.29,-0.16 -0.09,0 -0.62,-0.01 -0.67,0.01 -0.04,0.02 -0.11,0.1 -0.08,0.14l0.02 -0.03c0.04,-0.13 0.13,-0.1 0.29,-0.1 0.15,0.01 0.3,0 0.44,0 0.33,0.01 0.27,0.01 0.27,0.61 0,0.59 0.06,0.59 -0.28,0.59 -0.15,0 -0.29,0 -0.44,0 -0.16,0 -0.29,0.03 -0.29,-0.16z"/>
   <path class="fil5" d="M0.53 1.06c0.03,0.03 0.25,0.18 0.29,0.19l0.07 -0.32 -0.36 0.13z"/>
   <path class="fil5" d="M0.93 1.15c0.22,0.03 0.33,0.02 0.5,0.14l0.02 0.02c0.01,-0.02 0.01,-0.01 -0.01,-0.04 -0.05,-0.07 -0.11,-0.1 -0.19,-0.15 -0.07,-0.03 -0.22,-0.08 -0.3,-0.08l-0.02 0.11z"/>
   <path class="fil6" d="M0.7 1.71l0 -0.28 0.16 0.01c-0.01,-0.01 0.01,0 -0.01,-0.01 -0.01,0 -0.02,0 -0.02,0 -0.02,0 -0.03,0 -0.05,0 -0.03,0 -0.06,0 -0.08,0 -0.01,0.04 -0.02,0.27 0,0.28z"/>
   <path class="fil7" d="M0.77 1.7l0.01 -0.17c0,-0.02 -0.01,-0.01 0,-0.02 0,0.02 0,0.13 0.01,0.13 0,-0.03 0.01,-0.11 -0.01,-0.14 -0.02,0.01 -0.01,0.01 -0.01,0.05l0 0.13c0,0.02 0,0.01 0,0.02z"/>
  </g>
 </g>
</svg>
