<?xml version="1.0" encoding="UTF-8"?>
<!DOCTYPE svg PUBLIC "-//W3C//DTD SVG 1.1//EN" "http://www.w3.org/Graphics/SVG/1.1/DTD/svg11.dtd">
<!-- Creator: CorelDRAW 2021 (64 Bit) -->
<svg xmlns="http://www.w3.org/2000/svg" xml:space="preserve" width="400px" height="400px" version="1.1" style="shape-rendering:geometricPrecision; text-rendering:geometricPrecision; image-rendering:optimizeQuality; fill-rule:evenodd; clip-rule:evenodd"
viewBox="0 0 178.62 178.62"
 xmlns:xlink="http://www.w3.org/1999/xlink"
 xmlns:xodm="http://www.corel.com/coreldraw/odm/2003">
 <defs>
  <style type="text/css">
   <![CDATA[
    .str0 {stroke:#C4C4C4;stroke-width:13.4;stroke-miterlimit:22.9256}
    .fil1 {fill:black}
    .fil8 {fill:#333333}
    .fil7 {fill:#344E82}
    .fil6 {fill:#525355}
    .fil3 {fill:#6598FE}
    .fil5 {fill:#717275}
    .fil9 {fill:#B8B4B6}
    .fil2 {fill:#D2D3D5}
    .fil4 {fill:#FDFDFD}
    .fil0 {fill:white}
   ]]>
  </style>
 </defs>
 <g id="Camada_x0020_1">
  <metadata id="CorelCorpID_0Corel-Layer"/>
  <g id="_2069737570880">
   <circle class="fil0 str0" cx="89.31" cy="89.31" r="82.61"/>
   <g>
    <g>
     <path class="fil1" d="M117.13 82.62c-1.39,-7.27 9.19,-8.68 10.19,-1.99 0.48,3.19 -1.66,5.7 -4.23,6.14 -3.04,0.52 -5.48,-1.67 -5.96,-4.15zm-46.91 0c-1.38,-7.2 9.11,-8.76 10.18,-1.99 1.11,6.98 -8.93,8.56 -10.18,1.99zm53.9 -8.27c3.97,-0.04 3.48,-0.33 5.32,2.5 2.44,3.75 1.34,8.36 -1.84,11.28 -6.42,5.9 -18.24,-2.19 -12.49,-11.57 1.4,-2.28 1.91,-2.53 5.42,-2.11 -1.22,-0.18 -5.89,2.72 -5.45,7.77 0.75,8.49 12.83,8.92 14.19,0.54 0.34,-2.1 -0.28,-4.15 -1.22,-5.51 -1.21,-1.75 -2.1,-1.82 -3.93,-2.9zm-46.92 0l3.42 -0.02c0.93,1.49 1.95,2.04 2.83,4.4 1.97,5.3 -3.13,12.84 -9.92,11.16 -5.82,-1.44 -8.99,-7.61 -5.18,-13.58 1.28,-2 1.8,-2.27 5.26,-1.86 -1.26,-0.18 -5.88,2.76 -5.44,7.77 0.31,3.6 3.21,6.56 6.94,6.64 6.7,0.14 10.31,-8.6 4.3,-13.29 -0.77,-0.61 -1.44,-0.77 -2.21,-1.22zm-17.8 -10.09l0.19 -3.8c0.71,-0.44 5.55,-0.18 6.4,-0.18 2.25,0.02 4.49,0.04 6.74,0.05 2.14,0.02 12.15,-0.24 13.27,0.22l26.67 -0.03 0.03 -9.07 0.24 -10.35c0.25,-0.32 -0.23,-0.09 0.37,-0.25 0.12,-0.04 7.88,0.09 8,0.3l4.14 -0.04c2.18,4.09 4.57,8.46 6.7,12.69 1.84,3.65 2.12,2.76 2.07,7.74 -0.02,1.68 0.15,8.29 -0.27,9.38l-68.75 0.55c-2.65,0.04 -2.16,-0.09 -3.36,-1.63l-2.41 -2.54 -0.03 -3.04zm-0.53 -37.36c11.48,0 22.96,0.03 34.44,0.05 2.91,0.01 5.82,0.04 8.72,0.02 2.48,-0.02 2.08,-0.39 2.07,2.15l0.07 21.91 -45.58 0.01 0.28 -24.14zm49.22 12.49c0.94,0.5 0.87,0.4 0.85,1.67l-0.18 15.44 -49.12 -0.17 0.04 -1.24 48.46 -0.03 -0.05 -14.79 0 -0.88zm-40.32 48.08c0.36,0.29 0.39,0.4 0.72,0.7 0.32,0.3 0.45,0.33 0.76,0.67 3.77,3.1 9.65,2.99 12.62,-0.52 1.27,-1.49 2.69,-3.41 2.98,-6.1 0.38,-3.37 -1.03,-4.72 -2.02,-6.84l32 -0.19c-2.04,3.02 -3.31,6.8 -1.08,10.82 1.36,2.46 4.56,5.15 8.67,5.14 6.14,0 10.36,-6.69 9.19,-11.68 -0.59,-2.52 -1.5,-3.12 -2.16,-4.46l8.57 -0.11c0.02,-2.74 0.37,-16.15 0.1,-17.69 -0.29,-1.65 -4.7,-9.35 -5.9,-11.78 -4.66,-9.42 -3.94,-8.34 -9.41,-8.41 -2.9,-0.03 -5.81,-0.08 -8.71,-0.11 -1.96,-0.03 -2.15,0.23 -3.46,-0.79 -0.78,-0.6 -1.82,-1.23 -2.47,-1.86 -0.56,-0.71 -0.3,-4.64 -0.31,-5.54 -0.02,-1.62 -0.24,-4.15 0.05,-5.64l-35.75 -0.25 -17.21 0.06 -0.36 32.2c1.03,0 0.83,-0.23 1.1,0.38 0,2.71 -0.07,5.4 -0.15,8.1 -0.09,3.63 -0.57,4.34 1.33,6.7 4.71,5.82 4.56,5.25 10.76,5.23 -0.98,1.92 -1.95,3.31 -1.95,6.1 0,3.06 1.08,4.04 2.09,5.87z"/>
     <path class="fil2" d="M58.59 51.04l45.58 -0.01 -0.07 -21.91c0.01,-2.54 0.41,-2.17 -2.07,-2.15 -2.9,0.02 -5.81,-0.01 -8.72,-0.02 -11.48,-0.02 -22.96,-0.05 -34.44,-0.05l-0.28 24.14z"/>
     <path class="fil3" d="M113.76 54.36l0.15 -10.01 0.05 -2.19c1.24,-0.26 3.77,-0.28 4.75,0.15 1.37,-0.32 5.39,-0.02 7.05,0.02 1.26,2.57 7.36,14.97 7.94,16.65l-16.38 -0.27 -3.69 -0.09c-0.25,-0.65 -0.18,-3.79 0.13,-4.26zm-1.06 -2.91l-0.03 9.07 -26.67 0.03 -26.41 -0.09c0.12,0.73 0.15,3.32 -0.19,3.8l0.03 3.04 2.41 2.54c1.2,1.54 0.71,1.67 3.36,1.63l68.75 -0.55c0.42,-1.09 0.25,-7.7 0.27,-9.38 0.05,-4.98 -0.23,-4.09 -2.07,-7.74 -2.13,-4.23 -4.52,-8.6 -6.7,-12.69l-4.14 0.04 -8.37 -0.05c0.25,1.15 0.09,9.5 -0.24,10.35z"/>
     <path class="fil4" d="M115.3 55.25l-0.01 1.64c0.75,0.03 1.66,-0.02 2.19,0.22l13.67 0.21 -6.37 -13.38 -9.21 -0.18 -0.27 11.49z"/>
     <path class="fil1" d="M115.3 55.25l0.27 -11.49 9.21 0.18 6.37 13.38 -13.67 -0.21 -2.29 -0.13c-0.12,-0.69 -0.11,-1.21 0.11,-1.73zm-1.39 -10.9l-0.15 10.01 -0.12 4.07c1.13,0.04 2.79,-0.08 3.68,0.28l16.38 0.27c-0.58,-1.68 -6.68,-14.08 -7.94,-16.65 -1.66,-0.04 -5.68,-0.34 -7.05,-0.02 -1.39,0.22 -2.98,-0.05 -4.48,-0.15l-0.32 2.19z"/>
     <path class="fil4" d="M108.09 40.27l0.05 14.79 -48.46 0.03 -0.04 1.24 49.12 0.17 0.18 -15.44c0.02,-1.27 0.09,-1.17 -0.85,-1.67l0 0.88z"/>
     <path class="fil4" d="M73.15 82.21c-0.81,-3.07 3.5,-4.09 4.28,-1.35 0.87,3.1 -3.57,4.08 -4.28,1.35zm-2.93 0.41c1.25,6.57 11.29,4.99 10.18,-1.99 -1.07,-6.77 -11.56,-5.21 -10.18,1.99z"/>
     <path class="fil4" d="M121.7 79.34c2.71,-0.78 3.92,3.56 1.19,4.38 -2.89,0.87 -4.26,-3.48 -1.19,-4.38zm-4.57 3.28c0.48,2.48 2.92,4.67 5.96,4.15 2.57,-0.44 4.71,-2.95 4.23,-6.14 -1,-6.69 -11.58,-5.28 -10.19,1.99z"/>
     <path class="fil5" d="M77.2 74.35c0.77,0.45 1.44,0.61 2.21,1.22 6.01,4.69 2.4,13.43 -4.3,13.29 -3.73,-0.08 -6.63,-3.04 -6.94,-6.64 -0.44,-5.01 4.18,-7.95 5.44,-7.77 -3.46,-0.41 -3.98,-0.14 -5.26,1.86 -3.81,5.97 -0.64,12.14 5.18,13.58 6.79,1.68 11.89,-5.86 9.92,-11.16 -0.88,-2.36 -1.9,-2.91 -2.83,-4.4l-3.42 0.02z"/>
     <path class="fil5" d="M124.12 74.35c1.83,1.08 2.72,1.15 3.93,2.9 0.94,1.36 1.56,3.41 1.22,5.51 -1.36,8.38 -13.44,7.95 -14.19,-0.54 -0.44,-5.05 4.23,-7.95 5.45,-7.77 -3.51,-0.42 -4.02,-0.17 -5.42,2.11 -5.75,9.38 6.07,17.47 12.49,11.57 3.18,-2.92 4.28,-7.53 1.84,-11.28 -1.84,-2.83 -1.35,-2.54 -5.32,-2.5z"/>
     <path class="fil1" d="M73.15 82.21c0.71,2.73 5.15,1.75 4.28,-1.35 -0.78,-2.74 -5.09,-1.72 -4.28,1.35z"/>
     <path class="fil1" d="M121.7 79.34c-3.07,0.9 -1.7,5.25 1.19,4.38 2.73,-0.82 1.52,-5.16 -1.19,-4.38z"/>
     <path class="fil6" d="M107.91 23.08c-0.29,1.49 -0.07,4.02 -0.05,5.64 0.01,0.9 -0.25,4.83 0.31,5.54l-0.08 -10.4c0,-0.12 0,-0.33 -0.02,-0.39 -0.09,-0.35 -0.07,-0.24 -0.16,-0.39 -0.21,-0.41 -8.27,-0.23 -8.66,-0.23 -3.03,-0.01 -6.07,-0.01 -9.1,-0.02 -3.66,-0.01 -15.31,-0.22 -17.99,0l35.75 0.25z"/>
     <path class="fil7" d="M59.4 64.26c0.34,-0.48 0.31,-3.07 0.19,-3.8l26.41 0.09c-1.12,-0.46 -11.13,-0.2 -13.27,-0.22 -2.25,-0.01 -4.49,-0.03 -6.74,-0.05 -0.85,0 -5.69,-0.26 -6.4,0.18l-0.19 3.8z"/>
     <path class="fil7" d="M112.7 51.45c0.33,-0.85 0.49,-9.2 0.24,-10.35l8.37 0.05c-0.12,-0.21 -7.88,-0.34 -8,-0.3 -0.6,0.16 -0.12,-0.07 -0.37,0.25l-0.24 10.35z"/>
     <path class="fil8" d="M113.91 44.35l0.32 -2.19c1.5,0.1 3.09,0.37 4.48,0.15 -0.98,-0.43 -3.51,-0.41 -4.75,-0.15l-0.05 2.19z"/>
     <path class="fil7" d="M117.32 58.71c-0.89,-0.36 -2.55,-0.24 -3.68,-0.28l0.12 -4.07c-0.31,0.47 -0.38,3.61 -0.13,4.26l3.69 0.09z"/>
     <path class="fil5" d="M117.48 57.11c-0.53,-0.24 -1.44,-0.19 -2.19,-0.22l0.01 -1.64c-0.22,0.52 -0.23,1.04 -0.11,1.73l2.29 0.13z"/>
    </g>
    <g>
     <g>
      <path class="fil9" d="M49.43 101.93c0.02,-0.02 0.1,-0.11 0.13,-0.06l1.5 -0.14c2.41,0.02 12.25,-0.22 13.07,0.17l0.08 40.09c-1.22,0.3 -13.69,0.29 -14.73,-0.02l-0.05 -40.04zm19.54 -3.94c-0.32,-0.33 -0.44,-0.37 -0.76,-0.67 -0.33,-0.3 -0.36,-0.41 -0.72,-0.7 -0.37,0.23 -0.09,0.17 -0.58,0 -0.43,-0.14 -0.72,-0.53 -1.91,-0.69 -1.48,-0.2 -15.62,-0.13 -16.55,0.03 -6.39,1.09 -4.84,9.89 -4.84,15.87l0 27.76c0,2.51 0.01,3.94 1.15,5.84 0.73,1.21 2.21,2.27 4.32,2.46 3.91,0.37 9.38,0.03 13.47,0.04 4.1,0.01 7.57,-1.5 7.44,-6.35l0 -2.6 -0.01 -32.45 -0.01 -2.59c0.21,-2.21 -0.15,-5.11 -1.91,-6.47 -0.61,-0.48 -0.96,-0.25 -0.39,-0.63 0.35,0.68 0.64,0.84 1.3,1.15z"/>
      <path class="fil8" d="M69.97 103.94l0.01 2.59c5.12,-0.49 7.18,1.48 11.15,3.09 4.72,1.92 7.9,0.69 12.75,-0.18 2.92,-0.53 10.17,-2.26 12.75,-2 4.01,0.39 7.89,3.35 7.64,7.63l0.34 -1.22 1.66 -0.89c-0.02,0.03 0.03,0.16 0.05,0.19l0.23 0.3c0.33,-0.66 -0.45,-0.16 1.65,-1.19 0.67,-0.33 1.24,-0.56 1.92,-0.88l10.94 -5.21c5.21,-2.39 9.4,-5.05 15.83,-0.03 1.02,0.79 4.77,4.43 4.63,6.29 -0.11,1.42 -1.65,2.01 -2.77,2.73l-16.44 10.52c-4.39,2.84 -8.84,5.46 -13.34,8.24 -2.19,1.36 -4.48,2.66 -6.83,3.95 -2.19,1.2 -4.76,2.58 -7.16,3.61 -7.53,3.21 -9.51,2.63 -17,-0.16 -7.1,-2.65 -9.66,-3.48 -17.99,-2.34l0 2.6c9.45,-1.09 11.01,-0.09 18.91,2.84 8.05,2.98 10.9,2.16 18.14,-1.04 7.25,-3.2 22.5,-12.85 29.05,-17.06 4.68,-3 9.45,-5.97 14.13,-9.04 1.37,-0.9 2.44,-1.32 3.19,-2.61 0.86,-1.48 0.93,-3.15 0.05,-4.71 -2.79,-4.93 -7.84,-9.09 -13.7,-9.25 -3.6,-0.09 -6.04,1.34 -8.75,2.59 -2.6,1.2 -14.09,6.94 -15.61,7.38 -0.65,-0.69 -1.04,-1.47 -1.71,-2.16 -0.51,-0.52 -1.22,-1.33 -1.91,-1.89 -4.54,-3.64 -12.01,-0.91 -18.1,0.21 -4.79,0.88 -7.57,2.13 -12.15,0.14 -3.65,-1.58 -6.7,-3.65 -11.56,-3.04z"/>
     </g>
     <path class="fil4" d="M116.55 113.45c0.84,2.61 -1.29,4.72 -2.71,5.5 -4.12,2.28 -9.14,0.43 -15.53,1.11 -2.22,0.23 -5.54,0.91 -7.61,0.87l-0.18 -2.35c4.08,-0.56 8.68,-1.3 12.81,-1.19 2.31,0.06 4.3,0.51 6.69,0.23 2.36,-0.27 3.32,-0.86 4.25,-2.55 0.25,-4.28 -3.63,-7.24 -7.64,-7.63 -2.58,-0.26 -9.83,1.47 -12.75,2 -4.85,0.87 -8.03,2.1 -12.75,0.18 -3.97,-1.61 -6.03,-3.58 -11.15,-3.09l0.01 32.45c8.33,-1.14 10.89,-0.31 17.99,2.34 7.49,2.79 9.47,3.37 17,0.16 2.4,-1.03 4.97,-2.41 7.16,-3.61 2.35,-1.29 4.64,-2.59 6.83,-3.95 4.5,-2.78 8.95,-5.4 13.34,-8.24l16.44 -10.52c1.12,-0.72 2.66,-1.31 2.77,-2.73 0.14,-1.86 -3.61,-5.5 -4.63,-6.29 -6.43,-5.02 -10.62,-2.36 -15.83,0.03l-10.94 5.21c-0.68,0.32 -1.25,0.55 -1.92,0.88 -2.1,1.03 -1.32,0.53 -1.65,1.19z"/>
     <path class="fil2" d="M49.48 141.97c1.04,0.31 13.51,0.32 14.73,0.02l-0.08 -40.09c-0.82,-0.39 -10.66,-0.15 -13.07,-0.17l-1.5 0.14c-0.03,-0.05 -0.11,0.04 -0.13,0.06l0.05 40.04z"/>
     <path class="fil1" d="M114.27 115.07c-0.93,1.69 -1.89,2.28 -4.25,2.55 -2.39,0.28 -4.38,-0.17 -6.69,-0.23 -4.13,-0.11 -8.73,0.63 -12.81,1.19l0.18 2.35c2.07,0.04 5.39,-0.64 7.61,-0.87 6.39,-0.68 11.41,1.17 15.53,-1.11 1.42,-0.78 3.55,-2.89 2.71,-5.5l-0.23 -0.3c-0.02,-0.03 -0.07,-0.16 -0.05,-0.19l-1.66 0.89 -0.34 1.22z"/>
    </g>
   </g>
  </g>
 </g>
</svg>
