<?xml version="1.0" encoding="UTF-8"?>
<!DOCTYPE svg PUBLIC "-//W3C//DTD SVG 1.1//EN" "http://www.w3.org/Graphics/SVG/1.1/DTD/svg11.dtd">
<!-- Creator: CorelDRAW 2021 (64 Bit) -->
<svg xmlns="http://www.w3.org/2000/svg" xml:space="preserve" width="400px" height="400px" version="1.1" style="shape-rendering:geometricPrecision; text-rendering:geometricPrecision; image-rendering:optimizeQuality; fill-rule:evenodd; clip-rule:evenodd"
viewBox="0 0 2.53 2.53"
 xmlns:xlink="http://www.w3.org/1999/xlink"
 xmlns:xodm="http://www.corel.com/coreldraw/odm/2003">
 <defs>
  <style type="text/css">
   <![CDATA[
    .str2 {stroke:#FF0303;stroke-width:0.13;stroke-miterlimit:22.9256}
    .str1 {stroke:#00E6FF;stroke-width:0.19;stroke-miterlimit:22.9256}
    .str0 {stroke:#B8B4B6;stroke-width:0.19;stroke-miterlimit:22.9256}
    .str3 {stroke:#FF0303;stroke-width:0.16;stroke-miterlimit:22.9256}
    .fil2 {fill:none}
    .fil6 {fill:black}
    .fil4 {fill:#999999}
    .fil1 {fill:yellow}
    .fil0 {fill:white}
    .fil5 {fill:black;fill-rule:nonzero}
    .fil3 {fill:#999999;fill-rule:nonzero}
   ]]>
  </style>
 </defs>
 <g id="Camada_x0020_1">
  <metadata id="CorelCorpID_0Corel-Layer"/>
  <g id="_2069850133824">
   <path class="fil0 str0" d="M0.2 0.09l2.13 0c0.06,0 0.1,0.06 0.1,0.12l0 2.11c0,0.06 -0.04,0.11 -0.1,0.11l-2.13 0c-0.06,0 -0.1,-0.05 -0.1,-0.11 0,-0.26 -0.01,-2.04 0,-2.13 0,-0.05 0.06,-0.1 0.1,-0.1z"/>
   <g>
    <g>
     <ellipse class="fil1 str1" cx="1.26" cy="1.18" rx="0.94" ry="0.89"/>
     <path class="fil2 str2" d="M0.7 1.2c0.07,0.22 0.2,0.38 0.42,0.47 0.02,-0.03 0.03,-0.05 0.05,-0.08 0.02,-0.05 0.03,-0.04 0.06,-0.03 0.07,0.03 0.13,0.05 0.2,0.07 0.02,0 0.03,0 0.03,0.04l0 0.1c-0.01,0.09 -0.07,0.14 -0.15,0.14 -0.1,0.01 -0.18,0 -0.26,-0.03 -0.31,-0.13 -0.49,-0.38 -0.56,-0.6 -0.02,-0.08 -0.03,-0.15 -0.03,-0.23 0.01,-0.03 0.02,-0.11 0.04,-0.13 0.02,-0.02 0.04,-0.05 0.09,-0.05 0.05,0 0.07,0 0.13,-0.01 0.01,0 0.02,0 0.02,0.01 0.02,0.08 0.05,0.16 0.07,0.24 0,0.02 0,0.02 -0.02,0.03 -0.03,0.02 -0.06,0.04 -0.09,0.06z"/>
     <path class="fil2 str3" d="M0.9 0.87c0.17,0.01 0.33,0.09 0.45,0.22 0.11,0.14 0.16,0.29 0.15,0.44"/>
     <path class="fil2 str3" d="M1.37 0.63c0.11,0.01 0.22,0.07 0.31,0.17 0.08,0.09 0.12,0.19 0.11,0.3"/>
     <path class="fil2 str3" d="M1.14 0.73c0.14,0.02 0.27,0.09 0.38,0.2 0.1,0.12 0.14,0.24 0.14,0.37"/>
     <path class="fil2 str3" d="M1.57 0.55c0.09,0.01 0.18,0.05 0.24,0.13 0.06,0.07 0.1,0.15 0.09,0.23"/>
    </g>
    <g>
     <polygon class="fil3" points="0.22,2.24 0.22,1.91 0.52,1.91 0.52,1.97 0.31,1.97 0.31,2.04 0.49,2.04 0.49,2.1 0.31,2.1 0.31,2.24 "/>
     <path id="_1" class="fil3" d="M0.57 2.08c0,-0.04 0.01,-0.06 0.02,-0.09 0.01,-0.01 0.02,-0.03 0.04,-0.04 0.02,-0.01 0.04,-0.02 0.06,-0.03 0.02,-0.01 0.06,-0.01 0.09,-0.01 0.06,0 0.11,0.01 0.15,0.04 0.04,0.03 0.06,0.07 0.06,0.13 0,0.05 -0.02,0.09 -0.06,0.12 -0.03,0.03 -0.08,0.04 -0.15,0.04 -0.06,0 -0.11,-0.01 -0.15,-0.04 -0.04,-0.03 -0.06,-0.07 -0.06,-0.12zm0.09 -0.01c0,0.04 0.01,0.07 0.04,0.09 0.02,0.02 0.05,0.03 0.08,0.03 0.04,0 0.06,-0.01 0.09,-0.03 0.02,-0.02 0.03,-0.05 0.03,-0.09 0,-0.03 -0.01,-0.06 -0.03,-0.08 -0.02,-0.02 -0.05,-0.03 -0.09,-0.03 -0.03,0 -0.06,0.01 -0.09,0.03 -0.02,0.02 -0.03,0.05 -0.03,0.08z"/>
     <polygon id="_2" class="fil3" points="1.06,2.24 1.06,1.91 1.14,1.91 1.32,2.13 1.32,1.91 1.4,1.91 1.4,2.24 1.31,2.24 1.14,2.02 1.14,2.24 "/>
     <polygon id="_3" class="fil3" points="1.49,2.24 1.49,1.91 1.81,1.91 1.81,1.97 1.58,1.97 1.58,2.04 1.8,2.04 1.8,2.09 1.58,2.09 1.58,2.18 1.82,2.18 1.82,2.24 "/>
     <path id="_4" class="fil3" d="M1.87 2.13l0.09 0c0,0.02 0.01,0.03 0.03,0.04 0.01,0.01 0.04,0.02 0.06,0.02 0.03,0 0.05,-0.01 0.06,-0.02 0.02,0 0.03,-0.01 0.03,-0.03 0,0 -0.01,-0.01 -0.01,-0.02 -0.01,0 -0.02,-0.01 -0.03,-0.01 -0.01,0 -0.04,-0.01 -0.07,-0.01 -0.05,-0.01 -0.08,-0.02 -0.1,-0.04 -0.03,-0.01 -0.04,-0.04 -0.04,-0.06 0,-0.02 0.01,-0.03 0.02,-0.05 0.01,-0.01 0.03,-0.02 0.05,-0.03 0.02,-0.01 0.05,-0.01 0.09,-0.01 0.05,0 0.09,0.01 0.12,0.02 0.03,0.02 0.04,0.05 0.04,0.08l-0.09 0c0,-0.02 -0.01,-0.03 -0.02,-0.04 -0.01,-0.01 -0.03,-0.01 -0.06,-0.01 -0.02,0 -0.04,0.01 -0.05,0.01 -0.01,0.01 -0.02,0.01 -0.02,0.02 0,0.01 0.01,0.02 0.02,0.02 0.01,0.01 0.03,0.02 0.08,0.02 0.04,0.01 0.07,0.02 0.09,0.03 0.02,0.01 0.03,0.02 0.05,0.03 0.01,0.02 0.01,0.03 0.01,0.05 0,0.02 0,0.04 -0.02,0.06 -0.01,0.01 -0.03,0.02 -0.06,0.03 -0.02,0.01 -0.05,0.01 -0.09,0.01 -0.05,0 -0.1,-0.01 -0.12,-0.03 -0.03,-0.01 -0.05,-0.04 -0.06,-0.08z"/>
     <polygon id="_5" class="fil4" points="0.18,2.28 2.25,2.28 2.25,2.3 0.18,2.3 "/>
     <polygon class="fil5" points="0.27,2.2 0.27,1.88 0.57,1.88 0.57,1.93 0.36,1.93 0.36,2.01 0.54,2.01 0.54,2.07 0.36,2.07 0.36,2.2 "/>
     <path id="_1_0" class="fil5" d="M0.62 2.04c0,-0.03 0.01,-0.06 0.02,-0.08 0.01,-0.02 0.03,-0.03 0.04,-0.04 0.02,-0.02 0.04,-0.03 0.06,-0.03 0.03,-0.01 0.06,-0.02 0.09,-0.02 0.07,0 0.12,0.02 0.15,0.05 0.04,0.03 0.06,0.07 0.06,0.12 0,0.05 -0.02,0.1 -0.05,0.13 -0.04,0.02 -0.09,0.04 -0.16,0.04 -0.06,0 -0.11,-0.02 -0.15,-0.04 -0.04,-0.03 -0.06,-0.07 -0.06,-0.13zm0.09 0c0,0.04 0.01,0.07 0.04,0.08 0.02,0.02 0.05,0.03 0.08,0.03 0.04,0 0.07,-0.01 0.09,-0.02 0.02,-0.02 0.03,-0.05 0.03,-0.09 0,-0.04 -0.01,-0.06 -0.03,-0.08 -0.02,-0.02 -0.05,-0.03 -0.09,-0.03 -0.03,0 -0.06,0.01 -0.08,0.03 -0.03,0.02 -0.04,0.04 -0.04,0.08z"/>
     <polygon id="_2_1" class="fil5" points="1.11,2.2 1.11,1.88 1.19,1.88 1.37,2.1 1.37,1.88 1.45,1.88 1.45,2.2 1.37,2.2 1.19,1.99 1.19,2.2 "/>
     <polygon id="_3_2" class="fil5" points="1.55,2.2 1.55,1.88 1.86,1.88 1.86,1.93 1.63,1.93 1.63,2.01 1.85,2.01 1.85,2.06 1.63,2.06 1.63,2.15 1.87,2.15 1.87,2.2 "/>
     <path id="_4_3" class="fil5" d="M1.92 2.1l0.09 -0.01c0,0.02 0.01,0.04 0.03,0.05 0.02,0.01 0.04,0.01 0.06,0.01 0.03,0 0.05,0 0.07,-0.01 0.01,-0.01 0.02,-0.02 0.02,-0.03 0,-0.01 -0.01,-0.01 -0.01,-0.02 -0.01,-0.01 -0.02,-0.01 -0.03,-0.01 -0.01,-0.01 -0.04,-0.01 -0.07,-0.02 -0.05,-0.01 -0.08,-0.02 -0.1,-0.03 -0.03,-0.02 -0.04,-0.04 -0.04,-0.07 0,-0.01 0.01,-0.03 0.02,-0.04 0.01,-0.02 0.03,-0.03 0.05,-0.04 0.03,0 0.05,-0.01 0.09,-0.01 0.05,0 0.09,0.01 0.12,0.03 0.03,0.02 0.04,0.04 0.04,0.07l-0.08 0c-0.01,-0.01 -0.02,-0.02 -0.03,-0.03 -0.01,-0.01 -0.03,-0.01 -0.05,-0.01 -0.03,0 -0.05,0 -0.06,0.01 -0.01,0 -0.02,0.01 -0.02,0.02 0,0.01 0.01,0.01 0.02,0.02 0.01,0.01 0.03,0.01 0.08,0.02 0.04,0.01 0.07,0.02 0.09,0.02 0.02,0.01 0.04,0.02 0.05,0.04 0.01,0.01 0.02,0.03 0.02,0.05 0,0.02 -0.01,0.04 -0.03,0.05 -0.01,0.02 -0.03,0.03 -0.05,0.04 -0.03,0.01 -0.06,0.01 -0.1,0.01 -0.05,0 -0.09,-0.01 -0.12,-0.03 -0.03,-0.02 -0.05,-0.05 -0.06,-0.08z"/>
     <polygon id="_5_4" class="fil6" points="0.23,2.24 2.31,2.24 2.31,2.27 0.23,2.27 "/>
    </g>
   </g>
  </g>
 </g>
</svg>
