<?xml version="1.0" encoding="UTF-8"?>
<!DOCTYPE svg PUBLIC "-//W3C//DTD SVG 1.1//EN" "http://www.w3.org/Graphics/SVG/1.1/DTD/svg11.dtd">
<!-- Creator: CorelDRAW 2021 (64 Bit) -->
<svg xmlns="http://www.w3.org/2000/svg" xml:space="preserve" width="331px" height="330px" version="1.1" style="shape-rendering:geometricPrecision; text-rendering:geometricPrecision; image-rendering:optimizeQuality; fill-rule:evenodd; clip-rule:evenodd"
viewBox="0 0 2.44 2.44"
 xmlns:xlink="http://www.w3.org/1999/xlink"
 xmlns:xodm="http://www.corel.com/coreldraw/odm/2003">
 <defs>
  <style type="text/css">
   <![CDATA[
    .fil2 {fill:black}
    .fil5 {fill:#01F946}
    .fil3 {fill:#282829}
    .fil7 {fill:#4B4B4B}
    .fil6 {fill:#8D8D8E}
    .fil8 {fill:#AA0000}
    .fil1 {fill:#C4C4C4}
    .fil4 {fill:#FA0000}
    .fil0 {fill:#FDFDFD}
   ]]>
  </style>
 </defs>
 <g id="Camada_x0020_1">
  <metadata id="CorelCorpID_0Corel-Layer"/>
  <g id="_2400527421584">
   <path class="fil0" d="M0.77 1.71c0.01,-0.01 0.01,0 0.02,-0.03 0.01,-0.01 0.01,-0.02 0.01,-0.03 0.15,-0.43 0.22,-0.6 0.73,-0.7l-0.03 -0.14 -0.01 -0.02c0.05,0 0.01,0 0.03,0.01l0.64 0.24c-0.03,0.03 -0.21,0.14 -0.26,0.17 -0.05,0.04 -0.09,0.06 -0.13,0.09 -0.03,0.02 -0.11,0.08 -0.14,0.08l-0.03 -0.14c-0.19,-0.01 -0.4,0.05 -0.51,0.13 -0.07,0.06 -0.1,0.1 -0.16,0.17 -0.05,0.06 -0.09,0.12 -0.15,0.18 0.05,0.02 0.48,0.01 0.57,0.01 0.38,0 0.26,0.04 0.29,-0.29 0.03,-0.02 0.13,-0.01 0.17,-0.01 0.01,0.05 0.01,0.25 -0.01,0.28 0,0.07 -0.06,0.13 -0.1,0.16 -0.06,0.04 -0.15,0.03 -0.23,0.03 -0.17,0 -0.36,0 -0.53,0 -0.08,0 -0.17,0.01 -0.23,-0.03 -0.05,-0.02 -0.1,-0.07 -0.11,-0.15 -0.03,-0.11 -0.01,-0.4 -0.01,-0.53 0,-0.12 -0.02,-0.41 0.01,-0.51 0.04,-0.19 0.2,-0.18 0.35,-0.18 0.18,0.01 0.36,0 0.54,0 0.09,0 0.16,0 0.22,0.04 0.04,0.03 0.1,0.1 0.09,0.17 0.02,0.03 0.01,0.06 0.01,0.09l-0.13 0c-0.01,0 -0.02,0 -0.02,0 -0.02,-0.01 -0.01,0 -0.02,-0.01 -0.01,-0.16 -0.01,-0.12 -0.38,-0.12l-0.39 0c-0.05,0 -0.08,-0.01 -0.1,0.03 -0.02,0.04 -0.01,0.74 -0.01,0.89 0,0.04 0.01,0.1 0.01,0.12zm0.34 -1.48c-0.51,0.05 -0.94,0.51 -0.88,1.09 0.05,0.55 0.54,0.95 1.1,0.89 0.51,-0.05 0.95,-0.51 0.88,-1.1 -0.05,-0.51 -0.51,-0.94 -1.1,-0.88z"/>
   <path class="fil1" d="M1.11 0.23c0.59,-0.06 1.05,0.37 1.1,0.88 0.07,0.59 -0.37,1.05 -0.88,1.1 -0.56,0.06 -1.05,-0.34 -1.1,-0.89 -0.06,-0.58 0.37,-1.04 0.88,-1.09zm-1.11 0.98c0,0.21 0.04,0.34 0.11,0.52 0.04,0.1 0.11,0.2 0.18,0.28 0.01,0.01 0.02,0.02 0.03,0.04 0.02,0.01 0.02,0.02 0.04,0.04l0.08 0.07c0.03,0.02 0.05,0.04 0.08,0.06 0.23,0.15 0.44,0.22 0.72,0.22 0.13,0 0.29,-0.03 0.38,-0.07 0.03,-0.01 0.05,-0.01 0.08,-0.03 0.28,-0.11 0.53,-0.35 0.64,-0.63 0.16,-0.39 0.14,-0.81 -0.1,-1.16 -0.33,-0.5 -0.95,-0.68 -1.51,-0.45 -0.11,0.05 -0.26,0.15 -0.34,0.23 -0.23,0.23 -0.39,0.5 -0.39,0.88z"/>
   <path class="fil2" d="M1.73 0.72l-0.02 0.01 0 -0.02c-0.02,-0.16 -0.21,-0.11 -0.35,-0.11 -0.15,0 -0.31,0 -0.46,0 -0.08,0 -0.14,-0.01 -0.18,0.04 -0.04,0.05 -0.03,0.13 -0.03,0.2 0,0.13 -0.02,0.83 0.02,0.9 0.03,0.06 0.07,0.07 0.15,0.07l0.69 -0.01c0.21,0 0.15,-0.18 0.17,-0.27l0 -0.02c0,0 0,0 0,0 0.02,0.02 0.01,0.05 0.01,0.11 0,0.09 0,0.19 -0.14,0.21 -0.14,0.01 -0.34,0 -0.49,0 -0.48,0 -0.44,0.04 -0.44,-0.53 0,-0.16 0,-0.32 0,-0.48 0.01,-0.21 0.04,-0.25 0.25,-0.25 0.16,0.01 0.32,0.01 0.48,0.01 0.17,0 0.31,-0.04 0.34,0.14zm0.07 0.99l0 -0.27 -0.16 0c-0.03,0.33 0.09,0.29 -0.29,0.29 -0.09,0 -0.52,0.01 -0.57,-0.01 -0.02,0.01 -0.01,0.01 -0.01,-0.01 0,-0.02 -0.01,-0.08 -0.01,-0.12 0,-0.15 -0.01,-0.85 0.01,-0.89 0.02,-0.04 0.05,-0.03 0.1,-0.03l0.39 0c0.37,0 0.37,-0.04 0.38,0.12l0.17 0.01 -0.01 -0.09c0.01,-0.07 -0.05,-0.14 -0.09,-0.17 -0.06,-0.04 -0.13,-0.04 -0.22,-0.04 -0.18,0 -0.36,0.01 -0.54,0 -0.15,0 -0.31,-0.01 -0.35,0.18 -0.03,0.1 -0.01,0.39 -0.01,0.51 0,0.13 -0.02,0.42 0.01,0.53 0.01,0.08 0.06,0.13 0.11,0.15 0.06,0.04 0.15,0.03 0.23,0.03 0.17,0 0.36,0 0.53,0 0.08,0 0.17,0.01 0.23,-0.03 0.04,-0.03 0.1,-0.09 0.1,-0.16z"/>
   <path class="fil3" d="M1.02 1.33c0.04,-0.1 0.12,-0.15 0.21,-0.2 0.07,-0.03 0.23,-0.1 0.32,-0.1l0.02 0.1c0,0.01 0,0.01 0,0.02l0 0.01c-0.32,0.05 -0.28,0 -0.55,0.17zm0.59 -0.42c0.02,0.01 0.35,0.13 0.37,0.15 -0.03,0.03 -0.24,0.19 -0.29,0.21l-0.08 -0.36zm-0.84 0.8c0,0.02 -0.01,0.02 0.01,0.01 0.06,-0.06 0.1,-0.12 0.15,-0.18 0.06,-0.07 0.09,-0.11 0.16,-0.17 0.11,-0.08 0.32,-0.14 0.51,-0.13l0.03 0.14c0.03,0 0.11,-0.06 0.14,-0.08 0.04,-0.03 0.08,-0.05 0.13,-0.09 0.05,-0.03 0.23,-0.14 0.26,-0.17l-0.64 -0.24c-0.02,0 -0.02,-0.01 -0.02,0.01l0.03 0.14c-0.51,0.1 -0.58,0.27 -0.73,0.7 0,0.01 0,0.02 -0.01,0.03 -0.01,0.03 -0.01,0.02 -0.02,0.03z"/>
   <path class="fil4" d="M1.71 0.71c0.02,0.02 -0.01,0 0.02,0.01 -0.03,-0.18 -0.17,-0.14 -0.34,-0.14 -0.16,0 -0.32,0 -0.48,-0.01 -0.21,0 -0.24,0.04 -0.25,0.25 0,0.16 0,0.32 0,0.48 0,0.57 -0.04,0.53 0.44,0.53 0.15,0 0.35,0.01 0.49,0 0.14,-0.02 0.14,-0.12 0.14,-0.21 0,-0.06 0.01,-0.09 -0.01,-0.11 0,0 0,0 0,0l0 0.02c-0.02,0.09 0.04,0.27 -0.17,0.27l-0.69 0.01c-0.08,0 -0.12,-0.01 -0.15,-0.07 -0.04,-0.07 -0.02,-0.77 -0.02,-0.9 0,-0.07 -0.01,-0.15 0.03,-0.2 0.04,-0.05 0.1,-0.04 0.18,-0.04 0.15,0 0.31,0 0.46,0 0.14,0 0.33,-0.05 0.35,0.11z"/>
   <path class="fil5" d="M1.69 1.27c0.05,-0.02 0.26,-0.18 0.29,-0.21 -0.02,-0.02 -0.35,-0.14 -0.37,-0.15l0.08 0.36z"/>
   <path class="fil5" d="M1.02 1.33c0.27,-0.17 0.23,-0.12 0.55,-0.17l0 -0.01c0,-0.01 0,-0.01 0,-0.02l-0.02 -0.1c-0.09,0 -0.25,0.07 -0.32,0.1 -0.09,0.05 -0.17,0.1 -0.21,0.2z"/>
   <path class="fil6" d="M1.8 1.71c0.02,-0.03 0.02,-0.23 0.01,-0.28 -0.04,0 -0.14,-0.01 -0.17,0.01l0.16 0 0 0.27z"/>
   <path class="fil7" d="M1.64 0.79c0.01,0.01 0,0 0.02,0.01 0,0 0.01,0 0.02,0l0.13 0c0,-0.03 0.01,-0.06 -0.01,-0.09l0.01 0.09 -0.17 -0.01z"/>
   <path class="fil1" d="M1.5 0.81c0,-0.02 0,-0.01 0.02,-0.01 -0.02,-0.01 0.02,-0.01 -0.03,-0.01l0.01 0.02z"/>
   <path class="fil8" d="M1.73 0.72c-0.03,-0.01 0,0.01 -0.02,-0.01l0 0.02 0.02 -0.01z"/>
  </g>
 </g>
</svg>
