<?xml version="1.0" encoding="UTF-8"?>
<!DOCTYPE svg PUBLIC "-//W3C//DTD SVG 1.1//EN" "http://www.w3.org/Graphics/SVG/1.1/DTD/svg11.dtd">
<!-- Creator: CorelDRAW 2021 (64 Bit) -->
<svg xmlns="http://www.w3.org/2000/svg" xml:space="preserve" width="330px" height="330px" version="1.1" style="shape-rendering:geometricPrecision; text-rendering:geometricPrecision; image-rendering:optimizeQuality; fill-rule:evenodd; clip-rule:evenodd"
viewBox="0 0 26.31 26.31"
 xmlns:xlink="http://www.w3.org/1999/xlink"
 xmlns:xodm="http://www.corel.com/coreldraw/odm/2003">
 <defs>
  <style type="text/css">
   <![CDATA[
    .str1 {stroke:black;stroke-width:0.8;stroke-miterlimit:22.9256}
    .str0 {stroke:#B8B4B6;stroke-width:2.39;stroke-miterlimit:22.9256}
    .str2 {stroke:black;stroke-width:0.08;stroke-miterlimit:22.9256}
    .fil4 {fill:black}
    .fil1 {fill:#00FA46}
    .fil2 {fill:#282829}
    .fil3 {fill:red}
    .fil0 {fill:white}
   ]]>
  </style>
 </defs>
 <g id="Camada_x0020_1">
  <metadata id="CorelCorpID_0Corel-Layer"/>
  <g id="_2713500679904">
   <path class="fil0 str0" d="M2.27 1.2l21.8 0c0.58,0 1.05,0.53 1.05,1.19l0 21.53c0,0.66 -0.47,1.2 -1.05,1.2l-21.8 0c-0.58,0 -1.05,-0.54 -1.05,-1.2 0,-2.59 -0.04,-20.85 -0.02,-21.79 0.01,-0.51 0.64,-0.93 1.07,-0.93z"/>
   <g>
    <path class="fil1 str1" d="M8.03 20.35l0 -2.58 1.18 0c0,0.33 -0.05,2.46 0.04,2.56 -0.01,0.35 0.21,0.74 0.36,0.9 0.24,0.24 0.55,0.29 1,0.29l7.78 0c0.61,0 2.01,0.13 2.41,-0.17 0.6,-0.47 0.53,-1.14 0.53,-2.05l0 -5.2c0.03,0 0.28,0 0.68,0l0.61 0c0,0 -0.01,5.6 -0.09,6.35 -0.09,1 -0.61,1.63 -1.2,2 -0.69,0.42 -1.99,0.29 -2.9,0.29 -2.14,0 -4.27,0 -6.4,0 -0.96,0 -2.13,0.14 -2.86,-0.33 -0.52,-0.34 -1.19,-1.12 -1.14,-2.06l0 0z"/>
    <g>
     <path class="fil2" d="M16.84 9.32l0.25 0.21c-0.04,-0.15 -0.07,-0.21 -0.19,-0.33 -0.4,-0.89 -1.82,-1.73 -2.68,-2.16 -0.58,-0.29 -3.03,-1.16 -3.71,-1.07l-0.32 1.49c1.84,0.23 3.62,0.24 5.3,1.06 0.74,0.36 0.97,0.6 1.35,0.8zm-8.05 -0.55l0.92 -4.17 -4.63 1.71c0.15,0.15 3.24,2.23 3.71,2.46l0 0zm1.97 -3.88c1.77,0.43 1.96,0.33 3.79,1.13 2.7,1.17 3.52,2.73 4.51,5.3 0.28,0.7 1.17,3 1.33,3.56 -0.01,-0.01 -0.02,-0.02 -0.03,-0.03l-1.87 -2.32c-0.47,-0.59 -0.95,-1.18 -1.51,-1.68 -0.1,-0.09 -0.16,-0.17 -0.26,-0.26 -0.79,-0.7 -1.89,-1.3 -3.12,-1.61 -0.66,-0.16 -3.01,-0.52 -3.67,-0.45l-0.46 1.96 -6.55 -4.29c-0.11,-0.08 -0.11,-0.08 -0.18,-0.15l8.45 -3.11 -0.43 1.95 0 0z"/>
     <path class="fil3" d="M8.76 9.01c-0.48,-0.26 -3.65,-2.56 -3.8,-2.73l4.85 -1.88 -1.05 4.61 0 0z"/>
     <path class="fil3" d="M17.16 9.65l0.1 0.15c-0.39,-0.22 -0.89,-0.67 -1.64,-1.06 -1.72,-0.92 -3.54,-0.93 -5.43,-1.18l0.33 -1.66c0.7,-0.1 3.21,0.86 3.8,1.18 0.44,0.25 1.02,0.55 1.55,0.97 0.52,0.42 0.93,0.78 1.29,1.6z"/>
    </g>
    <circle class="fil4 str2" cx="18.66" cy="19.3" r="0.68"/>
    <circle class="fil4 str2" cx="11.85" cy="19.3" r="0.68"/>
    <circle class="fil4 str2" cx="15.26" cy="19.3" r="0.68"/>
   </g>
  </g>
 </g>
</svg>
