<?xml version="1.0" encoding="UTF-8"?>
<!DOCTYPE svg PUBLIC "-//W3C//DTD SVG 1.1//EN" "http://www.w3.org/Graphics/SVG/1.1/DTD/svg11.dtd">
<!-- Creator: CorelDRAW 2021 (64 Bit) -->
<svg xmlns="http://www.w3.org/2000/svg" xml:space="preserve" width="400px" height="400px" version="1.1" style="shape-rendering:geometricPrecision; text-rendering:geometricPrecision; image-rendering:optimizeQuality; fill-rule:evenodd; clip-rule:evenodd"
viewBox="0 0 4.67 4.67"
 xmlns:xlink="http://www.w3.org/1999/xlink"
 xmlns:xodm="http://www.corel.com/coreldraw/odm/2003">
 <defs>
  <style type="text/css">
   <![CDATA[
    .str0 {stroke:#C4C4C4;stroke-width:0.35;stroke-miterlimit:22.9256}
    .str3 {stroke:black;stroke-width:0.02;stroke-miterlimit:22.9256}
    .str1 {stroke:black;stroke-width:0.01;stroke-miterlimit:22.9256}
    .str2 {stroke:#FF99CC;stroke-width:0.01;stroke-miterlimit:22.9256}
    .fil1 {fill:black}
    .fil3 {fill:#E6E6E6}
    .fil2 {fill:#FF99CC}
    .fil4 {fill:#FFFF99}
    .fil0 {fill:white}
    .fil5 {fill:black;fill-rule:nonzero}
   ]]>
  </style>
 </defs>
 <g id="Camada_x0020_1">
  <metadata id="CorelCorpID_0Corel-Layer"/>
  <g id="_2069385479360">
   <circle class="fil0 str0" cx="2.34" cy="2.34" r="2.16"/>
   <g>
    <g>
     <path class="fil1 str1" d="M2.7 1.03c0.01,0.01 0.05,0.01 0.07,0.02 0.02,0.01 0,0.05 -0.01,0.07 -0.01,0.02 0,0.04 -0.02,0.07 -0.01,0.02 -0.04,0.01 -0.08,0.01 -0.02,0.05 -0.01,0.05 -0.04,0.1 -0.02,0.02 -0.06,0.05 -0.08,0.07 -0.06,0.04 -0.12,0.07 -0.23,0.07 -0.05,0 -0.09,-0.01 -0.14,-0.02 -0.04,-0.01 -0.06,-0.03 -0.09,-0.05 -0.02,-0.01 -0.06,-0.05 -0.08,-0.07 -0.02,-0.03 -0.03,-0.06 -0.05,-0.1 -0.02,0 -0.04,0 -0.06,-0.01 -0.02,0 -0.02,-0.02 -0.03,-0.04 -0.01,-0.03 -0.03,-0.08 -0.01,-0.11l0.06 -0.01c0,-0.02 -0.01,-0.05 -0.01,-0.07 0,-0.02 0.01,-0.06 0.02,-0.08 0,-0.02 0.02,-0.03 0.04,-0.04 0.03,-0.01 0.05,-0.02 0.08,0 0.06,0.04 0.14,0.1 0.26,0.1 0.09,0 0.18,-0.04 0.25,-0.08 0.04,-0.03 0.05,-0.04 0.09,-0.02 0.01,0.01 0.04,0.03 0.05,0.05 0.03,0.03 0.02,0.09 0.01,0.14zm-0.58 -0.55c-0.08,0.04 -0.16,0.1 -0.2,0.15 -0.03,0.04 -0.06,0.08 -0.07,0.15 -0.01,0.04 -0.01,0.07 -0.01,0.11 0,0.04 0.01,0.06 0.01,0.1 -0.03,0 -0.05,0.02 -0.06,0.04 -0.01,0.03 0,0.06 0,0.09 0.04,0.17 0.11,0.1 0.14,0.16 0.02,0.03 0.01,0.03 0.04,0.06l0.05 0.05c0.01,0.01 0.03,0.03 0.06,0.04 0,0.02 0,0.1 0,0.12 -0.01,0.02 -0.01,0.02 -0.03,0.02 -0.08,0.01 -0.23,0.04 -0.32,0.05 -0.05,0.01 -0.1,0.02 -0.14,0.03 -0.03,0.01 -0.04,0.02 -0.06,0.03 -0.06,0.04 -0.1,0.09 -0.12,0.15 -0.01,0.04 0,0.12 0,0.16 0,0.06 0,0.12 0,0.17 0.04,0 0.05,0.01 0.06,-0.01l0 -0.2c0,-0.08 0,-0.16 0.07,-0.21 0.03,-0.02 0.05,-0.04 0.09,-0.05 0.08,-0.02 0.17,-0.03 0.26,-0.04 0.04,-0.01 0.08,-0.02 0.13,-0.02 0,0.04 0.01,0.06 0.03,0.09 0.03,0.05 0.09,0.09 0.15,0.11 0.03,0.01 0.08,0.03 0.11,0.02 0.13,0 0.3,-0.09 0.3,-0.22l0.33 0.05c0.11,0.01 0.21,0.08 0.22,0.18 0,0.1 0,0.2 0.01,0.3l0.05 0 0 -0.29c-0.02,-0.12 -0.09,-0.21 -0.3,-0.25 -0.1,-0.01 -0.21,-0.03 -0.32,-0.05 -0.04,0 -0.05,-0.01 -0.05,-0.04 0,-0.03 0,-0.08 0,-0.11 0.03,-0.02 0.05,-0.03 0.06,-0.05 0.03,-0.02 0.08,-0.07 0.09,-0.12 0.1,0 0.1,-0.06 0.11,-0.11 0.01,-0.02 0.02,-0.03 0.02,-0.04 0,-0.02 0,-0.04 0,-0.05 -0.01,-0.03 -0.03,-0.05 -0.07,-0.06 0,-0.1 0.02,-0.15 -0.02,-0.25 -0.02,-0.07 -0.05,-0.1 -0.1,-0.15 -0.02,-0.02 -0.02,-0.02 -0.04,-0.04 -0.02,-0.01 -0.05,-0.03 -0.07,-0.04 -0.08,-0.05 -0.15,-0.06 -0.25,-0.05 -0.04,0 -0.1,0 -0.16,0.02zm-0.15 0.18c0.05,-0.05 0.09,-0.1 0.19,-0.13 0.03,-0.02 0.05,-0.02 0.09,-0.02 0.07,-0.01 0.15,0 0.21,0.02 0.05,0.02 0.07,0.04 0.1,0.06 0.05,0.03 0.05,0.04 0.09,0.08 0.02,0.03 0.06,0.12 0.06,0.16 -0.02,-0.01 -0.06,-0.04 -0.09,-0.05 -0.02,-0.01 -0.04,-0.01 -0.06,0.01 -0.01,0 -0.03,0.01 -0.04,0.02 -0.14,0.1 -0.26,0.12 -0.42,0.01 -0.01,-0.01 -0.02,-0.02 -0.04,-0.03 -0.02,-0.01 -0.03,-0.01 -0.05,-0.01 -0.06,0 -0.09,0.03 -0.11,0.03 0,-0.07 0.05,-0.13 0.07,-0.15zm0.34 1.14c0.01,0 0.02,0 0.03,0 0.01,0 0.02,0 0.03,0 0.1,-0.02 0.19,-0.1 0.19,-0.18 -0.04,-0.01 -0.06,-0.04 -0.06,-0.07l0 -0.1 0 0c0,0 -0.01,0 -0.02,0 -0.04,0.02 -0.11,0.04 -0.17,0.04 -0.05,0 -0.1,0 -0.14,-0.02 -0.02,0 -0.03,-0.01 -0.04,-0.01 0,0.03 0,0.07 0,0.11 0,0.03 -0.03,0.04 -0.06,0.05 0,0.09 0.1,0.17 0.19,0.18 0.02,0 0.04,0 0.05,0z"/>
     <path class="fil2 str2" d="M1.47 1.89l0 0.27 0.24 0 0 -0.2 0.06 0 0 0.2 1.12 0 0 -0.2 0.05 0 0 0.2 0.23 0 -0.01 -0.3c-0.01,-0.1 -0.09,-0.15 -0.2,-0.18l-0.35 -0.05c-0.02,0.13 -0.13,0.2 -0.3,0.22 -0.16,0 -0.26,-0.08 -0.29,-0.22l-0.34 0.05c-0.14,0.03 -0.21,0.1 -0.21,0.21z"/>
     <path class="fil1" d="M2.32 1.28c-0.06,0 -0.11,0 -0.14,-0.05 -0.01,0.01 -0.03,0.03 -0.04,0.03 0.01,0.02 0.05,0.05 0.07,0.06 0.06,0.02 0.14,0.02 0.2,-0.01 0.02,-0.01 0.06,-0.04 0.07,-0.06 -0.01,0 -0.03,-0.01 -0.04,-0.02 0,0 -0.02,0.01 -0.02,0.01 -0.01,0.01 -0.02,0.02 -0.03,0.02 -0.02,0.01 -0.04,0.02 -0.07,0.02z"/>
     <path class="fil1" d="M2.44 0.98c-0.03,0.01 -0.06,0.03 -0.05,0.06 0.01,0.03 0.04,0.05 0.07,0.04 0.07,-0.01 0.07,-0.11 -0.02,-0.1z"/>
     <path class="fil1" d="M2.12 0.98c-0.08,0.02 -0.05,0.12 0.03,0.1 0.03,0 0.05,-0.03 0.05,-0.06 -0.01,-0.03 -0.04,-0.04 -0.08,-0.04z"/>
     <polygon class="fil1" points="1.72,2.16 1.77,2.16 1.77,1.96 1.72,1.96 "/>
     <polygon class="fil1" points="2.89,2.16 2.93,2.16 2.94,2.16 2.94,1.96 2.93,1.96 2.89,1.96 "/>
    </g>
    <g>
     <polygon class="fil3 str3" points="3.67,2.28 3.17,2.28 3.29,2.16 3.57,2.16 "/>
     <rect class="fil4 str3" x="1.1" y="2.28" width="2.58" height="1.47"/>
     <polygon class="fil5" points="1.92,3.54 1.92,2.49 2.87,2.49 2.87,2.67 2.2,2.67 2.2,2.92 2.78,2.92 2.78,3.09 2.2,3.09 2.2,3.54 "/>
    </g>
   </g>
  </g>
 </g>
</svg>
