<?xml version="1.0" encoding="UTF-8"?>
<!DOCTYPE svg PUBLIC "-//W3C//DTD SVG 1.1//EN" "http://www.w3.org/Graphics/SVG/1.1/DTD/svg11.dtd">
<!-- Creator: CorelDRAW 2021 (64 Bit) -->
<svg xmlns="http://www.w3.org/2000/svg" xml:space="preserve" width="301px" height="300px" version="1.1" style="shape-rendering:geometricPrecision; text-rendering:geometricPrecision; image-rendering:optimizeQuality; fill-rule:evenodd; clip-rule:evenodd"
viewBox="0 0 10.57 10.54"
 xmlns:xlink="http://www.w3.org/1999/xlink"
 xmlns:xodm="http://www.corel.com/coreldraw/odm/2003">
 <defs>
  <style type="text/css">
   <![CDATA[
    .str7 {stroke:#52331E;stroke-width:0.04;stroke-miterlimit:22.9256}
    .str6 {stroke:#9F740B;stroke-width:0.04;stroke-miterlimit:22.9256}
    .str1 {stroke:black;stroke-width:0.28;stroke-miterlimit:22.9256}
    .str0 {stroke:black;stroke-width:0.18;stroke-miterlimit:22.9256}
    .str2 {stroke:#86B0C0;stroke-width:0.18;stroke-miterlimit:22.9256}
    .str4 {stroke:#E2A610;stroke-width:0.18;stroke-miterlimit:22.9256}
    .str8 {stroke:#9F740E;stroke-width:0.07;stroke-miterlimit:22.9256}
    .str5 {stroke:#FDD734;stroke-width:0.07;stroke-miterlimit:22.9256}
    .str3 {stroke:#B9E4EA;stroke-width:0.03;stroke-miterlimit:22.9256}
    .fil5 {fill:none}
    .fil12 {fill:#52331E}
    .fil7 {fill:#86B0C0}
    .fil2 {fill:#8A8A8A}
    .fil11 {fill:#9F740B}
    .fil13 {fill:#9F7507}
    .fil1 {fill:#B7B3B5}
    .fil8 {fill:#B9E4EA}
    .fil9 {fill:#E2A610}
    .fil4 {fill:#EAFF00}
    .fil10 {fill:#FDD734}
    .fil0 {fill:#FDFDFD}
    .fil3 {fill:red}
    .fil6 {fill:white}
   ]]>
  </style>
 </defs>
 <g id="Camada_x0020_1">
  <metadata id="CorelCorpID_0Corel-Layer"/>
  <g id="_1883038871200">
   <path class="fil0" d="M2.27 6.78c0.45,-0.04 0.9,-0.1 1.35,-0.14 0.78,-0.09 0.55,-0.15 0.95,0.35l1.3 1.62c-0.08,0.1 -0.28,0.25 -0.4,0.34 -0.2,-0.2 -0.46,-0.55 -0.64,-0.78 -0.23,-0.27 -0.42,-0.51 -0.65,-0.8 -0.15,-0.18 -0.12,-0.29 -0.42,-0.25l-0.94 0.13c-0.24,0.03 -0.34,-0.13 -0.55,-0.47zm1.99 -0.69c-0.06,0.08 -0.07,0.09 -0.19,0.09l-2.11 0.26c-0.05,-0.09 -0.13,-0.2 -0.21,-0.26 -0.05,-0.05 -0.03,-0.01 -0.08,-0.09 -0.01,-0.02 -0.02,-0.05 -0.02,-0.06 0,-0.05 0.07,-0.05 0.15,-0.06l1.71 -0.2c-0.08,-0.19 -0.24,-0.39 -0.35,-0.64 -0.82,-1.71 0.86,-3.77 2.85,-3.21 0.93,0.27 1.63,1 1.73,2.1 0.08,0.91 -0.29,1.46 -0.78,2.03 -0.14,0.16 -0.34,0.36 -0.15,0.58 0.13,-0.07 0.25,-0.29 0.41,-0.38l-0.04 1.12 -0.79 0.11c-0.01,0.09 0.02,0.11 0.06,0.2 0.11,0.11 0.16,0.16 0.23,0.31 -0.17,0.09 -0.25,0.21 -0.44,0.31 -0.08,-0.15 -0.28,-0.38 -0.39,-0.52l-1.23 -1.53 0.68 -1.89 0.3 0.33c0.12,0.18 -0.26,0.87 -0.37,1.31 -0.04,0.16 0.07,0.24 0.17,0.36 0.14,0.17 0.7,0.9 0.82,0.98l0.19 -0.24c-0.09,-0.15 -0.28,-0.26 -0.3,-0.53 -0.04,-0.39 0.3,-0.78 0.54,-1.08 0.88,-1.08 0.5,-2.27 -0.3,-2.78 -1.62,-1.02 -3.69,0.81 -2.37,2.65 0.22,-0.32 0.46,-1.61 0.66,-1.84 0.1,0.09 0.35,0.36 0.32,0.52 -0.11,0.41 -0.64,1.62 -0.7,2.05zm-3.27 -5.12c0,0.5 -0.06,8.33 0,8.6l8.6 0 0 -8.6 -8.6 0z"/>
   <path class="fil1" d="M0.99 0.97l8.6 0 0 8.6 -8.6 0c-0.06,-0.27 0,-8.1 0,-8.6zm-0.99 0.12l0 8.61c0,0.42 0.45,0.84 0.88,0.84l8.85 0c0.48,0 0.84,-0.49 0.84,-1.06l0 -8.43c0,-0.54 -0.36,-1.05 -0.84,-1.05l-8.89 0c-0.49,0 -0.84,0.54 -0.84,1.09z"/>
   <path class="fil2" d="M1.75 6.18l-0.08 -0.15 0.13 -0.06c-0.08,0.01 -0.15,0.01 -0.15,0.06 0,0.01 0.01,0.04 0.02,0.06 0.05,0.08 0.03,0.04 0.08,0.09z"/>
   <path class="fil2" d="M4.07 6.18c0.12,0 0.13,-0.01 0.19,-0.09l-0.19 0.09z"/>
   <path class="fil2" d="M6.45 7.68c-0.04,-0.09 -0.07,-0.11 -0.06,-0.2l0.01 0.14c0,0.01 0.01,0.02 0.01,0.02l0.04 0.04z"/>
   <g>
    <g>
     <path class="fil3" d="M2.77 2.3c-0.87,0.4 -1.13,0.86 -1.17,1.72 0.02,0.81 0.39,1.26 1.01,1.58l0.23 3.29c0.36,-0.06 0.62,-0.21 0.68,-0.52l0.04 -0.38 0.23 -0.72 -0.32 -0.63 0.38 -0.63 -0.13 -0.62c0.69,-0.46 0.92,-1.13 0.73,-2 -0.28,-0.81 -0.82,-1.22 -1.68,-1.09z"/>
     <path class="fil4 str0" d="M1.54 4.01c-0.01,0.05 -0.01,0.11 -0.01,0.16 0,0.4 0.22,0.82 0.47,1.09 0.09,0.1 0.19,0.2 0.3,0.26 0.2,0.11 0.24,0.08 0.24,0.19 0.02,0.24 0.03,0.4 0.04,0.65l0.04 0.66c0.01,0.13 0.12,1.89 0.14,1.94 0.08,-0.03 0.15,-0.05 0.23,-0.06 0.27,-0.06 0.55,-0.28 0.64,-0.57 0.05,-0.18 -0.04,-0.35 0.02,-0.55l0.22 -0.56c0,-0.02 0.01,0 -0.01,-0.03 -0.01,-0.01 0,0 -0.01,-0.02 -0.09,-0.15 -0.22,-0.43 -0.31,-0.6 0.12,-0.17 0.33,-0.42 0.36,-0.61 0.01,-0.09 -0.02,-0.19 -0.03,-0.28 -0.02,-0.1 -0.02,-0.22 -0.04,-0.27 0.24,-0.19 0.34,-0.26 0.53,-0.59 0.12,-0.21 0.2,-0.49 0.22,-0.69 0.01,-0.23 0.01,-0.43 -0.05,-0.66 -0.06,-0.22 -0.14,-0.42 -0.29,-0.64 -0.16,-0.22 -0.36,-0.39 -0.58,-0.49 -0.23,-0.11 -0.41,-0.13 -0.6,-0.13l-0.29 0.04c-0.25,0.07 -0.51,0.23 -0.7,0.44 -0.03,0.02 -0.09,0.08 -0.1,0.12l0.01 0.01c0.07,0.08 0.09,0.11 0.16,0.17 0.18,-0.16 0.22,-0.31 0.5,-0.45 0.16,-0.08 0.36,-0.13 0.52,-0.12 0.12,0.01 0.41,0.05 0.54,0.14 0.36,0.23 0.64,0.61 0.71,1.08 0.02,0.17 0.04,0.44 0,0.6 -0.12,0.49 -0.4,0.85 -0.8,1.06 0,0.04 0.01,0.11 0.02,0.16l0.07 0.47c0,0.05 -0.04,0.09 -0.09,0.17l-0.32 0.52c0.09,0.16 0.19,0.38 0.29,0.55 0.05,0.1 0.04,0.05 -0.03,0.3l-0.14 0.46c-0.03,0.08 -0.03,0.07 -0.01,0.14 0,0.03 0.02,0.28 0.01,0.3 -0.08,0.21 -0.36,0.36 -0.49,0.36 -0.01,-0.03 0,-0.05 0,-0.1 -0.01,-0.25 -0.03,-0.47 -0.04,-0.73 0,-0.07 0.01,-0.14 0,-0.21l-0.05 -1.04c-0.01,-0.06 -0.01,-0.14 -0.01,-0.21 0,-0.07 0,-0.14 0,-0.21l-0.03 -0.42c0,-0.14 0,-0.27 -0.01,-0.41 -0.06,-0.04 -0.15,-0.03 -0.21,-0.04 -0.03,-0.01 -0.17,-0.09 -0.2,-0.11 -0.33,-0.17 -0.51,-0.53 -0.58,-0.91 -0.01,-0.04 -0.02,-0.13 -0.02,-0.17 -0.01,-0.04 -0.01,-0.1 -0.02,-0.17 -0.04,0.01 -0.06,0.01 -0.11,0.01 -0.03,0.01 -0.06,0.01 -0.1,0z"/>
     <line class="fil5 str1" x1="3" y1="5.34" x2="3.12" y2= "8.69" />
     <line class="fil5 str1" x1="3.38" y1="5.31" x2="3.43" y2= "6.41" />
     <path class="fil3 str0" d="M1.52 3.27c-0.17,0.3 0.24,0.59 0.41,0.26 0.06,-0.11 0.04,-0.28 -0.08,-0.36 -0.1,-0.07 -0.26,-0.04 -0.33,0.1z"/>
     <ellipse class="fil6 str0" cx="2.78" cy="3.33" rx="0.32" ry="0.36"/>
    </g>
    <g>
     <path class="fil7 str2" d="M5.79 3.29c0,0.56 0,0.62 0,1.18 0.19,0.17 0.4,0.18 0.6,0.01 0.01,-0.61 0.01,-0.74 0.02,-1.35 0.21,-1.1 1.34,-1.09 1.54,0 0,0.25 0,1.12 0,1.37 0.18,0.11 0.36,0.12 0.54,0.01 0,-0.2 0.01,-1 0.01,-1.2 -0.05,-0.6 -0.24,-1.11 -0.67,-1.47 -0.45,-0.36 -0.93,-0.37 -1.42,-0.03 -0.4,0.37 -0.6,0.87 -0.62,1.48z"/>
     <path class="fil8 str3" d="M6.46 2.23c-0.01,-0.12 -0.07,-0.15 -0.17,-0.13 -0.3,0.16 -0.43,0.63 -0.41,1.36 0,0.15 0.08,0.14 0.11,0.04 0.1,-0.51 0.21,-0.88 0.36,-1.03 0.07,-0.07 0.1,-0.15 0.11,-0.24z"/>
     <path class="fil9 str4" d="M5.29 8.4c0.01,-1.03 0.02,-2.06 0.02,-3.1 1.28,-0.68 2.5,-0.67 3.67,0 0,1.04 0,2.07 0,3.1 -0.24,0.4 -1.24,0.55 -1.84,0.56 -0.63,0 -1.63,-0.16 -1.85,-0.56z"/>
     <path class="fil10 str5" d="M7.14 5.98c-0.9,-0.01 -1.78,-0.15 -1.82,-0.69 0.01,-0.19 1.16,-0.5 1.83,-0.51 0.66,-0.02 1.82,0.31 1.83,0.51 -0.02,0.57 -1.07,0.67 -1.84,0.69z"/>
     <path class="fil11 str6" d="M6.96 7.59c-0.09,0.24 -0.18,0.48 -0.27,0.72 -0.03,0.07 0,0.1 0.07,0.1 0.09,0.01 0.46,0 0.7,0 0.07,0 0.09,-0.04 0.07,-0.1 -0.09,-0.24 -0.18,-0.46 -0.27,-0.7 0.14,-0.08 0.23,-0.19 0.22,-0.37 -0.03,-0.24 -0.16,-0.36 -0.38,-0.37 -0.23,0.01 -0.36,0.19 -0.36,0.37 0,0.15 0.1,0.32 0.22,0.35z"/>
     <path class="fil12 str7" d="M7 7.5c-0.07,0.21 -0.13,0.43 -0.2,0.64 -0.02,0.06 0,0.09 0.05,0.09 0.07,0 0.33,-0.01 0.51,0 0.05,0 0.07,-0.04 0.05,-0.09 -0.07,-0.21 -0.13,-0.41 -0.19,-0.63 0.1,-0.06 0.17,-0.16 0.16,-0.32 -0.02,-0.21 -0.12,-0.32 -0.28,-0.32 -0.17,0 -0.26,0.16 -0.26,0.32 0,0.14 0.07,0.28 0.16,0.31z"/>
     <ellipse class="fil13 str8" cx="8.18" cy="5.24" rx="0.34" ry="0.19"/>
     <ellipse class="fil13 str8" cx="6.01" cy="5.24" rx="0.34" ry="0.19"/>
    </g>
   </g>
  </g>
 </g>
</svg>
