<?xml version="1.0" encoding="UTF-8"?>
<!DOCTYPE svg PUBLIC "-//W3C//DTD SVG 1.1//EN" "http://www.w3.org/Graphics/SVG/1.1/DTD/svg11.dtd">
<!-- Creator: CorelDRAW 2021 (64 Bit) -->
<svg xmlns="http://www.w3.org/2000/svg" xml:space="preserve" width="725px" height="375px" version="1.1" style="shape-rendering:geometricPrecision; text-rendering:geometricPrecision; image-rendering:optimizeQuality; fill-rule:evenodd; clip-rule:evenodd"
viewBox="0 0 37.52 19.41"
 xmlns:xlink="http://www.w3.org/1999/xlink"
 xmlns:xodm="http://www.corel.com/coreldraw/odm/2003">
 <defs>
  <style type="text/css">
   <![CDATA[
    .str4 {stroke:#B8B4B6;stroke-width:0.52;stroke-miterlimit:22.9256}
    .str5 {stroke:black;stroke-width:0.1;stroke-miterlimit:22.9256}
    .str7 {stroke:black;stroke-width:0.1;stroke-miterlimit:22.9256}
    .str6 {stroke:#080808;stroke-width:0.1;stroke-miterlimit:22.9256}
    .str2 {stroke:white;stroke-width:0.1;stroke-miterlimit:22.9256}
    .str0 {stroke:#B8B4B6;stroke-width:1.29;stroke-miterlimit:22.9256}
    .str3 {stroke:black;stroke-width:0.31;stroke-miterlimit:22.9256}
    .str1 {stroke:black;stroke-width:0.05;stroke-miterlimit:22.9256}
    .fil5 {fill:none}
    .fil3 {fill:#E6E7E8}
    .fil2 {fill:black}
    .fil10 {fill:aqua}
    .fil9 {fill:red}
    .fil8 {fill:#FF6600}
    .fil7 {fill:yellow}
    .fil1 {fill:white}
    .fil0 {fill:white}
    .fil6 {fill:black;fill-rule:nonzero}
    .fil4 {fill:black;fill-rule:nonzero}
   ]]>
  </style>
 </defs>
 <g id="Camada_x0020_1">
  <metadata id="CorelCorpID_0Corel-Layer"/>
  <g id="_2713815253616">
   <g>
    <g>
     <rect class="fil0 str0" x="0.65" y="0.65" width="36.23" height="18.11" rx="1.68" ry="1.55"/>
     <g>
      <path class="fil1" d="M9.42 9.52c0.23,0 0.41,-0.08 0.57,-0.18 0.08,-0.05 0.14,-0.1 0.21,-0.16 0.05,-0.04 0.16,-0.13 0.23,-0.16 0.06,0.15 0.2,0.2 0.27,0.25 -0.05,0.18 -0.38,0.4 -0.54,0.49 -0.52,0.26 -1.1,0.3 -1.64,0.05 -0.15,-0.07 -0.48,-0.3 -0.54,-0.46 0.05,-0.07 0.24,-0.24 0.34,-0.29 0.25,0.4 0.65,0.46 1.1,0.46zm0.96 -2.67c0.69,-0.14 0.77,0.79 0.2,0.9 -0.3,0.07 -0.51,-0.11 -0.57,-0.35 -0.08,-0.33 0.1,-0.5 0.37,-0.55zm-2.52 0c0.29,-0.06 0.54,0.1 0.57,0.34 0.05,0.3 -0.13,0.52 -0.37,0.56 -0.6,0.13 -0.86,-0.78 -0.2,-0.9zm4.57 0.4c0.11,-0.43 0.22,-0.91 -0.03,-1.25 -0.08,-0.11 -0.29,-0.29 -0.41,-0.37 -0.35,-0.24 -0.42,-0.14 -0.75,0.12 -0.52,0.41 -1.24,0.73 -1.93,0.74 -0.98,0.02 -1.61,-0.52 -2.16,-0.92 -0.19,-0.13 -0.37,-0.07 -0.59,0.02 -0.21,0.09 -0.31,0.15 -0.37,0.39 -0.03,0.16 -0.12,0.5 -0.11,0.65 0.02,0.24 0.1,0.43 0.09,0.68l-0.53 0.07c-0.14,0.27 0.06,0.71 0.12,0.97 0.05,0.17 0.09,0.32 0.22,0.39 0.13,0.07 0.36,0.07 0.52,0.07 0.12,0.36 0.22,0.58 0.41,0.84 0.12,0.18 0.42,0.53 0.57,0.66 0.25,0.21 0.45,0.34 0.79,0.45 0.33,0.11 0.71,0.14 1.08,0.15 0.85,0.01 1.34,-0.26 1.85,-0.64 0.17,-0.12 0.47,-0.44 0.59,-0.63 0.3,-0.42 0.24,-0.45 0.39,-0.83 0.29,0 0.49,0.06 0.62,-0.14 0.13,-0.2 0.09,-0.4 0.16,-0.62 0.05,-0.15 0.21,-0.49 0.05,-0.61 -0.13,-0.09 -0.44,-0.09 -0.58,-0.19z"/>
      <path class="fil2" d="M9.42 9.52c-0.45,0 -0.85,-0.06 -1.1,-0.46 -0.1,0.05 -0.29,0.22 -0.34,0.29 0.06,0.16 0.39,0.39 0.54,0.46 0.54,0.25 1.12,0.21 1.64,-0.05 0.16,-0.09 0.49,-0.31 0.54,-0.49 -0.07,-0.05 -0.21,-0.1 -0.27,-0.25 -0.07,0.03 -0.18,0.12 -0.23,0.16 -0.07,0.06 -0.13,0.11 -0.21,0.16 -0.16,0.1 -0.34,0.18 -0.57,0.18z"/>
      <polygon class="fil2" points="4.59,17.33 5.01,17.34 5.01,15.53 4.59,15.53 "/>
      <polygon class="fil2" points="13.97,17.29 14.33,17.29 14.39,17.29 14.39,15.57 14.33,15.57 13.97,15.57 "/>
      <path class="fil2" d="M10.38 6.85c-0.27,0.05 -0.45,0.22 -0.37,0.55 0.06,0.24 0.27,0.42 0.57,0.35 0.57,-0.11 0.49,-1.04 -0.2,-0.9z"/>
      <path class="fil2" d="M7.86 6.85c-0.66,0.12 -0.4,1.03 0.2,0.9 0.24,-0.04 0.42,-0.26 0.37,-0.56 -0.03,-0.24 -0.28,-0.4 -0.57,-0.34z"/>
      <path class="fil2 str1" d="M12.43 7.25c0.14,0.1 0.45,0.1 0.58,0.19 0.16,0.12 0,0.46 -0.05,0.61 -0.07,0.22 -0.03,0.42 -0.16,0.62 -0.13,0.2 -0.33,0.14 -0.62,0.14 -0.15,0.38 -0.09,0.41 -0.39,0.83 -0.12,0.19 -0.42,0.51 -0.59,0.63 -0.51,0.38 -1,0.65 -1.85,0.64 -0.37,-0.01 -0.75,-0.04 -1.08,-0.15 -0.34,-0.11 -0.54,-0.24 -0.79,-0.45 -0.15,-0.13 -0.45,-0.48 -0.57,-0.66 -0.19,-0.26 -0.29,-0.48 -0.41,-0.84 -0.16,0 -0.39,0 -0.52,-0.07 -0.13,-0.07 -0.17,-0.22 -0.22,-0.39 -0.06,-0.26 -0.26,-0.7 -0.12,-0.97l0.53 -0.07c0.01,-0.25 -0.07,-0.44 -0.09,-0.68 -0.01,-0.15 0.08,-0.49 0.11,-0.65 0.06,-0.24 0.16,-0.3 0.37,-0.39 0.22,-0.09 0.4,-0.15 0.59,-0.02 0.55,0.4 1.18,0.94 2.16,0.92 0.69,-0.01 1.41,-0.33 1.93,-0.74 0.33,-0.26 0.4,-0.36 0.75,-0.12 0.12,0.08 0.33,0.26 0.41,0.37 0.25,0.34 0.14,0.82 0.03,1.25zm-4.62 -4.82c-0.65,0.29 -1.23,0.84 -1.56,1.3 -0.28,0.38 -0.5,0.7 -0.61,1.34 -0.05,0.3 -0.05,0.63 -0.06,0.94 0,0.34 0.08,0.6 0.09,0.91 -0.27,0.04 -0.39,0.14 -0.46,0.38 -0.07,0.25 -0.05,0.49 0.01,0.75 0.32,1.54 0.82,0.89 1.09,1.42 0.13,0.26 0.1,0.27 0.3,0.54l0.39 0.45c0.12,0.13 0.26,0.28 0.47,0.37 0.01,0.18 0.02,0.94 0,1.09 -0.02,0.12 -0.07,0.15 -0.2,0.16 -0.61,0.06 -1.86,0.31 -2.53,0.43 -0.43,0.08 -0.8,0.15 -1.17,0.31 -0.19,0.08 -0.32,0.15 -0.47,0.26 -0.45,0.31 -0.78,0.8 -0.91,1.32 -0.09,0.33 -0.05,1.07 -0.05,1.45 0,0.49 -0.01,0.99 0,1.49 0.3,0 0.44,0.05 0.47,-0.14l-0.01 -1.79c0,-0.69 0,-1.38 0.58,-1.83 0.26,-0.21 0.41,-0.31 0.76,-0.43 0.64,-0.21 1.35,-0.28 2.02,-0.41 0.33,-0.06 0.7,-0.14 1.05,-0.15 0.05,0.38 0.06,0.54 0.24,0.84 0.27,0.46 0.71,0.8 1.2,0.99 0.24,0.1 0.63,0.2 0.92,0.18 1.05,-0.03 2.38,-0.88 2.4,-2.01l2.6 0.43c0.9,0.13 1.72,0.75 1.78,1.68 0.02,0.86 0.04,1.73 0.06,2.6l0.43 0.04 0 -2.62c-0.18,-1.07 -0.72,-1.89 -2.37,-2.17 -0.87,-0.15 -1.74,-0.3 -2.61,-0.45 -0.29,-0.06 -0.39,-0.07 -0.36,-0.4 0,-0.29 0,-0.68 0,-0.97 0.18,-0.12 0.34,-0.25 0.49,-0.4 0.18,-0.18 0.61,-0.69 0.68,-1.06 0.78,-0.01 0.79,-0.59 0.91,-1.05 0.03,-0.13 0.1,-0.22 0.13,-0.36 0.02,-0.14 0.02,-0.29 -0.02,-0.43 -0.09,-0.25 -0.25,-0.39 -0.51,-0.47 0,-0.92 0.15,-1.37 -0.16,-2.25 -0.22,-0.63 -0.39,-0.93 -0.81,-1.37 -0.18,-0.19 -0.18,-0.17 -0.33,-0.3 -0.15,-0.13 -0.38,-0.29 -0.55,-0.39 -0.68,-0.41 -1.25,-0.5 -2.05,-0.47 -0.28,0.01 -0.77,0.05 -1.27,0.25zm-1.16 1.56c0.37,-0.4 0.73,-0.85 1.5,-1.2 0.27,-0.11 0.39,-0.16 0.75,-0.17 0.53,-0.05 1.14,0.03 1.63,0.22 0.38,0.15 0.59,0.31 0.86,0.54 0.33,0.27 0.39,0.32 0.66,0.74 0.15,0.22 0.54,1.02 0.5,1.36 -0.16,-0.11 -0.5,-0.33 -0.72,-0.42 -0.18,-0.07 -0.31,-0.06 -0.46,0.04 -0.12,0.08 -0.22,0.17 -0.33,0.25 -1.13,0.83 -2.1,1.01 -3.34,0.07 -0.12,-0.09 -0.22,-0.16 -0.34,-0.25 -0.14,-0.1 -0.22,-0.15 -0.45,-0.14 -0.47,0.04 -0.64,0.26 -0.86,0.32 0.02,-0.61 0.43,-1.15 0.6,-1.36zm2.68 10.17c0.08,-0.01 0.17,-0.01 0.24,-0.02 0.09,0 0.2,-0.03 0.29,-0.04 0.79,-0.13 1.48,-0.86 1.49,-1.6 -0.34,-0.11 -0.51,-0.32 -0.48,-0.62l0.01 -0.9 0 0c-0.04,0.02 -0.08,0.04 -0.13,0.06 -0.39,0.19 -0.92,0.32 -1.41,0.34 -0.4,0.01 -0.78,-0.04 -1.15,-0.17 -0.1,-0.04 -0.21,-0.1 -0.29,-0.13 -0.02,0.31 0.03,0.66 0,0.96 -0.03,0.27 -0.25,0.38 -0.47,0.46 0.02,0.86 0.8,1.5 1.49,1.61 0.21,0.03 0.32,0.04 0.41,0.05z"/>
     </g>
    </g>
    <g>
     <rect class="fil3 str2" x="20.59" y="10.98" width="2.52" height="6.32"/>
     <g>
      <path class="fil4" d="M27.35 17.36c-0.48,0 -0.96,-0.17 -1.42,-0.35 -0.51,-0.19 -1.04,-0.38 -1.56,-0.33l-1.29 0.11 0 -5 0.7 -0.06c0.44,-0.04 0.81,0.13 1.16,0.3 0.33,0.15 0.64,0.3 1,0.27l2.31 -0.42c0.83,-0.14 1.28,0.33 1.56,0.77l2.52 -1.17c0.95,-0.43 2.02,0 2.66,1.06 0.16,0.28 0.07,0.65 -0.21,0.83 -0.33,0.2 -0.65,0.41 -0.98,0.61 -2.81,1.76 -5.24,3.29 -6.28,3.38 -0.05,0 -0.11,0 -0.17,0zm-2.82 -1.04c0.53,0 1.03,0.19 1.52,0.37 0.5,0.19 0.98,0.36 1.44,0.32 0.96,-0.08 3.47,-1.66 6.13,-3.32 0.32,-0.2 0.65,-0.41 0.97,-0.61 0.13,-0.08 0.17,-0.24 0.1,-0.36 -0.55,-0.9 -1.44,-1.28 -2.22,-0.93l-2.8 1.31c-0.01,-0.19 -0.14,-0.4 -0.22,-0.49 -0.26,-0.31 -0.76,-0.46 -1.14,-0.39l-2.32 0.42c-0.47,0.04 -0.84,-0.13 -1.2,-0.3 -0.32,-0.15 -0.63,-0.3 -0.98,-0.26l-0.38 0.03 0 4.3 0.91 -0.08c0.06,0 0.13,-0.01 0.19,-0.01z"/>
      <path class="fil5 str3" d="M29.8 13.01c0.05,0.08 0.05,0.22 -0.05,0.37 -0.14,0.24 -0.49,0.43 -1.32,0.33 -0.61,-0.07 -1.35,0.07 -1.99,0.14"/>
      <rect class="fil5 str4" x="20.37" y="10.98" width="2.96" height="6.32" rx="0.55" ry="0.55"/>
     </g>
    </g>
   </g>
   <g>
    <path class="fil6" d="M31.13 6.83l-3.49 0c-0.09,0 -0.17,-0.07 -0.17,-0.16 0,-0.09 0.08,-0.16 0.17,-0.16l3.49 0c0.09,0 0.16,0.07 0.16,0.16 0,0.09 -0.07,0.16 -0.16,0.16z"/>
    <path class="fil6" d="M32.28 10.26l-1.15 0c-0.09,0 -0.17,-0.07 -0.17,-0.16l0 -6.77c0,-0.09 0.08,-0.17 0.17,-0.17l1.15 0c0.09,0 0.16,0.08 0.16,0.17 0,0.09 -0.07,0.16 -0.16,0.16l-0.99 0 0 6.44 0.99 0c0.09,0 0.16,0.08 0.16,0.17 0,0.09 -0.07,0.16 -0.16,0.16z"/>
    <path class="fil6" d="M32.28 6.83l-1.15 0c-0.09,0 -0.17,-0.07 -0.17,-0.16 0,-0.09 0.08,-0.16 0.17,-0.16l1.15 0c0.09,0 0.16,0.07 0.16,0.16 0,0.09 -0.07,0.16 -0.16,0.16z"/>
    <circle class="fil7 str5" cx="32.91" cy="3.29" r="0.97"/>
    <circle class="fil8 str6" cx="32.91" cy="6.67" r="0.97"/>
    <circle class="fil9 str7" cx="32.89" cy="10.06" r="0.97"/>
    <circle class="fil10" cx="25.04" cy="6.71" r="1.06"/>
    <path class="fil4" d="M25.84 10.01c-0.04,0 -0.09,-0.01 -0.13,-0.03 -0.08,-0.03 -0.14,-0.09 -0.17,-0.17 -0.1,-0.25 -0.33,-0.34 -0.5,-0.34 -0.18,0 -0.4,0.09 -0.5,0.34 -0.07,0.16 -0.26,0.24 -0.43,0.17l-0.73 -0.3c-0.08,-0.04 -0.14,-0.1 -0.18,-0.18 -0.03,-0.08 -0.03,-0.17 0,-0.25 0.11,-0.24 0.01,-0.46 -0.11,-0.59 -0.13,-0.12 -0.35,-0.22 -0.59,-0.11 -0.17,0.06 -0.36,-0.01 -0.43,-0.18l-0.3 -0.73c-0.03,-0.08 -0.03,-0.17 0,-0.25 0.03,-0.08 0.09,-0.14 0.17,-0.18 0.25,-0.1 0.34,-0.32 0.34,-0.5 0,-0.17 -0.09,-0.4 -0.34,-0.5 -0.08,-0.03 -0.14,-0.09 -0.17,-0.17 -0.03,-0.08 -0.03,-0.17 0,-0.25l0.3 -0.74c0.07,-0.16 0.26,-0.24 0.43,-0.17 0.24,0.1 0.46,0 0.59,-0.12 0.12,-0.12 0.22,-0.34 0.11,-0.59 -0.06,-0.16 0.01,-0.35 0.18,-0.42l0.73 -0.31c0.08,-0.03 0.17,-0.03 0.25,0 0.08,0.04 0.15,0.1 0.18,0.18 0.1,0.25 0.32,0.33 0.5,0.33 0,0 0,0 0,0 0.17,0 0.4,-0.08 0.5,-0.33 0.03,-0.08 0.09,-0.14 0.17,-0.18 0.08,-0.03 0.17,-0.03 0.25,0l0.74 0.31c0.08,0.03 0.14,0.09 0.17,0.17 0.04,0.08 0.04,0.17 0,0.25 -0.1,0.25 0,0.47 0.12,0.59 0.12,0.12 0.34,0.22 0.59,0.12 0.16,-0.07 0.35,0.01 0.42,0.17l0.31 0.74c0.03,0.08 0.03,0.17 0,0.25 -0.04,0.08 -0.1,0.14 -0.18,0.17 -0.24,0.1 -0.33,0.33 -0.33,0.5 0,0.18 0.09,0.4 0.33,0.5l0 0c0.08,0.04 0.14,0.1 0.18,0.18 0.03,0.08 0.03,0.17 0,0.25l-0.31 0.73c-0.03,0.08 -0.09,0.14 -0.17,0.18 -0.08,0.03 -0.17,0.03 -0.25,0 -0.25,-0.11 -0.47,-0.01 -0.59,0.11 -0.12,0.13 -0.22,0.35 -0.12,0.59 0.07,0.17 -0.01,0.36 -0.17,0.43l-0.74 0.3c-0.04,0.02 -0.08,0.03 -0.12,0.03zm-0.8 -0.87c0.36,0 0.66,0.21 0.8,0.54l0.73 -0.3c-0.14,-0.33 -0.07,-0.7 0.19,-0.95 0.25,-0.25 0.61,-0.32 0.94,-0.19l0.3 -0.73c-0.33,-0.13 -0.53,-0.44 -0.53,-0.8 0,-0.36 0.21,-0.66 0.54,-0.8l-0.31 -0.73c-0.33,0.14 -0.69,0.07 -0.94,-0.19 -0.26,-0.25 -0.33,-0.61 -0.19,-0.94l-0.73 -0.3c-0.14,0.32 -0.44,0.53 -0.8,0.53 0,0 0,0 0,0 -0.36,0 -0.67,-0.21 -0.8,-0.54l-0.73 0.31c0.13,0.33 0.06,0.69 -0.19,0.94 -0.25,0.26 -0.62,0.33 -0.95,0.19l-0.3 0.73c0.33,0.14 0.54,0.44 0.54,0.8 0,0.36 -0.21,0.67 -0.54,0.8l0.31 0.73c0.32,-0.13 0.69,-0.06 0.94,0.19 0.25,0.25 0.32,0.62 0.19,0.95l0.73 0.3c0.13,-0.33 0.44,-0.54 0.8,-0.54z"/>
    <path class="fil6" d="M25.04 7.94c-0.68,0 -1.23,-0.55 -1.23,-1.23 0,-0.67 0.55,-1.22 1.23,-1.22 0.67,0 1.23,0.55 1.23,1.22 0,0.68 -0.56,1.23 -1.23,1.23zm0 -2.13c-0.5,0 -0.9,0.41 -0.9,0.9 0,0.5 0.4,0.9 0.9,0.9 0.49,0 0.9,-0.4 0.9,-0.9 0,-0.49 -0.41,-0.9 -0.9,-0.9z"/>
    <path class="fil4" d="M25.61 9.05c-0.03,0 -0.06,-0.01 -0.09,-0.02 -0.06,-0.02 -0.1,-0.07 -0.13,-0.12 -0.07,-0.18 -0.23,-0.24 -0.35,-0.24 -0.13,0 -0.28,0.06 -0.36,0.24 -0.05,0.11 -0.18,0.17 -0.3,0.12l-0.52 -0.21c-0.06,-0.03 -0.1,-0.07 -0.12,-0.13 -0.03,-0.06 -0.03,-0.12 0,-0.18 0.07,-0.17 0,-0.33 -0.09,-0.41 -0.08,-0.09 -0.24,-0.16 -0.41,-0.09 -0.12,0.05 -0.26,0 -0.31,-0.12l-0.21 -0.52c-0.03,-0.06 -0.03,-0.12 0,-0.18 0.02,-0.06 0.07,-0.1 0.12,-0.12 0.18,-0.08 0.24,-0.23 0.24,-0.36 0,-0.12 -0.06,-0.28 -0.24,-0.35 -0.05,-0.03 -0.1,-0.07 -0.12,-0.13 -0.03,-0.05 -0.03,-0.12 0,-0.17l0.21 -0.52c0.05,-0.12 0.19,-0.18 0.31,-0.13 0.17,0.07 0.33,0.01 0.41,-0.08 0.09,-0.09 0.16,-0.25 0.09,-0.42 -0.05,-0.12 0,-0.25 0.12,-0.3l0.52 -0.22c0.06,-0.02 0.12,-0.02 0.18,0 0.06,0.03 0.1,0.07 0.12,0.13 0.08,0.17 0.23,0.23 0.36,0.23 0,0 0,0 0,0 0.12,0 0.28,-0.06 0.35,-0.23 0.03,-0.06 0.07,-0.1 0.13,-0.13 0.05,-0.02 0.12,-0.02 0.17,0l0.52 0.22c0.06,0.02 0.11,0.07 0.13,0.12 0.02,0.06 0.02,0.12 0,0.18 -0.07,0.17 -0.01,0.33 0.08,0.42 0.09,0.09 0.25,0.15 0.42,0.08 0.12,-0.05 0.25,0.01 0.3,0.13l0.22 0.52c0.02,0.05 0.02,0.12 0,0.17 -0.03,0.06 -0.07,0.1 -0.13,0.13 -0.17,0.07 -0.23,0.23 -0.23,0.35 0,0.13 0.06,0.28 0.23,0.36l0 0c0.06,0.02 0.1,0.06 0.13,0.12 0.02,0.06 0.02,0.12 0,0.18l-0.22 0.52c-0.02,0.06 -0.07,0.1 -0.12,0.12 -0.06,0.03 -0.12,0.03 -0.18,0 -0.17,-0.07 -0.33,0 -0.42,0.09 -0.09,0.08 -0.15,0.24 -0.08,0.42 0.05,0.11 -0.01,0.25 -0.13,0.3l-0.52 0.21c-0.02,0.01 -0.05,0.02 -0.08,0.02zm-0.57 -0.61c0.25,0 0.47,0.14 0.57,0.38l0.52 -0.22c-0.1,-0.23 -0.05,-0.49 0.13,-0.67 0.18,-0.18 0.43,-0.23 0.67,-0.13l0.21 -0.52c-0.23,-0.1 -0.38,-0.31 -0.38,-0.57 0,-0.25 0.15,-0.47 0.38,-0.57l-0.21 -0.52c-0.24,0.1 -0.49,0.05 -0.67,-0.13 -0.18,-0.18 -0.23,-0.43 -0.14,-0.67l-0.52 -0.21c-0.09,0.23 -0.31,0.38 -0.56,0.38 0,0 0,0 0,0 -0.26,0 -0.47,-0.15 -0.57,-0.38l-0.52 0.21c0.1,0.24 0.05,0.49 -0.13,0.67 -0.18,0.18 -0.44,0.23 -0.67,0.14l-0.22 0.52c0.24,0.09 0.38,0.31 0.38,0.56 0,0.26 -0.14,0.47 -0.38,0.57l0.22 0.52c0.23,-0.1 0.49,-0.05 0.67,0.13 0.18,0.18 0.23,0.44 0.13,0.67l0.52 0.22c0.1,-0.24 0.31,-0.38 0.57,-0.38z"/>
   </g>
  </g>
 </g>
</svg>
