<?xml version="1.0" encoding="UTF-8"?>
<!DOCTYPE svg PUBLIC "-//W3C//DTD SVG 1.1//EN" "http://www.w3.org/Graphics/SVG/1.1/DTD/svg11.dtd">
<!-- Creator: CorelDRAW 2021 (64 Bit) -->
<svg xmlns="http://www.w3.org/2000/svg" xml:space="preserve" width="725px" height="375px" version="1.1" style="shape-rendering:geometricPrecision; text-rendering:geometricPrecision; image-rendering:optimizeQuality; fill-rule:evenodd; clip-rule:evenodd"
viewBox="0 0 37.51 19.4"
 xmlns:xlink="http://www.w3.org/1999/xlink"
 xmlns:xodm="http://www.corel.com/coreldraw/odm/2003">
 <defs>
  <style type="text/css">
   <![CDATA[
    .str4 {stroke:#B8B4B6;stroke-width:0.52;stroke-miterlimit:22.9256}
    .str2 {stroke:white;stroke-width:0.1;stroke-miterlimit:22.9256}
    .str0 {stroke:#B8B4B6;stroke-width:1.29;stroke-miterlimit:22.9256}
    .str3 {stroke:black;stroke-width:0.31;stroke-miterlimit:22.9256}
    .str1 {stroke:black;stroke-width:0.05;stroke-miterlimit:22.9256}
    .fil5 {fill:none}
    .fil3 {fill:#E6E7E8}
    .fil9 {fill:#FFF212}
    .fil2 {fill:black}
    .fil10 {fill:aqua}
    .fil8 {fill:red}
    .fil1 {fill:white}
    .fil0 {fill:white}
    .fil6 {fill:#373435;fill-rule:nonzero}
    .fil7 {fill:black;fill-rule:nonzero}
    .fil4 {fill:black;fill-rule:nonzero}
   ]]>
  </style>
 </defs>
 <g id="Camada_x0020_1">
  <metadata id="CorelCorpID_0Corel-Layer"/>
  <g id="_2713502447632">
   <g>
    <g>
     <rect class="fil0 str0" x="0.65" y="0.65" width="36.21" height="18.11" rx="1.68" ry="1.55"/>
     <g>
      <path class="fil1" d="M9.41 9.52c0.23,0 0.42,-0.08 0.57,-0.18 0.08,-0.05 0.14,-0.11 0.21,-0.16 0.05,-0.04 0.17,-0.14 0.23,-0.16 0.06,0.15 0.21,0.19 0.28,0.25 -0.05,0.18 -0.38,0.4 -0.54,0.48 -0.52,0.27 -1.11,0.31 -1.64,0.06 -0.15,-0.07 -0.48,-0.31 -0.54,-0.46 0.05,-0.07 0.24,-0.24 0.34,-0.29 0.25,0.39 0.64,0.46 1.09,0.46zm0.97 -2.68c0.69,-0.13 0.76,0.8 0.2,0.91 -0.3,0.06 -0.52,-0.12 -0.57,-0.35 -0.08,-0.33 0.1,-0.51 0.37,-0.56zm-2.52 0c0.28,-0.05 0.54,0.1 0.57,0.34 0.05,0.3 -0.14,0.52 -0.37,0.57 -0.61,0.12 -0.87,-0.78 -0.2,-0.91zm4.57 0.4c0.11,-0.42 0.21,-0.9 -0.04,-1.24 -0.08,-0.12 -0.28,-0.3 -0.4,-0.37 -0.36,-0.24 -0.43,-0.14 -0.75,0.12 -0.52,0.41 -1.25,0.73 -1.94,0.74 -0.97,0.01 -1.6,-0.53 -2.15,-0.92 -0.19,-0.14 -0.38,-0.07 -0.59,0.02 -0.21,0.09 -0.32,0.15 -0.37,0.39 -0.03,0.16 -0.12,0.5 -0.11,0.65 0.01,0.23 0.1,0.42 0.09,0.67l-0.54 0.08c-0.14,0.26 0.06,0.71 0.13,0.97 0.05,0.17 0.09,0.32 0.22,0.38 0.13,0.07 0.36,0.07 0.52,0.08 0.12,0.36 0.22,0.57 0.4,0.84 0.13,0.18 0.42,0.52 0.58,0.65 0.25,0.21 0.45,0.34 0.79,0.46 0.32,0.11 0.71,0.14 1.08,0.14 0.84,0.02 1.33,-0.26 1.84,-0.63 0.17,-0.13 0.47,-0.44 0.6,-0.63 0.29,-0.42 0.23,-0.45 0.39,-0.83 0.28,0 0.49,0.05 0.62,-0.15 0.13,-0.19 0.09,-0.39 0.16,-0.61 0.05,-0.16 0.2,-0.49 0.04,-0.61 -0.13,-0.09 -0.44,-0.09 -0.57,-0.2z"/>
      <path class="fil2" d="M9.41 9.52c-0.45,0 -0.84,-0.07 -1.09,-0.46 -0.1,0.05 -0.29,0.22 -0.34,0.29 0.06,0.15 0.39,0.39 0.54,0.46 0.53,0.25 1.12,0.21 1.64,-0.06 0.16,-0.08 0.49,-0.3 0.54,-0.48 -0.07,-0.06 -0.22,-0.1 -0.28,-0.25 -0.06,0.02 -0.18,0.12 -0.23,0.16 -0.07,0.05 -0.13,0.11 -0.21,0.16 -0.15,0.1 -0.34,0.18 -0.57,0.18z"/>
      <polygon class="fil2" points="4.59,17.33 5.01,17.33 5,15.52 4.59,15.52 "/>
      <polygon class="fil2" points="13.97,17.29 14.32,17.29 14.39,17.28 14.39,15.57 14.32,15.56 13.97,15.56 "/>
      <path class="fil2" d="M10.38 6.84c-0.27,0.05 -0.45,0.23 -0.37,0.56 0.05,0.23 0.27,0.41 0.57,0.35 0.56,-0.11 0.49,-1.04 -0.2,-0.91z"/>
      <path class="fil2" d="M7.86 6.84c-0.67,0.13 -0.41,1.03 0.2,0.91 0.23,-0.05 0.42,-0.27 0.37,-0.57 -0.03,-0.24 -0.29,-0.39 -0.57,-0.34z"/>
      <path class="fil2 str1" d="M12.43 7.24c0.13,0.11 0.44,0.11 0.57,0.2 0.16,0.12 0.01,0.45 -0.04,0.61 -0.07,0.22 -0.03,0.42 -0.16,0.61 -0.13,0.2 -0.34,0.15 -0.62,0.15 -0.16,0.38 -0.1,0.41 -0.39,0.83 -0.13,0.19 -0.43,0.5 -0.6,0.63 -0.51,0.37 -1,0.65 -1.84,0.63 -0.37,0 -0.76,-0.03 -1.08,-0.14 -0.34,-0.12 -0.54,-0.25 -0.79,-0.46 -0.16,-0.13 -0.45,-0.47 -0.58,-0.65 -0.18,-0.27 -0.28,-0.48 -0.4,-0.84 -0.16,-0.01 -0.39,-0.01 -0.52,-0.08 -0.13,-0.06 -0.17,-0.21 -0.22,-0.38 -0.07,-0.26 -0.27,-0.71 -0.13,-0.97l0.54 -0.08c0.01,-0.25 -0.08,-0.44 -0.09,-0.67 -0.01,-0.15 0.08,-0.49 0.11,-0.65 0.05,-0.24 0.16,-0.3 0.37,-0.39 0.21,-0.09 0.4,-0.16 0.59,-0.02 0.55,0.39 1.18,0.93 2.15,0.92 0.69,-0.01 1.42,-0.33 1.94,-0.74 0.32,-0.26 0.39,-0.36 0.75,-0.12 0.12,0.07 0.32,0.25 0.4,0.37 0.25,0.34 0.15,0.82 0.04,1.24zm-4.62 -4.81c-0.66,0.28 -1.23,0.84 -1.56,1.3 -0.28,0.38 -0.51,0.7 -0.61,1.34 -0.06,0.3 -0.06,0.63 -0.06,0.94 0,0.34 0.08,0.59 0.09,0.9 -0.27,0.05 -0.39,0.14 -0.46,0.38 -0.08,0.26 -0.05,0.5 0,0.75 0.33,1.54 0.83,0.9 1.1,1.43 0.13,0.26 0.09,0.27 0.3,0.54l0.39 0.45c0.12,0.13 0.26,0.27 0.47,0.36 0,0.18 0.02,0.94 0,1.09 -0.02,0.12 -0.08,0.15 -0.2,0.17 -0.62,0.06 -1.86,0.31 -2.53,0.43 -0.44,0.07 -0.8,0.15 -1.18,0.31 -0.18,0.08 -0.31,0.15 -0.47,0.26 -0.44,0.3 -0.77,0.79 -0.91,1.32 -0.08,0.33 -0.04,1.06 -0.04,1.44 0,0.5 -0.01,0.99 0,1.49 0.29,0 0.44,0.05 0.46,-0.14l0 -1.78c0,-0.7 0,-1.39 0.57,-1.83 0.27,-0.21 0.42,-0.31 0.77,-0.43 0.64,-0.22 1.35,-0.29 2.02,-0.41 0.33,-0.06 0.7,-0.15 1.04,-0.16 0.05,0.38 0.07,0.55 0.24,0.85 0.28,0.46 0.72,0.79 1.21,0.99 0.24,0.09 0.62,0.2 0.91,0.18 1.05,-0.03 2.39,-0.88 2.4,-2.02l2.6 0.44c0.9,0.12 1.72,0.75 1.79,1.67 0.02,0.87 0.04,1.73 0.06,2.6l0.42 0.04 0 -2.62c-0.18,-1.06 -0.72,-1.88 -2.37,-2.16 -0.87,-0.15 -1.74,-0.3 -2.61,-0.46 -0.28,-0.05 -0.39,-0.07 -0.36,-0.39 0,-0.29 0,-0.68 0.01,-0.97 0.18,-0.12 0.33,-0.26 0.48,-0.4 0.18,-0.18 0.62,-0.69 0.68,-1.06 0.79,-0.02 0.79,-0.59 0.91,-1.05 0.04,-0.13 0.1,-0.22 0.13,-0.36 0.03,-0.14 0.02,-0.29 -0.02,-0.43 -0.08,-0.26 -0.25,-0.39 -0.51,-0.47 0,-0.93 0.15,-1.38 -0.15,-2.26 -0.22,-0.62 -0.39,-0.92 -0.82,-1.36 -0.18,-0.19 -0.17,-0.17 -0.33,-0.3 -0.14,-0.13 -0.38,-0.29 -0.55,-0.39 -0.67,-0.41 -1.25,-0.5 -2.04,-0.47 -0.29,0.01 -0.78,0.05 -1.27,0.25zm-1.16 1.56c0.36,-0.41 0.72,-0.85 1.5,-1.2 0.27,-0.12 0.38,-0.16 0.75,-0.18 0.53,-0.04 1.14,0.04 1.63,0.23 0.38,0.15 0.58,0.31 0.85,0.54 0.34,0.27 0.39,0.32 0.67,0.73 0.14,0.22 0.53,1.03 0.49,1.37 -0.16,-0.11 -0.5,-0.33 -0.71,-0.42 -0.19,-0.07 -0.32,-0.06 -0.46,0.04 -0.12,0.08 -0.23,0.17 -0.34,0.25 -1.12,0.83 -2.09,1.01 -3.34,0.07 -0.11,-0.09 -0.21,-0.16 -0.33,-0.25 -0.15,-0.1 -0.22,-0.16 -0.45,-0.14 -0.48,0.04 -0.65,0.26 -0.87,0.32 0.03,-0.61 0.44,-1.15 0.61,-1.36zm2.68 10.16c0.08,0 0.17,-0.01 0.23,-0.01 0.1,-0.01 0.21,-0.04 0.29,-0.05 0.8,-0.13 1.49,-0.85 1.49,-1.59 -0.34,-0.12 -0.5,-0.32 -0.48,-0.63l0.02 -0.9 0 0c-0.04,0.02 -0.09,0.04 -0.13,0.07 -0.4,0.18 -0.92,0.32 -1.42,0.33 -0.39,0.02 -0.78,-0.03 -1.14,-0.17 -0.1,-0.03 -0.21,-0.09 -0.3,-0.12 -0.01,0.31 0.04,0.65 0.01,0.95 -0.03,0.27 -0.25,0.38 -0.47,0.47 0.01,0.85 0.8,1.5 1.48,1.6 0.21,0.04 0.33,0.05 0.42,0.05z"/>
     </g>
    </g>
    <g>
     <rect class="fil3 str2" x="20.58" y="10.98" width="2.52" height="6.32"/>
     <g>
      <path class="fil4" d="M27.34 17.36c-0.48,0 -0.96,-0.18 -1.42,-0.35 -0.51,-0.19 -1.04,-0.39 -1.56,-0.34l-1.29 0.11 0 -4.99 0.7 -0.06c0.44,-0.04 0.81,0.13 1.16,0.29 0.33,0.16 0.64,0.3 1,0.27l2.31 -0.42c0.82,-0.14 1.28,0.34 1.56,0.78l2.51 -1.18c0.95,-0.42 2.02,0.01 2.66,1.07 0.17,0.28 0.07,0.65 -0.21,0.83 -0.32,0.2 -0.65,0.4 -0.97,0.6 -2.81,1.77 -5.24,3.29 -6.28,3.38 -0.06,0 -0.11,0.01 -0.17,0.01zm-2.82 -1.04c0.53,0 1.03,0.18 1.52,0.36 0.5,0.19 0.98,0.37 1.44,0.33 0.96,-0.09 3.47,-1.66 6.13,-3.33 0.32,-0.2 0.64,-0.4 0.97,-0.61 0.12,-0.07 0.17,-0.23 0.09,-0.35 -0.54,-0.91 -1.43,-1.28 -2.21,-0.93l-2.8 1.3c-0.01,-0.18 -0.15,-0.39 -0.22,-0.48 -0.26,-0.31 -0.76,-0.46 -1.14,-0.4l-2.32 0.42c-0.47,0.04 -0.84,-0.13 -1.2,-0.3 -0.32,-0.15 -0.63,-0.29 -0.98,-0.26l-0.38 0.03 0 4.3 0.91 -0.08c0.06,0 0.13,0 0.19,0z"/>
      <path class="fil5 str3" d="M29.79 13c0.04,0.08 0.05,0.22 -0.05,0.38 -0.15,0.24 -0.49,0.42 -1.32,0.32 -0.61,-0.07 -1.35,0.07 -1.99,0.14"/>
      <rect class="fil5 str4" x="20.36" y="10.98" width="2.96" height="6.32" rx="0.55" ry="0.55"/>
     </g>
    </g>
   </g>
   <g>
    <g>
     <path class="fil6" d="M23.93 8c0.02,-0.02 0.04,-0.05 0.06,-0.09 0.03,-0.07 0.03,-0.14 0,-0.21 -0.09,-0.21 -0.01,-0.4 0.1,-0.51 0.1,-0.1 0.29,-0.19 0.5,-0.1 0.14,0.06 0.31,-0.01 0.37,-0.15l0.26 -0.63c0.02,-0.07 0.02,-0.14 0,-0.21 -0.03,-0.07 -0.09,-0.13 -0.15,-0.15 -0.22,-0.09 -0.29,-0.28 -0.29,-0.43 0,-0.15 0.07,-0.34 0.28,-0.43 0.15,-0.06 0.21,-0.22 0.15,-0.36l-0.26 -0.63c-0.02,-0.07 -0.08,-0.13 -0.15,-0.15 -0.07,-0.03 -0.14,-0.03 -0.21,0 -0.21,0.08 -0.4,0 -0.51,-0.1 -0.1,-0.11 -0.18,-0.3 -0.1,-0.51 0.03,-0.07 0.03,-0.14 0,-0.21 -0.03,-0.07 -0.08,-0.12 -0.15,-0.15l-0.63 -0.26c-0.14,-0.06 -0.3,0.01 -0.36,0.15 -0.09,0.21 -0.28,0.29 -0.43,0.29 -0.15,0 -0.34,-0.08 -0.43,-0.29 -0.06,-0.14 -0.22,-0.21 -0.36,-0.15l-0.63 0.26c-0.07,0.03 -0.12,0.08 -0.15,0.15 -0.03,0.07 -0.03,0.15 0,0.21 0.09,0.22 0,0.4 -0.1,0.51 0,0 0,0 0,0 -0.11,0.11 -0.3,0.19 -0.51,0.1 -0.07,-0.03 -0.14,-0.03 -0.21,0 -0.07,0.03 -0.12,0.08 -0.15,0.15l-0.26 0.63c-0.03,0.07 -0.03,0.15 0,0.21 0.03,0.07 0.08,0.13 0.15,0.16 0.21,0.08 0.29,0.27 0.29,0.42 0,0.15 -0.08,0.34 -0.29,0.43 -0.14,0.06 -0.21,0.22 -0.15,0.37l0.26 0.63c0.03,0.06 0.08,0.12 0.15,0.15 0.07,0.02 0.15,0.02 0.22,0 0.21,-0.09 0.4,-0.01 0.5,0.1 0.11,0.1 0.19,0.29 0.1,0.5l0 0c-0.03,0.07 -0.03,0.15 0,0.21 0.03,0.07 0.08,0.13 0.15,0.15l0.63 0.26c0.07,0.03 0.15,0.03 0.22,0 0.06,-0.02 0.12,-0.08 0.15,-0.15 0.08,-0.21 0.28,-0.28 0.42,-0.28 0.15,0 0.35,0.07 0.43,0.28 0.06,0.14 0.23,0.21 0.37,0.15l0.63 -0.26c0.03,-0.01 0.06,-0.03 0.09,-0.06zm-0.04 -1.01c-0.22,0.22 -0.28,0.53 -0.16,0.82l-0.63 0.25c-0.11,-0.28 -0.38,-0.45 -0.69,-0.45 -0.3,0 -0.57,0.17 -0.68,0.46l-0.63 -0.26c0.12,-0.29 0.06,-0.6 -0.16,-0.81 -0.22,-0.22 -0.53,-0.28 -0.81,-0.16l-0.26 -0.63c0.28,-0.12 0.46,-0.38 0.46,-0.69 0,-0.3 -0.18,-0.57 -0.46,-0.68l0.26 -0.63c0.28,0.12 0.59,0.06 0.81,-0.16 0,0 0,0 0,0 0.21,-0.22 0.27,-0.53 0.16,-0.81l0.62 -0.26c0.12,0.28 0.38,0.46 0.69,0.46 0.31,0 0.57,-0.18 0.69,-0.46l0.62 0.26c-0.11,0.28 -0.05,0.59 0.17,0.8 0.21,0.22 0.52,0.28 0.81,0.17l0.26 0.62c-0.29,0.12 -0.46,0.38 -0.46,0.69 0,0.31 0.17,0.57 0.46,0.69l-0.26 0.62c-0.28,-0.12 -0.59,-0.05 -0.81,0.16z"/>
     <path class="fil6" d="M23.49 7.28c0.02,-0.02 0.03,-0.04 0.04,-0.06 0.02,-0.05 0.02,-0.11 0,-0.15 -0.06,-0.15 0,-0.29 0.07,-0.36 0.08,-0.08 0.21,-0.14 0.36,-0.07 0.1,0.04 0.22,-0.01 0.26,-0.11l0.18 -0.45c0.02,-0.05 0.02,-0.1 0,-0.15 -0.02,-0.05 -0.06,-0.09 -0.11,-0.11 -0.15,-0.06 -0.2,-0.19 -0.2,-0.3 0,-0.11 0.05,-0.24 0.2,-0.3 0.1,-0.05 0.15,-0.16 0.11,-0.26l-0.18 -0.45c-0.02,-0.05 -0.06,-0.09 -0.11,-0.11 -0.05,-0.02 -0.1,-0.02 -0.15,0 -0.15,0.07 -0.29,0.01 -0.36,-0.07 -0.08,-0.07 -0.14,-0.21 -0.07,-0.36 0.02,-0.04 0.02,-0.1 0,-0.15 -0.02,-0.05 -0.06,-0.08 -0.11,-0.1l-0.45 -0.19c-0.1,-0.04 -0.21,0.01 -0.26,0.11 -0.06,0.15 -0.19,0.2 -0.3,0.2 -0.11,0 -0.24,-0.05 -0.3,-0.2 -0.05,-0.1 -0.16,-0.15 -0.26,-0.11l-0.45 0.19c-0.05,0.02 -0.08,0.06 -0.1,0.11 -0.03,0.04 -0.03,0.1 0,0.15 0.06,0.15 0,0.28 -0.08,0.36 0,0 0,0 0,0 -0.07,0.07 -0.2,0.13 -0.35,0.07 -0.05,-0.02 -0.11,-0.02 -0.16,0 -0.04,0.02 -0.08,0.06 -0.1,0.1l-0.19 0.45c-0.02,0.05 -0.02,0.1 0,0.15 0.02,0.05 0.06,0.09 0.11,0.11 0.15,0.06 0.2,0.2 0.2,0.3 0,0.11 -0.05,0.24 -0.2,0.31 -0.1,0.04 -0.15,0.15 -0.11,0.26l0.19 0.44c0.02,0.05 0.06,0.09 0.11,0.11 0.05,0.02 0.1,0.02 0.15,0 0.15,-0.06 0.28,-0.01 0.36,0.07 0.07,0.07 0.13,0.21 0.07,0.36l0 0c-0.02,0.05 -0.02,0.1 0,0.15 0.02,0.05 0.06,0.09 0.11,0.11l0.44 0.18c0.05,0.02 0.1,0.02 0.15,0 0.05,-0.02 0.09,-0.06 0.11,-0.11 0.06,-0.15 0.2,-0.2 0.3,-0.2 0.11,0 0.25,0.05 0.31,0.2 0.04,0.1 0.16,0.15 0.26,0.11l0.44 -0.19c0.03,-0.01 0.05,-0.02 0.07,-0.04zm-0.03 -0.71c-0.15,0.15 -0.2,0.37 -0.11,0.57l-0.45 0.19c-0.08,-0.21 -0.27,-0.33 -0.49,-0.33 -0.21,0 -0.4,0.13 -0.48,0.33l-0.45 -0.19c0.09,-0.2 0.04,-0.42 -0.11,-0.57 -0.16,-0.16 -0.38,-0.2 -0.58,-0.12l-0.18 -0.44c0.2,-0.08 0.32,-0.27 0.32,-0.49 0,-0.22 -0.12,-0.4 -0.32,-0.49l0.18 -0.44c0.2,0.08 0.42,0.04 0.58,-0.11 0,0 0,0 0,0 0.15,-0.16 0.19,-0.38 0.11,-0.58l0.44 -0.18c0.09,0.2 0.27,0.32 0.49,0.32 0.22,0 0.41,-0.12 0.49,-0.33l0.44 0.19c-0.08,0.2 -0.04,0.42 0.12,0.57 0.15,0.16 0.37,0.2 0.57,0.12l0.19 0.44c-0.2,0.08 -0.33,0.27 -0.33,0.49 0,0.22 0.13,0.4 0.33,0.49l-0.19 0.44c-0.2,-0.08 -0.42,-0.04 -0.57,0.12z"/>
     <g>
      <path class="fil7" d="M23.16 6.26c0.41,-0.41 0.41,-1.07 0,-1.48 -0.41,-0.41 -1.08,-0.41 -1.49,0 -0.41,0.41 -0.41,1.08 0,1.49 0.41,0.41 1.08,0.41 1.49,-0.01zm-1.29 -1.28c0.3,-0.3 0.79,-0.31 1.09,0 0.3,0.3 0.3,0.79 0,1.09 -0.3,0.3 -0.79,0.3 -1.09,0 -0.3,-0.3 -0.3,-0.79 0,-1.09z"/>
      <circle class="fil8" cx="22.41" cy="5.52" r="0.77"/>
     </g>
    </g>
    <g>
     <path class="fil6" d="M30.38 7.76c-0.03,-0.02 -0.05,-0.05 -0.06,-0.09 -0.03,-0.07 -0.03,-0.14 0,-0.21 0.08,-0.21 0,-0.4 -0.1,-0.51 -0.11,-0.1 -0.3,-0.18 -0.51,-0.1 -0.14,0.06 -0.3,-0.01 -0.36,-0.15l-0.26 -0.63c-0.03,-0.07 -0.03,-0.14 0,-0.21 0.03,-0.07 0.08,-0.12 0.15,-0.15 0.21,-0.09 0.29,-0.28 0.29,-0.43 0,-0.15 -0.08,-0.34 -0.29,-0.43 -0.14,-0.06 -0.21,-0.22 -0.15,-0.36l0.26 -0.63c0.03,-0.07 0.08,-0.12 0.15,-0.15 0.07,-0.03 0.15,-0.03 0.21,0 0.22,0.09 0.4,0 0.51,-0.1 0.11,-0.11 0.19,-0.3 0.1,-0.51 -0.03,-0.07 -0.03,-0.14 0,-0.21 0.03,-0.07 0.08,-0.12 0.15,-0.15l0.63 -0.26c0.14,-0.06 0.31,0.01 0.37,0.15 0.08,0.21 0.27,0.29 0.42,0.29 0.15,0 0.35,-0.08 0.43,-0.29 0.06,-0.14 0.23,-0.21 0.37,-0.15l0.63 0.26c0.06,0.03 0.12,0.08 0.15,0.15 0.02,0.07 0.02,0.15 0,0.22 -0.09,0.21 -0.01,0.4 0.1,0.5 0,0 0,0 0,0 0.1,0.11 0.29,0.19 0.5,0.1 0.07,-0.03 0.15,-0.03 0.21,0 0.07,0.03 0.13,0.09 0.16,0.15l0.26 0.63c0.02,0.07 0.02,0.15 0,0.22 -0.03,0.07 -0.09,0.12 -0.16,0.15 -0.21,0.08 -0.28,0.28 -0.28,0.43 0,0.15 0.07,0.34 0.28,0.42 0.15,0.06 0.21,0.23 0.15,0.37l-0.26 0.63c-0.03,0.07 -0.08,0.12 -0.15,0.15 -0.07,0.03 -0.14,0.03 -0.21,0 -0.21,-0.09 -0.4,-0.01 -0.51,0.1 -0.1,0.1 -0.19,0.29 -0.1,0.5l0 0c0.03,0.07 0.03,0.15 0,0.22 -0.03,0.07 -0.08,0.12 -0.15,0.15l-0.63 0.26c-0.07,0.03 -0.14,0.03 -0.21,0 -0.07,-0.03 -0.12,-0.09 -0.15,-0.15 -0.09,-0.22 -0.28,-0.29 -0.43,-0.29 -0.15,0 -0.34,0.07 -0.43,0.28 -0.06,0.15 -0.22,0.21 -0.36,0.16l-0.63 -0.27c-0.04,-0.01 -0.07,-0.03 -0.09,-0.06zm0.04 -1c0.21,0.21 0.27,0.52 0.16,0.81l0.62 0.26c0.12,-0.29 0.38,-0.46 0.69,-0.46 0.31,0 0.57,0.17 0.69,0.46l0.62 -0.26c-0.11,-0.29 -0.05,-0.59 0.16,-0.81 0.22,-0.22 0.53,-0.28 0.82,-0.16l0.25 -0.63c-0.28,-0.11 -0.45,-0.38 -0.45,-0.69 0,-0.3 0.17,-0.57 0.46,-0.68l-0.26 -0.63c-0.28,0.12 -0.6,0.06 -0.81,-0.16 0,0 0,0 0,0 -0.22,-0.22 -0.28,-0.53 -0.16,-0.81l-0.63 -0.26c-0.12,0.28 -0.38,0.46 -0.69,0.46 -0.3,0 -0.57,-0.18 -0.68,-0.46l-0.63 0.26c0.12,0.28 0.06,0.59 -0.16,0.81 -0.22,0.21 -0.53,0.28 -0.81,0.16l-0.26 0.63c0.28,0.11 0.46,0.37 0.46,0.68 0,0.31 -0.18,0.57 -0.46,0.69l0.26 0.62c0.28,-0.11 0.59,-0.05 0.81,0.17z"/>
     <path class="fil6" d="M30.82 7.04c-0.02,-0.02 -0.04,-0.04 -0.05,-0.06 -0.02,-0.05 -0.02,-0.1 0,-0.15 0.07,-0.15 0.01,-0.29 -0.07,-0.36 -0.07,-0.08 -0.21,-0.13 -0.36,-0.07 -0.1,0.04 -0.21,-0.01 -0.25,-0.11l-0.19 -0.45c-0.02,-0.05 -0.02,-0.1 0,-0.15 0.02,-0.05 0.06,-0.08 0.11,-0.1 0.15,-0.07 0.2,-0.2 0.2,-0.31 0,-0.11 -0.05,-0.24 -0.2,-0.3 -0.1,-0.04 -0.15,-0.16 -0.11,-0.26l0.19 -0.45c0.02,-0.05 0.06,-0.08 0.11,-0.1 0.04,-0.02 0.1,-0.02 0.15,0 0.15,0.06 0.28,0 0.36,-0.08 0.07,-0.07 0.13,-0.2 0.07,-0.35 -0.02,-0.05 -0.02,-0.11 0,-0.15 0.02,-0.05 0.06,-0.09 0.1,-0.11l0.45 -0.19c0.1,-0.04 0.22,0.01 0.26,0.11 0.06,0.15 0.2,0.2 0.3,0.2 0.11,0 0.25,-0.05 0.31,-0.2 0.04,-0.1 0.16,-0.15 0.26,-0.11l0.44 0.19c0.05,0.02 0.09,0.06 0.11,0.11 0.02,0.05 0.02,0.1 0,0.15 -0.06,0.15 -0.01,0.28 0.07,0.36 0,0 0,0 0,0 0.07,0.07 0.21,0.13 0.36,0.07 0.05,-0.02 0.1,-0.02 0.15,0 0.05,0.02 0.09,0.06 0.11,0.11l0.18 0.44c0.02,0.05 0.02,0.11 0,0.15 -0.02,0.05 -0.06,0.09 -0.11,0.11 -0.15,0.06 -0.2,0.2 -0.2,0.3 0,0.11 0.05,0.25 0.2,0.31 0.1,0.04 0.15,0.16 0.11,0.26l-0.19 0.44c-0.02,0.05 -0.05,0.09 -0.1,0.11 -0.05,0.02 -0.11,0.02 -0.15,0 -0.15,-0.06 -0.29,0 -0.36,0.07 -0.08,0.08 -0.14,0.21 -0.07,0.36l0 0c0.02,0.05 0.02,0.1 0,0.15 -0.02,0.05 -0.06,0.09 -0.11,0.11l-0.45 0.18c-0.05,0.02 -0.1,0.02 -0.15,0 -0.05,-0.02 -0.09,-0.06 -0.11,-0.1 -0.06,-0.15 -0.19,-0.21 -0.3,-0.21 -0.11,0 -0.24,0.05 -0.3,0.2 -0.05,0.11 -0.16,0.15 -0.26,0.11l-0.45 -0.18c-0.02,-0.01 -0.05,-0.03 -0.06,-0.05zm0.02 -0.71c0.16,0.15 0.2,0.37 0.12,0.57l0.44 0.19c0.09,-0.2 0.27,-0.33 0.49,-0.33 0.22,0 0.4,0.13 0.49,0.33l0.44 -0.19c-0.08,-0.2 -0.04,-0.42 0.12,-0.57 0.15,-0.15 0.37,-0.2 0.57,-0.11l0.19 -0.45c-0.2,-0.08 -0.33,-0.27 -0.33,-0.49 0,-0.21 0.13,-0.4 0.33,-0.48l-0.19 -0.45c-0.2,0.09 -0.42,0.04 -0.57,-0.11 0,0 0,0 0,0 -0.15,-0.16 -0.2,-0.38 -0.11,-0.58l-0.45 -0.18c-0.08,0.2 -0.27,0.32 -0.49,0.32 -0.21,0 -0.4,-0.12 -0.48,-0.32l-0.45 0.18c0.08,0.2 0.04,0.42 -0.11,0.58 -0.16,0.15 -0.38,0.19 -0.58,0.11l-0.18 0.44c0.2,0.09 0.32,0.27 0.32,0.49 0,0.22 -0.12,0.41 -0.32,0.49l0.18 0.44c0.2,-0.08 0.42,-0.04 0.57,0.12z"/>
     <path class="fil7" d="M32.64 6.03c0.41,-0.41 0.41,-1.08 0,-1.49 -0.42,-0.41 -1.08,-0.41 -1.49,0 -0.41,0.41 -0.41,1.08 0,1.49 0.41,0.41 1.08,0.41 1.49,0zm-1.29 -1.29c0.3,-0.3 0.79,-0.3 1.09,0 0.3,0.3 0.3,0.79 0,1.09 -0.3,0.3 -0.79,0.3 -1.09,0 -0.3,-0.3 -0.3,-0.79 0,-1.09z"/>
     <circle class="fil9" cx="31.89" cy="5.28" r="0.77"/>
    </g>
    <g>
     <path class="fil7" d="M27.96 9.84c0.41,-0.41 0.41,-1.08 0,-1.49 -0.41,-0.41 -1.08,-0.41 -1.49,0 -0.41,0.41 -0.41,1.08 0,1.49 0.41,0.41 1.08,0.41 1.49,0zm-1.29 -1.29c0.3,-0.3 0.79,-0.3 1.09,0 0.3,0.3 0.3,0.79 0,1.09 -0.3,0.3 -0.79,0.3 -1.09,0 -0.3,-0.3 -0.3,-0.79 0,-1.09z"/>
     <g>
      <path class="fil6" d="M26.76 12c-0.03,-0.02 -0.06,-0.04 -0.09,-0.06 -0.05,-0.06 -0.08,-0.13 -0.08,-0.2 0,-0.23 -0.15,-0.37 -0.29,-0.43 -0.14,-0.05 -0.35,-0.06 -0.51,0.1 -0.1,0.11 -0.28,0.11 -0.39,0.01l-0.48 -0.48c-0.06,-0.05 -0.09,-0.12 -0.09,-0.2 0,-0.07 0.03,-0.14 0.08,-0.2 0.16,-0.16 0.16,-0.36 0.1,-0.5 -0.06,-0.14 -0.2,-0.29 -0.43,-0.29 -0.15,0 -0.28,-0.12 -0.28,-0.27l0 -0.68c0,-0.08 0.03,-0.15 0.08,-0.2 0.05,-0.06 0.12,-0.08 0.2,-0.08 0.23,-0.01 0.37,-0.15 0.42,-0.29 0.06,-0.14 0.06,-0.35 -0.1,-0.51 -0.05,-0.05 -0.08,-0.12 -0.08,-0.19 0,-0.08 0.03,-0.15 0.08,-0.2l0.48 -0.49c0.11,-0.1 0.28,-0.11 0.39,0 0.17,0.16 0.37,0.16 0.51,0.1 0.14,-0.06 0.28,-0.2 0.28,-0.43 0,-0.15 0.13,-0.28 0.28,-0.28l0.68 0c0.08,0 0.15,0.03 0.2,0.08 0.05,0.05 0.08,0.12 0.08,0.2 0,0.22 0.15,0.37 0.29,0.42 0,0 0,0 0,0 0.14,0.06 0.34,0.06 0.5,-0.1 0.06,-0.05 0.13,-0.08 0.2,-0.08 0.08,0 0.15,0.03 0.2,0.08l0.48 0.48c0.05,0.05 0.08,0.12 0.08,0.19 0.01,0.08 -0.02,0.15 -0.08,0.2 -0.16,0.16 -0.15,0.37 -0.09,0.51 0.05,0.13 0.2,0.28 0.43,0.28 0.15,0 0.27,0.12 0.28,0.28l0 0.68c0,0.07 -0.03,0.14 -0.08,0.2 -0.05,0.05 -0.12,0.08 -0.2,0.08 -0.23,0 -0.37,0.15 -0.43,0.29 -0.05,0.14 -0.06,0.34 0.11,0.5l0 0c0.05,0.05 0.08,0.12 0.08,0.2 0,0.07 -0.03,0.14 -0.08,0.2l-0.48 0.48c-0.05,0.05 -0.12,0.08 -0.2,0.08 -0.07,0 -0.14,-0.03 -0.19,-0.08 -0.17,-0.16 -0.37,-0.15 -0.51,-0.1 -0.14,0.06 -0.29,0.21 -0.28,0.43 0,0.16 -0.13,0.28 -0.28,0.28l-0.68 0.01c-0.04,0 -0.08,-0.01 -0.11,-0.02zm-0.36 -0.95c0.29,0.12 0.47,0.38 0.47,0.69l0.68 -0.01c-0.01,-0.3 0.17,-0.57 0.45,-0.69 0.28,-0.11 0.59,-0.05 0.81,0.16l0.48 -0.48c-0.22,-0.22 -0.28,-0.53 -0.17,-0.81 0.12,-0.28 0.38,-0.46 0.69,-0.46l-0.01 -0.68c-0.3,0 -0.56,-0.17 -0.68,-0.45 -0.12,-0.29 -0.06,-0.6 0.15,-0.82l-0.48 -0.47c-0.21,0.21 -0.52,0.28 -0.81,0.16 0,0 0,0 0,0 -0.28,-0.11 -0.46,-0.38 -0.46,-0.68l-0.68 0c0,0.31 -0.17,0.57 -0.45,0.69 -0.29,0.12 -0.6,0.06 -0.81,-0.16l-0.48 0.49c0.22,0.21 0.28,0.52 0.16,0.8 -0.11,0.29 -0.37,0.46 -0.68,0.47l0 0.67c0.31,0 0.57,0.18 0.69,0.46 0.12,0.28 0.06,0.59 -0.16,0.81l0.49 0.48c0.21,-0.22 0.52,-0.28 0.8,-0.17z"/>
      <path class="fil6" d="M26.89 11.16c-0.03,-0.01 -0.05,-0.02 -0.07,-0.04 -0.04,-0.04 -0.06,-0.09 -0.06,-0.14 0,-0.16 -0.1,-0.26 -0.2,-0.3 -0.1,-0.04 -0.25,-0.05 -0.36,0.07 -0.08,0.08 -0.2,0.08 -0.28,0l-0.34 -0.34c-0.04,-0.04 -0.06,-0.09 -0.06,-0.14 0,-0.05 0.02,-0.1 0.06,-0.14 0.11,-0.11 0.11,-0.26 0.07,-0.36 -0.05,-0.1 -0.15,-0.2 -0.31,-0.2 -0.11,0 -0.2,-0.09 -0.2,-0.2l0 -0.48c0,-0.05 0.02,-0.1 0.06,-0.14 0.03,-0.04 0.08,-0.06 0.14,-0.06 0.16,0 0.26,-0.1 0.3,-0.2 0.04,-0.1 0.04,-0.25 -0.07,-0.36 -0.04,-0.04 -0.06,-0.09 -0.06,-0.14 0,-0.05 0.02,-0.1 0.06,-0.14l0.34 -0.34c0.07,-0.08 0.2,-0.08 0.28,-0.01 0.11,0.12 0.26,0.12 0.35,0.07 0.1,-0.04 0.21,-0.14 0.21,-0.3 0,-0.11 0.08,-0.2 0.19,-0.2l0.49 0c0.05,0 0.1,0.02 0.14,0.06 0.03,0.03 0.05,0.08 0.05,0.14 0.01,0.16 0.11,0.26 0.21,0.3 0,0 0,0 0,0 0.1,0.04 0.24,0.04 0.36,-0.07 0.03,-0.04 0.08,-0.06 0.14,-0.06 0.05,0 0.1,0.02 0.14,0.05l0.34 0.34c0.04,0.04 0.06,0.09 0.06,0.14 0,0.06 -0.02,0.11 -0.06,0.14 -0.11,0.12 -0.11,0.26 -0.07,0.36 0.04,0.1 0.14,0.21 0.31,0.2 0.11,0 0.2,0.09 0.2,0.2l0 0.48c0,0.06 -0.02,0.11 -0.06,0.14 -0.04,0.04 -0.09,0.06 -0.14,0.06 -0.16,0 -0.26,0.11 -0.3,0.21 -0.04,0.1 -0.04,0.24 0.07,0.36l0 0c0.04,0.03 0.06,0.08 0.06,0.14 0,0.05 -0.02,0.1 -0.06,0.14l-0.34 0.34c-0.03,0.04 -0.08,0.06 -0.14,0.06 -0.05,0 -0.1,-0.02 -0.14,-0.06 -0.11,-0.11 -0.26,-0.11 -0.36,-0.07 -0.09,0.04 -0.2,0.14 -0.2,0.31 0,0.1 -0.09,0.19 -0.19,0.19l-0.49 0.01c-0.02,0 -0.05,-0.01 -0.07,-0.02zm-0.26 -0.67c0.21,0.08 0.33,0.27 0.33,0.49l0.48 -0.01c0,-0.21 0.13,-0.4 0.33,-0.48 0.2,-0.09 0.42,-0.04 0.57,0.11l0.34 -0.34c-0.15,-0.16 -0.2,-0.38 -0.12,-0.58 0.09,-0.2 0.27,-0.33 0.49,-0.33l0 -0.48c-0.22,0 -0.41,-0.12 -0.49,-0.32 -0.09,-0.2 -0.04,-0.42 0.11,-0.58l-0.34 -0.33c-0.15,0.15 -0.37,0.19 -0.58,0.11 0,0 0,0 0,0 -0.2,-0.08 -0.32,-0.27 -0.32,-0.48l-0.49 0c0.01,0.22 -0.12,0.4 -0.32,0.49 -0.2,0.08 -0.42,0.04 -0.57,-0.11l-0.34 0.34c0.15,0.15 0.2,0.37 0.11,0.57 -0.08,0.2 -0.26,0.33 -0.48,0.33l0 0.48c0.22,0 0.41,0.12 0.49,0.32 0.08,0.21 0.04,0.43 -0.11,0.58l0.34 0.34c0.15,-0.16 0.37,-0.2 0.57,-0.12z"/>
      <circle class="fil10" cx="27.19" cy="9.12" r="0.77"/>
     </g>
    </g>
   </g>
  </g>
 </g>
</svg>
