<?xml version="1.0" encoding="UTF-8"?>
<!DOCTYPE svg PUBLIC "-//W3C//DTD SVG 1.1//EN" "http://www.w3.org/Graphics/SVG/1.1/DTD/svg11.dtd">
<!-- Creator: CorelDRAW 2021 (64 Bit) -->
<svg xmlns="http://www.w3.org/2000/svg" xml:space="preserve" width="1002px" height="1002px" version="1.1" style="shape-rendering:geometricPrecision; text-rendering:geometricPrecision; image-rendering:optimizeQuality; fill-rule:evenodd; clip-rule:evenodd"
viewBox="0 0 685.74 685.74"
 xmlns:xlink="http://www.w3.org/1999/xlink"
 xmlns:xodm="http://www.corel.com/coreldraw/odm/2003">
 <defs>
  <style type="text/css">
   <![CDATA[
    .str1 {stroke:black;stroke-width:30.81;stroke-miterlimit:22.9256}
    .str0 {stroke:#C4C4C4;stroke-width:30.81;stroke-miterlimit:22.9256}
    .fil1 {fill:none}
    .fil0 {fill:white}
    .fil2 {fill:#373435;fill-rule:nonzero}
   ]]>
  </style>
 </defs>
 <g id="Camada_x0020_1">
  <metadata id="CorelCorpID_0Corel-Layer"/>
  <circle class="fil0 str0" cx="342.87" cy="342.87" r="327.47"/>
  <circle class="fil1 str1" cx="342.06" cy="342.87" r="299.17"/>
  <g id="_2613225071504">
   <path class="fil2" d="M188.36 153.88l0 12.55c-4.48,1.22 -7.89,3.12 -10.29,5.74 -2.34,2.55 -3.52,5.74 -3.52,9.51 0,3.62 0.97,6.78 2.94,9.54 1.98,2.69 5.17,5.31 9.62,7.75 3.04,1.68 9.93,4.87 20.73,9.57 6.53,2.84 11.58,5.38 15.17,7.71 3.62,2.26 6.99,5.1 10.22,8.54 8.57,8.97 12.84,19.66 12.84,32.1 0,9.37 -2.33,17.9 -6.99,25.69 -4.63,7.74 -11.01,13.88 -19.16,18.29 -4.37,2.29 -9.14,4.16 -14.34,5.49 -5.17,1.36 -10.05,2 -14.53,2l0 -12.41c6.31,-1.5 10.83,-3.62 13.63,-6.35 2.76,-2.72 4.2,-6.42 4.2,-11.04 0,-4.88 -2.19,-9.15 -6.57,-12.84 -2.87,-2.41 -8.43,-5.38 -16.53,-8.93 -8.97,-3.95 -15.1,-6.71 -18.4,-8.4 -3.3,-1.65 -6.49,-3.62 -9.54,-5.84 -13.67,-9.76 -20.52,-22.71 -20.52,-38.89 0,-8.28 1.72,-15.96 5.13,-22.91 3.44,-7.03 8.18,-12.67 14.31,-16.93 8.5,-5.99 19.01,-9.29 31.6,-9.94l0 0zm8.46 12.55l0 -12.01c4.34,0.28 8.15,0.82 11.34,1.68 3.19,0.83 7.71,2.51 13.63,4.99 1.43,0.57 2.62,0.86 3.55,0.86 1.43,0 2.44,-0.5 3.08,-1.43l2.41 -3.12c1.15,-1.58 2.58,-2.37 4.19,-2.37 1.98,0 3.45,0.71 4.34,2.11 0.94,1.44 1.37,3.66 1.37,6.68l0 36.01c0,2.08 -0.61,3.76 -1.8,5.13 -1.22,1.32 -2.72,2 -4.62,2 -1.47,0 -2.8,-0.5 -4.06,-1.43 -0.64,-0.57 -1.14,-1.29 -1.57,-2.12 -0.4,-0.86 -0.76,-2.22 -1.15,-4.19 -0.76,-3.55 -2.19,-7.25 -4.13,-11.01 -1.93,-3.77 -4.27,-7.14 -6.85,-10.12 -5.24,-5.88 -11.8,-9.76 -19.73,-11.66l0 0zm-14.02 129.52l0 12.41c-5.95,0 -12.52,-1.68 -19.69,-5.13 -2.69,-1.22 -4.52,-2.04 -5.53,-2.36 -1.04,-0.36 -2,-0.54 -2.94,-0.54 -1.43,0 -2.54,0.21 -3.26,0.68 -0.75,0.5 -1.9,1.69 -3.48,3.59 -1.33,1.58 -2.73,2.4 -4.23,2.4 -4.06,0 -6.1,-3.12 -6.1,-9.4l0 -39.6c0,-2.04 0.57,-3.73 1.72,-5.16 1.15,-1.4 2.62,-2.15 4.38,-2.22 1.57,-0.08 2.83,0.39 3.73,1.39 0.89,0.94 1.68,2.66 2.33,5.13 1.68,6.25 4.09,12.09 7.24,17.51 3.16,5.45 6.85,10.08 11.05,13.81 4.27,3.94 9.18,6.42 14.78,7.49l0 0z"/>
   <path id="_1" class="fil2" d="M322.51 156.82l0 148.6 -48.46 0 -2.84 0c-2.65,0 -4.62,-0.46 -6.09,-1.47 -1.4,-0.97 -2.12,-2.37 -2.12,-4.16 0,-2.98 1.44,-4.95 4.38,-5.92 2.4,-0.75 3.8,-1.25 4.19,-1.43 0.43,-0.18 0.83,-0.58 1.26,-1.26 0.86,-1.15 1.33,-3.01 1.33,-5.52l0 -108.97c0,-2.55 -0.47,-4.37 -1.33,-5.56 -0.43,-0.64 -0.83,-1.07 -1.26,-1.29 -0.39,-0.14 -1.79,-0.64 -4.19,-1.43 -2.94,-0.97 -4.38,-2.95 -4.38,-5.92 0,-1.8 0.72,-3.23 2.12,-4.2 1.47,-1 3.44,-1.47 6.09,-1.47l2.84 0 48.46 0 0 0zm9.57 0l43.91 0 0 38.67c0,2.22 -0.47,3.8 -1.33,4.8 -0.86,1.01 -2.26,1.55 -4.16,1.55 -1.58,0 -2.73,-0.36 -3.48,-0.97 -0.72,-0.69 -1.4,-2.01 -2.05,-4.06 -2.76,-8.43 -6.81,-14.85 -12.12,-19.26 -5.34,-4.45 -12.27,-7.1 -20.77,-7.96l0 -12.77 0 0zm-0.46 79.31l0 -12.59c4.19,-2.01 7.31,-4.27 9.32,-6.64 2.05,-2.37 3.55,-5.56 4.49,-9.58 0.57,-2.76 1.32,-4.62 2.29,-5.7 0.93,-1.04 2.26,-1.58 4.02,-1.58 2.29,0 3.87,0.9 4.77,2.73 0.5,0.97 0.75,3.08 0.75,6.42l0 41.43c0,3.47 -0.39,5.84 -1.15,7.17 -0.75,1.29 -2.15,1.97 -4.16,1.97 -1.68,0 -2.97,-0.54 -3.91,-1.5 -0.96,-1.04 -1.72,-2.77 -2.29,-5.13 -1.22,-5.06 -2.98,-8.94 -5.27,-11.59 -2.26,-2.72 -5.24,-4.52 -8.86,-5.41zm0.68 69.29l0 -11.76c4.73,-0.72 8.61,-1.72 11.69,-3.05 3.09,-1.33 6.17,-3.3 9.29,-5.99 3.12,-2.69 5.6,-5.49 7.46,-8.36 1.83,-2.87 3.62,-6.67 5.27,-11.37 0.79,-2.33 1.65,-3.94 2.51,-4.77 0.83,-0.86 2.08,-1.26 3.59,-1.26 2.01,0 3.41,0.61 4.23,1.8 0.79,1.22 1.19,3.3 1.19,6.28l0 38.48 -45.23 0z"/>
   <path id="_2" class="fil2" d="M490.91 156.82l48.35 0 2.94 0c5.45,0 8.21,1.9 8.21,5.67 0,2.97 -1.47,4.95 -4.37,5.92 -2.41,0.78 -3.81,1.29 -4.2,1.43 -0.43,0.21 -0.83,0.64 -1.29,1.29 -0.83,1.18 -1.29,3.01 -1.29,5.56l0 108.97c0,2.51 0.46,4.37 1.29,5.52 0.46,0.68 0.86,1.08 1.29,1.26 0.39,0.18 1.79,0.68 4.2,1.43 2.9,0.97 4.37,2.94 4.37,5.92 0,3.77 -2.76,5.63 -8.21,5.63l-2.94 0 -48.46 0 -3.55 0c-3.19,0 -5.63,-0.47 -7.25,-1.47 -1.65,-0.97 -2.47,-2.4 -2.47,-4.38 0,-3.19 1.75,-5.2 5.23,-5.99 2.84,-0.75 4.49,-1.18 4.99,-1.36 0.54,-0.18 1,-0.61 1.54,-1.25 1.08,-1.33 1.62,-3.38 1.62,-6.21l0 -127.94 0 0zm-39.82 0l21.45 61.16 9.47 -32.97 0 36.12 -25.14 84.29 -5.78 0 -42.14 -125.32c-1.44,-4.2 -2.98,-7.03 -4.56,-8.47 -0.97,-0.96 -2.58,-1.61 -4.91,-2.08 -4.7,-1 -7.07,-3.26 -7.07,-6.74 0,-1.9 0.68,-3.37 2.01,-4.41 1.29,-1.08 3.23,-1.58 5.78,-1.58l50.89 0zm-42.39 50.22l11.58 32.81 0 32.72c0,3.33 0.11,5.77 0.36,7.21 0.25,1.43 0.83,3.04 1.72,4.8 1.47,3.19 3.59,5.56 6.28,7.14l4.02 2.62c2.72,1.65 4.12,3.51 4.12,5.56 0,3.69 -2.73,5.52 -8.11,5.52l-27.36 0c-5.45,0 -8.22,-1.79 -8.22,-5.41 0,-1.19 0.22,-2.08 0.72,-2.66 0.47,-0.64 1.4,-1.36 2.76,-2.11 8.07,-4.34 12.13,-11.95 12.13,-22.67l0 -65.53 0 0z"/>
   <path class="fil2" d="M212.79 527.7l-48.57 0 -2.83 0c-2.66,0 -4.67,-0.47 -6.1,-1.48 -1.4,-0.96 -2.12,-2.36 -2.12,-4.16 0,-2.97 1.44,-4.95 4.38,-5.91 2.37,-0.76 3.8,-1.26 4.2,-1.44 0.43,-0.18 0.82,-0.61 1.25,-1.25 0.86,-1.15 1.33,-3.02 1.33,-5.56l0 -108.93c0,-2.55 -0.47,-4.38 -1.33,-5.6 -0.43,-0.61 -0.82,-1.08 -1.25,-1.26 -0.4,-0.14 -1.83,-0.64 -4.2,-1.43 -2.94,-0.97 -4.38,-2.94 -4.38,-5.92 0,-1.83 0.72,-3.23 2.12,-4.19 1.43,-1.01 3.44,-1.48 6.1,-1.48l2.83 0 48.57 0 2.79 0c2.66,0 4.67,0.47 6.1,1.48 1.44,0.96 2.12,2.36 2.12,4.19 0,2.98 -1.44,4.95 -4.38,5.92 -2.37,0.79 -3.8,1.29 -4.2,1.43 -0.39,0.18 -0.82,0.65 -1.25,1.26 -0.86,1.22 -1.29,3.05 -1.29,5.6l0 108.93c0,2.54 0.43,4.41 1.29,5.56 0.43,0.64 0.86,1.07 1.25,1.25 0.4,0.18 1.83,0.68 4.2,1.44 2.94,0.96 4.38,2.94 4.38,5.91 0,1.8 -0.68,3.2 -2.12,4.16 -1.43,1.01 -3.44,1.48 -6.1,1.48l-2.79 0z"/>
   <path id="_1_0" class="fil2" d="M338.68 379.09l48.35 0 2.91 0c5.49,0 8.21,1.9 8.21,5.67 0,2.98 -1.43,4.95 -4.37,5.92 -2.37,0.79 -3.77,1.29 -4.2,1.43 -0.4,0.18 -0.83,0.65 -1.26,1.26 -0.86,1.22 -1.29,3.05 -1.29,5.59l0 108.94c0,2.54 0.43,4.41 1.29,5.55 0.43,0.65 0.86,1.08 1.26,1.26 0.43,0.18 1.83,0.68 4.2,1.44 2.94,0.96 4.37,2.94 4.37,5.91 0,3.73 -2.72,5.63 -8.21,5.63l-2.91 0 -48.46 0 -3.58 0c-3.19,0 -5.6,-0.46 -7.25,-1.47 -1.61,-0.96 -2.44,-2.4 -2.44,-4.37 0,-3.19 1.76,-5.2 5.24,-5.99 2.83,-0.76 4.45,-1.19 4.99,-1.37 0.5,-0.21 1,-0.6 1.5,-1.29 1.08,-1.29 1.65,-3.33 1.65,-6.17l0 -127.94 0 0zm-39.81 0l21.41 61.16 9.47 -32.96 0 36.12 -25.14 84.29 -5.74 0 -42.15 -125.33c-1.47,-4.19 -2.97,-7.03 -4.59,-8.46 -0.97,-0.97 -2.54,-1.65 -4.88,-2.08 -4.73,-1.01 -7.06,-3.27 -7.06,-6.78 0,-1.87 0.64,-3.34 2.01,-4.38 1.29,-1.07 3.22,-1.58 5.74,-1.58l50.93 0 0 0zm-42.43 50.22l11.58 32.82 0 32.71c0,3.34 0.14,5.74 0.4,7.21 0.25,1.43 0.82,3.05 1.68,4.77 1.51,3.19 3.62,5.6 6.28,7.17l4.02 2.62c2.76,1.65 4.12,3.52 4.12,5.56 0,3.7 -2.73,5.53 -8.11,5.53l-27.36 0c-5.45,0 -8.22,-1.8 -8.22,-5.42 0,-1.18 0.25,-2.08 0.72,-2.65 0.5,-0.65 1.43,-1.37 2.8,-2.12 8.07,-4.38 12.09,-11.94 12.09,-22.67l0 -65.53 0 0z"/>
   <path id="_2_1" class="fil2" d="M472.61 376.15l0 12.13c-6.38,1.5 -9.57,6.6 -9.57,15.28l0 101.32c0,3.88 0.57,6.89 1.68,9.01 0.97,1.75 3.02,3.22 6.14,4.44l0 12.31c-2.37,0 -4.49,-0.18 -6.42,-0.54 -1.87,-0.36 -4.45,-1.11 -7.64,-2.19 -7.64,-2.62 -14.57,-6.6 -20.74,-11.98 -6.13,-5.34 -11.22,-11.76 -15.24,-19.26 -6.17,-11.66 -9.25,-25.54 -9.25,-41.5 0,-15.42 2.76,-29.16 8.25,-41.14 5.52,-11.94 13.41,-21.34 23.67,-28.19 5.95,-4.02 12.34,-6.85 19.15,-8.61 2.8,-0.72 6.17,-1.08 9.97,-1.08l0 0zm8.93 11.88l0 -11.77c11.81,1.11 21.53,3.3 29.13,6.6 2.3,1.04 4.02,1.58 5.24,1.58 1.18,0 2.04,-0.25 2.69,-0.83 0.61,-0.53 1.86,-2.11 3.76,-4.66 1.29,-1.83 2.91,-2.76 4.88,-2.76 2.01,0 3.44,0.57 4.27,1.68 0.86,1.12 1.25,3.02 1.25,5.6l0 42.43c0,5.49 -2,8.22 -6.06,8.22 -2.04,0 -3.55,-0.54 -4.55,-1.62 -0.97,-1.07 -1.87,-3.23 -2.73,-6.42 -1.11,-4.09 -3.05,-8.82 -5.92,-14.24 -2.83,-5.41 -5.52,-9.68 -8.14,-12.8 -2.94,-3.63 -6.31,-6.28 -10.01,-8 -3.73,-1.69 -8.32,-2.69 -13.8,-3.01l-0.01 0zm49.25 121.52c-2.9,2.9 -6.81,5.84 -11.66,8.82 -4.8,3.01 -9.36,5.42 -13.63,7.14 -3.94,1.54 -8.28,2.8 -13.05,3.73 -4.74,0.93 -8.93,1.4 -12.59,1.4l0 -12.31c2.11,-0.5 3.69,-1.11 4.73,-1.83 1.08,-0.71 1.94,-1.75 2.66,-3.04 1.22,-2.23 1.86,-5.13 1.86,-8.58l0 -31.81c0,-2.8 -0.57,-4.84 -1.65,-6.1 -0.5,-0.72 -1,-1.18 -1.5,-1.36 -0.54,-0.18 -2.16,-0.58 -4.99,-1.26 -3.48,-0.86 -5.24,-2.9 -5.24,-6.1 0,-1.9 0.83,-3.33 2.44,-4.34 1.65,-1 4.06,-1.5 7.25,-1.5l3.59 0 39.92 0c3.3,0 5.59,0.43 6.92,1.36 1.4,0.9 2.04,2.48 2.04,4.7 0,1.4 -0.25,2.55 -0.78,3.44 -0.58,0.9 -1.58,1.87 -3.02,2.87 -1.5,1.01 -2.4,1.98 -2.76,2.84 -0.36,0.89 -0.54,2.47 -0.54,4.8l0 37.13 0 0z"/>
  </g>
 </g>
</svg>
